<?xml version="1.0" encoding="UTF-8" standalone="no"?>
<!DOCTYPE svg PUBLIC "-//W3C//DTD SVG 1.1//EN"
 "http://www.w3.org/Graphics/SVG/1.1/DTD/svg11.dtd">
<!-- Generated by graphviz version 2.38.0 (20140413.2041)
 -->
<!-- Title: panda::Electron Pages: 1 -->
<svg width="1046pt" height="141pt"
 viewBox="0.00 0.00 1046.47 140.88" xmlns="http://www.w3.org/2000/svg" xmlns:xlink="http://www.w3.org/1999/xlink">
<g id="graph0" class="graph" transform="scale(1 1) rotate(0) translate(4 136.879)">
<title>panda::Electron</title>
<polygon fill="white" stroke="none" points="-4,4 -4,-136.879 1042.47,-136.879 1042.47,4 -4,4"/>
<!-- Node1 -->
<g id="node1" class="node"><title>Node1</title>
<polygon fill="#bfbfbf" stroke="black" points="952.446,-36.3787 952.446,-56.3787 1038.47,-56.3787 1038.47,-36.3787 952.446,-36.3787"/>
<text text-anchor="middle" x="995.459" y="-43.3787" font-family="Helvetica,sans-Serif" font-size="10.00">panda::Electron</text>
</g>
<!-- Node2 -->
<g id="node2" class="node"><title>Node2</title>
<g id="a_node2"><a xlink:href="classpanda_1_1Lepton.html" target="_top" xlink:title="panda::Lepton">
<polygon fill="white" stroke="black" points="835.519,-65.3787 835.519,-85.3787 915.446,-85.3787 915.446,-65.3787 835.519,-65.3787"/>
<text text-anchor="middle" x="875.482" y="-72.3787" font-family="Helvetica,sans-Serif" font-size="10.00">panda::Lepton</text>
</a>
</g>
</g>
<!-- Node2&#45;&gt;Node1 -->
<g id="edge1" class="edge"><title>Node2&#45;&gt;Node1</title>
<path fill="none" stroke="midnightblue" d="M925.711,-63.2776C935.039,-60.9847 944.702,-58.6095 953.732,-56.3899"/>
<polygon fill="midnightblue" stroke="midnightblue" points="924.642,-59.9362 915.767,-65.7221 926.313,-66.7338 924.642,-59.9362"/>
</g>
<!-- Node3 -->
<g id="node3" class="node"><title>Node3</title>
<g id="a_node3"><a xlink:href="classpanda_1_1Particle.html" target="_top" xlink:title="panda::Particle">
<polygon fill="white" stroke="black" points="517.422,-112.379 517.422,-132.379 600.107,-132.379 600.107,-112.379 517.422,-112.379"/>
<text text-anchor="middle" x="558.764" y="-119.379" font-family="Helvetica,sans-Serif" font-size="10.00">panda::Particle</text>
</a>
</g>
</g>
<!-- Node3&#45;&gt;Node2 -->
<g id="edge2" class="edge"><title>Node3&#45;&gt;Node2</title>
<path fill="none" stroke="midnightblue" d="M610.263,-118.621C662.494,-114.195 746.243,-105.587 817.519,-91.3787 825.578,-89.7722 834.163,-87.6072 842.158,-85.3898"/>
<polygon fill="midnightblue" stroke="midnightblue" points="609.927,-115.137 600.25,-119.451 610.505,-122.113 609.927,-115.137"/>
</g>
<!-- Node4 -->
<g id="node4" class="node"><title>Node4</title>
<g id="a_node4"><a xlink:href="classpanda_1_1ContainerElement.html" target="_top" xlink:title="panda::ContainerElement">
<polygon fill="white" stroke="black" points="248.729,-106.379 248.729,-126.379 378.096,-126.379 378.096,-106.379 248.729,-106.379"/>
<text text-anchor="middle" x="313.413" y="-113.379" font-family="Helvetica,sans-Serif" font-size="10.00">panda::ContainerElement</text>
</a>
</g>
</g>
<!-- Node4&#45;&gt;Node3 -->
<g id="edge3" class="edge"><title>Node4&#45;&gt;Node3</title>
<path fill="none" stroke="midnightblue" d="M388.604,-118.208C430.861,-119.25 482.181,-120.515 517.136,-121.377"/>
<polygon fill="midnightblue" stroke="midnightblue" points="388.434,-114.703 378.35,-117.955 388.261,-121.701 388.434,-114.703"/>
</g>
<!-- Node5 -->
<g id="node5" class="node"><title>Node5</title>
<g id="a_node5"><a xlink:href="classpanda_1_1Object.html" target="_top" xlink:title="panda::Object">
<polygon fill="white" stroke="black" points="2.84217e-14,-78.3787 2.84217e-14,-98.3787 78.248,-98.3787 78.248,-78.3787 2.84217e-14,-78.3787"/>
<text text-anchor="middle" x="39.124" y="-85.3787" font-family="Helvetica,sans-Serif" font-size="10.00">panda::Object</text>
</a>
</g>
</g>
<!-- Node5&#45;&gt;Node4 -->
<g id="edge4" class="edge"><title>Node5&#45;&gt;Node4</title>
<path fill="none" stroke="midnightblue" d="M88.2772,-93.3304C132.894,-97.9184 199.568,-104.775 248.601,-109.817"/>
<polygon fill="midnightblue" stroke="midnightblue" points="88.5769,-89.8428 78.2713,-92.3015 87.8607,-96.8061 88.5769,-89.8428"/>
</g>
<!-- Node7 -->
<g id="node7" class="node"><title>Node7</title>
<g id="a_node7"><a xlink:href="classpanda_1_1ContainerBase.html" target="_top" xlink:title="Base class for all containers. ">
<polygon fill="white" stroke="black" points="115.248,-44.3787 115.248,-64.3787 230.729,-64.3787 230.729,-44.3787 115.248,-44.3787"/>
<text text-anchor="middle" x="172.989" y="-51.3787" font-family="Helvetica,sans-Serif" font-size="10.00">panda::ContainerBase</text>
</a>
</g>
</g>
<!-- Node5&#45;&gt;Node7 -->
<g id="edge7" class="edge"><title>Node5&#45;&gt;Node7</title>
<path fill="none" stroke="midnightblue" d="M88.2196,-75.9777C102.953,-72.1788 118.972,-68.0485 133.018,-64.4268"/>
<polygon fill="midnightblue" stroke="midnightblue" points="87.0741,-72.6585 78.2647,-78.5445 88.8219,-79.4368 87.0741,-72.6585"/>
</g>
<!-- Node6 -->
<g id="node6" class="node"><title>Node6</title>
<g id="a_node6"><a xlink:href="classpanda_1_1Ref.html" target="_top" xlink:title="panda::Ref\&lt; panda::\lGenParticle \&gt;">
<polygon fill="white" stroke="black" points="632.618,-59.3787 632.618,-91.3787 739.499,-91.3787 739.499,-59.3787 632.618,-59.3787"/>
<text text-anchor="start" x="640.618" y="-78.3787" font-family="Helvetica,sans-Serif" font-size="10.00">panda::Ref&lt; panda::</text>
<text text-anchor="middle" x="686.058" y="-66.3787" font-family="Helvetica,sans-Serif" font-size="10.00">GenParticle &gt;</text>
</a>
</g>
</g>
<!-- Node6&#45;&gt;Node2 -->
<g id="edge5" class="edge"><title>Node6&#45;&gt;Node2</title>
<path fill="none" stroke="#9a32cd" stroke-dasharray="5,2" d="M749.947,-75.3787C778.157,-75.3787 810.561,-75.3787 835.242,-75.3787"/>
<polygon fill="#9a32cd" stroke="#9a32cd" points="749.765,-71.8788 739.765,-75.3787 749.765,-78.8788 749.765,-71.8788"/>
<text text-anchor="middle" x="787.509" y="-78.3787" font-family="Helvetica,sans-Serif" font-size="10.00"> matchedGen</text>
</g>
<!-- Node7&#45;&gt;Node6 -->
<g id="edge6" class="edge"><title>Node7&#45;&gt;Node6</title>
<path fill="none" stroke="#9a32cd" stroke-dasharray="5,2" d="M241.07,-64.6546C243.653,-64.9223 246.213,-65.1656 248.729,-65.3787 386.896,-77.0846 550.492,-77.1647 632.559,-76.2586"/>
<polygon fill="#9a32cd" stroke="#9a32cd" points="241.365,-61.1657 231.034,-63.5133 240.574,-68.1209 241.365,-61.1657"/>
<text text-anchor="middle" x="440.504" y="-79.3787" font-family="Helvetica,sans-Serif" font-size="10.00"> container_</text>
</g>
<!-- Node8 -->
<g id="node8" class="node"><title>Node8</title>
<g id="a_node8"><a xlink:href="classpanda_1_1Ref.html" target="_top" xlink:title="panda::Ref\&lt; E \&gt;">
<polygon fill="white" stroke="black" points="396.096,-26.3787 396.096,-46.3787 484.911,-46.3787 484.911,-26.3787 396.096,-26.3787"/>
<text text-anchor="middle" x="440.504" y="-33.3787" font-family="Helvetica,sans-Serif" font-size="10.00">panda::Ref&lt; E &gt;</text>
</a>
</g>
</g>
<!-- Node7&#45;&gt;Node8 -->
<g id="edge9" class="edge"><title>Node7&#45;&gt;Node8</title>
<path fill="none" stroke="#9a32cd" stroke-dasharray="5,2" d="M241.048,-49.8325C289.557,-46.544 353.712,-42.1947 395.766,-39.3438"/>
<polygon fill="#9a32cd" stroke="#9a32cd" points="240.688,-46.3488 230.948,-50.5173 241.162,-53.3328 240.688,-46.3488"/>
<text text-anchor="middle" x="313.413" y="-52.3787" font-family="Helvetica,sans-Serif" font-size="10.00"> container_</text>
</g>
<!-- Node9 -->
<g id="node9" class="node"><title>Node9</title>
<g id="a_node9"><a xlink:href="classpanda_1_1Ref.html" target="_top" xlink:title="panda::Ref\&lt; panda::\lSuperCluster \&gt;">
<polygon fill="white" stroke="black" points="632.618,-5.3787 632.618,-37.3787 739.499,-37.3787 739.499,-5.3787 632.618,-5.3787"/>
<text text-anchor="start" x="640.618" y="-24.3787" font-family="Helvetica,sans-Serif" font-size="10.00">panda::Ref&lt; panda::</text>
<text text-anchor="middle" x="686.058" y="-12.3787" font-family="Helvetica,sans-Serif" font-size="10.00">SuperCluster &gt;</text>
</a>
</g>
</g>
<!-- Node7&#45;&gt;Node9 -->
<g id="edge11" class="edge"><title>Node7&#45;&gt;Node9</title>
<path fill="none" stroke="#9a32cd" stroke-dasharray="5,2" d="M227.979,-42.0757C234.96,-40.4917 242.014,-38.8943 248.729,-37.3787 314.201,-22.6023 329.384,-11.7567 396.096,-4.3787 492.729,6.30854 517.772,-5.83445 614.618,-14.3787 620.372,-14.8863 626.387,-15.4435 632.374,-16.0149"/>
<polygon fill="#9a32cd" stroke="#9a32cd" points="226.828,-38.748 217.851,-44.3761 228.378,-45.5742 226.828,-38.748"/>
<text text-anchor="middle" x="440.504" y="-7.3787" font-family="Helvetica,sans-Serif" font-size="10.00"> container_</text>
</g>
<!-- Node8&#45;&gt;Node6 -->
<g id="edge8" class="edge"><title>Node8&#45;&gt;Node6</title>
<path fill="none" stroke="orange" stroke-dasharray="5,2" d="M495.415,-41.1049C529.714,-44.5584 574.978,-49.942 614.618,-57.3787 620.449,-58.4726 626.513,-59.7715 632.528,-61.1633"/>
<polygon fill="orange" stroke="orange" points="495.435,-37.5901 485.14,-40.095 494.75,-44.5565 495.435,-37.5901"/>
<text text-anchor="middle" x="558.764" y="-60.3787" font-family="Helvetica,sans-Serif" font-size="10.00"> &lt; panda::GenParticle &gt;</text>
</g>
<!-- Node8&#45;&gt;Node9 -->
<g id="edge12" class="edge"><title>Node8&#45;&gt;Node9</title>
<path fill="none" stroke="orange" stroke-dasharray="5,2" d="M489.445,-24.3957C493.974,-23.5822 498.515,-22.8857 502.911,-22.3787 546.264,-17.3789 595.807,-17.4789 632.268,-18.6334"/>
<polygon fill="orange" stroke="orange" points="488.74,-20.9672 479.606,-26.3353 490.094,-27.835 488.74,-20.9672"/>
<text text-anchor="middle" x="558.764" y="-25.3787" font-family="Helvetica,sans-Serif" font-size="10.00"> &lt; panda::SuperCluster &gt;</text>
</g>
<!-- Node9&#45;&gt;Node1 -->
<g id="edge10" class="edge"><title>Node9&#45;&gt;Node1</title>
<path fill="none" stroke="#9a32cd" stroke-dasharray="5,2" d="M749.72,-26.4747C810.064,-31.3824 899.682,-38.6707 952.076,-42.9318"/>
<polygon fill="#9a32cd" stroke="#9a32cd" points="749.804,-22.9702 739.553,-25.648 749.237,-29.9471 749.804,-22.9702"/>
<text text-anchor="middle" x="875.482" y="-43.3787" font-family="Helvetica,sans-Serif" font-size="10.00"> superCluster</text>
</g>
</g>
</svg>
