<?xml version="1.0" encoding="UTF-8" standalone="no"?>
<!DOCTYPE svg PUBLIC "-//W3C//DTD SVG 1.1//EN"
 "http://www.w3.org/Graphics/SVG/1.1/DTD/svg11.dtd">
<!-- Generated by graphviz version 2.38.0 (20140413.2041)
 -->
<!-- Title: panda::Lepton Pages: 1 -->
<svg width="330pt" height="324pt"
 viewBox="0.00 0.00 330.28 324.00" xmlns="http://www.w3.org/2000/svg" xmlns:xlink="http://www.w3.org/1999/xlink">
<g id="graph0" class="graph" transform="scale(1 1) rotate(0) translate(4 320)">
<title>panda::Lepton</title>
<polygon fill="white" stroke="none" points="-4,4 -4,-320 326.281,-320 326.281,4 -4,4"/>
<!-- Node1 -->
<g id="node1" class="node"><title>Node1</title>
<polygon fill="#bfbfbf" stroke="black" points="52.72,-0.5 52.72,-20.5 132.647,-20.5 132.647,-0.5 52.72,-0.5"/>
<text text-anchor="middle" x="92.6835" y="-7.5" font-family="Helvetica,sans-Serif" font-size="10.00">panda::Lepton</text>
</g>
<!-- Node2 -->
<g id="node2" class="node"><title>Node2</title>
<g id="a_node2"><a xlink:href="classpanda_1_1Particle.html" target="_top" xlink:title="panda::Particle">
<polygon fill="white" stroke="black" points="23.3405,-120.5 23.3405,-140.5 106.026,-140.5 106.026,-120.5 23.3405,-120.5"/>
<text text-anchor="middle" x="64.6835" y="-127.5" font-family="Helvetica,sans-Serif" font-size="10.00">panda::Particle</text>
</a>
</g>
</g>
<!-- Node2&#45;&gt;Node1 -->
<g id="edge1" class="edge"><title>Node2&#45;&gt;Node1</title>
<path fill="none" stroke="midnightblue" d="M69.2658,-110.189C75.3752,-84.442 85.9461,-39.8932 90.4966,-20.7162"/>
<polygon fill="midnightblue" stroke="midnightblue" points="65.784,-109.703 66.8806,-120.241 72.5949,-111.319 65.784,-109.703"/>
</g>
<!-- Node3 -->
<g id="node3" class="node"><title>Node3</title>
<g id="a_node3"><a xlink:href="classpanda_1_1ContainerElement.html" target="_top" xlink:title="panda::ContainerElement">
<polygon fill="white" stroke="black" points="-1.42109e-14,-198.5 -1.42109e-14,-218.5 129.367,-218.5 129.367,-198.5 -1.42109e-14,-198.5"/>
<text text-anchor="middle" x="64.6835" y="-205.5" font-family="Helvetica,sans-Serif" font-size="10.00">panda::ContainerElement</text>
</a>
</g>
</g>
<!-- Node3&#45;&gt;Node2 -->
<g id="edge2" class="edge"><title>Node3&#45;&gt;Node2</title>
<path fill="none" stroke="midnightblue" d="M64.6835,-188.061C64.6835,-172.766 64.6835,-152.155 64.6835,-140.505"/>
<polygon fill="midnightblue" stroke="midnightblue" points="61.1836,-188.483 64.6835,-198.483 68.1836,-188.483 61.1836,-188.483"/>
</g>
<!-- Node4 -->
<g id="node4" class="node"><title>Node4</title>
<g id="a_node4"><a xlink:href="classpanda_1_1Object.html" target="_top" xlink:title="panda::Object">
<polygon fill="white" stroke="black" points="52.5595,-295.5 52.5595,-315.5 130.807,-315.5 130.807,-295.5 52.5595,-295.5"/>
<text text-anchor="middle" x="91.6835" y="-302.5" font-family="Helvetica,sans-Serif" font-size="10.00">panda::Object</text>
</a>
</g>
</g>
<!-- Node4&#45;&gt;Node3 -->
<g id="edge3" class="edge"><title>Node4&#45;&gt;Node3</title>
<path fill="none" stroke="midnightblue" d="M86.3465,-285.722C80.5986,-265.498 71.6896,-234.151 67.3042,-218.721"/>
<polygon fill="midnightblue" stroke="midnightblue" points="82.994,-286.729 89.0946,-295.391 89.7274,-284.815 82.994,-286.729"/>
</g>
<!-- Node6 -->
<g id="node6" class="node"><title>Node6</title>
<g id="a_node6"><a xlink:href="classpanda_1_1ContainerBase.html" target="_top" xlink:title="Base class for all containers. ">
<polygon fill="white" stroke="black" points="92.943,-237.5 92.943,-257.5 208.424,-257.5 208.424,-237.5 92.943,-237.5"/>
<text text-anchor="middle" x="150.683" y="-244.5" font-family="Helvetica,sans-Serif" font-size="10.00">panda::ContainerBase</text>
</a>
</g>
</g>
<!-- Node4&#45;&gt;Node6 -->
<g id="edge6" class="edge"><title>Node4&#45;&gt;Node6</title>
<path fill="none" stroke="midnightblue" d="M108.852,-288.204C119.362,-278.229 132.419,-265.836 141.122,-257.575"/>
<polygon fill="midnightblue" stroke="midnightblue" points="106.27,-285.83 101.426,-295.253 111.089,-290.907 106.27,-285.83"/>
</g>
<!-- Node5 -->
<g id="node5" class="node"><title>Node5</title>
<g id="a_node5"><a xlink:href="classpanda_1_1Ref.html" target="_top" xlink:title="panda::Ref\&lt; panda::\lGenParticle \&gt;">
<polygon fill="white" stroke="black" points="92.243,-69.5 92.243,-101.5 199.124,-101.5 199.124,-69.5 92.243,-69.5"/>
<text text-anchor="start" x="100.243" y="-88.5" font-family="Helvetica,sans-Serif" font-size="10.00">panda::Ref&lt; panda::</text>
<text text-anchor="middle" x="145.683" y="-76.5" font-family="Helvetica,sans-Serif" font-size="10.00">GenParticle &gt;</text>
</a>
</g>
</g>
<!-- Node5&#45;&gt;Node1 -->
<g id="edge4" class="edge"><title>Node5&#45;&gt;Node1</title>
<path fill="none" stroke="#9a32cd" stroke-dasharray="5,2" d="M128.801,-61.2468C118.784,-47.4503 106.647,-30.7325 99.3022,-20.6163"/>
<polygon fill="#9a32cd" stroke="#9a32cd" points="125.994,-63.3385 134.702,-69.3744 131.659,-59.2259 125.994,-63.3385"/>
<text text-anchor="middle" x="151.693" y="-42" font-family="Helvetica,sans-Serif" font-size="10.00"> matchedGen</text>
</g>
<!-- Node6&#45;&gt;Node5 -->
<g id="edge5" class="edge"><title>Node6&#45;&gt;Node5</title>
<path fill="none" stroke="#9a32cd" stroke-dasharray="5,2" d="M150.078,-227.124C149.071,-194.893 147.072,-130.927 146.159,-101.703"/>
<polygon fill="#9a32cd" stroke="#9a32cd" points="146.59,-227.554 150.4,-237.439 153.586,-227.335 146.59,-227.554"/>
<text text-anchor="middle" x="173.413" y="-166.5" font-family="Helvetica,sans-Serif" font-size="10.00"> container_</text>
</g>
<!-- Node7 -->
<g id="node7" class="node"><title>Node7</title>
<g id="a_node7"><a xlink:href="classpanda_1_1Ref.html" target="_top" xlink:title="panda::Ref\&lt; E \&gt;">
<polygon fill="white" stroke="black" points="212.276,-159.5 212.276,-179.5 301.091,-179.5 301.091,-159.5 212.276,-159.5"/>
<text text-anchor="middle" x="256.683" y="-166.5" font-family="Helvetica,sans-Serif" font-size="10.00">panda::Ref&lt; E &gt;</text>
</a>
</g>
</g>
<!-- Node6&#45;&gt;Node7 -->
<g id="edge8" class="edge"><title>Node6&#45;&gt;Node7</title>
<path fill="none" stroke="#9a32cd" stroke-dasharray="5,2" d="M171.466,-231.599C193.077,-216.105 226.203,-192.354 244.124,-179.505"/>
<polygon fill="#9a32cd" stroke="#9a32cd" points="169.347,-228.812 163.259,-237.483 173.426,-234.501 169.347,-228.812"/>
<text text-anchor="middle" x="240.413" y="-205.5" font-family="Helvetica,sans-Serif" font-size="10.00"> container_</text>
</g>
<!-- Node7&#45;&gt;Node5 -->
<g id="edge7" class="edge"><title>Node7&#45;&gt;Node5</title>
<path fill="none" stroke="orange" stroke-dasharray="5,2" d="M236.288,-153.433C216.402,-138.742 186.315,-116.516 166.34,-101.76"/>
<polygon fill="orange" stroke="orange" points="234.257,-156.284 244.38,-159.411 238.417,-150.654 234.257,-156.284"/>
<text text-anchor="middle" x="269.482" y="-127.5" font-family="Helvetica,sans-Serif" font-size="10.00"> &lt; panda::GenParticle &gt;</text>
</g>
</g>
</svg>
