<?xml version="1.0" encoding="UTF-8" standalone="no"?>
<!DOCTYPE svg PUBLIC "-//W3C//DTD SVG 1.1//EN"
 "http://www.w3.org/Graphics/SVG/1.1/DTD/svg11.dtd">
<!-- Generated by graphviz version 2.38.0 (20140413.2041)
 -->
<!-- Title: panda::Met::setStatus Pages: 1 -->
<svg width="294pt" height="29pt"
 viewBox="0.00 0.00 293.86 29.00" xmlns="http://www.w3.org/2000/svg" xmlns:xlink="http://www.w3.org/1999/xlink">
<g id="graph0" class="graph" transform="scale(1 1) rotate(0) translate(4 25)">
<title>panda::Met::setStatus</title>
<polygon fill="white" stroke="none" points="-4,4 -4,-25 289.859,-25 289.859,4 -4,4"/>
<!-- Node1 -->
<g id="node1" class="node"><title>Node1</title>
<polygon fill="#bfbfbf" stroke="black" points="-1.42109e-14,-0.5 -1.42109e-14,-20.5 113.261,-20.5 113.261,-0.5 -1.42109e-14,-0.5"/>
<text text-anchor="middle" x="56.6305" y="-7.5" font-family="Helvetica,sans-Serif" font-size="10.00">panda::Met::setStatus</text>
</g>
<!-- Node2 -->
<g id="node2" class="node"><title>Node2</title>
<g id="a_node2"><a xlink:href="classpanda_1_1RecoMet.html#aea2bae68ddec07eada895ec4ec1b5497" target="_top" xlink:title="Set status of branches with names that correspond to the variables of this object. ">
<polygon fill="white" stroke="black" points="149.261,-0.5 149.261,-20.5 285.859,-20.5 285.859,-0.5 149.261,-0.5"/>
<text text-anchor="middle" x="217.56" y="-7.5" font-family="Helvetica,sans-Serif" font-size="10.00">panda::RecoMet::setStatus</text>
</a>
</g>
</g>
<!-- Node1&#45;&gt;Node2 -->
<g id="edge1" class="edge"><title>Node1&#45;&gt;Node2</title>
<path fill="none" stroke="midnightblue" d="M123.736,-10.5C132.097,-10.5 140.661,-10.5 149.044,-10.5"/>
<polygon fill="midnightblue" stroke="midnightblue" points="123.663,-7.0001 113.663,-10.5 123.663,-14.0001 123.663,-7.0001"/>
</g>
</g>
</svg>
