<?xml version="1.0" encoding="UTF-8" standalone="no"?>
<!DOCTYPE svg PUBLIC "-//W3C//DTD SVG 1.1//EN"
 "http://www.w3.org/Graphics/SVG/1.1/DTD/svg11.dtd">
<!-- Generated by graphviz version 2.38.0 (20140413.2041)
 -->
<!-- Title: panda::Tau::book Pages: 1 -->
<svg width="772pt" height="208pt"
 viewBox="0.00 0.00 772.17 208.00" xmlns="http://www.w3.org/2000/svg" xmlns:xlink="http://www.w3.org/1999/xlink">
<g id="graph0" class="graph" transform="scale(1 1) rotate(0) translate(4 204)">
<title>panda::Tau::book</title>
<polygon fill="white" stroke="none" points="-4,4 -4,-204 768.17,-204 768.17,4 -4,4"/>
<!-- Node1 -->
<g id="node1" class="node"><title>Node1</title>
<polygon fill="#bfbfbf" stroke="black" points="2.84217e-14,-89.5 2.84217e-14,-109.5 93.815,-109.5 93.815,-89.5 2.84217e-14,-89.5"/>
<text text-anchor="middle" x="46.9075" y="-96.5" font-family="Helvetica,sans-Serif" font-size="10.00">panda::Tau::book</text>
</g>
<!-- Node2 -->
<g id="node2" class="node"><title>Node2</title>
<g id="a_node2"><a xlink:href="classpanda_1_1ParticleM.html#acb4f53549465b6799cc02899a1a579eb" target="_top" xlink:title="Book new branches to the tree corresponding to the variables of this object. ">
<polygon fill="white" stroke="black" points="138.707,-109.5 138.707,-129.5 256.957,-129.5 256.957,-109.5 138.707,-109.5"/>
<text text-anchor="middle" x="197.832" y="-116.5" font-family="Helvetica,sans-Serif" font-size="10.00">panda::ParticleM::book</text>
</a>
</g>
</g>
<!-- Node1&#45;&gt;Node2 -->
<g id="edge1" class="edge"><title>Node1&#45;&gt;Node2</title>
<path fill="none" stroke="midnightblue" d="M94.212,-105.718C105.043,-107.173 116.805,-108.753 128.373,-110.306"/>
<polygon fill="midnightblue" stroke="midnightblue" points="128.084,-113.799 138.461,-111.661 129.016,-106.861 128.084,-113.799"/>
</g>
<!-- Node5 -->
<g id="node5" class="node"><title>Node5</title>
<g id="a_node5"><a xlink:href="classpanda_1_1utils_1_1StoreManager.html#a6f30ec459d951e84a1196b7e2ffdcf49" target="_top" xlink:title="panda::utils::StoreManager\l::getName">
<polygon fill="white" stroke="black" points="447.771,-167.5 447.771,-199.5 583.806,-199.5 583.806,-167.5 447.771,-167.5"/>
<text text-anchor="start" x="455.771" y="-186.5" font-family="Helvetica,sans-Serif" font-size="10.00">panda::utils::StoreManager</text>
<text text-anchor="middle" x="515.788" y="-174.5" font-family="Helvetica,sans-Serif" font-size="10.00">::getName</text>
</a>
</g>
</g>
<!-- Node1&#45;&gt;Node5 -->
<g id="edge10" class="edge"><title>Node1&#45;&gt;Node5</title>
<path fill="none" stroke="midnightblue" d="M65.6285,-109.574C81.8927,-118.473 106.873,-131.278 129.815,-139.5 203.808,-166.018 223.852,-170.777 301.85,-180.5 346.495,-186.066 396.81,-187.018 437.317,-186.485"/>
<polygon fill="midnightblue" stroke="midnightblue" points="437.454,-189.984 447.395,-186.32 437.339,-182.984 437.454,-189.984"/>
</g>
<!-- Node6 -->
<g id="node6" class="node"><title>Node6</title>
<g id="a_node6"><a xlink:href="namespacepanda_1_1utils.html#aaa6c7cd5892388e6ffdf713b11abf793" target="_top" xlink:title="Book the branch. ">
<polygon fill="white" stroke="black" points="468.606,-89.5 468.606,-109.5 562.97,-109.5 562.97,-89.5 468.606,-89.5"/>
<text text-anchor="middle" x="515.788" y="-96.5" font-family="Helvetica,sans-Serif" font-size="10.00">panda::utils::book</text>
</a>
</g>
</g>
<!-- Node1&#45;&gt;Node6 -->
<g id="edge11" class="edge"><title>Node1&#45;&gt;Node6</title>
<path fill="none" stroke="midnightblue" d="M93.9516,-99.5C179.987,-99.5 364.865,-99.5 458.288,-99.5"/>
<polygon fill="midnightblue" stroke="midnightblue" points="458.399,-103 468.399,-99.5 458.399,-96.0001 458.399,-103"/>
</g>
<!-- Node9 -->
<g id="node9" class="node"><title>Node9</title>
<g id="a_node9"><a xlink:href="classpanda_1_1utils_1_1StoreManager.html#ae6c8fb6b0c3d25147b09ef8b92b61da8" target="_top" xlink:title="panda::utils::StoreManager\l::getData">
<polygon fill="white" stroke="black" points="129.815,-0.5 129.815,-32.5 265.85,-32.5 265.85,-0.5 129.815,-0.5"/>
<text text-anchor="start" x="137.815" y="-19.5" font-family="Helvetica,sans-Serif" font-size="10.00">panda::utils::StoreManager</text>
<text text-anchor="middle" x="197.832" y="-7.5" font-family="Helvetica,sans-Serif" font-size="10.00">::getData</text>
</a>
</g>
</g>
<!-- Node1&#45;&gt;Node9 -->
<g id="edge12" class="edge"><title>Node1&#45;&gt;Node9</title>
<path fill="none" stroke="midnightblue" d="M62.644,-89.3056C78.771,-78.3501 105.566,-60.7303 129.815,-47.5 136.391,-43.912 143.457,-40.3468 150.447,-36.9808"/>
<polygon fill="midnightblue" stroke="midnightblue" points="152.327,-39.9637 159.877,-32.531 149.34,-33.633 152.327,-39.9637"/>
</g>
<!-- Node3 -->
<g id="node3" class="node"><title>Node3</title>
<g id="a_node3"><a xlink:href="classpanda_1_1Particle.html#aaf351374f253978216b4a893a1766a64" target="_top" xlink:title="Book new branches to the tree corresponding to the variables of this object. ">
<polygon fill="white" stroke="black" points="301.85,-128.5 301.85,-148.5 411.771,-148.5 411.771,-128.5 301.85,-128.5"/>
<text text-anchor="middle" x="356.81" y="-135.5" font-family="Helvetica,sans-Serif" font-size="10.00">panda::Particle::book</text>
</a>
</g>
</g>
<!-- Node2&#45;&gt;Node3 -->
<g id="edge2" class="edge"><title>Node2&#45;&gt;Node3</title>
<path fill="none" stroke="midnightblue" d="M257.285,-126.575C268.431,-127.924 280.154,-129.343 291.471,-130.713"/>
<polygon fill="midnightblue" stroke="midnightblue" points="291.374,-134.226 301.722,-131.953 292.215,-127.277 291.374,-134.226"/>
</g>
<!-- Node2&#45;&gt;Node5 -->
<g id="edge8" class="edge"><title>Node2&#45;&gt;Node5</title>
<path fill="none" stroke="midnightblue" d="M220.838,-129.64C241.362,-138.657 273.054,-151.472 301.85,-158.5 346.02,-169.28 396.518,-175.465 437.249,-178.985"/>
<polygon fill="midnightblue" stroke="midnightblue" points="437.13,-182.487 447.384,-179.824 437.707,-175.511 437.13,-182.487"/>
</g>
<!-- Node2&#45;&gt;Node6 -->
<g id="edge9" class="edge"><title>Node2&#45;&gt;Node6</title>
<path fill="none" stroke="midnightblue" d="M257.152,-115.808C314.392,-112.185 401.136,-106.694 457.884,-103.102"/>
<polygon fill="midnightblue" stroke="midnightblue" points="458.358,-106.579 468.117,-102.454 457.916,-99.5931 458.358,-106.579"/>
</g>
<!-- Node4 -->
<g id="node4" class="node"><title>Node4</title>
<g id="a_node4"><a xlink:href="classpanda_1_1Object.html#a2fcd6665633deef16e86aa4e49135dd7" target="_top" xlink:title="Book new branches to the tree corresponding to the variables of this object. ">
<polygon fill="white" stroke="black" points="463.047,-128.5 463.047,-148.5 568.53,-148.5 568.53,-128.5 463.047,-128.5"/>
<text text-anchor="middle" x="515.788" y="-135.5" font-family="Helvetica,sans-Serif" font-size="10.00">panda::Object::book</text>
</a>
</g>
</g>
<!-- Node3&#45;&gt;Node4 -->
<g id="edge3" class="edge"><title>Node3&#45;&gt;Node4</title>
<path fill="none" stroke="midnightblue" d="M411.833,-138.5C424.979,-138.5 439.141,-138.5 452.63,-138.5"/>
<polygon fill="midnightblue" stroke="midnightblue" points="452.786,-142 462.786,-138.5 452.786,-135 452.786,-142"/>
</g>
<!-- Node3&#45;&gt;Node5 -->
<g id="edge4" class="edge"><title>Node3&#45;&gt;Node5</title>
<path fill="none" stroke="midnightblue" d="M393.039,-148.599C409.588,-153.343 429.868,-159.156 449.095,-164.668"/>
<polygon fill="midnightblue" stroke="midnightblue" points="448.15,-168.038 458.727,-167.429 450.079,-161.309 448.15,-168.038"/>
</g>
<!-- Node3&#45;&gt;Node6 -->
<g id="edge5" class="edge"><title>Node3&#45;&gt;Node6</title>
<path fill="none" stroke="midnightblue" d="M398.236,-128.457C418.469,-123.43 443.155,-117.297 464.591,-111.971"/>
<polygon fill="midnightblue" stroke="midnightblue" points="465.639,-115.317 474.5,-109.509 463.951,-108.524 465.639,-115.317"/>
</g>
<!-- Node7 -->
<g id="node7" class="node"><title>Node7</title>
<g id="a_node7"><a xlink:href="classpanda_1_1utils_1_1BranchName.html#a6cc8a6df7c5b12a0221fd49773cca6a7" target="_top" xlink:title="Is the name included and not vetoed? ">
<polygon fill="white" stroke="black" points="619.806,-112.5 619.806,-132.5 764.17,-132.5 764.17,-112.5 619.806,-112.5"/>
<text text-anchor="middle" x="691.988" y="-119.5" font-family="Helvetica,sans-Serif" font-size="10.00">panda::utils::BranchName::in</text>
</a>
</g>
</g>
<!-- Node6&#45;&gt;Node7 -->
<g id="edge6" class="edge"><title>Node6&#45;&gt;Node7</title>
<path fill="none" stroke="midnightblue" d="M563.013,-105.603C577.371,-107.499 593.644,-109.647 609.656,-111.762"/>
<polygon fill="midnightblue" stroke="midnightblue" points="609.201,-115.232 619.573,-113.071 610.117,-108.292 609.201,-115.232"/>
</g>
<!-- Node8 -->
<g id="node8" class="node"><title>Node8</title>
<g id="a_node8"><a xlink:href="classpanda_1_1utils_1_1BranchName.html#a13958ff4a9d554d2c057c600b4f70412" target="_top" xlink:title="Prepend the branch name with &lt;objName.&gt;. ">
<polygon fill="white" stroke="black" points="626.474,-61.5 626.474,-93.5 757.502,-93.5 757.502,-61.5 626.474,-61.5"/>
<text text-anchor="start" x="634.474" y="-80.5" font-family="Helvetica,sans-Serif" font-size="10.00">panda::utils::BranchName</text>
<text text-anchor="middle" x="691.988" y="-68.5" font-family="Helvetica,sans-Serif" font-size="10.00">::fullName</text>
</a>
</g>
</g>
<!-- Node6&#45;&gt;Node8 -->
<g id="edge7" class="edge"><title>Node6&#45;&gt;Node8</title>
<path fill="none" stroke="midnightblue" d="M563.013,-93.6622C579.342,-91.6 598.15,-89.2247 616.233,-86.9409"/>
<polygon fill="midnightblue" stroke="midnightblue" points="616.702,-90.4096 626.184,-85.6842 615.825,-83.4648 616.702,-90.4096"/>
</g>
</g>
</svg>
