<?xml version="1.0" encoding="UTF-8" standalone="no"?>
<!DOCTYPE svg PUBLIC "-//W3C//DTD SVG 1.1//EN"
 "http://www.w3.org/Graphics/SVG/1.1/DTD/svg11.dtd">
<!-- Generated by graphviz version 2.38.0 (20140413.2041)
 -->
<!-- Title: panda::Object::book Pages: 1 -->
<svg width="841pt" height="347pt"
 viewBox="0.00 0.00 840.86 347.00" xmlns="http://www.w3.org/2000/svg" xmlns:xlink="http://www.w3.org/1999/xlink">
<g id="graph0" class="graph" transform="scale(1 1) rotate(0) translate(4 343)">
<title>panda::Object::book</title>
<polygon fill="white" stroke="none" points="-4,4 -4,-343 836.863,-343 836.863,4 -4,4"/>
<!-- Node1 -->
<g id="node1" class="node"><title>Node1</title>
<polygon fill="#bfbfbf" stroke="black" points="-2.84217e-14,-189.5 -2.84217e-14,-209.5 105.483,-209.5 105.483,-189.5 -2.84217e-14,-189.5"/>
<text text-anchor="middle" x="52.7415" y="-196.5" font-family="Helvetica,sans-Serif" font-size="10.00">panda::Object::book</text>
</g>
<!-- Node2 -->
<g id="node2" class="node"><title>Node2</title>
<g id="a_node2"><a xlink:href="classpanda_1_1GenReweight.html#a1954e0eca16ff2540a5136e266f70626" target="_top" xlink:title="Book new branches to the tree corresponding to the variables of this object. ">
<polygon fill="white" stroke="black" points="146.756,-306.5 146.756,-338.5 256.678,-338.5 256.678,-306.5 146.756,-306.5"/>
<text text-anchor="start" x="154.756" y="-325.5" font-family="Helvetica,sans-Serif" font-size="10.00">panda::GenReweight</text>
<text text-anchor="middle" x="201.717" y="-313.5" font-family="Helvetica,sans-Serif" font-size="10.00">::book</text>
</a>
</g>
</g>
<!-- Node1&#45;&gt;Node2 -->
<g id="edge1" class="edge"><title>Node1&#45;&gt;Node2</title>
<path fill="none" stroke="midnightblue" d="M66.4056,-218.041C81.9364,-239.603 110.095,-275.093 141.483,-297.5 146.116,-300.808 151.254,-303.789 156.512,-306.444"/>
<polygon fill="midnightblue" stroke="midnightblue" points="69.1715,-215.89 60.55,-209.731 63.4495,-219.922 69.1715,-215.89"/>
</g>
<!-- Node3 -->
<g id="node3" class="node"><title>Node3</title>
<g id="a_node3"><a xlink:href="classpanda_1_1HLTBits.html#a0ff2d398553ab592232fc0d9eb89a0e0" target="_top" xlink:title="Book new branches to the tree corresponding to the variables of this object. ">
<polygon fill="white" stroke="black" points="145.647,-267.5 145.647,-287.5 257.788,-287.5 257.788,-267.5 145.647,-267.5"/>
<text text-anchor="middle" x="201.717" y="-274.5" font-family="Helvetica,sans-Serif" font-size="10.00">panda::HLTBits::book</text>
</a>
</g>
</g>
<!-- Node1&#45;&gt;Node3 -->
<g id="edge2" class="edge"><title>Node1&#45;&gt;Node3</title>
<path fill="none" stroke="midnightblue" d="M74.5966,-215.996C91.7627,-228.949 117.146,-246.708 141.483,-258.5 148.481,-261.891 156.228,-264.877 163.749,-267.418"/>
<polygon fill="midnightblue" stroke="midnightblue" points="76.4815,-213.031 66.418,-209.718 72.2189,-218.583 76.4815,-213.031"/>
</g>
<!-- Node4 -->
<g id="node4" class="node"><title>Node4</title>
<g id="a_node4"><a xlink:href="classpanda_1_1Met.html#aca05a4a18ca9ff84de5761e081169fd3" target="_top" xlink:title="Book new branches to the tree corresponding to the variables of this object. ">
<polygon fill="white" stroke="black" points="155.09,-228.5 155.09,-248.5 248.345,-248.5 248.345,-228.5 155.09,-228.5"/>
<text text-anchor="middle" x="201.717" y="-235.5" font-family="Helvetica,sans-Serif" font-size="10.00">panda::Met::book</text>
</a>
</g>
</g>
<!-- Node1&#45;&gt;Node4 -->
<g id="edge3" class="edge"><title>Node1&#45;&gt;Node4</title>
<path fill="none" stroke="midnightblue" d="M101.423,-212.152C121.378,-217.447 144.242,-223.514 162.996,-228.491"/>
<polygon fill="midnightblue" stroke="midnightblue" points="102.155,-208.725 91.5915,-209.543 100.359,-215.491 102.155,-208.725"/>
</g>
<!-- Node6 -->
<g id="node6" class="node"><title>Node6</title>
<g id="a_node6"><a xlink:href="classpanda_1_1MetFilters.html#afa8d93edaa81edb2f746de3e62fc6303" target="_top" xlink:title="Book new branches to the tree corresponding to the variables of this object. ">
<polygon fill="white" stroke="black" points="141.483,-189.5 141.483,-209.5 261.952,-209.5 261.952,-189.5 141.483,-189.5"/>
<text text-anchor="middle" x="201.717" y="-196.5" font-family="Helvetica,sans-Serif" font-size="10.00">panda::MetFilters::book</text>
</a>
</g>
</g>
<!-- Node1&#45;&gt;Node6 -->
<g id="edge5" class="edge"><title>Node1&#45;&gt;Node6</title>
<path fill="none" stroke="midnightblue" d="M115.76,-199.5C124.232,-199.5 132.913,-199.5 141.337,-199.5"/>
<polygon fill="midnightblue" stroke="midnightblue" points="115.56,-196 105.56,-199.5 115.56,-203 115.56,-196"/>
</g>
<!-- Node7 -->
<g id="node7" class="node"><title>Node7</title>
<g id="a_node7"><a xlink:href="classpanda_1_1Particle.html#aaf351374f253978216b4a893a1766a64" target="_top" xlink:title="Book new branches to the tree corresponding to the variables of this object. ">
<polygon fill="white" stroke="black" points="146.757,-150.5 146.757,-170.5 256.678,-170.5 256.678,-150.5 146.757,-150.5"/>
<text text-anchor="middle" x="201.717" y="-157.5" font-family="Helvetica,sans-Serif" font-size="10.00">panda::Particle::book</text>
</a>
</g>
</g>
<!-- Node1&#45;&gt;Node7 -->
<g id="edge6" class="edge"><title>Node1&#45;&gt;Node7</title>
<path fill="none" stroke="midnightblue" d="M101.423,-186.848C121.378,-181.553 144.242,-175.486 162.996,-170.509"/>
<polygon fill="midnightblue" stroke="midnightblue" points="100.359,-183.509 91.5915,-189.457 102.155,-190.275 100.359,-183.509"/>
</g>
<!-- Node21 -->
<g id="node21" class="node"><title>Node21</title>
<g id="a_node21"><a xlink:href="classpanda_1_1Recoil.html#a82d484c82f00822053131eed5dbe9644" target="_top" xlink:title="Book new branches to the tree corresponding to the variables of this object. ">
<polygon fill="white" stroke="black" points="149.536,-111.5 149.536,-131.5 253.899,-131.5 253.899,-111.5 149.536,-111.5"/>
<text text-anchor="middle" x="201.717" y="-118.5" font-family="Helvetica,sans-Serif" font-size="10.00">panda::Recoil::book</text>
</a>
</g>
</g>
<!-- Node1&#45;&gt;Node21 -->
<g id="edge20" class="edge"><title>Node1&#45;&gt;Node21</title>
<path fill="none" stroke="midnightblue" d="M74.9884,-183.186C92.2015,-170.541 117.457,-153.25 141.483,-141.5 149.186,-137.733 157.776,-134.386 165.971,-131.559"/>
<polygon fill="midnightblue" stroke="midnightblue" points="72.6894,-180.534 66.7693,-189.321 76.8766,-186.144 72.6894,-180.534"/>
</g>
<!-- Node22 -->
<g id="node22" class="node"><title>Node22</title>
<g id="a_node22"><a xlink:href="classpanda_1_1SuperCluster.html#a9a140039f4cfbbb734b6983a757659b1" target="_top" xlink:title="Book new branches to the tree corresponding to the variables of this object. ">
<polygon fill="white" stroke="black" points="147.871,-60.5 147.871,-92.5 255.563,-92.5 255.563,-60.5 147.871,-60.5"/>
<text text-anchor="start" x="155.871" y="-79.5" font-family="Helvetica,sans-Serif" font-size="10.00">panda::SuperCluster</text>
<text text-anchor="middle" x="201.717" y="-67.5" font-family="Helvetica,sans-Serif" font-size="10.00">::book</text>
</a>
</g>
</g>
<!-- Node1&#45;&gt;Node22 -->
<g id="edge21" class="edge"><title>Node1&#45;&gt;Node22</title>
<path fill="none" stroke="midnightblue" d="M66.5027,-181.233C82.1267,-159.973 110.374,-124.923 141.483,-102.5 146.585,-98.8225 152.289,-95.5098 158.088,-92.5782"/>
<polygon fill="midnightblue" stroke="midnightblue" points="63.6089,-179.263 60.6081,-189.424 69.2904,-183.352 63.6089,-179.263"/>
</g>
<!-- Node5 -->
<g id="node5" class="node"><title>Node5</title>
<g id="a_node5"><a xlink:href="classpanda_1_1RecoMet.html#a3930c94d8aa8e2c46d87d7d55625f1fb" target="_top" xlink:title="Book new branches to the tree corresponding to the variables of this object. ">
<polygon fill="white" stroke="black" points="298.781,-273.5 298.781,-293.5 415.373,-293.5 415.373,-273.5 298.781,-273.5"/>
<text text-anchor="middle" x="357.077" y="-280.5" font-family="Helvetica,sans-Serif" font-size="10.00">panda::RecoMet::book</text>
</a>
</g>
</g>
<!-- Node4&#45;&gt;Node5 -->
<g id="edge4" class="edge"><title>Node4&#45;&gt;Node5</title>
<path fill="none" stroke="midnightblue" d="M246.988,-251.49C270.79,-258.475 299.699,-266.957 321.775,-273.435"/>
<polygon fill="midnightblue" stroke="midnightblue" points="247.715,-248.056 237.134,-248.599 245.744,-254.773 247.715,-248.056"/>
</g>
<!-- Node8 -->
<g id="node8" class="node"><title>Node8</title>
<g id="a_node8"><a xlink:href="classpanda_1_1Lepton.html#a4be584d13f41f6c922d6fe58056ec25d" target="_top" xlink:title="Book new branches to the tree corresponding to the variables of this object. ">
<polygon fill="white" stroke="black" points="303.496,-234.5 303.496,-254.5 410.658,-254.5 410.658,-234.5 303.496,-234.5"/>
<text text-anchor="middle" x="357.077" y="-241.5" font-family="Helvetica,sans-Serif" font-size="10.00">panda::Lepton::book</text>
</a>
</g>
</g>
<!-- Node7&#45;&gt;Node8 -->
<g id="edge7" class="edge"><title>Node7&#45;&gt;Node8</title>
<path fill="none" stroke="midnightblue" d="M247.394,-174.118C252.386,-176.07 257.332,-178.203 261.952,-180.5 293.271,-196.071 326.278,-220.705 343.666,-234.426"/>
<polygon fill="midnightblue" stroke="midnightblue" points="248.404,-170.761 237.811,-170.595 245.988,-177.331 248.404,-170.761"/>
</g>
<!-- Node11 -->
<g id="node11" class="node"><title>Node11</title>
<g id="a_node11"><a xlink:href="classpanda_1_1ParticleM.html#acb4f53549465b6799cc02899a1a579eb" target="_top" xlink:title="Book new branches to the tree corresponding to the variables of this object. ">
<polygon fill="white" stroke="black" points="297.952,-128.5 297.952,-148.5 416.202,-148.5 416.202,-128.5 297.952,-128.5"/>
<text text-anchor="middle" x="357.077" y="-135.5" font-family="Helvetica,sans-Serif" font-size="10.00">panda::ParticleM::book</text>
</a>
</g>
</g>
<!-- Node7&#45;&gt;Node11 -->
<g id="edge10" class="edge"><title>Node7&#45;&gt;Node11</title>
<path fill="none" stroke="midnightblue" d="M266.905,-151.292C277.154,-149.822 287.708,-148.308 297.81,-146.859"/>
<polygon fill="midnightblue" stroke="midnightblue" points="266.188,-147.859 256.786,-152.744 267.182,-154.788 266.188,-147.859"/>
</g>
<!-- Node20 -->
<g id="node20" class="node"><title>Node20</title>
<g id="a_node20"><a xlink:href="classpanda_1_1Photon.html#af824c1f835d0c088bf82614984ab34ee" target="_top" xlink:title="Book new branches to the tree corresponding to the variables of this object. ">
<polygon fill="white" stroke="black" points="302.941,-89.5 302.941,-109.5 411.213,-109.5 411.213,-89.5 302.941,-89.5"/>
<text text-anchor="middle" x="357.077" y="-96.5" font-family="Helvetica,sans-Serif" font-size="10.00">panda::Photon::book</text>
</a>
</g>
</g>
<!-- Node7&#45;&gt;Node20 -->
<g id="edge19" class="edge"><title>Node7&#45;&gt;Node20</title>
<path fill="none" stroke="midnightblue" d="M248.248,-147.124C252.936,-145.383 257.579,-143.503 261.952,-141.5 279,-133.692 280.987,-127.486 297.952,-119.5 305.773,-115.818 314.464,-112.464 322.691,-109.599"/>
<polygon fill="midnightblue" stroke="midnightblue" points="246.913,-143.883 238.634,-150.495 249.229,-150.489 246.913,-143.883"/>
</g>
<!-- Node9 -->
<g id="node9" class="node"><title>Node9</title>
<g id="a_node9"><a xlink:href="classpanda_1_1Electron.html#a77a28ebcf6778febcd82ae81cbf7d74c" target="_top" xlink:title="Book new branches to the tree corresponding to the variables of this object. ">
<polygon fill="white" stroke="black" points="452.752,-285.5 452.752,-305.5 566.013,-305.5 566.013,-285.5 452.752,-285.5"/>
<text text-anchor="middle" x="509.383" y="-292.5" font-family="Helvetica,sans-Serif" font-size="10.00">panda::Electron::book</text>
</a>
</g>
</g>
<!-- Node8&#45;&gt;Node9 -->
<g id="edge8" class="edge"><title>Node8&#45;&gt;Node9</title>
<path fill="none" stroke="midnightblue" d="M397.299,-257.85C414.191,-263.595 434.166,-270.384 452.202,-276.5 460.783,-279.41 470.103,-282.564 478.64,-285.451"/>
<polygon fill="midnightblue" stroke="midnightblue" points="398.342,-254.508 387.748,-254.601 396.088,-261.135 398.342,-254.508"/>
</g>
<!-- Node10 -->
<g id="node10" class="node"><title>Node10</title>
<g id="a_node10"><a xlink:href="classpanda_1_1Muon.html#a24dbbfcffa726e1594dcccd1db34fe5f" target="_top" xlink:title="Book new branches to the tree corresponding to the variables of this object. ">
<polygon fill="white" stroke="black" points="458.586,-246.5 458.586,-266.5 560.18,-266.5 560.18,-246.5 458.586,-246.5"/>
<text text-anchor="middle" x="509.383" y="-253.5" font-family="Helvetica,sans-Serif" font-size="10.00">panda::Muon::book</text>
</a>
</g>
</g>
<!-- Node8&#45;&gt;Node10 -->
<g id="edge9" class="edge"><title>Node8&#45;&gt;Node10</title>
<path fill="none" stroke="midnightblue" d="M421.329,-249.55C433.703,-250.538 446.518,-251.561 458.387,-252.508"/>
<polygon fill="midnightblue" stroke="midnightblue" points="421.316,-246.038 411.069,-248.731 420.759,-253.016 421.316,-246.038"/>
</g>
<!-- Node12 -->
<g id="node12" class="node"><title>Node12</title>
<g id="a_node12"><a xlink:href="classpanda_1_1GenJet.html#a0ca47c595bf1dce791d3c06c75f3fbaf" target="_top" xlink:title="Book new branches to the tree corresponding to the variables of this object. ">
<polygon fill="white" stroke="black" points="454.971,-207.5 454.971,-227.5 563.794,-227.5 563.794,-207.5 454.971,-207.5"/>
<text text-anchor="middle" x="509.383" y="-214.5" font-family="Helvetica,sans-Serif" font-size="10.00">panda::GenJet::book</text>
</a>
</g>
</g>
<!-- Node11&#45;&gt;Node12 -->
<g id="edge11" class="edge"><title>Node11&#45;&gt;Node12</title>
<path fill="none" stroke="midnightblue" d="M379.816,-154.505C398.352,-167.614 426.069,-185.979 452.202,-198.5 459.166,-201.837 466.872,-204.849 474.287,-207.441"/>
<polygon fill="midnightblue" stroke="midnightblue" points="381.668,-151.525 371.502,-148.54 377.587,-157.213 381.668,-151.525"/>
</g>
<!-- Node13 -->
<g id="node13" class="node"><title>Node13</title>
<g id="a_node13"><a xlink:href="classpanda_1_1GenParticle.html#a748bcf33806985c71d40c09e564e46ba" target="_top" xlink:title="Book new branches to the tree corresponding to the variables of this object. ">
<polygon fill="white" stroke="black" points="458.591,-156.5 458.591,-188.5 560.174,-188.5 560.174,-156.5 458.591,-156.5"/>
<text text-anchor="start" x="466.591" y="-175.5" font-family="Helvetica,sans-Serif" font-size="10.00">panda::GenParticle</text>
<text text-anchor="middle" x="509.383" y="-163.5" font-family="Helvetica,sans-Serif" font-size="10.00">::book</text>
</a>
</g>
</g>
<!-- Node11&#45;&gt;Node13 -->
<g id="edge12" class="edge"><title>Node11&#45;&gt;Node13</title>
<path fill="none" stroke="midnightblue" d="M412.504,-150.812C427.477,-154.199 443.641,-157.855 458.353,-161.183"/>
<polygon fill="midnightblue" stroke="midnightblue" points="412.887,-147.31 402.361,-148.517 411.342,-154.137 412.887,-147.31"/>
</g>
<!-- Node14 -->
<g id="node14" class="node"><title>Node14</title>
<g id="a_node14"><a xlink:href="classpanda_1_1MicroJet.html#a6d1f2d8a49162e3abdebd7647df6131e" target="_top" xlink:title="Book new branches to the tree corresponding to the variables of this object. ">
<polygon fill="white" stroke="black" points="452.202,-117.5 452.202,-137.5 566.564,-137.5 566.564,-117.5 452.202,-117.5"/>
<text text-anchor="middle" x="509.383" y="-124.5" font-family="Helvetica,sans-Serif" font-size="10.00">panda::MicroJet::book</text>
</a>
</g>
</g>
<!-- Node11&#45;&gt;Node14 -->
<g id="edge13" class="edge"><title>Node11&#45;&gt;Node14</title>
<path fill="none" stroke="midnightblue" d="M426.737,-133.475C435.098,-132.863 443.567,-132.243 451.726,-131.646"/>
<polygon fill="midnightblue" stroke="midnightblue" points="426.337,-129.995 416.62,-134.216 426.848,-136.976 426.337,-129.995"/>
</g>
<!-- Node17 -->
<g id="node17" class="node"><title>Node17</title>
<g id="a_node17"><a xlink:href="classpanda_1_1Parton.html#aaffc6b5ba36cc920e48cc00cac8eb65e" target="_top" xlink:title="Book new branches to the tree corresponding to the variables of this object. ">
<polygon fill="white" stroke="black" points="456.362,-78.5 456.362,-98.5 562.404,-98.5 562.404,-78.5 456.362,-78.5"/>
<text text-anchor="middle" x="509.383" y="-85.5" font-family="Helvetica,sans-Serif" font-size="10.00">panda::Parton::book</text>
</a>
</g>
</g>
<!-- Node11&#45;&gt;Node17 -->
<g id="edge16" class="edge"><title>Node11&#45;&gt;Node17</title>
<path fill="none" stroke="midnightblue" d="M398.624,-125.295C404.523,-123.359 410.521,-121.384 416.202,-119.5 437.036,-112.592 460.482,-104.706 478.514,-98.6162"/>
<polygon fill="midnightblue" stroke="midnightblue" points="397.276,-122.053 388.862,-128.491 399.455,-128.705 397.276,-122.053"/>
</g>
<!-- Node18 -->
<g id="node18" class="node"><title>Node18</title>
<g id="a_node18"><a xlink:href="classpanda_1_1PFCand.html#ae77bd179a738d0e61895dc5e5182a45f" target="_top" xlink:title="Book new branches to the tree corresponding to the variables of this object. ">
<polygon fill="white" stroke="black" points="452.752,-39.5 452.752,-59.5 566.014,-59.5 566.014,-39.5 452.752,-39.5"/>
<text text-anchor="middle" x="509.383" y="-46.5" font-family="Helvetica,sans-Serif" font-size="10.00">panda::PFCand::book</text>
</a>
</g>
</g>
<!-- Node11&#45;&gt;Node18 -->
<g id="edge17" class="edge"><title>Node11&#45;&gt;Node18</title>
<path fill="none" stroke="midnightblue" d="M409.178,-123.966C411.63,-122.604 413.989,-121.118 416.202,-119.5 438.306,-103.338 430.31,-85.9492 452.202,-69.5 457.582,-65.4575 463.852,-62.1784 470.213,-59.5357"/>
<polygon fill="midnightblue" stroke="midnightblue" points="407.484,-120.897 399.985,-128.381 410.515,-127.207 407.484,-120.897"/>
</g>
<!-- Node19 -->
<g id="node19" class="node"><title>Node19</title>
<g id="a_node19"><a xlink:href="classpanda_1_1Tau.html#a4f31bfd77bced4bc2935e1cb2ddce5e7" target="_top" xlink:title="Book new branches to the tree corresponding to the variables of this object. ">
<polygon fill="white" stroke="black" points="462.475,-0.5 462.475,-20.5 556.29,-20.5 556.29,-0.5 462.475,-0.5"/>
<text text-anchor="middle" x="509.383" y="-7.5" font-family="Helvetica,sans-Serif" font-size="10.00">panda::Tau::book</text>
</a>
</g>
</g>
<!-- Node11&#45;&gt;Node19 -->
<g id="edge18" class="edge"><title>Node11&#45;&gt;Node19</title>
<path fill="none" stroke="midnightblue" d="M411.563,-123.291C413.193,-122.12 414.747,-120.859 416.202,-119.5 447.388,-90.3784 421.398,-60.0256 452.202,-30.5 456.462,-26.4164 461.611,-23.1598 467.04,-20.5644"/>
<polygon fill="midnightblue" stroke="midnightblue" points="409.704,-120.325 402.88,-128.429 413.268,-126.349 409.704,-120.325"/>
</g>
<!-- Node15 -->
<g id="node15" class="node"><title>Node15</title>
<g id="a_node15"><a xlink:href="classpanda_1_1Jet.html#af047a1a3e21716a28f9a1deaa9d43123" target="_top" xlink:title="Book new branches to the tree corresponding to the variables of this object. ">
<polygon fill="white" stroke="black" points="602.564,-117.5 602.564,-137.5 692.49,-137.5 692.49,-117.5 602.564,-117.5"/>
<text text-anchor="middle" x="647.527" y="-124.5" font-family="Helvetica,sans-Serif" font-size="10.00">panda::Jet::book</text>
</a>
</g>
</g>
<!-- Node14&#45;&gt;Node15 -->
<g id="edge14" class="edge"><title>Node14&#45;&gt;Node15</title>
<path fill="none" stroke="midnightblue" d="M577.004,-127.5C585.619,-127.5 594.266,-127.5 602.391,-127.5"/>
<polygon fill="midnightblue" stroke="midnightblue" points="576.938,-124 566.938,-127.5 576.938,-131 576.938,-124"/>
</g>
<!-- Node16 -->
<g id="node16" class="node"><title>Node16</title>
<g id="a_node16"><a xlink:href="classpanda_1_1FatJet.html#a733475668d0bd2a7dd5030909e87305c" target="_top" xlink:title="Book new branches to the tree corresponding to the variables of this object. ">
<polygon fill="white" stroke="black" points="728.49,-117.5 728.49,-137.5 832.863,-137.5 832.863,-117.5 728.49,-117.5"/>
<text text-anchor="middle" x="780.676" y="-124.5" font-family="Helvetica,sans-Serif" font-size="10.00">panda::FatJet::book</text>
</a>
</g>
</g>
<!-- Node15&#45;&gt;Node16 -->
<g id="edge15" class="edge"><title>Node15&#45;&gt;Node16</title>
<path fill="none" stroke="midnightblue" d="M702.709,-127.5C711.165,-127.5 719.882,-127.5 728.274,-127.5"/>
<polygon fill="midnightblue" stroke="midnightblue" points="702.563,-124 692.563,-127.5 702.563,-131 702.563,-124"/>
</g>
</g>
</svg>
