<?xml version="1.0" encoding="UTF-8" standalone="no"?>
<!DOCTYPE svg PUBLIC "-//W3C//DTD SVG 1.1//EN"
 "http://www.w3.org/Graphics/SVG/1.1/DTD/svg11.dtd">
<!-- Generated by graphviz version 2.38.0 (20140413.2041)
 -->
<!-- Title: panda::Met::setStatus Pages: 1 -->
<svg width="463pt" height="170pt"
 viewBox="0.00 0.00 463.11 170.00" xmlns="http://www.w3.org/2000/svg" xmlns:xlink="http://www.w3.org/1999/xlink">
<g id="graph0" class="graph" transform="scale(1 1) rotate(0) translate(4 166)">
<title>panda::Met::setStatus</title>
<polygon fill="white" stroke="none" points="-4,4 -4,-166 459.114,-166 459.114,4 -4,4"/>
<!-- Node1 -->
<g id="node1" class="node"><title>Node1</title>
<polygon fill="#bfbfbf" stroke="black" points="-1.42109e-14,-89.5 -1.42109e-14,-109.5 113.261,-109.5 113.261,-89.5 -1.42109e-14,-89.5"/>
<text text-anchor="middle" x="56.6305" y="-96.5" font-family="Helvetica,sans-Serif" font-size="10.00">panda::Met::setStatus</text>
</g>
<!-- Node2 -->
<g id="node2" class="node"><title>Node2</title>
<g id="a_node2"><a xlink:href="classpanda_1_1Object.html#a282e820b1ad431db22ca4d4dd20b55e0" target="_top" xlink:title="Set status of branches with names that correspond to the variables of this object. ">
<polygon fill="white" stroke="black" points="149.261,-109.5 149.261,-129.5 274.75,-129.5 274.75,-109.5 149.261,-109.5"/>
<text text-anchor="middle" x="212.005" y="-116.5" font-family="Helvetica,sans-Serif" font-size="10.00">panda::Object::setStatus</text>
</a>
</g>
</g>
<!-- Node1&#45;&gt;Node2 -->
<g id="edge1" class="edge"><title>Node1&#45;&gt;Node2</title>
<path fill="none" stroke="midnightblue" d="M113.436,-106.777C121.747,-107.861 130.412,-108.991 138.999,-110.11"/>
<polygon fill="midnightblue" stroke="midnightblue" points="138.648,-113.594 149.017,-111.417 139.553,-106.653 138.648,-113.594"/>
</g>
<!-- Node3 -->
<g id="node3" class="node"><title>Node3</title>
<g id="a_node3"><a xlink:href="namespacepanda_1_1utils.html#a01665f786d6a2acedb8f008f3fc9fc84" target="_top" xlink:title="Set status of a branch. ">
<polygon fill="white" stroke="black" points="154.82,-70.5 154.82,-90.5 269.19,-90.5 269.19,-70.5 154.82,-70.5"/>
<text text-anchor="middle" x="212.005" y="-77.5" font-family="Helvetica,sans-Serif" font-size="10.00">panda::utils::setStatus</text>
</a>
</g>
</g>
<!-- Node1&#45;&gt;Node3 -->
<g id="edge2" class="edge"><title>Node1&#45;&gt;Node3</title>
<path fill="none" stroke="midnightblue" d="M113.436,-92.5868C123.522,-91.3374 134.129,-90.0234 144.484,-88.7406"/>
<polygon fill="midnightblue" stroke="midnightblue" points="145.233,-92.1747 154.727,-87.4717 144.373,-85.2278 145.233,-92.1747"/>
</g>
<!-- Node4 -->
<g id="node4" class="node"><title>Node4</title>
<g id="a_node4"><a xlink:href="classpanda_1_1utils_1_1BranchName.html#a6cc8a6df7c5b12a0221fd49773cca6a7" target="_top" xlink:title="Is the name included and not vetoed? ">
<polygon fill="white" stroke="black" points="310.75,-141.5 310.75,-161.5 455.114,-161.5 455.114,-141.5 310.75,-141.5"/>
<text text-anchor="middle" x="382.932" y="-148.5" font-family="Helvetica,sans-Serif" font-size="10.00">panda::utils::BranchName::in</text>
</a>
</g>
</g>
<!-- Node3&#45;&gt;Node4 -->
<g id="edge3" class="edge"><title>Node3&#45;&gt;Node4</title>
<path fill="none" stroke="midnightblue" d="M252.259,-90.5109C259.966,-93.2168 267.807,-96.5252 274.75,-100.5 293.328,-111.136 291.899,-122.355 310.75,-132.5 314.488,-134.512 318.453,-136.321 322.523,-137.947"/>
<polygon fill="midnightblue" stroke="midnightblue" points="321.561,-141.32 332.155,-141.416 323.933,-134.735 321.561,-141.32"/>
</g>
<!-- Node5 -->
<g id="node5" class="node"><title>Node5</title>
<g id="a_node5"><a xlink:href="classpanda_1_1utils_1_1BranchName.html#ae3332329bf2afae5ed8e7c35e5d77ffa" target="_top" xlink:title="Is the name included and vetoed? ">
<polygon fill="white" stroke="black" points="317.418,-90.5 317.418,-122.5 448.446,-122.5 448.446,-90.5 317.418,-90.5"/>
<text text-anchor="start" x="325.418" y="-109.5" font-family="Helvetica,sans-Serif" font-size="10.00">panda::utils::BranchName</text>
<text text-anchor="middle" x="382.932" y="-97.5" font-family="Helvetica,sans-Serif" font-size="10.00">::vetoed</text>
</a>
</g>
</g>
<!-- Node3&#45;&gt;Node5 -->
<g id="edge4" class="edge"><title>Node3&#45;&gt;Node5</title>
<path fill="none" stroke="midnightblue" d="M269.256,-89.1576C281.373,-91.0226 294.365,-93.0223 307.065,-94.9769"/>
<polygon fill="midnightblue" stroke="midnightblue" points="306.748,-98.4693 317.164,-96.5314 307.813,-91.5508 306.748,-98.4693"/>
</g>
<!-- Node6 -->
<g id="node6" class="node"><title>Node6</title>
<g id="a_node6"><a xlink:href="classpanda_1_1utils_1_1BranchName.html#a13958ff4a9d554d2c057c600b4f70412" target="_top" xlink:title="Prepend the branch name with &lt;objName.&gt;. ">
<polygon fill="white" stroke="black" points="317.418,-39.5 317.418,-71.5 448.446,-71.5 448.446,-39.5 317.418,-39.5"/>
<text text-anchor="start" x="325.418" y="-58.5" font-family="Helvetica,sans-Serif" font-size="10.00">panda::utils::BranchName</text>
<text text-anchor="middle" x="382.932" y="-46.5" font-family="Helvetica,sans-Serif" font-size="10.00">::fullName</text>
</a>
</g>
</g>
<!-- Node3&#45;&gt;Node6 -->
<g id="edge5" class="edge"><title>Node3&#45;&gt;Node6</title>
<path fill="none" stroke="midnightblue" d="M269.256,-72.1754C281.373,-70.3821 294.365,-68.4593 307.065,-66.5799"/>
<polygon fill="midnightblue" stroke="midnightblue" points="307.784,-70.0116 317.164,-65.0852 306.759,-63.087 307.784,-70.0116"/>
</g>
<!-- Node7 -->
<g id="node7" class="node"><title>Node7</title>
<g id="a_node7"><a xlink:href="namespacepanda_1_1utils.html#aafa411773a4b0ee829d99e6e5a0abdcd" target="_top" xlink:title="Check status of a branch. ">
<polygon fill="white" stroke="black" points="319.357,-0.5 319.357,-20.5 446.507,-20.5 446.507,-0.5 319.357,-0.5"/>
<text text-anchor="middle" x="382.932" y="-7.5" font-family="Helvetica,sans-Serif" font-size="10.00">panda::utils::checkStatus</text>
</a>
</g>
</g>
<!-- Node3&#45;&gt;Node7 -->
<g id="edge6" class="edge"><title>Node3&#45;&gt;Node7</title>
<path fill="none" stroke="midnightblue" d="M230.177,-70.3866C249.326,-59.4267 281.466,-41.9718 310.75,-30.5 317.174,-27.9833 324.039,-25.6418 330.876,-23.5128"/>
<polygon fill="midnightblue" stroke="midnightblue" points="332.234,-26.7602 340.818,-20.55 330.235,-20.0517 332.234,-26.7602"/>
</g>
</g>
</svg>
