<?xml version="1.0" encoding="UTF-8" standalone="no"?>
<!DOCTYPE svg PUBLIC "-//W3C//DTD SVG 1.1//EN"
 "http://www.w3.org/Graphics/SVG/1.1/DTD/svg11.dtd">
<!-- Generated by graphviz version 2.38.0 (20140413.2041)
 -->
<!-- Title: panda::Electron::Electron Pages: 1 -->
<svg width="633pt" height="41pt"
 viewBox="0.00 0.00 633.50 41.00" xmlns="http://www.w3.org/2000/svg" xmlns:xlink="http://www.w3.org/1999/xlink">
<g id="graph0" class="graph" transform="scale(1 1) rotate(0) translate(4 37)">
<title>panda::Electron::Electron</title>
<polygon fill="white" stroke="none" points="-4,4 -4,-37 629.495,-37 629.495,4 -4,4"/>
<!-- Node1 -->
<g id="node1" class="node"><title>Node1</title>
<polygon fill="#bfbfbf" stroke="black" points="4.26326e-14,-6.5 4.26326e-14,-26.5 128.257,-26.5 128.257,-6.5 4.26326e-14,-6.5"/>
<text text-anchor="middle" x="64.1285" y="-13.5" font-family="Helvetica,sans-Serif" font-size="10.00">panda::Electron::Electron</text>
</g>
<!-- Node2 -->
<g id="node2" class="node"><title>Node2</title>
<g id="a_node2"><a xlink:href="classpanda_1_1Lepton.html#a24b1cd552930db2af2734d3acbb27257" target="_top" xlink:title="panda::Lepton::operator=">
<polygon fill="white" stroke="black" points="164.257,-6.5 164.257,-26.5 292.813,-26.5 292.813,-6.5 164.257,-6.5"/>
<text text-anchor="middle" x="228.535" y="-13.5" font-family="Helvetica,sans-Serif" font-size="10.00">panda::Lepton::operator=</text>
</a>
</g>
</g>
<!-- Node1&#45;&gt;Node2 -->
<g id="edge1" class="edge"><title>Node1&#45;&gt;Node2</title>
<path fill="none" stroke="midnightblue" d="M128.384,-16.5C136.834,-16.5 145.557,-16.5 154.162,-16.5"/>
<polygon fill="midnightblue" stroke="midnightblue" points="154.185,-20.0001 164.185,-16.5 154.185,-13.0001 154.185,-20.0001"/>
</g>
<!-- Node3 -->
<g id="node3" class="node"><title>Node3</title>
<g id="a_node3"><a xlink:href="classpanda_1_1Particle.html#a8c4fabfceb39b746b0e68a7389e662c4" target="_top" xlink:title="panda::Particle::operator=">
<polygon fill="white" stroke="black" points="328.813,-6.5 328.813,-26.5 460.128,-26.5 460.128,-6.5 328.813,-6.5"/>
<text text-anchor="middle" x="394.471" y="-13.5" font-family="Helvetica,sans-Serif" font-size="10.00">panda::Particle::operator=</text>
</a>
</g>
</g>
<!-- Node2&#45;&gt;Node3 -->
<g id="edge2" class="edge"><title>Node2&#45;&gt;Node3</title>
<path fill="none" stroke="midnightblue" d="M292.917,-16.5C301.336,-16.5 310.03,-16.5 318.62,-16.5"/>
<polygon fill="midnightblue" stroke="midnightblue" points="318.633,-20.0001 328.633,-16.5 318.633,-13.0001 318.633,-20.0001"/>
</g>
<!-- Node4 -->
<g id="node4" class="node"><title>Node4</title>
<g id="a_node4"><a xlink:href="classpanda_1_1ContainerElement.html#ae8ba59e4cb5d7c1d491fc87c9360f039" target="_top" xlink:title="panda::ContainerElement\l::operator=">
<polygon fill="white" stroke="black" points="496.128,-0.5 496.128,-32.5 625.495,-32.5 625.495,-0.5 496.128,-0.5"/>
<text text-anchor="start" x="504.128" y="-19.5" font-family="Helvetica,sans-Serif" font-size="10.00">panda::ContainerElement</text>
<text text-anchor="middle" x="560.812" y="-7.5" font-family="Helvetica,sans-Serif" font-size="10.00">::operator=</text>
</a>
</g>
</g>
<!-- Node3&#45;&gt;Node4 -->
<g id="edge3" class="edge"><title>Node3&#45;&gt;Node4</title>
<path fill="none" stroke="midnightblue" d="M460.422,-16.5C468.714,-16.5 477.251,-16.5 485.675,-16.5"/>
<polygon fill="midnightblue" stroke="midnightblue" points="485.869,-20.0001 495.869,-16.5 485.869,-13.0001 485.869,-20.0001"/>
</g>
</g>
</svg>
