<?xml version="1.0" encoding="UTF-8" standalone="no"?>
<!DOCTYPE svg PUBLIC "-//W3C//DTD SVG 1.1//EN"
 "http://www.w3.org/Graphics/SVG/1.1/DTD/svg11.dtd">
<!-- Generated by graphviz version 2.38.0 (20140413.2041)
 -->
<!-- Title: panda::CollectionBase::clear Pages: 1 -->
<svg width="276pt" height="41pt"
 viewBox="0.00 0.00 276.06 41.00" xmlns="http://www.w3.org/2000/svg" xmlns:xlink="http://www.w3.org/1999/xlink">
<g id="graph0" class="graph" transform="scale(1 1) rotate(0) translate(4 37)">
<title>panda::CollectionBase::clear</title>
<polygon fill="white" stroke="none" points="-4,4 -4,-37 272.062,-37 272.062,4 -4,4"/>
<!-- Node1 -->
<g id="node1" class="node"><title>Node1</title>
<polygon fill="#bfbfbf" stroke="black" points="-1.42109e-14,-0.5 -1.42109e-14,-32.5 116.031,-32.5 116.031,-0.5 -1.42109e-14,-0.5"/>
<text text-anchor="start" x="8" y="-19.5" font-family="Helvetica,sans-Serif" font-size="10.00">panda::CollectionBase</text>
<text text-anchor="middle" x="58.0155" y="-7.5" font-family="Helvetica,sans-Serif" font-size="10.00">::clear</text>
</g>
<!-- Node2 -->
<g id="node2" class="node"><title>Node2</title>
<g id="a_node2"><a xlink:href="classpanda_1_1CollectionBase.html#a5d7caaf03fa968bd6c9dad5b6ffe4687" target="_top" xlink:title="Reset object state. ">
<polygon fill="white" stroke="black" points="152.031,-0.5 152.031,-32.5 268.062,-32.5 268.062,-0.5 152.031,-0.5"/>
<text text-anchor="start" x="160.031" y="-19.5" font-family="Helvetica,sans-Serif" font-size="10.00">panda::CollectionBase</text>
<text text-anchor="middle" x="210.046" y="-7.5" font-family="Helvetica,sans-Serif" font-size="10.00">::init</text>
</a>
</g>
</g>
<!-- Node1&#45;&gt;Node2 -->
<g id="edge1" class="edge"><title>Node1&#45;&gt;Node2</title>
<path fill="none" stroke="midnightblue" d="M126.34,-16.5C134.76,-16.5 143.31,-16.5 151.56,-16.5"/>
<polygon fill="midnightblue" stroke="midnightblue" points="126.164,-13.0001 116.164,-16.5 126.164,-20.0001 126.164,-13.0001"/>
</g>
</g>
</svg>
