<?xml version="1.0" encoding="UTF-8" standalone="no"?>
<!DOCTYPE svg PUBLIC "-//W3C//DTD SVG 1.1//EN"
 "http://www.w3.org/Graphics/SVG/1.1/DTD/svg11.dtd">
<!-- Generated by graphviz version 2.38.0 (20140413.2041)
 -->
<!-- Title: panda::Particle::setStatus Pages: 1 -->
<svg width="490pt" height="189pt"
 viewBox="0.00 0.00 490.33 189.00" xmlns="http://www.w3.org/2000/svg" xmlns:xlink="http://www.w3.org/1999/xlink">
<g id="graph0" class="graph" transform="scale(1 1) rotate(0) translate(4 185)">
<title>panda::Particle::setStatus</title>
<polygon fill="white" stroke="none" points="-4,4 -4,-185 486.326,-185 486.326,4 -4,4"/>
<!-- Node1 -->
<g id="node1" class="node"><title>Node1</title>
<polygon fill="#bfbfbf" stroke="black" points="1.42109e-14,-115.5 1.42109e-14,-135.5 129.927,-135.5 129.927,-115.5 1.42109e-14,-115.5"/>
<text text-anchor="middle" x="64.9635" y="-122.5" font-family="Helvetica,sans-Serif" font-size="10.00">panda::Particle::setStatus</text>
</g>
<!-- Node2 -->
<g id="node2" class="node"><title>Node2</title>
<g id="a_node2"><a xlink:href="classpanda_1_1Object.html#a282e820b1ad431db22ca4d4dd20b55e0" target="_top" xlink:title="Set status of branches with names that correspond to the variables of this object. ">
<polygon fill="white" stroke="black" points="171.2,-160.5 171.2,-180.5 296.689,-180.5 296.689,-160.5 171.2,-160.5"/>
<text text-anchor="middle" x="233.945" y="-167.5" font-family="Helvetica,sans-Serif" font-size="10.00">panda::Object::setStatus</text>
</a>
</g>
</g>
<!-- Node1&#45;&gt;Node2 -->
<g id="edge1" class="edge"><title>Node1&#45;&gt;Node2</title>
<path fill="none" stroke="midnightblue" d="M103.437,-135.599C127.822,-142.17 159.824,-150.795 185.914,-157.826"/>
<polygon fill="midnightblue" stroke="midnightblue" points="185.029,-161.212 195.596,-160.435 186.851,-154.453 185.029,-161.212"/>
</g>
<!-- Node3 -->
<g id="node3" class="node"><title>Node3</title>
<g id="a_node3"><a xlink:href="classpanda_1_1utils_1_1StoreManager.html#a6f30ec459d951e84a1196b7e2ffdcf49" target="_top" xlink:title="panda::utils::StoreManager\l::getName">
<polygon fill="white" stroke="black" points="165.927,-109.5 165.927,-141.5 301.962,-141.5 301.962,-109.5 165.927,-109.5"/>
<text text-anchor="start" x="173.927" y="-128.5" font-family="Helvetica,sans-Serif" font-size="10.00">panda::utils::StoreManager</text>
<text text-anchor="middle" x="233.945" y="-116.5" font-family="Helvetica,sans-Serif" font-size="10.00">::getName</text>
</a>
</g>
</g>
<!-- Node1&#45;&gt;Node3 -->
<g id="edge2" class="edge"><title>Node1&#45;&gt;Node3</title>
<path fill="none" stroke="midnightblue" d="M130.045,-125.5C138.44,-125.5 147.113,-125.5 155.697,-125.5"/>
<polygon fill="midnightblue" stroke="midnightblue" points="155.711,-129 165.711,-125.5 155.711,-122 155.711,-129"/>
</g>
<!-- Node4 -->
<g id="node4" class="node"><title>Node4</title>
<g id="a_node4"><a xlink:href="namespacepanda_1_1utils.html#a01665f786d6a2acedb8f008f3fc9fc84" target="_top" xlink:title="Set status of a branch. ">
<polygon fill="white" stroke="black" points="176.76,-70.5 176.76,-90.5 291.13,-90.5 291.13,-70.5 176.76,-70.5"/>
<text text-anchor="middle" x="233.945" y="-77.5" font-family="Helvetica,sans-Serif" font-size="10.00">panda::utils::setStatus</text>
</a>
</g>
</g>
<!-- Node1&#45;&gt;Node4 -->
<g id="edge3" class="edge"><title>Node1&#45;&gt;Node4</title>
<path fill="none" stroke="midnightblue" d="M103.437,-115.401C127.822,-108.83 159.824,-100.205 185.914,-93.1743"/>
<polygon fill="midnightblue" stroke="midnightblue" points="186.851,-96.5468 195.596,-90.5652 185.029,-89.7879 186.851,-96.5468"/>
</g>
<!-- Node5 -->
<g id="node5" class="node"><title>Node5</title>
<g id="a_node5"><a xlink:href="classpanda_1_1utils_1_1BranchName.html#a6cc8a6df7c5b12a0221fd49773cca6a7" target="_top" xlink:title="Is the name included and not vetoed? ">
<polygon fill="white" stroke="black" points="337.962,-141.5 337.962,-161.5 482.326,-161.5 482.326,-141.5 337.962,-141.5"/>
<text text-anchor="middle" x="410.144" y="-148.5" font-family="Helvetica,sans-Serif" font-size="10.00">panda::utils::BranchName::in</text>
</a>
</g>
</g>
<!-- Node4&#45;&gt;Node5 -->
<g id="edge4" class="edge"><title>Node4&#45;&gt;Node5</title>
<path fill="none" stroke="midnightblue" d="M278.619,-90.5144C286.64,-93.1865 294.749,-96.4814 301.962,-100.5 320.663,-110.919 319.111,-122.355 337.962,-132.5 341.7,-134.512 345.665,-136.321 349.735,-137.947"/>
<polygon fill="midnightblue" stroke="midnightblue" points="348.773,-141.32 359.367,-141.416 351.145,-134.735 348.773,-141.32"/>
</g>
<!-- Node6 -->
<g id="node6" class="node"><title>Node6</title>
<g id="a_node6"><a xlink:href="classpanda_1_1utils_1_1BranchName.html#ae3332329bf2afae5ed8e7c35e5d77ffa" target="_top" xlink:title="Is the name included and vetoed? ">
<polygon fill="white" stroke="black" points="344.63,-90.5 344.63,-122.5 475.658,-122.5 475.658,-90.5 344.63,-90.5"/>
<text text-anchor="start" x="352.63" y="-109.5" font-family="Helvetica,sans-Serif" font-size="10.00">panda::utils::BranchName</text>
<text text-anchor="middle" x="410.144" y="-97.5" font-family="Helvetica,sans-Serif" font-size="10.00">::vetoed</text>
</a>
</g>
</g>
<!-- Node4&#45;&gt;Node6 -->
<g id="edge5" class="edge"><title>Node4&#45;&gt;Node6</title>
<path fill="none" stroke="midnightblue" d="M291.502,-88.9415C305.092,-90.9699 319.818,-93.1678 334.103,-95.2999"/>
<polygon fill="midnightblue" stroke="midnightblue" points="333.997,-98.8227 344.404,-96.8373 335.031,-91.8994 333.997,-98.8227"/>
</g>
<!-- Node7 -->
<g id="node7" class="node"><title>Node7</title>
<g id="a_node7"><a xlink:href="classpanda_1_1utils_1_1BranchName.html#a13958ff4a9d554d2c057c600b4f70412" target="_top" xlink:title="Prepend the branch name with &lt;objName.&gt;. ">
<polygon fill="white" stroke="black" points="344.63,-39.5 344.63,-71.5 475.658,-71.5 475.658,-39.5 344.63,-39.5"/>
<text text-anchor="start" x="352.63" y="-58.5" font-family="Helvetica,sans-Serif" font-size="10.00">panda::utils::BranchName</text>
<text text-anchor="middle" x="410.144" y="-46.5" font-family="Helvetica,sans-Serif" font-size="10.00">::fullName</text>
</a>
</g>
</g>
<!-- Node4&#45;&gt;Node7 -->
<g id="edge6" class="edge"><title>Node4&#45;&gt;Node7</title>
<path fill="none" stroke="midnightblue" d="M291.502,-72.3832C305.092,-70.4328 319.818,-68.3194 334.103,-66.2694"/>
<polygon fill="midnightblue" stroke="midnightblue" points="335.003,-69.6762 344.404,-64.791 334.008,-62.7472 335.003,-69.6762"/>
</g>
<!-- Node8 -->
<g id="node8" class="node"><title>Node8</title>
<g id="a_node8"><a xlink:href="namespacepanda_1_1utils.html#aafa411773a4b0ee829d99e6e5a0abdcd" target="_top" xlink:title="Check status of a branch. ">
<polygon fill="white" stroke="black" points="346.569,-0.5 346.569,-20.5 473.719,-20.5 473.719,-0.5 346.569,-0.5"/>
<text text-anchor="middle" x="410.144" y="-7.5" font-family="Helvetica,sans-Serif" font-size="10.00">panda::utils::checkStatus</text>
</a>
</g>
</g>
<!-- Node4&#45;&gt;Node8 -->
<g id="edge7" class="edge"><title>Node4&#45;&gt;Node8</title>
<path fill="none" stroke="midnightblue" d="M253.117,-70.4519C273.365,-59.5492 307.296,-42.144 337.962,-30.5 344.493,-28.0202 351.464,-25.6909 358.393,-23.5602"/>
<polygon fill="midnightblue" stroke="midnightblue" points="359.86,-26.7763 368.458,-20.5861 357.876,-20.0633 359.86,-26.7763"/>
</g>
</g>
</svg>
