<?xml version="1.0" encoding="UTF-8" standalone="no"?>
<!DOCTYPE svg PUBLIC "-//W3C//DTD SVG 1.1//EN"
 "http://www.w3.org/Graphics/SVG/1.1/DTD/svg11.dtd">
<!-- Generated by graphviz version 2.38.0 (20140413.2041)
 -->
<!-- Title: panda::ParticleM::setAddress Pages: 1 -->
<!--zoomable 236 -->
<svg id="main" version="1.1" xmlns="http://www.w3.org/2000/svg" xmlns:xlink="http://www.w3.org/1999/xlink" xml:space="preserve" onload="init(evt)">
<style type="text/css"><![CDATA[
.edge:hover path { stroke: red; }
.edge:hover polygon { stroke: red; fill: red; }
]]></style>
<script type="text/javascript"><![CDATA[
var edges = document.getElementsByTagName('g');
if (edges && edges.length) {
  for (var i=0;i<edges.length;i++) {
    if (edges[i].id.substr(0,4)=='edge') {
      edges[i].setAttribute('class','edge');
    }
  }
}
]]></script>
        <defs>
                <circle id="rim" cx="0" cy="0" r="7"/>
                <circle id="rim2" cx="0" cy="0" r="3.5"/>
                <g id="zoomPlus">
                        <use xlink:href="#rim" fill="#404040">
                                <set attributeName="fill" to="#808080" begin="zoomplus.mouseover" end="zoomplus.mouseout"/>
                        </use>
                        <path d="M-4,0h8M0,-4v8" fill="none" stroke="white" stroke-width="1.5" pointer-events="none"/>
                </g>
                <g id="zoomMin">
                        <use xlink:href="#rim" fill="#404040">
                                <set attributeName="fill" to="#808080" begin="zoomminus.mouseover" end="zoomminus.mouseout"/>
                        </use>
                        <path d="M-4,0h8" fill="none" stroke="white" stroke-width="1.5" pointer-events="none"/>
                </g>
                <g id="dirArrow">
                        <path fill="none" stroke="white" stroke-width="1.5" d="M0,-3.0v7 M-2.5,-0.5L0,-3.0L2.5,-0.5"/>
                </g>
               <g id="resetDef">
                       <use xlink:href="#rim2" fill="#404040">
                               <set attributeName="fill" to="#808080" begin="reset.mouseover" end="reset.mouseout"/>
                       </use>
               </g>
        </defs>

<script type="text/javascript">
var viewWidth = 656;
var viewHeight = 236;
var sectionId = 'dynsection-16';
</script>
<script xlink:href="svgpan.js"/>
<svg id="graph" class="graph">
<g id="viewport">
<title>panda::ParticleM::setAddress</title>
<polygon fill="white" stroke="none" points="-4,4 -4,-232 652.255,-232 652.255,4 -4,4"/>
<!-- Node1 -->
<g id="node1" class="node"><title>Node1</title>
<polygon fill="#bfbfbf" stroke="black" points="1.42109e-14,-97.5 1.42109e-14,-117.5 146.586,-117.5 146.586,-97.5 1.42109e-14,-97.5"/>
<text text-anchor="middle" x="73.293" y="-104.5" font-family="Helvetica,sans-Serif" font-size="10.00">panda::ParticleM::setAddress</text>
</g>
<!-- Node2 -->
<g id="node2" class="node"><title>Node2</title>
<g id="a_node2"><a xlink:href="classpanda_1_1GenJet.html#a509b0782225dddb65a02d2469e031146" target="_top" xlink:title="Set address for the branches to the variables of this object. ">
<polygon fill="white" stroke="black" points="185.355,-207.5 185.355,-227.5 322.514,-227.5 322.514,-207.5 185.355,-207.5"/>
<text text-anchor="middle" x="253.935" y="-214.5" font-family="Helvetica,sans-Serif" font-size="10.00">panda::GenJet::setAddress</text>
</a>
</g>
</g>
<!-- Node1&#45;&gt;Node2 -->
<g id="edge1" class="edge"><title>Node1&#45;&gt;Node2</title>
<path fill="none" stroke="midnightblue" d="M90.3921,-125.047C110.178,-145.584 145.69,-179.23 182.586,-198.5 189.426,-202.073 197.001,-205.021 204.572,-207.441"/>
<polygon fill="midnightblue" stroke="midnightblue" points="92.7903,-122.489 83.3775,-117.626 87.7031,-127.298 92.7903,-122.489"/>
</g>
<!-- Node3 -->
<g id="node3" class="node"><title>Node3</title>
<g id="a_node3"><a xlink:href="classpanda_1_1GenParticle.html#a049670d248a94df47fb4de6e73956b4f" target="_top" xlink:title="Set address for the branches to the variables of this object. ">
<polygon fill="white" stroke="black" points="203.143,-156.5 203.143,-188.5 304.726,-188.5 304.726,-156.5 203.143,-156.5"/>
<text text-anchor="start" x="211.143" y="-175.5" font-family="Helvetica,sans-Serif" font-size="10.00">panda::GenParticle</text>
<text text-anchor="middle" x="253.935" y="-163.5" font-family="Helvetica,sans-Serif" font-size="10.00">::setAddress</text>
</a>
</g>
</g>
<!-- Node1&#45;&gt;Node3 -->
<g id="edge2" class="edge"><title>Node1&#45;&gt;Node3</title>
<path fill="none" stroke="midnightblue" d="M110.892,-121.147C131.857,-128.932 158.673,-138.835 182.586,-147.5 190.629,-150.414 199.201,-153.488 207.494,-156.444"/>
<polygon fill="midnightblue" stroke="midnightblue" points="112,-117.824 101.407,-117.621 109.561,-124.386 112,-117.824"/>
</g>
<!-- Node4 -->
<g id="node4" class="node"><title>Node4</title>
<g id="a_node4"><a xlink:href="classpanda_1_1MicroJet.html#ace34e537033194800fb766bd9cb18025" target="_top" xlink:title="Set address for the branches to the variables of this object. ">
<polygon fill="white" stroke="black" points="182.586,-117.5 182.586,-137.5 325.284,-137.5 325.284,-117.5 182.586,-117.5"/>
<text text-anchor="middle" x="253.935" y="-124.5" font-family="Helvetica,sans-Serif" font-size="10.00">panda::MicroJet::setAddress</text>
</a>
</g>
</g>
<!-- Node1&#45;&gt;Node4 -->
<g id="edge3" class="edge"><title>Node1&#45;&gt;Node4</title>
<path fill="none" stroke="midnightblue" d="M156.73,-116.729C165.327,-117.692 174.009,-118.664 182.456,-119.609"/>
<polygon fill="midnightblue" stroke="midnightblue" points="157.023,-113.24 146.696,-115.606 156.244,-120.197 157.023,-113.24"/>
</g>
<!-- Node7 -->
<g id="node7" class="node"><title>Node7</title>
<g id="a_node7"><a xlink:href="classpanda_1_1Parton.html#a94d47d8282b93fe05c2c339f5b2052f7" target="_top" xlink:title="Set address for the branches to the variables of this object. ">
<polygon fill="white" stroke="black" points="186.746,-78.5 186.746,-98.5 321.124,-98.5 321.124,-78.5 186.746,-78.5"/>
<text text-anchor="middle" x="253.935" y="-85.5" font-family="Helvetica,sans-Serif" font-size="10.00">panda::Parton::setAddress</text>
</a>
</g>
</g>
<!-- Node1&#45;&gt;Node7 -->
<g id="edge6" class="edge"><title>Node1&#45;&gt;Node7</title>
<path fill="none" stroke="midnightblue" d="M156.95,-98.7087C166.848,-97.656 176.855,-96.5917 186.483,-95.5677"/>
<polygon fill="midnightblue" stroke="midnightblue" points="156.27,-95.2613 146.696,-99.7994 157.01,-102.222 156.27,-95.2613"/>
</g>
<!-- Node8 -->
<g id="node8" class="node"><title>Node8</title>
<g id="a_node8"><a xlink:href="classpanda_1_1PFCand.html#a4646580d00cd946b4f077afd3ee8b3b5" target="_top" xlink:title="Set address for the branches to the variables of this object. ">
<polygon fill="white" stroke="black" points="183.136,-39.5 183.136,-59.5 324.734,-59.5 324.734,-39.5 183.136,-39.5"/>
<text text-anchor="middle" x="253.935" y="-46.5" font-family="Helvetica,sans-Serif" font-size="10.00">panda::PFCand::setAddress</text>
</a>
</g>
</g>
<!-- Node1&#45;&gt;Node8 -->
<g id="edge7" class="edge"><title>Node1&#45;&gt;Node8</title>
<path fill="none" stroke="midnightblue" d="M111.177,-93.9353C132.032,-86.4222 158.649,-77.0947 182.586,-69.5 193.357,-66.0824 205.142,-62.6239 215.934,-59.5658"/>
<polygon fill="midnightblue" stroke="midnightblue" points="109.946,-90.6586 101.735,-97.3543 112.329,-97.2403 109.946,-90.6586"/>
</g>
<!-- Node9 -->
<g id="node9" class="node"><title>Node9</title>
<g id="a_node9"><a xlink:href="classpanda_1_1Tau.html#a67c457d171771dadcc84c33cfbda7e2c" target="_top" xlink:title="Set address for the branches to the variables of this object. ">
<polygon fill="white" stroke="black" points="192.859,-0.5 192.859,-20.5 315.01,-20.5 315.01,-0.5 192.859,-0.5"/>
<text text-anchor="middle" x="253.935" y="-7.5" font-family="Helvetica,sans-Serif" font-size="10.00">panda::Tau::setAddress</text>
</a>
</g>
</g>
<!-- Node1&#45;&gt;Node9 -->
<g id="edge8" class="edge"><title>Node1&#45;&gt;Node9</title>
<path fill="none" stroke="midnightblue" d="M93.5166,-90.7118C114.224,-73.4075 148.771,-46.7323 182.586,-30.5 190.828,-26.5438 199.998,-23.2309 208.923,-20.5124"/>
<polygon fill="midnightblue" stroke="midnightblue" points="91.1405,-88.1378 85.7838,-97.2787 95.6717,-93.4734 91.1405,-88.1378"/>
</g>
<!-- Node5 -->
<g id="node5" class="node"><title>Node5</title>
<g id="a_node5"><a xlink:href="classpanda_1_1Jet.html#a96b6f57c39cf4e35af339a58f828a78e" target="_top" xlink:title="Set address for the branches to the variables of this object. ">
<polygon fill="white" stroke="black" points="361.284,-117.5 361.284,-137.5 479.546,-137.5 479.546,-117.5 361.284,-117.5"/>
<text text-anchor="middle" x="420.415" y="-124.5" font-family="Helvetica,sans-Serif" font-size="10.00">panda::Jet::setAddress</text>
</a>
</g>
</g>
<!-- Node4&#45;&gt;Node5 -->
<g id="edge4" class="edge"><title>Node4&#45;&gt;Node5</title>
<path fill="none" stroke="midnightblue" d="M335.69,-127.5C344.275,-127.5 352.882,-127.5 361.136,-127.5"/>
<polygon fill="midnightblue" stroke="midnightblue" points="335.644,-124 325.644,-127.5 335.644,-131 335.644,-124"/>
</g>
<!-- Node6 -->
<g id="node6" class="node"><title>Node6</title>
<g id="a_node6"><a xlink:href="classpanda_1_1FatJet.html#a63392b9abcf86c432b0d7b34c7887cbf" target="_top" xlink:title="Set address for the branches to the variables of this object. ">
<polygon fill="white" stroke="black" points="515.546,-117.5 515.546,-137.5 648.255,-137.5 648.255,-117.5 515.546,-117.5"/>
<text text-anchor="middle" x="581.9" y="-124.5" font-family="Helvetica,sans-Serif" font-size="10.00">panda::FatJet::setAddress</text>
</a>
</g>
</g>
<!-- Node5&#45;&gt;Node6 -->
<g id="edge5" class="edge"><title>Node5&#45;&gt;Node6</title>
<path fill="none" stroke="midnightblue" d="M490.053,-127.5C498.47,-127.5 507.055,-127.5 515.424,-127.5"/>
<polygon fill="midnightblue" stroke="midnightblue" points="489.896,-124 479.896,-127.5 489.896,-131 489.896,-124"/>
</g>
</g>
</svg>
        <g id="navigator" transform="translate(0 0)" fill="#404254">
                <rect fill="#f2f5e9" fill-opacity="0.5" stroke="#606060" stroke-width=".5" x="0" y="0" width="60" height="60"/>
                <use id="zoomplus" xlink:href="#zoomPlus" x="17" y="9" onmousedown="handleZoom(evt,'in')"/>
                <use id="zoomminus" xlink:href="#zoomMin" x="42" y="9" onmousedown="handleZoom(evt,'out')"/>
                <use id="reset" xlink:href="#resetDef" x="30" y="36" onmousedown="handleReset()"/>
                <g id="arrowUp" xlink:href="#dirArrow" transform="translate(30 24)" onmousedown="handlePan(0,-1)">
                  <use xlink:href="#rim" fill="#404040">
                        <set attributeName="fill" to="#808080" begin="arrowUp.mouseover" end="arrowUp.mouseout"/>
                  </use>
                  <path fill="none" stroke="white" stroke-width="1.5" d="M0,-3.0v7 M-2.5,-0.5L0,-3.0L2.5,-0.5"/>
                </g>
                <g id="arrowRight" xlink:href="#dirArrow" transform="rotate(90) translate(36 -43)" onmousedown="handlePan(1,0)">
                  <use xlink:href="#rim" fill="#404040">
                        <set attributeName="fill" to="#808080" begin="arrowRight.mouseover" end="arrowRight.mouseout"/>
                  </use>
                  <path fill="none" stroke="white" stroke-width="1.5" d="M0,-3.0v7 M-2.5,-0.5L0,-3.0L2.5,-0.5"/>
                </g>
                <g id="arrowDown" xlink:href="#dirArrow" transform="rotate(180) translate(-30 -48)" onmousedown="handlePan(0,1)">
                  <use xlink:href="#rim" fill="#404040">
                        <set attributeName="fill" to="#808080" begin="arrowDown.mouseover" end="arrowDown.mouseout"/>
                  </use>
                  <path fill="none" stroke="white" stroke-width="1.5" d="M0,-3.0v7 M-2.5,-0.5L0,-3.0L2.5,-0.5"/>
                </g>
                <g id="arrowLeft" xlink:href="#dirArrow" transform="rotate(270) translate(-36 17)" onmousedown="handlePan(-1,0)">
                  <use xlink:href="#rim" fill="#404040">
                        <set attributeName="fill" to="#808080" begin="arrowLeft.mouseover" end="arrowLeft.mouseout"/>
                  </use>
                  <path fill="none" stroke="white" stroke-width="1.5" d="M0,-3.0v7 M-2.5,-0.5L0,-3.0L2.5,-0.5"/>
                </g>
        </g>
        <svg viewBox="0 0 15 15" width="100%" height="30px" preserveAspectRatio="xMaxYMin meet">
         <g id="arrow_out" transform="scale(0.3 0.3)">
          <a xlink:href="classpanda_1_1ParticleM_ad8aeae1e2ca26f4cdb7d079ab56a10fe_icgraph_org.svg" target="_base">
           <rect id="button" ry="5" rx="5" y="6" x="6" height="38" width="38"
                fill="#f2f5e9" fill-opacity="0.5" stroke="#606060" stroke-width="1.0"/>
           <path id="arrow"
             d="M 11.500037,31.436501 C 11.940474,20.09759 22.043105,11.32322 32.158766,21.979434 L 37.068811,17.246167 C 37.068811,17.246167 37.088388,32 37.088388,32 L 22.160133,31.978069 C 22.160133,31.978069 26.997745,27.140456 26.997745,27.140456 C 18.528582,18.264221 13.291696,25.230495 11.500037,31.436501 z"
             style="fill:#404040;"/>
          </a>
         </g>
        </svg>
</svg>
