<?xml version="1.0" encoding="UTF-8" standalone="no"?>
<!DOCTYPE svg PUBLIC "-//W3C//DTD SVG 1.1//EN"
 "http://www.w3.org/Graphics/SVG/1.1/DTD/svg11.dtd">
<!-- Generated by graphviz version 2.38.0 (20140413.2041)
 -->
<!-- Title: panda.objbranch.ObjBranch.type Pages: 1 -->
<svg width="396pt" height="80pt"
 viewBox="0.00 0.00 396.10 80.00" xmlns="http://www.w3.org/2000/svg" xmlns:xlink="http://www.w3.org/1999/xlink">
<g id="graph0" class="graph" transform="scale(1 1) rotate(0) translate(4 76)">
<title>panda.objbranch.ObjBranch.type</title>
<polygon fill="white" stroke="none" points="-4,4 -4,-76 392.1,-76 392.1,4 -4,4"/>
<!-- Node1 -->
<g id="node1" class="node"><title>Node1</title>
<polygon fill="#bfbfbf" stroke="black" points="-4.26326e-14,-28.5 -4.26326e-14,-48.5 162.163,-48.5 162.163,-28.5 -4.26326e-14,-28.5"/>
<text text-anchor="middle" x="81.0815" y="-35.5" font-family="Helvetica,sans-Serif" font-size="10.00">panda.objbranch.ObjBranch.type</text>
</g>
<!-- Node2 -->
<g id="node2" class="node"><title>Node2</title>
<g id="a_node2"><a xlink:href="classpanda_1_1refbranch_1_1RefBranch.html#af4fcfe1d2a1ed6e6d78d34271187a9d4" target="_top" xlink:title="panda.refbranch.RefBranch.write_book">
<polygon fill="white" stroke="black" points="198.163,-51.5 198.163,-71.5 388.1,-71.5 388.1,-51.5 198.163,-51.5"/>
<text text-anchor="middle" x="293.131" y="-58.5" font-family="Helvetica,sans-Serif" font-size="10.00">panda.refbranch.RefBranch.write_book</text>
</a>
</g>
</g>
<!-- Node1&#45;&gt;Node2 -->
<g id="edge1" class="edge"><title>Node1&#45;&gt;Node2</title>
<path fill="none" stroke="midnightblue" d="M172.45,-48.3951C181.789,-49.4177 191.286,-50.4577 200.638,-51.4816"/>
<polygon fill="midnightblue" stroke="midnightblue" points="172.713,-44.9031 162.392,-47.2938 171.951,-51.8615 172.713,-44.9031"/>
</g>
<!-- Node3 -->
<g id="node3" class="node"><title>Node3</title>
<g id="a_node3"><a xlink:href="classpanda_1_1refvbranch_1_1RefVectorBranch.html#a4e87774fc7c8e8876a50a42f51f3a171" target="_top" xlink:title="panda.refvbranch.RefVector\lBranch.write_book">
<polygon fill="white" stroke="black" points="222.613,-0.5 222.613,-32.5 363.65,-32.5 363.65,-0.5 222.613,-0.5"/>
<text text-anchor="start" x="230.613" y="-19.5" font-family="Helvetica,sans-Serif" font-size="10.00">panda.refvbranch.RefVector</text>
<text text-anchor="middle" x="293.131" y="-7.5" font-family="Helvetica,sans-Serif" font-size="10.00">Branch.write_book</text>
</a>
</g>
</g>
<!-- Node1&#45;&gt;Node3 -->
<g id="edge2" class="edge"><title>Node1&#45;&gt;Node3</title>
<path fill="none" stroke="midnightblue" d="M172.698,-29.0091C189.378,-27.2621 206.553,-25.4633 222.495,-23.7935"/>
<polygon fill="midnightblue" stroke="midnightblue" points="171.972,-25.5659 162.392,-30.0886 172.702,-32.5278 171.972,-25.5659"/>
</g>
</g>
</svg>
