<?xml version="1.0" encoding="UTF-8" standalone="no"?>
<!DOCTYPE svg PUBLIC "-//W3C//DTD SVG 1.1//EN"
 "http://www.w3.org/Graphics/SVG/1.1/DTD/svg11.dtd">
<!-- Generated by graphviz version 2.38.0 (20140413.2041)
 -->
<!-- Title: panda::GenParticle::init Pages: 1 -->
<svg width="525pt" height="41pt"
 viewBox="0.00 0.00 524.53 41.00" xmlns="http://www.w3.org/2000/svg" xmlns:xlink="http://www.w3.org/1999/xlink">
<g id="graph0" class="graph" transform="scale(1 1) rotate(0) translate(4 37)">
<title>panda::GenParticle::init</title>
<polygon fill="white" stroke="none" points="-4,4 -4,-37 520.534,-37 520.534,4 -4,4"/>
<!-- Node1 -->
<g id="node1" class="node"><title>Node1</title>
<polygon fill="#bfbfbf" stroke="black" points="4.26326e-14,-0.5 4.26326e-14,-32.5 101.583,-32.5 101.583,-0.5 4.26326e-14,-0.5"/>
<text text-anchor="start" x="8" y="-19.5" font-family="Helvetica,sans-Serif" font-size="10.00">panda::GenParticle</text>
<text text-anchor="middle" x="50.7915" y="-7.5" font-family="Helvetica,sans-Serif" font-size="10.00">::init</text>
</g>
<!-- Node2 -->
<g id="node2" class="node"><title>Node2</title>
<g id="a_node2"><a xlink:href="classpanda_1_1ParticleM.html#a92df7a2653432fa4d304039e1e62c41b" target="_top" xlink:title="Reset object state. ">
<polygon fill="white" stroke="black" points="137.583,-6.5 137.583,-26.5 246.932,-26.5 246.932,-6.5 137.583,-6.5"/>
<text text-anchor="middle" x="192.258" y="-13.5" font-family="Helvetica,sans-Serif" font-size="10.00">panda::ParticleM::init</text>
</a>
</g>
</g>
<!-- Node1&#45;&gt;Node2 -->
<g id="edge1" class="edge"><title>Node1&#45;&gt;Node2</title>
<path fill="none" stroke="midnightblue" d="M101.748,-16.5C110.062,-16.5 118.786,-16.5 127.389,-16.5"/>
<polygon fill="midnightblue" stroke="midnightblue" points="127.402,-20.0001 137.402,-16.5 127.402,-13.0001 127.402,-20.0001"/>
</g>
<!-- Node3 -->
<g id="node3" class="node"><title>Node3</title>
<g id="a_node3"><a xlink:href="classpanda_1_1Particle.html#a56ba0060e9e37322f98e2f30c3583dd3" target="_top" xlink:title="Reset object state. ">
<polygon fill="white" stroke="black" points="282.932,-6.5 282.932,-26.5 383.952,-26.5 383.952,-6.5 282.932,-6.5"/>
<text text-anchor="middle" x="333.442" y="-13.5" font-family="Helvetica,sans-Serif" font-size="10.00">panda::Particle::init</text>
</a>
</g>
</g>
<!-- Node2&#45;&gt;Node3 -->
<g id="edge2" class="edge"><title>Node2&#45;&gt;Node3</title>
<path fill="none" stroke="midnightblue" d="M247.07,-16.5C255.445,-16.5 264.142,-16.5 272.641,-16.5"/>
<polygon fill="midnightblue" stroke="midnightblue" points="272.873,-20.0001 282.873,-16.5 272.873,-13.0001 272.873,-20.0001"/>
</g>
<!-- Node4 -->
<g id="node4" class="node"><title>Node4</title>
<g id="a_node4"><a xlink:href="classpanda_1_1Object.html#a204960e5f165a28176f9b4a42b9ea90c" target="_top" xlink:title="Reset object state. ">
<polygon fill="white" stroke="black" points="419.952,-6.5 419.952,-26.5 516.534,-26.5 516.534,-6.5 419.952,-6.5"/>
<text text-anchor="middle" x="468.243" y="-13.5" font-family="Helvetica,sans-Serif" font-size="10.00">panda::Object::init</text>
</a>
</g>
</g>
<!-- Node3&#45;&gt;Node4 -->
<g id="edge3" class="edge"><title>Node3&#45;&gt;Node4</title>
<path fill="none" stroke="midnightblue" d="M384.27,-16.5C392.537,-16.5 401.171,-16.5 409.612,-16.5"/>
<polygon fill="midnightblue" stroke="midnightblue" points="409.775,-20.0001 419.775,-16.5 409.775,-13.0001 409.775,-20.0001"/>
</g>
</g>
</svg>
