<?xml version="1.0" encoding="UTF-8" standalone="no"?>
<!DOCTYPE svg PUBLIC "-//W3C//DTD SVG 1.1//EN"
 "http://www.w3.org/Graphics/SVG/1.1/DTD/svg11.dtd">
<!-- Generated by graphviz version 2.38.0 (20140413.2041)
 -->
<!-- Title: panda::MetFilters::book Pages: 1 -->
<svg width="450pt" height="96pt"
 viewBox="0.00 0.00 450.32 96.00" xmlns="http://www.w3.org/2000/svg" xmlns:xlink="http://www.w3.org/1999/xlink">
<g id="graph0" class="graph" transform="scale(1 1) rotate(0) translate(4 92)">
<title>panda::MetFilters::book</title>
<polygon fill="white" stroke="none" points="-4,4 -4,-92 446.316,-92 446.316,4 -4,4"/>
<!-- Node1 -->
<g id="node1" class="node"><title>Node1</title>
<polygon fill="#bfbfbf" stroke="black" points="-2.13163e-14,-47.5 -2.13163e-14,-67.5 120.469,-67.5 120.469,-47.5 -2.13163e-14,-47.5"/>
<text text-anchor="middle" x="60.2345" y="-54.5" font-family="Helvetica,sans-Serif" font-size="10.00">panda::MetFilters::book</text>
</g>
<!-- Node2 -->
<g id="node2" class="node"><title>Node2</title>
<g id="a_node2"><a xlink:href="classpanda_1_1Object.html#a2fcd6665633deef16e86aa4e49135dd7" target="_top" xlink:title="Book new branches to the tree corresponding to the variables of this object. ">
<polygon fill="white" stroke="black" points="156.469,-67.5 156.469,-87.5 261.952,-87.5 261.952,-67.5 156.469,-67.5"/>
<text text-anchor="middle" x="209.21" y="-74.5" font-family="Helvetica,sans-Serif" font-size="10.00">panda::Object::book</text>
</a>
</g>
</g>
<!-- Node1&#45;&gt;Node2 -->
<g id="edge1" class="edge"><title>Node1&#45;&gt;Node2</title>
<path fill="none" stroke="midnightblue" d="M120.592,-65.5771C128.974,-66.7178 137.612,-67.8932 146.046,-69.0409"/>
<polygon fill="midnightblue" stroke="midnightblue" points="145.821,-72.5424 156.202,-70.4228 146.765,-65.6063 145.821,-72.5424"/>
</g>
<!-- Node3 -->
<g id="node3" class="node"><title>Node3</title>
<g id="a_node3"><a xlink:href="namespacepanda_1_1utils.html#aaa6c7cd5892388e6ffdf713b11abf793" target="_top" xlink:title="Book the branch. ">
<polygon fill="white" stroke="black" points="162.028,-28.5 162.028,-48.5 256.392,-48.5 256.392,-28.5 162.028,-28.5"/>
<text text-anchor="middle" x="209.21" y="-35.5" font-family="Helvetica,sans-Serif" font-size="10.00">panda::utils::book</text>
</a>
</g>
</g>
<!-- Node1&#45;&gt;Node3 -->
<g id="edge2" class="edge"><title>Node1&#45;&gt;Node3</title>
<path fill="none" stroke="midnightblue" d="M120.592,-49.8267C130.869,-48.4981 141.53,-47.12 151.728,-45.8016"/>
<polygon fill="midnightblue" stroke="midnightblue" points="152.272,-49.2605 161.741,-44.5072 151.375,-42.3183 152.272,-49.2605"/>
</g>
<!-- Node4 -->
<g id="node4" class="node"><title>Node4</title>
<g id="a_node4"><a xlink:href="classpanda_1_1utils_1_1BranchName.html#a6cc8a6df7c5b12a0221fd49773cca6a7" target="_top" xlink:title="Is the name included and not vetoed? ">
<polygon fill="white" stroke="black" points="297.952,-51.5 297.952,-71.5 442.316,-71.5 442.316,-51.5 297.952,-51.5"/>
<text text-anchor="middle" x="370.134" y="-58.5" font-family="Helvetica,sans-Serif" font-size="10.00">panda::utils::BranchName::in</text>
</a>
</g>
</g>
<!-- Node3&#45;&gt;Node4 -->
<g id="edge3" class="edge"><title>Node3&#45;&gt;Node4</title>
<path fill="none" stroke="midnightblue" d="M256.605,-45.2144C267.092,-46.7322 278.515,-48.3853 289.931,-50.0374"/>
<polygon fill="midnightblue" stroke="midnightblue" points="289.539,-53.5171 299.937,-51.4856 290.542,-46.5893 289.539,-53.5171"/>
</g>
<!-- Node5 -->
<g id="node5" class="node"><title>Node5</title>
<g id="a_node5"><a xlink:href="classpanda_1_1utils_1_1BranchName.html#a13958ff4a9d554d2c057c600b4f70412" target="_top" xlink:title="Prepend the branch name with &lt;objName.&gt;. ">
<polygon fill="white" stroke="black" points="304.62,-0.5 304.62,-32.5 435.648,-32.5 435.648,-0.5 304.62,-0.5"/>
<text text-anchor="start" x="312.62" y="-19.5" font-family="Helvetica,sans-Serif" font-size="10.00">panda::utils::BranchName</text>
<text text-anchor="middle" x="370.134" y="-7.5" font-family="Helvetica,sans-Serif" font-size="10.00">::fullName</text>
</a>
</g>
</g>
<!-- Node3&#45;&gt;Node5 -->
<g id="edge4" class="edge"><title>Node3&#45;&gt;Node5</title>
<path fill="none" stroke="midnightblue" d="M256.605,-32.0775C268.389,-30.4463 281.353,-28.6516 294.162,-26.8785"/>
<polygon fill="midnightblue" stroke="midnightblue" points="294.949,-30.303 304.375,-25.4647 293.989,-23.3691 294.949,-30.303"/>
</g>
</g>
</svg>
