<?xml version="1.0" encoding="UTF-8" standalone="no"?>
<!DOCTYPE svg PUBLIC "-//W3C//DTD SVG 1.1//EN"
 "http://www.w3.org/Graphics/SVG/1.1/DTD/svg11.dtd">
<!-- Generated by graphviz version 2.38.0 (20140413.2041)
 -->
<!-- Title: panda::ParticleM::setAddress Pages: 1 -->
<svg width="832pt" height="189pt"
 viewBox="0.00 0.00 831.61 189.00" xmlns="http://www.w3.org/2000/svg" xmlns:xlink="http://www.w3.org/1999/xlink">
<g id="graph0" class="graph" transform="scale(1 1) rotate(0) translate(4 185)">
<title>panda::ParticleM::setAddress</title>
<polygon fill="white" stroke="none" points="-4,4 -4,-185 827.612,-185 827.612,4 -4,4"/>
<!-- Node1 -->
<g id="node1" class="node"><title>Node1</title>
<polygon fill="#bfbfbf" stroke="black" points="1.42109e-14,-109.5 1.42109e-14,-129.5 146.586,-129.5 146.586,-109.5 1.42109e-14,-109.5"/>
<text text-anchor="middle" x="73.293" y="-116.5" font-family="Helvetica,sans-Serif" font-size="10.00">panda::ParticleM::setAddress</text>
</g>
<!-- Node2 -->
<g id="node2" class="node"><title>Node2</title>
<g id="a_node2"><a xlink:href="classpanda_1_1Particle.html#a96282cfb24384c1f00c40576069a4c7e" target="_top" xlink:title="Set address for the branches to the variables of this object. ">
<polygon fill="white" stroke="black" points="182.586,-109.5 182.586,-129.5 320.843,-129.5 320.843,-109.5 182.586,-109.5"/>
<text text-anchor="middle" x="251.714" y="-116.5" font-family="Helvetica,sans-Serif" font-size="10.00">panda::Particle::setAddress</text>
</a>
</g>
</g>
<!-- Node1&#45;&gt;Node2 -->
<g id="edge1" class="edge"><title>Node1&#45;&gt;Node2</title>
<path fill="none" stroke="midnightblue" d="M146.814,-119.5C155.192,-119.5 163.766,-119.5 172.218,-119.5"/>
<polygon fill="midnightblue" stroke="midnightblue" points="172.448,-123 182.448,-119.5 172.448,-116 172.448,-123"/>
</g>
<!-- Node4 -->
<g id="node4" class="node"><title>Node4</title>
<g id="a_node4"><a xlink:href="classpanda_1_1utils_1_1StoreManager.html#a6f30ec459d951e84a1196b7e2ffdcf49" target="_top" xlink:title="panda::utils::StoreManager\l::getName">
<polygon fill="white" stroke="black" points="356.843,-148.5 356.843,-180.5 492.878,-180.5 492.878,-148.5 356.843,-148.5"/>
<text text-anchor="start" x="364.843" y="-167.5" font-family="Helvetica,sans-Serif" font-size="10.00">panda::utils::StoreManager</text>
<text text-anchor="middle" x="424.86" y="-155.5" font-family="Helvetica,sans-Serif" font-size="10.00">::getName</text>
</a>
</g>
</g>
<!-- Node1&#45;&gt;Node4 -->
<g id="edge13" class="edge"><title>Node1&#45;&gt;Node4</title>
<path fill="none" stroke="midnightblue" d="M127.334,-129.53C144.883,-132.655 164.537,-135.947 182.586,-138.5 237.189,-146.223 299.033,-152.846 346.437,-157.475"/>
<polygon fill="midnightblue" stroke="midnightblue" points="346.339,-160.981 356.63,-158.461 347.013,-154.014 346.339,-160.981"/>
</g>
<!-- Node5 -->
<g id="node5" class="node"><title>Node5</title>
<g id="a_node5"><a xlink:href="namespacepanda_1_1utils.html#abf9c62e588560197c2bae9932e6a6e05" target="_top" xlink:title="Set address. ">
<polygon fill="white" stroke="black" points="363.51,-70.5 363.51,-90.5 486.21,-90.5 486.21,-70.5 363.51,-70.5"/>
<text text-anchor="middle" x="424.86" y="-77.5" font-family="Helvetica,sans-Serif" font-size="10.00">panda::utils::setAddress</text>
</a>
</g>
</g>
<!-- Node1&#45;&gt;Node5 -->
<g id="edge14" class="edge"><title>Node1&#45;&gt;Node5</title>
<path fill="none" stroke="midnightblue" d="M122.64,-109.459C141.303,-105.876 162.872,-102.09 182.586,-99.5 239.759,-91.9901 304.972,-87.0717 353.174,-84.1246"/>
<polygon fill="midnightblue" stroke="midnightblue" points="353.42,-87.6162 363.193,-83.5254 353.002,-80.6287 353.42,-87.6162"/>
</g>
<!-- Node3 -->
<g id="node3" class="node"><title>Node3</title>
<g id="a_node3"><a xlink:href="classpanda_1_1Object.html#aed9f9d3b6abe518dd27957de843b36b5" target="_top" xlink:title="Set address for the branches to the variables of this object. ">
<polygon fill="white" stroke="black" points="357.951,-109.5 357.951,-129.5 491.77,-129.5 491.77,-109.5 357.951,-109.5"/>
<text text-anchor="middle" x="424.86" y="-116.5" font-family="Helvetica,sans-Serif" font-size="10.00">panda::Object::setAddress</text>
</a>
</g>
</g>
<!-- Node2&#45;&gt;Node3 -->
<g id="edge2" class="edge"><title>Node2&#45;&gt;Node3</title>
<path fill="none" stroke="midnightblue" d="M320.848,-119.5C329.72,-119.5 338.854,-119.5 347.845,-119.5"/>
<polygon fill="midnightblue" stroke="midnightblue" points="347.914,-123 357.914,-119.5 347.914,-116 347.914,-123"/>
</g>
<!-- Node2&#45;&gt;Node4 -->
<g id="edge3" class="edge"><title>Node2&#45;&gt;Node4</title>
<path fill="none" stroke="midnightblue" d="M291.123,-129.599C309.33,-134.386 331.68,-140.263 352.812,-145.819"/>
<polygon fill="midnightblue" stroke="midnightblue" points="352.178,-149.271 362.739,-148.429 353.958,-142.501 352.178,-149.271"/>
</g>
<!-- Node2&#45;&gt;Node5 -->
<g id="edge4" class="edge"><title>Node2&#45;&gt;Node5</title>
<path fill="none" stroke="midnightblue" d="M296.789,-109.457C319.148,-104.362 346.493,-98.1301 370.082,-92.7549"/>
<polygon fill="midnightblue" stroke="midnightblue" points="370.963,-96.1438 379.936,-90.5094 369.408,-89.3188 370.963,-96.1438"/>
</g>
<!-- Node6 -->
<g id="node6" class="node"><title>Node6</title>
<g id="a_node6"><a xlink:href="classpanda_1_1utils_1_1BranchName.html#a13958ff4a9d554d2c057c600b4f70412" target="_top" xlink:title="Prepend the branch name with &lt;objName.&gt;. ">
<polygon fill="white" stroke="black" points="685.916,-129.5 685.916,-161.5 816.944,-161.5 816.944,-129.5 685.916,-129.5"/>
<text text-anchor="start" x="693.916" y="-148.5" font-family="Helvetica,sans-Serif" font-size="10.00">panda::utils::BranchName</text>
<text text-anchor="middle" x="751.43" y="-136.5" font-family="Helvetica,sans-Serif" font-size="10.00">::fullName</text>
</a>
</g>
</g>
<!-- Node5&#45;&gt;Node6 -->
<g id="edge5" class="edge"><title>Node5&#45;&gt;Node6</title>
<path fill="none" stroke="midnightblue" d="M466.871,-90.5095C485.715,-94.9916 508.385,-100.219 528.878,-104.5 577.62,-114.682 632.668,-124.876 675.699,-132.552"/>
<polygon fill="midnightblue" stroke="midnightblue" points="675.349,-136.044 685.807,-134.348 676.574,-129.152 675.349,-136.044"/>
</g>
<!-- Node7 -->
<g id="node7" class="node"><title>Node7</title>
<g id="a_node7"><a xlink:href="namespacepanda_1_1utils.html#a01665f786d6a2acedb8f008f3fc9fc84" target="_top" xlink:title="Set status of a branch. ">
<polygon fill="white" stroke="black" points="528.878,-51.5 528.878,-71.5 643.248,-71.5 643.248,-51.5 528.878,-51.5"/>
<text text-anchor="middle" x="586.063" y="-58.5" font-family="Helvetica,sans-Serif" font-size="10.00">panda::utils::setStatus</text>
</a>
</g>
</g>
<!-- Node5&#45;&gt;Node7 -->
<g id="edge6" class="edge"><title>Node5&#45;&gt;Node7</title>
<path fill="none" stroke="midnightblue" d="M486.502,-73.2627C497.024,-72.007 508.014,-70.6954 518.679,-69.4226"/>
<polygon fill="midnightblue" stroke="midnightblue" points="519.264,-72.8777 528.778,-68.2173 518.434,-65.9271 519.264,-72.8777"/>
</g>
<!-- Node8 -->
<g id="node8" class="node"><title>Node8</title>
<g id="a_node8"><a xlink:href="classpanda_1_1utils_1_1BranchName.html#a6cc8a6df7c5b12a0221fd49773cca6a7" target="_top" xlink:title="Is the name included and not vetoed? ">
<polygon fill="white" stroke="black" points="679.248,-90.5 679.248,-110.5 823.612,-110.5 823.612,-90.5 679.248,-90.5"/>
<text text-anchor="middle" x="751.43" y="-97.5" font-family="Helvetica,sans-Serif" font-size="10.00">panda::utils::BranchName::in</text>
</a>
</g>
</g>
<!-- Node5&#45;&gt;Node8 -->
<g id="edge11" class="edge"><title>Node5&#45;&gt;Node8</title>
<path fill="none" stroke="midnightblue" d="M486.529,-84.2384C538.023,-87.4114 612.356,-91.9919 669.019,-95.4835"/>
<polygon fill="midnightblue" stroke="midnightblue" points="668.829,-98.9783 679.026,-96.1001 669.26,-91.9916 668.829,-98.9783"/>
</g>
<!-- Node10 -->
<g id="node10" class="node"><title>Node10</title>
<g id="a_node10"><a xlink:href="namespacepanda_1_1utils.html#aafa411773a4b0ee829d99e6e5a0abdcd" target="_top" xlink:title="Check status of a branch. ">
<polygon fill="white" stroke="black" points="687.855,-0.5 687.855,-20.5 815.005,-20.5 815.005,-0.5 687.855,-0.5"/>
<text text-anchor="middle" x="751.43" y="-7.5" font-family="Helvetica,sans-Serif" font-size="10.00">panda::utils::checkStatus</text>
</a>
</g>
</g>
<!-- Node5&#45;&gt;Node10 -->
<g id="edge12" class="edge"><title>Node5&#45;&gt;Node10</title>
<path fill="none" stroke="midnightblue" d="M448.303,-70.3361C468.862,-61.4299 500.346,-48.7993 528.878,-41.5 577.749,-28.9973 634.059,-21.2015 677.681,-16.5548"/>
<polygon fill="midnightblue" stroke="midnightblue" points="678.047,-20.0357 687.634,-15.5255 677.327,-13.0728 678.047,-20.0357"/>
</g>
<!-- Node7&#45;&gt;Node6 -->
<g id="edge9" class="edge"><title>Node7&#45;&gt;Node6</title>
<path fill="none" stroke="midnightblue" d="M600.893,-71.5109C618.471,-83.9212 650.047,-105.181 679.248,-119.5 683.526,-121.598 688.019,-123.623 692.58,-125.553"/>
<polygon fill="midnightblue" stroke="midnightblue" points="691.407,-128.854 701.989,-129.376 694.042,-122.369 691.407,-128.854"/>
</g>
<!-- Node7&#45;&gt;Node8 -->
<g id="edge7" class="edge"><title>Node7&#45;&gt;Node8</title>
<path fill="none" stroke="midnightblue" d="M629.134,-71.5435C650.286,-76.593 676.114,-82.7587 698.492,-88.1009"/>
<polygon fill="midnightblue" stroke="midnightblue" points="697.962,-91.5728 708.502,-90.4906 699.588,-84.7641 697.962,-91.5728"/>
</g>
<!-- Node9 -->
<g id="node9" class="node"><title>Node9</title>
<g id="a_node9"><a xlink:href="classpanda_1_1utils_1_1BranchName.html#ae3332329bf2afae5ed8e7c35e5d77ffa" target="_top" xlink:title="Is the name included and vetoed? ">
<polygon fill="white" stroke="black" points="685.916,-39.5 685.916,-71.5 816.944,-71.5 816.944,-39.5 685.916,-39.5"/>
<text text-anchor="start" x="693.916" y="-58.5" font-family="Helvetica,sans-Serif" font-size="10.00">panda::utils::BranchName</text>
<text text-anchor="middle" x="751.43" y="-46.5" font-family="Helvetica,sans-Serif" font-size="10.00">::vetoed</text>
</a>
</g>
</g>
<!-- Node7&#45;&gt;Node9 -->
<g id="edge8" class="edge"><title>Node7&#45;&gt;Node9</title>
<path fill="none" stroke="midnightblue" d="M643.285,-59.4351C653.636,-59.055 664.594,-58.6525 675.396,-58.2558"/>
<polygon fill="midnightblue" stroke="midnightblue" points="675.815,-61.7429 685.68,-57.8781 675.558,-54.7476 675.815,-61.7429"/>
</g>
<!-- Node7&#45;&gt;Node10 -->
<g id="edge10" class="edge"><title>Node7&#45;&gt;Node10</title>
<path fill="none" stroke="midnightblue" d="M614.32,-51.4496C632.58,-44.8624 657.22,-36.2532 679.248,-29.5 686.226,-27.3607 693.63,-25.2311 700.923,-23.2131"/>
<polygon fill="midnightblue" stroke="midnightblue" points="702.019,-26.5424 710.749,-20.5402 700.181,-19.7878 702.019,-26.5424"/>
</g>
</g>
</svg>
