<?xml version="1.0" encoding="UTF-8" standalone="no"?>
<!DOCTYPE svg PUBLIC "-//W3C//DTD SVG 1.1//EN"
 "http://www.w3.org/Graphics/SVG/1.1/DTD/svg11.dtd">
<!-- Generated by graphviz version 2.38.0 (20140413.2041)
 -->
<!-- Title: panda::Jet::setAddress Pages: 1 -->
<svg width="295pt" height="29pt"
 viewBox="0.00 0.00 294.97 29.00" xmlns="http://www.w3.org/2000/svg" xmlns:xlink="http://www.w3.org/1999/xlink">
<g id="graph0" class="graph" transform="scale(1 1) rotate(0) translate(4 25)">
<title>panda::Jet::setAddress</title>
<polygon fill="white" stroke="none" points="-4,4 -4,-25 290.971,-25 290.971,4 -4,4"/>
<!-- Node1 -->
<g id="node1" class="node"><title>Node1</title>
<polygon fill="#bfbfbf" stroke="black" points="-2.13163e-14,-0.5 -2.13163e-14,-20.5 118.262,-20.5 118.262,-0.5 -2.13163e-14,-0.5"/>
<text text-anchor="middle" x="59.131" y="-7.5" font-family="Helvetica,sans-Serif" font-size="10.00">panda::Jet::setAddress</text>
</g>
<!-- Node2 -->
<g id="node2" class="node"><title>Node2</title>
<g id="a_node2"><a xlink:href="classpanda_1_1FatJet.html#a63392b9abcf86c432b0d7b34c7887cbf" target="_top" xlink:title="Set address for the branches to the variables of this object. ">
<polygon fill="white" stroke="black" points="154.262,-0.5 154.262,-20.5 286.971,-20.5 286.971,-0.5 154.262,-0.5"/>
<text text-anchor="middle" x="220.616" y="-7.5" font-family="Helvetica,sans-Serif" font-size="10.00">panda::FatJet::setAddress</text>
</a>
</g>
</g>
<!-- Node1&#45;&gt;Node2 -->
<g id="edge1" class="edge"><title>Node1&#45;&gt;Node2</title>
<path fill="none" stroke="midnightblue" d="M128.769,-10.5C137.186,-10.5 145.771,-10.5 154.14,-10.5"/>
<polygon fill="midnightblue" stroke="midnightblue" points="128.612,-7.0001 118.612,-10.5 128.612,-14.0001 128.612,-7.0001"/>
</g>
</g>
</svg>
