<?xml version="1.0" encoding="UTF-8" standalone="no"?>
<!DOCTYPE svg PUBLIC "-//W3C//DTD SVG 1.1//EN"
 "http://www.w3.org/Graphics/SVG/1.1/DTD/svg11.dtd">
<!-- Generated by graphviz version 2.38.0 (20140413.2041)
 -->
<!-- Title: panda::Container::copy Pages: 1 -->
<svg width="297pt" height="131pt"
 viewBox="0.00 0.00 296.63 131.00" xmlns="http://www.w3.org/2000/svg" xmlns:xlink="http://www.w3.org/1999/xlink">
<g id="graph0" class="graph" transform="scale(1 1) rotate(0) translate(4 127)">
<title>panda::Container::copy</title>
<polygon fill="white" stroke="none" points="-4,4 -4,-127 292.635,-127 292.635,4 -4,4"/>
<!-- Node1 -->
<g id="node1" class="node"><title>Node1</title>
<polygon fill="#bfbfbf" stroke="black" points="1.42109e-14,-57.5 1.42109e-14,-77.5 119.37,-77.5 119.37,-57.5 1.42109e-14,-57.5"/>
<text text-anchor="middle" x="59.685" y="-64.5" font-family="Helvetica,sans-Serif" font-size="10.00">panda::Container::copy</text>
</g>
<!-- Node2 -->
<g id="node2" class="node"><title>Node2</title>
<g id="a_node2"><a xlink:href="classpanda_1_1Container.html#ae8c189c8e337af593b268455a2dda89f" target="_top" xlink:title="panda::Container::getData">
<polygon fill="white" stroke="black" points="155.37,-102.5 155.37,-122.5 288.635,-122.5 288.635,-102.5 155.37,-102.5"/>
<text text-anchor="middle" x="222.002" y="-109.5" font-family="Helvetica,sans-Serif" font-size="10.00">panda::Container::getData</text>
</a>
</g>
</g>
<!-- Node1&#45;&gt;Node2 -->
<g id="edge1" class="edge"><title>Node1&#45;&gt;Node2</title>
<path fill="none" stroke="midnightblue" d="M96.6634,-77.5989C119.869,-84.1126 150.259,-92.6428 175.185,-99.6395"/>
<polygon fill="midnightblue" stroke="midnightblue" points="174.57,-103.102 185.144,-102.435 176.462,-96.3625 174.57,-103.102"/>
</g>
<!-- Node3 -->
<g id="node3" class="node"><title>Node3</title>
<g id="a_node3"><a xlink:href="structpanda_1_1ContainerElement_1_1datastore.html#aff3ea42523fa1d980435a5085c8f1289" target="_top" xlink:title="panda::ContainerElement\l::datastore::nmax">
<polygon fill="white" stroke="black" points="157.319,-51.5 157.319,-83.5 286.686,-83.5 286.686,-51.5 157.319,-51.5"/>
<text text-anchor="start" x="165.319" y="-70.5" font-family="Helvetica,sans-Serif" font-size="10.00">panda::ContainerElement</text>
<text text-anchor="middle" x="222.002" y="-58.5" font-family="Helvetica,sans-Serif" font-size="10.00">::datastore::nmax</text>
</a>
</g>
</g>
<!-- Node1&#45;&gt;Node3 -->
<g id="edge2" class="edge"><title>Node1&#45;&gt;Node3</title>
<path fill="none" stroke="midnightblue" d="M119.471,-67.5C128.366,-67.5 137.64,-67.5 146.81,-67.5"/>
<polygon fill="midnightblue" stroke="midnightblue" points="147.092,-71.0001 157.092,-67.5 147.092,-64.0001 147.092,-71.0001"/>
</g>
<!-- Node4 -->
<g id="node4" class="node"><title>Node4</title>
<g id="a_node4"><a xlink:href="classpanda_1_1ContainerBase.html#af338d42cdb776d8af77a2c14d3a983f5" target="_top" xlink:title="Set the name of this container. ">
<polygon fill="white" stroke="black" points="164.262,-0.5 164.262,-32.5 279.743,-32.5 279.743,-0.5 164.262,-0.5"/>
<text text-anchor="start" x="172.262" y="-19.5" font-family="Helvetica,sans-Serif" font-size="10.00">panda::ContainerBase</text>
<text text-anchor="middle" x="222.002" y="-7.5" font-family="Helvetica,sans-Serif" font-size="10.00">::setName</text>
</a>
</g>
</g>
<!-- Node1&#45;&gt;Node4 -->
<g id="edge3" class="edge"><title>Node1&#45;&gt;Node4</title>
<path fill="none" stroke="midnightblue" d="M92.3586,-57.424C111.841,-51.2263 137.444,-43.0814 160.676,-35.6909"/>
<polygon fill="midnightblue" stroke="midnightblue" points="161.994,-38.9445 170.463,-32.5777 159.872,-32.2739 161.994,-38.9445"/>
</g>
</g>
</svg>
