<?xml version="1.0" encoding="UTF-8" standalone="no"?>
<!DOCTYPE svg PUBLIC "-//W3C//DTD SVG 1.1//EN"
 "http://www.w3.org/Graphics/SVG/1.1/DTD/svg11.dtd">
<!-- Generated by graphviz version 2.38.0 (20140413.2041)
 -->
<!-- Title: panda::ArrayBase Pages: 1 -->
<svg width="123pt" height="143pt"
 viewBox="0.00 0.00 123.48 143.00" xmlns="http://www.w3.org/2000/svg" xmlns:xlink="http://www.w3.org/1999/xlink">
<g id="graph0" class="graph" transform="scale(1 1) rotate(0) translate(4 139)">
<title>panda::ArrayBase</title>
<polygon fill="white" stroke="none" points="-4,4 -4,-139 119.481,-139 119.481,4 -4,4"/>
<!-- Node1 -->
<g id="node1" class="node"><title>Node1</title>
<polygon fill="#bfbfbf" stroke="black" points="9.7275,-0.5 9.7275,-20.5 105.753,-20.5 105.753,-0.5 9.7275,-0.5"/>
<text text-anchor="middle" x="57.7405" y="-7.5" font-family="Helvetica,sans-Serif" font-size="10.00">panda::ArrayBase</text>
</g>
<!-- Node2 -->
<g id="node2" class="node"><title>Node2</title>
<g id="a_node2"><a xlink:href="classpanda_1_1ContainerBase.html" target="_top" xlink:title="Base class for all containers. ">
<polygon fill="white" stroke="black" points="0,-57.5 0,-77.5 115.481,-77.5 115.481,-57.5 0,-57.5"/>
<text text-anchor="middle" x="57.7405" y="-64.5" font-family="Helvetica,sans-Serif" font-size="10.00">panda::ContainerBase</text>
</a>
</g>
</g>
<!-- Node2&#45;&gt;Node1 -->
<g id="edge1" class="edge"><title>Node2&#45;&gt;Node1</title>
<path fill="none" stroke="midnightblue" d="M57.7405,-47.383C57.7405,-38.3738 57.7405,-28.0373 57.7405,-20.7795"/>
<polygon fill="midnightblue" stroke="midnightblue" points="54.2406,-47.4178 57.7405,-57.4179 61.2406,-47.4179 54.2406,-47.4178"/>
</g>
<!-- Node3 -->
<g id="node3" class="node"><title>Node3</title>
<g id="a_node3"><a xlink:href="classpanda_1_1Object.html" target="_top" xlink:title="panda::Object">
<polygon fill="white" stroke="black" points="18.6165,-114.5 18.6165,-134.5 96.8645,-134.5 96.8645,-114.5 18.6165,-114.5"/>
<text text-anchor="middle" x="57.7405" y="-121.5" font-family="Helvetica,sans-Serif" font-size="10.00">panda::Object</text>
</a>
</g>
</g>
<!-- Node3&#45;&gt;Node2 -->
<g id="edge2" class="edge"><title>Node3&#45;&gt;Node2</title>
<path fill="none" stroke="midnightblue" d="M57.7405,-104.383C57.7405,-95.3738 57.7405,-85.0373 57.7405,-77.7795"/>
<polygon fill="midnightblue" stroke="midnightblue" points="54.2406,-104.418 57.7405,-114.418 61.2406,-104.418 54.2406,-104.418"/>
</g>
</g>
</svg>
