<?xml version="1.0" encoding="UTF-8" standalone="no"?>
<!DOCTYPE svg PUBLIC "-//W3C//DTD SVG 1.1//EN"
 "http://www.w3.org/Graphics/SVG/1.1/DTD/svg11.dtd">
<!-- Generated by graphviz version 2.38.0 (20140413.2041)
 -->
<!-- Title: panda::Particle::setStatus Pages: 1 -->
<svg width="789pt" height="314pt"
 viewBox="0.00 0.00 788.86 314.00" xmlns="http://www.w3.org/2000/svg" xmlns:xlink="http://www.w3.org/1999/xlink">
<g id="graph0" class="graph" transform="scale(1 1) rotate(0) translate(4 310)">
<title>panda::Particle::setStatus</title>
<polygon fill="white" stroke="none" points="-4,4 -4,-310 784.862,-310 784.862,4 -4,4"/>
<!-- Node1 -->
<g id="node1" class="node"><title>Node1</title>
<polygon fill="#bfbfbf" stroke="black" points="-4.26326e-14,-117.5 -4.26326e-14,-137.5 129.927,-137.5 129.927,-117.5 -4.26326e-14,-117.5"/>
<text text-anchor="middle" x="64.9635" y="-124.5" font-family="Helvetica,sans-Serif" font-size="10.00">panda::Particle::setStatus</text>
</g>
<!-- Node2 -->
<g id="node2" class="node"><title>Node2</title>
<g id="a_node2"><a xlink:href="classpanda_1_1Lepton.html#aa572221e2d3c2736757021f8d6a65cfe" target="_top" xlink:title="Set status of branches with names that correspond to the variables of this object. ">
<polygon fill="white" stroke="black" points="171.471,-246.5 171.471,-266.5 298.639,-266.5 298.639,-246.5 171.471,-246.5"/>
<text text-anchor="middle" x="235.055" y="-253.5" font-family="Helvetica,sans-Serif" font-size="10.00">panda::Lepton::setStatus</text>
</a>
</g>
</g>
<!-- Node1&#45;&gt;Node2 -->
<g id="edge1" class="edge"><title>Node1&#45;&gt;Node2</title>
<path fill="none" stroke="midnightblue" d="M87.3435,-143.908C122.627,-170.986 192.016,-224.238 220.926,-246.425"/>
<polygon fill="midnightblue" stroke="midnightblue" points="89.2174,-140.934 79.1534,-137.622 84.9556,-146.487 89.2174,-140.934"/>
</g>
<!-- Node5 -->
<g id="node5" class="node"><title>Node5</title>
<g id="a_node5"><a xlink:href="classpanda_1_1ParticleM.html#a3154bba2f00a8165994caa8ef55473bf" target="_top" xlink:title="Set status of branches with names that correspond to the variables of this object. ">
<polygon fill="white" stroke="black" points="165.927,-117.5 165.927,-137.5 304.183,-137.5 304.183,-117.5 165.927,-117.5"/>
<text text-anchor="middle" x="235.055" y="-124.5" font-family="Helvetica,sans-Serif" font-size="10.00">panda::ParticleM::setStatus</text>
</a>
</g>
</g>
<!-- Node1&#45;&gt;Node5 -->
<g id="edge4" class="edge"><title>Node1&#45;&gt;Node5</title>
<path fill="none" stroke="midnightblue" d="M140.243,-127.5C148.721,-127.5 157.334,-127.5 165.729,-127.5"/>
<polygon fill="midnightblue" stroke="midnightblue" points="139.991,-124 129.991,-127.5 139.991,-131 139.991,-124"/>
</g>
<!-- Node14 -->
<g id="node14" class="node"><title>Node14</title>
<g id="a_node14"><a xlink:href="classpanda_1_1Photon.html#ae4830eada9981a7d1ee77af3889ec228" target="_top" xlink:title="Set status of branches with names that correspond to the variables of this object. ">
<polygon fill="white" stroke="black" points="170.916,-78.5 170.916,-98.5 299.194,-98.5 299.194,-78.5 170.916,-78.5"/>
<text text-anchor="middle" x="235.055" y="-85.5" font-family="Helvetica,sans-Serif" font-size="10.00">panda::Photon::setStatus</text>
</a>
</g>
</g>
<!-- Node1&#45;&gt;Node14 -->
<g id="edge13" class="edge"><title>Node1&#45;&gt;Node14</title>
<path fill="none" stroke="midnightblue" d="M119.248,-115.137C142.361,-109.775 169.074,-103.577 190.914,-98.5094"/>
<polygon fill="midnightblue" stroke="midnightblue" points="118.201,-111.787 109.251,-117.457 119.784,-118.606 118.201,-111.787"/>
</g>
<!-- Node3 -->
<g id="node3" class="node"><title>Node3</title>
<g id="a_node3"><a xlink:href="classpanda_1_1Electron.html#abc7d63655cb95a1f16abe847884a2bac" target="_top" xlink:title="Set status of branches with names that correspond to the variables of this object. ">
<polygon fill="white" stroke="black" points="340.733,-285.5 340.733,-305.5 474,-305.5 474,-285.5 340.733,-285.5"/>
<text text-anchor="middle" x="407.367" y="-292.5" font-family="Helvetica,sans-Serif" font-size="10.00">panda::Electron::setStatus</text>
</a>
</g>
</g>
<!-- Node2&#45;&gt;Node3 -->
<g id="edge2" class="edge"><title>Node2&#45;&gt;Node3</title>
<path fill="none" stroke="midnightblue" d="M289.729,-268.791C313.219,-274.17 340.429,-280.401 362.656,-285.491"/>
<polygon fill="midnightblue" stroke="midnightblue" points="290.444,-265.364 279.915,-266.543 288.881,-272.187 290.444,-265.364"/>
</g>
<!-- Node4 -->
<g id="node4" class="node"><title>Node4</title>
<g id="a_node4"><a xlink:href="classpanda_1_1Muon.html#a2598ab6bec7da6c91027595817e7a51a" target="_top" xlink:title="Set status of branches with names that correspond to the variables of this object. ">
<polygon fill="white" stroke="black" points="346.567,-246.5 346.567,-266.5 468.167,-266.5 468.167,-246.5 346.567,-246.5"/>
<text text-anchor="middle" x="407.367" y="-253.5" font-family="Helvetica,sans-Serif" font-size="10.00">panda::Muon::setStatus</text>
</a>
</g>
</g>
<!-- Node2&#45;&gt;Node4 -->
<g id="edge3" class="edge"><title>Node2&#45;&gt;Node4</title>
<path fill="none" stroke="midnightblue" d="M309.316,-256.5C321.734,-256.5 334.497,-256.5 346.52,-256.5"/>
<polygon fill="midnightblue" stroke="midnightblue" points="308.989,-253 298.989,-256.5 308.989,-260 308.989,-253"/>
</g>
<!-- Node6 -->
<g id="node6" class="node"><title>Node6</title>
<g id="a_node6"><a xlink:href="classpanda_1_1GenJet.html#a3c5b1e9560862967ec26df6a6bced69b" target="_top" xlink:title="Set status of branches with names that correspond to the variables of this object. ">
<polygon fill="white" stroke="black" points="342.952,-207.5 342.952,-227.5 471.781,-227.5 471.781,-207.5 342.952,-207.5"/>
<text text-anchor="middle" x="407.367" y="-214.5" font-family="Helvetica,sans-Serif" font-size="10.00">panda::GenJet::setStatus</text>
</a>
</g>
</g>
<!-- Node5&#45;&gt;Node6 -->
<g id="edge5" class="edge"><title>Node5&#45;&gt;Node6</title>
<path fill="none" stroke="midnightblue" d="M255.917,-143.912C276.048,-159.831 308.643,-183.69 340.183,-198.5 347.541,-201.955 355.66,-204.915 363.616,-207.4"/>
<polygon fill="midnightblue" stroke="midnightblue" points="258.079,-141.159 248.091,-137.625 253.695,-146.617 258.079,-141.159"/>
</g>
<!-- Node7 -->
<g id="node7" class="node"><title>Node7</title>
<g id="a_node7"><a xlink:href="classpanda_1_1GenParticle.html#ace528f9680d5a0954a651e3b099bb7f4" target="_top" xlink:title="Set status of branches with names that correspond to the variables of this object. ">
<polygon fill="white" stroke="black" points="356.575,-156.5 356.575,-188.5 458.158,-188.5 458.158,-156.5 356.575,-156.5"/>
<text text-anchor="start" x="364.575" y="-175.5" font-family="Helvetica,sans-Serif" font-size="10.00">panda::GenParticle</text>
<text text-anchor="middle" x="407.367" y="-163.5" font-family="Helvetica,sans-Serif" font-size="10.00">::setStatus</text>
</a>
</g>
</g>
<!-- Node5&#45;&gt;Node7 -->
<g id="edge6" class="edge"><title>Node5&#45;&gt;Node7</title>
<path fill="none" stroke="midnightblue" d="M283.984,-140.164C306.556,-146.128 333.473,-153.24 356.308,-159.273"/>
<polygon fill="midnightblue" stroke="midnightblue" points="284.839,-136.77 274.276,-137.599 283.05,-143.537 284.839,-136.77"/>
</g>
<!-- Node8 -->
<g id="node8" class="node"><title>Node8</title>
<g id="a_node8"><a xlink:href="classpanda_1_1MicroJet.html#a55b434c84ffd0e71a8d6e96c29cbe57a" target="_top" xlink:title="Set status of branches with names that correspond to the variables of this object. ">
<polygon fill="white" stroke="black" points="340.183,-117.5 340.183,-137.5 474.551,-137.5 474.551,-117.5 340.183,-117.5"/>
<text text-anchor="middle" x="407.367" y="-124.5" font-family="Helvetica,sans-Serif" font-size="10.00">panda::MicroJet::setStatus</text>
</a>
</g>
</g>
<!-- Node5&#45;&gt;Node8 -->
<g id="edge7" class="edge"><title>Node5&#45;&gt;Node8</title>
<path fill="none" stroke="midnightblue" d="M314.348,-127.5C322.922,-127.5 331.59,-127.5 340,-127.5"/>
<polygon fill="midnightblue" stroke="midnightblue" points="314.346,-124 304.346,-127.5 314.346,-131 314.346,-124"/>
</g>
<!-- Node11 -->
<g id="node11" class="node"><title>Node11</title>
<g id="a_node11"><a xlink:href="classpanda_1_1Parton.html#afc1af337bdb9cc55a55ebea4c819fc76" target="_top" xlink:title="Set status of branches with names that correspond to the variables of this object. ">
<polygon fill="white" stroke="black" points="344.343,-78.5 344.343,-98.5 470.391,-98.5 470.391,-78.5 344.343,-78.5"/>
<text text-anchor="middle" x="407.367" y="-85.5" font-family="Helvetica,sans-Serif" font-size="10.00">panda::Parton::setStatus</text>
</a>
</g>
</g>
<!-- Node5&#45;&gt;Node11 -->
<g id="edge10" class="edge"><title>Node5&#45;&gt;Node11</title>
<path fill="none" stroke="midnightblue" d="M289.729,-115.209C313.219,-109.83 340.429,-103.599 362.656,-98.5094"/>
<polygon fill="midnightblue" stroke="midnightblue" points="288.881,-111.813 279.915,-117.457 290.444,-118.636 288.881,-111.813"/>
</g>
<!-- Node12 -->
<g id="node12" class="node"><title>Node12</title>
<g id="a_node12"><a xlink:href="classpanda_1_1PFCand.html#a80f36bbc47987a89a4376e519064b9da" target="_top" xlink:title="Set status of branches with names that correspond to the variables of this object. ">
<polygon fill="white" stroke="black" points="340.733,-39.5 340.733,-59.5 474.001,-59.5 474.001,-39.5 340.733,-39.5"/>
<text text-anchor="middle" x="407.367" y="-46.5" font-family="Helvetica,sans-Serif" font-size="10.00">panda::PFCand::setStatus</text>
</a>
</g>
</g>
<!-- Node5&#45;&gt;Node12 -->
<g id="edge11" class="edge"><title>Node5&#45;&gt;Node12</title>
<path fill="none" stroke="midnightblue" d="M294.635,-113.537C297.948,-112.023 301.158,-110.349 304.183,-108.5 324.31,-96.1969 320.19,-82.0186 340.183,-69.5 346.592,-65.4868 353.855,-62.2376 361.164,-59.6194"/>
<polygon fill="midnightblue" stroke="midnightblue" points="293.046,-110.404 285.086,-117.397 295.669,-116.894 293.046,-110.404"/>
</g>
<!-- Node13 -->
<g id="node13" class="node"><title>Node13</title>
<g id="a_node13"><a xlink:href="classpanda_1_1Tau.html#a13a1e5081816f0045880f739db031d9e" target="_top" xlink:title="Set status of branches with names that correspond to the variables of this object. ">
<polygon fill="white" stroke="black" points="350.456,-0.5 350.456,-20.5 464.277,-20.5 464.277,-0.5 350.456,-0.5"/>
<text text-anchor="middle" x="407.367" y="-7.5" font-family="Helvetica,sans-Serif" font-size="10.00">panda::Tau::setStatus</text>
</a>
</g>
</g>
<!-- Node5&#45;&gt;Node13 -->
<g id="edge12" class="edge"><title>Node5&#45;&gt;Node13</title>
<path fill="none" stroke="midnightblue" d="M299.204,-112.252C300.939,-111.092 302.605,-109.843 304.183,-108.5 333.257,-83.7522 311.376,-55.5587 340.183,-30.5 344.892,-26.4034 350.419,-23.1459 356.237,-20.5555"/>
<polygon fill="midnightblue" stroke="midnightblue" points="297.07,-109.434 290.032,-117.354 300.473,-115.551 297.07,-109.434"/>
</g>
<!-- Node9 -->
<g id="node9" class="node"><title>Node9</title>
<g id="a_node9"><a xlink:href="classpanda_1_1Jet.html#afa2e8a9a09a34cddb5ce810c8b5a964a" target="_top" xlink:title="Set status of branches with names that correspond to the variables of this object. ">
<polygon fill="white" stroke="black" points="510.551,-117.5 510.551,-137.5 620.483,-137.5 620.483,-117.5 510.551,-117.5"/>
<text text-anchor="middle" x="565.517" y="-124.5" font-family="Helvetica,sans-Serif" font-size="10.00">panda::Jet::setStatus</text>
</a>
</g>
</g>
<!-- Node8&#45;&gt;Node9 -->
<g id="edge8" class="edge"><title>Node8&#45;&gt;Node9</title>
<path fill="none" stroke="midnightblue" d="M484.753,-127.5C493.444,-127.5 502.162,-127.5 510.478,-127.5"/>
<polygon fill="midnightblue" stroke="midnightblue" points="484.589,-124 474.589,-127.5 484.589,-131 484.589,-124"/>
</g>
<!-- Node10 -->
<g id="node10" class="node"><title>Node10</title>
<g id="a_node10"><a xlink:href="classpanda_1_1FatJet.html#a0b0f30a26fe1e58a47217baf71978e90" target="_top" xlink:title="Set status of branches with names that correspond to the variables of this object. ">
<polygon fill="white" stroke="black" points="656.483,-117.5 656.483,-137.5 780.862,-137.5 780.862,-117.5 656.483,-117.5"/>
<text text-anchor="middle" x="718.672" y="-124.5" font-family="Helvetica,sans-Serif" font-size="10.00">panda::FatJet::setStatus</text>
</a>
</g>
</g>
<!-- Node9&#45;&gt;Node10 -->
<g id="edge9" class="edge"><title>Node9&#45;&gt;Node10</title>
<path fill="none" stroke="midnightblue" d="M630.88,-127.5C639.36,-127.5 648.033,-127.5 656.458,-127.5"/>
<polygon fill="midnightblue" stroke="midnightblue" points="630.661,-124 620.661,-127.5 630.661,-131 630.661,-124"/>
</g>
</g>
</svg>
