<?xml version="1.0" encoding="UTF-8" standalone="no"?>
<!DOCTYPE svg PUBLIC "-//W3C//DTD SVG 1.1//EN"
 "http://www.w3.org/Graphics/SVG/1.1/DTD/svg11.dtd">
<!-- Generated by graphviz version 2.38.0 (20140413.2041)
 -->
<!-- Title: panda::Event::doReleaseTree_ Pages: 1 -->
<svg width="497pt" height="41pt"
 viewBox="0.00 0.00 497.00 41.00" xmlns="http://www.w3.org/2000/svg" xmlns:xlink="http://www.w3.org/1999/xlink">
<g id="graph0" class="graph" transform="scale(1 1) rotate(0) translate(4 37)">
<title>panda::Event::doReleaseTree_</title>
<polygon fill="white" stroke="none" points="-4,4 -4,-37 493,-37 493,4 -4,4"/>
<!-- Node1 -->
<g id="node1" class="node"><title>Node1</title>
<polygon fill="#bfbfbf" stroke="black" points="2.84217e-14,-6.5 2.84217e-14,-26.5 154.384,-26.5 154.384,-6.5 2.84217e-14,-6.5"/>
<text text-anchor="middle" x="77.192" y="-13.5" font-family="Helvetica,sans-Serif" font-size="10.00">panda::Event::doReleaseTree_</text>
</g>
<!-- Node2 -->
<g id="node2" class="node"><title>Node2</title>
<g id="a_node2"><a xlink:href="namespacepanda_1_1utils.html#a82a8530e64fbdf917cf9b8659065f98b" target="_top" xlink:title="panda::utils::resetAddress">
<polygon fill="white" stroke="black" points="190.384,-6.5 190.384,-26.5 321.972,-26.5 321.972,-6.5 190.384,-6.5"/>
<text text-anchor="middle" x="256.178" y="-13.5" font-family="Helvetica,sans-Serif" font-size="10.00">panda::utils::resetAddress</text>
</a>
</g>
</g>
<!-- Node1&#45;&gt;Node2 -->
<g id="edge1" class="edge"><title>Node1&#45;&gt;Node2</title>
<path fill="none" stroke="midnightblue" d="M154.534,-16.5C162.981,-16.5 171.579,-16.5 180.012,-16.5"/>
<polygon fill="midnightblue" stroke="midnightblue" points="180.194,-20.0001 190.194,-16.5 180.194,-13.0001 180.194,-20.0001"/>
</g>
<!-- Node3 -->
<g id="node3" class="node"><title>Node3</title>
<g id="a_node3"><a xlink:href="classpanda_1_1utils_1_1BranchName.html#a13958ff4a9d554d2c057c600b4f70412" target="_top" xlink:title="Prepend the branch name with &lt;objName.&gt;. ">
<polygon fill="white" stroke="black" points="357.972,-0.5 357.972,-32.5 489,-32.5 489,-0.5 357.972,-0.5"/>
<text text-anchor="start" x="365.972" y="-19.5" font-family="Helvetica,sans-Serif" font-size="10.00">panda::utils::BranchName</text>
<text text-anchor="middle" x="423.486" y="-7.5" font-family="Helvetica,sans-Serif" font-size="10.00">::fullName</text>
</a>
</g>
</g>
<!-- Node2&#45;&gt;Node3 -->
<g id="edge2" class="edge"><title>Node2&#45;&gt;Node3</title>
<path fill="none" stroke="midnightblue" d="M322.038,-16.5C330.489,-16.5 339.202,-16.5 347.798,-16.5"/>
<polygon fill="midnightblue" stroke="midnightblue" points="347.813,-20.0001 357.813,-16.5 347.813,-13.0001 347.813,-20.0001"/>
</g>
</g>
</svg>
