<?xml version="1.0" encoding="UTF-8" standalone="no"?>
<!DOCTYPE svg PUBLIC "-//W3C//DTD SVG 1.1//EN"
 "http://www.w3.org/Graphics/SVG/1.1/DTD/svg11.dtd">
<!-- Generated by graphviz version 2.38.0 (20140413.2041)
 -->
<!-- Title: panda::Muon::setStatus Pages: 1 -->
<svg width="811pt" height="189pt"
 viewBox="0.00 0.00 811.09 189.00" xmlns="http://www.w3.org/2000/svg" xmlns:xlink="http://www.w3.org/1999/xlink">
<g id="graph0" class="graph" transform="scale(1 1) rotate(0) translate(4 185)">
<title>panda::Muon::setStatus</title>
<polygon fill="white" stroke="none" points="-4,4 -4,-185 807.094,-185 807.094,4 -4,4"/>
<!-- Node1 -->
<g id="node1" class="node"><title>Node1</title>
<polygon fill="#bfbfbf" stroke="black" points="-4.26326e-14,-109.5 -4.26326e-14,-129.5 121.6,-129.5 121.6,-109.5 -4.26326e-14,-109.5"/>
<text text-anchor="middle" x="60.8" y="-116.5" font-family="Helvetica,sans-Serif" font-size="10.00">panda::Muon::setStatus</text>
</g>
<!-- Node2 -->
<g id="node2" class="node"><title>Node2</title>
<g id="a_node2"><a xlink:href="classpanda_1_1Lepton.html#aa572221e2d3c2736757021f8d6a65cfe" target="_top" xlink:title="Set status of branches with names that correspond to the variables of this object. ">
<polygon fill="white" stroke="black" points="157.6,-109.5 157.6,-129.5 284.768,-129.5 284.768,-109.5 157.6,-109.5"/>
<text text-anchor="middle" x="221.184" y="-116.5" font-family="Helvetica,sans-Serif" font-size="10.00">panda::Lepton::setStatus</text>
</a>
</g>
</g>
<!-- Node1&#45;&gt;Node2 -->
<g id="edge1" class="edge"><title>Node1&#45;&gt;Node2</title>
<path fill="none" stroke="midnightblue" d="M121.678,-119.5C130.115,-119.5 138.864,-119.5 147.508,-119.5"/>
<polygon fill="midnightblue" stroke="midnightblue" points="147.583,-123 157.583,-119.5 147.583,-116 147.583,-123"/>
</g>
<!-- Node5 -->
<g id="node5" class="node"><title>Node5</title>
<g id="a_node5"><a xlink:href="classpanda_1_1utils_1_1StoreManager.html#a6f30ec459d951e84a1196b7e2ffdcf49" target="_top" xlink:title="panda::utils::StoreManager\l::getName">
<polygon fill="white" stroke="black" points="486.695,-148.5 486.695,-180.5 622.73,-180.5 622.73,-148.5 486.695,-148.5"/>
<text text-anchor="start" x="494.695" y="-167.5" font-family="Helvetica,sans-Serif" font-size="10.00">panda::utils::StoreManager</text>
<text text-anchor="middle" x="554.712" y="-155.5" font-family="Helvetica,sans-Serif" font-size="10.00">::getName</text>
</a>
</g>
</g>
<!-- Node1&#45;&gt;Node5 -->
<g id="edge12" class="edge"><title>Node1&#45;&gt;Node5</title>
<path fill="none" stroke="midnightblue" d="M109.448,-129.553C124.785,-132.627 141.878,-135.884 157.6,-138.5 229.783,-150.512 247.802,-154.974 320.768,-160.5 372.607,-164.426 431.111,-165.418 476.521,-165.433"/>
<polygon fill="midnightblue" stroke="midnightblue" points="476.595,-168.933 486.591,-165.42 476.586,-161.933 476.595,-168.933"/>
</g>
<!-- Node6 -->
<g id="node6" class="node"><title>Node6</title>
<g id="a_node6"><a xlink:href="namespacepanda_1_1utils.html#a01665f786d6a2acedb8f008f3fc9fc84" target="_top" xlink:title="Set status of a branch. ">
<polygon fill="white" stroke="black" points="497.527,-70.5 497.527,-90.5 611.897,-90.5 611.897,-70.5 497.527,-70.5"/>
<text text-anchor="middle" x="554.712" y="-77.5" font-family="Helvetica,sans-Serif" font-size="10.00">panda::utils::setStatus</text>
</a>
</g>
</g>
<!-- Node1&#45;&gt;Node6 -->
<g id="edge13" class="edge"><title>Node1&#45;&gt;Node6</title>
<path fill="none" stroke="midnightblue" d="M105.017,-109.443C121.414,-105.9 140.301,-102.146 157.6,-99.5 229.629,-88.4827 248.013,-87.5284 320.768,-83.5 376.708,-80.4027 440.315,-79.7789 486.912,-79.8587"/>
<polygon fill="midnightblue" stroke="midnightblue" points="487.171,-83.3594 497.181,-79.8881 487.192,-76.3594 487.171,-83.3594"/>
</g>
<!-- Node3 -->
<g id="node3" class="node"><title>Node3</title>
<g id="a_node3"><a xlink:href="classpanda_1_1Particle.html#a114feb26e7ed0b5fac53646fca93964e" target="_top" xlink:title="Set status of branches with names that correspond to the variables of this object. ">
<polygon fill="white" stroke="black" points="320.768,-109.5 320.768,-129.5 450.695,-129.5 450.695,-109.5 320.768,-109.5"/>
<text text-anchor="middle" x="385.731" y="-116.5" font-family="Helvetica,sans-Serif" font-size="10.00">panda::Particle::setStatus</text>
</a>
</g>
</g>
<!-- Node2&#45;&gt;Node3 -->
<g id="edge2" class="edge"><title>Node2&#45;&gt;Node3</title>
<path fill="none" stroke="midnightblue" d="M285.029,-119.5C293.441,-119.5 302.131,-119.5 310.712,-119.5"/>
<polygon fill="midnightblue" stroke="midnightblue" points="310.712,-123 320.712,-119.5 310.712,-116 310.712,-123"/>
</g>
<!-- Node2&#45;&gt;Node5 -->
<g id="edge10" class="edge"><title>Node2&#45;&gt;Node5</title>
<path fill="none" stroke="midnightblue" d="M270.189,-129.543C286.226,-132.686 304.225,-135.987 320.768,-138.5 372.477,-146.356 430.982,-152.877 476.424,-157.424"/>
<polygon fill="midnightblue" stroke="midnightblue" points="476.206,-160.919 486.502,-158.421 476.895,-153.953 476.206,-160.919"/>
</g>
<!-- Node2&#45;&gt;Node6 -->
<g id="edge11" class="edge"><title>Node2&#45;&gt;Node6</title>
<path fill="none" stroke="midnightblue" d="M266.158,-109.416C283.143,-105.827 302.785,-102.048 320.768,-99.5 376.723,-91.5707 440.745,-86.6454 487.493,-83.8025"/>
<polygon fill="midnightblue" stroke="midnightblue" points="487.719,-87.2953 497.494,-83.2099 487.304,-80.3076 487.719,-87.2953"/>
</g>
<!-- Node4 -->
<g id="node4" class="node"><title>Node4</title>
<g id="a_node4"><a xlink:href="classpanda_1_1Object.html#a282e820b1ad431db22ca4d4dd20b55e0" target="_top" xlink:title="Set status of branches with names that correspond to the variables of this object. ">
<polygon fill="white" stroke="black" points="491.968,-109.5 491.968,-129.5 617.457,-129.5 617.457,-109.5 491.968,-109.5"/>
<text text-anchor="middle" x="554.712" y="-116.5" font-family="Helvetica,sans-Serif" font-size="10.00">panda::Object::setStatus</text>
</a>
</g>
</g>
<!-- Node3&#45;&gt;Node4 -->
<g id="edge3" class="edge"><title>Node3&#45;&gt;Node4</title>
<path fill="none" stroke="midnightblue" d="M450.813,-119.5C460.884,-119.5 471.354,-119.5 481.591,-119.5"/>
<polygon fill="midnightblue" stroke="midnightblue" points="481.728,-123 491.728,-119.5 481.728,-116 481.728,-123"/>
</g>
<!-- Node3&#45;&gt;Node5 -->
<g id="edge4" class="edge"><title>Node3&#45;&gt;Node5</title>
<path fill="none" stroke="midnightblue" d="M424.205,-129.599C441.969,-134.386 463.775,-140.263 484.393,-145.819"/>
<polygon fill="midnightblue" stroke="midnightblue" points="483.512,-149.206 494.079,-148.429 485.334,-142.448 483.512,-149.206"/>
</g>
<!-- Node3&#45;&gt;Node6 -->
<g id="edge5" class="edge"><title>Node3&#45;&gt;Node6</title>
<path fill="none" stroke="midnightblue" d="M429.733,-109.457C451.45,-104.384 477.99,-98.1857 500.934,-92.8269"/>
<polygon fill="midnightblue" stroke="midnightblue" points="501.915,-96.1922 510.856,-90.5094 500.322,-89.3756 501.915,-96.1922"/>
</g>
<!-- Node7 -->
<g id="node7" class="node"><title>Node7</title>
<g id="a_node7"><a xlink:href="classpanda_1_1utils_1_1BranchName.html#a6cc8a6df7c5b12a0221fd49773cca6a7" target="_top" xlink:title="Is the name included and not vetoed? ">
<polygon fill="white" stroke="black" points="658.73,-141.5 658.73,-161.5 803.094,-161.5 803.094,-141.5 658.73,-141.5"/>
<text text-anchor="middle" x="730.912" y="-148.5" font-family="Helvetica,sans-Serif" font-size="10.00">panda::utils::BranchName::in</text>
</a>
</g>
</g>
<!-- Node6&#45;&gt;Node7 -->
<g id="edge6" class="edge"><title>Node6&#45;&gt;Node7</title>
<path fill="none" stroke="midnightblue" d="M601.868,-90.6052C609.07,-93.0189 616.261,-95.9539 622.73,-99.5 641.502,-109.79 639.946,-121.232 658.73,-131.5 663.191,-133.939 667.976,-136.102 672.878,-138.016"/>
<polygon fill="midnightblue" stroke="midnightblue" points="671.798,-141.347 682.393,-141.397 674.142,-134.751 671.798,-141.347"/>
</g>
<!-- Node8 -->
<g id="node8" class="node"><title>Node8</title>
<g id="a_node8"><a xlink:href="classpanda_1_1utils_1_1BranchName.html#ae3332329bf2afae5ed8e7c35e5d77ffa" target="_top" xlink:title="Is the name included and vetoed? ">
<polygon fill="white" stroke="black" points="665.398,-90.5 665.398,-122.5 796.426,-122.5 796.426,-90.5 665.398,-90.5"/>
<text text-anchor="start" x="673.398" y="-109.5" font-family="Helvetica,sans-Serif" font-size="10.00">panda::utils::BranchName</text>
<text text-anchor="middle" x="730.912" y="-97.5" font-family="Helvetica,sans-Serif" font-size="10.00">::vetoed</text>
</a>
</g>
</g>
<!-- Node6&#45;&gt;Node8 -->
<g id="edge7" class="edge"><title>Node6&#45;&gt;Node8</title>
<path fill="none" stroke="midnightblue" d="M612.27,-88.9415C625.86,-90.9699 640.586,-93.1678 654.871,-95.2999"/>
<polygon fill="midnightblue" stroke="midnightblue" points="654.765,-98.8227 665.172,-96.8373 655.799,-91.8994 654.765,-98.8227"/>
</g>
<!-- Node9 -->
<g id="node9" class="node"><title>Node9</title>
<g id="a_node9"><a xlink:href="classpanda_1_1utils_1_1BranchName.html#a13958ff4a9d554d2c057c600b4f70412" target="_top" xlink:title="Prepend the branch name with &lt;objName.&gt;. ">
<polygon fill="white" stroke="black" points="665.398,-39.5 665.398,-71.5 796.426,-71.5 796.426,-39.5 665.398,-39.5"/>
<text text-anchor="start" x="673.398" y="-58.5" font-family="Helvetica,sans-Serif" font-size="10.00">panda::utils::BranchName</text>
<text text-anchor="middle" x="730.912" y="-46.5" font-family="Helvetica,sans-Serif" font-size="10.00">::fullName</text>
</a>
</g>
</g>
<!-- Node6&#45;&gt;Node9 -->
<g id="edge8" class="edge"><title>Node6&#45;&gt;Node9</title>
<path fill="none" stroke="midnightblue" d="M612.27,-72.3832C625.86,-70.4328 640.586,-68.3194 654.871,-66.2694"/>
<polygon fill="midnightblue" stroke="midnightblue" points="655.771,-69.6762 665.172,-64.791 654.776,-62.7472 655.771,-69.6762"/>
</g>
<!-- Node10 -->
<g id="node10" class="node"><title>Node10</title>
<g id="a_node10"><a xlink:href="namespacepanda_1_1utils.html#aafa411773a4b0ee829d99e6e5a0abdcd" target="_top" xlink:title="Check status of a branch. ">
<polygon fill="white" stroke="black" points="667.337,-0.5 667.337,-20.5 794.487,-20.5 794.487,-0.5 667.337,-0.5"/>
<text text-anchor="middle" x="730.912" y="-7.5" font-family="Helvetica,sans-Serif" font-size="10.00">panda::utils::checkStatus</text>
</a>
</g>
</g>
<!-- Node6&#45;&gt;Node10 -->
<g id="edge9" class="edge"><title>Node6&#45;&gt;Node10</title>
<path fill="none" stroke="midnightblue" d="M573.463,-70.3521C593.616,-59.1554 627.729,-41.1784 658.73,-29.5 664.543,-27.3103 670.712,-25.2677 676.892,-23.3951"/>
<polygon fill="midnightblue" stroke="midnightblue" points="677.932,-26.7378 686.565,-20.5957 675.986,-20.0137 677.932,-26.7378"/>
</g>
</g>
</svg>
