<?xml version="1.0" encoding="UTF-8" standalone="no"?>
<!DOCTYPE svg PUBLIC "-//W3C//DTD SVG 1.1//EN"
 "http://www.w3.org/Graphics/SVG/1.1/DTD/svg11.dtd">
<!-- Generated by graphviz version 2.38.0 (20140413.2041)
 -->
<!-- Title: panda::Particle::book Pages: 1 -->
<svg width="689pt" height="314pt"
 viewBox="0.00 0.00 688.83 314.00" xmlns="http://www.w3.org/2000/svg" xmlns:xlink="http://www.w3.org/1999/xlink">
<g id="graph0" class="graph" transform="scale(1 1) rotate(0) translate(4 310)">
<title>panda::Particle::book</title>
<polygon fill="white" stroke="none" points="-4,4 -4,-310 684.832,-310 684.832,4 -4,4"/>
<!-- Node1 -->
<g id="node1" class="node"><title>Node1</title>
<polygon fill="#bfbfbf" stroke="black" points="2.84217e-14,-117.5 2.84217e-14,-137.5 109.921,-137.5 109.921,-117.5 2.84217e-14,-117.5"/>
<text text-anchor="middle" x="54.9605" y="-124.5" font-family="Helvetica,sans-Serif" font-size="10.00">panda::Particle::book</text>
</g>
<!-- Node2 -->
<g id="node2" class="node"><title>Node2</title>
<g id="a_node2"><a xlink:href="classpanda_1_1Lepton.html#a4be584d13f41f6c922d6fe58056ec25d" target="_top" xlink:title="Book new branches to the tree corresponding to the variables of this object. ">
<polygon fill="white" stroke="black" points="151.465,-246.5 151.465,-266.5 258.627,-266.5 258.627,-246.5 151.465,-246.5"/>
<text text-anchor="middle" x="205.046" y="-253.5" font-family="Helvetica,sans-Serif" font-size="10.00">panda::Lepton::book</text>
</a>
</g>
</g>
<!-- Node1&#45;&gt;Node2 -->
<g id="edge1" class="edge"><title>Node1&#45;&gt;Node2</title>
<path fill="none" stroke="midnightblue" d="M75.1927,-144.253C106.398,-171.437 167.119,-224.332 192.48,-246.425"/>
<polygon fill="midnightblue" stroke="midnightblue" points="77.4198,-141.552 67.5805,-137.622 72.8218,-146.83 77.4198,-141.552"/>
</g>
<!-- Node5 -->
<g id="node5" class="node"><title>Node5</title>
<g id="a_node5"><a xlink:href="classpanda_1_1ParticleM.html#acb4f53549465b6799cc02899a1a579eb" target="_top" xlink:title="Book new branches to the tree corresponding to the variables of this object. ">
<polygon fill="white" stroke="black" points="145.921,-117.5 145.921,-137.5 264.171,-137.5 264.171,-117.5 145.921,-117.5"/>
<text text-anchor="middle" x="205.046" y="-124.5" font-family="Helvetica,sans-Serif" font-size="10.00">panda::ParticleM::book</text>
</a>
</g>
</g>
<!-- Node1&#45;&gt;Node5 -->
<g id="edge4" class="edge"><title>Node1&#45;&gt;Node5</title>
<path fill="none" stroke="midnightblue" d="M120.426,-127.5C128.853,-127.5 137.448,-127.5 145.764,-127.5"/>
<polygon fill="midnightblue" stroke="midnightblue" points="120.261,-124 110.261,-127.5 120.261,-131 120.261,-124"/>
</g>
<!-- Node14 -->
<g id="node14" class="node"><title>Node14</title>
<g id="a_node14"><a xlink:href="classpanda_1_1Photon.html#af824c1f835d0c088bf82614984ab34ee" target="_top" xlink:title="Book new branches to the tree corresponding to the variables of this object. ">
<polygon fill="white" stroke="black" points="150.91,-78.5 150.91,-98.5 259.182,-98.5 259.182,-78.5 150.91,-78.5"/>
<text text-anchor="middle" x="205.046" y="-85.5" font-family="Helvetica,sans-Serif" font-size="10.00">panda::Photon::book</text>
</a>
</g>
</g>
<!-- Node1&#45;&gt;Node14 -->
<g id="edge13" class="edge"><title>Node1&#45;&gt;Node14</title>
<path fill="none" stroke="midnightblue" d="M104.002,-114.848C124.108,-109.553 147.144,-103.486 166.04,-98.5094"/>
<polygon fill="midnightblue" stroke="midnightblue" points="102.875,-111.525 94.0962,-117.457 104.658,-118.294 102.875,-111.525"/>
</g>
<!-- Node3 -->
<g id="node3" class="node"><title>Node3</title>
<g id="a_node3"><a xlink:href="classpanda_1_1Electron.html#a77a28ebcf6778febcd82ae81cbf7d74c" target="_top" xlink:title="Book new branches to the tree corresponding to the variables of this object. ">
<polygon fill="white" stroke="black" points="300.722,-285.5 300.722,-305.5 413.983,-305.5 413.983,-285.5 300.722,-285.5"/>
<text text-anchor="middle" x="357.352" y="-292.5" font-family="Helvetica,sans-Serif" font-size="10.00">panda::Electron::book</text>
</a>
</g>
</g>
<!-- Node2&#45;&gt;Node3 -->
<g id="edge2" class="edge"><title>Node2&#45;&gt;Node3</title>
<path fill="none" stroke="midnightblue" d="M254.528,-269.08C275.002,-274.392 298.509,-280.492 317.776,-285.491"/>
<polygon fill="midnightblue" stroke="midnightblue" points="255.312,-265.667 244.754,-266.543 253.554,-272.443 255.312,-265.667"/>
</g>
<!-- Node4 -->
<g id="node4" class="node"><title>Node4</title>
<g id="a_node4"><a xlink:href="classpanda_1_1Muon.html#a24dbbfcffa726e1594dcccd1db34fe5f" target="_top" xlink:title="Book new branches to the tree corresponding to the variables of this object. ">
<polygon fill="white" stroke="black" points="306.555,-246.5 306.555,-266.5 408.149,-266.5 408.149,-246.5 306.555,-246.5"/>
<text text-anchor="middle" x="357.352" y="-253.5" font-family="Helvetica,sans-Serif" font-size="10.00">panda::Muon::book</text>
</a>
</g>
</g>
<!-- Node2&#45;&gt;Node4 -->
<g id="edge3" class="edge"><title>Node2&#45;&gt;Node4</title>
<path fill="none" stroke="midnightblue" d="M269.298,-256.5C281.672,-256.5 294.487,-256.5 306.356,-256.5"/>
<polygon fill="midnightblue" stroke="midnightblue" points="269.038,-253 259.038,-256.5 269.038,-260 269.038,-253"/>
</g>
<!-- Node6 -->
<g id="node6" class="node"><title>Node6</title>
<g id="a_node6"><a xlink:href="classpanda_1_1GenJet.html#a0ca47c595bf1dce791d3c06c75f3fbaf" target="_top" xlink:title="Book new branches to the tree corresponding to the variables of this object. ">
<polygon fill="white" stroke="black" points="302.941,-207.5 302.941,-227.5 411.764,-227.5 411.764,-207.5 302.941,-207.5"/>
<text text-anchor="middle" x="357.352" y="-214.5" font-family="Helvetica,sans-Serif" font-size="10.00">panda::GenJet::book</text>
</a>
</g>
</g>
<!-- Node5&#45;&gt;Node6 -->
<g id="edge5" class="edge"><title>Node5&#45;&gt;Node6</title>
<path fill="none" stroke="midnightblue" d="M224.355,-144.156C242.489,-159.936 271.609,-183.405 300.171,-198.5 306.634,-201.916 313.834,-204.898 320.864,-207.425"/>
<polygon fill="midnightblue" stroke="midnightblue" points="226.646,-141.51 216.837,-137.504 222.007,-146.752 226.646,-141.51"/>
</g>
<!-- Node7 -->
<g id="node7" class="node"><title>Node7</title>
<g id="a_node7"><a xlink:href="classpanda_1_1GenParticle.html#a748bcf33806985c71d40c09e564e46ba" target="_top" xlink:title="Book new branches to the tree corresponding to the variables of this object. ">
<polygon fill="white" stroke="black" points="306.561,-156.5 306.561,-188.5 408.144,-188.5 408.144,-156.5 306.561,-156.5"/>
<text text-anchor="start" x="314.561" y="-175.5" font-family="Helvetica,sans-Serif" font-size="10.00">panda::GenParticle</text>
<text text-anchor="middle" x="357.352" y="-163.5" font-family="Helvetica,sans-Serif" font-size="10.00">::book</text>
</a>
</g>
</g>
<!-- Node5&#45;&gt;Node7 -->
<g id="edge6" class="edge"><title>Node5&#45;&gt;Node7</title>
<path fill="none" stroke="midnightblue" d="M249.853,-140.615C267.587,-145.925 288.159,-152.084 306.466,-157.565"/>
<polygon fill="midnightblue" stroke="midnightblue" points="250.361,-137.114 239.778,-137.599 248.354,-143.82 250.361,-137.114"/>
</g>
<!-- Node8 -->
<g id="node8" class="node"><title>Node8</title>
<g id="a_node8"><a xlink:href="classpanda_1_1MicroJet.html#a6d1f2d8a49162e3abdebd7647df6131e" target="_top" xlink:title="Book new branches to the tree corresponding to the variables of this object. ">
<polygon fill="white" stroke="black" points="300.171,-117.5 300.171,-137.5 414.533,-137.5 414.533,-117.5 300.171,-117.5"/>
<text text-anchor="middle" x="357.352" y="-124.5" font-family="Helvetica,sans-Serif" font-size="10.00">panda::MicroJet::book</text>
</a>
</g>
</g>
<!-- Node5&#45;&gt;Node8 -->
<g id="edge7" class="edge"><title>Node5&#45;&gt;Node8</title>
<path fill="none" stroke="midnightblue" d="M274.706,-127.5C283.067,-127.5 291.536,-127.5 299.695,-127.5"/>
<polygon fill="midnightblue" stroke="midnightblue" points="274.589,-124 264.589,-127.5 274.589,-131 274.589,-124"/>
</g>
<!-- Node11 -->
<g id="node11" class="node"><title>Node11</title>
<g id="a_node11"><a xlink:href="classpanda_1_1Parton.html#aaffc6b5ba36cc920e48cc00cac8eb65e" target="_top" xlink:title="Book new branches to the tree corresponding to the variables of this object. ">
<polygon fill="white" stroke="black" points="304.331,-78.5 304.331,-98.5 410.373,-98.5 410.373,-78.5 304.331,-78.5"/>
<text text-anchor="middle" x="357.352" y="-85.5" font-family="Helvetica,sans-Serif" font-size="10.00">panda::Parton::book</text>
</a>
</g>
</g>
<!-- Node5&#45;&gt;Node11 -->
<g id="edge10" class="edge"><title>Node5&#45;&gt;Node11</title>
<path fill="none" stroke="midnightblue" d="M254.528,-114.92C275.002,-109.608 298.509,-103.508 317.776,-98.5094"/>
<polygon fill="midnightblue" stroke="midnightblue" points="253.554,-111.557 244.754,-117.457 255.312,-118.333 253.554,-111.557"/>
</g>
<!-- Node12 -->
<g id="node12" class="node"><title>Node12</title>
<g id="a_node12"><a xlink:href="classpanda_1_1PFCand.html#ae77bd179a738d0e61895dc5e5182a45f" target="_top" xlink:title="Book new branches to the tree corresponding to the variables of this object. ">
<polygon fill="white" stroke="black" points="300.721,-39.5 300.721,-59.5 413.983,-59.5 413.983,-39.5 300.721,-39.5"/>
<text text-anchor="middle" x="357.352" y="-46.5" font-family="Helvetica,sans-Serif" font-size="10.00">panda::PFCand::book</text>
</a>
</g>
</g>
<!-- Node5&#45;&gt;Node12 -->
<g id="edge11" class="edge"><title>Node5&#45;&gt;Node12</title>
<path fill="none" stroke="midnightblue" d="M255.402,-113.388C258.45,-111.904 261.401,-110.278 264.171,-108.5 284.022,-95.7576 280.487,-82.5001 300.171,-69.5 306.218,-65.506 313.159,-62.2008 320.053,-59.5064"/>
<polygon fill="midnightblue" stroke="midnightblue" points="253.842,-110.249 246.051,-117.429 256.619,-116.675 253.842,-110.249"/>
</g>
<!-- Node13 -->
<g id="node13" class="node"><title>Node13</title>
<g id="a_node13"><a xlink:href="classpanda_1_1Tau.html#a4f31bfd77bced4bc2935e1cb2ddce5e7" target="_top" xlink:title="Book new branches to the tree corresponding to the variables of this object. ">
<polygon fill="white" stroke="black" points="310.445,-0.5 310.445,-20.5 404.26,-20.5 404.26,-0.5 310.445,-0.5"/>
<text text-anchor="middle" x="357.352" y="-7.5" font-family="Helvetica,sans-Serif" font-size="10.00">panda::Tau::book</text>
</a>
</g>
</g>
<!-- Node5&#45;&gt;Node13 -->
<g id="edge12" class="edge"><title>Node5&#45;&gt;Node13</title>
<path fill="none" stroke="midnightblue" d="M259.35,-112.269C261.04,-111.104 262.654,-109.85 264.171,-108.5 292.695,-83.1192 271.981,-56.2504 300.171,-30.5 304.605,-26.4501 309.913,-23.2087 315.472,-20.6173"/>
<polygon fill="midnightblue" stroke="midnightblue" points="257.337,-109.388 250.388,-117.386 260.808,-115.467 257.337,-109.388"/>
</g>
<!-- Node9 -->
<g id="node9" class="node"><title>Node9</title>
<g id="a_node9"><a xlink:href="classpanda_1_1Jet.html#af047a1a3e21716a28f9a1deaa9d43123" target="_top" xlink:title="Book new branches to the tree corresponding to the variables of this object. ">
<polygon fill="white" stroke="black" points="450.533,-117.5 450.533,-137.5 540.459,-137.5 540.459,-117.5 450.533,-117.5"/>
<text text-anchor="middle" x="495.496" y="-124.5" font-family="Helvetica,sans-Serif" font-size="10.00">panda::Jet::book</text>
</a>
</g>
</g>
<!-- Node8&#45;&gt;Node9 -->
<g id="edge8" class="edge"><title>Node8&#45;&gt;Node9</title>
<path fill="none" stroke="midnightblue" d="M424.973,-127.5C433.588,-127.5 442.235,-127.5 450.36,-127.5"/>
<polygon fill="midnightblue" stroke="midnightblue" points="424.907,-124 414.907,-127.5 424.907,-131 424.907,-124"/>
</g>
<!-- Node10 -->
<g id="node10" class="node"><title>Node10</title>
<g id="a_node10"><a xlink:href="classpanda_1_1FatJet.html#a733475668d0bd2a7dd5030909e87305c" target="_top" xlink:title="Book new branches to the tree corresponding to the variables of this object. ">
<polygon fill="white" stroke="black" points="576.459,-117.5 576.459,-137.5 680.832,-137.5 680.832,-117.5 576.459,-117.5"/>
<text text-anchor="middle" x="628.645" y="-124.5" font-family="Helvetica,sans-Serif" font-size="10.00">panda::FatJet::book</text>
</a>
</g>
</g>
<!-- Node9&#45;&gt;Node10 -->
<g id="edge9" class="edge"><title>Node9&#45;&gt;Node10</title>
<path fill="none" stroke="midnightblue" d="M550.678,-127.5C559.134,-127.5 567.851,-127.5 576.243,-127.5"/>
<polygon fill="midnightblue" stroke="midnightblue" points="550.532,-124 540.532,-127.5 550.532,-131 550.532,-124"/>
</g>
</g>
</svg>
