<?xml version="1.0" encoding="UTF-8" standalone="no"?>
<!DOCTYPE svg PUBLIC "-//W3C//DTD SVG 1.1//EN"
 "http://www.w3.org/Graphics/SVG/1.1/DTD/svg11.dtd">
<!-- Generated by graphviz version 2.38.0 (20140413.2041)
 -->
<!-- Title: panda::Particle Pages: 1 -->
<svg width="137pt" height="143pt"
 viewBox="0.00 0.00 137.37 143.00" xmlns="http://www.w3.org/2000/svg" xmlns:xlink="http://www.w3.org/1999/xlink">
<g id="graph0" class="graph" transform="scale(1 1) rotate(0) translate(4 139)">
<title>panda::Particle</title>
<polygon fill="white" stroke="none" points="-4,4 -4,-139 133.367,-139 133.367,4 -4,4"/>
<!-- Node1 -->
<g id="node1" class="node"><title>Node1</title>
<polygon fill="#bfbfbf" stroke="black" points="23.3405,-0.5 23.3405,-20.5 106.026,-20.5 106.026,-0.5 23.3405,-0.5"/>
<text text-anchor="middle" x="64.6835" y="-7.5" font-family="Helvetica,sans-Serif" font-size="10.00">panda::Particle</text>
</g>
<!-- Node2 -->
<g id="node2" class="node"><title>Node2</title>
<g id="a_node2"><a xlink:href="classpanda_1_1ContainerElement.html" target="_top" xlink:title="panda::ContainerElement">
<polygon fill="white" stroke="black" points="0,-57.5 0,-77.5 129.367,-77.5 129.367,-57.5 0,-57.5"/>
<text text-anchor="middle" x="64.6835" y="-64.5" font-family="Helvetica,sans-Serif" font-size="10.00">panda::ContainerElement</text>
</a>
</g>
</g>
<!-- Node2&#45;&gt;Node1 -->
<g id="edge1" class="edge"><title>Node2&#45;&gt;Node1</title>
<path fill="none" stroke="midnightblue" d="M64.6835,-47.383C64.6835,-38.3738 64.6835,-28.0373 64.6835,-20.7795"/>
<polygon fill="midnightblue" stroke="midnightblue" points="61.1836,-47.4178 64.6835,-57.4179 68.1836,-47.4179 61.1836,-47.4178"/>
</g>
<!-- Node3 -->
<g id="node3" class="node"><title>Node3</title>
<g id="a_node3"><a xlink:href="classpanda_1_1Object.html" target="_top" xlink:title="panda::Object">
<polygon fill="white" stroke="black" points="25.5595,-114.5 25.5595,-134.5 103.807,-134.5 103.807,-114.5 25.5595,-114.5"/>
<text text-anchor="middle" x="64.6835" y="-121.5" font-family="Helvetica,sans-Serif" font-size="10.00">panda::Object</text>
</a>
</g>
</g>
<!-- Node3&#45;&gt;Node2 -->
<g id="edge2" class="edge"><title>Node3&#45;&gt;Node2</title>
<path fill="none" stroke="midnightblue" d="M64.6835,-104.383C64.6835,-95.3738 64.6835,-85.0373 64.6835,-77.7795"/>
<polygon fill="midnightblue" stroke="midnightblue" points="61.1836,-104.418 64.6835,-114.418 68.1836,-104.418 61.1836,-104.418"/>
</g>
</g>
</svg>
