<?xml version="1.0" encoding="UTF-8" standalone="no"?>
<!DOCTYPE svg PUBLIC "-//W3C//DTD SVG 1.1//EN"
 "http://www.w3.org/Graphics/SVG/1.1/DTD/svg11.dtd">
<!-- Generated by graphviz version 2.38.0 (20140413.2041)
 -->
<!-- Title: panda::Muon::releaseTree Pages: 1 -->
<svg width="834pt" height="125pt"
 viewBox="0.00 0.00 833.84 125.00" xmlns="http://www.w3.org/2000/svg" xmlns:xlink="http://www.w3.org/1999/xlink">
<g id="graph0" class="graph" transform="scale(1 1) rotate(0) translate(4 121)">
<title>panda::Muon::releaseTree</title>
<polygon fill="white" stroke="none" points="-4,4 -4,-121 829.84,-121 829.84,4 -4,4"/>
<!-- Node1 -->
<g id="node1" class="node"><title>Node1</title>
<polygon fill="#bfbfbf" stroke="black" points="4.26326e-14,-45.5 4.26326e-14,-65.5 133.257,-65.5 133.257,-45.5 4.26326e-14,-45.5"/>
<text text-anchor="middle" x="66.6285" y="-52.5" font-family="Helvetica,sans-Serif" font-size="10.00">panda::Muon::releaseTree</text>
</g>
<!-- Node2 -->
<g id="node2" class="node"><title>Node2</title>
<g id="a_node2"><a xlink:href="classpanda_1_1Lepton.html#a6c7aa6fc6916d294290b96cfa5ee5585" target="_top" xlink:title="Reset the branch pointer to unlink the branch from this object. ">
<polygon fill="white" stroke="black" points="169.257,-45.5 169.257,-65.5 308.082,-65.5 308.082,-45.5 169.257,-45.5"/>
<text text-anchor="middle" x="238.669" y="-52.5" font-family="Helvetica,sans-Serif" font-size="10.00">panda::Lepton::releaseTree</text>
</a>
</g>
</g>
<!-- Node1&#45;&gt;Node2 -->
<g id="edge1" class="edge"><title>Node1&#45;&gt;Node2</title>
<path fill="none" stroke="midnightblue" d="M133.371,-55.5C141.767,-55.5 150.428,-55.5 159.003,-55.5"/>
<polygon fill="midnightblue" stroke="midnightblue" points="159.008,-59.0001 169.008,-55.5 159.008,-52.0001 159.008,-59.0001"/>
</g>
<!-- Node5 -->
<g id="node5" class="node"><title>Node5</title>
<g id="a_node5"><a xlink:href="classpanda_1_1utils_1_1StoreManager.html#a6f30ec459d951e84a1196b7e2ffdcf49" target="_top" xlink:title="panda::utils::StoreManager\l::getName">
<polygon fill="white" stroke="black" points="522.222,-84.5 522.222,-116.5 658.256,-116.5 658.256,-84.5 522.222,-84.5"/>
<text text-anchor="start" x="530.222" y="-103.5" font-family="Helvetica,sans-Serif" font-size="10.00">panda::utils::StoreManager</text>
<text text-anchor="middle" x="590.239" y="-91.5" font-family="Helvetica,sans-Serif" font-size="10.00">::getName</text>
</a>
</g>
</g>
<!-- Node1&#45;&gt;Node5 -->
<g id="edge9" class="edge"><title>Node1&#45;&gt;Node5</title>
<path fill="none" stroke="midnightblue" d="M118.195,-65.5105C134.466,-68.5822 152.594,-71.8483 169.257,-74.5 246.653,-86.8166 265.913,-91.8996 344.082,-97.5 400.168,-101.518 463.652,-102.188 511.964,-101.896"/>
<polygon fill="midnightblue" stroke="midnightblue" points="512.062,-105.395 522.035,-101.819 512.008,-98.3954 512.062,-105.395"/>
</g>
<!-- Node6 -->
<g id="node6" class="node"><title>Node6</title>
<g id="a_node6"><a xlink:href="namespacepanda_1_1utils.html#a82a8530e64fbdf917cf9b8659065f98b" target="_top" xlink:title="panda::utils::resetAddress">
<polygon fill="white" stroke="black" points="524.445,-6.5 524.445,-26.5 656.033,-26.5 656.033,-6.5 524.445,-6.5"/>
<text text-anchor="middle" x="590.239" y="-13.5" font-family="Helvetica,sans-Serif" font-size="10.00">panda::utils::resetAddress</text>
</a>
</g>
</g>
<!-- Node1&#45;&gt;Node6 -->
<g id="edge10" class="edge"><title>Node1&#45;&gt;Node6</title>
<path fill="none" stroke="midnightblue" d="M113.503,-45.4876C130.9,-41.9502 150.931,-38.1877 169.257,-35.5 246.497,-24.1718 266.123,-22.6002 344.082,-18.5 401.125,-15.4998 465.735,-15.0956 514.301,-15.3901"/>
<polygon fill="midnightblue" stroke="midnightblue" points="514.388,-18.8907 524.412,-15.4628 514.438,-11.8909 514.388,-18.8907"/>
</g>
<!-- Node3 -->
<g id="node3" class="node"><title>Node3</title>
<g id="a_node3"><a xlink:href="classpanda_1_1Particle.html#a8fb6fa0b4316967da573181262727142" target="_top" xlink:title="Reset the branch pointer to unlink the branch from this object. ">
<polygon fill="white" stroke="black" points="344.082,-45.5 344.082,-65.5 485.666,-65.5 485.666,-45.5 344.082,-45.5"/>
<text text-anchor="middle" x="414.874" y="-52.5" font-family="Helvetica,sans-Serif" font-size="10.00">panda::Particle::releaseTree</text>
</a>
</g>
</g>
<!-- Node2&#45;&gt;Node3 -->
<g id="edge2" class="edge"><title>Node2&#45;&gt;Node3</title>
<path fill="none" stroke="midnightblue" d="M308.52,-55.5C316.769,-55.5 325.246,-55.5 333.638,-55.5"/>
<polygon fill="midnightblue" stroke="midnightblue" points="333.811,-59.0001 343.811,-55.5 333.811,-52.0001 333.811,-59.0001"/>
</g>
<!-- Node2&#45;&gt;Node5 -->
<g id="edge7" class="edge"><title>Node2&#45;&gt;Node5</title>
<path fill="none" stroke="midnightblue" d="M290.528,-65.5378C307.514,-68.6809 326.574,-71.9822 344.082,-74.5 400.146,-82.5626 463.76,-89.2373 512.135,-93.8046"/>
<polygon fill="midnightblue" stroke="midnightblue" points="511.936,-97.3011 522.218,-94.7469 512.588,-90.3315 511.936,-97.3011"/>
</g>
<!-- Node2&#45;&gt;Node6 -->
<g id="edge8" class="edge"><title>Node2&#45;&gt;Node6</title>
<path fill="none" stroke="midnightblue" d="M286.007,-45.4703C304.058,-41.8666 324.966,-38.0634 344.082,-35.5 400.865,-27.8856 465.487,-23.0331 514.124,-20.1392"/>
<polygon fill="midnightblue" stroke="midnightblue" points="514.472,-23.6251 524.252,-19.5512 514.066,-16.6368 514.472,-23.6251"/>
</g>
<!-- Node4 -->
<g id="node4" class="node"><title>Node4</title>
<g id="a_node4"><a xlink:href="classpanda_1_1Object.html#aaf58438092b42a89b838ce12c6a23833" target="_top" xlink:title="Reset the branch pointer to unlink the branch from this object. ">
<polygon fill="white" stroke="black" points="521.666,-45.5 521.666,-65.5 658.812,-65.5 658.812,-45.5 521.666,-45.5"/>
<text text-anchor="middle" x="590.239" y="-52.5" font-family="Helvetica,sans-Serif" font-size="10.00">panda::Object::releaseTree</text>
</a>
</g>
</g>
<!-- Node3&#45;&gt;Node4 -->
<g id="edge3" class="edge"><title>Node3&#45;&gt;Node4</title>
<path fill="none" stroke="midnightblue" d="M485.888,-55.5C494.24,-55.5 502.806,-55.5 511.26,-55.5"/>
<polygon fill="midnightblue" stroke="midnightblue" points="511.495,-59.0001 521.495,-55.5 511.495,-52.0001 511.495,-59.0001"/>
</g>
<!-- Node3&#45;&gt;Node5 -->
<g id="edge4" class="edge"><title>Node3&#45;&gt;Node5</title>
<path fill="none" stroke="midnightblue" d="M454.78,-65.5989C473.307,-70.4078 496.068,-76.3158 517.56,-81.8944"/>
<polygon fill="midnightblue" stroke="midnightblue" points="516.767,-85.3044 527.325,-84.4292 518.525,-78.5289 516.767,-85.3044"/>
</g>
<!-- Node3&#45;&gt;Node6 -->
<g id="edge5" class="edge"><title>Node3&#45;&gt;Node6</title>
<path fill="none" stroke="midnightblue" d="M460.52,-45.4565C483.168,-40.3615 510.869,-34.1301 534.763,-28.7549"/>
<polygon fill="midnightblue" stroke="midnightblue" points="535.756,-32.1189 544.744,-26.5094 534.22,-25.2896 535.756,-32.1189"/>
</g>
<!-- Node7 -->
<g id="node7" class="node"><title>Node7</title>
<g id="a_node7"><a xlink:href="classpanda_1_1utils_1_1BranchName.html#a13958ff4a9d554d2c057c600b4f70412" target="_top" xlink:title="Prepend the branch name with &lt;objName.&gt;. ">
<polygon fill="white" stroke="black" points="694.812,-0.5 694.812,-32.5 825.84,-32.5 825.84,-0.5 694.812,-0.5"/>
<text text-anchor="start" x="702.812" y="-19.5" font-family="Helvetica,sans-Serif" font-size="10.00">panda::utils::BranchName</text>
<text text-anchor="middle" x="760.326" y="-7.5" font-family="Helvetica,sans-Serif" font-size="10.00">::fullName</text>
</a>
</g>
</g>
<!-- Node6&#45;&gt;Node7 -->
<g id="edge6" class="edge"><title>Node6&#45;&gt;Node7</title>
<path fill="none" stroke="midnightblue" d="M656.226,-16.5C665.52,-16.5 675.143,-16.5 684.606,-16.5"/>
<polygon fill="midnightblue" stroke="midnightblue" points="684.789,-20.0001 694.789,-16.5 684.789,-13.0001 684.789,-20.0001"/>
</g>
</g>
</svg>
