<?xml version="1.0" encoding="UTF-8" standalone="no"?>
<!DOCTYPE svg PUBLIC "-//W3C//DTD SVG 1.1//EN"
 "http://www.w3.org/Graphics/SVG/1.1/DTD/svg11.dtd">
<!-- Generated by graphviz version 2.38.0 (20140413.2041)
 -->
<!-- Title: panda.refvbranch.RefVectorBranch.write_copy_ctor Pages: 1 -->
<!--zoomable 324 -->
<svg id="main" version="1.1" xmlns="http://www.w3.org/2000/svg" xmlns:xlink="http://www.w3.org/1999/xlink" xml:space="preserve" onload="init(evt)">
<style type="text/css"><![CDATA[
.edge:hover path { stroke: red; }
.edge:hover polygon { stroke: red; fill: red; }
]]></style>
<script type="text/javascript"><![CDATA[
var edges = document.getElementsByTagName('g');
if (edges && edges.length) {
  for (var i=0;i<edges.length;i++) {
    if (edges[i].id.substr(0,4)=='edge') {
      edges[i].setAttribute('class','edge');
    }
  }
}
]]></script>
        <defs>
                <circle id="rim" cx="0" cy="0" r="7"/>
                <circle id="rim2" cx="0" cy="0" r="3.5"/>
                <g id="zoomPlus">
                        <use xlink:href="#rim" fill="#404040">
                                <set attributeName="fill" to="#808080" begin="zoomplus.mouseover" end="zoomplus.mouseout"/>
                        </use>
                        <path d="M-4,0h8M0,-4v8" fill="none" stroke="white" stroke-width="1.5" pointer-events="none"/>
                </g>
                <g id="zoomMin">
                        <use xlink:href="#rim" fill="#404040">
                                <set attributeName="fill" to="#808080" begin="zoomminus.mouseover" end="zoomminus.mouseout"/>
                        </use>
                        <path d="M-4,0h8" fill="none" stroke="white" stroke-width="1.5" pointer-events="none"/>
                </g>
                <g id="dirArrow">
                        <path fill="none" stroke="white" stroke-width="1.5" d="M0,-3.0v7 M-2.5,-0.5L0,-3.0L2.5,-0.5"/>
                </g>
               <g id="resetDef">
                       <use xlink:href="#rim2" fill="#404040">
                               <set attributeName="fill" to="#808080" begin="reset.mouseover" end="reset.mouseout"/>
                       </use>
               </g>
        </defs>

<script type="text/javascript">
var viewWidth = 552;
var viewHeight = 324;
var sectionId = 'dynsection-7';
</script>
<script xlink:href="svgpan.js"/>
<svg id="graph" class="graph">
<g id="viewport">
<title>panda.refvbranch.RefVectorBranch.write_copy_ctor</title>
<polygon fill="white" stroke="none" points="-4,4 -4,-319.757 548.012,-319.757 548.012,4 -4,4"/>
<!-- Node1 -->
<g id="node1" class="node"><title>Node1</title>
<polygon fill="#bfbfbf" stroke="black" points="-4.26326e-14,-153.5 -4.26326e-14,-185.5 141.037,-185.5 141.037,-153.5 -4.26326e-14,-153.5"/>
<text text-anchor="start" x="8" y="-172.5" font-family="Helvetica,sans-Serif" font-size="10.00">panda.refvbranch.RefVector</text>
<text text-anchor="middle" x="70.5185" y="-160.5" font-family="Helvetica,sans-Serif" font-size="10.00">Branch.write_copy_ctor</text>
</g>
<!-- Node2 -->
<g id="node2" class="node"><title>Node2</title>
<g id="a_node2"><a xlink:href="classpanda_1_1branch_1_1Branch.html#a9ff4186314d76f2444161163bd992495" target="_top" xlink:title="panda.branch.Branch.is\l_array">
<polygon fill="white" stroke="black" points="404.079,-249.5 404.079,-281.5 525.67,-281.5 525.67,-249.5 404.079,-249.5"/>
<text text-anchor="start" x="412.079" y="-268.5" font-family="Helvetica,sans-Serif" font-size="10.00">panda.branch.Branch.is</text>
<text text-anchor="middle" x="464.874" y="-256.5" font-family="Helvetica,sans-Serif" font-size="10.00">_array</text>
</a>
</g>
</g>
<!-- Node1&#45;&gt;Node2 -->
<g id="edge1" class="edge"><title>Node1&#45;&gt;Node2</title>
<path fill="none" stroke="midnightblue" d="M78.8496,-185.527C93.0349,-214.333 127.285,-274.036 177.037,-297.5 255.384,-334.45 358.721,-306.903 417.569,-285.118"/>
<polygon fill="midnightblue" stroke="midnightblue" points="418.867,-288.369 426.972,-281.545 416.38,-281.825 418.867,-288.369"/>
</g>
<!-- Node3 -->
<g id="node3" class="node"><title>Node3</title>
<g id="a_node3"><a xlink:href="classpanda_1_1refbranch_1_1RefBranch.html#af085c46785f6a261e239dc4613fb48ba" target="_top" xlink:title="panda.refbranch.RefBranch.\l_write_ref_set">
<polygon fill="white" stroke="black" points="192.589,-255.5 192.589,-287.5 334.185,-287.5 334.185,-255.5 192.589,-255.5"/>
<text text-anchor="start" x="200.589" y="-274.5" font-family="Helvetica,sans-Serif" font-size="10.00">panda.refbranch.RefBranch.</text>
<text text-anchor="middle" x="263.387" y="-262.5" font-family="Helvetica,sans-Serif" font-size="10.00">_write_ref_set</text>
</a>
</g>
</g>
<!-- Node1&#45;&gt;Node3 -->
<g id="edge2" class="edge"><title>Node1&#45;&gt;Node3</title>
<path fill="none" stroke="midnightblue" d="M89.3141,-185.504C109.338,-202.758 143.469,-229.966 177.037,-246.5 180.855,-248.38 184.84,-250.146 188.912,-251.799"/>
<polygon fill="midnightblue" stroke="midnightblue" points="187.942,-255.175 198.533,-255.454 190.428,-248.631 187.942,-255.175"/>
</g>
<!-- Node4 -->
<g id="node4" class="node"><title>Node4</title>
<g id="a_node4"><a xlink:href="classpanda_1_1refvbranch_1_1RefVectorBranch.html#a3b2686531d219a56f6adcdc1fe6e1acb" target="_top" xlink:title="panda.refvbranch.RefVector\lBranch._write_ref_set">
<polygon fill="white" stroke="black" points="192.868,-204.5 192.868,-236.5 333.905,-236.5 333.905,-204.5 192.868,-204.5"/>
<text text-anchor="start" x="200.868" y="-223.5" font-family="Helvetica,sans-Serif" font-size="10.00">panda.refvbranch.RefVector</text>
<text text-anchor="middle" x="263.387" y="-211.5" font-family="Helvetica,sans-Serif" font-size="10.00">Branch._write_ref_set</text>
</a>
</g>
</g>
<!-- Node1&#45;&gt;Node4 -->
<g id="edge3" class="edge"><title>Node1&#45;&gt;Node4</title>
<path fill="none" stroke="midnightblue" d="M131.649,-185.567C150.993,-190.736 172.59,-196.506 192.57,-201.845"/>
<polygon fill="midnightblue" stroke="midnightblue" points="191.667,-205.226 202.231,-204.426 193.474,-198.464 191.667,-205.226"/>
</g>
<!-- Node5 -->
<g id="node5" class="node"><title>Node5</title>
<g id="a_node5"><a xlink:href="classpanda_1_1branch_1_1Branch.html#a9dd12cb55cc7f97e717290693e7fb371" target="_top" xlink:title="panda.branch.Branch.write\l_assign">
<polygon fill="white" stroke="black" points="195.648,-153.5 195.648,-185.5 331.125,-185.5 331.125,-153.5 195.648,-153.5"/>
<text text-anchor="start" x="203.648" y="-172.5" font-family="Helvetica,sans-Serif" font-size="10.00">panda.branch.Branch.write</text>
<text text-anchor="middle" x="263.387" y="-160.5" font-family="Helvetica,sans-Serif" font-size="10.00">_assign</text>
</a>
</g>
</g>
<!-- Node1&#45;&gt;Node5 -->
<g id="edge4" class="edge"><title>Node1&#45;&gt;Node5</title>
<path fill="none" stroke="midnightblue" d="M141.237,-169.5C155.462,-169.5 170.51,-169.5 184.985,-169.5"/>
<polygon fill="midnightblue" stroke="midnightblue" points="185.403,-173 195.403,-169.5 185.403,-166 185.403,-173"/>
</g>
<!-- Node7 -->
<g id="node7" class="node"><title>Node7</title>
<g id="a_node7"><a xlink:href="classpanda_1_1generic_1_1GenericBranch.html#aa22003ddfcdedca67e9c4eb6a5e5c264" target="_top" xlink:title="panda.generic.GenericBranch.write\l_assign">
<polygon fill="white" stroke="black" points="177.037,-102.5 177.037,-134.5 349.737,-134.5 349.737,-102.5 177.037,-102.5"/>
<text text-anchor="start" x="185.037" y="-121.5" font-family="Helvetica,sans-Serif" font-size="10.00">panda.generic.GenericBranch.write</text>
<text text-anchor="middle" x="263.387" y="-109.5" font-family="Helvetica,sans-Serif" font-size="10.00">_assign</text>
</a>
</g>
</g>
<!-- Node1&#45;&gt;Node7 -->
<g id="edge7" class="edge"><title>Node1&#45;&gt;Node7</title>
<path fill="none" stroke="midnightblue" d="M131.649,-153.433C150.993,-148.264 172.59,-142.494 192.57,-137.155"/>
<polygon fill="midnightblue" stroke="midnightblue" points="193.474,-140.536 202.231,-134.574 191.667,-133.774 193.474,-140.536"/>
</g>
<!-- Node8 -->
<g id="node8" class="node"><title>Node8</title>
<g id="a_node8"><a xlink:href="classpanda_1_1objbranch_1_1ObjBranch.html#af36f450502ed1d0c2185ab27679a918a" target="_top" xlink:title="panda.objbranch.ObjBranch.write\l_assign">
<polygon fill="white" stroke="black" points="181.201,-51.5 181.201,-83.5 345.572,-83.5 345.572,-51.5 181.201,-51.5"/>
<text text-anchor="start" x="189.201" y="-70.5" font-family="Helvetica,sans-Serif" font-size="10.00">panda.objbranch.ObjBranch.write</text>
<text text-anchor="middle" x="263.387" y="-58.5" font-family="Helvetica,sans-Serif" font-size="10.00">_assign</text>
</a>
</g>
</g>
<!-- Node1&#45;&gt;Node8 -->
<g id="edge8" class="edge"><title>Node1&#45;&gt;Node8</title>
<path fill="none" stroke="midnightblue" d="M89.7522,-153.476C109.886,-136.503 143.86,-109.935 177.037,-93.5 181.604,-91.2374 186.408,-89.1268 191.311,-87.1667"/>
<polygon fill="midnightblue" stroke="midnightblue" points="192.704,-90.3824 200.828,-83.5821 190.236,-83.8317 192.704,-90.3824"/>
</g>
<!-- Node9 -->
<g id="node9" class="node"><title>Node9</title>
<g id="a_node9"><a xlink:href="classpanda_1_1refbranch_1_1RefBranch.html#aaab70f0aefea7883fbd886b0fb8a3656" target="_top" xlink:title="panda.refbranch.RefBranch.write\l_assign">
<polygon fill="white" stroke="black" points="182.036,-0.5 182.036,-32.5 344.737,-32.5 344.737,-0.5 182.036,-0.5"/>
<text text-anchor="start" x="190.036" y="-19.5" font-family="Helvetica,sans-Serif" font-size="10.00">panda.refbranch.RefBranch.write</text>
<text text-anchor="middle" x="263.387" y="-7.5" font-family="Helvetica,sans-Serif" font-size="10.00">_assign</text>
</a>
</g>
</g>
<!-- Node1&#45;&gt;Node9 -->
<g id="edge9" class="edge"><title>Node1&#45;&gt;Node9</title>
<path fill="none" stroke="midnightblue" d="M80.5856,-153.079C96.5006,-125.785 132.082,-71.1561 177.037,-41.5 179.454,-39.9058 181.974,-38.411 184.57,-37.0096"/>
<polygon fill="midnightblue" stroke="midnightblue" points="186.185,-40.1165 193.648,-32.5961 183.124,-33.8211 186.185,-40.1165"/>
</g>
<!-- Node5&#45;&gt;Node2 -->
<g id="edge5" class="edge"><title>Node5&#45;&gt;Node2</title>
<path fill="none" stroke="midnightblue" d="M324.332,-185.638C332.988,-188.577 341.686,-191.876 349.737,-195.5 379.491,-208.892 410.931,-228.643 433.263,-243.753"/>
<polygon fill="midnightblue" stroke="midnightblue" points="431.421,-246.735 441.649,-249.5 435.378,-240.96 431.421,-246.735"/>
</g>
<!-- Node6 -->
<g id="node6" class="node"><title>Node6</title>
<g id="a_node6"><a xlink:href="classpanda_1_1branch_1_1Branch.html#af8e3cef274f78862dca4c835ebd830d0" target="_top" xlink:title="panda.branch.Branch.typename">
<polygon fill="white" stroke="black" points="385.737,-159.5 385.737,-179.5 544.012,-179.5 544.012,-159.5 385.737,-159.5"/>
<text text-anchor="middle" x="464.874" y="-166.5" font-family="Helvetica,sans-Serif" font-size="10.00">panda.branch.Branch.typename</text>
</a>
</g>
</g>
<!-- Node5&#45;&gt;Node6 -->
<g id="edge6" class="edge"><title>Node5&#45;&gt;Node6</title>
<path fill="none" stroke="midnightblue" d="M331.368,-169.5C345.531,-169.5 360.686,-169.5 375.501,-169.5"/>
<polygon fill="midnightblue" stroke="midnightblue" points="375.687,-173 385.687,-169.5 375.687,-166 375.687,-173"/>
</g>
</g>
</svg>
        <g id="navigator" transform="translate(0 0)" fill="#404254">
                <rect fill="#f2f5e9" fill-opacity="0.5" stroke="#606060" stroke-width=".5" x="0" y="0" width="60" height="60"/>
                <use id="zoomplus" xlink:href="#zoomPlus" x="17" y="9" onmousedown="handleZoom(evt,'in')"/>
                <use id="zoomminus" xlink:href="#zoomMin" x="42" y="9" onmousedown="handleZoom(evt,'out')"/>
                <use id="reset" xlink:href="#resetDef" x="30" y="36" onmousedown="handleReset()"/>
                <g id="arrowUp" xlink:href="#dirArrow" transform="translate(30 24)" onmousedown="handlePan(0,-1)">
                  <use xlink:href="#rim" fill="#404040">
                        <set attributeName="fill" to="#808080" begin="arrowUp.mouseover" end="arrowUp.mouseout"/>
                  </use>
                  <path fill="none" stroke="white" stroke-width="1.5" d="M0,-3.0v7 M-2.5,-0.5L0,-3.0L2.5,-0.5"/>
                </g>
                <g id="arrowRight" xlink:href="#dirArrow" transform="rotate(90) translate(36 -43)" onmousedown="handlePan(1,0)">
                  <use xlink:href="#rim" fill="#404040">
                        <set attributeName="fill" to="#808080" begin="arrowRight.mouseover" end="arrowRight.mouseout"/>
                  </use>
                  <path fill="none" stroke="white" stroke-width="1.5" d="M0,-3.0v7 M-2.5,-0.5L0,-3.0L2.5,-0.5"/>
                </g>
                <g id="arrowDown" xlink:href="#dirArrow" transform="rotate(180) translate(-30 -48)" onmousedown="handlePan(0,1)">
                  <use xlink:href="#rim" fill="#404040">
                        <set attributeName="fill" to="#808080" begin="arrowDown.mouseover" end="arrowDown.mouseout"/>
                  </use>
                  <path fill="none" stroke="white" stroke-width="1.5" d="M0,-3.0v7 M-2.5,-0.5L0,-3.0L2.5,-0.5"/>
                </g>
                <g id="arrowLeft" xlink:href="#dirArrow" transform="rotate(270) translate(-36 17)" onmousedown="handlePan(-1,0)">
                  <use xlink:href="#rim" fill="#404040">
                        <set attributeName="fill" to="#808080" begin="arrowLeft.mouseover" end="arrowLeft.mouseout"/>
                  </use>
                  <path fill="none" stroke="white" stroke-width="1.5" d="M0,-3.0v7 M-2.5,-0.5L0,-3.0L2.5,-0.5"/>
                </g>
        </g>
        <svg viewBox="0 0 15 15" width="100%" height="30px" preserveAspectRatio="xMaxYMin meet">
         <g id="arrow_out" transform="scale(0.3 0.3)">
          <a xlink:href="classpanda_1_1refvbranch_1_1RefVectorBranch_a4a579a4942e4357945946c354ff21b45_cgraph_org.svg" target="_base">
           <rect id="button" ry="5" rx="5" y="6" x="6" height="38" width="38"
                fill="#f2f5e9" fill-opacity="0.5" stroke="#606060" stroke-width="1.0"/>
           <path id="arrow"
             d="M 11.500037,31.436501 C 11.940474,20.09759 22.043105,11.32322 32.158766,21.979434 L 37.068811,17.246167 C 37.068811,17.246167 37.088388,32 37.088388,32 L 22.160133,31.978069 C 22.160133,31.978069 26.997745,27.140456 26.997745,27.140456 C 18.528582,18.264221 13.291696,25.230495 11.500037,31.436501 z"
             style="fill:#404040;"/>
          </a>
         </g>
        </svg>
</svg>
