<?xml version="1.0" encoding="UTF-8" standalone="no"?>
<!DOCTYPE svg PUBLIC "-//W3C//DTD SVG 1.1//EN"
 "http://www.w3.org/Graphics/SVG/1.1/DTD/svg11.dtd">
<!-- Generated by graphviz version 2.38.0 (20140413.2041)
 -->
<!-- Title: panda::Container::end Pages: 1 -->
<svg width="452pt" height="96pt"
 viewBox="0.00 0.00 452.01 96.00" xmlns="http://www.w3.org/2000/svg" xmlns:xlink="http://www.w3.org/1999/xlink">
<g id="graph0" class="graph" transform="scale(1 1) rotate(0) translate(4 92)">
<title>panda::Container::end</title>
<polygon fill="white" stroke="none" points="-4,4 -4,-92 448.011,-92 448.011,4 -4,4"/>
<!-- Node1 -->
<g id="node1" class="node"><title>Node1</title>
<polygon fill="#bfbfbf" stroke="black" points="0,-47.5 0,-67.5 114.929,-67.5 114.929,-47.5 0,-47.5"/>
<text text-anchor="middle" x="57.4645" y="-54.5" font-family="Helvetica,sans-Serif" font-size="10.00">panda::Container::end</text>
</g>
<!-- Node2 -->
<g id="node2" class="node"><title>Node2</title>
<g id="a_node2"><a xlink:href="classpanda_1_1Container.html#a3e3139381afff7a2bea1e46685a4c734" target="_top" xlink:title="panda::Container::addr_">
<polygon fill="white" stroke="black" points="150.929,-67.5 150.929,-87.5 274.746,-87.5 274.746,-67.5 150.929,-67.5"/>
<text text-anchor="middle" x="212.837" y="-74.5" font-family="Helvetica,sans-Serif" font-size="10.00">panda::Container::addr_</text>
</a>
</g>
</g>
<!-- Node1&#45;&gt;Node2 -->
<g id="edge1" class="edge"><title>Node1&#45;&gt;Node2</title>
<path fill="none" stroke="midnightblue" d="M115.139,-64.8904C123.48,-65.9781 132.161,-67.1101 140.748,-68.2299"/>
<polygon fill="midnightblue" stroke="midnightblue" points="140.39,-71.7128 150.759,-69.5353 141.296,-64.7715 140.39,-71.7128"/>
</g>
<!-- Node3 -->
<g id="node3" class="node"><title>Node3</title>
<g id="a_node3"><a xlink:href="classpanda_1_1Container.html#a0873333a978d458a525f855d73416e09" target="_top" xlink:title="panda::Container::max_">
<polygon fill="white" stroke="black" points="151.488,-28.5 151.488,-48.5 274.187,-48.5 274.187,-28.5 151.488,-28.5"/>
<text text-anchor="middle" x="212.837" y="-35.5" font-family="Helvetica,sans-Serif" font-size="10.00">panda::Container::max_</text>
</a>
</g>
</g>
<!-- Node1&#45;&gt;Node3 -->
<g id="edge2" class="edge"><title>Node1&#45;&gt;Node3</title>
<path fill="none" stroke="midnightblue" d="M115.139,-50.4791C123.603,-49.4306 132.417,-48.3387 141.127,-47.2597"/>
<polygon fill="midnightblue" stroke="midnightblue" points="141.783,-50.7052 151.277,-46.0023 140.923,-43.7583 141.783,-50.7052"/>
</g>
<!-- Node4 -->
<g id="node4" class="node"><title>Node4</title>
<g id="a_node4"><a xlink:href="classpanda_1_1Container.html#ae8c189c8e337af593b268455a2dda89f" target="_top" xlink:title="panda::Container::getData">
<polygon fill="white" stroke="black" points="310.746,-51.5 310.746,-71.5 444.011,-71.5 444.011,-51.5 310.746,-51.5"/>
<text text-anchor="middle" x="377.378" y="-58.5" font-family="Helvetica,sans-Serif" font-size="10.00">panda::Container::getData</text>
</a>
</g>
</g>
<!-- Node3&#45;&gt;Node4 -->
<g id="edge3" class="edge"><title>Node3&#45;&gt;Node4</title>
<path fill="none" stroke="midnightblue" d="M274.362,-47.0644C282.953,-48.28 291.875,-49.5425 300.709,-50.7925"/>
<polygon fill="midnightblue" stroke="midnightblue" points="300.23,-54.2596 310.622,-52.1953 301.211,-47.3286 300.23,-54.2596"/>
</g>
<!-- Node5 -->
<g id="node5" class="node"><title>Node5</title>
<g id="a_node5"><a xlink:href="structpanda_1_1ContainerElement_1_1datastore.html#aff3ea42523fa1d980435a5085c8f1289" target="_top" xlink:title="panda::ContainerElement\l::datastore::nmax">
<polygon fill="white" stroke="black" points="312.695,-0.5 312.695,-32.5 442.062,-32.5 442.062,-0.5 312.695,-0.5"/>
<text text-anchor="start" x="320.695" y="-19.5" font-family="Helvetica,sans-Serif" font-size="10.00">panda::ContainerElement</text>
<text text-anchor="middle" x="377.378" y="-7.5" font-family="Helvetica,sans-Serif" font-size="10.00">::datastore::nmax</text>
</a>
</g>
</g>
<!-- Node3&#45;&gt;Node5 -->
<g id="edge4" class="edge"><title>Node3&#45;&gt;Node5</title>
<path fill="none" stroke="midnightblue" d="M274.362,-30.308C283.509,-29.0699 293.032,-27.781 302.424,-26.5098"/>
<polygon fill="midnightblue" stroke="midnightblue" points="303.099,-29.9504 312.539,-25.1407 302.16,-23.0137 303.099,-29.9504"/>
</g>
</g>
</svg>
