<?xml version="1.0" encoding="UTF-8" standalone="no"?>
<!DOCTYPE svg PUBLIC "-//W3C//DTD SVG 1.1//EN"
 "http://www.w3.org/Graphics/SVG/1.1/DTD/svg11.dtd">
<!-- Generated by graphviz version 2.38.0 (20140413.2041)
 -->
<!-- Title: panda::FatJet Pages: 1 -->
<!--zoomable 239 -->
<svg id="main" version="1.1" xmlns="http://www.w3.org/2000/svg" xmlns:xlink="http://www.w3.org/1999/xlink" xml:space="preserve" onload="init(evt)">
<style type="text/css"><![CDATA[
.edge:hover path { stroke: red; }
.edge:hover polygon { stroke: red; fill: red; }
]]></style>
<script type="text/javascript"><![CDATA[
var edges = document.getElementsByTagName('g');
if (edges && edges.length) {
  for (var i=0;i<edges.length;i++) {
    if (edges[i].id.substr(0,4)=='edge') {
      edges[i].setAttribute('class','edge');
    }
  }
}
]]></script>
        <defs>
                <circle id="rim" cx="0" cy="0" r="7"/>
                <circle id="rim2" cx="0" cy="0" r="3.5"/>
                <g id="zoomPlus">
                        <use xlink:href="#rim" fill="#404040">
                                <set attributeName="fill" to="#808080" begin="zoomplus.mouseover" end="zoomplus.mouseout"/>
                        </use>
                        <path d="M-4,0h8M0,-4v8" fill="none" stroke="white" stroke-width="1.5" pointer-events="none"/>
                </g>
                <g id="zoomMin">
                        <use xlink:href="#rim" fill="#404040">
                                <set attributeName="fill" to="#808080" begin="zoomminus.mouseover" end="zoomminus.mouseout"/>
                        </use>
                        <path d="M-4,0h8" fill="none" stroke="white" stroke-width="1.5" pointer-events="none"/>
                </g>
                <g id="dirArrow">
                        <path fill="none" stroke="white" stroke-width="1.5" d="M0,-3.0v7 M-2.5,-0.5L0,-3.0L2.5,-0.5"/>
                </g>
               <g id="resetDef">
                       <use xlink:href="#rim2" fill="#404040">
                               <set attributeName="fill" to="#808080" begin="reset.mouseover" end="reset.mouseout"/>
                       </use>
               </g>
        </defs>

<script type="text/javascript">
var viewWidth = 1152;
var viewHeight = 239;
var sectionId = 'dynsection-1';
</script>
<script xlink:href="svgpan.js"/>
<svg id="graph" class="graph">
<g id="viewport">
<title>panda::FatJet</title>
<polygon fill="white" stroke="none" points="-4,4 -4,-235.217 1147.81,-235.217 1147.81,4 -4,4"/>
<!-- Node1 -->
<g id="node1" class="node"><title>Node1</title>
<polygon fill="#bfbfbf" stroke="black" points="1066.67,-66.7173 1066.67,-86.7173 1143.81,-86.7173 1143.81,-66.7173 1066.67,-66.7173"/>
<text text-anchor="middle" x="1105.24" y="-73.7173" font-family="Helvetica,sans-Serif" font-size="10.00">panda::FatJet</text>
</g>
<!-- Node2 -->
<g id="node2" class="node"><title>Node2</title>
<g id="a_node2"><a xlink:href="classpanda_1_1Jet.html" target="_top" xlink:title="panda::Jet">
<polygon fill="white" stroke="black" points="966.984,-105.717 966.984,-125.717 1029.67,-125.717 1029.67,-105.717 966.984,-105.717"/>
<text text-anchor="middle" x="998.329" y="-112.717" font-family="Helvetica,sans-Serif" font-size="10.00">panda::Jet</text>
</a>
</g>
</g>
<!-- Node2&#45;&gt;Node1 -->
<g id="edge1" class="edge"><title>Node2&#45;&gt;Node1</title>
<path fill="none" stroke="midnightblue" d="M1035.92,-102.114C1049.54,-97.0535 1064.73,-91.4077 1077.32,-86.7268"/>
<polygon fill="midnightblue" stroke="midnightblue" points="1034.5,-98.9088 1026.35,-105.674 1036.94,-105.47 1034.5,-98.9088"/>
</g>
<!-- Node3 -->
<g id="node3" class="node"><title>Node3</title>
<g id="a_node3"><a xlink:href="classpanda_1_1MicroJet.html" target="_top" xlink:title="panda::MicroJet">
<polygon fill="white" stroke="black" points="748.953,-189.717 748.953,-209.717 836.08,-209.717 836.08,-189.717 748.953,-189.717"/>
<text text-anchor="middle" x="792.517" y="-196.717" font-family="Helvetica,sans-Serif" font-size="10.00">panda::MicroJet</text>
</a>
</g>
</g>
<!-- Node3&#45;&gt;Node2 -->
<g id="edge2" class="edge"><title>Node3&#45;&gt;Node2</title>
<path fill="none" stroke="midnightblue" d="M841.083,-186.763C872.479,-177.429 914.103,-163.54 948.984,-146.717 961.198,-140.827 974.079,-132.446 983.471,-125.883"/>
<polygon fill="midnightblue" stroke="midnightblue" points="839.886,-183.466 831.27,-189.631 841.85,-190.185 839.886,-183.466"/>
</g>
<!-- Node4 -->
<g id="node4" class="node"><title>Node4</title>
<g id="a_node4"><a xlink:href="classpanda_1_1ParticleM.html" target="_top" xlink:title="panda::ParticleM">
<polygon fill="white" stroke="black" points="495.904,-210.717 495.904,-230.717 586.919,-230.717 586.919,-210.717 495.904,-210.717"/>
<text text-anchor="middle" x="541.411" y="-217.717" font-family="Helvetica,sans-Serif" font-size="10.00">panda::ParticleM</text>
</a>
</g>
</g>
<!-- Node4&#45;&gt;Node3 -->
<g id="edge3" class="edge"><title>Node4&#45;&gt;Node3</title>
<path fill="none" stroke="midnightblue" d="M596.952,-216.119C642.531,-212.277 706.636,-206.873 748.617,-203.334"/>
<polygon fill="midnightblue" stroke="midnightblue" points="596.617,-212.635 586.946,-216.963 597.205,-219.61 596.617,-212.635"/>
</g>
<!-- Node5 -->
<g id="node5" class="node"><title>Node5</title>
<g id="a_node5"><a xlink:href="classpanda_1_1Particle.html" target="_top" xlink:title="panda::Particle">
<polygon fill="white" stroke="black" points="298.012,-199.717 298.012,-219.717 380.699,-219.717 380.699,-199.717 298.012,-199.717"/>
<text text-anchor="middle" x="339.356" y="-206.717" font-family="Helvetica,sans-Serif" font-size="10.00">panda::Particle</text>
</a>
</g>
</g>
<!-- Node5&#45;&gt;Node4 -->
<g id="edge4" class="edge"><title>Node5&#45;&gt;Node4</title>
<path fill="none" stroke="midnightblue" d="M390.979,-212.501C423.278,-214.277 464.753,-216.557 495.81,-218.265"/>
<polygon fill="midnightblue" stroke="midnightblue" points="391.017,-208.998 380.84,-211.943 390.632,-215.987 391.017,-208.998"/>
</g>
<!-- Node6 -->
<g id="node6" class="node"><title>Node6</title>
<g id="a_node6"><a xlink:href="classpanda_1_1ContainerElement.html" target="_top" xlink:title="panda::ContainerElement">
<polygon fill="white" stroke="black" points="115.248,-169.717 115.248,-189.717 244.615,-189.717 244.615,-169.717 115.248,-169.717"/>
<text text-anchor="middle" x="179.932" y="-176.717" font-family="Helvetica,sans-Serif" font-size="10.00">panda::ContainerElement</text>
</a>
</g>
</g>
<!-- Node6&#45;&gt;Node5 -->
<g id="edge5" class="edge"><title>Node6&#45;&gt;Node5</title>
<path fill="none" stroke="midnightblue" d="M243.761,-191.691C261.977,-195.162 281.377,-198.859 297.836,-201.996"/>
<polygon fill="midnightblue" stroke="midnightblue" points="244.268,-188.224 233.789,-189.79 242.957,-195.101 244.268,-188.224"/>
</g>
<!-- Node7 -->
<g id="node7" class="node"><title>Node7</title>
<g id="a_node7"><a xlink:href="classpanda_1_1Object.html" target="_top" xlink:title="panda::Object">
<polygon fill="white" stroke="black" points="2.84217e-14,-142.717 2.84217e-14,-162.717 78.248,-162.717 78.248,-142.717 2.84217e-14,-142.717"/>
<text text-anchor="middle" x="39.124" y="-149.717" font-family="Helvetica,sans-Serif" font-size="10.00">panda::Object</text>
</a>
</g>
</g>
<!-- Node7&#45;&gt;Node6 -->
<g id="edge6" class="edge"><title>Node7&#45;&gt;Node6</title>
<path fill="none" stroke="midnightblue" d="M88.3156,-162.091C100.978,-164.554 114.681,-167.22 127.506,-169.714"/>
<polygon fill="midnightblue" stroke="midnightblue" points="88.9055,-158.641 78.4212,-160.167 87.5689,-165.512 88.9055,-158.641"/>
</g>
<!-- Node9 -->
<g id="node9" class="node"><title>Node9</title>
<g id="a_node9"><a xlink:href="classpanda_1_1ContainerBase.html" target="_top" xlink:title="Base class for all containers. ">
<polygon fill="white" stroke="black" points="281.615,-84.7173 281.615,-104.717 397.096,-104.717 397.096,-84.7173 281.615,-84.7173"/>
<text text-anchor="middle" x="339.356" y="-91.7173" font-family="Helvetica,sans-Serif" font-size="10.00">panda::ContainerBase</text>
</a>
</g>
</g>
<!-- Node7&#45;&gt;Node9 -->
<g id="edge9" class="edge"><title>Node7&#45;&gt;Node9</title>
<path fill="none" stroke="midnightblue" d="M88.6005,-143.29C143.089,-132.693 231.194,-115.558 286.88,-104.728"/>
<polygon fill="midnightblue" stroke="midnightblue" points="87.6499,-139.909 78.502,-145.254 88.9863,-146.78 87.6499,-139.909"/>
</g>
<!-- Node8 -->
<g id="node8" class="node"><title>Node8</title>
<g id="a_node8"><a xlink:href="classpanda_1_1Ref.html" target="_top" xlink:title="panda::Ref\&lt; panda::\lGenJet \&gt;">
<polygon fill="white" stroke="black" points="739.076,-123.717 739.076,-155.717 845.957,-155.717 845.957,-123.717 739.076,-123.717"/>
<text text-anchor="start" x="747.076" y="-142.717" font-family="Helvetica,sans-Serif" font-size="10.00">panda::Ref&lt; panda::</text>
<text text-anchor="middle" x="792.517" y="-130.717" font-family="Helvetica,sans-Serif" font-size="10.00">GenJet &gt;</text>
</a>
</g>
</g>
<!-- Node8&#45;&gt;Node2 -->
<g id="edge7" class="edge"><title>Node8&#45;&gt;Node2</title>
<path fill="none" stroke="#9a32cd" stroke-dasharray="5,2" d="M856.139,-132.343C892.902,-128.014 937.717,-122.737 966.856,-119.306"/>
<polygon fill="#9a32cd" stroke="#9a32cd" points="855.526,-128.891 846.004,-133.537 856.345,-135.843 855.526,-128.891"/>
<text text-anchor="middle" x="912.305" y="-133.717" font-family="Helvetica,sans-Serif" font-size="10.00"> matchedGenJet</text>
</g>
<!-- Node9&#45;&gt;Node8 -->
<g id="edge8" class="edge"><title>Node9&#45;&gt;Node8</title>
<path fill="none" stroke="#9a32cd" stroke-dasharray="5,2" d="M365.111,-109.946C379.33,-118.181 397.756,-128.009 415.096,-134.717 443.933,-145.873 451.901,-147.685 482.556,-151.717 582.522,-164.868 608.94,-162.221 709.408,-153.717 718.918,-152.912 728.982,-151.592 738.682,-150.075"/>
<polygon fill="#9a32cd" stroke="#9a32cd" points="366.818,-106.889 356.429,-104.813 363.256,-112.915 366.818,-106.889"/>
<text text-anchor="middle" x="541.411" y="-164.717" font-family="Helvetica,sans-Serif" font-size="10.00"> container_</text>
</g>
<!-- Node10 -->
<g id="node10" class="node"><title>Node10</title>
<g id="a_node10"><a xlink:href="classpanda_1_1Ref.html" target="_top" xlink:title="panda::Ref\&lt; E \&gt;">
<polygon fill="white" stroke="black" points="497.004,-122.717 497.004,-142.717 585.819,-142.717 585.819,-122.717 497.004,-122.717"/>
<text text-anchor="middle" x="541.411" y="-129.717" font-family="Helvetica,sans-Serif" font-size="10.00">panda::Ref&lt; E &gt;</text>
</a>
</g>
</g>
<!-- Node9&#45;&gt;Node10 -->
<g id="edge11" class="edge"><title>Node9&#45;&gt;Node10</title>
<path fill="none" stroke="#9a32cd" stroke-dasharray="5,2" d="M403.264,-106.667C433.661,-112.441 469.388,-119.227 496.756,-124.425"/>
<polygon fill="#9a32cd" stroke="#9a32cd" points="403.657,-103.179 393.179,-104.751 402.351,-110.056 403.657,-103.179"/>
<text text-anchor="middle" x="439.826" y="-121.717" font-family="Helvetica,sans-Serif" font-size="10.00"> container_</text>
</g>
<!-- Node11 -->
<g id="node11" class="node"><title>Node11</title>
<g id="a_node11"><a xlink:href="classpanda_1_1RefVector.html" target="_top" xlink:title="panda::RefVector\&lt; panda\l::PFCand \&gt;">
<polygon fill="white" stroke="black" points="727.408,-72.7173 727.408,-104.717 857.626,-104.717 857.626,-72.7173 727.408,-72.7173"/>
<text text-anchor="start" x="735.408" y="-91.7173" font-family="Helvetica,sans-Serif" font-size="10.00">panda::RefVector&lt; panda</text>
<text text-anchor="middle" x="792.517" y="-79.7173" font-family="Helvetica,sans-Serif" font-size="10.00">::PFCand &gt;</text>
</a>
</g>
</g>
<!-- Node9&#45;&gt;Node11 -->
<g id="edge13" class="edge"><title>Node9&#45;&gt;Node11</title>
<path fill="none" stroke="#9a32cd" stroke-dasharray="5,2" d="M407.699,-93.8217C493.964,-92.6745 642.431,-90.7 727.208,-89.5726"/>
<polygon fill="#9a32cd" stroke="#9a32cd" points="407.448,-90.3247 397.495,-93.9574 407.541,-97.3241 407.448,-90.3247"/>
<text text-anchor="middle" x="541.411" y="-96.7173" font-family="Helvetica,sans-Serif" font-size="10.00"> container_</text>
</g>
<!-- Node12 -->
<g id="node12" class="node"><title>Node12</title>
<g id="a_node12"><a xlink:href="classpanda_1_1RefVector.html" target="_top" xlink:title="panda::RefVector\&lt; E \&gt;">
<polygon fill="white" stroke="black" points="482.556,-34.7173 482.556,-54.7173 600.266,-54.7173 600.266,-34.7173 482.556,-34.7173"/>
<text text-anchor="middle" x="541.411" y="-41.7173" font-family="Helvetica,sans-Serif" font-size="10.00">panda::RefVector&lt; E &gt;</text>
</a>
</g>
</g>
<!-- Node9&#45;&gt;Node12 -->
<g id="edge15" class="edge"><title>Node9&#45;&gt;Node12</title>
<path fill="none" stroke="#9a32cd" stroke-dasharray="5,2" d="M372.326,-80.6574C385.385,-75.3522 400.765,-69.6541 415.096,-65.7173 436.793,-59.7573 461.094,-55.2129 482.48,-51.9022"/>
<polygon fill="#9a32cd" stroke="#9a32cd" points="370.734,-77.5285 362.847,-84.602 373.424,-83.9913 370.734,-77.5285"/>
<text text-anchor="middle" x="439.826" y="-68.7173" font-family="Helvetica,sans-Serif" font-size="10.00"> container_</text>
</g>
<!-- Node13 -->
<g id="node13" class="node"><title>Node13</title>
<g id="a_node13"><a xlink:href="classpanda_1_1RefVector.html" target="_top" xlink:title="panda::RefVector\&lt; panda\l::MicroJet \&gt;">
<polygon fill="white" stroke="black" points="727.408,-13.7173 727.408,-45.7173 857.626,-45.7173 857.626,-13.7173 727.408,-13.7173"/>
<text text-anchor="start" x="735.408" y="-32.7173" font-family="Helvetica,sans-Serif" font-size="10.00">panda::RefVector&lt; panda</text>
<text text-anchor="middle" x="792.517" y="-20.7173" font-family="Helvetica,sans-Serif" font-size="10.00">::MicroJet &gt;</text>
</a>
</g>
</g>
<!-- Node9&#45;&gt;Node13 -->
<g id="edge17" class="edge"><title>Node9&#45;&gt;Node13</title>
<path fill="none" stroke="#9a32cd" stroke-dasharray="5,2" d="M360.716,-78.2937C387.012,-58.2409 435.068,-25.4282 482.556,-12.7173 564.937,9.33333 663.956,-2.50127 727.298,-14.6749"/>
<polygon fill="#9a32cd" stroke="#9a32cd" points="358.408,-75.6547 352.664,-84.5576 362.706,-81.1797 358.408,-75.6547"/>
<text text-anchor="middle" x="541.411" y="-15.7173" font-family="Helvetica,sans-Serif" font-size="10.00"> container_</text>
</g>
<!-- Node10&#45;&gt;Node8 -->
<g id="edge10" class="edge"><title>Node10&#45;&gt;Node8</title>
<path fill="none" stroke="orange" stroke-dasharray="5,2" d="M596.18,-134.228C638.398,-135.415 696.857,-137.057 738.802,-138.236"/>
<polygon fill="orange" stroke="orange" points="596.181,-130.727 586.087,-133.945 595.985,-137.724 596.181,-130.727"/>
<text text-anchor="middle" x="663.837" y="-140.717" font-family="Helvetica,sans-Serif" font-size="10.00"> &lt; panda::GenJet &gt;</text>
</g>
<!-- Node11&#45;&gt;Node2 -->
<g id="edge12" class="edge"><title>Node11&#45;&gt;Node2</title>
<path fill="none" stroke="#9a32cd" stroke-dasharray="5,2" d="M868.048,-95.414C893.762,-98.1092 922.702,-101.572 948.984,-105.717 954.826,-106.639 961.031,-107.79 966.978,-108.98"/>
<polygon fill="#9a32cd" stroke="#9a32cd" points="868.298,-91.9213 857.993,-94.3814 867.583,-98.8847 868.298,-91.9213"/>
<text text-anchor="middle" x="912.305" y="-108.717" font-family="Helvetica,sans-Serif" font-size="10.00"> constituents</text>
</g>
<!-- Node12&#45;&gt;Node11 -->
<g id="edge14" class="edge"><title>Node12&#45;&gt;Node11</title>
<path fill="none" stroke="orange" stroke-dasharray="5,2" d="M610.421,-50.9632C640.868,-54.3505 677.111,-59.2006 709.408,-65.7173 718.985,-67.6499 729.082,-70.1147 738.794,-72.7089"/>
<polygon fill="orange" stroke="orange" points="610.65,-47.4677 600.331,-49.8702 609.896,-54.4269 610.65,-47.4677"/>
<text text-anchor="middle" x="663.837" y="-68.7173" font-family="Helvetica,sans-Serif" font-size="10.00"> &lt; panda::PFCand &gt;</text>
</g>
<!-- Node12&#45;&gt;Node13 -->
<g id="edge18" class="edge"><title>Node12&#45;&gt;Node13</title>
<path fill="none" stroke="orange" stroke-dasharray="5,2" d="M599.444,-33.076C605.772,-32.1172 612.141,-31.2956 618.266,-30.7173 654.201,-27.3244 694.515,-26.8926 727.206,-27.3914"/>
<polygon fill="orange" stroke="orange" points="598.882,-29.6214 589.573,-34.6807 600.005,-36.5307 598.882,-29.6214"/>
<text text-anchor="middle" x="663.837" y="-33.7173" font-family="Helvetica,sans-Serif" font-size="10.00"> &lt; panda::MicroJet &gt;</text>
</g>
<!-- Node13&#45;&gt;Node1 -->
<g id="edge16" class="edge"><title>Node13&#45;&gt;Node1</title>
<path fill="none" stroke="#9a32cd" stroke-dasharray="5,2" d="M868.101,-40.9988C930.591,-50.4509 1017.23,-63.5563 1066.32,-70.9814"/>
<polygon fill="#9a32cd" stroke="#9a32cd" points="868.311,-37.4908 857.9,-39.4558 867.264,-44.4121 868.311,-37.4908"/>
<text text-anchor="middle" x="998.329" y="-68.7173" font-family="Helvetica,sans-Serif" font-size="10.00"> subjets</text>
</g>
</g>
</svg>
        <g id="navigator" transform="translate(0 0)" fill="#404254">
                <rect fill="#f2f5e9" fill-opacity="0.5" stroke="#606060" stroke-width=".5" x="0" y="0" width="60" height="60"/>
                <use id="zoomplus" xlink:href="#zoomPlus" x="17" y="9" onmousedown="handleZoom(evt,'in')"/>
                <use id="zoomminus" xlink:href="#zoomMin" x="42" y="9" onmousedown="handleZoom(evt,'out')"/>
                <use id="reset" xlink:href="#resetDef" x="30" y="36" onmousedown="handleReset()"/>
                <g id="arrowUp" xlink:href="#dirArrow" transform="translate(30 24)" onmousedown="handlePan(0,-1)">
                  <use xlink:href="#rim" fill="#404040">
                        <set attributeName="fill" to="#808080" begin="arrowUp.mouseover" end="arrowUp.mouseout"/>
                  </use>
                  <path fill="none" stroke="white" stroke-width="1.5" d="M0,-3.0v7 M-2.5,-0.5L0,-3.0L2.5,-0.5"/>
                </g>
                <g id="arrowRight" xlink:href="#dirArrow" transform="rotate(90) translate(36 -43)" onmousedown="handlePan(1,0)">
                  <use xlink:href="#rim" fill="#404040">
                        <set attributeName="fill" to="#808080" begin="arrowRight.mouseover" end="arrowRight.mouseout"/>
                  </use>
                  <path fill="none" stroke="white" stroke-width="1.5" d="M0,-3.0v7 M-2.5,-0.5L0,-3.0L2.5,-0.5"/>
                </g>
                <g id="arrowDown" xlink:href="#dirArrow" transform="rotate(180) translate(-30 -48)" onmousedown="handlePan(0,1)">
                  <use xlink:href="#rim" fill="#404040">
                        <set attributeName="fill" to="#808080" begin="arrowDown.mouseover" end="arrowDown.mouseout"/>
                  </use>
                  <path fill="none" stroke="white" stroke-width="1.5" d="M0,-3.0v7 M-2.5,-0.5L0,-3.0L2.5,-0.5"/>
                </g>
                <g id="arrowLeft" xlink:href="#dirArrow" transform="rotate(270) translate(-36 17)" onmousedown="handlePan(-1,0)">
                  <use xlink:href="#rim" fill="#404040">
                        <set attributeName="fill" to="#808080" begin="arrowLeft.mouseover" end="arrowLeft.mouseout"/>
                  </use>
                  <path fill="none" stroke="white" stroke-width="1.5" d="M0,-3.0v7 M-2.5,-0.5L0,-3.0L2.5,-0.5"/>
                </g>
        </g>
        <svg viewBox="0 0 15 15" width="100%" height="30px" preserveAspectRatio="xMaxYMin meet">
         <g id="arrow_out" transform="scale(0.3 0.3)">
          <a xlink:href="classpanda_1_1FatJet__coll__graph_org.svg" target="_base">
           <rect id="button" ry="5" rx="5" y="6" x="6" height="38" width="38"
                fill="#f2f5e9" fill-opacity="0.5" stroke="#606060" stroke-width="1.0"/>
           <path id="arrow"
             d="M 11.500037,31.436501 C 11.940474,20.09759 22.043105,11.32322 32.158766,21.979434 L 37.068811,17.246167 C 37.068811,17.246167 37.088388,32 37.088388,32 L 22.160133,31.978069 C 22.160133,31.978069 26.997745,27.140456 26.997745,27.140456 C 18.528582,18.264221 13.291696,25.230495 11.500037,31.436501 z"
             style="fill:#404040;"/>
          </a>
         </g>
        </svg>
</svg>
