<?xml version="1.0" encoding="UTF-8" standalone="no"?>
<!DOCTYPE svg PUBLIC "-//W3C//DTD SVG 1.1//EN"
 "http://www.w3.org/Graphics/SVG/1.1/DTD/svg11.dtd">
<!-- Generated by graphviz version 2.38.0 (20140413.2041)
 -->
<!-- Title: panda.objbranch.ObjBranch.write_assign Pages: 1 -->
<svg width="371pt" height="92pt"
 viewBox="0.00 0.00 371.07 92.00" xmlns="http://www.w3.org/2000/svg" xmlns:xlink="http://www.w3.org/1999/xlink">
<g id="graph0" class="graph" transform="scale(1 1) rotate(0) translate(4 88)">
<title>panda.objbranch.ObjBranch.write_assign</title>
<polygon fill="white" stroke="none" points="-4,4 -4,-88 367.072,-88 367.072,4 -4,4"/>
<!-- Node1 -->
<g id="node1" class="node"><title>Node1</title>
<polygon fill="#bfbfbf" stroke="black" points="0,-25.5 0,-57.5 164.371,-57.5 164.371,-25.5 0,-25.5"/>
<text text-anchor="start" x="8" y="-44.5" font-family="Helvetica,sans-Serif" font-size="10.00">panda.objbranch.ObjBranch.write</text>
<text text-anchor="middle" x="82.1855" y="-32.5" font-family="Helvetica,sans-Serif" font-size="10.00">_assign</text>
</g>
<!-- Node2 -->
<g id="node2" class="node"><title>Node2</title>
<g id="a_node2"><a xlink:href="classpanda_1_1refbranch_1_1RefBranch.html#aab6abb2a47955638050a1e0f2798f5f6" target="_top" xlink:title="panda.refbranch.RefBranch.write\l_copy_ctor">
<polygon fill="white" stroke="black" points="200.371,-51.5 200.371,-83.5 363.072,-83.5 363.072,-51.5 200.371,-51.5"/>
<text text-anchor="start" x="208.371" y="-70.5" font-family="Helvetica,sans-Serif" font-size="10.00">panda.refbranch.RefBranch.write</text>
<text text-anchor="middle" x="281.721" y="-58.5" font-family="Helvetica,sans-Serif" font-size="10.00">_copy_ctor</text>
</a>
</g>
</g>
<!-- Node1&#45;&gt;Node2 -->
<g id="edge1" class="edge"><title>Node1&#45;&gt;Node2</title>
<path fill="none" stroke="midnightblue" d="M174.419,-53.5083C183.008,-54.6389 191.675,-55.7795 200.155,-56.8957"/>
<polygon fill="midnightblue" stroke="midnightblue" points="174.757,-50.0227 164.386,-52.1878 173.844,-56.9629 174.757,-50.0227"/>
</g>
<!-- Node3 -->
<g id="node3" class="node"><title>Node3</title>
<g id="a_node3"><a xlink:href="classpanda_1_1refvbranch_1_1RefVectorBranch.html#a4a579a4942e4357945946c354ff21b45" target="_top" xlink:title="panda.refvbranch.RefVector\lBranch.write_copy_ctor">
<polygon fill="white" stroke="black" points="211.203,-0.5 211.203,-32.5 352.24,-32.5 352.24,-0.5 211.203,-0.5"/>
<text text-anchor="start" x="219.203" y="-19.5" font-family="Helvetica,sans-Serif" font-size="10.00">panda.refvbranch.RefVector</text>
<text text-anchor="middle" x="281.721" y="-7.5" font-family="Helvetica,sans-Serif" font-size="10.00">Branch.write_copy_ctor</text>
</a>
</g>
</g>
<!-- Node1&#45;&gt;Node3 -->
<g id="edge2" class="edge"><title>Node1&#45;&gt;Node3</title>
<path fill="none" stroke="midnightblue" d="M174.651,-29.9242C186.933,-28.3697 199.367,-26.7961 211.187,-25.3002"/>
<polygon fill="midnightblue" stroke="midnightblue" points="173.867,-26.4954 164.386,-31.2233 174.746,-33.44 173.867,-26.4954"/>
</g>
</g>
</svg>
