<?xml version="1.0" encoding="UTF-8" standalone="no"?>
<!DOCTYPE svg PUBLIC "-//W3C//DTD SVG 1.1//EN"
 "http://www.w3.org/Graphics/SVG/1.1/DTD/svg11.dtd">
<!-- Generated by graphviz version 2.38.0 (20140413.2041)
 -->
<!-- Title: panda::PFCand::init Pages: 1 -->
<svg width="527pt" height="29pt"
 viewBox="0.00 0.00 527.31 29.00" xmlns="http://www.w3.org/2000/svg" xmlns:xlink="http://www.w3.org/1999/xlink">
<g id="graph0" class="graph" transform="scale(1 1) rotate(0) translate(4 25)">
<title>panda::PFCand::init</title>
<polygon fill="white" stroke="none" points="-4,4 -4,-25 523.312,-25 523.312,4 -4,4"/>
<!-- Node1 -->
<g id="node1" class="node"><title>Node1</title>
<polygon fill="#bfbfbf" stroke="black" points="-6.39488e-14,-0.5 -6.39488e-14,-20.5 104.361,-20.5 104.361,-0.5 -6.39488e-14,-0.5"/>
<text text-anchor="middle" x="52.1805" y="-7.5" font-family="Helvetica,sans-Serif" font-size="10.00">panda::PFCand::init</text>
</g>
<!-- Node2 -->
<g id="node2" class="node"><title>Node2</title>
<g id="a_node2"><a xlink:href="classpanda_1_1ParticleM.html#a92df7a2653432fa4d304039e1e62c41b" target="_top" xlink:title="Reset object state. ">
<polygon fill="white" stroke="black" points="140.361,-0.5 140.361,-20.5 249.71,-20.5 249.71,-0.5 140.361,-0.5"/>
<text text-anchor="middle" x="195.035" y="-7.5" font-family="Helvetica,sans-Serif" font-size="10.00">panda::ParticleM::init</text>
</a>
</g>
</g>
<!-- Node1&#45;&gt;Node2 -->
<g id="edge1" class="edge"><title>Node1&#45;&gt;Node2</title>
<path fill="none" stroke="midnightblue" d="M104.431,-10.5C112.798,-10.5 121.557,-10.5 130.182,-10.5"/>
<polygon fill="midnightblue" stroke="midnightblue" points="130.216,-14.0001 140.216,-10.5 130.216,-7.0001 130.216,-14.0001"/>
</g>
<!-- Node3 -->
<g id="node3" class="node"><title>Node3</title>
<g id="a_node3"><a xlink:href="classpanda_1_1Particle.html#a56ba0060e9e37322f98e2f30c3583dd3" target="_top" xlink:title="Reset object state. ">
<polygon fill="white" stroke="black" points="285.71,-0.5 285.71,-20.5 386.73,-20.5 386.73,-0.5 285.71,-0.5"/>
<text text-anchor="middle" x="336.22" y="-7.5" font-family="Helvetica,sans-Serif" font-size="10.00">panda::Particle::init</text>
</a>
</g>
</g>
<!-- Node2&#45;&gt;Node3 -->
<g id="edge2" class="edge"><title>Node2&#45;&gt;Node3</title>
<path fill="none" stroke="midnightblue" d="M249.848,-10.5C258.223,-10.5 266.92,-10.5 275.419,-10.5"/>
<polygon fill="midnightblue" stroke="midnightblue" points="275.651,-14.0001 285.651,-10.5 275.651,-7.0001 275.651,-14.0001"/>
</g>
<!-- Node4 -->
<g id="node4" class="node"><title>Node4</title>
<g id="a_node4"><a xlink:href="classpanda_1_1Object.html#a204960e5f165a28176f9b4a42b9ea90c" target="_top" xlink:title="Reset object state. ">
<polygon fill="white" stroke="black" points="422.73,-0.5 422.73,-20.5 519.312,-20.5 519.312,-0.5 422.73,-0.5"/>
<text text-anchor="middle" x="471.021" y="-7.5" font-family="Helvetica,sans-Serif" font-size="10.00">panda::Object::init</text>
</a>
</g>
</g>
<!-- Node3&#45;&gt;Node4 -->
<g id="edge3" class="edge"><title>Node3&#45;&gt;Node4</title>
<path fill="none" stroke="midnightblue" d="M387.048,-10.5C395.315,-10.5 403.949,-10.5 412.39,-10.5"/>
<polygon fill="midnightblue" stroke="midnightblue" points="412.553,-14.0001 422.553,-10.5 412.553,-7.0001 412.553,-14.0001"/>
</g>
</g>
</svg>
