<?xml version="1.0" encoding="UTF-8" standalone="no"?>
<!DOCTYPE svg PUBLIC "-//W3C//DTD SVG 1.1//EN"
 "http://www.w3.org/Graphics/SVG/1.1/DTD/svg11.dtd">
<!-- Generated by graphviz version 2.38.0 (20140413.2041)
 -->
<!-- Title: panda.refbranch.RefBranch.init_standard Pages: 1 -->
<svg width="320pt" height="41pt"
 viewBox="0.00 0.00 319.96 41.00" xmlns="http://www.w3.org/2000/svg" xmlns:xlink="http://www.w3.org/1999/xlink">
<g id="graph0" class="graph" transform="scale(1 1) rotate(0) translate(4 37)">
<title>panda.refbranch.RefBranch.init_standard</title>
<polygon fill="white" stroke="none" points="-4,4 -4,-37 315.963,-37 315.963,4 -4,4"/>
<!-- Node1 -->
<g id="node1" class="node"><title>Node1</title>
<polygon fill="#bfbfbf" stroke="black" points="-1.42109e-14,-0.5 -1.42109e-14,-32.5 154.372,-32.5 154.372,-0.5 -1.42109e-14,-0.5"/>
<text text-anchor="start" x="8" y="-19.5" font-family="Helvetica,sans-Serif" font-size="10.00">panda.refbranch.RefBranch.init</text>
<text text-anchor="middle" x="77.186" y="-7.5" font-family="Helvetica,sans-Serif" font-size="10.00">_standard</text>
</g>
<!-- Node2 -->
<g id="node2" class="node"><title>Node2</title>
<g id="a_node2"><a xlink:href="classpanda_1_1branch_1_1Branch.html#a9ff4186314d76f2444161163bd992495" target="_top" xlink:title="panda.branch.Branch.is\l_array">
<polygon fill="white" stroke="black" points="190.372,-0.5 190.372,-32.5 311.963,-32.5 311.963,-0.5 190.372,-0.5"/>
<text text-anchor="start" x="198.372" y="-19.5" font-family="Helvetica,sans-Serif" font-size="10.00">panda.branch.Branch.is</text>
<text text-anchor="middle" x="251.167" y="-7.5" font-family="Helvetica,sans-Serif" font-size="10.00">_array</text>
</a>
</g>
</g>
<!-- Node1&#45;&gt;Node2 -->
<g id="edge1" class="edge"><title>Node1&#45;&gt;Node2</title>
<path fill="none" stroke="midnightblue" d="M154.621,-16.5C163.104,-16.5 171.712,-16.5 180.11,-16.5"/>
<polygon fill="midnightblue" stroke="midnightblue" points="180.227,-20.0001 190.227,-16.5 180.227,-13.0001 180.227,-20.0001"/>
</g>
</g>
</svg>
