<?xml version="1.0" encoding="UTF-8" standalone="no"?>
<!DOCTYPE svg PUBLIC "-//W3C//DTD SVG 1.1//EN"
 "http://www.w3.org/Graphics/SVG/1.1/DTD/svg11.dtd">
<!-- Generated by graphviz version 2.38.0 (20140413.2041)
 -->
<!-- Title: panda::Jet::setStatus Pages: 1 -->
<svg width="278pt" height="29pt"
 viewBox="0.00 0.00 278.31 29.00" xmlns="http://www.w3.org/2000/svg" xmlns:xlink="http://www.w3.org/1999/xlink">
<g id="graph0" class="graph" transform="scale(1 1) rotate(0) translate(4 25)">
<title>panda::Jet::setStatus</title>
<polygon fill="white" stroke="none" points="-4,4 -4,-25 274.311,-25 274.311,4 -4,4"/>
<!-- Node1 -->
<g id="node1" class="node"><title>Node1</title>
<polygon fill="#bfbfbf" stroke="black" points="-1.42109e-14,-0.5 -1.42109e-14,-20.5 109.932,-20.5 109.932,-0.5 -1.42109e-14,-0.5"/>
<text text-anchor="middle" x="54.966" y="-7.5" font-family="Helvetica,sans-Serif" font-size="10.00">panda::Jet::setStatus</text>
</g>
<!-- Node2 -->
<g id="node2" class="node"><title>Node2</title>
<g id="a_node2"><a xlink:href="classpanda_1_1FatJet.html#a0b0f30a26fe1e58a47217baf71978e90" target="_top" xlink:title="Set status of branches with names that correspond to the variables of this object. ">
<polygon fill="white" stroke="black" points="145.932,-0.5 145.932,-20.5 270.311,-20.5 270.311,-0.5 145.932,-0.5"/>
<text text-anchor="middle" x="208.121" y="-7.5" font-family="Helvetica,sans-Serif" font-size="10.00">panda::FatJet::setStatus</text>
</a>
</g>
</g>
<!-- Node1&#45;&gt;Node2 -->
<g id="edge1" class="edge"><title>Node1&#45;&gt;Node2</title>
<path fill="none" stroke="midnightblue" d="M120.329,-10.5C128.809,-10.5 137.482,-10.5 145.907,-10.5"/>
<polygon fill="midnightblue" stroke="midnightblue" points="120.11,-7.0001 110.11,-10.5 120.11,-14.0001 120.11,-7.0001"/>
</g>
</g>
</svg>
