<?xml version="1.0" encoding="UTF-8" standalone="no"?>
<!DOCTYPE svg PUBLIC "-//W3C//DTD SVG 1.1//EN"
 "http://www.w3.org/Graphics/SVG/1.1/DTD/svg11.dtd">
<!-- Generated by graphviz version 2.38.0 (20140413.2041)
 -->
<!-- Title: panda::Particle::~Particle Pages: 1 -->
<svg width="307pt" height="41pt"
 viewBox="0.00 0.00 307.45 41.00" xmlns="http://www.w3.org/2000/svg" xmlns:xlink="http://www.w3.org/1999/xlink">
<g id="graph0" class="graph" transform="scale(1 1) rotate(0) translate(4 37)">
<title>panda::Particle::~Particle</title>
<polygon fill="white" stroke="none" points="-4,4 -4,-37 303.451,-37 303.451,4 -4,4"/>
<!-- Node1 -->
<g id="node1" class="node"><title>Node1</title>
<polygon fill="#bfbfbf" stroke="black" points="-2.13163e-14,-6.5 -2.13163e-14,-26.5 127.416,-26.5 127.416,-6.5 -2.13163e-14,-6.5"/>
<text text-anchor="middle" x="63.708" y="-13.5" font-family="Helvetica,sans-Serif" font-size="10.00">panda::Particle::~Particle</text>
</g>
<!-- Node2 -->
<g id="node2" class="node"><title>Node2</title>
<g id="a_node2"><a xlink:href="classpanda_1_1utils_1_1StoreManager.html#a89a7b1715f9c7334b9ffdddeed298d4e" target="_top" xlink:title="panda::utils::StoreManager\l::free">
<polygon fill="white" stroke="black" points="163.416,-0.5 163.416,-32.5 299.451,-32.5 299.451,-0.5 163.416,-0.5"/>
<text text-anchor="start" x="171.416" y="-19.5" font-family="Helvetica,sans-Serif" font-size="10.00">panda::utils::StoreManager</text>
<text text-anchor="middle" x="231.433" y="-7.5" font-family="Helvetica,sans-Serif" font-size="10.00">::free</text>
</a>
</g>
</g>
<!-- Node1&#45;&gt;Node2 -->
<g id="edge1" class="edge"><title>Node1&#45;&gt;Node2</title>
<path fill="none" stroke="midnightblue" d="M127.834,-16.5C136.093,-16.5 144.63,-16.5 153.09,-16.5"/>
<polygon fill="midnightblue" stroke="midnightblue" points="153.347,-20.0001 163.347,-16.5 153.347,-13.0001 153.347,-20.0001"/>
</g>
</g>
</svg>
