<?xml version="1.0" encoding="UTF-8" standalone="no"?>
<!DOCTYPE svg PUBLIC "-//W3C//DTD SVG 1.1//EN"
 "http://www.w3.org/Graphics/SVG/1.1/DTD/svg11.dtd">
<!-- Generated by graphviz version 2.38.0 (20140413.2041)
 -->
<!-- Title: panda::FatJet::book Pages: 1 -->
<!--zoomable 314 -->
<svg id="main" version="1.1" xmlns="http://www.w3.org/2000/svg" xmlns:xlink="http://www.w3.org/1999/xlink" xml:space="preserve" onload="init(evt)">
<style type="text/css"><![CDATA[
.edge:hover path { stroke: red; }
.edge:hover polygon { stroke: red; fill: red; }
]]></style>
<script type="text/javascript"><![CDATA[
var edges = document.getElementsByTagName('g');
if (edges && edges.length) {
  for (var i=0;i<edges.length;i++) {
    if (edges[i].id.substr(0,4)=='edge') {
      edges[i].setAttribute('class','edge');
    }
  }
}
]]></script>
        <defs>
                <circle id="rim" cx="0" cy="0" r="7"/>
                <circle id="rim2" cx="0" cy="0" r="3.5"/>
                <g id="zoomPlus">
                        <use xlink:href="#rim" fill="#404040">
                                <set attributeName="fill" to="#808080" begin="zoomplus.mouseover" end="zoomplus.mouseout"/>
                        </use>
                        <path d="M-4,0h8M0,-4v8" fill="none" stroke="white" stroke-width="1.5" pointer-events="none"/>
                </g>
                <g id="zoomMin">
                        <use xlink:href="#rim" fill="#404040">
                                <set attributeName="fill" to="#808080" begin="zoomminus.mouseover" end="zoomminus.mouseout"/>
                        </use>
                        <path d="M-4,0h8" fill="none" stroke="white" stroke-width="1.5" pointer-events="none"/>
                </g>
                <g id="dirArrow">
                        <path fill="none" stroke="white" stroke-width="1.5" d="M0,-3.0v7 M-2.5,-0.5L0,-3.0L2.5,-0.5"/>
                </g>
               <g id="resetDef">
                       <use xlink:href="#rim2" fill="#404040">
                               <set attributeName="fill" to="#808080" begin="reset.mouseover" end="reset.mouseout"/>
                       </use>
               </g>
        </defs>

<script type="text/javascript">
var viewWidth = 1063;
var viewHeight = 314;
var sectionId = 'dynsection-4';
</script>
<script xlink:href="svgpan.js"/>
<svg id="graph" class="graph">
<g id="viewport">
<title>panda::FatJet::book</title>
<polygon fill="white" stroke="none" points="-4,4 -4,-310 1058.9,-310 1058.9,4 -4,4"/>
<!-- Node1 -->
<g id="node1" class="node"><title>Node1</title>
<polygon fill="#bfbfbf" stroke="black" points="-8.52651e-14,-183 -8.52651e-14,-203 104.373,-203 104.373,-183 -8.52651e-14,-183"/>
<text text-anchor="middle" x="52.1865" y="-190" font-family="Helvetica,sans-Serif" font-size="10.00">panda::FatJet::book</text>
</g>
<!-- Node2 -->
<g id="node2" class="node"><title>Node2</title>
<g id="a_node2"><a xlink:href="classpanda_1_1Jet.html#af047a1a3e21716a28f9a1deaa9d43123" target="_top" xlink:title="Book new branches to the tree corresponding to the variables of this object. ">
<polygon fill="white" stroke="black" points="140.373,-183 140.373,-203 230.299,-203 230.299,-183 140.373,-183"/>
<text text-anchor="middle" x="185.336" y="-190" font-family="Helvetica,sans-Serif" font-size="10.00">panda::Jet::book</text>
</a>
</g>
</g>
<!-- Node1&#45;&gt;Node2 -->
<g id="edge1" class="edge"><title>Node1&#45;&gt;Node2</title>
<path fill="none" stroke="midnightblue" d="M104.644,-193C113.011,-193 121.7,-193 130.13,-193"/>
<polygon fill="midnightblue" stroke="midnightblue" points="130.246,-196.5 140.246,-193 130.246,-189.5 130.246,-196.5"/>
</g>
<!-- Node7 -->
<g id="node7" class="node"><title>Node7</title>
<g id="a_node7"><a xlink:href="classpanda_1_1utils_1_1StoreManager.html#a6f30ec459d951e84a1196b7e2ffdcf49" target="_top" xlink:title="panda::utils::StoreManager\l::getName">
<polygon fill="white" stroke="black" points="738.505,-60 738.505,-92 874.54,-92 874.54,-60 738.505,-60"/>
<text text-anchor="start" x="746.505" y="-79" font-family="Helvetica,sans-Serif" font-size="10.00">panda::utils::StoreManager</text>
<text text-anchor="middle" x="806.522" y="-67" font-family="Helvetica,sans-Serif" font-size="10.00">::getName</text>
</a>
</g>
</g>
<!-- Node1&#45;&gt;Node7 -->
<g id="edge17" class="edge"><title>Node1&#45;&gt;Node7</title>
<path fill="none" stroke="midnightblue" d="M60.3405,-182.895C89.3749,-143.184 203.092,-0 333.316,-0 333.316,-0 333.316,-0 498.459,-0 592.099,-0 697.221,-33.7149 756.989,-56.2334"/>
<polygon fill="midnightblue" stroke="midnightblue" points="755.949,-59.5827 766.539,-59.8824 758.447,-53.0437 755.949,-59.5827"/>
</g>
<!-- Node8 -->
<g id="node8" class="node"><title>Node8</title>
<g id="a_node8"><a xlink:href="namespacepanda_1_1utils.html#aaa6c7cd5892388e6ffdf713b11abf793" target="_top" xlink:title="Book the branch. ">
<polygon fill="white" stroke="black" points="759.34,-220 759.34,-240 853.704,-240 853.704,-220 759.34,-220"/>
<text text-anchor="middle" x="806.522" y="-227" font-family="Helvetica,sans-Serif" font-size="10.00">panda::utils::book</text>
</a>
</g>
</g>
<!-- Node1&#45;&gt;Node8 -->
<g id="edge18" class="edge"><title>Node1&#45;&gt;Node8</title>
<path fill="none" stroke="midnightblue" d="M66.9632,-203.028C106.36,-230.683 223.714,-306 333.316,-306 333.316,-306 333.316,-306 498.459,-306 600.779,-306 716.808,-265.745 772.396,-243.829"/>
<polygon fill="midnightblue" stroke="midnightblue" points="773.753,-247.055 781.739,-240.092 771.154,-240.556 773.753,-247.055"/>
</g>
<!-- Node3 -->
<g id="node3" class="node"><title>Node3</title>
<g id="a_node3"><a xlink:href="classpanda_1_1MicroJet.html#a6d1f2d8a49162e3abdebd7647df6131e" target="_top" xlink:title="Book new branches to the tree corresponding to the variables of this object. ">
<polygon fill="white" stroke="black" points="277.135,-161 277.135,-181 391.497,-181 391.497,-161 277.135,-161"/>
<text text-anchor="middle" x="334.316" y="-168" font-family="Helvetica,sans-Serif" font-size="10.00">panda::MicroJet::book</text>
</a>
</g>
</g>
<!-- Node2&#45;&gt;Node3 -->
<g id="edge2" class="edge"><title>Node2&#45;&gt;Node3</title>
<path fill="none" stroke="midnightblue" d="M230.435,-186.399C241.864,-184.689 254.428,-182.808 266.731,-180.966"/>
<polygon fill="midnightblue" stroke="midnightblue" points="267.603,-184.375 276.974,-179.433 266.566,-177.452 267.603,-184.375"/>
</g>
<!-- Node2&#45;&gt;Node7 -->
<g id="edge14" class="edge"><title>Node2&#45;&gt;Node7</title>
<path fill="none" stroke="midnightblue" d="M202.989,-182.884C218.824,-173.599 243.538,-159.964 266.299,-151 404.386,-96.6191 444.731,-92.8315 592.584,-80 637.409,-76.1098 687.734,-75.0142 728.2,-74.9353"/>
<polygon fill="midnightblue" stroke="midnightblue" points="728.267,-78.4352 738.267,-74.9361 728.267,-71.4352 728.267,-78.4352"/>
</g>
<!-- Node2&#45;&gt;Node8 -->
<g id="edge15" class="edge"><title>Node2&#45;&gt;Node8</title>
<path fill="none" stroke="midnightblue" d="M230.425,-198.484C304.903,-207.442 460.44,-224.833 592.584,-231 641.385,-233.277 653.652,-231.237 702.505,-231 717.546,-230.927 733.821,-230.794 748.897,-230.648"/>
<polygon fill="midnightblue" stroke="midnightblue" points="749.148,-234.146 759.113,-230.546 749.078,-227.147 749.148,-234.146"/>
</g>
<!-- Node11 -->
<g id="node11" class="node"><title>Node11</title>
<g id="a_node11"><a xlink:href="classpanda_1_1utils_1_1StoreManager.html#ae6c8fb6b0c3d25147b09ef8b92b61da8" target="_top" xlink:title="panda::utils::StoreManager\l::getData">
<polygon fill="white" stroke="black" points="266.299,-245 266.299,-277 402.334,-277 402.334,-245 266.299,-245"/>
<text text-anchor="start" x="274.299" y="-264" font-family="Helvetica,sans-Serif" font-size="10.00">panda::utils::StoreManager</text>
<text text-anchor="middle" x="334.316" y="-252" font-family="Helvetica,sans-Serif" font-size="10.00">::getData</text>
</a>
</g>
</g>
<!-- Node2&#45;&gt;Node11 -->
<g id="edge16" class="edge"><title>Node2&#45;&gt;Node11</title>
<path fill="none" stroke="midnightblue" d="M208.023,-203.034C229.382,-212.915 262.617,-228.291 289.491,-240.725"/>
<polygon fill="midnightblue" stroke="midnightblue" points="288.157,-243.963 298.702,-244.986 291.096,-237.61 288.157,-243.963"/>
</g>
<!-- Node4 -->
<g id="node4" class="node"><title>Node4</title>
<g id="a_node4"><a xlink:href="classpanda_1_1ParticleM.html#acb4f53549465b6799cc02899a1a579eb" target="_top" xlink:title="Book new branches to the tree corresponding to the variables of this object. ">
<polygon fill="white" stroke="black" points="438.334,-155 438.334,-175 556.584,-175 556.584,-155 438.334,-155"/>
<text text-anchor="middle" x="497.459" y="-162" font-family="Helvetica,sans-Serif" font-size="10.00">panda::ParticleM::book</text>
</a>
</g>
</g>
<!-- Node3&#45;&gt;Node4 -->
<g id="edge3" class="edge"><title>Node3&#45;&gt;Node4</title>
<path fill="none" stroke="midnightblue" d="M391.676,-168.901C403.447,-168.463 415.977,-167.997 428.127,-167.544"/>
<polygon fill="midnightblue" stroke="midnightblue" points="428.356,-171.038 438.219,-167.169 428.095,-164.043 428.356,-171.038"/>
</g>
<!-- Node3&#45;&gt;Node7 -->
<g id="edge12" class="edge"><title>Node3&#45;&gt;Node7</title>
<path fill="none" stroke="midnightblue" d="M365.034,-160.947C412.541,-145.273 508.783,-115.137 592.584,-99 637.184,-90.4115 687.701,-84.7826 728.335,-81.2443"/>
<polygon fill="midnightblue" stroke="midnightblue" points="728.774,-84.7198 738.444,-80.3892 728.184,-77.7447 728.774,-84.7198"/>
</g>
<!-- Node3&#45;&gt;Node8 -->
<g id="edge13" class="edge"><title>Node3&#45;&gt;Node8</title>
<path fill="none" stroke="midnightblue" d="M391.631,-180.839C443.654,-189.671 523.152,-202.514 592.584,-211 645.62,-217.482 706.344,-222.682 749.339,-225.992"/>
<polygon fill="midnightblue" stroke="midnightblue" points="749.087,-229.483 759.324,-226.752 749.618,-222.503 749.087,-229.483"/>
</g>
<!-- Node5 -->
<g id="node5" class="node"><title>Node5</title>
<g id="a_node5"><a xlink:href="classpanda_1_1Particle.html#aaf351374f253978216b4a893a1766a64" target="_top" xlink:title="Book new branches to the tree corresponding to the variables of this object. ">
<polygon fill="white" stroke="black" points="592.584,-143 592.584,-163 702.505,-163 702.505,-143 592.584,-143"/>
<text text-anchor="middle" x="647.544" y="-150" font-family="Helvetica,sans-Serif" font-size="10.00">panda::Particle::book</text>
</a>
</g>
</g>
<!-- Node4&#45;&gt;Node5 -->
<g id="edge4" class="edge"><title>Node4&#45;&gt;Node5</title>
<path fill="none" stroke="midnightblue" d="M556.986,-160.257C565.263,-159.587 573.81,-158.894 582.189,-158.215"/>
<polygon fill="midnightblue" stroke="midnightblue" points="582.612,-161.692 592.296,-157.396 582.046,-154.715 582.612,-161.692"/>
</g>
<!-- Node4&#45;&gt;Node7 -->
<g id="edge10" class="edge"><title>Node4&#45;&gt;Node7</title>
<path fill="none" stroke="midnightblue" d="M526.309,-154.991C544.962,-148.422 570.122,-139.816 592.584,-133 638.256,-119.14 689.967,-105.256 730.992,-94.6612"/>
<polygon fill="midnightblue" stroke="midnightblue" points="732.1,-97.9903 740.912,-92.1094 730.356,-91.2109 732.1,-97.9903"/>
</g>
<!-- Node4&#45;&gt;Node8 -->
<g id="edge11" class="edge"><title>Node4&#45;&gt;Node8</title>
<path fill="none" stroke="midnightblue" d="M545.765,-175.014C600.63,-186.628 690.994,-205.756 749.371,-218.114"/>
<polygon fill="midnightblue" stroke="midnightblue" points="748.661,-221.541 759.169,-220.188 750.11,-214.693 748.661,-221.541"/>
</g>
<!-- Node6 -->
<g id="node6" class="node"><title>Node6</title>
<g id="a_node6"><a xlink:href="classpanda_1_1Object.html#a2fcd6665633deef16e86aa4e49135dd7" target="_top" xlink:title="Book new branches to the tree corresponding to the variables of this object. ">
<polygon fill="white" stroke="black" points="753.781,-143 753.781,-163 859.264,-163 859.264,-143 753.781,-143"/>
<text text-anchor="middle" x="806.522" y="-150" font-family="Helvetica,sans-Serif" font-size="10.00">panda::Object::book</text>
</a>
</g>
</g>
<!-- Node5&#45;&gt;Node6 -->
<g id="edge5" class="edge"><title>Node5&#45;&gt;Node6</title>
<path fill="none" stroke="midnightblue" d="M702.567,-153C715.713,-153 729.875,-153 743.364,-153"/>
<polygon fill="midnightblue" stroke="midnightblue" points="743.52,-156.5 753.52,-153 743.52,-149.5 743.52,-156.5"/>
</g>
<!-- Node5&#45;&gt;Node7 -->
<g id="edge6" class="edge"><title>Node5&#45;&gt;Node7</title>
<path fill="none" stroke="midnightblue" d="M670.677,-142.949C680.466,-138.451 692.096,-133.037 702.505,-128 723.272,-117.951 746.201,-106.421 765.145,-96.7754"/>
<polygon fill="midnightblue" stroke="midnightblue" points="766.782,-99.8697 774.098,-92.2064 763.6,-93.6347 766.782,-99.8697"/>
</g>
<!-- Node5&#45;&gt;Node8 -->
<g id="edge7" class="edge"><title>Node5&#45;&gt;Node8</title>
<path fill="none" stroke="midnightblue" d="M670.677,-163.051C680.466,-167.549 692.096,-172.963 702.505,-178 727.726,-190.204 756.135,-204.592 776.722,-215.137"/>
<polygon fill="midnightblue" stroke="midnightblue" points="775.376,-218.38 785.871,-219.834 778.573,-212.153 775.376,-218.38"/>
</g>
<!-- Node9 -->
<g id="node9" class="node"><title>Node9</title>
<g id="a_node9"><a xlink:href="classpanda_1_1utils_1_1BranchName.html#a6cc8a6df7c5b12a0221fd49773cca6a7" target="_top" xlink:title="Is the name included and not vetoed? ">
<polygon fill="white" stroke="black" points="910.54,-242 910.54,-262 1054.9,-262 1054.9,-242 910.54,-242"/>
<text text-anchor="middle" x="982.722" y="-249" font-family="Helvetica,sans-Serif" font-size="10.00">panda::utils::BranchName::in</text>
</a>
</g>
</g>
<!-- Node8&#45;&gt;Node9 -->
<g id="edge8" class="edge"><title>Node8&#45;&gt;Node9</title>
<path fill="none" stroke="midnightblue" d="M853.747,-235.838C867.969,-237.634 884.071,-239.667 899.937,-241.671"/>
<polygon fill="midnightblue" stroke="midnightblue" points="899.947,-245.2 910.307,-242.981 900.824,-238.255 899.947,-245.2"/>
</g>
<!-- Node10 -->
<g id="node10" class="node"><title>Node10</title>
<g id="a_node10"><a xlink:href="classpanda_1_1utils_1_1BranchName.html#a13958ff4a9d554d2c057c600b4f70412" target="_top" xlink:title="Prepend the branch name with &lt;objName.&gt;. ">
<polygon fill="white" stroke="black" points="917.208,-191 917.208,-223 1048.24,-223 1048.24,-191 917.208,-191"/>
<text text-anchor="start" x="925.208" y="-210" font-family="Helvetica,sans-Serif" font-size="10.00">panda::utils::BranchName</text>
<text text-anchor="middle" x="982.722" y="-198" font-family="Helvetica,sans-Serif" font-size="10.00">::fullName</text>
</a>
</g>
</g>
<!-- Node8&#45;&gt;Node10 -->
<g id="edge9" class="edge"><title>Node8&#45;&gt;Node10</title>
<path fill="none" stroke="midnightblue" d="M853.747,-223.897C870.076,-221.741 888.884,-219.258 906.967,-216.87"/>
<polygon fill="midnightblue" stroke="midnightblue" points="907.463,-220.335 916.918,-215.556 906.546,-213.395 907.463,-220.335"/>
</g>
</g>
</svg>
        <g id="navigator" transform="translate(0 0)" fill="#404254">
                <rect fill="#f2f5e9" fill-opacity="0.5" stroke="#606060" stroke-width=".5" x="0" y="0" width="60" height="60"/>
                <use id="zoomplus" xlink:href="#zoomPlus" x="17" y="9" onmousedown="handleZoom(evt,'in')"/>
                <use id="zoomminus" xlink:href="#zoomMin" x="42" y="9" onmousedown="handleZoom(evt,'out')"/>
                <use id="reset" xlink:href="#resetDef" x="30" y="36" onmousedown="handleReset()"/>
                <g id="arrowUp" xlink:href="#dirArrow" transform="translate(30 24)" onmousedown="handlePan(0,-1)">
                  <use xlink:href="#rim" fill="#404040">
                        <set attributeName="fill" to="#808080" begin="arrowUp.mouseover" end="arrowUp.mouseout"/>
                  </use>
                  <path fill="none" stroke="white" stroke-width="1.5" d="M0,-3.0v7 M-2.5,-0.5L0,-3.0L2.5,-0.5"/>
                </g>
                <g id="arrowRight" xlink:href="#dirArrow" transform="rotate(90) translate(36 -43)" onmousedown="handlePan(1,0)">
                  <use xlink:href="#rim" fill="#404040">
                        <set attributeName="fill" to="#808080" begin="arrowRight.mouseover" end="arrowRight.mouseout"/>
                  </use>
                  <path fill="none" stroke="white" stroke-width="1.5" d="M0,-3.0v7 M-2.5,-0.5L0,-3.0L2.5,-0.5"/>
                </g>
                <g id="arrowDown" xlink:href="#dirArrow" transform="rotate(180) translate(-30 -48)" onmousedown="handlePan(0,1)">
                  <use xlink:href="#rim" fill="#404040">
                        <set attributeName="fill" to="#808080" begin="arrowDown.mouseover" end="arrowDown.mouseout"/>
                  </use>
                  <path fill="none" stroke="white" stroke-width="1.5" d="M0,-3.0v7 M-2.5,-0.5L0,-3.0L2.5,-0.5"/>
                </g>
                <g id="arrowLeft" xlink:href="#dirArrow" transform="rotate(270) translate(-36 17)" onmousedown="handlePan(-1,0)">
                  <use xlink:href="#rim" fill="#404040">
                        <set attributeName="fill" to="#808080" begin="arrowLeft.mouseover" end="arrowLeft.mouseout"/>
                  </use>
                  <path fill="none" stroke="white" stroke-width="1.5" d="M0,-3.0v7 M-2.5,-0.5L0,-3.0L2.5,-0.5"/>
                </g>
        </g>
        <svg viewBox="0 0 15 15" width="100%" height="30px" preserveAspectRatio="xMaxYMin meet">
         <g id="arrow_out" transform="scale(0.3 0.3)">
          <a xlink:href="classpanda_1_1FatJet_a733475668d0bd2a7dd5030909e87305c_cgraph_org.svg" target="_base">
           <rect id="button" ry="5" rx="5" y="6" x="6" height="38" width="38"
                fill="#f2f5e9" fill-opacity="0.5" stroke="#606060" stroke-width="1.0"/>
           <path id="arrow"
             d="M 11.500037,31.436501 C 11.940474,20.09759 22.043105,11.32322 32.158766,21.979434 L 37.068811,17.246167 C 37.068811,17.246167 37.088388,32 37.088388,32 L 22.160133,31.978069 C 22.160133,31.978069 26.997745,27.140456 26.997745,27.140456 C 18.528582,18.264221 13.291696,25.230495 11.500037,31.436501 z"
             style="fill:#404040;"/>
          </a>
         </g>
        </svg>
</svg>
