<?xml version="1.0" encoding="UTF-8" standalone="no"?>
<!DOCTYPE svg PUBLIC "-//W3C//DTD SVG 1.1//EN"
 "http://www.w3.org/Graphics/SVG/1.1/DTD/svg11.dtd">
<!-- Generated by graphviz version 2.38.0 (20140413.2041)
 -->
<!-- Title: panda::Electron::operator= Pages: 1 -->
<svg width="640pt" height="41pt"
 viewBox="0.00 0.00 639.89 41.00" xmlns="http://www.w3.org/2000/svg" xmlns:xlink="http://www.w3.org/1999/xlink">
<g id="graph0" class="graph" transform="scale(1 1) rotate(0) translate(4 37)">
<title>panda::Electron::operator=</title>
<polygon fill="white" stroke="none" points="-4,4 -4,-37 635.893,-37 635.893,4 -4,4"/>
<!-- Node1 -->
<g id="node1" class="node"><title>Node1</title>
<polygon fill="#bfbfbf" stroke="black" points="0,-6.5 0,-26.5 134.655,-26.5 134.655,-6.5 0,-6.5"/>
<text text-anchor="middle" x="67.3275" y="-13.5" font-family="Helvetica,sans-Serif" font-size="10.00">panda::Electron::operator=</text>
</g>
<!-- Node2 -->
<g id="node2" class="node"><title>Node2</title>
<g id="a_node2"><a xlink:href="classpanda_1_1Lepton.html#a24b1cd552930db2af2734d3acbb27257" target="_top" xlink:title="panda::Lepton::operator=">
<polygon fill="white" stroke="black" points="170.655,-6.5 170.655,-26.5 299.211,-26.5 299.211,-6.5 170.655,-6.5"/>
<text text-anchor="middle" x="234.933" y="-13.5" font-family="Helvetica,sans-Serif" font-size="10.00">panda::Lepton::operator=</text>
</a>
</g>
</g>
<!-- Node1&#45;&gt;Node2 -->
<g id="edge1" class="edge"><title>Node1&#45;&gt;Node2</title>
<path fill="none" stroke="midnightblue" d="M134.731,-16.5C143.112,-16.5 151.726,-16.5 160.211,-16.5"/>
<polygon fill="midnightblue" stroke="midnightblue" points="160.474,-20.0001 170.473,-16.5 160.473,-13.0001 160.474,-20.0001"/>
</g>
<!-- Node3 -->
<g id="node3" class="node"><title>Node3</title>
<g id="a_node3"><a xlink:href="classpanda_1_1Particle.html#a8c4fabfceb39b746b0e68a7389e662c4" target="_top" xlink:title="panda::Particle::operator=">
<polygon fill="white" stroke="black" points="335.211,-6.5 335.211,-26.5 466.526,-26.5 466.526,-6.5 335.211,-6.5"/>
<text text-anchor="middle" x="400.868" y="-13.5" font-family="Helvetica,sans-Serif" font-size="10.00">panda::Particle::operator=</text>
</a>
</g>
</g>
<!-- Node2&#45;&gt;Node3 -->
<g id="edge2" class="edge"><title>Node2&#45;&gt;Node3</title>
<path fill="none" stroke="midnightblue" d="M299.315,-16.5C307.734,-16.5 316.428,-16.5 325.018,-16.5"/>
<polygon fill="midnightblue" stroke="midnightblue" points="325.031,-20.0001 335.031,-16.5 325.031,-13.0001 325.031,-20.0001"/>
</g>
<!-- Node4 -->
<g id="node4" class="node"><title>Node4</title>
<g id="a_node4"><a xlink:href="classpanda_1_1ContainerElement.html#ae8ba59e4cb5d7c1d491fc87c9360f039" target="_top" xlink:title="panda::ContainerElement\l::operator=">
<polygon fill="white" stroke="black" points="502.526,-0.5 502.526,-32.5 631.893,-32.5 631.893,-0.5 502.526,-0.5"/>
<text text-anchor="start" x="510.526" y="-19.5" font-family="Helvetica,sans-Serif" font-size="10.00">panda::ContainerElement</text>
<text text-anchor="middle" x="567.209" y="-7.5" font-family="Helvetica,sans-Serif" font-size="10.00">::operator=</text>
</a>
</g>
</g>
<!-- Node3&#45;&gt;Node4 -->
<g id="edge3" class="edge"><title>Node3&#45;&gt;Node4</title>
<path fill="none" stroke="midnightblue" d="M466.82,-16.5C475.112,-16.5 483.649,-16.5 492.073,-16.5"/>
<polygon fill="midnightblue" stroke="midnightblue" points="492.267,-20.0001 502.267,-16.5 492.267,-13.0001 492.267,-20.0001"/>
</g>
</g>
</svg>
