<?xml version="1.0" encoding="UTF-8" standalone="no"?>
<!DOCTYPE svg PUBLIC "-//W3C//DTD SVG 1.1//EN"
 "http://www.w3.org/Graphics/SVG/1.1/DTD/svg11.dtd">
<!-- Generated by graphviz version 2.38.0 (20140413.2041)
 -->
<!-- Title: panda::Container::copy Pages: 1 -->
<svg width="305pt" height="68pt"
 viewBox="0.00 0.00 304.96 68.00" xmlns="http://www.w3.org/2000/svg" xmlns:xlink="http://www.w3.org/1999/xlink">
<g id="graph0" class="graph" transform="scale(1 1) rotate(0) translate(4 64)">
<title>panda::Container::copy</title>
<polygon fill="white" stroke="none" points="-4,4 -4,-64 300.963,-64 300.963,4 -4,4"/>
<!-- Node1 -->
<g id="node1" class="node"><title>Node1</title>
<polygon fill="#bfbfbf" stroke="black" points="1.42109e-14,-19.5 1.42109e-14,-39.5 119.37,-39.5 119.37,-19.5 1.42109e-14,-19.5"/>
<text text-anchor="middle" x="59.685" y="-26.5" font-family="Helvetica,sans-Serif" font-size="10.00">panda::Container::copy</text>
</g>
<!-- Node2 -->
<g id="node2" class="node"><title>Node2</title>
<g id="a_node2"><a xlink:href="classpanda_1_1Container.html#aec587dc1a3991463ce002ee9cb82cb08" target="_top" xlink:title="panda::Container::Container">
<polygon fill="white" stroke="black" points="155.37,-39.5 155.37,-59.5 296.963,-59.5 296.963,-39.5 155.37,-39.5"/>
<text text-anchor="middle" x="226.166" y="-46.5" font-family="Helvetica,sans-Serif" font-size="10.00">panda::Container::Container</text>
</a>
</g>
</g>
<!-- Node1&#45;&gt;Node2 -->
<g id="edge1" class="edge"><title>Node1&#45;&gt;Node2</title>
<path fill="none" stroke="midnightblue" d="M129.737,-37.8963C138.142,-38.9183 146.736,-39.9633 155.155,-40.987"/>
<polygon fill="midnightblue" stroke="midnightblue" points="129.951,-34.3967 119.602,-36.664 129.106,-41.3455 129.951,-34.3967"/>
</g>
<!-- Node3 -->
<g id="node3" class="node"><title>Node3</title>
<g id="a_node3"><a xlink:href="classpanda_1_1Container.html#a12c1ec82df87e7bb377788c76ba07891" target="_top" xlink:title="panda::Container::operator=">
<polygon fill="white" stroke="black" points="155.505,-0.5 155.505,-20.5 296.828,-20.5 296.828,-0.5 155.505,-0.5"/>
<text text-anchor="middle" x="226.166" y="-7.5" font-family="Helvetica,sans-Serif" font-size="10.00">panda::Container::operator=</text>
</a>
</g>
</g>
<!-- Node1&#45;&gt;Node3 -->
<g id="edge2" class="edge"><title>Node1&#45;&gt;Node3</title>
<path fill="none" stroke="midnightblue" d="M129.539,-21.5463C138.102,-20.5572 146.864,-19.5451 155.439,-18.5545"/>
<polygon fill="midnightblue" stroke="midnightblue" points="129.134,-18.0697 119.602,-22.6942 129.938,-25.0235 129.134,-18.0697"/>
</g>
</g>
</svg>
