<?xml version="1.0" encoding="UTF-8" standalone="no"?>
<!DOCTYPE svg PUBLIC "-//W3C//DTD SVG 1.1//EN"
 "http://www.w3.org/Graphics/SVG/1.1/DTD/svg11.dtd">
<!-- Generated by graphviz version 2.38.0 (20140413.2041)
 -->
<!-- Title: panda::Lepton::setStatus Pages: 1 -->
<svg width="304pt" height="68pt"
 viewBox="0.00 0.00 304.43 68.00" xmlns="http://www.w3.org/2000/svg" xmlns:xlink="http://www.w3.org/1999/xlink">
<g id="graph0" class="graph" transform="scale(1 1) rotate(0) translate(4 64)">
<title>panda::Lepton::setStatus</title>
<polygon fill="white" stroke="none" points="-4,4 -4,-64 300.435,-64 300.435,4 -4,4"/>
<!-- Node1 -->
<g id="node1" class="node"><title>Node1</title>
<polygon fill="#bfbfbf" stroke="black" points="-2.13163e-14,-19.5 -2.13163e-14,-39.5 127.168,-39.5 127.168,-19.5 -2.13163e-14,-19.5"/>
<text text-anchor="middle" x="63.584" y="-26.5" font-family="Helvetica,sans-Serif" font-size="10.00">panda::Lepton::setStatus</text>
</g>
<!-- Node2 -->
<g id="node2" class="node"><title>Node2</title>
<g id="a_node2"><a xlink:href="classpanda_1_1Electron.html#abc7d63655cb95a1f16abe847884a2bac" target="_top" xlink:title="Set status of branches with names that correspond to the variables of this object. ">
<polygon fill="white" stroke="black" points="163.168,-39.5 163.168,-59.5 296.435,-59.5 296.435,-39.5 163.168,-39.5"/>
<text text-anchor="middle" x="229.801" y="-46.5" font-family="Helvetica,sans-Serif" font-size="10.00">panda::Electron::setStatus</text>
</a>
</g>
</g>
<!-- Node1&#45;&gt;Node2 -->
<g id="edge1" class="edge"><title>Node1&#45;&gt;Node2</title>
<path fill="none" stroke="midnightblue" d="M137.755,-38.4115C146.148,-39.4336 154.666,-40.4711 162.954,-41.4805"/>
<polygon fill="midnightblue" stroke="midnightblue" points="137.955,-34.91 127.605,-37.1753 137.109,-41.8587 137.955,-34.91"/>
</g>
<!-- Node3 -->
<g id="node3" class="node"><title>Node3</title>
<g id="a_node3"><a xlink:href="classpanda_1_1Muon.html#a2598ab6bec7da6c91027595817e7a51a" target="_top" xlink:title="Set status of branches with names that correspond to the variables of this object. ">
<polygon fill="white" stroke="black" points="169.001,-0.5 169.001,-20.5 290.601,-20.5 290.601,-0.5 169.001,-0.5"/>
<text text-anchor="middle" x="229.801" y="-7.5" font-family="Helvetica,sans-Serif" font-size="10.00">panda::Muon::setStatus</text>
</a>
</g>
</g>
<!-- Node1&#45;&gt;Node3 -->
<g id="edge2" class="edge"><title>Node1&#45;&gt;Node3</title>
<path fill="none" stroke="midnightblue" d="M137.57,-21.0556C148.05,-19.8429 158.732,-18.6071 168.92,-17.4283"/>
<polygon fill="midnightblue" stroke="midnightblue" points="137.137,-17.5822 127.605,-22.2084 137.941,-24.5358 137.137,-17.5822"/>
</g>
</g>
</svg>
