<?xml version="1.0" encoding="UTF-8" standalone="no"?>
<!DOCTYPE svg PUBLIC "-//W3C//DTD SVG 1.1//EN"
 "http://www.w3.org/Graphics/SVG/1.1/DTD/svg11.dtd">
<!-- Generated by graphviz version 2.38.0 (20140413.2041)
 -->
<!-- Title: panda::Jet::operator= Pages: 1 -->
<svg width="281pt" height="68pt"
 viewBox="0.00 0.00 281.09 68.00" xmlns="http://www.w3.org/2000/svg" xmlns:xlink="http://www.w3.org/1999/xlink">
<g id="graph0" class="graph" transform="scale(1 1) rotate(0) translate(4 64)">
<title>panda::Jet::operator=</title>
<polygon fill="white" stroke="none" points="-4,4 -4,-64 277.087,-64 277.087,4 -4,4"/>
<!-- Node1 -->
<g id="node1" class="node"><title>Node1</title>
<polygon fill="#bfbfbf" stroke="black" points="0,-19.5 0,-39.5 111.32,-39.5 111.32,-19.5 0,-19.5"/>
<text text-anchor="middle" x="55.66" y="-26.5" font-family="Helvetica,sans-Serif" font-size="10.00">panda::Jet::operator=</text>
</g>
<!-- Node2 -->
<g id="node2" class="node"><title>Node2</title>
<g id="a_node2"><a xlink:href="classpanda_1_1FatJet.html#ab92df78ab1a2192c18c8d846966bf6d9" target="_top" xlink:title="panda::FatJet::FatJet">
<polygon fill="white" stroke="black" points="154.963,-39.5 154.963,-59.5 265.444,-59.5 265.444,-39.5 154.963,-39.5"/>
<text text-anchor="middle" x="210.203" y="-46.5" font-family="Helvetica,sans-Serif" font-size="10.00">panda::FatJet::FatJet</text>
</a>
</g>
</g>
<!-- Node1&#45;&gt;Node2 -->
<g id="edge1" class="edge"><title>Node1&#45;&gt;Node2</title>
<path fill="none" stroke="midnightblue" d="M121.716,-38.0295C132.715,-39.4715 144.031,-40.9553 154.724,-42.3572"/>
<polygon fill="midnightblue" stroke="midnightblue" points="122.102,-34.5502 111.732,-36.7205 121.192,-41.4908 122.102,-34.5502"/>
</g>
<!-- Node3 -->
<g id="node3" class="node"><title>Node3</title>
<g id="a_node3"><a xlink:href="classpanda_1_1FatJet.html#a20e4f6ca23c2a9a603c33e7f023337fe" target="_top" xlink:title="panda::FatJet::operator=">
<polygon fill="white" stroke="black" points="147.32,-0.5 147.32,-20.5 273.087,-20.5 273.087,-0.5 147.32,-0.5"/>
<text text-anchor="middle" x="210.203" y="-7.5" font-family="Helvetica,sans-Serif" font-size="10.00">panda::FatJet::operator=</text>
</a>
</g>
</g>
<!-- Node1&#45;&gt;Node3 -->
<g id="edge2" class="edge"><title>Node1&#45;&gt;Node3</title>
<path fill="none" stroke="midnightblue" d="M121.87,-21.3778C130.279,-20.3304 138.872,-19.2601 147.227,-18.2195"/>
<polygon fill="midnightblue" stroke="midnightblue" points="121.222,-17.9313 111.732,-22.6406 122.088,-24.8776 121.222,-17.9313"/>
</g>
</g>
</svg>
