<?xml version="1.0" encoding="UTF-8" standalone="no"?>
<!DOCTYPE svg PUBLIC "-//W3C//DTD SVG 1.1//EN"
 "http://www.w3.org/Graphics/SVG/1.1/DTD/svg11.dtd">
<!-- Generated by graphviz version 2.38.0 (20140413.2041)
 -->
<!-- Title: panda::Particle::releaseTree Pages: 1 -->
<!--zoomable 314 -->
<svg id="main" version="1.1" xmlns="http://www.w3.org/2000/svg" xmlns:xlink="http://www.w3.org/1999/xlink" xml:space="preserve" onload="init(evt)">
<style type="text/css"><![CDATA[
.edge:hover path { stroke: red; }
.edge:hover polygon { stroke: red; fill: red; }
]]></style>
<script type="text/javascript"><![CDATA[
var edges = document.getElementsByTagName('g');
if (edges && edges.length) {
  for (var i=0;i<edges.length;i++) {
    if (edges[i].id.substr(0,4)=='edge') {
      edges[i].setAttribute('class','edge');
    }
  }
}
]]></script>
        <defs>
                <circle id="rim" cx="0" cy="0" r="7"/>
                <circle id="rim2" cx="0" cy="0" r="3.5"/>
                <g id="zoomPlus">
                        <use xlink:href="#rim" fill="#404040">
                                <set attributeName="fill" to="#808080" begin="zoomplus.mouseover" end="zoomplus.mouseout"/>
                        </use>
                        <path d="M-4,0h8M0,-4v8" fill="none" stroke="white" stroke-width="1.5" pointer-events="none"/>
                </g>
                <g id="zoomMin">
                        <use xlink:href="#rim" fill="#404040">
                                <set attributeName="fill" to="#808080" begin="zoomminus.mouseover" end="zoomminus.mouseout"/>
                        </use>
                        <path d="M-4,0h8" fill="none" stroke="white" stroke-width="1.5" pointer-events="none"/>
                </g>
                <g id="dirArrow">
                        <path fill="none" stroke="white" stroke-width="1.5" d="M0,-3.0v7 M-2.5,-0.5L0,-3.0L2.5,-0.5"/>
                </g>
               <g id="resetDef">
                       <use xlink:href="#rim2" fill="#404040">
                               <set attributeName="fill" to="#808080" begin="reset.mouseover" end="reset.mouseout"/>
                       </use>
               </g>
        </defs>

<script type="text/javascript">
var viewWidth = 847;
var viewHeight = 314;
var sectionId = 'dynsection-22';
</script>
<script xlink:href="svgpan.js"/>
<svg id="graph" class="graph">
<g id="viewport">
<title>panda::Particle::releaseTree</title>
<polygon fill="white" stroke="none" points="-4,4 -4,-310 843.147,-310 843.147,4 -4,4"/>
<!-- Node1 -->
<g id="node1" class="node"><title>Node1</title>
<polygon fill="#bfbfbf" stroke="black" points="4.26326e-14,-117.5 4.26326e-14,-137.5 141.584,-137.5 141.584,-117.5 4.26326e-14,-117.5"/>
<text text-anchor="middle" x="70.792" y="-124.5" font-family="Helvetica,sans-Serif" font-size="10.00">panda::Particle::releaseTree</text>
</g>
<!-- Node2 -->
<g id="node2" class="node"><title>Node2</title>
<g id="a_node2"><a xlink:href="classpanda_1_1Lepton.html#a6c7aa6fc6916d294290b96cfa5ee5585" target="_top" xlink:title="Reset the branch pointer to unlink the branch from this object. ">
<polygon fill="white" stroke="black" points="183.128,-246.5 183.128,-266.5 321.953,-266.5 321.953,-246.5 183.128,-246.5"/>
<text text-anchor="middle" x="252.54" y="-253.5" font-family="Helvetica,sans-Serif" font-size="10.00">panda::Lepton::releaseTree</text>
</a>
</g>
</g>
<!-- Node1&#45;&gt;Node2 -->
<g id="edge1" class="edge"><title>Node1&#45;&gt;Node2</title>
<path fill="none" stroke="midnightblue" d="M94.1771,-143.565C131.756,-170.534 206.455,-224.144 237.501,-246.425"/>
<polygon fill="midnightblue" stroke="midnightblue" points="96.0616,-140.61 85.8966,-137.622 91.9802,-146.297 96.0616,-140.61"/>
</g>
<!-- Node5 -->
<g id="node5" class="node"><title>Node5</title>
<g id="a_node5"><a xlink:href="classpanda_1_1ParticleM.html#a0315a281e15ff66329eef5169b162e8e" target="_top" xlink:title="Reset the branch pointer to unlink the branch from this object. ">
<polygon fill="white" stroke="black" points="177.584,-117.5 177.584,-137.5 327.497,-137.5 327.497,-117.5 177.584,-117.5"/>
<text text-anchor="middle" x="252.54" y="-124.5" font-family="Helvetica,sans-Serif" font-size="10.00">panda::ParticleM::releaseTree</text>
</a>
</g>
</g>
<!-- Node1&#45;&gt;Node5 -->
<g id="edge4" class="edge"><title>Node1&#45;&gt;Node5</title>
<path fill="none" stroke="midnightblue" d="M152.073,-127.5C160.557,-127.5 169.157,-127.5 177.565,-127.5"/>
<polygon fill="midnightblue" stroke="midnightblue" points="151.802,-124 141.802,-127.5 151.802,-131 151.802,-124"/>
</g>
<!-- Node14 -->
<g id="node14" class="node"><title>Node14</title>
<g id="a_node14"><a xlink:href="classpanda_1_1Photon.html#aae96bba0a370e01375787ce12f22bb65" target="_top" xlink:title="Reset the branch pointer to unlink the branch from this object. ">
<polygon fill="white" stroke="black" points="182.573,-78.5 182.573,-98.5 322.508,-98.5 322.508,-78.5 182.573,-78.5"/>
<text text-anchor="middle" x="252.54" y="-85.5" font-family="Helvetica,sans-Serif" font-size="10.00">panda::Photon::releaseTree</text>
</a>
</g>
</g>
<!-- Node1&#45;&gt;Node14 -->
<g id="edge13" class="edge"><title>Node1&#45;&gt;Node14</title>
<path fill="none" stroke="midnightblue" d="M128.108,-115.281C152.975,-109.886 181.844,-103.622 205.408,-98.5094"/>
<polygon fill="midnightblue" stroke="midnightblue" points="127.112,-111.916 118.082,-117.457 128.596,-118.757 127.112,-111.916"/>
</g>
<!-- Node3 -->
<g id="node3" class="node"><title>Node3</title>
<g id="a_node3"><a xlink:href="classpanda_1_1Electron.html#a9c5f1f1de56657622fbb175e0dc65aac" target="_top" xlink:title="Reset the branch pointer to unlink the branch from this object. ">
<polygon fill="white" stroke="black" points="364.047,-285.5 364.047,-305.5 508.971,-305.5 508.971,-285.5 364.047,-285.5"/>
<text text-anchor="middle" x="436.509" y="-292.5" font-family="Helvetica,sans-Serif" font-size="10.00">panda::Electron::releaseTree</text>
</a>
</g>
</g>
<!-- Node2&#45;&gt;Node3 -->
<g id="edge2" class="edge"><title>Node2&#45;&gt;Node3</title>
<path fill="none" stroke="midnightblue" d="M310.217,-268.647C335.466,-274.058 364.846,-280.355 388.807,-285.491"/>
<polygon fill="midnightblue" stroke="midnightblue" points="310.913,-265.217 300.402,-266.543 309.446,-272.061 310.913,-265.217"/>
</g>
<!-- Node4 -->
<g id="node4" class="node"><title>Node4</title>
<g id="a_node4"><a xlink:href="classpanda_1_1Muon.html#a00d513e2558d8da5c4845ec09f2d4b7d" target="_top" xlink:title="Reset the branch pointer to unlink the branch from this object. ">
<polygon fill="white" stroke="black" points="369.881,-246.5 369.881,-266.5 503.138,-266.5 503.138,-246.5 369.881,-246.5"/>
<text text-anchor="middle" x="436.509" y="-253.5" font-family="Helvetica,sans-Serif" font-size="10.00">panda::Muon::releaseTree</text>
</a>
</g>
</g>
<!-- Node2&#45;&gt;Node4 -->
<g id="edge3" class="edge"><title>Node2&#45;&gt;Node4</title>
<path fill="none" stroke="midnightblue" d="M332.438,-256.5C344.885,-256.5 357.639,-256.5 369.746,-256.5"/>
<polygon fill="midnightblue" stroke="midnightblue" points="332.076,-253 322.076,-256.5 332.076,-260 332.076,-253"/>
</g>
<!-- Node6 -->
<g id="node6" class="node"><title>Node6</title>
<g id="a_node6"><a xlink:href="classpanda_1_1GenJet.html#a013d93183730d090e26b228c65cf9ce2" target="_top" xlink:title="Reset the branch pointer to unlink the branch from this object. ">
<polygon fill="white" stroke="black" points="366.266,-207.5 366.266,-227.5 506.752,-227.5 506.752,-207.5 366.266,-207.5"/>
<text text-anchor="middle" x="436.509" y="-214.5" font-family="Helvetica,sans-Serif" font-size="10.00">panda::GenJet::releaseTree</text>
</a>
</g>
</g>
<!-- Node5&#45;&gt;Node6 -->
<g id="edge5" class="edge"><title>Node5&#45;&gt;Node6</title>
<path fill="none" stroke="midnightblue" d="M274.315,-143.783C295.616,-159.767 330.243,-183.823 363.497,-198.5 371.422,-201.998 380.132,-204.967 388.672,-207.443"/>
<polygon fill="midnightblue" stroke="midnightblue" points="276.383,-140.959 266.308,-137.682 272.14,-146.527 276.383,-140.959"/>
</g>
<!-- Node7 -->
<g id="node7" class="node"><title>Node7</title>
<g id="a_node7"><a xlink:href="classpanda_1_1GenParticle.html#a5bd4d21966d73f742f2a37c8ad6e5cf5" target="_top" xlink:title="Reset the branch pointer to unlink the branch from this object. ">
<polygon fill="white" stroke="black" points="385.718,-156.5 385.718,-188.5 487.301,-188.5 487.301,-156.5 385.718,-156.5"/>
<text text-anchor="start" x="393.718" y="-175.5" font-family="Helvetica,sans-Serif" font-size="10.00">panda::GenParticle</text>
<text text-anchor="middle" x="436.509" y="-163.5" font-family="Helvetica,sans-Serif" font-size="10.00">::releaseTree</text>
</a>
</g>
</g>
<!-- Node5&#45;&gt;Node7 -->
<g id="edge6" class="edge"><title>Node5&#45;&gt;Node7</title>
<path fill="none" stroke="midnightblue" d="M304.172,-140.021C329.524,-146.29 360.118,-153.856 385.397,-160.107"/>
<polygon fill="midnightblue" stroke="midnightblue" points="304.926,-136.602 294.378,-137.599 303.245,-143.397 304.926,-136.602"/>
</g>
<!-- Node8 -->
<g id="node8" class="node"><title>Node8</title>
<g id="a_node8"><a xlink:href="classpanda_1_1MicroJet.html#a1f12baa07c2b52599be1e7808da40742" target="_top" xlink:title="Reset the branch pointer to unlink the branch from this object. ">
<polygon fill="white" stroke="black" points="363.497,-117.5 363.497,-137.5 509.522,-137.5 509.522,-117.5 363.497,-117.5"/>
<text text-anchor="middle" x="436.509" y="-124.5" font-family="Helvetica,sans-Serif" font-size="10.00">panda::MicroJet::releaseTree</text>
</a>
</g>
</g>
<!-- Node5&#45;&gt;Node8 -->
<g id="edge7" class="edge"><title>Node5&#45;&gt;Node8</title>
<path fill="none" stroke="midnightblue" d="M337.592,-127.5C346.191,-127.5 354.874,-127.5 363.329,-127.5"/>
<polygon fill="midnightblue" stroke="midnightblue" points="337.554,-124 327.554,-127.5 337.554,-131 337.554,-124"/>
</g>
<!-- Node11 -->
<g id="node11" class="node"><title>Node11</title>
<g id="a_node11"><a xlink:href="classpanda_1_1Parton.html#a6772498c2e5f5fc7fc041e099d8b6348" target="_top" xlink:title="Reset the branch pointer to unlink the branch from this object. ">
<polygon fill="white" stroke="black" points="367.657,-78.5 367.657,-98.5 505.362,-98.5 505.362,-78.5 367.657,-78.5"/>
<text text-anchor="middle" x="436.509" y="-85.5" font-family="Helvetica,sans-Serif" font-size="10.00">panda::Parton::releaseTree</text>
</a>
</g>
</g>
<!-- Node5&#45;&gt;Node11 -->
<g id="edge10" class="edge"><title>Node5&#45;&gt;Node11</title>
<path fill="none" stroke="midnightblue" d="M310.217,-115.353C335.466,-109.942 364.846,-103.645 388.807,-98.5094"/>
<polygon fill="midnightblue" stroke="midnightblue" points="309.446,-111.939 300.402,-117.457 310.913,-118.783 309.446,-111.939"/>
</g>
<!-- Node12 -->
<g id="node12" class="node"><title>Node12</title>
<g id="a_node12"><a xlink:href="classpanda_1_1PFCand.html#ad2c2668cf6c6fd3d6ff09e4bdebbfc2a" target="_top" xlink:title="Reset the branch pointer to unlink the branch from this object. ">
<polygon fill="white" stroke="black" points="364.047,-39.5 364.047,-59.5 508.972,-59.5 508.972,-39.5 364.047,-39.5"/>
<text text-anchor="middle" x="436.509" y="-46.5" font-family="Helvetica,sans-Serif" font-size="10.00">panda::PFCand::releaseTree</text>
</a>
</g>
</g>
<!-- Node5&#45;&gt;Node12 -->
<g id="edge11" class="edge"><title>Node5&#45;&gt;Node12</title>
<path fill="none" stroke="midnightblue" d="M317.395,-113.687C320.898,-112.137 324.293,-110.414 327.497,-108.5 347.749,-96.4039 343.364,-81.7923 363.497,-69.5 370.142,-65.4431 377.627,-62.1893 385.195,-59.5849"/>
<polygon fill="midnightblue" stroke="midnightblue" points="315.953,-110.493 307.921,-117.402 318.509,-117.01 315.953,-110.493"/>
</g>
<!-- Node13 -->
<g id="node13" class="node"><title>Node13</title>
<g id="a_node13"><a xlink:href="classpanda_1_1Tau.html#a00639fe81c56ac1e7bc1d3977d1e9bce" target="_top" xlink:title="Reset the branch pointer to unlink the branch from this object. ">
<polygon fill="white" stroke="black" points="373.77,-0.5 373.77,-20.5 499.248,-20.5 499.248,-0.5 373.77,-0.5"/>
<text text-anchor="middle" x="436.509" y="-7.5" font-family="Helvetica,sans-Serif" font-size="10.00">panda::Tau::releaseTree</text>
</a>
</g>
</g>
<!-- Node5&#45;&gt;Node13 -->
<g id="edge12" class="edge"><title>Node5&#45;&gt;Node13</title>
<path fill="none" stroke="midnightblue" d="M322.015,-112.527C323.925,-111.288 325.76,-109.948 327.497,-108.5 356.824,-84.0516 334.409,-55.2322 363.497,-30.5 368.341,-26.3816 373.969,-23.107 379.903,-20.5041"/>
<polygon fill="midnightblue" stroke="midnightblue" points="320.307,-109.472 313.213,-117.34 323.666,-115.613 320.307,-109.472"/>
</g>
<!-- Node9 -->
<g id="node9" class="node"><title>Node9</title>
<g id="a_node9"><a xlink:href="classpanda_1_1Jet.html#af402d8510a38cfe145405448644ea3eb" target="_top" xlink:title="Reset the branch pointer to unlink the branch from this object. ">
<polygon fill="white" stroke="black" points="545.522,-117.5 545.522,-137.5 667.111,-137.5 667.111,-117.5 545.522,-117.5"/>
<text text-anchor="middle" x="606.316" y="-124.5" font-family="Helvetica,sans-Serif" font-size="10.00">panda::Jet::releaseTree</text>
</a>
</g>
</g>
<!-- Node8&#45;&gt;Node9 -->
<g id="edge8" class="edge"><title>Node8&#45;&gt;Node9</title>
<path fill="none" stroke="midnightblue" d="M519.747,-127.5C528.377,-127.5 537.03,-127.5 545.341,-127.5"/>
<polygon fill="midnightblue" stroke="midnightblue" points="519.649,-124 509.649,-127.5 519.649,-131 519.649,-124"/>
</g>
<!-- Node10 -->
<g id="node10" class="node"><title>Node10</title>
<g id="a_node10"><a xlink:href="classpanda_1_1FatJet.html#a9ade7c13e2e94e5796ed7f60b2366896" target="_top" xlink:title="Reset the branch pointer to unlink the branch from this object. ">
<polygon fill="white" stroke="black" points="703.111,-117.5 703.111,-137.5 839.147,-137.5 839.147,-117.5 703.111,-117.5"/>
<text text-anchor="middle" x="771.129" y="-124.5" font-family="Helvetica,sans-Serif" font-size="10.00">panda::FatJet::releaseTree</text>
</a>
</g>
</g>
<!-- Node9&#45;&gt;Node10 -->
<g id="edge9" class="edge"><title>Node9&#45;&gt;Node10</title>
<path fill="none" stroke="midnightblue" d="M677.664,-127.5C686.1,-127.5 694.697,-127.5 703.085,-127.5"/>
<polygon fill="midnightblue" stroke="midnightblue" points="677.479,-124 667.479,-127.5 677.479,-131 677.479,-124"/>
</g>
</g>
</svg>
        <g id="navigator" transform="translate(0 0)" fill="#404254">
                <rect fill="#f2f5e9" fill-opacity="0.5" stroke="#606060" stroke-width=".5" x="0" y="0" width="60" height="60"/>
                <use id="zoomplus" xlink:href="#zoomPlus" x="17" y="9" onmousedown="handleZoom(evt,'in')"/>
                <use id="zoomminus" xlink:href="#zoomMin" x="42" y="9" onmousedown="handleZoom(evt,'out')"/>
                <use id="reset" xlink:href="#resetDef" x="30" y="36" onmousedown="handleReset()"/>
                <g id="arrowUp" xlink:href="#dirArrow" transform="translate(30 24)" onmousedown="handlePan(0,-1)">
                  <use xlink:href="#rim" fill="#404040">
                        <set attributeName="fill" to="#808080" begin="arrowUp.mouseover" end="arrowUp.mouseout"/>
                  </use>
                  <path fill="none" stroke="white" stroke-width="1.5" d="M0,-3.0v7 M-2.5,-0.5L0,-3.0L2.5,-0.5"/>
                </g>
                <g id="arrowRight" xlink:href="#dirArrow" transform="rotate(90) translate(36 -43)" onmousedown="handlePan(1,0)">
                  <use xlink:href="#rim" fill="#404040">
                        <set attributeName="fill" to="#808080" begin="arrowRight.mouseover" end="arrowRight.mouseout"/>
                  </use>
                  <path fill="none" stroke="white" stroke-width="1.5" d="M0,-3.0v7 M-2.5,-0.5L0,-3.0L2.5,-0.5"/>
                </g>
                <g id="arrowDown" xlink:href="#dirArrow" transform="rotate(180) translate(-30 -48)" onmousedown="handlePan(0,1)">
                  <use xlink:href="#rim" fill="#404040">
                        <set attributeName="fill" to="#808080" begin="arrowDown.mouseover" end="arrowDown.mouseout"/>
                  </use>
                  <path fill="none" stroke="white" stroke-width="1.5" d="M0,-3.0v7 M-2.5,-0.5L0,-3.0L2.5,-0.5"/>
                </g>
                <g id="arrowLeft" xlink:href="#dirArrow" transform="rotate(270) translate(-36 17)" onmousedown="handlePan(-1,0)">
                  <use xlink:href="#rim" fill="#404040">
                        <set attributeName="fill" to="#808080" begin="arrowLeft.mouseover" end="arrowLeft.mouseout"/>
                  </use>
                  <path fill="none" stroke="white" stroke-width="1.5" d="M0,-3.0v7 M-2.5,-0.5L0,-3.0L2.5,-0.5"/>
                </g>
        </g>
        <svg viewBox="0 0 15 15" width="100%" height="30px" preserveAspectRatio="xMaxYMin meet">
         <g id="arrow_out" transform="scale(0.3 0.3)">
          <a xlink:href="classpanda_1_1Particle_a8fb6fa0b4316967da573181262727142_icgraph_org.svg" target="_base">
           <rect id="button" ry="5" rx="5" y="6" x="6" height="38" width="38"
                fill="#f2f5e9" fill-opacity="0.5" stroke="#606060" stroke-width="1.0"/>
           <path id="arrow"
             d="M 11.500037,31.436501 C 11.940474,20.09759 22.043105,11.32322 32.158766,21.979434 L 37.068811,17.246167 C 37.068811,17.246167 37.088388,32 37.088388,32 L 22.160133,31.978069 C 22.160133,31.978069 26.997745,27.140456 26.997745,27.140456 C 18.528582,18.264221 13.291696,25.230495 11.500037,31.436501 z"
             style="fill:#404040;"/>
          </a>
         </g>
        </svg>
</svg>
