<?xml version="1.0" encoding="UTF-8" standalone="no"?>
<!DOCTYPE svg PUBLIC "-//W3C//DTD SVG 1.1//EN"
 "http://www.w3.org/Graphics/SVG/1.1/DTD/svg11.dtd">
<!-- Generated by graphviz version 2.38.0 (20140413.2041)
 -->
<!-- Title: panda::PFCand::setStatus Pages: 1 -->
<!--zoomable 189 -->
<svg id="main" version="1.1" xmlns="http://www.w3.org/2000/svg" xmlns:xlink="http://www.w3.org/1999/xlink" xml:space="preserve" onload="init(evt)">
<style type="text/css"><![CDATA[
.edge:hover path { stroke: red; }
.edge:hover polygon { stroke: red; fill: red; }
]]></style>
<script type="text/javascript"><![CDATA[
var edges = document.getElementsByTagName('g');
if (edges && edges.length) {
  for (var i=0;i<edges.length;i++) {
    if (edges[i].id.substr(0,4)=='edge') {
      edges[i].setAttribute('class','edge');
    }
  }
}
]]></script>
        <defs>
                <circle id="rim" cx="0" cy="0" r="7"/>
                <circle id="rim2" cx="0" cy="0" r="3.5"/>
                <g id="zoomPlus">
                        <use xlink:href="#rim" fill="#404040">
                                <set attributeName="fill" to="#808080" begin="zoomplus.mouseover" end="zoomplus.mouseout"/>
                        </use>
                        <path d="M-4,0h8M0,-4v8" fill="none" stroke="white" stroke-width="1.5" pointer-events="none"/>
                </g>
                <g id="zoomMin">
                        <use xlink:href="#rim" fill="#404040">
                                <set attributeName="fill" to="#808080" begin="zoomminus.mouseover" end="zoomminus.mouseout"/>
                        </use>
                        <path d="M-4,0h8" fill="none" stroke="white" stroke-width="1.5" pointer-events="none"/>
                </g>
                <g id="dirArrow">
                        <path fill="none" stroke="white" stroke-width="1.5" d="M0,-3.0v7 M-2.5,-0.5L0,-3.0L2.5,-0.5"/>
                </g>
               <g id="resetDef">
                       <use xlink:href="#rim2" fill="#404040">
                               <set attributeName="fill" to="#808080" begin="reset.mouseover" end="reset.mouseout"/>
                       </use>
               </g>
        </defs>

<script type="text/javascript">
var viewWidth = 834;
var viewHeight = 189;
var sectionId = 'dynsection-12';
</script>
<script xlink:href="svgpan.js"/>
<svg id="graph" class="graph">
<g id="viewport">
<title>panda::PFCand::setStatus</title>
<polygon fill="white" stroke="none" points="-4,4 -4,-185 829.85,-185 829.85,4 -4,4"/>
<!-- Node1 -->
<g id="node1" class="node"><title>Node1</title>
<polygon fill="#bfbfbf" stroke="black" points="2.84217e-14,-109.5 2.84217e-14,-129.5 133.268,-129.5 133.268,-109.5 2.84217e-14,-109.5"/>
<text text-anchor="middle" x="66.634" y="-116.5" font-family="Helvetica,sans-Serif" font-size="10.00">panda::PFCand::setStatus</text>
</g>
<!-- Node2 -->
<g id="node2" class="node"><title>Node2</title>
<g id="a_node2"><a xlink:href="classpanda_1_1ParticleM.html#a3154bba2f00a8165994caa8ef55473bf" target="_top" xlink:title="Set status of branches with names that correspond to the variables of this object. ">
<polygon fill="white" stroke="black" points="169.268,-109.5 169.268,-129.5 307.524,-129.5 307.524,-109.5 169.268,-109.5"/>
<text text-anchor="middle" x="238.396" y="-116.5" font-family="Helvetica,sans-Serif" font-size="10.00">panda::ParticleM::setStatus</text>
</a>
</g>
</g>
<!-- Node1&#45;&gt;Node2 -->
<g id="edge1" class="edge"><title>Node1&#45;&gt;Node2</title>
<path fill="none" stroke="midnightblue" d="M133.268,-119.5C141.718,-119.5 150.436,-119.5 159.064,-119.5"/>
<polygon fill="midnightblue" stroke="midnightblue" points="159.129,-123 169.129,-119.5 159.129,-116 159.129,-123"/>
</g>
<!-- Node5 -->
<g id="node5" class="node"><title>Node5</title>
<g id="a_node5"><a xlink:href="classpanda_1_1utils_1_1StoreManager.html#a6f30ec459d951e84a1196b7e2ffdcf49" target="_top" xlink:title="panda::utils::StoreManager\l::getName">
<polygon fill="white" stroke="black" points="509.451,-148.5 509.451,-180.5 645.486,-180.5 645.486,-148.5 509.451,-148.5"/>
<text text-anchor="start" x="517.451" y="-167.5" font-family="Helvetica,sans-Serif" font-size="10.00">panda::utils::StoreManager</text>
<text text-anchor="middle" x="577.468" y="-155.5" font-family="Helvetica,sans-Serif" font-size="10.00">::getName</text>
</a>
</g>
</g>
<!-- Node1&#45;&gt;Node5 -->
<g id="edge12" class="edge"><title>Node1&#45;&gt;Node5</title>
<path fill="none" stroke="midnightblue" d="M117.935,-129.514C134.273,-132.603 152.509,-135.878 169.268,-138.5 246.392,-150.567 265.661,-154.933 343.524,-160.5 395.379,-164.208 453.883,-165.201 499.289,-165.27"/>
<polygon fill="midnightblue" stroke="midnightblue" points="499.357,-168.77 509.358,-165.271 499.358,-161.77 499.357,-168.77"/>
</g>
<!-- Node6 -->
<g id="node6" class="node"><title>Node6</title>
<g id="a_node6"><a xlink:href="namespacepanda_1_1utils.html#a01665f786d6a2acedb8f008f3fc9fc84" target="_top" xlink:title="Set status of a branch. ">
<polygon fill="white" stroke="black" points="520.284,-70.5 520.284,-90.5 634.653,-90.5 634.653,-70.5 520.284,-70.5"/>
<text text-anchor="middle" x="577.468" y="-77.5" font-family="Helvetica,sans-Serif" font-size="10.00">panda::utils::setStatus</text>
</a>
</g>
</g>
<!-- Node1&#45;&gt;Node6 -->
<g id="edge13" class="edge"><title>Node1&#45;&gt;Node6</title>
<path fill="none" stroke="midnightblue" d="M113.25,-109.486C130.706,-105.928 150.845,-102.151 169.268,-99.5 246.248,-88.4216 265.857,-87.5595 343.524,-83.5 399.474,-80.5757 463.079,-79.9377 509.673,-79.968"/>
<polygon fill="midnightblue" stroke="midnightblue" points="509.937,-83.4683 519.943,-79.9856 509.949,-76.4684 509.937,-83.4683"/>
</g>
<!-- Node3 -->
<g id="node3" class="node"><title>Node3</title>
<g id="a_node3"><a xlink:href="classpanda_1_1Particle.html#a114feb26e7ed0b5fac53646fca93964e" target="_top" xlink:title="Set status of branches with names that correspond to the variables of this object. ">
<polygon fill="white" stroke="black" points="343.524,-109.5 343.524,-129.5 473.451,-129.5 473.451,-109.5 343.524,-109.5"/>
<text text-anchor="middle" x="408.488" y="-116.5" font-family="Helvetica,sans-Serif" font-size="10.00">panda::Particle::setStatus</text>
</a>
</g>
</g>
<!-- Node2&#45;&gt;Node3 -->
<g id="edge2" class="edge"><title>Node2&#45;&gt;Node3</title>
<path fill="none" stroke="midnightblue" d="M307.765,-119.5C316.166,-119.5 324.783,-119.5 333.265,-119.5"/>
<polygon fill="midnightblue" stroke="midnightblue" points="333.52,-123 343.52,-119.5 333.52,-116 333.52,-123"/>
</g>
<!-- Node2&#45;&gt;Node5 -->
<g id="edge10" class="edge"><title>Node2&#45;&gt;Node5</title>
<path fill="none" stroke="midnightblue" d="M290.388,-129.533C307.261,-132.658 326.161,-135.95 343.524,-138.5 395.271,-146.1 453.776,-152.622 499.209,-157.233"/>
<polygon fill="midnightblue" stroke="midnightblue" points="498.984,-160.728 509.284,-158.246 499.685,-153.763 498.984,-160.728"/>
</g>
<!-- Node2&#45;&gt;Node6 -->
<g id="edge11" class="edge"><title>Node2&#45;&gt;Node6</title>
<path fill="none" stroke="midnightblue" d="M285.87,-109.457C303.813,-105.873 324.555,-102.088 343.524,-99.5 399.52,-91.8617 463.538,-86.9107 510.274,-83.9839"/>
<polygon fill="midnightblue" stroke="midnightblue" points="510.505,-87.4764 520.273,-83.3721 510.077,-80.4895 510.505,-87.4764"/>
</g>
<!-- Node4 -->
<g id="node4" class="node"><title>Node4</title>
<g id="a_node4"><a xlink:href="classpanda_1_1Object.html#a282e820b1ad431db22ca4d4dd20b55e0" target="_top" xlink:title="Set status of branches with names that correspond to the variables of this object. ">
<polygon fill="white" stroke="black" points="514.724,-109.5 514.724,-129.5 640.213,-129.5 640.213,-109.5 514.724,-109.5"/>
<text text-anchor="middle" x="577.468" y="-116.5" font-family="Helvetica,sans-Serif" font-size="10.00">panda::Object::setStatus</text>
</a>
</g>
</g>
<!-- Node3&#45;&gt;Node4 -->
<g id="edge3" class="edge"><title>Node3&#45;&gt;Node4</title>
<path fill="none" stroke="midnightblue" d="M473.569,-119.5C483.64,-119.5 494.11,-119.5 504.347,-119.5"/>
<polygon fill="midnightblue" stroke="midnightblue" points="504.484,-123 514.484,-119.5 504.484,-116 504.484,-123"/>
</g>
<!-- Node3&#45;&gt;Node5 -->
<g id="edge4" class="edge"><title>Node3&#45;&gt;Node5</title>
<path fill="none" stroke="midnightblue" d="M446.961,-129.599C464.725,-134.386 486.531,-140.263 507.149,-145.819"/>
<polygon fill="midnightblue" stroke="midnightblue" points="506.268,-149.206 516.835,-148.429 508.09,-142.448 506.268,-149.206"/>
</g>
<!-- Node3&#45;&gt;Node6 -->
<g id="edge5" class="edge"><title>Node3&#45;&gt;Node6</title>
<path fill="none" stroke="midnightblue" d="M452.489,-109.457C474.206,-104.384 500.746,-98.1857 523.69,-92.8269"/>
<polygon fill="midnightblue" stroke="midnightblue" points="524.671,-96.1922 533.612,-90.5094 523.078,-89.3756 524.671,-96.1922"/>
</g>
<!-- Node7 -->
<g id="node7" class="node"><title>Node7</title>
<g id="a_node7"><a xlink:href="classpanda_1_1utils_1_1BranchName.html#a6cc8a6df7c5b12a0221fd49773cca6a7" target="_top" xlink:title="Is the name included and not vetoed? ">
<polygon fill="white" stroke="black" points="681.486,-141.5 681.486,-161.5 825.85,-161.5 825.85,-141.5 681.486,-141.5"/>
<text text-anchor="middle" x="753.668" y="-148.5" font-family="Helvetica,sans-Serif" font-size="10.00">panda::utils::BranchName::in</text>
</a>
</g>
</g>
<!-- Node6&#45;&gt;Node7 -->
<g id="edge6" class="edge"><title>Node6&#45;&gt;Node7</title>
<path fill="none" stroke="midnightblue" d="M624.624,-90.6052C631.826,-93.0189 639.017,-95.9539 645.486,-99.5 664.258,-109.79 662.702,-121.232 681.486,-131.5 685.947,-133.939 690.732,-136.102 695.634,-138.016"/>
<polygon fill="midnightblue" stroke="midnightblue" points="694.554,-141.347 705.149,-141.397 696.898,-134.751 694.554,-141.347"/>
</g>
<!-- Node8 -->
<g id="node8" class="node"><title>Node8</title>
<g id="a_node8"><a xlink:href="classpanda_1_1utils_1_1BranchName.html#ae3332329bf2afae5ed8e7c35e5d77ffa" target="_top" xlink:title="Is the name included and vetoed? ">
<polygon fill="white" stroke="black" points="688.154,-90.5 688.154,-122.5 819.182,-122.5 819.182,-90.5 688.154,-90.5"/>
<text text-anchor="start" x="696.154" y="-109.5" font-family="Helvetica,sans-Serif" font-size="10.00">panda::utils::BranchName</text>
<text text-anchor="middle" x="753.668" y="-97.5" font-family="Helvetica,sans-Serif" font-size="10.00">::vetoed</text>
</a>
</g>
</g>
<!-- Node6&#45;&gt;Node8 -->
<g id="edge7" class="edge"><title>Node6&#45;&gt;Node8</title>
<path fill="none" stroke="midnightblue" d="M635.026,-88.9415C648.616,-90.9699 663.342,-93.1678 677.627,-95.2999"/>
<polygon fill="midnightblue" stroke="midnightblue" points="677.521,-98.8227 687.928,-96.8373 678.555,-91.8994 677.521,-98.8227"/>
</g>
<!-- Node9 -->
<g id="node9" class="node"><title>Node9</title>
<g id="a_node9"><a xlink:href="classpanda_1_1utils_1_1BranchName.html#a13958ff4a9d554d2c057c600b4f70412" target="_top" xlink:title="Prepend the branch name with &lt;objName.&gt;. ">
<polygon fill="white" stroke="black" points="688.154,-39.5 688.154,-71.5 819.182,-71.5 819.182,-39.5 688.154,-39.5"/>
<text text-anchor="start" x="696.154" y="-58.5" font-family="Helvetica,sans-Serif" font-size="10.00">panda::utils::BranchName</text>
<text text-anchor="middle" x="753.668" y="-46.5" font-family="Helvetica,sans-Serif" font-size="10.00">::fullName</text>
</a>
</g>
</g>
<!-- Node6&#45;&gt;Node9 -->
<g id="edge8" class="edge"><title>Node6&#45;&gt;Node9</title>
<path fill="none" stroke="midnightblue" d="M635.026,-72.3832C648.616,-70.4328 663.342,-68.3194 677.627,-66.2694"/>
<polygon fill="midnightblue" stroke="midnightblue" points="678.527,-69.6762 687.928,-64.791 677.532,-62.7472 678.527,-69.6762"/>
</g>
<!-- Node10 -->
<g id="node10" class="node"><title>Node10</title>
<g id="a_node10"><a xlink:href="namespacepanda_1_1utils.html#aafa411773a4b0ee829d99e6e5a0abdcd" target="_top" xlink:title="Check status of a branch. ">
<polygon fill="white" stroke="black" points="690.093,-0.5 690.093,-20.5 817.243,-20.5 817.243,-0.5 690.093,-0.5"/>
<text text-anchor="middle" x="753.668" y="-7.5" font-family="Helvetica,sans-Serif" font-size="10.00">panda::utils::checkStatus</text>
</a>
</g>
</g>
<!-- Node6&#45;&gt;Node10 -->
<g id="edge9" class="edge"><title>Node6&#45;&gt;Node10</title>
<path fill="none" stroke="midnightblue" d="M596.219,-70.3521C616.372,-59.1554 650.485,-41.1784 681.486,-29.5 687.299,-27.3103 693.468,-25.2677 699.648,-23.3951"/>
<polygon fill="midnightblue" stroke="midnightblue" points="700.688,-26.7378 709.321,-20.5957 698.742,-20.0137 700.688,-26.7378"/>
</g>
</g>
</svg>
        <g id="navigator" transform="translate(0 0)" fill="#404254">
                <rect fill="#f2f5e9" fill-opacity="0.5" stroke="#606060" stroke-width=".5" x="0" y="0" width="60" height="60"/>
                <use id="zoomplus" xlink:href="#zoomPlus" x="17" y="9" onmousedown="handleZoom(evt,'in')"/>
                <use id="zoomminus" xlink:href="#zoomMin" x="42" y="9" onmousedown="handleZoom(evt,'out')"/>
                <use id="reset" xlink:href="#resetDef" x="30" y="36" onmousedown="handleReset()"/>
                <g id="arrowUp" xlink:href="#dirArrow" transform="translate(30 24)" onmousedown="handlePan(0,-1)">
                  <use xlink:href="#rim" fill="#404040">
                        <set attributeName="fill" to="#808080" begin="arrowUp.mouseover" end="arrowUp.mouseout"/>
                  </use>
                  <path fill="none" stroke="white" stroke-width="1.5" d="M0,-3.0v7 M-2.5,-0.5L0,-3.0L2.5,-0.5"/>
                </g>
                <g id="arrowRight" xlink:href="#dirArrow" transform="rotate(90) translate(36 -43)" onmousedown="handlePan(1,0)">
                  <use xlink:href="#rim" fill="#404040">
                        <set attributeName="fill" to="#808080" begin="arrowRight.mouseover" end="arrowRight.mouseout"/>
                  </use>
                  <path fill="none" stroke="white" stroke-width="1.5" d="M0,-3.0v7 M-2.5,-0.5L0,-3.0L2.5,-0.5"/>
                </g>
                <g id="arrowDown" xlink:href="#dirArrow" transform="rotate(180) translate(-30 -48)" onmousedown="handlePan(0,1)">
                  <use xlink:href="#rim" fill="#404040">
                        <set attributeName="fill" to="#808080" begin="arrowDown.mouseover" end="arrowDown.mouseout"/>
                  </use>
                  <path fill="none" stroke="white" stroke-width="1.5" d="M0,-3.0v7 M-2.5,-0.5L0,-3.0L2.5,-0.5"/>
                </g>
                <g id="arrowLeft" xlink:href="#dirArrow" transform="rotate(270) translate(-36 17)" onmousedown="handlePan(-1,0)">
                  <use xlink:href="#rim" fill="#404040">
                        <set attributeName="fill" to="#808080" begin="arrowLeft.mouseover" end="arrowLeft.mouseout"/>
                  </use>
                  <path fill="none" stroke="white" stroke-width="1.5" d="M0,-3.0v7 M-2.5,-0.5L0,-3.0L2.5,-0.5"/>
                </g>
        </g>
        <svg viewBox="0 0 15 15" width="100%" height="30px" preserveAspectRatio="xMaxYMin meet">
         <g id="arrow_out" transform="scale(0.3 0.3)">
          <a xlink:href="classpanda_1_1PFCand_a80f36bbc47987a89a4376e519064b9da_cgraph_org.svg" target="_base">
           <rect id="button" ry="5" rx="5" y="6" x="6" height="38" width="38"
                fill="#f2f5e9" fill-opacity="0.5" stroke="#606060" stroke-width="1.0"/>
           <path id="arrow"
             d="M 11.500037,31.436501 C 11.940474,20.09759 22.043105,11.32322 32.158766,21.979434 L 37.068811,17.246167 C 37.068811,17.246167 37.088388,32 37.088388,32 L 22.160133,31.978069 C 22.160133,31.978069 26.997745,27.140456 26.997745,27.140456 C 18.528582,18.264221 13.291696,25.230495 11.500037,31.436501 z"
             style="fill:#404040;"/>
          </a>
         </g>
        </svg>
</svg>
