<?xml version="1.0" encoding="UTF-8" standalone="no"?>
<!DOCTYPE svg PUBLIC "-//W3C//DTD SVG 1.1//EN"
 "http://www.w3.org/Graphics/SVG/1.1/DTD/svg11.dtd">
<!-- Generated by graphviz version 2.38.0 (20140413.2041)
 -->
<!-- Title: panda::Met::operator= Pages: 1 -->
<svg width="297pt" height="29pt"
 viewBox="0.00 0.00 296.63 29.00" xmlns="http://www.w3.org/2000/svg" xmlns:xlink="http://www.w3.org/1999/xlink">
<g id="graph0" class="graph" transform="scale(1 1) rotate(0) translate(4 25)">
<title>panda::Met::operator=</title>
<polygon fill="white" stroke="none" points="-4,4 -4,-25 292.635,-25 292.635,4 -4,4"/>
<!-- Node1 -->
<g id="node1" class="node"><title>Node1</title>
<polygon fill="#bfbfbf" stroke="black" points="7.10543e-15,-0.5 7.10543e-15,-20.5 114.649,-20.5 114.649,-0.5 7.10543e-15,-0.5"/>
<text text-anchor="middle" x="57.3245" y="-7.5" font-family="Helvetica,sans-Serif" font-size="10.00">panda::Met::operator=</text>
</g>
<!-- Node2 -->
<g id="node2" class="node"><title>Node2</title>
<g id="a_node2"><a xlink:href="classpanda_1_1RecoMet.html#a9457a28604d28d4f06346a121874dc27" target="_top" xlink:title="panda::RecoMet::operator=">
<polygon fill="white" stroke="black" points="150.649,-0.5 150.649,-20.5 288.635,-20.5 288.635,-0.5 150.649,-0.5"/>
<text text-anchor="middle" x="219.642" y="-7.5" font-family="Helvetica,sans-Serif" font-size="10.00">panda::RecoMet::operator=</text>
</a>
</g>
</g>
<!-- Node1&#45;&gt;Node2 -->
<g id="edge1" class="edge"><title>Node1&#45;&gt;Node2</title>
<path fill="none" stroke="midnightblue" d="M125.007,-10.5C133.441,-10.5 142.081,-10.5 150.537,-10.5"/>
<polygon fill="midnightblue" stroke="midnightblue" points="124.846,-7.0001 114.846,-10.5 124.846,-14.0001 124.846,-7.0001"/>
</g>
</g>
</svg>
