<?xml version="1.0" encoding="UTF-8" standalone="no"?>
<!DOCTYPE svg PUBLIC "-//W3C//DTD SVG 1.1//EN"
 "http://www.w3.org/Graphics/SVG/1.1/DTD/svg11.dtd">
<!-- Generated by graphviz version 2.38.0 (20140413.2041)
 -->
<!-- Title: panda::Muon::book Pages: 1 -->
<svg width="777pt" height="189pt"
 viewBox="0.00 0.00 777.19 189.00" xmlns="http://www.w3.org/2000/svg" xmlns:xlink="http://www.w3.org/1999/xlink">
<g id="graph0" class="graph" transform="scale(1 1) rotate(0) translate(4 185)">
<title>panda::Muon::book</title>
<polygon fill="white" stroke="none" points="-4,4 -4,-185 773.19,-185 773.19,4 -4,4"/>
<!-- Node1 -->
<g id="node1" class="node"><title>Node1</title>
<polygon fill="#bfbfbf" stroke="black" points="2.84217e-14,-70.5 2.84217e-14,-90.5 101.594,-90.5 101.594,-70.5 2.84217e-14,-70.5"/>
<text text-anchor="middle" x="50.797" y="-77.5" font-family="Helvetica,sans-Serif" font-size="10.00">panda::Muon::book</text>
</g>
<!-- Node2 -->
<g id="node2" class="node"><title>Node2</title>
<g id="a_node2"><a xlink:href="classpanda_1_1Lepton.html#a4be584d13f41f6c922d6fe58056ec25d" target="_top" xlink:title="Book new branches to the tree corresponding to the variables of this object. ">
<polygon fill="white" stroke="black" points="137.594,-70.5 137.594,-90.5 244.756,-90.5 244.756,-70.5 137.594,-70.5"/>
<text text-anchor="middle" x="191.175" y="-77.5" font-family="Helvetica,sans-Serif" font-size="10.00">panda::Lepton::book</text>
</a>
</g>
</g>
<!-- Node1&#45;&gt;Node2 -->
<g id="edge1" class="edge"><title>Node1&#45;&gt;Node2</title>
<path fill="none" stroke="midnightblue" d="M101.755,-80.5C110.101,-80.5 118.853,-80.5 127.47,-80.5"/>
<polygon fill="midnightblue" stroke="midnightblue" points="127.49,-84.0001 137.49,-80.5 127.49,-77.0001 127.49,-84.0001"/>
</g>
<!-- Node5 -->
<g id="node5" class="node"><title>Node5</title>
<g id="a_node5"><a xlink:href="classpanda_1_1utils_1_1StoreManager.html#a6f30ec459d951e84a1196b7e2ffdcf49" target="_top" xlink:title="panda::utils::StoreManager\l::getName">
<polygon fill="white" stroke="black" points="452.791,-0.5 452.791,-32.5 588.826,-32.5 588.826,-0.5 452.791,-0.5"/>
<text text-anchor="start" x="460.791" y="-19.5" font-family="Helvetica,sans-Serif" font-size="10.00">panda::utils::StoreManager</text>
<text text-anchor="middle" x="520.808" y="-7.5" font-family="Helvetica,sans-Serif" font-size="10.00">::getName</text>
</a>
</g>
</g>
<!-- Node1&#45;&gt;Node5 -->
<g id="edge11" class="edge"><title>Node1&#45;&gt;Node5</title>
<path fill="none" stroke="midnightblue" d="M77.7154,-70.4288C119.616,-54.7444 205.182,-25.1752 280.756,-14.5 340.622,-6.04368 356.334,-13.9132 416.791,-14.5 425.148,-14.5811 433.885,-14.6992 442.587,-14.8381"/>
<polygon fill="midnightblue" stroke="midnightblue" points="442.701,-18.3405 452.759,-15.0098 442.82,-11.3415 442.701,-18.3405"/>
</g>
<!-- Node6 -->
<g id="node6" class="node"><title>Node6</title>
<g id="a_node6"><a xlink:href="namespacepanda_1_1utils.html#aaa6c7cd5892388e6ffdf713b11abf793" target="_top" xlink:title="Book the branch. ">
<polygon fill="white" stroke="black" points="473.626,-138.5 473.626,-158.5 567.99,-158.5 567.99,-138.5 473.626,-138.5"/>
<text text-anchor="middle" x="520.808" y="-145.5" font-family="Helvetica,sans-Serif" font-size="10.00">panda::utils::book</text>
</a>
</g>
</g>
<!-- Node1&#45;&gt;Node6 -->
<g id="edge12" class="edge"><title>Node1&#45;&gt;Node6</title>
<path fill="none" stroke="midnightblue" d="M74.9486,-90.5279C115.639,-107.546 203.046,-141.411 280.756,-153.5 340.497,-162.793 356.349,-154.966 416.791,-153.5 431.844,-153.135 448.124,-152.47 463.2,-151.742"/>
<polygon fill="midnightblue" stroke="midnightblue" points="463.603,-155.226 473.416,-151.231 463.253,-148.235 463.603,-155.226"/>
</g>
<!-- Node3 -->
<g id="node3" class="node"><title>Node3</title>
<g id="a_node3"><a xlink:href="classpanda_1_1Particle.html#aaf351374f253978216b4a893a1766a64" target="_top" xlink:title="Book new branches to the tree corresponding to the variables of this object. ">
<polygon fill="white" stroke="black" points="293.813,-48.5 293.813,-68.5 403.734,-68.5 403.734,-48.5 293.813,-48.5"/>
<text text-anchor="middle" x="348.773" y="-55.5" font-family="Helvetica,sans-Serif" font-size="10.00">panda::Particle::book</text>
</a>
</g>
</g>
<!-- Node2&#45;&gt;Node3 -->
<g id="edge2" class="edge"><title>Node2&#45;&gt;Node3</title>
<path fill="none" stroke="midnightblue" d="M244.854,-73.0518C257.237,-71.301 270.571,-69.4157 283.402,-67.6014"/>
<polygon fill="midnightblue" stroke="midnightblue" points="284.146,-71.0312 293.557,-66.1656 283.166,-64.1001 284.146,-71.0312"/>
</g>
<!-- Node2&#45;&gt;Node5 -->
<g id="edge8" class="edge"><title>Node2&#45;&gt;Node5</title>
<path fill="none" stroke="midnightblue" d="M208.798,-70.4308C226.105,-60.4828 254.327,-45.7365 280.756,-38.5 333.561,-24.0416 395.117,-18.6286 442.54,-16.785"/>
<polygon fill="midnightblue" stroke="midnightblue" points="442.868,-20.2759 452.742,-16.4347 442.628,-13.2801 442.868,-20.2759"/>
</g>
<!-- Node2&#45;&gt;Node6 -->
<g id="edge9" class="edge"><title>Node2&#45;&gt;Node6</title>
<path fill="none" stroke="midnightblue" d="M206.398,-90.6372C223.249,-102.051 252.598,-120.096 280.756,-128.5 341.3,-146.569 414.038,-150.246 463.256,-150.243"/>
<polygon fill="midnightblue" stroke="midnightblue" points="463.407,-153.742 473.388,-150.19 463.37,-146.742 463.407,-153.742"/>
</g>
<!-- Node9 -->
<g id="node9" class="node"><title>Node9</title>
<g id="a_node9"><a xlink:href="classpanda_1_1utils_1_1StoreManager.html#ae6c8fb6b0c3d25147b09ef8b92b61da8" target="_top" xlink:title="panda::utils::StoreManager\l::getData">
<polygon fill="white" stroke="black" points="280.756,-87.5 280.756,-119.5 416.791,-119.5 416.791,-87.5 280.756,-87.5"/>
<text text-anchor="start" x="288.756" y="-106.5" font-family="Helvetica,sans-Serif" font-size="10.00">panda::utils::StoreManager</text>
<text text-anchor="middle" x="348.773" y="-94.5" font-family="Helvetica,sans-Serif" font-size="10.00">::getData</text>
</a>
</g>
</g>
<!-- Node2&#45;&gt;Node9 -->
<g id="edge10" class="edge"><title>Node2&#45;&gt;Node9</title>
<path fill="none" stroke="midnightblue" d="M244.854,-88.2868C253.091,-89.5044 261.75,-90.7844 270.402,-92.0632"/>
<polygon fill="midnightblue" stroke="midnightblue" points="270.125,-95.5603 280.53,-93.5603 271.149,-88.6355 270.125,-95.5603"/>
</g>
<!-- Node4 -->
<g id="node4" class="node"><title>Node4</title>
<g id="a_node4"><a xlink:href="classpanda_1_1Object.html#a2fcd6665633deef16e86aa4e49135dd7" target="_top" xlink:title="Book new branches to the tree corresponding to the variables of this object. ">
<polygon fill="white" stroke="black" points="468.067,-51.5 468.067,-71.5 573.55,-71.5 573.55,-51.5 468.067,-51.5"/>
<text text-anchor="middle" x="520.808" y="-58.5" font-family="Helvetica,sans-Serif" font-size="10.00">panda::Object::book</text>
</a>
</g>
</g>
<!-- Node3&#45;&gt;Node4 -->
<g id="edge3" class="edge"><title>Node3&#45;&gt;Node4</title>
<path fill="none" stroke="midnightblue" d="M404.041,-59.4575C421.103,-59.7585 440.074,-60.0932 457.639,-60.4031"/>
<polygon fill="midnightblue" stroke="midnightblue" points="457.734,-63.9052 467.794,-60.5823 457.858,-56.9063 457.734,-63.9052"/>
</g>
<!-- Node3&#45;&gt;Node5 -->
<g id="edge4" class="edge"><title>Node3&#45;&gt;Node5</title>
<path fill="none" stroke="midnightblue" d="M390.501,-48.44C406.899,-44.3894 426.348,-39.5855 445.115,-34.9499"/>
<polygon fill="midnightblue" stroke="midnightblue" points="445.978,-38.342 454.847,-32.546 444.3,-31.5462 445.978,-38.342"/>
</g>
<!-- Node3&#45;&gt;Node6 -->
<g id="edge5" class="edge"><title>Node3&#45;&gt;Node6</title>
<path fill="none" stroke="midnightblue" d="M393.079,-68.5251C401.134,-71.0164 409.35,-73.9984 416.791,-77.5 447.95,-92.1633 480.025,-115.895 499.932,-131.839"/>
<polygon fill="midnightblue" stroke="midnightblue" points="497.964,-134.75 507.928,-138.352 502.384,-129.323 497.964,-134.75"/>
</g>
<!-- Node7 -->
<g id="node7" class="node"><title>Node7</title>
<g id="a_node7"><a xlink:href="classpanda_1_1utils_1_1BranchName.html#a6cc8a6df7c5b12a0221fd49773cca6a7" target="_top" xlink:title="Is the name included and not vetoed? ">
<polygon fill="white" stroke="black" points="624.826,-160.5 624.826,-180.5 769.19,-180.5 769.19,-160.5 624.826,-160.5"/>
<text text-anchor="middle" x="697.008" y="-167.5" font-family="Helvetica,sans-Serif" font-size="10.00">panda::utils::BranchName::in</text>
</a>
</g>
</g>
<!-- Node6&#45;&gt;Node7 -->
<g id="edge6" class="edge"><title>Node6&#45;&gt;Node7</title>
<path fill="none" stroke="midnightblue" d="M568.033,-154.338C582.255,-156.134 598.357,-158.167 614.223,-160.171"/>
<polygon fill="midnightblue" stroke="midnightblue" points="614.233,-163.7 624.593,-161.481 615.11,-156.755 614.233,-163.7"/>
</g>
<!-- Node8 -->
<g id="node8" class="node"><title>Node8</title>
<g id="a_node8"><a xlink:href="classpanda_1_1utils_1_1BranchName.html#a13958ff4a9d554d2c057c600b4f70412" target="_top" xlink:title="Prepend the branch name with &lt;objName.&gt;. ">
<polygon fill="white" stroke="black" points="631.494,-109.5 631.494,-141.5 762.522,-141.5 762.522,-109.5 631.494,-109.5"/>
<text text-anchor="start" x="639.494" y="-128.5" font-family="Helvetica,sans-Serif" font-size="10.00">panda::utils::BranchName</text>
<text text-anchor="middle" x="697.008" y="-116.5" font-family="Helvetica,sans-Serif" font-size="10.00">::fullName</text>
</a>
</g>
</g>
<!-- Node6&#45;&gt;Node8 -->
<g id="edge7" class="edge"><title>Node6&#45;&gt;Node8</title>
<path fill="none" stroke="midnightblue" d="M568.033,-142.397C584.362,-140.241 603.17,-137.758 621.253,-135.37"/>
<polygon fill="midnightblue" stroke="midnightblue" points="621.749,-138.835 631.204,-134.056 620.832,-131.895 621.749,-138.835"/>
</g>
</g>
</svg>
