<?xml version="1.0" encoding="UTF-8" standalone="no"?>
<!DOCTYPE svg PUBLIC "-//W3C//DTD SVG 1.1//EN"
 "http://www.w3.org/Graphics/SVG/1.1/DTD/svg11.dtd">
<!-- Generated by graphviz version 2.38.0 (20140413.2041)
 -->
<!-- Title: panda::ContainerBase::setStatus Pages: 1 -->
<svg width="275pt" height="41pt"
 viewBox="0.00 0.00 274.96 41.00" xmlns="http://www.w3.org/2000/svg" xmlns:xlink="http://www.w3.org/1999/xlink">
<g id="graph0" class="graph" transform="scale(1 1) rotate(0) translate(4 37)">
<title>panda::ContainerBase::setStatus</title>
<polygon fill="white" stroke="none" points="-4,4 -4,-37 270.962,-37 270.962,4 -4,4"/>
<!-- Node1 -->
<g id="node1" class="node"><title>Node1</title>
<polygon fill="#bfbfbf" stroke="black" points="7.10543e-15,-0.5 7.10543e-15,-32.5 115.481,-32.5 115.481,-0.5 7.10543e-15,-0.5"/>
<text text-anchor="start" x="8" y="-19.5" font-family="Helvetica,sans-Serif" font-size="10.00">panda::ContainerBase</text>
<text text-anchor="middle" x="57.7405" y="-7.5" font-family="Helvetica,sans-Serif" font-size="10.00">::setStatus</text>
</g>
<!-- Node2 -->
<g id="node2" class="node"><title>Node2</title>
<g id="a_node2"><a xlink:href="classpanda_1_1ContainerBase.html#aaae758928771e25de7c62db2fc9de750" target="_top" xlink:title="panda::ContainerBase\l::doSetStatus_">
<polygon fill="white" stroke="black" points="151.481,-0.5 151.481,-32.5 266.962,-32.5 266.962,-0.5 151.481,-0.5"/>
<text text-anchor="start" x="159.481" y="-19.5" font-family="Helvetica,sans-Serif" font-size="10.00">panda::ContainerBase</text>
<text text-anchor="middle" x="209.221" y="-7.5" font-family="Helvetica,sans-Serif" font-size="10.00">::doSetStatus_</text>
</a>
</g>
</g>
<!-- Node1&#45;&gt;Node2 -->
<g id="edge1" class="edge"><title>Node1&#45;&gt;Node2</title>
<path fill="none" stroke="midnightblue" d="M115.679,-16.5C124.1,-16.5 132.841,-16.5 141.44,-16.5"/>
<polygon fill="midnightblue" stroke="midnightblue" points="141.441,-20.0001 151.441,-16.5 141.441,-13.0001 141.441,-20.0001"/>
</g>
</g>
</svg>
