<?xml version="1.0" encoding="UTF-8" standalone="no"?>
<!DOCTYPE svg PUBLIC "-//W3C//DTD SVG 1.1//EN"
 "http://www.w3.org/Graphics/SVG/1.1/DTD/svg11.dtd">
<!-- Generated by graphviz version 2.38.0 (20140413.2041)
 -->
<!-- Title: panda::Electron::setAddress Pages: 1 -->
<svg width="998pt" height="196pt"
 viewBox="0.00 0.00 998.12 195.68" xmlns="http://www.w3.org/2000/svg" xmlns:xlink="http://www.w3.org/1999/xlink">
<g id="graph0" class="graph" transform="scale(1 1) rotate(0) translate(4 191.677)">
<title>panda::Electron::setAddress</title>
<polygon fill="white" stroke="none" points="-4,4 -4,-191.677 994.121,-191.677 994.121,4 -4,4"/>
<!-- Node1 -->
<g id="node1" class="node"><title>Node1</title>
<polygon fill="#bfbfbf" stroke="black" points="0,-56.1774 0,-76.1774 141.597,-76.1774 141.597,-56.1774 0,-56.1774"/>
<text text-anchor="middle" x="70.7985" y="-63.1774" font-family="Helvetica,sans-Serif" font-size="10.00">panda::Electron::setAddress</text>
</g>
<!-- Node2 -->
<g id="node2" class="node"><title>Node2</title>
<g id="a_node2"><a xlink:href="classpanda_1_1Lepton.html#ae5bb488ef12db0ad5549c4451cf6b155" target="_top" xlink:title="Set address for the branches to the variables of this object. ">
<polygon fill="white" stroke="black" points="177.597,-77.1774 177.597,-97.1774 313.095,-97.1774 313.095,-77.1774 177.597,-77.1774"/>
<text text-anchor="middle" x="245.346" y="-84.1774" font-family="Helvetica,sans-Serif" font-size="10.00">panda::Lepton::setAddress</text>
</a>
</g>
</g>
<!-- Node1&#45;&gt;Node2 -->
<g id="edge1" class="edge"><title>Node1&#45;&gt;Node2</title>
<path fill="none" stroke="midnightblue" d="M141.98,-74.7189C150.43,-75.7473 159.093,-76.8016 167.63,-77.8406"/>
<polygon fill="midnightblue" stroke="midnightblue" points="167.223,-81.3169 177.573,-79.0507 168.069,-74.3681 167.223,-81.3169"/>
</g>
<!-- Node5 -->
<g id="node5" class="node"><title>Node5</title>
<g id="a_node5"><a xlink:href="classpanda_1_1utils_1_1StoreManager.html#a6f30ec459d951e84a1196b7e2ffdcf49" target="_top" xlink:title="panda::utils::StoreManager\l::getName">
<polygon fill="white" stroke="black" points="523.352,-155.177 523.352,-187.177 659.387,-187.177 659.387,-155.177 523.352,-155.177"/>
<text text-anchor="start" x="531.352" y="-174.177" font-family="Helvetica,sans-Serif" font-size="10.00">panda::utils::StoreManager</text>
<text text-anchor="middle" x="591.369" y="-162.177" font-family="Helvetica,sans-Serif" font-size="10.00">::getName</text>
</a>
</g>
</g>
<!-- Node1&#45;&gt;Node5 -->
<g id="edge17" class="edge"><title>Node1&#45;&gt;Node5</title>
<path fill="none" stroke="midnightblue" d="M90.9314,-76.2233C134.978,-98.7143 247.568,-152.599 349.095,-171.177 403.221,-181.082 465.328,-180.822 512.973,-178.221"/>
<polygon fill="midnightblue" stroke="midnightblue" points="513.444,-181.699 523.219,-177.613 513.029,-174.711 513.444,-181.699"/>
</g>
<!-- Node6 -->
<g id="node6" class="node"><title>Node6</title>
<g id="a_node6"><a xlink:href="namespacepanda_1_1utils.html#abf9c62e588560197c2bae9932e6a6e05" target="_top" xlink:title="Set address. ">
<polygon fill="white" stroke="black" points="530.019,-77.1774 530.019,-97.1774 652.719,-97.1774 652.719,-77.1774 530.019,-77.1774"/>
<text text-anchor="middle" x="591.369" y="-84.1774" font-family="Helvetica,sans-Serif" font-size="10.00">panda::utils::setAddress</text>
</a>
</g>
</g>
<!-- Node1&#45;&gt;Node6 -->
<g id="edge18" class="edge"><title>Node1&#45;&gt;Node6</title>
<path fill="none" stroke="midnightblue" d="M96.8058,-56.1098C162.441,-31.1775 344.424,28.3052 487.352,-16.1774 521.288,-26.739 553.928,-52.8048 573.065,-70.2408"/>
<polygon fill="midnightblue" stroke="midnightblue" points="570.713,-72.8334 580.405,-77.1147 575.498,-67.7242 570.713,-72.8334"/>
</g>
<!-- Node12 -->
<g id="node12" class="node"><title>Node12</title>
<g id="a_node12"><a xlink:href="classpanda_1_1utils_1_1StoreManager.html#ae6c8fb6b0c3d25147b09ef8b92b61da8" target="_top" xlink:title="panda::utils::StoreManager\l::getData">
<polygon fill="white" stroke="black" points="350.206,-26.1774 350.206,-58.1774 486.241,-58.1774 486.241,-26.1774 350.206,-26.1774"/>
<text text-anchor="start" x="358.206" y="-45.1774" font-family="Helvetica,sans-Serif" font-size="10.00">panda::utils::StoreManager</text>
<text text-anchor="middle" x="418.223" y="-33.1774" font-family="Helvetica,sans-Serif" font-size="10.00">::getData</text>
</a>
</g>
</g>
<!-- Node1&#45;&gt;Node12 -->
<g id="edge19" class="edge"><title>Node1&#45;&gt;Node12</title>
<path fill="none" stroke="midnightblue" d="M141.7,-61.3206C199.191,-57.3262 280.578,-51.6715 339.987,-47.5437"/>
<polygon fill="midnightblue" stroke="midnightblue" points="340.335,-51.0281 350.068,-46.8433 339.85,-44.0449 340.335,-51.0281"/>
</g>
<!-- Node3 -->
<g id="node3" class="node"><title>Node3</title>
<g id="a_node3"><a xlink:href="classpanda_1_1Particle.html#a96282cfb24384c1f00c40576069a4c7e" target="_top" xlink:title="Set address for the branches to the variables of this object. ">
<polygon fill="white" stroke="black" points="349.095,-116.177 349.095,-136.177 487.352,-136.177 487.352,-116.177 349.095,-116.177"/>
<text text-anchor="middle" x="418.223" y="-123.177" font-family="Helvetica,sans-Serif" font-size="10.00">panda::Particle::setAddress</text>
</a>
</g>
</g>
<!-- Node2&#45;&gt;Node3 -->
<g id="edge2" class="edge"><title>Node2&#45;&gt;Node3</title>
<path fill="none" stroke="midnightblue" d="M290.351,-97.2209C312.675,-102.316 339.978,-108.547 363.529,-113.923"/>
<polygon fill="midnightblue" stroke="midnightblue" points="362.839,-117.355 373.367,-116.168 364.397,-110.531 362.839,-117.355"/>
</g>
<!-- Node2&#45;&gt;Node5 -->
<g id="edge14" class="edge"><title>Node2&#45;&gt;Node5</title>
<path fill="none" stroke="midnightblue" d="M259.763,-97.37C278.592,-111.07 314.447,-134.993 349.095,-146.177 402.224,-163.328 465.03,-169.42 513.243,-171.307"/>
<polygon fill="midnightblue" stroke="midnightblue" points="513.187,-174.807 523.3,-171.649 513.425,-167.811 513.187,-174.807"/>
</g>
<!-- Node2&#45;&gt;Node6 -->
<g id="edge15" class="edge"><title>Node2&#45;&gt;Node6</title>
<path fill="none" stroke="midnightblue" d="M313.494,-87.1774C372.922,-87.1774 459.355,-87.1774 519.794,-87.1774"/>
<polygon fill="midnightblue" stroke="midnightblue" points="520.012,-90.6775 530.012,-87.1774 520.012,-83.6775 520.012,-90.6775"/>
</g>
<!-- Node2&#45;&gt;Node12 -->
<g id="edge16" class="edge"><title>Node2&#45;&gt;Node12</title>
<path fill="none" stroke="midnightblue" d="M284.694,-77.0785C302.873,-72.2913 325.187,-66.4148 346.286,-60.8584"/>
<polygon fill="midnightblue" stroke="midnightblue" points="347.419,-64.1795 356.198,-58.2482 345.636,-57.4103 347.419,-64.1795"/>
</g>
<!-- Node4 -->
<g id="node4" class="node"><title>Node4</title>
<g id="a_node4"><a xlink:href="classpanda_1_1Object.html#aed9f9d3b6abe518dd27957de843b36b5" target="_top" xlink:title="Set address for the branches to the variables of this object. ">
<polygon fill="white" stroke="black" points="524.46,-116.177 524.46,-136.177 658.279,-136.177 658.279,-116.177 524.46,-116.177"/>
<text text-anchor="middle" x="591.369" y="-123.177" font-family="Helvetica,sans-Serif" font-size="10.00">panda::Object::setAddress</text>
</a>
</g>
</g>
<!-- Node3&#45;&gt;Node4 -->
<g id="edge3" class="edge"><title>Node3&#45;&gt;Node4</title>
<path fill="none" stroke="midnightblue" d="M487.357,-126.177C496.229,-126.177 505.363,-126.177 514.354,-126.177"/>
<polygon fill="midnightblue" stroke="midnightblue" points="514.423,-129.677 524.423,-126.177 514.423,-122.677 514.423,-129.677"/>
</g>
<!-- Node3&#45;&gt;Node5 -->
<g id="edge4" class="edge"><title>Node3&#45;&gt;Node5</title>
<path fill="none" stroke="midnightblue" d="M457.632,-136.276C475.839,-141.064 498.189,-146.94 519.321,-152.496"/>
<polygon fill="midnightblue" stroke="midnightblue" points="518.687,-155.949 529.248,-155.107 520.467,-149.179 518.687,-155.949"/>
</g>
<!-- Node3&#45;&gt;Node6 -->
<g id="edge5" class="edge"><title>Node3&#45;&gt;Node6</title>
<path fill="none" stroke="midnightblue" d="M463.298,-116.134C485.657,-111.039 513.002,-104.807 536.591,-99.4323"/>
<polygon fill="midnightblue" stroke="midnightblue" points="537.472,-102.821 546.445,-97.1868 535.917,-95.9962 537.472,-102.821"/>
</g>
<!-- Node7 -->
<g id="node7" class="node"><title>Node7</title>
<g id="a_node7"><a xlink:href="classpanda_1_1utils_1_1BranchName.html#a13958ff4a9d554d2c057c600b4f70412" target="_top" xlink:title="Prepend the branch name with &lt;objName.&gt;. ">
<polygon fill="white" stroke="black" points="852.425,-136.177 852.425,-168.177 983.453,-168.177 983.453,-136.177 852.425,-136.177"/>
<text text-anchor="start" x="860.425" y="-155.177" font-family="Helvetica,sans-Serif" font-size="10.00">panda::utils::BranchName</text>
<text text-anchor="middle" x="917.939" y="-143.177" font-family="Helvetica,sans-Serif" font-size="10.00">::fullName</text>
</a>
</g>
</g>
<!-- Node6&#45;&gt;Node7 -->
<g id="edge6" class="edge"><title>Node6&#45;&gt;Node7</title>
<path fill="none" stroke="midnightblue" d="M633.38,-97.1869C652.224,-101.669 674.894,-106.897 695.387,-111.177 744.129,-121.36 799.177,-131.553 842.208,-139.229"/>
<polygon fill="midnightblue" stroke="midnightblue" points="841.858,-142.722 852.316,-141.025 843.083,-135.829 841.858,-142.722"/>
</g>
<!-- Node8 -->
<g id="node8" class="node"><title>Node8</title>
<g id="a_node8"><a xlink:href="namespacepanda_1_1utils.html#a01665f786d6a2acedb8f008f3fc9fc84" target="_top" xlink:title="Set status of a branch. ">
<polygon fill="white" stroke="black" points="695.387,-58.1774 695.387,-78.1774 809.757,-78.1774 809.757,-58.1774 695.387,-58.1774"/>
<text text-anchor="middle" x="752.572" y="-65.1774" font-family="Helvetica,sans-Serif" font-size="10.00">panda::utils::setStatus</text>
</a>
</g>
</g>
<!-- Node6&#45;&gt;Node8 -->
<g id="edge7" class="edge"><title>Node6&#45;&gt;Node8</title>
<path fill="none" stroke="midnightblue" d="M653.011,-79.9401C663.533,-78.6844 674.523,-77.3728 685.188,-76.1"/>
<polygon fill="midnightblue" stroke="midnightblue" points="685.773,-79.5551 695.287,-74.8947 684.943,-72.6045 685.773,-79.5551"/>
</g>
<!-- Node9 -->
<g id="node9" class="node"><title>Node9</title>
<g id="a_node9"><a xlink:href="classpanda_1_1utils_1_1BranchName.html#a6cc8a6df7c5b12a0221fd49773cca6a7" target="_top" xlink:title="Is the name included and not vetoed? ">
<polygon fill="white" stroke="black" points="845.757,-97.1774 845.757,-117.177 990.121,-117.177 990.121,-97.1774 845.757,-97.1774"/>
<text text-anchor="middle" x="917.939" y="-104.177" font-family="Helvetica,sans-Serif" font-size="10.00">panda::utils::BranchName::in</text>
</a>
</g>
</g>
<!-- Node6&#45;&gt;Node9 -->
<g id="edge12" class="edge"><title>Node6&#45;&gt;Node9</title>
<path fill="none" stroke="midnightblue" d="M653.038,-90.9158C704.532,-94.0888 778.865,-98.6693 835.528,-102.161"/>
<polygon fill="midnightblue" stroke="midnightblue" points="835.338,-105.656 845.535,-102.777 835.769,-98.6689 835.338,-105.656"/>
</g>
<!-- Node11 -->
<g id="node11" class="node"><title>Node11</title>
<g id="a_node11"><a xlink:href="namespacepanda_1_1utils.html#aafa411773a4b0ee829d99e6e5a0abdcd" target="_top" xlink:title="Check status of a branch. ">
<polygon fill="white" stroke="black" points="854.364,-7.17739 854.364,-27.1774 981.514,-27.1774 981.514,-7.17739 854.364,-7.17739"/>
<text text-anchor="middle" x="917.939" y="-14.1774" font-family="Helvetica,sans-Serif" font-size="10.00">panda::utils::checkStatus</text>
</a>
</g>
</g>
<!-- Node6&#45;&gt;Node11 -->
<g id="edge13" class="edge"><title>Node6&#45;&gt;Node11</title>
<path fill="none" stroke="midnightblue" d="M614.812,-77.0134C635.371,-68.1073 666.855,-55.4767 695.387,-48.1774 744.258,-35.6746 800.568,-27.8789 844.19,-23.2322"/>
<polygon fill="midnightblue" stroke="midnightblue" points="844.556,-26.7131 854.143,-22.2029 843.836,-19.7502 844.556,-26.7131"/>
</g>
<!-- Node8&#45;&gt;Node7 -->
<g id="edge10" class="edge"><title>Node8&#45;&gt;Node7</title>
<path fill="none" stroke="midnightblue" d="M767.041,-78.2196C784.497,-90.8937 816.208,-112.774 845.757,-127.177 849.466,-128.985 853.34,-130.727 857.282,-132.391"/>
<polygon fill="midnightblue" stroke="midnightblue" points="855.975,-135.637 866.558,-136.127 858.59,-129.144 855.975,-135.637"/>
</g>
<!-- Node8&#45;&gt;Node9 -->
<g id="edge8" class="edge"><title>Node8&#45;&gt;Node9</title>
<path fill="none" stroke="midnightblue" d="M795.643,-78.2209C816.795,-83.2704 842.623,-89.4361 865.001,-94.7783"/>
<polygon fill="midnightblue" stroke="midnightblue" points="864.471,-98.2502 875.011,-97.168 866.097,-91.4415 864.471,-98.2502"/>
</g>
<!-- Node10 -->
<g id="node10" class="node"><title>Node10</title>
<g id="a_node10"><a xlink:href="classpanda_1_1utils_1_1BranchName.html#ae3332329bf2afae5ed8e7c35e5d77ffa" target="_top" xlink:title="Is the name included and vetoed? ">
<polygon fill="white" stroke="black" points="852.425,-46.1774 852.425,-78.1774 983.453,-78.1774 983.453,-46.1774 852.425,-46.1774"/>
<text text-anchor="start" x="860.425" y="-65.1774" font-family="Helvetica,sans-Serif" font-size="10.00">panda::utils::BranchName</text>
<text text-anchor="middle" x="917.939" y="-53.1774" font-family="Helvetica,sans-Serif" font-size="10.00">::vetoed</text>
</a>
</g>
</g>
<!-- Node8&#45;&gt;Node10 -->
<g id="edge9" class="edge"><title>Node8&#45;&gt;Node10</title>
<path fill="none" stroke="midnightblue" d="M809.794,-66.1125C820.145,-65.7323 831.103,-65.3299 841.905,-64.9332"/>
<polygon fill="midnightblue" stroke="midnightblue" points="842.324,-68.4202 852.189,-64.5555 842.067,-61.425 842.324,-68.4202"/>
</g>
<!-- Node8&#45;&gt;Node11 -->
<g id="edge11" class="edge"><title>Node8&#45;&gt;Node11</title>
<path fill="none" stroke="midnightblue" d="M780.829,-58.127C799.089,-51.5398 823.729,-42.9306 845.757,-36.1774 852.735,-34.0381 860.139,-31.9085 867.432,-29.8905"/>
<polygon fill="midnightblue" stroke="midnightblue" points="868.528,-33.2198 877.258,-27.2176 866.69,-26.4652 868.528,-33.2198"/>
</g>
</g>
</svg>
