<?xml version="1.0" encoding="UTF-8" standalone="no"?>
<!DOCTYPE svg PUBLIC "-//W3C//DTD SVG 1.1//EN"
 "http://www.w3.org/Graphics/SVG/1.1/DTD/svg11.dtd">
<!-- Generated by graphviz version 2.38.0 (20140413.2041)
 -->
<!-- Title: panda.refvbranch.RefVectorBranch.write_decl Pages: 1 -->
<svg width="347pt" height="80pt"
 viewBox="0.00 0.00 347.20 80.00" xmlns="http://www.w3.org/2000/svg" xmlns:xlink="http://www.w3.org/1999/xlink">
<g id="graph0" class="graph" transform="scale(1 1) rotate(0) translate(4 76)">
<title>panda.refvbranch.RefVectorBranch.write_decl</title>
<polygon fill="white" stroke="none" points="-4,4 -4,-76 343.199,-76 343.199,4 -4,4"/>
<!-- Node1 -->
<g id="node1" class="node"><title>Node1</title>
<polygon fill="#bfbfbf" stroke="black" points="1.42109e-14,-16.5 1.42109e-14,-48.5 141.037,-48.5 141.037,-16.5 1.42109e-14,-16.5"/>
<text text-anchor="start" x="8" y="-35.5" font-family="Helvetica,sans-Serif" font-size="10.00">panda.refvbranch.RefVector</text>
<text text-anchor="middle" x="70.5185" y="-23.5" font-family="Helvetica,sans-Serif" font-size="10.00">Branch.write_decl</text>
</g>
<!-- Node2 -->
<g id="node2" class="node"><title>Node2</title>
<g id="a_node2"><a xlink:href="classpanda_1_1branch_1_1Branch.html#a9ff4186314d76f2444161163bd992495" target="_top" xlink:title="panda.branch.Branch.is\l_array">
<polygon fill="white" stroke="black" points="197.322,-39.5 197.322,-71.5 318.913,-71.5 318.913,-39.5 197.322,-39.5"/>
<text text-anchor="start" x="205.322" y="-58.5" font-family="Helvetica,sans-Serif" font-size="10.00">panda.branch.Branch.is</text>
<text text-anchor="middle" x="258.118" y="-46.5" font-family="Helvetica,sans-Serif" font-size="10.00">_array</text>
</a>
</g>
</g>
<!-- Node1&#45;&gt;Node2 -->
<g id="edge1" class="edge"><title>Node1&#45;&gt;Node2</title>
<path fill="none" stroke="midnightblue" d="M141.157,-41.1298C156.117,-42.9836 171.934,-44.9438 186.915,-46.8003"/>
<polygon fill="midnightblue" stroke="midnightblue" points="186.778,-50.31 197.132,-48.0664 187.639,-43.3631 186.778,-50.31"/>
</g>
<!-- Node3 -->
<g id="node3" class="node"><title>Node3</title>
<g id="a_node3"><a xlink:href="classpanda_1_1branch_1_1Branch.html#aeac8bec76fc5d1d244500924e9582011" target="_top" xlink:title="panda.branch.Branch.arrdef_text">
<polygon fill="white" stroke="black" points="177.037,-0.5 177.037,-20.5 339.199,-20.5 339.199,-0.5 177.037,-0.5"/>
<text text-anchor="middle" x="258.118" y="-7.5" font-family="Helvetica,sans-Serif" font-size="10.00">panda.branch.Branch.arrdef_text</text>
</a>
</g>
</g>
<!-- Node1&#45;&gt;Node3 -->
<g id="edge2" class="edge"><title>Node1&#45;&gt;Node3</title>
<path fill="none" stroke="midnightblue" d="M141.157,-24.2454C149.511,-23.2552 158.133,-22.2332 166.727,-21.2145"/>
<polygon fill="midnightblue" stroke="midnightblue" points="167.267,-24.6751 176.786,-20.0222 166.443,-17.7237 167.267,-24.6751"/>
</g>
</g>
</svg>
