<?xml version="1.0" encoding="UTF-8" standalone="no"?>
<!DOCTYPE svg PUBLIC "-//W3C//DTD SVG 1.1//EN"
 "http://www.w3.org/Graphics/SVG/1.1/DTD/svg11.dtd">
<!-- Generated by graphviz version 2.38.0 (20140413.2041)
 -->
<!-- Title: panda.refbranch.RefBranch.write_decl Pages: 1 -->
<svg width="393pt" height="80pt"
 viewBox="0.00 0.00 392.76 80.00" xmlns="http://www.w3.org/2000/svg" xmlns:xlink="http://www.w3.org/1999/xlink">
<g id="graph0" class="graph" transform="scale(1 1) rotate(0) translate(4 76)">
<title>panda.refbranch.RefBranch.write_decl</title>
<polygon fill="white" stroke="none" points="-4,4 -4,-76 388.759,-76 388.759,4 -4,4"/>
<!-- Node1 -->
<g id="node1" class="node"><title>Node1</title>
<polygon fill="#bfbfbf" stroke="black" points="0,-22.5 0,-42.5 186.597,-42.5 186.597,-22.5 0,-22.5"/>
<text text-anchor="middle" x="93.2985" y="-29.5" font-family="Helvetica,sans-Serif" font-size="10.00">panda.refbranch.RefBranch.write_decl</text>
</g>
<!-- Node2 -->
<g id="node2" class="node"><title>Node2</title>
<g id="a_node2"><a xlink:href="classpanda_1_1branch_1_1Branch.html#a9ff4186314d76f2444161163bd992495" target="_top" xlink:title="panda.branch.Branch.is\l_array">
<polygon fill="white" stroke="black" points="242.882,-39.5 242.882,-71.5 364.474,-71.5 364.474,-39.5 242.882,-39.5"/>
<text text-anchor="start" x="250.882" y="-58.5" font-family="Helvetica,sans-Serif" font-size="10.00">panda.branch.Branch.is</text>
<text text-anchor="middle" x="303.678" y="-46.5" font-family="Helvetica,sans-Serif" font-size="10.00">_array</text>
</a>
</g>
</g>
<!-- Node1&#45;&gt;Node2 -->
<g id="edge1" class="edge"><title>Node1&#45;&gt;Node2</title>
<path fill="none" stroke="midnightblue" d="M185.091,-42.5212C200.952,-44.272 217.236,-46.0692 232.436,-47.747"/>
<polygon fill="midnightblue" stroke="midnightblue" points="232.445,-51.2692 242.769,-48.8875 233.213,-44.3114 232.445,-51.2692"/>
</g>
<!-- Node3 -->
<g id="node3" class="node"><title>Node3</title>
<g id="a_node3"><a xlink:href="classpanda_1_1branch_1_1Branch.html#aeac8bec76fc5d1d244500924e9582011" target="_top" xlink:title="panda.branch.Branch.arrdef_text">
<polygon fill="white" stroke="black" points="222.597,-0.5 222.597,-20.5 384.759,-20.5 384.759,-0.5 222.597,-0.5"/>
<text text-anchor="middle" x="303.678" y="-7.5" font-family="Helvetica,sans-Serif" font-size="10.00">panda.branch.Branch.arrdef_text</text>
</a>
</g>
</g>
<!-- Node1&#45;&gt;Node3 -->
<g id="edge2" class="edge"><title>Node1&#45;&gt;Node3</title>
<path fill="none" stroke="midnightblue" d="M186.607,-22.7544C195.214,-21.8457 203.93,-20.9254 212.517,-20.0189"/>
<polygon fill="midnightblue" stroke="midnightblue" points="212.947,-23.4931 222.524,-18.9624 212.212,-16.5318 212.947,-23.4931"/>
</g>
</g>
</svg>
