<?xml version="1.0" encoding="UTF-8" standalone="no"?>
<!DOCTYPE svg PUBLIC "-//W3C//DTD SVG 1.1//EN"
 "http://www.w3.org/Graphics/SVG/1.1/DTD/svg11.dtd">
<!-- Generated by graphviz version 2.38.0 (20140413.2041)
 -->
<!-- Title: panda::Jet::setStatus Pages: 1 -->
<svg width="981pt" height="224pt"
 viewBox="0.00 0.00 980.88 224.00" xmlns="http://www.w3.org/2000/svg" xmlns:xlink="http://www.w3.org/1999/xlink">
<g id="graph0" class="graph" transform="scale(1 1) rotate(0) translate(4 220)">
<title>panda::Jet::setStatus</title>
<polygon fill="white" stroke="none" points="-4,4 -4,-220 976.882,-220 976.882,4 -4,4"/>
<!-- Node1 -->
<g id="node1" class="node"><title>Node1</title>
<polygon fill="#bfbfbf" stroke="black" points="1.42109e-14,-128.5 1.42109e-14,-148.5 109.932,-148.5 109.932,-128.5 1.42109e-14,-128.5"/>
<text text-anchor="middle" x="54.966" y="-135.5" font-family="Helvetica,sans-Serif" font-size="10.00">panda::Jet::setStatus</text>
</g>
<!-- Node2 -->
<g id="node2" class="node"><title>Node2</title>
<g id="a_node2"><a xlink:href="classpanda_1_1MicroJet.html#a55b434c84ffd0e71a8d6e96c29cbe57a" target="_top" xlink:title="Set status of branches with names that correspond to the variables of this object. ">
<polygon fill="white" stroke="black" points="145.932,-128.5 145.932,-148.5 280.3,-148.5 280.3,-128.5 145.932,-128.5"/>
<text text-anchor="middle" x="213.116" y="-135.5" font-family="Helvetica,sans-Serif" font-size="10.00">panda::MicroJet::setStatus</text>
</a>
</g>
</g>
<!-- Node1&#45;&gt;Node2 -->
<g id="edge1" class="edge"><title>Node1&#45;&gt;Node2</title>
<path fill="none" stroke="midnightblue" d="M110.141,-138.5C118.435,-138.5 127.127,-138.5 135.791,-138.5"/>
<polygon fill="midnightblue" stroke="midnightblue" points="135.922,-142 145.922,-138.5 135.922,-135 135.922,-142"/>
</g>
<!-- Node6 -->
<g id="node6" class="node"><title>Node6</title>
<g id="a_node6"><a xlink:href="classpanda_1_1utils_1_1StoreManager.html#a6f30ec459d951e84a1196b7e2ffdcf49" target="_top" xlink:title="panda::utils::StoreManager\l::getName">
<polygon fill="white" stroke="black" points="656.483,-183.5 656.483,-215.5 792.518,-215.5 792.518,-183.5 656.483,-183.5"/>
<text text-anchor="start" x="664.483" y="-202.5" font-family="Helvetica,sans-Serif" font-size="10.00">panda::utils::StoreManager</text>
<text text-anchor="middle" x="724.501" y="-190.5" font-family="Helvetica,sans-Serif" font-size="10.00">::getName</text>
</a>
</g>
</g>
<!-- Node1&#45;&gt;Node6 -->
<g id="edge15" class="edge"><title>Node1&#45;&gt;Node6</title>
<path fill="none" stroke="midnightblue" d="M100.704,-148.523C115.107,-151.596 131.16,-154.859 145.932,-157.5 298.045,-184.696 336.309,-194.239 490.556,-203.5 548.198,-206.961 562.749,-204.62 620.483,-203.5 628.843,-203.338 637.583,-203.102 646.286,-202.824"/>
<polygon fill="midnightblue" stroke="midnightblue" points="646.583,-206.316 656.459,-202.48 646.347,-199.32 646.583,-206.316"/>
</g>
<!-- Node7 -->
<g id="node7" class="node"><title>Node7</title>
<g id="a_node7"><a xlink:href="namespacepanda_1_1utils.html#a01665f786d6a2acedb8f008f3fc9fc84" target="_top" xlink:title="Set status of a branch. ">
<polygon fill="white" stroke="black" points="667.316,-70.5 667.316,-90.5 781.686,-90.5 781.686,-70.5 667.316,-70.5"/>
<text text-anchor="middle" x="724.501" y="-77.5" font-family="Helvetica,sans-Serif" font-size="10.00">panda::utils::setStatus</text>
</a>
</g>
</g>
<!-- Node1&#45;&gt;Node7 -->
<g id="edge16" class="edge"><title>Node1&#45;&gt;Node7</title>
<path fill="none" stroke="midnightblue" d="M97.9349,-128.451C113.017,-125.03 130.188,-121.354 145.932,-118.5 297.555,-91.0111 336.585,-86.6752 490.556,-80.5 546.532,-78.255 610.136,-78.4396 656.722,-79.0817"/>
<polygon fill="midnightblue" stroke="midnightblue" points="656.939,-82.5852 666.99,-79.2344 657.043,-75.586 656.939,-82.5852"/>
</g>
<!-- Node3 -->
<g id="node3" class="node"><title>Node3</title>
<g id="a_node3"><a xlink:href="classpanda_1_1ParticleM.html#a3154bba2f00a8165994caa8ef55473bf" target="_top" xlink:title="Set status of branches with names that correspond to the variables of this object. ">
<polygon fill="white" stroke="black" points="316.3,-128.5 316.3,-148.5 454.556,-148.5 454.556,-128.5 316.3,-128.5"/>
<text text-anchor="middle" x="385.428" y="-135.5" font-family="Helvetica,sans-Serif" font-size="10.00">panda::ParticleM::setStatus</text>
</a>
</g>
</g>
<!-- Node2&#45;&gt;Node3 -->
<g id="edge2" class="edge"><title>Node2&#45;&gt;Node3</title>
<path fill="none" stroke="midnightblue" d="M280.451,-138.5C288.751,-138.5 297.302,-138.5 305.767,-138.5"/>
<polygon fill="midnightblue" stroke="midnightblue" points="306.028,-142 316.028,-138.5 306.028,-135 306.028,-142"/>
</g>
<!-- Node2&#45;&gt;Node6 -->
<g id="edge13" class="edge"><title>Node2&#45;&gt;Node6</title>
<path fill="none" stroke="midnightblue" d="M266.036,-148.525C282.125,-151.532 299.927,-154.757 316.3,-157.5 393.528,-170.437 412.711,-175.033 490.556,-183.5 542.352,-189.134 600.857,-193.144 646.277,-195.74"/>
<polygon fill="midnightblue" stroke="midnightblue" points="646.169,-199.24 656.35,-196.305 646.562,-192.251 646.169,-199.24"/>
</g>
<!-- Node2&#45;&gt;Node7 -->
<g id="edge14" class="edge"><title>Node2&#45;&gt;Node7</title>
<path fill="none" stroke="midnightblue" d="M262.623,-128.483C279.571,-125.122 298.745,-121.475 316.3,-118.5 393.44,-105.426 412.7,-101.243 490.556,-93.5 546.389,-87.9475 610.004,-84.5976 656.632,-82.6924"/>
<polygon fill="midnightblue" stroke="midnightblue" points="657.056,-86.1785 666.909,-82.2846 656.778,-79.184 657.056,-86.1785"/>
</g>
<!-- Node4 -->
<g id="node4" class="node"><title>Node4</title>
<g id="a_node4"><a xlink:href="classpanda_1_1Particle.html#a114feb26e7ed0b5fac53646fca93964e" target="_top" xlink:title="Set status of branches with names that correspond to the variables of this object. ">
<polygon fill="white" stroke="black" points="490.556,-128.5 490.556,-148.5 620.483,-148.5 620.483,-128.5 490.556,-128.5"/>
<text text-anchor="middle" x="555.52" y="-135.5" font-family="Helvetica,sans-Serif" font-size="10.00">panda::Particle::setStatus</text>
</a>
</g>
</g>
<!-- Node3&#45;&gt;Node4 -->
<g id="edge3" class="edge"><title>Node3&#45;&gt;Node4</title>
<path fill="none" stroke="midnightblue" d="M454.797,-138.5C463.198,-138.5 471.815,-138.5 480.297,-138.5"/>
<polygon fill="midnightblue" stroke="midnightblue" points="480.552,-142 490.552,-138.5 480.552,-135 480.552,-142"/>
</g>
<!-- Node3&#45;&gt;Node6 -->
<g id="edge11" class="edge"><title>Node3&#45;&gt;Node6</title>
<path fill="none" stroke="midnightblue" d="M441.275,-148.53C457.172,-151.431 474.554,-154.598 490.556,-157.5 542.526,-166.926 601.029,-177.474 646.406,-185.642"/>
<polygon fill="midnightblue" stroke="midnightblue" points="646.006,-189.126 656.468,-187.452 647.246,-182.237 646.006,-189.126"/>
</g>
<!-- Node3&#45;&gt;Node7 -->
<g id="edge12" class="edge"><title>Node3&#45;&gt;Node7</title>
<path fill="none" stroke="midnightblue" d="M436.954,-128.5C453.965,-125.212 473.066,-121.606 490.556,-118.5 546.561,-108.556 610.322,-98.2226 656.96,-90.8465"/>
<polygon fill="midnightblue" stroke="midnightblue" points="657.607,-94.2877 666.94,-89.2719 656.516,-87.3732 657.607,-94.2877"/>
</g>
<!-- Node5 -->
<g id="node5" class="node"><title>Node5</title>
<g id="a_node5"><a xlink:href="classpanda_1_1Object.html#a282e820b1ad431db22ca4d4dd20b55e0" target="_top" xlink:title="Set status of branches with names that correspond to the variables of this object. ">
<polygon fill="white" stroke="black" points="661.756,-128.5 661.756,-148.5 787.245,-148.5 787.245,-128.5 661.756,-128.5"/>
<text text-anchor="middle" x="724.501" y="-135.5" font-family="Helvetica,sans-Serif" font-size="10.00">panda::Object::setStatus</text>
</a>
</g>
</g>
<!-- Node4&#45;&gt;Node5 -->
<g id="edge4" class="edge"><title>Node4&#45;&gt;Node5</title>
<path fill="none" stroke="midnightblue" d="M620.601,-138.5C630.672,-138.5 641.142,-138.5 651.379,-138.5"/>
<polygon fill="midnightblue" stroke="midnightblue" points="651.516,-142 661.516,-138.5 651.516,-135 651.516,-142"/>
</g>
<!-- Node4&#45;&gt;Node6 -->
<g id="edge5" class="edge"><title>Node4&#45;&gt;Node6</title>
<path fill="none" stroke="midnightblue" d="M584.093,-148.573C607.396,-157.086 641.454,-169.527 670.073,-179.982"/>
<polygon fill="midnightblue" stroke="midnightblue" points="668.952,-183.299 679.546,-183.443 671.354,-176.724 668.952,-183.299"/>
</g>
<!-- Node4&#45;&gt;Node7 -->
<g id="edge6" class="edge"><title>Node4&#45;&gt;Node7</title>
<path fill="none" stroke="midnightblue" d="M585.605,-128.397C613.057,-118.862 654.407,-104.499 684.667,-93.9885"/>
<polygon fill="midnightblue" stroke="midnightblue" points="686.17,-97.1716 694.468,-90.5842 683.873,-90.5592 686.17,-97.1716"/>
</g>
<!-- Node8 -->
<g id="node8" class="node"><title>Node8</title>
<g id="a_node8"><a xlink:href="classpanda_1_1utils_1_1BranchName.html#a6cc8a6df7c5b12a0221fd49773cca6a7" target="_top" xlink:title="Is the name included and not vetoed? ">
<polygon fill="white" stroke="black" points="828.518,-141.5 828.518,-161.5 972.882,-161.5 972.882,-141.5 828.518,-141.5"/>
<text text-anchor="middle" x="900.7" y="-148.5" font-family="Helvetica,sans-Serif" font-size="10.00">panda::utils::BranchName::in</text>
</a>
</g>
</g>
<!-- Node7&#45;&gt;Node8 -->
<g id="edge7" class="edge"><title>Node7&#45;&gt;Node8</title>
<path fill="none" stroke="midnightblue" d="M743.279,-90.5729C763.458,-101.702 797.594,-119.619 828.518,-131.5 835.039,-134.005 842.005,-136.349 848.931,-138.487"/>
<polygon fill="midnightblue" stroke="midnightblue" points="848.412,-141.984 858.994,-141.467 850.399,-135.272 848.412,-141.984"/>
</g>
<!-- Node9 -->
<g id="node9" class="node"><title>Node9</title>
<g id="a_node9"><a xlink:href="classpanda_1_1utils_1_1BranchName.html#ae3332329bf2afae5ed8e7c35e5d77ffa" target="_top" xlink:title="Is the name included and vetoed? ">
<polygon fill="white" stroke="black" points="835.186,-90.5 835.186,-122.5 966.214,-122.5 966.214,-90.5 835.186,-90.5"/>
<text text-anchor="start" x="843.186" y="-109.5" font-family="Helvetica,sans-Serif" font-size="10.00">panda::utils::BranchName</text>
<text text-anchor="middle" x="900.7" y="-97.5" font-family="Helvetica,sans-Serif" font-size="10.00">::vetoed</text>
</a>
</g>
</g>
<!-- Node7&#45;&gt;Node9 -->
<g id="edge8" class="edge"><title>Node7&#45;&gt;Node9</title>
<path fill="none" stroke="midnightblue" d="M782.058,-88.9415C795.648,-90.9699 810.374,-93.1678 824.659,-95.2999"/>
<polygon fill="midnightblue" stroke="midnightblue" points="824.553,-98.8227 834.96,-96.8373 825.587,-91.8994 824.553,-98.8227"/>
</g>
<!-- Node10 -->
<g id="node10" class="node"><title>Node10</title>
<g id="a_node10"><a xlink:href="classpanda_1_1utils_1_1BranchName.html#a13958ff4a9d554d2c057c600b4f70412" target="_top" xlink:title="Prepend the branch name with &lt;objName.&gt;. ">
<polygon fill="white" stroke="black" points="835.186,-39.5 835.186,-71.5 966.214,-71.5 966.214,-39.5 835.186,-39.5"/>
<text text-anchor="start" x="843.186" y="-58.5" font-family="Helvetica,sans-Serif" font-size="10.00">panda::utils::BranchName</text>
<text text-anchor="middle" x="900.7" y="-46.5" font-family="Helvetica,sans-Serif" font-size="10.00">::fullName</text>
</a>
</g>
</g>
<!-- Node7&#45;&gt;Node10 -->
<g id="edge9" class="edge"><title>Node7&#45;&gt;Node10</title>
<path fill="none" stroke="midnightblue" d="M782.058,-72.3832C795.648,-70.4328 810.374,-68.3194 824.659,-66.2694"/>
<polygon fill="midnightblue" stroke="midnightblue" points="825.559,-69.6762 834.96,-64.791 824.564,-62.7472 825.559,-69.6762"/>
</g>
<!-- Node11 -->
<g id="node11" class="node"><title>Node11</title>
<g id="a_node11"><a xlink:href="namespacepanda_1_1utils.html#aafa411773a4b0ee829d99e6e5a0abdcd" target="_top" xlink:title="Check status of a branch. ">
<polygon fill="white" stroke="black" points="837.125,-0.5 837.125,-20.5 964.275,-20.5 964.275,-0.5 837.125,-0.5"/>
<text text-anchor="middle" x="900.7" y="-7.5" font-family="Helvetica,sans-Serif" font-size="10.00">panda::utils::checkStatus</text>
</a>
</g>
</g>
<!-- Node7&#45;&gt;Node11 -->
<g id="edge10" class="edge"><title>Node7&#45;&gt;Node11</title>
<path fill="none" stroke="midnightblue" d="M743.251,-70.3521C763.404,-59.1554 797.517,-41.1784 828.518,-29.5 834.331,-27.3103 840.5,-25.2677 846.68,-23.3951"/>
<polygon fill="midnightblue" stroke="midnightblue" points="847.72,-26.7378 856.353,-20.5957 845.774,-20.0137 847.72,-26.7378"/>
</g>
</g>
</svg>
