<?xml version="1.0" encoding="UTF-8" standalone="no"?>
<!DOCTYPE svg PUBLIC "-//W3C//DTD SVG 1.1//EN"
 "http://www.w3.org/Graphics/SVG/1.1/DTD/svg11.dtd">
<!-- Generated by graphviz version 2.38.0 (20140413.2041)
 -->
<!-- Title: panda::Singlet Pages: 1 -->
<svg width="511pt" height="200pt"
 viewBox="0.00 0.00 510.52 200.00" xmlns="http://www.w3.org/2000/svg" xmlns:xlink="http://www.w3.org/1999/xlink">
<g id="graph0" class="graph" transform="scale(1 1) rotate(0) translate(4 196)">
<title>panda::Singlet</title>
<polygon fill="white" stroke="none" points="-4,4 -4,-196 506.525,-196 506.525,4 -4,4"/>
<!-- Node1 -->
<g id="node1" class="node"><title>Node1</title>
<polygon fill="#bfbfbf" stroke="black" points="223.003,-114.5 223.003,-134.5 302.919,-134.5 302.919,-114.5 223.003,-114.5"/>
<text text-anchor="middle" x="262.961" y="-121.5" font-family="Helvetica,sans-Serif" font-size="10.00">panda::Singlet</text>
</g>
<!-- Node3 -->
<g id="node3" class="node"><title>Node3</title>
<g id="a_node3"><a xlink:href="classpanda_1_1GenReweight.html" target="_top" xlink:title="panda::GenReweight">
<polygon fill="white" stroke="black" points="1.42109e-14,-57.5 1.42109e-14,-77.5 109.922,-77.5 109.922,-57.5 1.42109e-14,-57.5"/>
<text text-anchor="middle" x="54.961" y="-64.5" font-family="Helvetica,sans-Serif" font-size="10.00">panda::GenReweight</text>
</a>
</g>
</g>
<!-- Node1&#45;&gt;Node3 -->
<g id="edge2" class="edge"><title>Node1&#45;&gt;Node3</title>
<path fill="none" stroke="midnightblue" d="M218.648,-111.783C179.881,-101.532 124.386,-86.8575 89.0133,-77.5042"/>
<polygon fill="midnightblue" stroke="midnightblue" points="218.052,-115.245 228.614,-114.418 219.841,-108.478 218.052,-115.245"/>
</g>
<!-- Node4 -->
<g id="node4" class="node"><title>Node4</title>
<g id="a_node4"><a xlink:href="classpanda_1_1HLTBits.html" target="_top" xlink:title="panda::HLTBits">
<polygon fill="white" stroke="black" points="127.508,-57.5 127.508,-77.5 212.415,-77.5 212.415,-57.5 127.508,-57.5"/>
<text text-anchor="middle" x="169.961" y="-64.5" font-family="Helvetica,sans-Serif" font-size="10.00">panda::HLTBits</text>
</a>
</g>
</g>
<!-- Node1&#45;&gt;Node4 -->
<g id="edge3" class="edge"><title>Node1&#45;&gt;Node4</title>
<path fill="none" stroke="midnightblue" d="M238.834,-109.231C221.945,-99.2435 199.888,-86.1986 185.341,-77.5956"/>
<polygon fill="midnightblue" stroke="midnightblue" points="237.215,-112.34 247.604,-114.418 240.778,-106.315 237.215,-112.34"/>
</g>
<!-- Node5 -->
<g id="node5" class="node"><title>Node5</title>
<g id="a_node5"><a xlink:href="classpanda_1_1Met.html" target="_top" xlink:title="panda::Met">
<polygon fill="white" stroke="black" points="229.951,-57.5 229.951,-77.5 295.971,-77.5 295.971,-57.5 229.951,-57.5"/>
<text text-anchor="middle" x="262.961" y="-64.5" font-family="Helvetica,sans-Serif" font-size="10.00">panda::Met</text>
</a>
</g>
</g>
<!-- Node1&#45;&gt;Node5 -->
<g id="edge4" class="edge"><title>Node1&#45;&gt;Node5</title>
<path fill="none" stroke="midnightblue" d="M262.961,-104.383C262.961,-95.3738 262.961,-85.0373 262.961,-77.7795"/>
<polygon fill="midnightblue" stroke="midnightblue" points="259.461,-104.418 262.961,-114.418 266.461,-104.418 259.461,-104.418"/>
</g>
<!-- Node7 -->
<g id="node7" class="node"><title>Node7</title>
<g id="a_node7"><a xlink:href="classpanda_1_1MetFilters.html" target="_top" xlink:title="panda::MetFilters">
<polygon fill="white" stroke="black" points="314.344,-57.5 314.344,-77.5 407.578,-77.5 407.578,-57.5 314.344,-57.5"/>
<text text-anchor="middle" x="360.961" y="-64.5" font-family="Helvetica,sans-Serif" font-size="10.00">panda::MetFilters</text>
</a>
</g>
</g>
<!-- Node1&#45;&gt;Node7 -->
<g id="edge6" class="edge"><title>Node1&#45;&gt;Node7</title>
<path fill="none" stroke="midnightblue" d="M287.892,-109.508C305.751,-99.4854 329.283,-86.2783 344.754,-77.5956"/>
<polygon fill="midnightblue" stroke="midnightblue" points="286.151,-106.471 279.144,-114.418 289.577,-112.576 286.151,-106.471"/>
</g>
<!-- Node8 -->
<g id="node8" class="node"><title>Node8</title>
<g id="a_node8"><a xlink:href="classpanda_1_1Recoil.html" target="_top" xlink:title="panda::Recoil">
<polygon fill="white" stroke="black" points="425.397,-57.5 425.397,-77.5 502.525,-77.5 502.525,-57.5 425.397,-57.5"/>
<text text-anchor="middle" x="463.961" y="-64.5" font-family="Helvetica,sans-Serif" font-size="10.00">panda::Recoil</text>
</a>
</g>
</g>
<!-- Node1&#45;&gt;Node8 -->
<g id="edge7" class="edge"><title>Node1&#45;&gt;Node8</title>
<path fill="none" stroke="midnightblue" d="M306.262,-111.652C343.701,-101.407 397.018,-86.8177 431.055,-77.5042"/>
<polygon fill="midnightblue" stroke="midnightblue" points="304.874,-108.403 296.152,-114.418 306.721,-115.154 304.874,-108.403"/>
</g>
<!-- Node2 -->
<g id="node2" class="node"><title>Node2</title>
<g id="a_node2"><a xlink:href="classpanda_1_1Object.html" target="_top" xlink:title="panda::Object">
<polygon fill="white" stroke="black" points="223.837,-171.5 223.837,-191.5 302.085,-191.5 302.085,-171.5 223.837,-171.5"/>
<text text-anchor="middle" x="262.961" y="-178.5" font-family="Helvetica,sans-Serif" font-size="10.00">panda::Object</text>
</a>
</g>
</g>
<!-- Node2&#45;&gt;Node1 -->
<g id="edge1" class="edge"><title>Node2&#45;&gt;Node1</title>
<path fill="none" stroke="midnightblue" d="M262.961,-161.383C262.961,-152.374 262.961,-142.037 262.961,-134.779"/>
<polygon fill="midnightblue" stroke="midnightblue" points="259.461,-161.418 262.961,-171.418 266.461,-161.418 259.461,-161.418"/>
</g>
<!-- Node6 -->
<g id="node6" class="node"><title>Node6</title>
<g id="a_node6"><a xlink:href="classpanda_1_1RecoMet.html" target="_top" xlink:title="panda::RecoMet">
<polygon fill="white" stroke="black" points="218.283,-0.5 218.283,-20.5 307.639,-20.5 307.639,-0.5 218.283,-0.5"/>
<text text-anchor="middle" x="262.961" y="-7.5" font-family="Helvetica,sans-Serif" font-size="10.00">panda::RecoMet</text>
</a>
</g>
</g>
<!-- Node5&#45;&gt;Node6 -->
<g id="edge5" class="edge"><title>Node5&#45;&gt;Node6</title>
<path fill="none" stroke="midnightblue" d="M262.961,-47.383C262.961,-38.3738 262.961,-28.0373 262.961,-20.7795"/>
<polygon fill="midnightblue" stroke="midnightblue" points="259.461,-47.4178 262.961,-57.4179 266.461,-47.4179 259.461,-47.4178"/>
</g>
</g>
</svg>
