<?xml version="1.0" encoding="UTF-8" standalone="no"?>
<!DOCTYPE svg PUBLIC "-//W3C//DTD SVG 1.1//EN"
 "http://www.w3.org/Graphics/SVG/1.1/DTD/svg11.dtd">
<!-- Generated by graphviz version 2.38.0 (20140413.2041)
 -->
<!-- Title: panda::Photon::operator= Pages: 1 -->
<svg width="470pt" height="41pt"
 viewBox="0.00 0.00 470.35 41.00" xmlns="http://www.w3.org/2000/svg" xmlns:xlink="http://www.w3.org/1999/xlink">
<g id="graph0" class="graph" transform="scale(1 1) rotate(0) translate(4 37)">
<title>panda::Photon::operator=</title>
<polygon fill="white" stroke="none" points="-4,4 -4,-37 466.348,-37 466.348,4 -4,4"/>
<!-- Node1 -->
<g id="node1" class="node"><title>Node1</title>
<polygon fill="#bfbfbf" stroke="black" points="-2.84217e-14,-6.5 -2.84217e-14,-26.5 129.666,-26.5 129.666,-6.5 -2.84217e-14,-6.5"/>
<text text-anchor="middle" x="64.833" y="-13.5" font-family="Helvetica,sans-Serif" font-size="10.00">panda::Photon::operator=</text>
</g>
<!-- Node2 -->
<g id="node2" class="node"><title>Node2</title>
<g id="a_node2"><a xlink:href="classpanda_1_1Particle.html#a8c4fabfceb39b746b0e68a7389e662c4" target="_top" xlink:title="panda::Particle::operator=">
<polygon fill="white" stroke="black" points="165.666,-6.5 165.666,-26.5 296.981,-26.5 296.981,-6.5 165.666,-6.5"/>
<text text-anchor="middle" x="231.323" y="-13.5" font-family="Helvetica,sans-Serif" font-size="10.00">panda::Particle::operator=</text>
</a>
</g>
</g>
<!-- Node1&#45;&gt;Node2 -->
<g id="edge1" class="edge"><title>Node1&#45;&gt;Node2</title>
<path fill="none" stroke="midnightblue" d="M129.9,-16.5C138.329,-16.5 147.026,-16.5 155.612,-16.5"/>
<polygon fill="midnightblue" stroke="midnightblue" points="155.619,-20.0001 165.619,-16.5 155.619,-13.0001 155.619,-20.0001"/>
</g>
<!-- Node3 -->
<g id="node3" class="node"><title>Node3</title>
<g id="a_node3"><a xlink:href="classpanda_1_1ContainerElement.html#ae8ba59e4cb5d7c1d491fc87c9360f039" target="_top" xlink:title="panda::ContainerElement\l::operator=">
<polygon fill="white" stroke="black" points="332.981,-0.5 332.981,-32.5 462.348,-32.5 462.348,-0.5 332.981,-0.5"/>
<text text-anchor="start" x="340.981" y="-19.5" font-family="Helvetica,sans-Serif" font-size="10.00">panda::ContainerElement</text>
<text text-anchor="middle" x="397.664" y="-7.5" font-family="Helvetica,sans-Serif" font-size="10.00">::operator=</text>
</a>
</g>
</g>
<!-- Node2&#45;&gt;Node3 -->
<g id="edge2" class="edge"><title>Node2&#45;&gt;Node3</title>
<path fill="none" stroke="midnightblue" d="M297.275,-16.5C305.567,-16.5 314.104,-16.5 322.528,-16.5"/>
<polygon fill="midnightblue" stroke="midnightblue" points="322.722,-20.0001 332.722,-16.5 322.722,-13.0001 322.722,-20.0001"/>
</g>
</g>
</svg>
