<?xml version="1.0" encoding="UTF-8" standalone="no"?>
<!DOCTYPE svg PUBLIC "-//W3C//DTD SVG 1.1//EN"
 "http://www.w3.org/Graphics/SVG/1.1/DTD/svg11.dtd">
<!-- Generated by graphviz version 2.38.0 (20140413.2041)
 -->
<!-- Title: panda::Met::releaseTree Pages: 1 -->
<svg width="473pt" height="74pt"
 viewBox="0.00 0.00 473.09 74.00" xmlns="http://www.w3.org/2000/svg" xmlns:xlink="http://www.w3.org/1999/xlink">
<g id="graph0" class="graph" transform="scale(1 1) rotate(0) translate(4 70)">
<title>panda::Met::releaseTree</title>
<polygon fill="white" stroke="none" points="-4,4 -4,-70 469.092,-70 469.092,4 -4,4"/>
<!-- Node1 -->
<g id="node1" class="node"><title>Node1</title>
<polygon fill="#bfbfbf" stroke="black" points="1.42109e-14,-25.5 1.42109e-14,-45.5 124.918,-45.5 124.918,-25.5 1.42109e-14,-25.5"/>
<text text-anchor="middle" x="62.459" y="-32.5" font-family="Helvetica,sans-Serif" font-size="10.00">panda::Met::releaseTree</text>
</g>
<!-- Node2 -->
<g id="node2" class="node"><title>Node2</title>
<g id="a_node2"><a xlink:href="classpanda_1_1Object.html#aaf58438092b42a89b838ce12c6a23833" target="_top" xlink:title="Reset the branch pointer to unlink the branch from this object. ">
<polygon fill="white" stroke="black" points="160.918,-45.5 160.918,-65.5 298.064,-65.5 298.064,-45.5 160.918,-45.5"/>
<text text-anchor="middle" x="229.491" y="-52.5" font-family="Helvetica,sans-Serif" font-size="10.00">panda::Object::releaseTree</text>
</a>
</g>
</g>
<!-- Node1&#45;&gt;Node2 -->
<g id="edge1" class="edge"><title>Node1&#45;&gt;Node2</title>
<path fill="none" stroke="midnightblue" d="M125.38,-43.0042C133.663,-44.008 142.242,-45.0476 150.753,-46.079"/>
<polygon fill="midnightblue" stroke="midnightblue" points="150.342,-49.5548 160.691,-47.2834 151.185,-42.6056 150.342,-49.5548"/>
</g>
<!-- Node3 -->
<g id="node3" class="node"><title>Node3</title>
<g id="a_node3"><a xlink:href="namespacepanda_1_1utils.html#a82a8530e64fbdf917cf9b8659065f98b" target="_top" xlink:title="panda::utils::resetAddress">
<polygon fill="white" stroke="black" points="163.697,-6.5 163.697,-26.5 295.285,-26.5 295.285,-6.5 163.697,-6.5"/>
<text text-anchor="middle" x="229.491" y="-13.5" font-family="Helvetica,sans-Serif" font-size="10.00">panda::utils::resetAddress</text>
</a>
</g>
</g>
<!-- Node1&#45;&gt;Node3 -->
<g id="edge2" class="edge"><title>Node1&#45;&gt;Node3</title>
<path fill="none" stroke="midnightblue" d="M125.38,-28.371C134.515,-27.3194 144.01,-26.2263 153.376,-25.1479"/>
<polygon fill="midnightblue" stroke="midnightblue" points="153.932,-28.6071 163.466,-23.9863 153.131,-21.6531 153.932,-28.6071"/>
</g>
<!-- Node4 -->
<g id="node4" class="node"><title>Node4</title>
<g id="a_node4"><a xlink:href="classpanda_1_1utils_1_1BranchName.html#a13958ff4a9d554d2c057c600b4f70412" target="_top" xlink:title="Prepend the branch name with &lt;objName.&gt;. ">
<polygon fill="white" stroke="black" points="334.064,-0.5 334.064,-32.5 465.092,-32.5 465.092,-0.5 334.064,-0.5"/>
<text text-anchor="start" x="342.064" y="-19.5" font-family="Helvetica,sans-Serif" font-size="10.00">panda::utils::BranchName</text>
<text text-anchor="middle" x="399.578" y="-7.5" font-family="Helvetica,sans-Serif" font-size="10.00">::fullName</text>
</a>
</g>
</g>
<!-- Node3&#45;&gt;Node4 -->
<g id="edge3" class="edge"><title>Node3&#45;&gt;Node4</title>
<path fill="none" stroke="midnightblue" d="M295.478,-16.5C304.772,-16.5 314.395,-16.5 323.858,-16.5"/>
<polygon fill="midnightblue" stroke="midnightblue" points="324.041,-20.0001 334.041,-16.5 324.041,-13.0001 324.041,-20.0001"/>
</g>
</g>
</svg>
