<?xml version="1.0" encoding="UTF-8" standalone="no"?>
<!DOCTYPE svg PUBLIC "-//W3C//DTD SVG 1.1//EN"
 "http://www.w3.org/Graphics/SVG/1.1/DTD/svg11.dtd">
<!-- Generated by graphviz version 2.38.0 (20140413.2041)
 -->
<!-- Title: panda::Tau::releaseTree Pages: 1 -->
<svg width="837pt" height="125pt"
 viewBox="0.00 0.00 837.15 125.00" xmlns="http://www.w3.org/2000/svg" xmlns:xlink="http://www.w3.org/1999/xlink">
<g id="graph0" class="graph" transform="scale(1 1) rotate(0) translate(4 121)">
<title>panda::Tau::releaseTree</title>
<polygon fill="white" stroke="none" points="-4,4 -4,-121 833.149,-121 833.149,4 -4,4"/>
<!-- Node1 -->
<g id="node1" class="node"><title>Node1</title>
<polygon fill="#bfbfbf" stroke="black" points="3.55271e-14,-45.5 3.55271e-14,-65.5 125.478,-65.5 125.478,-45.5 3.55271e-14,-45.5"/>
<text text-anchor="middle" x="62.739" y="-52.5" font-family="Helvetica,sans-Serif" font-size="10.00">panda::Tau::releaseTree</text>
</g>
<!-- Node2 -->
<g id="node2" class="node"><title>Node2</title>
<g id="a_node2"><a xlink:href="classpanda_1_1ParticleM.html#a0315a281e15ff66329eef5169b162e8e" target="_top" xlink:title="Reset the branch pointer to unlink the branch from this object. ">
<polygon fill="white" stroke="black" points="161.478,-45.5 161.478,-65.5 311.391,-65.5 311.391,-45.5 161.478,-45.5"/>
<text text-anchor="middle" x="236.434" y="-52.5" font-family="Helvetica,sans-Serif" font-size="10.00">panda::ParticleM::releaseTree</text>
</a>
</g>
</g>
<!-- Node1&#45;&gt;Node2 -->
<g id="edge1" class="edge"><title>Node1&#45;&gt;Node2</title>
<path fill="none" stroke="midnightblue" d="M125.725,-55.5C134.01,-55.5 142.617,-55.5 151.202,-55.5"/>
<polygon fill="midnightblue" stroke="midnightblue" points="151.25,-59.0001 161.25,-55.5 151.25,-52.0001 151.25,-59.0001"/>
</g>
<!-- Node5 -->
<g id="node5" class="node"><title>Node5</title>
<g id="a_node5"><a xlink:href="classpanda_1_1utils_1_1StoreManager.html#a6f30ec459d951e84a1196b7e2ffdcf49" target="_top" xlink:title="panda::utils::StoreManager\l::getName">
<polygon fill="white" stroke="black" points="525.53,-84.5 525.53,-116.5 661.565,-116.5 661.565,-84.5 525.53,-84.5"/>
<text text-anchor="start" x="533.53" y="-103.5" font-family="Helvetica,sans-Serif" font-size="10.00">panda::utils::StoreManager</text>
<text text-anchor="middle" x="593.548" y="-91.5" font-family="Helvetica,sans-Serif" font-size="10.00">::getName</text>
</a>
</g>
</g>
<!-- Node1&#45;&gt;Node5 -->
<g id="edge9" class="edge"><title>Node1&#45;&gt;Node5</title>
<path fill="none" stroke="midnightblue" d="M111.844,-65.5352C127.618,-68.6428 145.259,-71.9235 161.478,-74.5 243.705,-87.5626 264.324,-91.8709 347.391,-97.5 403.492,-101.302 466.976,-101.979 515.284,-101.744"/>
<polygon fill="midnightblue" stroke="midnightblue" points="515.376,-105.243 525.353,-101.68 515.332,-98.2433 515.376,-105.243"/>
</g>
<!-- Node6 -->
<g id="node6" class="node"><title>Node6</title>
<g id="a_node6"><a xlink:href="namespacepanda_1_1utils.html#a82a8530e64fbdf917cf9b8659065f98b" target="_top" xlink:title="panda::utils::resetAddress">
<polygon fill="white" stroke="black" points="527.754,-6.5 527.754,-26.5 659.342,-26.5 659.342,-6.5 527.754,-6.5"/>
<text text-anchor="middle" x="593.548" y="-13.5" font-family="Helvetica,sans-Serif" font-size="10.00">panda::utils::resetAddress</text>
</a>
</g>
</g>
<!-- Node1&#45;&gt;Node6 -->
<g id="edge10" class="edge"><title>Node1&#45;&gt;Node6</title>
<path fill="none" stroke="midnightblue" d="M107.832,-45.3984C124.56,-41.8507 143.829,-38.1044 161.478,-35.5 243.562,-23.3868 264.521,-22.6198 347.391,-18.5 404.442,-15.6638 469.052,-15.2516 517.616,-15.5014"/>
<polygon fill="midnightblue" stroke="midnightblue" points="517.705,-19.0019 527.727,-15.5641 517.749,-12.0021 517.705,-19.0019"/>
</g>
<!-- Node3 -->
<g id="node3" class="node"><title>Node3</title>
<g id="a_node3"><a xlink:href="classpanda_1_1Particle.html#a8fb6fa0b4316967da573181262727142" target="_top" xlink:title="Reset the branch pointer to unlink the branch from this object. ">
<polygon fill="white" stroke="black" points="347.391,-45.5 347.391,-65.5 488.975,-65.5 488.975,-45.5 347.391,-45.5"/>
<text text-anchor="middle" x="418.183" y="-52.5" font-family="Helvetica,sans-Serif" font-size="10.00">panda::Particle::releaseTree</text>
</a>
</g>
</g>
<!-- Node2&#45;&gt;Node3 -->
<g id="edge2" class="edge"><title>Node2&#45;&gt;Node3</title>
<path fill="none" stroke="midnightblue" d="M311.583,-55.5C319.971,-55.5 328.547,-55.5 337.007,-55.5"/>
<polygon fill="midnightblue" stroke="midnightblue" points="337.249,-59.0001 347.249,-55.5 337.249,-52.0001 337.249,-59.0001"/>
</g>
<!-- Node2&#45;&gt;Node5 -->
<g id="edge7" class="edge"><title>Node2&#45;&gt;Node5</title>
<path fill="none" stroke="midnightblue" d="M291.294,-65.531C309.113,-68.6559 329.067,-71.948 347.391,-74.5 403.392,-82.2994 466.878,-88.9728 515.213,-93.6054"/>
<polygon fill="midnightblue" stroke="midnightblue" points="515.002,-97.1011 525.289,-94.5627 515.665,-90.1325 515.002,-97.1011"/>
</g>
<!-- Node2&#45;&gt;Node6 -->
<g id="edge8" class="edge"><title>Node2&#45;&gt;Node6</title>
<path fill="none" stroke="midnightblue" d="M286.529,-45.4582C305.479,-41.8747 327.379,-38.0886 347.391,-35.5 404.209,-28.1507 468.829,-23.2853 517.457,-20.3192"/>
<polygon fill="midnightblue" stroke="midnightblue" points="517.809,-23.8046 527.582,-19.7149 517.392,-16.817 517.809,-23.8046"/>
</g>
<!-- Node4 -->
<g id="node4" class="node"><title>Node4</title>
<g id="a_node4"><a xlink:href="classpanda_1_1Object.html#aaf58438092b42a89b838ce12c6a23833" target="_top" xlink:title="Reset the branch pointer to unlink the branch from this object. ">
<polygon fill="white" stroke="black" points="524.975,-45.5 524.975,-65.5 662.121,-65.5 662.121,-45.5 524.975,-45.5"/>
<text text-anchor="middle" x="593.548" y="-52.5" font-family="Helvetica,sans-Serif" font-size="10.00">panda::Object::releaseTree</text>
</a>
</g>
</g>
<!-- Node3&#45;&gt;Node4 -->
<g id="edge3" class="edge"><title>Node3&#45;&gt;Node4</title>
<path fill="none" stroke="midnightblue" d="M489.197,-55.5C497.549,-55.5 506.115,-55.5 514.569,-55.5"/>
<polygon fill="midnightblue" stroke="midnightblue" points="514.804,-59.0001 524.804,-55.5 514.804,-52.0001 514.804,-59.0001"/>
</g>
<!-- Node3&#45;&gt;Node5 -->
<g id="edge4" class="edge"><title>Node3&#45;&gt;Node5</title>
<path fill="none" stroke="midnightblue" d="M458.089,-65.5989C476.616,-70.4078 499.377,-76.3158 520.869,-81.8944"/>
<polygon fill="midnightblue" stroke="midnightblue" points="520.076,-85.3044 530.634,-84.4292 521.834,-78.5289 520.076,-85.3044"/>
</g>
<!-- Node3&#45;&gt;Node6 -->
<g id="edge5" class="edge"><title>Node3&#45;&gt;Node6</title>
<path fill="none" stroke="midnightblue" d="M463.829,-45.4565C486.477,-40.3615 514.178,-34.1301 538.072,-28.7549"/>
<polygon fill="midnightblue" stroke="midnightblue" points="539.065,-32.1189 548.053,-26.5094 537.529,-25.2896 539.065,-32.1189"/>
</g>
<!-- Node7 -->
<g id="node7" class="node"><title>Node7</title>
<g id="a_node7"><a xlink:href="classpanda_1_1utils_1_1BranchName.html#a13958ff4a9d554d2c057c600b4f70412" target="_top" xlink:title="Prepend the branch name with &lt;objName.&gt;. ">
<polygon fill="white" stroke="black" points="698.121,-0.5 698.121,-32.5 829.149,-32.5 829.149,-0.5 698.121,-0.5"/>
<text text-anchor="start" x="706.121" y="-19.5" font-family="Helvetica,sans-Serif" font-size="10.00">panda::utils::BranchName</text>
<text text-anchor="middle" x="763.635" y="-7.5" font-family="Helvetica,sans-Serif" font-size="10.00">::fullName</text>
</a>
</g>
</g>
<!-- Node6&#45;&gt;Node7 -->
<g id="edge6" class="edge"><title>Node6&#45;&gt;Node7</title>
<path fill="none" stroke="midnightblue" d="M659.535,-16.5C668.829,-16.5 678.452,-16.5 687.915,-16.5"/>
<polygon fill="midnightblue" stroke="midnightblue" points="688.098,-20.0001 698.098,-16.5 688.098,-13.0001 688.098,-20.0001"/>
</g>
</g>
</svg>
