<?xml version="1.0" encoding="UTF-8" standalone="no"?>
<!DOCTYPE svg PUBLIC "-//W3C//DTD SVG 1.1//EN"
 "http://www.w3.org/Graphics/SVG/1.1/DTD/svg11.dtd">
<!-- Generated by graphviz version 2.38.0 (20140413.2041)
 -->
<!-- Title: panda::RefVector&lt; E &gt; Pages: 1 -->
<svg width="126pt" height="156pt"
 viewBox="0.00 0.00 125.71 156.00" xmlns="http://www.w3.org/2000/svg" xmlns:xlink="http://www.w3.org/1999/xlink">
<g id="graph0" class="graph" transform="scale(1 1) rotate(0) translate(4 152)">
<title>panda::RefVector&lt; E &gt;</title>
<polygon fill="white" stroke="none" points="-4,4 -4,-152 121.71,-152 121.71,4 -4,4"/>
<!-- Node1 -->
<g id="node1" class="node"><title>Node1</title>
<polygon fill="#bfbfbf" stroke="black" points="-7.10543e-15,-0.5 -7.10543e-15,-20.5 117.71,-20.5 117.71,-0.5 -7.10543e-15,-0.5"/>
<text text-anchor="middle" x="58.855" y="-7.5" font-family="Helvetica,sans-Serif" font-size="10.00">panda::RefVector&lt; E &gt;</text>
</g>
<!-- Node2 -->
<g id="node2" class="node"><title>Node2</title>
<g id="a_node2"><a xlink:href="classpanda_1_1ContainerBase.html" target="_top" xlink:title="Base class for all containers. ">
<polygon fill="white" stroke="black" points="1.1145,-69.5 1.1145,-89.5 116.595,-89.5 116.595,-69.5 1.1145,-69.5"/>
<text text-anchor="middle" x="58.855" y="-76.5" font-family="Helvetica,sans-Serif" font-size="10.00">panda::ContainerBase</text>
</a>
</g>
</g>
<!-- Node2&#45;&gt;Node1 -->
<g id="edge1" class="edge"><title>Node2&#45;&gt;Node1</title>
<path fill="none" stroke="#9a32cd" stroke-dasharray="5,2" d="M58.855,-59.0834C58.855,-46.5001 58.855,-30.6758 58.855,-20.8227"/>
<polygon fill="#9a32cd" stroke="#9a32cd" points="55.3551,-59.464 58.855,-69.4641 62.3551,-59.4641 55.3551,-59.464"/>
<text text-anchor="middle" x="83.585" y="-42" font-family="Helvetica,sans-Serif" font-size="10.00"> container_</text>
</g>
<!-- Node3 -->
<g id="node3" class="node"><title>Node3</title>
<g id="a_node3"><a xlink:href="classpanda_1_1Object.html" target="_top" xlink:title="panda::Object">
<polygon fill="white" stroke="black" points="19.731,-127.5 19.731,-147.5 97.979,-147.5 97.979,-127.5 19.731,-127.5"/>
<text text-anchor="middle" x="58.855" y="-134.5" font-family="Helvetica,sans-Serif" font-size="10.00">panda::Object</text>
</a>
</g>
</g>
<!-- Node3&#45;&gt;Node2 -->
<g id="edge2" class="edge"><title>Node3&#45;&gt;Node2</title>
<path fill="none" stroke="midnightblue" d="M58.855,-117.207C58.855,-107.838 58.855,-97.0262 58.855,-89.5752"/>
<polygon fill="midnightblue" stroke="midnightblue" points="55.3551,-117.253 58.855,-127.253 62.3551,-117.253 55.3551,-117.253"/>
</g>
</g>
</svg>
