<?xml version="1.0" encoding="UTF-8" standalone="no"?>
<!DOCTYPE svg PUBLIC "-//W3C//DTD SVG 1.1//EN"
 "http://www.w3.org/Graphics/SVG/1.1/DTD/svg11.dtd">
<!-- Generated by graphviz version 2.38.0 (20140413.2041)
 -->
<!-- Title: panda::Container::getData Pages: 1 -->
<svg width="478pt" height="146pt"
 viewBox="0.00 0.00 477.56 146.00" xmlns="http://www.w3.org/2000/svg" xmlns:xlink="http://www.w3.org/1999/xlink">
<g id="graph0" class="graph" transform="scale(1 1) rotate(0) translate(4 142)">
<title>panda::Container::getData</title>
<polygon fill="white" stroke="none" points="-4,4 -4,-142 473.557,-142 473.557,4 -4,4"/>
<!-- Node1 -->
<g id="node1" class="node"><title>Node1</title>
<polygon fill="#bfbfbf" stroke="black" points="0,-39.5 0,-59.5 133.265,-59.5 133.265,-39.5 0,-39.5"/>
<text text-anchor="middle" x="66.6325" y="-46.5" font-family="Helvetica,sans-Serif" font-size="10.00">panda::Container::getData</text>
</g>
<!-- Node2 -->
<g id="node2" class="node"><title>Node2</title>
<g id="a_node2"><a xlink:href="classpanda_1_1Container.html#aec587dc1a3991463ce002ee9cb82cb08" target="_top" xlink:title="panda::Container::Container">
<polygon fill="white" stroke="black" points="327.964,-39.5 327.964,-59.5 469.557,-59.5 469.557,-39.5 327.964,-39.5"/>
<text text-anchor="middle" x="398.76" y="-46.5" font-family="Helvetica,sans-Serif" font-size="10.00">panda::Container::Container</text>
</a>
</g>
</g>
<!-- Node1&#45;&gt;Node2 -->
<g id="edge1" class="edge"><title>Node1&#45;&gt;Node2</title>
<path fill="none" stroke="midnightblue" d="M143.776,-49.5C199.274,-49.5 273.889,-49.5 327.873,-49.5"/>
<polygon fill="midnightblue" stroke="midnightblue" points="143.645,-46.0001 133.645,-49.5 143.645,-53.0001 143.645,-46.0001"/>
</g>
<!-- Node3 -->
<g id="node3" class="node"><title>Node3</title>
<g id="a_node3"><a xlink:href="classpanda_1_1Container.html#a0873333a978d458a525f855d73416e09" target="_top" xlink:title="panda::Container::max_">
<polygon fill="white" stroke="black" points="169.265,-78.5 169.265,-98.5 291.964,-98.5 291.964,-78.5 169.265,-78.5"/>
<text text-anchor="middle" x="230.614" y="-85.5" font-family="Helvetica,sans-Serif" font-size="10.00">panda::Container::max_</text>
</a>
</g>
</g>
<!-- Node1&#45;&gt;Node3 -->
<g id="edge2" class="edge"><title>Node1&#45;&gt;Node3</title>
<path fill="none" stroke="midnightblue" d="M119.28,-61.9351C141.484,-67.281 167.09,-73.4461 188.041,-78.4906"/>
<polygon fill="midnightblue" stroke="midnightblue" points="119.888,-58.4816 109.347,-59.5435 118.25,-65.2871 119.888,-58.4816"/>
</g>
<!-- Node6 -->
<g id="node6" class="node"><title>Node6</title>
<g id="a_node6"><a xlink:href="classpanda_1_1Container.html#a47bf4140207c40fa731f44766dde536c" target="_top" xlink:title="Copy the array contents. ">
<polygon fill="white" stroke="black" points="170.929,-0.5 170.929,-20.5 290.299,-20.5 290.299,-0.5 170.929,-0.5"/>
<text text-anchor="middle" x="230.614" y="-7.5" font-family="Helvetica,sans-Serif" font-size="10.00">panda::Container::copy</text>
</a>
</g>
</g>
<!-- Node1&#45;&gt;Node6 -->
<g id="edge5" class="edge"><title>Node1&#45;&gt;Node6</title>
<path fill="none" stroke="midnightblue" d="M119.28,-37.0649C141.484,-31.719 167.09,-25.5539 188.041,-20.5094"/>
<polygon fill="midnightblue" stroke="midnightblue" points="118.25,-33.7129 109.347,-39.4565 119.888,-40.5184 118.25,-33.7129"/>
</g>
<!-- Node4 -->
<g id="node4" class="node"><title>Node4</title>
<g id="a_node4"><a xlink:href="classpanda_1_1Container.html#ac063e06f3e792ff475f28cd502abf843" target="_top" xlink:title="Return an iterator pointing to the end of the array (invalid address) ">
<polygon fill="white" stroke="black" points="341.296,-78.5 341.296,-98.5 456.225,-98.5 456.225,-78.5 341.296,-78.5"/>
<text text-anchor="middle" x="398.76" y="-85.5" font-family="Helvetica,sans-Serif" font-size="10.00">panda::Container::end</text>
</a>
</g>
</g>
<!-- Node3&#45;&gt;Node4 -->
<g id="edge3" class="edge"><title>Node3&#45;&gt;Node4</title>
<path fill="none" stroke="midnightblue" d="M302.363,-88.5C315.341,-88.5 328.73,-88.5 341.224,-88.5"/>
<polygon fill="midnightblue" stroke="midnightblue" points="302.067,-85.0001 292.067,-88.5 302.067,-92.0001 302.067,-85.0001"/>
</g>
<!-- Node5 -->
<g id="node5" class="node"><title>Node5</title>
<g id="a_node5"><a xlink:href="classpanda_1_1Container.html#a61bb66309ba1c1472097808caf751200" target="_top" xlink:title="Reference to the last element. ">
<polygon fill="white" stroke="black" points="339.075,-117.5 339.075,-137.5 458.445,-137.5 458.445,-117.5 339.075,-117.5"/>
<text text-anchor="middle" x="398.76" y="-124.5" font-family="Helvetica,sans-Serif" font-size="10.00">panda::Container::back</text>
</a>
</g>
</g>
<!-- Node3&#45;&gt;Node5 -->
<g id="edge4" class="edge"><title>Node3&#45;&gt;Node5</title>
<path fill="none" stroke="midnightblue" d="M284.282,-100.863C307.128,-106.225 333.532,-112.423 355.119,-117.491"/>
<polygon fill="midnightblue" stroke="midnightblue" points="284.936,-97.4214 274.401,-98.5435 283.337,-104.236 284.936,-97.4214"/>
</g>
<!-- Node6&#45;&gt;Node2 -->
<g id="edge6" class="edge"><title>Node6&#45;&gt;Node2</title>
<path fill="none" stroke="midnightblue" d="M284.282,-22.8629C307.128,-28.2254 333.532,-34.4234 355.119,-39.4906"/>
<polygon fill="midnightblue" stroke="midnightblue" points="284.936,-19.4214 274.401,-20.5435 283.337,-26.2362 284.936,-19.4214"/>
</g>
<!-- Node7 -->
<g id="node7" class="node"><title>Node7</title>
<g id="a_node7"><a xlink:href="classpanda_1_1Container.html#a12c1ec82df87e7bb377788c76ba07891" target="_top" xlink:title="panda::Container::operator=">
<polygon fill="white" stroke="black" points="328.099,-0.5 328.099,-20.5 469.422,-20.5 469.422,-0.5 328.099,-0.5"/>
<text text-anchor="middle" x="398.76" y="-7.5" font-family="Helvetica,sans-Serif" font-size="10.00">panda::Container::operator=</text>
</a>
</g>
</g>
<!-- Node6&#45;&gt;Node7 -->
<g id="edge7" class="edge"><title>Node6&#45;&gt;Node7</title>
<path fill="none" stroke="midnightblue" d="M300.671,-10.5C309.644,-10.5 318.841,-10.5 327.828,-10.5"/>
<polygon fill="midnightblue" stroke="midnightblue" points="300.659,-7.0001 290.659,-10.5 300.659,-14.0001 300.659,-7.0001"/>
</g>
</g>
</svg>
