<?xml version="1.0" encoding="UTF-8" standalone="no"?>
<!DOCTYPE svg PUBLIC "-//W3C//DTD SVG 1.1//EN"
 "http://www.w3.org/Graphics/SVG/1.1/DTD/svg11.dtd">
<!-- Generated by graphviz version 2.38.0 (20140413.2041)
 -->
<!-- Title: panda::Particle::Particle Pages: 1 -->
<svg width="295pt" height="41pt"
 viewBox="0.00 0.00 294.94 41.00" xmlns="http://www.w3.org/2000/svg" xmlns:xlink="http://www.w3.org/1999/xlink">
<g id="graph0" class="graph" transform="scale(1 1) rotate(0) translate(4 37)">
<title>panda::Particle::Particle</title>
<polygon fill="white" stroke="none" points="-4,4 -4,-37 290.944,-37 290.944,4 -4,4"/>
<!-- Node1 -->
<g id="node1" class="node"><title>Node1</title>
<polygon fill="#bfbfbf" stroke="black" points="7.10543e-15,-6.5 7.10543e-15,-26.5 121.577,-26.5 121.577,-6.5 7.10543e-15,-6.5"/>
<text text-anchor="middle" x="60.7885" y="-13.5" font-family="Helvetica,sans-Serif" font-size="10.00">panda::Particle::Particle</text>
</g>
<!-- Node2 -->
<g id="node2" class="node"><title>Node2</title>
<g id="a_node2"><a xlink:href="classpanda_1_1ContainerElement.html#ae8ba59e4cb5d7c1d491fc87c9360f039" target="_top" xlink:title="panda::ContainerElement\l::operator=">
<polygon fill="white" stroke="black" points="157.577,-0.5 157.577,-32.5 286.944,-32.5 286.944,-0.5 157.577,-0.5"/>
<text text-anchor="start" x="165.577" y="-19.5" font-family="Helvetica,sans-Serif" font-size="10.00">panda::ContainerElement</text>
<text text-anchor="middle" x="222.26" y="-7.5" font-family="Helvetica,sans-Serif" font-size="10.00">::operator=</text>
</a>
</g>
</g>
<!-- Node1&#45;&gt;Node2 -->
<g id="edge1" class="edge"><title>Node1&#45;&gt;Node2</title>
<path fill="none" stroke="midnightblue" d="M121.624,-16.5C130.009,-16.5 138.708,-16.5 147.316,-16.5"/>
<polygon fill="midnightblue" stroke="midnightblue" points="147.355,-20.0001 157.355,-16.5 147.355,-13.0001 147.355,-20.0001"/>
</g>
</g>
</svg>
