<?xml version="1.0" encoding="UTF-8" standalone="no"?>
<!DOCTYPE svg PUBLIC "-//W3C//DTD SVG 1.1//EN"
 "http://www.w3.org/Graphics/SVG/1.1/DTD/svg11.dtd">
<!-- Generated by graphviz version 2.38.0 (20140413.2041)
 -->
<!-- Title: panda::ContainerBase Pages: 1 -->
<svg width="238pt" height="143pt"
 viewBox="0.00 0.00 238.03 143.00" xmlns="http://www.w3.org/2000/svg" xmlns:xlink="http://www.w3.org/1999/xlink">
<g id="graph0" class="graph" transform="scale(1 1) rotate(0) translate(4 139)">
<title>panda::ContainerBase</title>
<polygon fill="white" stroke="none" points="-4,4 -4,-139 234.028,-139 234.028,4 -4,4"/>
<!-- Node1 -->
<g id="node1" class="node"><title>Node1</title>
<polygon fill="#bfbfbf" stroke="black" points="52.2725,-57.5 52.2725,-77.5 167.753,-77.5 167.753,-57.5 52.2725,-57.5"/>
<text text-anchor="middle" x="110.013" y="-64.5" font-family="Helvetica,sans-Serif" font-size="10.00">panda::ContainerBase</text>
</g>
<!-- Node3 -->
<g id="node3" class="node"><title>Node3</title>
<g id="a_node3"><a xlink:href="classpanda_1_1ArrayBase.html" target="_top" xlink:title="Base class for fixed&#45;size containers. ">
<polygon fill="white" stroke="black" points="-7.10543e-15,-0.5 -7.10543e-15,-20.5 96.026,-20.5 96.026,-0.5 -7.10543e-15,-0.5"/>
<text text-anchor="middle" x="48.013" y="-7.5" font-family="Helvetica,sans-Serif" font-size="10.00">panda::ArrayBase</text>
</a>
</g>
</g>
<!-- Node1&#45;&gt;Node3 -->
<g id="edge2" class="edge"><title>Node1&#45;&gt;Node3</title>
<path fill="none" stroke="midnightblue" d="M92.0715,-50.5841C81.1748,-40.9177 67.6441,-28.9147 58.4735,-20.7795"/>
<polygon fill="midnightblue" stroke="midnightblue" points="89.9715,-53.4 99.775,-57.4179 94.6169,-48.1634 89.9715,-53.4"/>
</g>
<!-- Node4 -->
<g id="node4" class="node"><title>Node4</title>
<g id="a_node4"><a xlink:href="classpanda_1_1CollectionBase.html" target="_top" xlink:title="Base class for dynamic&#45;size containers. ">
<polygon fill="white" stroke="black" points="113.997,-0.5 113.997,-20.5 230.028,-20.5 230.028,-0.5 113.997,-0.5"/>
<text text-anchor="middle" x="172.013" y="-7.5" font-family="Helvetica,sans-Serif" font-size="10.00">panda::CollectionBase</text>
</a>
</g>
</g>
<!-- Node1&#45;&gt;Node4 -->
<g id="edge3" class="edge"><title>Node1&#45;&gt;Node4</title>
<path fill="none" stroke="midnightblue" d="M127.955,-50.5841C138.851,-40.9177 152.382,-28.9147 161.553,-20.7795"/>
<polygon fill="midnightblue" stroke="midnightblue" points="125.409,-48.1634 120.251,-57.4179 130.054,-53.4 125.409,-48.1634"/>
</g>
<!-- Node2 -->
<g id="node2" class="node"><title>Node2</title>
<g id="a_node2"><a xlink:href="classpanda_1_1Object.html" target="_top" xlink:title="panda::Object">
<polygon fill="white" stroke="black" points="70.889,-114.5 70.889,-134.5 149.137,-134.5 149.137,-114.5 70.889,-114.5"/>
<text text-anchor="middle" x="110.013" y="-121.5" font-family="Helvetica,sans-Serif" font-size="10.00">panda::Object</text>
</a>
</g>
</g>
<!-- Node2&#45;&gt;Node1 -->
<g id="edge1" class="edge"><title>Node2&#45;&gt;Node1</title>
<path fill="none" stroke="midnightblue" d="M110.013,-104.383C110.013,-95.3738 110.013,-85.0373 110.013,-77.7795"/>
<polygon fill="midnightblue" stroke="midnightblue" points="106.513,-104.418 110.013,-114.418 113.513,-104.418 106.513,-104.418"/>
</g>
</g>
</svg>
