<?xml version="1.0" encoding="UTF-8" standalone="no"?>
<!DOCTYPE svg PUBLIC "-//W3C//DTD SVG 1.1//EN"
 "http://www.w3.org/Graphics/SVG/1.1/DTD/svg11.dtd">
<!-- Generated by graphviz version 2.38.0 (20140413.2041)
 -->
<!-- Title: panda::ParticleM::book Pages: 1 -->
<svg width="625pt" height="147pt"
 viewBox="0.00 0.00 624.57 147.00" xmlns="http://www.w3.org/2000/svg" xmlns:xlink="http://www.w3.org/1999/xlink">
<g id="graph0" class="graph" transform="scale(1 1) rotate(0) translate(4 143)">
<title>panda::ParticleM::book</title>
<polygon fill="white" stroke="none" points="-4,4 -4,-143 620.57,-143 620.57,4 -4,4"/>
<!-- Node1 -->
<g id="node1" class="node"><title>Node1</title>
<polygon fill="#bfbfbf" stroke="black" points="1.42109e-14,-67.5 1.42109e-14,-87.5 118.25,-87.5 118.25,-67.5 1.42109e-14,-67.5"/>
<text text-anchor="middle" x="59.125" y="-74.5" font-family="Helvetica,sans-Serif" font-size="10.00">panda::ParticleM::book</text>
</g>
<!-- Node2 -->
<g id="node2" class="node"><title>Node2</title>
<g id="a_node2"><a xlink:href="classpanda_1_1Particle.html#aaf351374f253978216b4a893a1766a64" target="_top" xlink:title="Book new branches to the tree corresponding to the variables of this object. ">
<polygon fill="white" stroke="black" points="154.25,-67.5 154.25,-87.5 264.171,-87.5 264.171,-67.5 154.25,-67.5"/>
<text text-anchor="middle" x="209.211" y="-74.5" font-family="Helvetica,sans-Serif" font-size="10.00">panda::Particle::book</text>
</a>
</g>
</g>
<!-- Node1&#45;&gt;Node2 -->
<g id="edge1" class="edge"><title>Node1&#45;&gt;Node2</title>
<path fill="none" stroke="midnightblue" d="M118.652,-77.5C126.929,-77.5 135.476,-77.5 143.855,-77.5"/>
<polygon fill="midnightblue" stroke="midnightblue" points="143.962,-81.0001 153.962,-77.5 143.962,-74.0001 143.962,-81.0001"/>
</g>
<!-- Node4 -->
<g id="node4" class="node"><title>Node4</title>
<g id="a_node4"><a xlink:href="classpanda_1_1utils_1_1StoreManager.html#a6f30ec459d951e84a1196b7e2ffdcf49" target="_top" xlink:title="panda::utils::StoreManager\l::getName">
<polygon fill="white" stroke="black" points="300.171,-106.5 300.171,-138.5 436.206,-138.5 436.206,-106.5 300.171,-106.5"/>
<text text-anchor="start" x="308.171" y="-125.5" font-family="Helvetica,sans-Serif" font-size="10.00">panda::utils::StoreManager</text>
<text text-anchor="middle" x="368.189" y="-113.5" font-family="Helvetica,sans-Serif" font-size="10.00">::getName</text>
</a>
</g>
</g>
<!-- Node1&#45;&gt;Node4 -->
<g id="edge7" class="edge"><title>Node1&#45;&gt;Node4</title>
<path fill="none" stroke="midnightblue" d="M106.433,-87.5922C121.623,-90.7031 138.616,-93.9715 154.25,-96.5 198.989,-103.736 249.309,-109.967 289.795,-114.514"/>
<polygon fill="midnightblue" stroke="midnightblue" points="289.541,-118.008 299.867,-115.634 290.315,-111.05 289.541,-118.008"/>
</g>
<!-- Node5 -->
<g id="node5" class="node"><title>Node5</title>
<g id="a_node5"><a xlink:href="namespacepanda_1_1utils.html#aaa6c7cd5892388e6ffdf713b11abf793" target="_top" xlink:title="Book the branch. ">
<polygon fill="white" stroke="black" points="321.007,-28.5 321.007,-48.5 415.371,-48.5 415.371,-28.5 321.007,-28.5"/>
<text text-anchor="middle" x="368.189" y="-35.5" font-family="Helvetica,sans-Serif" font-size="10.00">panda::utils::book</text>
</a>
</g>
</g>
<!-- Node1&#45;&gt;Node5 -->
<g id="edge8" class="edge"><title>Node1&#45;&gt;Node5</title>
<path fill="none" stroke="midnightblue" d="M102.098,-67.4515C118.313,-63.8673 137.069,-60.0823 154.25,-57.5 207.087,-49.5587 267.836,-44.5405 310.89,-41.6691"/>
<polygon fill="midnightblue" stroke="midnightblue" points="311.139,-45.1605 320.891,-41.0195 310.685,-38.1752 311.139,-45.1605"/>
</g>
<!-- Node3 -->
<g id="node3" class="node"><title>Node3</title>
<g id="a_node3"><a xlink:href="classpanda_1_1Object.html#a2fcd6665633deef16e86aa4e49135dd7" target="_top" xlink:title="Book new branches to the tree corresponding to the variables of this object. ">
<polygon fill="white" stroke="black" points="315.447,-67.5 315.447,-87.5 420.93,-87.5 420.93,-67.5 315.447,-67.5"/>
<text text-anchor="middle" x="368.189" y="-74.5" font-family="Helvetica,sans-Serif" font-size="10.00">panda::Object::book</text>
</a>
</g>
</g>
<!-- Node2&#45;&gt;Node3 -->
<g id="edge2" class="edge"><title>Node2&#45;&gt;Node3</title>
<path fill="none" stroke="midnightblue" d="M264.233,-77.5C277.379,-77.5 291.541,-77.5 305.03,-77.5"/>
<polygon fill="midnightblue" stroke="midnightblue" points="305.186,-81.0001 315.186,-77.5 305.186,-74.0001 305.186,-81.0001"/>
</g>
<!-- Node2&#45;&gt;Node4 -->
<g id="edge3" class="edge"><title>Node2&#45;&gt;Node4</title>
<path fill="none" stroke="midnightblue" d="M245.439,-87.5989C261.988,-92.3428 282.268,-98.1563 301.495,-103.668"/>
<polygon fill="midnightblue" stroke="midnightblue" points="300.55,-107.038 311.127,-106.429 302.479,-100.309 300.55,-107.038"/>
</g>
<!-- Node2&#45;&gt;Node5 -->
<g id="edge4" class="edge"><title>Node2&#45;&gt;Node5</title>
<path fill="none" stroke="midnightblue" d="M250.636,-67.4565C270.869,-62.4298 295.555,-56.2968 316.991,-50.9713"/>
<polygon fill="midnightblue" stroke="midnightblue" points="318.039,-54.3174 326.9,-48.5094 316.351,-47.5239 318.039,-54.3174"/>
</g>
<!-- Node6 -->
<g id="node6" class="node"><title>Node6</title>
<g id="a_node6"><a xlink:href="classpanda_1_1utils_1_1BranchName.html#a6cc8a6df7c5b12a0221fd49773cca6a7" target="_top" xlink:title="Is the name included and not vetoed? ">
<polygon fill="white" stroke="black" points="472.206,-51.5 472.206,-71.5 616.57,-71.5 616.57,-51.5 472.206,-51.5"/>
<text text-anchor="middle" x="544.388" y="-58.5" font-family="Helvetica,sans-Serif" font-size="10.00">panda::utils::BranchName::in</text>
</a>
</g>
</g>
<!-- Node5&#45;&gt;Node6 -->
<g id="edge5" class="edge"><title>Node5&#45;&gt;Node6</title>
<path fill="none" stroke="midnightblue" d="M415.413,-44.6032C429.771,-46.4988 446.044,-48.6474 462.056,-50.7616"/>
<polygon fill="midnightblue" stroke="midnightblue" points="461.601,-54.2317 471.973,-52.0709 462.517,-47.2919 461.601,-54.2317"/>
</g>
<!-- Node7 -->
<g id="node7" class="node"><title>Node7</title>
<g id="a_node7"><a xlink:href="classpanda_1_1utils_1_1BranchName.html#a13958ff4a9d554d2c057c600b4f70412" target="_top" xlink:title="Prepend the branch name with &lt;objName.&gt;. ">
<polygon fill="white" stroke="black" points="478.874,-0.5 478.874,-32.5 609.902,-32.5 609.902,-0.5 478.874,-0.5"/>
<text text-anchor="start" x="486.874" y="-19.5" font-family="Helvetica,sans-Serif" font-size="10.00">panda::utils::BranchName</text>
<text text-anchor="middle" x="544.388" y="-7.5" font-family="Helvetica,sans-Serif" font-size="10.00">::fullName</text>
</a>
</g>
</g>
<!-- Node5&#45;&gt;Node7 -->
<g id="edge6" class="edge"><title>Node5&#45;&gt;Node7</title>
<path fill="none" stroke="midnightblue" d="M415.413,-32.6622C431.742,-30.6 450.55,-28.2247 468.633,-25.9409"/>
<polygon fill="midnightblue" stroke="midnightblue" points="469.102,-29.4096 478.584,-24.6842 468.225,-22.4648 469.102,-29.4096"/>
</g>
</g>
</svg>
