<?xml version="1.0" encoding="UTF-8" standalone="no"?>
<!DOCTYPE svg PUBLIC "-//W3C//DTD SVG 1.1//EN"
 "http://www.w3.org/Graphics/SVG/1.1/DTD/svg11.dtd">
<!-- Generated by graphviz version 2.38.0 (20140413.2041)
 -->
<!-- Title: panda::ContainerElement Pages: 1 -->
<svg width="872pt" height="302pt"
 viewBox="0.00 0.00 871.73 302.00" xmlns="http://www.w3.org/2000/svg" xmlns:xlink="http://www.w3.org/1999/xlink">
<g id="graph0" class="graph" transform="scale(1 1) rotate(0) translate(4 298)">
<title>panda::ContainerElement</title>
<polygon fill="white" stroke="none" points="-4,4 -4,-298 867.734,-298 867.734,4 -4,4"/>
<!-- Node1 -->
<g id="node1" class="node"><title>Node1</title>
<polygon fill="#bfbfbf" stroke="black" points="114.248,-97.5 114.248,-117.5 243.615,-117.5 243.615,-97.5 114.248,-97.5"/>
<text text-anchor="middle" x="178.932" y="-104.5" font-family="Helvetica,sans-Serif" font-size="10.00">panda::ContainerElement</text>
</g>
<!-- Node3 -->
<g id="node3" class="node"><title>Node3</title>
<g id="a_node3"><a xlink:href="classpanda_1_1Particle.html" target="_top" xlink:title="panda::Particle">
<polygon fill="white" stroke="black" points="292.118,-117.5 292.118,-137.5 374.804,-137.5 374.804,-117.5 292.118,-117.5"/>
<text text-anchor="middle" x="333.461" y="-124.5" font-family="Helvetica,sans-Serif" font-size="10.00">panda::Particle</text>
</a>
</g>
</g>
<!-- Node1&#45;&gt;Node3 -->
<g id="edge2" class="edge"><title>Node1&#45;&gt;Node3</title>
<path fill="none" stroke="midnightblue" d="M253.754,-117.18C266.916,-118.906 280.175,-120.644 291.961,-122.19"/>
<polygon fill="midnightblue" stroke="midnightblue" points="254.104,-113.696 243.734,-115.866 253.194,-120.636 254.104,-113.696"/>
</g>
<!-- Node17 -->
<g id="node17" class="node"><title>Node17</title>
<g id="a_node17"><a xlink:href="classpanda_1_1SuperCluster.html" target="_top" xlink:title="panda::SuperCluster">
<polygon fill="white" stroke="black" points="279.615,-78.5 279.615,-98.5 387.307,-98.5 387.307,-78.5 279.615,-78.5"/>
<text text-anchor="middle" x="333.461" y="-85.5" font-family="Helvetica,sans-Serif" font-size="10.00">panda::SuperCluster</text>
</a>
</g>
</g>
<!-- Node1&#45;&gt;Node17 -->
<g id="edge16" class="edge"><title>Node1&#45;&gt;Node17</title>
<path fill="none" stroke="midnightblue" d="M253.863,-98.2907C262.529,-97.2111 271.236,-96.1265 279.535,-95.0928"/>
<polygon fill="midnightblue" stroke="midnightblue" points="253.225,-94.843 243.734,-99.5524 254.09,-101.789 253.225,-94.843"/>
</g>
<!-- Node2 -->
<g id="node2" class="node"><title>Node2</title>
<g id="a_node2"><a xlink:href="classpanda_1_1Object.html" target="_top" xlink:title="panda::Object">
<polygon fill="white" stroke="black" points="2.84217e-14,-97.5 2.84217e-14,-117.5 78.248,-117.5 78.248,-97.5 2.84217e-14,-97.5"/>
<text text-anchor="middle" x="39.124" y="-104.5" font-family="Helvetica,sans-Serif" font-size="10.00">panda::Object</text>
</a>
</g>
</g>
<!-- Node2&#45;&gt;Node1 -->
<g id="edge1" class="edge"><title>Node2&#45;&gt;Node1</title>
<path fill="none" stroke="midnightblue" d="M88.6785,-107.5C96.9171,-107.5 105.582,-107.5 114.141,-107.5"/>
<polygon fill="midnightblue" stroke="midnightblue" points="88.5111,-104 78.5111,-107.5 88.511,-111 88.5111,-104"/>
</g>
<!-- Node4 -->
<g id="node4" class="node"><title>Node4</title>
<g id="a_node4"><a xlink:href="classpanda_1_1Lepton.html" target="_top" xlink:title="panda::Lepton">
<polygon fill="white" stroke="black" points="428.851,-234.5 428.851,-254.5 508.778,-254.5 508.778,-234.5 428.851,-234.5"/>
<text text-anchor="middle" x="468.814" y="-241.5" font-family="Helvetica,sans-Serif" font-size="10.00">panda::Lepton</text>
</a>
</g>
</g>
<!-- Node3&#45;&gt;Node4 -->
<g id="edge3" class="edge"><title>Node3&#45;&gt;Node4</title>
<path fill="none" stroke="midnightblue" d="M353.907,-144.561C382.055,-169.257 433.284,-214.204 456.197,-234.307"/>
<polygon fill="midnightblue" stroke="midnightblue" points="356.121,-141.847 346.295,-137.883 351.504,-147.109 356.121,-141.847"/>
</g>
<!-- Node7 -->
<g id="node7" class="node"><title>Node7</title>
<g id="a_node7"><a xlink:href="classpanda_1_1ParticleM.html" target="_top" xlink:title="panda::ParticleM">
<polygon fill="white" stroke="black" points="423.307,-117.5 423.307,-137.5 514.322,-137.5 514.322,-117.5 423.307,-117.5"/>
<text text-anchor="middle" x="468.814" y="-124.5" font-family="Helvetica,sans-Serif" font-size="10.00">panda::ParticleM</text>
</a>
</g>
</g>
<!-- Node3&#45;&gt;Node7 -->
<g id="edge6" class="edge"><title>Node3&#45;&gt;Node7</title>
<path fill="none" stroke="midnightblue" d="M385.064,-127.5C397.515,-127.5 410.761,-127.5 422.921,-127.5"/>
<polygon fill="midnightblue" stroke="midnightblue" points="384.833,-124 374.833,-127.5 384.833,-131 384.833,-124"/>
</g>
<!-- Node16 -->
<g id="node16" class="node"><title>Node16</title>
<g id="a_node16"><a xlink:href="classpanda_1_1Photon.html" target="_top" xlink:title="panda::Photon">
<polygon fill="white" stroke="black" points="428.296,-78.5 428.296,-98.5 509.333,-98.5 509.333,-78.5 428.296,-78.5"/>
<text text-anchor="middle" x="468.814" y="-85.5" font-family="Helvetica,sans-Serif" font-size="10.00">panda::Photon</text>
</a>
</g>
</g>
<!-- Node3&#45;&gt;Node16 -->
<g id="edge15" class="edge"><title>Node3&#45;&gt;Node16</title>
<path fill="none" stroke="midnightblue" d="M378.469,-114.63C396.397,-109.387 416.807,-103.418 433.589,-98.5094"/>
<polygon fill="midnightblue" stroke="midnightblue" points="377.418,-111.29 368.803,-117.457 379.383,-118.009 377.418,-111.29"/>
</g>
<!-- Node5 -->
<g id="node5" class="node"><title>Node5</title>
<g id="a_node5"><a xlink:href="classpanda_1_1Electron.html" target="_top" xlink:title="panda::Electron">
<polygon fill="white" stroke="black" points="558.1,-273.5 558.1,-293.5 644.126,-293.5 644.126,-273.5 558.1,-273.5"/>
<text text-anchor="middle" x="601.113" y="-280.5" font-family="Helvetica,sans-Serif" font-size="10.00">panda::Electron</text>
</a>
</g>
</g>
<!-- Node4&#45;&gt;Node5 -->
<g id="edge4" class="edge"><title>Node4&#45;&gt;Node5</title>
<path fill="none" stroke="midnightblue" d="M513.301,-257.516C530.7,-262.724 550.426,-268.628 566.672,-273.491"/>
<polygon fill="midnightblue" stroke="midnightblue" points="513.953,-254.058 503.37,-254.543 511.946,-260.764 513.953,-254.058"/>
</g>
<!-- Node6 -->
<g id="node6" class="node"><title>Node6</title>
<g id="a_node6"><a xlink:href="classpanda_1_1Muon.html" target="_top" xlink:title="panda::Muon">
<polygon fill="white" stroke="black" points="563.934,-234.5 563.934,-254.5 638.293,-254.5 638.293,-234.5 563.934,-234.5"/>
<text text-anchor="middle" x="601.113" y="-241.5" font-family="Helvetica,sans-Serif" font-size="10.00">panda::Muon</text>
</a>
</g>
</g>
<!-- Node4&#45;&gt;Node6 -->
<g id="edge5" class="edge"><title>Node4&#45;&gt;Node6</title>
<path fill="none" stroke="midnightblue" d="M518.963,-244.5C533.818,-244.5 549.856,-244.5 563.721,-244.5"/>
<polygon fill="midnightblue" stroke="midnightblue" points="518.909,-241 508.908,-244.5 518.908,-248 518.909,-241"/>
</g>
<!-- Node8 -->
<g id="node8" class="node"><title>Node8</title>
<g id="a_node8"><a xlink:href="classpanda_1_1GenJet.html" target="_top" xlink:title="panda::GenJet">
<polygon fill="white" stroke="black" points="560.319,-195.5 560.319,-215.5 641.907,-215.5 641.907,-195.5 560.319,-195.5"/>
<text text-anchor="middle" x="601.113" y="-202.5" font-family="Helvetica,sans-Serif" font-size="10.00">panda::GenJet</text>
</a>
</g>
</g>
<!-- Node7&#45;&gt;Node8 -->
<g id="edge7" class="edge"><title>Node7&#45;&gt;Node8</title>
<path fill="none" stroke="midnightblue" d="M489.713,-143.932C505.478,-156.419 528.42,-173.446 550.322,-185.5 557.014,-189.183 564.528,-192.559 571.65,-195.446"/>
<polygon fill="midnightblue" stroke="midnightblue" points="491.731,-141.063 481.746,-137.521 487.343,-146.517 491.731,-141.063"/>
</g>
<!-- Node9 -->
<g id="node9" class="node"><title>Node9</title>
<g id="a_node9"><a xlink:href="classpanda_1_1GenParticle.html" target="_top" xlink:title="panda::GenParticle">
<polygon fill="white" stroke="black" points="550.322,-156.5 550.322,-176.5 651.905,-176.5 651.905,-156.5 550.322,-156.5"/>
<text text-anchor="middle" x="601.113" y="-163.5" font-family="Helvetica,sans-Serif" font-size="10.00">panda::GenParticle</text>
</a>
</g>
</g>
<!-- Node7&#45;&gt;Node9 -->
<g id="edge8" class="edge"><title>Node7&#45;&gt;Node9</title>
<path fill="none" stroke="midnightblue" d="M513.301,-140.516C530.7,-145.724 550.426,-151.628 566.672,-156.491"/>
<polygon fill="midnightblue" stroke="midnightblue" points="513.953,-137.058 503.37,-137.543 511.946,-143.764 513.953,-137.058"/>
</g>
<!-- Node10 -->
<g id="node10" class="node"><title>Node10</title>
<g id="a_node10"><a xlink:href="classpanda_1_1MicroJet.html" target="_top" xlink:title="panda::MicroJet">
<polygon fill="white" stroke="black" points="557.55,-117.5 557.55,-137.5 644.677,-137.5 644.677,-117.5 557.55,-117.5"/>
<text text-anchor="middle" x="601.113" y="-124.5" font-family="Helvetica,sans-Serif" font-size="10.00">panda::MicroJet</text>
</a>
</g>
</g>
<!-- Node7&#45;&gt;Node10 -->
<g id="edge9" class="edge"><title>Node7&#45;&gt;Node10</title>
<path fill="none" stroke="midnightblue" d="M524.91,-127.5C535.769,-127.5 547.01,-127.5 557.387,-127.5"/>
<polygon fill="midnightblue" stroke="midnightblue" points="524.656,-124 514.656,-127.5 524.656,-131 524.656,-124"/>
</g>
<!-- Node13 -->
<g id="node13" class="node"><title>Node13</title>
<g id="a_node13"><a xlink:href="classpanda_1_1Parton.html" target="_top" xlink:title="panda::Parton">
<polygon fill="white" stroke="black" points="561.71,-78.5 561.71,-98.5 640.517,-98.5 640.517,-78.5 561.71,-78.5"/>
<text text-anchor="middle" x="601.113" y="-85.5" font-family="Helvetica,sans-Serif" font-size="10.00">panda::Parton</text>
</a>
</g>
</g>
<!-- Node7&#45;&gt;Node13 -->
<g id="edge12" class="edge"><title>Node7&#45;&gt;Node13</title>
<path fill="none" stroke="midnightblue" d="M513.301,-114.484C530.7,-109.276 550.426,-103.372 566.672,-98.5094"/>
<polygon fill="midnightblue" stroke="midnightblue" points="511.946,-111.236 503.37,-117.457 513.953,-117.942 511.946,-111.236"/>
</g>
<!-- Node14 -->
<g id="node14" class="node"><title>Node14</title>
<g id="a_node14"><a xlink:href="classpanda_1_1PFCand.html" target="_top" xlink:title="panda::PFCand">
<polygon fill="white" stroke="black" points="558.1,-39.5 558.1,-59.5 644.127,-59.5 644.127,-39.5 558.1,-39.5"/>
<text text-anchor="middle" x="601.113" y="-46.5" font-family="Helvetica,sans-Serif" font-size="10.00">panda::PFCand</text>
</a>
</g>
</g>
<!-- Node7&#45;&gt;Node14 -->
<g id="edge13" class="edge"><title>Node7&#45;&gt;Node14</title>
<path fill="none" stroke="midnightblue" d="M506.259,-112.628C509.067,-111.033 511.791,-109.322 514.322,-107.5 533.468,-93.7201 530.786,-81.721 550.322,-68.5 555.456,-65.0256 561.313,-62.0684 567.163,-59.5956"/>
<polygon fill="midnightblue" stroke="midnightblue" points="504.426,-109.635 497.133,-117.32 507.627,-115.86 504.426,-109.635"/>
</g>
<!-- Node15 -->
<g id="node15" class="node"><title>Node15</title>
<g id="a_node15"><a xlink:href="classpanda_1_1Tau.html" target="_top" xlink:title="panda::Tau">
<polygon fill="white" stroke="black" points="567.823,-0.5 567.823,-20.5 634.403,-20.5 634.403,-0.5 567.823,-0.5"/>
<text text-anchor="middle" x="601.113" y="-7.5" font-family="Helvetica,sans-Serif" font-size="10.00">panda::Tau</text>
</a>
</g>
</g>
<!-- Node7&#45;&gt;Node15 -->
<g id="edge14" class="edge"><title>Node7&#45;&gt;Node15</title>
<path fill="none" stroke="midnightblue" d="M509.078,-111.955C510.944,-110.581 512.708,-109.098 514.322,-107.5 541.456,-80.6385 522.424,-55.5664 550.322,-29.5 555.257,-24.8888 561.427,-21.3625 567.725,-18.6773"/>
<polygon fill="midnightblue" stroke="midnightblue" points="507.081,-109.074 500.406,-117.303 510.755,-115.032 507.081,-109.074"/>
</g>
<!-- Node11 -->
<g id="node11" class="node"><title>Node11</title>
<g id="a_node11"><a xlink:href="classpanda_1_1Jet.html" target="_top" xlink:title="panda::Jet">
<polygon fill="white" stroke="black" points="687.905,-117.5 687.905,-137.5 750.596,-137.5 750.596,-117.5 687.905,-117.5"/>
<text text-anchor="middle" x="719.25" y="-124.5" font-family="Helvetica,sans-Serif" font-size="10.00">panda::Jet</text>
</a>
</g>
</g>
<!-- Node10&#45;&gt;Node11 -->
<g id="edge10" class="edge"><title>Node10&#45;&gt;Node11</title>
<path fill="none" stroke="midnightblue" d="M654.885,-127.5C666.112,-127.5 677.604,-127.5 687.666,-127.5"/>
<polygon fill="midnightblue" stroke="midnightblue" points="654.699,-124 644.699,-127.5 654.699,-131 654.699,-124"/>
</g>
<!-- Node12 -->
<g id="node12" class="node"><title>Node12</title>
<g id="a_node12"><a xlink:href="classpanda_1_1FatJet.html" target="_top" xlink:title="panda::FatJet">
<polygon fill="white" stroke="black" points="786.596,-117.5 786.596,-137.5 863.734,-137.5 863.734,-117.5 786.596,-117.5"/>
<text text-anchor="middle" x="825.165" y="-124.5" font-family="Helvetica,sans-Serif" font-size="10.00">panda::FatJet</text>
</a>
</g>
</g>
<!-- Node11&#45;&gt;Node12 -->
<g id="edge11" class="edge"><title>Node11&#45;&gt;Node12</title>
<path fill="none" stroke="midnightblue" d="M761.134,-127.5C769.462,-127.5 778.188,-127.5 786.401,-127.5"/>
<polygon fill="midnightblue" stroke="midnightblue" points="760.866,-124 750.866,-127.5 760.866,-131 760.866,-124"/>
</g>
</g>
</svg>
