<?xml version="1.0" encoding="UTF-8" standalone="no"?>
<!DOCTYPE svg PUBLIC "-//W3C//DTD SVG 1.1//EN"
 "http://www.w3.org/Graphics/SVG/1.1/DTD/svg11.dtd">
<!-- Generated by graphviz version 2.38.0 (20140413.2041)
 -->
<!-- Title: panda::ContainerBase::reallocate_ Pages: 1 -->
<svg width="464pt" height="68pt"
 viewBox="0.00 0.00 464.23 68.00" xmlns="http://www.w3.org/2000/svg" xmlns:xlink="http://www.w3.org/1999/xlink">
<g id="graph0" class="graph" transform="scale(1 1) rotate(0) translate(4 64)">
<title>panda::ContainerBase::reallocate_</title>
<polygon fill="white" stroke="none" points="-4,4 -4,-64 460.226,-64 460.226,4 -4,4"/>
<!-- Node1 -->
<g id="node1" class="node"><title>Node1</title>
<polygon fill="#bfbfbf" stroke="black" points="7.10543e-15,-13.5 7.10543e-15,-45.5 115.481,-45.5 115.481,-13.5 7.10543e-15,-13.5"/>
<text text-anchor="start" x="8" y="-32.5" font-family="Helvetica,sans-Serif" font-size="10.00">panda::ContainerBase</text>
<text text-anchor="middle" x="57.7405" y="-20.5" font-family="Helvetica,sans-Serif" font-size="10.00">::reallocate_</text>
</g>
<!-- Node2 -->
<g id="node2" class="node"><title>Node2</title>
<g id="a_node2"><a xlink:href="classpanda_1_1CollectionBase.html#a3ec014ac2da87bb755afbea0822621cc" target="_top" xlink:title="Resize the container. ">
<polygon fill="white" stroke="black" points="151.481,-13.5 151.481,-45.5 267.512,-45.5 267.512,-13.5 151.481,-13.5"/>
<text text-anchor="start" x="159.481" y="-32.5" font-family="Helvetica,sans-Serif" font-size="10.00">panda::CollectionBase</text>
<text text-anchor="middle" x="209.496" y="-20.5" font-family="Helvetica,sans-Serif" font-size="10.00">::resize</text>
</a>
</g>
</g>
<!-- Node1&#45;&gt;Node2 -->
<g id="edge1" class="edge"><title>Node1&#45;&gt;Node2</title>
<path fill="none" stroke="midnightblue" d="M125.942,-29.5C134.346,-29.5 142.88,-29.5 151.115,-29.5"/>
<polygon fill="midnightblue" stroke="midnightblue" points="125.784,-26.0001 115.784,-29.5 125.784,-33.0001 125.784,-26.0001"/>
</g>
<!-- Node3 -->
<g id="node3" class="node"><title>Node3</title>
<g id="a_node3"><a xlink:href="classpanda_1_1Container.html#a05e9a487429721164541511d87a9783d" target="_top" xlink:title="panda::Container::copy">
<polygon fill="white" stroke="black" points="320.184,-39.5 320.184,-59.5 439.554,-59.5 439.554,-39.5 320.184,-39.5"/>
<text text-anchor="middle" x="379.869" y="-46.5" font-family="Helvetica,sans-Serif" font-size="10.00">panda::Container::copy</text>
</a>
</g>
</g>
<!-- Node2&#45;&gt;Node3 -->
<g id="edge2" class="edge"><title>Node2&#45;&gt;Node3</title>
<path fill="none" stroke="midnightblue" d="M277.952,-37.5126C291.845,-39.163 306.373,-40.8886 319.936,-42.4997"/>
<polygon fill="midnightblue" stroke="midnightblue" points="278.313,-34.031 267.97,-36.3269 277.487,-40.9821 278.313,-34.031"/>
</g>
<!-- Node4 -->
<g id="node4" class="node"><title>Node4</title>
<g id="a_node4"><a xlink:href="classpanda_1_1Container.html#a9603d59e46e21b048714a9760964b536" target="_top" xlink:title="panda::Container::create_back">
<polygon fill="white" stroke="black" points="303.512,-0.5 303.512,-20.5 456.226,-20.5 456.226,-0.5 303.512,-0.5"/>
<text text-anchor="middle" x="379.869" y="-7.5" font-family="Helvetica,sans-Serif" font-size="10.00">panda::Container::create_back</text>
</a>
</g>
</g>
<!-- Node2&#45;&gt;Node4 -->
<g id="edge3" class="edge"><title>Node2&#45;&gt;Node4</title>
<path fill="none" stroke="midnightblue" d="M278.044,-21.8776C286.415,-20.933 295.014,-19.9626 303.493,-19.0058"/>
<polygon fill="midnightblue" stroke="midnightblue" points="277.514,-18.4151 267.97,-23.0144 278.299,-25.3709 277.514,-18.4151"/>
</g>
</g>
</svg>
