<?xml version="1.0" encoding="UTF-8" standalone="no"?>
<!DOCTYPE svg PUBLIC "-//W3C//DTD SVG 1.1//EN"
 "http://www.w3.org/Graphics/SVG/1.1/DTD/svg11.dtd">
<!-- Generated by graphviz version 2.38.0 (20140413.2041)
 -->
<!-- Title: panda::Lepton::setAddress Pages: 1 -->
<svg width="821pt" height="189pt"
 viewBox="0.00 0.00 820.52 189.00" xmlns="http://www.w3.org/2000/svg" xmlns:xlink="http://www.w3.org/1999/xlink">
<g id="graph0" class="graph" transform="scale(1 1) rotate(0) translate(4 185)">
<title>panda::Lepton::setAddress</title>
<polygon fill="white" stroke="none" points="-4,4 -4,-185 816.524,-185 816.524,4 -4,4"/>
<!-- Node1 -->
<g id="node1" class="node"><title>Node1</title>
<polygon fill="#bfbfbf" stroke="black" points="2.84217e-14,-89.5 2.84217e-14,-109.5 135.498,-109.5 135.498,-89.5 2.84217e-14,-89.5"/>
<text text-anchor="middle" x="67.749" y="-96.5" font-family="Helvetica,sans-Serif" font-size="10.00">panda::Lepton::setAddress</text>
</g>
<!-- Node2 -->
<g id="node2" class="node"><title>Node2</title>
<g id="a_node2"><a xlink:href="classpanda_1_1Particle.html#a96282cfb24384c1f00c40576069a4c7e" target="_top" xlink:title="Set address for the branches to the variables of this object. ">
<polygon fill="white" stroke="black" points="171.498,-109.5 171.498,-129.5 309.755,-129.5 309.755,-109.5 171.498,-109.5"/>
<text text-anchor="middle" x="240.626" y="-116.5" font-family="Helvetica,sans-Serif" font-size="10.00">panda::Particle::setAddress</text>
</a>
</g>
</g>
<!-- Node1&#45;&gt;Node2 -->
<g id="edge1" class="edge"><title>Node1&#45;&gt;Node2</title>
<path fill="none" stroke="midnightblue" d="M135.794,-107.347C144.194,-108.33 152.844,-109.343 161.396,-110.344"/>
<polygon fill="midnightblue" stroke="midnightblue" points="161.032,-113.825 171.371,-111.511 161.846,-106.872 161.032,-113.825"/>
</g>
<!-- Node4 -->
<g id="node4" class="node"><title>Node4</title>
<g id="a_node4"><a xlink:href="classpanda_1_1utils_1_1StoreManager.html#a6f30ec459d951e84a1196b7e2ffdcf49" target="_top" xlink:title="panda::utils::StoreManager\l::getName">
<polygon fill="white" stroke="black" points="345.755,-148.5 345.755,-180.5 481.79,-180.5 481.79,-148.5 345.755,-148.5"/>
<text text-anchor="start" x="353.755" y="-167.5" font-family="Helvetica,sans-Serif" font-size="10.00">panda::utils::StoreManager</text>
<text text-anchor="middle" x="413.772" y="-155.5" font-family="Helvetica,sans-Serif" font-size="10.00">::getName</text>
</a>
</g>
</g>
<!-- Node1&#45;&gt;Node4 -->
<g id="edge13" class="edge"><title>Node1&#45;&gt;Node4</title>
<path fill="none" stroke="midnightblue" d="M89.8569,-109.65C110.259,-118.992 142.286,-132.437 171.498,-139.5 225.363,-152.525 287.604,-158.765 335.377,-161.754"/>
<polygon fill="midnightblue" stroke="midnightblue" points="335.461,-165.265 345.65,-162.361 335.874,-158.277 335.461,-165.265"/>
</g>
<!-- Node5 -->
<g id="node5" class="node"><title>Node5</title>
<g id="a_node5"><a xlink:href="namespacepanda_1_1utils.html#abf9c62e588560197c2bae9932e6a6e05" target="_top" xlink:title="Set address. ">
<polygon fill="white" stroke="black" points="352.422,-70.5 352.422,-90.5 475.122,-90.5 475.122,-70.5 352.422,-70.5"/>
<text text-anchor="middle" x="413.772" y="-77.5" font-family="Helvetica,sans-Serif" font-size="10.00">panda::utils::setAddress</text>
</a>
</g>
</g>
<!-- Node1&#45;&gt;Node5 -->
<g id="edge14" class="edge"><title>Node1&#45;&gt;Node5</title>
<path fill="none" stroke="midnightblue" d="M135.897,-95.7915C195.325,-92.5093 281.758,-87.7358 342.197,-84.3978"/>
<polygon fill="midnightblue" stroke="midnightblue" points="342.623,-87.8797 352.415,-83.8335 342.237,-80.8903 342.623,-87.8797"/>
</g>
<!-- Node11 -->
<g id="node11" class="node"><title>Node11</title>
<g id="a_node11"><a xlink:href="classpanda_1_1utils_1_1StoreManager.html#ae6c8fb6b0c3d25147b09ef8b92b61da8" target="_top" xlink:title="panda::utils::StoreManager\l::getData">
<polygon fill="white" stroke="black" points="172.609,-19.5 172.609,-51.5 308.644,-51.5 308.644,-19.5 172.609,-19.5"/>
<text text-anchor="start" x="180.609" y="-38.5" font-family="Helvetica,sans-Serif" font-size="10.00">panda::utils::StoreManager</text>
<text text-anchor="middle" x="240.626" y="-26.5" font-family="Helvetica,sans-Serif" font-size="10.00">::getData</text>
</a>
</g>
</g>
<!-- Node1&#45;&gt;Node11 -->
<g id="edge15" class="edge"><title>Node1&#45;&gt;Node11</title>
<path fill="none" stroke="midnightblue" d="M95.825,-89.359C120.281,-80.1993 156.958,-66.4625 187.149,-55.1547"/>
<polygon fill="midnightblue" stroke="midnightblue" points="188.563,-58.3628 196.7,-51.5776 186.108,-51.8075 188.563,-58.3628"/>
</g>
<!-- Node3 -->
<g id="node3" class="node"><title>Node3</title>
<g id="a_node3"><a xlink:href="classpanda_1_1Object.html#aed9f9d3b6abe518dd27957de843b36b5" target="_top" xlink:title="Set address for the branches to the variables of this object. ">
<polygon fill="white" stroke="black" points="346.863,-109.5 346.863,-129.5 480.682,-129.5 480.682,-109.5 346.863,-109.5"/>
<text text-anchor="middle" x="413.772" y="-116.5" font-family="Helvetica,sans-Serif" font-size="10.00">panda::Object::setAddress</text>
</a>
</g>
</g>
<!-- Node2&#45;&gt;Node3 -->
<g id="edge2" class="edge"><title>Node2&#45;&gt;Node3</title>
<path fill="none" stroke="midnightblue" d="M309.76,-119.5C318.632,-119.5 327.766,-119.5 336.757,-119.5"/>
<polygon fill="midnightblue" stroke="midnightblue" points="336.826,-123 346.826,-119.5 336.826,-116 336.826,-123"/>
</g>
<!-- Node2&#45;&gt;Node4 -->
<g id="edge3" class="edge"><title>Node2&#45;&gt;Node4</title>
<path fill="none" stroke="midnightblue" d="M280.035,-129.599C298.242,-134.386 320.592,-140.263 341.724,-145.819"/>
<polygon fill="midnightblue" stroke="midnightblue" points="341.09,-149.271 351.651,-148.429 342.87,-142.501 341.09,-149.271"/>
</g>
<!-- Node2&#45;&gt;Node5 -->
<g id="edge4" class="edge"><title>Node2&#45;&gt;Node5</title>
<path fill="none" stroke="midnightblue" d="M285.701,-109.457C308.06,-104.362 335.405,-98.1301 358.994,-92.7549"/>
<polygon fill="midnightblue" stroke="midnightblue" points="359.875,-96.1438 368.848,-90.5094 358.32,-89.3188 359.875,-96.1438"/>
</g>
<!-- Node6 -->
<g id="node6" class="node"><title>Node6</title>
<g id="a_node6"><a xlink:href="classpanda_1_1utils_1_1BranchName.html#a13958ff4a9d554d2c057c600b4f70412" target="_top" xlink:title="Prepend the branch name with &lt;objName.&gt;. ">
<polygon fill="white" stroke="black" points="674.828,-129.5 674.828,-161.5 805.856,-161.5 805.856,-129.5 674.828,-129.5"/>
<text text-anchor="start" x="682.828" y="-148.5" font-family="Helvetica,sans-Serif" font-size="10.00">panda::utils::BranchName</text>
<text text-anchor="middle" x="740.342" y="-136.5" font-family="Helvetica,sans-Serif" font-size="10.00">::fullName</text>
</a>
</g>
</g>
<!-- Node5&#45;&gt;Node6 -->
<g id="edge5" class="edge"><title>Node5&#45;&gt;Node6</title>
<path fill="none" stroke="midnightblue" d="M458.315,-90.5485C476.648,-94.6942 498.228,-99.4631 517.79,-103.5 566.596,-113.572 621.645,-124.012 664.66,-131.964"/>
<polygon fill="midnightblue" stroke="midnightblue" points="664.295,-135.455 674.764,-133.827 665.564,-128.571 664.295,-135.455"/>
</g>
<!-- Node7 -->
<g id="node7" class="node"><title>Node7</title>
<g id="a_node7"><a xlink:href="namespacepanda_1_1utils.html#a01665f786d6a2acedb8f008f3fc9fc84" target="_top" xlink:title="Set status of a branch. ">
<polygon fill="white" stroke="black" points="517.79,-51.5 517.79,-71.5 632.16,-71.5 632.16,-51.5 517.79,-51.5"/>
<text text-anchor="middle" x="574.975" y="-58.5" font-family="Helvetica,sans-Serif" font-size="10.00">panda::utils::setStatus</text>
</a>
</g>
</g>
<!-- Node5&#45;&gt;Node7 -->
<g id="edge6" class="edge"><title>Node5&#45;&gt;Node7</title>
<path fill="none" stroke="midnightblue" d="M475.414,-73.2627C485.936,-72.007 496.926,-70.6954 507.591,-69.4226"/>
<polygon fill="midnightblue" stroke="midnightblue" points="508.176,-72.8777 517.69,-68.2173 507.346,-65.9271 508.176,-72.8777"/>
</g>
<!-- Node8 -->
<g id="node8" class="node"><title>Node8</title>
<g id="a_node8"><a xlink:href="classpanda_1_1utils_1_1BranchName.html#a6cc8a6df7c5b12a0221fd49773cca6a7" target="_top" xlink:title="Is the name included and not vetoed? ">
<polygon fill="white" stroke="black" points="668.16,-90.5 668.16,-110.5 812.524,-110.5 812.524,-90.5 668.16,-90.5"/>
<text text-anchor="middle" x="740.342" y="-97.5" font-family="Helvetica,sans-Serif" font-size="10.00">panda::utils::BranchName::in</text>
</a>
</g>
</g>
<!-- Node5&#45;&gt;Node8 -->
<g id="edge11" class="edge"><title>Node5&#45;&gt;Node8</title>
<path fill="none" stroke="midnightblue" d="M475.441,-84.2384C526.935,-87.4114 601.268,-91.9919 657.931,-95.4835"/>
<polygon fill="midnightblue" stroke="midnightblue" points="657.741,-98.9783 667.938,-96.1001 658.172,-91.9916 657.741,-98.9783"/>
</g>
<!-- Node10 -->
<g id="node10" class="node"><title>Node10</title>
<g id="a_node10"><a xlink:href="namespacepanda_1_1utils.html#aafa411773a4b0ee829d99e6e5a0abdcd" target="_top" xlink:title="Check status of a branch. ">
<polygon fill="white" stroke="black" points="676.767,-0.5 676.767,-20.5 803.917,-20.5 803.917,-0.5 676.767,-0.5"/>
<text text-anchor="middle" x="740.342" y="-7.5" font-family="Helvetica,sans-Serif" font-size="10.00">panda::utils::checkStatus</text>
</a>
</g>
</g>
<!-- Node5&#45;&gt;Node10 -->
<g id="edge12" class="edge"><title>Node5&#45;&gt;Node10</title>
<path fill="none" stroke="midnightblue" d="M437.215,-70.3361C457.774,-61.4299 489.258,-48.7993 517.79,-41.5 566.661,-28.9973 622.971,-21.2015 666.593,-16.5548"/>
<polygon fill="midnightblue" stroke="midnightblue" points="666.959,-20.0357 676.546,-15.5255 666.239,-13.0728 666.959,-20.0357"/>
</g>
<!-- Node7&#45;&gt;Node6 -->
<g id="edge9" class="edge"><title>Node7&#45;&gt;Node6</title>
<path fill="none" stroke="midnightblue" d="M589.444,-71.5422C606.9,-84.2163 638.611,-106.097 668.16,-120.5 671.869,-122.308 675.743,-124.049 679.685,-125.713"/>
<polygon fill="midnightblue" stroke="midnightblue" points="678.378,-128.96 688.961,-129.45 680.993,-122.467 678.378,-128.96"/>
</g>
<!-- Node7&#45;&gt;Node8 -->
<g id="edge7" class="edge"><title>Node7&#45;&gt;Node8</title>
<path fill="none" stroke="midnightblue" d="M618.046,-71.5435C639.198,-76.593 665.026,-82.7587 687.404,-88.1009"/>
<polygon fill="midnightblue" stroke="midnightblue" points="686.874,-91.5728 697.414,-90.4906 688.5,-84.7641 686.874,-91.5728"/>
</g>
<!-- Node9 -->
<g id="node9" class="node"><title>Node9</title>
<g id="a_node9"><a xlink:href="classpanda_1_1utils_1_1BranchName.html#ae3332329bf2afae5ed8e7c35e5d77ffa" target="_top" xlink:title="Is the name included and vetoed? ">
<polygon fill="white" stroke="black" points="674.828,-39.5 674.828,-71.5 805.856,-71.5 805.856,-39.5 674.828,-39.5"/>
<text text-anchor="start" x="682.828" y="-58.5" font-family="Helvetica,sans-Serif" font-size="10.00">panda::utils::BranchName</text>
<text text-anchor="middle" x="740.342" y="-46.5" font-family="Helvetica,sans-Serif" font-size="10.00">::vetoed</text>
</a>
</g>
</g>
<!-- Node7&#45;&gt;Node9 -->
<g id="edge8" class="edge"><title>Node7&#45;&gt;Node9</title>
<path fill="none" stroke="midnightblue" d="M632.197,-59.4351C642.548,-59.055 653.506,-58.6525 664.308,-58.2558"/>
<polygon fill="midnightblue" stroke="midnightblue" points="664.727,-61.7429 674.592,-57.8781 664.47,-54.7476 664.727,-61.7429"/>
</g>
<!-- Node7&#45;&gt;Node10 -->
<g id="edge10" class="edge"><title>Node7&#45;&gt;Node10</title>
<path fill="none" stroke="midnightblue" d="M603.232,-51.4496C621.492,-44.8624 646.132,-36.2532 668.16,-29.5 675.138,-27.3607 682.542,-25.2311 689.835,-23.2131"/>
<polygon fill="midnightblue" stroke="midnightblue" points="690.931,-26.5424 699.661,-20.5402 689.093,-19.7878 690.931,-26.5424"/>
</g>
</g>
</svg>
