<?xml version="1.0" encoding="UTF-8" standalone="no"?>
<!DOCTYPE svg PUBLIC "-//W3C//DTD SVG 1.1//EN"
 "http://www.w3.org/Graphics/SVG/1.1/DTD/svg11.dtd">
<!-- Generated by graphviz version 2.38.0 (20140413.2041)
 -->
<!-- Title: panda::ContainerBase::updateAddress_ Pages: 1 -->
<svg width="307pt" height="41pt"
 viewBox="0.00 0.00 306.63 41.00" xmlns="http://www.w3.org/2000/svg" xmlns:xlink="http://www.w3.org/1999/xlink">
<g id="graph0" class="graph" transform="scale(1 1) rotate(0) translate(4 37)">
<title>panda::ContainerBase::updateAddress_</title>
<polygon fill="white" stroke="none" points="-4,4 -4,-37 302.633,-37 302.633,4 -4,4"/>
<!-- Node1 -->
<g id="node1" class="node"><title>Node1</title>
<polygon fill="#bfbfbf" stroke="black" points="7.10543e-15,-0.5 7.10543e-15,-32.5 115.481,-32.5 115.481,-0.5 7.10543e-15,-0.5"/>
<text text-anchor="start" x="8" y="-19.5" font-family="Helvetica,sans-Serif" font-size="10.00">panda::ContainerBase</text>
<text text-anchor="middle" x="57.7405" y="-7.5" font-family="Helvetica,sans-Serif" font-size="10.00">::updateAddress_</text>
</g>
<!-- Node2 -->
<g id="node2" class="node"><title>Node2</title>
<g id="a_node2"><a xlink:href="classpanda_1_1Container.html#ac46ef511210265180579d57a9378b7de" target="_top" xlink:title="panda::Container::reallocate_">
<polygon fill="white" stroke="black" points="151.481,-6.5 151.481,-26.5 298.633,-26.5 298.633,-6.5 151.481,-6.5"/>
<text text-anchor="middle" x="225.057" y="-13.5" font-family="Helvetica,sans-Serif" font-size="10.00">panda::Container::reallocate_</text>
</a>
</g>
</g>
<!-- Node1&#45;&gt;Node2 -->
<g id="edge1" class="edge"><title>Node1&#45;&gt;Node2</title>
<path fill="none" stroke="midnightblue" d="M125.756,-16.5C134.166,-16.5 142.8,-16.5 151.293,-16.5"/>
<polygon fill="midnightblue" stroke="midnightblue" points="125.633,-13.0001 115.633,-16.5 125.633,-20.0001 125.633,-13.0001"/>
</g>
</g>
</svg>
