<?xml version="1.0" encoding="UTF-8" standalone="no"?>
<!DOCTYPE svg PUBLIC "-//W3C//DTD SVG 1.1//EN"
 "http://www.w3.org/Graphics/SVG/1.1/DTD/svg11.dtd">
<!-- Generated by graphviz version 2.38.0 (20140413.2041)
 -->
<!-- Title: panda.output.FileOutput.write Pages: 1 -->
<svg width="338pt" height="41pt"
 viewBox="0.00 0.00 338.30 41.00" xmlns="http://www.w3.org/2000/svg" xmlns:xlink="http://www.w3.org/1999/xlink">
<g id="graph0" class="graph" transform="scale(1 1) rotate(0) translate(4 37)">
<title>panda.output.FileOutput.write</title>
<polygon fill="white" stroke="none" points="-4,4 -4,-37 334.302,-37 334.302,4 -4,4"/>
<!-- Node1 -->
<g id="node1" class="node"><title>Node1</title>
<polygon fill="#bfbfbf" stroke="black" points="2.84217e-14,-6.5 2.84217e-14,-26.5 147.151,-26.5 147.151,-6.5 2.84217e-14,-6.5"/>
<text text-anchor="middle" x="73.5755" y="-13.5" font-family="Helvetica,sans-Serif" font-size="10.00">panda.output.FileOutput.write</text>
</g>
<!-- Node2 -->
<g id="node2" class="node"><title>Node2</title>
<g id="a_node2"><a xlink:href="classpanda_1_1output_1_1FileOutput.html#ae358033a1736afb38bf247be5caef389" target="_top" xlink:title="panda.output.FileOutput.write\l_custom_block">
<polygon fill="white" stroke="black" points="183.151,-0.5 183.151,-32.5 330.302,-32.5 330.302,-0.5 183.151,-0.5"/>
<text text-anchor="start" x="191.151" y="-19.5" font-family="Helvetica,sans-Serif" font-size="10.00">panda.output.FileOutput.write</text>
<text text-anchor="middle" x="256.726" y="-7.5" font-family="Helvetica,sans-Serif" font-size="10.00">_custom_block</text>
</a>
</g>
</g>
<!-- Node1&#45;&gt;Node2 -->
<g id="edge1" class="edge"><title>Node1&#45;&gt;Node2</title>
<path fill="none" stroke="midnightblue" d="M157.261,-16.5C165.874,-16.5 174.583,-16.5 183.073,-16.5"/>
<polygon fill="midnightblue" stroke="midnightblue" points="157.213,-13.0001 147.213,-16.5 157.213,-20.0001 157.213,-13.0001"/>
</g>
</g>
</svg>
