<?xml version="1.0" encoding="UTF-8" standalone="no"?>
<!DOCTYPE svg PUBLIC "-//W3C//DTD SVG 1.1//EN"
 "http://www.w3.org/Graphics/SVG/1.1/DTD/svg11.dtd">
<!-- Generated by graphviz version 2.38.0 (20140413.2041)
 -->
<!-- Title: panda.refbranch.RefBranch._write_ref_set Pages: 1 -->
<svg width="348pt" height="296pt"
 viewBox="0.00 0.00 348.30 296.00" xmlns="http://www.w3.org/2000/svg" xmlns:xlink="http://www.w3.org/1999/xlink">
<g id="graph0" class="graph" transform="scale(1 1) rotate(0) translate(4 292)">
<title>panda.refbranch.RefBranch._write_ref_set</title>
<polygon fill="white" stroke="none" points="-4,4 -4,-292 344.297,-292 344.297,4 -4,4"/>
<!-- Node1 -->
<g id="node1" class="node"><title>Node1</title>
<polygon fill="#bfbfbf" stroke="black" points="0,-127.5 0,-159.5 141.596,-159.5 141.596,-127.5 0,-127.5"/>
<text text-anchor="start" x="8" y="-146.5" font-family="Helvetica,sans-Serif" font-size="10.00">panda.refbranch.RefBranch.</text>
<text text-anchor="middle" x="70.798" y="-134.5" font-family="Helvetica,sans-Serif" font-size="10.00">_write_ref_set</text>
</g>
<!-- Node2 -->
<g id="node2" class="node"><title>Node2</title>
<g id="a_node2"><a xlink:href="classpanda_1_1refbranch_1_1RefBranch.html#a6ffa2957a631301713d3a09a7c342d19" target="_top" xlink:title="panda.refbranch.RefBranch.write\l_default_ctor">
<polygon fill="white" stroke="black" points="177.596,-255.5 177.596,-287.5 340.297,-287.5 340.297,-255.5 177.596,-255.5"/>
<text text-anchor="start" x="185.596" y="-274.5" font-family="Helvetica,sans-Serif" font-size="10.00">panda.refbranch.RefBranch.write</text>
<text text-anchor="middle" x="258.947" y="-262.5" font-family="Helvetica,sans-Serif" font-size="10.00">_default_ctor</text>
</a>
</g>
</g>
<!-- Node1&#45;&gt;Node2 -->
<g id="edge1" class="edge"><title>Node1&#45;&gt;Node2</title>
<path fill="none" stroke="midnightblue" d="M90.942,-167.885C110.431,-191.175 142.673,-225.717 177.596,-246.5 183.245,-249.862 189.392,-252.815 195.685,-255.398"/>
<polygon fill="midnightblue" stroke="midnightblue" points="93.4064,-165.371 84.3575,-159.86 87.9948,-169.811 93.4064,-165.371"/>
</g>
<!-- Node3 -->
<g id="node3" class="node"><title>Node3</title>
<g id="a_node3"><a xlink:href="classpanda_1_1refbranch_1_1RefBranch.html#ad061e9eb8e6ed82ccacfbd5359a41ba5" target="_top" xlink:title="panda.refbranch.RefBranch.write\l_standard_ctor">
<polygon fill="white" stroke="black" points="177.596,-204.5 177.596,-236.5 340.297,-236.5 340.297,-204.5 177.596,-204.5"/>
<text text-anchor="start" x="185.596" y="-223.5" font-family="Helvetica,sans-Serif" font-size="10.00">panda.refbranch.RefBranch.write</text>
<text text-anchor="middle" x="258.947" y="-211.5" font-family="Helvetica,sans-Serif" font-size="10.00">_standard_ctor</text>
</a>
</g>
</g>
<!-- Node1&#45;&gt;Node3 -->
<g id="edge2" class="edge"><title>Node1&#45;&gt;Node3</title>
<path fill="none" stroke="midnightblue" d="M110.335,-164.237C130.11,-174.415 154.782,-186.408 177.596,-195.5 185.467,-198.637 193.896,-201.636 202.227,-204.398"/>
<polygon fill="midnightblue" stroke="midnightblue" points="111.822,-161.065 101.335,-159.557 108.592,-167.276 111.822,-161.065"/>
</g>
<!-- Node4 -->
<g id="node4" class="node"><title>Node4</title>
<g id="a_node4"><a xlink:href="classpanda_1_1refbranch_1_1RefBranch.html#aab6abb2a47955638050a1e0f2798f5f6" target="_top" xlink:title="panda.refbranch.RefBranch.write\l_copy_ctor">
<polygon fill="white" stroke="black" points="177.596,-153.5 177.596,-185.5 340.297,-185.5 340.297,-153.5 177.596,-153.5"/>
<text text-anchor="start" x="185.596" y="-172.5" font-family="Helvetica,sans-Serif" font-size="10.00">panda.refbranch.RefBranch.write</text>
<text text-anchor="middle" x="258.947" y="-160.5" font-family="Helvetica,sans-Serif" font-size="10.00">_copy_ctor</text>
</a>
</g>
</g>
<!-- Node1&#45;&gt;Node4 -->
<g id="edge3" class="edge"><title>Node1&#45;&gt;Node4</title>
<path fill="none" stroke="midnightblue" d="M151.584,-154.644C160.128,-155.837 168.824,-157.052 177.376,-158.247"/>
<polygon fill="midnightblue" stroke="midnightblue" points="152.03,-151.172 141.642,-153.255 151.062,-158.105 152.03,-151.172"/>
</g>
<!-- Node5 -->
<g id="node5" class="node"><title>Node5</title>
<g id="a_node5"><a xlink:href="classpanda_1_1refvbranch_1_1RefVectorBranch.html#a5d343d755a1486484bbb164fbdf9ac4c" target="_top" xlink:title="panda.refvbranch.RefVector\lBranch.write_default_ctor">
<polygon fill="white" stroke="black" points="188.428,-102.5 188.428,-134.5 329.465,-134.5 329.465,-102.5 188.428,-102.5"/>
<text text-anchor="start" x="196.428" y="-121.5" font-family="Helvetica,sans-Serif" font-size="10.00">panda.refvbranch.RefVector</text>
<text text-anchor="middle" x="258.947" y="-109.5" font-family="Helvetica,sans-Serif" font-size="10.00">Branch.write_default_ctor</text>
</a>
</g>
</g>
<!-- Node1&#45;&gt;Node5 -->
<g id="edge4" class="edge"><title>Node1&#45;&gt;Node5</title>
<path fill="none" stroke="midnightblue" d="M151.771,-132.759C163.938,-131.126 176.408,-129.451 188.33,-127.85"/>
<polygon fill="midnightblue" stroke="midnightblue" points="151.088,-129.32 141.642,-134.12 152.019,-136.258 151.088,-129.32"/>
</g>
<!-- Node6 -->
<g id="node6" class="node"><title>Node6</title>
<g id="a_node6"><a xlink:href="classpanda_1_1refvbranch_1_1RefVectorBranch.html#a762962588e6b21736201ba01b0c9434f" target="_top" xlink:title="panda.refvbranch.RefVector\lBranch.write_standard_ctor">
<polygon fill="white" stroke="black" points="188.428,-51.5 188.428,-83.5 329.465,-83.5 329.465,-51.5 188.428,-51.5"/>
<text text-anchor="start" x="196.428" y="-70.5" font-family="Helvetica,sans-Serif" font-size="10.00">panda.refvbranch.RefVector</text>
<text text-anchor="middle" x="258.947" y="-58.5" font-family="Helvetica,sans-Serif" font-size="10.00">Branch.write_standard_ctor</text>
</a>
</g>
</g>
<!-- Node1&#45;&gt;Node6 -->
<g id="edge5" class="edge"><title>Node1&#45;&gt;Node6</title>
<path fill="none" stroke="midnightblue" d="M112.449,-122.787C131.904,-113.263 155.684,-102.181 177.596,-93.5 186.32,-90.0437 195.704,-86.6905 204.872,-83.605"/>
<polygon fill="midnightblue" stroke="midnightblue" points="110.689,-119.752 103.273,-127.319 113.789,-126.028 110.689,-119.752"/>
</g>
<!-- Node7 -->
<g id="node7" class="node"><title>Node7</title>
<g id="a_node7"><a xlink:href="classpanda_1_1refvbranch_1_1RefVectorBranch.html#a4a579a4942e4357945946c354ff21b45" target="_top" xlink:title="panda.refvbranch.RefVector\lBranch.write_copy_ctor">
<polygon fill="white" stroke="black" points="188.428,-0.5 188.428,-32.5 329.465,-32.5 329.465,-0.5 188.428,-0.5"/>
<text text-anchor="start" x="196.428" y="-19.5" font-family="Helvetica,sans-Serif" font-size="10.00">panda.refvbranch.RefVector</text>
<text text-anchor="middle" x="258.947" y="-7.5" font-family="Helvetica,sans-Serif" font-size="10.00">Branch.write_copy_ctor</text>
</a>
</g>
</g>
<!-- Node1&#45;&gt;Node7 -->
<g id="edge6" class="edge"><title>Node1&#45;&gt;Node7</title>
<path fill="none" stroke="midnightblue" d="M91.4231,-119.306C111.056,-96.5494 143.211,-62.9979 177.596,-42.5 183.893,-38.7462 190.795,-35.4668 197.826,-32.6199"/>
<polygon fill="midnightblue" stroke="midnightblue" points="88.5663,-117.263 84.7755,-127.157 93.9085,-121.787 88.5663,-117.263"/>
</g>
</g>
</svg>
