<?xml version="1.0" encoding="UTF-8" standalone="no"?>
<!DOCTYPE svg PUBLIC "-//W3C//DTD SVG 1.1//EN"
 "http://www.w3.org/Graphics/SVG/1.1/DTD/svg11.dtd">
<!-- Generated by graphviz version 2.38.0 (20140413.2041)
 -->
<!-- Title: panda::HLTBits::book Pages: 1 -->
<svg width="442pt" height="96pt"
 viewBox="0.00 0.00 441.99 96.00" xmlns="http://www.w3.org/2000/svg" xmlns:xlink="http://www.w3.org/1999/xlink">
<g id="graph0" class="graph" transform="scale(1 1) rotate(0) translate(4 92)">
<title>panda::HLTBits::book</title>
<polygon fill="white" stroke="none" points="-4,4 -4,-92 437.989,-92 437.989,4 -4,4"/>
<!-- Node1 -->
<g id="node1" class="node"><title>Node1</title>
<polygon fill="#bfbfbf" stroke="black" points="-1.42109e-14,-47.5 -1.42109e-14,-67.5 112.142,-67.5 112.142,-47.5 -1.42109e-14,-47.5"/>
<text text-anchor="middle" x="56.071" y="-54.5" font-family="Helvetica,sans-Serif" font-size="10.00">panda::HLTBits::book</text>
</g>
<!-- Node2 -->
<g id="node2" class="node"><title>Node2</title>
<g id="a_node2"><a xlink:href="classpanda_1_1Object.html#a2fcd6665633deef16e86aa4e49135dd7" target="_top" xlink:title="Book new branches to the tree corresponding to the variables of this object. ">
<polygon fill="white" stroke="black" points="148.142,-67.5 148.142,-87.5 253.625,-87.5 253.625,-67.5 148.142,-67.5"/>
<text text-anchor="middle" x="200.883" y="-74.5" font-family="Helvetica,sans-Serif" font-size="10.00">panda::Object::book</text>
</a>
</g>
</g>
<!-- Node1&#45;&gt;Node2 -->
<g id="edge1" class="edge"><title>Node1&#45;&gt;Node2</title>
<path fill="none" stroke="midnightblue" d="M112.286,-65.2325C120.748,-66.4176 129.531,-67.6476 138.124,-68.8509"/>
<polygon fill="midnightblue" stroke="midnightblue" points="137.704,-72.3263 148.093,-70.2471 138.675,-65.3939 137.704,-72.3263"/>
</g>
<!-- Node3 -->
<g id="node3" class="node"><title>Node3</title>
<g id="a_node3"><a xlink:href="namespacepanda_1_1utils.html#aaa6c7cd5892388e6ffdf713b11abf793" target="_top" xlink:title="Book the branch. ">
<polygon fill="white" stroke="black" points="153.701,-28.5 153.701,-48.5 248.065,-48.5 248.065,-28.5 153.701,-28.5"/>
<text text-anchor="middle" x="200.883" y="-35.5" font-family="Helvetica,sans-Serif" font-size="10.00">panda::utils::book</text>
</a>
</g>
</g>
<!-- Node1&#45;&gt;Node3 -->
<g id="edge2" class="edge"><title>Node1&#45;&gt;Node3</title>
<path fill="none" stroke="midnightblue" d="M112.286,-50.1541C122.529,-48.7913 133.241,-47.3662 143.518,-45.9989"/>
<polygon fill="midnightblue" stroke="midnightblue" points="144.166,-49.4437 153.617,-44.6554 143.242,-42.5049 144.166,-49.4437"/>
</g>
<!-- Node4 -->
<g id="node4" class="node"><title>Node4</title>
<g id="a_node4"><a xlink:href="classpanda_1_1utils_1_1BranchName.html#a6cc8a6df7c5b12a0221fd49773cca6a7" target="_top" xlink:title="Is the name included and not vetoed? ">
<polygon fill="white" stroke="black" points="289.625,-51.5 289.625,-71.5 433.989,-71.5 433.989,-51.5 289.625,-51.5"/>
<text text-anchor="middle" x="361.807" y="-58.5" font-family="Helvetica,sans-Serif" font-size="10.00">panda::utils::BranchName::in</text>
</a>
</g>
</g>
<!-- Node3&#45;&gt;Node4 -->
<g id="edge3" class="edge"><title>Node3&#45;&gt;Node4</title>
<path fill="none" stroke="midnightblue" d="M248.278,-45.2144C258.765,-46.7322 270.188,-48.3853 281.604,-50.0374"/>
<polygon fill="midnightblue" stroke="midnightblue" points="281.212,-53.5171 291.61,-51.4856 282.215,-46.5893 281.212,-53.5171"/>
</g>
<!-- Node5 -->
<g id="node5" class="node"><title>Node5</title>
<g id="a_node5"><a xlink:href="classpanda_1_1utils_1_1BranchName.html#a13958ff4a9d554d2c057c600b4f70412" target="_top" xlink:title="Prepend the branch name with &lt;objName.&gt;. ">
<polygon fill="white" stroke="black" points="296.293,-0.5 296.293,-32.5 427.321,-32.5 427.321,-0.5 296.293,-0.5"/>
<text text-anchor="start" x="304.293" y="-19.5" font-family="Helvetica,sans-Serif" font-size="10.00">panda::utils::BranchName</text>
<text text-anchor="middle" x="361.807" y="-7.5" font-family="Helvetica,sans-Serif" font-size="10.00">::fullName</text>
</a>
</g>
</g>
<!-- Node3&#45;&gt;Node5 -->
<g id="edge4" class="edge"><title>Node3&#45;&gt;Node5</title>
<path fill="none" stroke="midnightblue" d="M248.278,-32.0775C260.062,-30.4463 273.026,-28.6516 285.835,-26.8785"/>
<polygon fill="midnightblue" stroke="midnightblue" points="286.622,-30.303 296.048,-25.4647 285.662,-23.3691 286.622,-30.303"/>
</g>
</g>
</svg>
