<?xml version="1.0" encoding="UTF-8" standalone="no"?>
<!DOCTYPE svg PUBLIC "-//W3C//DTD SVG 1.1//EN"
 "http://www.w3.org/Graphics/SVG/1.1/DTD/svg11.dtd">
<!-- Generated by graphviz version 2.38.0 (20140413.2041)
 -->
<!-- Title: panda::HLTBits::setAddress Pages: 1 -->
<svg width="649pt" height="170pt"
 viewBox="0.00 0.00 649.03 170.00" xmlns="http://www.w3.org/2000/svg" xmlns:xlink="http://www.w3.org/1999/xlink">
<g id="graph0" class="graph" transform="scale(1 1) rotate(0) translate(4 166)">
<title>panda::HLTBits::setAddress</title>
<polygon fill="white" stroke="none" points="-4,4 -4,-166 645.031,-166 645.031,4 -4,4"/>
<!-- Node1 -->
<g id="node1" class="node"><title>Node1</title>
<polygon fill="#bfbfbf" stroke="black" points="4.26326e-14,-89.5 4.26326e-14,-109.5 140.478,-109.5 140.478,-89.5 4.26326e-14,-89.5"/>
<text text-anchor="middle" x="70.239" y="-96.5" font-family="Helvetica,sans-Serif" font-size="10.00">panda::HLTBits::setAddress</text>
</g>
<!-- Node2 -->
<g id="node2" class="node"><title>Node2</title>
<g id="a_node2"><a xlink:href="classpanda_1_1Object.html#aed9f9d3b6abe518dd27957de843b36b5" target="_top" xlink:title="Set address for the branches to the variables of this object. ">
<polygon fill="white" stroke="black" points="176.478,-109.5 176.478,-129.5 310.297,-129.5 310.297,-109.5 176.478,-109.5"/>
<text text-anchor="middle" x="243.388" y="-116.5" font-family="Helvetica,sans-Serif" font-size="10.00">panda::Object::setAddress</text>
</a>
</g>
</g>
<!-- Node1&#45;&gt;Node2 -->
<g id="edge1" class="edge"><title>Node1&#45;&gt;Node2</title>
<path fill="none" stroke="midnightblue" d="M140.852,-107.635C149.299,-108.622 157.962,-109.634 166.495,-110.631"/>
<polygon fill="midnightblue" stroke="midnightblue" points="166.093,-114.108 176.431,-111.793 166.905,-107.155 166.093,-114.108"/>
</g>
<!-- Node3 -->
<g id="node3" class="node"><title>Node3</title>
<g id="a_node3"><a xlink:href="namespacepanda_1_1utils.html#abf9c62e588560197c2bae9932e6a6e05" target="_top" xlink:title="Set address. ">
<polygon fill="white" stroke="black" points="182.038,-70.5 182.038,-90.5 304.738,-90.5 304.738,-70.5 182.038,-70.5"/>
<text text-anchor="middle" x="243.388" y="-77.5" font-family="Helvetica,sans-Serif" font-size="10.00">panda::utils::setAddress</text>
</a>
</g>
</g>
<!-- Node1&#45;&gt;Node3 -->
<g id="edge2" class="edge"><title>Node1&#45;&gt;Node3</title>
<path fill="none" stroke="midnightblue" d="M140.852,-91.772C151.055,-90.6393 161.572,-89.4717 171.794,-88.3369"/>
<polygon fill="midnightblue" stroke="midnightblue" points="172.344,-91.7975 181.896,-87.2154 171.571,-84.8402 172.344,-91.7975"/>
</g>
<!-- Node4 -->
<g id="node4" class="node"><title>Node4</title>
<g id="a_node4"><a xlink:href="classpanda_1_1utils_1_1BranchName.html#a13958ff4a9d554d2c057c600b4f70412" target="_top" xlink:title="Prepend the branch name with &lt;objName.&gt;. ">
<polygon fill="white" stroke="black" points="503.335,-129.5 503.335,-161.5 634.363,-161.5 634.363,-129.5 503.335,-129.5"/>
<text text-anchor="start" x="511.335" y="-148.5" font-family="Helvetica,sans-Serif" font-size="10.00">panda::utils::BranchName</text>
<text text-anchor="middle" x="568.849" y="-136.5" font-family="Helvetica,sans-Serif" font-size="10.00">::fullName</text>
</a>
</g>
</g>
<!-- Node3&#45;&gt;Node4 -->
<g id="edge3" class="edge"><title>Node3&#45;&gt;Node4</title>
<path fill="none" stroke="midnightblue" d="M284.951,-90.5273C303.592,-95.0131 326.019,-100.238 346.297,-104.5 395.026,-114.741 450.074,-124.934 493.109,-132.596"/>
<polygon fill="midnightblue" stroke="midnightblue" points="492.76,-136.089 503.217,-134.388 493.982,-129.196 492.76,-136.089"/>
</g>
<!-- Node5 -->
<g id="node5" class="node"><title>Node5</title>
<g id="a_node5"><a xlink:href="namespacepanda_1_1utils.html#a01665f786d6a2acedb8f008f3fc9fc84" target="_top" xlink:title="Set status of a branch. ">
<polygon fill="white" stroke="black" points="346.297,-51.5 346.297,-71.5 460.667,-71.5 460.667,-51.5 346.297,-51.5"/>
<text text-anchor="middle" x="403.482" y="-58.5" font-family="Helvetica,sans-Serif" font-size="10.00">panda::utils::setStatus</text>
</a>
</g>
</g>
<!-- Node3&#45;&gt;Node5 -->
<g id="edge4" class="edge"><title>Node3&#45;&gt;Node5</title>
<path fill="none" stroke="midnightblue" d="M305.059,-73.2084C315.182,-71.9919 325.73,-70.7242 335.989,-69.4912"/>
<polygon fill="midnightblue" stroke="midnightblue" points="336.614,-72.9414 346.125,-68.2731 335.778,-65.9914 336.614,-72.9414"/>
</g>
<!-- Node6 -->
<g id="node6" class="node"><title>Node6</title>
<g id="a_node6"><a xlink:href="classpanda_1_1utils_1_1BranchName.html#a6cc8a6df7c5b12a0221fd49773cca6a7" target="_top" xlink:title="Is the name included and not vetoed? ">
<polygon fill="white" stroke="black" points="496.667,-90.5 496.667,-110.5 641.031,-110.5 641.031,-90.5 496.667,-90.5"/>
<text text-anchor="middle" x="568.849" y="-97.5" font-family="Helvetica,sans-Serif" font-size="10.00">panda::utils::BranchName::in</text>
</a>
</g>
</g>
<!-- Node3&#45;&gt;Node6 -->
<g id="edge9" class="edge"><title>Node3&#45;&gt;Node6</title>
<path fill="none" stroke="midnightblue" d="M304.849,-84.2384C355.974,-87.3995 429.692,-91.9576 486.081,-95.4442"/>
<polygon fill="midnightblue" stroke="midnightblue" points="486.202,-98.9582 496.399,-96.0821 486.634,-91.9716 486.202,-98.9582"/>
</g>
<!-- Node8 -->
<g id="node8" class="node"><title>Node8</title>
<g id="a_node8"><a xlink:href="namespacepanda_1_1utils.html#aafa411773a4b0ee829d99e6e5a0abdcd" target="_top" xlink:title="Check status of a branch. ">
<polygon fill="white" stroke="black" points="505.274,-0.5 505.274,-20.5 632.424,-20.5 632.424,-0.5 505.274,-0.5"/>
<text text-anchor="middle" x="568.849" y="-7.5" font-family="Helvetica,sans-Serif" font-size="10.00">panda::utils::checkStatus</text>
</a>
</g>
</g>
<!-- Node3&#45;&gt;Node8 -->
<g id="edge10" class="edge"><title>Node3&#45;&gt;Node8</title>
<path fill="none" stroke="midnightblue" d="M266.576,-70.3276C286.906,-61.4157 318.047,-48.7815 346.297,-41.5 395.145,-28.9094 451.456,-21.115 495.083,-16.4909"/>
<polygon fill="midnightblue" stroke="midnightblue" points="495.448,-19.9719 505.038,-15.4672 494.732,-13.0086 495.448,-19.9719"/>
</g>
<!-- Node5&#45;&gt;Node4 -->
<g id="edge7" class="edge"><title>Node5&#45;&gt;Node4</title>
<path fill="none" stroke="midnightblue" d="M418.312,-71.5109C435.89,-83.9212 467.466,-105.181 496.667,-119.5 500.945,-121.598 505.438,-123.623 509.999,-125.553"/>
<polygon fill="midnightblue" stroke="midnightblue" points="508.826,-128.854 519.408,-129.376 511.461,-122.369 508.826,-128.854"/>
</g>
<!-- Node5&#45;&gt;Node6 -->
<g id="edge5" class="edge"><title>Node5&#45;&gt;Node6</title>
<path fill="none" stroke="midnightblue" d="M446.553,-71.5435C467.705,-76.593 493.533,-82.7587 515.911,-88.1009"/>
<polygon fill="midnightblue" stroke="midnightblue" points="515.381,-91.5728 525.921,-90.4906 517.007,-84.7641 515.381,-91.5728"/>
</g>
<!-- Node7 -->
<g id="node7" class="node"><title>Node7</title>
<g id="a_node7"><a xlink:href="classpanda_1_1utils_1_1BranchName.html#ae3332329bf2afae5ed8e7c35e5d77ffa" target="_top" xlink:title="Is the name included and vetoed? ">
<polygon fill="white" stroke="black" points="503.335,-39.5 503.335,-71.5 634.363,-71.5 634.363,-39.5 503.335,-39.5"/>
<text text-anchor="start" x="511.335" y="-58.5" font-family="Helvetica,sans-Serif" font-size="10.00">panda::utils::BranchName</text>
<text text-anchor="middle" x="568.849" y="-46.5" font-family="Helvetica,sans-Serif" font-size="10.00">::vetoed</text>
</a>
</g>
</g>
<!-- Node5&#45;&gt;Node7 -->
<g id="edge6" class="edge"><title>Node5&#45;&gt;Node7</title>
<path fill="none" stroke="midnightblue" d="M460.704,-59.4351C471.055,-59.055 482.013,-58.6525 492.815,-58.2558"/>
<polygon fill="midnightblue" stroke="midnightblue" points="493.234,-61.7429 503.099,-57.8781 492.977,-54.7476 493.234,-61.7429"/>
</g>
<!-- Node5&#45;&gt;Node8 -->
<g id="edge8" class="edge"><title>Node5&#45;&gt;Node8</title>
<path fill="none" stroke="midnightblue" d="M431.739,-51.4496C449.999,-44.8624 474.639,-36.2532 496.667,-29.5 503.645,-27.3607 511.049,-25.2311 518.342,-23.2131"/>
<polygon fill="midnightblue" stroke="midnightblue" points="519.438,-26.5424 528.168,-20.5402 517.6,-19.7878 519.438,-26.5424"/>
</g>
</g>
</svg>
