<?xml version="1.0" encoding="UTF-8" standalone="no"?>
<!DOCTYPE svg PUBLIC "-//W3C//DTD SVG 1.1//EN"
 "http://www.w3.org/Graphics/SVG/1.1/DTD/svg11.dtd">
<!-- Generated by graphviz version 2.38.0 (20140413.2041)
 -->
<!-- Title: panda::CollectionBase::doBook_ Pages: 1 -->
<svg width="302pt" height="41pt"
 viewBox="0.00 0.00 301.63 41.00" xmlns="http://www.w3.org/2000/svg" xmlns:xlink="http://www.w3.org/1999/xlink">
<g id="graph0" class="graph" transform="scale(1 1) rotate(0) translate(4 37)">
<title>panda::CollectionBase::doBook_</title>
<polygon fill="white" stroke="none" points="-4,4 -4,-37 297.626,-37 297.626,4 -4,4"/>
<!-- Node1 -->
<g id="node1" class="node"><title>Node1</title>
<polygon fill="#bfbfbf" stroke="black" points="-1.42109e-14,-0.5 -1.42109e-14,-32.5 116.031,-32.5 116.031,-0.5 -1.42109e-14,-0.5"/>
<text text-anchor="start" x="8" y="-19.5" font-family="Helvetica,sans-Serif" font-size="10.00">panda::CollectionBase</text>
<text text-anchor="middle" x="58.0155" y="-7.5" font-family="Helvetica,sans-Serif" font-size="10.00">::doBook_</text>
</g>
<!-- Node2 -->
<g id="node2" class="node"><title>Node2</title>
<g id="a_node2"><a xlink:href="classpanda_1_1utils_1_1BranchList.html#aead8646065a2422c246b8d04f66dd00d" target="_top" xlink:title="Returns true if any of the branch in the list is not vetoed. ">
<polygon fill="white" stroke="black" points="152.031,-6.5 152.031,-26.5 293.626,-26.5 293.626,-6.5 152.031,-6.5"/>
<text text-anchor="middle" x="222.828" y="-13.5" font-family="Helvetica,sans-Serif" font-size="10.00">panda::utils::BranchList::any</text>
</a>
</g>
</g>
<!-- Node1&#45;&gt;Node2 -->
<g id="edge1" class="edge"><title>Node1&#45;&gt;Node2</title>
<path fill="none" stroke="midnightblue" d="M116.417,-16.5C124.643,-16.5 133.227,-16.5 141.791,-16.5"/>
<polygon fill="midnightblue" stroke="midnightblue" points="141.813,-20.0001 151.813,-16.5 141.813,-13.0001 141.813,-20.0001"/>
</g>
</g>
</svg>
