<?xml version="1.0" encoding="UTF-8" standalone="no"?>
<!DOCTYPE svg PUBLIC "-//W3C//DTD SVG 1.1//EN"
 "http://www.w3.org/Graphics/SVG/1.1/DTD/svg11.dtd">
<!-- Generated by graphviz version 2.38.0 (20140413.2041)
 -->
<!-- Title: panda::MicroJet::init Pages: 1 -->
<svg width="362pt" height="29pt"
 viewBox="0.00 0.00 361.96 29.00" xmlns="http://www.w3.org/2000/svg" xmlns:xlink="http://www.w3.org/1999/xlink">
<g id="graph0" class="graph" transform="scale(1 1) rotate(0) translate(4 25)">
<title>panda::MicroJet::init</title>
<polygon fill="white" stroke="none" points="-4,4 -4,-25 357.958,-25 357.958,4 -4,4"/>
<!-- Node1 -->
<g id="node1" class="node"><title>Node1</title>
<polygon fill="#bfbfbf" stroke="black" points="7.10543e-15,-0.5 7.10543e-15,-20.5 105.461,-20.5 105.461,-0.5 7.10543e-15,-0.5"/>
<text text-anchor="middle" x="52.7305" y="-7.5" font-family="Helvetica,sans-Serif" font-size="10.00">panda::MicroJet::init</text>
</g>
<!-- Node2 -->
<g id="node2" class="node"><title>Node2</title>
<g id="a_node2"><a xlink:href="classpanda_1_1Jet.html#a812a5a0a5a122791b2328c71e23a9d8b" target="_top" xlink:title="Reset object state. ">
<polygon fill="white" stroke="black" points="141.461,-0.5 141.461,-20.5 222.486,-20.5 222.486,-0.5 141.461,-0.5"/>
<text text-anchor="middle" x="181.974" y="-7.5" font-family="Helvetica,sans-Serif" font-size="10.00">panda::Jet::init</text>
</a>
</g>
</g>
<!-- Node1&#45;&gt;Node2 -->
<g id="edge1" class="edge"><title>Node1&#45;&gt;Node2</title>
<path fill="none" stroke="midnightblue" d="M115.685,-10.5C124.424,-10.5 133.204,-10.5 141.367,-10.5"/>
<polygon fill="midnightblue" stroke="midnightblue" points="115.485,-7.0001 105.485,-10.5 115.485,-14.0001 115.485,-7.0001"/>
</g>
<!-- Node3 -->
<g id="node3" class="node"><title>Node3</title>
<g id="a_node3"><a xlink:href="classpanda_1_1FatJet.html#aa1a87839e3131c1629bbcf2e1a3b4cbc" target="_top" xlink:title="Reset object state. ">
<polygon fill="white" stroke="black" points="258.486,-0.5 258.486,-20.5 353.958,-20.5 353.958,-0.5 258.486,-0.5"/>
<text text-anchor="middle" x="306.222" y="-7.5" font-family="Helvetica,sans-Serif" font-size="10.00">panda::FatJet::init</text>
</a>
</g>
</g>
<!-- Node2&#45;&gt;Node3 -->
<g id="edge2" class="edge"><title>Node2&#45;&gt;Node3</title>
<path fill="none" stroke="midnightblue" d="M232.694,-10.5C241.074,-10.5 249.75,-10.5 258.063,-10.5"/>
<polygon fill="midnightblue" stroke="midnightblue" points="232.664,-7.0001 222.664,-10.5 232.664,-14.0001 232.664,-7.0001"/>
</g>
</g>
</svg>
