<?xml version="1.0" encoding="UTF-8" standalone="no"?>
<!DOCTYPE svg PUBLIC "-//W3C//DTD SVG 1.1//EN"
 "http://www.w3.org/Graphics/SVG/1.1/DTD/svg11.dtd">
<!-- Generated by graphviz version 2.38.0 (20140413.2041)
 -->
<!-- Title: panda::Lepton::releaseTree Pages: 1 -->
<svg width="665pt" height="125pt"
 viewBox="0.00 0.00 664.58 125.00" xmlns="http://www.w3.org/2000/svg" xmlns:xlink="http://www.w3.org/1999/xlink">
<g id="graph0" class="graph" transform="scale(1 1) rotate(0) translate(4 121)">
<title>panda::Lepton::releaseTree</title>
<polygon fill="white" stroke="none" points="-4,4 -4,-121 660.583,-121 660.583,4 -4,4"/>
<!-- Node1 -->
<g id="node1" class="node"><title>Node1</title>
<polygon fill="#bfbfbf" stroke="black" points="2.84217e-14,-45.5 2.84217e-14,-65.5 138.825,-65.5 138.825,-45.5 2.84217e-14,-45.5"/>
<text text-anchor="middle" x="69.4125" y="-52.5" font-family="Helvetica,sans-Serif" font-size="10.00">panda::Lepton::releaseTree</text>
</g>
<!-- Node2 -->
<g id="node2" class="node"><title>Node2</title>
<g id="a_node2"><a xlink:href="classpanda_1_1Particle.html#a8fb6fa0b4316967da573181262727142" target="_top" xlink:title="Reset the branch pointer to unlink the branch from this object. ">
<polygon fill="white" stroke="black" points="174.825,-45.5 174.825,-65.5 316.409,-65.5 316.409,-45.5 174.825,-45.5"/>
<text text-anchor="middle" x="245.617" y="-52.5" font-family="Helvetica,sans-Serif" font-size="10.00">panda::Particle::releaseTree</text>
</a>
</g>
</g>
<!-- Node1&#45;&gt;Node2 -->
<g id="edge1" class="edge"><title>Node1&#45;&gt;Node2</title>
<path fill="none" stroke="midnightblue" d="M139.263,-55.5C147.512,-55.5 155.989,-55.5 164.381,-55.5"/>
<polygon fill="midnightblue" stroke="midnightblue" points="164.554,-59.0001 174.554,-55.5 164.554,-52.0001 164.554,-59.0001"/>
</g>
<!-- Node4 -->
<g id="node4" class="node"><title>Node4</title>
<g id="a_node4"><a xlink:href="classpanda_1_1utils_1_1StoreManager.html#a6f30ec459d951e84a1196b7e2ffdcf49" target="_top" xlink:title="panda::utils::StoreManager\l::getName">
<polygon fill="white" stroke="black" points="352.965,-84.5 352.965,-116.5 489,-116.5 489,-84.5 352.965,-84.5"/>
<text text-anchor="start" x="360.965" y="-103.5" font-family="Helvetica,sans-Serif" font-size="10.00">panda::utils::StoreManager</text>
<text text-anchor="middle" x="420.982" y="-91.5" font-family="Helvetica,sans-Serif" font-size="10.00">::getName</text>
</a>
</g>
</g>
<!-- Node1&#45;&gt;Node4 -->
<g id="edge6" class="edge"><title>Node1&#45;&gt;Node4</title>
<path fill="none" stroke="midnightblue" d="M121.271,-65.5378C138.257,-68.6809 157.317,-71.9822 174.825,-74.5 230.889,-82.5626 294.503,-89.2373 342.878,-93.8046"/>
<polygon fill="midnightblue" stroke="midnightblue" points="342.679,-97.3011 352.961,-94.7469 343.331,-90.3315 342.679,-97.3011"/>
</g>
<!-- Node5 -->
<g id="node5" class="node"><title>Node5</title>
<g id="a_node5"><a xlink:href="namespacepanda_1_1utils.html#a82a8530e64fbdf917cf9b8659065f98b" target="_top" xlink:title="panda::utils::resetAddress">
<polygon fill="white" stroke="black" points="355.188,-6.5 355.188,-26.5 486.776,-26.5 486.776,-6.5 355.188,-6.5"/>
<text text-anchor="middle" x="420.982" y="-13.5" font-family="Helvetica,sans-Serif" font-size="10.00">panda::utils::resetAddress</text>
</a>
</g>
</g>
<!-- Node1&#45;&gt;Node5 -->
<g id="edge7" class="edge"><title>Node1&#45;&gt;Node5</title>
<path fill="none" stroke="midnightblue" d="M116.75,-45.4703C134.801,-41.8666 155.709,-38.0634 174.825,-35.5 231.608,-27.8856 296.23,-23.0331 344.867,-20.1392"/>
<polygon fill="midnightblue" stroke="midnightblue" points="345.215,-23.6251 354.995,-19.5512 344.809,-16.6368 345.215,-23.6251"/>
</g>
<!-- Node3 -->
<g id="node3" class="node"><title>Node3</title>
<g id="a_node3"><a xlink:href="classpanda_1_1Object.html#aaf58438092b42a89b838ce12c6a23833" target="_top" xlink:title="Reset the branch pointer to unlink the branch from this object. ">
<polygon fill="white" stroke="black" points="352.409,-45.5 352.409,-65.5 489.555,-65.5 489.555,-45.5 352.409,-45.5"/>
<text text-anchor="middle" x="420.982" y="-52.5" font-family="Helvetica,sans-Serif" font-size="10.00">panda::Object::releaseTree</text>
</a>
</g>
</g>
<!-- Node2&#45;&gt;Node3 -->
<g id="edge2" class="edge"><title>Node2&#45;&gt;Node3</title>
<path fill="none" stroke="midnightblue" d="M316.631,-55.5C324.983,-55.5 333.549,-55.5 342.003,-55.5"/>
<polygon fill="midnightblue" stroke="midnightblue" points="342.238,-59.0001 352.238,-55.5 342.238,-52.0001 342.238,-59.0001"/>
</g>
<!-- Node2&#45;&gt;Node4 -->
<g id="edge3" class="edge"><title>Node2&#45;&gt;Node4</title>
<path fill="none" stroke="midnightblue" d="M285.523,-65.5989C304.05,-70.4078 326.811,-76.3158 348.303,-81.8944"/>
<polygon fill="midnightblue" stroke="midnightblue" points="347.51,-85.3044 358.068,-84.4292 349.268,-78.5289 347.51,-85.3044"/>
</g>
<!-- Node2&#45;&gt;Node5 -->
<g id="edge4" class="edge"><title>Node2&#45;&gt;Node5</title>
<path fill="none" stroke="midnightblue" d="M291.263,-45.4565C313.911,-40.3615 341.612,-34.1301 365.506,-28.7549"/>
<polygon fill="midnightblue" stroke="midnightblue" points="366.499,-32.1189 375.487,-26.5094 364.963,-25.2896 366.499,-32.1189"/>
</g>
<!-- Node6 -->
<g id="node6" class="node"><title>Node6</title>
<g id="a_node6"><a xlink:href="classpanda_1_1utils_1_1BranchName.html#a13958ff4a9d554d2c057c600b4f70412" target="_top" xlink:title="Prepend the branch name with &lt;objName.&gt;. ">
<polygon fill="white" stroke="black" points="525.555,-0.5 525.555,-32.5 656.583,-32.5 656.583,-0.5 525.555,-0.5"/>
<text text-anchor="start" x="533.555" y="-19.5" font-family="Helvetica,sans-Serif" font-size="10.00">panda::utils::BranchName</text>
<text text-anchor="middle" x="591.069" y="-7.5" font-family="Helvetica,sans-Serif" font-size="10.00">::fullName</text>
</a>
</g>
</g>
<!-- Node5&#45;&gt;Node6 -->
<g id="edge5" class="edge"><title>Node5&#45;&gt;Node6</title>
<path fill="none" stroke="midnightblue" d="M486.969,-16.5C496.263,-16.5 505.886,-16.5 515.349,-16.5"/>
<polygon fill="midnightblue" stroke="midnightblue" points="515.532,-20.0001 525.532,-16.5 515.532,-13.0001 515.532,-20.0001"/>
</g>
</g>
</svg>
