<?xml version="1.0" encoding="UTF-8" standalone="no"?>
<!DOCTYPE svg PUBLIC "-//W3C//DTD SVG 1.1//EN"
 "http://www.w3.org/Graphics/SVG/1.1/DTD/svg11.dtd">
<!-- Generated by graphviz version 2.38.0 (20140413.2041)
 -->
<!-- Title: panda::Electron::releaseTree Pages: 1 -->
<svg width="846pt" height="125pt"
 viewBox="0.00 0.00 845.51 125.00" xmlns="http://www.w3.org/2000/svg" xmlns:xlink="http://www.w3.org/1999/xlink">
<g id="graph0" class="graph" transform="scale(1 1) rotate(0) translate(4 121)">
<title>panda::Electron::releaseTree</title>
<polygon fill="white" stroke="none" points="-4,4 -4,-121 841.507,-121 841.507,4 -4,4"/>
<!-- Node1 -->
<g id="node1" class="node"><title>Node1</title>
<polygon fill="#bfbfbf" stroke="black" points="0,-45.5 0,-65.5 144.924,-65.5 144.924,-45.5 0,-45.5"/>
<text text-anchor="middle" x="72.462" y="-52.5" font-family="Helvetica,sans-Serif" font-size="10.00">panda::Electron::releaseTree</text>
</g>
<!-- Node2 -->
<g id="node2" class="node"><title>Node2</title>
<g id="a_node2"><a xlink:href="classpanda_1_1Lepton.html#a6c7aa6fc6916d294290b96cfa5ee5585" target="_top" xlink:title="Reset the branch pointer to unlink the branch from this object. ">
<polygon fill="white" stroke="black" points="180.924,-45.5 180.924,-65.5 319.749,-65.5 319.749,-45.5 180.924,-45.5"/>
<text text-anchor="middle" x="250.337" y="-52.5" font-family="Helvetica,sans-Serif" font-size="10.00">panda::Lepton::releaseTree</text>
</a>
</g>
</g>
<!-- Node1&#45;&gt;Node2 -->
<g id="edge1" class="edge"><title>Node1&#45;&gt;Node2</title>
<path fill="none" stroke="midnightblue" d="M144.997,-55.5C153.381,-55.5 161.971,-55.5 170.447,-55.5"/>
<polygon fill="midnightblue" stroke="midnightblue" points="170.709,-59.0001 180.709,-55.5 170.709,-52.0001 170.709,-59.0001"/>
</g>
<!-- Node5 -->
<g id="node5" class="node"><title>Node5</title>
<g id="a_node5"><a xlink:href="classpanda_1_1utils_1_1StoreManager.html#a6f30ec459d951e84a1196b7e2ffdcf49" target="_top" xlink:title="panda::utils::StoreManager\l::getName">
<polygon fill="white" stroke="black" points="533.889,-84.5 533.889,-116.5 669.923,-116.5 669.923,-84.5 533.889,-84.5"/>
<text text-anchor="start" x="541.889" y="-103.5" font-family="Helvetica,sans-Serif" font-size="10.00">panda::utils::StoreManager</text>
<text text-anchor="middle" x="601.906" y="-91.5" font-family="Helvetica,sans-Serif" font-size="10.00">::getName</text>
</a>
</g>
</g>
<!-- Node1&#45;&gt;Node5 -->
<g id="edge9" class="edge"><title>Node1&#45;&gt;Node5</title>
<path fill="none" stroke="midnightblue" d="M127.502,-65.5354C144.566,-68.5751 163.51,-71.8164 180.924,-74.5 258.379,-86.4363 277.58,-91.8996 355.749,-97.5 411.835,-101.518 475.319,-102.188 523.631,-101.896"/>
<polygon fill="midnightblue" stroke="midnightblue" points="523.729,-105.395 533.702,-101.819 523.675,-98.3954 523.729,-105.395"/>
</g>
<!-- Node6 -->
<g id="node6" class="node"><title>Node6</title>
<g id="a_node6"><a xlink:href="namespacepanda_1_1utils.html#a82a8530e64fbdf917cf9b8659065f98b" target="_top" xlink:title="panda::utils::resetAddress">
<polygon fill="white" stroke="black" points="536.112,-6.5 536.112,-26.5 667.7,-26.5 667.7,-6.5 536.112,-6.5"/>
<text text-anchor="middle" x="601.906" y="-13.5" font-family="Helvetica,sans-Serif" font-size="10.00">panda::utils::resetAddress</text>
</a>
</g>
</g>
<!-- Node1&#45;&gt;Node6 -->
<g id="edge10" class="edge"><title>Node1&#45;&gt;Node6</title>
<path fill="none" stroke="midnightblue" d="M122.263,-45.4887C140.6,-41.9722 161.664,-38.2234 180.924,-35.5 258.222,-24.5699 277.79,-22.6002 355.749,-18.5 412.792,-15.4998 477.402,-15.0956 525.968,-15.3901"/>
<polygon fill="midnightblue" stroke="midnightblue" points="526.055,-18.8907 536.079,-15.4628 526.105,-11.8909 526.055,-18.8907"/>
</g>
<!-- Node3 -->
<g id="node3" class="node"><title>Node3</title>
<g id="a_node3"><a xlink:href="classpanda_1_1Particle.html#a8fb6fa0b4316967da573181262727142" target="_top" xlink:title="Reset the branch pointer to unlink the branch from this object. ">
<polygon fill="white" stroke="black" points="355.749,-45.5 355.749,-65.5 497.333,-65.5 497.333,-45.5 355.749,-45.5"/>
<text text-anchor="middle" x="426.541" y="-52.5" font-family="Helvetica,sans-Serif" font-size="10.00">panda::Particle::releaseTree</text>
</a>
</g>
</g>
<!-- Node2&#45;&gt;Node3 -->
<g id="edge2" class="edge"><title>Node2&#45;&gt;Node3</title>
<path fill="none" stroke="midnightblue" d="M320.187,-55.5C328.436,-55.5 336.913,-55.5 345.305,-55.5"/>
<polygon fill="midnightblue" stroke="midnightblue" points="345.478,-59.0001 355.478,-55.5 345.478,-52.0001 345.478,-59.0001"/>
</g>
<!-- Node2&#45;&gt;Node5 -->
<g id="edge7" class="edge"><title>Node2&#45;&gt;Node5</title>
<path fill="none" stroke="midnightblue" d="M302.195,-65.5378C319.181,-68.6809 338.241,-71.9822 355.749,-74.5 411.813,-82.5626 475.427,-89.2373 523.802,-93.8046"/>
<polygon fill="midnightblue" stroke="midnightblue" points="523.603,-97.3011 533.885,-94.7469 524.255,-90.3315 523.603,-97.3011"/>
</g>
<!-- Node2&#45;&gt;Node6 -->
<g id="edge8" class="edge"><title>Node2&#45;&gt;Node6</title>
<path fill="none" stroke="midnightblue" d="M297.674,-45.4703C315.725,-41.8666 336.633,-38.0634 355.749,-35.5 412.532,-27.8856 477.154,-23.0331 525.791,-20.1392"/>
<polygon fill="midnightblue" stroke="midnightblue" points="526.139,-23.6251 535.919,-19.5512 525.733,-16.6368 526.139,-23.6251"/>
</g>
<!-- Node4 -->
<g id="node4" class="node"><title>Node4</title>
<g id="a_node4"><a xlink:href="classpanda_1_1Object.html#aaf58438092b42a89b838ce12c6a23833" target="_top" xlink:title="Reset the branch pointer to unlink the branch from this object. ">
<polygon fill="white" stroke="black" points="533.333,-45.5 533.333,-65.5 670.479,-65.5 670.479,-45.5 533.333,-45.5"/>
<text text-anchor="middle" x="601.906" y="-52.5" font-family="Helvetica,sans-Serif" font-size="10.00">panda::Object::releaseTree</text>
</a>
</g>
</g>
<!-- Node3&#45;&gt;Node4 -->
<g id="edge3" class="edge"><title>Node3&#45;&gt;Node4</title>
<path fill="none" stroke="midnightblue" d="M497.555,-55.5C505.907,-55.5 514.473,-55.5 522.927,-55.5"/>
<polygon fill="midnightblue" stroke="midnightblue" points="523.162,-59.0001 533.162,-55.5 523.162,-52.0001 523.162,-59.0001"/>
</g>
<!-- Node3&#45;&gt;Node5 -->
<g id="edge4" class="edge"><title>Node3&#45;&gt;Node5</title>
<path fill="none" stroke="midnightblue" d="M466.447,-65.5989C484.974,-70.4078 507.735,-76.3158 529.227,-81.8944"/>
<polygon fill="midnightblue" stroke="midnightblue" points="528.434,-85.3044 538.992,-84.4292 530.192,-78.5289 528.434,-85.3044"/>
</g>
<!-- Node3&#45;&gt;Node6 -->
<g id="edge5" class="edge"><title>Node3&#45;&gt;Node6</title>
<path fill="none" stroke="midnightblue" d="M472.187,-45.4565C494.835,-40.3615 522.536,-34.1301 546.43,-28.7549"/>
<polygon fill="midnightblue" stroke="midnightblue" points="547.423,-32.1189 556.411,-26.5094 545.887,-25.2896 547.423,-32.1189"/>
</g>
<!-- Node7 -->
<g id="node7" class="node"><title>Node7</title>
<g id="a_node7"><a xlink:href="classpanda_1_1utils_1_1BranchName.html#a13958ff4a9d554d2c057c600b4f70412" target="_top" xlink:title="Prepend the branch name with &lt;objName.&gt;. ">
<polygon fill="white" stroke="black" points="706.479,-0.5 706.479,-32.5 837.507,-32.5 837.507,-0.5 706.479,-0.5"/>
<text text-anchor="start" x="714.479" y="-19.5" font-family="Helvetica,sans-Serif" font-size="10.00">panda::utils::BranchName</text>
<text text-anchor="middle" x="771.993" y="-7.5" font-family="Helvetica,sans-Serif" font-size="10.00">::fullName</text>
</a>
</g>
</g>
<!-- Node6&#45;&gt;Node7 -->
<g id="edge6" class="edge"><title>Node6&#45;&gt;Node7</title>
<path fill="none" stroke="midnightblue" d="M667.893,-16.5C677.187,-16.5 686.81,-16.5 696.273,-16.5"/>
<polygon fill="midnightblue" stroke="midnightblue" points="696.456,-20.0001 706.456,-16.5 696.456,-13.0001 696.456,-20.0001"/>
</g>
</g>
</svg>
