<?xml version="1.0" encoding="UTF-8" standalone="no"?>
<!DOCTYPE svg PUBLIC "-//W3C//DTD SVG 1.1//EN"
 "http://www.w3.org/Graphics/SVG/1.1/DTD/svg11.dtd">
<!-- Generated by graphviz version 2.38.0 (20140413.2041)
 -->
<!-- Title: panda::ParticleM::init Pages: 1 -->
<!--zoomable 236 -->
<svg id="main" version="1.1" xmlns="http://www.w3.org/2000/svg" xmlns:xlink="http://www.w3.org/1999/xlink" xml:space="preserve" onload="init(evt)">
<style type="text/css"><![CDATA[
.edge:hover path { stroke: red; }
.edge:hover polygon { stroke: red; fill: red; }
]]></style>
<script type="text/javascript"><![CDATA[
var edges = document.getElementsByTagName('g');
if (edges && edges.length) {
  for (var i=0;i<edges.length;i++) {
    if (edges[i].id.substr(0,4)=='edge') {
      edges[i].setAttribute('class','edge');
    }
  }
}
]]></script>
        <defs>
                <circle id="rim" cx="0" cy="0" r="7"/>
                <circle id="rim2" cx="0" cy="0" r="3.5"/>
                <g id="zoomPlus">
                        <use xlink:href="#rim" fill="#404040">
                                <set attributeName="fill" to="#808080" begin="zoomplus.mouseover" end="zoomplus.mouseout"/>
                        </use>
                        <path d="M-4,0h8M0,-4v8" fill="none" stroke="white" stroke-width="1.5" pointer-events="none"/>
                </g>
                <g id="zoomMin">
                        <use xlink:href="#rim" fill="#404040">
                                <set attributeName="fill" to="#808080" begin="zoomminus.mouseover" end="zoomminus.mouseout"/>
                        </use>
                        <path d="M-4,0h8" fill="none" stroke="white" stroke-width="1.5" pointer-events="none"/>
                </g>
                <g id="dirArrow">
                        <path fill="none" stroke="white" stroke-width="1.5" d="M0,-3.0v7 M-2.5,-0.5L0,-3.0L2.5,-0.5"/>
                </g>
               <g id="resetDef">
                       <use xlink:href="#rim2" fill="#404040">
                               <set attributeName="fill" to="#808080" begin="reset.mouseover" end="reset.mouseout"/>
                       </use>
               </g>
        </defs>

<script type="text/javascript">
var viewWidth = 507;
var viewHeight = 236;
var sectionId = 'dynsection-9';
</script>
<script xlink:href="svgpan.js"/>
<svg id="graph" class="graph">
<g id="viewport">
<title>panda::ParticleM::init</title>
<polygon fill="white" stroke="none" points="-4,4 -4,-232 503.307,-232 503.307,4 -4,4"/>
<!-- Node1 -->
<g id="node1" class="node"><title>Node1</title>
<polygon fill="#bfbfbf" stroke="black" points="-2.84217e-14,-97.5 -2.84217e-14,-117.5 109.349,-117.5 109.349,-97.5 -2.84217e-14,-97.5"/>
<text text-anchor="middle" x="54.6745" y="-104.5" font-family="Helvetica,sans-Serif" font-size="10.00">panda::ParticleM::init</text>
</g>
<!-- Node2 -->
<g id="node2" class="node"><title>Node2</title>
<g id="a_node2"><a xlink:href="classpanda_1_1GenJet.html#aaea438a6a3461a997857f4d5e708f466" target="_top" xlink:title="Reset object state. ">
<polygon fill="white" stroke="black" points="148.118,-207.5 148.118,-227.5 248.04,-227.5 248.04,-207.5 148.118,-207.5"/>
<text text-anchor="middle" x="198.079" y="-214.5" font-family="Helvetica,sans-Serif" font-size="10.00">panda::GenJet::init</text>
</a>
</g>
</g>
<!-- Node1&#45;&gt;Node2 -->
<g id="edge1" class="edge"><title>Node1&#45;&gt;Node2</title>
<path fill="none" stroke="midnightblue" d="M69.5444,-125.801C85.7506,-146.068 114.327,-178.512 145.349,-198.5 150.738,-201.972 156.849,-204.928 162.936,-207.4"/>
<polygon fill="midnightblue" stroke="midnightblue" points="72.1126,-123.403 63.1946,-117.683 66.5991,-127.716 72.1126,-123.403"/>
</g>
<!-- Node3 -->
<g id="node3" class="node"><title>Node3</title>
<g id="a_node3"><a xlink:href="classpanda_1_1GenParticle.html#a133c2d435925b0466b2affcd8b03b5fc" target="_top" xlink:title="Reset object state. ">
<polygon fill="white" stroke="black" points="147.288,-156.5 147.288,-188.5 248.871,-188.5 248.871,-156.5 147.288,-156.5"/>
<text text-anchor="start" x="155.288" y="-175.5" font-family="Helvetica,sans-Serif" font-size="10.00">panda::GenParticle</text>
<text text-anchor="middle" x="198.079" y="-163.5" font-family="Helvetica,sans-Serif" font-size="10.00">::init</text>
</a>
</g>
</g>
<!-- Node1&#45;&gt;Node3 -->
<g id="edge2" class="edge"><title>Node1&#45;&gt;Node3</title>
<path fill="none" stroke="midnightblue" d="M86.7789,-121.798C109.02,-132.022 138.978,-145.792 162.059,-156.402"/>
<polygon fill="midnightblue" stroke="midnightblue" points="88.007,-118.51 77.4591,-117.514 85.0834,-124.871 88.007,-118.51"/>
</g>
<!-- Node4 -->
<g id="node4" class="node"><title>Node4</title>
<g id="a_node4"><a xlink:href="classpanda_1_1MicroJet.html#acb01bef0c15e0175151fdd479cb1b5ba" target="_top" xlink:title="Reset object state. ">
<polygon fill="white" stroke="black" points="145.349,-117.5 145.349,-137.5 250.81,-137.5 250.81,-117.5 145.349,-117.5"/>
<text text-anchor="middle" x="198.079" y="-124.5" font-family="Helvetica,sans-Serif" font-size="10.00">panda::MicroJet::init</text>
</a>
</g>
</g>
<!-- Node1&#45;&gt;Node4 -->
<g id="edge3" class="edge"><title>Node1&#45;&gt;Node4</title>
<path fill="none" stroke="midnightblue" d="M119.539,-116.533C128.14,-117.749 136.876,-118.985 145.233,-120.167"/>
<polygon fill="midnightblue" stroke="midnightblue" points="119.929,-113.053 109.537,-115.118 118.948,-119.984 119.929,-113.053"/>
</g>
<!-- Node7 -->
<g id="node7" class="node"><title>Node7</title>
<g id="a_node7"><a xlink:href="classpanda_1_1Parton.html#a94dd23d135a2336f5e2d4afa7ab45e6c" target="_top" xlink:title="Reset object state. ">
<polygon fill="white" stroke="black" points="149.509,-78.5 149.509,-98.5 246.65,-98.5 246.65,-78.5 149.509,-78.5"/>
<text text-anchor="middle" x="198.079" y="-85.5" font-family="Helvetica,sans-Serif" font-size="10.00">panda::Parton::init</text>
</a>
</g>
</g>
<!-- Node1&#45;&gt;Node7 -->
<g id="edge6" class="edge"><title>Node1&#45;&gt;Node7</title>
<path fill="none" stroke="midnightblue" d="M119.495,-98.9248C129.545,-97.5743 139.783,-96.1987 149.385,-94.9085"/>
<polygon fill="midnightblue" stroke="midnightblue" points="118.982,-95.4621 109.537,-100.263 119.914,-102.4 118.982,-95.4621"/>
</g>
<!-- Node8 -->
<g id="node8" class="node"><title>Node8</title>
<g id="a_node8"><a xlink:href="classpanda_1_1PFCand.html#afd85b75ecaab10011291811260d1f84f" target="_top" xlink:title="Reset object state. ">
<polygon fill="white" stroke="black" points="145.899,-39.5 145.899,-59.5 250.26,-59.5 250.26,-39.5 145.899,-39.5"/>
<text text-anchor="middle" x="198.079" y="-46.5" font-family="Helvetica,sans-Serif" font-size="10.00">panda::PFCand::init</text>
</a>
</g>
</g>
<!-- Node1&#45;&gt;Node8 -->
<g id="edge7" class="edge"><title>Node1&#45;&gt;Node8</title>
<path fill="none" stroke="midnightblue" d="M88.2774,-93.3891C105.242,-86.1217 126.353,-77.1946 145.349,-69.5 153.56,-66.1742 162.55,-62.6558 170.699,-59.5128"/>
<polygon fill="midnightblue" stroke="midnightblue" points="86.6215,-90.2911 78.8153,-97.4545 89.3848,-96.7227 86.6215,-90.2911"/>
</g>
<!-- Node9 -->
<g id="node9" class="node"><title>Node9</title>
<g id="a_node9"><a xlink:href="classpanda_1_1Tau.html#a2295834641659e77e1a61165f7f18587" target="_top" xlink:title="Reset object state. ">
<polygon fill="white" stroke="black" points="155.622,-0.5 155.622,-20.5 240.536,-20.5 240.536,-0.5 155.622,-0.5"/>
<text text-anchor="middle" x="198.079" y="-7.5" font-family="Helvetica,sans-Serif" font-size="10.00">panda::Tau::init</text>
</a>
</g>
</g>
<!-- Node1&#45;&gt;Node9 -->
<g id="edge8" class="edge"><title>Node1&#45;&gt;Node9</title>
<path fill="none" stroke="midnightblue" d="M72.3021,-90.1089C89.3424,-73.0803 117.252,-47.312 145.349,-30.5 151.711,-26.6931 158.926,-23.3669 165.905,-20.5767"/>
<polygon fill="midnightblue" stroke="midnightblue" points="69.7917,-87.6699 65.2759,-97.2542 74.7829,-92.5779 69.7917,-87.6699"/>
</g>
<!-- Node5 -->
<g id="node5" class="node"><title>Node5</title>
<g id="a_node5"><a xlink:href="classpanda_1_1Jet.html#a812a5a0a5a122791b2328c71e23a9d8b" target="_top" xlink:title="Reset object state. ">
<polygon fill="white" stroke="black" points="286.81,-117.5 286.81,-137.5 367.835,-137.5 367.835,-117.5 286.81,-117.5"/>
<text text-anchor="middle" x="327.322" y="-124.5" font-family="Helvetica,sans-Serif" font-size="10.00">panda::Jet::init</text>
</a>
</g>
</g>
<!-- Node4&#45;&gt;Node5 -->
<g id="edge4" class="edge"><title>Node4&#45;&gt;Node5</title>
<path fill="none" stroke="midnightblue" d="M261.034,-127.5C269.773,-127.5 278.553,-127.5 286.716,-127.5"/>
<polygon fill="midnightblue" stroke="midnightblue" points="260.834,-124 250.834,-127.5 260.834,-131 260.834,-124"/>
</g>
<!-- Node6 -->
<g id="node6" class="node"><title>Node6</title>
<g id="a_node6"><a xlink:href="classpanda_1_1FatJet.html#aa1a87839e3131c1629bbcf2e1a3b4cbc" target="_top" xlink:title="Reset object state. ">
<polygon fill="white" stroke="black" points="403.835,-117.5 403.835,-137.5 499.307,-137.5 499.307,-117.5 403.835,-117.5"/>
<text text-anchor="middle" x="451.571" y="-124.5" font-family="Helvetica,sans-Serif" font-size="10.00">panda::FatJet::init</text>
</a>
</g>
</g>
<!-- Node5&#45;&gt;Node6 -->
<g id="edge5" class="edge"><title>Node5&#45;&gt;Node6</title>
<path fill="none" stroke="midnightblue" d="M378.043,-127.5C386.423,-127.5 395.099,-127.5 403.412,-127.5"/>
<polygon fill="midnightblue" stroke="midnightblue" points="378.013,-124 368.013,-127.5 378.013,-131 378.013,-124"/>
</g>
</g>
</svg>
        <g id="navigator" transform="translate(0 0)" fill="#404254">
                <rect fill="#f2f5e9" fill-opacity="0.5" stroke="#606060" stroke-width=".5" x="0" y="0" width="60" height="60"/>
                <use id="zoomplus" xlink:href="#zoomPlus" x="17" y="9" onmousedown="handleZoom(evt,'in')"/>
                <use id="zoomminus" xlink:href="#zoomMin" x="42" y="9" onmousedown="handleZoom(evt,'out')"/>
                <use id="reset" xlink:href="#resetDef" x="30" y="36" onmousedown="handleReset()"/>
                <g id="arrowUp" xlink:href="#dirArrow" transform="translate(30 24)" onmousedown="handlePan(0,-1)">
                  <use xlink:href="#rim" fill="#404040">
                        <set attributeName="fill" to="#808080" begin="arrowUp.mouseover" end="arrowUp.mouseout"/>
                  </use>
                  <path fill="none" stroke="white" stroke-width="1.5" d="M0,-3.0v7 M-2.5,-0.5L0,-3.0L2.5,-0.5"/>
                </g>
                <g id="arrowRight" xlink:href="#dirArrow" transform="rotate(90) translate(36 -43)" onmousedown="handlePan(1,0)">
                  <use xlink:href="#rim" fill="#404040">
                        <set attributeName="fill" to="#808080" begin="arrowRight.mouseover" end="arrowRight.mouseout"/>
                  </use>
                  <path fill="none" stroke="white" stroke-width="1.5" d="M0,-3.0v7 M-2.5,-0.5L0,-3.0L2.5,-0.5"/>
                </g>
                <g id="arrowDown" xlink:href="#dirArrow" transform="rotate(180) translate(-30 -48)" onmousedown="handlePan(0,1)">
                  <use xlink:href="#rim" fill="#404040">
                        <set attributeName="fill" to="#808080" begin="arrowDown.mouseover" end="arrowDown.mouseout"/>
                  </use>
                  <path fill="none" stroke="white" stroke-width="1.5" d="M0,-3.0v7 M-2.5,-0.5L0,-3.0L2.5,-0.5"/>
                </g>
                <g id="arrowLeft" xlink:href="#dirArrow" transform="rotate(270) translate(-36 17)" onmousedown="handlePan(-1,0)">
                  <use xlink:href="#rim" fill="#404040">
                        <set attributeName="fill" to="#808080" begin="arrowLeft.mouseover" end="arrowLeft.mouseout"/>
                  </use>
                  <path fill="none" stroke="white" stroke-width="1.5" d="M0,-3.0v7 M-2.5,-0.5L0,-3.0L2.5,-0.5"/>
                </g>
        </g>
        <svg viewBox="0 0 15 15" width="100%" height="30px" preserveAspectRatio="xMaxYMin meet">
         <g id="arrow_out" transform="scale(0.3 0.3)">
          <a xlink:href="classpanda_1_1ParticleM_a92df7a2653432fa4d304039e1e62c41b_icgraph_org.svg" target="_base">
           <rect id="button" ry="5" rx="5" y="6" x="6" height="38" width="38"
                fill="#f2f5e9" fill-opacity="0.5" stroke="#606060" stroke-width="1.0"/>
           <path id="arrow"
             d="M 11.500037,31.436501 C 11.940474,20.09759 22.043105,11.32322 32.158766,21.979434 L 37.068811,17.246167 C 37.068811,17.246167 37.088388,32 37.088388,32 L 22.160133,31.978069 C 22.160133,31.978069 26.997745,27.140456 26.997745,27.140456 C 18.528582,18.264221 13.291696,25.230495 11.500037,31.436501 z"
             style="fill:#404040;"/>
          </a>
         </g>
        </svg>
</svg>
