<?xml version="1.0" encoding="UTF-8" standalone="no"?>
<!DOCTYPE svg PUBLIC "-//W3C//DTD SVG 1.1//EN"
 "http://www.w3.org/Graphics/SVG/1.1/DTD/svg11.dtd">
<!-- Generated by graphviz version 2.38.0 (20140413.2041)
 -->
<!-- Title: panda::Particle::dR2 Pages: 1 -->
<svg width="252pt" height="29pt"
 viewBox="0.00 0.00 251.60 29.00" xmlns="http://www.w3.org/2000/svg" xmlns:xlink="http://www.w3.org/1999/xlink">
<g id="graph0" class="graph" transform="scale(1 1) rotate(0) translate(4 25)">
<title>panda::Particle::dR2</title>
<polygon fill="white" stroke="none" points="-4,4 -4,-25 247.603,-25 247.603,4 -4,4"/>
<!-- Node1 -->
<g id="node1" class="node"><title>Node1</title>
<polygon fill="#bfbfbf" stroke="black" points="-1.42109e-14,-0.5 -1.42109e-14,-20.5 106.581,-20.5 106.581,-0.5 -1.42109e-14,-0.5"/>
<text text-anchor="middle" x="53.2905" y="-7.5" font-family="Helvetica,sans-Serif" font-size="10.00">panda::Particle::dR2</text>
</g>
<!-- Node2 -->
<g id="node2" class="node"><title>Node2</title>
<g id="a_node2"><a xlink:href="classpanda_1_1Particle.html#adbc50bce85d9da56699bbd7d9ab1e4bf" target="_top" xlink:title="panda::Particle::dR">
<polygon fill="white" stroke="black" points="142.581,-0.5 142.581,-20.5 243.603,-20.5 243.603,-0.5 142.581,-0.5"/>
<text text-anchor="middle" x="193.092" y="-7.5" font-family="Helvetica,sans-Serif" font-size="10.00">panda::Particle::dR</text>
</a>
</g>
</g>
<!-- Node1&#45;&gt;Node2 -->
<g id="edge1" class="edge"><title>Node1&#45;&gt;Node2</title>
<path fill="none" stroke="midnightblue" d="M116.79,-10.5C125.398,-10.5 134.139,-10.5 142.472,-10.5"/>
<polygon fill="midnightblue" stroke="midnightblue" points="116.78,-7.0001 106.78,-10.5 116.78,-14.0001 116.78,-7.0001"/>
</g>
</g>
</svg>
