<?xml version="1.0" encoding="UTF-8" standalone="no"?>
<!DOCTYPE svg PUBLIC "-//W3C//DTD SVG 1.1//EN"
 "http://www.w3.org/Graphics/SVG/1.1/DTD/svg11.dtd">
<!-- Generated by graphviz version 2.38.0 (20140413.2041)
 -->
<!-- Title: panda::Muon::destructor Pages: 1 -->
<svg width="632pt" height="41pt"
 viewBox="0.00 0.00 632.37 41.00" xmlns="http://www.w3.org/2000/svg" xmlns:xlink="http://www.w3.org/1999/xlink">
<g id="graph0" class="graph" transform="scale(1 1) rotate(0) translate(4 37)">
<title>panda::Muon::destructor</title>
<polygon fill="white" stroke="none" points="-4,4 -4,-37 628.369,-37 628.369,4 -4,4"/>
<!-- Node1 -->
<g id="node1" class="node"><title>Node1</title>
<polygon fill="#bfbfbf" stroke="black" points="-4.26326e-14,-6.5 -4.26326e-14,-26.5 124.369,-26.5 124.369,-6.5 -4.26326e-14,-6.5"/>
<text text-anchor="middle" x="62.1845" y="-13.5" font-family="Helvetica,sans-Serif" font-size="10.00">panda::Muon::destructor</text>
</g>
<!-- Node2 -->
<g id="node2" class="node"><title>Node2</title>
<g id="a_node2"><a xlink:href="classpanda_1_1Lepton.html#af8bb4d531bdddbf51f479f7eb0dae175" target="_top" xlink:title="Destructor implementation. ">
<polygon fill="white" stroke="black" points="160.369,-6.5 160.369,-26.5 290.306,-26.5 290.306,-6.5 160.369,-6.5"/>
<text text-anchor="middle" x="225.338" y="-13.5" font-family="Helvetica,sans-Serif" font-size="10.00">panda::Lepton::destructor</text>
</a>
</g>
</g>
<!-- Node1&#45;&gt;Node2 -->
<g id="edge1" class="edge"><title>Node1&#45;&gt;Node2</title>
<path fill="none" stroke="midnightblue" d="M124.569,-16.5C132.853,-16.5 141.425,-16.5 149.905,-16.5"/>
<polygon fill="midnightblue" stroke="midnightblue" points="150.178,-20.0001 160.178,-16.5 150.178,-13.0001 150.178,-20.0001"/>
</g>
<!-- Node3 -->
<g id="node3" class="node"><title>Node3</title>
<g id="a_node3"><a xlink:href="classpanda_1_1Particle.html#ad1a5f606b804ac2ec5d7e391aba6bda6" target="_top" xlink:title="Destructor implementation. ">
<polygon fill="white" stroke="black" points="326.306,-6.5 326.306,-26.5 459.002,-26.5 459.002,-6.5 326.306,-6.5"/>
<text text-anchor="middle" x="392.654" y="-13.5" font-family="Helvetica,sans-Serif" font-size="10.00">panda::Particle::destructor</text>
</a>
</g>
</g>
<!-- Node2&#45;&gt;Node3 -->
<g id="edge2" class="edge"><title>Node2&#45;&gt;Node3</title>
<path fill="none" stroke="midnightblue" d="M290.727,-16.5C298.977,-16.5 307.482,-16.5 315.892,-16.5"/>
<polygon fill="midnightblue" stroke="midnightblue" points="316.079,-20.0001 326.079,-16.5 316.079,-13.0001 316.079,-20.0001"/>
</g>
<!-- Node4 -->
<g id="node4" class="node"><title>Node4</title>
<g id="a_node4"><a xlink:href="classpanda_1_1ContainerElement.html#aa1c71695dae992e82bf91f354aa8480c" target="_top" xlink:title="Destructor implementation. ">
<polygon fill="white" stroke="black" points="495.002,-0.5 495.002,-32.5 624.369,-32.5 624.369,-0.5 495.002,-0.5"/>
<text text-anchor="start" x="503.002" y="-19.5" font-family="Helvetica,sans-Serif" font-size="10.00">panda::ContainerElement</text>
<text text-anchor="middle" x="559.686" y="-7.5" font-family="Helvetica,sans-Serif" font-size="10.00">::destructor</text>
</a>
</g>
</g>
<!-- Node3&#45;&gt;Node4 -->
<g id="edge3" class="edge"><title>Node3&#45;&gt;Node4</title>
<path fill="none" stroke="midnightblue" d="M459.353,-16.5C467.661,-16.5 476.205,-16.5 484.632,-16.5"/>
<polygon fill="midnightblue" stroke="midnightblue" points="484.827,-20.0001 494.827,-16.5 484.826,-13.0001 484.827,-20.0001"/>
</g>
</g>
</svg>
