<?xml version="1.0" encoding="UTF-8" standalone="no"?>
<!DOCTYPE svg PUBLIC "-//W3C//DTD SVG 1.1//EN"
 "http://www.w3.org/Graphics/SVG/1.1/DTD/svg11.dtd">
<!-- Generated by graphviz version 2.38.0 (20140413.2041)
 -->
<!-- Title: panda::Lepton::destructor Pages: 1 -->
<svg width="310pt" height="68pt"
 viewBox="0.00 0.00 309.97 68.00" xmlns="http://www.w3.org/2000/svg" xmlns:xlink="http://www.w3.org/1999/xlink">
<g id="graph0" class="graph" transform="scale(1 1) rotate(0) translate(4 64)">
<title>panda::Lepton::destructor</title>
<polygon fill="white" stroke="none" points="-4,4 -4,-64 305.973,-64 305.973,4 -4,4"/>
<!-- Node1 -->
<g id="node1" class="node"><title>Node1</title>
<polygon fill="#bfbfbf" stroke="black" points="0,-19.5 0,-39.5 129.937,-39.5 129.937,-19.5 0,-19.5"/>
<text text-anchor="middle" x="64.9685" y="-26.5" font-family="Helvetica,sans-Serif" font-size="10.00">panda::Lepton::destructor</text>
</g>
<!-- Node2 -->
<g id="node2" class="node"><title>Node2</title>
<g id="a_node2"><a xlink:href="classpanda_1_1Electron.html#a9e9a34d904d5cc02ab895e73cdaf6d7f" target="_top" xlink:title="Destructor implementation. ">
<polygon fill="white" stroke="black" points="165.937,-39.5 165.937,-59.5 301.973,-59.5 301.973,-39.5 165.937,-39.5"/>
<text text-anchor="middle" x="233.955" y="-46.5" font-family="Helvetica,sans-Serif" font-size="10.00">panda::Electron::destructor</text>
</a>
</g>
</g>
<!-- Node1&#45;&gt;Node2 -->
<g id="edge1" class="edge"><title>Node1&#45;&gt;Node2</title>
<path fill="none" stroke="midnightblue" d="M140.013,-38.3684C148.57,-39.3932 157.26,-40.4341 165.719,-41.4472"/>
<polygon fill="midnightblue" stroke="midnightblue" points="140.398,-34.8895 130.052,-37.1753 139.565,-41.8398 140.398,-34.8895"/>
</g>
<!-- Node3 -->
<g id="node3" class="node"><title>Node3</title>
<g id="a_node3"><a xlink:href="classpanda_1_1Muon.html#aa982002bedb53cacab127270c53e54e8" target="_top" xlink:title="Destructor implementation. ">
<polygon fill="white" stroke="black" points="171.771,-0.5 171.771,-20.5 296.139,-20.5 296.139,-0.5 171.771,-0.5"/>
<text text-anchor="middle" x="233.955" y="-7.5" font-family="Helvetica,sans-Serif" font-size="10.00">panda::Muon::destructor</text>
</a>
</g>
</g>
<!-- Node1&#45;&gt;Node3 -->
<g id="edge2" class="edge"><title>Node1&#45;&gt;Node3</title>
<path fill="none" stroke="midnightblue" d="M140.049,-21.0711C150.562,-19.8748 161.278,-18.6556 171.516,-17.4906"/>
<polygon fill="midnightblue" stroke="midnightblue" points="139.592,-17.6003 130.052,-22.2084 140.384,-24.5554 139.592,-17.6003"/>
</g>
</g>
</svg>
