<?xml version="1.0" encoding="UTF-8" standalone="no"?>
<!DOCTYPE svg PUBLIC "-//W3C//DTD SVG 1.1//EN"
 "http://www.w3.org/Graphics/SVG/1.1/DTD/svg11.dtd">
<!-- Generated by graphviz version 2.38.0 (20140413.2041)
 -->
<!-- Title: panda.branch.Branch.typename Pages: 1 -->
<svg width="560pt" height="156pt"
 viewBox="0.00 0.00 560.35 156.00" xmlns="http://www.w3.org/2000/svg" xmlns:xlink="http://www.w3.org/1999/xlink">
<g id="graph0" class="graph" transform="scale(1 1) rotate(0) translate(4 152)">
<title>panda.branch.Branch.typename</title>
<polygon fill="white" stroke="none" points="-4,4 -4,-152 556.349,-152 556.349,4 -4,4"/>
<!-- Node1 -->
<g id="node1" class="node"><title>Node1</title>
<polygon fill="#bfbfbf" stroke="black" points="5.68434e-14,-82.5 5.68434e-14,-102.5 158.275,-102.5 158.275,-82.5 5.68434e-14,-82.5"/>
<text text-anchor="middle" x="79.1375" y="-89.5" font-family="Helvetica,sans-Serif" font-size="10.00">panda.branch.Branch.typename</text>
</g>
<!-- Node2 -->
<g id="node2" class="node"><title>Node2</title>
<g id="a_node2"><a xlink:href="classpanda_1_1branch_1_1Branch.html#a11ce0de77040f41593ece6dce3137489" target="_top" xlink:title="panda.branch.Branch.write_decl">
<polygon fill="white" stroke="black" points="194.275,-127.5 194.275,-147.5 353.648,-147.5 353.648,-127.5 194.275,-127.5"/>
<text text-anchor="middle" x="273.962" y="-134.5" font-family="Helvetica,sans-Serif" font-size="10.00">panda.branch.Branch.write_decl</text>
</a>
</g>
</g>
<!-- Node1&#45;&gt;Node2 -->
<g id="edge1" class="edge"><title>Node1&#45;&gt;Node2</title>
<path fill="none" stroke="midnightblue" d="M133.409,-104.932C163.774,-112.019 201.332,-120.784 229.832,-127.435"/>
<polygon fill="midnightblue" stroke="midnightblue" points="133.945,-101.463 123.411,-102.599 132.354,-108.28 133.945,-101.463"/>
</g>
<!-- Node3 -->
<g id="node3" class="node"><title>Node3</title>
<g id="a_node3"><a xlink:href="classpanda_1_1branch_1_1Branch.html#ad4d6b4a6a42391cd7db05fde7441c5b3" target="_top" xlink:title="panda.branch.Branch.write\l_allocate">
<polygon fill="white" stroke="black" points="206.223,-76.5 206.223,-108.5 341.7,-108.5 341.7,-76.5 206.223,-76.5"/>
<text text-anchor="start" x="214.223" y="-95.5" font-family="Helvetica,sans-Serif" font-size="10.00">panda.branch.Branch.write</text>
<text text-anchor="middle" x="273.962" y="-83.5" font-family="Helvetica,sans-Serif" font-size="10.00">_allocate</text>
</a>
</g>
</g>
<!-- Node1&#45;&gt;Node3 -->
<g id="edge2" class="edge"><title>Node1&#45;&gt;Node3</title>
<path fill="none" stroke="midnightblue" d="M168.404,-92.5C181.09,-92.5 193.965,-92.5 206.142,-92.5"/>
<polygon fill="midnightblue" stroke="midnightblue" points="168.288,-89.0001 158.288,-92.5 168.288,-96.0001 168.288,-89.0001"/>
</g>
<!-- Node4 -->
<g id="node4" class="node"><title>Node4</title>
<g id="a_node4"><a xlink:href="classpanda_1_1branch_1_1Branch.html#a9dd12cb55cc7f97e717290693e7fb371" target="_top" xlink:title="panda.branch.Branch.write\l_assign">
<polygon fill="white" stroke="black" points="206.223,-25.5 206.223,-57.5 341.7,-57.5 341.7,-25.5 206.223,-25.5"/>
<text text-anchor="start" x="214.223" y="-44.5" font-family="Helvetica,sans-Serif" font-size="10.00">panda.branch.Branch.write</text>
<text text-anchor="middle" x="273.962" y="-32.5" font-family="Helvetica,sans-Serif" font-size="10.00">_assign</text>
</a>
</g>
</g>
<!-- Node1&#45;&gt;Node4 -->
<g id="edge3" class="edge"><title>Node1&#45;&gt;Node4</title>
<path fill="none" stroke="midnightblue" d="M128.02,-79.8356C153.467,-73.1052 185.015,-64.761 212.174,-57.5777"/>
<polygon fill="midnightblue" stroke="midnightblue" points="127.006,-76.4833 118.233,-82.424 128.796,-83.2506 127.006,-76.4833"/>
</g>
<!-- Node5 -->
<g id="node5" class="node"><title>Node5</title>
<g id="a_node5"><a xlink:href="classpanda_1_1refbranch_1_1RefBranch.html#aab6abb2a47955638050a1e0f2798f5f6" target="_top" xlink:title="panda.refbranch.RefBranch.write\l_copy_ctor">
<polygon fill="white" stroke="black" points="389.648,-51.5 389.648,-83.5 552.349,-83.5 552.349,-51.5 389.648,-51.5"/>
<text text-anchor="start" x="397.648" y="-70.5" font-family="Helvetica,sans-Serif" font-size="10.00">panda.refbranch.RefBranch.write</text>
<text text-anchor="middle" x="470.998" y="-58.5" font-family="Helvetica,sans-Serif" font-size="10.00">_copy_ctor</text>
</a>
</g>
</g>
<!-- Node4&#45;&gt;Node5 -->
<g id="edge4" class="edge"><title>Node4&#45;&gt;Node5</title>
<path fill="none" stroke="midnightblue" d="M352.012,-51.7714C364.306,-53.4103 377.055,-55.1099 389.428,-56.7594"/>
<polygon fill="midnightblue" stroke="midnightblue" points="352.184,-48.2635 341.809,-50.4113 351.259,-55.2021 352.184,-48.2635"/>
</g>
<!-- Node6 -->
<g id="node6" class="node"><title>Node6</title>
<g id="a_node6"><a xlink:href="classpanda_1_1refvbranch_1_1RefVectorBranch.html#a4a579a4942e4357945946c354ff21b45" target="_top" xlink:title="panda.refvbranch.RefVector\lBranch.write_copy_ctor">
<polygon fill="white" stroke="black" points="400.48,-0.5 400.48,-32.5 541.517,-32.5 541.517,-0.5 400.48,-0.5"/>
<text text-anchor="start" x="408.48" y="-19.5" font-family="Helvetica,sans-Serif" font-size="10.00">panda.refvbranch.RefVector</text>
<text text-anchor="middle" x="470.998" y="-7.5" font-family="Helvetica,sans-Serif" font-size="10.00">Branch.write_copy_ctor</text>
</a>
</g>
</g>
<!-- Node4&#45;&gt;Node6 -->
<g id="edge5" class="edge"><title>Node4&#45;&gt;Node6</title>
<path fill="none" stroke="midnightblue" d="M352.12,-31.6097C368.005,-29.5736 384.644,-27.4408 400.248,-25.4407"/>
<polygon fill="midnightblue" stroke="midnightblue" points="351.283,-28.1883 341.809,-32.9314 352.173,-35.1315 351.283,-28.1883"/>
</g>
</g>
</svg>
