<?xml version="1.0" encoding="UTF-8" standalone="no"?>
<!DOCTYPE svg PUBLIC "-//W3C//DTD SVG 1.1//EN"
 "http://www.w3.org/Graphics/SVG/1.1/DTD/svg11.dtd">
<!-- Generated by graphviz version 2.38.0 (20140413.2041)
 -->
<!-- Title: panda::PFCand::releaseTree Pages: 1 -->
<svg width="857pt" height="125pt"
 viewBox="0.00 0.00 856.60 125.00" xmlns="http://www.w3.org/2000/svg" xmlns:xlink="http://www.w3.org/1999/xlink">
<g id="graph0" class="graph" transform="scale(1 1) rotate(0) translate(4 121)">
<title>panda::PFCand::releaseTree</title>
<polygon fill="white" stroke="none" points="-4,4 -4,-121 852.596,-121 852.596,4 -4,4"/>
<!-- Node1 -->
<g id="node1" class="node"><title>Node1</title>
<polygon fill="#bfbfbf" stroke="black" points="0,-45.5 0,-65.5 144.925,-65.5 144.925,-45.5 0,-45.5"/>
<text text-anchor="middle" x="72.4625" y="-52.5" font-family="Helvetica,sans-Serif" font-size="10.00">panda::PFCand::releaseTree</text>
</g>
<!-- Node2 -->
<g id="node2" class="node"><title>Node2</title>
<g id="a_node2"><a xlink:href="classpanda_1_1ParticleM.html#a0315a281e15ff66329eef5169b162e8e" target="_top" xlink:title="Reset the branch pointer to unlink the branch from this object. ">
<polygon fill="white" stroke="black" points="180.925,-45.5 180.925,-65.5 330.838,-65.5 330.838,-45.5 180.925,-45.5"/>
<text text-anchor="middle" x="255.881" y="-52.5" font-family="Helvetica,sans-Serif" font-size="10.00">panda::ParticleM::releaseTree</text>
</a>
</g>
</g>
<!-- Node1&#45;&gt;Node2 -->
<g id="edge1" class="edge"><title>Node1&#45;&gt;Node2</title>
<path fill="none" stroke="midnightblue" d="M145.164,-55.5C153.473,-55.5 162.004,-55.5 170.463,-55.5"/>
<polygon fill="midnightblue" stroke="midnightblue" points="170.723,-59.0001 180.723,-55.5 170.723,-52.0001 170.723,-59.0001"/>
</g>
<!-- Node5 -->
<g id="node5" class="node"><title>Node5</title>
<g id="a_node5"><a xlink:href="classpanda_1_1utils_1_1StoreManager.html#a6f30ec459d951e84a1196b7e2ffdcf49" target="_top" xlink:title="panda::utils::StoreManager\l::getName">
<polygon fill="white" stroke="black" points="544.977,-84.5 544.977,-116.5 681.012,-116.5 681.012,-84.5 544.977,-84.5"/>
<text text-anchor="start" x="552.977" y="-103.5" font-family="Helvetica,sans-Serif" font-size="10.00">panda::utils::StoreManager</text>
<text text-anchor="middle" x="612.995" y="-91.5" font-family="Helvetica,sans-Serif" font-size="10.00">::getName</text>
</a>
</g>
</g>
<!-- Node1&#45;&gt;Node5 -->
<g id="edge9" class="edge"><title>Node1&#45;&gt;Node5</title>
<path fill="none" stroke="midnightblue" d="M126.941,-65.5191C144.146,-68.5913 163.313,-71.8555 180.925,-74.5 263.26,-86.8631 283.771,-91.8709 366.838,-97.5 422.939,-101.302 486.423,-101.979 534.731,-101.744"/>
<polygon fill="midnightblue" stroke="midnightblue" points="534.823,-105.243 544.8,-101.68 534.779,-98.2433 534.823,-105.243"/>
</g>
<!-- Node6 -->
<g id="node6" class="node"><title>Node6</title>
<g id="a_node6"><a xlink:href="namespacepanda_1_1utils.html#a82a8530e64fbdf917cf9b8659065f98b" target="_top" xlink:title="panda::utils::resetAddress">
<polygon fill="white" stroke="black" points="547.201,-6.5 547.201,-26.5 678.789,-26.5 678.789,-6.5 547.201,-6.5"/>
<text text-anchor="middle" x="612.995" y="-13.5" font-family="Helvetica,sans-Serif" font-size="10.00">panda::utils::resetAddress</text>
</a>
</g>
</g>
<!-- Node1&#45;&gt;Node6 -->
<g id="edge10" class="edge"><title>Node1&#45;&gt;Node6</title>
<path fill="none" stroke="midnightblue" d="M121.988,-45.4805C140.386,-41.9423 161.563,-38.181 180.925,-35.5 263.114,-24.1192 283.968,-22.6198 366.838,-18.5 423.889,-15.6638 488.499,-15.2516 537.063,-15.5014"/>
<polygon fill="midnightblue" stroke="midnightblue" points="537.152,-19.0019 547.174,-15.5641 537.196,-12.0021 537.152,-19.0019"/>
</g>
<!-- Node3 -->
<g id="node3" class="node"><title>Node3</title>
<g id="a_node3"><a xlink:href="classpanda_1_1Particle.html#a8fb6fa0b4316967da573181262727142" target="_top" xlink:title="Reset the branch pointer to unlink the branch from this object. ">
<polygon fill="white" stroke="black" points="366.838,-45.5 366.838,-65.5 508.422,-65.5 508.422,-45.5 366.838,-45.5"/>
<text text-anchor="middle" x="437.63" y="-52.5" font-family="Helvetica,sans-Serif" font-size="10.00">panda::Particle::releaseTree</text>
</a>
</g>
</g>
<!-- Node2&#45;&gt;Node3 -->
<g id="edge2" class="edge"><title>Node2&#45;&gt;Node3</title>
<path fill="none" stroke="midnightblue" d="M331.03,-55.5C339.418,-55.5 347.994,-55.5 356.454,-55.5"/>
<polygon fill="midnightblue" stroke="midnightblue" points="356.696,-59.0001 366.696,-55.5 356.696,-52.0001 356.696,-59.0001"/>
</g>
<!-- Node2&#45;&gt;Node5 -->
<g id="edge7" class="edge"><title>Node2&#45;&gt;Node5</title>
<path fill="none" stroke="midnightblue" d="M310.741,-65.531C328.56,-68.6559 348.514,-71.948 366.838,-74.5 422.839,-82.2994 486.325,-88.9728 534.66,-93.6054"/>
<polygon fill="midnightblue" stroke="midnightblue" points="534.449,-97.1011 544.736,-94.5627 535.112,-90.1325 534.449,-97.1011"/>
</g>
<!-- Node2&#45;&gt;Node6 -->
<g id="edge8" class="edge"><title>Node2&#45;&gt;Node6</title>
<path fill="none" stroke="midnightblue" d="M305.976,-45.4582C324.926,-41.8747 346.826,-38.0886 366.838,-35.5 423.656,-28.1507 488.276,-23.2853 536.904,-20.3192"/>
<polygon fill="midnightblue" stroke="midnightblue" points="537.256,-23.8046 547.029,-19.7149 536.839,-16.817 537.256,-23.8046"/>
</g>
<!-- Node4 -->
<g id="node4" class="node"><title>Node4</title>
<g id="a_node4"><a xlink:href="classpanda_1_1Object.html#aaf58438092b42a89b838ce12c6a23833" target="_top" xlink:title="Reset the branch pointer to unlink the branch from this object. ">
<polygon fill="white" stroke="black" points="544.422,-45.5 544.422,-65.5 681.568,-65.5 681.568,-45.5 544.422,-45.5"/>
<text text-anchor="middle" x="612.995" y="-52.5" font-family="Helvetica,sans-Serif" font-size="10.00">panda::Object::releaseTree</text>
</a>
</g>
</g>
<!-- Node3&#45;&gt;Node4 -->
<g id="edge3" class="edge"><title>Node3&#45;&gt;Node4</title>
<path fill="none" stroke="midnightblue" d="M508.644,-55.5C516.996,-55.5 525.562,-55.5 534.016,-55.5"/>
<polygon fill="midnightblue" stroke="midnightblue" points="534.251,-59.0001 544.251,-55.5 534.251,-52.0001 534.251,-59.0001"/>
</g>
<!-- Node3&#45;&gt;Node5 -->
<g id="edge4" class="edge"><title>Node3&#45;&gt;Node5</title>
<path fill="none" stroke="midnightblue" d="M477.536,-65.5989C496.063,-70.4078 518.824,-76.3158 540.316,-81.8944"/>
<polygon fill="midnightblue" stroke="midnightblue" points="539.523,-85.3044 550.081,-84.4292 541.281,-78.5289 539.523,-85.3044"/>
</g>
<!-- Node3&#45;&gt;Node6 -->
<g id="edge5" class="edge"><title>Node3&#45;&gt;Node6</title>
<path fill="none" stroke="midnightblue" d="M483.276,-45.4565C505.924,-40.3615 533.625,-34.1301 557.519,-28.7549"/>
<polygon fill="midnightblue" stroke="midnightblue" points="558.512,-32.1189 567.5,-26.5094 556.976,-25.2896 558.512,-32.1189"/>
</g>
<!-- Node7 -->
<g id="node7" class="node"><title>Node7</title>
<g id="a_node7"><a xlink:href="classpanda_1_1utils_1_1BranchName.html#a13958ff4a9d554d2c057c600b4f70412" target="_top" xlink:title="Prepend the branch name with &lt;objName.&gt;. ">
<polygon fill="white" stroke="black" points="717.568,-0.5 717.568,-32.5 848.596,-32.5 848.596,-0.5 717.568,-0.5"/>
<text text-anchor="start" x="725.568" y="-19.5" font-family="Helvetica,sans-Serif" font-size="10.00">panda::utils::BranchName</text>
<text text-anchor="middle" x="783.082" y="-7.5" font-family="Helvetica,sans-Serif" font-size="10.00">::fullName</text>
</a>
</g>
</g>
<!-- Node6&#45;&gt;Node7 -->
<g id="edge6" class="edge"><title>Node6&#45;&gt;Node7</title>
<path fill="none" stroke="midnightblue" d="M678.982,-16.5C688.276,-16.5 697.899,-16.5 707.362,-16.5"/>
<polygon fill="midnightblue" stroke="midnightblue" points="707.545,-20.0001 717.545,-16.5 707.545,-13.0001 707.545,-20.0001"/>
</g>
</g>
</svg>
