<?xml version="1.0" encoding="UTF-8" standalone="no"?>
<!DOCTYPE svg PUBLIC "-//W3C//DTD SVG 1.1//EN"
 "http://www.w3.org/Graphics/SVG/1.1/DTD/svg11.dtd">
<!-- Generated by graphviz version 2.38.0 (20140413.2041)
 -->
<!-- Title: panda::CollectionBase::doSetStatus_ Pages: 1 -->
<svg width="291pt" height="41pt"
 viewBox="0.00 0.00 291.06 41.00" xmlns="http://www.w3.org/2000/svg" xmlns:xlink="http://www.w3.org/1999/xlink">
<g id="graph0" class="graph" transform="scale(1 1) rotate(0) translate(4 37)">
<title>panda::CollectionBase::doSetStatus_</title>
<polygon fill="white" stroke="none" points="-4,4 -4,-37 287.059,-37 287.059,4 -4,4"/>
<!-- Node1 -->
<g id="node1" class="node"><title>Node1</title>
<polygon fill="#bfbfbf" stroke="black" points="-1.42109e-14,-0.5 -1.42109e-14,-32.5 116.031,-32.5 116.031,-0.5 -1.42109e-14,-0.5"/>
<text text-anchor="start" x="8" y="-19.5" font-family="Helvetica,sans-Serif" font-size="10.00">panda::CollectionBase</text>
<text text-anchor="middle" x="58.0155" y="-7.5" font-family="Helvetica,sans-Serif" font-size="10.00">::doSetStatus_</text>
</g>
<!-- Node2 -->
<g id="node2" class="node"><title>Node2</title>
<g id="a_node2"><a xlink:href="classpanda_1_1utils_1_1BranchName.html#ae3332329bf2afae5ed8e7c35e5d77ffa" target="_top" xlink:title="Is the name included and vetoed? ">
<polygon fill="white" stroke="black" points="152.031,-0.5 152.031,-32.5 283.059,-32.5 283.059,-0.5 152.031,-0.5"/>
<text text-anchor="start" x="160.031" y="-19.5" font-family="Helvetica,sans-Serif" font-size="10.00">panda::utils::BranchName</text>
<text text-anchor="middle" x="217.545" y="-7.5" font-family="Helvetica,sans-Serif" font-size="10.00">::vetoed</text>
</a>
</g>
</g>
<!-- Node1&#45;&gt;Node2 -->
<g id="edge1" class="edge"><title>Node1&#45;&gt;Node2</title>
<path fill="none" stroke="midnightblue" d="M116.333,-16.5C124.526,-16.5 133.054,-16.5 141.524,-16.5"/>
<polygon fill="midnightblue" stroke="midnightblue" points="141.801,-20.0001 151.801,-16.5 141.801,-13.0001 141.801,-20.0001"/>
</g>
</g>
</svg>
