<?xml version="1.0" encoding="UTF-8" standalone="no"?>
<!DOCTYPE svg PUBLIC "-//W3C//DTD SVG 1.1//EN"
 "http://www.w3.org/Graphics/SVG/1.1/DTD/svg11.dtd">
<!-- Generated by graphviz version 2.38.0 (20140413.2041)
 -->
<!-- Title: panda::FatJet::init Pages: 1 -->
<!--zoomable 29 -->
<svg id="main" version="1.1" xmlns="http://www.w3.org/2000/svg" xmlns:xlink="http://www.w3.org/1999/xlink" xml:space="preserve" onload="init(evt)">
<style type="text/css"><![CDATA[
.edge:hover path { stroke: red; }
.edge:hover polygon { stroke: red; fill: red; }
]]></style>
<script type="text/javascript"><![CDATA[
var edges = document.getElementsByTagName('g');
if (edges && edges.length) {
  for (var i=0;i<edges.length;i++) {
    if (edges[i].id.substr(0,4)=='edge') {
      edges[i].setAttribute('class','edge');
    }
  }
}
]]></script>
        <defs>
                <circle id="rim" cx="0" cy="0" r="7"/>
                <circle id="rim2" cx="0" cy="0" r="3.5"/>
                <g id="zoomPlus">
                        <use xlink:href="#rim" fill="#404040">
                                <set attributeName="fill" to="#808080" begin="zoomplus.mouseover" end="zoomplus.mouseout"/>
                        </use>
                        <path d="M-4,0h8M0,-4v8" fill="none" stroke="white" stroke-width="1.5" pointer-events="none"/>
                </g>
                <g id="zoomMin">
                        <use xlink:href="#rim" fill="#404040">
                                <set attributeName="fill" to="#808080" begin="zoomminus.mouseover" end="zoomminus.mouseout"/>
                        </use>
                        <path d="M-4,0h8" fill="none" stroke="white" stroke-width="1.5" pointer-events="none"/>
                </g>
                <g id="dirArrow">
                        <path fill="none" stroke="white" stroke-width="1.5" d="M0,-3.0v7 M-2.5,-0.5L0,-3.0L2.5,-0.5"/>
                </g>
               <g id="resetDef">
                       <use xlink:href="#rim2" fill="#404040">
                               <set attributeName="fill" to="#808080" begin="reset.mouseover" end="reset.mouseout"/>
                       </use>
               </g>
        </defs>

<script type="text/javascript">
var viewWidth = 777;
var viewHeight = 29;
var sectionId = 'dynsection-6';
</script>
<script xlink:href="svgpan.js"/>
<svg id="graph" class="graph">
<g id="viewport">
<title>panda::FatJet::init</title>
<polygon fill="white" stroke="none" points="-4,4 -4,-25 772.909,-25 772.909,4 -4,4"/>
<!-- Node1 -->
<g id="node1" class="node"><title>Node1</title>
<polygon fill="#bfbfbf" stroke="black" points="0,-0.5 0,-20.5 95.472,-20.5 95.472,-0.5 0,-0.5"/>
<text text-anchor="middle" x="47.736" y="-7.5" font-family="Helvetica,sans-Serif" font-size="10.00">panda::FatJet::init</text>
</g>
<!-- Node2 -->
<g id="node2" class="node"><title>Node2</title>
<g id="a_node2"><a xlink:href="classpanda_1_1Jet.html#a812a5a0a5a122791b2328c71e23a9d8b" target="_top" xlink:title="Reset object state. ">
<polygon fill="white" stroke="black" points="131.472,-0.5 131.472,-20.5 212.497,-20.5 212.497,-0.5 131.472,-0.5"/>
<text text-anchor="middle" x="171.984" y="-7.5" font-family="Helvetica,sans-Serif" font-size="10.00">panda::Jet::init</text>
</a>
</g>
</g>
<!-- Node1&#45;&gt;Node2 -->
<g id="edge1" class="edge"><title>Node1&#45;&gt;Node2</title>
<path fill="none" stroke="midnightblue" d="M95.6508,-10.5C103.98,-10.5 112.682,-10.5 121.091,-10.5"/>
<polygon fill="midnightblue" stroke="midnightblue" points="121.157,-14.0001 131.157,-10.5 121.157,-7.0001 121.157,-14.0001"/>
</g>
<!-- Node3 -->
<g id="node3" class="node"><title>Node3</title>
<g id="a_node3"><a xlink:href="classpanda_1_1MicroJet.html#acb01bef0c15e0175151fdd479cb1b5ba" target="_top" xlink:title="Reset object state. ">
<polygon fill="white" stroke="black" points="248.497,-0.5 248.497,-20.5 353.958,-20.5 353.958,-0.5 248.497,-0.5"/>
<text text-anchor="middle" x="301.227" y="-7.5" font-family="Helvetica,sans-Serif" font-size="10.00">panda::MicroJet::init</text>
</a>
</g>
</g>
<!-- Node2&#45;&gt;Node3 -->
<g id="edge2" class="edge"><title>Node2&#45;&gt;Node3</title>
<path fill="none" stroke="midnightblue" d="M212.547,-10.5C220.623,-10.5 229.304,-10.5 237.952,-10.5"/>
<polygon fill="midnightblue" stroke="midnightblue" points="238.051,-14.0001 248.051,-10.5 238.051,-7.0001 238.051,-14.0001"/>
</g>
<!-- Node4 -->
<g id="node4" class="node"><title>Node4</title>
<g id="a_node4"><a xlink:href="classpanda_1_1ParticleM.html#a92df7a2653432fa4d304039e1e62c41b" target="_top" xlink:title="Reset object state. ">
<polygon fill="white" stroke="black" points="389.958,-0.5 389.958,-20.5 499.307,-20.5 499.307,-0.5 389.958,-0.5"/>
<text text-anchor="middle" x="444.632" y="-7.5" font-family="Helvetica,sans-Serif" font-size="10.00">panda::ParticleM::init</text>
</a>
</g>
</g>
<!-- Node3&#45;&gt;Node4 -->
<g id="edge3" class="edge"><title>Node3&#45;&gt;Node4</title>
<path fill="none" stroke="midnightblue" d="M354.079,-10.5C362.463,-10.5 371.23,-10.5 379.857,-10.5"/>
<polygon fill="midnightblue" stroke="midnightblue" points="379.89,-14.0001 389.89,-10.5 379.89,-7.0001 379.89,-14.0001"/>
</g>
<!-- Node5 -->
<g id="node5" class="node"><title>Node5</title>
<g id="a_node5"><a xlink:href="classpanda_1_1Particle.html#a56ba0060e9e37322f98e2f30c3583dd3" target="_top" xlink:title="Reset object state. ">
<polygon fill="white" stroke="black" points="535.307,-0.5 535.307,-20.5 636.327,-20.5 636.327,-0.5 535.307,-0.5"/>
<text text-anchor="middle" x="585.817" y="-7.5" font-family="Helvetica,sans-Serif" font-size="10.00">panda::Particle::init</text>
</a>
</g>
</g>
<!-- Node4&#45;&gt;Node5 -->
<g id="edge4" class="edge"><title>Node4&#45;&gt;Node5</title>
<path fill="none" stroke="midnightblue" d="M499.445,-10.5C507.82,-10.5 516.517,-10.5 525.016,-10.5"/>
<polygon fill="midnightblue" stroke="midnightblue" points="525.248,-14.0001 535.248,-10.5 525.248,-7.0001 525.248,-14.0001"/>
</g>
<!-- Node6 -->
<g id="node6" class="node"><title>Node6</title>
<g id="a_node6"><a xlink:href="classpanda_1_1Object.html#a204960e5f165a28176f9b4a42b9ea90c" target="_top" xlink:title="Reset object state. ">
<polygon fill="white" stroke="black" points="672.327,-0.5 672.327,-20.5 768.909,-20.5 768.909,-0.5 672.327,-0.5"/>
<text text-anchor="middle" x="720.618" y="-7.5" font-family="Helvetica,sans-Serif" font-size="10.00">panda::Object::init</text>
</a>
</g>
</g>
<!-- Node5&#45;&gt;Node6 -->
<g id="edge5" class="edge"><title>Node5&#45;&gt;Node6</title>
<path fill="none" stroke="midnightblue" d="M636.645,-10.5C644.912,-10.5 653.546,-10.5 661.987,-10.5"/>
<polygon fill="midnightblue" stroke="midnightblue" points="662.15,-14.0001 672.15,-10.5 662.15,-7.0001 662.15,-14.0001"/>
</g>
</g>
</svg>
        <g id="navigator" transform="translate(0 0)" fill="#404254">
                <rect fill="#f2f5e9" fill-opacity="0.5" stroke="#606060" stroke-width=".5" x="0" y="0" width="60" height="60"/>
                <use id="zoomplus" xlink:href="#zoomPlus" x="17" y="9" onmousedown="handleZoom(evt,'in')"/>
                <use id="zoomminus" xlink:href="#zoomMin" x="42" y="9" onmousedown="handleZoom(evt,'out')"/>
                <use id="reset" xlink:href="#resetDef" x="30" y="36" onmousedown="handleReset()"/>
                <g id="arrowUp" xlink:href="#dirArrow" transform="translate(30 24)" onmousedown="handlePan(0,-1)">
                  <use xlink:href="#rim" fill="#404040">
                        <set attributeName="fill" to="#808080" begin="arrowUp.mouseover" end="arrowUp.mouseout"/>
                  </use>
                  <path fill="none" stroke="white" stroke-width="1.5" d="M0,-3.0v7 M-2.5,-0.5L0,-3.0L2.5,-0.5"/>
                </g>
                <g id="arrowRight" xlink:href="#dirArrow" transform="rotate(90) translate(36 -43)" onmousedown="handlePan(1,0)">
                  <use xlink:href="#rim" fill="#404040">
                        <set attributeName="fill" to="#808080" begin="arrowRight.mouseover" end="arrowRight.mouseout"/>
                  </use>
                  <path fill="none" stroke="white" stroke-width="1.5" d="M0,-3.0v7 M-2.5,-0.5L0,-3.0L2.5,-0.5"/>
                </g>
                <g id="arrowDown" xlink:href="#dirArrow" transform="rotate(180) translate(-30 -48)" onmousedown="handlePan(0,1)">
                  <use xlink:href="#rim" fill="#404040">
                        <set attributeName="fill" to="#808080" begin="arrowDown.mouseover" end="arrowDown.mouseout"/>
                  </use>
                  <path fill="none" stroke="white" stroke-width="1.5" d="M0,-3.0v7 M-2.5,-0.5L0,-3.0L2.5,-0.5"/>
                </g>
                <g id="arrowLeft" xlink:href="#dirArrow" transform="rotate(270) translate(-36 17)" onmousedown="handlePan(-1,0)">
                  <use xlink:href="#rim" fill="#404040">
                        <set attributeName="fill" to="#808080" begin="arrowLeft.mouseover" end="arrowLeft.mouseout"/>
                  </use>
                  <path fill="none" stroke="white" stroke-width="1.5" d="M0,-3.0v7 M-2.5,-0.5L0,-3.0L2.5,-0.5"/>
                </g>
        </g>
        <svg viewBox="0 0 15 15" width="100%" height="30px" preserveAspectRatio="xMaxYMin meet">
         <g id="arrow_out" transform="scale(0.3 0.3)">
          <a xlink:href="classpanda_1_1FatJet_aa1a87839e3131c1629bbcf2e1a3b4cbc_cgraph_org.svg" target="_base">
           <rect id="button" ry="5" rx="5" y="6" x="6" height="38" width="38"
                fill="#f2f5e9" fill-opacity="0.5" stroke="#606060" stroke-width="1.0"/>
           <path id="arrow"
             d="M 11.500037,31.436501 C 11.940474,20.09759 22.043105,11.32322 32.158766,21.979434 L 37.068811,17.246167 C 37.068811,17.246167 37.088388,32 37.088388,32 L 22.160133,31.978069 C 22.160133,31.978069 26.997745,27.140456 26.997745,27.140456 C 18.528582,18.264221 13.291696,25.230495 11.500037,31.436501 z"
             style="fill:#404040;"/>
          </a>
         </g>
        </svg>
</svg>
