<?xml version="1.0" encoding="UTF-8" standalone="no"?>
<!DOCTYPE svg PUBLIC "-//W3C//DTD SVG 1.1//EN"
 "http://www.w3.org/Graphics/SVG/1.1/DTD/svg11.dtd">
<!-- Generated by graphviz version 2.38.0 (20140413.2041)
 -->
<!-- Title: panda::CollectionBase::clear Pages: 1 -->
<svg width="295pt" height="92pt"
 viewBox="0.00 0.00 294.95 92.00" xmlns="http://www.w3.org/2000/svg" xmlns:xlink="http://www.w3.org/1999/xlink">
<g id="graph0" class="graph" transform="scale(1 1) rotate(0) translate(4 88)">
<title>panda::CollectionBase::clear</title>
<polygon fill="white" stroke="none" points="-4,4 -4,-88 290.949,-88 290.949,4 -4,4"/>
<!-- Node1 -->
<g id="node1" class="node"><title>Node1</title>
<polygon fill="#bfbfbf" stroke="black" points="-1.42109e-14,-25.5 -1.42109e-14,-57.5 116.031,-57.5 116.031,-25.5 -1.42109e-14,-25.5"/>
<text text-anchor="start" x="8" y="-44.5" font-family="Helvetica,sans-Serif" font-size="10.00">panda::CollectionBase</text>
<text text-anchor="middle" x="58.0155" y="-32.5" font-family="Helvetica,sans-Serif" font-size="10.00">::clear</text>
</g>
<!-- Node2 -->
<g id="node2" class="node"><title>Node2</title>
<g id="a_node2"><a xlink:href="classpanda_1_1ContainerBase.html#a14b14c940d7c8b0ce870c7df333e18a7" target="_top" xlink:title="panda::ContainerBase\l::getData">
<polygon fill="white" stroke="black" points="161.749,-51.5 161.749,-83.5 277.23,-83.5 277.23,-51.5 161.749,-51.5"/>
<text text-anchor="start" x="169.749" y="-70.5" font-family="Helvetica,sans-Serif" font-size="10.00">panda::ContainerBase</text>
<text text-anchor="middle" x="219.49" y="-58.5" font-family="Helvetica,sans-Serif" font-size="10.00">::getData</text>
</a>
</g>
</g>
<!-- Node1&#45;&gt;Node2 -->
<g id="edge1" class="edge"><title>Node1&#45;&gt;Node2</title>
<path fill="none" stroke="midnightblue" d="M116.139,-50.8132C127.545,-52.6727 139.623,-54.6419 151.331,-56.5507"/>
<polygon fill="midnightblue" stroke="midnightblue" points="151.065,-60.0534 161.497,-58.2082 152.191,-53.1446 151.065,-60.0534"/>
</g>
<!-- Node3 -->
<g id="node3" class="node"><title>Node3</title>
<g id="a_node3"><a xlink:href="structpanda_1_1ContainerElement_1_1datastore.html#ac050bf7055f0c53b4aff4234e2de6e20" target="_top" xlink:title="Override when there are vector members. ">
<polygon fill="white" stroke="black" points="152.031,-0.5 152.031,-32.5 286.949,-32.5 286.949,-0.5 152.031,-0.5"/>
<text text-anchor="start" x="160.031" y="-19.5" font-family="Helvetica,sans-Serif" font-size="10.00">panda::ContainerElement</text>
<text text-anchor="middle" x="219.49" y="-7.5" font-family="Helvetica,sans-Serif" font-size="10.00">::datastore::resizeVectors_</text>
</a>
</g>
</g>
<!-- Node1&#45;&gt;Node3 -->
<g id="edge2" class="edge"><title>Node1&#45;&gt;Node3</title>
<path fill="none" stroke="midnightblue" d="M116.139,-32.545C124.49,-31.2359 133.202,-29.8702 141.864,-28.5122"/>
<polygon fill="midnightblue" stroke="midnightblue" points="142.649,-31.932 151.986,-26.9255 141.565,-25.0165 142.649,-31.932"/>
</g>
</g>
</svg>
