<?xml version="1.0" encoding="UTF-8" standalone="no"?>
<!DOCTYPE svg PUBLIC "-//W3C//DTD SVG 1.1//EN"
 "http://www.w3.org/Graphics/SVG/1.1/DTD/svg11.dtd">
<!-- Generated by graphviz version 2.38.0 (20140413.2041)
 -->
<!-- Title: panda::ContainerElement::destructor Pages: 1 -->
<svg width="968pt" height="314pt"
 viewBox="0.00 0.00 968.07 314.00" xmlns="http://www.w3.org/2000/svg" xmlns:xlink="http://www.w3.org/1999/xlink">
<g id="graph0" class="graph" transform="scale(1 1) rotate(0) translate(4 310)">
<title>panda::ContainerElement::destructor</title>
<polygon fill="white" stroke="none" points="-4,4 -4,-310 964.074,-310 964.074,4 -4,4"/>
<!-- Node1 -->
<g id="node1" class="node"><title>Node1</title>
<polygon fill="#bfbfbf" stroke="black" points="-1.42109e-14,-88.5 -1.42109e-14,-120.5 129.367,-120.5 129.367,-88.5 -1.42109e-14,-88.5"/>
<text text-anchor="start" x="8" y="-107.5" font-family="Helvetica,sans-Serif" font-size="10.00">panda::ContainerElement</text>
<text text-anchor="middle" x="64.6835" y="-95.5" font-family="Helvetica,sans-Serif" font-size="10.00">::destructor</text>
</g>
<!-- Node2 -->
<g id="node2" class="node"><title>Node2</title>
<g id="a_node2"><a xlink:href="classpanda_1_1Particle.html#ad1a5f606b804ac2ec5d7e391aba6bda6" target="_top" xlink:title="Destructor implementation. ">
<polygon fill="white" stroke="black" points="165.367,-117.5 165.367,-137.5 298.063,-137.5 298.063,-117.5 165.367,-117.5"/>
<text text-anchor="middle" x="231.715" y="-124.5" font-family="Helvetica,sans-Serif" font-size="10.00">panda::Particle::destructor</text>
</a>
</g>
</g>
<!-- Node1&#45;&gt;Node2 -->
<g id="edge1" class="edge"><title>Node1&#45;&gt;Node2</title>
<path fill="none" stroke="midnightblue" d="M139.465,-114.783C148.031,-115.977 156.725,-117.188 165.171,-118.365"/>
<polygon fill="midnightblue" stroke="midnightblue" points="139.876,-111.306 129.489,-113.392 138.91,-118.239 139.876,-111.306"/>
</g>
<!-- Node16 -->
<g id="node16" class="node"><title>Node16</title>
<g id="a_node16"><a xlink:href="classpanda_1_1SuperCluster.html#aaa4fb78fe99ff655b1a25f0e1081f2ac" target="_top" xlink:title="Destructor implementation. ">
<polygon fill="white" stroke="black" points="177.869,-66.5 177.869,-98.5 285.561,-98.5 285.561,-66.5 177.869,-66.5"/>
<text text-anchor="start" x="185.869" y="-85.5" font-family="Helvetica,sans-Serif" font-size="10.00">panda::SuperCluster</text>
<text text-anchor="middle" x="231.715" y="-73.5" font-family="Helvetica,sans-Serif" font-size="10.00">::destructor</text>
</a>
</g>
</g>
<!-- Node1&#45;&gt;Node16 -->
<g id="edge15" class="edge"><title>Node1&#45;&gt;Node16</title>
<path fill="none" stroke="midnightblue" d="M139.699,-94.6332C152.533,-92.9222 165.645,-91.1743 177.774,-89.5574"/>
<polygon fill="midnightblue" stroke="midnightblue" points="138.939,-91.2034 129.489,-95.9942 139.864,-98.1421 138.939,-91.2034"/>
</g>
<!-- Node3 -->
<g id="node3" class="node"><title>Node3</title>
<g id="a_node3"><a xlink:href="classpanda_1_1Lepton.html#af8bb4d531bdddbf51f479f7eb0dae175" target="_top" xlink:title="Destructor implementation. ">
<polygon fill="white" stroke="black" points="339.607,-246.5 339.607,-266.5 469.544,-266.5 469.544,-246.5 339.607,-246.5"/>
<text text-anchor="middle" x="404.575" y="-253.5" font-family="Helvetica,sans-Serif" font-size="10.00">panda::Lepton::destructor</text>
</a>
</g>
</g>
<!-- Node2&#45;&gt;Node3 -->
<g id="edge2" class="edge"><title>Node2&#45;&gt;Node3</title>
<path fill="none" stroke="midnightblue" d="M254.447,-143.908C290.312,-170.986 360.844,-224.238 390.231,-246.425"/>
<polygon fill="midnightblue" stroke="midnightblue" points="256.212,-140.855 246.122,-137.622 251.994,-146.441 256.212,-140.855"/>
</g>
<!-- Node6 -->
<g id="node6" class="node"><title>Node6</title>
<g id="a_node6"><a xlink:href="classpanda_1_1ParticleM.html#abef15d28e6e33ee92c0b318bd41af2ca" target="_top" xlink:title="Destructor implementation. ">
<polygon fill="white" stroke="black" points="334.063,-117.5 334.063,-137.5 475.088,-137.5 475.088,-117.5 334.063,-117.5"/>
<text text-anchor="middle" x="404.575" y="-124.5" font-family="Helvetica,sans-Serif" font-size="10.00">panda::ParticleM::destructor</text>
</a>
</g>
</g>
<!-- Node2&#45;&gt;Node6 -->
<g id="edge5" class="edge"><title>Node2&#45;&gt;Node6</title>
<path fill="none" stroke="midnightblue" d="M308.514,-127.5C316.969,-127.5 325.552,-127.5 333.926,-127.5"/>
<polygon fill="midnightblue" stroke="midnightblue" points="308.286,-124 298.285,-127.5 308.285,-131 308.286,-124"/>
</g>
<!-- Node15 -->
<g id="node15" class="node"><title>Node15</title>
<g id="a_node15"><a xlink:href="classpanda_1_1Photon.html#a03611f9014bd137d9aa651ac938575c7" target="_top" xlink:title="Destructor implementation. ">
<polygon fill="white" stroke="black" points="339.052,-78.5 339.052,-98.5 470.099,-98.5 470.099,-78.5 339.052,-78.5"/>
<text text-anchor="middle" x="404.575" y="-85.5" font-family="Helvetica,sans-Serif" font-size="10.00">panda::Photon::destructor</text>
</a>
</g>
</g>
<!-- Node2&#45;&gt;Node15 -->
<g id="edge14" class="edge"><title>Node2&#45;&gt;Node15</title>
<path fill="none" stroke="midnightblue" d="M286.561,-115.209C310.127,-109.83 337.425,-103.599 359.724,-98.5094"/>
<polygon fill="midnightblue" stroke="midnightblue" points="285.686,-111.819 276.716,-117.457 287.244,-118.643 285.686,-111.819"/>
</g>
<!-- Node4 -->
<g id="node4" class="node"><title>Node4</title>
<g id="a_node4"><a xlink:href="classpanda_1_1Electron.html#a9e9a34d904d5cc02ab895e73cdaf6d7f" target="_top" xlink:title="Destructor implementation. ">
<polygon fill="white" stroke="black" points="511.638,-285.5 511.638,-305.5 647.674,-305.5 647.674,-285.5 511.638,-285.5"/>
<text text-anchor="middle" x="579.656" y="-292.5" font-family="Helvetica,sans-Serif" font-size="10.00">panda::Electron::destructor</text>
</a>
</g>
</g>
<!-- Node3&#45;&gt;Node4 -->
<g id="edge3" class="edge"><title>Node3&#45;&gt;Node4</title>
<path fill="none" stroke="midnightblue" d="M460.122,-268.791C483.994,-274.17 511.646,-280.401 534.235,-285.491"/>
<polygon fill="midnightblue" stroke="midnightblue" points="460.673,-265.327 450.148,-266.543 459.134,-272.156 460.673,-265.327"/>
</g>
<!-- Node5 -->
<g id="node5" class="node"><title>Node5</title>
<g id="a_node5"><a xlink:href="classpanda_1_1Muon.html#aa982002bedb53cacab127270c53e54e8" target="_top" xlink:title="Destructor implementation. ">
<polygon fill="white" stroke="black" points="517.472,-246.5 517.472,-266.5 641.841,-266.5 641.841,-246.5 517.472,-246.5"/>
<text text-anchor="middle" x="579.656" y="-253.5" font-family="Helvetica,sans-Serif" font-size="10.00">panda::Muon::destructor</text>
</a>
</g>
</g>
<!-- Node3&#45;&gt;Node5 -->
<g id="edge4" class="edge"><title>Node3&#45;&gt;Node5</title>
<path fill="none" stroke="midnightblue" d="M480.302,-256.5C492.655,-256.5 505.336,-256.5 517.311,-256.5"/>
<polygon fill="midnightblue" stroke="midnightblue" points="480.025,-253 470.024,-256.5 480.024,-260 480.025,-253"/>
</g>
<!-- Node7 -->
<g id="node7" class="node"><title>Node7</title>
<g id="a_node7"><a xlink:href="classpanda_1_1GenJet.html#a4a10379464d97681df56ba78c59d9ec9" target="_top" xlink:title="Destructor implementation. ">
<polygon fill="white" stroke="black" points="513.857,-207.5 513.857,-227.5 645.455,-227.5 645.455,-207.5 513.857,-207.5"/>
<text text-anchor="middle" x="579.656" y="-214.5" font-family="Helvetica,sans-Serif" font-size="10.00">panda::GenJet::destructor</text>
</a>
</g>
</g>
<!-- Node6&#45;&gt;Node7 -->
<g id="edge6" class="edge"><title>Node6&#45;&gt;Node7</title>
<path fill="none" stroke="midnightblue" d="M425.721,-143.933C446.136,-159.868 479.175,-183.74 511.088,-198.5 518.609,-201.978 526.901,-204.95 535.025,-207.437"/>
<polygon fill="midnightblue" stroke="midnightblue" points="427.795,-141.111 417.785,-137.639 423.445,-146.595 427.795,-141.111"/>
</g>
<!-- Node8 -->
<g id="node8" class="node"><title>Node8</title>
<g id="a_node8"><a xlink:href="classpanda_1_1GenParticle.html#a3741159cb9918fc4a7bf714995d72469" target="_top" xlink:title="Destructor implementation. ">
<polygon fill="white" stroke="black" points="528.865,-156.5 528.865,-188.5 630.448,-188.5 630.448,-156.5 528.865,-156.5"/>
<text text-anchor="start" x="536.865" y="-175.5" font-family="Helvetica,sans-Serif" font-size="10.00">panda::GenParticle</text>
<text text-anchor="middle" x="579.656" y="-163.5" font-family="Helvetica,sans-Serif" font-size="10.00">::destructor</text>
</a>
</g>
</g>
<!-- Node6&#45;&gt;Node8 -->
<g id="edge7" class="edge"><title>Node6&#45;&gt;Node8</title>
<path fill="none" stroke="midnightblue" d="M454.408,-140.196C477.641,-146.237 505.382,-153.449 528.752,-159.525"/>
<polygon fill="midnightblue" stroke="midnightblue" points="454.977,-136.728 444.418,-137.599 453.216,-143.503 454.977,-136.728"/>
</g>
<!-- Node9 -->
<g id="node9" class="node"><title>Node9</title>
<g id="a_node9"><a xlink:href="classpanda_1_1MicroJet.html#a89f2dbacfc1c34c4f34185ea305f8797" target="_top" xlink:title="Destructor implementation. ">
<polygon fill="white" stroke="black" points="511.088,-117.5 511.088,-137.5 648.225,-137.5 648.225,-117.5 511.088,-117.5"/>
<text text-anchor="middle" x="579.656" y="-124.5" font-family="Helvetica,sans-Serif" font-size="10.00">panda::MicroJet::destructor</text>
</a>
</g>
</g>
<!-- Node6&#45;&gt;Node9 -->
<g id="edge8" class="edge"><title>Node6&#45;&gt;Node9</title>
<path fill="none" stroke="midnightblue" d="M485.73,-127.5C494.188,-127.5 502.727,-127.5 511.023,-127.5"/>
<polygon fill="midnightblue" stroke="midnightblue" points="485.475,-124 475.475,-127.5 485.475,-131 485.475,-124"/>
</g>
<!-- Node12 -->
<g id="node12" class="node"><title>Node12</title>
<g id="a_node12"><a xlink:href="classpanda_1_1Parton.html#a54783d8795081067290078d39305e21c" target="_top" xlink:title="Destructor implementation. ">
<polygon fill="white" stroke="black" points="515.248,-78.5 515.248,-98.5 644.065,-98.5 644.065,-78.5 515.248,-78.5"/>
<text text-anchor="middle" x="579.656" y="-85.5" font-family="Helvetica,sans-Serif" font-size="10.00">panda::Parton::destructor</text>
</a>
</g>
</g>
<!-- Node6&#45;&gt;Node12 -->
<g id="edge11" class="edge"><title>Node6&#45;&gt;Node12</title>
<path fill="none" stroke="midnightblue" d="M460.122,-115.209C483.994,-109.83 511.646,-103.599 534.235,-98.5094"/>
<polygon fill="midnightblue" stroke="midnightblue" points="459.134,-111.844 450.148,-117.457 460.673,-118.673 459.134,-111.844"/>
</g>
<!-- Node13 -->
<g id="node13" class="node"><title>Node13</title>
<g id="a_node13"><a xlink:href="classpanda_1_1PFCand.html#a30a87718470988f020ce75d7e990868b" target="_top" xlink:title="Destructor implementation. ">
<polygon fill="white" stroke="black" points="511.638,-39.5 511.638,-59.5 647.675,-59.5 647.675,-39.5 511.638,-39.5"/>
<text text-anchor="middle" x="579.656" y="-46.5" font-family="Helvetica,sans-Serif" font-size="10.00">panda::PFCand::destructor</text>
</a>
</g>
</g>
<!-- Node6&#45;&gt;Node13 -->
<g id="edge12" class="edge"><title>Node6&#45;&gt;Node13</title>
<path fill="none" stroke="midnightblue" d="M465.037,-113.74C468.527,-112.173 471.907,-110.433 475.088,-108.5 495.246,-96.2489 491.059,-81.9617 511.088,-69.5 517.632,-65.4284 525.047,-62.1495 532.508,-59.5198"/>
<polygon fill="midnightblue" stroke="midnightblue" points="463.6,-110.544 455.602,-117.492 466.187,-117.049 463.6,-110.544"/>
</g>
<!-- Node14 -->
<g id="node14" class="node"><title>Node14</title>
<g id="a_node14"><a xlink:href="classpanda_1_1Tau.html#a7caf1a64e1c468e27a6a88c34ab97457" target="_top" xlink:title="Destructor implementation. ">
<polygon fill="white" stroke="black" points="521.361,-0.5 521.361,-20.5 637.951,-20.5 637.951,-0.5 521.361,-0.5"/>
<text text-anchor="middle" x="579.656" y="-7.5" font-family="Helvetica,sans-Serif" font-size="10.00">panda::Tau::destructor</text>
</a>
</g>
</g>
<!-- Node6&#45;&gt;Node14 -->
<g id="edge13" class="edge"><title>Node6&#45;&gt;Node14</title>
<path fill="none" stroke="midnightblue" d="M469.56,-112.6C471.492,-111.342 473.343,-109.978 475.088,-108.5 504.226,-83.8273 482.21,-55.4767 511.088,-30.5 515.807,-26.4185 521.327,-23.1695 527.143,-20.5832"/>
<polygon fill="midnightblue" stroke="midnightblue" points="467.742,-109.605 460.643,-117.469 471.097,-115.748 467.742,-109.605"/>
</g>
<!-- Node10 -->
<g id="node10" class="node"><title>Node10</title>
<g id="a_node10"><a xlink:href="classpanda_1_1Jet.html#adbd430a93e346588348e1eebaa90c42a" target="_top" xlink:title="Destructor implementation. ">
<polygon fill="white" stroke="black" points="684.225,-117.5 684.225,-137.5 796.926,-137.5 796.926,-117.5 684.225,-117.5"/>
<text text-anchor="middle" x="740.575" y="-124.5" font-family="Helvetica,sans-Serif" font-size="10.00">panda::Jet::destructor</text>
</a>
</g>
</g>
<!-- Node9&#45;&gt;Node10 -->
<g id="edge9" class="edge"><title>Node9&#45;&gt;Node10</title>
<path fill="none" stroke="midnightblue" d="M658.538,-127.5C667.107,-127.5 675.701,-127.5 683.92,-127.5"/>
<polygon fill="midnightblue" stroke="midnightblue" points="658.513,-124 648.513,-127.5 658.513,-131 658.513,-124"/>
</g>
<!-- Node11 -->
<g id="node11" class="node"><title>Node11</title>
<g id="a_node11"><a xlink:href="classpanda_1_1FatJet.html#a421049d4b4315facb5bda39746f1a38b" target="_top" xlink:title="Destructor implementation. ">
<polygon fill="white" stroke="black" points="832.926,-117.5 832.926,-137.5 960.074,-137.5 960.074,-117.5 832.926,-117.5"/>
<text text-anchor="middle" x="896.5" y="-124.5" font-family="Helvetica,sans-Serif" font-size="10.00">panda::FatJet::destructor</text>
</a>
</g>
</g>
<!-- Node10&#45;&gt;Node11 -->
<g id="edge10" class="edge"><title>Node10&#45;&gt;Node11</title>
<path fill="none" stroke="midnightblue" d="M807.299,-127.5C815.721,-127.5 824.325,-127.5 832.699,-127.5"/>
<polygon fill="midnightblue" stroke="midnightblue" points="807.146,-124 797.146,-127.5 807.146,-131 807.146,-124"/>
</g>
</g>
</svg>
