<?xml version="1.0" encoding="UTF-8" standalone="no"?>
<!DOCTYPE svg PUBLIC "-//W3C//DTD SVG 1.1//EN"
 "http://www.w3.org/Graphics/SVG/1.1/DTD/svg11.dtd">
<!-- Generated by graphviz version 2.38.0 (20140413.2041)
 -->
<!-- Title: panda::MetFilters::setStatus Pages: 1 -->
<svg width="449pt" height="170pt"
 viewBox="0.00 0.00 448.64 170.00" xmlns="http://www.w3.org/2000/svg" xmlns:xlink="http://www.w3.org/1999/xlink">
<g id="graph0" class="graph" transform="scale(1 1) rotate(0) translate(4 166)">
<title>panda::MetFilters::setStatus</title>
<polygon fill="white" stroke="none" points="-4,4 -4,-166 444.645,-166 444.645,4 -4,4"/>
<!-- Node1 -->
<g id="node1" class="node"><title>Node1</title>
<polygon fill="#bfbfbf" stroke="black" points="1.42109e-14,-83.5 1.42109e-14,-115.5 98.792,-115.5 98.792,-83.5 1.42109e-14,-83.5"/>
<text text-anchor="start" x="8" y="-102.5" font-family="Helvetica,sans-Serif" font-size="10.00">panda::MetFilters::</text>
<text text-anchor="middle" x="49.396" y="-90.5" font-family="Helvetica,sans-Serif" font-size="10.00">setStatus</text>
</g>
<!-- Node2 -->
<g id="node2" class="node"><title>Node2</title>
<g id="a_node2"><a xlink:href="classpanda_1_1Object.html#a282e820b1ad431db22ca4d4dd20b55e0" target="_top" xlink:title="Set status of branches with names that correspond to the variables of this object. ">
<polygon fill="white" stroke="black" points="134.792,-109.5 134.792,-129.5 260.281,-129.5 260.281,-109.5 134.792,-109.5"/>
<text text-anchor="middle" x="197.536" y="-116.5" font-family="Helvetica,sans-Serif" font-size="10.00">panda::Object::setStatus</text>
</a>
</g>
</g>
<!-- Node1&#45;&gt;Node2 -->
<g id="edge1" class="edge"><title>Node1&#45;&gt;Node2</title>
<path fill="none" stroke="midnightblue" d="M99.0587,-106.16C107.235,-107.279 115.871,-108.461 124.489,-109.64"/>
<polygon fill="midnightblue" stroke="midnightblue" points="124.186,-113.131 134.568,-111.019 125.135,-106.196 124.186,-113.131"/>
</g>
<!-- Node3 -->
<g id="node3" class="node"><title>Node3</title>
<g id="a_node3"><a xlink:href="namespacepanda_1_1utils.html#a01665f786d6a2acedb8f008f3fc9fc84" target="_top" xlink:title="Set status of a branch. ">
<polygon fill="white" stroke="black" points="140.351,-70.5 140.351,-90.5 254.721,-90.5 254.721,-70.5 140.351,-70.5"/>
<text text-anchor="middle" x="197.536" y="-77.5" font-family="Helvetica,sans-Serif" font-size="10.00">panda::utils::setStatus</text>
</a>
</g>
</g>
<!-- Node1&#45;&gt;Node3 -->
<g id="edge2" class="edge"><title>Node1&#45;&gt;Node3</title>
<path fill="none" stroke="midnightblue" d="M99.0587,-93.1733C109.063,-91.8725 119.758,-90.4821 130.263,-89.1163"/>
<polygon fill="midnightblue" stroke="midnightblue" points="130.783,-92.5782 140.249,-87.8181 129.881,-85.6366 130.783,-92.5782"/>
</g>
<!-- Node4 -->
<g id="node4" class="node"><title>Node4</title>
<g id="a_node4"><a xlink:href="classpanda_1_1utils_1_1BranchName.html#a6cc8a6df7c5b12a0221fd49773cca6a7" target="_top" xlink:title="Is the name included and not vetoed? ">
<polygon fill="white" stroke="black" points="296.281,-141.5 296.281,-161.5 440.645,-161.5 440.645,-141.5 296.281,-141.5"/>
<text text-anchor="middle" x="368.463" y="-148.5" font-family="Helvetica,sans-Serif" font-size="10.00">panda::utils::BranchName::in</text>
</a>
</g>
</g>
<!-- Node3&#45;&gt;Node4 -->
<g id="edge3" class="edge"><title>Node3&#45;&gt;Node4</title>
<path fill="none" stroke="midnightblue" d="M237.79,-90.5109C245.497,-93.2168 253.338,-96.5252 260.281,-100.5 278.859,-111.136 277.43,-122.355 296.281,-132.5 300.019,-134.512 303.984,-136.321 308.054,-137.947"/>
<polygon fill="midnightblue" stroke="midnightblue" points="307.092,-141.32 317.686,-141.416 309.464,-134.735 307.092,-141.32"/>
</g>
<!-- Node5 -->
<g id="node5" class="node"><title>Node5</title>
<g id="a_node5"><a xlink:href="classpanda_1_1utils_1_1BranchName.html#ae3332329bf2afae5ed8e7c35e5d77ffa" target="_top" xlink:title="Is the name included and vetoed? ">
<polygon fill="white" stroke="black" points="302.949,-90.5 302.949,-122.5 433.977,-122.5 433.977,-90.5 302.949,-90.5"/>
<text text-anchor="start" x="310.949" y="-109.5" font-family="Helvetica,sans-Serif" font-size="10.00">panda::utils::BranchName</text>
<text text-anchor="middle" x="368.463" y="-97.5" font-family="Helvetica,sans-Serif" font-size="10.00">::vetoed</text>
</a>
</g>
</g>
<!-- Node3&#45;&gt;Node5 -->
<g id="edge4" class="edge"><title>Node3&#45;&gt;Node5</title>
<path fill="none" stroke="midnightblue" d="M254.787,-89.1576C266.904,-91.0226 279.896,-93.0223 292.596,-94.9769"/>
<polygon fill="midnightblue" stroke="midnightblue" points="292.279,-98.4693 302.695,-96.5314 293.344,-91.5508 292.279,-98.4693"/>
</g>
<!-- Node6 -->
<g id="node6" class="node"><title>Node6</title>
<g id="a_node6"><a xlink:href="classpanda_1_1utils_1_1BranchName.html#a13958ff4a9d554d2c057c600b4f70412" target="_top" xlink:title="Prepend the branch name with &lt;objName.&gt;. ">
<polygon fill="white" stroke="black" points="302.949,-39.5 302.949,-71.5 433.977,-71.5 433.977,-39.5 302.949,-39.5"/>
<text text-anchor="start" x="310.949" y="-58.5" font-family="Helvetica,sans-Serif" font-size="10.00">panda::utils::BranchName</text>
<text text-anchor="middle" x="368.463" y="-46.5" font-family="Helvetica,sans-Serif" font-size="10.00">::fullName</text>
</a>
</g>
</g>
<!-- Node3&#45;&gt;Node6 -->
<g id="edge5" class="edge"><title>Node3&#45;&gt;Node6</title>
<path fill="none" stroke="midnightblue" d="M254.787,-72.1754C266.904,-70.3821 279.896,-68.4593 292.596,-66.5799"/>
<polygon fill="midnightblue" stroke="midnightblue" points="293.315,-70.0116 302.695,-65.0852 292.29,-63.087 293.315,-70.0116"/>
</g>
<!-- Node7 -->
<g id="node7" class="node"><title>Node7</title>
<g id="a_node7"><a xlink:href="namespacepanda_1_1utils.html#aafa411773a4b0ee829d99e6e5a0abdcd" target="_top" xlink:title="Check status of a branch. ">
<polygon fill="white" stroke="black" points="304.888,-0.5 304.888,-20.5 432.038,-20.5 432.038,-0.5 304.888,-0.5"/>
<text text-anchor="middle" x="368.463" y="-7.5" font-family="Helvetica,sans-Serif" font-size="10.00">panda::utils::checkStatus</text>
</a>
</g>
</g>
<!-- Node3&#45;&gt;Node7 -->
<g id="edge6" class="edge"><title>Node3&#45;&gt;Node7</title>
<path fill="none" stroke="midnightblue" d="M215.708,-70.3866C234.857,-59.4267 266.997,-41.9718 296.281,-30.5 302.705,-27.9833 309.57,-25.6418 316.407,-23.5128"/>
<polygon fill="midnightblue" stroke="midnightblue" points="317.765,-26.7602 326.349,-20.55 315.766,-20.0517 317.765,-26.7602"/>
</g>
</g>
</svg>
