<?xml version="1.0" encoding="UTF-8" standalone="no"?>
<!DOCTYPE svg PUBLIC "-//W3C//DTD SVG 1.1//EN"
 "http://www.w3.org/Graphics/SVG/1.1/DTD/svg11.dtd">
<!-- Generated by graphviz version 2.38.0 (20140413.2041)
 -->
<!-- Title: panda::Container::Container Pages: 1 -->
<svg width="493pt" height="164pt"
 viewBox="0.00 0.00 493.12 164.00" xmlns="http://www.w3.org/2000/svg" xmlns:xlink="http://www.w3.org/1999/xlink">
<g id="graph0" class="graph" transform="scale(1 1) rotate(0) translate(4 160)">
<title>panda::Container::Container</title>
<polygon fill="white" stroke="none" points="-4,4 -4,-160 489.122,-160 489.122,4 -4,4"/>
<!-- Node1 -->
<g id="node1" class="node"><title>Node1</title>
<polygon fill="#bfbfbf" stroke="black" points="0,-76.5 0,-96.5 141.593,-96.5 141.593,-76.5 0,-76.5"/>
<text text-anchor="middle" x="70.7965" y="-83.5" font-family="Helvetica,sans-Serif" font-size="10.00">panda::Container::Container</text>
</g>
<!-- Node2 -->
<g id="node2" class="node"><title>Node2</title>
<g id="a_node2"><a xlink:href="classpanda_1_1Container.html#ae5a51ee9f641dc82a8c130f5949af194" target="_top" xlink:title="panda::Container::allocate_">
<polygon fill="white" stroke="black" points="177.593,-135.5 177.593,-155.5 315.857,-155.5 315.857,-135.5 177.593,-135.5"/>
<text text-anchor="middle" x="246.725" y="-142.5" font-family="Helvetica,sans-Serif" font-size="10.00">panda::Container::allocate_</text>
</a>
</g>
</g>
<!-- Node1&#45;&gt;Node2 -->
<g id="edge1" class="edge"><title>Node1&#45;&gt;Node2</title>
<path fill="none" stroke="midnightblue" d="M101.301,-96.5085C130.286,-106.341 174.685,-121.402 206.602,-132.229"/>
<polygon fill="midnightblue" stroke="midnightblue" points="205.481,-135.544 216.076,-135.442 207.73,-128.915 205.481,-135.544"/>
</g>
<!-- Node3 -->
<g id="node3" class="node"><title>Node3</title>
<g id="a_node3"><a xlink:href="classpanda_1_1Container.html#ae8c189c8e337af593b268455a2dda89f" target="_top" xlink:title="panda::Container::getData">
<polygon fill="white" stroke="black" points="351.857,-102.5 351.857,-122.5 485.122,-122.5 485.122,-102.5 351.857,-102.5"/>
<text text-anchor="middle" x="418.489" y="-109.5" font-family="Helvetica,sans-Serif" font-size="10.00">panda::Container::getData</text>
</a>
</g>
</g>
<!-- Node1&#45;&gt;Node3 -->
<g id="edge2" class="edge"><title>Node1&#45;&gt;Node3</title>
<path fill="none" stroke="midnightblue" d="M141.753,-91.7615C199.754,-96.1239 282.06,-102.314 341.634,-106.795"/>
<polygon fill="midnightblue" stroke="midnightblue" points="341.502,-110.295 351.736,-107.555 342.027,-103.314 341.502,-110.295"/>
</g>
<!-- Node4 -->
<g id="node4" class="node"><title>Node4</title>
<g id="a_node4"><a xlink:href="structpanda_1_1ContainerElement_1_1datastore.html#aff3ea42523fa1d980435a5085c8f1289" target="_top" xlink:title="panda::ContainerElement\l::datastore::nmax">
<polygon fill="white" stroke="black" points="353.806,-0.5 353.806,-32.5 483.173,-32.5 483.173,-0.5 353.806,-0.5"/>
<text text-anchor="start" x="361.806" y="-19.5" font-family="Helvetica,sans-Serif" font-size="10.00">panda::ContainerElement</text>
<text text-anchor="middle" x="418.489" y="-7.5" font-family="Helvetica,sans-Serif" font-size="10.00">::datastore::nmax</text>
</a>
</g>
</g>
<!-- Node1&#45;&gt;Node4 -->
<g id="edge3" class="edge"><title>Node1&#45;&gt;Node4</title>
<path fill="none" stroke="midnightblue" d="M94.4458,-76.458C115.558,-67.5078 148.126,-54.7373 177.593,-47.5 232.421,-34.0338 295.821,-26.1619 343.671,-21.7223"/>
<polygon fill="midnightblue" stroke="midnightblue" points="343.99,-25.2078 353.637,-20.8263 343.363,-18.236 343.99,-25.2078"/>
</g>
<!-- Node5 -->
<g id="node5" class="node"><title>Node5</title>
<g id="a_node5"><a xlink:href="classpanda_1_1Container.html#a47bf4140207c40fa731f44766dde536c" target="_top" xlink:title="Copy the array contents. ">
<polygon fill="white" stroke="black" points="187.04,-57.5 187.04,-77.5 306.41,-77.5 306.41,-57.5 187.04,-57.5"/>
<text text-anchor="middle" x="246.725" y="-64.5" font-family="Helvetica,sans-Serif" font-size="10.00">panda::Container::copy</text>
</a>
</g>
</g>
<!-- Node1&#45;&gt;Node5 -->
<g id="edge4" class="edge"><title>Node1&#45;&gt;Node5</title>
<path fill="none" stroke="midnightblue" d="M141.788,-78.8541C153.396,-77.586 165.425,-76.272 177.001,-75.0074"/>
<polygon fill="midnightblue" stroke="midnightblue" points="177.476,-78.4765 187.036,-73.9112 176.715,-71.5179 177.476,-78.4765"/>
</g>
<!-- Node5&#45;&gt;Node3 -->
<g id="edge5" class="edge"><title>Node5&#45;&gt;Node3</title>
<path fill="none" stroke="midnightblue" d="M285.823,-77.5989C310.615,-84.1705 343.15,-92.7946 369.675,-99.8257"/>
<polygon fill="midnightblue" stroke="midnightblue" points="368.955,-103.256 379.518,-102.435 370.749,-96.4893 368.955,-103.256"/>
</g>
<!-- Node5&#45;&gt;Node4 -->
<g id="edge6" class="edge"><title>Node5&#45;&gt;Node4</title>
<path fill="none" stroke="midnightblue" d="M281.265,-57.424C302.08,-51.171 329.492,-42.9358 354.267,-35.4932"/>
<polygon fill="midnightblue" stroke="midnightblue" points="355.401,-38.8069 363.972,-32.5777 353.387,-32.1028 355.401,-38.8069"/>
</g>
<!-- Node6 -->
<g id="node6" class="node"><title>Node6</title>
<g id="a_node6"><a xlink:href="classpanda_1_1ContainerBase.html#af338d42cdb776d8af77a2c14d3a983f5" target="_top" xlink:title="Set the name of this container. ">
<polygon fill="white" stroke="black" points="360.749,-51.5 360.749,-83.5 476.23,-83.5 476.23,-51.5 360.749,-51.5"/>
<text text-anchor="start" x="368.749" y="-70.5" font-family="Helvetica,sans-Serif" font-size="10.00">panda::ContainerBase</text>
<text text-anchor="middle" x="418.489" y="-58.5" font-family="Helvetica,sans-Serif" font-size="10.00">::setName</text>
</a>
</g>
</g>
<!-- Node5&#45;&gt;Node6 -->
<g id="edge7" class="edge"><title>Node5&#45;&gt;Node6</title>
<path fill="none" stroke="midnightblue" d="M306.624,-67.5C320.726,-67.5 335.887,-67.5 350.332,-67.5"/>
<polygon fill="midnightblue" stroke="midnightblue" points="350.698,-71.0001 360.698,-67.5 350.698,-64.0001 350.698,-71.0001"/>
</g>
</g>
</svg>
