<?xml version="1.0" encoding="UTF-8" standalone="no"?>
<!DOCTYPE svg PUBLIC "-//W3C//DTD SVG 1.1//EN"
 "http://www.w3.org/Graphics/SVG/1.1/DTD/svg11.dtd">
<!-- Generated by graphviz version 2.38.0 (20140413.2041)
 -->
<!-- Title: panda::FatJet::operator= Pages: 1 -->
<svg width="961pt" height="41pt"
 viewBox="0.00 0.00 961.17 41.00" xmlns="http://www.w3.org/2000/svg" xmlns:xlink="http://www.w3.org/1999/xlink">
<g id="graph0" class="graph" transform="scale(1 1) rotate(0) translate(4 37)">
<title>panda::FatJet::operator=</title>
<polygon fill="white" stroke="none" points="-4,4 -4,-37 957.169,-37 957.169,4 -4,4"/>
<!-- Node1 -->
<g id="node1" class="node"><title>Node1</title>
<polygon fill="#bfbfbf" stroke="black" points="2.84217e-14,-6.5 2.84217e-14,-26.5 125.767,-26.5 125.767,-6.5 2.84217e-14,-6.5"/>
<text text-anchor="middle" x="62.8835" y="-13.5" font-family="Helvetica,sans-Serif" font-size="10.00">panda::FatJet::operator=</text>
</g>
<!-- Node2 -->
<g id="node2" class="node"><title>Node2</title>
<g id="a_node2"><a xlink:href="classpanda_1_1Jet.html#a06509e069beffe7d5fa12a5450254e6a" target="_top" xlink:title="panda::Jet::operator=">
<polygon fill="white" stroke="black" points="161.767,-6.5 161.767,-26.5 273.087,-26.5 273.087,-6.5 161.767,-6.5"/>
<text text-anchor="middle" x="217.427" y="-13.5" font-family="Helvetica,sans-Serif" font-size="10.00">panda::Jet::operator=</text>
</a>
</g>
</g>
<!-- Node1&#45;&gt;Node2 -->
<g id="edge1" class="edge"><title>Node1&#45;&gt;Node2</title>
<path fill="none" stroke="midnightblue" d="M125.929,-16.5C134.256,-16.5 142.818,-16.5 151.198,-16.5"/>
<polygon fill="midnightblue" stroke="midnightblue" points="151.301,-20.0001 161.301,-16.5 151.301,-13.0001 151.301,-20.0001"/>
</g>
<!-- Node3 -->
<g id="node3" class="node"><title>Node3</title>
<g id="a_node3"><a xlink:href="classpanda_1_1MicroJet.html#a9375dd6d13362ae323e9915b529458e8" target="_top" xlink:title="panda::MicroJet::operator=">
<polygon fill="white" stroke="black" points="309.087,-6.5 309.087,-26.5 444.843,-26.5 444.843,-6.5 309.087,-6.5"/>
<text text-anchor="middle" x="376.965" y="-13.5" font-family="Helvetica,sans-Serif" font-size="10.00">panda::MicroJet::operator=</text>
</a>
</g>
</g>
<!-- Node2&#45;&gt;Node3 -->
<g id="edge2" class="edge"><title>Node2&#45;&gt;Node3</title>
<path fill="none" stroke="midnightblue" d="M273.526,-16.5C281.753,-16.5 290.36,-16.5 298.939,-16.5"/>
<polygon fill="midnightblue" stroke="midnightblue" points="298.973,-20.0001 308.973,-16.5 298.973,-13.0001 298.973,-20.0001"/>
</g>
<!-- Node4 -->
<g id="node4" class="node"><title>Node4</title>
<g id="a_node4"><a xlink:href="classpanda_1_1ParticleM.html#a37f7be4e1150b6080b47b005af730af5" target="_top" xlink:title="panda::ParticleM::operator=">
<polygon fill="white" stroke="black" points="480.843,-6.5 480.843,-26.5 620.487,-26.5 620.487,-6.5 480.843,-6.5"/>
<text text-anchor="middle" x="550.665" y="-13.5" font-family="Helvetica,sans-Serif" font-size="10.00">panda::ParticleM::operator=</text>
</a>
</g>
</g>
<!-- Node3&#45;&gt;Node4 -->
<g id="edge3" class="edge"><title>Node3&#45;&gt;Node4</title>
<path fill="none" stroke="midnightblue" d="M445.333,-16.5C453.615,-16.5 462.138,-16.5 470.574,-16.5"/>
<polygon fill="midnightblue" stroke="midnightblue" points="470.798,-20.0001 480.798,-16.5 470.798,-13.0001 470.798,-20.0001"/>
</g>
<!-- Node5 -->
<g id="node5" class="node"><title>Node5</title>
<g id="a_node5"><a xlink:href="classpanda_1_1Particle.html#a8c4fabfceb39b746b0e68a7389e662c4" target="_top" xlink:title="panda::Particle::operator=">
<polygon fill="white" stroke="black" points="656.487,-6.5 656.487,-26.5 787.802,-26.5 787.802,-6.5 656.487,-6.5"/>
<text text-anchor="middle" x="722.144" y="-13.5" font-family="Helvetica,sans-Serif" font-size="10.00">panda::Particle::operator=</text>
</a>
</g>
</g>
<!-- Node4&#45;&gt;Node5 -->
<g id="edge4" class="edge"><title>Node4&#45;&gt;Node5</title>
<path fill="none" stroke="midnightblue" d="M620.599,-16.5C629.003,-16.5 637.623,-16.5 646.111,-16.5"/>
<polygon fill="midnightblue" stroke="midnightblue" points="646.376,-20.0001 656.376,-16.5 646.376,-13.0001 646.376,-20.0001"/>
</g>
<!-- Node6 -->
<g id="node6" class="node"><title>Node6</title>
<g id="a_node6"><a xlink:href="classpanda_1_1ContainerElement.html#ae8ba59e4cb5d7c1d491fc87c9360f039" target="_top" xlink:title="panda::ContainerElement\l::operator=">
<polygon fill="white" stroke="black" points="823.802,-0.5 823.802,-32.5 953.169,-32.5 953.169,-0.5 823.802,-0.5"/>
<text text-anchor="start" x="831.802" y="-19.5" font-family="Helvetica,sans-Serif" font-size="10.00">panda::ContainerElement</text>
<text text-anchor="middle" x="888.486" y="-7.5" font-family="Helvetica,sans-Serif" font-size="10.00">::operator=</text>
</a>
</g>
</g>
<!-- Node5&#45;&gt;Node6 -->
<g id="edge5" class="edge"><title>Node5&#45;&gt;Node6</title>
<path fill="none" stroke="midnightblue" d="M788.096,-16.5C796.388,-16.5 804.925,-16.5 813.349,-16.5"/>
<polygon fill="midnightblue" stroke="midnightblue" points="813.543,-20.0001 823.543,-16.5 813.543,-13.0001 813.543,-20.0001"/>
</g>
</g>
</svg>
