<?xml version="1.0" encoding="UTF-8" standalone="no"?>
<!DOCTYPE svg PUBLIC "-//W3C//DTD SVG 1.1//EN"
 "http://www.w3.org/Graphics/SVG/1.1/DTD/svg11.dtd">
<!-- Generated by graphviz version 2.38.0 (20140413.2041)
 -->
<!-- Title: panda::MicroJet::operator= Pages: 1 -->
<svg width="453pt" height="87pt"
 viewBox="0.00 0.00 452.84 87.00" xmlns="http://www.w3.org/2000/svg" xmlns:xlink="http://www.w3.org/1999/xlink">
<g id="graph0" class="graph" transform="scale(1 1) rotate(0) translate(4 83)">
<title>panda::MicroJet::operator=</title>
<polygon fill="white" stroke="none" points="-4,4 -4,-83 448.843,-83 448.843,4 -4,4"/>
<!-- Node1 -->
<g id="node1" class="node"><title>Node1</title>
<polygon fill="#bfbfbf" stroke="black" points="0,-38.5 0,-58.5 135.756,-58.5 135.756,-38.5 0,-38.5"/>
<text text-anchor="middle" x="67.878" y="-45.5" font-family="Helvetica,sans-Serif" font-size="10.00">panda::MicroJet::operator=</text>
</g>
<!-- Node2 -->
<g id="node2" class="node"><title>Node2</title>
<g id="a_node2"><a xlink:href="classpanda_1_1Jet.html#acf20ecedd6baf62791de5d0d8c63a996" target="_top" xlink:title="panda::Jet::Jet">
<polygon fill="white" stroke="black" points="186.622,-58.5 186.622,-78.5 268.209,-78.5 268.209,-58.5 186.622,-58.5"/>
<text text-anchor="middle" x="227.416" y="-65.5" font-family="Helvetica,sans-Serif" font-size="10.00">panda::Jet::Jet</text>
</a>
</g>
</g>
<!-- Node1&#45;&gt;Node2 -->
<g id="edge1" class="edge"><title>Node1&#45;&gt;Node2</title>
<path fill="none" stroke="midnightblue" d="M146.201,-58.3165C160.06,-60.0758 173.978,-61.8428 186.239,-63.3994"/>
<polygon fill="midnightblue" stroke="midnightblue" points="146.506,-54.8272 136.145,-57.0398 145.625,-61.7715 146.506,-54.8272"/>
</g>
<!-- Node3 -->
<g id="node3" class="node"><title>Node3</title>
<g id="a_node3"><a xlink:href="classpanda_1_1Jet.html#a06509e069beffe7d5fa12a5450254e6a" target="_top" xlink:title="panda::Jet::operator=">
<polygon fill="white" stroke="black" points="171.756,-19.5 171.756,-39.5 283.076,-39.5 283.076,-19.5 171.756,-19.5"/>
<text text-anchor="middle" x="227.416" y="-26.5" font-family="Helvetica,sans-Serif" font-size="10.00">panda::Jet::operator=</text>
</a>
</g>
</g>
<!-- Node1&#45;&gt;Node3 -->
<g id="edge2" class="edge"><title>Node1&#45;&gt;Node3</title>
<path fill="none" stroke="midnightblue" d="M146.225,-39.1715C154.841,-38.1323 163.48,-37.0904 171.73,-36.0955"/>
<polygon fill="midnightblue" stroke="midnightblue" points="145.654,-35.7149 136.145,-40.3872 146.492,-42.6645 145.654,-35.7149"/>
</g>
<!-- Node4 -->
<g id="node4" class="node"><title>Node4</title>
<g id="a_node4"><a xlink:href="classpanda_1_1FatJet.html#ab92df78ab1a2192c18c8d846966bf6d9" target="_top" xlink:title="panda::FatJet::FatJet">
<polygon fill="white" stroke="black" points="326.719,-39.5 326.719,-59.5 437.2,-59.5 437.2,-39.5 326.719,-39.5"/>
<text text-anchor="middle" x="381.959" y="-46.5" font-family="Helvetica,sans-Serif" font-size="10.00">panda::FatJet::FatJet</text>
</a>
</g>
</g>
<!-- Node3&#45;&gt;Node4 -->
<g id="edge3" class="edge"><title>Node3&#45;&gt;Node4</title>
<path fill="none" stroke="midnightblue" d="M293.472,-38.0295C304.471,-39.4715 315.787,-40.9553 326.48,-42.3572"/>
<polygon fill="midnightblue" stroke="midnightblue" points="293.858,-34.5502 283.488,-36.7205 292.948,-41.4908 293.858,-34.5502"/>
</g>
<!-- Node5 -->
<g id="node5" class="node"><title>Node5</title>
<g id="a_node5"><a xlink:href="classpanda_1_1FatJet.html#a20e4f6ca23c2a9a603c33e7f023337fe" target="_top" xlink:title="panda::FatJet::operator=">
<polygon fill="white" stroke="black" points="319.076,-0.5 319.076,-20.5 444.843,-20.5 444.843,-0.5 319.076,-0.5"/>
<text text-anchor="middle" x="381.959" y="-7.5" font-family="Helvetica,sans-Serif" font-size="10.00">panda::FatJet::operator=</text>
</a>
</g>
</g>
<!-- Node3&#45;&gt;Node5 -->
<g id="edge4" class="edge"><title>Node3&#45;&gt;Node5</title>
<path fill="none" stroke="midnightblue" d="M293.626,-21.3778C302.035,-20.3304 310.628,-19.2601 318.983,-18.2195"/>
<polygon fill="midnightblue" stroke="midnightblue" points="292.978,-17.9313 283.488,-22.6406 293.844,-24.8776 292.978,-17.9313"/>
</g>
</g>
</svg>
