<?xml version="1.0" encoding="UTF-8" standalone="no"?>
<!DOCTYPE svg PUBLIC "-//W3C//DTD SVG 1.1//EN"
 "http://www.w3.org/Graphics/SVG/1.1/DTD/svg11.dtd">
<!-- Generated by graphviz version 2.38.0 (20140413.2041)
 -->
<!-- Title: panda::Particle::dR Pages: 1 -->
<svg width="396pt" height="68pt"
 viewBox="0.00 0.00 396.41 68.00" xmlns="http://www.w3.org/2000/svg" xmlns:xlink="http://www.w3.org/1999/xlink">
<g id="graph0" class="graph" transform="scale(1 1) rotate(0) translate(4 64)">
<title>panda::Particle::dR</title>
<polygon fill="white" stroke="none" points="-4,4 -4,-64 392.413,-64 392.413,4 -4,4"/>
<!-- Node1 -->
<g id="node1" class="node"><title>Node1</title>
<polygon fill="#bfbfbf" stroke="black" points="-3.55271e-14,-19.5 -3.55271e-14,-39.5 101.022,-39.5 101.022,-19.5 -3.55271e-14,-19.5"/>
<text text-anchor="middle" x="50.511" y="-26.5" font-family="Helvetica,sans-Serif" font-size="10.00">panda::Particle::dR</text>
</g>
<!-- Node2 -->
<g id="node2" class="node"><title>Node2</title>
<g id="a_node2"><a xlink:href="classpanda_1_1Particle.html#a31b515f8bcd6d64227ec24dd4b9682c3" target="_top" xlink:title="panda::Particle::dR2">
<polygon fill="white" stroke="black" points="137.022,-19.5 137.022,-39.5 243.603,-39.5 243.603,-19.5 137.022,-19.5"/>
<text text-anchor="middle" x="190.312" y="-26.5" font-family="Helvetica,sans-Serif" font-size="10.00">panda::Particle::dR2</text>
</a>
</g>
</g>
<!-- Node1&#45;&gt;Node2 -->
<g id="edge1" class="edge"><title>Node1&#45;&gt;Node2</title>
<path fill="none" stroke="midnightblue" d="M101.261,-29.5C109.482,-29.5 118.098,-29.5 126.588,-29.5"/>
<polygon fill="midnightblue" stroke="midnightblue" points="126.847,-33.0001 136.847,-29.5 126.847,-26.0001 126.847,-33.0001"/>
</g>
<!-- Node3 -->
<g id="node3" class="node"><title>Node3</title>
<g id="a_node3"><a xlink:href="classpanda_1_1Particle.html#a7216a6a830a5231aef8ebc7d57018699" target="_top" xlink:title="panda::Particle::dEta">
<polygon fill="white" stroke="black" points="279.603,-39.5 279.603,-59.5 388.413,-59.5 388.413,-39.5 279.603,-39.5"/>
<text text-anchor="middle" x="334.008" y="-46.5" font-family="Helvetica,sans-Serif" font-size="10.00">panda::Particle::dEta</text>
</a>
</g>
</g>
<!-- Node2&#45;&gt;Node3 -->
<g id="edge2" class="edge"><title>Node2&#45;&gt;Node3</title>
<path fill="none" stroke="midnightblue" d="M243.672,-36.8904C252.058,-38.0741 260.816,-39.3103 269.429,-40.5259"/>
<polygon fill="midnightblue" stroke="midnightblue" points="269.051,-44.0072 279.442,-41.9393 270.03,-37.0759 269.051,-44.0072"/>
</g>
<!-- Node4 -->
<g id="node4" class="node"><title>Node4</title>
<g id="a_node4"><a xlink:href="classpanda_1_1Particle.html#ad58d76aa3509890401e7075d36d605b2" target="_top" xlink:title="panda::Particle::dPhi">
<polygon fill="white" stroke="black" points="279.883,-0.5 279.883,-20.5 388.133,-20.5 388.133,-0.5 279.883,-0.5"/>
<text text-anchor="middle" x="334.008" y="-7.5" font-family="Helvetica,sans-Serif" font-size="10.00">panda::Particle::dPhi</text>
</a>
</g>
</g>
<!-- Node2&#45;&gt;Node4 -->
<g id="edge3" class="edge"><title>Node2&#45;&gt;Node4</title>
<path fill="none" stroke="midnightblue" d="M243.672,-22.4791C252.058,-21.3546 260.816,-20.1803 269.429,-19.0254"/>
<polygon fill="midnightblue" stroke="midnightblue" points="269.996,-22.4807 279.442,-17.6827 269.066,-15.5428 269.996,-22.4807"/>
</g>
</g>
</svg>
