<?xml version="1.0" encoding="UTF-8" standalone="no"?>
<!DOCTYPE svg PUBLIC "-//W3C//DTD SVG 1.1//EN"
 "http://www.w3.org/Graphics/SVG/1.1/DTD/svg11.dtd">
<!-- Generated by graphviz version 2.38.0 (20140413.2041)
 -->
<!-- Title: panda::Muon::init Pages: 1 -->
<svg width="505pt" height="29pt"
 viewBox="0.00 0.00 504.56 29.00" xmlns="http://www.w3.org/2000/svg" xmlns:xlink="http://www.w3.org/1999/xlink">
<g id="graph0" class="graph" transform="scale(1 1) rotate(0) translate(4 25)">
<title>panda::Muon::init</title>
<polygon fill="white" stroke="none" points="-4,4 -4,-25 500.556,-25 500.556,4 -4,4"/>
<!-- Node1 -->
<g id="node1" class="node"><title>Node1</title>
<polygon fill="#bfbfbf" stroke="black" points="0,-0.5 0,-20.5 92.693,-20.5 92.693,-0.5 0,-0.5"/>
<text text-anchor="middle" x="46.3465" y="-7.5" font-family="Helvetica,sans-Serif" font-size="10.00">panda::Muon::init</text>
</g>
<!-- Node2 -->
<g id="node2" class="node"><title>Node2</title>
<g id="a_node2"><a xlink:href="classpanda_1_1Lepton.html#a69c57be8a4bc498e6d10bf89f54a112b" target="_top" xlink:title="Reset object state. ">
<polygon fill="white" stroke="black" points="128.693,-0.5 128.693,-20.5 226.954,-20.5 226.954,-0.5 128.693,-0.5"/>
<text text-anchor="middle" x="177.823" y="-7.5" font-family="Helvetica,sans-Serif" font-size="10.00">panda::Lepton::init</text>
</a>
</g>
</g>
<!-- Node1&#45;&gt;Node2 -->
<g id="edge1" class="edge"><title>Node1&#45;&gt;Node2</title>
<path fill="none" stroke="midnightblue" d="M92.9952,-10.5C101.174,-10.5 109.798,-10.5 118.28,-10.5"/>
<polygon fill="midnightblue" stroke="midnightblue" points="118.515,-14.0001 128.515,-10.5 118.515,-7.0001 118.515,-14.0001"/>
</g>
<!-- Node3 -->
<g id="node3" class="node"><title>Node3</title>
<g id="a_node3"><a xlink:href="classpanda_1_1Particle.html#a56ba0060e9e37322f98e2f30c3583dd3" target="_top" xlink:title="Reset object state. ">
<polygon fill="white" stroke="black" points="262.954,-0.5 262.954,-20.5 363.974,-20.5 363.974,-0.5 262.954,-0.5"/>
<text text-anchor="middle" x="313.464" y="-7.5" font-family="Helvetica,sans-Serif" font-size="10.00">panda::Particle::init</text>
</a>
</g>
</g>
<!-- Node2&#45;&gt;Node3 -->
<g id="edge2" class="edge"><title>Node2&#45;&gt;Node3</title>
<path fill="none" stroke="midnightblue" d="M227.071,-10.5C235.454,-10.5 244.261,-10.5 252.903,-10.5"/>
<polygon fill="midnightblue" stroke="midnightblue" points="252.939,-14.0001 262.939,-10.5 252.939,-7.0001 252.939,-14.0001"/>
</g>
<!-- Node4 -->
<g id="node4" class="node"><title>Node4</title>
<g id="a_node4"><a xlink:href="classpanda_1_1Object.html#a204960e5f165a28176f9b4a42b9ea90c" target="_top" xlink:title="Reset object state. ">
<polygon fill="white" stroke="black" points="399.974,-0.5 399.974,-20.5 496.556,-20.5 496.556,-0.5 399.974,-0.5"/>
<text text-anchor="middle" x="448.265" y="-7.5" font-family="Helvetica,sans-Serif" font-size="10.00">panda::Object::init</text>
</a>
</g>
</g>
<!-- Node3&#45;&gt;Node4 -->
<g id="edge3" class="edge"><title>Node3&#45;&gt;Node4</title>
<path fill="none" stroke="midnightblue" d="M364.292,-10.5C372.559,-10.5 381.193,-10.5 389.634,-10.5"/>
<polygon fill="midnightblue" stroke="midnightblue" points="389.797,-14.0001 399.797,-10.5 389.797,-7.0001 389.797,-14.0001"/>
</g>
</g>
</svg>
