<?xml version="1.0" encoding="UTF-8" standalone="no"?>
<!DOCTYPE svg PUBLIC "-//W3C//DTD SVG 1.1//EN"
 "http://www.w3.org/Graphics/SVG/1.1/DTD/svg11.dtd">
<!-- Generated by graphviz version 2.38.0 (20140413.2041)
 -->
<!-- Title: panda.refvbranch.RefVectorBranch.write_book Pages: 1 -->
<svg width="347pt" height="41pt"
 viewBox="0.00 0.00 347.20 41.00" xmlns="http://www.w3.org/2000/svg" xmlns:xlink="http://www.w3.org/1999/xlink">
<g id="graph0" class="graph" transform="scale(1 1) rotate(0) translate(4 37)">
<title>panda.refvbranch.RefVectorBranch.write_book</title>
<polygon fill="white" stroke="none" points="-4,4 -4,-37 343.2,-37 343.2,4 -4,4"/>
<!-- Node1 -->
<g id="node1" class="node"><title>Node1</title>
<polygon fill="#bfbfbf" stroke="black" points="1.42109e-14,-0.5 1.42109e-14,-32.5 141.037,-32.5 141.037,-0.5 1.42109e-14,-0.5"/>
<text text-anchor="start" x="8" y="-19.5" font-family="Helvetica,sans-Serif" font-size="10.00">panda.refvbranch.RefVector</text>
<text text-anchor="middle" x="70.5185" y="-7.5" font-family="Helvetica,sans-Serif" font-size="10.00">Branch.write_book</text>
</g>
<!-- Node2 -->
<g id="node2" class="node"><title>Node2</title>
<g id="a_node2"><a xlink:href="classpanda_1_1objbranch_1_1ObjBranch.html#aa84f71ce1566d58109f243d0a16d7562" target="_top" xlink:title="panda.objbranch.ObjBranch.type">
<polygon fill="white" stroke="black" points="177.037,-6.5 177.037,-26.5 339.2,-26.5 339.2,-6.5 177.037,-6.5"/>
<text text-anchor="middle" x="258.118" y="-13.5" font-family="Helvetica,sans-Serif" font-size="10.00">panda.objbranch.ObjBranch.type</text>
</a>
</g>
</g>
<!-- Node1&#45;&gt;Node2 -->
<g id="edge1" class="edge"><title>Node1&#45;&gt;Node2</title>
<path fill="none" stroke="midnightblue" d="M141.157,-16.5C149.511,-16.5 158.133,-16.5 166.727,-16.5"/>
<polygon fill="midnightblue" stroke="midnightblue" points="166.786,-20.0001 176.786,-16.5 166.786,-13.0001 166.786,-20.0001"/>
</g>
</g>
</svg>
