<?xml version="1.0" encoding="UTF-8" standalone="no"?>
<!DOCTYPE svg PUBLIC "-//W3C//DTD SVG 1.1//EN"
 "http://www.w3.org/Graphics/SVG/1.1/DTD/svg11.dtd">
<!-- Generated by graphviz version 2.38.0 (20140413.2041)
 -->
<!-- Title: panda::Container::begin Pages: 1 -->
<svg width="289pt" height="41pt"
 viewBox="0.00 0.00 288.86 41.00" xmlns="http://www.w3.org/2000/svg" xmlns:xlink="http://www.w3.org/1999/xlink">
<g id="graph0" class="graph" transform="scale(1 1) rotate(0) translate(4 37)">
<title>panda::Container::begin</title>
<polygon fill="white" stroke="none" points="-4,4 -4,-37 284.856,-37 284.856,4 -4,4"/>
<!-- Node1 -->
<g id="node1" class="node"><title>Node1</title>
<polygon fill="#bfbfbf" stroke="black" points="-1.42109e-14,-6.5 -1.42109e-14,-26.5 122.707,-26.5 122.707,-6.5 -1.42109e-14,-6.5"/>
<text text-anchor="middle" x="61.3535" y="-13.5" font-family="Helvetica,sans-Serif" font-size="10.00">panda::Container::begin</text>
</g>
<!-- Node2 -->
<g id="node2" class="node"><title>Node2</title>
<g id="a_node2"><a xlink:href="classpanda_1_1Container.html#a92b22e7d3f1f73de8e9a8b4350bc8f2f" target="_top" xlink:title="panda::Container::const\l_addr_">
<polygon fill="white" stroke="black" points="158.707,-0.5 158.707,-32.5 280.856,-32.5 280.856,-0.5 158.707,-0.5"/>
<text text-anchor="start" x="166.707" y="-19.5" font-family="Helvetica,sans-Serif" font-size="10.00">panda::Container::const</text>
<text text-anchor="middle" x="219.781" y="-7.5" font-family="Helvetica,sans-Serif" font-size="10.00">_addr_</text>
</a>
</g>
</g>
<!-- Node1&#45;&gt;Node2 -->
<g id="edge1" class="edge"><title>Node1&#45;&gt;Node2</title>
<path fill="none" stroke="midnightblue" d="M122.833,-16.5C131.145,-16.5 139.74,-16.5 148.214,-16.5"/>
<polygon fill="midnightblue" stroke="midnightblue" points="148.463,-20.0001 158.463,-16.5 148.463,-13.0001 148.463,-20.0001"/>
</g>
</g>
</svg>
