<?xml version="1.0" encoding="UTF-8" standalone="no"?>
<!DOCTYPE svg PUBLIC "-//W3C//DTD SVG 1.1//EN"
 "http://www.w3.org/Graphics/SVG/1.1/DTD/svg11.dtd">
<!-- Generated by graphviz version 2.38.0 (20140413.2041)
 -->
<!-- Title: panda::Jet::init Pages: 1 -->
<svg width="220pt" height="29pt"
 viewBox="0.00 0.00 220.50 29.00" xmlns="http://www.w3.org/2000/svg" xmlns:xlink="http://www.w3.org/1999/xlink">
<g id="graph0" class="graph" transform="scale(1 1) rotate(0) translate(4 25)">
<title>panda::Jet::init</title>
<polygon fill="white" stroke="none" points="-4,4 -4,-25 216.497,-25 216.497,4 -4,4"/>
<!-- Node1 -->
<g id="node1" class="node"><title>Node1</title>
<polygon fill="#bfbfbf" stroke="black" points="-7.10543e-15,-0.5 -7.10543e-15,-20.5 81.025,-20.5 81.025,-0.5 -7.10543e-15,-0.5"/>
<text text-anchor="middle" x="40.5125" y="-7.5" font-family="Helvetica,sans-Serif" font-size="10.00">panda::Jet::init</text>
</g>
<!-- Node2 -->
<g id="node2" class="node"><title>Node2</title>
<g id="a_node2"><a xlink:href="classpanda_1_1FatJet.html#aa1a87839e3131c1629bbcf2e1a3b4cbc" target="_top" xlink:title="Reset object state. ">
<polygon fill="white" stroke="black" points="117.025,-0.5 117.025,-20.5 212.497,-20.5 212.497,-0.5 117.025,-0.5"/>
<text text-anchor="middle" x="164.761" y="-7.5" font-family="Helvetica,sans-Serif" font-size="10.00">panda::FatJet::init</text>
</a>
</g>
</g>
<!-- Node1&#45;&gt;Node2 -->
<g id="edge1" class="edge"><title>Node1&#45;&gt;Node2</title>
<path fill="none" stroke="midnightblue" d="M91.2332,-10.5C99.6131,-10.5 108.289,-10.5 116.602,-10.5"/>
<polygon fill="midnightblue" stroke="midnightblue" points="91.2031,-7.0001 81.2031,-10.5 91.203,-14.0001 91.2031,-7.0001"/>
</g>
</g>
</svg>
