<?xml version="1.0" encoding="UTF-8" standalone="no"?>
<!DOCTYPE svg PUBLIC "-//W3C//DTD SVG 1.1//EN"
 "http://www.w3.org/Graphics/SVG/1.1/DTD/svg11.dtd">
<!-- Generated by graphviz version 2.38.0 (20140413.2041)
 -->
<!-- Title: panda::GenJet::setStatus Pages: 1 -->
<svg width="829pt" height="189pt"
 viewBox="0.00 0.00 829.41 189.00" xmlns="http://www.w3.org/2000/svg" xmlns:xlink="http://www.w3.org/1999/xlink">
<g id="graph0" class="graph" transform="scale(1 1) rotate(0) translate(4 185)">
<title>panda::GenJet::setStatus</title>
<polygon fill="white" stroke="none" points="-4,4 -4,-185 825.411,-185 825.411,4 -4,4"/>
<!-- Node1 -->
<g id="node1" class="node"><title>Node1</title>
<polygon fill="#bfbfbf" stroke="black" points="-2.84217e-14,-109.5 -2.84217e-14,-129.5 128.829,-129.5 128.829,-109.5 -2.84217e-14,-109.5"/>
<text text-anchor="middle" x="64.4145" y="-116.5" font-family="Helvetica,sans-Serif" font-size="10.00">panda::GenJet::setStatus</text>
</g>
<!-- Node2 -->
<g id="node2" class="node"><title>Node2</title>
<g id="a_node2"><a xlink:href="classpanda_1_1ParticleM.html#a3154bba2f00a8165994caa8ef55473bf" target="_top" xlink:title="Set status of branches with names that correspond to the variables of this object. ">
<polygon fill="white" stroke="black" points="164.829,-109.5 164.829,-129.5 303.085,-129.5 303.085,-109.5 164.829,-109.5"/>
<text text-anchor="middle" x="233.957" y="-116.5" font-family="Helvetica,sans-Serif" font-size="10.00">panda::ParticleM::setStatus</text>
</a>
</g>
</g>
<!-- Node1&#45;&gt;Node2 -->
<g id="edge1" class="edge"><title>Node1&#45;&gt;Node2</title>
<path fill="none" stroke="midnightblue" d="M129.233,-119.5C137.451,-119.5 145.941,-119.5 154.361,-119.5"/>
<polygon fill="midnightblue" stroke="midnightblue" points="154.574,-123 164.574,-119.5 154.574,-116 154.574,-123"/>
</g>
<!-- Node5 -->
<g id="node5" class="node"><title>Node5</title>
<g id="a_node5"><a xlink:href="classpanda_1_1utils_1_1StoreManager.html#a6f30ec459d951e84a1196b7e2ffdcf49" target="_top" xlink:title="panda::utils::StoreManager\l::getName">
<polygon fill="white" stroke="black" points="505.012,-148.5 505.012,-180.5 641.047,-180.5 641.047,-148.5 505.012,-148.5"/>
<text text-anchor="start" x="513.012" y="-167.5" font-family="Helvetica,sans-Serif" font-size="10.00">panda::utils::StoreManager</text>
<text text-anchor="middle" x="573.03" y="-155.5" font-family="Helvetica,sans-Serif" font-size="10.00">::getName</text>
</a>
</g>
</g>
<!-- Node1&#45;&gt;Node5 -->
<g id="edge12" class="edge"><title>Node1&#45;&gt;Node5</title>
<path fill="none" stroke="midnightblue" d="M114.609,-129.54C130.589,-132.631 148.428,-135.9 164.829,-138.5 241.928,-150.722 261.222,-154.933 339.085,-160.5 390.94,-164.208 449.444,-165.201 494.85,-165.27"/>
<polygon fill="midnightblue" stroke="midnightblue" points="494.918,-168.77 504.919,-165.271 494.919,-161.77 494.918,-168.77"/>
</g>
<!-- Node6 -->
<g id="node6" class="node"><title>Node6</title>
<g id="a_node6"><a xlink:href="namespacepanda_1_1utils.html#a01665f786d6a2acedb8f008f3fc9fc84" target="_top" xlink:title="Set status of a branch. ">
<polygon fill="white" stroke="black" points="515.845,-70.5 515.845,-90.5 630.215,-90.5 630.215,-70.5 515.845,-70.5"/>
<text text-anchor="middle" x="573.03" y="-77.5" font-family="Helvetica,sans-Serif" font-size="10.00">panda::utils::setStatus</text>
</a>
</g>
</g>
<!-- Node1&#45;&gt;Node6 -->
<g id="edge13" class="edge"><title>Node1&#45;&gt;Node6</title>
<path fill="none" stroke="midnightblue" d="M110.272,-109.416C127.288,-105.87 146.886,-102.121 164.829,-99.5 284.031,-82.0881 424.745,-79.431 505.661,-79.6053"/>
<polygon fill="midnightblue" stroke="midnightblue" points="505.696,-83.1053 515.709,-79.6422 505.722,-76.1054 505.696,-83.1053"/>
</g>
<!-- Node3 -->
<g id="node3" class="node"><title>Node3</title>
<g id="a_node3"><a xlink:href="classpanda_1_1Particle.html#a114feb26e7ed0b5fac53646fca93964e" target="_top" xlink:title="Set status of branches with names that correspond to the variables of this object. ">
<polygon fill="white" stroke="black" points="339.085,-109.5 339.085,-129.5 469.012,-129.5 469.012,-109.5 339.085,-109.5"/>
<text text-anchor="middle" x="404.049" y="-116.5" font-family="Helvetica,sans-Serif" font-size="10.00">panda::Particle::setStatus</text>
</a>
</g>
</g>
<!-- Node2&#45;&gt;Node3 -->
<g id="edge2" class="edge"><title>Node2&#45;&gt;Node3</title>
<path fill="none" stroke="midnightblue" d="M303.326,-119.5C311.727,-119.5 320.344,-119.5 328.826,-119.5"/>
<polygon fill="midnightblue" stroke="midnightblue" points="329.081,-123 339.081,-119.5 329.081,-116 329.081,-123"/>
</g>
<!-- Node2&#45;&gt;Node5 -->
<g id="edge10" class="edge"><title>Node2&#45;&gt;Node5</title>
<path fill="none" stroke="midnightblue" d="M285.949,-129.533C302.822,-132.658 321.722,-135.95 339.085,-138.5 390.832,-146.1 449.337,-152.622 494.77,-157.233"/>
<polygon fill="midnightblue" stroke="midnightblue" points="494.545,-160.728 504.845,-158.246 495.246,-153.763 494.545,-160.728"/>
</g>
<!-- Node2&#45;&gt;Node6 -->
<g id="edge11" class="edge"><title>Node2&#45;&gt;Node6</title>
<path fill="none" stroke="midnightblue" d="M281.431,-109.457C299.374,-105.873 320.116,-102.088 339.085,-99.5 395.081,-91.8617 459.099,-86.9107 505.835,-83.9839"/>
<polygon fill="midnightblue" stroke="midnightblue" points="506.066,-87.4764 515.834,-83.3721 505.638,-80.4895 506.066,-87.4764"/>
</g>
<!-- Node4 -->
<g id="node4" class="node"><title>Node4</title>
<g id="a_node4"><a xlink:href="classpanda_1_1Object.html#a282e820b1ad431db22ca4d4dd20b55e0" target="_top" xlink:title="Set status of branches with names that correspond to the variables of this object. ">
<polygon fill="white" stroke="black" points="510.285,-109.5 510.285,-129.5 635.774,-129.5 635.774,-109.5 510.285,-109.5"/>
<text text-anchor="middle" x="573.03" y="-116.5" font-family="Helvetica,sans-Serif" font-size="10.00">panda::Object::setStatus</text>
</a>
</g>
</g>
<!-- Node3&#45;&gt;Node4 -->
<g id="edge3" class="edge"><title>Node3&#45;&gt;Node4</title>
<path fill="none" stroke="midnightblue" d="M469.13,-119.5C479.201,-119.5 489.671,-119.5 499.908,-119.5"/>
<polygon fill="midnightblue" stroke="midnightblue" points="500.045,-123 510.045,-119.5 500.045,-116 500.045,-123"/>
</g>
<!-- Node3&#45;&gt;Node5 -->
<g id="edge4" class="edge"><title>Node3&#45;&gt;Node5</title>
<path fill="none" stroke="midnightblue" d="M442.522,-129.599C460.286,-134.386 482.092,-140.263 502.71,-145.819"/>
<polygon fill="midnightblue" stroke="midnightblue" points="501.829,-149.206 512.396,-148.429 503.651,-142.448 501.829,-149.206"/>
</g>
<!-- Node3&#45;&gt;Node6 -->
<g id="edge5" class="edge"><title>Node3&#45;&gt;Node6</title>
<path fill="none" stroke="midnightblue" d="M448.05,-109.457C469.767,-104.384 496.307,-98.1857 519.251,-92.8269"/>
<polygon fill="midnightblue" stroke="midnightblue" points="520.232,-96.1922 529.173,-90.5094 518.639,-89.3756 520.232,-96.1922"/>
</g>
<!-- Node7 -->
<g id="node7" class="node"><title>Node7</title>
<g id="a_node7"><a xlink:href="classpanda_1_1utils_1_1BranchName.html#a6cc8a6df7c5b12a0221fd49773cca6a7" target="_top" xlink:title="Is the name included and not vetoed? ">
<polygon fill="white" stroke="black" points="677.047,-141.5 677.047,-161.5 821.411,-161.5 821.411,-141.5 677.047,-141.5"/>
<text text-anchor="middle" x="749.229" y="-148.5" font-family="Helvetica,sans-Serif" font-size="10.00">panda::utils::BranchName::in</text>
</a>
</g>
</g>
<!-- Node6&#45;&gt;Node7 -->
<g id="edge6" class="edge"><title>Node6&#45;&gt;Node7</title>
<path fill="none" stroke="midnightblue" d="M620.185,-90.6052C627.387,-93.0189 634.578,-95.9539 641.047,-99.5 659.819,-109.79 658.263,-121.232 677.047,-131.5 681.508,-133.939 686.293,-136.102 691.195,-138.016"/>
<polygon fill="midnightblue" stroke="midnightblue" points="690.115,-141.347 700.71,-141.397 692.459,-134.751 690.115,-141.347"/>
</g>
<!-- Node8 -->
<g id="node8" class="node"><title>Node8</title>
<g id="a_node8"><a xlink:href="classpanda_1_1utils_1_1BranchName.html#ae3332329bf2afae5ed8e7c35e5d77ffa" target="_top" xlink:title="Is the name included and vetoed? ">
<polygon fill="white" stroke="black" points="683.715,-90.5 683.715,-122.5 814.743,-122.5 814.743,-90.5 683.715,-90.5"/>
<text text-anchor="start" x="691.715" y="-109.5" font-family="Helvetica,sans-Serif" font-size="10.00">panda::utils::BranchName</text>
<text text-anchor="middle" x="749.229" y="-97.5" font-family="Helvetica,sans-Serif" font-size="10.00">::vetoed</text>
</a>
</g>
</g>
<!-- Node6&#45;&gt;Node8 -->
<g id="edge7" class="edge"><title>Node6&#45;&gt;Node8</title>
<path fill="none" stroke="midnightblue" d="M630.587,-88.9415C644.177,-90.9699 658.903,-93.1678 673.188,-95.2999"/>
<polygon fill="midnightblue" stroke="midnightblue" points="673.082,-98.8227 683.489,-96.8373 674.116,-91.8994 673.082,-98.8227"/>
</g>
<!-- Node9 -->
<g id="node9" class="node"><title>Node9</title>
<g id="a_node9"><a xlink:href="classpanda_1_1utils_1_1BranchName.html#a13958ff4a9d554d2c057c600b4f70412" target="_top" xlink:title="Prepend the branch name with &lt;objName.&gt;. ">
<polygon fill="white" stroke="black" points="683.715,-39.5 683.715,-71.5 814.743,-71.5 814.743,-39.5 683.715,-39.5"/>
<text text-anchor="start" x="691.715" y="-58.5" font-family="Helvetica,sans-Serif" font-size="10.00">panda::utils::BranchName</text>
<text text-anchor="middle" x="749.229" y="-46.5" font-family="Helvetica,sans-Serif" font-size="10.00">::fullName</text>
</a>
</g>
</g>
<!-- Node6&#45;&gt;Node9 -->
<g id="edge8" class="edge"><title>Node6&#45;&gt;Node9</title>
<path fill="none" stroke="midnightblue" d="M630.587,-72.3832C644.177,-70.4328 658.903,-68.3194 673.188,-66.2694"/>
<polygon fill="midnightblue" stroke="midnightblue" points="674.088,-69.6762 683.489,-64.791 673.093,-62.7472 674.088,-69.6762"/>
</g>
<!-- Node10 -->
<g id="node10" class="node"><title>Node10</title>
<g id="a_node10"><a xlink:href="namespacepanda_1_1utils.html#aafa411773a4b0ee829d99e6e5a0abdcd" target="_top" xlink:title="Check status of a branch. ">
<polygon fill="white" stroke="black" points="685.654,-0.5 685.654,-20.5 812.804,-20.5 812.804,-0.5 685.654,-0.5"/>
<text text-anchor="middle" x="749.229" y="-7.5" font-family="Helvetica,sans-Serif" font-size="10.00">panda::utils::checkStatus</text>
</a>
</g>
</g>
<!-- Node6&#45;&gt;Node10 -->
<g id="edge9" class="edge"><title>Node6&#45;&gt;Node10</title>
<path fill="none" stroke="midnightblue" d="M591.78,-70.3521C611.933,-59.1554 646.046,-41.1784 677.047,-29.5 682.86,-27.3103 689.029,-25.2677 695.209,-23.3951"/>
<polygon fill="midnightblue" stroke="midnightblue" points="696.249,-26.7378 704.882,-20.5957 694.303,-20.0137 696.249,-26.7378"/>
</g>
</g>
</svg>
