<?xml version="1.0" encoding="UTF-8" standalone="no"?>
<!DOCTYPE svg PUBLIC "-//W3C//DTD SVG 1.1//EN"
 "http://www.w3.org/Graphics/SVG/1.1/DTD/svg11.dtd">
<!-- Generated by graphviz version 2.38.0 (20140413.2041)
 -->
<!-- Title: panda::PFCand::PFCand Pages: 1 -->
<svg width="645pt" height="41pt"
 viewBox="0.00 0.00 644.58 41.00" xmlns="http://www.w3.org/2000/svg" xmlns:xlink="http://www.w3.org/1999/xlink">
<g id="graph0" class="graph" transform="scale(1 1) rotate(0) translate(4 37)">
<title>panda::PFCand::PFCand</title>
<polygon fill="white" stroke="none" points="-4,4 -4,-37 640.585,-37 640.585,4 -4,4"/>
<!-- Node1 -->
<g id="node1" class="node"><title>Node1</title>
<polygon fill="#bfbfbf" stroke="black" points="1.42109e-14,-6.5 1.42109e-14,-26.5 128.259,-26.5 128.259,-6.5 1.42109e-14,-6.5"/>
<text text-anchor="middle" x="64.1295" y="-13.5" font-family="Helvetica,sans-Serif" font-size="10.00">panda::PFCand::PFCand</text>
</g>
<!-- Node2 -->
<g id="node2" class="node"><title>Node2</title>
<g id="a_node2"><a xlink:href="classpanda_1_1ParticleM.html#a37f7be4e1150b6080b47b005af730af5" target="_top" xlink:title="panda::ParticleM::operator=">
<polygon fill="white" stroke="black" points="164.259,-6.5 164.259,-26.5 303.903,-26.5 303.903,-6.5 164.259,-6.5"/>
<text text-anchor="middle" x="234.081" y="-13.5" font-family="Helvetica,sans-Serif" font-size="10.00">panda::ParticleM::operator=</text>
</a>
</g>
</g>
<!-- Node1&#45;&gt;Node2 -->
<g id="edge1" class="edge"><title>Node1&#45;&gt;Node2</title>
<path fill="none" stroke="midnightblue" d="M128.625,-16.5C136.88,-16.5 145.416,-16.5 153.887,-16.5"/>
<polygon fill="midnightblue" stroke="midnightblue" points="154.165,-20.0001 164.165,-16.5 154.165,-13.0001 154.165,-20.0001"/>
</g>
<!-- Node3 -->
<g id="node3" class="node"><title>Node3</title>
<g id="a_node3"><a xlink:href="classpanda_1_1Particle.html#a8c4fabfceb39b746b0e68a7389e662c4" target="_top" xlink:title="panda::Particle::operator=">
<polygon fill="white" stroke="black" points="339.903,-6.5 339.903,-26.5 471.218,-26.5 471.218,-6.5 339.903,-6.5"/>
<text text-anchor="middle" x="405.56" y="-13.5" font-family="Helvetica,sans-Serif" font-size="10.00">panda::Particle::operator=</text>
</a>
</g>
</g>
<!-- Node2&#45;&gt;Node3 -->
<g id="edge2" class="edge"><title>Node2&#45;&gt;Node3</title>
<path fill="none" stroke="midnightblue" d="M304.015,-16.5C312.419,-16.5 321.039,-16.5 329.527,-16.5"/>
<polygon fill="midnightblue" stroke="midnightblue" points="329.792,-20.0001 339.792,-16.5 329.792,-13.0001 329.792,-20.0001"/>
</g>
<!-- Node4 -->
<g id="node4" class="node"><title>Node4</title>
<g id="a_node4"><a xlink:href="classpanda_1_1ContainerElement.html#ae8ba59e4cb5d7c1d491fc87c9360f039" target="_top" xlink:title="panda::ContainerElement\l::operator=">
<polygon fill="white" stroke="black" points="507.218,-0.5 507.218,-32.5 636.585,-32.5 636.585,-0.5 507.218,-0.5"/>
<text text-anchor="start" x="515.218" y="-19.5" font-family="Helvetica,sans-Serif" font-size="10.00">panda::ContainerElement</text>
<text text-anchor="middle" x="571.901" y="-7.5" font-family="Helvetica,sans-Serif" font-size="10.00">::operator=</text>
</a>
</g>
</g>
<!-- Node3&#45;&gt;Node4 -->
<g id="edge3" class="edge"><title>Node3&#45;&gt;Node4</title>
<path fill="none" stroke="midnightblue" d="M471.512,-16.5C479.804,-16.5 488.341,-16.5 496.765,-16.5"/>
<polygon fill="midnightblue" stroke="midnightblue" points="496.959,-20.0001 506.959,-16.5 496.959,-13.0001 496.959,-20.0001"/>
</g>
</g>
</svg>
