<?xml version="1.0" encoding="UTF-8" standalone="no"?>
<!DOCTYPE svg PUBLIC "-//W3C//DTD SVG 1.1//EN"
 "http://www.w3.org/Graphics/SVG/1.1/DTD/svg11.dtd">
<!-- Generated by graphviz version 2.38.0 (20140413.2041)
 -->
<!-- Title: panda.physics.PhysicsObject.generate_header Pages: 1 -->
<svg width="388pt" height="41pt"
 viewBox="0.00 0.00 388.30 41.00" xmlns="http://www.w3.org/2000/svg" xmlns:xlink="http://www.w3.org/1999/xlink">
<g id="graph0" class="graph" transform="scale(1 1) rotate(0) translate(4 37)">
<title>panda.physics.PhysicsObject.generate_header</title>
<polygon fill="white" stroke="none" points="-4,4 -4,-37 384.303,-37 384.303,4 -4,4"/>
<!-- Node1 -->
<g id="node1" class="node"><title>Node1</title>
<polygon fill="#bfbfbf" stroke="black" points="1.42109e-14,-0.5 1.42109e-14,-32.5 188.273,-32.5 188.273,-0.5 1.42109e-14,-0.5"/>
<text text-anchor="start" x="8" y="-19.5" font-family="Helvetica,sans-Serif" font-size="10.00">panda.physics.PhysicsObject.generate</text>
<text text-anchor="middle" x="94.1365" y="-7.5" font-family="Helvetica,sans-Serif" font-size="10.00">_header</text>
</g>
<!-- Node2 -->
<g id="node2" class="node"><title>Node2</title>
<g id="a_node2"><a xlink:href="classpanda_1_1physics_1_1PhysicsObject.html#a870008e964d7029bdbe7d54c1ce52b85" target="_top" xlink:title="panda.physics.PhysicsObject.is\l_singlet">
<polygon fill="white" stroke="black" points="224.273,-0.5 224.273,-32.5 380.303,-32.5 380.303,-0.5 224.273,-0.5"/>
<text text-anchor="start" x="232.273" y="-19.5" font-family="Helvetica,sans-Serif" font-size="10.00">panda.physics.PhysicsObject.is</text>
<text text-anchor="middle" x="302.288" y="-7.5" font-family="Helvetica,sans-Serif" font-size="10.00">_singlet</text>
</a>
</g>
</g>
<!-- Node1&#45;&gt;Node2 -->
<g id="edge1" class="edge"><title>Node1&#45;&gt;Node2</title>
<path fill="none" stroke="midnightblue" d="M188.561,-16.5C197.044,-16.5 205.615,-16.5 214.041,-16.5"/>
<polygon fill="midnightblue" stroke="midnightblue" points="214.232,-20.0001 224.232,-16.5 214.232,-13.0001 214.232,-20.0001"/>
</g>
</g>
</svg>
