<?xml version="1.0" encoding="UTF-8" standalone="no"?>
<!DOCTYPE svg PUBLIC "-//W3C//DTD SVG 1.1//EN"
 "http://www.w3.org/Graphics/SVG/1.1/DTD/svg11.dtd">
<!-- Generated by graphviz version 2.38.0 (20140413.2041)
 -->
<!-- Title: panda::MicroJet::setStatus Pages: 1 -->
<svg width="449pt" height="29pt"
 viewBox="0.00 0.00 448.68 29.00" xmlns="http://www.w3.org/2000/svg" xmlns:xlink="http://www.w3.org/1999/xlink">
<g id="graph0" class="graph" transform="scale(1 1) rotate(0) translate(4 25)">
<title>panda::MicroJet::setStatus</title>
<polygon fill="white" stroke="none" points="-4,4 -4,-25 444.679,-25 444.679,4 -4,4"/>
<!-- Node1 -->
<g id="node1" class="node"><title>Node1</title>
<polygon fill="#bfbfbf" stroke="black" points="-2.84217e-14,-0.5 -2.84217e-14,-20.5 134.368,-20.5 134.368,-0.5 -2.84217e-14,-0.5"/>
<text text-anchor="middle" x="67.184" y="-7.5" font-family="Helvetica,sans-Serif" font-size="10.00">panda::MicroJet::setStatus</text>
</g>
<!-- Node2 -->
<g id="node2" class="node"><title>Node2</title>
<g id="a_node2"><a xlink:href="classpanda_1_1Jet.html#afa2e8a9a09a34cddb5ce810c8b5a964a" target="_top" xlink:title="Set status of branches with names that correspond to the variables of this object. ">
<polygon fill="white" stroke="black" points="170.368,-0.5 170.368,-20.5 280.3,-20.5 280.3,-0.5 170.368,-0.5"/>
<text text-anchor="middle" x="225.334" y="-7.5" font-family="Helvetica,sans-Serif" font-size="10.00">panda::Jet::setStatus</text>
</a>
</g>
</g>
<!-- Node1&#45;&gt;Node2 -->
<g id="edge1" class="edge"><title>Node1&#45;&gt;Node2</title>
<path fill="none" stroke="midnightblue" d="M144.57,-10.5C153.261,-10.5 161.979,-10.5 170.295,-10.5"/>
<polygon fill="midnightblue" stroke="midnightblue" points="144.406,-7.0001 134.406,-10.5 144.406,-14.0001 144.406,-7.0001"/>
</g>
<!-- Node3 -->
<g id="node3" class="node"><title>Node3</title>
<g id="a_node3"><a xlink:href="classpanda_1_1FatJet.html#a0b0f30a26fe1e58a47217baf71978e90" target="_top" xlink:title="Set status of branches with names that correspond to the variables of this object. ">
<polygon fill="white" stroke="black" points="316.3,-0.5 316.3,-20.5 440.679,-20.5 440.679,-0.5 316.3,-0.5"/>
<text text-anchor="middle" x="378.489" y="-7.5" font-family="Helvetica,sans-Serif" font-size="10.00">panda::FatJet::setStatus</text>
</a>
</g>
</g>
<!-- Node2&#45;&gt;Node3 -->
<g id="edge2" class="edge"><title>Node2&#45;&gt;Node3</title>
<path fill="none" stroke="midnightblue" d="M290.697,-10.5C299.177,-10.5 307.85,-10.5 316.275,-10.5"/>
<polygon fill="midnightblue" stroke="midnightblue" points="290.478,-7.0001 280.478,-10.5 290.478,-14.0001 290.478,-7.0001"/>
</g>
</g>
</svg>
