<?xml version="1.0" encoding="UTF-8" standalone="no"?>
<!DOCTYPE svg PUBLIC "-//W3C//DTD SVG 1.1//EN"
 "http://www.w3.org/Graphics/SVG/1.1/DTD/svg11.dtd">
<!-- Generated by graphviz version 2.38.0 (20140413.2041)
 -->
<!-- Title: panda::Photon Pages: 1 -->
<svg width="455pt" height="324pt"
 viewBox="0.00 0.00 455.14 324.00" xmlns="http://www.w3.org/2000/svg" xmlns:xlink="http://www.w3.org/1999/xlink">
<g id="graph0" class="graph" transform="scale(1 1) rotate(0) translate(4 320)">
<title>panda::Photon</title>
<polygon fill="white" stroke="none" points="-4,4 -4,-320 451.143,-320 451.143,4 -4,4"/>
<!-- Node1 -->
<g id="node1" class="node"><title>Node1</title>
<polygon fill="#bfbfbf" stroke="black" points="130.165,-0.5 130.165,-20.5 211.202,-20.5 211.202,-0.5 130.165,-0.5"/>
<text text-anchor="middle" x="170.683" y="-7.5" font-family="Helvetica,sans-Serif" font-size="10.00">panda::Photon</text>
</g>
<!-- Node2 -->
<g id="node2" class="node"><title>Node2</title>
<g id="a_node2"><a xlink:href="classpanda_1_1Particle.html" target="_top" xlink:title="panda::Particle">
<polygon fill="white" stroke="black" points="41.3405,-120.5 41.3405,-140.5 124.026,-140.5 124.026,-120.5 41.3405,-120.5"/>
<text text-anchor="middle" x="82.6835" y="-127.5" font-family="Helvetica,sans-Serif" font-size="10.00">panda::Particle</text>
</a>
</g>
</g>
<!-- Node2&#45;&gt;Node1 -->
<g id="edge1" class="edge"><title>Node2&#45;&gt;Node1</title>
<path fill="none" stroke="midnightblue" d="M88.5456,-110.491C92.9297,-98.0146 99.7116,-81.7157 108.683,-69 122.564,-49.328 144.105,-31.2627 157.795,-20.819"/>
<polygon fill="midnightblue" stroke="midnightblue" points="85.1238,-109.691 85.3153,-120.285 91.7716,-111.884 85.1238,-109.691"/>
</g>
<!-- Node3 -->
<g id="node3" class="node"><title>Node3</title>
<g id="a_node3"><a xlink:href="classpanda_1_1ContainerElement.html" target="_top" xlink:title="panda::ContainerElement">
<polygon fill="white" stroke="black" points="-1.42109e-14,-198.5 -1.42109e-14,-218.5 129.367,-218.5 129.367,-198.5 -1.42109e-14,-198.5"/>
<text text-anchor="middle" x="64.6835" y="-205.5" font-family="Helvetica,sans-Serif" font-size="10.00">panda::ContainerElement</text>
</a>
</g>
</g>
<!-- Node3&#45;&gt;Node2 -->
<g id="edge2" class="edge"><title>Node3&#45;&gt;Node2</title>
<path fill="none" stroke="midnightblue" d="M69.1814,-188.509C72.814,-173.171 77.7646,-152.269 80.5508,-140.505"/>
<polygon fill="midnightblue" stroke="midnightblue" points="65.718,-187.946 66.819,-198.483 72.5295,-189.559 65.718,-187.946"/>
</g>
<!-- Node4 -->
<g id="node4" class="node"><title>Node4</title>
<g id="a_node4"><a xlink:href="classpanda_1_1Object.html" target="_top" xlink:title="panda::Object">
<polygon fill="white" stroke="black" points="89.5595,-295.5 89.5595,-315.5 167.807,-315.5 167.807,-295.5 89.5595,-295.5"/>
<text text-anchor="middle" x="128.683" y="-302.5" font-family="Helvetica,sans-Serif" font-size="10.00">panda::Object</text>
</a>
</g>
</g>
<!-- Node4&#45;&gt;Node3 -->
<g id="edge3" class="edge"><title>Node4&#45;&gt;Node3</title>
<path fill="none" stroke="midnightblue" d="M116.778,-286.828C103.19,-266.659 81.4822,-234.436 70.8955,-218.721"/>
<polygon fill="midnightblue" stroke="midnightblue" points="114.057,-289.053 122.547,-295.391 119.862,-285.142 114.057,-289.053"/>
</g>
<!-- Node6 -->
<g id="node6" class="node"><title>Node6</title>
<g id="a_node6"><a xlink:href="classpanda_1_1ContainerBase.html" target="_top" xlink:title="Base class for all containers. ">
<polygon fill="white" stroke="black" points="141.943,-237.5 141.943,-257.5 257.424,-257.5 257.424,-237.5 141.943,-237.5"/>
<text text-anchor="middle" x="199.683" y="-244.5" font-family="Helvetica,sans-Serif" font-size="10.00">panda::ContainerBase</text>
</a>
</g>
</g>
<!-- Node4&#45;&gt;Node6 -->
<g id="edge6" class="edge"><title>Node4&#45;&gt;Node6</title>
<path fill="none" stroke="midnightblue" d="M148.604,-288.788C161.374,-278.716 177.498,-265.998 188.177,-257.575"/>
<polygon fill="midnightblue" stroke="midnightblue" points="146.092,-286.312 140.408,-295.253 150.427,-291.808 146.092,-286.312"/>
</g>
<!-- Node5 -->
<g id="node5" class="node"><title>Node5</title>
<g id="a_node5"><a xlink:href="classpanda_1_1Ref.html" target="_top" xlink:title="panda::Ref\&lt; panda::\lSuperCluster \&gt;">
<polygon fill="white" stroke="black" points="117.243,-69.5 117.243,-101.5 224.124,-101.5 224.124,-69.5 117.243,-69.5"/>
<text text-anchor="start" x="125.243" y="-88.5" font-family="Helvetica,sans-Serif" font-size="10.00">panda::Ref&lt; panda::</text>
<text text-anchor="middle" x="170.683" y="-76.5" font-family="Helvetica,sans-Serif" font-size="10.00">SuperCluster &gt;</text>
</a>
</g>
</g>
<!-- Node5&#45;&gt;Node1 -->
<g id="edge4" class="edge"><title>Node5&#45;&gt;Node1</title>
<path fill="none" stroke="#9a32cd" stroke-dasharray="5,2" d="M170.683,-59.2759C170.683,-45.8878 170.683,-30.2553 170.683,-20.6163"/>
<polygon fill="#9a32cd" stroke="#9a32cd" points="167.184,-59.3743 170.683,-69.3744 174.184,-59.3744 167.184,-59.3743"/>
<text text-anchor="middle" x="200.408" y="-42" font-family="Helvetica,sans-Serif" font-size="10.00"> superCluster</text>
</g>
<!-- Node6&#45;&gt;Node5 -->
<g id="edge5" class="edge"><title>Node6&#45;&gt;Node5</title>
<path fill="none" stroke="#9a32cd" stroke-dasharray="5,2" d="M183.645,-229.367C173.013,-216.775 159.996,-198.672 154.224,-180 145.899,-153.073 156.04,-120.401 163.692,-101.673"/>
<polygon fill="#9a32cd" stroke="#9a32cd" points="181.266,-231.96 190.507,-237.142 186.515,-227.328 181.266,-231.96"/>
<text text-anchor="middle" x="179.413" y="-166.5" font-family="Helvetica,sans-Serif" font-size="10.00"> container_</text>
</g>
<!-- Node7 -->
<g id="node7" class="node"><title>Node7</title>
<g id="a_node7"><a xlink:href="classpanda_1_1Ref.html" target="_top" xlink:title="panda::Ref\&lt; E \&gt;">
<polygon fill="white" stroke="black" points="212.276,-159.5 212.276,-179.5 301.091,-179.5 301.091,-159.5 212.276,-159.5"/>
<text text-anchor="middle" x="256.683" y="-166.5" font-family="Helvetica,sans-Serif" font-size="10.00">panda::Ref&lt; E &gt;</text>
</a>
</g>
</g>
<!-- Node6&#45;&gt;Node7 -->
<g id="edge8" class="edge"><title>Node6&#45;&gt;Node7</title>
<path fill="none" stroke="#9a32cd" stroke-dasharray="5,2" d="M212.606,-229.27C224.202,-213.809 240.764,-191.726 249.93,-179.505"/>
<polygon fill="#9a32cd" stroke="#9a32cd" points="209.646,-227.383 206.446,-237.483 215.246,-231.583 209.646,-227.383"/>
<text text-anchor="middle" x="260.413" y="-205.5" font-family="Helvetica,sans-Serif" font-size="10.00"> container_</text>
</g>
<!-- Node8 -->
<g id="node8" class="node"><title>Node8</title>
<g id="a_node8"><a xlink:href="classpanda_1_1Ref.html" target="_top" xlink:title="panda::Ref\&lt; panda::\lGenParticle \&gt;">
<polygon fill="white" stroke="black" points="259.243,-69.5 259.243,-101.5 366.124,-101.5 366.124,-69.5 259.243,-69.5"/>
<text text-anchor="start" x="267.243" y="-88.5" font-family="Helvetica,sans-Serif" font-size="10.00">panda::Ref&lt; panda::</text>
<text text-anchor="middle" x="312.683" y="-76.5" font-family="Helvetica,sans-Serif" font-size="10.00">GenParticle &gt;</text>
</a>
</g>
</g>
<!-- Node6&#45;&gt;Node8 -->
<g id="edge10" class="edge"><title>Node6&#45;&gt;Node8</title>
<path fill="none" stroke="#9a32cd" stroke-dasharray="5,2" d="M263.34,-235.008C314.289,-221.967 381.966,-195.034 411.683,-141 424.495,-117.706 396.009,-103.802 366.353,-95.8744"/>
<polygon fill="#9a32cd" stroke="#9a32cd" points="262.275,-231.665 253.389,-237.434 263.933,-238.465 262.275,-231.665"/>
<text text-anchor="middle" x="422.413" y="-166.5" font-family="Helvetica,sans-Serif" font-size="10.00"> container_</text>
</g>
<!-- Node7&#45;&gt;Node5 -->
<g id="edge7" class="edge"><title>Node7&#45;&gt;Node5</title>
<path fill="none" stroke="orange" stroke-dasharray="5,2" d="M202.272,-159.978C191.76,-155.882 181.883,-149.855 174.976,-141 166.338,-129.924 166.253,-113.439 167.719,-101.501"/>
<polygon fill="orange" stroke="orange" points="201.445,-163.391 212.039,-163.222 203.652,-156.748 201.445,-163.391"/>
<text text-anchor="middle" x="231.537" y="-127.5" font-family="Helvetica,sans-Serif" font-size="10.00"> &lt; panda::SuperCluster &gt;</text>
</g>
<!-- Node7&#45;&gt;Node8 -->
<g id="edge11" class="edge"><title>Node7&#45;&gt;Node8</title>
<path fill="none" stroke="orange" stroke-dasharray="5,2" d="M279.105,-153.097C283.33,-149.48 287.436,-145.388 290.683,-141 299.425,-129.19 305.293,-113.422 308.755,-101.886"/>
<polygon fill="orange" stroke="orange" points="276.744,-150.5 271.025,-159.419 281.058,-156.013 276.744,-150.5"/>
<text text-anchor="middle" x="354.482" y="-127.5" font-family="Helvetica,sans-Serif" font-size="10.00"> &lt; panda::GenParticle &gt;</text>
</g>
<!-- Node8&#45;&gt;Node1 -->
<g id="edge9" class="edge"><title>Node8&#45;&gt;Node1</title>
<path fill="none" stroke="#9a32cd" stroke-dasharray="5,2" d="M279.413,-64.2426C265.477,-56.0458 248.986,-46.7167 233.683,-39 220.47,-32.3368 205.276,-25.6766 193.121,-20.5797"/>
<polygon fill="#9a32cd" stroke="#9a32cd" points="277.779,-67.3425 288.165,-69.4373 281.352,-61.3231 277.779,-67.3425"/>
<text text-anchor="middle" x="286.693" y="-42" font-family="Helvetica,sans-Serif" font-size="10.00"> matchedGen</text>
</g>
</g>
</svg>
