<?xml version="1.0" encoding="UTF-8" standalone="no"?>
<!DOCTYPE svg PUBLIC "-//W3C//DTD SVG 1.1//EN"
 "http://www.w3.org/Graphics/SVG/1.1/DTD/svg11.dtd">
<!-- Generated by graphviz version 2.38.0 (20140413.2041)
 -->
<!-- Title: panda::Container::max_ Pages: 1 -->
<svg width="300pt" height="80pt"
 viewBox="0.00 0.00 299.96 80.00" xmlns="http://www.w3.org/2000/svg" xmlns:xlink="http://www.w3.org/1999/xlink">
<g id="graph0" class="graph" transform="scale(1 1) rotate(0) translate(4 76)">
<title>panda::Container::max_</title>
<polygon fill="white" stroke="none" points="-4,4 -4,-76 295.964,-76 295.964,4 -4,4"/>
<!-- Node1 -->
<g id="node1" class="node"><title>Node1</title>
<polygon fill="#bfbfbf" stroke="black" points="-1.42109e-14,-28.5 -1.42109e-14,-48.5 122.699,-48.5 122.699,-28.5 -1.42109e-14,-28.5"/>
<text text-anchor="middle" x="61.3495" y="-35.5" font-family="Helvetica,sans-Serif" font-size="10.00">panda::Container::max_</text>
</g>
<!-- Node2 -->
<g id="node2" class="node"><title>Node2</title>
<g id="a_node2"><a xlink:href="classpanda_1_1Container.html#ae8c189c8e337af593b268455a2dda89f" target="_top" xlink:title="panda::Container::getData">
<polygon fill="white" stroke="black" points="158.699,-51.5 158.699,-71.5 291.964,-71.5 291.964,-51.5 158.699,-51.5"/>
<text text-anchor="middle" x="225.331" y="-58.5" font-family="Helvetica,sans-Serif" font-size="10.00">panda::Container::getData</text>
</a>
</g>
</g>
<!-- Node1&#45;&gt;Node2 -->
<g id="edge1" class="edge"><title>Node1&#45;&gt;Node2</title>
<path fill="none" stroke="midnightblue" d="M123.126,-47.1298C131.45,-48.3117 140.078,-49.5367 148.627,-50.7506"/>
<polygon fill="midnightblue" stroke="midnightblue" points="148.21,-54.2265 158.603,-52.1672 149.195,-47.296 148.21,-54.2265"/>
</g>
<!-- Node3 -->
<g id="node3" class="node"><title>Node3</title>
<g id="a_node3"><a xlink:href="structpanda_1_1ContainerElement_1_1datastore.html#aff3ea42523fa1d980435a5085c8f1289" target="_top" xlink:title="panda::ContainerElement\l::datastore::nmax">
<polygon fill="white" stroke="black" points="160.648,-0.5 160.648,-32.5 290.015,-32.5 290.015,-0.5 160.648,-0.5"/>
<text text-anchor="start" x="168.648" y="-19.5" font-family="Helvetica,sans-Serif" font-size="10.00">panda::ContainerElement</text>
<text text-anchor="middle" x="225.331" y="-7.5" font-family="Helvetica,sans-Serif" font-size="10.00">::datastore::nmax</text>
</a>
</g>
</g>
<!-- Node1&#45;&gt;Node3 -->
<g id="edge2" class="edge"><title>Node1&#45;&gt;Node3</title>
<path fill="none" stroke="midnightblue" d="M123.126,-30.2454C131.997,-29.0406 141.213,-27.7889 150.311,-26.5533"/>
<polygon fill="midnightblue" stroke="midnightblue" points="151.07,-29.9824 160.508,-25.1683 150.128,-23.0461 151.07,-29.9824"/>
</g>
</g>
</svg>
