<?xml version="1.0" encoding="UTF-8" standalone="no"?>
<!DOCTYPE svg PUBLIC "-//W3C//DTD SVG 1.1//EN"
 "http://www.w3.org/Graphics/SVG/1.1/DTD/svg11.dtd">
<!-- Generated by graphviz version 2.38.0 (20140413.2041)
 -->
<!-- Title: panda::Electron::destructor Pages: 1 -->
<svg width="644pt" height="41pt"
 viewBox="0.00 0.00 644.04 41.00" xmlns="http://www.w3.org/2000/svg" xmlns:xlink="http://www.w3.org/1999/xlink">
<g id="graph0" class="graph" transform="scale(1 1) rotate(0) translate(4 37)">
<title>panda::Electron::destructor</title>
<polygon fill="white" stroke="none" points="-4,4 -4,-37 640.036,-37 640.036,4 -4,4"/>
<!-- Node1 -->
<g id="node1" class="node"><title>Node1</title>
<polygon fill="#bfbfbf" stroke="black" points="2.84217e-14,-6.5 2.84217e-14,-26.5 136.036,-26.5 136.036,-6.5 2.84217e-14,-6.5"/>
<text text-anchor="middle" x="68.018" y="-13.5" font-family="Helvetica,sans-Serif" font-size="10.00">panda::Electron::destructor</text>
</g>
<!-- Node2 -->
<g id="node2" class="node"><title>Node2</title>
<g id="a_node2"><a xlink:href="classpanda_1_1Lepton.html#af8bb4d531bdddbf51f479f7eb0dae175" target="_top" xlink:title="Destructor implementation. ">
<polygon fill="white" stroke="black" points="172.036,-6.5 172.036,-26.5 301.973,-26.5 301.973,-6.5 172.036,-6.5"/>
<text text-anchor="middle" x="237.005" y="-13.5" font-family="Helvetica,sans-Serif" font-size="10.00">panda::Lepton::destructor</text>
</a>
</g>
</g>
<!-- Node1&#45;&gt;Node2 -->
<g id="edge1" class="edge"><title>Node1&#45;&gt;Node2</title>
<path fill="none" stroke="midnightblue" d="M136.456,-16.5C144.758,-16.5 153.279,-16.5 161.676,-16.5"/>
<polygon fill="midnightblue" stroke="midnightblue" points="161.832,-20.0001 171.832,-16.5 161.832,-13.0001 161.832,-20.0001"/>
</g>
<!-- Node3 -->
<g id="node3" class="node"><title>Node3</title>
<g id="a_node3"><a xlink:href="classpanda_1_1Particle.html#ad1a5f606b804ac2ec5d7e391aba6bda6" target="_top" xlink:title="Destructor implementation. ">
<polygon fill="white" stroke="black" points="337.973,-6.5 337.973,-26.5 470.669,-26.5 470.669,-6.5 337.973,-6.5"/>
<text text-anchor="middle" x="404.321" y="-13.5" font-family="Helvetica,sans-Serif" font-size="10.00">panda::Particle::destructor</text>
</a>
</g>
</g>
<!-- Node2&#45;&gt;Node3 -->
<g id="edge2" class="edge"><title>Node2&#45;&gt;Node3</title>
<path fill="none" stroke="midnightblue" d="M302.394,-16.5C310.644,-16.5 319.149,-16.5 327.559,-16.5"/>
<polygon fill="midnightblue" stroke="midnightblue" points="327.746,-20.0001 337.746,-16.5 327.746,-13.0001 327.746,-20.0001"/>
</g>
<!-- Node4 -->
<g id="node4" class="node"><title>Node4</title>
<g id="a_node4"><a xlink:href="classpanda_1_1ContainerElement.html#aa1c71695dae992e82bf91f354aa8480c" target="_top" xlink:title="Destructor implementation. ">
<polygon fill="white" stroke="black" points="506.669,-0.5 506.669,-32.5 636.036,-32.5 636.036,-0.5 506.669,-0.5"/>
<text text-anchor="start" x="514.669" y="-19.5" font-family="Helvetica,sans-Serif" font-size="10.00">panda::ContainerElement</text>
<text text-anchor="middle" x="571.353" y="-7.5" font-family="Helvetica,sans-Serif" font-size="10.00">::destructor</text>
</a>
</g>
</g>
<!-- Node3&#45;&gt;Node4 -->
<g id="edge3" class="edge"><title>Node3&#45;&gt;Node4</title>
<path fill="none" stroke="midnightblue" d="M471.02,-16.5C479.328,-16.5 487.872,-16.5 496.299,-16.5"/>
<polygon fill="midnightblue" stroke="midnightblue" points="496.494,-20.0001 506.494,-16.5 496.493,-13.0001 496.494,-20.0001"/>
</g>
</g>
</svg>
