<?xml version="1.0" encoding="UTF-8" standalone="no"?>
<!DOCTYPE svg PUBLIC "-//W3C//DTD SVG 1.1//EN"
 "http://www.w3.org/Graphics/SVG/1.1/DTD/svg11.dtd">
<!-- Generated by graphviz version 2.38.0 (20140413.2041)
 -->
<!-- Title: panda::Particle::releaseTree Pages: 1 -->
<svg width="490pt" height="125pt"
 viewBox="0.00 0.00 489.76 125.00" xmlns="http://www.w3.org/2000/svg" xmlns:xlink="http://www.w3.org/1999/xlink">
<g id="graph0" class="graph" transform="scale(1 1) rotate(0) translate(4 121)">
<title>panda::Particle::releaseTree</title>
<polygon fill="white" stroke="none" points="-4,4 -4,-121 485.758,-121 485.758,4 -4,4"/>
<!-- Node1 -->
<g id="node1" class="node"><title>Node1</title>
<polygon fill="#bfbfbf" stroke="black" points="-1.42109e-14,-51.5 -1.42109e-14,-71.5 141.584,-71.5 141.584,-51.5 -1.42109e-14,-51.5"/>
<text text-anchor="middle" x="70.792" y="-58.5" font-family="Helvetica,sans-Serif" font-size="10.00">panda::Particle::releaseTree</text>
</g>
<!-- Node2 -->
<g id="node2" class="node"><title>Node2</title>
<g id="a_node2"><a xlink:href="classpanda_1_1Object.html#aaf58438092b42a89b838ce12c6a23833" target="_top" xlink:title="Reset the branch pointer to unlink the branch from this object. ">
<polygon fill="white" stroke="black" points="177.584,-96.5 177.584,-116.5 314.73,-116.5 314.73,-96.5 177.584,-96.5"/>
<text text-anchor="middle" x="246.157" y="-103.5" font-family="Helvetica,sans-Serif" font-size="10.00">panda::Object::releaseTree</text>
</a>
</g>
</g>
<!-- Node1&#45;&gt;Node2 -->
<g id="edge1" class="edge"><title>Node1&#45;&gt;Node2</title>
<path fill="none" stroke="midnightblue" d="M110.698,-71.5989C136.127,-78.1994 169.534,-86.8706 196.686,-93.9185"/>
<polygon fill="midnightblue" stroke="midnightblue" points="195.822,-97.3101 206.38,-96.4348 197.58,-90.5346 195.822,-97.3101"/>
</g>
<!-- Node3 -->
<g id="node3" class="node"><title>Node3</title>
<g id="a_node3"><a xlink:href="classpanda_1_1utils_1_1StoreManager.html#a6f30ec459d951e84a1196b7e2ffdcf49" target="_top" xlink:title="panda::utils::StoreManager\l::getName">
<polygon fill="white" stroke="black" points="178.139,-45.5 178.139,-77.5 314.174,-77.5 314.174,-45.5 178.139,-45.5"/>
<text text-anchor="start" x="186.139" y="-64.5" font-family="Helvetica,sans-Serif" font-size="10.00">panda::utils::StoreManager</text>
<text text-anchor="middle" x="246.157" y="-52.5" font-family="Helvetica,sans-Serif" font-size="10.00">::getName</text>
</a>
</g>
</g>
<!-- Node1&#45;&gt;Node3 -->
<g id="edge2" class="edge"><title>Node1&#45;&gt;Node3</title>
<path fill="none" stroke="midnightblue" d="M141.806,-61.5C150.385,-61.5 159.189,-61.5 167.867,-61.5"/>
<polygon fill="midnightblue" stroke="midnightblue" points="167.974,-65.0001 177.974,-61.5 167.973,-58.0001 167.974,-65.0001"/>
</g>
<!-- Node4 -->
<g id="node4" class="node"><title>Node4</title>
<g id="a_node4"><a xlink:href="namespacepanda_1_1utils.html#a82a8530e64fbdf917cf9b8659065f98b" target="_top" xlink:title="panda::utils::resetAddress">
<polygon fill="white" stroke="black" points="180.363,-6.5 180.363,-26.5 311.951,-26.5 311.951,-6.5 180.363,-6.5"/>
<text text-anchor="middle" x="246.157" y="-13.5" font-family="Helvetica,sans-Serif" font-size="10.00">panda::utils::resetAddress</text>
</a>
</g>
</g>
<!-- Node1&#45;&gt;Node4 -->
<g id="edge3" class="edge"><title>Node1&#45;&gt;Node4</title>
<path fill="none" stroke="midnightblue" d="M110.698,-51.4011C136.127,-44.8006 169.534,-36.1294 196.686,-29.0815"/>
<polygon fill="midnightblue" stroke="midnightblue" points="197.58,-32.4654 206.38,-26.5652 195.822,-25.6899 197.58,-32.4654"/>
</g>
<!-- Node5 -->
<g id="node5" class="node"><title>Node5</title>
<g id="a_node5"><a xlink:href="classpanda_1_1utils_1_1BranchName.html#a13958ff4a9d554d2c057c600b4f70412" target="_top" xlink:title="Prepend the branch name with &lt;objName.&gt;. ">
<polygon fill="white" stroke="black" points="350.73,-0.5 350.73,-32.5 481.758,-32.5 481.758,-0.5 350.73,-0.5"/>
<text text-anchor="start" x="358.73" y="-19.5" font-family="Helvetica,sans-Serif" font-size="10.00">panda::utils::BranchName</text>
<text text-anchor="middle" x="416.244" y="-7.5" font-family="Helvetica,sans-Serif" font-size="10.00">::fullName</text>
</a>
</g>
</g>
<!-- Node4&#45;&gt;Node5 -->
<g id="edge4" class="edge"><title>Node4&#45;&gt;Node5</title>
<path fill="none" stroke="midnightblue" d="M312.144,-16.5C321.438,-16.5 331.061,-16.5 340.524,-16.5"/>
<polygon fill="midnightblue" stroke="midnightblue" points="340.707,-20.0001 350.707,-16.5 340.707,-13.0001 340.707,-20.0001"/>
</g>
</g>
</svg>
