<?xml version="1.0" encoding="UTF-8" standalone="no"?>
<!DOCTYPE svg PUBLIC "-//W3C//DTD SVG 1.1//EN"
 "http://www.w3.org/Graphics/SVG/1.1/DTD/svg11.dtd">
<!-- Generated by graphviz version 2.38.0 (20140413.2041)
 -->
<!-- Title: panda::CollectionBase::init Pages: 1 -->
<svg width="447pt" height="92pt"
 viewBox="0.00 0.00 446.98 92.00" xmlns="http://www.w3.org/2000/svg" xmlns:xlink="http://www.w3.org/1999/xlink">
<g id="graph0" class="graph" transform="scale(1 1) rotate(0) translate(4 88)">
<title>panda::CollectionBase::init</title>
<polygon fill="white" stroke="none" points="-4,4 -4,-88 442.98,-88 442.98,4 -4,4"/>
<!-- Node1 -->
<g id="node1" class="node"><title>Node1</title>
<polygon fill="#bfbfbf" stroke="black" points="-1.42109e-14,-25.5 -1.42109e-14,-57.5 116.031,-57.5 116.031,-25.5 -1.42109e-14,-25.5"/>
<text text-anchor="start" x="8" y="-44.5" font-family="Helvetica,sans-Serif" font-size="10.00">panda::CollectionBase</text>
<text text-anchor="middle" x="58.0155" y="-32.5" font-family="Helvetica,sans-Serif" font-size="10.00">::init</text>
</g>
<!-- Node2 -->
<g id="node2" class="node"><title>Node2</title>
<g id="a_node2"><a xlink:href="classpanda_1_1CollectionBase.html#a5820623424a01aa34f3988ead2612576" target="_top" xlink:title="panda::CollectionBase\l::clear">
<polygon fill="white" stroke="black" points="152.031,-25.5 152.031,-57.5 268.062,-57.5 268.062,-25.5 152.031,-25.5"/>
<text text-anchor="start" x="160.031" y="-44.5" font-family="Helvetica,sans-Serif" font-size="10.00">panda::CollectionBase</text>
<text text-anchor="middle" x="210.046" y="-32.5" font-family="Helvetica,sans-Serif" font-size="10.00">::clear</text>
</a>
</g>
</g>
<!-- Node1&#45;&gt;Node2 -->
<g id="edge1" class="edge"><title>Node1&#45;&gt;Node2</title>
<path fill="none" stroke="midnightblue" d="M116.164,-41.5C124.406,-41.5 132.954,-41.5 141.377,-41.5"/>
<polygon fill="midnightblue" stroke="midnightblue" points="141.56,-45.0001 151.56,-41.5 141.56,-38.0001 141.56,-45.0001"/>
</g>
<!-- Node3 -->
<g id="node3" class="node"><title>Node3</title>
<g id="a_node3"><a xlink:href="classpanda_1_1ContainerBase.html#a14b14c940d7c8b0ce870c7df333e18a7" target="_top" xlink:title="panda::ContainerBase\l::getData">
<polygon fill="white" stroke="black" points="313.78,-51.5 313.78,-83.5 429.261,-83.5 429.261,-51.5 313.78,-51.5"/>
<text text-anchor="start" x="321.78" y="-70.5" font-family="Helvetica,sans-Serif" font-size="10.00">panda::ContainerBase</text>
<text text-anchor="middle" x="371.521" y="-58.5" font-family="Helvetica,sans-Serif" font-size="10.00">::getData</text>
</a>
</g>
</g>
<!-- Node2&#45;&gt;Node3 -->
<g id="edge2" class="edge"><title>Node2&#45;&gt;Node3</title>
<path fill="none" stroke="midnightblue" d="M268.17,-50.8132C279.576,-52.6727 291.654,-54.6419 303.362,-56.5507"/>
<polygon fill="midnightblue" stroke="midnightblue" points="303.096,-60.0534 313.528,-58.2082 304.222,-53.1446 303.096,-60.0534"/>
</g>
<!-- Node4 -->
<g id="node4" class="node"><title>Node4</title>
<g id="a_node4"><a xlink:href="structpanda_1_1ContainerElement_1_1datastore.html#ac050bf7055f0c53b4aff4234e2de6e20" target="_top" xlink:title="Override when there are vector members. ">
<polygon fill="white" stroke="black" points="304.062,-0.5 304.062,-32.5 438.98,-32.5 438.98,-0.5 304.062,-0.5"/>
<text text-anchor="start" x="312.062" y="-19.5" font-family="Helvetica,sans-Serif" font-size="10.00">panda::ContainerElement</text>
<text text-anchor="middle" x="371.521" y="-7.5" font-family="Helvetica,sans-Serif" font-size="10.00">::datastore::resizeVectors_</text>
</a>
</g>
</g>
<!-- Node2&#45;&gt;Node4 -->
<g id="edge3" class="edge"><title>Node2&#45;&gt;Node4</title>
<path fill="none" stroke="midnightblue" d="M268.17,-32.545C276.521,-31.2359 285.233,-29.8702 293.895,-28.5122"/>
<polygon fill="midnightblue" stroke="midnightblue" points="294.68,-31.932 304.017,-26.9255 293.596,-25.0165 294.68,-31.932"/>
</g>
</g>
</svg>
