<?xml version="1.0" encoding="UTF-8" standalone="no"?>
<!DOCTYPE svg PUBLIC "-//W3C//DTD SVG 1.1//EN"
 "http://www.w3.org/Graphics/SVG/1.1/DTD/svg11.dtd">
<!-- Generated by graphviz version 2.38.0 (20140413.2041)
 -->
<!-- Title: panda::Parton::setAddress Pages: 1 -->
<svg width="1002pt" height="189pt"
 viewBox="0.00 0.00 1001.99 189.00" xmlns="http://www.w3.org/2000/svg" xmlns:xlink="http://www.w3.org/1999/xlink">
<g id="graph0" class="graph" transform="scale(1 1) rotate(0) translate(4 185)">
<title>panda::Parton::setAddress</title>
<polygon fill="white" stroke="none" points="-4,4 -4,-185 997.99,-185 997.99,4 -4,4"/>
<!-- Node1 -->
<g id="node1" class="node"><title>Node1</title>
<polygon fill="#bfbfbf" stroke="black" points="-2.84217e-14,-109.5 -2.84217e-14,-129.5 134.378,-129.5 134.378,-109.5 -2.84217e-14,-109.5"/>
<text text-anchor="middle" x="67.189" y="-116.5" font-family="Helvetica,sans-Serif" font-size="10.00">panda::Parton::setAddress</text>
</g>
<!-- Node2 -->
<g id="node2" class="node"><title>Node2</title>
<g id="a_node2"><a xlink:href="classpanda_1_1ParticleM.html#ad8aeae1e2ca26f4cdb7d079ab56a10fe" target="_top" xlink:title="Set address for the branches to the variables of this object. ">
<polygon fill="white" stroke="black" points="170.378,-109.5 170.378,-129.5 316.964,-129.5 316.964,-109.5 170.378,-109.5"/>
<text text-anchor="middle" x="243.671" y="-116.5" font-family="Helvetica,sans-Serif" font-size="10.00">panda::ParticleM::setAddress</text>
</a>
</g>
</g>
<!-- Node1&#45;&gt;Node2 -->
<g id="edge1" class="edge"><title>Node1&#45;&gt;Node2</title>
<path fill="none" stroke="midnightblue" d="M134.651,-119.5C143.026,-119.5 151.673,-119.5 160.258,-119.5"/>
<polygon fill="midnightblue" stroke="midnightblue" points="160.286,-123 170.286,-119.5 160.286,-116 160.286,-123"/>
</g>
<!-- Node5 -->
<g id="node5" class="node"><title>Node5</title>
<g id="a_node5"><a xlink:href="classpanda_1_1utils_1_1StoreManager.html#a6f30ec459d951e84a1196b7e2ffdcf49" target="_top" xlink:title="panda::utils::StoreManager\l::getName">
<polygon fill="white" stroke="black" points="527.221,-148.5 527.221,-180.5 663.256,-180.5 663.256,-148.5 527.221,-148.5"/>
<text text-anchor="start" x="535.221" y="-167.5" font-family="Helvetica,sans-Serif" font-size="10.00">panda::utils::StoreManager</text>
<text text-anchor="middle" x="595.238" y="-155.5" font-family="Helvetica,sans-Serif" font-size="10.00">::getName</text>
</a>
</g>
</g>
<!-- Node1&#45;&gt;Node5 -->
<g id="edge16" class="edge"><title>Node1&#45;&gt;Node5</title>
<path fill="none" stroke="midnightblue" d="M118.767,-129.51C135.194,-132.599 153.529,-135.875 170.378,-138.5 251.194,-151.092 271.367,-155.871 352.964,-161.5 407.668,-165.273 469.509,-165.972 516.887,-165.754"/>
<polygon fill="midnightblue" stroke="midnightblue" points="517.095,-169.253 527.073,-165.692 517.052,-162.253 517.095,-169.253"/>
</g>
<!-- Node6 -->
<g id="node6" class="node"><title>Node6</title>
<g id="a_node6"><a xlink:href="namespacepanda_1_1utils.html#abf9c62e588560197c2bae9932e6a6e05" target="_top" xlink:title="Set address. ">
<polygon fill="white" stroke="black" points="533.888,-70.5 533.888,-90.5 656.588,-90.5 656.588,-70.5 533.888,-70.5"/>
<text text-anchor="middle" x="595.238" y="-77.5" font-family="Helvetica,sans-Serif" font-size="10.00">panda::utils::setAddress</text>
</a>
</g>
</g>
<!-- Node1&#45;&gt;Node6 -->
<g id="edge17" class="edge"><title>Node1&#45;&gt;Node6</title>
<path fill="none" stroke="midnightblue" d="M114.313,-109.452C131.806,-105.911 151.948,-102.155 170.378,-99.5 251.046,-87.8806 271.568,-86.6192 352.964,-82.5 410.379,-79.5944 475.575,-79.2293 523.709,-79.5159"/>
<polygon fill="midnightblue" stroke="midnightblue" points="523.687,-83.0158 533.712,-79.5863 523.737,-76.0159 523.687,-83.0158"/>
</g>
<!-- Node3 -->
<g id="node3" class="node"><title>Node3</title>
<g id="a_node3"><a xlink:href="classpanda_1_1Particle.html#a96282cfb24384c1f00c40576069a4c7e" target="_top" xlink:title="Set address for the branches to the variables of this object. ">
<polygon fill="white" stroke="black" points="352.964,-109.5 352.964,-129.5 491.221,-129.5 491.221,-109.5 352.964,-109.5"/>
<text text-anchor="middle" x="422.092" y="-116.5" font-family="Helvetica,sans-Serif" font-size="10.00">panda::Particle::setAddress</text>
</a>
</g>
</g>
<!-- Node2&#45;&gt;Node3 -->
<g id="edge2" class="edge"><title>Node2&#45;&gt;Node3</title>
<path fill="none" stroke="midnightblue" d="M317.192,-119.5C325.57,-119.5 334.144,-119.5 342.596,-119.5"/>
<polygon fill="midnightblue" stroke="midnightblue" points="342.826,-123 352.826,-119.5 342.826,-116 342.826,-123"/>
</g>
<!-- Node2&#45;&gt;Node5 -->
<g id="edge14" class="edge"><title>Node2&#45;&gt;Node5</title>
<path fill="none" stroke="midnightblue" d="M297.712,-129.53C315.261,-132.655 334.915,-135.947 352.964,-138.5 407.567,-146.223 469.411,-152.846 516.815,-157.475"/>
<polygon fill="midnightblue" stroke="midnightblue" points="516.717,-160.981 527.008,-158.461 517.391,-154.014 516.717,-160.981"/>
</g>
<!-- Node2&#45;&gt;Node6 -->
<g id="edge15" class="edge"><title>Node2&#45;&gt;Node6</title>
<path fill="none" stroke="midnightblue" d="M293.018,-109.459C311.681,-105.876 333.25,-102.09 352.964,-99.5 410.137,-91.9901 475.35,-87.0717 523.552,-84.1246"/>
<polygon fill="midnightblue" stroke="midnightblue" points="523.798,-87.6162 533.571,-83.5254 523.38,-80.6287 523.798,-87.6162"/>
</g>
<!-- Node4 -->
<g id="node4" class="node"><title>Node4</title>
<g id="a_node4"><a xlink:href="classpanda_1_1Object.html#aed9f9d3b6abe518dd27957de843b36b5" target="_top" xlink:title="Set address for the branches to the variables of this object. ">
<polygon fill="white" stroke="black" points="528.329,-109.5 528.329,-129.5 662.148,-129.5 662.148,-109.5 528.329,-109.5"/>
<text text-anchor="middle" x="595.238" y="-116.5" font-family="Helvetica,sans-Serif" font-size="10.00">panda::Object::setAddress</text>
</a>
</g>
</g>
<!-- Node3&#45;&gt;Node4 -->
<g id="edge3" class="edge"><title>Node3&#45;&gt;Node4</title>
<path fill="none" stroke="midnightblue" d="M491.226,-119.5C500.098,-119.5 509.232,-119.5 518.223,-119.5"/>
<polygon fill="midnightblue" stroke="midnightblue" points="518.292,-123 528.292,-119.5 518.292,-116 518.292,-123"/>
</g>
<!-- Node3&#45;&gt;Node5 -->
<g id="edge4" class="edge"><title>Node3&#45;&gt;Node5</title>
<path fill="none" stroke="midnightblue" d="M461.501,-129.599C479.708,-134.386 502.058,-140.263 523.19,-145.819"/>
<polygon fill="midnightblue" stroke="midnightblue" points="522.556,-149.271 533.117,-148.429 524.336,-142.501 522.556,-149.271"/>
</g>
<!-- Node3&#45;&gt;Node6 -->
<g id="edge5" class="edge"><title>Node3&#45;&gt;Node6</title>
<path fill="none" stroke="midnightblue" d="M467.167,-109.457C489.526,-104.362 516.871,-98.1301 540.46,-92.7549"/>
<polygon fill="midnightblue" stroke="midnightblue" points="541.341,-96.1438 550.314,-90.5094 539.786,-89.3188 541.341,-96.1438"/>
</g>
<!-- Node7 -->
<g id="node7" class="node"><title>Node7</title>
<g id="a_node7"><a xlink:href="classpanda_1_1utils_1_1BranchName.html#a13958ff4a9d554d2c057c600b4f70412" target="_top" xlink:title="Prepend the branch name with &lt;objName.&gt;. ">
<polygon fill="white" stroke="black" points="856.294,-129.5 856.294,-161.5 987.322,-161.5 987.322,-129.5 856.294,-129.5"/>
<text text-anchor="start" x="864.294" y="-148.5" font-family="Helvetica,sans-Serif" font-size="10.00">panda::utils::BranchName</text>
<text text-anchor="middle" x="921.808" y="-136.5" font-family="Helvetica,sans-Serif" font-size="10.00">::fullName</text>
</a>
</g>
</g>
<!-- Node6&#45;&gt;Node7 -->
<g id="edge6" class="edge"><title>Node6&#45;&gt;Node7</title>
<path fill="none" stroke="midnightblue" d="M637.249,-90.5095C656.093,-94.9916 678.763,-100.219 699.256,-104.5 747.998,-114.682 803.046,-124.876 846.077,-132.552"/>
<polygon fill="midnightblue" stroke="midnightblue" points="845.727,-136.044 856.185,-134.348 846.952,-129.152 845.727,-136.044"/>
</g>
<!-- Node8 -->
<g id="node8" class="node"><title>Node8</title>
<g id="a_node8"><a xlink:href="namespacepanda_1_1utils.html#a01665f786d6a2acedb8f008f3fc9fc84" target="_top" xlink:title="Set status of a branch. ">
<polygon fill="white" stroke="black" points="699.256,-51.5 699.256,-71.5 813.626,-71.5 813.626,-51.5 699.256,-51.5"/>
<text text-anchor="middle" x="756.441" y="-58.5" font-family="Helvetica,sans-Serif" font-size="10.00">panda::utils::setStatus</text>
</a>
</g>
</g>
<!-- Node6&#45;&gt;Node8 -->
<g id="edge7" class="edge"><title>Node6&#45;&gt;Node8</title>
<path fill="none" stroke="midnightblue" d="M656.88,-73.2627C667.402,-72.007 678.392,-70.6954 689.057,-69.4226"/>
<polygon fill="midnightblue" stroke="midnightblue" points="689.642,-72.8777 699.156,-68.2173 688.812,-65.9271 689.642,-72.8777"/>
</g>
<!-- Node9 -->
<g id="node9" class="node"><title>Node9</title>
<g id="a_node9"><a xlink:href="classpanda_1_1utils_1_1BranchName.html#a6cc8a6df7c5b12a0221fd49773cca6a7" target="_top" xlink:title="Is the name included and not vetoed? ">
<polygon fill="white" stroke="black" points="849.626,-90.5 849.626,-110.5 993.99,-110.5 993.99,-90.5 849.626,-90.5"/>
<text text-anchor="middle" x="921.808" y="-97.5" font-family="Helvetica,sans-Serif" font-size="10.00">panda::utils::BranchName::in</text>
</a>
</g>
</g>
<!-- Node6&#45;&gt;Node9 -->
<g id="edge12" class="edge"><title>Node6&#45;&gt;Node9</title>
<path fill="none" stroke="midnightblue" d="M656.907,-84.2384C708.401,-87.4114 782.734,-91.9919 839.397,-95.4835"/>
<polygon fill="midnightblue" stroke="midnightblue" points="839.207,-98.9783 849.404,-96.1001 839.638,-91.9916 839.207,-98.9783"/>
</g>
<!-- Node11 -->
<g id="node11" class="node"><title>Node11</title>
<g id="a_node11"><a xlink:href="namespacepanda_1_1utils.html#aafa411773a4b0ee829d99e6e5a0abdcd" target="_top" xlink:title="Check status of a branch. ">
<polygon fill="white" stroke="black" points="858.233,-0.5 858.233,-20.5 985.383,-20.5 985.383,-0.5 858.233,-0.5"/>
<text text-anchor="middle" x="921.808" y="-7.5" font-family="Helvetica,sans-Serif" font-size="10.00">panda::utils::checkStatus</text>
</a>
</g>
</g>
<!-- Node6&#45;&gt;Node11 -->
<g id="edge13" class="edge"><title>Node6&#45;&gt;Node11</title>
<path fill="none" stroke="midnightblue" d="M618.681,-70.3361C639.24,-61.4299 670.724,-48.7993 699.256,-41.5 748.127,-28.9973 804.437,-21.2015 848.059,-16.5548"/>
<polygon fill="midnightblue" stroke="midnightblue" points="848.425,-20.0357 858.012,-15.5255 847.705,-13.0728 848.425,-20.0357"/>
</g>
<!-- Node8&#45;&gt;Node7 -->
<g id="edge10" class="edge"><title>Node8&#45;&gt;Node7</title>
<path fill="none" stroke="midnightblue" d="M771.271,-71.5109C788.849,-83.9212 820.425,-105.181 849.626,-119.5 853.904,-121.598 858.397,-123.623 862.958,-125.553"/>
<polygon fill="midnightblue" stroke="midnightblue" points="861.785,-128.854 872.367,-129.376 864.42,-122.369 861.785,-128.854"/>
</g>
<!-- Node8&#45;&gt;Node9 -->
<g id="edge8" class="edge"><title>Node8&#45;&gt;Node9</title>
<path fill="none" stroke="midnightblue" d="M799.512,-71.5435C820.664,-76.593 846.492,-82.7587 868.87,-88.1009"/>
<polygon fill="midnightblue" stroke="midnightblue" points="868.34,-91.5728 878.88,-90.4906 869.966,-84.7641 868.34,-91.5728"/>
</g>
<!-- Node10 -->
<g id="node10" class="node"><title>Node10</title>
<g id="a_node10"><a xlink:href="classpanda_1_1utils_1_1BranchName.html#ae3332329bf2afae5ed8e7c35e5d77ffa" target="_top" xlink:title="Is the name included and vetoed? ">
<polygon fill="white" stroke="black" points="856.294,-39.5 856.294,-71.5 987.322,-71.5 987.322,-39.5 856.294,-39.5"/>
<text text-anchor="start" x="864.294" y="-58.5" font-family="Helvetica,sans-Serif" font-size="10.00">panda::utils::BranchName</text>
<text text-anchor="middle" x="921.808" y="-46.5" font-family="Helvetica,sans-Serif" font-size="10.00">::vetoed</text>
</a>
</g>
</g>
<!-- Node8&#45;&gt;Node10 -->
<g id="edge9" class="edge"><title>Node8&#45;&gt;Node10</title>
<path fill="none" stroke="midnightblue" d="M813.663,-59.4351C824.014,-59.055 834.972,-58.6525 845.774,-58.2558"/>
<polygon fill="midnightblue" stroke="midnightblue" points="846.193,-61.7429 856.058,-57.8781 845.936,-54.7476 846.193,-61.7429"/>
</g>
<!-- Node8&#45;&gt;Node11 -->
<g id="edge11" class="edge"><title>Node8&#45;&gt;Node11</title>
<path fill="none" stroke="midnightblue" d="M784.698,-51.4496C802.958,-44.8624 827.598,-36.2532 849.626,-29.5 856.604,-27.3607 864.008,-25.2311 871.301,-23.2131"/>
<polygon fill="midnightblue" stroke="midnightblue" points="872.397,-26.5424 881.127,-20.5402 870.559,-19.7878 872.397,-26.5424"/>
</g>
</g>
</svg>
