<?xml version="1.0" encoding="UTF-8" standalone="no"?>
<!DOCTYPE svg PUBLIC "-//W3C//DTD SVG 1.1//EN"
 "http://www.w3.org/Graphics/SVG/1.1/DTD/svg11.dtd">
<!-- Generated by graphviz version 2.38.0 (20140413.2041)
 -->
<!-- Title: panda::GenJet::book Pages: 1 -->
<svg width="769pt" height="147pt"
 viewBox="0.00 0.00 769.39 147.00" xmlns="http://www.w3.org/2000/svg" xmlns:xlink="http://www.w3.org/1999/xlink">
<g id="graph0" class="graph" transform="scale(1 1) rotate(0) translate(4 143)">
<title>panda::GenJet::book</title>
<polygon fill="white" stroke="none" points="-4,4 -4,-143 765.393,-143 765.393,4 -4,4"/>
<!-- Node1 -->
<g id="node1" class="node"><title>Node1</title>
<polygon fill="#bfbfbf" stroke="black" points="4.9738e-14,-67.5 4.9738e-14,-87.5 108.823,-87.5 108.823,-67.5 4.9738e-14,-67.5"/>
<text text-anchor="middle" x="54.4115" y="-74.5" font-family="Helvetica,sans-Serif" font-size="10.00">panda::GenJet::book</text>
</g>
<!-- Node2 -->
<g id="node2" class="node"><title>Node2</title>
<g id="a_node2"><a xlink:href="classpanda_1_1ParticleM.html#acb4f53549465b6799cc02899a1a579eb" target="_top" xlink:title="Book new branches to the tree corresponding to the variables of this object. ">
<polygon fill="white" stroke="black" points="144.823,-67.5 144.823,-87.5 263.073,-87.5 263.073,-67.5 144.823,-67.5"/>
<text text-anchor="middle" x="203.948" y="-74.5" font-family="Helvetica,sans-Serif" font-size="10.00">panda::ParticleM::book</text>
</a>
</g>
</g>
<!-- Node1&#45;&gt;Node2 -->
<g id="edge1" class="edge"><title>Node1&#45;&gt;Node2</title>
<path fill="none" stroke="midnightblue" d="M109.093,-77.5C117.293,-77.5 125.852,-77.5 134.321,-77.5"/>
<polygon fill="midnightblue" stroke="midnightblue" points="134.575,-81.0001 144.575,-77.5 134.575,-74.0001 134.575,-81.0001"/>
</g>
<!-- Node5 -->
<g id="node5" class="node"><title>Node5</title>
<g id="a_node5"><a xlink:href="classpanda_1_1utils_1_1StoreManager.html#a6f30ec459d951e84a1196b7e2ffdcf49" target="_top" xlink:title="panda::utils::StoreManager\l::getName">
<polygon fill="white" stroke="black" points="444.994,-106.5 444.994,-138.5 581.029,-138.5 581.029,-106.5 444.994,-106.5"/>
<text text-anchor="start" x="452.994" y="-125.5" font-family="Helvetica,sans-Serif" font-size="10.00">panda::utils::StoreManager</text>
<text text-anchor="middle" x="513.012" y="-113.5" font-family="Helvetica,sans-Serif" font-size="10.00">::getName</text>
</a>
</g>
</g>
<!-- Node1&#45;&gt;Node5 -->
<g id="edge10" class="edge"><title>Node1&#45;&gt;Node5</title>
<path fill="none" stroke="midnightblue" d="M99.8652,-87.5666C114.178,-90.6414 130.135,-93.895 144.823,-96.5 213.008,-108.593 230.046,-112.95 299.073,-118.5 343.922,-122.106 394.247,-123.187 434.709,-123.33"/>
<polygon fill="midnightblue" stroke="midnightblue" points="434.768,-126.83 444.774,-123.347 434.78,-119.83 434.768,-126.83"/>
</g>
<!-- Node6 -->
<g id="node6" class="node"><title>Node6</title>
<g id="a_node6"><a xlink:href="namespacepanda_1_1utils.html#aaa6c7cd5892388e6ffdf713b11abf793" target="_top" xlink:title="Book the branch. ">
<polygon fill="white" stroke="black" points="465.83,-28.5 465.83,-48.5 560.194,-48.5 560.194,-28.5 465.83,-28.5"/>
<text text-anchor="middle" x="513.012" y="-35.5" font-family="Helvetica,sans-Serif" font-size="10.00">panda::utils::book</text>
</a>
</g>
</g>
<!-- Node1&#45;&gt;Node6 -->
<g id="edge11" class="edge"><title>Node1&#45;&gt;Node6</title>
<path fill="none" stroke="midnightblue" d="M95.7208,-67.4342C111.021,-63.8907 128.653,-60.1379 144.823,-57.5 212.847,-46.4029 230.268,-45.5451 299.073,-41.5 351.923,-38.3929 412.273,-37.8231 455.196,-37.9242"/>
<polygon fill="midnightblue" stroke="midnightblue" points="455.431,-41.425 465.444,-37.9619 455.457,-34.4251 455.431,-41.425"/>
</g>
<!-- Node3 -->
<g id="node3" class="node"><title>Node3</title>
<g id="a_node3"><a xlink:href="classpanda_1_1Particle.html#aaf351374f253978216b4a893a1766a64" target="_top" xlink:title="Book new branches to the tree corresponding to the variables of this object. ">
<polygon fill="white" stroke="black" points="299.073,-67.5 299.073,-87.5 408.994,-87.5 408.994,-67.5 299.073,-67.5"/>
<text text-anchor="middle" x="354.034" y="-74.5" font-family="Helvetica,sans-Serif" font-size="10.00">panda::Particle::book</text>
</a>
</g>
</g>
<!-- Node2&#45;&gt;Node3 -->
<g id="edge2" class="edge"><title>Node2&#45;&gt;Node3</title>
<path fill="none" stroke="midnightblue" d="M263.475,-77.5C271.752,-77.5 280.299,-77.5 288.678,-77.5"/>
<polygon fill="midnightblue" stroke="midnightblue" points="288.785,-81.0001 298.785,-77.5 288.785,-74.0001 288.785,-81.0001"/>
</g>
<!-- Node2&#45;&gt;Node5 -->
<g id="edge8" class="edge"><title>Node2&#45;&gt;Node5</title>
<path fill="none" stroke="midnightblue" d="M251.256,-87.5922C266.446,-90.7031 283.439,-93.9715 299.073,-96.5 343.812,-103.736 394.132,-109.967 434.618,-114.514"/>
<polygon fill="midnightblue" stroke="midnightblue" points="434.364,-118.008 444.69,-115.634 435.138,-111.05 434.364,-118.008"/>
</g>
<!-- Node2&#45;&gt;Node6 -->
<g id="edge9" class="edge"><title>Node2&#45;&gt;Node6</title>
<path fill="none" stroke="midnightblue" d="M246.921,-67.4515C263.136,-63.8673 281.892,-60.0823 299.073,-57.5 351.91,-49.5587 412.659,-44.5405 455.713,-41.6691"/>
<polygon fill="midnightblue" stroke="midnightblue" points="455.962,-45.1605 465.714,-41.0195 455.508,-38.1752 455.962,-45.1605"/>
</g>
<!-- Node4 -->
<g id="node4" class="node"><title>Node4</title>
<g id="a_node4"><a xlink:href="classpanda_1_1Object.html#a2fcd6665633deef16e86aa4e49135dd7" target="_top" xlink:title="Book new branches to the tree corresponding to the variables of this object. ">
<polygon fill="white" stroke="black" points="460.27,-67.5 460.27,-87.5 565.753,-87.5 565.753,-67.5 460.27,-67.5"/>
<text text-anchor="middle" x="513.012" y="-74.5" font-family="Helvetica,sans-Serif" font-size="10.00">panda::Object::book</text>
</a>
</g>
</g>
<!-- Node3&#45;&gt;Node4 -->
<g id="edge3" class="edge"><title>Node3&#45;&gt;Node4</title>
<path fill="none" stroke="midnightblue" d="M409.056,-77.5C422.202,-77.5 436.364,-77.5 449.853,-77.5"/>
<polygon fill="midnightblue" stroke="midnightblue" points="450.009,-81.0001 460.009,-77.5 450.009,-74.0001 450.009,-81.0001"/>
</g>
<!-- Node3&#45;&gt;Node5 -->
<g id="edge4" class="edge"><title>Node3&#45;&gt;Node5</title>
<path fill="none" stroke="midnightblue" d="M390.262,-87.5989C406.811,-92.3428 427.091,-98.1563 446.318,-103.668"/>
<polygon fill="midnightblue" stroke="midnightblue" points="445.373,-107.038 455.95,-106.429 447.302,-100.309 445.373,-107.038"/>
</g>
<!-- Node3&#45;&gt;Node6 -->
<g id="edge5" class="edge"><title>Node3&#45;&gt;Node6</title>
<path fill="none" stroke="midnightblue" d="M395.459,-67.4565C415.692,-62.4298 440.378,-56.2968 461.814,-50.9713"/>
<polygon fill="midnightblue" stroke="midnightblue" points="462.862,-54.3174 471.723,-48.5094 461.174,-47.5239 462.862,-54.3174"/>
</g>
<!-- Node7 -->
<g id="node7" class="node"><title>Node7</title>
<g id="a_node7"><a xlink:href="classpanda_1_1utils_1_1BranchName.html#a6cc8a6df7c5b12a0221fd49773cca6a7" target="_top" xlink:title="Is the name included and not vetoed? ">
<polygon fill="white" stroke="black" points="617.029,-51.5 617.029,-71.5 761.393,-71.5 761.393,-51.5 617.029,-51.5"/>
<text text-anchor="middle" x="689.211" y="-58.5" font-family="Helvetica,sans-Serif" font-size="10.00">panda::utils::BranchName::in</text>
</a>
</g>
</g>
<!-- Node6&#45;&gt;Node7 -->
<g id="edge6" class="edge"><title>Node6&#45;&gt;Node7</title>
<path fill="none" stroke="midnightblue" d="M560.236,-44.6032C574.594,-46.4988 590.867,-48.6474 606.879,-50.7616"/>
<polygon fill="midnightblue" stroke="midnightblue" points="606.424,-54.2317 616.796,-52.0709 607.34,-47.2919 606.424,-54.2317"/>
</g>
<!-- Node8 -->
<g id="node8" class="node"><title>Node8</title>
<g id="a_node8"><a xlink:href="classpanda_1_1utils_1_1BranchName.html#a13958ff4a9d554d2c057c600b4f70412" target="_top" xlink:title="Prepend the branch name with &lt;objName.&gt;. ">
<polygon fill="white" stroke="black" points="623.697,-0.5 623.697,-32.5 754.725,-32.5 754.725,-0.5 623.697,-0.5"/>
<text text-anchor="start" x="631.697" y="-19.5" font-family="Helvetica,sans-Serif" font-size="10.00">panda::utils::BranchName</text>
<text text-anchor="middle" x="689.211" y="-7.5" font-family="Helvetica,sans-Serif" font-size="10.00">::fullName</text>
</a>
</g>
</g>
<!-- Node6&#45;&gt;Node8 -->
<g id="edge7" class="edge"><title>Node6&#45;&gt;Node8</title>
<path fill="none" stroke="midnightblue" d="M560.236,-32.6622C576.565,-30.6 595.373,-28.2247 613.456,-25.9409"/>
<polygon fill="midnightblue" stroke="midnightblue" points="613.925,-29.4096 623.407,-24.6842 613.048,-22.4648 613.925,-29.4096"/>
</g>
</g>
</svg>
