<?xml version="1.0" encoding="UTF-8" standalone="no"?>
<!DOCTYPE svg PUBLIC "-//W3C//DTD SVG 1.1//EN"
 "http://www.w3.org/Graphics/SVG/1.1/DTD/svg11.dtd">
<!-- Generated by graphviz version 2.38.0 (20140413.2041)
 -->
<!-- Title: panda::Lepton::book Pages: 1 -->
<svg width="640pt" height="170pt"
 viewBox="0.00 0.00 639.60 170.00" xmlns="http://www.w3.org/2000/svg" xmlns:xlink="http://www.w3.org/1999/xlink">
<g id="graph0" class="graph" transform="scale(1 1) rotate(0) translate(4 166)">
<title>panda::Lepton::book</title>
<polygon fill="white" stroke="none" points="-4,4 -4,-166 635.596,-166 635.596,4 -4,4"/>
<!-- Node1 -->
<g id="node1" class="node"><title>Node1</title>
<polygon fill="#bfbfbf" stroke="black" points="2.13163e-14,-70.5 2.13163e-14,-90.5 107.162,-90.5 107.162,-70.5 2.13163e-14,-70.5"/>
<text text-anchor="middle" x="53.581" y="-77.5" font-family="Helvetica,sans-Serif" font-size="10.00">panda::Lepton::book</text>
</g>
<!-- Node2 -->
<g id="node2" class="node"><title>Node2</title>
<g id="a_node2"><a xlink:href="classpanda_1_1Particle.html#aaf351374f253978216b4a893a1766a64" target="_top" xlink:title="Book new branches to the tree corresponding to the variables of this object. ">
<polygon fill="white" stroke="black" points="156.219,-90.5 156.219,-110.5 266.14,-110.5 266.14,-90.5 156.219,-90.5"/>
<text text-anchor="middle" x="211.18" y="-97.5" font-family="Helvetica,sans-Serif" font-size="10.00">panda::Particle::book</text>
</a>
</g>
</g>
<!-- Node1&#45;&gt;Node2 -->
<g id="edge1" class="edge"><title>Node1&#45;&gt;Node2</title>
<path fill="none" stroke="midnightblue" d="M107.26,-87.2711C119.643,-88.8627 132.977,-90.5767 145.808,-92.226"/>
<polygon fill="midnightblue" stroke="midnightblue" points="145.599,-95.7278 155.963,-93.5313 146.491,-88.7849 145.599,-95.7278"/>
</g>
<!-- Node4 -->
<g id="node4" class="node"><title>Node4</title>
<g id="a_node4"><a xlink:href="classpanda_1_1utils_1_1StoreManager.html#a6f30ec459d951e84a1196b7e2ffdcf49" target="_top" xlink:title="panda::utils::StoreManager\l::getName">
<polygon fill="white" stroke="black" points="315.197,-129.5 315.197,-161.5 451.232,-161.5 451.232,-129.5 315.197,-129.5"/>
<text text-anchor="start" x="323.197" y="-148.5" font-family="Helvetica,sans-Serif" font-size="10.00">panda::utils::StoreManager</text>
<text text-anchor="middle" x="383.214" y="-136.5" font-family="Helvetica,sans-Serif" font-size="10.00">::getName</text>
</a>
</g>
</g>
<!-- Node1&#45;&gt;Node4 -->
<g id="edge7" class="edge"><title>Node1&#45;&gt;Node4</title>
<path fill="none" stroke="midnightblue" d="M72.2713,-90.537C89.7157,-99.9333 117.426,-113.538 143.162,-120.5 195.982,-134.788 257.411,-140.998 304.771,-143.657"/>
<polygon fill="midnightblue" stroke="midnightblue" points="304.792,-147.162 314.96,-144.186 305.156,-140.172 304.792,-147.162"/>
</g>
<!-- Node5 -->
<g id="node5" class="node"><title>Node5</title>
<g id="a_node5"><a xlink:href="namespacepanda_1_1utils.html#aaa6c7cd5892388e6ffdf713b11abf793" target="_top" xlink:title="Book the branch. ">
<polygon fill="white" stroke="black" points="336.032,-51.5 336.032,-71.5 430.397,-71.5 430.397,-51.5 336.032,-51.5"/>
<text text-anchor="middle" x="383.214" y="-58.5" font-family="Helvetica,sans-Serif" font-size="10.00">panda::utils::book</text>
</a>
</g>
</g>
<!-- Node1&#45;&gt;Node5 -->
<g id="edge8" class="edge"><title>Node1&#45;&gt;Node5</title>
<path fill="none" stroke="midnightblue" d="M107.221,-77.4473C166.984,-73.9816 264.124,-68.3482 325.519,-64.7879"/>
<polygon fill="midnightblue" stroke="midnightblue" points="326.02,-68.2648 335.801,-64.1916 325.615,-61.2765 326.02,-68.2648"/>
</g>
<!-- Node8 -->
<g id="node8" class="node"><title>Node8</title>
<g id="a_node8"><a xlink:href="classpanda_1_1utils_1_1StoreManager.html#ae6c8fb6b0c3d25147b09ef8b92b61da8" target="_top" xlink:title="panda::utils::StoreManager\l::getData">
<polygon fill="white" stroke="black" points="143.162,-0.5 143.162,-32.5 279.197,-32.5 279.197,-0.5 143.162,-0.5"/>
<text text-anchor="start" x="151.162" y="-19.5" font-family="Helvetica,sans-Serif" font-size="10.00">panda::utils::StoreManager</text>
<text text-anchor="middle" x="211.18" y="-7.5" font-family="Helvetica,sans-Serif" font-size="10.00">::getData</text>
</a>
</g>
</g>
<!-- Node1&#45;&gt;Node8 -->
<g id="edge9" class="edge"><title>Node1&#45;&gt;Node8</title>
<path fill="none" stroke="midnightblue" d="M79.236,-70.359C101.313,-61.2786 134.325,-47.7 161.679,-36.449"/>
<polygon fill="midnightblue" stroke="midnightblue" points="163.174,-39.6185 171.091,-32.5776 160.512,-33.1447 163.174,-39.6185"/>
</g>
<!-- Node3 -->
<g id="node3" class="node"><title>Node3</title>
<g id="a_node3"><a xlink:href="classpanda_1_1Object.html#a2fcd6665633deef16e86aa4e49135dd7" target="_top" xlink:title="Book new branches to the tree corresponding to the variables of this object. ">
<polygon fill="white" stroke="black" points="330.473,-90.5 330.473,-110.5 435.956,-110.5 435.956,-90.5 330.473,-90.5"/>
<text text-anchor="middle" x="383.214" y="-97.5" font-family="Helvetica,sans-Serif" font-size="10.00">panda::Object::book</text>
</a>
</g>
</g>
<!-- Node2&#45;&gt;Node3 -->
<g id="edge2" class="edge"><title>Node2&#45;&gt;Node3</title>
<path fill="none" stroke="midnightblue" d="M266.447,-100.5C283.509,-100.5 302.48,-100.5 320.045,-100.5"/>
<polygon fill="midnightblue" stroke="midnightblue" points="320.2,-104 330.2,-100.5 320.2,-97.0001 320.2,-104"/>
</g>
<!-- Node2&#45;&gt;Node4 -->
<g id="edge3" class="edge"><title>Node2&#45;&gt;Node4</title>
<path fill="none" stroke="midnightblue" d="M250.339,-110.599C268.428,-115.386 290.632,-121.263 311.627,-126.819"/>
<polygon fill="midnightblue" stroke="midnightblue" points="310.927,-130.254 321.49,-129.429 312.718,-123.487 310.927,-130.254"/>
</g>
<!-- Node2&#45;&gt;Node5 -->
<g id="edge4" class="edge"><title>Node2&#45;&gt;Node5</title>
<path fill="none" stroke="midnightblue" d="M255.968,-90.4565C278.181,-85.3615 305.35,-79.1301 328.785,-73.7549"/>
<polygon fill="midnightblue" stroke="midnightblue" points="329.61,-77.1565 338.575,-71.5094 328.045,-70.3337 329.61,-77.1565"/>
</g>
<!-- Node6 -->
<g id="node6" class="node"><title>Node6</title>
<g id="a_node6"><a xlink:href="classpanda_1_1utils_1_1BranchName.html#a6cc8a6df7c5b12a0221fd49773cca6a7" target="_top" xlink:title="Is the name included and not vetoed? ">
<polygon fill="white" stroke="black" points="487.232,-74.5 487.232,-94.5 631.596,-94.5 631.596,-74.5 487.232,-74.5"/>
<text text-anchor="middle" x="559.414" y="-81.5" font-family="Helvetica,sans-Serif" font-size="10.00">panda::utils::BranchName::in</text>
</a>
</g>
</g>
<!-- Node5&#45;&gt;Node6 -->
<g id="edge5" class="edge"><title>Node5&#45;&gt;Node6</title>
<path fill="none" stroke="midnightblue" d="M430.439,-67.6032C444.797,-69.4988 461.07,-71.6474 477.082,-73.7616"/>
<polygon fill="midnightblue" stroke="midnightblue" points="476.627,-77.2317 486.999,-75.0709 477.543,-70.2919 476.627,-77.2317"/>
</g>
<!-- Node7 -->
<g id="node7" class="node"><title>Node7</title>
<g id="a_node7"><a xlink:href="classpanda_1_1utils_1_1BranchName.html#a13958ff4a9d554d2c057c600b4f70412" target="_top" xlink:title="Prepend the branch name with &lt;objName.&gt;. ">
<polygon fill="white" stroke="black" points="493.9,-23.5 493.9,-55.5 624.928,-55.5 624.928,-23.5 493.9,-23.5"/>
<text text-anchor="start" x="501.9" y="-42.5" font-family="Helvetica,sans-Serif" font-size="10.00">panda::utils::BranchName</text>
<text text-anchor="middle" x="559.414" y="-30.5" font-family="Helvetica,sans-Serif" font-size="10.00">::fullName</text>
</a>
</g>
</g>
<!-- Node5&#45;&gt;Node7 -->
<g id="edge6" class="edge"><title>Node5&#45;&gt;Node7</title>
<path fill="none" stroke="midnightblue" d="M430.439,-55.6622C446.768,-53.6 465.576,-51.2247 483.659,-48.9409"/>
<polygon fill="midnightblue" stroke="midnightblue" points="484.128,-52.4096 493.61,-47.6842 483.251,-45.4648 484.128,-52.4096"/>
</g>
</g>
</svg>
