<?xml version="1.0" encoding="UTF-8" standalone="no"?>
<!DOCTYPE svg PUBLIC "-//W3C//DTD SVG 1.1//EN"
 "http://www.w3.org/Graphics/SVG/1.1/DTD/svg11.dtd">
<!-- Generated by graphviz version 2.38.0 (20140413.2041)
 -->
<!-- Title: panda::Singlet Pages: 1 -->
<!--zoomable 200 -->
<svg id="main" version="1.1" xmlns="http://www.w3.org/2000/svg" xmlns:xlink="http://www.w3.org/1999/xlink" xml:space="preserve" onload="init(evt)">
<style type="text/css"><![CDATA[
.edge:hover path { stroke: red; }
.edge:hover polygon { stroke: red; fill: red; }
]]></style>
<script type="text/javascript"><![CDATA[
var edges = document.getElementsByTagName('g');
if (edges && edges.length) {
  for (var i=0;i<edges.length;i++) {
    if (edges[i].id.substr(0,4)=='edge') {
      edges[i].setAttribute('class','edge');
    }
  }
}
]]></script>
        <defs>
                <circle id="rim" cx="0" cy="0" r="7"/>
                <circle id="rim2" cx="0" cy="0" r="3.5"/>
                <g id="zoomPlus">
                        <use xlink:href="#rim" fill="#404040">
                                <set attributeName="fill" to="#808080" begin="zoomplus.mouseover" end="zoomplus.mouseout"/>
                        </use>
                        <path d="M-4,0h8M0,-4v8" fill="none" stroke="white" stroke-width="1.5" pointer-events="none"/>
                </g>
                <g id="zoomMin">
                        <use xlink:href="#rim" fill="#404040">
                                <set attributeName="fill" to="#808080" begin="zoomminus.mouseover" end="zoomminus.mouseout"/>
                        </use>
                        <path d="M-4,0h8" fill="none" stroke="white" stroke-width="1.5" pointer-events="none"/>
                </g>
                <g id="dirArrow">
                        <path fill="none" stroke="white" stroke-width="1.5" d="M0,-3.0v7 M-2.5,-0.5L0,-3.0L2.5,-0.5"/>
                </g>
               <g id="resetDef">
                       <use xlink:href="#rim2" fill="#404040">
                               <set attributeName="fill" to="#808080" begin="reset.mouseover" end="reset.mouseout"/>
                       </use>
               </g>
        </defs>

<script type="text/javascript">
var viewWidth = 511;
var viewHeight = 200;
var sectionId = 'dynsection-0';
</script>
<script xlink:href="svgpan.js"/>
<svg id="graph" class="graph">
<g id="viewport">
<title>panda::Singlet</title>
<polygon fill="white" stroke="none" points="-4,4 -4,-196 506.525,-196 506.525,4 -4,4"/>
<!-- Node1 -->
<g id="node1" class="node"><title>Node1</title>
<polygon fill="#bfbfbf" stroke="black" points="223.003,-114.5 223.003,-134.5 302.919,-134.5 302.919,-114.5 223.003,-114.5"/>
<text text-anchor="middle" x="262.961" y="-121.5" font-family="Helvetica,sans-Serif" font-size="10.00">panda::Singlet</text>
</g>
<!-- Node3 -->
<g id="node3" class="node"><title>Node3</title>
<g id="a_node3"><a xlink:href="classpanda_1_1GenReweight.html" target="_top" xlink:title="panda::GenReweight">
<polygon fill="white" stroke="black" points="1.42109e-14,-57.5 1.42109e-14,-77.5 109.922,-77.5 109.922,-57.5 1.42109e-14,-57.5"/>
<text text-anchor="middle" x="54.961" y="-64.5" font-family="Helvetica,sans-Serif" font-size="10.00">panda::GenReweight</text>
</a>
</g>
</g>
<!-- Node1&#45;&gt;Node3 -->
<g id="edge2" class="edge"><title>Node1&#45;&gt;Node3</title>
<path fill="none" stroke="midnightblue" d="M218.648,-111.783C179.881,-101.532 124.386,-86.8575 89.0133,-77.5042"/>
<polygon fill="midnightblue" stroke="midnightblue" points="218.052,-115.245 228.614,-114.418 219.841,-108.478 218.052,-115.245"/>
</g>
<!-- Node4 -->
<g id="node4" class="node"><title>Node4</title>
<g id="a_node4"><a xlink:href="classpanda_1_1HLTBits.html" target="_top" xlink:title="panda::HLTBits">
<polygon fill="white" stroke="black" points="127.508,-57.5 127.508,-77.5 212.415,-77.5 212.415,-57.5 127.508,-57.5"/>
<text text-anchor="middle" x="169.961" y="-64.5" font-family="Helvetica,sans-Serif" font-size="10.00">panda::HLTBits</text>
</a>
</g>
</g>
<!-- Node1&#45;&gt;Node4 -->
<g id="edge3" class="edge"><title>Node1&#45;&gt;Node4</title>
<path fill="none" stroke="midnightblue" d="M238.834,-109.231C221.945,-99.2435 199.888,-86.1986 185.341,-77.5956"/>
<polygon fill="midnightblue" stroke="midnightblue" points="237.215,-112.34 247.604,-114.418 240.778,-106.315 237.215,-112.34"/>
</g>
<!-- Node5 -->
<g id="node5" class="node"><title>Node5</title>
<g id="a_node5"><a xlink:href="classpanda_1_1Met.html" target="_top" xlink:title="panda::Met">
<polygon fill="white" stroke="black" points="229.951,-57.5 229.951,-77.5 295.971,-77.5 295.971,-57.5 229.951,-57.5"/>
<text text-anchor="middle" x="262.961" y="-64.5" font-family="Helvetica,sans-Serif" font-size="10.00">panda::Met</text>
</a>
</g>
</g>
<!-- Node1&#45;&gt;Node5 -->
<g id="edge4" class="edge"><title>Node1&#45;&gt;Node5</title>
<path fill="none" stroke="midnightblue" d="M262.961,-104.383C262.961,-95.3738 262.961,-85.0373 262.961,-77.7795"/>
<polygon fill="midnightblue" stroke="midnightblue" points="259.461,-104.418 262.961,-114.418 266.461,-104.418 259.461,-104.418"/>
</g>
<!-- Node7 -->
<g id="node7" class="node"><title>Node7</title>
<g id="a_node7"><a xlink:href="classpanda_1_1MetFilters.html" target="_top" xlink:title="panda::MetFilters">
<polygon fill="white" stroke="black" points="314.344,-57.5 314.344,-77.5 407.578,-77.5 407.578,-57.5 314.344,-57.5"/>
<text text-anchor="middle" x="360.961" y="-64.5" font-family="Helvetica,sans-Serif" font-size="10.00">panda::MetFilters</text>
</a>
</g>
</g>
<!-- Node1&#45;&gt;Node7 -->
<g id="edge6" class="edge"><title>Node1&#45;&gt;Node7</title>
<path fill="none" stroke="midnightblue" d="M287.892,-109.508C305.751,-99.4854 329.283,-86.2783 344.754,-77.5956"/>
<polygon fill="midnightblue" stroke="midnightblue" points="286.151,-106.471 279.144,-114.418 289.577,-112.576 286.151,-106.471"/>
</g>
<!-- Node8 -->
<g id="node8" class="node"><title>Node8</title>
<g id="a_node8"><a xlink:href="classpanda_1_1Recoil.html" target="_top" xlink:title="panda::Recoil">
<polygon fill="white" stroke="black" points="425.397,-57.5 425.397,-77.5 502.525,-77.5 502.525,-57.5 425.397,-57.5"/>
<text text-anchor="middle" x="463.961" y="-64.5" font-family="Helvetica,sans-Serif" font-size="10.00">panda::Recoil</text>
</a>
</g>
</g>
<!-- Node1&#45;&gt;Node8 -->
<g id="edge7" class="edge"><title>Node1&#45;&gt;Node8</title>
<path fill="none" stroke="midnightblue" d="M306.262,-111.652C343.701,-101.407 397.018,-86.8177 431.055,-77.5042"/>
<polygon fill="midnightblue" stroke="midnightblue" points="304.874,-108.403 296.152,-114.418 306.721,-115.154 304.874,-108.403"/>
</g>
<!-- Node2 -->
<g id="node2" class="node"><title>Node2</title>
<g id="a_node2"><a xlink:href="classpanda_1_1Object.html" target="_top" xlink:title="panda::Object">
<polygon fill="white" stroke="black" points="223.837,-171.5 223.837,-191.5 302.085,-191.5 302.085,-171.5 223.837,-171.5"/>
<text text-anchor="middle" x="262.961" y="-178.5" font-family="Helvetica,sans-Serif" font-size="10.00">panda::Object</text>
</a>
</g>
</g>
<!-- Node2&#45;&gt;Node1 -->
<g id="edge1" class="edge"><title>Node2&#45;&gt;Node1</title>
<path fill="none" stroke="midnightblue" d="M262.961,-161.383C262.961,-152.374 262.961,-142.037 262.961,-134.779"/>
<polygon fill="midnightblue" stroke="midnightblue" points="259.461,-161.418 262.961,-171.418 266.461,-161.418 259.461,-161.418"/>
</g>
<!-- Node6 -->
<g id="node6" class="node"><title>Node6</title>
<g id="a_node6"><a xlink:href="classpanda_1_1RecoMet.html" target="_top" xlink:title="panda::RecoMet">
<polygon fill="white" stroke="black" points="218.283,-0.5 218.283,-20.5 307.639,-20.5 307.639,-0.5 218.283,-0.5"/>
<text text-anchor="middle" x="262.961" y="-7.5" font-family="Helvetica,sans-Serif" font-size="10.00">panda::RecoMet</text>
</a>
</g>
</g>
<!-- Node5&#45;&gt;Node6 -->
<g id="edge5" class="edge"><title>Node5&#45;&gt;Node6</title>
<path fill="none" stroke="midnightblue" d="M262.961,-47.383C262.961,-38.3738 262.961,-28.0373 262.961,-20.7795"/>
<polygon fill="midnightblue" stroke="midnightblue" points="259.461,-47.4178 262.961,-57.4179 266.461,-47.4179 259.461,-47.4178"/>
</g>
</g>
</svg>
        <g id="navigator" transform="translate(0 0)" fill="#404254">
                <rect fill="#f2f5e9" fill-opacity="0.5" stroke="#606060" stroke-width=".5" x="0" y="0" width="60" height="60"/>
                <use id="zoomplus" xlink:href="#zoomPlus" x="17" y="9" onmousedown="handleZoom(evt,'in')"/>
                <use id="zoomminus" xlink:href="#zoomMin" x="42" y="9" onmousedown="handleZoom(evt,'out')"/>
                <use id="reset" xlink:href="#resetDef" x="30" y="36" onmousedown="handleReset()"/>
                <g id="arrowUp" xlink:href="#dirArrow" transform="translate(30 24)" onmousedown="handlePan(0,-1)">
                  <use xlink:href="#rim" fill="#404040">
                        <set attributeName="fill" to="#808080" begin="arrowUp.mouseover" end="arrowUp.mouseout"/>
                  </use>
                  <path fill="none" stroke="white" stroke-width="1.5" d="M0,-3.0v7 M-2.5,-0.5L0,-3.0L2.5,-0.5"/>
                </g>
                <g id="arrowRight" xlink:href="#dirArrow" transform="rotate(90) translate(36 -43)" onmousedown="handlePan(1,0)">
                  <use xlink:href="#rim" fill="#404040">
                        <set attributeName="fill" to="#808080" begin="arrowRight.mouseover" end="arrowRight.mouseout"/>
                  </use>
                  <path fill="none" stroke="white" stroke-width="1.5" d="M0,-3.0v7 M-2.5,-0.5L0,-3.0L2.5,-0.5"/>
                </g>
                <g id="arrowDown" xlink:href="#dirArrow" transform="rotate(180) translate(-30 -48)" onmousedown="handlePan(0,1)">
                  <use xlink:href="#rim" fill="#404040">
                        <set attributeName="fill" to="#808080" begin="arrowDown.mouseover" end="arrowDown.mouseout"/>
                  </use>
                  <path fill="none" stroke="white" stroke-width="1.5" d="M0,-3.0v7 M-2.5,-0.5L0,-3.0L2.5,-0.5"/>
                </g>
                <g id="arrowLeft" xlink:href="#dirArrow" transform="rotate(270) translate(-36 17)" onmousedown="handlePan(-1,0)">
                  <use xlink:href="#rim" fill="#404040">
                        <set attributeName="fill" to="#808080" begin="arrowLeft.mouseover" end="arrowLeft.mouseout"/>
                  </use>
                  <path fill="none" stroke="white" stroke-width="1.5" d="M0,-3.0v7 M-2.5,-0.5L0,-3.0L2.5,-0.5"/>
                </g>
        </g>
        <svg viewBox="0 0 15 15" width="100%" height="30px" preserveAspectRatio="xMaxYMin meet">
         <g id="arrow_out" transform="scale(0.3 0.3)">
          <a xlink:href="classpanda_1_1Singlet__inherit__graph_org.svg" target="_base">
           <rect id="button" ry="5" rx="5" y="6" x="6" height="38" width="38"
                fill="#f2f5e9" fill-opacity="0.5" stroke="#606060" stroke-width="1.0"/>
           <path id="arrow"
             d="M 11.500037,31.436501 C 11.940474,20.09759 22.043105,11.32322 32.158766,21.979434 L 37.068811,17.246167 C 37.068811,17.246167 37.088388,32 37.088388,32 L 22.160133,31.978069 C 22.160133,31.978069 26.997745,27.140456 26.997745,27.140456 C 18.528582,18.264221 13.291696,25.230495 11.500037,31.436501 z"
             style="fill:#404040;"/>
          </a>
         </g>
        </svg>
</svg>
