<?xml version="1.0" encoding="UTF-8" standalone="no"?>
<!DOCTYPE svg PUBLIC "-//W3C//DTD SVG 1.1//EN"
 "http://www.w3.org/Graphics/SVG/1.1/DTD/svg11.dtd">
<!-- Generated by graphviz version 2.38.0 (20140413.2041)
 -->
<!-- Title: panda::Jet::setAddress Pages: 1 -->
<svg width="1165pt" height="262pt"
 viewBox="0.00 0.00 1164.57 262.00" xmlns="http://www.w3.org/2000/svg" xmlns:xlink="http://www.w3.org/1999/xlink">
<g id="graph0" class="graph" transform="scale(1 1) rotate(0) translate(4 258)">
<title>panda::Jet::setAddress</title>
<polygon fill="white" stroke="none" points="-4,4 -4,-258 1160.57,-258 1160.57,4 -4,4"/>
<!-- Node1 -->
<g id="node1" class="node"><title>Node1</title>
<polygon fill="#bfbfbf" stroke="black" points="9.23706e-14,-99.5 9.23706e-14,-119.5 118.262,-119.5 118.262,-99.5 9.23706e-14,-99.5"/>
<text text-anchor="middle" x="59.131" y="-106.5" font-family="Helvetica,sans-Serif" font-size="10.00">panda::Jet::setAddress</text>
</g>
<!-- Node2 -->
<g id="node2" class="node"><title>Node2</title>
<g id="a_node2"><a xlink:href="classpanda_1_1MicroJet.html#ace34e537033194800fb766bd9cb18025" target="_top" xlink:title="Set address for the branches to the variables of this object. ">
<polygon fill="white" stroke="black" points="154.262,-123.5 154.262,-143.5 296.96,-143.5 296.96,-123.5 154.262,-123.5"/>
<text text-anchor="middle" x="225.611" y="-130.5" font-family="Helvetica,sans-Serif" font-size="10.00">panda::MicroJet::setAddress</text>
</a>
</g>
</g>
<!-- Node1&#45;&gt;Node2 -->
<g id="edge1" class="edge"><title>Node1&#45;&gt;Node2</title>
<path fill="none" stroke="midnightblue" d="M118.584,-118.029C127.467,-119.325 136.755,-120.681 145.982,-122.027"/>
<polygon fill="midnightblue" stroke="midnightblue" points="145.549,-125.501 155.949,-123.481 146.559,-118.574 145.549,-125.501"/>
</g>
<!-- Node6 -->
<g id="node6" class="node"><title>Node6</title>
<g id="a_node6"><a xlink:href="classpanda_1_1utils_1_1StoreManager.html#a6f30ec459d951e84a1196b7e2ffdcf49" target="_top" xlink:title="panda::utils::StoreManager\l::getName">
<polygon fill="white" stroke="black" points="689.803,-221.5 689.803,-253.5 825.838,-253.5 825.838,-221.5 689.803,-221.5"/>
<text text-anchor="start" x="697.803" y="-240.5" font-family="Helvetica,sans-Serif" font-size="10.00">panda::utils::StoreManager</text>
<text text-anchor="middle" x="757.82" y="-228.5" font-family="Helvetica,sans-Serif" font-size="10.00">::getName</text>
</a>
</g>
</g>
<!-- Node1&#45;&gt;Node6 -->
<g id="edge19" class="edge"><title>Node1&#45;&gt;Node6</title>
<path fill="none" stroke="midnightblue" d="M79.6423,-119.521C98.4592,-128.968 127.888,-143.179 154.262,-153.5 308.361,-213.804 350.729,-228.725 515.546,-243.5 570.173,-248.397 632.016,-246.718 679.414,-243.907"/>
<polygon fill="midnightblue" stroke="midnightblue" points="679.842,-247.387 689.605,-243.272 679.407,-240.4 679.842,-247.387"/>
</g>
<!-- Node7 -->
<g id="node7" class="node"><title>Node7</title>
<g id="a_node7"><a xlink:href="namespacepanda_1_1utils.html#abf9c62e588560197c2bae9932e6a6e05" target="_top" xlink:title="Set address. ">
<polygon fill="white" stroke="black" points="696.47,-108.5 696.47,-128.5 819.17,-128.5 819.17,-108.5 696.47,-108.5"/>
<text text-anchor="middle" x="757.82" y="-115.5" font-family="Helvetica,sans-Serif" font-size="10.00">panda::utils::setAddress</text>
</a>
</g>
</g>
<!-- Node1&#45;&gt;Node7 -->
<g id="edge20" class="edge"><title>Node1&#45;&gt;Node7</title>
<path fill="none" stroke="midnightblue" d="M118.332,-110.252C245.634,-111.896 548.422,-115.808 686.28,-117.589"/>
<polygon fill="midnightblue" stroke="midnightblue" points="686.27,-121.089 696.315,-117.718 686.361,-114.089 686.27,-121.089"/>
</g>
<!-- Node13 -->
<g id="node13" class="node"><title>Node13</title>
<g id="a_node13"><a xlink:href="classpanda_1_1utils_1_1StoreManager.html#ae6c8fb6b0c3d25147b09ef8b92b61da8" target="_top" xlink:title="panda::utils::StoreManager\l::getData">
<polygon fill="white" stroke="black" points="157.594,-0.5 157.594,-32.5 293.628,-32.5 293.628,-0.5 157.594,-0.5"/>
<text text-anchor="start" x="165.594" y="-19.5" font-family="Helvetica,sans-Serif" font-size="10.00">panda::utils::StoreManager</text>
<text text-anchor="middle" x="225.611" y="-7.5" font-family="Helvetica,sans-Serif" font-size="10.00">::getData</text>
</a>
</g>
</g>
<!-- Node1&#45;&gt;Node13 -->
<g id="edge21" class="edge"><title>Node1&#45;&gt;Node13</title>
<path fill="none" stroke="midnightblue" d="M74.024,-99.2807C91.9964,-86.3144 124.532,-63.6931 154.262,-47.5 161.102,-43.7743 168.48,-40.1363 175.794,-36.7395"/>
<polygon fill="midnightblue" stroke="midnightblue" points="177.315,-39.8927 184.98,-32.5776 174.427,-33.5166 177.315,-39.8927"/>
</g>
<!-- Node3 -->
<g id="node3" class="node"><title>Node3</title>
<g id="a_node3"><a xlink:href="classpanda_1_1ParticleM.html#ad8aeae1e2ca26f4cdb7d079ab56a10fe" target="_top" xlink:title="Set address for the branches to the variables of this object. ">
<polygon fill="white" stroke="black" points="332.96,-147.5 332.96,-167.5 479.546,-167.5 479.546,-147.5 332.96,-147.5"/>
<text text-anchor="middle" x="406.253" y="-154.5" font-family="Helvetica,sans-Serif" font-size="10.00">panda::ParticleM::setAddress</text>
</a>
</g>
</g>
<!-- Node2&#45;&gt;Node3 -->
<g id="edge2" class="edge"><title>Node2&#45;&gt;Node3</title>
<path fill="none" stroke="midnightblue" d="M297.215,-142.985C305.627,-144.116 314.27,-145.277 322.829,-146.427"/>
<polygon fill="midnightblue" stroke="midnightblue" points="322.441,-149.906 332.818,-147.769 323.373,-142.968 322.441,-149.906"/>
</g>
<!-- Node2&#45;&gt;Node6 -->
<g id="edge17" class="edge"><title>Node2&#45;&gt;Node6</title>
<path fill="none" stroke="midnightblue" d="M248.257,-143.547C269.502,-153.147 302.988,-167.583 332.96,-177.5 412.409,-203.788 432.831,-210.797 515.546,-223.5 569.928,-231.851 631.902,-235.321 679.422,-236.718"/>
<polygon fill="midnightblue" stroke="midnightblue" points="679.55,-240.222 689.64,-236.993 679.738,-233.225 679.55,-240.222"/>
</g>
<!-- Node2&#45;&gt;Node7 -->
<g id="edge18" class="edge"><title>Node2&#45;&gt;Node7</title>
<path fill="none" stroke="midnightblue" d="M297.019,-131.508C398.466,-128.638 584.686,-123.37 686.233,-120.497"/>
<polygon fill="midnightblue" stroke="midnightblue" points="686.492,-123.991 696.389,-120.21 686.294,-116.994 686.492,-123.991"/>
</g>
<!-- Node4 -->
<g id="node4" class="node"><title>Node4</title>
<g id="a_node4"><a xlink:href="classpanda_1_1Particle.html#a96282cfb24384c1f00c40576069a4c7e" target="_top" xlink:title="Set address for the branches to the variables of this object. ">
<polygon fill="white" stroke="black" points="515.546,-166.5 515.546,-186.5 653.803,-186.5 653.803,-166.5 515.546,-166.5"/>
<text text-anchor="middle" x="584.674" y="-173.5" font-family="Helvetica,sans-Serif" font-size="10.00">panda::Particle::setAddress</text>
</a>
</g>
</g>
<!-- Node3&#45;&gt;Node4 -->
<g id="edge3" class="edge"><title>Node3&#45;&gt;Node4</title>
<path fill="none" stroke="midnightblue" d="M479.774,-165.31C488.244,-166.222 496.914,-167.156 505.457,-168.076"/>
<polygon fill="midnightblue" stroke="midnightblue" points="505.091,-171.557 515.408,-169.148 505.84,-164.597 505.091,-171.557"/>
</g>
<!-- Node3&#45;&gt;Node6 -->
<g id="edge15" class="edge"><title>Node3&#45;&gt;Node6</title>
<path fill="none" stroke="midnightblue" d="M431.378,-167.586C453.07,-176.316 485.976,-188.729 515.546,-196.5 569.639,-210.716 631.897,-221.153 679.621,-227.938"/>
<polygon fill="midnightblue" stroke="midnightblue" points="679.187,-231.412 689.575,-229.331 680.157,-224.479 679.187,-231.412"/>
</g>
<!-- Node3&#45;&gt;Node7 -->
<g id="edge16" class="edge"><title>Node3&#45;&gt;Node7</title>
<path fill="none" stroke="midnightblue" d="M479.684,-149.419C540.273,-142.659 626.198,-133.073 686.258,-126.372"/>
<polygon fill="midnightblue" stroke="midnightblue" points="686.862,-129.827 696.412,-125.24 686.086,-122.87 686.862,-129.827"/>
</g>
<!-- Node5 -->
<g id="node5" class="node"><title>Node5</title>
<g id="a_node5"><a xlink:href="classpanda_1_1Object.html#aed9f9d3b6abe518dd27957de843b36b5" target="_top" xlink:title="Set address for the branches to the variables of this object. ">
<polygon fill="white" stroke="black" points="690.911,-166.5 690.911,-186.5 824.73,-186.5 824.73,-166.5 690.911,-166.5"/>
<text text-anchor="middle" x="757.82" y="-173.5" font-family="Helvetica,sans-Serif" font-size="10.00">panda::Object::setAddress</text>
</a>
</g>
</g>
<!-- Node4&#45;&gt;Node5 -->
<g id="edge4" class="edge"><title>Node4&#45;&gt;Node5</title>
<path fill="none" stroke="midnightblue" d="M653.808,-176.5C662.68,-176.5 671.814,-176.5 680.805,-176.5"/>
<polygon fill="midnightblue" stroke="midnightblue" points="680.874,-180 690.874,-176.5 680.874,-173 680.874,-180"/>
</g>
<!-- Node4&#45;&gt;Node6 -->
<g id="edge5" class="edge"><title>Node4&#45;&gt;Node6</title>
<path fill="none" stroke="midnightblue" d="M613.936,-186.573C637.82,-195.086 672.727,-207.527 702.06,-217.982"/>
<polygon fill="midnightblue" stroke="midnightblue" points="701.175,-221.383 711.77,-221.443 703.526,-214.789 701.175,-221.383"/>
</g>
<!-- Node4&#45;&gt;Node7 -->
<g id="edge6" class="edge"><title>Node4&#45;&gt;Node7</title>
<path fill="none" stroke="midnightblue" d="M615.486,-166.397C643.744,-156.821 686.373,-142.374 717.423,-131.852"/>
<polygon fill="midnightblue" stroke="midnightblue" points="718.717,-135.109 727.064,-128.584 716.47,-128.479 718.717,-135.109"/>
</g>
<!-- Node8 -->
<g id="node8" class="node"><title>Node8</title>
<g id="a_node8"><a xlink:href="classpanda_1_1utils_1_1BranchName.html#a13958ff4a9d554d2c057c600b4f70412" target="_top" xlink:title="Prepend the branch name with &lt;objName.&gt;. ">
<polygon fill="white" stroke="black" points="1018.88,-167.5 1018.88,-199.5 1149.9,-199.5 1149.9,-167.5 1018.88,-167.5"/>
<text text-anchor="start" x="1026.88" y="-186.5" font-family="Helvetica,sans-Serif" font-size="10.00">panda::utils::BranchName</text>
<text text-anchor="middle" x="1084.39" y="-174.5" font-family="Helvetica,sans-Serif" font-size="10.00">::fullName</text>
</a>
</g>
</g>
<!-- Node7&#45;&gt;Node8 -->
<g id="edge7" class="edge"><title>Node7&#45;&gt;Node8</title>
<path fill="none" stroke="midnightblue" d="M799.831,-128.51C818.675,-132.992 841.345,-138.219 861.838,-142.5 910.58,-152.682 965.628,-162.876 1008.66,-170.552"/>
<polygon fill="midnightblue" stroke="midnightblue" points="1008.31,-174.044 1018.77,-172.348 1009.53,-167.152 1008.31,-174.044"/>
</g>
<!-- Node9 -->
<g id="node9" class="node"><title>Node9</title>
<g id="a_node9"><a xlink:href="namespacepanda_1_1utils.html#a01665f786d6a2acedb8f008f3fc9fc84" target="_top" xlink:title="Set status of a branch. ">
<polygon fill="white" stroke="black" points="861.838,-89.5 861.838,-109.5 976.208,-109.5 976.208,-89.5 861.838,-89.5"/>
<text text-anchor="middle" x="919.023" y="-96.5" font-family="Helvetica,sans-Serif" font-size="10.00">panda::utils::setStatus</text>
</a>
</g>
</g>
<!-- Node7&#45;&gt;Node9 -->
<g id="edge8" class="edge"><title>Node7&#45;&gt;Node9</title>
<path fill="none" stroke="midnightblue" d="M819.462,-111.263C829.984,-110.007 840.974,-108.695 851.639,-107.423"/>
<polygon fill="midnightblue" stroke="midnightblue" points="852.224,-110.878 861.738,-106.217 851.394,-103.927 852.224,-110.878"/>
</g>
<!-- Node10 -->
<g id="node10" class="node"><title>Node10</title>
<g id="a_node10"><a xlink:href="classpanda_1_1utils_1_1BranchName.html#a6cc8a6df7c5b12a0221fd49773cca6a7" target="_top" xlink:title="Is the name included and not vetoed? ">
<polygon fill="white" stroke="black" points="1012.21,-128.5 1012.21,-148.5 1156.57,-148.5 1156.57,-128.5 1012.21,-128.5"/>
<text text-anchor="middle" x="1084.39" y="-135.5" font-family="Helvetica,sans-Serif" font-size="10.00">panda::utils::BranchName::in</text>
</a>
</g>
</g>
<!-- Node7&#45;&gt;Node10 -->
<g id="edge13" class="edge"><title>Node7&#45;&gt;Node10</title>
<path fill="none" stroke="midnightblue" d="M819.489,-122.238C870.983,-125.411 945.316,-129.992 1001.98,-133.483"/>
<polygon fill="midnightblue" stroke="midnightblue" points="1001.79,-136.978 1011.99,-134.1 1002.22,-129.992 1001.79,-136.978"/>
</g>
<!-- Node12 -->
<g id="node12" class="node"><title>Node12</title>
<g id="a_node12"><a xlink:href="namespacepanda_1_1utils.html#aafa411773a4b0ee829d99e6e5a0abdcd" target="_top" xlink:title="Check status of a branch. ">
<polygon fill="white" stroke="black" points="1020.81,-38.5 1020.81,-58.5 1147.96,-58.5 1147.96,-38.5 1020.81,-38.5"/>
<text text-anchor="middle" x="1084.39" y="-45.5" font-family="Helvetica,sans-Serif" font-size="10.00">panda::utils::checkStatus</text>
</a>
</g>
</g>
<!-- Node7&#45;&gt;Node12 -->
<g id="edge14" class="edge"><title>Node7&#45;&gt;Node12</title>
<path fill="none" stroke="midnightblue" d="M781.263,-108.336C801.822,-99.4299 833.306,-86.7993 861.838,-79.5 910.709,-66.9973 967.019,-59.2015 1010.64,-54.5548"/>
<polygon fill="midnightblue" stroke="midnightblue" points="1011.01,-58.0357 1020.59,-53.5255 1010.29,-51.0728 1011.01,-58.0357"/>
</g>
<!-- Node9&#45;&gt;Node8 -->
<g id="edge11" class="edge"><title>Node9&#45;&gt;Node8</title>
<path fill="none" stroke="midnightblue" d="M933.492,-109.542C950.948,-122.216 982.659,-144.097 1012.21,-158.5 1015.92,-160.308 1019.79,-162.049 1023.73,-163.713"/>
<polygon fill="midnightblue" stroke="midnightblue" points="1022.43,-166.96 1033.01,-167.45 1025.04,-160.467 1022.43,-166.96"/>
</g>
<!-- Node9&#45;&gt;Node10 -->
<g id="edge9" class="edge"><title>Node9&#45;&gt;Node10</title>
<path fill="none" stroke="midnightblue" d="M962.094,-109.543C983.246,-114.593 1009.07,-120.759 1031.45,-126.101"/>
<polygon fill="midnightblue" stroke="midnightblue" points="1030.92,-129.573 1041.46,-128.491 1032.55,-122.764 1030.92,-129.573"/>
</g>
<!-- Node11 -->
<g id="node11" class="node"><title>Node11</title>
<g id="a_node11"><a xlink:href="classpanda_1_1utils_1_1BranchName.html#ae3332329bf2afae5ed8e7c35e5d77ffa" target="_top" xlink:title="Is the name included and vetoed? ">
<polygon fill="white" stroke="black" points="1018.88,-77.5 1018.88,-109.5 1149.9,-109.5 1149.9,-77.5 1018.88,-77.5"/>
<text text-anchor="start" x="1026.88" y="-96.5" font-family="Helvetica,sans-Serif" font-size="10.00">panda::utils::BranchName</text>
<text text-anchor="middle" x="1084.39" y="-84.5" font-family="Helvetica,sans-Serif" font-size="10.00">::vetoed</text>
</a>
</g>
</g>
<!-- Node9&#45;&gt;Node11 -->
<g id="edge10" class="edge"><title>Node9&#45;&gt;Node11</title>
<path fill="none" stroke="midnightblue" d="M976.245,-97.4351C986.596,-97.055 997.554,-96.6525 1008.36,-96.2558"/>
<polygon fill="midnightblue" stroke="midnightblue" points="1008.77,-99.7429 1018.64,-95.8781 1008.52,-92.7476 1008.77,-99.7429"/>
</g>
<!-- Node9&#45;&gt;Node12 -->
<g id="edge12" class="edge"><title>Node9&#45;&gt;Node12</title>
<path fill="none" stroke="midnightblue" d="M947.28,-89.4496C965.54,-82.8624 990.18,-74.2532 1012.21,-67.5 1019.19,-65.3607 1026.59,-63.2311 1033.88,-61.2131"/>
<polygon fill="midnightblue" stroke="midnightblue" points="1034.98,-64.5424 1043.71,-58.5402 1033.14,-57.7878 1034.98,-64.5424"/>
</g>
</g>
</svg>
