<?xml version="1.0" encoding="UTF-8" standalone="no"?>
<!DOCTYPE svg PUBLIC "-//W3C//DTD SVG 1.1//EN"
 "http://www.w3.org/Graphics/SVG/1.1/DTD/svg11.dtd">
<!-- Generated by graphviz version 2.38.0 (20140413.2041)
 -->
<!-- Title: panda::RecoMet::setAddress Pages: 1 -->
<svg width="811pt" height="170pt"
 viewBox="0.00 0.00 811.07 170.00" xmlns="http://www.w3.org/2000/svg" xmlns:xlink="http://www.w3.org/1999/xlink">
<g id="graph0" class="graph" transform="scale(1 1) rotate(0) translate(4 166)">
<title>panda::RecoMet::setAddress</title>
<polygon fill="white" stroke="none" points="-4,4 -4,-166 807.072,-166 807.072,4 -4,4"/>
<!-- Node1 -->
<g id="node1" class="node"><title>Node1</title>
<polygon fill="#bfbfbf" stroke="black" points="-4.26326e-14,-89.5 -4.26326e-14,-109.5 144.928,-109.5 144.928,-89.5 -4.26326e-14,-89.5"/>
<text text-anchor="middle" x="72.464" y="-96.5" font-family="Helvetica,sans-Serif" font-size="10.00">panda::RecoMet::setAddress</text>
</g>
<!-- Node2 -->
<g id="node2" class="node"><title>Node2</title>
<g id="a_node2"><a xlink:href="classpanda_1_1Met.html#a72bfef4b511eb4cb119b3ddb7d801620" target="_top" xlink:title="Set address for the branches to the variables of this object. ">
<polygon fill="white" stroke="black" points="180.928,-109.5 180.928,-129.5 302.519,-129.5 302.519,-109.5 180.928,-109.5"/>
<text text-anchor="middle" x="241.723" y="-116.5" font-family="Helvetica,sans-Serif" font-size="10.00">panda::Met::setAddress</text>
</a>
</g>
</g>
<!-- Node1&#45;&gt;Node2 -->
<g id="edge1" class="edge"><title>Node1&#45;&gt;Node2</title>
<path fill="none" stroke="midnightblue" d="M145.368,-108.098C153.74,-109.099 162.272,-110.119 170.619,-111.117"/>
<polygon fill="midnightblue" stroke="midnightblue" points="170.341,-114.609 180.686,-112.321 171.172,-107.658 170.341,-114.609"/>
</g>
<!-- Node4 -->
<g id="node4" class="node"><title>Node4</title>
<g id="a_node4"><a xlink:href="namespacepanda_1_1utils.html#abf9c62e588560197c2bae9932e6a6e05" target="_top" xlink:title="Set address. ">
<polygon fill="white" stroke="black" points="344.078,-70.5 344.078,-90.5 466.778,-90.5 466.778,-70.5 344.078,-70.5"/>
<text text-anchor="middle" x="405.428" y="-77.5" font-family="Helvetica,sans-Serif" font-size="10.00">panda::utils::setAddress</text>
</a>
</g>
</g>
<!-- Node1&#45;&gt;Node4 -->
<g id="edge12" class="edge"><title>Node1&#45;&gt;Node4</title>
<path fill="none" stroke="midnightblue" d="M145.278,-95.3773C201.119,-92.1716 278.177,-87.7478 333.732,-84.5586"/>
<polygon fill="midnightblue" stroke="midnightblue" points="334.062,-88.0455 343.845,-83.978 333.661,-81.057 334.062,-88.0455"/>
</g>
<!-- Node3 -->
<g id="node3" class="node"><title>Node3</title>
<g id="a_node3"><a xlink:href="classpanda_1_1Object.html#aed9f9d3b6abe518dd27957de843b36b5" target="_top" xlink:title="Set address for the branches to the variables of this object. ">
<polygon fill="white" stroke="black" points="338.519,-109.5 338.519,-129.5 472.338,-129.5 472.338,-109.5 338.519,-109.5"/>
<text text-anchor="middle" x="405.428" y="-116.5" font-family="Helvetica,sans-Serif" font-size="10.00">panda::Object::setAddress</text>
</a>
</g>
</g>
<!-- Node2&#45;&gt;Node3 -->
<g id="edge2" class="edge"><title>Node2&#45;&gt;Node3</title>
<path fill="none" stroke="midnightblue" d="M302.936,-119.5C311.172,-119.5 319.713,-119.5 328.187,-119.5"/>
<polygon fill="midnightblue" stroke="midnightblue" points="328.464,-123 338.464,-119.5 328.464,-116 328.464,-123"/>
</g>
<!-- Node2&#45;&gt;Node4 -->
<g id="edge3" class="edge"><title>Node2&#45;&gt;Node4</title>
<path fill="none" stroke="midnightblue" d="M284.367,-109.457C305.303,-104.407 330.868,-98.2413 353.019,-92.8991"/>
<polygon fill="midnightblue" stroke="midnightblue" points="354.026,-96.2565 362.927,-90.5094 352.385,-89.4516 354.026,-96.2565"/>
</g>
<!-- Node5 -->
<g id="node5" class="node"><title>Node5</title>
<g id="a_node5"><a xlink:href="classpanda_1_1utils_1_1BranchName.html#a13958ff4a9d554d2c057c600b4f70412" target="_top" xlink:title="Prepend the branch name with &lt;objName.&gt;. ">
<polygon fill="white" stroke="black" points="665.376,-129.5 665.376,-161.5 796.404,-161.5 796.404,-129.5 665.376,-129.5"/>
<text text-anchor="start" x="673.376" y="-148.5" font-family="Helvetica,sans-Serif" font-size="10.00">panda::utils::BranchName</text>
<text text-anchor="middle" x="730.89" y="-136.5" font-family="Helvetica,sans-Serif" font-size="10.00">::fullName</text>
</a>
</g>
</g>
<!-- Node4&#45;&gt;Node5 -->
<g id="edge4" class="edge"><title>Node4&#45;&gt;Node5</title>
<path fill="none" stroke="midnightblue" d="M446.992,-90.5273C465.633,-95.0131 488.06,-100.238 508.338,-104.5 557.067,-114.741 612.115,-124.934 655.15,-132.596"/>
<polygon fill="midnightblue" stroke="midnightblue" points="654.801,-136.089 665.258,-134.388 656.023,-129.196 654.801,-136.089"/>
</g>
<!-- Node6 -->
<g id="node6" class="node"><title>Node6</title>
<g id="a_node6"><a xlink:href="namespacepanda_1_1utils.html#a01665f786d6a2acedb8f008f3fc9fc84" target="_top" xlink:title="Set status of a branch. ">
<polygon fill="white" stroke="black" points="508.338,-51.5 508.338,-71.5 622.708,-71.5 622.708,-51.5 508.338,-51.5"/>
<text text-anchor="middle" x="565.523" y="-58.5" font-family="Helvetica,sans-Serif" font-size="10.00">panda::utils::setStatus</text>
</a>
</g>
</g>
<!-- Node4&#45;&gt;Node6 -->
<g id="edge5" class="edge"><title>Node4&#45;&gt;Node6</title>
<path fill="none" stroke="midnightblue" d="M467.1,-73.2084C477.223,-71.9919 487.771,-70.7242 498.03,-69.4912"/>
<polygon fill="midnightblue" stroke="midnightblue" points="498.655,-72.9414 508.166,-68.2731 497.819,-65.9914 498.655,-72.9414"/>
</g>
<!-- Node7 -->
<g id="node7" class="node"><title>Node7</title>
<g id="a_node7"><a xlink:href="classpanda_1_1utils_1_1BranchName.html#a6cc8a6df7c5b12a0221fd49773cca6a7" target="_top" xlink:title="Is the name included and not vetoed? ">
<polygon fill="white" stroke="black" points="658.708,-90.5 658.708,-110.5 803.072,-110.5 803.072,-90.5 658.708,-90.5"/>
<text text-anchor="middle" x="730.89" y="-97.5" font-family="Helvetica,sans-Serif" font-size="10.00">panda::utils::BranchName::in</text>
</a>
</g>
</g>
<!-- Node4&#45;&gt;Node7 -->
<g id="edge10" class="edge"><title>Node4&#45;&gt;Node7</title>
<path fill="none" stroke="midnightblue" d="M466.89,-84.2384C518.015,-87.3995 591.733,-91.9576 648.122,-95.4442"/>
<polygon fill="midnightblue" stroke="midnightblue" points="648.243,-98.9582 658.44,-96.0821 648.675,-91.9716 648.243,-98.9582"/>
</g>
<!-- Node9 -->
<g id="node9" class="node"><title>Node9</title>
<g id="a_node9"><a xlink:href="namespacepanda_1_1utils.html#aafa411773a4b0ee829d99e6e5a0abdcd" target="_top" xlink:title="Check status of a branch. ">
<polygon fill="white" stroke="black" points="667.315,-0.5 667.315,-20.5 794.465,-20.5 794.465,-0.5 667.315,-0.5"/>
<text text-anchor="middle" x="730.89" y="-7.5" font-family="Helvetica,sans-Serif" font-size="10.00">panda::utils::checkStatus</text>
</a>
</g>
</g>
<!-- Node4&#45;&gt;Node9 -->
<g id="edge11" class="edge"><title>Node4&#45;&gt;Node9</title>
<path fill="none" stroke="midnightblue" d="M428.617,-70.3276C448.947,-61.4157 480.088,-48.7815 508.338,-41.5 557.186,-28.9094 613.497,-21.115 657.124,-16.4909"/>
<polygon fill="midnightblue" stroke="midnightblue" points="657.489,-19.9719 667.079,-15.4672 656.773,-13.0086 657.489,-19.9719"/>
</g>
<!-- Node6&#45;&gt;Node5 -->
<g id="edge8" class="edge"><title>Node6&#45;&gt;Node5</title>
<path fill="none" stroke="midnightblue" d="M580.353,-71.5109C597.931,-83.9212 629.507,-105.181 658.708,-119.5 662.986,-121.598 667.479,-123.623 672.04,-125.553"/>
<polygon fill="midnightblue" stroke="midnightblue" points="670.867,-128.854 681.449,-129.376 673.502,-122.369 670.867,-128.854"/>
</g>
<!-- Node6&#45;&gt;Node7 -->
<g id="edge6" class="edge"><title>Node6&#45;&gt;Node7</title>
<path fill="none" stroke="midnightblue" d="M608.594,-71.5435C629.746,-76.593 655.574,-82.7587 677.952,-88.1009"/>
<polygon fill="midnightblue" stroke="midnightblue" points="677.422,-91.5728 687.962,-90.4906 679.048,-84.7641 677.422,-91.5728"/>
</g>
<!-- Node8 -->
<g id="node8" class="node"><title>Node8</title>
<g id="a_node8"><a xlink:href="classpanda_1_1utils_1_1BranchName.html#ae3332329bf2afae5ed8e7c35e5d77ffa" target="_top" xlink:title="Is the name included and vetoed? ">
<polygon fill="white" stroke="black" points="665.376,-39.5 665.376,-71.5 796.404,-71.5 796.404,-39.5 665.376,-39.5"/>
<text text-anchor="start" x="673.376" y="-58.5" font-family="Helvetica,sans-Serif" font-size="10.00">panda::utils::BranchName</text>
<text text-anchor="middle" x="730.89" y="-46.5" font-family="Helvetica,sans-Serif" font-size="10.00">::vetoed</text>
</a>
</g>
</g>
<!-- Node6&#45;&gt;Node8 -->
<g id="edge7" class="edge"><title>Node6&#45;&gt;Node8</title>
<path fill="none" stroke="midnightblue" d="M622.745,-59.4351C633.096,-59.055 644.054,-58.6525 654.856,-58.2558"/>
<polygon fill="midnightblue" stroke="midnightblue" points="655.275,-61.7429 665.14,-57.8781 655.018,-54.7476 655.275,-61.7429"/>
</g>
<!-- Node6&#45;&gt;Node9 -->
<g id="edge9" class="edge"><title>Node6&#45;&gt;Node9</title>
<path fill="none" stroke="midnightblue" d="M593.78,-51.4496C612.04,-44.8624 636.68,-36.2532 658.708,-29.5 665.686,-27.3607 673.09,-25.2311 680.383,-23.2131"/>
<polygon fill="midnightblue" stroke="midnightblue" points="681.479,-26.5424 690.209,-20.5402 679.641,-19.7878 681.479,-26.5424"/>
</g>
</g>
</svg>
