<?xml version="1.0" encoding="UTF-8" standalone="no"?>
<!DOCTYPE svg PUBLIC "-//W3C//DTD SVG 1.1//EN"
 "http://www.w3.org/Graphics/SVG/1.1/DTD/svg11.dtd">
<!-- Generated by graphviz version 2.38.0 (20140413.2041)
 -->
<!-- Title: panda::CollectionBase::getEntry Pages: 1 -->
<svg width="276pt" height="41pt"
 viewBox="0.00 0.00 275.51 41.00" xmlns="http://www.w3.org/2000/svg" xmlns:xlink="http://www.w3.org/1999/xlink">
<g id="graph0" class="graph" transform="scale(1 1) rotate(0) translate(4 37)">
<title>panda::CollectionBase::getEntry</title>
<polygon fill="white" stroke="none" points="-4,4 -4,-37 271.512,-37 271.512,4 -4,4"/>
<!-- Node1 -->
<g id="node1" class="node"><title>Node1</title>
<polygon fill="#bfbfbf" stroke="black" points="-1.42109e-14,-0.5 -1.42109e-14,-32.5 116.031,-32.5 116.031,-0.5 -1.42109e-14,-0.5"/>
<text text-anchor="start" x="8" y="-19.5" font-family="Helvetica,sans-Serif" font-size="10.00">panda::CollectionBase</text>
<text text-anchor="middle" x="58.0155" y="-7.5" font-family="Helvetica,sans-Serif" font-size="10.00">::getEntry</text>
</g>
<!-- Node2 -->
<g id="node2" class="node"><title>Node2</title>
<g id="a_node2"><a xlink:href="classpanda_1_1ContainerBase.html#adc43d50a0f00fc6b3bf8288d3fce7fe5" target="_top" xlink:title="panda::ContainerBase\l::getEntry">
<polygon fill="white" stroke="black" points="152.031,-0.5 152.031,-32.5 267.512,-32.5 267.512,-0.5 152.031,-0.5"/>
<text text-anchor="start" x="160.031" y="-19.5" font-family="Helvetica,sans-Serif" font-size="10.00">panda::ContainerBase</text>
<text text-anchor="middle" x="209.771" y="-7.5" font-family="Helvetica,sans-Serif" font-size="10.00">::getEntry</text>
</a>
</g>
</g>
<!-- Node1&#45;&gt;Node2 -->
<g id="edge1" class="edge"><title>Node1&#45;&gt;Node2</title>
<path fill="none" stroke="midnightblue" d="M116.059,-16.5C124.495,-16.5 133.252,-16.5 141.867,-16.5"/>
<polygon fill="midnightblue" stroke="midnightblue" points="141.887,-20.0001 151.887,-16.5 141.887,-13.0001 141.887,-20.0001"/>
</g>
</g>
</svg>
