<?xml version="1.0" encoding="UTF-8" standalone="no"?>
<!DOCTYPE svg PUBLIC "-//W3C//DTD SVG 1.1//EN"
 "http://www.w3.org/Graphics/SVG/1.1/DTD/svg11.dtd">
<!-- Generated by graphviz version 2.38.0 (20140413.2041)
 -->
<!-- Title: panda.physics.PhysicsObject._write_method Pages: 1 -->
<svg width="381pt" height="41pt"
 viewBox="0.00 0.00 381.08 41.00" xmlns="http://www.w3.org/2000/svg" xmlns:xlink="http://www.w3.org/1999/xlink">
<g id="graph0" class="graph" transform="scale(1 1) rotate(0) translate(4 37)">
<title>panda.physics.PhysicsObject._write_method</title>
<polygon fill="white" stroke="none" points="-4,4 -4,-37 377.084,-37 377.084,4 -4,4"/>
<!-- Node1 -->
<g id="node1" class="node"><title>Node1</title>
<polygon fill="#bfbfbf" stroke="black" points="1.42109e-14,-0.5 1.42109e-14,-32.5 148.811,-32.5 148.811,-0.5 1.42109e-14,-0.5"/>
<text text-anchor="start" x="8" y="-19.5" font-family="Helvetica,sans-Serif" font-size="10.00">panda.physics.PhysicsObject.</text>
<text text-anchor="middle" x="74.4055" y="-7.5" font-family="Helvetica,sans-Serif" font-size="10.00">_write_method</text>
</g>
<!-- Node2 -->
<g id="node2" class="node"><title>Node2</title>
<g id="a_node2"><a xlink:href="classpanda_1_1physics_1_1PhysicsObject.html#a20dbff173bfc37fa0038bffe31d310b6" target="_top" xlink:title="panda.physics.PhysicsObject.generate\l_source">
<polygon fill="white" stroke="black" points="184.811,-0.5 184.811,-32.5 373.084,-32.5 373.084,-0.5 184.811,-0.5"/>
<text text-anchor="start" x="192.811" y="-19.5" font-family="Helvetica,sans-Serif" font-size="10.00">panda.physics.PhysicsObject.generate</text>
<text text-anchor="middle" x="278.947" y="-7.5" font-family="Helvetica,sans-Serif" font-size="10.00">_source</text>
</a>
</g>
</g>
<!-- Node1&#45;&gt;Node2 -->
<g id="edge1" class="edge"><title>Node1&#45;&gt;Node2</title>
<path fill="none" stroke="midnightblue" d="M159.044,-16.5C167.512,-16.5 176.151,-16.5 184.713,-16.5"/>
<polygon fill="midnightblue" stroke="midnightblue" points="158.814,-13.0001 148.814,-16.5 158.814,-20.0001 158.814,-13.0001"/>
</g>
</g>
</svg>
