<?xml version="1.0" encoding="UTF-8" standalone="no"?>
<!DOCTYPE svg PUBLIC "-//W3C//DTD SVG 1.1//EN"
 "http://www.w3.org/Graphics/SVG/1.1/DTD/svg11.dtd">
<!-- Generated by graphviz version 2.38.0 (20140413.2041)
 -->
<!-- Title: panda::ContainerBase::setName Pages: 1 -->
<svg width="466pt" height="99pt"
 viewBox="0.00 0.00 466.44 99.00" xmlns="http://www.w3.org/2000/svg" xmlns:xlink="http://www.w3.org/1999/xlink">
<g id="graph0" class="graph" transform="scale(1 1) rotate(0) translate(4 95)">
<title>panda::ContainerBase::setName</title>
<polygon fill="white" stroke="none" points="-4,4 -4,-95 462.441,-95 462.441,4 -4,4"/>
<!-- Node1 -->
<g id="node1" class="node"><title>Node1</title>
<polygon fill="#bfbfbf" stroke="black" points="7.10543e-15,-22.5 7.10543e-15,-54.5 115.481,-54.5 115.481,-22.5 7.10543e-15,-22.5"/>
<text text-anchor="start" x="8" y="-41.5" font-family="Helvetica,sans-Serif" font-size="10.00">panda::ContainerBase</text>
<text text-anchor="middle" x="57.7405" y="-29.5" font-family="Helvetica,sans-Serif" font-size="10.00">::setName</text>
</g>
<!-- Node2 -->
<g id="node2" class="node"><title>Node2</title>
<g id="a_node2"><a xlink:href="classpanda_1_1Container.html#a47bf4140207c40fa731f44766dde536c" target="_top" xlink:title="Copy the array contents. ">
<polygon fill="white" stroke="black" points="156.479,-51.5 156.479,-71.5 275.849,-71.5 275.849,-51.5 156.479,-51.5"/>
<text text-anchor="middle" x="216.164" y="-58.5" font-family="Helvetica,sans-Serif" font-size="10.00">panda::Container::copy</text>
</a>
</g>
</g>
<!-- Node1&#45;&gt;Node2 -->
<g id="edge1" class="edge"><title>Node1&#45;&gt;Node2</title>
<path fill="none" stroke="midnightblue" d="M125.754,-48.3534C135.965,-49.8548 146.436,-51.3945 156.452,-52.8671"/>
<polygon fill="midnightblue" stroke="midnightblue" points="126.058,-44.8606 115.656,-46.8686 125.04,-51.7862 126.058,-44.8606"/>
</g>
<!-- Node5 -->
<g id="node5" class="node"><title>Node5</title>
<g id="a_node5"><a xlink:href="classpanda_1_1ContainerElement.html#aa08cde4084e7999257de2378579e9807" target="_top" xlink:title="panda::ContainerElement\l::setName">
<polygon fill="white" stroke="black" points="151.481,-0.5 151.481,-32.5 280.848,-32.5 280.848,-0.5 151.481,-0.5"/>
<text text-anchor="start" x="159.481" y="-19.5" font-family="Helvetica,sans-Serif" font-size="10.00">panda::ContainerElement</text>
<text text-anchor="middle" x="216.164" y="-7.5" font-family="Helvetica,sans-Serif" font-size="10.00">::setName</text>
</a>
</g>
</g>
<!-- Node1&#45;&gt;Node5 -->
<g id="edge4" class="edge"><title>Node1&#45;&gt;Node5</title>
<path fill="none" stroke="midnightblue" d="M125.594,-29.0975C134.155,-27.8935 142.9,-26.6635 151.41,-25.4667"/>
<polygon fill="midnightblue" stroke="midnightblue" points="125.071,-25.6366 115.656,-30.4953 126.046,-32.5683 125.071,-25.6366"/>
</g>
<!-- Node3 -->
<g id="node3" class="node"><title>Node3</title>
<g id="a_node3"><a xlink:href="classpanda_1_1Container.html#aec587dc1a3991463ce002ee9cb82cb08" target="_top" xlink:title="panda::Container::Container">
<polygon fill="white" stroke="black" points="316.848,-70.5 316.848,-90.5 458.441,-90.5 458.441,-70.5 316.848,-70.5"/>
<text text-anchor="middle" x="387.644" y="-77.5" font-family="Helvetica,sans-Serif" font-size="10.00">panda::Container::Container</text>
</a>
</g>
</g>
<!-- Node2&#45;&gt;Node3 -->
<g id="edge2" class="edge"><title>Node2&#45;&gt;Node3</title>
<path fill="none" stroke="midnightblue" d="M285.937,-69.21C296.037,-70.3422 306.451,-71.5097 316.576,-72.6448"/>
<polygon fill="midnightblue" stroke="midnightblue" points="286.292,-65.7279 275.965,-68.092 285.513,-72.6844 286.292,-65.7279"/>
</g>
<!-- Node4 -->
<g id="node4" class="node"><title>Node4</title>
<g id="a_node4"><a xlink:href="classpanda_1_1Container.html#a12c1ec82df87e7bb377788c76ba07891" target="_top" xlink:title="panda::Container::operator=">
<polygon fill="white" stroke="black" points="316.983,-31.5 316.983,-51.5 458.306,-51.5 458.306,-31.5 316.983,-31.5"/>
<text text-anchor="middle" x="387.644" y="-38.5" font-family="Helvetica,sans-Serif" font-size="10.00">panda::Container::operator=</text>
</a>
</g>
</g>
<!-- Node2&#45;&gt;Node4 -->
<g id="edge3" class="edge"><title>Node2&#45;&gt;Node4</title>
<path fill="none" stroke="midnightblue" d="M286.011,-53.3755C296.186,-52.1748 306.678,-50.9367 316.872,-49.7338"/>
<polygon fill="midnightblue" stroke="midnightblue" points="285.486,-49.9132 275.965,-54.5611 286.306,-56.8649 285.486,-49.9132"/>
</g>
</g>
</svg>
