<?xml version="1.0" encoding="UTF-8" standalone="no"?>
<!DOCTYPE svg PUBLIC "-//W3C//DTD SVG 1.1//EN"
 "http://www.w3.org/Graphics/SVG/1.1/DTD/svg11.dtd">
<!-- Generated by graphviz version 2.38.0 (20140413.2041)
 -->
<!-- Title: panda.generic.GenericBranch.write_decl Pages: 1 -->
<svg width="403pt" height="29pt"
 viewBox="0.00 0.00 402.76 29.00" xmlns="http://www.w3.org/2000/svg" xmlns:xlink="http://www.w3.org/1999/xlink">
<g id="graph0" class="graph" transform="scale(1 1) rotate(0) translate(4 25)">
<title>panda.generic.GenericBranch.write_decl</title>
<polygon fill="white" stroke="none" points="-4,4 -4,-25 398.758,-25 398.758,4 -4,4"/>
<!-- Node1 -->
<g id="node1" class="node"><title>Node1</title>
<polygon fill="#bfbfbf" stroke="black" points="-1.42109e-14,-0.5 -1.42109e-14,-20.5 196.596,-20.5 196.596,-0.5 -1.42109e-14,-0.5"/>
<text text-anchor="middle" x="98.298" y="-7.5" font-family="Helvetica,sans-Serif" font-size="10.00">panda.generic.GenericBranch.write_decl</text>
</g>
<!-- Node2 -->
<g id="node2" class="node"><title>Node2</title>
<g id="a_node2"><a xlink:href="classpanda_1_1branch_1_1Branch.html#aeac8bec76fc5d1d244500924e9582011" target="_top" xlink:title="panda.branch.Branch.arrdef_text">
<polygon fill="white" stroke="black" points="232.596,-0.5 232.596,-20.5 394.758,-20.5 394.758,-0.5 232.596,-0.5"/>
<text text-anchor="middle" x="313.677" y="-7.5" font-family="Helvetica,sans-Serif" font-size="10.00">panda.branch.Branch.arrdef_text</text>
</a>
</g>
</g>
<!-- Node1&#45;&gt;Node2 -->
<g id="edge1" class="edge"><title>Node1&#45;&gt;Node2</title>
<path fill="none" stroke="midnightblue" d="M196.621,-10.5C205.139,-10.5 213.737,-10.5 222.195,-10.5"/>
<polygon fill="midnightblue" stroke="midnightblue" points="222.429,-14.0001 232.429,-10.5 222.429,-7.0001 222.429,-14.0001"/>
</g>
</g>
</svg>
