<?xml version="1.0" encoding="UTF-8" standalone="no"?>
<!DOCTYPE svg PUBLIC "-//W3C//DTD SVG 1.1//EN"
 "http://www.w3.org/Graphics/SVG/1.1/DTD/svg11.dtd">
<!-- Generated by graphviz version 2.38.0 (20140413.2041)
 -->
<!-- Title: panda::MicroJet::setStatus Pages: 1 -->
<!--zoomable 189 -->
<svg id="main" version="1.1" xmlns="http://www.w3.org/2000/svg" xmlns:xlink="http://www.w3.org/1999/xlink" xml:space="preserve" onload="init(evt)">
<style type="text/css"><![CDATA[
.edge:hover path { stroke: red; }
.edge:hover polygon { stroke: red; fill: red; }
]]></style>
<script type="text/javascript"><![CDATA[
var edges = document.getElementsByTagName('g');
if (edges && edges.length) {
  for (var i=0;i<edges.length;i++) {
    if (edges[i].id.substr(0,4)=='edge') {
      edges[i].setAttribute('class','edge');
    }
  }
}
]]></script>
        <defs>
                <circle id="rim" cx="0" cy="0" r="7"/>
                <circle id="rim2" cx="0" cy="0" r="3.5"/>
                <g id="zoomPlus">
                        <use xlink:href="#rim" fill="#404040">
                                <set attributeName="fill" to="#808080" begin="zoomplus.mouseover" end="zoomplus.mouseout"/>
                        </use>
                        <path d="M-4,0h8M0,-4v8" fill="none" stroke="white" stroke-width="1.5" pointer-events="none"/>
                </g>
                <g id="zoomMin">
                        <use xlink:href="#rim" fill="#404040">
                                <set attributeName="fill" to="#808080" begin="zoomminus.mouseover" end="zoomminus.mouseout"/>
                        </use>
                        <path d="M-4,0h8" fill="none" stroke="white" stroke-width="1.5" pointer-events="none"/>
                </g>
                <g id="dirArrow">
                        <path fill="none" stroke="white" stroke-width="1.5" d="M0,-3.0v7 M-2.5,-0.5L0,-3.0L2.5,-0.5"/>
                </g>
               <g id="resetDef">
                       <use xlink:href="#rim2" fill="#404040">
                               <set attributeName="fill" to="#808080" begin="reset.mouseover" end="reset.mouseout"/>
                       </use>
               </g>
        </defs>

<script type="text/javascript">
var viewWidth = 835;
var viewHeight = 189;
var sectionId = 'dynsection-16';
</script>
<script xlink:href="svgpan.js"/>
<svg id="graph" class="graph">
<g id="viewport">
<title>panda::MicroJet::setStatus</title>
<polygon fill="white" stroke="none" points="-4,4 -4,-185 830.95,-185 830.95,4 -4,4"/>
<!-- Node1 -->
<g id="node1" class="node"><title>Node1</title>
<polygon fill="#bfbfbf" stroke="black" points="-2.84217e-14,-109.5 -2.84217e-14,-129.5 134.368,-129.5 134.368,-109.5 -2.84217e-14,-109.5"/>
<text text-anchor="middle" x="67.184" y="-116.5" font-family="Helvetica,sans-Serif" font-size="10.00">panda::MicroJet::setStatus</text>
</g>
<!-- Node2 -->
<g id="node2" class="node"><title>Node2</title>
<g id="a_node2"><a xlink:href="classpanda_1_1ParticleM.html#a3154bba2f00a8165994caa8ef55473bf" target="_top" xlink:title="Set status of branches with names that correspond to the variables of this object. ">
<polygon fill="white" stroke="black" points="170.368,-109.5 170.368,-129.5 308.624,-129.5 308.624,-109.5 170.368,-109.5"/>
<text text-anchor="middle" x="239.496" y="-116.5" font-family="Helvetica,sans-Serif" font-size="10.00">panda::ParticleM::setStatus</text>
</a>
</g>
</g>
<!-- Node1&#45;&gt;Node2 -->
<g id="edge1" class="edge"><title>Node1&#45;&gt;Node2</title>
<path fill="none" stroke="midnightblue" d="M134.519,-119.5C142.819,-119.5 151.37,-119.5 159.835,-119.5"/>
<polygon fill="midnightblue" stroke="midnightblue" points="160.096,-123 170.096,-119.5 160.096,-116 160.096,-123"/>
</g>
<!-- Node5 -->
<g id="node5" class="node"><title>Node5</title>
<g id="a_node5"><a xlink:href="classpanda_1_1utils_1_1StoreManager.html#a6f30ec459d951e84a1196b7e2ffdcf49" target="_top" xlink:title="panda::utils::StoreManager\l::getName">
<polygon fill="white" stroke="black" points="510.551,-148.5 510.551,-180.5 646.586,-180.5 646.586,-148.5 510.551,-148.5"/>
<text text-anchor="start" x="518.551" y="-167.5" font-family="Helvetica,sans-Serif" font-size="10.00">panda::utils::StoreManager</text>
<text text-anchor="middle" x="578.569" y="-155.5" font-family="Helvetica,sans-Serif" font-size="10.00">::getName</text>
</a>
</g>
</g>
<!-- Node1&#45;&gt;Node5 -->
<g id="edge12" class="edge"><title>Node1&#45;&gt;Node5</title>
<path fill="none" stroke="midnightblue" d="M118.76,-129.507C135.186,-132.596 153.52,-135.872 170.368,-138.5 247.498,-150.529 266.761,-154.933 344.624,-160.5 396.479,-164.208 454.983,-165.201 500.389,-165.27"/>
<polygon fill="midnightblue" stroke="midnightblue" points="500.457,-168.77 510.458,-165.271 500.458,-161.77 500.457,-168.77"/>
</g>
<!-- Node6 -->
<g id="node6" class="node"><title>Node6</title>
<g id="a_node6"><a xlink:href="namespacepanda_1_1utils.html#a01665f786d6a2acedb8f008f3fc9fc84" target="_top" xlink:title="Set status of a branch. ">
<polygon fill="white" stroke="black" points="521.384,-70.5 521.384,-90.5 635.754,-90.5 635.754,-70.5 521.384,-70.5"/>
<text text-anchor="middle" x="578.569" y="-77.5" font-family="Helvetica,sans-Serif" font-size="10.00">panda::utils::setStatus</text>
</a>
</g>
</g>
<!-- Node1&#45;&gt;Node6 -->
<g id="edge13" class="edge"><title>Node1&#45;&gt;Node6</title>
<path fill="none" stroke="midnightblue" d="M114.05,-109.491C131.6,-105.933 151.848,-102.156 170.368,-99.5 247.353,-88.4608 266.957,-87.5595 344.624,-83.5 400.574,-80.5757 464.179,-79.9377 510.773,-79.968"/>
<polygon fill="midnightblue" stroke="midnightblue" points="511.037,-83.4683 521.043,-79.9856 511.049,-76.4684 511.037,-83.4683"/>
</g>
<!-- Node3 -->
<g id="node3" class="node"><title>Node3</title>
<g id="a_node3"><a xlink:href="classpanda_1_1Particle.html#a114feb26e7ed0b5fac53646fca93964e" target="_top" xlink:title="Set status of branches with names that correspond to the variables of this object. ">
<polygon fill="white" stroke="black" points="344.624,-109.5 344.624,-129.5 474.551,-129.5 474.551,-109.5 344.624,-109.5"/>
<text text-anchor="middle" x="409.588" y="-116.5" font-family="Helvetica,sans-Serif" font-size="10.00">panda::Particle::setStatus</text>
</a>
</g>
</g>
<!-- Node2&#45;&gt;Node3 -->
<g id="edge2" class="edge"><title>Node2&#45;&gt;Node3</title>
<path fill="none" stroke="midnightblue" d="M308.865,-119.5C317.266,-119.5 325.883,-119.5 334.365,-119.5"/>
<polygon fill="midnightblue" stroke="midnightblue" points="334.62,-123 344.62,-119.5 334.62,-116 334.62,-123"/>
</g>
<!-- Node2&#45;&gt;Node5 -->
<g id="edge10" class="edge"><title>Node2&#45;&gt;Node5</title>
<path fill="none" stroke="midnightblue" d="M291.488,-129.533C308.361,-132.658 327.261,-135.95 344.624,-138.5 396.371,-146.1 454.876,-152.622 500.309,-157.233"/>
<polygon fill="midnightblue" stroke="midnightblue" points="500.084,-160.728 510.384,-158.246 500.785,-153.763 500.084,-160.728"/>
</g>
<!-- Node2&#45;&gt;Node6 -->
<g id="edge11" class="edge"><title>Node2&#45;&gt;Node6</title>
<path fill="none" stroke="midnightblue" d="M286.97,-109.457C304.913,-105.873 325.655,-102.088 344.624,-99.5 400.62,-91.8617 464.638,-86.9107 511.374,-83.9839"/>
<polygon fill="midnightblue" stroke="midnightblue" points="511.605,-87.4764 521.373,-83.3721 511.177,-80.4895 511.605,-87.4764"/>
</g>
<!-- Node4 -->
<g id="node4" class="node"><title>Node4</title>
<g id="a_node4"><a xlink:href="classpanda_1_1Object.html#a282e820b1ad431db22ca4d4dd20b55e0" target="_top" xlink:title="Set status of branches with names that correspond to the variables of this object. ">
<polygon fill="white" stroke="black" points="515.824,-109.5 515.824,-129.5 641.313,-129.5 641.313,-109.5 515.824,-109.5"/>
<text text-anchor="middle" x="578.569" y="-116.5" font-family="Helvetica,sans-Serif" font-size="10.00">panda::Object::setStatus</text>
</a>
</g>
</g>
<!-- Node3&#45;&gt;Node4 -->
<g id="edge3" class="edge"><title>Node3&#45;&gt;Node4</title>
<path fill="none" stroke="midnightblue" d="M474.669,-119.5C484.74,-119.5 495.21,-119.5 505.447,-119.5"/>
<polygon fill="midnightblue" stroke="midnightblue" points="505.584,-123 515.584,-119.5 505.584,-116 505.584,-123"/>
</g>
<!-- Node3&#45;&gt;Node5 -->
<g id="edge4" class="edge"><title>Node3&#45;&gt;Node5</title>
<path fill="none" stroke="midnightblue" d="M448.061,-129.599C465.825,-134.386 487.631,-140.263 508.249,-145.819"/>
<polygon fill="midnightblue" stroke="midnightblue" points="507.368,-149.206 517.935,-148.429 509.19,-142.448 507.368,-149.206"/>
</g>
<!-- Node3&#45;&gt;Node6 -->
<g id="edge5" class="edge"><title>Node3&#45;&gt;Node6</title>
<path fill="none" stroke="midnightblue" d="M453.589,-109.457C475.306,-104.384 501.846,-98.1857 524.79,-92.8269"/>
<polygon fill="midnightblue" stroke="midnightblue" points="525.771,-96.1922 534.712,-90.5094 524.178,-89.3756 525.771,-96.1922"/>
</g>
<!-- Node7 -->
<g id="node7" class="node"><title>Node7</title>
<g id="a_node7"><a xlink:href="classpanda_1_1utils_1_1BranchName.html#a6cc8a6df7c5b12a0221fd49773cca6a7" target="_top" xlink:title="Is the name included and not vetoed? ">
<polygon fill="white" stroke="black" points="682.586,-141.5 682.586,-161.5 826.95,-161.5 826.95,-141.5 682.586,-141.5"/>
<text text-anchor="middle" x="754.768" y="-148.5" font-family="Helvetica,sans-Serif" font-size="10.00">panda::utils::BranchName::in</text>
</a>
</g>
</g>
<!-- Node6&#45;&gt;Node7 -->
<g id="edge6" class="edge"><title>Node6&#45;&gt;Node7</title>
<path fill="none" stroke="midnightblue" d="M625.724,-90.6052C632.926,-93.0189 640.117,-95.9539 646.586,-99.5 665.358,-109.79 663.802,-121.232 682.586,-131.5 687.047,-133.939 691.832,-136.102 696.734,-138.016"/>
<polygon fill="midnightblue" stroke="midnightblue" points="695.654,-141.347 706.249,-141.397 697.998,-134.751 695.654,-141.347"/>
</g>
<!-- Node8 -->
<g id="node8" class="node"><title>Node8</title>
<g id="a_node8"><a xlink:href="classpanda_1_1utils_1_1BranchName.html#ae3332329bf2afae5ed8e7c35e5d77ffa" target="_top" xlink:title="Is the name included and vetoed? ">
<polygon fill="white" stroke="black" points="689.254,-90.5 689.254,-122.5 820.282,-122.5 820.282,-90.5 689.254,-90.5"/>
<text text-anchor="start" x="697.254" y="-109.5" font-family="Helvetica,sans-Serif" font-size="10.00">panda::utils::BranchName</text>
<text text-anchor="middle" x="754.768" y="-97.5" font-family="Helvetica,sans-Serif" font-size="10.00">::vetoed</text>
</a>
</g>
</g>
<!-- Node6&#45;&gt;Node8 -->
<g id="edge7" class="edge"><title>Node6&#45;&gt;Node8</title>
<path fill="none" stroke="midnightblue" d="M636.126,-88.9415C649.716,-90.9699 664.442,-93.1678 678.727,-95.2999"/>
<polygon fill="midnightblue" stroke="midnightblue" points="678.621,-98.8227 689.028,-96.8373 679.655,-91.8994 678.621,-98.8227"/>
</g>
<!-- Node9 -->
<g id="node9" class="node"><title>Node9</title>
<g id="a_node9"><a xlink:href="classpanda_1_1utils_1_1BranchName.html#a13958ff4a9d554d2c057c600b4f70412" target="_top" xlink:title="Prepend the branch name with &lt;objName.&gt;. ">
<polygon fill="white" stroke="black" points="689.254,-39.5 689.254,-71.5 820.282,-71.5 820.282,-39.5 689.254,-39.5"/>
<text text-anchor="start" x="697.254" y="-58.5" font-family="Helvetica,sans-Serif" font-size="10.00">panda::utils::BranchName</text>
<text text-anchor="middle" x="754.768" y="-46.5" font-family="Helvetica,sans-Serif" font-size="10.00">::fullName</text>
</a>
</g>
</g>
<!-- Node6&#45;&gt;Node9 -->
<g id="edge8" class="edge"><title>Node6&#45;&gt;Node9</title>
<path fill="none" stroke="midnightblue" d="M636.126,-72.3832C649.716,-70.4328 664.442,-68.3194 678.727,-66.2694"/>
<polygon fill="midnightblue" stroke="midnightblue" points="679.627,-69.6762 689.028,-64.791 678.632,-62.7472 679.627,-69.6762"/>
</g>
<!-- Node10 -->
<g id="node10" class="node"><title>Node10</title>
<g id="a_node10"><a xlink:href="namespacepanda_1_1utils.html#aafa411773a4b0ee829d99e6e5a0abdcd" target="_top" xlink:title="Check status of a branch. ">
<polygon fill="white" stroke="black" points="691.193,-0.5 691.193,-20.5 818.343,-20.5 818.343,-0.5 691.193,-0.5"/>
<text text-anchor="middle" x="754.768" y="-7.5" font-family="Helvetica,sans-Serif" font-size="10.00">panda::utils::checkStatus</text>
</a>
</g>
</g>
<!-- Node6&#45;&gt;Node10 -->
<g id="edge9" class="edge"><title>Node6&#45;&gt;Node10</title>
<path fill="none" stroke="midnightblue" d="M597.319,-70.3521C617.472,-59.1554 651.585,-41.1784 682.586,-29.5 688.399,-27.3103 694.568,-25.2677 700.748,-23.3951"/>
<polygon fill="midnightblue" stroke="midnightblue" points="701.788,-26.7378 710.421,-20.5957 699.842,-20.0137 701.788,-26.7378"/>
</g>
</g>
</svg>
        <g id="navigator" transform="translate(0 0)" fill="#404254">
                <rect fill="#f2f5e9" fill-opacity="0.5" stroke="#606060" stroke-width=".5" x="0" y="0" width="60" height="60"/>
                <use id="zoomplus" xlink:href="#zoomPlus" x="17" y="9" onmousedown="handleZoom(evt,'in')"/>
                <use id="zoomminus" xlink:href="#zoomMin" x="42" y="9" onmousedown="handleZoom(evt,'out')"/>
                <use id="reset" xlink:href="#resetDef" x="30" y="36" onmousedown="handleReset()"/>
                <g id="arrowUp" xlink:href="#dirArrow" transform="translate(30 24)" onmousedown="handlePan(0,-1)">
                  <use xlink:href="#rim" fill="#404040">
                        <set attributeName="fill" to="#808080" begin="arrowUp.mouseover" end="arrowUp.mouseout"/>
                  </use>
                  <path fill="none" stroke="white" stroke-width="1.5" d="M0,-3.0v7 M-2.5,-0.5L0,-3.0L2.5,-0.5"/>
                </g>
                <g id="arrowRight" xlink:href="#dirArrow" transform="rotate(90) translate(36 -43)" onmousedown="handlePan(1,0)">
                  <use xlink:href="#rim" fill="#404040">
                        <set attributeName="fill" to="#808080" begin="arrowRight.mouseover" end="arrowRight.mouseout"/>
                  </use>
                  <path fill="none" stroke="white" stroke-width="1.5" d="M0,-3.0v7 M-2.5,-0.5L0,-3.0L2.5,-0.5"/>
                </g>
                <g id="arrowDown" xlink:href="#dirArrow" transform="rotate(180) translate(-30 -48)" onmousedown="handlePan(0,1)">
                  <use xlink:href="#rim" fill="#404040">
                        <set attributeName="fill" to="#808080" begin="arrowDown.mouseover" end="arrowDown.mouseout"/>
                  </use>
                  <path fill="none" stroke="white" stroke-width="1.5" d="M0,-3.0v7 M-2.5,-0.5L0,-3.0L2.5,-0.5"/>
                </g>
                <g id="arrowLeft" xlink:href="#dirArrow" transform="rotate(270) translate(-36 17)" onmousedown="handlePan(-1,0)">
                  <use xlink:href="#rim" fill="#404040">
                        <set attributeName="fill" to="#808080" begin="arrowLeft.mouseover" end="arrowLeft.mouseout"/>
                  </use>
                  <path fill="none" stroke="white" stroke-width="1.5" d="M0,-3.0v7 M-2.5,-0.5L0,-3.0L2.5,-0.5"/>
                </g>
        </g>
        <svg viewBox="0 0 15 15" width="100%" height="30px" preserveAspectRatio="xMaxYMin meet">
         <g id="arrow_out" transform="scale(0.3 0.3)">
          <a xlink:href="classpanda_1_1MicroJet_a55b434c84ffd0e71a8d6e96c29cbe57a_cgraph_org.svg" target="_base">
           <rect id="button" ry="5" rx="5" y="6" x="6" height="38" width="38"
                fill="#f2f5e9" fill-opacity="0.5" stroke="#606060" stroke-width="1.0"/>
           <path id="arrow"
             d="M 11.500037,31.436501 C 11.940474,20.09759 22.043105,11.32322 32.158766,21.979434 L 37.068811,17.246167 C 37.068811,17.246167 37.088388,32 37.088388,32 L 22.160133,31.978069 C 22.160133,31.978069 26.997745,27.140456 26.997745,27.140456 C 18.528582,18.264221 13.291696,25.230495 11.500037,31.436501 z"
             style="fill:#404040;"/>
          </a>
         </g>
        </svg>
</svg>
