<?xml version="1.0" encoding="UTF-8" standalone="no"?>
<!DOCTYPE svg PUBLIC "-//W3C//DTD SVG 1.1//EN"
 "http://www.w3.org/Graphics/SVG/1.1/DTD/svg11.dtd">
<!-- Generated by graphviz version 2.38.0 (20140413.2041)
 -->
<!-- Title: panda::HLTBits::releaseTree Pages: 1 -->
<svg width="492pt" height="74pt"
 viewBox="0.00 0.00 491.98 74.00" xmlns="http://www.w3.org/2000/svg" xmlns:xlink="http://www.w3.org/1999/xlink">
<g id="graph0" class="graph" transform="scale(1 1) rotate(0) translate(4 70)">
<title>panda::HLTBits::releaseTree</title>
<polygon fill="white" stroke="none" points="-4,4 -4,-70 487.979,-70 487.979,4 -4,4"/>
<!-- Node1 -->
<g id="node1" class="node"><title>Node1</title>
<polygon fill="#bfbfbf" stroke="black" points="0,-25.5 0,-45.5 143.805,-45.5 143.805,-25.5 0,-25.5"/>
<text text-anchor="middle" x="71.9025" y="-32.5" font-family="Helvetica,sans-Serif" font-size="10.00">panda::HLTBits::releaseTree</text>
</g>
<!-- Node2 -->
<g id="node2" class="node"><title>Node2</title>
<g id="a_node2"><a xlink:href="classpanda_1_1Object.html#aaf58438092b42a89b838ce12c6a23833" target="_top" xlink:title="Reset the branch pointer to unlink the branch from this object. ">
<polygon fill="white" stroke="black" points="179.805,-45.5 179.805,-65.5 316.951,-65.5 316.951,-45.5 179.805,-45.5"/>
<text text-anchor="middle" x="248.378" y="-52.5" font-family="Helvetica,sans-Serif" font-size="10.00">panda::Object::releaseTree</text>
</a>
</g>
</g>
<!-- Node1&#45;&gt;Node2 -->
<g id="edge1" class="edge"><title>Node1&#45;&gt;Node2</title>
<path fill="none" stroke="midnightblue" d="M143.868,-43.6348C152.345,-44.6064 161.033,-45.6024 169.599,-46.5843"/>
<polygon fill="midnightblue" stroke="midnightblue" points="169.244,-50.0664 179.578,-47.7281 170.041,-43.112 169.244,-50.0664"/>
</g>
<!-- Node3 -->
<g id="node3" class="node"><title>Node3</title>
<g id="a_node3"><a xlink:href="namespacepanda_1_1utils.html#a82a8530e64fbdf917cf9b8659065f98b" target="_top" xlink:title="panda::utils::resetAddress">
<polygon fill="white" stroke="black" points="182.584,-6.5 182.584,-26.5 314.172,-26.5 314.172,-6.5 182.584,-6.5"/>
<text text-anchor="middle" x="248.378" y="-13.5" font-family="Helvetica,sans-Serif" font-size="10.00">panda::utils::resetAddress</text>
</a>
</g>
</g>
<!-- Node1&#45;&gt;Node3 -->
<g id="edge2" class="edge"><title>Node1&#45;&gt;Node3</title>
<path fill="none" stroke="midnightblue" d="M143.868,-27.772C153.222,-26.7534 162.834,-25.7067 172.254,-24.6809"/>
<polygon fill="midnightblue" stroke="midnightblue" points="172.816,-28.1404 182.379,-23.5783 172.059,-21.1815 172.816,-28.1404"/>
</g>
<!-- Node4 -->
<g id="node4" class="node"><title>Node4</title>
<g id="a_node4"><a xlink:href="classpanda_1_1utils_1_1BranchName.html#a13958ff4a9d554d2c057c600b4f70412" target="_top" xlink:title="Prepend the branch name with &lt;objName.&gt;. ">
<polygon fill="white" stroke="black" points="352.951,-0.5 352.951,-32.5 483.979,-32.5 483.979,-0.5 352.951,-0.5"/>
<text text-anchor="start" x="360.951" y="-19.5" font-family="Helvetica,sans-Serif" font-size="10.00">panda::utils::BranchName</text>
<text text-anchor="middle" x="418.465" y="-7.5" font-family="Helvetica,sans-Serif" font-size="10.00">::fullName</text>
</a>
</g>
</g>
<!-- Node3&#45;&gt;Node4 -->
<g id="edge3" class="edge"><title>Node3&#45;&gt;Node4</title>
<path fill="none" stroke="midnightblue" d="M314.365,-16.5C323.659,-16.5 333.282,-16.5 342.745,-16.5"/>
<polygon fill="midnightblue" stroke="midnightblue" points="342.928,-20.0001 352.928,-16.5 342.928,-13.0001 342.928,-20.0001"/>
</g>
</g>
</svg>
