<?xml version="1.0" encoding="UTF-8" standalone="no"?>
<!DOCTYPE svg PUBLIC "-//W3C//DTD SVG 1.1//EN"
 "http://www.w3.org/Graphics/SVG/1.1/DTD/svg11.dtd">
<!-- Generated by graphviz version 2.38.0 (20140413.2041)
 -->
<!-- Title: panda.physics.PhysicsObject.generate_source Pages: 1 -->
<svg width="388pt" height="92pt"
 viewBox="0.00 0.00 388.30 92.00" xmlns="http://www.w3.org/2000/svg" xmlns:xlink="http://www.w3.org/1999/xlink">
<g id="graph0" class="graph" transform="scale(1 1) rotate(0) translate(4 88)">
<title>panda.physics.PhysicsObject.generate_source</title>
<polygon fill="white" stroke="none" points="-4,4 -4,-88 384.303,-88 384.303,4 -4,4"/>
<!-- Node1 -->
<g id="node1" class="node"><title>Node1</title>
<polygon fill="#bfbfbf" stroke="black" points="1.42109e-14,-25.5 1.42109e-14,-57.5 188.273,-57.5 188.273,-25.5 1.42109e-14,-25.5"/>
<text text-anchor="start" x="8" y="-44.5" font-family="Helvetica,sans-Serif" font-size="10.00">panda.physics.PhysicsObject.generate</text>
<text text-anchor="middle" x="94.1365" y="-32.5" font-family="Helvetica,sans-Serif" font-size="10.00">_source</text>
</g>
<!-- Node2 -->
<g id="node2" class="node"><title>Node2</title>
<g id="a_node2"><a xlink:href="classpanda_1_1physics_1_1PhysicsObject.html#a870008e964d7029bdbe7d54c1ce52b85" target="_top" xlink:title="panda.physics.PhysicsObject.is\l_singlet">
<polygon fill="white" stroke="black" points="224.273,-51.5 224.273,-83.5 380.303,-83.5 380.303,-51.5 224.273,-51.5"/>
<text text-anchor="start" x="232.273" y="-70.5" font-family="Helvetica,sans-Serif" font-size="10.00">panda.physics.PhysicsObject.is</text>
<text text-anchor="middle" x="302.288" y="-58.5" font-family="Helvetica,sans-Serif" font-size="10.00">_singlet</text>
</a>
</g>
</g>
<!-- Node1&#45;&gt;Node2 -->
<g id="edge1" class="edge"><title>Node1&#45;&gt;Node2</title>
<path fill="none" stroke="midnightblue" d="M188.561,-53.2828C197.044,-54.3527 205.615,-55.4336 214.041,-56.4963"/>
<polygon fill="midnightblue" stroke="midnightblue" points="213.872,-60.0027 224.232,-57.7816 214.748,-53.0577 213.872,-60.0027"/>
</g>
<!-- Node3 -->
<g id="node3" class="node"><title>Node3</title>
<g id="a_node3"><a xlink:href="classpanda_1_1physics_1_1PhysicsObject.html#ad910d0c9f4dad6a86c0ae87f3a25930f" target="_top" xlink:title="panda.physics.PhysicsObject.\l_write_method">
<polygon fill="white" stroke="black" points="227.882,-0.5 227.882,-32.5 376.694,-32.5 376.694,-0.5 227.882,-0.5"/>
<text text-anchor="start" x="235.882" y="-19.5" font-family="Helvetica,sans-Serif" font-size="10.00">panda.physics.PhysicsObject.</text>
<text text-anchor="middle" x="302.288" y="-7.5" font-family="Helvetica,sans-Serif" font-size="10.00">_write_method</text>
</a>
</g>
</g>
<!-- Node1&#45;&gt;Node3 -->
<g id="edge2" class="edge"><title>Node1&#45;&gt;Node3</title>
<path fill="none" stroke="midnightblue" d="M188.561,-30.1703C198.184,-29.0034 207.921,-27.8227 217.43,-26.6694"/>
<polygon fill="midnightblue" stroke="midnightblue" points="218.139,-30.1092 227.645,-25.4307 217.296,-23.1601 218.139,-30.1092"/>
</g>
</g>
</svg>
