<?xml version="1.0" encoding="UTF-8" standalone="no"?>
<!DOCTYPE svg PUBLIC "-//W3C//DTD SVG 1.1//EN"
 "http://www.w3.org/Graphics/SVG/1.1/DTD/svg11.dtd">
<!-- Generated by graphviz version 2.38.0 (20140413.2041)
 -->
<!-- Title: panda::Photon::init Pages: 1 -->
<svg width="377pt" height="29pt"
 viewBox="0.00 0.00 376.97 29.00" xmlns="http://www.w3.org/2000/svg" xmlns:xlink="http://www.w3.org/1999/xlink">
<g id="graph0" class="graph" transform="scale(1 1) rotate(0) translate(4 25)">
<title>panda::Photon::init</title>
<polygon fill="white" stroke="none" points="-4,4 -4,-25 372.973,-25 372.973,4 -4,4"/>
<!-- Node1 -->
<g id="node1" class="node"><title>Node1</title>
<polygon fill="#bfbfbf" stroke="black" points="-1.42109e-14,-0.5 -1.42109e-14,-20.5 99.371,-20.5 99.371,-0.5 -1.42109e-14,-0.5"/>
<text text-anchor="middle" x="49.6855" y="-7.5" font-family="Helvetica,sans-Serif" font-size="10.00">panda::Photon::init</text>
</g>
<!-- Node2 -->
<g id="node2" class="node"><title>Node2</title>
<g id="a_node2"><a xlink:href="classpanda_1_1Particle.html#a56ba0060e9e37322f98e2f30c3583dd3" target="_top" xlink:title="Reset object state. ">
<polygon fill="white" stroke="black" points="135.371,-0.5 135.371,-20.5 236.391,-20.5 236.391,-0.5 135.371,-0.5"/>
<text text-anchor="middle" x="185.881" y="-7.5" font-family="Helvetica,sans-Serif" font-size="10.00">panda::Particle::init</text>
</a>
</g>
</g>
<!-- Node1&#45;&gt;Node2 -->
<g id="edge1" class="edge"><title>Node1&#45;&gt;Node2</title>
<path fill="none" stroke="midnightblue" d="M99.5128,-10.5C107.718,-10.5 116.317,-10.5 124.767,-10.5"/>
<polygon fill="midnightblue" stroke="midnightblue" points="124.964,-14.0001 134.964,-10.5 124.964,-7.0001 124.964,-14.0001"/>
</g>
<!-- Node3 -->
<g id="node3" class="node"><title>Node3</title>
<g id="a_node3"><a xlink:href="classpanda_1_1Object.html#a204960e5f165a28176f9b4a42b9ea90c" target="_top" xlink:title="Reset object state. ">
<polygon fill="white" stroke="black" points="272.391,-0.5 272.391,-20.5 368.973,-20.5 368.973,-0.5 272.391,-0.5"/>
<text text-anchor="middle" x="320.682" y="-7.5" font-family="Helvetica,sans-Serif" font-size="10.00">panda::Object::init</text>
</a>
</g>
</g>
<!-- Node2&#45;&gt;Node3 -->
<g id="edge2" class="edge"><title>Node2&#45;&gt;Node3</title>
<path fill="none" stroke="midnightblue" d="M236.709,-10.5C244.976,-10.5 253.61,-10.5 262.051,-10.5"/>
<polygon fill="midnightblue" stroke="midnightblue" points="262.214,-14.0001 272.214,-10.5 262.214,-7.0001 262.214,-14.0001"/>
</g>
</g>
</svg>
