<?xml version="1.0" encoding="UTF-8" standalone="no"?>
<!DOCTYPE svg PUBLIC "-//W3C//DTD SVG 1.1//EN"
 "http://www.w3.org/Graphics/SVG/1.1/DTD/svg11.dtd">
<!-- Generated by graphviz version 2.38.0 (20140413.2041)
 -->
<!-- Title: panda::Parton::releaseTree Pages: 1 -->
<svg width="849pt" height="125pt"
 viewBox="0.00 0.00 849.38 125.00" xmlns="http://www.w3.org/2000/svg" xmlns:xlink="http://www.w3.org/1999/xlink">
<g id="graph0" class="graph" transform="scale(1 1) rotate(0) translate(4 121)">
<title>panda::Parton::releaseTree</title>
<polygon fill="white" stroke="none" points="-4,4 -4,-121 845.376,-121 845.376,4 -4,4"/>
<!-- Node1 -->
<g id="node1" class="node"><title>Node1</title>
<polygon fill="#bfbfbf" stroke="black" points="-2.84217e-14,-45.5 -2.84217e-14,-65.5 137.705,-65.5 137.705,-45.5 -2.84217e-14,-45.5"/>
<text text-anchor="middle" x="68.8525" y="-52.5" font-family="Helvetica,sans-Serif" font-size="10.00">panda::Parton::releaseTree</text>
</g>
<!-- Node2 -->
<g id="node2" class="node"><title>Node2</title>
<g id="a_node2"><a xlink:href="classpanda_1_1ParticleM.html#a0315a281e15ff66329eef5169b162e8e" target="_top" xlink:title="Reset the branch pointer to unlink the branch from this object. ">
<polygon fill="white" stroke="black" points="173.705,-45.5 173.705,-65.5 323.618,-65.5 323.618,-45.5 173.705,-45.5"/>
<text text-anchor="middle" x="248.661" y="-52.5" font-family="Helvetica,sans-Serif" font-size="10.00">panda::ParticleM::releaseTree</text>
</a>
</g>
</g>
<!-- Node1&#45;&gt;Node2 -->
<g id="edge1" class="edge"><title>Node1&#45;&gt;Node2</title>
<path fill="none" stroke="midnightblue" d="M137.836,-55.5C146.221,-55.5 154.87,-55.5 163.46,-55.5"/>
<polygon fill="midnightblue" stroke="midnightblue" points="163.497,-59.0001 173.497,-55.5 163.497,-52.0001 163.497,-59.0001"/>
</g>
<!-- Node5 -->
<g id="node5" class="node"><title>Node5</title>
<g id="a_node5"><a xlink:href="classpanda_1_1utils_1_1StoreManager.html#a6f30ec459d951e84a1196b7e2ffdcf49" target="_top" xlink:title="panda::utils::StoreManager\l::getName">
<polygon fill="white" stroke="black" points="537.757,-84.5 537.757,-116.5 673.792,-116.5 673.792,-84.5 537.757,-84.5"/>
<text text-anchor="start" x="545.757" y="-103.5" font-family="Helvetica,sans-Serif" font-size="10.00">panda::utils::StoreManager</text>
<text text-anchor="middle" x="605.775" y="-91.5" font-family="Helvetica,sans-Serif" font-size="10.00">::getName</text>
</a>
</g>
</g>
<!-- Node1&#45;&gt;Node5 -->
<g id="edge9" class="edge"><title>Node1&#45;&gt;Node5</title>
<path fill="none" stroke="midnightblue" d="M121.256,-65.5126C137.951,-68.6015 156.584,-71.877 173.705,-74.5 256.003,-87.1081 276.551,-91.8709 359.618,-97.5 415.719,-101.302 479.203,-101.979 527.511,-101.744"/>
<polygon fill="midnightblue" stroke="midnightblue" points="527.603,-105.243 537.58,-101.68 527.559,-98.2433 527.603,-105.243"/>
</g>
<!-- Node6 -->
<g id="node6" class="node"><title>Node6</title>
<g id="a_node6"><a xlink:href="namespacepanda_1_1utils.html#a82a8530e64fbdf917cf9b8659065f98b" target="_top" xlink:title="panda::utils::resetAddress">
<polygon fill="white" stroke="black" points="539.981,-6.5 539.981,-26.5 671.569,-26.5 671.569,-6.5 539.981,-6.5"/>
<text text-anchor="middle" x="605.775" y="-13.5" font-family="Helvetica,sans-Serif" font-size="10.00">panda::utils::resetAddress</text>
</a>
</g>
</g>
<!-- Node1&#45;&gt;Node6 -->
<g id="edge10" class="edge"><title>Node1&#45;&gt;Node6</title>
<path fill="none" stroke="midnightblue" d="M116.733,-45.45C134.511,-41.9082 154.98,-38.1525 173.705,-35.5 255.858,-23.8626 276.748,-22.6198 359.618,-18.5 416.669,-15.6638 481.279,-15.2516 529.843,-15.5014"/>
<polygon fill="midnightblue" stroke="midnightblue" points="529.932,-19.0019 539.954,-15.5641 529.976,-12.0021 529.932,-19.0019"/>
</g>
<!-- Node3 -->
<g id="node3" class="node"><title>Node3</title>
<g id="a_node3"><a xlink:href="classpanda_1_1Particle.html#a8fb6fa0b4316967da573181262727142" target="_top" xlink:title="Reset the branch pointer to unlink the branch from this object. ">
<polygon fill="white" stroke="black" points="359.618,-45.5 359.618,-65.5 501.202,-65.5 501.202,-45.5 359.618,-45.5"/>
<text text-anchor="middle" x="430.41" y="-52.5" font-family="Helvetica,sans-Serif" font-size="10.00">panda::Particle::releaseTree</text>
</a>
</g>
</g>
<!-- Node2&#45;&gt;Node3 -->
<g id="edge2" class="edge"><title>Node2&#45;&gt;Node3</title>
<path fill="none" stroke="midnightblue" d="M323.81,-55.5C332.198,-55.5 340.774,-55.5 349.234,-55.5"/>
<polygon fill="midnightblue" stroke="midnightblue" points="349.476,-59.0001 359.476,-55.5 349.476,-52.0001 349.476,-59.0001"/>
</g>
<!-- Node2&#45;&gt;Node5 -->
<g id="edge7" class="edge"><title>Node2&#45;&gt;Node5</title>
<path fill="none" stroke="midnightblue" d="M303.521,-65.531C321.34,-68.6559 341.294,-71.948 359.618,-74.5 415.619,-82.2994 479.105,-88.9728 527.44,-93.6054"/>
<polygon fill="midnightblue" stroke="midnightblue" points="527.229,-97.1011 537.516,-94.5627 527.892,-90.1325 527.229,-97.1011"/>
</g>
<!-- Node2&#45;&gt;Node6 -->
<g id="edge8" class="edge"><title>Node2&#45;&gt;Node6</title>
<path fill="none" stroke="midnightblue" d="M298.756,-45.4582C317.706,-41.8747 339.606,-38.0886 359.618,-35.5 416.436,-28.1507 481.056,-23.2853 529.684,-20.3192"/>
<polygon fill="midnightblue" stroke="midnightblue" points="530.036,-23.8046 539.809,-19.7149 529.619,-16.817 530.036,-23.8046"/>
</g>
<!-- Node4 -->
<g id="node4" class="node"><title>Node4</title>
<g id="a_node4"><a xlink:href="classpanda_1_1Object.html#aaf58438092b42a89b838ce12c6a23833" target="_top" xlink:title="Reset the branch pointer to unlink the branch from this object. ">
<polygon fill="white" stroke="black" points="537.202,-45.5 537.202,-65.5 674.348,-65.5 674.348,-45.5 537.202,-45.5"/>
<text text-anchor="middle" x="605.775" y="-52.5" font-family="Helvetica,sans-Serif" font-size="10.00">panda::Object::releaseTree</text>
</a>
</g>
</g>
<!-- Node3&#45;&gt;Node4 -->
<g id="edge3" class="edge"><title>Node3&#45;&gt;Node4</title>
<path fill="none" stroke="midnightblue" d="M501.424,-55.5C509.776,-55.5 518.342,-55.5 526.796,-55.5"/>
<polygon fill="midnightblue" stroke="midnightblue" points="527.031,-59.0001 537.031,-55.5 527.031,-52.0001 527.031,-59.0001"/>
</g>
<!-- Node3&#45;&gt;Node5 -->
<g id="edge4" class="edge"><title>Node3&#45;&gt;Node5</title>
<path fill="none" stroke="midnightblue" d="M470.316,-65.5989C488.843,-70.4078 511.604,-76.3158 533.096,-81.8944"/>
<polygon fill="midnightblue" stroke="midnightblue" points="532.303,-85.3044 542.861,-84.4292 534.061,-78.5289 532.303,-85.3044"/>
</g>
<!-- Node3&#45;&gt;Node6 -->
<g id="edge5" class="edge"><title>Node3&#45;&gt;Node6</title>
<path fill="none" stroke="midnightblue" d="M476.056,-45.4565C498.704,-40.3615 526.405,-34.1301 550.299,-28.7549"/>
<polygon fill="midnightblue" stroke="midnightblue" points="551.292,-32.1189 560.28,-26.5094 549.756,-25.2896 551.292,-32.1189"/>
</g>
<!-- Node7 -->
<g id="node7" class="node"><title>Node7</title>
<g id="a_node7"><a xlink:href="classpanda_1_1utils_1_1BranchName.html#a13958ff4a9d554d2c057c600b4f70412" target="_top" xlink:title="Prepend the branch name with &lt;objName.&gt;. ">
<polygon fill="white" stroke="black" points="710.348,-0.5 710.348,-32.5 841.376,-32.5 841.376,-0.5 710.348,-0.5"/>
<text text-anchor="start" x="718.348" y="-19.5" font-family="Helvetica,sans-Serif" font-size="10.00">panda::utils::BranchName</text>
<text text-anchor="middle" x="775.862" y="-7.5" font-family="Helvetica,sans-Serif" font-size="10.00">::fullName</text>
</a>
</g>
</g>
<!-- Node6&#45;&gt;Node7 -->
<g id="edge6" class="edge"><title>Node6&#45;&gt;Node7</title>
<path fill="none" stroke="midnightblue" d="M671.762,-16.5C681.056,-16.5 690.679,-16.5 700.142,-16.5"/>
<polygon fill="midnightblue" stroke="midnightblue" points="700.325,-20.0001 710.325,-16.5 700.325,-13.0001 700.325,-20.0001"/>
</g>
</g>
</svg>
