<?xml version="1.0" encoding="UTF-8" standalone="no"?>
<!DOCTYPE svg PUBLIC "-//W3C//DTD SVG 1.1//EN"
 "http://www.w3.org/Graphics/SVG/1.1/DTD/svg11.dtd">
<!-- Generated by graphviz version 2.38.0 (20140413.2041)
 -->
<!-- Title: panda::Object Pages: 1 -->
<svg width="880pt" height="497pt"
 viewBox="0.00 0.00 880.07 497.00" xmlns="http://www.w3.org/2000/svg" xmlns:xlink="http://www.w3.org/1999/xlink">
<g id="graph0" class="graph" transform="scale(1 1) rotate(0) translate(4 493)">
<title>panda::Object</title>
<polygon fill="white" stroke="none" points="-4,4 -4,-493 876.073,-493 876.073,4 -4,4"/>
<!-- Node1 -->
<g id="node1" class="node"><title>Node1</title>
<polygon fill="#bfbfbf" stroke="black" points="2.84217e-14,-224.5 2.84217e-14,-244.5 78.248,-244.5 78.248,-224.5 2.84217e-14,-224.5"/>
<text text-anchor="middle" x="39.124" y="-231.5" font-family="Helvetica,sans-Serif" font-size="10.00">panda::Object</text>
</g>
<!-- Node2 -->
<g id="node2" class="node"><title>Node2</title>
<g id="a_node2"><a xlink:href="classpanda_1_1ContainerBase.html" target="_top" xlink:title="Base class for all containers. ">
<polygon fill="white" stroke="black" points="121.191,-351.5 121.191,-371.5 236.672,-371.5 236.672,-351.5 121.191,-351.5"/>
<text text-anchor="middle" x="178.932" y="-358.5" font-family="Helvetica,sans-Serif" font-size="10.00">panda::ContainerBase</text>
</a>
</g>
</g>
<!-- Node1&#45;&gt;Node2 -->
<g id="edge1" class="edge"><title>Node1&#45;&gt;Node2</title>
<path fill="none" stroke="midnightblue" d="M58.4541,-251.667C73.4238,-265.661 95.1505,-285.916 114.248,-303.5 132.51,-320.315 153.866,-339.71 166.624,-351.269"/>
<polygon fill="midnightblue" stroke="midnightblue" points="60.5862,-248.869 50.8925,-244.593 55.804,-253.98 60.5862,-248.869"/>
</g>
<!-- Node5 -->
<g id="node5" class="node"><title>Node5</title>
<g id="a_node5"><a xlink:href="classpanda_1_1ContainerElement.html" target="_top" xlink:title="panda::ContainerElement">
<polygon fill="white" stroke="black" points="114.248,-273.5 114.248,-293.5 243.615,-293.5 243.615,-273.5 114.248,-273.5"/>
<text text-anchor="middle" x="178.932" y="-280.5" font-family="Helvetica,sans-Serif" font-size="10.00">panda::ContainerElement</text>
</a>
</g>
</g>
<!-- Node1&#45;&gt;Node5 -->
<g id="edge4" class="edge"><title>Node1&#45;&gt;Node5</title>
<path fill="none" stroke="midnightblue" d="M77.9995,-247.967C100.685,-256.034 129.043,-266.117 149.749,-273.479"/>
<polygon fill="midnightblue" stroke="midnightblue" points="78.9387,-244.587 68.3439,-244.534 76.5935,-251.182 78.9387,-244.587"/>
</g>
<!-- Node21 -->
<g id="node21" class="node"><title>Node21</title>
<g id="a_node21"><a xlink:href="classpanda_1_1Singlet.html" target="_top" xlink:title="panda::Singlet">
<polygon fill="white" stroke="black" points="138.974,-175.5 138.974,-195.5 218.89,-195.5 218.89,-175.5 138.974,-175.5"/>
<text text-anchor="middle" x="178.932" y="-182.5" font-family="Helvetica,sans-Serif" font-size="10.00">panda::Singlet</text>
</a>
</g>
</g>
<!-- Node1&#45;&gt;Node21 -->
<g id="edge20" class="edge"><title>Node1&#45;&gt;Node21</title>
<path fill="none" stroke="midnightblue" d="M77.9995,-221.033C100.685,-212.966 129.043,-202.883 149.749,-195.521"/>
<polygon fill="midnightblue" stroke="midnightblue" points="76.5935,-217.818 68.3439,-224.466 78.9387,-224.413 76.5935,-217.818"/>
</g>
<!-- Node28 -->
<g id="node28" class="node"><title>Node28</title>
<g id="a_node28"><a xlink:href="classpanda_1_1TreeEntry.html" target="_top" xlink:title="panda::TreeEntry">
<polygon fill="white" stroke="black" points="132.309,-39.5 132.309,-59.5 225.554,-59.5 225.554,-39.5 132.309,-39.5"/>
<text text-anchor="middle" x="178.932" y="-46.5" font-family="Helvetica,sans-Serif" font-size="10.00">panda::TreeEntry</text>
</a>
</g>
</g>
<!-- Node1&#45;&gt;Node28 -->
<g id="edge27" class="edge"><title>Node1&#45;&gt;Node28</title>
<path fill="none" stroke="midnightblue" d="M53.8691,-216.048C82.5017,-177.61 147.739,-90.0317 170.18,-59.9064"/>
<polygon fill="midnightblue" stroke="midnightblue" points="50.8964,-214.18 47.7294,-224.29 56.5101,-218.361 50.8964,-214.18"/>
</g>
<!-- Node3 -->
<g id="node3" class="node"><title>Node3</title>
<g id="a_node3"><a xlink:href="classpanda_1_1ArrayBase.html" target="_top" xlink:title="Base class for fixed&#45;size containers. ">
<polygon fill="white" stroke="black" points="289.618,-390.5 289.618,-410.5 385.643,-410.5 385.643,-390.5 289.618,-390.5"/>
<text text-anchor="middle" x="337.63" y="-397.5" font-family="Helvetica,sans-Serif" font-size="10.00">panda::ArrayBase</text>
</a>
</g>
</g>
<!-- Node2&#45;&gt;Node3 -->
<g id="edge2" class="edge"><title>Node2&#45;&gt;Node3</title>
<path fill="none" stroke="midnightblue" d="M230.185,-374.007C251.597,-379.337 276.236,-385.469 296.413,-390.491"/>
<polygon fill="midnightblue" stroke="midnightblue" points="230.835,-370.562 220.285,-371.543 229.144,-377.355 230.835,-370.562"/>
</g>
<!-- Node4 -->
<g id="node4" class="node"><title>Node4</title>
<g id="a_node4"><a xlink:href="classpanda_1_1CollectionBase.html" target="_top" xlink:title="Base class for dynamic&#45;size containers. ">
<polygon fill="white" stroke="black" points="279.615,-351.5 279.615,-371.5 395.646,-371.5 395.646,-351.5 279.615,-351.5"/>
<text text-anchor="middle" x="337.63" y="-358.5" font-family="Helvetica,sans-Serif" font-size="10.00">panda::CollectionBase</text>
</a>
</g>
</g>
<!-- Node2&#45;&gt;Node4 -->
<g id="edge3" class="edge"><title>Node2&#45;&gt;Node4</title>
<path fill="none" stroke="midnightblue" d="M247.134,-361.5C257.879,-361.5 268.91,-361.5 279.395,-361.5"/>
<polygon fill="midnightblue" stroke="midnightblue" points="246.947,-358 236.947,-361.5 246.947,-365 246.947,-358"/>
</g>
<!-- Node6 -->
<g id="node6" class="node"><title>Node6</title>
<g id="a_node6"><a xlink:href="classpanda_1_1Particle.html" target="_top" xlink:title="panda::Particle">
<polygon fill="white" stroke="black" points="296.287,-312.5 296.287,-332.5 378.974,-332.5 378.974,-312.5 296.287,-312.5"/>
<text text-anchor="middle" x="337.63" y="-319.5" font-family="Helvetica,sans-Serif" font-size="10.00">panda::Particle</text>
</a>
</g>
</g>
<!-- Node5&#45;&gt;Node6 -->
<g id="edge5" class="edge"><title>Node5&#45;&gt;Node6</title>
<path fill="none" stroke="midnightblue" d="M230.185,-296.007C251.597,-301.337 276.236,-307.469 296.413,-312.491"/>
<polygon fill="midnightblue" stroke="midnightblue" points="230.835,-292.562 220.285,-293.543 229.144,-299.355 230.835,-292.562"/>
</g>
<!-- Node20 -->
<g id="node20" class="node"><title>Node20</title>
<g id="a_node20"><a xlink:href="classpanda_1_1SuperCluster.html" target="_top" xlink:title="panda::SuperCluster">
<polygon fill="white" stroke="black" points="283.784,-273.5 283.784,-293.5 391.476,-293.5 391.476,-273.5 283.784,-273.5"/>
<text text-anchor="middle" x="337.63" y="-280.5" font-family="Helvetica,sans-Serif" font-size="10.00">panda::SuperCluster</text>
</a>
</g>
</g>
<!-- Node5&#45;&gt;Node20 -->
<g id="edge19" class="edge"><title>Node5&#45;&gt;Node20</title>
<path fill="none" stroke="midnightblue" d="M253.978,-283.5C263.931,-283.5 273.977,-283.5 283.47,-283.5"/>
<polygon fill="midnightblue" stroke="midnightblue" points="253.667,-280 243.667,-283.5 253.667,-287 253.667,-280"/>
</g>
<!-- Node7 -->
<g id="node7" class="node"><title>Node7</title>
<g id="a_node7"><a xlink:href="classpanda_1_1Lepton.html" target="_top" xlink:title="panda::Lepton">
<polygon fill="white" stroke="black" points="437.19,-429.5 437.19,-449.5 517.117,-449.5 517.117,-429.5 437.19,-429.5"/>
<text text-anchor="middle" x="477.153" y="-436.5" font-family="Helvetica,sans-Serif" font-size="10.00">panda::Lepton</text>
</a>
</g>
</g>
<!-- Node6&#45;&gt;Node7 -->
<g id="edge6" class="edge"><title>Node6&#45;&gt;Node7</title>
<path fill="none" stroke="midnightblue" d="M385.83,-336.707C389.266,-338.442 392.581,-340.368 395.646,-342.5 430.501,-366.742 458.763,-409.947 470.408,-429.453"/>
<polygon fill="midnightblue" stroke="midnightblue" points="387.096,-333.439 376.539,-332.545 384.235,-339.828 387.096,-333.439"/>
</g>
<!-- Node10 -->
<g id="node10" class="node"><title>Node10</title>
<g id="a_node10"><a xlink:href="classpanda_1_1ParticleM.html" target="_top" xlink:title="panda::ParticleM">
<polygon fill="white" stroke="black" points="431.646,-312.5 431.646,-332.5 522.661,-332.5 522.661,-312.5 431.646,-312.5"/>
<text text-anchor="middle" x="477.153" y="-319.5" font-family="Helvetica,sans-Serif" font-size="10.00">panda::ParticleM</text>
</a>
</g>
</g>
<!-- Node6&#45;&gt;Node10 -->
<g id="edge9" class="edge"><title>Node6&#45;&gt;Node10</title>
<path fill="none" stroke="midnightblue" d="M389.474,-322.5C403.295,-322.5 418.155,-322.5 431.599,-322.5"/>
<polygon fill="midnightblue" stroke="midnightblue" points="389.148,-319 379.148,-322.5 389.148,-326 389.148,-319"/>
</g>
<!-- Node19 -->
<g id="node19" class="node"><title>Node19</title>
<g id="a_node19"><a xlink:href="classpanda_1_1Photon.html" target="_top" xlink:title="panda::Photon">
<polygon fill="white" stroke="black" points="436.635,-273.5 436.635,-293.5 517.672,-293.5 517.672,-273.5 436.635,-273.5"/>
<text text-anchor="middle" x="477.153" y="-280.5" font-family="Helvetica,sans-Serif" font-size="10.00">panda::Photon</text>
</a>
</g>
</g>
<!-- Node6&#45;&gt;Node19 -->
<g id="edge18" class="edge"><title>Node6&#45;&gt;Node19</title>
<path fill="none" stroke="midnightblue" d="M383.758,-309.702C402.308,-304.442 423.471,-298.44 440.858,-293.509"/>
<polygon fill="midnightblue" stroke="midnightblue" points="382.712,-306.361 374.046,-312.457 384.622,-313.095 382.712,-306.361"/>
</g>
<!-- Node8 -->
<g id="node8" class="node"><title>Node8</title>
<g id="a_node8"><a xlink:href="classpanda_1_1Electron.html" target="_top" xlink:title="panda::Electron">
<polygon fill="white" stroke="black" points="566.439,-468.5 566.439,-488.5 652.465,-488.5 652.465,-468.5 566.439,-468.5"/>
<text text-anchor="middle" x="609.452" y="-475.5" font-family="Helvetica,sans-Serif" font-size="10.00">panda::Electron</text>
</a>
</g>
</g>
<!-- Node7&#45;&gt;Node8 -->
<g id="edge7" class="edge"><title>Node7&#45;&gt;Node8</title>
<path fill="none" stroke="midnightblue" d="M521.64,-452.516C539.039,-457.724 558.765,-463.628 575.011,-468.491"/>
<polygon fill="midnightblue" stroke="midnightblue" points="522.292,-449.058 511.709,-449.543 520.285,-455.764 522.292,-449.058"/>
</g>
<!-- Node9 -->
<g id="node9" class="node"><title>Node9</title>
<g id="a_node9"><a xlink:href="classpanda_1_1Muon.html" target="_top" xlink:title="panda::Muon">
<polygon fill="white" stroke="black" points="572.273,-429.5 572.273,-449.5 646.632,-449.5 646.632,-429.5 572.273,-429.5"/>
<text text-anchor="middle" x="609.452" y="-436.5" font-family="Helvetica,sans-Serif" font-size="10.00">panda::Muon</text>
</a>
</g>
</g>
<!-- Node7&#45;&gt;Node9 -->
<g id="edge8" class="edge"><title>Node7&#45;&gt;Node9</title>
<path fill="none" stroke="midnightblue" d="M527.302,-439.5C542.157,-439.5 558.195,-439.5 572.06,-439.5"/>
<polygon fill="midnightblue" stroke="midnightblue" points="527.248,-436 517.247,-439.5 527.247,-443 527.248,-436"/>
</g>
<!-- Node11 -->
<g id="node11" class="node"><title>Node11</title>
<g id="a_node11"><a xlink:href="classpanda_1_1GenJet.html" target="_top" xlink:title="panda::GenJet">
<polygon fill="white" stroke="black" points="568.658,-390.5 568.658,-410.5 650.246,-410.5 650.246,-390.5 568.658,-390.5"/>
<text text-anchor="middle" x="609.452" y="-397.5" font-family="Helvetica,sans-Serif" font-size="10.00">panda::GenJet</text>
</a>
</g>
</g>
<!-- Node10&#45;&gt;Node11 -->
<g id="edge10" class="edge"><title>Node10&#45;&gt;Node11</title>
<path fill="none" stroke="midnightblue" d="M497.674,-339.127C513.389,-351.923 536.445,-369.407 558.661,-381.5 564.756,-384.818 571.553,-387.822 578.118,-390.412"/>
<polygon fill="midnightblue" stroke="midnightblue" points="499.685,-336.248 489.751,-332.564 495.22,-341.639 499.685,-336.248"/>
</g>
<!-- Node12 -->
<g id="node12" class="node"><title>Node12</title>
<g id="a_node12"><a xlink:href="classpanda_1_1GenParticle.html" target="_top" xlink:title="panda::GenParticle">
<polygon fill="white" stroke="black" points="558.661,-351.5 558.661,-371.5 660.244,-371.5 660.244,-351.5 558.661,-351.5"/>
<text text-anchor="middle" x="609.452" y="-358.5" font-family="Helvetica,sans-Serif" font-size="10.00">panda::GenParticle</text>
</a>
</g>
</g>
<!-- Node10&#45;&gt;Node12 -->
<g id="edge11" class="edge"><title>Node10&#45;&gt;Node12</title>
<path fill="none" stroke="midnightblue" d="M521.64,-335.516C539.039,-340.724 558.765,-346.628 575.011,-351.491"/>
<polygon fill="midnightblue" stroke="midnightblue" points="522.292,-332.058 511.709,-332.543 520.285,-338.764 522.292,-332.058"/>
</g>
<!-- Node13 -->
<g id="node13" class="node"><title>Node13</title>
<g id="a_node13"><a xlink:href="classpanda_1_1MicroJet.html" target="_top" xlink:title="panda::MicroJet">
<polygon fill="white" stroke="black" points="565.889,-312.5 565.889,-332.5 653.016,-332.5 653.016,-312.5 565.889,-312.5"/>
<text text-anchor="middle" x="609.452" y="-319.5" font-family="Helvetica,sans-Serif" font-size="10.00">panda::MicroJet</text>
</a>
</g>
</g>
<!-- Node10&#45;&gt;Node13 -->
<g id="edge12" class="edge"><title>Node10&#45;&gt;Node13</title>
<path fill="none" stroke="midnightblue" d="M533.249,-322.5C544.108,-322.5 555.349,-322.5 565.726,-322.5"/>
<polygon fill="midnightblue" stroke="midnightblue" points="532.995,-319 522.995,-322.5 532.995,-326 532.995,-319"/>
</g>
<!-- Node16 -->
<g id="node16" class="node"><title>Node16</title>
<g id="a_node16"><a xlink:href="classpanda_1_1Parton.html" target="_top" xlink:title="panda::Parton">
<polygon fill="white" stroke="black" points="570.049,-273.5 570.049,-293.5 648.856,-293.5 648.856,-273.5 570.049,-273.5"/>
<text text-anchor="middle" x="609.452" y="-280.5" font-family="Helvetica,sans-Serif" font-size="10.00">panda::Parton</text>
</a>
</g>
</g>
<!-- Node10&#45;&gt;Node16 -->
<g id="edge15" class="edge"><title>Node10&#45;&gt;Node16</title>
<path fill="none" stroke="midnightblue" d="M521.64,-309.484C539.039,-304.276 558.765,-298.372 575.011,-293.509"/>
<polygon fill="midnightblue" stroke="midnightblue" points="520.285,-306.236 511.709,-312.457 522.292,-312.942 520.285,-306.236"/>
</g>
<!-- Node17 -->
<g id="node17" class="node"><title>Node17</title>
<g id="a_node17"><a xlink:href="classpanda_1_1PFCand.html" target="_top" xlink:title="panda::PFCand">
<polygon fill="white" stroke="black" points="566.439,-234.5 566.439,-254.5 652.466,-254.5 652.466,-234.5 566.439,-234.5"/>
<text text-anchor="middle" x="609.452" y="-241.5" font-family="Helvetica,sans-Serif" font-size="10.00">panda::PFCand</text>
</a>
</g>
</g>
<!-- Node10&#45;&gt;Node17 -->
<g id="edge16" class="edge"><title>Node10&#45;&gt;Node17</title>
<path fill="none" stroke="midnightblue" d="M516.036,-307.73C518.339,-306.407 520.568,-304.997 522.661,-303.5 542.117,-289.589 538.938,-277.03 558.661,-263.5 563.773,-259.993 569.62,-257.021 575.466,-254.543"/>
<polygon fill="midnightblue" stroke="midnightblue" points="514.224,-304.726 506.921,-312.402 517.417,-310.955 514.224,-304.726"/>
</g>
<!-- Node18 -->
<g id="node18" class="node"><title>Node18</title>
<g id="a_node18"><a xlink:href="classpanda_1_1Tau.html" target="_top" xlink:title="panda::Tau">
<polygon fill="white" stroke="black" points="576.162,-195.5 576.162,-215.5 642.742,-215.5 642.742,-195.5 576.162,-195.5"/>
<text text-anchor="middle" x="609.452" y="-202.5" font-family="Helvetica,sans-Serif" font-size="10.00">panda::Tau</text>
</a>
</g>
</g>
<!-- Node10&#45;&gt;Node18 -->
<g id="edge17" class="edge"><title>Node10&#45;&gt;Node18</title>
<path fill="none" stroke="midnightblue" d="M518.696,-306.92C520.092,-305.849 521.421,-304.71 522.661,-303.5 550.271,-276.547 530.531,-250.91 558.661,-224.5 563.585,-219.877 569.75,-216.346 576.047,-213.659"/>
<polygon fill="midnightblue" stroke="midnightblue" points="516.712,-304.033 510.129,-312.334 520.452,-309.95 516.712,-304.033"/>
</g>
<!-- Node14 -->
<g id="node14" class="node"><title>Node14</title>
<g id="a_node14"><a xlink:href="classpanda_1_1Jet.html" target="_top" xlink:title="panda::Jet">
<polygon fill="white" stroke="black" points="696.244,-312.5 696.244,-332.5 758.935,-332.5 758.935,-312.5 696.244,-312.5"/>
<text text-anchor="middle" x="727.589" y="-319.5" font-family="Helvetica,sans-Serif" font-size="10.00">panda::Jet</text>
</a>
</g>
</g>
<!-- Node13&#45;&gt;Node14 -->
<g id="edge13" class="edge"><title>Node13&#45;&gt;Node14</title>
<path fill="none" stroke="midnightblue" d="M663.224,-322.5C674.451,-322.5 685.943,-322.5 696.005,-322.5"/>
<polygon fill="midnightblue" stroke="midnightblue" points="663.038,-319 653.038,-322.5 663.038,-326 663.038,-319"/>
</g>
<!-- Node15 -->
<g id="node15" class="node"><title>Node15</title>
<g id="a_node15"><a xlink:href="classpanda_1_1FatJet.html" target="_top" xlink:title="panda::FatJet">
<polygon fill="white" stroke="black" points="794.935,-312.5 794.935,-332.5 872.073,-332.5 872.073,-312.5 794.935,-312.5"/>
<text text-anchor="middle" x="833.504" y="-319.5" font-family="Helvetica,sans-Serif" font-size="10.00">panda::FatJet</text>
</a>
</g>
</g>
<!-- Node14&#45;&gt;Node15 -->
<g id="edge14" class="edge"><title>Node14&#45;&gt;Node15</title>
<path fill="none" stroke="midnightblue" d="M769.473,-322.5C777.801,-322.5 786.527,-322.5 794.74,-322.5"/>
<polygon fill="midnightblue" stroke="midnightblue" points="769.205,-319 759.205,-322.5 769.205,-326 769.205,-319"/>
</g>
<!-- Node22 -->
<g id="node22" class="node"><title>Node22</title>
<g id="a_node22"><a xlink:href="classpanda_1_1GenReweight.html" target="_top" xlink:title="panda::GenReweight">
<polygon fill="white" stroke="black" points="282.669,-234.5 282.669,-254.5 392.591,-254.5 392.591,-234.5 282.669,-234.5"/>
<text text-anchor="middle" x="337.63" y="-241.5" font-family="Helvetica,sans-Serif" font-size="10.00">panda::GenReweight</text>
</a>
</g>
</g>
<!-- Node21&#45;&gt;Node22 -->
<g id="edge21" class="edge"><title>Node21&#45;&gt;Node22</title>
<path fill="none" stroke="midnightblue" d="M214.333,-199.307C233.489,-206.907 257.804,-216.411 279.615,-224.5 288.565,-227.819 298.357,-231.306 307.26,-234.422"/>
<polygon fill="midnightblue" stroke="midnightblue" points="215.413,-195.97 204.827,-195.524 212.824,-202.474 215.413,-195.97"/>
</g>
<!-- Node23 -->
<g id="node23" class="node"><title>Node23</title>
<g id="a_node23"><a xlink:href="classpanda_1_1HLTBits.html" target="_top" xlink:title="panda::HLTBits">
<polygon fill="white" stroke="black" points="295.177,-195.5 295.177,-215.5 380.084,-215.5 380.084,-195.5 295.177,-195.5"/>
<text text-anchor="middle" x="337.63" y="-202.5" font-family="Helvetica,sans-Serif" font-size="10.00">panda::HLTBits</text>
</a>
</g>
</g>
<!-- Node21&#45;&gt;Node23 -->
<g id="edge22" class="edge"><title>Node21&#45;&gt;Node23</title>
<path fill="none" stroke="midnightblue" d="M229.152,-191.782C250.299,-194.481 274.747,-197.602 294.978,-200.184"/>
<polygon fill="midnightblue" stroke="midnightblue" points="229.432,-188.29 219.069,-190.495 228.545,-195.233 229.432,-188.29"/>
</g>
<!-- Node24 -->
<g id="node24" class="node"><title>Node24</title>
<g id="a_node24"><a xlink:href="classpanda_1_1Met.html" target="_top" xlink:title="panda::Met">
<polygon fill="white" stroke="black" points="304.62,-156.5 304.62,-176.5 370.64,-176.5 370.64,-156.5 304.62,-156.5"/>
<text text-anchor="middle" x="337.63" y="-163.5" font-family="Helvetica,sans-Serif" font-size="10.00">panda::Met</text>
</a>
</g>
</g>
<!-- Node21&#45;&gt;Node24 -->
<g id="edge23" class="edge"><title>Node21&#45;&gt;Node24</title>
<path fill="none" stroke="midnightblue" d="M229.301,-179.514C253.891,-176.532 282.912,-173.013 304.574,-170.387"/>
<polygon fill="midnightblue" stroke="midnightblue" points="228.575,-176.076 219.069,-180.755 229.418,-183.025 228.575,-176.076"/>
</g>
<!-- Node26 -->
<g id="node26" class="node"><title>Node26</title>
<g id="a_node26"><a xlink:href="classpanda_1_1MetFilters.html" target="_top" xlink:title="panda::MetFilters">
<polygon fill="white" stroke="black" points="291.014,-117.5 291.014,-137.5 384.247,-137.5 384.247,-117.5 291.014,-117.5"/>
<text text-anchor="middle" x="337.63" y="-124.5" font-family="Helvetica,sans-Serif" font-size="10.00">panda::MetFilters</text>
</a>
</g>
</g>
<!-- Node21&#45;&gt;Node26 -->
<g id="edge25" class="edge"><title>Node21&#45;&gt;Node26</title>
<path fill="none" stroke="midnightblue" d="M214.284,-171.558C233.424,-163.917 257.741,-154.418 279.615,-146.5 287.954,-143.481 297.041,-140.373 305.46,-137.567"/>
<polygon fill="midnightblue" stroke="midnightblue" points="212.766,-168.396 204.787,-175.367 215.371,-174.893 212.766,-168.396"/>
</g>
<!-- Node27 -->
<g id="node27" class="node"><title>Node27</title>
<g id="a_node27"><a xlink:href="classpanda_1_1Recoil.html" target="_top" xlink:title="panda::Recoil">
<polygon fill="white" stroke="black" points="299.067,-78.5 299.067,-98.5 376.194,-98.5 376.194,-78.5 299.067,-78.5"/>
<text text-anchor="middle" x="337.63" y="-85.5" font-family="Helvetica,sans-Serif" font-size="10.00">panda::Recoil</text>
</a>
</g>
</g>
<!-- Node21&#45;&gt;Node27 -->
<g id="edge26" class="edge"><title>Node21&#45;&gt;Node27</title>
<path fill="none" stroke="midnightblue" d="M197.74,-168.446C216.713,-151.062 248.277,-124.329 279.615,-107.5 286.049,-104.045 293.228,-101.058 300.263,-98.5429"/>
<polygon fill="midnightblue" stroke="midnightblue" points="195.348,-165.89 190.417,-175.267 200.119,-171.012 195.348,-165.89"/>
</g>
<!-- Node25 -->
<g id="node25" class="node"><title>Node25</title>
<g id="a_node25"><a xlink:href="classpanda_1_1RecoMet.html" target="_top" xlink:title="panda::RecoMet">
<polygon fill="white" stroke="black" points="432.475,-156.5 432.475,-176.5 521.832,-176.5 521.832,-156.5 432.475,-156.5"/>
<text text-anchor="middle" x="477.153" y="-163.5" font-family="Helvetica,sans-Serif" font-size="10.00">panda::RecoMet</text>
</a>
</g>
</g>
<!-- Node24&#45;&gt;Node25 -->
<g id="edge24" class="edge"><title>Node24&#45;&gt;Node25</title>
<path fill="none" stroke="midnightblue" d="M381.185,-166.5C397.453,-166.5 416.021,-166.5 432.399,-166.5"/>
<polygon fill="midnightblue" stroke="midnightblue" points="380.874,-163 370.874,-166.5 380.873,-170 380.874,-163"/>
</g>
<!-- Node29 -->
<g id="node29" class="node"><title>Node29</title>
<g id="a_node29"><a xlink:href="classpanda_1_1Event.html" target="_top" xlink:title="panda::Event">
<polygon fill="white" stroke="black" points="300.171,-39.5 300.171,-59.5 375.09,-59.5 375.09,-39.5 300.171,-39.5"/>
<text text-anchor="middle" x="337.63" y="-46.5" font-family="Helvetica,sans-Serif" font-size="10.00">panda::Event</text>
</a>
</g>
</g>
<!-- Node28&#45;&gt;Node29 -->
<g id="edge28" class="edge"><title>Node28&#45;&gt;Node29</title>
<path fill="none" stroke="midnightblue" d="M235.917,-49.5C257.235,-49.5 280.964,-49.5 300.032,-49.5"/>
<polygon fill="midnightblue" stroke="midnightblue" points="235.677,-46.0001 225.677,-49.5 235.677,-53.0001 235.677,-46.0001"/>
</g>
<!-- Node30 -->
<g id="node30" class="node"><title>Node30</title>
<g id="a_node30"><a xlink:href="classpanda_1_1Run.html" target="_top" xlink:title="panda::Run">
<polygon fill="white" stroke="black" points="303.785,-0.5 303.785,-20.5 371.476,-20.5 371.476,-0.5 303.785,-0.5"/>
<text text-anchor="middle" x="337.63" y="-7.5" font-family="Helvetica,sans-Serif" font-size="10.00">panda::Run</text>
</a>
</g>
</g>
<!-- Node28&#45;&gt;Node30 -->
<g id="edge29" class="edge"><title>Node28&#45;&gt;Node30</title>
<path fill="none" stroke="midnightblue" d="M230.287,-36.9674C254.272,-30.9978 282.287,-24.0252 303.541,-18.7355"/>
<polygon fill="midnightblue" stroke="midnightblue" points="229.144,-33.6449 220.285,-39.4565 230.835,-40.4377 229.144,-33.6449"/>
</g>
</g>
</svg>
