<?xml version="1.0" encoding="UTF-8" standalone="no"?>
<!DOCTYPE svg PUBLIC "-//W3C//DTD SVG 1.1//EN"
 "http://www.w3.org/Graphics/SVG/1.1/DTD/svg11.dtd">
<!-- Generated by graphviz version 2.38.0 (20140413.2041)
 -->
<!-- Title: panda::Tau::Tau Pages: 1 -->
<svg width="606pt" height="41pt"
 viewBox="0.00 0.00 605.69 41.00" xmlns="http://www.w3.org/2000/svg" xmlns:xlink="http://www.w3.org/1999/xlink">
<g id="graph0" class="graph" transform="scale(1 1) rotate(0) translate(4 37)">
<title>panda::Tau::Tau</title>
<polygon fill="white" stroke="none" points="-4,4 -4,-37 601.691,-37 601.691,4 -4,4"/>
<!-- Node1 -->
<g id="node1" class="node"><title>Node1</title>
<polygon fill="#bfbfbf" stroke="black" points="7.10543e-15,-6.5 7.10543e-15,-26.5 89.365,-26.5 89.365,-6.5 7.10543e-15,-6.5"/>
<text text-anchor="middle" x="44.6825" y="-13.5" font-family="Helvetica,sans-Serif" font-size="10.00">panda::Tau::Tau</text>
</g>
<!-- Node2 -->
<g id="node2" class="node"><title>Node2</title>
<g id="a_node2"><a xlink:href="classpanda_1_1ParticleM.html#a37f7be4e1150b6080b47b005af730af5" target="_top" xlink:title="panda::ParticleM::operator=">
<polygon fill="white" stroke="black" points="125.365,-6.5 125.365,-26.5 265.009,-26.5 265.009,-6.5 125.365,-6.5"/>
<text text-anchor="middle" x="195.187" y="-13.5" font-family="Helvetica,sans-Serif" font-size="10.00">panda::ParticleM::operator=</text>
</a>
</g>
</g>
<!-- Node1&#45;&gt;Node2 -->
<g id="edge1" class="edge"><title>Node1&#45;&gt;Node2</title>
<path fill="none" stroke="midnightblue" d="M89.4355,-16.5C97.4913,-16.5 106.127,-16.5 114.856,-16.5"/>
<polygon fill="midnightblue" stroke="midnightblue" points="115.118,-20.0001 125.118,-16.5 115.118,-13.0001 115.118,-20.0001"/>
</g>
<!-- Node3 -->
<g id="node3" class="node"><title>Node3</title>
<g id="a_node3"><a xlink:href="classpanda_1_1Particle.html#a8c4fabfceb39b746b0e68a7389e662c4" target="_top" xlink:title="panda::Particle::operator=">
<polygon fill="white" stroke="black" points="301.009,-6.5 301.009,-26.5 432.324,-26.5 432.324,-6.5 301.009,-6.5"/>
<text text-anchor="middle" x="366.666" y="-13.5" font-family="Helvetica,sans-Serif" font-size="10.00">panda::Particle::operator=</text>
</a>
</g>
</g>
<!-- Node2&#45;&gt;Node3 -->
<g id="edge2" class="edge"><title>Node2&#45;&gt;Node3</title>
<path fill="none" stroke="midnightblue" d="M265.121,-16.5C273.525,-16.5 282.145,-16.5 290.633,-16.5"/>
<polygon fill="midnightblue" stroke="midnightblue" points="290.898,-20.0001 300.898,-16.5 290.898,-13.0001 290.898,-20.0001"/>
</g>
<!-- Node4 -->
<g id="node4" class="node"><title>Node4</title>
<g id="a_node4"><a xlink:href="classpanda_1_1ContainerElement.html#ae8ba59e4cb5d7c1d491fc87c9360f039" target="_top" xlink:title="panda::ContainerElement\l::operator=">
<polygon fill="white" stroke="black" points="468.324,-0.5 468.324,-32.5 597.691,-32.5 597.691,-0.5 468.324,-0.5"/>
<text text-anchor="start" x="476.324" y="-19.5" font-family="Helvetica,sans-Serif" font-size="10.00">panda::ContainerElement</text>
<text text-anchor="middle" x="533.007" y="-7.5" font-family="Helvetica,sans-Serif" font-size="10.00">::operator=</text>
</a>
</g>
</g>
<!-- Node3&#45;&gt;Node4 -->
<g id="edge3" class="edge"><title>Node3&#45;&gt;Node4</title>
<path fill="none" stroke="midnightblue" d="M432.618,-16.5C440.91,-16.5 449.447,-16.5 457.871,-16.5"/>
<polygon fill="midnightblue" stroke="midnightblue" points="458.065,-20.0001 468.065,-16.5 458.065,-13.0001 458.065,-20.0001"/>
</g>
</g>
</svg>
