<?xml version="1.0" encoding="UTF-8" standalone="no"?>
<!DOCTYPE svg PUBLIC "-//W3C//DTD SVG 1.1//EN"
 "http://www.w3.org/Graphics/SVG/1.1/DTD/svg11.dtd">
<!-- Generated by graphviz version 2.38.0 (20140413.2041)
 -->
<!-- Title: panda::Particle::p4 Pages: 1 -->
<svg width="301pt" height="68pt"
 viewBox="0.00 0.00 301.08 68.00" xmlns="http://www.w3.org/2000/svg" xmlns:xlink="http://www.w3.org/1999/xlink">
<g id="graph0" class="graph" transform="scale(1 1) rotate(0) translate(4 64)">
<title>panda::Particle::p4</title>
<polygon fill="white" stroke="none" points="-4,4 -4,-64 297.085,-64 297.085,4 -4,4"/>
<!-- Node1 -->
<g id="node1" class="node"><title>Node1</title>
<polygon fill="#bfbfbf" stroke="black" points="-1.42109e-14,-19.5 -1.42109e-14,-39.5 99.362,-39.5 99.362,-19.5 -1.42109e-14,-19.5"/>
<text text-anchor="middle" x="49.681" y="-26.5" font-family="Helvetica,sans-Serif" font-size="10.00">panda::Particle::p4</text>
</g>
<!-- Node1&#45;&gt;Node1 -->
<g id="edge1" class="edge"><title>Node1&#45;&gt;Node1</title>
<path fill="none" stroke="midnightblue" d="M19.114,-48.6639C20.5735,-53.9546 30.7625,-58 49.681,-58 78.5091,-58 87.0675,-48.6067 75.356,-39.7271"/>
<polygon fill="midnightblue" stroke="midnightblue" points="22.2744,-50.1795 24.006,-39.7271 16.1341,-46.8183 22.2744,-50.1795"/>
</g>
<!-- Node2 -->
<g id="node2" class="node"><title>Node2</title>
<g id="a_node2"><a xlink:href="classpanda_1_1PFCand.html#a5c5f399c11e2f6aa60e8f1c093946cc0" target="_top" xlink:title="panda::PFCand::puppiP4">
<polygon fill="white" stroke="black" points="150.089,-39.5 150.089,-59.5 278.357,-59.5 278.357,-39.5 150.089,-39.5"/>
<text text-anchor="middle" x="214.223" y="-46.5" font-family="Helvetica,sans-Serif" font-size="10.00">panda::PFCand::puppiP4</text>
</a>
</g>
</g>
<!-- Node1&#45;&gt;Node2 -->
<g id="edge2" class="edge"><title>Node1&#45;&gt;Node2</title>
<path fill="none" stroke="midnightblue" d="M109.745,-36.7675C122.842,-38.3791 136.773,-40.0931 150.028,-41.7241"/>
<polygon fill="midnightblue" stroke="midnightblue" points="109.802,-33.2482 99.4491,-35.5007 108.947,-40.1958 109.802,-33.2482"/>
</g>
<!-- Node3 -->
<g id="node3" class="node"><title>Node3</title>
<g id="a_node3"><a xlink:href="classpanda_1_1PFCand.html#a3091b11c1f77e1a3ab0ed5954baa5354" target="_top" xlink:title="panda::PFCand::puppiNoLepP4">
<polygon fill="white" stroke="black" points="135.362,-0.5 135.362,-20.5 293.085,-20.5 293.085,-0.5 135.362,-0.5"/>
<text text-anchor="middle" x="214.223" y="-7.5" font-family="Helvetica,sans-Serif" font-size="10.00">panda::PFCand::puppiNoLepP4</text>
</a>
</g>
</g>
<!-- Node1&#45;&gt;Node3 -->
<g id="edge3" class="edge"><title>Node1&#45;&gt;Node3</title>
<path fill="none" stroke="midnightblue" d="M109.487,-22.626C117.879,-21.6451 126.618,-20.6236 135.305,-19.6081"/>
<polygon fill="midnightblue" stroke="midnightblue" points="108.975,-19.1619 99.4491,-23.7994 109.788,-26.1146 108.975,-19.1619"/>
</g>
</g>
</svg>
