<?xml version="1.0" encoding="UTF-8" standalone="no"?>
<!DOCTYPE svg PUBLIC "-//W3C//DTD SVG 1.1//EN"
 "http://www.w3.org/Graphics/SVG/1.1/DTD/svg11.dtd">
<!-- Generated by graphviz version 2.38.0 (20140413.2041)
 -->
<!-- Title: panda::utils::Iterator::shiftPtr_ Pages: 1 -->
<svg width="253pt" height="194pt"
 viewBox="0.00 0.00 252.72 194.00" xmlns="http://www.w3.org/2000/svg" xmlns:xlink="http://www.w3.org/1999/xlink">
<g id="graph0" class="graph" transform="scale(1 1) rotate(0) translate(4 190)">
<title>panda::utils::Iterator::shiftPtr_</title>
<polygon fill="white" stroke="none" points="-4,4 -4,-190 248.718,-190 248.718,4 -4,4"/>
<!-- Node1 -->
<g id="node1" class="node"><title>Node1</title>
<polygon fill="#bfbfbf" stroke="black" points="0,-76.5 0,-108.5 104.359,-108.5 104.359,-76.5 0,-76.5"/>
<text text-anchor="start" x="8" y="-95.5" font-family="Helvetica,sans-Serif" font-size="10.00">panda::utils::Iterator</text>
<text text-anchor="middle" x="52.1795" y="-83.5" font-family="Helvetica,sans-Serif" font-size="10.00">::shiftPtr_</text>
</g>
<!-- Node2 -->
<g id="node2" class="node"><title>Node2</title>
<g id="a_node2"><a xlink:href="classpanda_1_1utils_1_1Iterator.html#a4eb53779fe25646b72d1cbe9cab3c724" target="_top" xlink:title="panda::utils::Iterator\l::operator++">
<polygon fill="white" stroke="black" points="140.359,-153.5 140.359,-185.5 244.718,-185.5 244.718,-153.5 140.359,-153.5"/>
<text text-anchor="start" x="148.359" y="-172.5" font-family="Helvetica,sans-Serif" font-size="10.00">panda::utils::Iterator</text>
<text text-anchor="middle" x="192.538" y="-160.5" font-family="Helvetica,sans-Serif" font-size="10.00">::operator++</text>
</a>
</g>
</g>
<!-- Node1&#45;&gt;Node2 -->
<g id="edge1" class="edge"><title>Node1&#45;&gt;Node2</title>
<path fill="none" stroke="midnightblue" d="M87.7143,-114.001C103.575,-123.641 122.739,-134.963 140.359,-144.5 145.925,-147.513 151.906,-150.581 157.748,-153.49"/>
<polygon fill="midnightblue" stroke="midnightblue" points="89.1509,-110.777 78.7937,-108.545 85.4987,-116.749 89.1509,-110.777"/>
</g>
<!-- Node3 -->
<g id="node3" class="node"><title>Node3</title>
<g id="a_node3"><a xlink:href="classpanda_1_1utils_1_1Iterator.html#a96e8ebf69342e0036f7197fdbc9ed775" target="_top" xlink:title="panda::utils::Iterator\l::operator&#45;&#45;">
<polygon fill="white" stroke="black" points="140.359,-102.5 140.359,-134.5 244.718,-134.5 244.718,-102.5 140.359,-102.5"/>
<text text-anchor="start" x="148.359" y="-121.5" font-family="Helvetica,sans-Serif" font-size="10.00">panda::utils::Iterator</text>
<text text-anchor="middle" x="192.538" y="-109.5" font-family="Helvetica,sans-Serif" font-size="10.00">::operator&#45;&#45;</text>
</a>
</g>
</g>
<!-- Node1&#45;&gt;Node3 -->
<g id="edge2" class="edge"><title>Node1&#45;&gt;Node3</title>
<path fill="none" stroke="midnightblue" d="M114.558,-104.034C123.045,-105.629 131.691,-107.254 139.976,-108.81"/>
<polygon fill="midnightblue" stroke="midnightblue" points="115.174,-100.589 104.699,-102.181 113.881,-107.468 115.174,-100.589"/>
</g>
<!-- Node4 -->
<g id="node4" class="node"><title>Node4</title>
<g id="a_node4"><a xlink:href="classpanda_1_1utils_1_1Iterator.html#a0ddae9be72f0c2644c2c2d72ee0ae51b" target="_top" xlink:title="panda::utils::Iterator\l::operator+=">
<polygon fill="white" stroke="black" points="140.359,-51.5 140.359,-83.5 244.718,-83.5 244.718,-51.5 140.359,-51.5"/>
<text text-anchor="start" x="148.359" y="-70.5" font-family="Helvetica,sans-Serif" font-size="10.00">panda::utils::Iterator</text>
<text text-anchor="middle" x="192.538" y="-58.5" font-family="Helvetica,sans-Serif" font-size="10.00">::operator+=</text>
</a>
</g>
</g>
<!-- Node1&#45;&gt;Node4 -->
<g id="edge3" class="edge"><title>Node1&#45;&gt;Node4</title>
<path fill="none" stroke="midnightblue" d="M114.558,-81.4095C123.045,-79.876 131.691,-78.3138 139.976,-76.8169"/>
<polygon fill="midnightblue" stroke="midnightblue" points="113.918,-77.9685 104.699,-83.1909 115.162,-84.857 113.918,-77.9685"/>
</g>
<!-- Node5 -->
<g id="node5" class="node"><title>Node5</title>
<g id="a_node5"><a xlink:href="classpanda_1_1utils_1_1Iterator.html#a6cde570ecd522b49d39c8aca8aa8c9c7" target="_top" xlink:title="panda::utils::Iterator\l::operator&#45;=">
<polygon fill="white" stroke="black" points="140.359,-0.5 140.359,-32.5 244.718,-32.5 244.718,-0.5 140.359,-0.5"/>
<text text-anchor="start" x="148.359" y="-19.5" font-family="Helvetica,sans-Serif" font-size="10.00">panda::utils::Iterator</text>
<text text-anchor="middle" x="192.538" y="-7.5" font-family="Helvetica,sans-Serif" font-size="10.00">::operator&#45;=</text>
</a>
</g>
</g>
<!-- Node1&#45;&gt;Node5 -->
<g id="edge4" class="edge"><title>Node1&#45;&gt;Node5</title>
<path fill="none" stroke="midnightblue" d="M89.2811,-71.2485C104.887,-62.2039 123.421,-51.6521 140.359,-42.5 146.409,-39.2311 152.916,-35.8354 159.193,-32.6189"/>
<polygon fill="midnightblue" stroke="midnightblue" points="87.3483,-68.3236 80.4647,-76.3776 90.8684,-74.3742 87.3483,-68.3236"/>
</g>
</g>
</svg>
