<?xml version="1.0" encoding="UTF-8" standalone="no"?>
<!DOCTYPE svg PUBLIC "-//W3C//DTD SVG 1.1//EN"
 "http://www.w3.org/Graphics/SVG/1.1/DTD/svg11.dtd">
<!-- Generated by graphviz version 2.38.0 (20140413.2041)
 -->
<!-- Title: panda::Lepton::init Pages: 1 -->
<svg width="376pt" height="29pt"
 viewBox="0.00 0.00 375.86 29.00" xmlns="http://www.w3.org/2000/svg" xmlns:xlink="http://www.w3.org/1999/xlink">
<g id="graph0" class="graph" transform="scale(1 1) rotate(0) translate(4 25)">
<title>panda::Lepton::init</title>
<polygon fill="white" stroke="none" points="-4,4 -4,-25 371.863,-25 371.863,4 -4,4"/>
<!-- Node1 -->
<g id="node1" class="node"><title>Node1</title>
<polygon fill="#bfbfbf" stroke="black" points="-1.42109e-14,-0.5 -1.42109e-14,-20.5 98.261,-20.5 98.261,-0.5 -1.42109e-14,-0.5"/>
<text text-anchor="middle" x="49.1305" y="-7.5" font-family="Helvetica,sans-Serif" font-size="10.00">panda::Lepton::init</text>
</g>
<!-- Node2 -->
<g id="node2" class="node"><title>Node2</title>
<g id="a_node2"><a xlink:href="classpanda_1_1Particle.html#a56ba0060e9e37322f98e2f30c3583dd3" target="_top" xlink:title="Reset object state. ">
<polygon fill="white" stroke="black" points="134.261,-0.5 134.261,-20.5 235.281,-20.5 235.281,-0.5 134.261,-0.5"/>
<text text-anchor="middle" x="184.771" y="-7.5" font-family="Helvetica,sans-Serif" font-size="10.00">panda::Particle::init</text>
</a>
</g>
</g>
<!-- Node1&#45;&gt;Node2 -->
<g id="edge1" class="edge"><title>Node1&#45;&gt;Node2</title>
<path fill="none" stroke="midnightblue" d="M98.3778,-10.5C106.761,-10.5 115.568,-10.5 124.21,-10.5"/>
<polygon fill="midnightblue" stroke="midnightblue" points="124.246,-14.0001 134.246,-10.5 124.246,-7.0001 124.246,-14.0001"/>
</g>
<!-- Node3 -->
<g id="node3" class="node"><title>Node3</title>
<g id="a_node3"><a xlink:href="classpanda_1_1Object.html#a204960e5f165a28176f9b4a42b9ea90c" target="_top" xlink:title="Reset object state. ">
<polygon fill="white" stroke="black" points="271.281,-0.5 271.281,-20.5 367.863,-20.5 367.863,-0.5 271.281,-0.5"/>
<text text-anchor="middle" x="319.572" y="-7.5" font-family="Helvetica,sans-Serif" font-size="10.00">panda::Object::init</text>
</a>
</g>
</g>
<!-- Node2&#45;&gt;Node3 -->
<g id="edge2" class="edge"><title>Node2&#45;&gt;Node3</title>
<path fill="none" stroke="midnightblue" d="M235.599,-10.5C243.866,-10.5 252.5,-10.5 260.941,-10.5"/>
<polygon fill="midnightblue" stroke="midnightblue" points="261.104,-14.0001 271.104,-10.5 261.104,-7.0001 261.104,-14.0001"/>
</g>
</g>
</svg>
