<?xml version="1.0" encoding="UTF-8" standalone="no"?>
<!DOCTYPE svg PUBLIC "-//W3C//DTD SVG 1.1//EN"
 "http://www.w3.org/Graphics/SVG/1.1/DTD/svg11.dtd">
<!-- Generated by graphviz version 2.38.0 (20140413.2041)
 -->
<!-- Title: panda::Photon::setAddress Pages: 1 -->
<svg width="822pt" height="189pt"
 viewBox="0.00 0.00 821.63 189.00" xmlns="http://www.w3.org/2000/svg" xmlns:xlink="http://www.w3.org/1999/xlink">
<g id="graph0" class="graph" transform="scale(1 1) rotate(0) translate(4 185)">
<title>panda::Photon::setAddress</title>
<polygon fill="white" stroke="none" points="-4,4 -4,-185 817.634,-185 817.634,4 -4,4"/>
<!-- Node1 -->
<g id="node1" class="node"><title>Node1</title>
<polygon fill="#bfbfbf" stroke="black" points="-2.84217e-14,-89.5 -2.84217e-14,-109.5 136.608,-109.5 136.608,-89.5 -2.84217e-14,-89.5"/>
<text text-anchor="middle" x="68.304" y="-96.5" font-family="Helvetica,sans-Serif" font-size="10.00">panda::Photon::setAddress</text>
</g>
<!-- Node2 -->
<g id="node2" class="node"><title>Node2</title>
<g id="a_node2"><a xlink:href="classpanda_1_1Particle.html#a96282cfb24384c1f00c40576069a4c7e" target="_top" xlink:title="Set address for the branches to the variables of this object. ">
<polygon fill="white" stroke="black" points="172.608,-109.5 172.608,-129.5 310.865,-129.5 310.865,-109.5 172.608,-109.5"/>
<text text-anchor="middle" x="241.736" y="-116.5" font-family="Helvetica,sans-Serif" font-size="10.00">panda::Particle::setAddress</text>
</a>
</g>
</g>
<!-- Node1&#45;&gt;Node2 -->
<g id="edge1" class="edge"><title>Node1&#45;&gt;Node2</title>
<path fill="none" stroke="midnightblue" d="M137.059,-107.405C145.309,-108.367 153.792,-109.357 162.183,-110.336"/>
<polygon fill="midnightblue" stroke="midnightblue" points="162.012,-113.839 172.351,-111.522 162.824,-106.887 162.012,-113.839"/>
</g>
<!-- Node4 -->
<g id="node4" class="node"><title>Node4</title>
<g id="a_node4"><a xlink:href="classpanda_1_1utils_1_1StoreManager.html#a6f30ec459d951e84a1196b7e2ffdcf49" target="_top" xlink:title="panda::utils::StoreManager\l::getName">
<polygon fill="white" stroke="black" points="346.865,-148.5 346.865,-180.5 482.9,-180.5 482.9,-148.5 346.865,-148.5"/>
<text text-anchor="start" x="354.865" y="-167.5" font-family="Helvetica,sans-Serif" font-size="10.00">panda::utils::StoreManager</text>
<text text-anchor="middle" x="414.882" y="-155.5" font-family="Helvetica,sans-Serif" font-size="10.00">::getName</text>
</a>
</g>
</g>
<!-- Node1&#45;&gt;Node4 -->
<g id="edge13" class="edge"><title>Node1&#45;&gt;Node4</title>
<path fill="none" stroke="midnightblue" d="M90.5324,-109.647C111.049,-118.987 143.253,-132.43 172.608,-139.5 226.485,-152.476 288.726,-158.717 336.495,-161.719"/>
<polygon fill="midnightblue" stroke="midnightblue" points="336.578,-165.23 346.768,-162.329 336.993,-158.243 336.578,-165.23"/>
</g>
<!-- Node5 -->
<g id="node5" class="node"><title>Node5</title>
<g id="a_node5"><a xlink:href="namespacepanda_1_1utils.html#abf9c62e588560197c2bae9932e6a6e05" target="_top" xlink:title="Set address. ">
<polygon fill="white" stroke="black" points="353.532,-70.5 353.532,-90.5 476.232,-90.5 476.232,-70.5 353.532,-70.5"/>
<text text-anchor="middle" x="414.882" y="-77.5" font-family="Helvetica,sans-Serif" font-size="10.00">panda::utils::setAddress</text>
</a>
</g>
</g>
<!-- Node1&#45;&gt;Node5 -->
<g id="edge14" class="edge"><title>Node1&#45;&gt;Node5</title>
<path fill="none" stroke="midnightblue" d="M136.97,-95.7689C196.445,-92.4895 282.689,-87.734 343.081,-84.404"/>
<polygon fill="midnightblue" stroke="midnightblue" points="343.5,-87.8863 353.292,-83.8409 343.115,-80.8969 343.5,-87.8863"/>
</g>
<!-- Node11 -->
<g id="node11" class="node"><title>Node11</title>
<g id="a_node11"><a xlink:href="classpanda_1_1utils_1_1StoreManager.html#ae6c8fb6b0c3d25147b09ef8b92b61da8" target="_top" xlink:title="panda::utils::StoreManager\l::getData">
<polygon fill="white" stroke="black" points="173.719,-19.5 173.719,-51.5 309.754,-51.5 309.754,-19.5 173.719,-19.5"/>
<text text-anchor="start" x="181.719" y="-38.5" font-family="Helvetica,sans-Serif" font-size="10.00">panda::utils::StoreManager</text>
<text text-anchor="middle" x="241.736" y="-26.5" font-family="Helvetica,sans-Serif" font-size="10.00">::getData</text>
</a>
</g>
</g>
<!-- Node1&#45;&gt;Node11 -->
<g id="edge15" class="edge"><title>Node1&#45;&gt;Node11</title>
<path fill="none" stroke="midnightblue" d="M96.468,-89.359C121.003,-80.1993 157.799,-66.4625 188.089,-55.1547"/>
<polygon fill="midnightblue" stroke="midnightblue" points="189.526,-58.3541 197.67,-51.5776 187.078,-51.7962 189.526,-58.3541"/>
</g>
<!-- Node3 -->
<g id="node3" class="node"><title>Node3</title>
<g id="a_node3"><a xlink:href="classpanda_1_1Object.html#aed9f9d3b6abe518dd27957de843b36b5" target="_top" xlink:title="Set address for the branches to the variables of this object. ">
<polygon fill="white" stroke="black" points="347.973,-109.5 347.973,-129.5 481.792,-129.5 481.792,-109.5 347.973,-109.5"/>
<text text-anchor="middle" x="414.882" y="-116.5" font-family="Helvetica,sans-Serif" font-size="10.00">panda::Object::setAddress</text>
</a>
</g>
</g>
<!-- Node2&#45;&gt;Node3 -->
<g id="edge2" class="edge"><title>Node2&#45;&gt;Node3</title>
<path fill="none" stroke="midnightblue" d="M310.87,-119.5C319.742,-119.5 328.876,-119.5 337.867,-119.5"/>
<polygon fill="midnightblue" stroke="midnightblue" points="337.936,-123 347.936,-119.5 337.936,-116 337.936,-123"/>
</g>
<!-- Node2&#45;&gt;Node4 -->
<g id="edge3" class="edge"><title>Node2&#45;&gt;Node4</title>
<path fill="none" stroke="midnightblue" d="M281.145,-129.599C299.352,-134.386 321.702,-140.263 342.834,-145.819"/>
<polygon fill="midnightblue" stroke="midnightblue" points="342.2,-149.271 352.761,-148.429 343.98,-142.501 342.2,-149.271"/>
</g>
<!-- Node2&#45;&gt;Node5 -->
<g id="edge4" class="edge"><title>Node2&#45;&gt;Node5</title>
<path fill="none" stroke="midnightblue" d="M286.811,-109.457C309.17,-104.362 336.515,-98.1301 360.104,-92.7549"/>
<polygon fill="midnightblue" stroke="midnightblue" points="360.985,-96.1438 369.958,-90.5094 359.43,-89.3188 360.985,-96.1438"/>
</g>
<!-- Node6 -->
<g id="node6" class="node"><title>Node6</title>
<g id="a_node6"><a xlink:href="classpanda_1_1utils_1_1BranchName.html#a13958ff4a9d554d2c057c600b4f70412" target="_top" xlink:title="Prepend the branch name with &lt;objName.&gt;. ">
<polygon fill="white" stroke="black" points="675.938,-129.5 675.938,-161.5 806.966,-161.5 806.966,-129.5 675.938,-129.5"/>
<text text-anchor="start" x="683.938" y="-148.5" font-family="Helvetica,sans-Serif" font-size="10.00">panda::utils::BranchName</text>
<text text-anchor="middle" x="741.452" y="-136.5" font-family="Helvetica,sans-Serif" font-size="10.00">::fullName</text>
</a>
</g>
</g>
<!-- Node5&#45;&gt;Node6 -->
<g id="edge5" class="edge"><title>Node5&#45;&gt;Node6</title>
<path fill="none" stroke="midnightblue" d="M459.425,-90.5485C477.758,-94.6942 499.338,-99.4631 518.9,-103.5 567.706,-113.572 622.755,-124.012 665.77,-131.964"/>
<polygon fill="midnightblue" stroke="midnightblue" points="665.405,-135.455 675.874,-133.827 666.674,-128.571 665.405,-135.455"/>
</g>
<!-- Node7 -->
<g id="node7" class="node"><title>Node7</title>
<g id="a_node7"><a xlink:href="namespacepanda_1_1utils.html#a01665f786d6a2acedb8f008f3fc9fc84" target="_top" xlink:title="Set status of a branch. ">
<polygon fill="white" stroke="black" points="518.9,-51.5 518.9,-71.5 633.27,-71.5 633.27,-51.5 518.9,-51.5"/>
<text text-anchor="middle" x="576.085" y="-58.5" font-family="Helvetica,sans-Serif" font-size="10.00">panda::utils::setStatus</text>
</a>
</g>
</g>
<!-- Node5&#45;&gt;Node7 -->
<g id="edge6" class="edge"><title>Node5&#45;&gt;Node7</title>
<path fill="none" stroke="midnightblue" d="M476.524,-73.2627C487.046,-72.007 498.036,-70.6954 508.701,-69.4226"/>
<polygon fill="midnightblue" stroke="midnightblue" points="509.286,-72.8777 518.8,-68.2173 508.456,-65.9271 509.286,-72.8777"/>
</g>
<!-- Node8 -->
<g id="node8" class="node"><title>Node8</title>
<g id="a_node8"><a xlink:href="classpanda_1_1utils_1_1BranchName.html#a6cc8a6df7c5b12a0221fd49773cca6a7" target="_top" xlink:title="Is the name included and not vetoed? ">
<polygon fill="white" stroke="black" points="669.27,-90.5 669.27,-110.5 813.634,-110.5 813.634,-90.5 669.27,-90.5"/>
<text text-anchor="middle" x="741.452" y="-97.5" font-family="Helvetica,sans-Serif" font-size="10.00">panda::utils::BranchName::in</text>
</a>
</g>
</g>
<!-- Node5&#45;&gt;Node8 -->
<g id="edge11" class="edge"><title>Node5&#45;&gt;Node8</title>
<path fill="none" stroke="midnightblue" d="M476.551,-84.2384C528.045,-87.4114 602.378,-91.9919 659.041,-95.4835"/>
<polygon fill="midnightblue" stroke="midnightblue" points="658.851,-98.9783 669.048,-96.1001 659.282,-91.9916 658.851,-98.9783"/>
</g>
<!-- Node10 -->
<g id="node10" class="node"><title>Node10</title>
<g id="a_node10"><a xlink:href="namespacepanda_1_1utils.html#aafa411773a4b0ee829d99e6e5a0abdcd" target="_top" xlink:title="Check status of a branch. ">
<polygon fill="white" stroke="black" points="677.877,-0.5 677.877,-20.5 805.027,-20.5 805.027,-0.5 677.877,-0.5"/>
<text text-anchor="middle" x="741.452" y="-7.5" font-family="Helvetica,sans-Serif" font-size="10.00">panda::utils::checkStatus</text>
</a>
</g>
</g>
<!-- Node5&#45;&gt;Node10 -->
<g id="edge12" class="edge"><title>Node5&#45;&gt;Node10</title>
<path fill="none" stroke="midnightblue" d="M438.325,-70.3361C458.884,-61.4299 490.368,-48.7993 518.9,-41.5 567.771,-28.9973 624.081,-21.2015 667.703,-16.5548"/>
<polygon fill="midnightblue" stroke="midnightblue" points="668.069,-20.0357 677.656,-15.5255 667.349,-13.0728 668.069,-20.0357"/>
</g>
<!-- Node7&#45;&gt;Node6 -->
<g id="edge9" class="edge"><title>Node7&#45;&gt;Node6</title>
<path fill="none" stroke="midnightblue" d="M590.554,-71.5422C608.01,-84.2163 639.721,-106.097 669.27,-120.5 672.979,-122.308 676.853,-124.049 680.795,-125.713"/>
<polygon fill="midnightblue" stroke="midnightblue" points="679.488,-128.96 690.071,-129.45 682.103,-122.467 679.488,-128.96"/>
</g>
<!-- Node7&#45;&gt;Node8 -->
<g id="edge7" class="edge"><title>Node7&#45;&gt;Node8</title>
<path fill="none" stroke="midnightblue" d="M619.156,-71.5435C640.308,-76.593 666.136,-82.7587 688.514,-88.1009"/>
<polygon fill="midnightblue" stroke="midnightblue" points="687.984,-91.5728 698.524,-90.4906 689.61,-84.7641 687.984,-91.5728"/>
</g>
<!-- Node9 -->
<g id="node9" class="node"><title>Node9</title>
<g id="a_node9"><a xlink:href="classpanda_1_1utils_1_1BranchName.html#ae3332329bf2afae5ed8e7c35e5d77ffa" target="_top" xlink:title="Is the name included and vetoed? ">
<polygon fill="white" stroke="black" points="675.938,-39.5 675.938,-71.5 806.966,-71.5 806.966,-39.5 675.938,-39.5"/>
<text text-anchor="start" x="683.938" y="-58.5" font-family="Helvetica,sans-Serif" font-size="10.00">panda::utils::BranchName</text>
<text text-anchor="middle" x="741.452" y="-46.5" font-family="Helvetica,sans-Serif" font-size="10.00">::vetoed</text>
</a>
</g>
</g>
<!-- Node7&#45;&gt;Node9 -->
<g id="edge8" class="edge"><title>Node7&#45;&gt;Node9</title>
<path fill="none" stroke="midnightblue" d="M633.307,-59.4351C643.658,-59.055 654.616,-58.6525 665.418,-58.2558"/>
<polygon fill="midnightblue" stroke="midnightblue" points="665.837,-61.7429 675.702,-57.8781 665.58,-54.7476 665.837,-61.7429"/>
</g>
<!-- Node7&#45;&gt;Node10 -->
<g id="edge10" class="edge"><title>Node7&#45;&gt;Node10</title>
<path fill="none" stroke="midnightblue" d="M604.342,-51.4496C622.602,-44.8624 647.242,-36.2532 669.27,-29.5 676.248,-27.3607 683.652,-25.2311 690.945,-23.2131"/>
<polygon fill="midnightblue" stroke="midnightblue" points="692.041,-26.5424 700.771,-20.5402 690.203,-19.7878 692.041,-26.5424"/>
</g>
</g>
</svg>
