<?xml version="1.0" encoding="UTF-8" standalone="no"?>
<!DOCTYPE svg PUBLIC "-//W3C//DTD SVG 1.1//EN"
 "http://www.w3.org/Graphics/SVG/1.1/DTD/svg11.dtd">
<!-- Generated by graphviz version 2.38.0 (20140413.2041)
 -->
<!-- Title: panda::GenReweight Pages: 1 -->
<svg width="118pt" height="143pt"
 viewBox="0.00 0.00 117.92 143.00" xmlns="http://www.w3.org/2000/svg" xmlns:xlink="http://www.w3.org/1999/xlink">
<g id="graph0" class="graph" transform="scale(1 1) rotate(0) translate(4 139)">
<title>panda::GenReweight</title>
<polygon fill="white" stroke="none" points="-4,4 -4,-139 113.922,-139 113.922,4 -4,4"/>
<!-- Node1 -->
<g id="node1" class="node"><title>Node1</title>
<polygon fill="#bfbfbf" stroke="black" points="0,-0.5 0,-20.5 109.922,-20.5 109.922,-0.5 0,-0.5"/>
<text text-anchor="middle" x="54.961" y="-7.5" font-family="Helvetica,sans-Serif" font-size="10.00">panda::GenReweight</text>
</g>
<!-- Node2 -->
<g id="node2" class="node"><title>Node2</title>
<g id="a_node2"><a xlink:href="classpanda_1_1Singlet.html" target="_top" xlink:title="panda::Singlet">
<polygon fill="white" stroke="black" points="15.003,-57.5 15.003,-77.5 94.919,-77.5 94.919,-57.5 15.003,-57.5"/>
<text text-anchor="middle" x="54.961" y="-64.5" font-family="Helvetica,sans-Serif" font-size="10.00">panda::Singlet</text>
</a>
</g>
</g>
<!-- Node2&#45;&gt;Node1 -->
<g id="edge1" class="edge"><title>Node2&#45;&gt;Node1</title>
<path fill="none" stroke="midnightblue" d="M54.961,-47.383C54.961,-38.3738 54.961,-28.0373 54.961,-20.7795"/>
<polygon fill="midnightblue" stroke="midnightblue" points="51.4611,-47.4178 54.961,-57.4179 58.4611,-47.4179 51.4611,-47.4178"/>
</g>
<!-- Node3 -->
<g id="node3" class="node"><title>Node3</title>
<g id="a_node3"><a xlink:href="classpanda_1_1Object.html" target="_top" xlink:title="panda::Object">
<polygon fill="white" stroke="black" points="15.837,-114.5 15.837,-134.5 94.085,-134.5 94.085,-114.5 15.837,-114.5"/>
<text text-anchor="middle" x="54.961" y="-121.5" font-family="Helvetica,sans-Serif" font-size="10.00">panda::Object</text>
</a>
</g>
</g>
<!-- Node3&#45;&gt;Node2 -->
<g id="edge2" class="edge"><title>Node3&#45;&gt;Node2</title>
<path fill="none" stroke="midnightblue" d="M54.961,-104.383C54.961,-95.3738 54.961,-85.0373 54.961,-77.7795"/>
<polygon fill="midnightblue" stroke="midnightblue" points="51.4611,-104.418 54.961,-114.418 58.4611,-104.418 51.4611,-104.418"/>
</g>
</g>
</svg>
