<?xml version="1.0" encoding="UTF-8" standalone="no"?>
<!DOCTYPE svg PUBLIC "-//W3C//DTD SVG 1.1//EN"
 "http://www.w3.org/Graphics/SVG/1.1/DTD/svg11.dtd">
<!-- Generated by graphviz version 2.38.0 (20140413.2041)
 -->
<!-- Title: panda::Ref::container Pages: 1 -->
<svg width="303pt" height="29pt"
 viewBox="0.00 0.00 303.31 29.00" xmlns="http://www.w3.org/2000/svg" xmlns:xlink="http://www.w3.org/1999/xlink">
<g id="graph0" class="graph" transform="scale(1 1) rotate(0) translate(4 25)">
<title>panda::Ref::container</title>
<polygon fill="white" stroke="none" points="-4,4 -4,-25 299.307,-25 299.307,4 -4,4"/>
<!-- Node1 -->
<g id="node1" class="node"><title>Node1</title>
<polygon fill="#bfbfbf" stroke="black" points="-7.10543e-15,-0.5 -7.10543e-15,-20.5 111.59,-20.5 111.59,-0.5 -7.10543e-15,-0.5"/>
<text text-anchor="middle" x="55.795" y="-7.5" font-family="Helvetica,sans-Serif" font-size="10.00">panda::Ref::container</text>
</g>
<!-- Node2 -->
<g id="node2" class="node"><title>Node2</title>
<g id="a_node2"><a xlink:href="classpanda_1_1RefVector.html#a7e4767b46e857db8d68c4493cd166b4f" target="_top" xlink:title="Setter function. ">
<polygon fill="white" stroke="black" points="147.59,-0.5 147.59,-20.5 295.307,-20.5 295.307,-0.5 147.59,-0.5"/>
<text text-anchor="middle" x="221.448" y="-7.5" font-family="Helvetica,sans-Serif" font-size="10.00">panda::RefVector::push_back</text>
</a>
</g>
</g>
<!-- Node1&#45;&gt;Node2 -->
<g id="edge1" class="edge"><title>Node1&#45;&gt;Node2</title>
<path fill="none" stroke="midnightblue" d="M121.821,-10.5C130.202,-10.5 138.83,-10.5 147.33,-10.5"/>
<polygon fill="midnightblue" stroke="midnightblue" points="121.745,-7.0001 111.745,-10.5 121.744,-14.0001 121.745,-7.0001"/>
</g>
</g>
</svg>
