<?xml version="1.0" encoding="UTF-8" standalone="no"?>
<!DOCTYPE svg PUBLIC "-//W3C//DTD SVG 1.1//EN"
 "http://www.w3.org/Graphics/SVG/1.1/DTD/svg11.dtd">
<!-- Generated by graphviz version 2.38.0 (20140413.2041)
 -->
<!-- Title: panda::Jet::book Pages: 1 -->
<svg width="923pt" height="262pt"
 viewBox="0.00 0.00 922.53 262.00" xmlns="http://www.w3.org/2000/svg" xmlns:xlink="http://www.w3.org/1999/xlink">
<g id="graph0" class="graph" transform="scale(1 1) rotate(0) translate(4 258)">
<title>panda::Jet::book</title>
<polygon fill="white" stroke="none" points="-4,4 -4,-258 918.531,-258 918.531,4 -4,4"/>
<!-- Node1 -->
<g id="node1" class="node"><title>Node1</title>
<polygon fill="#bfbfbf" stroke="black" points="-3.55271e-14,-99.5 -3.55271e-14,-119.5 89.926,-119.5 89.926,-99.5 -3.55271e-14,-99.5"/>
<text text-anchor="middle" x="44.963" y="-106.5" font-family="Helvetica,sans-Serif" font-size="10.00">panda::Jet::book</text>
</g>
<!-- Node2 -->
<g id="node2" class="node"><title>Node2</title>
<g id="a_node2"><a xlink:href="classpanda_1_1MicroJet.html#a6d1f2d8a49162e3abdebd7647df6131e" target="_top" xlink:title="Book new branches to the tree corresponding to the variables of this object. ">
<polygon fill="white" stroke="black" points="136.762,-123.5 136.762,-143.5 251.124,-143.5 251.124,-123.5 136.762,-123.5"/>
<text text-anchor="middle" x="193.943" y="-130.5" font-family="Helvetica,sans-Serif" font-size="10.00">panda::MicroJet::book</text>
</a>
</g>
</g>
<!-- Node1&#45;&gt;Node2 -->
<g id="edge1" class="edge"><title>Node1&#45;&gt;Node2</title>
<path fill="none" stroke="midnightblue" d="M90.062,-116.701C101.605,-118.586 114.306,-120.66 126.727,-122.688"/>
<polygon fill="midnightblue" stroke="midnightblue" points="126.168,-126.143 136.601,-124.3 127.296,-119.234 126.168,-126.143"/>
</g>
<!-- Node6 -->
<g id="node6" class="node"><title>Node6</title>
<g id="a_node6"><a xlink:href="classpanda_1_1utils_1_1StoreManager.html#a6f30ec459d951e84a1196b7e2ffdcf49" target="_top" xlink:title="panda::utils::StoreManager\l::getName">
<polygon fill="white" stroke="black" points="598.132,-221.5 598.132,-253.5 734.167,-253.5 734.167,-221.5 598.132,-221.5"/>
<text text-anchor="start" x="606.132" y="-240.5" font-family="Helvetica,sans-Serif" font-size="10.00">panda::utils::StoreManager</text>
<text text-anchor="middle" x="666.149" y="-228.5" font-family="Helvetica,sans-Serif" font-size="10.00">::getName</text>
</a>
</g>
</g>
<!-- Node1&#45;&gt;Node6 -->
<g id="edge13" class="edge"><title>Node1&#45;&gt;Node6</title>
<path fill="none" stroke="midnightblue" d="M62.0465,-119.531C77.8785,-129.119 102.954,-143.547 125.926,-153.5 263.849,-213.26 302.731,-226.689 452.211,-242.5 496.96,-247.233 547.28,-246.337 587.764,-244.093"/>
<polygon fill="midnightblue" stroke="midnightblue" points="588.06,-247.582 597.835,-243.497 587.646,-240.594 588.06,-247.582"/>
</g>
<!-- Node7 -->
<g id="node7" class="node"><title>Node7</title>
<g id="a_node7"><a xlink:href="namespacepanda_1_1utils.html#aaa6c7cd5892388e6ffdf713b11abf793" target="_top" xlink:title="Book the branch. ">
<polygon fill="white" stroke="black" points="618.967,-108.5 618.967,-128.5 713.332,-128.5 713.332,-108.5 618.967,-108.5"/>
<text text-anchor="middle" x="666.149" y="-115.5" font-family="Helvetica,sans-Serif" font-size="10.00">panda::utils::book</text>
</a>
</g>
</g>
<!-- Node1&#45;&gt;Node7 -->
<g id="edge14" class="edge"><title>Node1&#45;&gt;Node7</title>
<path fill="none" stroke="midnightblue" d="M89.997,-110.14C199.932,-111.738 486.368,-115.901 608.571,-117.678"/>
<polygon fill="midnightblue" stroke="midnightblue" points="608.779,-121.181 618.829,-117.827 608.881,-114.182 608.779,-121.181"/>
</g>
<!-- Node10 -->
<g id="node10" class="node"><title>Node10</title>
<g id="a_node10"><a xlink:href="classpanda_1_1utils_1_1StoreManager.html#ae6c8fb6b0c3d25147b09ef8b92b61da8" target="_top" xlink:title="panda::utils::StoreManager\l::getData">
<polygon fill="white" stroke="black" points="125.926,-0.5 125.926,-32.5 261.961,-32.5 261.961,-0.5 125.926,-0.5"/>
<text text-anchor="start" x="133.926" y="-19.5" font-family="Helvetica,sans-Serif" font-size="10.00">panda::utils::StoreManager</text>
<text text-anchor="middle" x="193.943" y="-7.5" font-family="Helvetica,sans-Serif" font-size="10.00">::getData</text>
</a>
</g>
</g>
<!-- Node1&#45;&gt;Node10 -->
<g id="edge15" class="edge"><title>Node1&#45;&gt;Node10</title>
<path fill="none" stroke="midnightblue" d="M57.2814,-99.3801C72.2548,-86.3171 99.8105,-63.3823 125.926,-47.5 131.887,-43.8749 138.342,-40.3901 144.812,-37.1498"/>
<polygon fill="midnightblue" stroke="midnightblue" points="146.766,-40.0928 154.246,-32.5895 143.719,-33.7906 146.766,-40.0928"/>
</g>
<!-- Node3 -->
<g id="node3" class="node"><title>Node3</title>
<g id="a_node3"><a xlink:href="classpanda_1_1ParticleM.html#acb4f53549465b6799cc02899a1a579eb" target="_top" xlink:title="Book new branches to the tree corresponding to the variables of this object. ">
<polygon fill="white" stroke="black" points="297.961,-147.5 297.961,-167.5 416.211,-167.5 416.211,-147.5 297.961,-147.5"/>
<text text-anchor="middle" x="357.086" y="-154.5" font-family="Helvetica,sans-Serif" font-size="10.00">panda::ParticleM::book</text>
</a>
</g>
</g>
<!-- Node2&#45;&gt;Node3 -->
<g id="edge2" class="edge"><title>Node2&#45;&gt;Node3</title>
<path fill="none" stroke="midnightblue" d="M251.303,-141.894C263.074,-143.647 275.604,-145.513 287.754,-147.323"/>
<polygon fill="midnightblue" stroke="midnightblue" points="287.439,-150.815 297.846,-148.826 288.471,-143.891 287.439,-150.815"/>
</g>
<!-- Node2&#45;&gt;Node6 -->
<g id="edge11" class="edge"><title>Node2&#45;&gt;Node6</title>
<path fill="none" stroke="midnightblue" d="M216.349,-143.534C236.981,-152.992 269.214,-167.209 297.961,-177.5 365.196,-201.568 381.915,-209.919 452.211,-222.5 496.771,-230.475 547.287,-234.254 587.93,-236.027"/>
<polygon fill="midnightblue" stroke="midnightblue" points="587.908,-239.528 598.041,-236.435 588.19,-232.534 587.908,-239.528"/>
</g>
<!-- Node2&#45;&gt;Node7 -->
<g id="edge12" class="edge"><title>Node2&#45;&gt;Node7</title>
<path fill="none" stroke="midnightblue" d="M251.194,-131.706C341.561,-128.823 518.083,-123.192 608.624,-120.303"/>
<polygon fill="midnightblue" stroke="midnightblue" points="608.816,-123.799 618.699,-119.982 608.593,-116.803 608.816,-123.799"/>
</g>
<!-- Node4 -->
<g id="node4" class="node"><title>Node4</title>
<g id="a_node4"><a xlink:href="classpanda_1_1Particle.html#aaf351374f253978216b4a893a1766a64" target="_top" xlink:title="Book new branches to the tree corresponding to the variables of this object. ">
<polygon fill="white" stroke="black" points="452.211,-166.5 452.211,-186.5 562.132,-186.5 562.132,-166.5 452.211,-166.5"/>
<text text-anchor="middle" x="507.171" y="-173.5" font-family="Helvetica,sans-Serif" font-size="10.00">panda::Particle::book</text>
</a>
</g>
</g>
<!-- Node3&#45;&gt;Node4 -->
<g id="edge3" class="edge"><title>Node3&#45;&gt;Node4</title>
<path fill="none" stroke="midnightblue" d="M416.613,-165.009C424.89,-166.071 433.437,-167.168 441.816,-168.243"/>
<polygon fill="midnightblue" stroke="midnightblue" points="441.559,-171.739 451.923,-169.54 442.45,-164.795 441.559,-171.739"/>
</g>
<!-- Node3&#45;&gt;Node6 -->
<g id="edge9" class="edge"><title>Node3&#45;&gt;Node6</title>
<path fill="none" stroke="midnightblue" d="M378.947,-167.582C397.732,-176.311 426.29,-188.722 452.211,-196.5 496.517,-209.794 547.345,-219.772 588.229,-226.554"/>
<polygon fill="midnightblue" stroke="midnightblue" points="587.697,-230.014 598.129,-228.167 588.822,-223.105 587.697,-230.014"/>
</g>
<!-- Node3&#45;&gt;Node7 -->
<g id="edge10" class="edge"><title>Node3&#45;&gt;Node7</title>
<path fill="none" stroke="midnightblue" d="M416.565,-150.073C471.818,-143.055 554.15,-132.598 608.721,-125.667"/>
<polygon fill="midnightblue" stroke="midnightblue" points="609.432,-129.105 618.912,-124.373 608.55,-122.161 609.432,-129.105"/>
</g>
<!-- Node5 -->
<g id="node5" class="node"><title>Node5</title>
<g id="a_node5"><a xlink:href="classpanda_1_1Object.html#a2fcd6665633deef16e86aa4e49135dd7" target="_top" xlink:title="Book new branches to the tree corresponding to the variables of this object. ">
<polygon fill="white" stroke="black" points="613.408,-166.5 613.408,-186.5 718.891,-186.5 718.891,-166.5 613.408,-166.5"/>
<text text-anchor="middle" x="666.149" y="-173.5" font-family="Helvetica,sans-Serif" font-size="10.00">panda::Object::book</text>
</a>
</g>
</g>
<!-- Node4&#45;&gt;Node5 -->
<g id="edge4" class="edge"><title>Node4&#45;&gt;Node5</title>
<path fill="none" stroke="midnightblue" d="M562.194,-176.5C575.34,-176.5 589.502,-176.5 602.991,-176.5"/>
<polygon fill="midnightblue" stroke="midnightblue" points="603.147,-180 613.147,-176.5 603.147,-173 603.147,-180"/>
</g>
<!-- Node4&#45;&gt;Node6 -->
<g id="edge5" class="edge"><title>Node4&#45;&gt;Node6</title>
<path fill="none" stroke="midnightblue" d="M534.093,-186.573C555.809,-195.012 587.462,-207.311 614.219,-217.709"/>
<polygon fill="midnightblue" stroke="midnightblue" points="613.24,-221.083 623.828,-221.443 615.775,-214.559 613.24,-221.083"/>
</g>
<!-- Node4&#45;&gt;Node7 -->
<g id="edge6" class="edge"><title>Node4&#45;&gt;Node7</title>
<path fill="none" stroke="midnightblue" d="M535.515,-166.397C561.21,-156.903 599.858,-142.624 628.271,-132.126"/>
<polygon fill="midnightblue" stroke="midnightblue" points="629.689,-135.333 637.856,-128.584 627.263,-128.767 629.689,-135.333"/>
</g>
<!-- Node8 -->
<g id="node8" class="node"><title>Node8</title>
<g id="a_node8"><a xlink:href="classpanda_1_1utils_1_1BranchName.html#a6cc8a6df7c5b12a0221fd49773cca6a7" target="_top" xlink:title="Is the name included and not vetoed? ">
<polygon fill="white" stroke="black" points="770.167,-131.5 770.167,-151.5 914.531,-151.5 914.531,-131.5 770.167,-131.5"/>
<text text-anchor="middle" x="842.349" y="-138.5" font-family="Helvetica,sans-Serif" font-size="10.00">panda::utils::BranchName::in</text>
</a>
</g>
</g>
<!-- Node7&#45;&gt;Node8 -->
<g id="edge7" class="edge"><title>Node7&#45;&gt;Node8</title>
<path fill="none" stroke="midnightblue" d="M713.374,-124.603C727.732,-126.499 744.005,-128.647 760.017,-130.762"/>
<polygon fill="midnightblue" stroke="midnightblue" points="759.562,-134.232 769.934,-132.071 760.478,-127.292 759.562,-134.232"/>
</g>
<!-- Node9 -->
<g id="node9" class="node"><title>Node9</title>
<g id="a_node9"><a xlink:href="classpanda_1_1utils_1_1BranchName.html#a13958ff4a9d554d2c057c600b4f70412" target="_top" xlink:title="Prepend the branch name with &lt;objName.&gt;. ">
<polygon fill="white" stroke="black" points="776.835,-80.5 776.835,-112.5 907.863,-112.5 907.863,-80.5 776.835,-80.5"/>
<text text-anchor="start" x="784.835" y="-99.5" font-family="Helvetica,sans-Serif" font-size="10.00">panda::utils::BranchName</text>
<text text-anchor="middle" x="842.349" y="-87.5" font-family="Helvetica,sans-Serif" font-size="10.00">::fullName</text>
</a>
</g>
</g>
<!-- Node7&#45;&gt;Node9 -->
<g id="edge8" class="edge"><title>Node7&#45;&gt;Node9</title>
<path fill="none" stroke="midnightblue" d="M713.374,-112.662C729.703,-110.6 748.511,-108.225 766.594,-105.941"/>
<polygon fill="midnightblue" stroke="midnightblue" points="767.063,-109.41 776.545,-104.684 766.186,-102.465 767.063,-109.41"/>
</g>
</g>
</svg>
