<?xml version="1.0" encoding="UTF-8" standalone="no"?>
<!DOCTYPE svg PUBLIC "-//W3C//DTD SVG 1.1//EN"
 "http://www.w3.org/Graphics/SVG/1.1/DTD/svg11.dtd">
<!-- Generated by graphviz version 2.38.0 (20140413.2041)
 -->
<!-- Title: panda::Tau::destructor Pages: 1 -->
<svg width="636pt" height="41pt"
 viewBox="0.00 0.00 635.68 41.00" xmlns="http://www.w3.org/2000/svg" xmlns:xlink="http://www.w3.org/1999/xlink">
<g id="graph0" class="graph" transform="scale(1 1) rotate(0) translate(4 37)">
<title>panda::Tau::destructor</title>
<polygon fill="white" stroke="none" points="-4,4 -4,-37 631.678,-37 631.678,4 -4,4"/>
<!-- Node1 -->
<g id="node1" class="node"><title>Node1</title>
<polygon fill="#bfbfbf" stroke="black" points="-3.55271e-14,-6.5 -3.55271e-14,-26.5 116.59,-26.5 116.59,-6.5 -3.55271e-14,-6.5"/>
<text text-anchor="middle" x="58.295" y="-13.5" font-family="Helvetica,sans-Serif" font-size="10.00">panda::Tau::destructor</text>
</g>
<!-- Node2 -->
<g id="node2" class="node"><title>Node2</title>
<g id="a_node2"><a xlink:href="classpanda_1_1ParticleM.html#abef15d28e6e33ee92c0b318bd41af2ca" target="_top" xlink:title="Destructor implementation. ">
<polygon fill="white" stroke="black" points="152.59,-6.5 152.59,-26.5 293.615,-26.5 293.615,-6.5 152.59,-6.5"/>
<text text-anchor="middle" x="223.102" y="-13.5" font-family="Helvetica,sans-Serif" font-size="10.00">panda::ParticleM::destructor</text>
</a>
</g>
</g>
<!-- Node1&#45;&gt;Node2 -->
<g id="edge1" class="edge"><title>Node1&#45;&gt;Node2</title>
<path fill="none" stroke="midnightblue" d="M116.695,-16.5C124.986,-16.5 133.642,-16.5 142.274,-16.5"/>
<polygon fill="midnightblue" stroke="midnightblue" points="142.373,-20.0001 152.373,-16.5 142.373,-13.0001 142.373,-20.0001"/>
</g>
<!-- Node3 -->
<g id="node3" class="node"><title>Node3</title>
<g id="a_node3"><a xlink:href="classpanda_1_1Particle.html#ad1a5f606b804ac2ec5d7e391aba6bda6" target="_top" xlink:title="Destructor implementation. ">
<polygon fill="white" stroke="black" points="329.615,-6.5 329.615,-26.5 462.311,-26.5 462.311,-6.5 329.615,-6.5"/>
<text text-anchor="middle" x="395.963" y="-13.5" font-family="Helvetica,sans-Serif" font-size="10.00">panda::Particle::destructor</text>
</a>
</g>
</g>
<!-- Node2&#45;&gt;Node3 -->
<g id="edge2" class="edge"><title>Node2&#45;&gt;Node3</title>
<path fill="none" stroke="midnightblue" d="M294.091,-16.5C302.412,-16.5 310.935,-16.5 319.33,-16.5"/>
<polygon fill="midnightblue" stroke="midnightblue" points="319.485,-20.0001 329.485,-16.5 319.485,-13.0001 319.485,-20.0001"/>
</g>
<!-- Node4 -->
<g id="node4" class="node"><title>Node4</title>
<g id="a_node4"><a xlink:href="classpanda_1_1ContainerElement.html#aa1c71695dae992e82bf91f354aa8480c" target="_top" xlink:title="Destructor implementation. ">
<polygon fill="white" stroke="black" points="498.311,-0.5 498.311,-32.5 627.678,-32.5 627.678,-0.5 498.311,-0.5"/>
<text text-anchor="start" x="506.311" y="-19.5" font-family="Helvetica,sans-Serif" font-size="10.00">panda::ContainerElement</text>
<text text-anchor="middle" x="562.994" y="-7.5" font-family="Helvetica,sans-Serif" font-size="10.00">::destructor</text>
</a>
</g>
</g>
<!-- Node3&#45;&gt;Node4 -->
<g id="edge3" class="edge"><title>Node3&#45;&gt;Node4</title>
<path fill="none" stroke="midnightblue" d="M462.662,-16.5C470.97,-16.5 479.514,-16.5 487.941,-16.5"/>
<polygon fill="midnightblue" stroke="midnightblue" points="488.136,-20.0001 498.136,-16.5 488.135,-13.0001 488.136,-20.0001"/>
</g>
</g>
</svg>
