<?xml version="1.0" encoding="UTF-8" standalone="no"?>
<!DOCTYPE svg PUBLIC "-//W3C//DTD SVG 1.1//EN"
 "http://www.w3.org/Graphics/SVG/1.1/DTD/svg11.dtd">
<!-- Generated by graphviz version 2.38.0 (20140413.2041)
 -->
<!-- Title: panda::Particle::m Pages: 1 -->
<svg width="434pt" height="87pt"
 viewBox="0.00 0.00 433.66 87.00" xmlns="http://www.w3.org/2000/svg" xmlns:xlink="http://www.w3.org/1999/xlink">
<g id="graph0" class="graph" transform="scale(1 1) rotate(0) translate(4 83)">
<title>panda::Particle::m</title>
<polygon fill="white" stroke="none" points="-4,4 -4,-83 429.658,-83 429.658,4 -4,4"/>
<!-- Node1 -->
<g id="node1" class="node"><title>Node1</title>
<polygon fill="#bfbfbf" stroke="black" points="-7.10543e-15,-19.5 -7.10543e-15,-39.5 96.573,-39.5 96.573,-19.5 -7.10543e-15,-19.5"/>
<text text-anchor="middle" x="48.2865" y="-26.5" font-family="Helvetica,sans-Serif" font-size="10.00">panda::Particle::m</text>
</g>
<!-- Node2 -->
<g id="node2" class="node"><title>Node2</title>
<g id="a_node2"><a xlink:href="classpanda_1_1Particle.html#aab2f22a57738ea3b2d3226e72c150a99" target="_top" xlink:title="panda::Particle::p4">
<polygon fill="white" stroke="black" points="132.573,-39.5 132.573,-59.5 231.935,-59.5 231.935,-39.5 132.573,-39.5"/>
<text text-anchor="middle" x="182.254" y="-46.5" font-family="Helvetica,sans-Serif" font-size="10.00">panda::Particle::p4</text>
</a>
</g>
</g>
<!-- Node1&#45;&gt;Node2 -->
<g id="edge1" class="edge"><title>Node1&#45;&gt;Node2</title>
<path fill="none" stroke="midnightblue" d="M107.083,-38.2592C115.511,-39.5365 124.12,-40.8412 132.349,-42.0883"/>
<polygon fill="midnightblue" stroke="midnightblue" points="107.341,-34.7585 96.9298,-36.7205 106.292,-41.6794 107.341,-34.7585"/>
</g>
<!-- Node5 -->
<g id="node5" class="node"><title>Node5</title>
<g id="a_node5"><a xlink:href="classpanda_1_1Particle.html#a7e352dd288ae0065303e5adc1ff3ba69" target="_top" xlink:title="panda::Particle::e">
<polygon fill="white" stroke="black" points="135.353,-0.5 135.353,-20.5 229.156,-20.5 229.156,-0.5 135.353,-0.5"/>
<text text-anchor="middle" x="182.254" y="-7.5" font-family="Helvetica,sans-Serif" font-size="10.00">panda::Particle::e</text>
</a>
</g>
</g>
<!-- Node1&#45;&gt;Node5 -->
<g id="edge5" class="edge"><title>Node1&#45;&gt;Node5</title>
<path fill="none" stroke="midnightblue" d="M106.976,-21.1942C116.35,-19.8446 125.951,-18.4623 135.005,-17.1586"/>
<polygon fill="midnightblue" stroke="midnightblue" points="106.329,-17.7511 96.9298,-22.6406 107.327,-24.6797 106.329,-17.7511"/>
</g>
<!-- Node2&#45;&gt;Node2 -->
<g id="edge2" class="edge"><title>Node2&#45;&gt;Node2</title>
<path fill="none" stroke="midnightblue" d="M157.747,-69.0396C159.221,-74.145 167.389,-78 182.254,-78 205.457,-78 212.346,-68.6067 202.919,-59.7271"/>
<polygon fill="midnightblue" stroke="midnightblue" points="161.011,-70.3061 161.589,-59.7271 154.54,-67.6367 161.011,-70.3061"/>
</g>
<!-- Node3 -->
<g id="node3" class="node"><title>Node3</title>
<g id="a_node3"><a xlink:href="classpanda_1_1PFCand.html#a5c5f399c11e2f6aa60e8f1c093946cc0" target="_top" xlink:title="panda::PFCand::puppiP4">
<polygon fill="white" stroke="black" points="282.663,-58.5 282.663,-78.5 410.93,-78.5 410.93,-58.5 282.663,-58.5"/>
<text text-anchor="middle" x="346.796" y="-65.5" font-family="Helvetica,sans-Serif" font-size="10.00">panda::PFCand::puppiP4</text>
</a>
</g>
</g>
<!-- Node2&#45;&gt;Node3 -->
<g id="edge3" class="edge"><title>Node2&#45;&gt;Node3</title>
<path fill="none" stroke="midnightblue" d="M242.318,-56.4042C255.415,-57.9351 269.346,-59.5635 282.601,-61.1129"/>
<polygon fill="midnightblue" stroke="midnightblue" points="242.361,-52.8854 232.022,-55.2006 241.548,-59.8381 242.361,-52.8854"/>
</g>
<!-- Node4 -->
<g id="node4" class="node"><title>Node4</title>
<g id="a_node4"><a xlink:href="classpanda_1_1PFCand.html#a3091b11c1f77e1a3ab0ed5954baa5354" target="_top" xlink:title="panda::PFCand::puppiNoLepP4">
<polygon fill="white" stroke="black" points="267.935,-19.5 267.935,-39.5 425.658,-39.5 425.658,-19.5 267.935,-19.5"/>
<text text-anchor="middle" x="346.796" y="-26.5" font-family="Helvetica,sans-Serif" font-size="10.00">panda::PFCand::puppiNoLepP4</text>
</a>
</g>
</g>
<!-- Node2&#45;&gt;Node4 -->
<g id="edge4" class="edge"><title>Node2&#45;&gt;Node4</title>
<path fill="none" stroke="midnightblue" d="M242.06,-42.2643C250.452,-41.2317 259.191,-40.1564 267.878,-39.0874"/>
<polygon fill="midnightblue" stroke="midnightblue" points="241.52,-38.8042 232.022,-43.4993 242.375,-45.7518 241.52,-38.8042"/>
</g>
</g>
</svg>
