<?xml version="1.0" encoding="UTF-8" standalone="no"?>
<!DOCTYPE svg PUBLIC "-//W3C//DTD SVG 1.1//EN"
 "http://www.w3.org/Graphics/SVG/1.1/DTD/svg11.dtd">
<!-- Generated by graphviz version 2.38.0 (20140413.2041)
 -->
<!-- Title: panda::Met Pages: 1 -->
<svg width="88pt" height="143pt"
 viewBox="0.00 0.00 87.92 143.00" xmlns="http://www.w3.org/2000/svg" xmlns:xlink="http://www.w3.org/1999/xlink">
<g id="graph0" class="graph" transform="scale(1 1) rotate(0) translate(4 139)">
<title>panda::Met</title>
<polygon fill="white" stroke="none" points="-4,4 -4,-139 83.916,-139 83.916,4 -4,4"/>
<!-- Node1 -->
<g id="node1" class="node"><title>Node1</title>
<polygon fill="#bfbfbf" stroke="black" points="6.948,-0.5 6.948,-20.5 72.968,-20.5 72.968,-0.5 6.948,-0.5"/>
<text text-anchor="middle" x="39.958" y="-7.5" font-family="Helvetica,sans-Serif" font-size="10.00">panda::Met</text>
</g>
<!-- Node2 -->
<g id="node2" class="node"><title>Node2</title>
<g id="a_node2"><a xlink:href="classpanda_1_1Singlet.html" target="_top" xlink:title="panda::Singlet">
<polygon fill="white" stroke="black" points="0,-57.5 0,-77.5 79.916,-77.5 79.916,-57.5 0,-57.5"/>
<text text-anchor="middle" x="39.958" y="-64.5" font-family="Helvetica,sans-Serif" font-size="10.00">panda::Singlet</text>
</a>
</g>
</g>
<!-- Node2&#45;&gt;Node1 -->
<g id="edge1" class="edge"><title>Node2&#45;&gt;Node1</title>
<path fill="none" stroke="midnightblue" d="M39.958,-47.383C39.958,-38.3738 39.958,-28.0373 39.958,-20.7795"/>
<polygon fill="midnightblue" stroke="midnightblue" points="36.4581,-47.4178 39.958,-57.4179 43.4581,-47.4179 36.4581,-47.4178"/>
</g>
<!-- Node3 -->
<g id="node3" class="node"><title>Node3</title>
<g id="a_node3"><a xlink:href="classpanda_1_1Object.html" target="_top" xlink:title="panda::Object">
<polygon fill="white" stroke="black" points="0.834,-114.5 0.834,-134.5 79.082,-134.5 79.082,-114.5 0.834,-114.5"/>
<text text-anchor="middle" x="39.958" y="-121.5" font-family="Helvetica,sans-Serif" font-size="10.00">panda::Object</text>
</a>
</g>
</g>
<!-- Node3&#45;&gt;Node2 -->
<g id="edge2" class="edge"><title>Node3&#45;&gt;Node2</title>
<path fill="none" stroke="midnightblue" d="M39.958,-104.383C39.958,-95.3738 39.958,-85.0373 39.958,-77.7795"/>
<polygon fill="midnightblue" stroke="midnightblue" points="36.4581,-104.418 39.958,-114.418 43.4581,-104.418 36.4581,-104.418"/>
</g>
</g>
</svg>
