<?xml version="1.0" encoding="UTF-8" standalone="no"?>
<!DOCTYPE svg PUBLIC "-//W3C//DTD SVG 1.1//EN"
 "http://www.w3.org/Graphics/SVG/1.1/DTD/svg11.dtd">
<!-- Generated by graphviz version 2.38.0 (20140413.2041)
 -->
<!-- Title: panda::Met::releaseTree Pages: 1 -->
<svg width="317pt" height="29pt"
 viewBox="0.00 0.00 317.17 29.00" xmlns="http://www.w3.org/2000/svg" xmlns:xlink="http://www.w3.org/1999/xlink">
<g id="graph0" class="graph" transform="scale(1 1) rotate(0) translate(4 25)">
<title>panda::Met::releaseTree</title>
<polygon fill="white" stroke="none" points="-4,4 -4,-25 313.173,-25 313.173,4 -4,4"/>
<!-- Node1 -->
<g id="node1" class="node"><title>Node1</title>
<polygon fill="#bfbfbf" stroke="black" points="-1.42109e-14,-0.5 -1.42109e-14,-20.5 124.918,-20.5 124.918,-0.5 -1.42109e-14,-0.5"/>
<text text-anchor="middle" x="62.459" y="-7.5" font-family="Helvetica,sans-Serif" font-size="10.00">panda::Met::releaseTree</text>
</g>
<!-- Node2 -->
<g id="node2" class="node"><title>Node2</title>
<g id="a_node2"><a xlink:href="classpanda_1_1RecoMet.html#aff4a46217bfa8d7d1a950ed0d91891c6" target="_top" xlink:title="Reset the branch pointer to unlink the branch from this object. ">
<polygon fill="white" stroke="black" points="160.918,-0.5 160.918,-20.5 309.173,-20.5 309.173,-0.5 160.918,-0.5"/>
<text text-anchor="middle" x="235.045" y="-7.5" font-family="Helvetica,sans-Serif" font-size="10.00">panda::RecoMet::releaseTree</text>
</a>
</g>
</g>
<!-- Node1&#45;&gt;Node2 -->
<g id="edge1" class="edge"><title>Node1&#45;&gt;Node2</title>
<path fill="none" stroke="midnightblue" d="M135.194,-10.5C143.606,-10.5 152.199,-10.5 160.634,-10.5"/>
<polygon fill="midnightblue" stroke="midnightblue" points="135.045,-7.0001 125.045,-10.5 135.045,-14.0001 135.045,-7.0001"/>
</g>
</g>
</svg>
