<?xml version="1.0" encoding="UTF-8" standalone="no"?>
<!DOCTYPE svg PUBLIC "-//W3C//DTD SVG 1.1//EN"
 "http://www.w3.org/Graphics/SVG/1.1/DTD/svg11.dtd">
<!-- Generated by graphviz version 2.38.0 (20140413.2041)
 -->
<!-- Title: panda::GenParticle::setStatus Pages: 1 -->
<svg width="802pt" height="189pt"
 viewBox="0.00 0.00 802.16 189.00" xmlns="http://www.w3.org/2000/svg" xmlns:xlink="http://www.w3.org/1999/xlink">
<g id="graph0" class="graph" transform="scale(1 1) rotate(0) translate(4 185)">
<title>panda::GenParticle::setStatus</title>
<polygon fill="white" stroke="none" points="-4,4 -4,-185 798.165,-185 798.165,4 -4,4"/>
<!-- Node1 -->
<g id="node1" class="node"><title>Node1</title>
<polygon fill="#bfbfbf" stroke="black" points="4.26326e-14,-103.5 4.26326e-14,-135.5 101.583,-135.5 101.583,-103.5 4.26326e-14,-103.5"/>
<text text-anchor="start" x="8" y="-122.5" font-family="Helvetica,sans-Serif" font-size="10.00">panda::GenParticle</text>
<text text-anchor="middle" x="50.7915" y="-110.5" font-family="Helvetica,sans-Serif" font-size="10.00">::setStatus</text>
</g>
<!-- Node2 -->
<g id="node2" class="node"><title>Node2</title>
<g id="a_node2"><a xlink:href="classpanda_1_1ParticleM.html#a3154bba2f00a8165994caa8ef55473bf" target="_top" xlink:title="Set status of branches with names that correspond to the variables of this object. ">
<polygon fill="white" stroke="black" points="137.583,-109.5 137.583,-129.5 275.839,-129.5 275.839,-109.5 137.583,-109.5"/>
<text text-anchor="middle" x="206.711" y="-116.5" font-family="Helvetica,sans-Serif" font-size="10.00">panda::ParticleM::setStatus</text>
</a>
</g>
</g>
<!-- Node1&#45;&gt;Node2 -->
<g id="edge1" class="edge"><title>Node1&#45;&gt;Node2</title>
<path fill="none" stroke="midnightblue" d="M101.765,-119.5C109.967,-119.5 118.637,-119.5 127.331,-119.5"/>
<polygon fill="midnightblue" stroke="midnightblue" points="127.522,-123 137.522,-119.5 127.522,-116 127.522,-123"/>
</g>
<!-- Node5 -->
<g id="node5" class="node"><title>Node5</title>
<g id="a_node5"><a xlink:href="classpanda_1_1utils_1_1StoreManager.html#a6f30ec459d951e84a1196b7e2ffdcf49" target="_top" xlink:title="panda::utils::StoreManager\l::getName">
<polygon fill="white" stroke="black" points="477.766,-148.5 477.766,-180.5 613.801,-180.5 613.801,-148.5 477.766,-148.5"/>
<text text-anchor="start" x="485.766" y="-167.5" font-family="Helvetica,sans-Serif" font-size="10.00">panda::utils::StoreManager</text>
<text text-anchor="middle" x="545.784" y="-155.5" font-family="Helvetica,sans-Serif" font-size="10.00">::getName</text>
</a>
</g>
</g>
<!-- Node1&#45;&gt;Node5 -->
<g id="edge12" class="edge"><title>Node1&#45;&gt;Node5</title>
<path fill="none" stroke="midnightblue" d="M101.992,-131.432C113.636,-133.973 126.009,-136.492 137.583,-138.5 214.496,-151.843 233.976,-154.933 311.839,-160.5 363.694,-164.208 422.198,-165.201 467.604,-165.27"/>
<polygon fill="midnightblue" stroke="midnightblue" points="467.672,-168.77 477.673,-165.271 467.673,-161.77 467.672,-168.77"/>
</g>
<!-- Node6 -->
<g id="node6" class="node"><title>Node6</title>
<g id="a_node6"><a xlink:href="namespacepanda_1_1utils.html#a01665f786d6a2acedb8f008f3fc9fc84" target="_top" xlink:title="Set status of a branch. ">
<polygon fill="white" stroke="black" points="488.599,-70.5 488.599,-90.5 602.968,-90.5 602.968,-70.5 488.599,-70.5"/>
<text text-anchor="middle" x="545.784" y="-77.5" font-family="Helvetica,sans-Serif" font-size="10.00">panda::utils::setStatus</text>
</a>
</g>
</g>
<!-- Node1&#45;&gt;Node6 -->
<g id="edge13" class="edge"><title>Node1&#45;&gt;Node6</title>
<path fill="none" stroke="midnightblue" d="M101.917,-106.597C113.564,-103.938 125.958,-101.38 137.583,-99.5 256.506,-80.272 397.311,-78.2139 478.321,-78.9936"/>
<polygon fill="midnightblue" stroke="midnightblue" points="478.342,-82.4939 488.381,-79.1081 478.421,-75.4944 478.342,-82.4939"/>
</g>
<!-- Node3 -->
<g id="node3" class="node"><title>Node3</title>
<g id="a_node3"><a xlink:href="classpanda_1_1Particle.html#a114feb26e7ed0b5fac53646fca93964e" target="_top" xlink:title="Set status of branches with names that correspond to the variables of this object. ">
<polygon fill="white" stroke="black" points="311.839,-109.5 311.839,-129.5 441.766,-129.5 441.766,-109.5 311.839,-109.5"/>
<text text-anchor="middle" x="376.803" y="-116.5" font-family="Helvetica,sans-Serif" font-size="10.00">panda::Particle::setStatus</text>
</a>
</g>
</g>
<!-- Node2&#45;&gt;Node3 -->
<g id="edge2" class="edge"><title>Node2&#45;&gt;Node3</title>
<path fill="none" stroke="midnightblue" d="M276.08,-119.5C284.481,-119.5 293.098,-119.5 301.58,-119.5"/>
<polygon fill="midnightblue" stroke="midnightblue" points="301.835,-123 311.835,-119.5 301.835,-116 301.835,-123"/>
</g>
<!-- Node2&#45;&gt;Node5 -->
<g id="edge10" class="edge"><title>Node2&#45;&gt;Node5</title>
<path fill="none" stroke="midnightblue" d="M258.703,-129.533C275.576,-132.658 294.476,-135.95 311.839,-138.5 363.586,-146.1 422.091,-152.622 467.524,-157.233"/>
<polygon fill="midnightblue" stroke="midnightblue" points="467.299,-160.728 477.599,-158.246 468,-153.763 467.299,-160.728"/>
</g>
<!-- Node2&#45;&gt;Node6 -->
<g id="edge11" class="edge"><title>Node2&#45;&gt;Node6</title>
<path fill="none" stroke="midnightblue" d="M254.185,-109.457C272.128,-105.873 292.87,-102.088 311.839,-99.5 367.835,-91.8617 431.853,-86.9107 478.589,-83.9839"/>
<polygon fill="midnightblue" stroke="midnightblue" points="478.82,-87.4764 488.588,-83.3721 478.392,-80.4895 478.82,-87.4764"/>
</g>
<!-- Node4 -->
<g id="node4" class="node"><title>Node4</title>
<g id="a_node4"><a xlink:href="classpanda_1_1Object.html#a282e820b1ad431db22ca4d4dd20b55e0" target="_top" xlink:title="Set status of branches with names that correspond to the variables of this object. ">
<polygon fill="white" stroke="black" points="483.039,-109.5 483.039,-129.5 608.528,-129.5 608.528,-109.5 483.039,-109.5"/>
<text text-anchor="middle" x="545.784" y="-116.5" font-family="Helvetica,sans-Serif" font-size="10.00">panda::Object::setStatus</text>
</a>
</g>
</g>
<!-- Node3&#45;&gt;Node4 -->
<g id="edge3" class="edge"><title>Node3&#45;&gt;Node4</title>
<path fill="none" stroke="midnightblue" d="M441.884,-119.5C451.955,-119.5 462.425,-119.5 472.662,-119.5"/>
<polygon fill="midnightblue" stroke="midnightblue" points="472.799,-123 482.799,-119.5 472.799,-116 472.799,-123"/>
</g>
<!-- Node3&#45;&gt;Node5 -->
<g id="edge4" class="edge"><title>Node3&#45;&gt;Node5</title>
<path fill="none" stroke="midnightblue" d="M415.276,-129.599C433.04,-134.386 454.846,-140.263 475.464,-145.819"/>
<polygon fill="midnightblue" stroke="midnightblue" points="474.583,-149.206 485.15,-148.429 476.405,-142.448 474.583,-149.206"/>
</g>
<!-- Node3&#45;&gt;Node6 -->
<g id="edge5" class="edge"><title>Node3&#45;&gt;Node6</title>
<path fill="none" stroke="midnightblue" d="M420.804,-109.457C442.521,-104.384 469.061,-98.1857 492.005,-92.8269"/>
<polygon fill="midnightblue" stroke="midnightblue" points="492.986,-96.1922 501.927,-90.5094 491.393,-89.3756 492.986,-96.1922"/>
</g>
<!-- Node7 -->
<g id="node7" class="node"><title>Node7</title>
<g id="a_node7"><a xlink:href="classpanda_1_1utils_1_1BranchName.html#a6cc8a6df7c5b12a0221fd49773cca6a7" target="_top" xlink:title="Is the name included and not vetoed? ">
<polygon fill="white" stroke="black" points="649.801,-141.5 649.801,-161.5 794.165,-161.5 794.165,-141.5 649.801,-141.5"/>
<text text-anchor="middle" x="721.983" y="-148.5" font-family="Helvetica,sans-Serif" font-size="10.00">panda::utils::BranchName::in</text>
</a>
</g>
</g>
<!-- Node6&#45;&gt;Node7 -->
<g id="edge6" class="edge"><title>Node6&#45;&gt;Node7</title>
<path fill="none" stroke="midnightblue" d="M592.939,-90.6052C600.141,-93.0189 607.332,-95.9539 613.801,-99.5 632.573,-109.79 631.017,-121.232 649.801,-131.5 654.262,-133.939 659.047,-136.102 663.949,-138.016"/>
<polygon fill="midnightblue" stroke="midnightblue" points="662.869,-141.347 673.464,-141.397 665.213,-134.751 662.869,-141.347"/>
</g>
<!-- Node8 -->
<g id="node8" class="node"><title>Node8</title>
<g id="a_node8"><a xlink:href="classpanda_1_1utils_1_1BranchName.html#ae3332329bf2afae5ed8e7c35e5d77ffa" target="_top" xlink:title="Is the name included and vetoed? ">
<polygon fill="white" stroke="black" points="656.469,-90.5 656.469,-122.5 787.497,-122.5 787.497,-90.5 656.469,-90.5"/>
<text text-anchor="start" x="664.469" y="-109.5" font-family="Helvetica,sans-Serif" font-size="10.00">panda::utils::BranchName</text>
<text text-anchor="middle" x="721.983" y="-97.5" font-family="Helvetica,sans-Serif" font-size="10.00">::vetoed</text>
</a>
</g>
</g>
<!-- Node6&#45;&gt;Node8 -->
<g id="edge7" class="edge"><title>Node6&#45;&gt;Node8</title>
<path fill="none" stroke="midnightblue" d="M603.341,-88.9415C616.931,-90.9699 631.657,-93.1678 645.942,-95.2999"/>
<polygon fill="midnightblue" stroke="midnightblue" points="645.836,-98.8227 656.243,-96.8373 646.87,-91.8994 645.836,-98.8227"/>
</g>
<!-- Node9 -->
<g id="node9" class="node"><title>Node9</title>
<g id="a_node9"><a xlink:href="classpanda_1_1utils_1_1BranchName.html#a13958ff4a9d554d2c057c600b4f70412" target="_top" xlink:title="Prepend the branch name with &lt;objName.&gt;. ">
<polygon fill="white" stroke="black" points="656.469,-39.5 656.469,-71.5 787.497,-71.5 787.497,-39.5 656.469,-39.5"/>
<text text-anchor="start" x="664.469" y="-58.5" font-family="Helvetica,sans-Serif" font-size="10.00">panda::utils::BranchName</text>
<text text-anchor="middle" x="721.983" y="-46.5" font-family="Helvetica,sans-Serif" font-size="10.00">::fullName</text>
</a>
</g>
</g>
<!-- Node6&#45;&gt;Node9 -->
<g id="edge8" class="edge"><title>Node6&#45;&gt;Node9</title>
<path fill="none" stroke="midnightblue" d="M603.341,-72.3832C616.931,-70.4328 631.657,-68.3194 645.942,-66.2694"/>
<polygon fill="midnightblue" stroke="midnightblue" points="646.842,-69.6762 656.243,-64.791 645.847,-62.7472 646.842,-69.6762"/>
</g>
<!-- Node10 -->
<g id="node10" class="node"><title>Node10</title>
<g id="a_node10"><a xlink:href="namespacepanda_1_1utils.html#aafa411773a4b0ee829d99e6e5a0abdcd" target="_top" xlink:title="Check status of a branch. ">
<polygon fill="white" stroke="black" points="658.408,-0.5 658.408,-20.5 785.558,-20.5 785.558,-0.5 658.408,-0.5"/>
<text text-anchor="middle" x="721.983" y="-7.5" font-family="Helvetica,sans-Serif" font-size="10.00">panda::utils::checkStatus</text>
</a>
</g>
</g>
<!-- Node6&#45;&gt;Node10 -->
<g id="edge9" class="edge"><title>Node6&#45;&gt;Node10</title>
<path fill="none" stroke="midnightblue" d="M564.534,-70.3521C584.687,-59.1554 618.8,-41.1784 649.801,-29.5 655.614,-27.3103 661.783,-25.2677 667.963,-23.3951"/>
<polygon fill="midnightblue" stroke="midnightblue" points="669.003,-26.7378 677.636,-20.5957 667.057,-20.0137 669.003,-26.7378"/>
</g>
</g>
</svg>
