<?xml version="1.0" encoding="UTF-8" standalone="no"?>
<!DOCTYPE svg PUBLIC "-//W3C//DTD SVG 1.1//EN"
 "http://www.w3.org/Graphics/SVG/1.1/DTD/svg11.dtd">
<!-- Generated by graphviz version 2.38.0 (20140413.2041)
 -->
<!-- Title: panda::MetFilters Pages: 1 -->
<svg width="101pt" height="143pt"
 viewBox="0.00 0.00 101.23 143.00" xmlns="http://www.w3.org/2000/svg" xmlns:xlink="http://www.w3.org/1999/xlink">
<g id="graph0" class="graph" transform="scale(1 1) rotate(0) translate(4 139)">
<title>panda::MetFilters</title>
<polygon fill="white" stroke="none" points="-4,4 -4,-139 97.234,-139 97.234,4 -4,4"/>
<!-- Node1 -->
<g id="node1" class="node"><title>Node1</title>
<polygon fill="#bfbfbf" stroke="black" points="-7.10543e-15,-0.5 -7.10543e-15,-20.5 93.234,-20.5 93.234,-0.5 -7.10543e-15,-0.5"/>
<text text-anchor="middle" x="46.617" y="-7.5" font-family="Helvetica,sans-Serif" font-size="10.00">panda::MetFilters</text>
</g>
<!-- Node2 -->
<g id="node2" class="node"><title>Node2</title>
<g id="a_node2"><a xlink:href="classpanda_1_1Singlet.html" target="_top" xlink:title="panda::Singlet">
<polygon fill="white" stroke="black" points="6.659,-57.5 6.659,-77.5 86.575,-77.5 86.575,-57.5 6.659,-57.5"/>
<text text-anchor="middle" x="46.617" y="-64.5" font-family="Helvetica,sans-Serif" font-size="10.00">panda::Singlet</text>
</a>
</g>
</g>
<!-- Node2&#45;&gt;Node1 -->
<g id="edge1" class="edge"><title>Node2&#45;&gt;Node1</title>
<path fill="none" stroke="midnightblue" d="M46.617,-47.383C46.617,-38.3738 46.617,-28.0373 46.617,-20.7795"/>
<polygon fill="midnightblue" stroke="midnightblue" points="43.1171,-47.4178 46.617,-57.4179 50.1171,-47.4179 43.1171,-47.4178"/>
</g>
<!-- Node3 -->
<g id="node3" class="node"><title>Node3</title>
<g id="a_node3"><a xlink:href="classpanda_1_1Object.html" target="_top" xlink:title="panda::Object">
<polygon fill="white" stroke="black" points="7.493,-114.5 7.493,-134.5 85.741,-134.5 85.741,-114.5 7.493,-114.5"/>
<text text-anchor="middle" x="46.617" y="-121.5" font-family="Helvetica,sans-Serif" font-size="10.00">panda::Object</text>
</a>
</g>
</g>
<!-- Node3&#45;&gt;Node2 -->
<g id="edge2" class="edge"><title>Node3&#45;&gt;Node2</title>
<path fill="none" stroke="midnightblue" d="M46.617,-104.383C46.617,-95.3738 46.617,-85.0373 46.617,-77.7795"/>
<polygon fill="midnightblue" stroke="midnightblue" points="43.1171,-104.418 46.617,-114.418 50.1171,-104.418 43.1171,-104.418"/>
</g>
</g>
</svg>
