<?xml version="1.0" encoding="UTF-8" standalone="no"?>
<!DOCTYPE svg PUBLIC "-//W3C//DTD SVG 1.1//EN"
 "http://www.w3.org/Graphics/SVG/1.1/DTD/svg11.dtd">
<!-- Generated by graphviz version 2.38.0 (20140413.2041)
 -->
<!-- Title: panda::Muon::setAddress Pages: 1 -->
<svg width="986pt" height="192pt"
 viewBox="0.00 0.00 986.45 192.49" xmlns="http://www.w3.org/2000/svg" xmlns:xlink="http://www.w3.org/1999/xlink">
<g id="graph0" class="graph" transform="scale(1 1) rotate(0) translate(4 188.486)">
<title>panda::Muon::setAddress</title>
<polygon fill="white" stroke="none" points="-4,4 -4,-188.486 982.454,-188.486 982.454,4 -4,4"/>
<!-- Node1 -->
<g id="node1" class="node"><title>Node1</title>
<polygon fill="#bfbfbf" stroke="black" points="4.26326e-14,-92.9857 4.26326e-14,-112.986 129.93,-112.986 129.93,-92.9857 4.26326e-14,-92.9857"/>
<text text-anchor="middle" x="64.965" y="-99.9857" font-family="Helvetica,sans-Serif" font-size="10.00">panda::Muon::setAddress</text>
</g>
<!-- Node2 -->
<g id="node2" class="node"><title>Node2</title>
<g id="a_node2"><a xlink:href="classpanda_1_1Lepton.html#ae5bb488ef12db0ad5549c4451cf6b155" target="_top" xlink:title="Set address for the branches to the variables of this object. ">
<polygon fill="white" stroke="black" points="165.93,-92.9857 165.93,-112.986 301.428,-112.986 301.428,-92.9857 165.93,-92.9857"/>
<text text-anchor="middle" x="233.679" y="-99.9857" font-family="Helvetica,sans-Serif" font-size="10.00">panda::Lepton::setAddress</text>
</a>
</g>
</g>
<!-- Node1&#45;&gt;Node2 -->
<g id="edge1" class="edge"><title>Node1&#45;&gt;Node2</title>
<path fill="none" stroke="midnightblue" d="M129.944,-102.986C138.392,-102.986 147.121,-102.986 155.757,-102.986"/>
<polygon fill="midnightblue" stroke="midnightblue" points="155.831,-106.486 165.831,-102.986 155.831,-99.4858 155.831,-106.486"/>
</g>
<!-- Node5 -->
<g id="node5" class="node"><title>Node5</title>
<g id="a_node5"><a xlink:href="classpanda_1_1utils_1_1StoreManager.html#a6f30ec459d951e84a1196b7e2ffdcf49" target="_top" xlink:title="panda::utils::StoreManager\l::getName">
<polygon fill="white" stroke="black" points="511.685,-151.986 511.685,-183.986 647.72,-183.986 647.72,-151.986 511.685,-151.986"/>
<text text-anchor="start" x="519.685" y="-170.986" font-family="Helvetica,sans-Serif" font-size="10.00">panda::utils::StoreManager</text>
<text text-anchor="middle" x="579.702" y="-158.986" font-family="Helvetica,sans-Serif" font-size="10.00">::getName</text>
</a>
</g>
</g>
<!-- Node1&#45;&gt;Node5 -->
<g id="edge17" class="edge"><title>Node1&#45;&gt;Node5</title>
<path fill="none" stroke="midnightblue" d="M98.1314,-113.089C148.525,-128.34 249.432,-156.568 337.428,-166.986 391.975,-173.443 453.945,-173.548 501.422,-172.113"/>
<polygon fill="midnightblue" stroke="midnightblue" points="501.751,-175.604 511.63,-171.775 501.519,-168.608 501.751,-175.604"/>
</g>
<!-- Node6 -->
<g id="node6" class="node"><title>Node6</title>
<g id="a_node6"><a xlink:href="namespacepanda_1_1utils.html#abf9c62e588560197c2bae9932e6a6e05" target="_top" xlink:title="Set address. ">
<polygon fill="white" stroke="black" points="518.352,-73.9857 518.352,-93.9857 641.052,-93.9857 641.052,-73.9857 518.352,-73.9857"/>
<text text-anchor="middle" x="579.702" y="-80.9857" font-family="Helvetica,sans-Serif" font-size="10.00">panda::utils::setAddress</text>
</a>
</g>
</g>
<!-- Node1&#45;&gt;Node6 -->
<g id="edge18" class="edge"><title>Node1&#45;&gt;Node6</title>
<path fill="none" stroke="midnightblue" d="M83.4146,-92.7734C140.547,-60.6803 326.874,33.3278 475.685,-12.9857 509.621,-23.5474 542.261,-49.6132 561.398,-67.0492"/>
<polygon fill="midnightblue" stroke="midnightblue" points="559.046,-69.6417 568.738,-73.923 563.831,-64.5326 559.046,-69.6417"/>
</g>
<!-- Node3 -->
<g id="node3" class="node"><title>Node3</title>
<g id="a_node3"><a xlink:href="classpanda_1_1Particle.html#a96282cfb24384c1f00c40576069a4c7e" target="_top" xlink:title="Set address for the branches to the variables of this object. ">
<polygon fill="white" stroke="black" points="337.428,-112.986 337.428,-132.986 475.685,-132.986 475.685,-112.986 337.428,-112.986"/>
<text text-anchor="middle" x="406.557" y="-119.986" font-family="Helvetica,sans-Serif" font-size="10.00">panda::Particle::setAddress</text>
</a>
</g>
</g>
<!-- Node2&#45;&gt;Node3 -->
<g id="edge2" class="edge"><title>Node2&#45;&gt;Node3</title>
<path fill="none" stroke="midnightblue" d="M301.724,-110.833C310.124,-111.816 318.774,-112.828 327.326,-113.829"/>
<polygon fill="midnightblue" stroke="midnightblue" points="326.962,-117.311 337.301,-114.997 327.776,-110.358 326.962,-117.311"/>
</g>
<!-- Node2&#45;&gt;Node5 -->
<g id="edge14" class="edge"><title>Node2&#45;&gt;Node5</title>
<path fill="none" stroke="midnightblue" d="M256.214,-113.016C276.659,-122.088 308.481,-135.053 337.428,-141.986 391.345,-154.898 453.584,-161.406 501.344,-164.681"/>
<polygon fill="midnightblue" stroke="midnightblue" points="501.407,-168.193 511.614,-165.351 501.863,-161.207 501.407,-168.193"/>
</g>
<!-- Node2&#45;&gt;Node6 -->
<g id="edge15" class="edge"><title>Node2&#45;&gt;Node6</title>
<path fill="none" stroke="midnightblue" d="M301.827,-99.2772C361.255,-95.9951 447.688,-91.2215 508.127,-87.8835"/>
<polygon fill="midnightblue" stroke="midnightblue" points="508.553,-91.3654 518.345,-87.3192 508.167,-84.3761 508.553,-91.3654"/>
</g>
<!-- Node12 -->
<g id="node12" class="node"><title>Node12</title>
<g id="a_node12"><a xlink:href="classpanda_1_1utils_1_1StoreManager.html#ae6c8fb6b0c3d25147b09ef8b92b61da8" target="_top" xlink:title="panda::utils::StoreManager\l::getData">
<polygon fill="white" stroke="black" points="338.539,-22.9857 338.539,-54.9857 474.574,-54.9857 474.574,-22.9857 338.539,-22.9857"/>
<text text-anchor="start" x="346.539" y="-41.9857" font-family="Helvetica,sans-Serif" font-size="10.00">panda::utils::StoreManager</text>
<text text-anchor="middle" x="406.557" y="-29.9857" font-family="Helvetica,sans-Serif" font-size="10.00">::getData</text>
</a>
</g>
</g>
<!-- Node2&#45;&gt;Node12 -->
<g id="edge16" class="edge"><title>Node2&#45;&gt;Node12</title>
<path fill="none" stroke="midnightblue" d="M261.755,-92.8447C286.211,-83.685 322.888,-69.9482 353.079,-58.6405"/>
<polygon fill="midnightblue" stroke="midnightblue" points="354.493,-61.8485 362.63,-55.0633 352.038,-55.2932 354.493,-61.8485"/>
</g>
<!-- Node4 -->
<g id="node4" class="node"><title>Node4</title>
<g id="a_node4"><a xlink:href="classpanda_1_1Object.html#aed9f9d3b6abe518dd27957de843b36b5" target="_top" xlink:title="Set address for the branches to the variables of this object. ">
<polygon fill="white" stroke="black" points="512.793,-112.986 512.793,-132.986 646.612,-132.986 646.612,-112.986 512.793,-112.986"/>
<text text-anchor="middle" x="579.702" y="-119.986" font-family="Helvetica,sans-Serif" font-size="10.00">panda::Object::setAddress</text>
</a>
</g>
</g>
<!-- Node3&#45;&gt;Node4 -->
<g id="edge3" class="edge"><title>Node3&#45;&gt;Node4</title>
<path fill="none" stroke="midnightblue" d="M475.69,-122.986C484.562,-122.986 493.696,-122.986 502.687,-122.986"/>
<polygon fill="midnightblue" stroke="midnightblue" points="502.756,-126.486 512.756,-122.986 502.756,-119.486 502.756,-126.486"/>
</g>
<!-- Node3&#45;&gt;Node5 -->
<g id="edge4" class="edge"><title>Node3&#45;&gt;Node5</title>
<path fill="none" stroke="midnightblue" d="M445.965,-133.085C464.172,-137.872 486.522,-143.748 507.654,-149.305"/>
<polygon fill="midnightblue" stroke="midnightblue" points="507.02,-152.757 517.581,-151.915 508.8,-145.987 507.02,-152.757"/>
</g>
<!-- Node3&#45;&gt;Node6 -->
<g id="edge5" class="edge"><title>Node3&#45;&gt;Node6</title>
<path fill="none" stroke="midnightblue" d="M451.631,-112.942C473.99,-107.847 501.335,-101.616 524.924,-96.2406"/>
<polygon fill="midnightblue" stroke="midnightblue" points="525.805,-99.6296 534.778,-93.9952 524.25,-92.8045 525.805,-99.6296"/>
</g>
<!-- Node7 -->
<g id="node7" class="node"><title>Node7</title>
<g id="a_node7"><a xlink:href="classpanda_1_1utils_1_1BranchName.html#a13958ff4a9d554d2c057c600b4f70412" target="_top" xlink:title="Prepend the branch name with &lt;objName.&gt;. ">
<polygon fill="white" stroke="black" points="840.758,-132.986 840.758,-164.986 971.786,-164.986 971.786,-132.986 840.758,-132.986"/>
<text text-anchor="start" x="848.758" y="-151.986" font-family="Helvetica,sans-Serif" font-size="10.00">panda::utils::BranchName</text>
<text text-anchor="middle" x="906.272" y="-139.986" font-family="Helvetica,sans-Serif" font-size="10.00">::fullName</text>
</a>
</g>
</g>
<!-- Node6&#45;&gt;Node7 -->
<g id="edge6" class="edge"><title>Node6&#45;&gt;Node7</title>
<path fill="none" stroke="midnightblue" d="M621.713,-93.9952C640.557,-98.4774 663.227,-103.705 683.72,-107.986 732.462,-118.168 787.51,-128.361 830.541,-136.037"/>
<polygon fill="midnightblue" stroke="midnightblue" points="830.191,-139.53 840.649,-137.834 831.416,-132.638 830.191,-139.53"/>
</g>
<!-- Node8 -->
<g id="node8" class="node"><title>Node8</title>
<g id="a_node8"><a xlink:href="namespacepanda_1_1utils.html#a01665f786d6a2acedb8f008f3fc9fc84" target="_top" xlink:title="Set status of a branch. ">
<polygon fill="white" stroke="black" points="683.72,-54.9857 683.72,-74.9857 798.09,-74.9857 798.09,-54.9857 683.72,-54.9857"/>
<text text-anchor="middle" x="740.905" y="-61.9857" font-family="Helvetica,sans-Serif" font-size="10.00">panda::utils::setStatus</text>
</a>
</g>
</g>
<!-- Node6&#45;&gt;Node8 -->
<g id="edge7" class="edge"><title>Node6&#45;&gt;Node8</title>
<path fill="none" stroke="midnightblue" d="M641.344,-76.7484C651.866,-75.4928 662.856,-74.1811 673.521,-72.9083"/>
<polygon fill="midnightblue" stroke="midnightblue" points="674.106,-76.3635 683.62,-71.703 673.276,-69.4128 674.106,-76.3635"/>
</g>
<!-- Node9 -->
<g id="node9" class="node"><title>Node9</title>
<g id="a_node9"><a xlink:href="classpanda_1_1utils_1_1BranchName.html#a6cc8a6df7c5b12a0221fd49773cca6a7" target="_top" xlink:title="Is the name included and not vetoed? ">
<polygon fill="white" stroke="black" points="834.09,-93.9857 834.09,-113.986 978.454,-113.986 978.454,-93.9857 834.09,-93.9857"/>
<text text-anchor="middle" x="906.272" y="-100.986" font-family="Helvetica,sans-Serif" font-size="10.00">panda::utils::BranchName::in</text>
</a>
</g>
</g>
<!-- Node6&#45;&gt;Node9 -->
<g id="edge12" class="edge"><title>Node6&#45;&gt;Node9</title>
<path fill="none" stroke="midnightblue" d="M641.371,-87.7241C692.865,-90.8972 767.198,-95.4776 823.861,-98.9692"/>
<polygon fill="midnightblue" stroke="midnightblue" points="823.671,-102.464 833.868,-99.5858 824.102,-95.4773 823.671,-102.464"/>
</g>
<!-- Node11 -->
<g id="node11" class="node"><title>Node11</title>
<g id="a_node11"><a xlink:href="namespacepanda_1_1utils.html#aafa411773a4b0ee829d99e6e5a0abdcd" target="_top" xlink:title="Check status of a branch. ">
<polygon fill="white" stroke="black" points="842.697,-3.98573 842.697,-23.9857 969.847,-23.9857 969.847,-3.98573 842.697,-3.98573"/>
<text text-anchor="middle" x="906.272" y="-10.9857" font-family="Helvetica,sans-Serif" font-size="10.00">panda::utils::checkStatus</text>
</a>
</g>
</g>
<!-- Node6&#45;&gt;Node11 -->
<g id="edge13" class="edge"><title>Node6&#45;&gt;Node11</title>
<path fill="none" stroke="midnightblue" d="M603.145,-73.8218C623.704,-64.9156 655.188,-52.2851 683.72,-44.9857 732.591,-32.483 788.901,-24.6872 832.523,-20.0405"/>
<polygon fill="midnightblue" stroke="midnightblue" points="832.889,-23.5214 842.476,-19.0113 832.169,-16.5586 832.889,-23.5214"/>
</g>
<!-- Node8&#45;&gt;Node7 -->
<g id="edge10" class="edge"><title>Node8&#45;&gt;Node7</title>
<path fill="none" stroke="midnightblue" d="M755.735,-74.9967C773.313,-87.4069 804.889,-108.667 834.09,-122.986 838.368,-125.084 842.861,-127.108 847.422,-129.039"/>
<polygon fill="midnightblue" stroke="midnightblue" points="846.249,-132.34 856.831,-132.861 848.884,-125.855 846.249,-132.34"/>
</g>
<!-- Node8&#45;&gt;Node9 -->
<g id="edge8" class="edge"><title>Node8&#45;&gt;Node9</title>
<path fill="none" stroke="midnightblue" d="M783.976,-75.0292C805.128,-80.0787 830.956,-86.2444 853.334,-91.5867"/>
<polygon fill="midnightblue" stroke="midnightblue" points="852.804,-95.0585 863.344,-93.9763 854.43,-88.2499 852.804,-95.0585"/>
</g>
<!-- Node10 -->
<g id="node10" class="node"><title>Node10</title>
<g id="a_node10"><a xlink:href="classpanda_1_1utils_1_1BranchName.html#ae3332329bf2afae5ed8e7c35e5d77ffa" target="_top" xlink:title="Is the name included and vetoed? ">
<polygon fill="white" stroke="black" points="840.758,-42.9857 840.758,-74.9857 971.786,-74.9857 971.786,-42.9857 840.758,-42.9857"/>
<text text-anchor="start" x="848.758" y="-61.9857" font-family="Helvetica,sans-Serif" font-size="10.00">panda::utils::BranchName</text>
<text text-anchor="middle" x="906.272" y="-49.9857" font-family="Helvetica,sans-Serif" font-size="10.00">::vetoed</text>
</a>
</g>
</g>
<!-- Node8&#45;&gt;Node10 -->
<g id="edge9" class="edge"><title>Node8&#45;&gt;Node10</title>
<path fill="none" stroke="midnightblue" d="M798.127,-62.9209C808.478,-62.5407 819.436,-62.1382 830.238,-61.7415"/>
<polygon fill="midnightblue" stroke="midnightblue" points="830.657,-65.2286 840.522,-61.3638 830.4,-58.2333 830.657,-65.2286"/>
</g>
<!-- Node8&#45;&gt;Node11 -->
<g id="edge11" class="edge"><title>Node8&#45;&gt;Node11</title>
<path fill="none" stroke="midnightblue" d="M769.162,-54.9354C787.422,-48.3481 812.062,-39.739 834.09,-32.9857 841.068,-30.8464 848.472,-28.7168 855.765,-26.6989"/>
<polygon fill="midnightblue" stroke="midnightblue" points="856.861,-30.0281 865.591,-24.0259 855.023,-23.2736 856.861,-30.0281"/>
</g>
</g>
</svg>
