<?xml version="1.0" encoding="UTF-8" standalone="no"?>
<!DOCTYPE svg PUBLIC "-//W3C//DTD SVG 1.1//EN"
 "http://www.w3.org/Graphics/SVG/1.1/DTD/svg11.dtd">
<!-- Generated by graphviz version 2.38.0 (20140413.2041)
 -->
<!-- Title: panda::MicroJet::setAddress Pages: 1 -->
<!--zoomable 189 -->
<svg id="main" version="1.1" xmlns="http://www.w3.org/2000/svg" xmlns:xlink="http://www.w3.org/1999/xlink" xml:space="preserve" onload="init(evt)">
<style type="text/css"><![CDATA[
.edge:hover path { stroke: red; }
.edge:hover polygon { stroke: red; fill: red; }
]]></style>
<script type="text/javascript"><![CDATA[
var edges = document.getElementsByTagName('g');
if (edges && edges.length) {
  for (var i=0;i<edges.length;i++) {
    if (edges[i].id.substr(0,4)=='edge') {
      edges[i].setAttribute('class','edge');
    }
  }
}
]]></script>
        <defs>
                <circle id="rim" cx="0" cy="0" r="7"/>
                <circle id="rim2" cx="0" cy="0" r="3.5"/>
                <g id="zoomPlus">
                        <use xlink:href="#rim" fill="#404040">
                                <set attributeName="fill" to="#808080" begin="zoomplus.mouseover" end="zoomplus.mouseout"/>
                        </use>
                        <path d="M-4,0h8M0,-4v8" fill="none" stroke="white" stroke-width="1.5" pointer-events="none"/>
                </g>
                <g id="zoomMin">
                        <use xlink:href="#rim" fill="#404040">
                                <set attributeName="fill" to="#808080" begin="zoomminus.mouseover" end="zoomminus.mouseout"/>
                        </use>
                        <path d="M-4,0h8" fill="none" stroke="white" stroke-width="1.5" pointer-events="none"/>
                </g>
                <g id="dirArrow">
                        <path fill="none" stroke="white" stroke-width="1.5" d="M0,-3.0v7 M-2.5,-0.5L0,-3.0L2.5,-0.5"/>
                </g>
               <g id="resetDef">
                       <use xlink:href="#rim2" fill="#404040">
                               <set attributeName="fill" to="#808080" begin="reset.mouseover" end="reset.mouseout"/>
                       </use>
               </g>
        </defs>

<script type="text/javascript">
var viewWidth = 1010;
var viewHeight = 189;
var sectionId = 'dynsection-14';
</script>
<script xlink:href="svgpan.js"/>
<svg id="graph" class="graph">
<g id="viewport">
<title>panda::MicroJet::setAddress</title>
<polygon fill="white" stroke="none" points="-4,4 -4,-185 1006.31,-185 1006.31,4 -4,4"/>
<!-- Node1 -->
<g id="node1" class="node"><title>Node1</title>
<polygon fill="#bfbfbf" stroke="black" points="5.68434e-14,-109.5 5.68434e-14,-129.5 142.698,-129.5 142.698,-109.5 5.68434e-14,-109.5"/>
<text text-anchor="middle" x="71.349" y="-116.5" font-family="Helvetica,sans-Serif" font-size="10.00">panda::MicroJet::setAddress</text>
</g>
<!-- Node2 -->
<g id="node2" class="node"><title>Node2</title>
<g id="a_node2"><a xlink:href="classpanda_1_1ParticleM.html#ad8aeae1e2ca26f4cdb7d079ab56a10fe" target="_top" xlink:title="Set address for the branches to the variables of this object. ">
<polygon fill="white" stroke="black" points="178.698,-109.5 178.698,-129.5 325.284,-129.5 325.284,-109.5 178.698,-109.5"/>
<text text-anchor="middle" x="251.991" y="-116.5" font-family="Helvetica,sans-Serif" font-size="10.00">panda::ParticleM::setAddress</text>
</a>
</g>
</g>
<!-- Node1&#45;&gt;Node2 -->
<g id="edge1" class="edge"><title>Node1&#45;&gt;Node2</title>
<path fill="none" stroke="midnightblue" d="M142.953,-119.5C151.273,-119.5 159.82,-119.5 168.288,-119.5"/>
<polygon fill="midnightblue" stroke="midnightblue" points="168.556,-123 178.556,-119.5 168.556,-116 168.556,-123"/>
</g>
<!-- Node5 -->
<g id="node5" class="node"><title>Node5</title>
<g id="a_node5"><a xlink:href="classpanda_1_1utils_1_1StoreManager.html#a6f30ec459d951e84a1196b7e2ffdcf49" target="_top" xlink:title="panda::utils::StoreManager\l::getName">
<polygon fill="white" stroke="black" points="535.541,-148.5 535.541,-180.5 671.576,-180.5 671.576,-148.5 535.541,-148.5"/>
<text text-anchor="start" x="543.541" y="-167.5" font-family="Helvetica,sans-Serif" font-size="10.00">panda::utils::StoreManager</text>
<text text-anchor="middle" x="603.558" y="-155.5" font-family="Helvetica,sans-Serif" font-size="10.00">::getName</text>
</a>
</g>
</g>
<!-- Node1&#45;&gt;Node5 -->
<g id="edge16" class="edge"><title>Node1&#45;&gt;Node5</title>
<path fill="none" stroke="midnightblue" d="M125.273,-129.509C142.3,-132.581 161.268,-135.847 178.698,-138.5 259.557,-150.808 279.687,-155.871 361.284,-161.5 415.988,-165.273 477.829,-165.972 525.207,-165.754"/>
<polygon fill="midnightblue" stroke="midnightblue" points="525.415,-169.253 535.393,-165.692 525.372,-162.253 525.415,-169.253"/>
</g>
<!-- Node6 -->
<g id="node6" class="node"><title>Node6</title>
<g id="a_node6"><a xlink:href="namespacepanda_1_1utils.html#abf9c62e588560197c2bae9932e6a6e05" target="_top" xlink:title="Set address. ">
<polygon fill="white" stroke="black" points="542.208,-70.5 542.208,-90.5 664.908,-90.5 664.908,-70.5 542.208,-70.5"/>
<text text-anchor="middle" x="603.558" y="-77.5" font-family="Helvetica,sans-Serif" font-size="10.00">panda::utils::setAddress</text>
</a>
</g>
</g>
<!-- Node1&#45;&gt;Node6 -->
<g id="edge17" class="edge"><title>Node1&#45;&gt;Node6</title>
<path fill="none" stroke="midnightblue" d="M120.369,-109.488C138.576,-105.951 159.535,-102.188 178.698,-99.5 259.408,-88.1785 279.888,-86.6192 361.284,-82.5 418.699,-79.5944 483.895,-79.2293 532.029,-79.5159"/>
<polygon fill="midnightblue" stroke="midnightblue" points="532.007,-83.0158 542.032,-79.5863 532.057,-76.0159 532.007,-83.0158"/>
</g>
<!-- Node3 -->
<g id="node3" class="node"><title>Node3</title>
<g id="a_node3"><a xlink:href="classpanda_1_1Particle.html#a96282cfb24384c1f00c40576069a4c7e" target="_top" xlink:title="Set address for the branches to the variables of this object. ">
<polygon fill="white" stroke="black" points="361.284,-109.5 361.284,-129.5 499.541,-129.5 499.541,-109.5 361.284,-109.5"/>
<text text-anchor="middle" x="430.412" y="-116.5" font-family="Helvetica,sans-Serif" font-size="10.00">panda::Particle::setAddress</text>
</a>
</g>
</g>
<!-- Node2&#45;&gt;Node3 -->
<g id="edge2" class="edge"><title>Node2&#45;&gt;Node3</title>
<path fill="none" stroke="midnightblue" d="M325.512,-119.5C333.89,-119.5 342.464,-119.5 350.916,-119.5"/>
<polygon fill="midnightblue" stroke="midnightblue" points="351.146,-123 361.146,-119.5 351.146,-116 351.146,-123"/>
</g>
<!-- Node2&#45;&gt;Node5 -->
<g id="edge14" class="edge"><title>Node2&#45;&gt;Node5</title>
<path fill="none" stroke="midnightblue" d="M306.032,-129.53C323.581,-132.655 343.235,-135.947 361.284,-138.5 415.887,-146.223 477.731,-152.846 525.135,-157.475"/>
<polygon fill="midnightblue" stroke="midnightblue" points="525.037,-160.981 535.328,-158.461 525.711,-154.014 525.037,-160.981"/>
</g>
<!-- Node2&#45;&gt;Node6 -->
<g id="edge15" class="edge"><title>Node2&#45;&gt;Node6</title>
<path fill="none" stroke="midnightblue" d="M301.338,-109.459C320.001,-105.876 341.57,-102.09 361.284,-99.5 418.457,-91.9901 483.67,-87.0717 531.872,-84.1246"/>
<polygon fill="midnightblue" stroke="midnightblue" points="532.118,-87.6162 541.891,-83.5254 531.7,-80.6287 532.118,-87.6162"/>
</g>
<!-- Node4 -->
<g id="node4" class="node"><title>Node4</title>
<g id="a_node4"><a xlink:href="classpanda_1_1Object.html#aed9f9d3b6abe518dd27957de843b36b5" target="_top" xlink:title="Set address for the branches to the variables of this object. ">
<polygon fill="white" stroke="black" points="536.649,-109.5 536.649,-129.5 670.468,-129.5 670.468,-109.5 536.649,-109.5"/>
<text text-anchor="middle" x="603.558" y="-116.5" font-family="Helvetica,sans-Serif" font-size="10.00">panda::Object::setAddress</text>
</a>
</g>
</g>
<!-- Node3&#45;&gt;Node4 -->
<g id="edge3" class="edge"><title>Node3&#45;&gt;Node4</title>
<path fill="none" stroke="midnightblue" d="M499.546,-119.5C508.418,-119.5 517.552,-119.5 526.543,-119.5"/>
<polygon fill="midnightblue" stroke="midnightblue" points="526.612,-123 536.612,-119.5 526.612,-116 526.612,-123"/>
</g>
<!-- Node3&#45;&gt;Node5 -->
<g id="edge4" class="edge"><title>Node3&#45;&gt;Node5</title>
<path fill="none" stroke="midnightblue" d="M469.821,-129.599C488.028,-134.386 510.378,-140.263 531.51,-145.819"/>
<polygon fill="midnightblue" stroke="midnightblue" points="530.876,-149.271 541.437,-148.429 532.656,-142.501 530.876,-149.271"/>
</g>
<!-- Node3&#45;&gt;Node6 -->
<g id="edge5" class="edge"><title>Node3&#45;&gt;Node6</title>
<path fill="none" stroke="midnightblue" d="M475.487,-109.457C497.846,-104.362 525.191,-98.1301 548.78,-92.7549"/>
<polygon fill="midnightblue" stroke="midnightblue" points="549.661,-96.1438 558.634,-90.5094 548.106,-89.3188 549.661,-96.1438"/>
</g>
<!-- Node7 -->
<g id="node7" class="node"><title>Node7</title>
<g id="a_node7"><a xlink:href="classpanda_1_1utils_1_1BranchName.html#a13958ff4a9d554d2c057c600b4f70412" target="_top" xlink:title="Prepend the branch name with &lt;objName.&gt;. ">
<polygon fill="white" stroke="black" points="864.614,-129.5 864.614,-161.5 995.642,-161.5 995.642,-129.5 864.614,-129.5"/>
<text text-anchor="start" x="872.614" y="-148.5" font-family="Helvetica,sans-Serif" font-size="10.00">panda::utils::BranchName</text>
<text text-anchor="middle" x="930.128" y="-136.5" font-family="Helvetica,sans-Serif" font-size="10.00">::fullName</text>
</a>
</g>
</g>
<!-- Node6&#45;&gt;Node7 -->
<g id="edge6" class="edge"><title>Node6&#45;&gt;Node7</title>
<path fill="none" stroke="midnightblue" d="M645.569,-90.5095C664.413,-94.9916 687.083,-100.219 707.576,-104.5 756.318,-114.682 811.366,-124.876 854.397,-132.552"/>
<polygon fill="midnightblue" stroke="midnightblue" points="854.047,-136.044 864.505,-134.348 855.272,-129.152 854.047,-136.044"/>
</g>
<!-- Node8 -->
<g id="node8" class="node"><title>Node8</title>
<g id="a_node8"><a xlink:href="namespacepanda_1_1utils.html#a01665f786d6a2acedb8f008f3fc9fc84" target="_top" xlink:title="Set status of a branch. ">
<polygon fill="white" stroke="black" points="707.576,-51.5 707.576,-71.5 821.946,-71.5 821.946,-51.5 707.576,-51.5"/>
<text text-anchor="middle" x="764.761" y="-58.5" font-family="Helvetica,sans-Serif" font-size="10.00">panda::utils::setStatus</text>
</a>
</g>
</g>
<!-- Node6&#45;&gt;Node8 -->
<g id="edge7" class="edge"><title>Node6&#45;&gt;Node8</title>
<path fill="none" stroke="midnightblue" d="M665.2,-73.2627C675.722,-72.007 686.712,-70.6954 697.377,-69.4226"/>
<polygon fill="midnightblue" stroke="midnightblue" points="697.962,-72.8777 707.476,-68.2173 697.132,-65.9271 697.962,-72.8777"/>
</g>
<!-- Node9 -->
<g id="node9" class="node"><title>Node9</title>
<g id="a_node9"><a xlink:href="classpanda_1_1utils_1_1BranchName.html#a6cc8a6df7c5b12a0221fd49773cca6a7" target="_top" xlink:title="Is the name included and not vetoed? ">
<polygon fill="white" stroke="black" points="857.946,-90.5 857.946,-110.5 1002.31,-110.5 1002.31,-90.5 857.946,-90.5"/>
<text text-anchor="middle" x="930.128" y="-97.5" font-family="Helvetica,sans-Serif" font-size="10.00">panda::utils::BranchName::in</text>
</a>
</g>
</g>
<!-- Node6&#45;&gt;Node9 -->
<g id="edge12" class="edge"><title>Node6&#45;&gt;Node9</title>
<path fill="none" stroke="midnightblue" d="M665.227,-84.2384C716.721,-87.4114 791.054,-91.9919 847.717,-95.4835"/>
<polygon fill="midnightblue" stroke="midnightblue" points="847.527,-98.9783 857.724,-96.1001 847.958,-91.9916 847.527,-98.9783"/>
</g>
<!-- Node11 -->
<g id="node11" class="node"><title>Node11</title>
<g id="a_node11"><a xlink:href="namespacepanda_1_1utils.html#aafa411773a4b0ee829d99e6e5a0abdcd" target="_top" xlink:title="Check status of a branch. ">
<polygon fill="white" stroke="black" points="866.553,-0.5 866.553,-20.5 993.703,-20.5 993.703,-0.5 866.553,-0.5"/>
<text text-anchor="middle" x="930.128" y="-7.5" font-family="Helvetica,sans-Serif" font-size="10.00">panda::utils::checkStatus</text>
</a>
</g>
</g>
<!-- Node6&#45;&gt;Node11 -->
<g id="edge13" class="edge"><title>Node6&#45;&gt;Node11</title>
<path fill="none" stroke="midnightblue" d="M627.001,-70.3361C647.56,-61.4299 679.044,-48.7993 707.576,-41.5 756.447,-28.9973 812.757,-21.2015 856.379,-16.5548"/>
<polygon fill="midnightblue" stroke="midnightblue" points="856.745,-20.0357 866.332,-15.5255 856.025,-13.0728 856.745,-20.0357"/>
</g>
<!-- Node8&#45;&gt;Node7 -->
<g id="edge10" class="edge"><title>Node8&#45;&gt;Node7</title>
<path fill="none" stroke="midnightblue" d="M779.591,-71.5109C797.169,-83.9212 828.745,-105.181 857.946,-119.5 862.224,-121.598 866.717,-123.623 871.278,-125.553"/>
<polygon fill="midnightblue" stroke="midnightblue" points="870.105,-128.854 880.687,-129.376 872.74,-122.369 870.105,-128.854"/>
</g>
<!-- Node8&#45;&gt;Node9 -->
<g id="edge8" class="edge"><title>Node8&#45;&gt;Node9</title>
<path fill="none" stroke="midnightblue" d="M807.832,-71.5435C828.984,-76.593 854.812,-82.7587 877.19,-88.1009"/>
<polygon fill="midnightblue" stroke="midnightblue" points="876.66,-91.5728 887.2,-90.4906 878.286,-84.7641 876.66,-91.5728"/>
</g>
<!-- Node10 -->
<g id="node10" class="node"><title>Node10</title>
<g id="a_node10"><a xlink:href="classpanda_1_1utils_1_1BranchName.html#ae3332329bf2afae5ed8e7c35e5d77ffa" target="_top" xlink:title="Is the name included and vetoed? ">
<polygon fill="white" stroke="black" points="864.614,-39.5 864.614,-71.5 995.642,-71.5 995.642,-39.5 864.614,-39.5"/>
<text text-anchor="start" x="872.614" y="-58.5" font-family="Helvetica,sans-Serif" font-size="10.00">panda::utils::BranchName</text>
<text text-anchor="middle" x="930.128" y="-46.5" font-family="Helvetica,sans-Serif" font-size="10.00">::vetoed</text>
</a>
</g>
</g>
<!-- Node8&#45;&gt;Node10 -->
<g id="edge9" class="edge"><title>Node8&#45;&gt;Node10</title>
<path fill="none" stroke="midnightblue" d="M821.983,-59.4351C832.334,-59.055 843.292,-58.6525 854.094,-58.2558"/>
<polygon fill="midnightblue" stroke="midnightblue" points="854.513,-61.7429 864.378,-57.8781 854.256,-54.7476 854.513,-61.7429"/>
</g>
<!-- Node8&#45;&gt;Node11 -->
<g id="edge11" class="edge"><title>Node8&#45;&gt;Node11</title>
<path fill="none" stroke="midnightblue" d="M793.018,-51.4496C811.278,-44.8624 835.918,-36.2532 857.946,-29.5 864.924,-27.3607 872.328,-25.2311 879.621,-23.2131"/>
<polygon fill="midnightblue" stroke="midnightblue" points="880.717,-26.5424 889.447,-20.5402 878.879,-19.7878 880.717,-26.5424"/>
</g>
</g>
</svg>
        <g id="navigator" transform="translate(0 0)" fill="#404254">
                <rect fill="#f2f5e9" fill-opacity="0.5" stroke="#606060" stroke-width=".5" x="0" y="0" width="60" height="60"/>
                <use id="zoomplus" xlink:href="#zoomPlus" x="17" y="9" onmousedown="handleZoom(evt,'in')"/>
                <use id="zoomminus" xlink:href="#zoomMin" x="42" y="9" onmousedown="handleZoom(evt,'out')"/>
                <use id="reset" xlink:href="#resetDef" x="30" y="36" onmousedown="handleReset()"/>
                <g id="arrowUp" xlink:href="#dirArrow" transform="translate(30 24)" onmousedown="handlePan(0,-1)">
                  <use xlink:href="#rim" fill="#404040">
                        <set attributeName="fill" to="#808080" begin="arrowUp.mouseover" end="arrowUp.mouseout"/>
                  </use>
                  <path fill="none" stroke="white" stroke-width="1.5" d="M0,-3.0v7 M-2.5,-0.5L0,-3.0L2.5,-0.5"/>
                </g>
                <g id="arrowRight" xlink:href="#dirArrow" transform="rotate(90) translate(36 -43)" onmousedown="handlePan(1,0)">
                  <use xlink:href="#rim" fill="#404040">
                        <set attributeName="fill" to="#808080" begin="arrowRight.mouseover" end="arrowRight.mouseout"/>
                  </use>
                  <path fill="none" stroke="white" stroke-width="1.5" d="M0,-3.0v7 M-2.5,-0.5L0,-3.0L2.5,-0.5"/>
                </g>
                <g id="arrowDown" xlink:href="#dirArrow" transform="rotate(180) translate(-30 -48)" onmousedown="handlePan(0,1)">
                  <use xlink:href="#rim" fill="#404040">
                        <set attributeName="fill" to="#808080" begin="arrowDown.mouseover" end="arrowDown.mouseout"/>
                  </use>
                  <path fill="none" stroke="white" stroke-width="1.5" d="M0,-3.0v7 M-2.5,-0.5L0,-3.0L2.5,-0.5"/>
                </g>
                <g id="arrowLeft" xlink:href="#dirArrow" transform="rotate(270) translate(-36 17)" onmousedown="handlePan(-1,0)">
                  <use xlink:href="#rim" fill="#404040">
                        <set attributeName="fill" to="#808080" begin="arrowLeft.mouseover" end="arrowLeft.mouseout"/>
                  </use>
                  <path fill="none" stroke="white" stroke-width="1.5" d="M0,-3.0v7 M-2.5,-0.5L0,-3.0L2.5,-0.5"/>
                </g>
        </g>
        <svg viewBox="0 0 15 15" width="100%" height="30px" preserveAspectRatio="xMaxYMin meet">
         <g id="arrow_out" transform="scale(0.3 0.3)">
          <a xlink:href="classpanda_1_1MicroJet_ace34e537033194800fb766bd9cb18025_cgraph_org.svg" target="_base">
           <rect id="button" ry="5" rx="5" y="6" x="6" height="38" width="38"
                fill="#f2f5e9" fill-opacity="0.5" stroke="#606060" stroke-width="1.0"/>
           <path id="arrow"
             d="M 11.500037,31.436501 C 11.940474,20.09759 22.043105,11.32322 32.158766,21.979434 L 37.068811,17.246167 C 37.068811,17.246167 37.088388,32 37.088388,32 L 22.160133,31.978069 C 22.160133,31.978069 26.997745,27.140456 26.997745,27.140456 C 18.528582,18.264221 13.291696,25.230495 11.500037,31.436501 z"
             style="fill:#404040;"/>
          </a>
         </g>
        </svg>
</svg>
