<?xml version="1.0" encoding="UTF-8" standalone="no"?>
<!DOCTYPE svg PUBLIC "-//W3C//DTD SVG 1.1//EN"
 "http://www.w3.org/Graphics/SVG/1.1/DTD/svg11.dtd">
<!-- Generated by graphviz version 2.38.0 (20140413.2041)
 -->
<!-- Title: panda::GenJet::destructor Pages: 1 -->
<svg width="651pt" height="41pt"
 viewBox="0.00 0.00 650.69 41.00" xmlns="http://www.w3.org/2000/svg" xmlns:xlink="http://www.w3.org/1999/xlink">
<g id="graph0" class="graph" transform="scale(1 1) rotate(0) translate(4 37)">
<title>panda::GenJet::destructor</title>
<polygon fill="white" stroke="none" points="-4,4 -4,-37 646.686,-37 646.686,4 -4,4"/>
<!-- Node1 -->
<g id="node1" class="node"><title>Node1</title>
<polygon fill="#bfbfbf" stroke="black" points="-2.84217e-14,-6.5 -2.84217e-14,-26.5 131.598,-26.5 131.598,-6.5 -2.84217e-14,-6.5"/>
<text text-anchor="middle" x="65.799" y="-13.5" font-family="Helvetica,sans-Serif" font-size="10.00">panda::GenJet::destructor</text>
</g>
<!-- Node2 -->
<g id="node2" class="node"><title>Node2</title>
<g id="a_node2"><a xlink:href="classpanda_1_1ParticleM.html#abef15d28e6e33ee92c0b318bd41af2ca" target="_top" xlink:title="Destructor implementation. ">
<polygon fill="white" stroke="black" points="167.598,-6.5 167.598,-26.5 308.623,-26.5 308.623,-6.5 167.598,-6.5"/>
<text text-anchor="middle" x="238.11" y="-13.5" font-family="Helvetica,sans-Serif" font-size="10.00">panda::ParticleM::destructor</text>
</a>
</g>
</g>
<!-- Node1&#45;&gt;Node2 -->
<g id="edge1" class="edge"><title>Node1&#45;&gt;Node2</title>
<path fill="none" stroke="midnightblue" d="M131.672,-16.5C140.118,-16.5 148.846,-16.5 157.498,-16.5"/>
<polygon fill="midnightblue" stroke="midnightblue" points="157.597,-20.0001 167.597,-16.5 157.597,-13.0001 157.597,-20.0001"/>
</g>
<!-- Node3 -->
<g id="node3" class="node"><title>Node3</title>
<g id="a_node3"><a xlink:href="classpanda_1_1Particle.html#ad1a5f606b804ac2ec5d7e391aba6bda6" target="_top" xlink:title="Destructor implementation. ">
<polygon fill="white" stroke="black" points="344.623,-6.5 344.623,-26.5 477.319,-26.5 477.319,-6.5 344.623,-6.5"/>
<text text-anchor="middle" x="410.971" y="-13.5" font-family="Helvetica,sans-Serif" font-size="10.00">panda::Particle::destructor</text>
</a>
</g>
</g>
<!-- Node2&#45;&gt;Node3 -->
<g id="edge2" class="edge"><title>Node2&#45;&gt;Node3</title>
<path fill="none" stroke="midnightblue" d="M309.099,-16.5C317.42,-16.5 325.943,-16.5 334.338,-16.5"/>
<polygon fill="midnightblue" stroke="midnightblue" points="334.493,-20.0001 344.493,-16.5 334.493,-13.0001 334.493,-20.0001"/>
</g>
<!-- Node4 -->
<g id="node4" class="node"><title>Node4</title>
<g id="a_node4"><a xlink:href="classpanda_1_1ContainerElement.html#aa1c71695dae992e82bf91f354aa8480c" target="_top" xlink:title="Destructor implementation. ">
<polygon fill="white" stroke="black" points="513.319,-0.5 513.319,-32.5 642.686,-32.5 642.686,-0.5 513.319,-0.5"/>
<text text-anchor="start" x="521.319" y="-19.5" font-family="Helvetica,sans-Serif" font-size="10.00">panda::ContainerElement</text>
<text text-anchor="middle" x="578.002" y="-7.5" font-family="Helvetica,sans-Serif" font-size="10.00">::destructor</text>
</a>
</g>
</g>
<!-- Node3&#45;&gt;Node4 -->
<g id="edge3" class="edge"><title>Node3&#45;&gt;Node4</title>
<path fill="none" stroke="midnightblue" d="M477.67,-16.5C485.978,-16.5 494.522,-16.5 502.949,-16.5"/>
<polygon fill="midnightblue" stroke="midnightblue" points="503.144,-20.0001 513.144,-16.5 503.143,-13.0001 503.144,-20.0001"/>
</g>
</g>
</svg>
