<?xml version="1.0" encoding="UTF-8" standalone="no"?>
<!DOCTYPE svg PUBLIC "-//W3C//DTD SVG 1.1//EN"
 "http://www.w3.org/Graphics/SVG/1.1/DTD/svg11.dtd">
<!-- Generated by graphviz version 2.38.0 (20140413.2041)
 -->
<!-- Title: panda.branch.Branch.typename Pages: 1 -->
<!--zoomable 156 -->
<svg id="main" version="1.1" xmlns="http://www.w3.org/2000/svg" xmlns:xlink="http://www.w3.org/1999/xlink" xml:space="preserve" onload="init(evt)">
<style type="text/css"><![CDATA[
.edge:hover path { stroke: red; }
.edge:hover polygon { stroke: red; fill: red; }
]]></style>
<script type="text/javascript"><![CDATA[
var edges = document.getElementsByTagName('g');
if (edges && edges.length) {
  for (var i=0;i<edges.length;i++) {
    if (edges[i].id.substr(0,4)=='edge') {
      edges[i].setAttribute('class','edge');
    }
  }
}
]]></script>
        <defs>
                <circle id="rim" cx="0" cy="0" r="7"/>
                <circle id="rim2" cx="0" cy="0" r="3.5"/>
                <g id="zoomPlus">
                        <use xlink:href="#rim" fill="#404040">
                                <set attributeName="fill" to="#808080" begin="zoomplus.mouseover" end="zoomplus.mouseout"/>
                        </use>
                        <path d="M-4,0h8M0,-4v8" fill="none" stroke="white" stroke-width="1.5" pointer-events="none"/>
                </g>
                <g id="zoomMin">
                        <use xlink:href="#rim" fill="#404040">
                                <set attributeName="fill" to="#808080" begin="zoomminus.mouseover" end="zoomminus.mouseout"/>
                        </use>
                        <path d="M-4,0h8" fill="none" stroke="white" stroke-width="1.5" pointer-events="none"/>
                </g>
                <g id="dirArrow">
                        <path fill="none" stroke="white" stroke-width="1.5" d="M0,-3.0v7 M-2.5,-0.5L0,-3.0L2.5,-0.5"/>
                </g>
               <g id="resetDef">
                       <use xlink:href="#rim2" fill="#404040">
                               <set attributeName="fill" to="#808080" begin="reset.mouseover" end="reset.mouseout"/>
                       </use>
               </g>
        </defs>

<script type="text/javascript">
var viewWidth = 560;
var viewHeight = 156;
var sectionId = 'dynsection-5';
</script>
<script xlink:href="svgpan.js"/>
<svg id="graph" class="graph">
<g id="viewport">
<title>panda.branch.Branch.typename</title>
<polygon fill="white" stroke="none" points="-4,4 -4,-152 556.349,-152 556.349,4 -4,4"/>
<!-- Node1 -->
<g id="node1" class="node"><title>Node1</title>
<polygon fill="#bfbfbf" stroke="black" points="5.68434e-14,-82.5 5.68434e-14,-102.5 158.275,-102.5 158.275,-82.5 5.68434e-14,-82.5"/>
<text text-anchor="middle" x="79.1375" y="-89.5" font-family="Helvetica,sans-Serif" font-size="10.00">panda.branch.Branch.typename</text>
</g>
<!-- Node2 -->
<g id="node2" class="node"><title>Node2</title>
<g id="a_node2"><a xlink:href="classpanda_1_1branch_1_1Branch.html#a11ce0de77040f41593ece6dce3137489" target="_top" xlink:title="panda.branch.Branch.write_decl">
<polygon fill="white" stroke="black" points="194.275,-127.5 194.275,-147.5 353.648,-147.5 353.648,-127.5 194.275,-127.5"/>
<text text-anchor="middle" x="273.962" y="-134.5" font-family="Helvetica,sans-Serif" font-size="10.00">panda.branch.Branch.write_decl</text>
</a>
</g>
</g>
<!-- Node1&#45;&gt;Node2 -->
<g id="edge1" class="edge"><title>Node1&#45;&gt;Node2</title>
<path fill="none" stroke="midnightblue" d="M133.409,-104.932C163.774,-112.019 201.332,-120.784 229.832,-127.435"/>
<polygon fill="midnightblue" stroke="midnightblue" points="133.945,-101.463 123.411,-102.599 132.354,-108.28 133.945,-101.463"/>
</g>
<!-- Node3 -->
<g id="node3" class="node"><title>Node3</title>
<g id="a_node3"><a xlink:href="classpanda_1_1branch_1_1Branch.html#ad4d6b4a6a42391cd7db05fde7441c5b3" target="_top" xlink:title="panda.branch.Branch.write\l_allocate">
<polygon fill="white" stroke="black" points="206.223,-76.5 206.223,-108.5 341.7,-108.5 341.7,-76.5 206.223,-76.5"/>
<text text-anchor="start" x="214.223" y="-95.5" font-family="Helvetica,sans-Serif" font-size="10.00">panda.branch.Branch.write</text>
<text text-anchor="middle" x="273.962" y="-83.5" font-family="Helvetica,sans-Serif" font-size="10.00">_allocate</text>
</a>
</g>
</g>
<!-- Node1&#45;&gt;Node3 -->
<g id="edge2" class="edge"><title>Node1&#45;&gt;Node3</title>
<path fill="none" stroke="midnightblue" d="M168.404,-92.5C181.09,-92.5 193.965,-92.5 206.142,-92.5"/>
<polygon fill="midnightblue" stroke="midnightblue" points="168.288,-89.0001 158.288,-92.5 168.288,-96.0001 168.288,-89.0001"/>
</g>
<!-- Node4 -->
<g id="node4" class="node"><title>Node4</title>
<g id="a_node4"><a xlink:href="classpanda_1_1branch_1_1Branch.html#a9dd12cb55cc7f97e717290693e7fb371" target="_top" xlink:title="panda.branch.Branch.write\l_assign">
<polygon fill="white" stroke="black" points="206.223,-25.5 206.223,-57.5 341.7,-57.5 341.7,-25.5 206.223,-25.5"/>
<text text-anchor="start" x="214.223" y="-44.5" font-family="Helvetica,sans-Serif" font-size="10.00">panda.branch.Branch.write</text>
<text text-anchor="middle" x="273.962" y="-32.5" font-family="Helvetica,sans-Serif" font-size="10.00">_assign</text>
</a>
</g>
</g>
<!-- Node1&#45;&gt;Node4 -->
<g id="edge3" class="edge"><title>Node1&#45;&gt;Node4</title>
<path fill="none" stroke="midnightblue" d="M128.02,-79.8356C153.467,-73.1052 185.015,-64.761 212.174,-57.5777"/>
<polygon fill="midnightblue" stroke="midnightblue" points="127.006,-76.4833 118.233,-82.424 128.796,-83.2506 127.006,-76.4833"/>
</g>
<!-- Node5 -->
<g id="node5" class="node"><title>Node5</title>
<g id="a_node5"><a xlink:href="classpanda_1_1refbranch_1_1RefBranch.html#aab6abb2a47955638050a1e0f2798f5f6" target="_top" xlink:title="panda.refbranch.RefBranch.write\l_copy_ctor">
<polygon fill="white" stroke="black" points="389.648,-51.5 389.648,-83.5 552.349,-83.5 552.349,-51.5 389.648,-51.5"/>
<text text-anchor="start" x="397.648" y="-70.5" font-family="Helvetica,sans-Serif" font-size="10.00">panda.refbranch.RefBranch.write</text>
<text text-anchor="middle" x="470.998" y="-58.5" font-family="Helvetica,sans-Serif" font-size="10.00">_copy_ctor</text>
</a>
</g>
</g>
<!-- Node4&#45;&gt;Node5 -->
<g id="edge4" class="edge"><title>Node4&#45;&gt;Node5</title>
<path fill="none" stroke="midnightblue" d="M352.012,-51.7714C364.306,-53.4103 377.055,-55.1099 389.428,-56.7594"/>
<polygon fill="midnightblue" stroke="midnightblue" points="352.184,-48.2635 341.809,-50.4113 351.259,-55.2021 352.184,-48.2635"/>
</g>
<!-- Node6 -->
<g id="node6" class="node"><title>Node6</title>
<g id="a_node6"><a xlink:href="classpanda_1_1refvbranch_1_1RefVectorBranch.html#a4a579a4942e4357945946c354ff21b45" target="_top" xlink:title="panda.refvbranch.RefVector\lBranch.write_copy_ctor">
<polygon fill="white" stroke="black" points="400.48,-0.5 400.48,-32.5 541.517,-32.5 541.517,-0.5 400.48,-0.5"/>
<text text-anchor="start" x="408.48" y="-19.5" font-family="Helvetica,sans-Serif" font-size="10.00">panda.refvbranch.RefVector</text>
<text text-anchor="middle" x="470.998" y="-7.5" font-family="Helvetica,sans-Serif" font-size="10.00">Branch.write_copy_ctor</text>
</a>
</g>
</g>
<!-- Node4&#45;&gt;Node6 -->
<g id="edge5" class="edge"><title>Node4&#45;&gt;Node6</title>
<path fill="none" stroke="midnightblue" d="M352.12,-31.6097C368.005,-29.5736 384.644,-27.4408 400.248,-25.4407"/>
<polygon fill="midnightblue" stroke="midnightblue" points="351.283,-28.1883 341.809,-32.9314 352.173,-35.1315 351.283,-28.1883"/>
</g>
</g>
</svg>
        <g id="navigator" transform="translate(0 0)" fill="#404254">
                <rect fill="#f2f5e9" fill-opacity="0.5" stroke="#606060" stroke-width=".5" x="0" y="0" width="60" height="60"/>
                <use id="zoomplus" xlink:href="#zoomPlus" x="17" y="9" onmousedown="handleZoom(evt,'in')"/>
                <use id="zoomminus" xlink:href="#zoomMin" x="42" y="9" onmousedown="handleZoom(evt,'out')"/>
                <use id="reset" xlink:href="#resetDef" x="30" y="36" onmousedown="handleReset()"/>
                <g id="arrowUp" xlink:href="#dirArrow" transform="translate(30 24)" onmousedown="handlePan(0,-1)">
                  <use xlink:href="#rim" fill="#404040">
                        <set attributeName="fill" to="#808080" begin="arrowUp.mouseover" end="arrowUp.mouseout"/>
                  </use>
                  <path fill="none" stroke="white" stroke-width="1.5" d="M0,-3.0v7 M-2.5,-0.5L0,-3.0L2.5,-0.5"/>
                </g>
                <g id="arrowRight" xlink:href="#dirArrow" transform="rotate(90) translate(36 -43)" onmousedown="handlePan(1,0)">
                  <use xlink:href="#rim" fill="#404040">
                        <set attributeName="fill" to="#808080" begin="arrowRight.mouseover" end="arrowRight.mouseout"/>
                  </use>
                  <path fill="none" stroke="white" stroke-width="1.5" d="M0,-3.0v7 M-2.5,-0.5L0,-3.0L2.5,-0.5"/>
                </g>
                <g id="arrowDown" xlink:href="#dirArrow" transform="rotate(180) translate(-30 -48)" onmousedown="handlePan(0,1)">
                  <use xlink:href="#rim" fill="#404040">
                        <set attributeName="fill" to="#808080" begin="arrowDown.mouseover" end="arrowDown.mouseout"/>
                  </use>
                  <path fill="none" stroke="white" stroke-width="1.5" d="M0,-3.0v7 M-2.5,-0.5L0,-3.0L2.5,-0.5"/>
                </g>
                <g id="arrowLeft" xlink:href="#dirArrow" transform="rotate(270) translate(-36 17)" onmousedown="handlePan(-1,0)">
                  <use xlink:href="#rim" fill="#404040">
                        <set attributeName="fill" to="#808080" begin="arrowLeft.mouseover" end="arrowLeft.mouseout"/>
                  </use>
                  <path fill="none" stroke="white" stroke-width="1.5" d="M0,-3.0v7 M-2.5,-0.5L0,-3.0L2.5,-0.5"/>
                </g>
        </g>
        <svg viewBox="0 0 15 15" width="100%" height="30px" preserveAspectRatio="xMaxYMin meet">
         <g id="arrow_out" transform="scale(0.3 0.3)">
          <a xlink:href="classpanda_1_1branch_1_1Branch_af8e3cef274f78862dca4c835ebd830d0_icgraph_org.svg" target="_base">
           <rect id="button" ry="5" rx="5" y="6" x="6" height="38" width="38"
                fill="#f2f5e9" fill-opacity="0.5" stroke="#606060" stroke-width="1.0"/>
           <path id="arrow"
             d="M 11.500037,31.436501 C 11.940474,20.09759 22.043105,11.32322 32.158766,21.979434 L 37.068811,17.246167 C 37.068811,17.246167 37.088388,32 37.088388,32 L 22.160133,31.978069 C 22.160133,31.978069 26.997745,27.140456 26.997745,27.140456 C 18.528582,18.264221 13.291696,25.230495 11.500037,31.436501 z"
             style="fill:#404040;"/>
          </a>
         </g>
        </svg>
</svg>
