<?xml version="1.0" encoding="UTF-8" standalone="no"?>
<!DOCTYPE svg PUBLIC "-//W3C//DTD SVG 1.1//EN"
 "http://www.w3.org/Graphics/SVG/1.1/DTD/svg11.dtd">
<!-- Generated by graphviz version 2.38.0 (20140413.2041)
 -->
<!-- Title: panda::Lepton::setAddress Pages: 1 -->
<svg width="321pt" height="68pt"
 viewBox="0.00 0.00 321.09 68.00" xmlns="http://www.w3.org/2000/svg" xmlns:xlink="http://www.w3.org/1999/xlink">
<g id="graph0" class="graph" transform="scale(1 1) rotate(0) translate(4 64)">
<title>panda::Lepton::setAddress</title>
<polygon fill="white" stroke="none" points="-4,4 -4,-64 317.095,-64 317.095,4 -4,4"/>
<!-- Node1 -->
<g id="node1" class="node"><title>Node1</title>
<polygon fill="#bfbfbf" stroke="black" points="0,-19.5 0,-39.5 135.498,-39.5 135.498,-19.5 0,-19.5"/>
<text text-anchor="middle" x="67.749" y="-26.5" font-family="Helvetica,sans-Serif" font-size="10.00">panda::Lepton::setAddress</text>
</g>
<!-- Node2 -->
<g id="node2" class="node"><title>Node2</title>
<g id="a_node2"><a xlink:href="classpanda_1_1Electron.html#a26659ab11a463332edbb15d82e2e49c1" target="_top" xlink:title="Set address for the branches to the variables of this object. ">
<polygon fill="white" stroke="black" points="171.498,-39.5 171.498,-59.5 313.095,-59.5 313.095,-39.5 171.498,-39.5"/>
<text text-anchor="middle" x="242.296" y="-46.5" font-family="Helvetica,sans-Serif" font-size="10.00">panda::Electron::setAddress</text>
</a>
</g>
</g>
<!-- Node1&#45;&gt;Node2 -->
<g id="edge1" class="edge"><title>Node1&#45;&gt;Node2</title>
<path fill="none" stroke="midnightblue" d="M146.148,-38.4713C154.569,-39.4474 163.104,-40.4367 171.428,-41.4015"/>
<polygon fill="midnightblue" stroke="midnightblue" points="146.291,-34.9645 135.954,-37.2898 145.485,-41.918 146.291,-34.9645"/>
</g>
<!-- Node3 -->
<g id="node3" class="node"><title>Node3</title>
<g id="a_node3"><a xlink:href="classpanda_1_1Muon.html#a58468a794c9beb19603e59a1a9400514" target="_top" xlink:title="Set address for the branches to the variables of this object. ">
<polygon fill="white" stroke="black" points="177.332,-0.5 177.332,-20.5 307.261,-20.5 307.261,-0.5 177.332,-0.5"/>
<text text-anchor="middle" x="242.296" y="-7.5" font-family="Helvetica,sans-Serif" font-size="10.00">panda::Muon::setAddress</text>
</a>
</g>
</g>
<!-- Node1&#45;&gt;Node3 -->
<g id="edge2" class="edge"><title>Node1&#45;&gt;Node3</title>
<path fill="none" stroke="midnightblue" d="M146.204,-20.971C156.533,-19.8337 167.033,-18.6775 177.102,-17.5688"/>
<polygon fill="midnightblue" stroke="midnightblue" points="145.511,-17.5261 135.954,-22.0997 146.277,-24.4841 145.511,-17.5261"/>
</g>
</g>
</svg>
