<?xml version="1.0" encoding="UTF-8" standalone="no"?>
<!DOCTYPE svg PUBLIC "-//W3C//DTD SVG 1.1//EN"
 "http://www.w3.org/Graphics/SVG/1.1/DTD/svg11.dtd">
<!-- Generated by graphviz version 2.38.0 (20140413.2041)
 -->
<!-- Title: panda::Recoil::setStatus Pages: 1 -->
<svg width="474pt" height="170pt"
 viewBox="0.00 0.00 474.22 170.00" xmlns="http://www.w3.org/2000/svg" xmlns:xlink="http://www.w3.org/1999/xlink">
<g id="graph0" class="graph" transform="scale(1 1) rotate(0) translate(4 166)">
<title>panda::Recoil::setStatus</title>
<polygon fill="white" stroke="none" points="-4,4 -4,-166 470.222,-166 470.222,4 -4,4"/>
<!-- Node1 -->
<g id="node1" class="node"><title>Node1</title>
<polygon fill="#bfbfbf" stroke="black" points="1.42109e-14,-89.5 1.42109e-14,-109.5 124.369,-109.5 124.369,-89.5 1.42109e-14,-89.5"/>
<text text-anchor="middle" x="62.1845" y="-96.5" font-family="Helvetica,sans-Serif" font-size="10.00">panda::Recoil::setStatus</text>
</g>
<!-- Node2 -->
<g id="node2" class="node"><title>Node2</title>
<g id="a_node2"><a xlink:href="classpanda_1_1Object.html#a282e820b1ad431db22ca4d4dd20b55e0" target="_top" xlink:title="Set status of branches with names that correspond to the variables of this object. ">
<polygon fill="white" stroke="black" points="160.369,-109.5 160.369,-129.5 285.858,-129.5 285.858,-109.5 160.369,-109.5"/>
<text text-anchor="middle" x="223.113" y="-116.5" font-family="Helvetica,sans-Serif" font-size="10.00">panda::Object::setStatus</text>
</a>
</g>
</g>
<!-- Node1&#45;&gt;Node2 -->
<g id="edge1" class="edge"><title>Node1&#45;&gt;Node2</title>
<path fill="none" stroke="midnightblue" d="M124.631,-107.233C133.043,-108.291 141.741,-109.386 150.318,-110.465"/>
<polygon fill="midnightblue" stroke="midnightblue" points="149.948,-113.946 160.307,-111.722 150.822,-107.001 149.948,-113.946"/>
</g>
<!-- Node3 -->
<g id="node3" class="node"><title>Node3</title>
<g id="a_node3"><a xlink:href="namespacepanda_1_1utils.html#a01665f786d6a2acedb8f008f3fc9fc84" target="_top" xlink:title="Set status of a branch. ">
<polygon fill="white" stroke="black" points="165.928,-70.5 165.928,-90.5 280.298,-90.5 280.298,-70.5 165.928,-70.5"/>
<text text-anchor="middle" x="223.113" y="-77.5" font-family="Helvetica,sans-Serif" font-size="10.00">panda::utils::setStatus</text>
</a>
</g>
</g>
<!-- Node1&#45;&gt;Node3 -->
<g id="edge2" class="edge"><title>Node1&#45;&gt;Node3</title>
<path fill="none" stroke="midnightblue" d="M124.631,-92.1541C134.785,-90.9402 145.354,-89.6767 155.625,-88.4487"/>
<polygon fill="midnightblue" stroke="midnightblue" points="156.257,-91.8982 165.771,-87.2358 155.426,-84.9477 156.257,-91.8982"/>
</g>
<!-- Node4 -->
<g id="node4" class="node"><title>Node4</title>
<g id="a_node4"><a xlink:href="classpanda_1_1utils_1_1BranchName.html#a6cc8a6df7c5b12a0221fd49773cca6a7" target="_top" xlink:title="Is the name included and not vetoed? ">
<polygon fill="white" stroke="black" points="321.858,-141.5 321.858,-161.5 466.222,-161.5 466.222,-141.5 321.858,-141.5"/>
<text text-anchor="middle" x="394.04" y="-148.5" font-family="Helvetica,sans-Serif" font-size="10.00">panda::utils::BranchName::in</text>
</a>
</g>
</g>
<!-- Node3&#45;&gt;Node4 -->
<g id="edge3" class="edge"><title>Node3&#45;&gt;Node4</title>
<path fill="none" stroke="midnightblue" d="M263.367,-90.5109C271.074,-93.2168 278.915,-96.5252 285.858,-100.5 304.436,-111.136 303.007,-122.355 321.858,-132.5 325.596,-134.512 329.561,-136.321 333.631,-137.947"/>
<polygon fill="midnightblue" stroke="midnightblue" points="332.669,-141.32 343.263,-141.416 335.041,-134.735 332.669,-141.32"/>
</g>
<!-- Node5 -->
<g id="node5" class="node"><title>Node5</title>
<g id="a_node5"><a xlink:href="classpanda_1_1utils_1_1BranchName.html#ae3332329bf2afae5ed8e7c35e5d77ffa" target="_top" xlink:title="Is the name included and vetoed? ">
<polygon fill="white" stroke="black" points="328.526,-90.5 328.526,-122.5 459.554,-122.5 459.554,-90.5 328.526,-90.5"/>
<text text-anchor="start" x="336.526" y="-109.5" font-family="Helvetica,sans-Serif" font-size="10.00">panda::utils::BranchName</text>
<text text-anchor="middle" x="394.04" y="-97.5" font-family="Helvetica,sans-Serif" font-size="10.00">::vetoed</text>
</a>
</g>
</g>
<!-- Node3&#45;&gt;Node5 -->
<g id="edge4" class="edge"><title>Node3&#45;&gt;Node5</title>
<path fill="none" stroke="midnightblue" d="M280.364,-89.1576C292.481,-91.0226 305.473,-93.0223 318.173,-94.9769"/>
<polygon fill="midnightblue" stroke="midnightblue" points="317.856,-98.4693 328.272,-96.5314 318.921,-91.5508 317.856,-98.4693"/>
</g>
<!-- Node6 -->
<g id="node6" class="node"><title>Node6</title>
<g id="a_node6"><a xlink:href="classpanda_1_1utils_1_1BranchName.html#a13958ff4a9d554d2c057c600b4f70412" target="_top" xlink:title="Prepend the branch name with &lt;objName.&gt;. ">
<polygon fill="white" stroke="black" points="328.526,-39.5 328.526,-71.5 459.554,-71.5 459.554,-39.5 328.526,-39.5"/>
<text text-anchor="start" x="336.526" y="-58.5" font-family="Helvetica,sans-Serif" font-size="10.00">panda::utils::BranchName</text>
<text text-anchor="middle" x="394.04" y="-46.5" font-family="Helvetica,sans-Serif" font-size="10.00">::fullName</text>
</a>
</g>
</g>
<!-- Node3&#45;&gt;Node6 -->
<g id="edge5" class="edge"><title>Node3&#45;&gt;Node6</title>
<path fill="none" stroke="midnightblue" d="M280.364,-72.1754C292.481,-70.3821 305.473,-68.4593 318.173,-66.5799"/>
<polygon fill="midnightblue" stroke="midnightblue" points="318.892,-70.0116 328.272,-65.0852 317.867,-63.087 318.892,-70.0116"/>
</g>
<!-- Node7 -->
<g id="node7" class="node"><title>Node7</title>
<g id="a_node7"><a xlink:href="namespacepanda_1_1utils.html#aafa411773a4b0ee829d99e6e5a0abdcd" target="_top" xlink:title="Check status of a branch. ">
<polygon fill="white" stroke="black" points="330.465,-0.5 330.465,-20.5 457.615,-20.5 457.615,-0.5 330.465,-0.5"/>
<text text-anchor="middle" x="394.04" y="-7.5" font-family="Helvetica,sans-Serif" font-size="10.00">panda::utils::checkStatus</text>
</a>
</g>
</g>
<!-- Node3&#45;&gt;Node7 -->
<g id="edge6" class="edge"><title>Node3&#45;&gt;Node7</title>
<path fill="none" stroke="midnightblue" d="M241.285,-70.3866C260.434,-59.4267 292.574,-41.9718 321.858,-30.5 328.282,-27.9833 335.147,-25.6418 341.984,-23.5128"/>
<polygon fill="midnightblue" stroke="midnightblue" points="343.342,-26.7602 351.926,-20.55 341.343,-20.0517 343.342,-26.7602"/>
</g>
</g>
</svg>
