<?xml version="1.0" encoding="UTF-8" standalone="no"?>
<!DOCTYPE svg PUBLIC "-//W3C//DTD SVG 1.1//EN"
 "http://www.w3.org/Graphics/SVG/1.1/DTD/svg11.dtd">
<!-- Generated by graphviz version 2.38.0 (20140413.2041)
 -->
<!-- Title: panda.branch.Branch.write_allocate Pages: 1 -->
<svg width="342pt" height="68pt"
 viewBox="0.00 0.00 341.64 68.00" xmlns="http://www.w3.org/2000/svg" xmlns:xlink="http://www.w3.org/1999/xlink">
<g id="graph0" class="graph" transform="scale(1 1) rotate(0) translate(4 64)">
<title>panda.branch.Branch.write_allocate</title>
<polygon fill="white" stroke="none" points="-4,4 -4,-64 337.639,-64 337.639,4 -4,4"/>
<!-- Node1 -->
<g id="node1" class="node"><title>Node1</title>
<polygon fill="#bfbfbf" stroke="black" points="-1.42109e-14,-13.5 -1.42109e-14,-45.5 135.477,-45.5 135.477,-13.5 -1.42109e-14,-13.5"/>
<text text-anchor="start" x="8" y="-32.5" font-family="Helvetica,sans-Serif" font-size="10.00">panda.branch.Branch.write</text>
<text text-anchor="middle" x="67.7385" y="-20.5" font-family="Helvetica,sans-Serif" font-size="10.00">_allocate</text>
</g>
<!-- Node2 -->
<g id="node2" class="node"><title>Node2</title>
<g id="a_node2"><a xlink:href="classpanda_1_1branch_1_1Branch.html#af8e3cef274f78862dca4c835ebd830d0" target="_top" xlink:title="panda.branch.Branch.typename">
<polygon fill="white" stroke="black" points="173.421,-39.5 173.421,-59.5 331.695,-59.5 331.695,-39.5 173.421,-39.5"/>
<text text-anchor="middle" x="252.558" y="-46.5" font-family="Helvetica,sans-Serif" font-size="10.00">panda.branch.Branch.typename</text>
</a>
</g>
</g>
<!-- Node1&#45;&gt;Node2 -->
<g id="edge1" class="edge"><title>Node1&#45;&gt;Node2</title>
<path fill="none" stroke="midnightblue" d="M135.517,-36.8054C144.505,-37.7887 153.838,-38.8096 163.129,-39.8261"/>
<polygon fill="midnightblue" stroke="midnightblue" points="162.855,-43.3169 173.177,-40.9253 163.617,-36.3584 162.855,-43.3169"/>
</g>
<!-- Node3 -->
<g id="node3" class="node"><title>Node3</title>
<g id="a_node3"><a xlink:href="classpanda_1_1branch_1_1Branch.html#aeac8bec76fc5d1d244500924e9582011" target="_top" xlink:title="panda.branch.Branch.arrdef_text">
<polygon fill="white" stroke="black" points="171.477,-0.5 171.477,-20.5 333.639,-20.5 333.639,-0.5 171.477,-0.5"/>
<text text-anchor="middle" x="252.558" y="-7.5" font-family="Helvetica,sans-Serif" font-size="10.00">panda.branch.Branch.arrdef_text</text>
</a>
</g>
</g>
<!-- Node1&#45;&gt;Node3 -->
<g id="edge2" class="edge"><title>Node1&#45;&gt;Node3</title>
<path fill="none" stroke="midnightblue" d="M135.517,-22.5599C143.874,-21.6913 152.529,-20.7919 161.171,-19.8937"/>
<polygon fill="midnightblue" stroke="midnightblue" points="161.708,-23.3568 171.293,-18.8418 160.985,-16.3943 161.708,-23.3568"/>
</g>
</g>
</svg>
