<?xml version="1.0" encoding="UTF-8" standalone="no"?>
<!DOCTYPE svg PUBLIC "-//W3C//DTD SVG 1.1//EN"
 "http://www.w3.org/Graphics/SVG/1.1/DTD/svg11.dtd">
<!-- Generated by graphviz version 2.38.0 (20140413.2041)
 -->
<!-- Title: panda::RecoMet::setStatus Pages: 1 -->
<svg width="636pt" height="170pt"
 viewBox="0.00 0.00 635.71 170.00" xmlns="http://www.w3.org/2000/svg" xmlns:xlink="http://www.w3.org/1999/xlink">
<g id="graph0" class="graph" transform="scale(1 1) rotate(0) translate(4 166)">
<title>panda::RecoMet::setStatus</title>
<polygon fill="white" stroke="none" points="-4,4 -4,-166 631.712,-166 631.712,4 -4,4"/>
<!-- Node1 -->
<g id="node1" class="node"><title>Node1</title>
<polygon fill="#bfbfbf" stroke="black" points="-1.42109e-14,-89.5 -1.42109e-14,-109.5 136.598,-109.5 136.598,-89.5 -1.42109e-14,-89.5"/>
<text text-anchor="middle" x="68.299" y="-96.5" font-family="Helvetica,sans-Serif" font-size="10.00">panda::RecoMet::setStatus</text>
</g>
<!-- Node2 -->
<g id="node2" class="node"><title>Node2</title>
<g id="a_node2"><a xlink:href="classpanda_1_1Met.html#ac619f68ec14ec84e34ba84023cd6f5fb" target="_top" xlink:title="Set status of branches with names that correspond to the variables of this object. ">
<polygon fill="white" stroke="black" points="172.598,-109.5 172.598,-129.5 285.859,-129.5 285.859,-109.5 172.598,-109.5"/>
<text text-anchor="middle" x="229.228" y="-116.5" font-family="Helvetica,sans-Serif" font-size="10.00">panda::Met::setStatus</text>
</a>
</g>
</g>
<!-- Node1&#45;&gt;Node2 -->
<g id="edge1" class="edge"><title>Node1&#45;&gt;Node2</title>
<path fill="none" stroke="midnightblue" d="M136.699,-107.982C145.12,-109.041 153.726,-110.124 162.126,-111.182"/>
<polygon fill="midnightblue" stroke="midnightblue" points="161.886,-114.679 172.245,-112.455 162.76,-107.734 161.886,-114.679"/>
</g>
<!-- Node4 -->
<g id="node4" class="node"><title>Node4</title>
<g id="a_node4"><a xlink:href="namespacepanda_1_1utils.html#a01665f786d6a2acedb8f008f3fc9fc84" target="_top" xlink:title="Set status of a branch. ">
<polygon fill="white" stroke="black" points="327.418,-70.5 327.418,-90.5 441.788,-90.5 441.788,-70.5 327.418,-70.5"/>
<text text-anchor="middle" x="384.603" y="-77.5" font-family="Helvetica,sans-Serif" font-size="10.00">panda::utils::setStatus</text>
</a>
</g>
</g>
<!-- Node1&#45;&gt;Node4 -->
<g id="edge8" class="edge"><title>Node1&#45;&gt;Node4</title>
<path fill="none" stroke="midnightblue" d="M136.725,-95.424C190.104,-92.1972 264.252,-87.7149 317.329,-84.5064"/>
<polygon fill="midnightblue" stroke="midnightblue" points="317.547,-87.9997 327.317,-83.9026 317.124,-81.0124 317.547,-87.9997"/>
</g>
<!-- Node3 -->
<g id="node3" class="node"><title>Node3</title>
<g id="a_node3"><a xlink:href="classpanda_1_1Object.html#a282e820b1ad431db22ca4d4dd20b55e0" target="_top" xlink:title="Set status of branches with names that correspond to the variables of this object. ">
<polygon fill="white" stroke="black" points="321.859,-109.5 321.859,-129.5 447.348,-129.5 447.348,-109.5 321.859,-109.5"/>
<text text-anchor="middle" x="384.603" y="-116.5" font-family="Helvetica,sans-Serif" font-size="10.00">panda::Object::setStatus</text>
</a>
</g>
</g>
<!-- Node2&#45;&gt;Node3 -->
<g id="edge2" class="edge"><title>Node2&#45;&gt;Node3</title>
<path fill="none" stroke="midnightblue" d="M286.034,-119.5C294.345,-119.5 303.01,-119.5 311.597,-119.5"/>
<polygon fill="midnightblue" stroke="midnightblue" points="311.615,-123 321.615,-119.5 311.615,-116 311.615,-123"/>
</g>
<!-- Node2&#45;&gt;Node4 -->
<g id="edge3" class="edge"><title>Node2&#45;&gt;Node4</title>
<path fill="none" stroke="midnightblue" d="M269.726,-109.457C289.406,-104.453 313.396,-98.3523 334.273,-93.0436"/>
<polygon fill="midnightblue" stroke="midnightblue" points="335.41,-96.3659 344.239,-90.5094 333.685,-89.5818 335.41,-96.3659"/>
</g>
<!-- Node5 -->
<g id="node5" class="node"><title>Node5</title>
<g id="a_node5"><a xlink:href="classpanda_1_1utils_1_1BranchName.html#a6cc8a6df7c5b12a0221fd49773cca6a7" target="_top" xlink:title="Is the name included and not vetoed? ">
<polygon fill="white" stroke="black" points="483.348,-141.5 483.348,-161.5 627.712,-161.5 627.712,-141.5 483.348,-141.5"/>
<text text-anchor="middle" x="555.53" y="-148.5" font-family="Helvetica,sans-Serif" font-size="10.00">panda::utils::BranchName::in</text>
</a>
</g>
</g>
<!-- Node4&#45;&gt;Node5 -->
<g id="edge4" class="edge"><title>Node4&#45;&gt;Node5</title>
<path fill="none" stroke="midnightblue" d="M427.19,-90.5102C434.146,-92.9604 441.12,-95.9319 447.348,-99.5 466.182,-110.289 464.315,-122.067 483.348,-132.5 487.007,-134.506 490.89,-136.309 494.88,-137.928"/>
<polygon fill="midnightblue" stroke="midnightblue" points="493.735,-141.236 504.329,-141.383 496.139,-134.662 493.735,-141.236"/>
</g>
<!-- Node6 -->
<g id="node6" class="node"><title>Node6</title>
<g id="a_node6"><a xlink:href="classpanda_1_1utils_1_1BranchName.html#ae3332329bf2afae5ed8e7c35e5d77ffa" target="_top" xlink:title="Is the name included and vetoed? ">
<polygon fill="white" stroke="black" points="490.016,-90.5 490.016,-122.5 621.044,-122.5 621.044,-90.5 490.016,-90.5"/>
<text text-anchor="start" x="498.016" y="-109.5" font-family="Helvetica,sans-Serif" font-size="10.00">panda::utils::BranchName</text>
<text text-anchor="middle" x="555.53" y="-97.5" font-family="Helvetica,sans-Serif" font-size="10.00">::vetoed</text>
</a>
</g>
</g>
<!-- Node4&#45;&gt;Node6 -->
<g id="edge5" class="edge"><title>Node4&#45;&gt;Node6</title>
<path fill="none" stroke="midnightblue" d="M441.854,-89.1576C453.971,-91.0226 466.963,-93.0223 479.663,-94.9769"/>
<polygon fill="midnightblue" stroke="midnightblue" points="479.346,-98.4693 489.762,-96.5314 480.411,-91.5508 479.346,-98.4693"/>
</g>
<!-- Node7 -->
<g id="node7" class="node"><title>Node7</title>
<g id="a_node7"><a xlink:href="classpanda_1_1utils_1_1BranchName.html#a13958ff4a9d554d2c057c600b4f70412" target="_top" xlink:title="Prepend the branch name with &lt;objName.&gt;. ">
<polygon fill="white" stroke="black" points="490.016,-39.5 490.016,-71.5 621.044,-71.5 621.044,-39.5 490.016,-39.5"/>
<text text-anchor="start" x="498.016" y="-58.5" font-family="Helvetica,sans-Serif" font-size="10.00">panda::utils::BranchName</text>
<text text-anchor="middle" x="555.53" y="-46.5" font-family="Helvetica,sans-Serif" font-size="10.00">::fullName</text>
</a>
</g>
</g>
<!-- Node4&#45;&gt;Node7 -->
<g id="edge6" class="edge"><title>Node4&#45;&gt;Node7</title>
<path fill="none" stroke="midnightblue" d="M441.854,-72.1754C453.971,-70.3821 466.963,-68.4593 479.663,-66.5799"/>
<polygon fill="midnightblue" stroke="midnightblue" points="480.382,-70.0116 489.762,-65.0852 479.357,-63.087 480.382,-70.0116"/>
</g>
<!-- Node8 -->
<g id="node8" class="node"><title>Node8</title>
<g id="a_node8"><a xlink:href="namespacepanda_1_1utils.html#aafa411773a4b0ee829d99e6e5a0abdcd" target="_top" xlink:title="Check status of a branch. ">
<polygon fill="white" stroke="black" points="491.955,-0.5 491.955,-20.5 619.105,-20.5 619.105,-0.5 491.955,-0.5"/>
<text text-anchor="middle" x="555.53" y="-7.5" font-family="Helvetica,sans-Serif" font-size="10.00">panda::utils::checkStatus</text>
</a>
</g>
</g>
<!-- Node4&#45;&gt;Node8 -->
<g id="edge7" class="edge"><title>Node4&#45;&gt;Node8</title>
<path fill="none" stroke="midnightblue" d="M402.029,-70.4943C421.038,-59.2584 453.557,-41.085 483.348,-29.5 488.923,-27.3321 494.836,-25.3222 500.779,-23.4849"/>
<polygon fill="midnightblue" stroke="midnightblue" points="502.142,-26.7325 510.752,-20.5584 500.171,-20.0157 502.142,-26.7325"/>
</g>
</g>
</svg>
