<?xml version="1.0" encoding="UTF-8" standalone="no"?>
<!DOCTYPE svg PUBLIC "-//W3C//DTD SVG 1.1//EN"
 "http://www.w3.org/Graphics/SVG/1.1/DTD/svg11.dtd">
<!-- Generated by graphviz version 2.38.0 (20140413.2041)
 -->
<!-- Title: panda::Recoil::book Pages: 1 -->
<svg width="434pt" height="96pt"
 viewBox="0.00 0.00 434.21 96.00" xmlns="http://www.w3.org/2000/svg" xmlns:xlink="http://www.w3.org/1999/xlink">
<g id="graph0" class="graph" transform="scale(1 1) rotate(0) translate(4 92)">
<title>panda::Recoil::book</title>
<polygon fill="white" stroke="none" points="-4,4 -4,-92 430.21,-92 430.21,4 -4,4"/>
<!-- Node1 -->
<g id="node1" class="node"><title>Node1</title>
<polygon fill="#bfbfbf" stroke="black" points="-2.84217e-14,-47.5 -2.84217e-14,-67.5 104.363,-67.5 104.363,-47.5 -2.84217e-14,-47.5"/>
<text text-anchor="middle" x="52.1815" y="-54.5" font-family="Helvetica,sans-Serif" font-size="10.00">panda::Recoil::book</text>
</g>
<!-- Node2 -->
<g id="node2" class="node"><title>Node2</title>
<g id="a_node2"><a xlink:href="classpanda_1_1Object.html#a2fcd6665633deef16e86aa4e49135dd7" target="_top" xlink:title="Book new branches to the tree corresponding to the variables of this object. ">
<polygon fill="white" stroke="black" points="140.363,-67.5 140.363,-87.5 245.846,-87.5 245.846,-67.5 140.363,-67.5"/>
<text text-anchor="middle" x="193.104" y="-74.5" font-family="Helvetica,sans-Serif" font-size="10.00">panda::Object::book</text>
</a>
</g>
</g>
<!-- Node1&#45;&gt;Node2 -->
<g id="edge1" class="edge"><title>Node1&#45;&gt;Node2</title>
<path fill="none" stroke="midnightblue" d="M104.517,-64.8904C112.85,-66.0901 121.557,-67.3437 130.112,-68.5752"/>
<polygon fill="midnightblue" stroke="midnightblue" points="129.655,-72.0455 140.052,-70.0063 130.653,-65.117 129.655,-72.0455"/>
</g>
<!-- Node3 -->
<g id="node3" class="node"><title>Node3</title>
<g id="a_node3"><a xlink:href="namespacepanda_1_1utils.html#aaa6c7cd5892388e6ffdf713b11abf793" target="_top" xlink:title="Book the branch. ">
<polygon fill="white" stroke="black" points="145.922,-28.5 145.922,-48.5 240.286,-48.5 240.286,-28.5 145.922,-28.5"/>
<text text-anchor="middle" x="193.104" y="-35.5" font-family="Helvetica,sans-Serif" font-size="10.00">panda::utils::book</text>
</a>
</g>
</g>
<!-- Node1&#45;&gt;Node3 -->
<g id="edge2" class="edge"><title>Node1&#45;&gt;Node3</title>
<path fill="none" stroke="midnightblue" d="M104.517,-50.4791C114.603,-49.0996 125.238,-47.645 135.487,-46.2434"/>
<polygon fill="midnightblue" stroke="midnightblue" points="136.139,-49.6869 145.572,-44.8641 135.19,-42.7515 136.139,-49.6869"/>
</g>
<!-- Node4 -->
<g id="node4" class="node"><title>Node4</title>
<g id="a_node4"><a xlink:href="classpanda_1_1utils_1_1BranchName.html#a6cc8a6df7c5b12a0221fd49773cca6a7" target="_top" xlink:title="Is the name included and not vetoed? ">
<polygon fill="white" stroke="black" points="281.846,-51.5 281.846,-71.5 426.21,-71.5 426.21,-51.5 281.846,-51.5"/>
<text text-anchor="middle" x="354.028" y="-58.5" font-family="Helvetica,sans-Serif" font-size="10.00">panda::utils::BranchName::in</text>
</a>
</g>
</g>
<!-- Node3&#45;&gt;Node4 -->
<g id="edge3" class="edge"><title>Node3&#45;&gt;Node4</title>
<path fill="none" stroke="midnightblue" d="M240.499,-45.2144C250.986,-46.7322 262.409,-48.3853 273.825,-50.0374"/>
<polygon fill="midnightblue" stroke="midnightblue" points="273.433,-53.5171 283.831,-51.4856 274.436,-46.5893 273.433,-53.5171"/>
</g>
<!-- Node5 -->
<g id="node5" class="node"><title>Node5</title>
<g id="a_node5"><a xlink:href="classpanda_1_1utils_1_1BranchName.html#a13958ff4a9d554d2c057c600b4f70412" target="_top" xlink:title="Prepend the branch name with &lt;objName.&gt;. ">
<polygon fill="white" stroke="black" points="288.514,-0.5 288.514,-32.5 419.542,-32.5 419.542,-0.5 288.514,-0.5"/>
<text text-anchor="start" x="296.514" y="-19.5" font-family="Helvetica,sans-Serif" font-size="10.00">panda::utils::BranchName</text>
<text text-anchor="middle" x="354.028" y="-7.5" font-family="Helvetica,sans-Serif" font-size="10.00">::fullName</text>
</a>
</g>
</g>
<!-- Node3&#45;&gt;Node5 -->
<g id="edge4" class="edge"><title>Node3&#45;&gt;Node5</title>
<path fill="none" stroke="midnightblue" d="M240.499,-32.0775C252.283,-30.4463 265.247,-28.6516 278.056,-26.8785"/>
<polygon fill="midnightblue" stroke="midnightblue" points="278.843,-30.303 288.269,-25.4647 277.883,-23.3691 278.843,-30.303"/>
</g>
</g>
</svg>
