<?xml version="1.0" encoding="UTF-8" standalone="no"?>
<!DOCTYPE svg PUBLIC "-//W3C//DTD SVG 1.1//EN"
 "http://www.w3.org/Graphics/SVG/1.1/DTD/svg11.dtd">
<!-- Generated by graphviz version 2.38.0 (20140413.2041)
 -->
<!-- Title: panda.physics.PhysicsObject.is_singlet Pages: 1 -->
<svg width="388pt" height="92pt"
 viewBox="0.00 0.00 388.30 92.00" xmlns="http://www.w3.org/2000/svg" xmlns:xlink="http://www.w3.org/1999/xlink">
<g id="graph0" class="graph" transform="scale(1 1) rotate(0) translate(4 88)">
<title>panda.physics.PhysicsObject.is_singlet</title>
<polygon fill="white" stroke="none" points="-4,4 -4,-88 384.303,-88 384.303,4 -4,4"/>
<!-- Node1 -->
<g id="node1" class="node"><title>Node1</title>
<polygon fill="#bfbfbf" stroke="black" points="-1.42109e-14,-25.5 -1.42109e-14,-57.5 156.03,-57.5 156.03,-25.5 -1.42109e-14,-25.5"/>
<text text-anchor="start" x="8" y="-44.5" font-family="Helvetica,sans-Serif" font-size="10.00">panda.physics.PhysicsObject.is</text>
<text text-anchor="middle" x="78.015" y="-32.5" font-family="Helvetica,sans-Serif" font-size="10.00">_singlet</text>
</g>
<!-- Node2 -->
<g id="node2" class="node"><title>Node2</title>
<g id="a_node2"><a xlink:href="classpanda_1_1physics_1_1PhysicsObject.html#a7cec1371d3f7793c691fd6f1a5b06092" target="_top" xlink:title="panda.physics.PhysicsObject.generate\l_header">
<polygon fill="white" stroke="black" points="192.03,-51.5 192.03,-83.5 380.303,-83.5 380.303,-51.5 192.03,-51.5"/>
<text text-anchor="start" x="200.03" y="-70.5" font-family="Helvetica,sans-Serif" font-size="10.00">panda.physics.PhysicsObject.generate</text>
<text text-anchor="middle" x="286.166" y="-58.5" font-family="Helvetica,sans-Serif" font-size="10.00">_header</text>
</a>
</g>
</g>
<!-- Node1&#45;&gt;Node2 -->
<g id="edge1" class="edge"><title>Node1&#45;&gt;Node2</title>
<path fill="none" stroke="midnightblue" d="M166.012,-52.4722C174.552,-53.5492 183.242,-54.6452 191.841,-55.7298"/>
<polygon fill="midnightblue" stroke="midnightblue" points="166.431,-48.9973 156.071,-51.2184 165.555,-55.9423 166.431,-48.9973"/>
</g>
<!-- Node3 -->
<g id="node3" class="node"><title>Node3</title>
<g id="a_node3"><a xlink:href="classpanda_1_1physics_1_1PhysicsObject.html#a20dbff173bfc37fa0038bffe31d310b6" target="_top" xlink:title="panda.physics.PhysicsObject.generate\l_source">
<polygon fill="white" stroke="black" points="192.03,-0.5 192.03,-32.5 380.303,-32.5 380.303,-0.5 192.03,-0.5"/>
<text text-anchor="start" x="200.03" y="-19.5" font-family="Helvetica,sans-Serif" font-size="10.00">panda.physics.PhysicsObject.generate</text>
<text text-anchor="middle" x="286.166" y="-7.5" font-family="Helvetica,sans-Serif" font-size="10.00">_source</text>
</a>
</g>
</g>
<!-- Node1&#45;&gt;Node3 -->
<g id="edge2" class="edge"><title>Node1&#45;&gt;Node3</title>
<path fill="none" stroke="midnightblue" d="M166.012,-30.9498C174.552,-29.9143 183.242,-28.8604 191.841,-27.8175"/>
<polygon fill="midnightblue" stroke="midnightblue" points="165.577,-27.4769 156.071,-32.1554 166.42,-34.4259 165.577,-27.4769"/>
</g>
</g>
</svg>
