<?xml version="1.0" encoding="UTF-8" standalone="no"?>
<!DOCTYPE svg PUBLIC "-//W3C//DTD SVG 1.1//EN"
 "http://www.w3.org/Graphics/SVG/1.1/DTD/svg11.dtd">
<!-- Generated by graphviz version 2.38.0 (20140413.2041)
 -->
<!-- Title: panda::Tau::setAddress Pages: 1 -->
<svg width="990pt" height="208pt"
 viewBox="0.00 0.00 989.76 208.00" xmlns="http://www.w3.org/2000/svg" xmlns:xlink="http://www.w3.org/1999/xlink">
<g id="graph0" class="graph" transform="scale(1 1) rotate(0) translate(4 204)">
<title>panda::Tau::setAddress</title>
<polygon fill="white" stroke="none" points="-4,4 -4,-204 985.763,-204 985.763,4 -4,4"/>
<!-- Node1 -->
<g id="node1" class="node"><title>Node1</title>
<polygon fill="#bfbfbf" stroke="black" points="4.26326e-14,-89.5 4.26326e-14,-109.5 122.151,-109.5 122.151,-89.5 4.26326e-14,-89.5"/>
<text text-anchor="middle" x="61.0755" y="-96.5" font-family="Helvetica,sans-Serif" font-size="10.00">panda::Tau::setAddress</text>
</g>
<!-- Node2 -->
<g id="node2" class="node"><title>Node2</title>
<g id="a_node2"><a xlink:href="classpanda_1_1ParticleM.html#ad8aeae1e2ca26f4cdb7d079ab56a10fe" target="_top" xlink:title="Set address for the branches to the variables of this object. ">
<polygon fill="white" stroke="black" points="158.151,-109.5 158.151,-129.5 304.737,-129.5 304.737,-109.5 158.151,-109.5"/>
<text text-anchor="middle" x="231.444" y="-116.5" font-family="Helvetica,sans-Serif" font-size="10.00">panda::ParticleM::setAddress</text>
</a>
</g>
</g>
<!-- Node1&#45;&gt;Node2 -->
<g id="edge1" class="edge"><title>Node1&#45;&gt;Node2</title>
<path fill="none" stroke="midnightblue" d="M122.385,-106.664C130.659,-107.647 139.268,-108.67 147.856,-109.69"/>
<polygon fill="midnightblue" stroke="midnightblue" points="147.562,-113.179 157.905,-110.883 148.388,-106.228 147.562,-113.179"/>
</g>
<!-- Node5 -->
<g id="node5" class="node"><title>Node5</title>
<g id="a_node5"><a xlink:href="classpanda_1_1utils_1_1StoreManager.html#a6f30ec459d951e84a1196b7e2ffdcf49" target="_top" xlink:title="panda::utils::StoreManager\l::getName">
<polygon fill="white" stroke="black" points="514.994,-167.5 514.994,-199.5 651.029,-199.5 651.029,-167.5 514.994,-167.5"/>
<text text-anchor="start" x="522.994" y="-186.5" font-family="Helvetica,sans-Serif" font-size="10.00">panda::utils::StoreManager</text>
<text text-anchor="middle" x="583.011" y="-174.5" font-family="Helvetica,sans-Serif" font-size="10.00">::getName</text>
</a>
</g>
</g>
<!-- Node1&#45;&gt;Node5 -->
<g id="edge16" class="edge"><title>Node1&#45;&gt;Node5</title>
<path fill="none" stroke="midnightblue" d="M83.435,-109.616C102.651,-118.42 131.828,-131.059 158.151,-139.5 237.443,-164.926 258.04,-171.764 340.737,-181.5 395.289,-187.923 457.259,-188.29 504.735,-187.121"/>
<polygon fill="midnightblue" stroke="midnightblue" points="505.042,-190.614 514.943,-186.841 504.85,-183.617 505.042,-190.614"/>
</g>
<!-- Node6 -->
<g id="node6" class="node"><title>Node6</title>
<g id="a_node6"><a xlink:href="namespacepanda_1_1utils.html#abf9c62e588560197c2bae9932e6a6e05" target="_top" xlink:title="Set address. ">
<polygon fill="white" stroke="black" points="521.661,-89.5 521.661,-109.5 644.361,-109.5 644.361,-89.5 521.661,-89.5"/>
<text text-anchor="middle" x="583.011" y="-96.5" font-family="Helvetica,sans-Serif" font-size="10.00">panda::utils::setAddress</text>
</a>
</g>
</g>
<!-- Node1&#45;&gt;Node6 -->
<g id="edge17" class="edge"><title>Node1&#45;&gt;Node6</title>
<path fill="none" stroke="midnightblue" d="M122.227,-99.5C218.882,-99.5 408.331,-99.5 511.304,-99.5"/>
<polygon fill="midnightblue" stroke="midnightblue" points="511.6,-103 521.6,-99.5 511.6,-96.0001 511.6,-103"/>
</g>
<!-- Node12 -->
<g id="node12" class="node"><title>Node12</title>
<g id="a_node12"><a xlink:href="classpanda_1_1utils_1_1StoreManager.html#ae6c8fb6b0c3d25147b09ef8b92b61da8" target="_top" xlink:title="panda::utils::StoreManager\l::getData">
<polygon fill="white" stroke="black" points="163.427,-0.5 163.427,-32.5 299.462,-32.5 299.462,-0.5 163.427,-0.5"/>
<text text-anchor="start" x="171.427" y="-19.5" font-family="Helvetica,sans-Serif" font-size="10.00">panda::utils::StoreManager</text>
<text text-anchor="middle" x="231.444" y="-7.5" font-family="Helvetica,sans-Serif" font-size="10.00">::getData</text>
</a>
</g>
</g>
<!-- Node1&#45;&gt;Node12 -->
<g id="edge18" class="edge"><title>Node1&#45;&gt;Node12</title>
<path fill="none" stroke="midnightblue" d="M79.5331,-89.428C98.5966,-78.577 130.151,-61.046 158.151,-47.5 165.75,-43.8239 173.894,-40.1157 181.876,-36.6052"/>
<polygon fill="midnightblue" stroke="midnightblue" points="183.351,-39.7806 191.131,-32.5888 180.564,-33.3592 183.351,-39.7806"/>
</g>
<!-- Node3 -->
<g id="node3" class="node"><title>Node3</title>
<g id="a_node3"><a xlink:href="classpanda_1_1Particle.html#a96282cfb24384c1f00c40576069a4c7e" target="_top" xlink:title="Set address for the branches to the variables of this object. ">
<polygon fill="white" stroke="black" points="340.737,-128.5 340.737,-148.5 478.994,-148.5 478.994,-128.5 340.737,-128.5"/>
<text text-anchor="middle" x="409.865" y="-135.5" font-family="Helvetica,sans-Serif" font-size="10.00">panda::Particle::setAddress</text>
</a>
</g>
</g>
<!-- Node2&#45;&gt;Node3 -->
<g id="edge2" class="edge"><title>Node2&#45;&gt;Node3</title>
<path fill="none" stroke="midnightblue" d="M304.965,-127.31C313.435,-128.222 322.105,-129.156 330.648,-130.076"/>
<polygon fill="midnightblue" stroke="midnightblue" points="330.282,-133.557 340.599,-131.148 331.031,-126.597 330.282,-133.557"/>
</g>
<!-- Node2&#45;&gt;Node5 -->
<g id="edge14" class="edge"><title>Node2&#45;&gt;Node5</title>
<path fill="none" stroke="midnightblue" d="M255.195,-129.527C276.78,-138.597 310.346,-151.561 340.737,-158.5 394.668,-170.813 456.78,-177.072 504.477,-180.248"/>
<polygon fill="midnightblue" stroke="midnightblue" points="504.533,-183.759 514.735,-180.899 504.976,-176.773 504.533,-183.759"/>
</g>
<!-- Node2&#45;&gt;Node6 -->
<g id="edge15" class="edge"><title>Node2&#45;&gt;Node6</title>
<path fill="none" stroke="midnightblue" d="M304.875,-115.356C365.464,-111.889 451.389,-106.973 511.449,-103.537"/>
<polygon fill="midnightblue" stroke="midnightblue" points="511.819,-107.022 521.603,-102.956 511.419,-100.033 511.819,-107.022"/>
</g>
<!-- Node4 -->
<g id="node4" class="node"><title>Node4</title>
<g id="a_node4"><a xlink:href="classpanda_1_1Object.html#aed9f9d3b6abe518dd27957de843b36b5" target="_top" xlink:title="Set address for the branches to the variables of this object. ">
<polygon fill="white" stroke="black" points="516.102,-128.5 516.102,-148.5 649.921,-148.5 649.921,-128.5 516.102,-128.5"/>
<text text-anchor="middle" x="583.011" y="-135.5" font-family="Helvetica,sans-Serif" font-size="10.00">panda::Object::setAddress</text>
</a>
</g>
</g>
<!-- Node3&#45;&gt;Node4 -->
<g id="edge3" class="edge"><title>Node3&#45;&gt;Node4</title>
<path fill="none" stroke="midnightblue" d="M478.999,-138.5C487.871,-138.5 497.005,-138.5 505.996,-138.5"/>
<polygon fill="midnightblue" stroke="midnightblue" points="506.065,-142 516.065,-138.5 506.065,-135 506.065,-142"/>
</g>
<!-- Node3&#45;&gt;Node5 -->
<g id="edge4" class="edge"><title>Node3&#45;&gt;Node5</title>
<path fill="none" stroke="midnightblue" d="M449.274,-148.599C467.481,-153.386 489.831,-159.263 510.963,-164.819"/>
<polygon fill="midnightblue" stroke="midnightblue" points="510.329,-168.271 520.89,-167.429 512.109,-161.501 510.329,-168.271"/>
</g>
<!-- Node3&#45;&gt;Node6 -->
<g id="edge5" class="edge"><title>Node3&#45;&gt;Node6</title>
<path fill="none" stroke="midnightblue" d="M454.94,-128.457C477.299,-123.362 504.644,-117.13 528.233,-111.755"/>
<polygon fill="midnightblue" stroke="midnightblue" points="529.114,-115.144 538.087,-109.509 527.559,-108.319 529.114,-115.144"/>
</g>
<!-- Node7 -->
<g id="node7" class="node"><title>Node7</title>
<g id="a_node7"><a xlink:href="classpanda_1_1utils_1_1BranchName.html#a13958ff4a9d554d2c057c600b4f70412" target="_top" xlink:title="Prepend the branch name with &lt;objName.&gt;. ">
<polygon fill="white" stroke="black" points="844.067,-148.5 844.067,-180.5 975.095,-180.5 975.095,-148.5 844.067,-148.5"/>
<text text-anchor="start" x="852.067" y="-167.5" font-family="Helvetica,sans-Serif" font-size="10.00">panda::utils::BranchName</text>
<text text-anchor="middle" x="909.581" y="-155.5" font-family="Helvetica,sans-Serif" font-size="10.00">::fullName</text>
</a>
</g>
</g>
<!-- Node6&#45;&gt;Node7 -->
<g id="edge6" class="edge"><title>Node6&#45;&gt;Node7</title>
<path fill="none" stroke="midnightblue" d="M625.022,-109.51C643.866,-113.992 666.536,-119.219 687.029,-123.5 735.771,-133.682 790.819,-143.876 833.85,-151.552"/>
<polygon fill="midnightblue" stroke="midnightblue" points="833.5,-155.044 843.958,-153.348 834.725,-148.152 833.5,-155.044"/>
</g>
<!-- Node8 -->
<g id="node8" class="node"><title>Node8</title>
<g id="a_node8"><a xlink:href="namespacepanda_1_1utils.html#a01665f786d6a2acedb8f008f3fc9fc84" target="_top" xlink:title="Set status of a branch. ">
<polygon fill="white" stroke="black" points="687.029,-70.5 687.029,-90.5 801.399,-90.5 801.399,-70.5 687.029,-70.5"/>
<text text-anchor="middle" x="744.214" y="-77.5" font-family="Helvetica,sans-Serif" font-size="10.00">panda::utils::setStatus</text>
</a>
</g>
</g>
<!-- Node6&#45;&gt;Node8 -->
<g id="edge7" class="edge"><title>Node6&#45;&gt;Node8</title>
<path fill="none" stroke="midnightblue" d="M644.653,-92.2627C655.175,-91.007 666.165,-89.6954 676.83,-88.4226"/>
<polygon fill="midnightblue" stroke="midnightblue" points="677.415,-91.8777 686.929,-87.2173 676.585,-84.9271 677.415,-91.8777"/>
</g>
<!-- Node9 -->
<g id="node9" class="node"><title>Node9</title>
<g id="a_node9"><a xlink:href="classpanda_1_1utils_1_1BranchName.html#a6cc8a6df7c5b12a0221fd49773cca6a7" target="_top" xlink:title="Is the name included and not vetoed? ">
<polygon fill="white" stroke="black" points="837.399,-109.5 837.399,-129.5 981.763,-129.5 981.763,-109.5 837.399,-109.5"/>
<text text-anchor="middle" x="909.581" y="-116.5" font-family="Helvetica,sans-Serif" font-size="10.00">panda::utils::BranchName::in</text>
</a>
</g>
</g>
<!-- Node6&#45;&gt;Node9 -->
<g id="edge12" class="edge"><title>Node6&#45;&gt;Node9</title>
<path fill="none" stroke="midnightblue" d="M644.68,-103.238C696.174,-106.411 770.507,-110.992 827.17,-114.483"/>
<polygon fill="midnightblue" stroke="midnightblue" points="826.98,-117.978 837.177,-115.1 827.411,-110.992 826.98,-117.978"/>
</g>
<!-- Node11 -->
<g id="node11" class="node"><title>Node11</title>
<g id="a_node11"><a xlink:href="namespacepanda_1_1utils.html#aafa411773a4b0ee829d99e6e5a0abdcd" target="_top" xlink:title="Check status of a branch. ">
<polygon fill="white" stroke="black" points="846.006,-19.5 846.006,-39.5 973.156,-39.5 973.156,-19.5 846.006,-19.5"/>
<text text-anchor="middle" x="909.581" y="-26.5" font-family="Helvetica,sans-Serif" font-size="10.00">panda::utils::checkStatus</text>
</a>
</g>
</g>
<!-- Node6&#45;&gt;Node11 -->
<g id="edge13" class="edge"><title>Node6&#45;&gt;Node11</title>
<path fill="none" stroke="midnightblue" d="M606.454,-89.3361C627.013,-80.4299 658.497,-67.7993 687.029,-60.5 735.9,-47.9973 792.21,-40.2015 835.832,-35.5548"/>
<polygon fill="midnightblue" stroke="midnightblue" points="836.198,-39.0357 845.785,-34.5255 835.478,-32.0728 836.198,-39.0357"/>
</g>
<!-- Node8&#45;&gt;Node7 -->
<g id="edge10" class="edge"><title>Node8&#45;&gt;Node7</title>
<path fill="none" stroke="midnightblue" d="M758.683,-90.5422C776.139,-103.216 807.85,-125.097 837.399,-139.5 841.108,-141.308 844.982,-143.049 848.924,-144.713"/>
<polygon fill="midnightblue" stroke="midnightblue" points="847.617,-147.96 858.2,-148.45 850.232,-141.467 847.617,-147.96"/>
</g>
<!-- Node8&#45;&gt;Node9 -->
<g id="edge8" class="edge"><title>Node8&#45;&gt;Node9</title>
<path fill="none" stroke="midnightblue" d="M787.285,-90.5435C808.437,-95.593 834.265,-101.759 856.643,-107.101"/>
<polygon fill="midnightblue" stroke="midnightblue" points="856.113,-110.573 866.653,-109.491 857.739,-103.764 856.113,-110.573"/>
</g>
<!-- Node10 -->
<g id="node10" class="node"><title>Node10</title>
<g id="a_node10"><a xlink:href="classpanda_1_1utils_1_1BranchName.html#ae3332329bf2afae5ed8e7c35e5d77ffa" target="_top" xlink:title="Is the name included and vetoed? ">
<polygon fill="white" stroke="black" points="844.067,-58.5 844.067,-90.5 975.095,-90.5 975.095,-58.5 844.067,-58.5"/>
<text text-anchor="start" x="852.067" y="-77.5" font-family="Helvetica,sans-Serif" font-size="10.00">panda::utils::BranchName</text>
<text text-anchor="middle" x="909.581" y="-65.5" font-family="Helvetica,sans-Serif" font-size="10.00">::vetoed</text>
</a>
</g>
</g>
<!-- Node8&#45;&gt;Node10 -->
<g id="edge9" class="edge"><title>Node8&#45;&gt;Node10</title>
<path fill="none" stroke="midnightblue" d="M801.436,-78.4351C811.787,-78.055 822.745,-77.6525 833.547,-77.2558"/>
<polygon fill="midnightblue" stroke="midnightblue" points="833.966,-80.7429 843.831,-76.8781 833.709,-73.7476 833.966,-80.7429"/>
</g>
<!-- Node8&#45;&gt;Node11 -->
<g id="edge11" class="edge"><title>Node8&#45;&gt;Node11</title>
<path fill="none" stroke="midnightblue" d="M772.471,-70.4496C790.731,-63.8624 815.371,-55.2532 837.399,-48.5 844.377,-46.3607 851.781,-44.2311 859.074,-42.2131"/>
<polygon fill="midnightblue" stroke="midnightblue" points="860.17,-45.5424 868.9,-39.5402 858.332,-38.7878 860.17,-45.5424"/>
</g>
</g>
</svg>
