<?xml version="1.0" encoding="UTF-8" standalone="no"?>
<!DOCTYPE svg PUBLIC "-//W3C//DTD SVG 1.1//EN"
 "http://www.w3.org/Graphics/SVG/1.1/DTD/svg11.dtd">
<!-- Generated by graphviz version 2.38.0 (20140413.2041)
 -->
<!-- Title: panda.refbranch.RefBranch.write_assign Pages: 1 -->
<svg width="369pt" height="92pt"
 viewBox="0.00 0.00 369.40 92.00" xmlns="http://www.w3.org/2000/svg" xmlns:xlink="http://www.w3.org/1999/xlink">
<g id="graph0" class="graph" transform="scale(1 1) rotate(0) translate(4 88)">
<title>panda.refbranch.RefBranch.write_assign</title>
<polygon fill="white" stroke="none" points="-4,4 -4,-88 365.402,-88 365.402,4 -4,4"/>
<!-- Node1 -->
<g id="node1" class="node"><title>Node1</title>
<polygon fill="#bfbfbf" stroke="black" points="1.42109e-14,-25.5 1.42109e-14,-57.5 162.701,-57.5 162.701,-25.5 1.42109e-14,-25.5"/>
<text text-anchor="start" x="8" y="-44.5" font-family="Helvetica,sans-Serif" font-size="10.00">panda.refbranch.RefBranch.write</text>
<text text-anchor="middle" x="81.3505" y="-32.5" font-family="Helvetica,sans-Serif" font-size="10.00">_assign</text>
</g>
<!-- Node2 -->
<g id="node2" class="node"><title>Node2</title>
<g id="a_node2"><a xlink:href="classpanda_1_1refbranch_1_1RefBranch.html#aab6abb2a47955638050a1e0f2798f5f6" target="_top" xlink:title="panda.refbranch.RefBranch.write\l_copy_ctor">
<polygon fill="white" stroke="black" points="198.701,-51.5 198.701,-83.5 361.402,-83.5 361.402,-51.5 198.701,-51.5"/>
<text text-anchor="start" x="206.701" y="-70.5" font-family="Helvetica,sans-Serif" font-size="10.00">panda.refbranch.RefBranch.write</text>
<text text-anchor="middle" x="280.051" y="-58.5" font-family="Helvetica,sans-Serif" font-size="10.00">_copy_ctor</text>
</a>
</g>
</g>
<!-- Node1&#45;&gt;Node2 -->
<g id="edge1" class="edge"><title>Node1&#45;&gt;Node2</title>
<path fill="none" stroke="midnightblue" d="M172.928,-53.4726C181.495,-54.6049 190.141,-55.7477 198.603,-56.8663"/>
<polygon fill="midnightblue" stroke="midnightblue" points="173.296,-49.9909 162.924,-52.1502 172.379,-56.9305 173.296,-49.9909"/>
</g>
<!-- Node3 -->
<g id="node3" class="node"><title>Node3</title>
<g id="a_node3"><a xlink:href="classpanda_1_1refvbranch_1_1RefVectorBranch.html#a4a579a4942e4357945946c354ff21b45" target="_top" xlink:title="panda.refvbranch.RefVector\lBranch.write_copy_ctor">
<polygon fill="white" stroke="black" points="209.533,-0.5 209.533,-32.5 350.57,-32.5 350.57,-0.5 209.533,-0.5"/>
<text text-anchor="start" x="217.533" y="-19.5" font-family="Helvetica,sans-Serif" font-size="10.00">panda.refvbranch.RefVector</text>
<text text-anchor="middle" x="280.051" y="-7.5" font-family="Helvetica,sans-Serif" font-size="10.00">Branch.write_copy_ctor</text>
</a>
</g>
</g>
<!-- Node1&#45;&gt;Node3 -->
<g id="edge2" class="edge"><title>Node1&#45;&gt;Node3</title>
<path fill="none" stroke="midnightblue" d="M173.089,-29.9674C185.254,-28.4213 197.576,-26.8553 209.303,-25.3648"/>
<polygon fill="midnightblue" stroke="midnightblue" points="172.403,-26.5264 162.924,-31.2594 173.285,-33.4706 172.403,-26.5264"/>
</g>
</g>
</svg>
