<?xml version="1.0" encoding="UTF-8" standalone="no"?>
<!DOCTYPE svg PUBLIC "-//W3C//DTD SVG 1.1//EN"
 "http://www.w3.org/Graphics/SVG/1.1/DTD/svg11.dtd">
<!-- Generated by graphviz version 2.38.0 (20140413.2041)
 -->
<!-- Title: panda::Particle::dR2 Pages: 1 -->
<svg width="259pt" height="68pt"
 viewBox="0.00 0.00 259.39 68.00" xmlns="http://www.w3.org/2000/svg" xmlns:xlink="http://www.w3.org/1999/xlink">
<g id="graph0" class="graph" transform="scale(1 1) rotate(0) translate(4 64)">
<title>panda::Particle::dR2</title>
<polygon fill="white" stroke="none" points="-4,4 -4,-64 255.391,-64 255.391,4 -4,4"/>
<!-- Node1 -->
<g id="node1" class="node"><title>Node1</title>
<polygon fill="#bfbfbf" stroke="black" points="-1.42109e-14,-19.5 -1.42109e-14,-39.5 106.581,-39.5 106.581,-19.5 -1.42109e-14,-19.5"/>
<text text-anchor="middle" x="53.2905" y="-26.5" font-family="Helvetica,sans-Serif" font-size="10.00">panda::Particle::dR2</text>
</g>
<!-- Node2 -->
<g id="node2" class="node"><title>Node2</title>
<g id="a_node2"><a xlink:href="classpanda_1_1Particle.html#a7216a6a830a5231aef8ebc7d57018699" target="_top" xlink:title="panda::Particle::dEta">
<polygon fill="white" stroke="black" points="142.581,-39.5 142.581,-59.5 251.391,-59.5 251.391,-39.5 142.581,-39.5"/>
<text text-anchor="middle" x="196.986" y="-46.5" font-family="Helvetica,sans-Serif" font-size="10.00">panda::Particle::dEta</text>
</a>
</g>
</g>
<!-- Node1&#45;&gt;Node2 -->
<g id="edge1" class="edge"><title>Node1&#45;&gt;Node2</title>
<path fill="none" stroke="midnightblue" d="M106.65,-36.8904C115.036,-38.0741 123.794,-39.3103 132.407,-40.5259"/>
<polygon fill="midnightblue" stroke="midnightblue" points="132.029,-44.0072 142.42,-41.9393 133.008,-37.0759 132.029,-44.0072"/>
</g>
<!-- Node3 -->
<g id="node3" class="node"><title>Node3</title>
<g id="a_node3"><a xlink:href="classpanda_1_1Particle.html#ad58d76aa3509890401e7075d36d605b2" target="_top" xlink:title="panda::Particle::dPhi">
<polygon fill="white" stroke="black" points="142.861,-0.5 142.861,-20.5 251.111,-20.5 251.111,-0.5 142.861,-0.5"/>
<text text-anchor="middle" x="196.986" y="-7.5" font-family="Helvetica,sans-Serif" font-size="10.00">panda::Particle::dPhi</text>
</a>
</g>
</g>
<!-- Node1&#45;&gt;Node3 -->
<g id="edge2" class="edge"><title>Node1&#45;&gt;Node3</title>
<path fill="none" stroke="midnightblue" d="M106.65,-22.4791C115.036,-21.3546 123.794,-20.1803 132.407,-19.0254"/>
<polygon fill="midnightblue" stroke="midnightblue" points="132.974,-22.4807 142.42,-17.6827 132.044,-15.5428 132.974,-22.4807"/>
</g>
</g>
</svg>
