<?xml version="1.0" encoding="UTF-8" standalone="no"?>
<!DOCTYPE svg PUBLIC "-//W3C//DTD SVG 1.1//EN"
 "http://www.w3.org/Graphics/SVG/1.1/DTD/svg11.dtd">
<!-- Generated by graphviz version 2.38.0 (20140413.2041)
 -->
<!-- Title: panda::Container::max_ Pages: 1 -->
<svg width="286pt" height="68pt"
 viewBox="0.00 0.00 286.07 68.00" xmlns="http://www.w3.org/2000/svg" xmlns:xlink="http://www.w3.org/1999/xlink">
<g id="graph0" class="graph" transform="scale(1 1) rotate(0) translate(4 64)">
<title>panda::Container::max_</title>
<polygon fill="white" stroke="none" points="-4,4 -4,-64 282.069,-64 282.069,4 -4,4"/>
<!-- Node1 -->
<g id="node1" class="node"><title>Node1</title>
<polygon fill="#bfbfbf" stroke="black" points="-1.42109e-14,-19.5 -1.42109e-14,-39.5 122.699,-39.5 122.699,-19.5 -1.42109e-14,-19.5"/>
<text text-anchor="middle" x="61.3495" y="-26.5" font-family="Helvetica,sans-Serif" font-size="10.00">panda::Container::max_</text>
</g>
<!-- Node2 -->
<g id="node2" class="node"><title>Node2</title>
<g id="a_node2"><a xlink:href="classpanda_1_1Container.html#ac063e06f3e792ff475f28cd502abf843" target="_top" xlink:title="Return an iterator pointing to the end of the array (invalid address) ">
<polygon fill="white" stroke="black" points="160.919,-39.5 160.919,-59.5 275.848,-59.5 275.848,-39.5 160.919,-39.5"/>
<text text-anchor="middle" x="218.384" y="-46.5" font-family="Helvetica,sans-Serif" font-size="10.00">panda::Container::end</text>
</a>
</g>
</g>
<!-- Node1&#45;&gt;Node2 -->
<g id="edge1" class="edge"><title>Node1&#45;&gt;Node2</title>
<path fill="none" stroke="midnightblue" d="M132.8,-38.5883C142.15,-39.7946 151.639,-41.0186 160.715,-42.1896"/>
<polygon fill="midnightblue" stroke="midnightblue" points="133.099,-35.0981 122.734,-37.2898 132.204,-42.0405 133.099,-35.0981"/>
</g>
<!-- Node3 -->
<g id="node3" class="node"><title>Node3</title>
<g id="a_node3"><a xlink:href="classpanda_1_1Container.html#a61bb66309ba1c1472097808caf751200" target="_top" xlink:title="Reference to the last element. ">
<polygon fill="white" stroke="black" points="158.699,-0.5 158.699,-20.5 278.069,-20.5 278.069,-0.5 158.699,-0.5"/>
<text text-anchor="middle" x="218.384" y="-7.5" font-family="Helvetica,sans-Serif" font-size="10.00">panda::Container::back</text>
</a>
</g>
</g>
<!-- Node1&#45;&gt;Node3 -->
<g id="edge2" class="edge"><title>Node1&#45;&gt;Node3</title>
<path fill="none" stroke="midnightblue" d="M132.812,-20.8646C141.465,-19.8041 150.237,-18.7291 158.691,-17.693"/>
<polygon fill="midnightblue" stroke="midnightblue" points="132.234,-17.4092 122.734,-22.0997 133.085,-24.3572 132.234,-17.4092"/>
</g>
</g>
</svg>
