<?xml version="1.0" encoding="UTF-8" standalone="no"?>
<!DOCTYPE svg PUBLIC "-//W3C//DTD SVG 1.1//EN"
 "http://www.w3.org/Graphics/SVG/1.1/DTD/svg11.dtd">
<!-- Generated by graphviz version 2.38.0 (20140413.2041)
 -->
<!-- Title: panda::Photon::book Pages: 1 -->
<svg width="641pt" height="170pt"
 viewBox="0.00 0.00 640.71 170.00" xmlns="http://www.w3.org/2000/svg" xmlns:xlink="http://www.w3.org/1999/xlink">
<g id="graph0" class="graph" transform="scale(1 1) rotate(0) translate(4 166)">
<title>panda::Photon::book</title>
<polygon fill="white" stroke="none" points="-4,4 -4,-166 636.706,-166 636.706,4 -4,4"/>
<!-- Node1 -->
<g id="node1" class="node"><title>Node1</title>
<polygon fill="#bfbfbf" stroke="black" points="-2.84217e-14,-70.5 -2.84217e-14,-90.5 108.272,-90.5 108.272,-70.5 -2.84217e-14,-70.5"/>
<text text-anchor="middle" x="54.136" y="-77.5" font-family="Helvetica,sans-Serif" font-size="10.00">panda::Photon::book</text>
</g>
<!-- Node2 -->
<g id="node2" class="node"><title>Node2</title>
<g id="a_node2"><a xlink:href="classpanda_1_1Particle.html#aaf351374f253978216b4a893a1766a64" target="_top" xlink:title="Book new branches to the tree corresponding to the variables of this object. ">
<polygon fill="white" stroke="black" points="157.329,-90.5 157.329,-110.5 267.25,-110.5 267.25,-90.5 157.329,-90.5"/>
<text text-anchor="middle" x="212.289" y="-97.5" font-family="Helvetica,sans-Serif" font-size="10.00">panda::Particle::book</text>
</a>
</g>
</g>
<!-- Node1&#45;&gt;Node2 -->
<g id="edge1" class="edge"><title>Node1&#45;&gt;Node2</title>
<path fill="none" stroke="midnightblue" d="M108.438,-87.3269C120.848,-88.9163 134.189,-90.625 147.016,-92.2679"/>
<polygon fill="midnightblue" stroke="midnightblue" points="146.802,-95.769 157.166,-93.5679 147.692,-88.8258 146.802,-95.769"/>
</g>
<!-- Node4 -->
<g id="node4" class="node"><title>Node4</title>
<g id="a_node4"><a xlink:href="classpanda_1_1utils_1_1StoreManager.html#a6f30ec459d951e84a1196b7e2ffdcf49" target="_top" xlink:title="panda::utils::StoreManager\l::getName">
<polygon fill="white" stroke="black" points="316.307,-129.5 316.307,-161.5 452.342,-161.5 452.342,-129.5 316.307,-129.5"/>
<text text-anchor="start" x="324.307" y="-148.5" font-family="Helvetica,sans-Serif" font-size="10.00">panda::utils::StoreManager</text>
<text text-anchor="middle" x="384.324" y="-136.5" font-family="Helvetica,sans-Serif" font-size="10.00">::getName</text>
</a>
</g>
</g>
<!-- Node1&#45;&gt;Node4 -->
<g id="edge7" class="edge"><title>Node1&#45;&gt;Node4</title>
<path fill="none" stroke="midnightblue" d="M72.9456,-90.5343C90.5054,-99.9287 118.394,-113.532 144.272,-120.5 197.108,-134.726 258.537,-140.937 305.893,-143.612"/>
<polygon fill="midnightblue" stroke="midnightblue" points="305.912,-147.118 316.081,-144.146 306.278,-140.128 305.912,-147.118"/>
</g>
<!-- Node5 -->
<g id="node5" class="node"><title>Node5</title>
<g id="a_node5"><a xlink:href="namespacepanda_1_1utils.html#aaa6c7cd5892388e6ffdf713b11abf793" target="_top" xlink:title="Book the branch. ">
<polygon fill="white" stroke="black" points="337.142,-51.5 337.142,-71.5 431.506,-71.5 431.506,-51.5 337.142,-51.5"/>
<text text-anchor="middle" x="384.324" y="-58.5" font-family="Helvetica,sans-Serif" font-size="10.00">panda::utils::book</text>
</a>
</g>
</g>
<!-- Node1&#45;&gt;Node5 -->
<g id="edge8" class="edge"><title>Node1&#45;&gt;Node5</title>
<path fill="none" stroke="midnightblue" d="M108.596,-77.405C168.605,-73.9309 265.563,-68.3176 326.798,-64.7725"/>
<polygon fill="midnightblue" stroke="midnightblue" points="327.272,-68.251 337.053,-64.1788 326.867,-61.2627 327.272,-68.251"/>
</g>
<!-- Node8 -->
<g id="node8" class="node"><title>Node8</title>
<g id="a_node8"><a xlink:href="classpanda_1_1utils_1_1StoreManager.html#ae6c8fb6b0c3d25147b09ef8b92b61da8" target="_top" xlink:title="panda::utils::StoreManager\l::getData">
<polygon fill="white" stroke="black" points="144.272,-0.5 144.272,-32.5 280.307,-32.5 280.307,-0.5 144.272,-0.5"/>
<text text-anchor="start" x="152.272" y="-19.5" font-family="Helvetica,sans-Serif" font-size="10.00">panda::utils::StoreManager</text>
<text text-anchor="middle" x="212.289" y="-7.5" font-family="Helvetica,sans-Serif" font-size="10.00">::getData</text>
</a>
</g>
</g>
<!-- Node1&#45;&gt;Node8 -->
<g id="edge9" class="edge"><title>Node1&#45;&gt;Node8</title>
<path fill="none" stroke="midnightblue" d="M79.879,-70.359C102.034,-61.2786 135.165,-47.7 162.616,-36.449"/>
<polygon fill="midnightblue" stroke="midnightblue" points="164.136,-39.6086 172.062,-32.5776 161.481,-33.1315 164.136,-39.6086"/>
</g>
<!-- Node3 -->
<g id="node3" class="node"><title>Node3</title>
<g id="a_node3"><a xlink:href="classpanda_1_1Object.html#a2fcd6665633deef16e86aa4e49135dd7" target="_top" xlink:title="Book new branches to the tree corresponding to the variables of this object. ">
<polygon fill="white" stroke="black" points="331.583,-90.5 331.583,-110.5 437.066,-110.5 437.066,-90.5 331.583,-90.5"/>
<text text-anchor="middle" x="384.324" y="-97.5" font-family="Helvetica,sans-Serif" font-size="10.00">panda::Object::book</text>
</a>
</g>
</g>
<!-- Node2&#45;&gt;Node3 -->
<g id="edge2" class="edge"><title>Node2&#45;&gt;Node3</title>
<path fill="none" stroke="midnightblue" d="M267.557,-100.5C284.619,-100.5 303.59,-100.5 321.155,-100.5"/>
<polygon fill="midnightblue" stroke="midnightblue" points="321.31,-104 331.31,-100.5 321.31,-97.0001 321.31,-104"/>
</g>
<!-- Node2&#45;&gt;Node4 -->
<g id="edge3" class="edge"><title>Node2&#45;&gt;Node4</title>
<path fill="none" stroke="midnightblue" d="M251.449,-110.599C269.538,-115.386 291.742,-121.263 312.737,-126.819"/>
<polygon fill="midnightblue" stroke="midnightblue" points="312.037,-130.254 322.6,-129.429 313.828,-123.487 312.037,-130.254"/>
</g>
<!-- Node2&#45;&gt;Node5 -->
<g id="edge4" class="edge"><title>Node2&#45;&gt;Node5</title>
<path fill="none" stroke="midnightblue" d="M257.078,-90.4565C279.291,-85.3615 306.46,-79.1301 329.895,-73.7549"/>
<polygon fill="midnightblue" stroke="midnightblue" points="330.72,-77.1565 339.685,-71.5094 329.155,-70.3337 330.72,-77.1565"/>
</g>
<!-- Node6 -->
<g id="node6" class="node"><title>Node6</title>
<g id="a_node6"><a xlink:href="classpanda_1_1utils_1_1BranchName.html#a6cc8a6df7c5b12a0221fd49773cca6a7" target="_top" xlink:title="Is the name included and not vetoed? ">
<polygon fill="white" stroke="black" points="488.342,-74.5 488.342,-94.5 632.706,-94.5 632.706,-74.5 488.342,-74.5"/>
<text text-anchor="middle" x="560.524" y="-81.5" font-family="Helvetica,sans-Serif" font-size="10.00">panda::utils::BranchName::in</text>
</a>
</g>
</g>
<!-- Node5&#45;&gt;Node6 -->
<g id="edge5" class="edge"><title>Node5&#45;&gt;Node6</title>
<path fill="none" stroke="midnightblue" d="M431.549,-67.6032C445.907,-69.4988 462.18,-71.6474 478.192,-73.7616"/>
<polygon fill="midnightblue" stroke="midnightblue" points="477.737,-77.2317 488.109,-75.0709 478.653,-70.2919 477.737,-77.2317"/>
</g>
<!-- Node7 -->
<g id="node7" class="node"><title>Node7</title>
<g id="a_node7"><a xlink:href="classpanda_1_1utils_1_1BranchName.html#a13958ff4a9d554d2c057c600b4f70412" target="_top" xlink:title="Prepend the branch name with &lt;objName.&gt;. ">
<polygon fill="white" stroke="black" points="495.01,-23.5 495.01,-55.5 626.038,-55.5 626.038,-23.5 495.01,-23.5"/>
<text text-anchor="start" x="503.01" y="-42.5" font-family="Helvetica,sans-Serif" font-size="10.00">panda::utils::BranchName</text>
<text text-anchor="middle" x="560.524" y="-30.5" font-family="Helvetica,sans-Serif" font-size="10.00">::fullName</text>
</a>
</g>
</g>
<!-- Node5&#45;&gt;Node7 -->
<g id="edge6" class="edge"><title>Node5&#45;&gt;Node7</title>
<path fill="none" stroke="midnightblue" d="M431.549,-55.6622C447.878,-53.6 466.686,-51.2247 484.769,-48.9409"/>
<polygon fill="midnightblue" stroke="midnightblue" points="485.238,-52.4096 494.72,-47.6842 484.361,-45.4648 485.238,-52.4096"/>
</g>
</g>
</svg>
