<?xml version="1.0" encoding="UTF-8" standalone="no"?>
<!DOCTYPE svg PUBLIC "-//W3C//DTD SVG 1.1//EN"
 "http://www.w3.org/Graphics/SVG/1.1/DTD/svg11.dtd">
<!-- Generated by graphviz version 2.38.0 (20140413.2041)
 -->
<!-- Title: panda::TreeEntry::book Pages: 1 -->
<svg width="341pt" height="41pt"
 viewBox="0.00 0.00 340.83 41.00" xmlns="http://www.w3.org/2000/svg" xmlns:xlink="http://www.w3.org/1999/xlink">
<g id="graph0" class="graph" transform="scale(1 1) rotate(0) translate(4 37)">
<title>panda::TreeEntry::book</title>
<polygon fill="white" stroke="none" points="-4,4 -4,-37 336.827,-37 336.827,4 -4,4"/>
<!-- Node1 -->
<g id="node1" class="node"><title>Node1</title>
<polygon fill="#bfbfbf" stroke="black" points="7.10543e-15,-6.5 7.10543e-15,-26.5 120.48,-26.5 120.48,-6.5 7.10543e-15,-6.5"/>
<text text-anchor="middle" x="60.24" y="-13.5" font-family="Helvetica,sans-Serif" font-size="10.00">panda::TreeEntry::book</text>
</g>
<!-- Node2 -->
<g id="node2" class="node"><title>Node2</title>
<g id="a_node2"><a xlink:href="classpanda_1_1FileMerger.html#a13a672d0fef3317ce4335d6a56f4229b" target="_top" xlink:title="Run the merger. ">
<polygon fill="white" stroke="black" points="156.48,-0.5 156.48,-32.5 259.161,-32.5 259.161,-0.5 156.48,-0.5"/>
<text text-anchor="start" x="164.48" y="-19.5" font-family="Helvetica,sans-Serif" font-size="10.00">panda::FileMerger::</text>
<text text-anchor="middle" x="207.82" y="-7.5" font-family="Helvetica,sans-Serif" font-size="10.00">merge</text>
</a>
</g>
</g>
<!-- Node1&#45;&gt;Node2 -->
<g id="edge1" class="edge"><title>Node1&#45;&gt;Node2</title>
<path fill="none" stroke="midnightblue" d="M130.895,-16.5C139.48,-16.5 148.123,-16.5 156.346,-16.5"/>
<polygon fill="midnightblue" stroke="midnightblue" points="130.873,-13.0001 120.873,-16.5 130.873,-20.0001 130.873,-13.0001"/>
</g>
<!-- Node3 -->
<g id="node3" class="node"><title>Node3</title>
<g id="a_node3"><a xlink:href="padd_8cc.html#a2201d4f3fe424b79dbb580041d738741" target="_top" xlink:title="main">
<polygon fill="white" stroke="black" points="295.161,-6.5 295.161,-26.5 332.827,-26.5 332.827,-6.5 295.161,-6.5"/>
<text text-anchor="middle" x="313.994" y="-13.5" font-family="Helvetica,sans-Serif" font-size="10.00">main</text>
</a>
</g>
</g>
<!-- Node2&#45;&gt;Node3 -->
<g id="edge2" class="edge"><title>Node2&#45;&gt;Node3</title>
<path fill="none" stroke="midnightblue" d="M269.43,-16.5C278.612,-16.5 287.429,-16.5 294.701,-16.5"/>
<polygon fill="midnightblue" stroke="midnightblue" points="269.381,-13.0001 259.381,-16.5 269.381,-20.0001 269.381,-13.0001"/>
</g>
</g>
</svg>
