<?xml version="1.0" encoding="UTF-8" standalone="no"?>
<!DOCTYPE svg PUBLIC "-//W3C//DTD SVG 1.1//EN"
 "http://www.w3.org/Graphics/SVG/1.1/DTD/svg11.dtd">
<!-- Generated by graphviz version 2.38.0 (20140413.2041)
 -->
<!-- Title: panda::ParticleM::m Pages: 1 -->
<svg width="307pt" height="68pt"
 viewBox="0.00 0.00 306.62 68.00" xmlns="http://www.w3.org/2000/svg" xmlns:xlink="http://www.w3.org/1999/xlink">
<g id="graph0" class="graph" transform="scale(1 1) rotate(0) translate(4 64)">
<title>panda::ParticleM::m</title>
<polygon fill="white" stroke="none" points="-4,4 -4,-64 302.625,-64 302.625,4 -4,4"/>
<!-- Node1 -->
<g id="node1" class="node"><title>Node1</title>
<polygon fill="#bfbfbf" stroke="black" points="-7.10543e-15,-19.5 -7.10543e-15,-39.5 104.902,-39.5 104.902,-19.5 -7.10543e-15,-19.5"/>
<text text-anchor="middle" x="52.451" y="-26.5" font-family="Helvetica,sans-Serif" font-size="10.00">panda::ParticleM::m</text>
</g>
<!-- Node2 -->
<g id="node2" class="node"><title>Node2</title>
<g id="a_node2"><a xlink:href="classpanda_1_1PFCand.html#a5c5f399c11e2f6aa60e8f1c093946cc0" target="_top" xlink:title="panda::PFCand::puppiP4">
<polygon fill="white" stroke="black" points="155.629,-39.5 155.629,-59.5 283.897,-59.5 283.897,-39.5 155.629,-39.5"/>
<text text-anchor="middle" x="219.763" y="-46.5" font-family="Helvetica,sans-Serif" font-size="10.00">panda::PFCand::puppiP4</text>
</a>
</g>
</g>
<!-- Node1&#45;&gt;Node2 -->
<g id="edge1" class="edge"><title>Node1&#45;&gt;Node2</title>
<path fill="none" stroke="midnightblue" d="M115.58,-37.0166C128.623,-38.5945 142.393,-40.2605 155.477,-41.8434"/>
<polygon fill="midnightblue" stroke="midnightblue" points="115.651,-33.4997 105.303,-35.7733 114.811,-40.4491 115.651,-33.4997"/>
</g>
<!-- Node3 -->
<g id="node3" class="node"><title>Node3</title>
<g id="a_node3"><a xlink:href="classpanda_1_1PFCand.html#a3091b11c1f77e1a3ab0ed5954baa5354" target="_top" xlink:title="panda::PFCand::puppiNoLepP4">
<polygon fill="white" stroke="black" points="140.902,-0.5 140.902,-20.5 298.625,-20.5 298.625,-0.5 140.902,-0.5"/>
<text text-anchor="middle" x="219.763" y="-7.5" font-family="Helvetica,sans-Serif" font-size="10.00">panda::PFCand::puppiNoLepP4</text>
</a>
</g>
</g>
<!-- Node1&#45;&gt;Node3 -->
<g id="edge2" class="edge"><title>Node1&#45;&gt;Node3</title>
<path fill="none" stroke="midnightblue" d="M115.273,-22.3945C123.59,-21.4387 132.207,-20.4482 140.758,-19.4655"/>
<polygon fill="midnightblue" stroke="midnightblue" points="114.838,-18.9214 105.303,-23.5404 115.638,-25.8756 114.838,-18.9214"/>
</g>
</g>
</svg>
