<?xml version="1.0" encoding="UTF-8" standalone="no"?>
<!DOCTYPE svg PUBLIC "-//W3C//DTD SVG 1.1//EN"
 "http://www.w3.org/Graphics/SVG/1.1/DTD/svg11.dtd">
<!-- Generated by graphviz version 2.38.0 (20140413.2041)
 -->
<!-- Title: panda::GenJet::init Pages: 1 -->
<svg width="523pt" height="29pt"
 viewBox="0.00 0.00 522.87 29.00" xmlns="http://www.w3.org/2000/svg" xmlns:xlink="http://www.w3.org/1999/xlink">
<g id="graph0" class="graph" transform="scale(1 1) rotate(0) translate(4 25)">
<title>panda::GenJet::init</title>
<polygon fill="white" stroke="none" points="-4,4 -4,-25 518.873,-25 518.873,4 -4,4"/>
<!-- Node1 -->
<g id="node1" class="node"><title>Node1</title>
<polygon fill="#bfbfbf" stroke="black" points="7.10543e-15,-0.5 7.10543e-15,-20.5 99.922,-20.5 99.922,-0.5 7.10543e-15,-0.5"/>
<text text-anchor="middle" x="49.961" y="-7.5" font-family="Helvetica,sans-Serif" font-size="10.00">panda::GenJet::init</text>
</g>
<!-- Node2 -->
<g id="node2" class="node"><title>Node2</title>
<g id="a_node2"><a xlink:href="classpanda_1_1ParticleM.html#a92df7a2653432fa4d304039e1e62c41b" target="_top" xlink:title="Reset object state. ">
<polygon fill="white" stroke="black" points="135.922,-0.5 135.922,-20.5 245.271,-20.5 245.271,-0.5 135.922,-0.5"/>
<text text-anchor="middle" x="190.596" y="-7.5" font-family="Helvetica,sans-Serif" font-size="10.00">panda::ParticleM::init</text>
</a>
</g>
</g>
<!-- Node1&#45;&gt;Node2 -->
<g id="edge1" class="edge"><title>Node1&#45;&gt;Node2</title>
<path fill="none" stroke="midnightblue" d="M100.229,-10.5C108.418,-10.5 117.015,-10.5 125.508,-10.5"/>
<polygon fill="midnightblue" stroke="midnightblue" points="125.779,-14.0001 135.779,-10.5 125.779,-7.0001 125.779,-14.0001"/>
</g>
<!-- Node3 -->
<g id="node3" class="node"><title>Node3</title>
<g id="a_node3"><a xlink:href="classpanda_1_1Particle.html#a56ba0060e9e37322f98e2f30c3583dd3" target="_top" xlink:title="Reset object state. ">
<polygon fill="white" stroke="black" points="281.271,-0.5 281.271,-20.5 382.291,-20.5 382.291,-0.5 281.271,-0.5"/>
<text text-anchor="middle" x="331.781" y="-7.5" font-family="Helvetica,sans-Serif" font-size="10.00">panda::Particle::init</text>
</a>
</g>
</g>
<!-- Node2&#45;&gt;Node3 -->
<g id="edge2" class="edge"><title>Node2&#45;&gt;Node3</title>
<path fill="none" stroke="midnightblue" d="M245.409,-10.5C253.784,-10.5 262.481,-10.5 270.98,-10.5"/>
<polygon fill="midnightblue" stroke="midnightblue" points="271.212,-14.0001 281.212,-10.5 271.212,-7.0001 271.212,-14.0001"/>
</g>
<!-- Node4 -->
<g id="node4" class="node"><title>Node4</title>
<g id="a_node4"><a xlink:href="classpanda_1_1Object.html#a204960e5f165a28176f9b4a42b9ea90c" target="_top" xlink:title="Reset object state. ">
<polygon fill="white" stroke="black" points="418.291,-0.5 418.291,-20.5 514.873,-20.5 514.873,-0.5 418.291,-0.5"/>
<text text-anchor="middle" x="466.582" y="-7.5" font-family="Helvetica,sans-Serif" font-size="10.00">panda::Object::init</text>
</a>
</g>
</g>
<!-- Node3&#45;&gt;Node4 -->
<g id="edge3" class="edge"><title>Node3&#45;&gt;Node4</title>
<path fill="none" stroke="midnightblue" d="M382.609,-10.5C390.876,-10.5 399.51,-10.5 407.951,-10.5"/>
<polygon fill="midnightblue" stroke="midnightblue" points="408.114,-14.0001 418.114,-10.5 408.114,-7.0001 408.114,-14.0001"/>
</g>
</g>
</svg>
