<?xml version="1.0" encoding="UTF-8" standalone="no"?>
<!DOCTYPE svg PUBLIC "-//W3C//DTD SVG 1.1//EN"
 "http://www.w3.org/Graphics/SVG/1.1/DTD/svg11.dtd">
<!-- Generated by graphviz version 2.38.0 (20140413.2041)
 -->
<!-- Title: panda.output.FileOutput.write_custom_block Pages: 1 -->
<svg width="354pt" height="146pt"
 viewBox="0.00 0.00 353.86 146.00" xmlns="http://www.w3.org/2000/svg" xmlns:xlink="http://www.w3.org/1999/xlink">
<g id="graph0" class="graph" transform="scale(1 1) rotate(0) translate(4 142)">
<title>panda.output.FileOutput.write_custom_block</title>
<polygon fill="white" stroke="none" points="-4,4 -4,-142 349.858,-142 349.858,4 -4,4"/>
<!-- Node1 -->
<g id="node1" class="node"><title>Node1</title>
<polygon fill="#bfbfbf" stroke="black" points="2.84217e-14,-52.5 2.84217e-14,-84.5 147.151,-84.5 147.151,-52.5 2.84217e-14,-52.5"/>
<text text-anchor="start" x="8" y="-71.5" font-family="Helvetica,sans-Serif" font-size="10.00">panda.output.FileOutput.write</text>
<text text-anchor="middle" x="73.5755" y="-59.5" font-family="Helvetica,sans-Serif" font-size="10.00">_custom_block</text>
</g>
<!-- Node2 -->
<g id="node2" class="node"><title>Node2</title>
<g id="a_node2"><a xlink:href="classpanda_1_1constexpr_1_1Assert.html#ab535b06851576004a78a9f3088359530" target="_top" xlink:title="panda.constexpr.Assert.write">
<polygon fill="white" stroke="black" points="192.046,-117.5 192.046,-137.5 336.963,-137.5 336.963,-117.5 192.046,-117.5"/>
<text text-anchor="middle" x="264.505" y="-124.5" font-family="Helvetica,sans-Serif" font-size="10.00">panda.constexpr.Assert.write</text>
</a>
</g>
</g>
<!-- Node1&#45;&gt;Node2 -->
<g id="edge1" class="edge"><title>Node1&#45;&gt;Node2</title>
<path fill="none" stroke="midnightblue" d="M114.658,-84.5838C134.981,-92.4003 160.166,-101.576 183.151,-108.5 190.86,-110.822 199.054,-113.04 207.149,-115.087"/>
<polygon fill="midnightblue" stroke="midnightblue" points="206.388,-118.504 216.935,-117.496 208.061,-111.707 206.388,-118.504"/>
</g>
<!-- Node3 -->
<g id="node3" class="node"><title>Node3</title>
<g id="a_node3"><a xlink:href="classpanda_1_1oneliner_1_1OneLiner.html#a026195694925c3b8a4a38f5102575fc5" target="_top" xlink:title="panda.oneliner.OneLiner.write">
<polygon fill="white" stroke="black" points="189.544,-78.5 189.544,-98.5 339.465,-98.5 339.465,-78.5 189.544,-78.5"/>
<text text-anchor="middle" x="264.505" y="-85.5" font-family="Helvetica,sans-Serif" font-size="10.00">panda.oneliner.OneLiner.write</text>
</a>
</g>
</g>
<!-- Node1&#45;&gt;Node3 -->
<g id="edge2" class="edge"><title>Node1&#45;&gt;Node3</title>
<path fill="none" stroke="midnightblue" d="M147.35,-76.2039C157.827,-77.313 168.68,-78.4619 179.356,-79.592"/>
<polygon fill="midnightblue" stroke="midnightblue" points="179.205,-83.0956 189.518,-80.6678 179.942,-76.1345 179.205,-83.0956"/>
</g>
<!-- Node4 -->
<g id="node4" class="node"><title>Node4</title>
<g id="a_node4"><a xlink:href="classpanda_1_1output_1_1FileOutput.html#a903b32a44c82b5ce603ce92a4938790f" target="_top" xlink:title="panda.output.FileOutput.write">
<polygon fill="white" stroke="black" points="190.929,-39.5 190.929,-59.5 338.08,-59.5 338.08,-39.5 190.929,-39.5"/>
<text text-anchor="middle" x="264.505" y="-46.5" font-family="Helvetica,sans-Serif" font-size="10.00">panda.output.FileOutput.write</text>
</a>
</g>
</g>
<!-- Node1&#45;&gt;Node4 -->
<g id="edge3" class="edge"><title>Node1&#45;&gt;Node4</title>
<path fill="none" stroke="midnightblue" d="M147.35,-61.1813C158.253,-60.0848 169.564,-58.9473 180.658,-57.8316"/>
<polygon fill="midnightblue" stroke="midnightblue" points="181.168,-61.2981 190.767,-56.815 180.467,-54.3332 181.168,-61.2981"/>
</g>
<!-- Node5 -->
<g id="node5" class="node"><title>Node5</title>
<g id="a_node5"><a xlink:href="classpanda_1_1output_1_1FileOutput.html#ad3bb366a95568f2e4cb2954c88baf039" target="_top" xlink:title="panda.output.FileOutput.writeline">
<polygon fill="white" stroke="black" points="183.151,-0.5 183.151,-20.5 345.858,-20.5 345.858,-0.5 183.151,-0.5"/>
<text text-anchor="middle" x="264.505" y="-7.5" font-family="Helvetica,sans-Serif" font-size="10.00">panda.output.FileOutput.writeline</text>
</a>
</g>
</g>
<!-- Node1&#45;&gt;Node5 -->
<g id="edge4" class="edge"><title>Node1&#45;&gt;Node5</title>
<path fill="none" stroke="midnightblue" d="M117.599,-52.4106C137.42,-45.2652 161.337,-37.0169 183.151,-30.5 191.85,-27.9011 201.148,-25.3673 210.219,-23.0246"/>
<polygon fill="midnightblue" stroke="midnightblue" points="211.1,-26.4121 219.934,-20.5635 209.381,-19.6264 211.1,-26.4121"/>
</g>
</g>
</svg>
