<?xml version="1.0" encoding="UTF-8" standalone="no"?>
<!DOCTYPE svg PUBLIC "-//W3C//DTD SVG 1.1//EN"
 "http://www.w3.org/Graphics/SVG/1.1/DTD/svg11.dtd">
<!-- Generated by graphviz version 2.38.0 (20140413.2041)
 -->
<!-- Title: panda::PFCand::puppiP4 Pages: 1 -->
<svg width="410pt" height="86pt"
 viewBox="0.00 0.00 409.74 86.00" xmlns="http://www.w3.org/2000/svg" xmlns:xlink="http://www.w3.org/1999/xlink">
<g id="graph0" class="graph" transform="scale(1 1) rotate(0) translate(4 82)">
<title>panda::PFCand::puppiP4</title>
<polygon fill="white" stroke="none" points="-4,4 -4,-82 405.743,-82 405.743,4 -4,4"/>
<!-- Node1 -->
<g id="node1" class="node"><title>Node1</title>
<polygon fill="#bfbfbf" stroke="black" points="2.84217e-14,-19.5 2.84217e-14,-39.5 128.268,-39.5 128.268,-19.5 2.84217e-14,-19.5"/>
<text text-anchor="middle" x="64.134" y="-26.5" font-family="Helvetica,sans-Serif" font-size="10.00">panda::PFCand::puppiP4</text>
</g>
<!-- Node2 -->
<g id="node2" class="node"><title>Node2</title>
<g id="a_node2"><a xlink:href="classpanda_1_1Particle.html#aab2f22a57738ea3b2d3226e72c150a99" target="_top" xlink:title="panda::Particle::p4">
<polygon fill="white" stroke="black" points="167.038,-39.5 167.038,-59.5 266.4,-59.5 266.4,-39.5 167.038,-39.5"/>
<text text-anchor="middle" x="216.719" y="-46.5" font-family="Helvetica,sans-Serif" font-size="10.00">panda::Particle::p4</text>
</a>
</g>
</g>
<!-- Node1&#45;&gt;Node2 -->
<g id="edge1" class="edge"><title>Node1&#45;&gt;Node2</title>
<path fill="none" stroke="midnightblue" d="M128.559,-37.9238C138.004,-39.1782 147.704,-40.4665 157.045,-41.7071"/>
<polygon fill="midnightblue" stroke="midnightblue" points="156.637,-45.1836 167.01,-43.0307 157.558,-38.2445 156.637,-45.1836"/>
</g>
<!-- Node4 -->
<g id="node4" class="node"><title>Node4</title>
<g id="a_node4"><a xlink:href="classpanda_1_1ParticleM.html#a3285647972bb49a26897e300f990b902" target="_top" xlink:title="panda::ParticleM::m">
<polygon fill="white" stroke="black" points="164.268,-0.5 164.268,-20.5 269.17,-20.5 269.17,-0.5 164.268,-0.5"/>
<text text-anchor="middle" x="216.719" y="-7.5" font-family="Helvetica,sans-Serif" font-size="10.00">panda::ParticleM::m</text>
</a>
</g>
</g>
<!-- Node1&#45;&gt;Node4 -->
<g id="edge4" class="edge"><title>Node1&#45;&gt;Node4</title>
<path fill="none" stroke="midnightblue" d="M128.559,-21.4974C137.016,-20.4303 145.679,-19.3373 154.105,-18.2742"/>
<polygon fill="midnightblue" stroke="midnightblue" points="154.752,-21.7203 164.235,-16.996 153.876,-14.7754 154.752,-21.7203"/>
</g>
<!-- Node2&#45;&gt;Node2 -->
<g id="edge2" class="edge"><title>Node2&#45;&gt;Node2</title>
<path fill="none" stroke="midnightblue" d="M195.427,-59.7271C185.716,-68.6067 192.813,-78 216.719,-78 232.034,-78 240.45,-74.145 241.968,-69.0396"/>
<polygon fill="midnightblue" stroke="midnightblue" points="245.143,-67.5613 238.011,-59.7271 238.701,-70.2994 245.143,-67.5613"/>
</g>
<!-- Node3 -->
<g id="node3" class="node"><title>Node3</title>
<g id="a_node3"><a xlink:href="classpanda_1_1Particle.html#aa793c05fc1334ed462e18c794339eebf" target="_top" xlink:title="panda::Particle::m">
<polygon fill="white" stroke="black" points="305.17,-39.5 305.17,-59.5 401.743,-59.5 401.743,-39.5 305.17,-39.5"/>
<text text-anchor="middle" x="353.456" y="-46.5" font-family="Helvetica,sans-Serif" font-size="10.00">panda::Particle::m</text>
</a>
</g>
</g>
<!-- Node2&#45;&gt;Node3 -->
<g id="edge3" class="edge"><title>Node2&#45;&gt;Node3</title>
<path fill="none" stroke="midnightblue" d="M266.743,-49.5C275.916,-49.5 285.58,-49.5 294.981,-49.5"/>
<polygon fill="midnightblue" stroke="midnightblue" points="295.043,-53.0001 305.043,-49.5 295.043,-46.0001 295.043,-53.0001"/>
</g>
</g>
</svg>
