<?xml version="1.0" encoding="UTF-8" standalone="no"?>
<!DOCTYPE svg PUBLIC "-//W3C//DTD SVG 1.1//EN"
 "http://www.w3.org/Graphics/SVG/1.1/DTD/svg11.dtd">
<!-- Generated by graphviz version 2.38.0 (20140413.2041)
 -->
<!-- Title: panda::MetFilters::releaseTree Pages: 1 -->
<svg width="447pt" height="74pt"
 viewBox="0.00 0.00 446.97 74.00" xmlns="http://www.w3.org/2000/svg" xmlns:xlink="http://www.w3.org/1999/xlink">
<g id="graph0" class="graph" transform="scale(1 1) rotate(0) translate(4 70)">
<title>panda::MetFilters::releaseTree</title>
<polygon fill="white" stroke="none" points="-4,4 -4,-70 442.966,-70 442.966,4 -4,4"/>
<!-- Node1 -->
<g id="node1" class="node"><title>Node1</title>
<polygon fill="#bfbfbf" stroke="black" points="1.42109e-14,-19.5 1.42109e-14,-51.5 98.792,-51.5 98.792,-19.5 1.42109e-14,-19.5"/>
<text text-anchor="start" x="8" y="-38.5" font-family="Helvetica,sans-Serif" font-size="10.00">panda::MetFilters::</text>
<text text-anchor="middle" x="49.396" y="-26.5" font-family="Helvetica,sans-Serif" font-size="10.00">releaseTree</text>
</g>
<!-- Node2 -->
<g id="node2" class="node"><title>Node2</title>
<g id="a_node2"><a xlink:href="classpanda_1_1Object.html#aaf58438092b42a89b838ce12c6a23833" target="_top" xlink:title="Reset the branch pointer to unlink the branch from this object. ">
<polygon fill="white" stroke="black" points="134.792,-45.5 134.792,-65.5 271.938,-65.5 271.938,-45.5 134.792,-45.5"/>
<text text-anchor="middle" x="203.365" y="-52.5" font-family="Helvetica,sans-Serif" font-size="10.00">panda::Object::releaseTree</text>
</a>
</g>
</g>
<!-- Node1&#45;&gt;Node2 -->
<g id="edge1" class="edge"><title>Node1&#45;&gt;Node2</title>
<path fill="none" stroke="midnightblue" d="M98.8978,-41.8831C107.166,-42.9712 115.935,-44.1253 124.734,-45.2833"/>
<polygon fill="midnightblue" stroke="midnightblue" points="124.284,-48.7542 134.656,-46.589 125.198,-41.8141 124.284,-48.7542"/>
</g>
<!-- Node3 -->
<g id="node3" class="node"><title>Node3</title>
<g id="a_node3"><a xlink:href="namespacepanda_1_1utils.html#a82a8530e64fbdf917cf9b8659065f98b" target="_top" xlink:title="panda::utils::resetAddress">
<polygon fill="white" stroke="black" points="137.571,-6.5 137.571,-26.5 269.159,-26.5 269.159,-6.5 137.571,-6.5"/>
<text text-anchor="middle" x="203.365" y="-13.5" font-family="Helvetica,sans-Serif" font-size="10.00">panda::utils::resetAddress</text>
</a>
</g>
</g>
<!-- Node1&#45;&gt;Node3 -->
<g id="edge2" class="edge"><title>Node1&#45;&gt;Node3</title>
<path fill="none" stroke="midnightblue" d="M98.8978,-29.436C107.988,-28.2995 117.685,-27.0872 127.36,-25.8775"/>
<polygon fill="midnightblue" stroke="midnightblue" points="127.921,-29.3348 137.409,-24.6211 127.052,-22.3888 127.921,-29.3348"/>
</g>
<!-- Node4 -->
<g id="node4" class="node"><title>Node4</title>
<g id="a_node4"><a xlink:href="classpanda_1_1utils_1_1BranchName.html#a13958ff4a9d554d2c057c600b4f70412" target="_top" xlink:title="Prepend the branch name with &lt;objName.&gt;. ">
<polygon fill="white" stroke="black" points="307.938,-0.5 307.938,-32.5 438.966,-32.5 438.966,-0.5 307.938,-0.5"/>
<text text-anchor="start" x="315.938" y="-19.5" font-family="Helvetica,sans-Serif" font-size="10.00">panda::utils::BranchName</text>
<text text-anchor="middle" x="373.452" y="-7.5" font-family="Helvetica,sans-Serif" font-size="10.00">::fullName</text>
</a>
</g>
</g>
<!-- Node3&#45;&gt;Node4 -->
<g id="edge3" class="edge"><title>Node3&#45;&gt;Node4</title>
<path fill="none" stroke="midnightblue" d="M269.352,-16.5C278.646,-16.5 288.269,-16.5 297.732,-16.5"/>
<polygon fill="midnightblue" stroke="midnightblue" points="297.915,-20.0001 307.915,-16.5 297.915,-13.0001 297.915,-20.0001"/>
</g>
</g>
</svg>
