<?xml version="1.0" encoding="UTF-8" standalone="no"?>
<!DOCTYPE svg PUBLIC "-//W3C//DTD SVG 1.1//EN"
 "http://www.w3.org/Graphics/SVG/1.1/DTD/svg11.dtd">
<!-- Generated by graphviz version 2.38.0 (20140413.2041)
 -->
<!-- Title: panda::Parton::operator= Pages: 1 -->
<svg width="644pt" height="41pt"
 viewBox="0.00 0.00 643.76 41.00" xmlns="http://www.w3.org/2000/svg" xmlns:xlink="http://www.w3.org/1999/xlink">
<g id="graph0" class="graph" transform="scale(1 1) rotate(0) translate(4 37)">
<title>panda::Parton::operator=</title>
<polygon fill="white" stroke="none" points="-4,4 -4,-37 639.762,-37 639.762,4 -4,4"/>
<!-- Node1 -->
<g id="node1" class="node"><title>Node1</title>
<polygon fill="#bfbfbf" stroke="black" points="-4.26326e-14,-6.5 -4.26326e-14,-26.5 127.436,-26.5 127.436,-6.5 -4.26326e-14,-6.5"/>
<text text-anchor="middle" x="63.718" y="-13.5" font-family="Helvetica,sans-Serif" font-size="10.00">panda::Parton::operator=</text>
</g>
<!-- Node2 -->
<g id="node2" class="node"><title>Node2</title>
<g id="a_node2"><a xlink:href="classpanda_1_1ParticleM.html#a37f7be4e1150b6080b47b005af730af5" target="_top" xlink:title="panda::ParticleM::operator=">
<polygon fill="white" stroke="black" points="163.436,-6.5 163.436,-26.5 303.08,-26.5 303.08,-6.5 163.436,-6.5"/>
<text text-anchor="middle" x="233.258" y="-13.5" font-family="Helvetica,sans-Serif" font-size="10.00">panda::ParticleM::operator=</text>
</a>
</g>
</g>
<!-- Node1&#45;&gt;Node2 -->
<g id="edge1" class="edge"><title>Node1&#45;&gt;Node2</title>
<path fill="none" stroke="midnightblue" d="M127.58,-16.5C135.989,-16.5 144.698,-16.5 153.339,-16.5"/>
<polygon fill="midnightblue" stroke="midnightblue" points="153.428,-20.0001 163.427,-16.5 153.427,-13.0001 153.428,-20.0001"/>
</g>
<!-- Node3 -->
<g id="node3" class="node"><title>Node3</title>
<g id="a_node3"><a xlink:href="classpanda_1_1Particle.html#a8c4fabfceb39b746b0e68a7389e662c4" target="_top" xlink:title="panda::Particle::operator=">
<polygon fill="white" stroke="black" points="339.08,-6.5 339.08,-26.5 470.395,-26.5 470.395,-6.5 339.08,-6.5"/>
<text text-anchor="middle" x="404.737" y="-13.5" font-family="Helvetica,sans-Serif" font-size="10.00">panda::Particle::operator=</text>
</a>
</g>
</g>
<!-- Node2&#45;&gt;Node3 -->
<g id="edge2" class="edge"><title>Node2&#45;&gt;Node3</title>
<path fill="none" stroke="midnightblue" d="M303.192,-16.5C311.596,-16.5 320.216,-16.5 328.704,-16.5"/>
<polygon fill="midnightblue" stroke="midnightblue" points="328.969,-20.0001 338.969,-16.5 328.969,-13.0001 328.969,-20.0001"/>
</g>
<!-- Node4 -->
<g id="node4" class="node"><title>Node4</title>
<g id="a_node4"><a xlink:href="classpanda_1_1ContainerElement.html#ae8ba59e4cb5d7c1d491fc87c9360f039" target="_top" xlink:title="panda::ContainerElement\l::operator=">
<polygon fill="white" stroke="black" points="506.395,-0.5 506.395,-32.5 635.762,-32.5 635.762,-0.5 506.395,-0.5"/>
<text text-anchor="start" x="514.395" y="-19.5" font-family="Helvetica,sans-Serif" font-size="10.00">panda::ContainerElement</text>
<text text-anchor="middle" x="571.078" y="-7.5" font-family="Helvetica,sans-Serif" font-size="10.00">::operator=</text>
</a>
</g>
</g>
<!-- Node3&#45;&gt;Node4 -->
<g id="edge3" class="edge"><title>Node3&#45;&gt;Node4</title>
<path fill="none" stroke="midnightblue" d="M470.689,-16.5C478.981,-16.5 487.518,-16.5 495.942,-16.5"/>
<polygon fill="midnightblue" stroke="midnightblue" points="496.136,-20.0001 506.136,-16.5 496.136,-13.0001 496.136,-20.0001"/>
</g>
</g>
</svg>
