<?xml version="1.0" encoding="UTF-8" standalone="no"?>
<!DOCTYPE svg PUBLIC "-//W3C//DTD SVG 1.1//EN"
 "http://www.w3.org/Graphics/SVG/1.1/DTD/svg11.dtd">
<!-- Generated by graphviz version 2.38.0 (20140413.2041)
 -->
<!-- Title: panda::MicroJet::releaseTree Pages: 1 -->
<!--zoomable 125 -->
<svg id="main" version="1.1" xmlns="http://www.w3.org/2000/svg" xmlns:xlink="http://www.w3.org/1999/xlink" xml:space="preserve" onload="init(evt)">
<style type="text/css"><![CDATA[
.edge:hover path { stroke: red; }
.edge:hover polygon { stroke: red; fill: red; }
]]></style>
<script type="text/javascript"><![CDATA[
var edges = document.getElementsByTagName('g');
if (edges && edges.length) {
  for (var i=0;i<edges.length;i++) {
    if (edges[i].id.substr(0,4)=='edge') {
      edges[i].setAttribute('class','edge');
    }
  }
}
]]></script>
        <defs>
                <circle id="rim" cx="0" cy="0" r="7"/>
                <circle id="rim2" cx="0" cy="0" r="3.5"/>
                <g id="zoomPlus">
                        <use xlink:href="#rim" fill="#404040">
                                <set attributeName="fill" to="#808080" begin="zoomplus.mouseover" end="zoomplus.mouseout"/>
                        </use>
                        <path d="M-4,0h8M0,-4v8" fill="none" stroke="white" stroke-width="1.5" pointer-events="none"/>
                </g>
                <g id="zoomMin">
                        <use xlink:href="#rim" fill="#404040">
                                <set attributeName="fill" to="#808080" begin="zoomminus.mouseover" end="zoomminus.mouseout"/>
                        </use>
                        <path d="M-4,0h8" fill="none" stroke="white" stroke-width="1.5" pointer-events="none"/>
                </g>
                <g id="dirArrow">
                        <path fill="none" stroke="white" stroke-width="1.5" d="M0,-3.0v7 M-2.5,-0.5L0,-3.0L2.5,-0.5"/>
                </g>
               <g id="resetDef">
                       <use xlink:href="#rim2" fill="#404040">
                               <set attributeName="fill" to="#808080" begin="reset.mouseover" end="reset.mouseout"/>
                       </use>
               </g>
        </defs>

<script type="text/javascript">
var viewWidth = 858;
var viewHeight = 125;
var sectionId = 'dynsection-12';
</script>
<script xlink:href="svgpan.js"/>
<svg id="graph" class="graph">
<g id="viewport">
<title>panda::MicroJet::releaseTree</title>
<polygon fill="white" stroke="none" points="-4,4 -4,-121 853.696,-121 853.696,4 -4,4"/>
<!-- Node1 -->
<g id="node1" class="node"><title>Node1</title>
<polygon fill="#bfbfbf" stroke="black" points="-4.26326e-14,-45.5 -4.26326e-14,-65.5 146.025,-65.5 146.025,-45.5 -4.26326e-14,-45.5"/>
<text text-anchor="middle" x="73.0125" y="-52.5" font-family="Helvetica,sans-Serif" font-size="10.00">panda::MicroJet::releaseTree</text>
</g>
<!-- Node2 -->
<g id="node2" class="node"><title>Node2</title>
<g id="a_node2"><a xlink:href="classpanda_1_1ParticleM.html#a0315a281e15ff66329eef5169b162e8e" target="_top" xlink:title="Reset the branch pointer to unlink the branch from this object. ">
<polygon fill="white" stroke="black" points="182.025,-45.5 182.025,-65.5 331.938,-65.5 331.938,-45.5 182.025,-45.5"/>
<text text-anchor="middle" x="256.981" y="-52.5" font-family="Helvetica,sans-Serif" font-size="10.00">panda::ParticleM::releaseTree</text>
</a>
</g>
</g>
<!-- Node1&#45;&gt;Node2 -->
<g id="edge1" class="edge"><title>Node1&#45;&gt;Node2</title>
<path fill="none" stroke="midnightblue" d="M146.193,-55.5C154.517,-55.5 163.061,-55.5 171.529,-55.5"/>
<polygon fill="midnightblue" stroke="midnightblue" points="171.801,-59.0001 181.801,-55.5 171.801,-52.0001 171.801,-59.0001"/>
</g>
<!-- Node5 -->
<g id="node5" class="node"><title>Node5</title>
<g id="a_node5"><a xlink:href="classpanda_1_1utils_1_1StoreManager.html#a6f30ec459d951e84a1196b7e2ffdcf49" target="_top" xlink:title="panda::utils::StoreManager\l::getName">
<polygon fill="white" stroke="black" points="546.077,-84.5 546.077,-116.5 682.112,-116.5 682.112,-84.5 546.077,-84.5"/>
<text text-anchor="start" x="554.077" y="-103.5" font-family="Helvetica,sans-Serif" font-size="10.00">panda::utils::StoreManager</text>
<text text-anchor="middle" x="614.095" y="-91.5" font-family="Helvetica,sans-Serif" font-size="10.00">::getName</text>
</a>
</g>
</g>
<!-- Node1&#45;&gt;Node5 -->
<g id="edge9" class="edge"><title>Node1&#45;&gt;Node5</title>
<path fill="none" stroke="midnightblue" d="M127.766,-65.5126C145.06,-68.5845 164.325,-71.8501 182.025,-74.5 264.365,-86.8272 284.871,-91.8709 367.938,-97.5 424.039,-101.302 487.523,-101.979 535.831,-101.744"/>
<polygon fill="midnightblue" stroke="midnightblue" points="535.923,-105.243 545.9,-101.68 535.879,-98.2433 535.923,-105.243"/>
</g>
<!-- Node6 -->
<g id="node6" class="node"><title>Node6</title>
<g id="a_node6"><a xlink:href="namespacepanda_1_1utils.html#a82a8530e64fbdf917cf9b8659065f98b" target="_top" xlink:title="panda::utils::resetAddress">
<polygon fill="white" stroke="black" points="548.301,-6.5 548.301,-26.5 679.889,-26.5 679.889,-6.5 548.301,-6.5"/>
<text text-anchor="middle" x="614.095" y="-13.5" font-family="Helvetica,sans-Serif" font-size="10.00">panda::utils::resetAddress</text>
</a>
</g>
</g>
<!-- Node1&#45;&gt;Node6 -->
<g id="edge10" class="edge"><title>Node1&#45;&gt;Node6</title>
<path fill="none" stroke="midnightblue" d="M122.788,-45.4852C141.281,-41.9475 162.566,-38.1854 182.025,-35.5 264.219,-24.1569 285.068,-22.6198 367.938,-18.5 424.989,-15.6638 489.599,-15.2516 538.163,-15.5014"/>
<polygon fill="midnightblue" stroke="midnightblue" points="538.252,-19.0019 548.274,-15.5641 538.296,-12.0021 538.252,-19.0019"/>
</g>
<!-- Node3 -->
<g id="node3" class="node"><title>Node3</title>
<g id="a_node3"><a xlink:href="classpanda_1_1Particle.html#a8fb6fa0b4316967da573181262727142" target="_top" xlink:title="Reset the branch pointer to unlink the branch from this object. ">
<polygon fill="white" stroke="black" points="367.938,-45.5 367.938,-65.5 509.522,-65.5 509.522,-45.5 367.938,-45.5"/>
<text text-anchor="middle" x="438.73" y="-52.5" font-family="Helvetica,sans-Serif" font-size="10.00">panda::Particle::releaseTree</text>
</a>
</g>
</g>
<!-- Node2&#45;&gt;Node3 -->
<g id="edge2" class="edge"><title>Node2&#45;&gt;Node3</title>
<path fill="none" stroke="midnightblue" d="M332.13,-55.5C340.518,-55.5 349.094,-55.5 357.554,-55.5"/>
<polygon fill="midnightblue" stroke="midnightblue" points="357.796,-59.0001 367.796,-55.5 357.796,-52.0001 357.796,-59.0001"/>
</g>
<!-- Node2&#45;&gt;Node5 -->
<g id="edge7" class="edge"><title>Node2&#45;&gt;Node5</title>
<path fill="none" stroke="midnightblue" d="M311.841,-65.531C329.66,-68.6559 349.614,-71.948 367.938,-74.5 423.939,-82.2994 487.425,-88.9728 535.76,-93.6054"/>
<polygon fill="midnightblue" stroke="midnightblue" points="535.549,-97.1011 545.836,-94.5627 536.212,-90.1325 535.549,-97.1011"/>
</g>
<!-- Node2&#45;&gt;Node6 -->
<g id="edge8" class="edge"><title>Node2&#45;&gt;Node6</title>
<path fill="none" stroke="midnightblue" d="M307.076,-45.4582C326.026,-41.8747 347.926,-38.0886 367.938,-35.5 424.756,-28.1507 489.376,-23.2853 538.004,-20.3192"/>
<polygon fill="midnightblue" stroke="midnightblue" points="538.356,-23.8046 548.129,-19.7149 537.939,-16.817 538.356,-23.8046"/>
</g>
<!-- Node4 -->
<g id="node4" class="node"><title>Node4</title>
<g id="a_node4"><a xlink:href="classpanda_1_1Object.html#aaf58438092b42a89b838ce12c6a23833" target="_top" xlink:title="Reset the branch pointer to unlink the branch from this object. ">
<polygon fill="white" stroke="black" points="545.522,-45.5 545.522,-65.5 682.668,-65.5 682.668,-45.5 545.522,-45.5"/>
<text text-anchor="middle" x="614.095" y="-52.5" font-family="Helvetica,sans-Serif" font-size="10.00">panda::Object::releaseTree</text>
</a>
</g>
</g>
<!-- Node3&#45;&gt;Node4 -->
<g id="edge3" class="edge"><title>Node3&#45;&gt;Node4</title>
<path fill="none" stroke="midnightblue" d="M509.744,-55.5C518.096,-55.5 526.662,-55.5 535.116,-55.5"/>
<polygon fill="midnightblue" stroke="midnightblue" points="535.351,-59.0001 545.351,-55.5 535.351,-52.0001 535.351,-59.0001"/>
</g>
<!-- Node3&#45;&gt;Node5 -->
<g id="edge4" class="edge"><title>Node3&#45;&gt;Node5</title>
<path fill="none" stroke="midnightblue" d="M478.636,-65.5989C497.163,-70.4078 519.924,-76.3158 541.416,-81.8944"/>
<polygon fill="midnightblue" stroke="midnightblue" points="540.623,-85.3044 551.181,-84.4292 542.381,-78.5289 540.623,-85.3044"/>
</g>
<!-- Node3&#45;&gt;Node6 -->
<g id="edge5" class="edge"><title>Node3&#45;&gt;Node6</title>
<path fill="none" stroke="midnightblue" d="M484.376,-45.4565C507.024,-40.3615 534.725,-34.1301 558.619,-28.7549"/>
<polygon fill="midnightblue" stroke="midnightblue" points="559.612,-32.1189 568.6,-26.5094 558.076,-25.2896 559.612,-32.1189"/>
</g>
<!-- Node7 -->
<g id="node7" class="node"><title>Node7</title>
<g id="a_node7"><a xlink:href="classpanda_1_1utils_1_1BranchName.html#a13958ff4a9d554d2c057c600b4f70412" target="_top" xlink:title="Prepend the branch name with &lt;objName.&gt;. ">
<polygon fill="white" stroke="black" points="718.668,-0.5 718.668,-32.5 849.696,-32.5 849.696,-0.5 718.668,-0.5"/>
<text text-anchor="start" x="726.668" y="-19.5" font-family="Helvetica,sans-Serif" font-size="10.00">panda::utils::BranchName</text>
<text text-anchor="middle" x="784.182" y="-7.5" font-family="Helvetica,sans-Serif" font-size="10.00">::fullName</text>
</a>
</g>
</g>
<!-- Node6&#45;&gt;Node7 -->
<g id="edge6" class="edge"><title>Node6&#45;&gt;Node7</title>
<path fill="none" stroke="midnightblue" d="M680.082,-16.5C689.376,-16.5 698.999,-16.5 708.462,-16.5"/>
<polygon fill="midnightblue" stroke="midnightblue" points="708.645,-20.0001 718.645,-16.5 708.645,-13.0001 708.645,-20.0001"/>
</g>
</g>
</svg>
        <g id="navigator" transform="translate(0 0)" fill="#404254">
                <rect fill="#f2f5e9" fill-opacity="0.5" stroke="#606060" stroke-width=".5" x="0" y="0" width="60" height="60"/>
                <use id="zoomplus" xlink:href="#zoomPlus" x="17" y="9" onmousedown="handleZoom(evt,'in')"/>
                <use id="zoomminus" xlink:href="#zoomMin" x="42" y="9" onmousedown="handleZoom(evt,'out')"/>
                <use id="reset" xlink:href="#resetDef" x="30" y="36" onmousedown="handleReset()"/>
                <g id="arrowUp" xlink:href="#dirArrow" transform="translate(30 24)" onmousedown="handlePan(0,-1)">
                  <use xlink:href="#rim" fill="#404040">
                        <set attributeName="fill" to="#808080" begin="arrowUp.mouseover" end="arrowUp.mouseout"/>
                  </use>
                  <path fill="none" stroke="white" stroke-width="1.5" d="M0,-3.0v7 M-2.5,-0.5L0,-3.0L2.5,-0.5"/>
                </g>
                <g id="arrowRight" xlink:href="#dirArrow" transform="rotate(90) translate(36 -43)" onmousedown="handlePan(1,0)">
                  <use xlink:href="#rim" fill="#404040">
                        <set attributeName="fill" to="#808080" begin="arrowRight.mouseover" end="arrowRight.mouseout"/>
                  </use>
                  <path fill="none" stroke="white" stroke-width="1.5" d="M0,-3.0v7 M-2.5,-0.5L0,-3.0L2.5,-0.5"/>
                </g>
                <g id="arrowDown" xlink:href="#dirArrow" transform="rotate(180) translate(-30 -48)" onmousedown="handlePan(0,1)">
                  <use xlink:href="#rim" fill="#404040">
                        <set attributeName="fill" to="#808080" begin="arrowDown.mouseover" end="arrowDown.mouseout"/>
                  </use>
                  <path fill="none" stroke="white" stroke-width="1.5" d="M0,-3.0v7 M-2.5,-0.5L0,-3.0L2.5,-0.5"/>
                </g>
                <g id="arrowLeft" xlink:href="#dirArrow" transform="rotate(270) translate(-36 17)" onmousedown="handlePan(-1,0)">
                  <use xlink:href="#rim" fill="#404040">
                        <set attributeName="fill" to="#808080" begin="arrowLeft.mouseover" end="arrowLeft.mouseout"/>
                  </use>
                  <path fill="none" stroke="white" stroke-width="1.5" d="M0,-3.0v7 M-2.5,-0.5L0,-3.0L2.5,-0.5"/>
                </g>
        </g>
        <svg viewBox="0 0 15 15" width="100%" height="30px" preserveAspectRatio="xMaxYMin meet">
         <g id="arrow_out" transform="scale(0.3 0.3)">
          <a xlink:href="classpanda_1_1MicroJet_a1f12baa07c2b52599be1e7808da40742_cgraph_org.svg" target="_base">
           <rect id="button" ry="5" rx="5" y="6" x="6" height="38" width="38"
                fill="#f2f5e9" fill-opacity="0.5" stroke="#606060" stroke-width="1.0"/>
           <path id="arrow"
             d="M 11.500037,31.436501 C 11.940474,20.09759 22.043105,11.32322 32.158766,21.979434 L 37.068811,17.246167 C 37.068811,17.246167 37.088388,32 37.088388,32 L 22.160133,31.978069 C 22.160133,31.978069 26.997745,27.140456 26.997745,27.140456 C 18.528582,18.264221 13.291696,25.230495 11.500037,31.436501 z"
             style="fill:#404040;"/>
          </a>
         </g>
        </svg>
</svg>
