<?xml version="1.0" encoding="UTF-8" standalone="no"?>
<!DOCTYPE svg PUBLIC "-//W3C//DTD SVG 1.1//EN"
 "http://www.w3.org/Graphics/SVG/1.1/DTD/svg11.dtd">
<!-- Generated by graphviz version 2.38.0 (20140413.2041)
 -->
<!-- Title: panda::Photon::setStatus Pages: 1 -->
<svg width="655pt" height="189pt"
 viewBox="0.00 0.00 654.60 189.00" xmlns="http://www.w3.org/2000/svg" xmlns:xlink="http://www.w3.org/1999/xlink">
<g id="graph0" class="graph" transform="scale(1 1) rotate(0) translate(4 185)">
<title>panda::Photon::setStatus</title>
<polygon fill="white" stroke="none" points="-4,4 -4,-185 650.604,-185 650.604,4 -4,4"/>
<!-- Node1 -->
<g id="node1" class="node"><title>Node1</title>
<polygon fill="#bfbfbf" stroke="black" points="0,-109.5 0,-129.5 128.278,-129.5 128.278,-109.5 0,-109.5"/>
<text text-anchor="middle" x="64.139" y="-116.5" font-family="Helvetica,sans-Serif" font-size="10.00">panda::Photon::setStatus</text>
</g>
<!-- Node2 -->
<g id="node2" class="node"><title>Node2</title>
<g id="a_node2"><a xlink:href="classpanda_1_1Particle.html#a114feb26e7ed0b5fac53646fca93964e" target="_top" xlink:title="Set status of branches with names that correspond to the variables of this object. ">
<polygon fill="white" stroke="black" points="164.278,-109.5 164.278,-129.5 294.205,-129.5 294.205,-109.5 164.278,-109.5"/>
<text text-anchor="middle" x="229.242" y="-116.5" font-family="Helvetica,sans-Serif" font-size="10.00">panda::Particle::setStatus</text>
</a>
</g>
</g>
<!-- Node1&#45;&gt;Node2 -->
<g id="edge1" class="edge"><title>Node1&#45;&gt;Node2</title>
<path fill="none" stroke="midnightblue" d="M128.666,-119.5C136.933,-119.5 145.459,-119.5 153.883,-119.5"/>
<polygon fill="midnightblue" stroke="midnightblue" points="154.083,-123 164.083,-119.5 154.083,-116 154.083,-123"/>
</g>
<!-- Node4 -->
<g id="node4" class="node"><title>Node4</title>
<g id="a_node4"><a xlink:href="classpanda_1_1utils_1_1StoreManager.html#a6f30ec459d951e84a1196b7e2ffdcf49" target="_top" xlink:title="panda::utils::StoreManager\l::getName">
<polygon fill="white" stroke="black" points="330.205,-148.5 330.205,-180.5 466.24,-180.5 466.24,-148.5 330.205,-148.5"/>
<text text-anchor="start" x="338.205" y="-167.5" font-family="Helvetica,sans-Serif" font-size="10.00">panda::utils::StoreManager</text>
<text text-anchor="middle" x="398.223" y="-155.5" font-family="Helvetica,sans-Serif" font-size="10.00">::getName</text>
</a>
</g>
</g>
<!-- Node1&#45;&gt;Node4 -->
<g id="edge9" class="edge"><title>Node1&#45;&gt;Node4</title>
<path fill="none" stroke="midnightblue" d="M113.416,-129.537C129.544,-132.68 147.644,-135.982 164.278,-138.5 215.991,-146.329 274.496,-152.851 319.937,-157.404"/>
<polygon fill="midnightblue" stroke="midnightblue" points="319.718,-160.899 330.015,-158.403 320.409,-153.934 319.718,-160.899"/>
</g>
<!-- Node5 -->
<g id="node5" class="node"><title>Node5</title>
<g id="a_node5"><a xlink:href="namespacepanda_1_1utils.html#a01665f786d6a2acedb8f008f3fc9fc84" target="_top" xlink:title="Set status of a branch. ">
<polygon fill="white" stroke="black" points="341.038,-70.5 341.038,-90.5 455.408,-90.5 455.408,-70.5 341.038,-70.5"/>
<text text-anchor="middle" x="398.223" y="-77.5" font-family="Helvetica,sans-Serif" font-size="10.00">panda::utils::setStatus</text>
</a>
</g>
</g>
<!-- Node1&#45;&gt;Node5 -->
<g id="edge10" class="edge"><title>Node1&#45;&gt;Node5</title>
<path fill="none" stroke="midnightblue" d="M109.363,-109.42C126.444,-105.832 146.197,-102.052 164.278,-99.5 220.238,-91.6012 284.259,-86.6732 331.005,-83.8215"/>
<polygon fill="midnightblue" stroke="midnightblue" points="331.232,-87.3143 341.006,-83.2269 330.816,-80.3266 331.232,-87.3143"/>
</g>
<!-- Node3 -->
<g id="node3" class="node"><title>Node3</title>
<g id="a_node3"><a xlink:href="classpanda_1_1Object.html#a282e820b1ad431db22ca4d4dd20b55e0" target="_top" xlink:title="Set status of branches with names that correspond to the variables of this object. ">
<polygon fill="white" stroke="black" points="335.478,-109.5 335.478,-129.5 460.967,-129.5 460.967,-109.5 335.478,-109.5"/>
<text text-anchor="middle" x="398.223" y="-116.5" font-family="Helvetica,sans-Serif" font-size="10.00">panda::Object::setStatus</text>
</a>
</g>
</g>
<!-- Node2&#45;&gt;Node3 -->
<g id="edge2" class="edge"><title>Node2&#45;&gt;Node3</title>
<path fill="none" stroke="midnightblue" d="M294.323,-119.5C304.394,-119.5 314.864,-119.5 325.101,-119.5"/>
<polygon fill="midnightblue" stroke="midnightblue" points="325.238,-123 335.238,-119.5 325.238,-116 325.238,-123"/>
</g>
<!-- Node2&#45;&gt;Node4 -->
<g id="edge3" class="edge"><title>Node2&#45;&gt;Node4</title>
<path fill="none" stroke="midnightblue" d="M267.715,-129.599C285.479,-134.386 307.285,-140.263 327.903,-145.819"/>
<polygon fill="midnightblue" stroke="midnightblue" points="327.022,-149.206 337.589,-148.429 328.844,-142.448 327.022,-149.206"/>
</g>
<!-- Node2&#45;&gt;Node5 -->
<g id="edge4" class="edge"><title>Node2&#45;&gt;Node5</title>
<path fill="none" stroke="midnightblue" d="M273.243,-109.457C294.96,-104.384 321.5,-98.1857 344.444,-92.8269"/>
<polygon fill="midnightblue" stroke="midnightblue" points="345.425,-96.1922 354.366,-90.5094 343.832,-89.3756 345.425,-96.1922"/>
</g>
<!-- Node6 -->
<g id="node6" class="node"><title>Node6</title>
<g id="a_node6"><a xlink:href="classpanda_1_1utils_1_1BranchName.html#a6cc8a6df7c5b12a0221fd49773cca6a7" target="_top" xlink:title="Is the name included and not vetoed? ">
<polygon fill="white" stroke="black" points="502.24,-141.5 502.24,-161.5 646.604,-161.5 646.604,-141.5 502.24,-141.5"/>
<text text-anchor="middle" x="574.422" y="-148.5" font-family="Helvetica,sans-Serif" font-size="10.00">panda::utils::BranchName::in</text>
</a>
</g>
</g>
<!-- Node5&#45;&gt;Node6 -->
<g id="edge5" class="edge"><title>Node5&#45;&gt;Node6</title>
<path fill="none" stroke="midnightblue" d="M445.378,-90.6052C452.58,-93.0189 459.771,-95.9539 466.24,-99.5 485.012,-109.79 483.456,-121.232 502.24,-131.5 506.701,-133.939 511.486,-136.102 516.388,-138.016"/>
<polygon fill="midnightblue" stroke="midnightblue" points="515.308,-141.347 525.903,-141.397 517.652,-134.751 515.308,-141.347"/>
</g>
<!-- Node7 -->
<g id="node7" class="node"><title>Node7</title>
<g id="a_node7"><a xlink:href="classpanda_1_1utils_1_1BranchName.html#ae3332329bf2afae5ed8e7c35e5d77ffa" target="_top" xlink:title="Is the name included and vetoed? ">
<polygon fill="white" stroke="black" points="508.908,-90.5 508.908,-122.5 639.936,-122.5 639.936,-90.5 508.908,-90.5"/>
<text text-anchor="start" x="516.908" y="-109.5" font-family="Helvetica,sans-Serif" font-size="10.00">panda::utils::BranchName</text>
<text text-anchor="middle" x="574.422" y="-97.5" font-family="Helvetica,sans-Serif" font-size="10.00">::vetoed</text>
</a>
</g>
</g>
<!-- Node5&#45;&gt;Node7 -->
<g id="edge6" class="edge"><title>Node5&#45;&gt;Node7</title>
<path fill="none" stroke="midnightblue" d="M455.78,-88.9415C469.37,-90.9699 484.096,-93.1678 498.381,-95.2999"/>
<polygon fill="midnightblue" stroke="midnightblue" points="498.275,-98.8227 508.682,-96.8373 499.309,-91.8994 498.275,-98.8227"/>
</g>
<!-- Node8 -->
<g id="node8" class="node"><title>Node8</title>
<g id="a_node8"><a xlink:href="classpanda_1_1utils_1_1BranchName.html#a13958ff4a9d554d2c057c600b4f70412" target="_top" xlink:title="Prepend the branch name with &lt;objName.&gt;. ">
<polygon fill="white" stroke="black" points="508.908,-39.5 508.908,-71.5 639.936,-71.5 639.936,-39.5 508.908,-39.5"/>
<text text-anchor="start" x="516.908" y="-58.5" font-family="Helvetica,sans-Serif" font-size="10.00">panda::utils::BranchName</text>
<text text-anchor="middle" x="574.422" y="-46.5" font-family="Helvetica,sans-Serif" font-size="10.00">::fullName</text>
</a>
</g>
</g>
<!-- Node5&#45;&gt;Node8 -->
<g id="edge7" class="edge"><title>Node5&#45;&gt;Node8</title>
<path fill="none" stroke="midnightblue" d="M455.78,-72.3832C469.37,-70.4328 484.096,-68.3194 498.381,-66.2694"/>
<polygon fill="midnightblue" stroke="midnightblue" points="499.281,-69.6762 508.682,-64.791 498.286,-62.7472 499.281,-69.6762"/>
</g>
<!-- Node9 -->
<g id="node9" class="node"><title>Node9</title>
<g id="a_node9"><a xlink:href="namespacepanda_1_1utils.html#aafa411773a4b0ee829d99e6e5a0abdcd" target="_top" xlink:title="Check status of a branch. ">
<polygon fill="white" stroke="black" points="510.847,-0.5 510.847,-20.5 637.997,-20.5 637.997,-0.5 510.847,-0.5"/>
<text text-anchor="middle" x="574.422" y="-7.5" font-family="Helvetica,sans-Serif" font-size="10.00">panda::utils::checkStatus</text>
</a>
</g>
</g>
<!-- Node5&#45;&gt;Node9 -->
<g id="edge8" class="edge"><title>Node5&#45;&gt;Node9</title>
<path fill="none" stroke="midnightblue" d="M416.973,-70.3521C437.126,-59.1554 471.239,-41.1784 502.24,-29.5 508.053,-27.3103 514.222,-25.2677 520.402,-23.3951"/>
<polygon fill="midnightblue" stroke="midnightblue" points="521.442,-26.7378 530.075,-20.5957 519.496,-20.0137 521.442,-26.7378"/>
</g>
</g>
</svg>
