<?xml version="1.0" encoding="UTF-8" standalone="no"?>
<!DOCTYPE svg PUBLIC "-//W3C//DTD SVG 1.1//EN"
 "http://www.w3.org/Graphics/SVG/1.1/DTD/svg11.dtd">
<!-- Generated by graphviz version 2.38.0 (20140413.2041)
 -->
<!-- Title: panda.branch.Branch.write_book Pages: 1 -->
<svg width="369pt" height="80pt"
 viewBox="0.00 0.00 368.88 80.00" xmlns="http://www.w3.org/2000/svg" xmlns:xlink="http://www.w3.org/1999/xlink">
<g id="graph0" class="graph" transform="scale(1 1) rotate(0) translate(4 76)">
<title>panda.branch.Branch.write_book</title>
<polygon fill="white" stroke="none" points="-4,4 -4,-76 364.875,-76 364.875,4 -4,4"/>
<!-- Node1 -->
<g id="node1" class="node"><title>Node1</title>
<polygon fill="#bfbfbf" stroke="black" points="-1.42109e-14,-22.5 -1.42109e-14,-42.5 162.713,-42.5 162.713,-22.5 -1.42109e-14,-22.5"/>
<text text-anchor="middle" x="81.3565" y="-29.5" font-family="Helvetica,sans-Serif" font-size="10.00">panda.branch.Branch.write_book</text>
</g>
<!-- Node2 -->
<g id="node2" class="node"><title>Node2</title>
<g id="a_node2"><a xlink:href="classpanda_1_1branch_1_1Branch.html#a9ff4186314d76f2444161163bd992495" target="_top" xlink:title="panda.branch.Branch.is\l_array">
<polygon fill="white" stroke="black" points="218.998,-39.5 218.998,-71.5 340.589,-71.5 340.589,-39.5 218.998,-39.5"/>
<text text-anchor="start" x="226.998" y="-58.5" font-family="Helvetica,sans-Serif" font-size="10.00">panda.branch.Branch.is</text>
<text text-anchor="middle" x="279.794" y="-46.5" font-family="Helvetica,sans-Serif" font-size="10.00">_array</text>
</a>
</g>
</g>
<!-- Node1&#45;&gt;Node2 -->
<g id="edge1" class="edge"><title>Node1&#45;&gt;Node2</title>
<path fill="none" stroke="midnightblue" d="M162.822,-41.9213C178.06,-43.7055 193.887,-45.5586 208.77,-47.3013"/>
<polygon fill="midnightblue" stroke="midnightblue" points="208.566,-50.8011 218.905,-48.4878 209.38,-43.8486 208.566,-50.8011"/>
</g>
<!-- Node3 -->
<g id="node3" class="node"><title>Node3</title>
<g id="a_node3"><a xlink:href="classpanda_1_1branch_1_1Branch.html#aeac8bec76fc5d1d244500924e9582011" target="_top" xlink:title="panda.branch.Branch.arrdef_text">
<polygon fill="white" stroke="black" points="198.713,-0.5 198.713,-20.5 360.875,-20.5 360.875,-0.5 198.713,-0.5"/>
<text text-anchor="middle" x="279.794" y="-7.5" font-family="Helvetica,sans-Serif" font-size="10.00">panda.branch.Branch.arrdef_text</text>
</a>
</g>
</g>
<!-- Node1&#45;&gt;Node3 -->
<g id="edge2" class="edge"><title>Node1&#45;&gt;Node3</title>
<path fill="none" stroke="midnightblue" d="M162.822,-23.4883C171.275,-22.5416 179.91,-21.5745 188.464,-20.6165"/>
<polygon fill="midnightblue" stroke="midnightblue" points="188.905,-24.089 198.454,-19.4977 188.126,-17.1325 188.905,-24.089"/>
</g>
</g>
</svg>
