<?xml version="1.0" encoding="UTF-8" standalone="no"?>
<!DOCTYPE svg PUBLIC "-//W3C//DTD SVG 1.1//EN"
 "http://www.w3.org/Graphics/SVG/1.1/DTD/svg11.dtd">
<!-- Generated by graphviz version 2.38.0 (20140413.2041)
 -->
<!-- Title: panda::ParticleM Pages: 1 -->
<svg width="847pt" height="224pt"
 viewBox="0.00 0.00 846.73 224.00" xmlns="http://www.w3.org/2000/svg" xmlns:xlink="http://www.w3.org/1999/xlink">
<g id="graph0" class="graph" transform="scale(1 1) rotate(0) translate(4 220)">
<title>panda::ParticleM</title>
<polygon fill="white" stroke="none" points="-4,4 -4,-220 842.728,-220 842.728,4 -4,4"/>
<!-- Node1 -->
<g id="node1" class="node"><title>Node1</title>
<polygon fill="#bfbfbf" stroke="black" points="398.301,-97.5 398.301,-117.5 489.316,-117.5 489.316,-97.5 398.301,-97.5"/>
<text text-anchor="middle" x="443.808" y="-104.5" font-family="Helvetica,sans-Serif" font-size="10.00">panda::ParticleM</text>
</g>
<!-- Node5 -->
<g id="node5" class="node"><title>Node5</title>
<g id="a_node5"><a xlink:href="classpanda_1_1GenJet.html" target="_top" xlink:title="panda::GenJet">
<polygon fill="white" stroke="black" points="535.313,-195.5 535.313,-215.5 616.901,-215.5 616.901,-195.5 535.313,-195.5"/>
<text text-anchor="middle" x="576.107" y="-202.5" font-family="Helvetica,sans-Serif" font-size="10.00">panda::GenJet</text>
</a>
</g>
</g>
<!-- Node1&#45;&gt;Node5 -->
<g id="edge4" class="edge"><title>Node1&#45;&gt;Node5</title>
<path fill="none" stroke="midnightblue" d="M459.55,-125.358C474.596,-142.649 499.364,-168.654 525.316,-185.5 531.254,-189.355 538.055,-192.684 544.683,-195.459"/>
<polygon fill="midnightblue" stroke="midnightblue" points="462.132,-122.991 452.983,-117.648 456.803,-127.53 462.132,-122.991"/>
</g>
<!-- Node6 -->
<g id="node6" class="node"><title>Node6</title>
<g id="a_node6"><a xlink:href="classpanda_1_1GenParticle.html" target="_top" xlink:title="panda::GenParticle">
<polygon fill="white" stroke="black" points="525.316,-156.5 525.316,-176.5 626.899,-176.5 626.899,-156.5 525.316,-156.5"/>
<text text-anchor="middle" x="576.107" y="-163.5" font-family="Helvetica,sans-Serif" font-size="10.00">panda::GenParticle</text>
</a>
</g>
</g>
<!-- Node1&#45;&gt;Node6 -->
<g id="edge5" class="edge"><title>Node1&#45;&gt;Node6</title>
<path fill="none" stroke="midnightblue" d="M473.438,-121.965C488.716,-129.532 507.909,-138.799 525.316,-146.5 532.983,-149.892 541.413,-153.371 549.123,-156.457"/>
<polygon fill="midnightblue" stroke="midnightblue" points="474.993,-118.829 464.481,-117.501 471.87,-125.094 474.993,-118.829"/>
</g>
<!-- Node7 -->
<g id="node7" class="node"><title>Node7</title>
<g id="a_node7"><a xlink:href="classpanda_1_1MicroJet.html" target="_top" xlink:title="panda::MicroJet">
<polygon fill="white" stroke="black" points="532.544,-117.5 532.544,-137.5 619.671,-137.5 619.671,-117.5 532.544,-117.5"/>
<text text-anchor="middle" x="576.107" y="-124.5" font-family="Helvetica,sans-Serif" font-size="10.00">panda::MicroJet</text>
</a>
</g>
</g>
<!-- Node1&#45;&gt;Node7 -->
<g id="edge6" class="edge"><title>Node1&#45;&gt;Node7</title>
<path fill="none" stroke="midnightblue" d="M499.568,-115.905C510.531,-117.588 521.897,-119.333 532.381,-120.942"/>
<polygon fill="midnightblue" stroke="midnightblue" points="500.065,-112.441 489.65,-114.383 499.003,-119.36 500.065,-112.441"/>
</g>
<!-- Node10 -->
<g id="node10" class="node"><title>Node10</title>
<g id="a_node10"><a xlink:href="classpanda_1_1Parton.html" target="_top" xlink:title="panda::Parton">
<polygon fill="white" stroke="black" points="536.704,-78.5 536.704,-98.5 615.511,-98.5 615.511,-78.5 536.704,-78.5"/>
<text text-anchor="middle" x="576.107" y="-85.5" font-family="Helvetica,sans-Serif" font-size="10.00">panda::Parton</text>
</a>
</g>
</g>
<!-- Node1&#45;&gt;Node10 -->
<g id="edge9" class="edge"><title>Node1&#45;&gt;Node10</title>
<path fill="none" stroke="midnightblue" d="M499.897,-99.4671C512.282,-97.6611 525.165,-95.7825 536.696,-94.1011"/>
<polygon fill="midnightblue" stroke="midnightblue" points="499.04,-96.0549 489.65,-100.961 500.05,-102.982 499.04,-96.0549"/>
</g>
<!-- Node11 -->
<g id="node11" class="node"><title>Node11</title>
<g id="a_node11"><a xlink:href="classpanda_1_1PFCand.html" target="_top" xlink:title="panda::PFCand">
<polygon fill="white" stroke="black" points="533.094,-39.5 533.094,-59.5 619.121,-59.5 619.121,-39.5 533.094,-39.5"/>
<text text-anchor="middle" x="576.107" y="-46.5" font-family="Helvetica,sans-Serif" font-size="10.00">panda::PFCand</text>
</a>
</g>
</g>
<!-- Node1&#45;&gt;Node11 -->
<g id="edge10" class="edge"><title>Node1&#45;&gt;Node11</title>
<path fill="none" stroke="midnightblue" d="M473.383,-92.9115C488.647,-85.3094 507.842,-76.0494 525.316,-68.5 532.451,-65.4175 540.264,-62.3123 547.542,-59.5311"/>
<polygon fill="midnightblue" stroke="midnightblue" points="471.806,-89.787 464.438,-97.4006 474.946,-96.0434 471.806,-89.787"/>
</g>
<!-- Node12 -->
<g id="node12" class="node"><title>Node12</title>
<g id="a_node12"><a xlink:href="classpanda_1_1Tau.html" target="_top" xlink:title="panda::Tau">
<polygon fill="white" stroke="black" points="542.817,-0.5 542.817,-20.5 609.397,-20.5 609.397,-0.5 542.817,-0.5"/>
<text text-anchor="middle" x="576.107" y="-7.5" font-family="Helvetica,sans-Serif" font-size="10.00">panda::Tau</text>
</a>
</g>
</g>
<!-- Node1&#45;&gt;Node12 -->
<g id="edge11" class="edge"><title>Node1&#45;&gt;Node12</title>
<path fill="none" stroke="midnightblue" d="M459.488,-89.5447C474.486,-72.1797 499.219,-46.1195 525.316,-29.5 530.779,-26.0211 536.977,-23.0241 543.1,-20.5056"/>
<polygon fill="midnightblue" stroke="midnightblue" points="456.723,-87.3936 452.944,-97.2915 462.071,-91.9108 456.723,-87.3936"/>
</g>
<!-- Node2 -->
<g id="node2" class="node"><title>Node2</title>
<g id="a_node2"><a xlink:href="classpanda_1_1Particle.html" target="_top" xlink:title="panda::Particle">
<polygon fill="white" stroke="black" points="279.615,-97.5 279.615,-117.5 362.301,-117.5 362.301,-97.5 279.615,-97.5"/>
<text text-anchor="middle" x="320.958" y="-104.5" font-family="Helvetica,sans-Serif" font-size="10.00">panda::Particle</text>
</a>
</g>
</g>
<!-- Node2&#45;&gt;Node1 -->
<g id="edge1" class="edge"><title>Node2&#45;&gt;Node1</title>
<path fill="none" stroke="midnightblue" d="M372.626,-107.5C381.041,-107.5 389.716,-107.5 397.973,-107.5"/>
<polygon fill="midnightblue" stroke="midnightblue" points="372.536,-104 362.536,-107.5 372.536,-111 372.536,-104"/>
</g>
<!-- Node3 -->
<g id="node3" class="node"><title>Node3</title>
<g id="a_node3"><a xlink:href="classpanda_1_1ContainerElement.html" target="_top" xlink:title="panda::ContainerElement">
<polygon fill="white" stroke="black" points="114.248,-97.5 114.248,-117.5 243.615,-117.5 243.615,-97.5 114.248,-97.5"/>
<text text-anchor="middle" x="178.932" y="-104.5" font-family="Helvetica,sans-Serif" font-size="10.00">panda::ContainerElement</text>
</a>
</g>
</g>
<!-- Node3&#45;&gt;Node2 -->
<g id="edge2" class="edge"><title>Node3&#45;&gt;Node2</title>
<path fill="none" stroke="midnightblue" d="M254.049,-107.5C262.775,-107.5 271.416,-107.5 279.427,-107.5"/>
<polygon fill="midnightblue" stroke="midnightblue" points="253.798,-104 243.798,-107.5 253.798,-111 253.798,-104"/>
</g>
<!-- Node4 -->
<g id="node4" class="node"><title>Node4</title>
<g id="a_node4"><a xlink:href="classpanda_1_1Object.html" target="_top" xlink:title="panda::Object">
<polygon fill="white" stroke="black" points="2.84217e-14,-97.5 2.84217e-14,-117.5 78.248,-117.5 78.248,-97.5 2.84217e-14,-97.5"/>
<text text-anchor="middle" x="39.124" y="-104.5" font-family="Helvetica,sans-Serif" font-size="10.00">panda::Object</text>
</a>
</g>
</g>
<!-- Node4&#45;&gt;Node3 -->
<g id="edge3" class="edge"><title>Node4&#45;&gt;Node3</title>
<path fill="none" stroke="midnightblue" d="M88.6785,-107.5C96.9171,-107.5 105.582,-107.5 114.141,-107.5"/>
<polygon fill="midnightblue" stroke="midnightblue" points="88.5111,-104 78.5111,-107.5 88.511,-111 88.5111,-104"/>
</g>
<!-- Node8 -->
<g id="node8" class="node"><title>Node8</title>
<g id="a_node8"><a xlink:href="classpanda_1_1Jet.html" target="_top" xlink:title="panda::Jet">
<polygon fill="white" stroke="black" points="662.899,-117.5 662.899,-137.5 725.59,-137.5 725.59,-117.5 662.899,-117.5"/>
<text text-anchor="middle" x="694.245" y="-124.5" font-family="Helvetica,sans-Serif" font-size="10.00">panda::Jet</text>
</a>
</g>
</g>
<!-- Node7&#45;&gt;Node8 -->
<g id="edge7" class="edge"><title>Node7&#45;&gt;Node8</title>
<path fill="none" stroke="midnightblue" d="M629.879,-127.5C641.106,-127.5 652.598,-127.5 662.66,-127.5"/>
<polygon fill="midnightblue" stroke="midnightblue" points="629.693,-124 619.693,-127.5 629.693,-131 629.693,-124"/>
</g>
<!-- Node9 -->
<g id="node9" class="node"><title>Node9</title>
<g id="a_node9"><a xlink:href="classpanda_1_1FatJet.html" target="_top" xlink:title="panda::FatJet">
<polygon fill="white" stroke="black" points="761.59,-117.5 761.59,-137.5 838.728,-137.5 838.728,-117.5 761.59,-117.5"/>
<text text-anchor="middle" x="800.159" y="-124.5" font-family="Helvetica,sans-Serif" font-size="10.00">panda::FatJet</text>
</a>
</g>
</g>
<!-- Node8&#45;&gt;Node9 -->
<g id="edge8" class="edge"><title>Node8&#45;&gt;Node9</title>
<path fill="none" stroke="midnightblue" d="M736.128,-127.5C744.456,-127.5 753.182,-127.5 761.395,-127.5"/>
<polygon fill="midnightblue" stroke="midnightblue" points="735.86,-124 725.86,-127.5 735.86,-131 735.86,-124"/>
</g>
</g>
</svg>
