<?xml version="1.0" encoding="UTF-8" standalone="no"?>
<!DOCTYPE svg PUBLIC "-//W3C//DTD SVG 1.1//EN"
 "http://www.w3.org/Graphics/SVG/1.1/DTD/svg11.dtd">
<!-- Generated by graphviz version 2.38.0 (20140413.2041)
 -->
<!-- Title: panda::ParticleM::~ParticleM Pages: 1 -->
<svg width="277pt" height="41pt"
 viewBox="0.00 0.00 276.61 41.00" xmlns="http://www.w3.org/2000/svg" xmlns:xlink="http://www.w3.org/1999/xlink">
<g id="graph0" class="graph" transform="scale(1 1) rotate(0) translate(4 37)">
<title>panda::ParticleM::~ParticleM</title>
<polygon fill="white" stroke="none" points="-4,4 -4,-37 272.608,-37 272.608,4 -4,4"/>
<!-- Node1 -->
<g id="node1" class="node"><title>Node1</title>
<polygon fill="#bfbfbf" stroke="black" points="-7.10543e-15,-0.5 -7.10543e-15,-32.5 96.573,-32.5 96.573,-0.5 -7.10543e-15,-0.5"/>
<text text-anchor="start" x="8" y="-19.5" font-family="Helvetica,sans-Serif" font-size="10.00">panda::ParticleM::</text>
<text text-anchor="middle" x="48.2865" y="-7.5" font-family="Helvetica,sans-Serif" font-size="10.00">~ParticleM</text>
</g>
<!-- Node2 -->
<g id="node2" class="node"><title>Node2</title>
<g id="a_node2"><a xlink:href="classpanda_1_1utils_1_1StoreManager.html#a89a7b1715f9c7334b9ffdddeed298d4e" target="_top" xlink:title="panda::utils::StoreManager\l::free">
<polygon fill="white" stroke="black" points="132.573,-0.5 132.573,-32.5 268.608,-32.5 268.608,-0.5 132.573,-0.5"/>
<text text-anchor="start" x="140.573" y="-19.5" font-family="Helvetica,sans-Serif" font-size="10.00">panda::utils::StoreManager</text>
<text text-anchor="middle" x="200.59" y="-7.5" font-family="Helvetica,sans-Serif" font-size="10.00">::free</text>
</a>
</g>
</g>
<!-- Node1&#45;&gt;Node2 -->
<g id="edge1" class="edge"><title>Node1&#45;&gt;Node2</title>
<path fill="none" stroke="midnightblue" d="M96.8436,-16.5C105.003,-16.5 113.667,-16.5 122.368,-16.5"/>
<polygon fill="midnightblue" stroke="midnightblue" points="122.571,-20.0001 132.571,-16.5 122.571,-13.0001 122.571,-20.0001"/>
</g>
</g>
</svg>
