<?xml version="1.0" encoding="UTF-8" standalone="no"?>
<!DOCTYPE svg PUBLIC "-//W3C//DTD SVG 1.1//EN"
 "http://www.w3.org/Graphics/SVG/1.1/DTD/svg11.dtd">
<!-- Generated by graphviz version 2.38.0 (20140413.2041)
 -->
<!-- Title: panda::Container::reallocate_ Pages: 1 -->
<svg width="307pt" height="41pt"
 viewBox="0.00 0.00 306.63 41.00" xmlns="http://www.w3.org/2000/svg" xmlns:xlink="http://www.w3.org/1999/xlink">
<g id="graph0" class="graph" transform="scale(1 1) rotate(0) translate(4 37)">
<title>panda::Container::reallocate_</title>
<polygon fill="white" stroke="none" points="-4,4 -4,-37 302.633,-37 302.633,4 -4,4"/>
<!-- Node1 -->
<g id="node1" class="node"><title>Node1</title>
<polygon fill="#bfbfbf" stroke="black" points="-1.42109e-14,-6.5 -1.42109e-14,-26.5 147.152,-26.5 147.152,-6.5 -1.42109e-14,-6.5"/>
<text text-anchor="middle" x="73.576" y="-13.5" font-family="Helvetica,sans-Serif" font-size="10.00">panda::Container::reallocate_</text>
</g>
<!-- Node2 -->
<g id="node2" class="node"><title>Node2</title>
<g id="a_node2"><a xlink:href="classpanda_1_1ContainerBase.html#ab6d7a5fe6fff90ef825c96d34073ffa9" target="_top" xlink:title="panda::ContainerBase\l::updateAddress_">
<polygon fill="white" stroke="black" points="183.152,-0.5 183.152,-32.5 298.633,-32.5 298.633,-0.5 183.152,-0.5"/>
<text text-anchor="start" x="191.152" y="-19.5" font-family="Helvetica,sans-Serif" font-size="10.00">panda::ContainerBase</text>
<text text-anchor="middle" x="240.892" y="-7.5" font-family="Helvetica,sans-Serif" font-size="10.00">::updateAddress_</text>
</a>
</g>
</g>
<!-- Node1&#45;&gt;Node2 -->
<g id="edge1" class="edge"><title>Node1&#45;&gt;Node2</title>
<path fill="none" stroke="midnightblue" d="M147.567,-16.5C155.839,-16.5 164.241,-16.5 172.436,-16.5"/>
<polygon fill="midnightblue" stroke="midnightblue" points="172.682,-20.0001 182.682,-16.5 172.682,-13.0001 172.682,-20.0001"/>
</g>
</g>
</svg>
