<?xml version="1.0" encoding="UTF-8" standalone="no"?>
<!DOCTYPE svg PUBLIC "-//W3C//DTD SVG 1.1//EN"
 "http://www.w3.org/Graphics/SVG/1.1/DTD/svg11.dtd">
<!-- Generated by graphviz version 2.38.0 (20140413.2041)
 -->
<!-- Title: panda::MetFilters::operator= Pages: 1 -->
<svg width="271pt" height="41pt"
 viewBox="0.00 0.00 271.34 41.00" xmlns="http://www.w3.org/2000/svg" xmlns:xlink="http://www.w3.org/1999/xlink">
<g id="graph0" class="graph" transform="scale(1 1) rotate(0) translate(4 37)">
<title>panda::MetFilters::operator=</title>
<polygon fill="white" stroke="none" points="-4,4 -4,-37 267.337,-37 267.337,4 -4,4"/>
<!-- Node1 -->
<g id="node1" class="node"><title>Node1</title>
<polygon fill="#bfbfbf" stroke="black" points="1.42109e-14,-0.5 1.42109e-14,-32.5 98.792,-32.5 98.792,-0.5 1.42109e-14,-0.5"/>
<text text-anchor="start" x="8" y="-19.5" font-family="Helvetica,sans-Serif" font-size="10.00">panda::MetFilters::</text>
<text text-anchor="middle" x="49.396" y="-7.5" font-family="Helvetica,sans-Serif" font-size="10.00">operator=</text>
</g>
<!-- Node2 -->
<g id="node2" class="node"><title>Node2</title>
<g id="a_node2"><a xlink:href="classpanda_1_1Singlet.html#a161b3df14c430fd7f1afdd64d098b211" target="_top" xlink:title="panda::Singlet::operator=">
<polygon fill="white" stroke="black" points="134.792,-6.5 134.792,-26.5 263.337,-26.5 263.337,-6.5 134.792,-6.5"/>
<text text-anchor="middle" x="199.065" y="-13.5" font-family="Helvetica,sans-Serif" font-size="10.00">panda::Singlet::operator=</text>
</a>
</g>
</g>
<!-- Node1&#45;&gt;Node2 -->
<g id="edge1" class="edge"><title>Node1&#45;&gt;Node2</title>
<path fill="none" stroke="midnightblue" d="M99.1574,-16.5C107.309,-16.5 115.923,-16.5 124.532,-16.5"/>
<polygon fill="midnightblue" stroke="midnightblue" points="124.607,-20.0001 134.607,-16.5 124.607,-13.0001 124.607,-20.0001"/>
</g>
</g>
</svg>
