<?xml version="1.0" encoding="UTF-8" standalone="no"?>
<!DOCTYPE svg PUBLIC "-//W3C//DTD SVG 1.1//EN"
 "http://www.w3.org/Graphics/SVG/1.1/DTD/svg11.dtd">
<!-- Generated by graphviz version 2.38.0 (20140413.2041)
 -->
<!-- Title: panda::Jet::Jet Pages: 1 -->
<svg width="770pt" height="41pt"
 viewBox="0.00 0.00 769.67 41.00" xmlns="http://www.w3.org/2000/svg" xmlns:xlink="http://www.w3.org/1999/xlink">
<g id="graph0" class="graph" transform="scale(1 1) rotate(0) translate(4 37)">
<title>panda::Jet::Jet</title>
<polygon fill="white" stroke="none" points="-4,4 -4,-37 765.669,-37 765.669,4 -4,4"/>
<!-- Node1 -->
<g id="node1" class="node"><title>Node1</title>
<polygon fill="#bfbfbf" stroke="black" points="0,-6.5 0,-26.5 81.587,-26.5 81.587,-6.5 0,-6.5"/>
<text text-anchor="middle" x="40.7935" y="-13.5" font-family="Helvetica,sans-Serif" font-size="10.00">panda::Jet::Jet</text>
</g>
<!-- Node2 -->
<g id="node2" class="node"><title>Node2</title>
<g id="a_node2"><a xlink:href="classpanda_1_1MicroJet.html#a9375dd6d13362ae323e9915b529458e8" target="_top" xlink:title="panda::MicroJet::operator=">
<polygon fill="white" stroke="black" points="117.587,-6.5 117.587,-26.5 253.343,-26.5 253.343,-6.5 117.587,-6.5"/>
<text text-anchor="middle" x="185.465" y="-13.5" font-family="Helvetica,sans-Serif" font-size="10.00">panda::MicroJet::operator=</text>
</a>
</g>
</g>
<!-- Node1&#45;&gt;Node2 -->
<g id="edge1" class="edge"><title>Node1&#45;&gt;Node2</title>
<path fill="none" stroke="midnightblue" d="M81.9151,-16.5C89.8531,-16.5 98.4335,-16.5 107.134,-16.5"/>
<polygon fill="midnightblue" stroke="midnightblue" points="107.371,-20.0001 117.371,-16.5 107.37,-13.0001 107.371,-20.0001"/>
</g>
<!-- Node3 -->
<g id="node3" class="node"><title>Node3</title>
<g id="a_node3"><a xlink:href="classpanda_1_1ParticleM.html#a37f7be4e1150b6080b47b005af730af5" target="_top" xlink:title="panda::ParticleM::operator=">
<polygon fill="white" stroke="black" points="289.343,-6.5 289.343,-26.5 428.987,-26.5 428.987,-6.5 289.343,-6.5"/>
<text text-anchor="middle" x="359.165" y="-13.5" font-family="Helvetica,sans-Serif" font-size="10.00">panda::ParticleM::operator=</text>
</a>
</g>
</g>
<!-- Node2&#45;&gt;Node3 -->
<g id="edge2" class="edge"><title>Node2&#45;&gt;Node3</title>
<path fill="none" stroke="midnightblue" d="M253.833,-16.5C262.115,-16.5 270.638,-16.5 279.074,-16.5"/>
<polygon fill="midnightblue" stroke="midnightblue" points="279.298,-20.0001 289.298,-16.5 279.298,-13.0001 279.298,-20.0001"/>
</g>
<!-- Node4 -->
<g id="node4" class="node"><title>Node4</title>
<g id="a_node4"><a xlink:href="classpanda_1_1Particle.html#a8c4fabfceb39b746b0e68a7389e662c4" target="_top" xlink:title="panda::Particle::operator=">
<polygon fill="white" stroke="black" points="464.987,-6.5 464.987,-26.5 596.302,-26.5 596.302,-6.5 464.987,-6.5"/>
<text text-anchor="middle" x="530.644" y="-13.5" font-family="Helvetica,sans-Serif" font-size="10.00">panda::Particle::operator=</text>
</a>
</g>
</g>
<!-- Node3&#45;&gt;Node4 -->
<g id="edge3" class="edge"><title>Node3&#45;&gt;Node4</title>
<path fill="none" stroke="midnightblue" d="M429.099,-16.5C437.503,-16.5 446.123,-16.5 454.611,-16.5"/>
<polygon fill="midnightblue" stroke="midnightblue" points="454.876,-20.0001 464.876,-16.5 454.876,-13.0001 454.876,-20.0001"/>
</g>
<!-- Node5 -->
<g id="node5" class="node"><title>Node5</title>
<g id="a_node5"><a xlink:href="classpanda_1_1ContainerElement.html#ae8ba59e4cb5d7c1d491fc87c9360f039" target="_top" xlink:title="panda::ContainerElement\l::operator=">
<polygon fill="white" stroke="black" points="632.302,-0.5 632.302,-32.5 761.669,-32.5 761.669,-0.5 632.302,-0.5"/>
<text text-anchor="start" x="640.302" y="-19.5" font-family="Helvetica,sans-Serif" font-size="10.00">panda::ContainerElement</text>
<text text-anchor="middle" x="696.985" y="-7.5" font-family="Helvetica,sans-Serif" font-size="10.00">::operator=</text>
</a>
</g>
</g>
<!-- Node4&#45;&gt;Node5 -->
<g id="edge4" class="edge"><title>Node4&#45;&gt;Node5</title>
<path fill="none" stroke="midnightblue" d="M596.596,-16.5C604.888,-16.5 613.425,-16.5 621.849,-16.5"/>
<polygon fill="midnightblue" stroke="midnightblue" points="622.043,-20.0001 632.043,-16.5 622.043,-13.0001 622.043,-20.0001"/>
</g>
</g>
</svg>
