<?xml version="1.0" encoding="UTF-8" standalone="no"?>
<!DOCTYPE svg PUBLIC "-//W3C//DTD SVG 1.1//EN"
 "http://www.w3.org/Graphics/SVG/1.1/DTD/svg11.dtd">
<!-- Generated by graphviz version 2.38.0 (20140413.2041)
 -->
<!-- Title: panda::MicroJet::destructor Pages: 1 -->
<svg width="457pt" height="29pt"
 viewBox="0.00 0.00 456.99 29.00" xmlns="http://www.w3.org/2000/svg" xmlns:xlink="http://www.w3.org/1999/xlink">
<g id="graph0" class="graph" transform="scale(1 1) rotate(0) translate(4 25)">
<title>panda::MicroJet::destructor</title>
<polygon fill="white" stroke="none" points="-4,4 -4,-25 452.986,-25 452.986,4 -4,4"/>
<!-- Node1 -->
<g id="node1" class="node"><title>Node1</title>
<polygon fill="#bfbfbf" stroke="black" points="-2.84217e-14,-0.5 -2.84217e-14,-20.5 137.137,-20.5 137.137,-0.5 -2.84217e-14,-0.5"/>
<text text-anchor="middle" x="68.5685" y="-7.5" font-family="Helvetica,sans-Serif" font-size="10.00">panda::MicroJet::destructor</text>
</g>
<!-- Node2 -->
<g id="node2" class="node"><title>Node2</title>
<g id="a_node2"><a xlink:href="classpanda_1_1Jet.html#adbd430a93e346588348e1eebaa90c42a" target="_top" xlink:title="Destructor implementation. ">
<polygon fill="white" stroke="black" points="173.137,-0.5 173.137,-20.5 285.838,-20.5 285.838,-0.5 173.137,-0.5"/>
<text text-anchor="middle" x="229.487" y="-7.5" font-family="Helvetica,sans-Serif" font-size="10.00">panda::Jet::destructor</text>
</a>
</g>
</g>
<!-- Node1&#45;&gt;Node2 -->
<g id="edge1" class="edge"><title>Node1&#45;&gt;Node2</title>
<path fill="none" stroke="midnightblue" d="M147.45,-10.5C156.019,-10.5 164.613,-10.5 172.832,-10.5"/>
<polygon fill="midnightblue" stroke="midnightblue" points="147.425,-7.0001 137.425,-10.5 147.425,-14.0001 147.425,-7.0001"/>
</g>
<!-- Node3 -->
<g id="node3" class="node"><title>Node3</title>
<g id="a_node3"><a xlink:href="classpanda_1_1FatJet.html#a421049d4b4315facb5bda39746f1a38b" target="_top" xlink:title="Destructor implementation. ">
<polygon fill="white" stroke="black" points="321.838,-0.5 321.838,-20.5 448.986,-20.5 448.986,-0.5 321.838,-0.5"/>
<text text-anchor="middle" x="385.412" y="-7.5" font-family="Helvetica,sans-Serif" font-size="10.00">panda::FatJet::destructor</text>
</a>
</g>
</g>
<!-- Node2&#45;&gt;Node3 -->
<g id="edge2" class="edge"><title>Node2&#45;&gt;Node3</title>
<path fill="none" stroke="midnightblue" d="M296.211,-10.5C304.633,-10.5 313.237,-10.5 321.611,-10.5"/>
<polygon fill="midnightblue" stroke="midnightblue" points="296.058,-7.0001 286.058,-10.5 296.058,-14.0001 296.058,-7.0001"/>
</g>
</g>
</svg>
