<?xml version="1.0" encoding="UTF-8" standalone="no"?>
<!DOCTYPE svg PUBLIC "-//W3C//DTD SVG 1.1//EN"
 "http://www.w3.org/Graphics/SVG/1.1/DTD/svg11.dtd">
<!-- Generated by graphviz version 2.38.0 (20140413.2041)
 -->
<!-- Title: panda::Particle::book Pages: 1 -->
<svg width="470pt" height="147pt"
 viewBox="0.00 0.00 470.32 147.00" xmlns="http://www.w3.org/2000/svg" xmlns:xlink="http://www.w3.org/1999/xlink">
<g id="graph0" class="graph" transform="scale(1 1) rotate(0) translate(4 143)">
<title>panda::Particle::book</title>
<polygon fill="white" stroke="none" points="-4,4 -4,-143 466.32,-143 466.32,4 -4,4"/>
<!-- Node1 -->
<g id="node1" class="node"><title>Node1</title>
<polygon fill="#bfbfbf" stroke="black" points="2.84217e-14,-73.5 2.84217e-14,-93.5 109.921,-93.5 109.921,-73.5 2.84217e-14,-73.5"/>
<text text-anchor="middle" x="54.9605" y="-80.5" font-family="Helvetica,sans-Serif" font-size="10.00">panda::Particle::book</text>
</g>
<!-- Node2 -->
<g id="node2" class="node"><title>Node2</title>
<g id="a_node2"><a xlink:href="classpanda_1_1Object.html#a2fcd6665633deef16e86aa4e49135dd7" target="_top" xlink:title="Book new branches to the tree corresponding to the variables of this object. ">
<polygon fill="white" stroke="black" points="161.197,-118.5 161.197,-138.5 266.68,-138.5 266.68,-118.5 161.197,-118.5"/>
<text text-anchor="middle" x="213.939" y="-125.5" font-family="Helvetica,sans-Serif" font-size="10.00">panda::Object::book</text>
</a>
</g>
</g>
<!-- Node1&#45;&gt;Node2 -->
<g id="edge1" class="edge"><title>Node1&#45;&gt;Node2</title>
<path fill="none" stroke="midnightblue" d="M90.5512,-93.5418C107.272,-98.3846 127.634,-104.265 145.921,-109.5 152.955,-111.514 160.407,-113.637 167.688,-115.705"/>
<polygon fill="midnightblue" stroke="midnightblue" points="166.877,-119.113 177.453,-118.476 168.788,-112.379 166.877,-119.113"/>
</g>
<!-- Node3 -->
<g id="node3" class="node"><title>Node3</title>
<g id="a_node3"><a xlink:href="classpanda_1_1utils_1_1StoreManager.html#a6f30ec459d951e84a1196b7e2ffdcf49" target="_top" xlink:title="panda::utils::StoreManager\l::getName">
<polygon fill="white" stroke="black" points="145.921,-67.5 145.921,-99.5 281.956,-99.5 281.956,-67.5 145.921,-67.5"/>
<text text-anchor="start" x="153.921" y="-86.5" font-family="Helvetica,sans-Serif" font-size="10.00">panda::utils::StoreManager</text>
<text text-anchor="middle" x="213.939" y="-74.5" font-family="Helvetica,sans-Serif" font-size="10.00">::getName</text>
</a>
</g>
</g>
<!-- Node1&#45;&gt;Node3 -->
<g id="edge2" class="edge"><title>Node1&#45;&gt;Node3</title>
<path fill="none" stroke="midnightblue" d="M109.983,-83.5C118.27,-83.5 126.961,-83.5 135.633,-83.5"/>
<polygon fill="midnightblue" stroke="midnightblue" points="135.779,-87.0001 145.779,-83.5 135.779,-80.0001 135.779,-87.0001"/>
</g>
<!-- Node4 -->
<g id="node4" class="node"><title>Node4</title>
<g id="a_node4"><a xlink:href="namespacepanda_1_1utils.html#aaa6c7cd5892388e6ffdf713b11abf793" target="_top" xlink:title="Book the branch. ">
<polygon fill="white" stroke="black" points="166.757,-28.5 166.757,-48.5 261.121,-48.5 261.121,-28.5 166.757,-28.5"/>
<text text-anchor="middle" x="213.939" y="-35.5" font-family="Helvetica,sans-Serif" font-size="10.00">panda::utils::book</text>
</a>
</g>
</g>
<!-- Node1&#45;&gt;Node4 -->
<g id="edge3" class="edge"><title>Node1&#45;&gt;Node4</title>
<path fill="none" stroke="midnightblue" d="M91.1894,-73.4011C113.912,-66.8874 143.669,-58.3572 168.076,-51.3605"/>
<polygon fill="midnightblue" stroke="midnightblue" points="169.179,-54.6854 177.827,-48.5652 167.25,-47.9564 169.179,-54.6854"/>
</g>
<!-- Node5 -->
<g id="node5" class="node"><title>Node5</title>
<g id="a_node5"><a xlink:href="classpanda_1_1utils_1_1BranchName.html#a6cc8a6df7c5b12a0221fd49773cca6a7" target="_top" xlink:title="Is the name included and not vetoed? ">
<polygon fill="white" stroke="black" points="317.956,-51.5 317.956,-71.5 462.32,-71.5 462.32,-51.5 317.956,-51.5"/>
<text text-anchor="middle" x="390.138" y="-58.5" font-family="Helvetica,sans-Serif" font-size="10.00">panda::utils::BranchName::in</text>
</a>
</g>
</g>
<!-- Node4&#45;&gt;Node5 -->
<g id="edge4" class="edge"><title>Node4&#45;&gt;Node5</title>
<path fill="none" stroke="midnightblue" d="M261.163,-44.6032C275.521,-46.4988 291.794,-48.6474 307.806,-50.7616"/>
<polygon fill="midnightblue" stroke="midnightblue" points="307.351,-54.2317 317.723,-52.0709 308.267,-47.2919 307.351,-54.2317"/>
</g>
<!-- Node6 -->
<g id="node6" class="node"><title>Node6</title>
<g id="a_node6"><a xlink:href="classpanda_1_1utils_1_1BranchName.html#a13958ff4a9d554d2c057c600b4f70412" target="_top" xlink:title="Prepend the branch name with &lt;objName.&gt;. ">
<polygon fill="white" stroke="black" points="324.624,-0.5 324.624,-32.5 455.652,-32.5 455.652,-0.5 324.624,-0.5"/>
<text text-anchor="start" x="332.624" y="-19.5" font-family="Helvetica,sans-Serif" font-size="10.00">panda::utils::BranchName</text>
<text text-anchor="middle" x="390.138" y="-7.5" font-family="Helvetica,sans-Serif" font-size="10.00">::fullName</text>
</a>
</g>
</g>
<!-- Node4&#45;&gt;Node6 -->
<g id="edge5" class="edge"><title>Node4&#45;&gt;Node6</title>
<path fill="none" stroke="midnightblue" d="M261.163,-32.6622C277.492,-30.6 296.3,-28.2247 314.383,-25.9409"/>
<polygon fill="midnightblue" stroke="midnightblue" points="314.852,-29.4096 324.334,-24.6842 313.975,-22.4648 314.852,-29.4096"/>
</g>
</g>
</svg>
