<?xml version="1.0" encoding="UTF-8" standalone="no"?>
<!DOCTYPE svg PUBLIC "-//W3C//DTD SVG 1.1//EN"
 "http://www.w3.org/Graphics/SVG/1.1/DTD/svg11.dtd">
<!-- Generated by graphviz version 2.38.0 (20140413.2041)
 -->
<!-- Title: panda.branch.Branch.arrdef_text Pages: 1 -->
<svg width="403pt" height="287pt"
 viewBox="0.00 0.00 402.76 287.00" xmlns="http://www.w3.org/2000/svg" xmlns:xlink="http://www.w3.org/1999/xlink">
<g id="graph0" class="graph" transform="scale(1 1) rotate(0) translate(4 283)">
<title>panda.branch.Branch.arrdef_text</title>
<polygon fill="white" stroke="none" points="-4,4 -4,-283 398.758,-283 398.758,4 -4,4"/>
<!-- Node1 -->
<g id="node1" class="node"><title>Node1</title>
<polygon fill="#bfbfbf" stroke="black" points="1.42109e-14,-129.5 1.42109e-14,-149.5 162.162,-149.5 162.162,-129.5 1.42109e-14,-129.5"/>
<text text-anchor="middle" x="81.081" y="-136.5" font-family="Helvetica,sans-Serif" font-size="10.00">panda.branch.Branch.arrdef_text</text>
</g>
<!-- Node2 -->
<g id="node2" class="node"><title>Node2</title>
<g id="a_node2"><a xlink:href="classpanda_1_1branch_1_1Branch.html#a11ce0de77040f41593ece6dce3137489" target="_top" xlink:title="panda.branch.Branch.write_decl">
<polygon fill="white" stroke="black" points="216.774,-258.5 216.774,-278.5 376.147,-278.5 376.147,-258.5 216.774,-258.5"/>
<text text-anchor="middle" x="296.46" y="-265.5" font-family="Helvetica,sans-Serif" font-size="10.00">panda.branch.Branch.write_decl</text>
</a>
</g>
</g>
<!-- Node1&#45;&gt;Node2 -->
<g id="edge1" class="edge"><title>Node1&#45;&gt;Node2</title>
<path fill="none" stroke="midnightblue" d="M95.6036,-157.605C115.264,-182.523 154.226,-226.867 198.162,-249.5 205.2,-253.126 212.85,-256.062 220.666,-258.439"/>
<polygon fill="midnightblue" stroke="midnightblue" points="98.3587,-155.446 89.4777,-149.669 92.8175,-159.723 98.3587,-155.446"/>
</g>
<!-- Node3 -->
<g id="node3" class="node"><title>Node3</title>
<g id="a_node3"><a xlink:href="classpanda_1_1branch_1_1Branch.html#ad4d6b4a6a42391cd7db05fde7441c5b3" target="_top" xlink:title="panda.branch.Branch.write\l_allocate">
<polygon fill="white" stroke="black" points="228.722,-207.5 228.722,-239.5 364.199,-239.5 364.199,-207.5 228.722,-207.5"/>
<text text-anchor="start" x="236.722" y="-226.5" font-family="Helvetica,sans-Serif" font-size="10.00">panda.branch.Branch.write</text>
<text text-anchor="middle" x="296.46" y="-214.5" font-family="Helvetica,sans-Serif" font-size="10.00">_allocate</text>
</a>
</g>
</g>
<!-- Node1&#45;&gt;Node3 -->
<g id="edge2" class="edge"><title>Node1&#45;&gt;Node3</title>
<path fill="none" stroke="midnightblue" d="M107.65,-154.554C130.691,-167.615 165.816,-186.293 198.162,-198.5 207.871,-202.164 218.323,-205.475 228.647,-208.4"/>
<polygon fill="midnightblue" stroke="midnightblue" points="109.269,-151.448 98.8533,-149.507 105.785,-157.52 109.269,-151.448"/>
</g>
<!-- Node4 -->
<g id="node4" class="node"><title>Node4</title>
<g id="a_node4"><a xlink:href="classpanda_1_1branch_1_1Branch.html#acd04edc5835a827e5aec0ffa1b15b6d0" target="_top" xlink:title="panda.branch.Branch.write_book">
<polygon fill="white" stroke="black" points="215.104,-168.5 215.104,-188.5 377.817,-188.5 377.817,-168.5 215.104,-168.5"/>
<text text-anchor="middle" x="296.46" y="-175.5" font-family="Helvetica,sans-Serif" font-size="10.00">panda.branch.Branch.write_book</text>
</a>
</g>
</g>
<!-- Node1&#45;&gt;Node4 -->
<g id="edge3" class="edge"><title>Node1&#45;&gt;Node4</title>
<path fill="none" stroke="midnightblue" d="M146.972,-151.36C176.926,-156.835 212.102,-163.264 240.696,-168.491"/>
<polygon fill="midnightblue" stroke="midnightblue" points="147.498,-147.899 137.031,-149.543 146.239,-154.784 147.498,-147.899"/>
</g>
<!-- Node5 -->
<g id="node5" class="node"><title>Node5</title>
<g id="a_node5"><a xlink:href="classpanda_1_1generic_1_1GenericBranch.html#a059cb9110191e678f8ccfba5dd6e798c" target="_top" xlink:title="panda.generic.GenericBranch.write_decl">
<polygon fill="white" stroke="black" points="198.162,-129.5 198.162,-149.5 394.758,-149.5 394.758,-129.5 198.162,-129.5"/>
<text text-anchor="middle" x="296.46" y="-136.5" font-family="Helvetica,sans-Serif" font-size="10.00">panda.generic.GenericBranch.write_decl</text>
</a>
</g>
</g>
<!-- Node1&#45;&gt;Node5 -->
<g id="edge4" class="edge"><title>Node1&#45;&gt;Node5</title>
<path fill="none" stroke="midnightblue" d="M172.583,-139.5C180.959,-139.5 189.473,-139.5 197.909,-139.5"/>
<polygon fill="midnightblue" stroke="midnightblue" points="172.446,-136 162.446,-139.5 172.446,-143 172.446,-136"/>
</g>
<!-- Node6 -->
<g id="node6" class="node"><title>Node6</title>
<g id="a_node6"><a xlink:href="classpanda_1_1refbranch_1_1RefBranch.html#a3287a514343dbae3d50e9578e7c6bb5e" target="_top" xlink:title="panda.refbranch.RefBranch.write_decl">
<polygon fill="white" stroke="black" points="203.162,-90.5 203.162,-110.5 389.759,-110.5 389.759,-90.5 203.162,-90.5"/>
<text text-anchor="middle" x="296.46" y="-97.5" font-family="Helvetica,sans-Serif" font-size="10.00">panda.refbranch.RefBranch.write_decl</text>
</a>
</g>
</g>
<!-- Node1&#45;&gt;Node6 -->
<g id="edge5" class="edge"><title>Node1&#45;&gt;Node6</title>
<path fill="none" stroke="midnightblue" d="M146.972,-127.64C176.926,-122.165 212.102,-115.736 240.696,-110.509"/>
<polygon fill="midnightblue" stroke="midnightblue" points="146.239,-124.216 137.031,-129.457 147.498,-131.101 146.239,-124.216"/>
</g>
<!-- Node7 -->
<g id="node7" class="node"><title>Node7</title>
<g id="a_node7"><a xlink:href="classpanda_1_1refbranch_1_1RefBranch.html#af4fcfe1d2a1ed6e6d78d34271187a9d4" target="_top" xlink:title="panda.refbranch.RefBranch.write_book">
<polygon fill="white" stroke="black" points="201.492,-51.5 201.492,-71.5 391.429,-71.5 391.429,-51.5 201.492,-51.5"/>
<text text-anchor="middle" x="296.46" y="-58.5" font-family="Helvetica,sans-Serif" font-size="10.00">panda.refbranch.RefBranch.write_book</text>
</a>
</g>
</g>
<!-- Node1&#45;&gt;Node7 -->
<g id="edge6" class="edge"><title>Node1&#45;&gt;Node7</title>
<path fill="none" stroke="midnightblue" d="M107.546,-124.343C130.519,-111.268 165.602,-92.7635 198.162,-81.5 209.652,-77.5253 222.192,-74.223 234.333,-71.5241"/>
<polygon fill="midnightblue" stroke="midnightblue" points="105.689,-121.373 98.7783,-129.404 109.189,-127.436 105.689,-121.373"/>
</g>
<!-- Node8 -->
<g id="node8" class="node"><title>Node8</title>
<g id="a_node8"><a xlink:href="classpanda_1_1refvbranch_1_1RefVectorBranch.html#a1ee9513bd0963fdfab24f8e0520ca07a" target="_top" xlink:title="panda.refvbranch.RefVector\lBranch.write_decl">
<polygon fill="white" stroke="black" points="225.942,-0.5 225.942,-32.5 366.979,-32.5 366.979,-0.5 225.942,-0.5"/>
<text text-anchor="start" x="233.942" y="-19.5" font-family="Helvetica,sans-Serif" font-size="10.00">panda.refvbranch.RefVector</text>
<text text-anchor="middle" x="296.46" y="-7.5" font-family="Helvetica,sans-Serif" font-size="10.00">Branch.write_decl</text>
</a>
</g>
</g>
<!-- Node1&#45;&gt;Node8 -->
<g id="edge7" class="edge"><title>Node1&#45;&gt;Node8</title>
<path fill="none" stroke="midnightblue" d="M98.1366,-122.038C119.097,-100.273 157.883,-63.3981 198.162,-42.5 206.776,-38.0309 216.228,-34.2776 225.749,-31.1397"/>
<polygon fill="midnightblue" stroke="midnightblue" points="95.5813,-119.647 91.2511,-129.316 100.666,-124.458 95.5813,-119.647"/>
</g>
</g>
</svg>
