<?xml version="1.0" encoding="UTF-8" standalone="no"?>
<!DOCTYPE svg PUBLIC "-//W3C//DTD SVG 1.1//EN"
 "http://www.w3.org/Graphics/SVG/1.1/DTD/svg11.dtd">
<!-- Generated by graphviz version 2.38.0 (20140413.2041)
 -->
<!-- Title: panda::Particle::p4 Pages: 1 -->
<svg width="240pt" height="47pt"
 viewBox="0.00 0.00 239.94 47.00" xmlns="http://www.w3.org/2000/svg" xmlns:xlink="http://www.w3.org/1999/xlink">
<g id="graph0" class="graph" transform="scale(1 1) rotate(0) translate(4 43)">
<title>panda::Particle::p4</title>
<polygon fill="white" stroke="none" points="-4,4 -4,-43 235.935,-43 235.935,4 -4,4"/>
<!-- Node1 -->
<g id="node1" class="node"><title>Node1</title>
<polygon fill="#bfbfbf" stroke="black" points="1.42109e-14,-0.5 1.42109e-14,-20.5 99.362,-20.5 99.362,-0.5 1.42109e-14,-0.5"/>
<text text-anchor="middle" x="49.681" y="-7.5" font-family="Helvetica,sans-Serif" font-size="10.00">panda::Particle::p4</text>
</g>
<!-- Node1&#45;&gt;Node1 -->
<g id="edge1" class="edge"><title>Node1&#45;&gt;Node1</title>
<path fill="none" stroke="midnightblue" d="M29.0157,-20.7271C19.5894,-29.6067 26.4779,-39 49.681,-39 64.5455,-39 72.7144,-35.145 74.1878,-30.0396"/>
<polygon fill="midnightblue" stroke="midnightblue" points="77.3953,-28.6367 70.3463,-20.7271 70.9242,-31.3061 77.3953,-28.6367"/>
</g>
<!-- Node2 -->
<g id="node2" class="node"><title>Node2</title>
<g id="a_node2"><a xlink:href="classpanda_1_1Particle.html#aa793c05fc1334ed462e18c794339eebf" target="_top" xlink:title="panda::Particle::m">
<polygon fill="white" stroke="black" points="135.362,-0.5 135.362,-20.5 231.935,-20.5 231.935,-0.5 135.362,-0.5"/>
<text text-anchor="middle" x="183.649" y="-7.5" font-family="Helvetica,sans-Serif" font-size="10.00">panda::Particle::m</text>
</a>
</g>
</g>
<!-- Node1&#45;&gt;Node2 -->
<g id="edge2" class="edge"><title>Node1&#45;&gt;Node2</title>
<path fill="none" stroke="midnightblue" d="M99.4459,-10.5C107.693,-10.5 116.327,-10.5 124.78,-10.5"/>
<polygon fill="midnightblue" stroke="midnightblue" points="124.963,-14.0001 134.963,-10.5 124.963,-7.0001 124.963,-14.0001"/>
</g>
</g>
</svg>
