<?xml version="1.0" encoding="UTF-8" standalone="no"?>
<!DOCTYPE svg PUBLIC "-//W3C//DTD SVG 1.1//EN"
 "http://www.w3.org/Graphics/SVG/1.1/DTD/svg11.dtd">
<!-- Generated by graphviz version 2.38.0 (20140413.2041)
 -->
<!-- Title: panda::CollectionBase::resize Pages: 1 -->
<svg width="295pt" height="233pt"
 viewBox="0.00 0.00 294.95 233.00" xmlns="http://www.w3.org/2000/svg" xmlns:xlink="http://www.w3.org/1999/xlink">
<g id="graph0" class="graph" transform="scale(1 1) rotate(0) translate(4 229)">
<title>panda::CollectionBase::resize</title>
<polygon fill="white" stroke="none" points="-4,4 -4,-229 290.949,-229 290.949,4 -4,4"/>
<!-- Node1 -->
<g id="node1" class="node"><title>Node1</title>
<polygon fill="#bfbfbf" stroke="black" points="-1.42109e-14,-90.5 -1.42109e-14,-122.5 116.031,-122.5 116.031,-90.5 -1.42109e-14,-90.5"/>
<text text-anchor="start" x="8" y="-109.5" font-family="Helvetica,sans-Serif" font-size="10.00">panda::CollectionBase</text>
<text text-anchor="middle" x="58.0155" y="-97.5" font-family="Helvetica,sans-Serif" font-size="10.00">::resize</text>
</g>
<!-- Node2 -->
<g id="node2" class="node"><title>Node2</title>
<g id="a_node2"><a xlink:href="classpanda_1_1ContainerBase.html#a14b14c940d7c8b0ce870c7df333e18a7" target="_top" xlink:title="panda::ContainerBase\l::getData">
<polygon fill="white" stroke="black" points="161.749,-192.5 161.749,-224.5 277.23,-224.5 277.23,-192.5 161.749,-192.5"/>
<text text-anchor="start" x="169.749" y="-211.5" font-family="Helvetica,sans-Serif" font-size="10.00">panda::ContainerBase</text>
<text text-anchor="middle" x="219.49" y="-199.5" font-family="Helvetica,sans-Serif" font-size="10.00">::getData</text>
</a>
</g>
</g>
<!-- Node1&#45;&gt;Node2 -->
<g id="edge1" class="edge"><title>Node1&#45;&gt;Node2</title>
<path fill="none" stroke="midnightblue" d="M74.8976,-122.502C92.4822,-139.5 122.292,-166.249 152.031,-183.5 154.857,-185.139 157.81,-186.707 160.833,-188.2"/>
<polygon fill="midnightblue" stroke="midnightblue" points="159.512,-191.445 170.058,-192.455 162.443,-185.089 159.512,-191.445"/>
</g>
<!-- Node3 -->
<g id="node3" class="node"><title>Node3</title>
<g id="a_node3"><a xlink:href="classpanda_1_1ContainerBase.html#a89fcae0bf801676563ab4056c6c8345a" target="_top" xlink:title="panda::ContainerBase\l::reallocate_">
<polygon fill="white" stroke="black" points="161.749,-141.5 161.749,-173.5 277.23,-173.5 277.23,-141.5 161.749,-141.5"/>
<text text-anchor="start" x="169.749" y="-160.5" font-family="Helvetica,sans-Serif" font-size="10.00">panda::ContainerBase</text>
<text text-anchor="middle" x="219.49" y="-148.5" font-family="Helvetica,sans-Serif" font-size="10.00">::reallocate_</text>
</a>
</g>
</g>
<!-- Node1&#45;&gt;Node3 -->
<g id="edge2" class="edge"><title>Node1&#45;&gt;Node3</title>
<path fill="none" stroke="midnightblue" d="M109.474,-122.637C125.041,-127.615 142.337,-133.146 158.482,-138.309"/>
<polygon fill="midnightblue" stroke="midnightblue" points="157.769,-141.756 168.36,-141.468 159.901,-135.088 157.769,-141.756"/>
</g>
<!-- Node4 -->
<g id="node4" class="node"><title>Node4</title>
<g id="a_node4"><a xlink:href="structpanda_1_1ContainerElement_1_1datastore.html#ac050bf7055f0c53b4aff4234e2de6e20" target="_top" xlink:title="Override when there are vector members. ">
<polygon fill="white" stroke="black" points="152.031,-90.5 152.031,-122.5 286.949,-122.5 286.949,-90.5 152.031,-90.5"/>
<text text-anchor="start" x="160.031" y="-109.5" font-family="Helvetica,sans-Serif" font-size="10.00">panda::ContainerElement</text>
<text text-anchor="middle" x="219.49" y="-97.5" font-family="Helvetica,sans-Serif" font-size="10.00">::datastore::resizeVectors_</text>
</a>
</g>
</g>
<!-- Node1&#45;&gt;Node4 -->
<g id="edge3" class="edge"><title>Node1&#45;&gt;Node4</title>
<path fill="none" stroke="midnightblue" d="M116.139,-106.5C124.49,-106.5 133.202,-106.5 141.864,-106.5"/>
<polygon fill="midnightblue" stroke="midnightblue" points="141.986,-110 151.986,-106.5 141.986,-103 141.986,-110"/>
</g>
<!-- Node5 -->
<g id="node5" class="node"><title>Node5</title>
<g id="a_node5"><a xlink:href="classpanda_1_1ContainerBase.html#a611d8e68bcae5de2046874b340256fb4" target="_top" xlink:title="panda::ContainerBase\l::elemAt">
<polygon fill="white" stroke="black" points="161.749,-39.5 161.749,-71.5 277.23,-71.5 277.23,-39.5 161.749,-39.5"/>
<text text-anchor="start" x="169.749" y="-58.5" font-family="Helvetica,sans-Serif" font-size="10.00">panda::ContainerBase</text>
<text text-anchor="middle" x="219.49" y="-46.5" font-family="Helvetica,sans-Serif" font-size="10.00">::elemAt</text>
</a>
</g>
</g>
<!-- Node1&#45;&gt;Node5 -->
<g id="edge4" class="edge"><title>Node1&#45;&gt;Node5</title>
<path fill="none" stroke="midnightblue" d="M109.474,-90.3633C125.041,-85.3849 142.337,-79.8537 158.482,-74.6906"/>
<polygon fill="midnightblue" stroke="midnightblue" points="159.901,-77.9115 168.36,-71.5317 157.769,-71.2442 159.901,-77.9115"/>
</g>
<!-- Node6 -->
<g id="node6" class="node"><title>Node6</title>
<g id="a_node6"><a xlink:href="classpanda_1_1Object.html#a204960e5f165a28176f9b4a42b9ea90c" target="_top" xlink:title="Reset object state. ">
<polygon fill="white" stroke="black" points="171.199,-0.5 171.199,-20.5 267.781,-20.5 267.781,-0.5 171.199,-0.5"/>
<text text-anchor="middle" x="219.49" y="-7.5" font-family="Helvetica,sans-Serif" font-size="10.00">panda::Object::init</text>
</a>
</g>
</g>
<!-- Node1&#45;&gt;Node6 -->
<g id="edge5" class="edge"><title>Node1&#45;&gt;Node6</title>
<path fill="none" stroke="midnightblue" d="M74.7204,-90.3294C92.1536,-73.2305 121.834,-46.5557 152.031,-30.5 156.569,-28.0871 161.44,-25.923 166.407,-23.9917"/>
<polygon fill="midnightblue" stroke="midnightblue" points="167.774,-27.2201 176.015,-20.5608 165.42,-20.6278 167.774,-27.2201"/>
</g>
</g>
</svg>
