<?xml version="1.0" encoding="UTF-8" standalone="no"?>
<!DOCTYPE svg PUBLIC "-//W3C//DTD SVG 1.1//EN"
 "http://www.w3.org/Graphics/SVG/1.1/DTD/svg11.dtd">
<!-- Generated by graphviz version 2.38.0 (20140413.2041)
 -->
<!-- Title: panda::SuperCluster::releaseTree Pages: 1 -->
<svg width="456pt" height="125pt"
 viewBox="0.00 0.00 455.87 125.00" xmlns="http://www.w3.org/2000/svg" xmlns:xlink="http://www.w3.org/1999/xlink">
<g id="graph0" class="graph" transform="scale(1 1) rotate(0) translate(4 121)">
<title>panda::SuperCluster::releaseTree</title>
<polygon fill="white" stroke="none" points="-4,4 -4,-121 451.866,-121 451.866,4 -4,4"/>
<!-- Node1 -->
<g id="node1" class="node"><title>Node1</title>
<polygon fill="#bfbfbf" stroke="black" points="-7.10543e-15,-45.5 -7.10543e-15,-77.5 107.692,-77.5 107.692,-45.5 -7.10543e-15,-45.5"/>
<text text-anchor="start" x="8" y="-64.5" font-family="Helvetica,sans-Serif" font-size="10.00">panda::SuperCluster</text>
<text text-anchor="middle" x="53.846" y="-52.5" font-family="Helvetica,sans-Serif" font-size="10.00">::releaseTree</text>
</g>
<!-- Node2 -->
<g id="node2" class="node"><title>Node2</title>
<g id="a_node2"><a xlink:href="classpanda_1_1Object.html#aaf58438092b42a89b838ce12c6a23833" target="_top" xlink:title="Reset the branch pointer to unlink the branch from this object. ">
<polygon fill="white" stroke="black" points="143.692,-96.5 143.692,-116.5 280.838,-116.5 280.838,-96.5 143.692,-96.5"/>
<text text-anchor="middle" x="212.265" y="-103.5" font-family="Helvetica,sans-Serif" font-size="10.00">panda::Object::releaseTree</text>
</a>
</g>
</g>
<!-- Node1&#45;&gt;Node2 -->
<g id="edge1" class="edge"><title>Node1&#45;&gt;Node2</title>
<path fill="none" stroke="midnightblue" d="M107.907,-77.1277C119.683,-80.5679 132.106,-84.1759 143.692,-87.5 150.698,-89.5101 158.119,-91.6181 165.379,-93.6685"/>
<polygon fill="midnightblue" stroke="midnightblue" points="164.55,-97.0711 175.124,-96.4143 166.448,-90.3334 164.55,-97.0711"/>
</g>
<!-- Node3 -->
<g id="node3" class="node"><title>Node3</title>
<g id="a_node3"><a xlink:href="classpanda_1_1utils_1_1StoreManager.html#a6f30ec459d951e84a1196b7e2ffdcf49" target="_top" xlink:title="panda::utils::StoreManager\l::getName">
<polygon fill="white" stroke="black" points="144.248,-45.5 144.248,-77.5 280.282,-77.5 280.282,-45.5 144.248,-45.5"/>
<text text-anchor="start" x="152.248" y="-64.5" font-family="Helvetica,sans-Serif" font-size="10.00">panda::utils::StoreManager</text>
<text text-anchor="middle" x="212.265" y="-52.5" font-family="Helvetica,sans-Serif" font-size="10.00">::getName</text>
</a>
</g>
</g>
<!-- Node1&#45;&gt;Node3 -->
<g id="edge2" class="edge"><title>Node1&#45;&gt;Node3</title>
<path fill="none" stroke="midnightblue" d="M107.802,-61.5C116.302,-61.5 125.248,-61.5 134.175,-61.5"/>
<polygon fill="midnightblue" stroke="midnightblue" points="134.22,-65.0001 144.22,-61.5 134.22,-58.0001 134.22,-65.0001"/>
</g>
<!-- Node4 -->
<g id="node4" class="node"><title>Node4</title>
<g id="a_node4"><a xlink:href="namespacepanda_1_1utils.html#a82a8530e64fbdf917cf9b8659065f98b" target="_top" xlink:title="panda::utils::resetAddress">
<polygon fill="white" stroke="black" points="146.471,-6.5 146.471,-26.5 278.059,-26.5 278.059,-6.5 146.471,-6.5"/>
<text text-anchor="middle" x="212.265" y="-13.5" font-family="Helvetica,sans-Serif" font-size="10.00">panda::utils::resetAddress</text>
</a>
</g>
</g>
<!-- Node1&#45;&gt;Node4 -->
<g id="edge3" class="edge"><title>Node1&#45;&gt;Node4</title>
<path fill="none" stroke="midnightblue" d="M107.802,-46.2651C126.797,-40.8006 148.017,-34.6956 166.273,-29.4438"/>
<polygon fill="midnightblue" stroke="midnightblue" points="167.434,-32.7518 176.076,-26.6234 165.498,-26.0247 167.434,-32.7518"/>
</g>
<!-- Node5 -->
<g id="node5" class="node"><title>Node5</title>
<g id="a_node5"><a xlink:href="classpanda_1_1utils_1_1BranchName.html#a13958ff4a9d554d2c057c600b4f70412" target="_top" xlink:title="Prepend the branch name with &lt;objName.&gt;. ">
<polygon fill="white" stroke="black" points="316.838,-0.5 316.838,-32.5 447.866,-32.5 447.866,-0.5 316.838,-0.5"/>
<text text-anchor="start" x="324.838" y="-19.5" font-family="Helvetica,sans-Serif" font-size="10.00">panda::utils::BranchName</text>
<text text-anchor="middle" x="382.352" y="-7.5" font-family="Helvetica,sans-Serif" font-size="10.00">::fullName</text>
</a>
</g>
</g>
<!-- Node4&#45;&gt;Node5 -->
<g id="edge4" class="edge"><title>Node4&#45;&gt;Node5</title>
<path fill="none" stroke="midnightblue" d="M278.252,-16.5C287.546,-16.5 297.169,-16.5 306.632,-16.5"/>
<polygon fill="midnightblue" stroke="midnightblue" points="306.815,-20.0001 316.815,-16.5 306.815,-13.0001 306.815,-20.0001"/>
</g>
</g>
</svg>
