<?xml version="1.0" encoding="UTF-8" standalone="no"?>
<!DOCTYPE svg PUBLIC "-//W3C//DTD SVG 1.1//EN"
 "http://www.w3.org/Graphics/SVG/1.1/DTD/svg11.dtd">
<!-- Generated by graphviz version 2.38.0 (20140413.2041)
 -->
<!-- Title: panda::Parton::destructor Pages: 1 -->
<svg width="648pt" height="41pt"
 viewBox="0.00 0.00 647.90 41.00" xmlns="http://www.w3.org/2000/svg" xmlns:xlink="http://www.w3.org/1999/xlink">
<g id="graph0" class="graph" transform="scale(1 1) rotate(0) translate(4 37)">
<title>panda::Parton::destructor</title>
<polygon fill="white" stroke="none" points="-4,4 -4,-37 643.905,-37 643.905,4 -4,4"/>
<!-- Node1 -->
<g id="node1" class="node"><title>Node1</title>
<polygon fill="#bfbfbf" stroke="black" points="0,-6.5 0,-26.5 128.817,-26.5 128.817,-6.5 0,-6.5"/>
<text text-anchor="middle" x="64.4085" y="-13.5" font-family="Helvetica,sans-Serif" font-size="10.00">panda::Parton::destructor</text>
</g>
<!-- Node2 -->
<g id="node2" class="node"><title>Node2</title>
<g id="a_node2"><a xlink:href="classpanda_1_1ParticleM.html#abef15d28e6e33ee92c0b318bd41af2ca" target="_top" xlink:title="Destructor implementation. ">
<polygon fill="white" stroke="black" points="164.817,-6.5 164.817,-26.5 305.842,-26.5 305.842,-6.5 164.817,-6.5"/>
<text text-anchor="middle" x="235.329" y="-13.5" font-family="Helvetica,sans-Serif" font-size="10.00">panda::ParticleM::destructor</text>
</a>
</g>
</g>
<!-- Node1&#45;&gt;Node2 -->
<g id="edge1" class="edge"><title>Node1&#45;&gt;Node2</title>
<path fill="none" stroke="midnightblue" d="M129.27,-16.5C137.507,-16.5 146.021,-16.5 154.474,-16.5"/>
<polygon fill="midnightblue" stroke="midnightblue" points="154.732,-20.0001 164.731,-16.5 154.731,-13.0001 154.732,-20.0001"/>
</g>
<!-- Node3 -->
<g id="node3" class="node"><title>Node3</title>
<g id="a_node3"><a xlink:href="classpanda_1_1Particle.html#ad1a5f606b804ac2ec5d7e391aba6bda6" target="_top" xlink:title="Destructor implementation. ">
<polygon fill="white" stroke="black" points="341.842,-6.5 341.842,-26.5 474.538,-26.5 474.538,-6.5 341.842,-6.5"/>
<text text-anchor="middle" x="408.19" y="-13.5" font-family="Helvetica,sans-Serif" font-size="10.00">panda::Particle::destructor</text>
</a>
</g>
</g>
<!-- Node2&#45;&gt;Node3 -->
<g id="edge2" class="edge"><title>Node2&#45;&gt;Node3</title>
<path fill="none" stroke="midnightblue" d="M306.318,-16.5C314.639,-16.5 323.162,-16.5 331.557,-16.5"/>
<polygon fill="midnightblue" stroke="midnightblue" points="331.712,-20.0001 341.712,-16.5 331.712,-13.0001 331.712,-20.0001"/>
</g>
<!-- Node4 -->
<g id="node4" class="node"><title>Node4</title>
<g id="a_node4"><a xlink:href="classpanda_1_1ContainerElement.html#aa1c71695dae992e82bf91f354aa8480c" target="_top" xlink:title="Destructor implementation. ">
<polygon fill="white" stroke="black" points="510.538,-0.5 510.538,-32.5 639.905,-32.5 639.905,-0.5 510.538,-0.5"/>
<text text-anchor="start" x="518.538" y="-19.5" font-family="Helvetica,sans-Serif" font-size="10.00">panda::ContainerElement</text>
<text text-anchor="middle" x="575.221" y="-7.5" font-family="Helvetica,sans-Serif" font-size="10.00">::destructor</text>
</a>
</g>
</g>
<!-- Node3&#45;&gt;Node4 -->
<g id="edge3" class="edge"><title>Node3&#45;&gt;Node4</title>
<path fill="none" stroke="midnightblue" d="M474.889,-16.5C483.197,-16.5 491.741,-16.5 500.168,-16.5"/>
<polygon fill="midnightblue" stroke="midnightblue" points="500.363,-20.0001 510.363,-16.5 500.362,-13.0001 500.363,-20.0001"/>
</g>
</g>
</svg>
