<?xml version="1.0" encoding="UTF-8" standalone="no"?>
<!DOCTYPE svg PUBLIC "-//W3C//DTD SVG 1.1//EN"
 "http://www.w3.org/Graphics/SVG/1.1/DTD/svg11.dtd">
<!-- Generated by graphviz version 2.38.0 (20140413.2041)
 -->
<!-- Title: panda::Lepton::operator= Pages: 1 -->
<svg width="469pt" height="41pt"
 viewBox="0.00 0.00 469.24 41.00" xmlns="http://www.w3.org/2000/svg" xmlns:xlink="http://www.w3.org/1999/xlink">
<g id="graph0" class="graph" transform="scale(1 1) rotate(0) translate(4 37)">
<title>panda::Lepton::operator=</title>
<polygon fill="white" stroke="none" points="-4,4 -4,-37 465.238,-37 465.238,4 -4,4"/>
<!-- Node1 -->
<g id="node1" class="node"><title>Node1</title>
<polygon fill="#bfbfbf" stroke="black" points="-2.84217e-14,-6.5 -2.84217e-14,-26.5 128.556,-26.5 128.556,-6.5 -2.84217e-14,-6.5"/>
<text text-anchor="middle" x="64.278" y="-13.5" font-family="Helvetica,sans-Serif" font-size="10.00">panda::Lepton::operator=</text>
</g>
<!-- Node2 -->
<g id="node2" class="node"><title>Node2</title>
<g id="a_node2"><a xlink:href="classpanda_1_1Particle.html#a8c4fabfceb39b746b0e68a7389e662c4" target="_top" xlink:title="panda::Particle::operator=">
<polygon fill="white" stroke="black" points="164.556,-6.5 164.556,-26.5 295.871,-26.5 295.871,-6.5 164.556,-6.5"/>
<text text-anchor="middle" x="230.213" y="-13.5" font-family="Helvetica,sans-Serif" font-size="10.00">panda::Particle::operator=</text>
</a>
</g>
</g>
<!-- Node1&#45;&gt;Node2 -->
<g id="edge1" class="edge"><title>Node1&#45;&gt;Node2</title>
<path fill="none" stroke="midnightblue" d="M128.66,-16.5C137.079,-16.5 145.773,-16.5 154.363,-16.5"/>
<polygon fill="midnightblue" stroke="midnightblue" points="154.376,-20.0001 164.376,-16.5 154.376,-13.0001 154.376,-20.0001"/>
</g>
<!-- Node3 -->
<g id="node3" class="node"><title>Node3</title>
<g id="a_node3"><a xlink:href="classpanda_1_1ContainerElement.html#ae8ba59e4cb5d7c1d491fc87c9360f039" target="_top" xlink:title="panda::ContainerElement\l::operator=">
<polygon fill="white" stroke="black" points="331.871,-0.5 331.871,-32.5 461.238,-32.5 461.238,-0.5 331.871,-0.5"/>
<text text-anchor="start" x="339.871" y="-19.5" font-family="Helvetica,sans-Serif" font-size="10.00">panda::ContainerElement</text>
<text text-anchor="middle" x="396.554" y="-7.5" font-family="Helvetica,sans-Serif" font-size="10.00">::operator=</text>
</a>
</g>
</g>
<!-- Node2&#45;&gt;Node3 -->
<g id="edge2" class="edge"><title>Node2&#45;&gt;Node3</title>
<path fill="none" stroke="midnightblue" d="M296.165,-16.5C304.457,-16.5 312.994,-16.5 321.418,-16.5"/>
<polygon fill="midnightblue" stroke="midnightblue" points="321.612,-20.0001 331.612,-16.5 321.612,-13.0001 321.612,-20.0001"/>
</g>
</g>
</svg>
