<?xml version="1.0" encoding="UTF-8" standalone="no"?>
<!DOCTYPE svg PUBLIC "-//W3C//DTD SVG 1.1//EN"
 "http://www.w3.org/Graphics/SVG/1.1/DTD/svg11.dtd">
<!-- Generated by graphviz version 2.38.0 (20140413.2041)
 -->
<!-- Title: panda::FatJet::destructor Pages: 1 -->
<svg width="968pt" height="41pt"
 viewBox="0.00 0.00 968.07 41.00" xmlns="http://www.w3.org/2000/svg" xmlns:xlink="http://www.w3.org/1999/xlink">
<g id="graph0" class="graph" transform="scale(1 1) rotate(0) translate(4 37)">
<title>panda::FatJet::destructor</title>
<polygon fill="white" stroke="none" points="-4,4 -4,-37 964.074,-37 964.074,4 -4,4"/>
<!-- Node1 -->
<g id="node1" class="node"><title>Node1</title>
<polygon fill="#bfbfbf" stroke="black" points="-4.9738e-14,-6.5 -4.9738e-14,-26.5 127.148,-26.5 127.148,-6.5 -4.9738e-14,-6.5"/>
<text text-anchor="middle" x="63.574" y="-13.5" font-family="Helvetica,sans-Serif" font-size="10.00">panda::FatJet::destructor</text>
</g>
<!-- Node2 -->
<g id="node2" class="node"><title>Node2</title>
<g id="a_node2"><a xlink:href="classpanda_1_1Jet.html#adbd430a93e346588348e1eebaa90c42a" target="_top" xlink:title="Destructor implementation. ">
<polygon fill="white" stroke="black" points="163.148,-6.5 163.148,-26.5 275.849,-26.5 275.849,-6.5 163.148,-6.5"/>
<text text-anchor="middle" x="219.498" y="-13.5" font-family="Helvetica,sans-Serif" font-size="10.00">panda::Jet::destructor</text>
</a>
</g>
</g>
<!-- Node1&#45;&gt;Node2 -->
<g id="edge1" class="edge"><title>Node1&#45;&gt;Node2</title>
<path fill="none" stroke="midnightblue" d="M127.181,-16.5C135.584,-16.5 144.223,-16.5 152.679,-16.5"/>
<polygon fill="midnightblue" stroke="midnightblue" points="152.874,-20.0001 162.874,-16.5 152.874,-13.0001 152.874,-20.0001"/>
</g>
<!-- Node3 -->
<g id="node3" class="node"><title>Node3</title>
<g id="a_node3"><a xlink:href="classpanda_1_1MicroJet.html#a89f2dbacfc1c34c4f34185ea305f8797" target="_top" xlink:title="Destructor implementation. ">
<polygon fill="white" stroke="black" points="311.849,-6.5 311.849,-26.5 448.986,-26.5 448.986,-6.5 311.849,-6.5"/>
<text text-anchor="middle" x="380.417" y="-13.5" font-family="Helvetica,sans-Serif" font-size="10.00">panda::MicroJet::destructor</text>
</a>
</g>
</g>
<!-- Node2&#45;&gt;Node3 -->
<g id="edge2" class="edge"><title>Node2&#45;&gt;Node3</title>
<path fill="none" stroke="midnightblue" d="M276.081,-16.5C284.38,-16.5 293.062,-16.5 301.716,-16.5"/>
<polygon fill="midnightblue" stroke="midnightblue" points="301.838,-20.0001 311.838,-16.5 301.838,-13.0001 301.838,-20.0001"/>
</g>
<!-- Node4 -->
<g id="node4" class="node"><title>Node4</title>
<g id="a_node4"><a xlink:href="classpanda_1_1ParticleM.html#abef15d28e6e33ee92c0b318bd41af2ca" target="_top" xlink:title="Destructor implementation. ">
<polygon fill="white" stroke="black" points="484.986,-6.5 484.986,-26.5 626.011,-26.5 626.011,-6.5 484.986,-6.5"/>
<text text-anchor="middle" x="555.498" y="-13.5" font-family="Helvetica,sans-Serif" font-size="10.00">panda::ParticleM::destructor</text>
</a>
</g>
</g>
<!-- Node3&#45;&gt;Node4 -->
<g id="edge3" class="edge"><title>Node3&#45;&gt;Node4</title>
<path fill="none" stroke="midnightblue" d="M449.327,-16.5C457.609,-16.5 466.129,-16.5 474.566,-16.5"/>
<polygon fill="midnightblue" stroke="midnightblue" points="474.793,-20.0001 484.793,-16.5 474.792,-13.0001 474.793,-20.0001"/>
</g>
<!-- Node5 -->
<g id="node5" class="node"><title>Node5</title>
<g id="a_node5"><a xlink:href="classpanda_1_1Particle.html#ad1a5f606b804ac2ec5d7e391aba6bda6" target="_top" xlink:title="Destructor implementation. ">
<polygon fill="white" stroke="black" points="662.011,-6.5 662.011,-26.5 794.707,-26.5 794.707,-6.5 662.011,-6.5"/>
<text text-anchor="middle" x="728.359" y="-13.5" font-family="Helvetica,sans-Serif" font-size="10.00">panda::Particle::destructor</text>
</a>
</g>
</g>
<!-- Node4&#45;&gt;Node5 -->
<g id="edge4" class="edge"><title>Node4&#45;&gt;Node5</title>
<path fill="none" stroke="midnightblue" d="M626.487,-16.5C634.808,-16.5 643.331,-16.5 651.726,-16.5"/>
<polygon fill="midnightblue" stroke="midnightblue" points="651.881,-20.0001 661.881,-16.5 651.881,-13.0001 651.881,-20.0001"/>
</g>
<!-- Node6 -->
<g id="node6" class="node"><title>Node6</title>
<g id="a_node6"><a xlink:href="classpanda_1_1ContainerElement.html#aa1c71695dae992e82bf91f354aa8480c" target="_top" xlink:title="Destructor implementation. ">
<polygon fill="white" stroke="black" points="830.707,-0.5 830.707,-32.5 960.074,-32.5 960.074,-0.5 830.707,-0.5"/>
<text text-anchor="start" x="838.707" y="-19.5" font-family="Helvetica,sans-Serif" font-size="10.00">panda::ContainerElement</text>
<text text-anchor="middle" x="895.39" y="-7.5" font-family="Helvetica,sans-Serif" font-size="10.00">::destructor</text>
</a>
</g>
</g>
<!-- Node5&#45;&gt;Node6 -->
<g id="edge5" class="edge"><title>Node5&#45;&gt;Node6</title>
<path fill="none" stroke="midnightblue" d="M795.058,-16.5C803.366,-16.5 811.91,-16.5 820.337,-16.5"/>
<polygon fill="midnightblue" stroke="midnightblue" points="820.532,-20.0001 830.532,-16.5 820.531,-13.0001 820.532,-20.0001"/>
</g>
</g>
</svg>
