<?xml version="1.0" encoding="UTF-8" standalone="no"?>
<!DOCTYPE svg PUBLIC "-//W3C//DTD SVG 1.1//EN"
 "http://www.w3.org/Graphics/SVG/1.1/DTD/svg11.dtd">
<!-- Generated by graphviz version 2.38.0 (20140413.2041)
 -->
<!-- Title: panda::Event Pages: 1 -->
<svg width="101pt" height="143pt"
 viewBox="0.00 0.00 101.24 143.00" xmlns="http://www.w3.org/2000/svg" xmlns:xlink="http://www.w3.org/1999/xlink">
<g id="graph0" class="graph" transform="scale(1 1) rotate(0) translate(4 139)">
<title>panda::Event</title>
<polygon fill="white" stroke="none" points="-4,4 -4,-139 97.245,-139 97.245,4 -4,4"/>
<!-- Node1 -->
<g id="node1" class="node"><title>Node1</title>
<polygon fill="#bfbfbf" stroke="black" points="9.163,-0.5 9.163,-20.5 84.082,-20.5 84.082,-0.5 9.163,-0.5"/>
<text text-anchor="middle" x="46.6225" y="-7.5" font-family="Helvetica,sans-Serif" font-size="10.00">panda::Event</text>
</g>
<!-- Node2 -->
<g id="node2" class="node"><title>Node2</title>
<g id="a_node2"><a xlink:href="classpanda_1_1TreeEntry.html" target="_top" xlink:title="panda::TreeEntry">
<polygon fill="white" stroke="black" points="-7.10543e-15,-57.5 -7.10543e-15,-77.5 93.245,-77.5 93.245,-57.5 -7.10543e-15,-57.5"/>
<text text-anchor="middle" x="46.6225" y="-64.5" font-family="Helvetica,sans-Serif" font-size="10.00">panda::TreeEntry</text>
</a>
</g>
</g>
<!-- Node2&#45;&gt;Node1 -->
<g id="edge1" class="edge"><title>Node2&#45;&gt;Node1</title>
<path fill="none" stroke="midnightblue" d="M46.6225,-47.383C46.6225,-38.3738 46.6225,-28.0373 46.6225,-20.7795"/>
<polygon fill="midnightblue" stroke="midnightblue" points="43.1226,-47.4178 46.6225,-57.4179 50.1226,-47.4179 43.1226,-47.4178"/>
</g>
<!-- Node3 -->
<g id="node3" class="node"><title>Node3</title>
<g id="a_node3"><a xlink:href="classpanda_1_1Object.html" target="_top" xlink:title="panda::Object">
<polygon fill="white" stroke="black" points="7.4985,-114.5 7.4985,-134.5 85.7465,-134.5 85.7465,-114.5 7.4985,-114.5"/>
<text text-anchor="middle" x="46.6225" y="-121.5" font-family="Helvetica,sans-Serif" font-size="10.00">panda::Object</text>
</a>
</g>
</g>
<!-- Node3&#45;&gt;Node2 -->
<g id="edge2" class="edge"><title>Node3&#45;&gt;Node2</title>
<path fill="none" stroke="midnightblue" d="M46.6225,-104.383C46.6225,-95.3738 46.6225,-85.0373 46.6225,-77.7795"/>
<polygon fill="midnightblue" stroke="midnightblue" points="43.1226,-104.418 46.6225,-114.418 50.1226,-104.418 43.1226,-104.418"/>
</g>
</g>
</svg>
