<?xml version="1.0" encoding="UTF-8" standalone="no"?>
<!DOCTYPE svg PUBLIC "-//W3C//DTD SVG 1.1//EN"
 "http://www.w3.org/Graphics/SVG/1.1/DTD/svg11.dtd">
<!-- Generated by graphviz version 2.38.0 (20140413.2041)
 -->
<!-- Title: panda::CollectionBase::doSetAddress_ Pages: 1 -->
<svg width="613pt" height="170pt"
 viewBox="0.00 0.00 613.46 170.00" xmlns="http://www.w3.org/2000/svg" xmlns:xlink="http://www.w3.org/1999/xlink">
<g id="graph0" class="graph" transform="scale(1 1) rotate(0) translate(4 166)">
<title>panda::CollectionBase::doSetAddress_</title>
<polygon fill="white" stroke="none" points="-4,4 -4,-166 609.465,-166 609.465,4 -4,4"/>
<!-- Node1 -->
<g id="node1" class="node"><title>Node1</title>
<polygon fill="#bfbfbf" stroke="black" points="-1.42109e-14,-64.5 -1.42109e-14,-96.5 116.031,-96.5 116.031,-64.5 -1.42109e-14,-64.5"/>
<text text-anchor="start" x="8" y="-83.5" font-family="Helvetica,sans-Serif" font-size="10.00">panda::CollectionBase</text>
<text text-anchor="middle" x="58.0155" y="-71.5" font-family="Helvetica,sans-Serif" font-size="10.00">::doSetAddress_</text>
</g>
<!-- Node2 -->
<g id="node2" class="node"><title>Node2</title>
<g id="a_node2"><a xlink:href="namespacepanda_1_1utils.html#abf9c62e588560197c2bae9932e6a6e05" target="_top" xlink:title="Set address. ">
<polygon fill="white" stroke="black" points="152.031,-70.5 152.031,-90.5 274.731,-90.5 274.731,-70.5 152.031,-70.5"/>
<text text-anchor="middle" x="213.381" y="-77.5" font-family="Helvetica,sans-Serif" font-size="10.00">panda::utils::setAddress</text>
</a>
</g>
</g>
<!-- Node1&#45;&gt;Node2 -->
<g id="edge1" class="edge"><title>Node1&#45;&gt;Node2</title>
<path fill="none" stroke="midnightblue" d="M116.123,-80.5C124.509,-80.5 133.23,-80.5 141.846,-80.5"/>
<polygon fill="midnightblue" stroke="midnightblue" points="141.887,-84.0001 151.887,-80.5 141.887,-77.0001 141.887,-84.0001"/>
</g>
<!-- Node3 -->
<g id="node3" class="node"><title>Node3</title>
<g id="a_node3"><a xlink:href="classpanda_1_1utils_1_1BranchName.html#a13958ff4a9d554d2c057c600b4f70412" target="_top" xlink:title="Prepend the branch name with &lt;objName.&gt;. ">
<polygon fill="white" stroke="black" points="467.769,-129.5 467.769,-161.5 598.797,-161.5 598.797,-129.5 467.769,-129.5"/>
<text text-anchor="start" x="475.769" y="-148.5" font-family="Helvetica,sans-Serif" font-size="10.00">panda::utils::BranchName</text>
<text text-anchor="middle" x="533.283" y="-136.5" font-family="Helvetica,sans-Serif" font-size="10.00">::fullName</text>
</a>
</g>
</g>
<!-- Node2&#45;&gt;Node3 -->
<g id="edge2" class="edge"><title>Node2&#45;&gt;Node3</title>
<path fill="none" stroke="midnightblue" d="M252.701,-90.6165C270.318,-95.1202 291.525,-100.335 310.731,-104.5 359.394,-115.053 414.441,-125.249 457.492,-132.833"/>
<polygon fill="midnightblue" stroke="midnightblue" points="457.151,-136.326 467.605,-134.605 458.36,-129.432 457.151,-136.326"/>
</g>
<!-- Node4 -->
<g id="node4" class="node"><title>Node4</title>
<g id="a_node4"><a xlink:href="namespacepanda_1_1utils.html#a01665f786d6a2acedb8f008f3fc9fc84" target="_top" xlink:title="Set status of a branch. ">
<polygon fill="white" stroke="black" points="310.731,-51.5 310.731,-71.5 425.101,-71.5 425.101,-51.5 310.731,-51.5"/>
<text text-anchor="middle" x="367.916" y="-58.5" font-family="Helvetica,sans-Serif" font-size="10.00">panda::utils::setStatus</text>
</a>
</g>
</g>
<!-- Node2&#45;&gt;Node4 -->
<g id="edge3" class="edge"><title>Node2&#45;&gt;Node4</title>
<path fill="none" stroke="midnightblue" d="M275.105,-72.9361C283.374,-71.9061 291.898,-70.8444 300.265,-69.8022"/>
<polygon fill="midnightblue" stroke="midnightblue" points="300.874,-73.2534 310.365,-68.5441 300.009,-66.3071 300.874,-73.2534"/>
</g>
<!-- Node5 -->
<g id="node5" class="node"><title>Node5</title>
<g id="a_node5"><a xlink:href="classpanda_1_1utils_1_1BranchName.html#a6cc8a6df7c5b12a0221fd49773cca6a7" target="_top" xlink:title="Is the name included and not vetoed? ">
<polygon fill="white" stroke="black" points="461.101,-90.5 461.101,-110.5 605.465,-110.5 605.465,-90.5 461.101,-90.5"/>
<text text-anchor="middle" x="533.283" y="-97.5" font-family="Helvetica,sans-Serif" font-size="10.00">panda::utils::BranchName::in</text>
</a>
</g>
</g>
<!-- Node2&#45;&gt;Node5 -->
<g id="edge8" class="edge"><title>Node2&#45;&gt;Node5</title>
<path fill="none" stroke="midnightblue" d="M274.924,-84.3089C324.785,-87.4458 395.944,-91.9226 450.805,-95.374"/>
<polygon fill="midnightblue" stroke="midnightblue" points="450.65,-98.8711 460.85,-96.006 451.089,-91.8849 450.65,-98.8711"/>
</g>
<!-- Node7 -->
<g id="node7" class="node"><title>Node7</title>
<g id="a_node7"><a xlink:href="namespacepanda_1_1utils.html#aafa411773a4b0ee829d99e6e5a0abdcd" target="_top" xlink:title="Check status of a branch. ">
<polygon fill="white" stroke="black" points="469.708,-0.5 469.708,-20.5 596.858,-20.5 596.858,-0.5 469.708,-0.5"/>
<text text-anchor="middle" x="533.283" y="-7.5" font-family="Helvetica,sans-Serif" font-size="10.00">panda::utils::checkStatus</text>
</a>
</g>
</g>
<!-- Node2&#45;&gt;Node7 -->
<g id="edge9" class="edge"><title>Node2&#45;&gt;Node7</title>
<path fill="none" stroke="midnightblue" d="M234.923,-70.4592C254.091,-61.5098 283.713,-48.7399 310.731,-41.5 359.457,-28.4431 415.769,-20.6555 459.428,-16.1513"/>
<polygon fill="midnightblue" stroke="midnightblue" points="459.787,-19.6329 469.39,-15.1576 459.092,-12.6675 459.787,-19.6329"/>
</g>
<!-- Node4&#45;&gt;Node3 -->
<g id="edge6" class="edge"><title>Node4&#45;&gt;Node3</title>
<path fill="none" stroke="midnightblue" d="M382.746,-71.5109C400.324,-83.9212 431.9,-105.181 461.101,-119.5 465.379,-121.598 469.872,-123.623 474.433,-125.553"/>
<polygon fill="midnightblue" stroke="midnightblue" points="473.26,-128.854 483.842,-129.376 475.895,-122.369 473.26,-128.854"/>
</g>
<!-- Node4&#45;&gt;Node5 -->
<g id="edge4" class="edge"><title>Node4&#45;&gt;Node5</title>
<path fill="none" stroke="midnightblue" d="M410.987,-71.5435C432.139,-76.593 457.967,-82.7587 480.345,-88.1009"/>
<polygon fill="midnightblue" stroke="midnightblue" points="479.815,-91.5728 490.355,-90.4906 481.441,-84.7641 479.815,-91.5728"/>
</g>
<!-- Node6 -->
<g id="node6" class="node"><title>Node6</title>
<g id="a_node6"><a xlink:href="classpanda_1_1utils_1_1BranchName.html#ae3332329bf2afae5ed8e7c35e5d77ffa" target="_top" xlink:title="Is the name included and vetoed? ">
<polygon fill="white" stroke="black" points="467.769,-39.5 467.769,-71.5 598.797,-71.5 598.797,-39.5 467.769,-39.5"/>
<text text-anchor="start" x="475.769" y="-58.5" font-family="Helvetica,sans-Serif" font-size="10.00">panda::utils::BranchName</text>
<text text-anchor="middle" x="533.283" y="-46.5" font-family="Helvetica,sans-Serif" font-size="10.00">::vetoed</text>
</a>
</g>
</g>
<!-- Node4&#45;&gt;Node6 -->
<g id="edge5" class="edge"><title>Node4&#45;&gt;Node6</title>
<path fill="none" stroke="midnightblue" d="M425.138,-59.4351C435.489,-59.055 446.447,-58.6525 457.249,-58.2558"/>
<polygon fill="midnightblue" stroke="midnightblue" points="457.668,-61.7429 467.533,-57.8781 457.411,-54.7476 457.668,-61.7429"/>
</g>
<!-- Node4&#45;&gt;Node7 -->
<g id="edge7" class="edge"><title>Node4&#45;&gt;Node7</title>
<path fill="none" stroke="midnightblue" d="M396.173,-51.4496C414.433,-44.8624 439.073,-36.2532 461.101,-29.5 468.079,-27.3607 475.483,-25.2311 482.776,-23.2131"/>
<polygon fill="midnightblue" stroke="midnightblue" points="483.872,-26.5424 492.602,-20.5402 482.034,-19.7878 483.872,-26.5424"/>
</g>
</g>
</svg>
