<?xml version="1.0" encoding="UTF-8" standalone="no"?>
<!DOCTYPE svg PUBLIC "-//W3C//DTD SVG 1.1//EN"
 "http://www.w3.org/Graphics/SVG/1.1/DTD/svg11.dtd">
<!-- Generated by graphviz version 2.38.0 (20140413.2041)
 -->
<!-- Title: panda::TreeEntry::setAddress Pages: 1 -->
<svg width="313pt" height="41pt"
 viewBox="0.00 0.00 312.73 41.00" xmlns="http://www.w3.org/2000/svg" xmlns:xlink="http://www.w3.org/1999/xlink">
<g id="graph0" class="graph" transform="scale(1 1) rotate(0) translate(4 37)">
<title>panda::TreeEntry::setAddress</title>
<polygon fill="white" stroke="none" points="-4,4 -4,-37 308.735,-37 308.735,4 -4,4"/>
<!-- Node1 -->
<g id="node1" class="node"><title>Node1</title>
<polygon fill="#bfbfbf" stroke="black" points="-1.42109e-14,-6.5 -1.42109e-14,-26.5 148.816,-26.5 148.816,-6.5 -1.42109e-14,-6.5"/>
<text text-anchor="middle" x="74.408" y="-13.5" font-family="Helvetica,sans-Serif" font-size="10.00">panda::TreeEntry::setAddress</text>
</g>
<!-- Node2 -->
<g id="node2" class="node"><title>Node2</title>
<g id="a_node2"><a xlink:href="classpanda_1_1utils_1_1BranchList.html#a215520401f32786d157a68ee92d90372" target="_top" xlink:title="Return a new list of branches that starts with the objName, removing &lt;objName.&gt; from each...">
<polygon fill="white" stroke="black" points="184.816,-0.5 184.816,-32.5 304.735,-32.5 304.735,-0.5 184.816,-0.5"/>
<text text-anchor="start" x="192.816" y="-19.5" font-family="Helvetica,sans-Serif" font-size="10.00">panda::utils::BranchList</text>
<text text-anchor="middle" x="244.775" y="-7.5" font-family="Helvetica,sans-Serif" font-size="10.00">::subList</text>
</a>
</g>
</g>
<!-- Node1&#45;&gt;Node2 -->
<g id="edge1" class="edge"><title>Node1&#45;&gt;Node2</title>
<path fill="none" stroke="midnightblue" d="M149.256,-16.5C157.674,-16.5 166.231,-16.5 174.585,-16.5"/>
<polygon fill="midnightblue" stroke="midnightblue" points="174.65,-20.0001 184.65,-16.5 174.65,-13.0001 174.65,-20.0001"/>
</g>
</g>
</svg>
