<?xml version="1.0" encoding="UTF-8" standalone="no"?>
<!DOCTYPE svg PUBLIC "-//W3C//DTD SVG 1.1//EN"
 "http://www.w3.org/Graphics/SVG/1.1/DTD/svg11.dtd">
<!-- Generated by graphviz version 2.38.0 (20140413.2041)
 -->
<!-- Title: panda::PFCand::setAddress Pages: 1 -->
<!--zoomable 189 -->
<svg id="main" version="1.1" xmlns="http://www.w3.org/2000/svg" xmlns:xlink="http://www.w3.org/1999/xlink" xml:space="preserve" onload="init(evt)">
<style type="text/css"><![CDATA[
.edge:hover path { stroke: red; }
.edge:hover polygon { stroke: red; fill: red; }
]]></style>
<script type="text/javascript"><![CDATA[
var edges = document.getElementsByTagName('g');
if (edges && edges.length) {
  for (var i=0;i<edges.length;i++) {
    if (edges[i].id.substr(0,4)=='edge') {
      edges[i].setAttribute('class','edge');
    }
  }
}
]]></script>
        <defs>
                <circle id="rim" cx="0" cy="0" r="7"/>
                <circle id="rim2" cx="0" cy="0" r="3.5"/>
                <g id="zoomPlus">
                        <use xlink:href="#rim" fill="#404040">
                                <set attributeName="fill" to="#808080" begin="zoomplus.mouseover" end="zoomplus.mouseout"/>
                        </use>
                        <path d="M-4,0h8M0,-4v8" fill="none" stroke="white" stroke-width="1.5" pointer-events="none"/>
                </g>
                <g id="zoomMin">
                        <use xlink:href="#rim" fill="#404040">
                                <set attributeName="fill" to="#808080" begin="zoomminus.mouseover" end="zoomminus.mouseout"/>
                        </use>
                        <path d="M-4,0h8" fill="none" stroke="white" stroke-width="1.5" pointer-events="none"/>
                </g>
                <g id="dirArrow">
                        <path fill="none" stroke="white" stroke-width="1.5" d="M0,-3.0v7 M-2.5,-0.5L0,-3.0L2.5,-0.5"/>
                </g>
               <g id="resetDef">
                       <use xlink:href="#rim2" fill="#404040">
                               <set attributeName="fill" to="#808080" begin="reset.mouseover" end="reset.mouseout"/>
                       </use>
               </g>
        </defs>

<script type="text/javascript">
var viewWidth = 1009;
var viewHeight = 189;
var sectionId = 'dynsection-11';
</script>
<script xlink:href="svgpan.js"/>
<svg id="graph" class="graph">
<g id="viewport">
<title>panda::PFCand::setAddress</title>
<polygon fill="white" stroke="none" points="-4,4 -4,-185 1005.21,-185 1005.21,4 -4,4"/>
<!-- Node1 -->
<g id="node1" class="node"><title>Node1</title>
<polygon fill="#bfbfbf" stroke="black" points="0,-109.5 0,-129.5 141.598,-129.5 141.598,-109.5 0,-109.5"/>
<text text-anchor="middle" x="70.799" y="-116.5" font-family="Helvetica,sans-Serif" font-size="10.00">panda::PFCand::setAddress</text>
</g>
<!-- Node2 -->
<g id="node2" class="node"><title>Node2</title>
<g id="a_node2"><a xlink:href="classpanda_1_1ParticleM.html#ad8aeae1e2ca26f4cdb7d079ab56a10fe" target="_top" xlink:title="Set address for the branches to the variables of this object. ">
<polygon fill="white" stroke="black" points="177.598,-109.5 177.598,-129.5 324.184,-129.5 324.184,-109.5 177.598,-109.5"/>
<text text-anchor="middle" x="250.891" y="-116.5" font-family="Helvetica,sans-Serif" font-size="10.00">panda::ParticleM::setAddress</text>
</a>
</g>
</g>
<!-- Node1&#45;&gt;Node2 -->
<g id="edge1" class="edge"><title>Node1&#45;&gt;Node2</title>
<path fill="none" stroke="midnightblue" d="M141.675,-119.5C150.149,-119.5 158.868,-119.5 167.502,-119.5"/>
<polygon fill="midnightblue" stroke="midnightblue" points="167.58,-123 177.58,-119.5 167.58,-116 167.58,-123"/>
</g>
<!-- Node5 -->
<g id="node5" class="node"><title>Node5</title>
<g id="a_node5"><a xlink:href="classpanda_1_1utils_1_1StoreManager.html#a6f30ec459d951e84a1196b7e2ffdcf49" target="_top" xlink:title="panda::utils::StoreManager\l::getName">
<polygon fill="white" stroke="black" points="534.441,-148.5 534.441,-180.5 670.476,-180.5 670.476,-148.5 534.441,-148.5"/>
<text text-anchor="start" x="542.441" y="-167.5" font-family="Helvetica,sans-Serif" font-size="10.00">panda::utils::StoreManager</text>
<text text-anchor="middle" x="602.458" y="-155.5" font-family="Helvetica,sans-Serif" font-size="10.00">::getName</text>
</a>
</g>
</g>
<!-- Node1&#45;&gt;Node5 -->
<g id="edge16" class="edge"><title>Node1&#45;&gt;Node5</title>
<path fill="none" stroke="midnightblue" d="M124.447,-129.516C141.386,-132.588 160.257,-135.853 177.598,-138.5 258.452,-150.844 278.587,-155.871 360.184,-161.5 414.888,-165.273 476.729,-165.972 524.107,-165.754"/>
<polygon fill="midnightblue" stroke="midnightblue" points="524.315,-169.253 534.293,-165.692 524.272,-162.253 524.315,-169.253"/>
</g>
<!-- Node6 -->
<g id="node6" class="node"><title>Node6</title>
<g id="a_node6"><a xlink:href="namespacepanda_1_1utils.html#abf9c62e588560197c2bae9932e6a6e05" target="_top" xlink:title="Set address. ">
<polygon fill="white" stroke="black" points="541.108,-70.5 541.108,-90.5 663.808,-90.5 663.808,-70.5 541.108,-70.5"/>
<text text-anchor="middle" x="602.458" y="-77.5" font-family="Helvetica,sans-Serif" font-size="10.00">panda::utils::setAddress</text>
</a>
</g>
</g>
<!-- Node1&#45;&gt;Node6 -->
<g id="edge17" class="edge"><title>Node1&#45;&gt;Node6</title>
<path fill="none" stroke="midnightblue" d="M119.569,-109.483C137.681,-105.945 158.532,-102.184 177.598,-99.5 258.303,-88.1404 278.788,-86.6192 360.184,-82.5 417.599,-79.5944 482.795,-79.2293 530.929,-79.5159"/>
<polygon fill="midnightblue" stroke="midnightblue" points="530.907,-83.0158 540.932,-79.5863 530.957,-76.0159 530.907,-83.0158"/>
</g>
<!-- Node3 -->
<g id="node3" class="node"><title>Node3</title>
<g id="a_node3"><a xlink:href="classpanda_1_1Particle.html#a96282cfb24384c1f00c40576069a4c7e" target="_top" xlink:title="Set address for the branches to the variables of this object. ">
<polygon fill="white" stroke="black" points="360.184,-109.5 360.184,-129.5 498.441,-129.5 498.441,-109.5 360.184,-109.5"/>
<text text-anchor="middle" x="429.312" y="-116.5" font-family="Helvetica,sans-Serif" font-size="10.00">panda::Particle::setAddress</text>
</a>
</g>
</g>
<!-- Node2&#45;&gt;Node3 -->
<g id="edge2" class="edge"><title>Node2&#45;&gt;Node3</title>
<path fill="none" stroke="midnightblue" d="M324.412,-119.5C332.79,-119.5 341.364,-119.5 349.816,-119.5"/>
<polygon fill="midnightblue" stroke="midnightblue" points="350.046,-123 360.046,-119.5 350.046,-116 350.046,-123"/>
</g>
<!-- Node2&#45;&gt;Node5 -->
<g id="edge14" class="edge"><title>Node2&#45;&gt;Node5</title>
<path fill="none" stroke="midnightblue" d="M304.932,-129.53C322.481,-132.655 342.135,-135.947 360.184,-138.5 414.787,-146.223 476.631,-152.846 524.035,-157.475"/>
<polygon fill="midnightblue" stroke="midnightblue" points="523.937,-160.981 534.228,-158.461 524.611,-154.014 523.937,-160.981"/>
</g>
<!-- Node2&#45;&gt;Node6 -->
<g id="edge15" class="edge"><title>Node2&#45;&gt;Node6</title>
<path fill="none" stroke="midnightblue" d="M300.238,-109.459C318.901,-105.876 340.47,-102.09 360.184,-99.5 417.357,-91.9901 482.57,-87.0717 530.772,-84.1246"/>
<polygon fill="midnightblue" stroke="midnightblue" points="531.018,-87.6162 540.791,-83.5254 530.6,-80.6287 531.018,-87.6162"/>
</g>
<!-- Node4 -->
<g id="node4" class="node"><title>Node4</title>
<g id="a_node4"><a xlink:href="classpanda_1_1Object.html#aed9f9d3b6abe518dd27957de843b36b5" target="_top" xlink:title="Set address for the branches to the variables of this object. ">
<polygon fill="white" stroke="black" points="535.549,-109.5 535.549,-129.5 669.368,-129.5 669.368,-109.5 535.549,-109.5"/>
<text text-anchor="middle" x="602.458" y="-116.5" font-family="Helvetica,sans-Serif" font-size="10.00">panda::Object::setAddress</text>
</a>
</g>
</g>
<!-- Node3&#45;&gt;Node4 -->
<g id="edge3" class="edge"><title>Node3&#45;&gt;Node4</title>
<path fill="none" stroke="midnightblue" d="M498.446,-119.5C507.318,-119.5 516.452,-119.5 525.443,-119.5"/>
<polygon fill="midnightblue" stroke="midnightblue" points="525.512,-123 535.512,-119.5 525.512,-116 525.512,-123"/>
</g>
<!-- Node3&#45;&gt;Node5 -->
<g id="edge4" class="edge"><title>Node3&#45;&gt;Node5</title>
<path fill="none" stroke="midnightblue" d="M468.721,-129.599C486.928,-134.386 509.278,-140.263 530.41,-145.819"/>
<polygon fill="midnightblue" stroke="midnightblue" points="529.776,-149.271 540.337,-148.429 531.556,-142.501 529.776,-149.271"/>
</g>
<!-- Node3&#45;&gt;Node6 -->
<g id="edge5" class="edge"><title>Node3&#45;&gt;Node6</title>
<path fill="none" stroke="midnightblue" d="M474.387,-109.457C496.746,-104.362 524.091,-98.1301 547.68,-92.7549"/>
<polygon fill="midnightblue" stroke="midnightblue" points="548.561,-96.1438 557.534,-90.5094 547.006,-89.3188 548.561,-96.1438"/>
</g>
<!-- Node7 -->
<g id="node7" class="node"><title>Node7</title>
<g id="a_node7"><a xlink:href="classpanda_1_1utils_1_1BranchName.html#a13958ff4a9d554d2c057c600b4f70412" target="_top" xlink:title="Prepend the branch name with &lt;objName.&gt;. ">
<polygon fill="white" stroke="black" points="863.514,-129.5 863.514,-161.5 994.542,-161.5 994.542,-129.5 863.514,-129.5"/>
<text text-anchor="start" x="871.514" y="-148.5" font-family="Helvetica,sans-Serif" font-size="10.00">panda::utils::BranchName</text>
<text text-anchor="middle" x="929.028" y="-136.5" font-family="Helvetica,sans-Serif" font-size="10.00">::fullName</text>
</a>
</g>
</g>
<!-- Node6&#45;&gt;Node7 -->
<g id="edge6" class="edge"><title>Node6&#45;&gt;Node7</title>
<path fill="none" stroke="midnightblue" d="M644.469,-90.5095C663.313,-94.9916 685.983,-100.219 706.476,-104.5 755.218,-114.682 810.266,-124.876 853.297,-132.552"/>
<polygon fill="midnightblue" stroke="midnightblue" points="852.947,-136.044 863.405,-134.348 854.172,-129.152 852.947,-136.044"/>
</g>
<!-- Node8 -->
<g id="node8" class="node"><title>Node8</title>
<g id="a_node8"><a xlink:href="namespacepanda_1_1utils.html#a01665f786d6a2acedb8f008f3fc9fc84" target="_top" xlink:title="Set status of a branch. ">
<polygon fill="white" stroke="black" points="706.476,-51.5 706.476,-71.5 820.846,-71.5 820.846,-51.5 706.476,-51.5"/>
<text text-anchor="middle" x="763.661" y="-58.5" font-family="Helvetica,sans-Serif" font-size="10.00">panda::utils::setStatus</text>
</a>
</g>
</g>
<!-- Node6&#45;&gt;Node8 -->
<g id="edge7" class="edge"><title>Node6&#45;&gt;Node8</title>
<path fill="none" stroke="midnightblue" d="M664.1,-73.2627C674.622,-72.007 685.612,-70.6954 696.277,-69.4226"/>
<polygon fill="midnightblue" stroke="midnightblue" points="696.862,-72.8777 706.376,-68.2173 696.032,-65.9271 696.862,-72.8777"/>
</g>
<!-- Node9 -->
<g id="node9" class="node"><title>Node9</title>
<g id="a_node9"><a xlink:href="classpanda_1_1utils_1_1BranchName.html#a6cc8a6df7c5b12a0221fd49773cca6a7" target="_top" xlink:title="Is the name included and not vetoed? ">
<polygon fill="white" stroke="black" points="856.846,-90.5 856.846,-110.5 1001.21,-110.5 1001.21,-90.5 856.846,-90.5"/>
<text text-anchor="middle" x="929.028" y="-97.5" font-family="Helvetica,sans-Serif" font-size="10.00">panda::utils::BranchName::in</text>
</a>
</g>
</g>
<!-- Node6&#45;&gt;Node9 -->
<g id="edge12" class="edge"><title>Node6&#45;&gt;Node9</title>
<path fill="none" stroke="midnightblue" d="M664.127,-84.2384C715.621,-87.4114 789.954,-91.9919 846.617,-95.4835"/>
<polygon fill="midnightblue" stroke="midnightblue" points="846.427,-98.9783 856.624,-96.1001 846.858,-91.9916 846.427,-98.9783"/>
</g>
<!-- Node11 -->
<g id="node11" class="node"><title>Node11</title>
<g id="a_node11"><a xlink:href="namespacepanda_1_1utils.html#aafa411773a4b0ee829d99e6e5a0abdcd" target="_top" xlink:title="Check status of a branch. ">
<polygon fill="white" stroke="black" points="865.453,-0.5 865.453,-20.5 992.603,-20.5 992.603,-0.5 865.453,-0.5"/>
<text text-anchor="middle" x="929.028" y="-7.5" font-family="Helvetica,sans-Serif" font-size="10.00">panda::utils::checkStatus</text>
</a>
</g>
</g>
<!-- Node6&#45;&gt;Node11 -->
<g id="edge13" class="edge"><title>Node6&#45;&gt;Node11</title>
<path fill="none" stroke="midnightblue" d="M625.901,-70.3361C646.46,-61.4299 677.944,-48.7993 706.476,-41.5 755.347,-28.9973 811.657,-21.2015 855.279,-16.5548"/>
<polygon fill="midnightblue" stroke="midnightblue" points="855.645,-20.0357 865.232,-15.5255 854.925,-13.0728 855.645,-20.0357"/>
</g>
<!-- Node8&#45;&gt;Node7 -->
<g id="edge10" class="edge"><title>Node8&#45;&gt;Node7</title>
<path fill="none" stroke="midnightblue" d="M778.491,-71.5109C796.069,-83.9212 827.645,-105.181 856.846,-119.5 861.124,-121.598 865.617,-123.623 870.178,-125.553"/>
<polygon fill="midnightblue" stroke="midnightblue" points="869.005,-128.854 879.587,-129.376 871.64,-122.369 869.005,-128.854"/>
</g>
<!-- Node8&#45;&gt;Node9 -->
<g id="edge8" class="edge"><title>Node8&#45;&gt;Node9</title>
<path fill="none" stroke="midnightblue" d="M806.732,-71.5435C827.884,-76.593 853.712,-82.7587 876.09,-88.1009"/>
<polygon fill="midnightblue" stroke="midnightblue" points="875.56,-91.5728 886.1,-90.4906 877.186,-84.7641 875.56,-91.5728"/>
</g>
<!-- Node10 -->
<g id="node10" class="node"><title>Node10</title>
<g id="a_node10"><a xlink:href="classpanda_1_1utils_1_1BranchName.html#ae3332329bf2afae5ed8e7c35e5d77ffa" target="_top" xlink:title="Is the name included and vetoed? ">
<polygon fill="white" stroke="black" points="863.514,-39.5 863.514,-71.5 994.542,-71.5 994.542,-39.5 863.514,-39.5"/>
<text text-anchor="start" x="871.514" y="-58.5" font-family="Helvetica,sans-Serif" font-size="10.00">panda::utils::BranchName</text>
<text text-anchor="middle" x="929.028" y="-46.5" font-family="Helvetica,sans-Serif" font-size="10.00">::vetoed</text>
</a>
</g>
</g>
<!-- Node8&#45;&gt;Node10 -->
<g id="edge9" class="edge"><title>Node8&#45;&gt;Node10</title>
<path fill="none" stroke="midnightblue" d="M820.883,-59.4351C831.234,-59.055 842.192,-58.6525 852.994,-58.2558"/>
<polygon fill="midnightblue" stroke="midnightblue" points="853.413,-61.7429 863.278,-57.8781 853.156,-54.7476 853.413,-61.7429"/>
</g>
<!-- Node8&#45;&gt;Node11 -->
<g id="edge11" class="edge"><title>Node8&#45;&gt;Node11</title>
<path fill="none" stroke="midnightblue" d="M791.918,-51.4496C810.178,-44.8624 834.818,-36.2532 856.846,-29.5 863.824,-27.3607 871.228,-25.2311 878.521,-23.2131"/>
<polygon fill="midnightblue" stroke="midnightblue" points="879.617,-26.5424 888.347,-20.5402 877.779,-19.7878 879.617,-26.5424"/>
</g>
</g>
</svg>
        <g id="navigator" transform="translate(0 0)" fill="#404254">
                <rect fill="#f2f5e9" fill-opacity="0.5" stroke="#606060" stroke-width=".5" x="0" y="0" width="60" height="60"/>
                <use id="zoomplus" xlink:href="#zoomPlus" x="17" y="9" onmousedown="handleZoom(evt,'in')"/>
                <use id="zoomminus" xlink:href="#zoomMin" x="42" y="9" onmousedown="handleZoom(evt,'out')"/>
                <use id="reset" xlink:href="#resetDef" x="30" y="36" onmousedown="handleReset()"/>
                <g id="arrowUp" xlink:href="#dirArrow" transform="translate(30 24)" onmousedown="handlePan(0,-1)">
                  <use xlink:href="#rim" fill="#404040">
                        <set attributeName="fill" to="#808080" begin="arrowUp.mouseover" end="arrowUp.mouseout"/>
                  </use>
                  <path fill="none" stroke="white" stroke-width="1.5" d="M0,-3.0v7 M-2.5,-0.5L0,-3.0L2.5,-0.5"/>
                </g>
                <g id="arrowRight" xlink:href="#dirArrow" transform="rotate(90) translate(36 -43)" onmousedown="handlePan(1,0)">
                  <use xlink:href="#rim" fill="#404040">
                        <set attributeName="fill" to="#808080" begin="arrowRight.mouseover" end="arrowRight.mouseout"/>
                  </use>
                  <path fill="none" stroke="white" stroke-width="1.5" d="M0,-3.0v7 M-2.5,-0.5L0,-3.0L2.5,-0.5"/>
                </g>
                <g id="arrowDown" xlink:href="#dirArrow" transform="rotate(180) translate(-30 -48)" onmousedown="handlePan(0,1)">
                  <use xlink:href="#rim" fill="#404040">
                        <set attributeName="fill" to="#808080" begin="arrowDown.mouseover" end="arrowDown.mouseout"/>
                  </use>
                  <path fill="none" stroke="white" stroke-width="1.5" d="M0,-3.0v7 M-2.5,-0.5L0,-3.0L2.5,-0.5"/>
                </g>
                <g id="arrowLeft" xlink:href="#dirArrow" transform="rotate(270) translate(-36 17)" onmousedown="handlePan(-1,0)">
                  <use xlink:href="#rim" fill="#404040">
                        <set attributeName="fill" to="#808080" begin="arrowLeft.mouseover" end="arrowLeft.mouseout"/>
                  </use>
                  <path fill="none" stroke="white" stroke-width="1.5" d="M0,-3.0v7 M-2.5,-0.5L0,-3.0L2.5,-0.5"/>
                </g>
        </g>
        <svg viewBox="0 0 15 15" width="100%" height="30px" preserveAspectRatio="xMaxYMin meet">
         <g id="arrow_out" transform="scale(0.3 0.3)">
          <a xlink:href="classpanda_1_1PFCand_a4646580d00cd946b4f077afd3ee8b3b5_cgraph_org.svg" target="_base">
           <rect id="button" ry="5" rx="5" y="6" x="6" height="38" width="38"
                fill="#f2f5e9" fill-opacity="0.5" stroke="#606060" stroke-width="1.0"/>
           <path id="arrow"
             d="M 11.500037,31.436501 C 11.940474,20.09759 22.043105,11.32322 32.158766,21.979434 L 37.068811,17.246167 C 37.068811,17.246167 37.088388,32 37.088388,32 L 22.160133,31.978069 C 22.160133,31.978069 26.997745,27.140456 26.997745,27.140456 C 18.528582,18.264221 13.291696,25.230495 11.500037,31.436501 z"
             style="fill:#404040;"/>
          </a>
         </g>
        </svg>
</svg>
