<?xml version="1.0" encoding="UTF-8" standalone="no"?>
<!DOCTYPE svg PUBLIC "-//W3C//DTD SVG 1.1//EN"
 "http://www.w3.org/Graphics/SVG/1.1/DTD/svg11.dtd">
<!-- Generated by graphviz version 2.38.0 (20140413.2041)
 -->
<!-- Title: panda::Event::doSetAddress_ Pages: 1 -->
<svg width="646pt" height="170pt"
 viewBox="0.00 0.00 646.27 170.00" xmlns="http://www.w3.org/2000/svg" xmlns:xlink="http://www.w3.org/1999/xlink">
<g id="graph0" class="graph" transform="scale(1 1) rotate(0) translate(4 166)">
<title>panda::Event::doSetAddress_</title>
<polygon fill="white" stroke="none" points="-4,4 -4,-166 642.27,-166 642.27,4 -4,4"/>
<!-- Node1 -->
<g id="node1" class="node"><title>Node1</title>
<polygon fill="#bfbfbf" stroke="black" points="1.42109e-14,-70.5 1.42109e-14,-90.5 148.836,-90.5 148.836,-70.5 1.42109e-14,-70.5"/>
<text text-anchor="middle" x="74.418" y="-77.5" font-family="Helvetica,sans-Serif" font-size="10.00">panda::Event::doSetAddress_</text>
</g>
<!-- Node2 -->
<g id="node2" class="node"><title>Node2</title>
<g id="a_node2"><a xlink:href="namespacepanda_1_1utils.html#abf9c62e588560197c2bae9932e6a6e05" target="_top" xlink:title="Set address. ">
<polygon fill="white" stroke="black" points="184.836,-70.5 184.836,-90.5 307.536,-90.5 307.536,-70.5 184.836,-70.5"/>
<text text-anchor="middle" x="246.186" y="-77.5" font-family="Helvetica,sans-Serif" font-size="10.00">panda::utils::setAddress</text>
</a>
</g>
</g>
<!-- Node1&#45;&gt;Node2 -->
<g id="edge1" class="edge"><title>Node1&#45;&gt;Node2</title>
<path fill="none" stroke="midnightblue" d="M148.893,-80.5C157.367,-80.5 165.994,-80.5 174.431,-80.5"/>
<polygon fill="midnightblue" stroke="midnightblue" points="174.603,-84.0001 184.603,-80.5 174.603,-77.0001 174.603,-84.0001"/>
</g>
<!-- Node3 -->
<g id="node3" class="node"><title>Node3</title>
<g id="a_node3"><a xlink:href="classpanda_1_1utils_1_1BranchName.html#a13958ff4a9d554d2c057c600b4f70412" target="_top" xlink:title="Prepend the branch name with &lt;objName.&gt;. ">
<polygon fill="white" stroke="black" points="500.574,-129.5 500.574,-161.5 631.602,-161.5 631.602,-129.5 500.574,-129.5"/>
<text text-anchor="start" x="508.574" y="-148.5" font-family="Helvetica,sans-Serif" font-size="10.00">panda::utils::BranchName</text>
<text text-anchor="middle" x="566.088" y="-136.5" font-family="Helvetica,sans-Serif" font-size="10.00">::fullName</text>
</a>
</g>
</g>
<!-- Node2&#45;&gt;Node3 -->
<g id="edge2" class="edge"><title>Node2&#45;&gt;Node3</title>
<path fill="none" stroke="midnightblue" d="M285.506,-90.6165C303.123,-95.1202 324.33,-100.335 343.536,-104.5 392.199,-115.053 447.246,-125.249 490.297,-132.833"/>
<polygon fill="midnightblue" stroke="midnightblue" points="489.956,-136.326 500.41,-134.605 491.165,-129.432 489.956,-136.326"/>
</g>
<!-- Node4 -->
<g id="node4" class="node"><title>Node4</title>
<g id="a_node4"><a xlink:href="namespacepanda_1_1utils.html#a01665f786d6a2acedb8f008f3fc9fc84" target="_top" xlink:title="Set status of a branch. ">
<polygon fill="white" stroke="black" points="343.536,-51.5 343.536,-71.5 457.906,-71.5 457.906,-51.5 343.536,-51.5"/>
<text text-anchor="middle" x="400.721" y="-58.5" font-family="Helvetica,sans-Serif" font-size="10.00">panda::utils::setStatus</text>
</a>
</g>
</g>
<!-- Node2&#45;&gt;Node4 -->
<g id="edge3" class="edge"><title>Node2&#45;&gt;Node4</title>
<path fill="none" stroke="midnightblue" d="M307.91,-72.9361C316.179,-71.9061 324.703,-70.8444 333.07,-69.8022"/>
<polygon fill="midnightblue" stroke="midnightblue" points="333.679,-73.2534 343.17,-68.5441 332.814,-66.3071 333.679,-73.2534"/>
</g>
<!-- Node5 -->
<g id="node5" class="node"><title>Node5</title>
<g id="a_node5"><a xlink:href="classpanda_1_1utils_1_1BranchName.html#a6cc8a6df7c5b12a0221fd49773cca6a7" target="_top" xlink:title="Is the name included and not vetoed? ">
<polygon fill="white" stroke="black" points="493.906,-90.5 493.906,-110.5 638.27,-110.5 638.27,-90.5 493.906,-90.5"/>
<text text-anchor="middle" x="566.088" y="-97.5" font-family="Helvetica,sans-Serif" font-size="10.00">panda::utils::BranchName::in</text>
</a>
</g>
</g>
<!-- Node2&#45;&gt;Node5 -->
<g id="edge8" class="edge"><title>Node2&#45;&gt;Node5</title>
<path fill="none" stroke="midnightblue" d="M307.729,-84.3089C357.59,-87.4458 428.749,-91.9226 483.61,-95.374"/>
<polygon fill="midnightblue" stroke="midnightblue" points="483.455,-98.8711 493.655,-96.006 483.894,-91.8849 483.455,-98.8711"/>
</g>
<!-- Node7 -->
<g id="node7" class="node"><title>Node7</title>
<g id="a_node7"><a xlink:href="namespacepanda_1_1utils.html#aafa411773a4b0ee829d99e6e5a0abdcd" target="_top" xlink:title="Check status of a branch. ">
<polygon fill="white" stroke="black" points="502.513,-0.5 502.513,-20.5 629.663,-20.5 629.663,-0.5 502.513,-0.5"/>
<text text-anchor="middle" x="566.088" y="-7.5" font-family="Helvetica,sans-Serif" font-size="10.00">panda::utils::checkStatus</text>
</a>
</g>
</g>
<!-- Node2&#45;&gt;Node7 -->
<g id="edge9" class="edge"><title>Node2&#45;&gt;Node7</title>
<path fill="none" stroke="midnightblue" d="M267.728,-70.4592C286.896,-61.5098 316.518,-48.7399 343.536,-41.5 392.262,-28.4431 448.574,-20.6555 492.233,-16.1513"/>
<polygon fill="midnightblue" stroke="midnightblue" points="492.592,-19.6329 502.195,-15.1576 491.897,-12.6675 492.592,-19.6329"/>
</g>
<!-- Node4&#45;&gt;Node3 -->
<g id="edge6" class="edge"><title>Node4&#45;&gt;Node3</title>
<path fill="none" stroke="midnightblue" d="M415.551,-71.5109C433.129,-83.9212 464.705,-105.181 493.906,-119.5 498.184,-121.598 502.677,-123.623 507.238,-125.553"/>
<polygon fill="midnightblue" stroke="midnightblue" points="506.065,-128.854 516.647,-129.376 508.7,-122.369 506.065,-128.854"/>
</g>
<!-- Node4&#45;&gt;Node5 -->
<g id="edge4" class="edge"><title>Node4&#45;&gt;Node5</title>
<path fill="none" stroke="midnightblue" d="M443.792,-71.5435C464.944,-76.593 490.772,-82.7587 513.15,-88.1009"/>
<polygon fill="midnightblue" stroke="midnightblue" points="512.62,-91.5728 523.16,-90.4906 514.246,-84.7641 512.62,-91.5728"/>
</g>
<!-- Node6 -->
<g id="node6" class="node"><title>Node6</title>
<g id="a_node6"><a xlink:href="classpanda_1_1utils_1_1BranchName.html#ae3332329bf2afae5ed8e7c35e5d77ffa" target="_top" xlink:title="Is the name included and vetoed? ">
<polygon fill="white" stroke="black" points="500.574,-39.5 500.574,-71.5 631.602,-71.5 631.602,-39.5 500.574,-39.5"/>
<text text-anchor="start" x="508.574" y="-58.5" font-family="Helvetica,sans-Serif" font-size="10.00">panda::utils::BranchName</text>
<text text-anchor="middle" x="566.088" y="-46.5" font-family="Helvetica,sans-Serif" font-size="10.00">::vetoed</text>
</a>
</g>
</g>
<!-- Node4&#45;&gt;Node6 -->
<g id="edge5" class="edge"><title>Node4&#45;&gt;Node6</title>
<path fill="none" stroke="midnightblue" d="M457.943,-59.4351C468.294,-59.055 479.252,-58.6525 490.054,-58.2558"/>
<polygon fill="midnightblue" stroke="midnightblue" points="490.473,-61.7429 500.338,-57.8781 490.216,-54.7476 490.473,-61.7429"/>
</g>
<!-- Node4&#45;&gt;Node7 -->
<g id="edge7" class="edge"><title>Node4&#45;&gt;Node7</title>
<path fill="none" stroke="midnightblue" d="M428.978,-51.4496C447.238,-44.8624 471.878,-36.2532 493.906,-29.5 500.884,-27.3607 508.288,-25.2311 515.581,-23.2131"/>
<polygon fill="midnightblue" stroke="midnightblue" points="516.677,-26.5424 525.407,-20.5402 514.839,-19.7878 516.677,-26.5424"/>
</g>
</g>
</svg>
