<?xml version="1.0" encoding="UTF-8" standalone="no"?>
<!DOCTYPE svg PUBLIC "-//W3C//DTD SVG 1.1//EN"
 "http://www.w3.org/Graphics/SVG/1.1/DTD/svg11.dtd">
<!-- Generated by graphviz version 2.38.0 (20140413.2041)
 -->
<!-- Title: panda::MicroJet Pages: 1 -->
<svg width="137pt" height="371pt"
 viewBox="0.00 0.00 137.37 371.00" xmlns="http://www.w3.org/2000/svg" xmlns:xlink="http://www.w3.org/1999/xlink">
<g id="graph0" class="graph" transform="scale(1 1) rotate(0) translate(4 367)">
<title>panda::MicroJet</title>
<polygon fill="white" stroke="none" points="-4,4 -4,-367 133.367,-367 133.367,4 -4,4"/>
<!-- Node1 -->
<g id="node1" class="node"><title>Node1</title>
<polygon fill="#bfbfbf" stroke="black" points="21.12,-114.5 21.12,-134.5 108.247,-134.5 108.247,-114.5 21.12,-114.5"/>
<text text-anchor="middle" x="64.6835" y="-121.5" font-family="Helvetica,sans-Serif" font-size="10.00">panda::MicroJet</text>
</g>
<!-- Node6 -->
<g id="node6" class="node"><title>Node6</title>
<g id="a_node6"><a xlink:href="classpanda_1_1Jet.html" target="_top" xlink:title="panda::Jet">
<polygon fill="white" stroke="black" points="33.338,-57.5 33.338,-77.5 96.029,-77.5 96.029,-57.5 33.338,-57.5"/>
<text text-anchor="middle" x="64.6835" y="-64.5" font-family="Helvetica,sans-Serif" font-size="10.00">panda::Jet</text>
</a>
</g>
</g>
<!-- Node1&#45;&gt;Node6 -->
<g id="edge5" class="edge"><title>Node1&#45;&gt;Node6</title>
<path fill="none" stroke="midnightblue" d="M64.6835,-104.383C64.6835,-95.3738 64.6835,-85.0373 64.6835,-77.7795"/>
<polygon fill="midnightblue" stroke="midnightblue" points="61.1836,-104.418 64.6835,-114.418 68.1836,-104.418 61.1836,-104.418"/>
</g>
<!-- Node2 -->
<g id="node2" class="node"><title>Node2</title>
<g id="a_node2"><a xlink:href="classpanda_1_1ParticleM.html" target="_top" xlink:title="panda::ParticleM">
<polygon fill="white" stroke="black" points="19.176,-171.5 19.176,-191.5 110.191,-191.5 110.191,-171.5 19.176,-171.5"/>
<text text-anchor="middle" x="64.6835" y="-178.5" font-family="Helvetica,sans-Serif" font-size="10.00">panda::ParticleM</text>
</a>
</g>
</g>
<!-- Node2&#45;&gt;Node1 -->
<g id="edge1" class="edge"><title>Node2&#45;&gt;Node1</title>
<path fill="none" stroke="midnightblue" d="M64.6835,-161.383C64.6835,-152.374 64.6835,-142.037 64.6835,-134.779"/>
<polygon fill="midnightblue" stroke="midnightblue" points="61.1836,-161.418 64.6835,-171.418 68.1836,-161.418 61.1836,-161.418"/>
</g>
<!-- Node3 -->
<g id="node3" class="node"><title>Node3</title>
<g id="a_node3"><a xlink:href="classpanda_1_1Particle.html" target="_top" xlink:title="panda::Particle">
<polygon fill="white" stroke="black" points="23.3405,-228.5 23.3405,-248.5 106.026,-248.5 106.026,-228.5 23.3405,-228.5"/>
<text text-anchor="middle" x="64.6835" y="-235.5" font-family="Helvetica,sans-Serif" font-size="10.00">panda::Particle</text>
</a>
</g>
</g>
<!-- Node3&#45;&gt;Node2 -->
<g id="edge2" class="edge"><title>Node3&#45;&gt;Node2</title>
<path fill="none" stroke="midnightblue" d="M64.6835,-218.383C64.6835,-209.374 64.6835,-199.037 64.6835,-191.779"/>
<polygon fill="midnightblue" stroke="midnightblue" points="61.1836,-218.418 64.6835,-228.418 68.1836,-218.418 61.1836,-218.418"/>
</g>
<!-- Node4 -->
<g id="node4" class="node"><title>Node4</title>
<g id="a_node4"><a xlink:href="classpanda_1_1ContainerElement.html" target="_top" xlink:title="panda::ContainerElement">
<polygon fill="white" stroke="black" points="0,-285.5 0,-305.5 129.367,-305.5 129.367,-285.5 0,-285.5"/>
<text text-anchor="middle" x="64.6835" y="-292.5" font-family="Helvetica,sans-Serif" font-size="10.00">panda::ContainerElement</text>
</a>
</g>
</g>
<!-- Node4&#45;&gt;Node3 -->
<g id="edge3" class="edge"><title>Node4&#45;&gt;Node3</title>
<path fill="none" stroke="midnightblue" d="M64.6835,-275.383C64.6835,-266.374 64.6835,-256.037 64.6835,-248.779"/>
<polygon fill="midnightblue" stroke="midnightblue" points="61.1836,-275.418 64.6835,-285.418 68.1836,-275.418 61.1836,-275.418"/>
</g>
<!-- Node5 -->
<g id="node5" class="node"><title>Node5</title>
<g id="a_node5"><a xlink:href="classpanda_1_1Object.html" target="_top" xlink:title="panda::Object">
<polygon fill="white" stroke="black" points="25.5595,-342.5 25.5595,-362.5 103.807,-362.5 103.807,-342.5 25.5595,-342.5"/>
<text text-anchor="middle" x="64.6835" y="-349.5" font-family="Helvetica,sans-Serif" font-size="10.00">panda::Object</text>
</a>
</g>
</g>
<!-- Node5&#45;&gt;Node4 -->
<g id="edge4" class="edge"><title>Node5&#45;&gt;Node4</title>
<path fill="none" stroke="midnightblue" d="M64.6835,-332.383C64.6835,-323.374 64.6835,-313.037 64.6835,-305.779"/>
<polygon fill="midnightblue" stroke="midnightblue" points="61.1836,-332.418 64.6835,-342.418 68.1836,-332.418 61.1836,-332.418"/>
</g>
<!-- Node7 -->
<g id="node7" class="node"><title>Node7</title>
<g id="a_node7"><a xlink:href="classpanda_1_1FatJet.html" target="_top" xlink:title="panda::FatJet">
<polygon fill="white" stroke="black" points="26.1145,-0.5 26.1145,-20.5 103.252,-20.5 103.252,-0.5 26.1145,-0.5"/>
<text text-anchor="middle" x="64.6835" y="-7.5" font-family="Helvetica,sans-Serif" font-size="10.00">panda::FatJet</text>
</a>
</g>
</g>
<!-- Node6&#45;&gt;Node7 -->
<g id="edge6" class="edge"><title>Node6&#45;&gt;Node7</title>
<path fill="none" stroke="midnightblue" d="M64.6835,-47.383C64.6835,-38.3738 64.6835,-28.0373 64.6835,-20.7795"/>
<polygon fill="midnightblue" stroke="midnightblue" points="61.1836,-47.4178 64.6835,-57.4179 68.1836,-47.4179 61.1836,-47.4178"/>
</g>
</g>
</svg>
