<?xml version="1.0" encoding="UTF-8" standalone="no"?>
<!DOCTYPE svg PUBLIC "-//W3C//DTD SVG 1.1//EN"
 "http://www.w3.org/Graphics/SVG/1.1/DTD/svg11.dtd">
<!-- Generated by graphviz version 2.38.0 (20140413.2041)
 -->
<!-- Title: panda::Run::doSetAddress_ Pages: 1 -->
<svg width="639pt" height="170pt"
 viewBox="0.00 0.00 639.04 170.00" xmlns="http://www.w3.org/2000/svg" xmlns:xlink="http://www.w3.org/1999/xlink">
<g id="graph0" class="graph" transform="scale(1 1) rotate(0) translate(4 166)">
<title>panda::Run::doSetAddress_</title>
<polygon fill="white" stroke="none" points="-4,4 -4,-166 635.041,-166 635.041,4 -4,4"/>
<!-- Node1 -->
<g id="node1" class="node"><title>Node1</title>
<polygon fill="#bfbfbf" stroke="black" points="0,-70.5 0,-90.5 141.607,-90.5 141.607,-70.5 0,-70.5"/>
<text text-anchor="middle" x="70.8035" y="-77.5" font-family="Helvetica,sans-Serif" font-size="10.00">panda::Run::doSetAddress_</text>
</g>
<!-- Node2 -->
<g id="node2" class="node"><title>Node2</title>
<g id="a_node2"><a xlink:href="namespacepanda_1_1utils.html#abf9c62e588560197c2bae9932e6a6e05" target="_top" xlink:title="Set address. ">
<polygon fill="white" stroke="black" points="177.607,-70.5 177.607,-90.5 300.307,-90.5 300.307,-70.5 177.607,-70.5"/>
<text text-anchor="middle" x="238.957" y="-77.5" font-family="Helvetica,sans-Serif" font-size="10.00">panda::utils::setAddress</text>
</a>
</g>
</g>
<!-- Node1&#45;&gt;Node2 -->
<g id="edge1" class="edge"><title>Node1&#45;&gt;Node2</title>
<path fill="none" stroke="midnightblue" d="M141.786,-80.5C150.235,-80.5 158.869,-80.5 167.327,-80.5"/>
<polygon fill="midnightblue" stroke="midnightblue" points="167.533,-84.0001 177.533,-80.5 167.533,-77.0001 167.533,-84.0001"/>
</g>
<!-- Node3 -->
<g id="node3" class="node"><title>Node3</title>
<g id="a_node3"><a xlink:href="classpanda_1_1utils_1_1BranchName.html#a13958ff4a9d554d2c057c600b4f70412" target="_top" xlink:title="Prepend the branch name with &lt;objName.&gt;. ">
<polygon fill="white" stroke="black" points="493.345,-129.5 493.345,-161.5 624.373,-161.5 624.373,-129.5 493.345,-129.5"/>
<text text-anchor="start" x="501.345" y="-148.5" font-family="Helvetica,sans-Serif" font-size="10.00">panda::utils::BranchName</text>
<text text-anchor="middle" x="558.859" y="-136.5" font-family="Helvetica,sans-Serif" font-size="10.00">::fullName</text>
</a>
</g>
</g>
<!-- Node2&#45;&gt;Node3 -->
<g id="edge2" class="edge"><title>Node2&#45;&gt;Node3</title>
<path fill="none" stroke="midnightblue" d="M278.277,-90.6165C295.894,-95.1202 317.101,-100.335 336.307,-104.5 384.97,-115.053 440.017,-125.249 483.068,-132.833"/>
<polygon fill="midnightblue" stroke="midnightblue" points="482.727,-136.326 493.181,-134.605 483.936,-129.432 482.727,-136.326"/>
</g>
<!-- Node4 -->
<g id="node4" class="node"><title>Node4</title>
<g id="a_node4"><a xlink:href="namespacepanda_1_1utils.html#a01665f786d6a2acedb8f008f3fc9fc84" target="_top" xlink:title="Set status of a branch. ">
<polygon fill="white" stroke="black" points="336.307,-51.5 336.307,-71.5 450.677,-71.5 450.677,-51.5 336.307,-51.5"/>
<text text-anchor="middle" x="393.492" y="-58.5" font-family="Helvetica,sans-Serif" font-size="10.00">panda::utils::setStatus</text>
</a>
</g>
</g>
<!-- Node2&#45;&gt;Node4 -->
<g id="edge3" class="edge"><title>Node2&#45;&gt;Node4</title>
<path fill="none" stroke="midnightblue" d="M300.681,-72.9361C308.95,-71.9061 317.474,-70.8444 325.841,-69.8022"/>
<polygon fill="midnightblue" stroke="midnightblue" points="326.45,-73.2534 335.941,-68.5441 325.585,-66.3071 326.45,-73.2534"/>
</g>
<!-- Node5 -->
<g id="node5" class="node"><title>Node5</title>
<g id="a_node5"><a xlink:href="classpanda_1_1utils_1_1BranchName.html#a6cc8a6df7c5b12a0221fd49773cca6a7" target="_top" xlink:title="Is the name included and not vetoed? ">
<polygon fill="white" stroke="black" points="486.677,-90.5 486.677,-110.5 631.041,-110.5 631.041,-90.5 486.677,-90.5"/>
<text text-anchor="middle" x="558.859" y="-97.5" font-family="Helvetica,sans-Serif" font-size="10.00">panda::utils::BranchName::in</text>
</a>
</g>
</g>
<!-- Node2&#45;&gt;Node5 -->
<g id="edge8" class="edge"><title>Node2&#45;&gt;Node5</title>
<path fill="none" stroke="midnightblue" d="M300.5,-84.3089C350.361,-87.4458 421.52,-91.9226 476.381,-95.374"/>
<polygon fill="midnightblue" stroke="midnightblue" points="476.226,-98.8711 486.426,-96.006 476.665,-91.8849 476.226,-98.8711"/>
</g>
<!-- Node7 -->
<g id="node7" class="node"><title>Node7</title>
<g id="a_node7"><a xlink:href="namespacepanda_1_1utils.html#aafa411773a4b0ee829d99e6e5a0abdcd" target="_top" xlink:title="Check status of a branch. ">
<polygon fill="white" stroke="black" points="495.284,-0.5 495.284,-20.5 622.434,-20.5 622.434,-0.5 495.284,-0.5"/>
<text text-anchor="middle" x="558.859" y="-7.5" font-family="Helvetica,sans-Serif" font-size="10.00">panda::utils::checkStatus</text>
</a>
</g>
</g>
<!-- Node2&#45;&gt;Node7 -->
<g id="edge9" class="edge"><title>Node2&#45;&gt;Node7</title>
<path fill="none" stroke="midnightblue" d="M260.499,-70.4592C279.667,-61.5098 309.289,-48.7399 336.307,-41.5 385.033,-28.4431 441.345,-20.6555 485.004,-16.1513"/>
<polygon fill="midnightblue" stroke="midnightblue" points="485.363,-19.6329 494.966,-15.1576 484.668,-12.6675 485.363,-19.6329"/>
</g>
<!-- Node4&#45;&gt;Node3 -->
<g id="edge6" class="edge"><title>Node4&#45;&gt;Node3</title>
<path fill="none" stroke="midnightblue" d="M408.322,-71.5109C425.9,-83.9212 457.476,-105.181 486.677,-119.5 490.955,-121.598 495.448,-123.623 500.009,-125.553"/>
<polygon fill="midnightblue" stroke="midnightblue" points="498.836,-128.854 509.418,-129.376 501.471,-122.369 498.836,-128.854"/>
</g>
<!-- Node4&#45;&gt;Node5 -->
<g id="edge4" class="edge"><title>Node4&#45;&gt;Node5</title>
<path fill="none" stroke="midnightblue" d="M436.563,-71.5435C457.715,-76.593 483.543,-82.7587 505.921,-88.1009"/>
<polygon fill="midnightblue" stroke="midnightblue" points="505.391,-91.5728 515.931,-90.4906 507.017,-84.7641 505.391,-91.5728"/>
</g>
<!-- Node6 -->
<g id="node6" class="node"><title>Node6</title>
<g id="a_node6"><a xlink:href="classpanda_1_1utils_1_1BranchName.html#ae3332329bf2afae5ed8e7c35e5d77ffa" target="_top" xlink:title="Is the name included and vetoed? ">
<polygon fill="white" stroke="black" points="493.345,-39.5 493.345,-71.5 624.373,-71.5 624.373,-39.5 493.345,-39.5"/>
<text text-anchor="start" x="501.345" y="-58.5" font-family="Helvetica,sans-Serif" font-size="10.00">panda::utils::BranchName</text>
<text text-anchor="middle" x="558.859" y="-46.5" font-family="Helvetica,sans-Serif" font-size="10.00">::vetoed</text>
</a>
</g>
</g>
<!-- Node4&#45;&gt;Node6 -->
<g id="edge5" class="edge"><title>Node4&#45;&gt;Node6</title>
<path fill="none" stroke="midnightblue" d="M450.714,-59.4351C461.065,-59.055 472.023,-58.6525 482.825,-58.2558"/>
<polygon fill="midnightblue" stroke="midnightblue" points="483.244,-61.7429 493.109,-57.8781 482.987,-54.7476 483.244,-61.7429"/>
</g>
<!-- Node4&#45;&gt;Node7 -->
<g id="edge7" class="edge"><title>Node4&#45;&gt;Node7</title>
<path fill="none" stroke="midnightblue" d="M421.749,-51.4496C440.009,-44.8624 464.649,-36.2532 486.677,-29.5 493.655,-27.3607 501.059,-25.2311 508.352,-23.2131"/>
<polygon fill="midnightblue" stroke="midnightblue" points="509.448,-26.5424 518.178,-20.5402 507.61,-19.7878 509.448,-26.5424"/>
</g>
</g>
</svg>
