<?xml version="1.0" encoding="UTF-8" standalone="no"?>
<!DOCTYPE svg PUBLIC "-//W3C//DTD SVG 1.1//EN"
 "http://www.w3.org/Graphics/SVG/1.1/DTD/svg11.dtd">
<!-- Generated by graphviz version 2.38.0 (20140413.2041)
 -->
<!-- Title: panda::FileMerger::merge Pages: 1 -->
<svg width="451pt" height="107pt"
 viewBox="0.00 0.00 451.42 107.00" xmlns="http://www.w3.org/2000/svg" xmlns:xlink="http://www.w3.org/1999/xlink">
<g id="graph0" class="graph" transform="scale(1 1) rotate(0) translate(4 103)">
<title>panda::FileMerger::merge</title>
<polygon fill="white" stroke="none" points="-4,4 -4,-103 447.416,-103 447.416,4 -4,4"/>
<!-- Node1 -->
<g id="node1" class="node"><title>Node1</title>
<polygon fill="#bfbfbf" stroke="black" points="1.42109e-14,-33.5 1.42109e-14,-65.5 102.681,-65.5 102.681,-33.5 1.42109e-14,-33.5"/>
<text text-anchor="start" x="8" y="-52.5" font-family="Helvetica,sans-Serif" font-size="10.00">panda::FileMerger::</text>
<text text-anchor="middle" x="51.3405" y="-40.5" font-family="Helvetica,sans-Serif" font-size="10.00">merge</text>
</g>
<!-- Node2 -->
<g id="node2" class="node"><title>Node2</title>
<g id="a_node2"><a xlink:href="classpanda_1_1TreeEntry.html#a5aa5edab08e4a0ede18aa75736cfe602" target="_top" xlink:title="Read an entry from the input tree. ">
<polygon fill="white" stroke="black" points="145.071,-78.5 145.071,-98.5 281.107,-98.5 281.107,-78.5 145.071,-78.5"/>
<text text-anchor="middle" x="213.089" y="-85.5" font-family="Helvetica,sans-Serif" font-size="10.00">panda::TreeEntry::getEntry</text>
</a>
</g>
</g>
<!-- Node1&#45;&gt;Node2 -->
<g id="edge1" class="edge"><title>Node1&#45;&gt;Node2</title>
<path fill="none" stroke="midnightblue" d="M102.886,-61.8398C121.482,-66.3798 142.541,-71.521 161.17,-76.0689"/>
<polygon fill="midnightblue" stroke="midnightblue" points="160.405,-79.4849 170.95,-78.4565 162.065,-72.6846 160.405,-79.4849"/>
</g>
<!-- Node3 -->
<g id="node3" class="node"><title>Node3</title>
<g id="a_node3"><a xlink:href="classpanda_1_1TreeEntry.html#a637493ca67678fe71c1ca146f76c74df" target="_top" xlink:title="Bind the tree to this object. ">
<polygon fill="white" stroke="black" points="138.681,-39.5 138.681,-59.5 287.497,-59.5 287.497,-39.5 138.681,-39.5"/>
<text text-anchor="middle" x="213.089" y="-46.5" font-family="Helvetica,sans-Serif" font-size="10.00">panda::TreeEntry::setAddress</text>
</a>
</g>
</g>
<!-- Node1&#45;&gt;Node3 -->
<g id="edge2" class="edge"><title>Node1&#45;&gt;Node3</title>
<path fill="none" stroke="midnightblue" d="M102.886,-49.5C111.033,-49.5 119.652,-49.5 128.333,-49.5"/>
<polygon fill="midnightblue" stroke="midnightblue" points="128.527,-53.0001 138.527,-49.5 128.527,-46.0001 128.527,-53.0001"/>
</g>
<!-- Node5 -->
<g id="node5" class="node"><title>Node5</title>
<g id="a_node5"><a xlink:href="classpanda_1_1TreeEntry.html#ae7ebe6da38bc3ce8e93eaaf1dded043a" target="_top" xlink:title="Create branches bound to this object on the tree. ">
<polygon fill="white" stroke="black" points="152.849,-0.5 152.849,-20.5 273.329,-20.5 273.329,-0.5 152.849,-0.5"/>
<text text-anchor="middle" x="213.089" y="-7.5" font-family="Helvetica,sans-Serif" font-size="10.00">panda::TreeEntry::book</text>
</a>
</g>
</g>
<!-- Node1&#45;&gt;Node5 -->
<g id="edge4" class="edge"><title>Node1&#45;&gt;Node5</title>
<path fill="none" stroke="midnightblue" d="M102.886,-37.1602C121.482,-32.6202 142.541,-27.479 161.17,-22.9311"/>
<polygon fill="midnightblue" stroke="midnightblue" points="162.065,-26.3154 170.95,-20.5435 160.405,-19.5151 162.065,-26.3154"/>
</g>
<!-- Node4 -->
<g id="node4" class="node"><title>Node4</title>
<g id="a_node4"><a xlink:href="classpanda_1_1utils_1_1BranchList.html#a215520401f32786d157a68ee92d90372" target="_top" xlink:title="Return a new list of branches that starts with the objName, removing &lt;objName.&gt; from each...">
<polygon fill="white" stroke="black" points="323.497,-13.5 323.497,-45.5 443.416,-45.5 443.416,-13.5 323.497,-13.5"/>
<text text-anchor="start" x="331.497" y="-32.5" font-family="Helvetica,sans-Serif" font-size="10.00">panda::utils::BranchList</text>
<text text-anchor="middle" x="383.457" y="-20.5" font-family="Helvetica,sans-Serif" font-size="10.00">::subList</text>
</a>
</g>
</g>
<!-- Node3&#45;&gt;Node4 -->
<g id="edge3" class="edge"><title>Node3&#45;&gt;Node4</title>
<path fill="none" stroke="midnightblue" d="M287.937,-40.7277C296.355,-39.7278 304.912,-38.7113 313.266,-37.719"/>
<polygon fill="midnightblue" stroke="midnightblue" points="313.814,-41.1786 323.331,-36.5233 312.988,-34.2275 313.814,-41.1786"/>
</g>
<!-- Node5&#45;&gt;Node4 -->
<g id="edge5" class="edge"><title>Node5&#45;&gt;Node4</title>
<path fill="none" stroke="midnightblue" d="M273.449,-17.1987C286.35,-18.6546 300.105,-20.2068 313.346,-21.701"/>
<polygon fill="midnightblue" stroke="midnightblue" points="313.019,-25.1863 323.349,-22.8298 313.804,-18.2304 313.019,-25.1863"/>
</g>
</g>
</svg>
