<?xml version="1.0" encoding="UTF-8" standalone="no"?>
<!DOCTYPE svg PUBLIC "-//W3C//DTD SVG 1.1//EN"
 "http://www.w3.org/Graphics/SVG/1.1/DTD/svg11.dtd">
<!-- Generated by graphviz version 2.38.0 (20140413.2041)
 -->
<!-- Title: panda::MicroJet::releaseTree Pages: 1 -->
<svg width="484pt" height="29pt"
 viewBox="0.00 0.00 483.65 29.00" xmlns="http://www.w3.org/2000/svg" xmlns:xlink="http://www.w3.org/1999/xlink">
<g id="graph0" class="graph" transform="scale(1 1) rotate(0) translate(4 25)">
<title>panda::MicroJet::releaseTree</title>
<polygon fill="white" stroke="none" points="-4,4 -4,-25 479.65,-25 479.65,4 -4,4"/>
<!-- Node1 -->
<g id="node1" class="node"><title>Node1</title>
<polygon fill="#bfbfbf" stroke="black" points="1.42109e-14,-0.5 1.42109e-14,-20.5 146.025,-20.5 146.025,-0.5 1.42109e-14,-0.5"/>
<text text-anchor="middle" x="73.0125" y="-7.5" font-family="Helvetica,sans-Serif" font-size="10.00">panda::MicroJet::releaseTree</text>
</g>
<!-- Node2 -->
<g id="node2" class="node"><title>Node2</title>
<g id="a_node2"><a xlink:href="classpanda_1_1Jet.html#af402d8510a38cfe145405448644ea3eb" target="_top" xlink:title="Reset the branch pointer to unlink the branch from this object. ">
<polygon fill="white" stroke="black" points="182.025,-0.5 182.025,-20.5 303.614,-20.5 303.614,-0.5 182.025,-0.5"/>
<text text-anchor="middle" x="242.819" y="-7.5" font-family="Helvetica,sans-Serif" font-size="10.00">panda::Jet::releaseTree</text>
</a>
</g>
</g>
<!-- Node1&#45;&gt;Node2 -->
<g id="edge1" class="edge"><title>Node1&#45;&gt;Node2</title>
<path fill="none" stroke="midnightblue" d="M156.25,-10.5C164.88,-10.5 173.533,-10.5 181.844,-10.5"/>
<polygon fill="midnightblue" stroke="midnightblue" points="156.152,-7.0001 146.152,-10.5 156.152,-14.0001 156.152,-7.0001"/>
</g>
<!-- Node3 -->
<g id="node3" class="node"><title>Node3</title>
<g id="a_node3"><a xlink:href="classpanda_1_1FatJet.html#a9ade7c13e2e94e5796ed7f60b2366896" target="_top" xlink:title="Reset the branch pointer to unlink the branch from this object. ">
<polygon fill="white" stroke="black" points="339.614,-0.5 339.614,-20.5 475.65,-20.5 475.65,-0.5 339.614,-0.5"/>
<text text-anchor="middle" x="407.632" y="-7.5" font-family="Helvetica,sans-Serif" font-size="10.00">panda::FatJet::releaseTree</text>
</a>
</g>
</g>
<!-- Node2&#45;&gt;Node3 -->
<g id="edge2" class="edge"><title>Node2&#45;&gt;Node3</title>
<path fill="none" stroke="midnightblue" d="M314.167,-10.5C322.603,-10.5 331.2,-10.5 339.588,-10.5"/>
<polygon fill="midnightblue" stroke="midnightblue" points="313.982,-7.0001 303.982,-10.5 313.982,-14.0001 313.982,-7.0001"/>
</g>
</g>
</svg>
