<?xml version="1.0" encoding="UTF-8" standalone="no"?>
<!DOCTYPE svg PUBLIC "-//W3C//DTD SVG 1.1//EN"
 "http://www.w3.org/Graphics/SVG/1.1/DTD/svg11.dtd">
<!-- Generated by graphviz version 2.38.0 (20140413.2041)
 -->
<!-- Title: panda::Muon Pages: 1 -->
<svg width="330pt" height="382pt"
 viewBox="0.00 0.00 330.28 382.00" xmlns="http://www.w3.org/2000/svg" xmlns:xlink="http://www.w3.org/1999/xlink">
<g id="graph0" class="graph" transform="scale(1 1) rotate(0) translate(4 378)">
<title>panda::Muon</title>
<polygon fill="white" stroke="none" points="-4,4 -4,-378 326.281,-378 326.281,4 -4,4"/>
<!-- Node1 -->
<g id="node1" class="node"><title>Node1</title>
<polygon fill="#bfbfbf" stroke="black" points="55.504,-0.5 55.504,-20.5 129.863,-20.5 129.863,-0.5 55.504,-0.5"/>
<text text-anchor="middle" x="92.6835" y="-7.5" font-family="Helvetica,sans-Serif" font-size="10.00">panda::Muon</text>
</g>
<!-- Node2 -->
<g id="node2" class="node"><title>Node2</title>
<g id="a_node2"><a xlink:href="classpanda_1_1Lepton.html" target="_top" xlink:title="panda::Lepton">
<polygon fill="white" stroke="black" points="52.72,-58.5 52.72,-78.5 132.647,-78.5 132.647,-58.5 52.72,-58.5"/>
<text text-anchor="middle" x="92.6835" y="-65.5" font-family="Helvetica,sans-Serif" font-size="10.00">panda::Lepton</text>
</a>
</g>
</g>
<!-- Node2&#45;&gt;Node1 -->
<g id="edge1" class="edge"><title>Node2&#45;&gt;Node1</title>
<path fill="none" stroke="midnightblue" d="M92.6835,-48.2065C92.6835,-38.8384 92.6835,-28.0262 92.6835,-20.5752"/>
<polygon fill="midnightblue" stroke="midnightblue" points="89.1836,-48.2527 92.6835,-58.2527 96.1836,-48.2528 89.1836,-48.2527"/>
</g>
<!-- Node3 -->
<g id="node3" class="node"><title>Node3</title>
<g id="a_node3"><a xlink:href="classpanda_1_1Particle.html" target="_top" xlink:title="panda::Particle">
<polygon fill="white" stroke="black" points="23.3405,-178.5 23.3405,-198.5 106.026,-198.5 106.026,-178.5 23.3405,-178.5"/>
<text text-anchor="middle" x="64.6835" y="-185.5" font-family="Helvetica,sans-Serif" font-size="10.00">panda::Particle</text>
</a>
</g>
</g>
<!-- Node3&#45;&gt;Node2 -->
<g id="edge2" class="edge"><title>Node3&#45;&gt;Node2</title>
<path fill="none" stroke="midnightblue" d="M69.2658,-168.189C75.3752,-142.442 85.9461,-97.8932 90.4966,-78.7162"/>
<polygon fill="midnightblue" stroke="midnightblue" points="65.784,-167.703 66.8806,-178.241 72.5949,-169.319 65.784,-167.703"/>
</g>
<!-- Node4 -->
<g id="node4" class="node"><title>Node4</title>
<g id="a_node4"><a xlink:href="classpanda_1_1ContainerElement.html" target="_top" xlink:title="panda::ContainerElement">
<polygon fill="white" stroke="black" points="-1.42109e-14,-256.5 -1.42109e-14,-276.5 129.367,-276.5 129.367,-256.5 -1.42109e-14,-256.5"/>
<text text-anchor="middle" x="64.6835" y="-263.5" font-family="Helvetica,sans-Serif" font-size="10.00">panda::ContainerElement</text>
</a>
</g>
</g>
<!-- Node4&#45;&gt;Node3 -->
<g id="edge3" class="edge"><title>Node4&#45;&gt;Node3</title>
<path fill="none" stroke="midnightblue" d="M64.6835,-246.061C64.6835,-230.766 64.6835,-210.155 64.6835,-198.505"/>
<polygon fill="midnightblue" stroke="midnightblue" points="61.1836,-246.483 64.6835,-256.483 68.1836,-246.483 61.1836,-246.483"/>
</g>
<!-- Node5 -->
<g id="node5" class="node"><title>Node5</title>
<g id="a_node5"><a xlink:href="classpanda_1_1Object.html" target="_top" xlink:title="panda::Object">
<polygon fill="white" stroke="black" points="52.5595,-353.5 52.5595,-373.5 130.807,-373.5 130.807,-353.5 52.5595,-353.5"/>
<text text-anchor="middle" x="91.6835" y="-360.5" font-family="Helvetica,sans-Serif" font-size="10.00">panda::Object</text>
</a>
</g>
</g>
<!-- Node5&#45;&gt;Node4 -->
<g id="edge4" class="edge"><title>Node5&#45;&gt;Node4</title>
<path fill="none" stroke="midnightblue" d="M86.3465,-343.722C80.5986,-323.498 71.6896,-292.151 67.3042,-276.721"/>
<polygon fill="midnightblue" stroke="midnightblue" points="82.994,-344.729 89.0946,-353.391 89.7274,-342.815 82.994,-344.729"/>
</g>
<!-- Node7 -->
<g id="node7" class="node"><title>Node7</title>
<g id="a_node7"><a xlink:href="classpanda_1_1ContainerBase.html" target="_top" xlink:title="Base class for all containers. ">
<polygon fill="white" stroke="black" points="92.943,-295.5 92.943,-315.5 208.424,-315.5 208.424,-295.5 92.943,-295.5"/>
<text text-anchor="middle" x="150.683" y="-302.5" font-family="Helvetica,sans-Serif" font-size="10.00">panda::ContainerBase</text>
</a>
</g>
</g>
<!-- Node5&#45;&gt;Node7 -->
<g id="edge7" class="edge"><title>Node5&#45;&gt;Node7</title>
<path fill="none" stroke="midnightblue" d="M108.852,-346.204C119.362,-336.229 132.419,-323.836 141.122,-315.575"/>
<polygon fill="midnightblue" stroke="midnightblue" points="106.27,-343.83 101.426,-353.253 111.089,-348.907 106.27,-343.83"/>
</g>
<!-- Node6 -->
<g id="node6" class="node"><title>Node6</title>
<g id="a_node6"><a xlink:href="classpanda_1_1Ref.html" target="_top" xlink:title="panda::Ref\&lt; panda::\lGenParticle \&gt;">
<polygon fill="white" stroke="black" points="92.243,-127.5 92.243,-159.5 199.124,-159.5 199.124,-127.5 92.243,-127.5"/>
<text text-anchor="start" x="100.243" y="-146.5" font-family="Helvetica,sans-Serif" font-size="10.00">panda::Ref&lt; panda::</text>
<text text-anchor="middle" x="145.683" y="-134.5" font-family="Helvetica,sans-Serif" font-size="10.00">GenParticle &gt;</text>
</a>
</g>
</g>
<!-- Node6&#45;&gt;Node2 -->
<g id="edge5" class="edge"><title>Node6&#45;&gt;Node2</title>
<path fill="none" stroke="#9a32cd" stroke-dasharray="5,2" d="M128.801,-119.247C118.784,-105.45 106.647,-88.7325 99.3022,-78.6163"/>
<polygon fill="#9a32cd" stroke="#9a32cd" points="125.994,-121.338 134.702,-127.374 131.659,-117.226 125.994,-121.338"/>
<text text-anchor="middle" x="151.693" y="-100" font-family="Helvetica,sans-Serif" font-size="10.00"> matchedGen</text>
</g>
<!-- Node7&#45;&gt;Node6 -->
<g id="edge6" class="edge"><title>Node7&#45;&gt;Node6</title>
<path fill="none" stroke="#9a32cd" stroke-dasharray="5,2" d="M150.078,-285.124C149.071,-252.893 147.072,-188.927 146.159,-159.703"/>
<polygon fill="#9a32cd" stroke="#9a32cd" points="146.59,-285.554 150.4,-295.439 153.586,-285.335 146.59,-285.554"/>
<text text-anchor="middle" x="173.413" y="-224.5" font-family="Helvetica,sans-Serif" font-size="10.00"> container_</text>
</g>
<!-- Node8 -->
<g id="node8" class="node"><title>Node8</title>
<g id="a_node8"><a xlink:href="classpanda_1_1Ref.html" target="_top" xlink:title="panda::Ref\&lt; E \&gt;">
<polygon fill="white" stroke="black" points="212.276,-217.5 212.276,-237.5 301.091,-237.5 301.091,-217.5 212.276,-217.5"/>
<text text-anchor="middle" x="256.683" y="-224.5" font-family="Helvetica,sans-Serif" font-size="10.00">panda::Ref&lt; E &gt;</text>
</a>
</g>
</g>
<!-- Node7&#45;&gt;Node8 -->
<g id="edge9" class="edge"><title>Node7&#45;&gt;Node8</title>
<path fill="none" stroke="#9a32cd" stroke-dasharray="5,2" d="M171.466,-289.599C193.077,-274.105 226.203,-250.354 244.124,-237.505"/>
<polygon fill="#9a32cd" stroke="#9a32cd" points="169.347,-286.812 163.259,-295.483 173.426,-292.501 169.347,-286.812"/>
<text text-anchor="middle" x="240.413" y="-263.5" font-family="Helvetica,sans-Serif" font-size="10.00"> container_</text>
</g>
<!-- Node8&#45;&gt;Node6 -->
<g id="edge8" class="edge"><title>Node8&#45;&gt;Node6</title>
<path fill="none" stroke="orange" stroke-dasharray="5,2" d="M236.288,-211.433C216.402,-196.742 186.315,-174.516 166.34,-159.76"/>
<polygon fill="orange" stroke="orange" points="234.257,-214.284 244.38,-217.411 238.417,-208.654 234.257,-214.284"/>
<text text-anchor="middle" x="269.482" y="-185.5" font-family="Helvetica,sans-Serif" font-size="10.00"> &lt; panda::GenParticle &gt;</text>
</g>
</g>
</svg>
