<?xml version="1.0" encoding="UTF-8" standalone="no"?>
<!DOCTYPE svg PUBLIC "-//W3C//DTD SVG 1.1//EN"
 "http://www.w3.org/Graphics/SVG/1.1/DTD/svg11.dtd">
<!-- Generated by graphviz version 2.38.0 (20140413.2041)
 -->
<!-- Title: panda::Container::operator[] Pages: 1 -->
<svg width="304pt" height="68pt"
 viewBox="0.00 0.00 304.41 68.00" xmlns="http://www.w3.org/2000/svg" xmlns:xlink="http://www.w3.org/1999/xlink">
<g id="graph0" class="graph" transform="scale(1 1) rotate(0) translate(4 64)">
<title>panda::Container::operator[]</title>
<polygon fill="white" stroke="none" points="-4,4 -4,-64 300.412,-64 300.412,4 -4,4"/>
<!-- Node1 -->
<g id="node1" class="node"><title>Node1</title>
<polygon fill="#bfbfbf" stroke="black" points="-2.84217e-14,-19.5 -2.84217e-14,-39.5 141.042,-39.5 141.042,-19.5 -2.84217e-14,-19.5"/>
<text text-anchor="middle" x="70.521" y="-26.5" font-family="Helvetica,sans-Serif" font-size="10.00">panda::Container::operator[]</text>
</g>
<!-- Node2 -->
<g id="node2" class="node"><title>Node2</title>
<g id="a_node2"><a xlink:href="classpanda_1_1Container.html#a918c69810c2cc57f136bea5a2d5ef617" target="_top" xlink:title="Reference to the first element. ">
<polygon fill="white" stroke="black" points="177.598,-39.5 177.598,-59.5 295.855,-59.5 295.855,-39.5 177.598,-39.5"/>
<text text-anchor="middle" x="236.727" y="-46.5" font-family="Helvetica,sans-Serif" font-size="10.00">panda::Container::front</text>
</a>
</g>
</g>
<!-- Node1&#45;&gt;Node2 -->
<g id="edge1" class="edge"><title>Node1&#45;&gt;Node2</title>
<path fill="none" stroke="midnightblue" d="M151.115,-39.1944C159.967,-40.2725 168.858,-41.3554 177.375,-42.3929"/>
<polygon fill="midnightblue" stroke="midnightblue" points="151.509,-35.7166 141.159,-37.9818 150.663,-42.6653 151.509,-35.7166"/>
</g>
<!-- Node3 -->
<g id="node3" class="node"><title>Node3</title>
<g id="a_node3"><a xlink:href="classpanda_1_1Container.html#a61bb66309ba1c1472097808caf751200" target="_top" xlink:title="Reference to the last element. ">
<polygon fill="white" stroke="black" points="177.042,-0.5 177.042,-20.5 296.412,-20.5 296.412,-0.5 177.042,-0.5"/>
<text text-anchor="middle" x="236.727" y="-7.5" font-family="Helvetica,sans-Serif" font-size="10.00">panda::Container::back</text>
</a>
</g>
</g>
<!-- Node1&#45;&gt;Node3 -->
<g id="edge2" class="edge"><title>Node1&#45;&gt;Node3</title>
<path fill="none" stroke="midnightblue" d="M151.251,-20.2745C159.882,-19.2759 168.547,-18.2733 176.865,-17.3108"/>
<polygon fill="midnightblue" stroke="midnightblue" points="150.691,-16.816 141.159,-21.4423 151.495,-23.7696 150.691,-16.816"/>
</g>
</g>
</svg>
