<?xml version="1.0" encoding="UTF-8" standalone="no"?>
<!DOCTYPE svg PUBLIC "-//W3C//DTD SVG 1.1//EN"
 "http://www.w3.org/Graphics/SVG/1.1/DTD/svg11.dtd">
<!-- Generated by graphviz version 2.38.0 (20140413.2041)
 -->
<!-- Title: panda::TreeEntry::setAddress Pages: 1 -->
<svg width="369pt" height="41pt"
 viewBox="0.00 0.00 369.16 41.00" xmlns="http://www.w3.org/2000/svg" xmlns:xlink="http://www.w3.org/1999/xlink">
<g id="graph0" class="graph" transform="scale(1 1) rotate(0) translate(4 37)">
<title>panda::TreeEntry::setAddress</title>
<polygon fill="white" stroke="none" points="-4,4 -4,-37 365.163,-37 365.163,4 -4,4"/>
<!-- Node1 -->
<g id="node1" class="node"><title>Node1</title>
<polygon fill="#bfbfbf" stroke="black" points="1.42109e-14,-6.5 1.42109e-14,-26.5 148.816,-26.5 148.816,-6.5 1.42109e-14,-6.5"/>
<text text-anchor="middle" x="74.408" y="-13.5" font-family="Helvetica,sans-Serif" font-size="10.00">panda::TreeEntry::setAddress</text>
</g>
<!-- Node2 -->
<g id="node2" class="node"><title>Node2</title>
<g id="a_node2"><a xlink:href="classpanda_1_1FileMerger.html#a13a672d0fef3317ce4335d6a56f4229b" target="_top" xlink:title="Run the merger. ">
<polygon fill="white" stroke="black" points="184.816,-0.5 184.816,-32.5 287.497,-32.5 287.497,-0.5 184.816,-0.5"/>
<text text-anchor="start" x="192.816" y="-19.5" font-family="Helvetica,sans-Serif" font-size="10.00">panda::FileMerger::</text>
<text text-anchor="middle" x="236.156" y="-7.5" font-family="Helvetica,sans-Serif" font-size="10.00">merge</text>
</a>
</g>
</g>
<!-- Node1&#45;&gt;Node2 -->
<g id="edge1" class="edge"><title>Node1&#45;&gt;Node2</title>
<path fill="none" stroke="midnightblue" d="M159.293,-16.5C167.885,-16.5 176.414,-16.5 184.482,-16.5"/>
<polygon fill="midnightblue" stroke="midnightblue" points="159.203,-13.0001 149.203,-16.5 159.203,-20.0001 159.203,-13.0001"/>
</g>
<!-- Node3 -->
<g id="node3" class="node"><title>Node3</title>
<g id="a_node3"><a xlink:href="padd_8cc.html#a2201d4f3fe424b79dbb580041d738741" target="_top" xlink:title="main">
<polygon fill="white" stroke="black" points="323.497,-6.5 323.497,-26.5 361.163,-26.5 361.163,-6.5 323.497,-6.5"/>
<text text-anchor="middle" x="342.33" y="-13.5" font-family="Helvetica,sans-Serif" font-size="10.00">main</text>
</a>
</g>
</g>
<!-- Node2&#45;&gt;Node3 -->
<g id="edge2" class="edge"><title>Node2&#45;&gt;Node3</title>
<path fill="none" stroke="midnightblue" d="M297.766,-16.5C306.948,-16.5 315.765,-16.5 323.037,-16.5"/>
<polygon fill="midnightblue" stroke="midnightblue" points="297.717,-13.0001 287.717,-16.5 297.717,-20.0001 297.717,-13.0001"/>
</g>
</g>
</svg>
