<?xml version="1.0" encoding="UTF-8" standalone="no"?>
<!DOCTYPE svg PUBLIC "-//W3C//DTD SVG 1.1//EN"
 "http://www.w3.org/Graphics/SVG/1.1/DTD/svg11.dtd">
<!-- Generated by graphviz version 2.38.0 (20140413.2041)
 -->
<!-- Title: panda::Jet::releaseTree Pages: 1 -->
<svg width="1015pt" height="160pt"
 viewBox="0.00 0.00 1015.28 160.00" xmlns="http://www.w3.org/2000/svg" xmlns:xlink="http://www.w3.org/1999/xlink">
<g id="graph0" class="graph" transform="scale(1 1) rotate(0) translate(4 156)">
<title>panda::Jet::releaseTree</title>
<polygon fill="white" stroke="none" points="-4,4 -4,-156 1011.28,-156 1011.28,4 -4,4"/>
<!-- Node1 -->
<g id="node1" class="node"><title>Node1</title>
<polygon fill="#bfbfbf" stroke="black" points="-2.84217e-14,-64.5 -2.84217e-14,-84.5 121.589,-84.5 121.589,-64.5 -2.84217e-14,-64.5"/>
<text text-anchor="middle" x="60.7945" y="-71.5" font-family="Helvetica,sans-Serif" font-size="10.00">panda::Jet::releaseTree</text>
</g>
<!-- Node2 -->
<g id="node2" class="node"><title>Node2</title>
<g id="a_node2"><a xlink:href="classpanda_1_1MicroJet.html#a1f12baa07c2b52599be1e7808da40742" target="_top" xlink:title="Reset the branch pointer to unlink the branch from this object. ">
<polygon fill="white" stroke="black" points="157.589,-64.5 157.589,-84.5 303.614,-84.5 303.614,-64.5 157.589,-64.5"/>
<text text-anchor="middle" x="230.601" y="-71.5" font-family="Helvetica,sans-Serif" font-size="10.00">panda::MicroJet::releaseTree</text>
</a>
</g>
</g>
<!-- Node1&#45;&gt;Node2 -->
<g id="edge1" class="edge"><title>Node1&#45;&gt;Node2</title>
<path fill="none" stroke="midnightblue" d="M121.903,-74.5C130.149,-74.5 138.73,-74.5 147.289,-74.5"/>
<polygon fill="midnightblue" stroke="midnightblue" points="147.304,-78.0001 157.304,-74.5 147.304,-71.0001 147.304,-78.0001"/>
</g>
<!-- Node6 -->
<g id="node6" class="node"><title>Node6</title>
<g id="a_node6"><a xlink:href="classpanda_1_1utils_1_1StoreManager.html#a6f30ec459d951e84a1196b7e2ffdcf49" target="_top" xlink:title="panda::utils::StoreManager\l::getName">
<polygon fill="white" stroke="black" points="703.666,-119.5 703.666,-151.5 839.701,-151.5 839.701,-119.5 703.666,-119.5"/>
<text text-anchor="start" x="711.666" y="-138.5" font-family="Helvetica,sans-Serif" font-size="10.00">panda::utils::StoreManager</text>
<text text-anchor="middle" x="771.684" y="-126.5" font-family="Helvetica,sans-Serif" font-size="10.00">::getName</text>
</a>
</g>
</g>
<!-- Node1&#45;&gt;Node6 -->
<g id="edge12" class="edge"><title>Node1&#45;&gt;Node6</title>
<path fill="none" stroke="midnightblue" d="M109.444,-84.5296C124.78,-87.6024 141.871,-90.8642 157.589,-93.5 381.833,-131.104 439.778,-143.888 667.111,-139.5 675.673,-139.335 684.631,-139.093 693.542,-138.808"/>
<polygon fill="midnightblue" stroke="midnightblue" points="693.683,-142.305 703.559,-138.471 693.447,-135.309 693.683,-142.305"/>
</g>
<!-- Node7 -->
<g id="node7" class="node"><title>Node7</title>
<g id="a_node7"><a xlink:href="namespacepanda_1_1utils.html#a82a8530e64fbdf917cf9b8659065f98b" target="_top" xlink:title="panda::utils::resetAddress">
<polygon fill="white" stroke="black" points="705.89,-6.5 705.89,-26.5 837.478,-26.5 837.478,-6.5 705.89,-6.5"/>
<text text-anchor="middle" x="771.684" y="-13.5" font-family="Helvetica,sans-Serif" font-size="10.00">panda::utils::resetAddress</text>
</a>
</g>
</g>
<!-- Node1&#45;&gt;Node7 -->
<g id="edge13" class="edge"><title>Node1&#45;&gt;Node7</title>
<path fill="none" stroke="midnightblue" d="M106.999,-64.4425C122.943,-61.0596 141.023,-57.4094 157.589,-54.5 319.509,-26.0631 361.215,-21.7974 525.527,-16.5 582.617,-14.6594 647.225,-14.7486 695.778,-15.2501"/>
<polygon fill="midnightblue" stroke="midnightblue" points="695.848,-18.7511 705.887,-15.3629 695.926,-11.7515 695.848,-18.7511"/>
</g>
<!-- Node3 -->
<g id="node3" class="node"><title>Node3</title>
<g id="a_node3"><a xlink:href="classpanda_1_1ParticleM.html#a0315a281e15ff66329eef5169b162e8e" target="_top" xlink:title="Reset the branch pointer to unlink the branch from this object. ">
<polygon fill="white" stroke="black" points="339.614,-64.5 339.614,-84.5 489.527,-84.5 489.527,-64.5 339.614,-64.5"/>
<text text-anchor="middle" x="414.57" y="-71.5" font-family="Helvetica,sans-Serif" font-size="10.00">panda::ParticleM::releaseTree</text>
</a>
</g>
</g>
<!-- Node2&#45;&gt;Node3 -->
<g id="edge2" class="edge"><title>Node2&#45;&gt;Node3</title>
<path fill="none" stroke="midnightblue" d="M303.782,-74.5C312.106,-74.5 320.65,-74.5 329.118,-74.5"/>
<polygon fill="midnightblue" stroke="midnightblue" points="329.39,-78.0001 339.39,-74.5 329.39,-71.0001 329.39,-78.0001"/>
</g>
<!-- Node2&#45;&gt;Node6 -->
<g id="edge10" class="edge"><title>Node2&#45;&gt;Node6</title>
<path fill="none" stroke="midnightblue" d="M286.488,-84.5399C303.495,-87.5472 322.311,-90.7692 339.614,-93.5 422.026,-106.507 442.529,-111 525.527,-119.5 581.579,-125.241 645.064,-129.317 693.385,-131.918"/>
<polygon fill="midnightblue" stroke="midnightblue" points="693.287,-135.418 703.458,-132.451 693.657,-128.428 693.287,-135.418"/>
</g>
<!-- Node2&#45;&gt;Node7 -->
<g id="edge11" class="edge"><title>Node2&#45;&gt;Node7</title>
<path fill="none" stroke="midnightblue" d="M283.165,-64.4729C301.014,-61.1296 321.166,-57.4964 339.614,-54.5 421.967,-41.1238 442.463,-36.3252 525.527,-28.5 582.463,-23.1362 647.078,-20.0984 695.673,-18.4218"/>
<polygon fill="midnightblue" stroke="midnightblue" points="695.914,-21.9158 705.792,-18.0844 695.68,-14.9197 695.914,-21.9158"/>
</g>
<!-- Node4 -->
<g id="node4" class="node"><title>Node4</title>
<g id="a_node4"><a xlink:href="classpanda_1_1Particle.html#a8fb6fa0b4316967da573181262727142" target="_top" xlink:title="Reset the branch pointer to unlink the branch from this object. ">
<polygon fill="white" stroke="black" points="525.527,-64.5 525.527,-84.5 667.111,-84.5 667.111,-64.5 525.527,-64.5"/>
<text text-anchor="middle" x="596.319" y="-71.5" font-family="Helvetica,sans-Serif" font-size="10.00">panda::Particle::releaseTree</text>
</a>
</g>
</g>
<!-- Node3&#45;&gt;Node4 -->
<g id="edge3" class="edge"><title>Node3&#45;&gt;Node4</title>
<path fill="none" stroke="midnightblue" d="M489.719,-74.5C498.107,-74.5 506.683,-74.5 515.143,-74.5"/>
<polygon fill="midnightblue" stroke="midnightblue" points="515.385,-78.0001 525.385,-74.5 515.385,-71.0001 515.385,-78.0001"/>
</g>
<!-- Node3&#45;&gt;Node6 -->
<g id="edge8" class="edge"><title>Node3&#45;&gt;Node6</title>
<path fill="none" stroke="midnightblue" d="M473.49,-84.5242C490.275,-87.425 508.631,-90.5928 525.527,-93.5 581.746,-103.173 645.226,-114.047 693.502,-122.306"/>
<polygon fill="midnightblue" stroke="midnightblue" points="693.118,-125.792 703.565,-124.028 694.298,-118.892 693.118,-125.792"/>
</g>
<!-- Node3&#45;&gt;Node7 -->
<g id="edge9" class="edge"><title>Node3&#45;&gt;Node7</title>
<path fill="none" stroke="midnightblue" d="M469.211,-64.4533C487.104,-61.1794 507.159,-57.5935 525.527,-54.5 582.526,-44.9004 647.138,-34.9224 695.716,-27.601"/>
<polygon fill="midnightblue" stroke="midnightblue" points="696.462,-31.0283 705.831,-26.0801 695.421,-24.1061 696.462,-31.0283"/>
</g>
<!-- Node5 -->
<g id="node5" class="node"><title>Node5</title>
<g id="a_node5"><a xlink:href="classpanda_1_1Object.html#aaf58438092b42a89b838ce12c6a23833" target="_top" xlink:title="Reset the branch pointer to unlink the branch from this object. ">
<polygon fill="white" stroke="black" points="703.111,-64.5 703.111,-84.5 840.257,-84.5 840.257,-64.5 703.111,-64.5"/>
<text text-anchor="middle" x="771.684" y="-71.5" font-family="Helvetica,sans-Serif" font-size="10.00">panda::Object::releaseTree</text>
</a>
</g>
</g>
<!-- Node4&#45;&gt;Node5 -->
<g id="edge4" class="edge"><title>Node4&#45;&gt;Node5</title>
<path fill="none" stroke="midnightblue" d="M667.333,-74.5C675.685,-74.5 684.251,-74.5 692.705,-74.5"/>
<polygon fill="midnightblue" stroke="midnightblue" points="692.94,-78.0001 702.94,-74.5 692.94,-71.0001 692.94,-78.0001"/>
</g>
<!-- Node4&#45;&gt;Node6 -->
<g id="edge5" class="edge"><title>Node4&#45;&gt;Node6</title>
<path fill="none" stroke="midnightblue" d="M625.947,-84.5729C650.245,-93.1226 685.808,-105.636 715.601,-116.118"/>
<polygon fill="midnightblue" stroke="midnightblue" points="714.455,-119.425 725.049,-119.443 716.778,-112.822 714.455,-119.425"/>
</g>
<!-- Node4&#45;&gt;Node7 -->
<g id="edge6" class="edge"><title>Node4&#45;&gt;Node7</title>
<path fill="none" stroke="midnightblue" d="M627.517,-64.3972C656.142,-54.8205 699.323,-40.3742 730.775,-29.8516"/>
<polygon fill="midnightblue" stroke="midnightblue" points="732.169,-33.0761 740.542,-26.5842 729.948,-26.4378 732.169,-33.0761"/>
</g>
<!-- Node8 -->
<g id="node8" class="node"><title>Node8</title>
<g id="a_node8"><a xlink:href="classpanda_1_1utils_1_1BranchName.html#a13958ff4a9d554d2c057c600b4f70412" target="_top" xlink:title="Prepend the branch name with &lt;objName.&gt;. ">
<polygon fill="white" stroke="black" points="876.257,-0.5 876.257,-32.5 1007.28,-32.5 1007.28,-0.5 876.257,-0.5"/>
<text text-anchor="start" x="884.257" y="-19.5" font-family="Helvetica,sans-Serif" font-size="10.00">panda::utils::BranchName</text>
<text text-anchor="middle" x="941.771" y="-7.5" font-family="Helvetica,sans-Serif" font-size="10.00">::fullName</text>
</a>
</g>
</g>
<!-- Node7&#45;&gt;Node8 -->
<g id="edge7" class="edge"><title>Node7&#45;&gt;Node8</title>
<path fill="none" stroke="midnightblue" d="M837.671,-16.5C846.965,-16.5 856.588,-16.5 866.051,-16.5"/>
<polygon fill="midnightblue" stroke="midnightblue" points="866.234,-20.0001 876.234,-16.5 866.234,-13.0001 866.234,-20.0001"/>
</g>
</g>
</svg>
