<?xml version="1.0" encoding="UTF-8" standalone="no"?>
<!DOCTYPE svg PUBLIC "-//W3C//DTD SVG 1.1//EN"
 "http://www.w3.org/Graphics/SVG/1.1/DTD/svg11.dtd">
<!-- Generated by graphviz version 2.38.0 (20140413.2041)
 -->
<!-- Title: panda::ParticleM::setStatus Pages: 1 -->
<svg width="623pt" height="236pt"
 viewBox="0.00 0.00 622.93 236.00" xmlns="http://www.w3.org/2000/svg" xmlns:xlink="http://www.w3.org/1999/xlink">
<g id="graph0" class="graph" transform="scale(1 1) rotate(0) translate(4 232)">
<title>panda::ParticleM::setStatus</title>
<polygon fill="white" stroke="none" points="-4,4 -4,-232 618.935,-232 618.935,4 -4,4"/>
<!-- Node1 -->
<g id="node1" class="node"><title>Node1</title>
<polygon fill="#bfbfbf" stroke="black" points="4.26326e-14,-97.5 4.26326e-14,-117.5 138.256,-117.5 138.256,-97.5 4.26326e-14,-97.5"/>
<text text-anchor="middle" x="69.128" y="-104.5" font-family="Helvetica,sans-Serif" font-size="10.00">panda::ParticleM::setStatus</text>
</g>
<!-- Node2 -->
<g id="node2" class="node"><title>Node2</title>
<g id="a_node2"><a xlink:href="classpanda_1_1GenJet.html#a3c5b1e9560862967ec26df6a6bced69b" target="_top" xlink:title="Set status of branches with names that correspond to the variables of this object. ">
<polygon fill="white" stroke="black" points="177.026,-207.5 177.026,-227.5 305.855,-227.5 305.855,-207.5 177.026,-207.5"/>
<text text-anchor="middle" x="241.44" y="-214.5" font-family="Helvetica,sans-Serif" font-size="10.00">panda::GenJet::setStatus</text>
</a>
</g>
</g>
<!-- Node1&#45;&gt;Node2 -->
<g id="edge1" class="edge"><title>Node1&#45;&gt;Node2</title>
<path fill="none" stroke="midnightblue" d="M85.772,-125.251C104.76,-145.746 138.68,-179.116 174.256,-198.5 180.764,-202.046 188.002,-204.989 195.234,-207.413"/>
<polygon fill="midnightblue" stroke="midnightblue" points="88.1225,-122.633 78.8084,-117.583 82.9405,-127.339 88.1225,-122.633"/>
</g>
<!-- Node3 -->
<g id="node3" class="node"><title>Node3</title>
<g id="a_node3"><a xlink:href="classpanda_1_1GenParticle.html#ace528f9680d5a0954a651e3b099bb7f4" target="_top" xlink:title="Set status of branches with names that correspond to the variables of this object. ">
<polygon fill="white" stroke="black" points="190.649,-156.5 190.649,-188.5 292.232,-188.5 292.232,-156.5 190.649,-156.5"/>
<text text-anchor="start" x="198.649" y="-175.5" font-family="Helvetica,sans-Serif" font-size="10.00">panda::GenParticle</text>
<text text-anchor="middle" x="241.44" y="-163.5" font-family="Helvetica,sans-Serif" font-size="10.00">::setStatus</text>
</a>
</g>
</g>
<!-- Node1&#45;&gt;Node3 -->
<g id="edge2" class="edge"><title>Node1&#45;&gt;Node3</title>
<path fill="none" stroke="midnightblue" d="M105.615,-121.188C125.739,-128.937 151.394,-138.791 174.256,-147.5 181.832,-150.386 189.9,-153.445 197.704,-156.397"/>
<polygon fill="midnightblue" stroke="midnightblue" points="106.806,-117.897 96.2163,-117.568 104.29,-124.429 106.806,-117.897"/>
</g>
<!-- Node4 -->
<g id="node4" class="node"><title>Node4</title>
<g id="a_node4"><a xlink:href="classpanda_1_1MicroJet.html#a55b434c84ffd0e71a8d6e96c29cbe57a" target="_top" xlink:title="Set status of branches with names that correspond to the variables of this object. ">
<polygon fill="white" stroke="black" points="174.256,-117.5 174.256,-137.5 308.624,-137.5 308.624,-117.5 174.256,-117.5"/>
<text text-anchor="middle" x="241.44" y="-124.5" font-family="Helvetica,sans-Serif" font-size="10.00">panda::MicroJet::setStatus</text>
</a>
</g>
</g>
<!-- Node1&#45;&gt;Node4 -->
<g id="edge3" class="edge"><title>Node1&#45;&gt;Node4</title>
<path fill="none" stroke="midnightblue" d="M148.421,-116.694C156.995,-117.701 165.663,-118.719 174.073,-119.706"/>
<polygon fill="midnightblue" stroke="midnightblue" points="148.759,-113.21 138.419,-115.52 147.943,-120.162 148.759,-113.21"/>
</g>
<!-- Node7 -->
<g id="node7" class="node"><title>Node7</title>
<g id="a_node7"><a xlink:href="classpanda_1_1Parton.html#afc1af337bdb9cc55a55ebea4c819fc76" target="_top" xlink:title="Set status of branches with names that correspond to the variables of this object. ">
<polygon fill="white" stroke="black" points="178.416,-78.5 178.416,-98.5 304.464,-98.5 304.464,-78.5 178.416,-78.5"/>
<text text-anchor="middle" x="241.44" y="-85.5" font-family="Helvetica,sans-Serif" font-size="10.00">panda::Parton::setStatus</text>
</a>
</g>
</g>
<!-- Node1&#45;&gt;Node7 -->
<g id="edge6" class="edge"><title>Node1&#45;&gt;Node7</title>
<path fill="none" stroke="midnightblue" d="M148.359,-98.7726C158.362,-97.6566 168.494,-96.5263 178.197,-95.4439"/>
<polygon fill="midnightblue" stroke="midnightblue" points="147.969,-95.2942 138.419,-99.8815 148.746,-102.251 147.969,-95.2942"/>
</g>
<!-- Node8 -->
<g id="node8" class="node"><title>Node8</title>
<g id="a_node8"><a xlink:href="classpanda_1_1PFCand.html#a80f36bbc47987a89a4376e519064b9da" target="_top" xlink:title="Set status of branches with names that correspond to the variables of this object. ">
<polygon fill="white" stroke="black" points="174.806,-39.5 174.806,-59.5 308.074,-59.5 308.074,-39.5 174.806,-39.5"/>
<text text-anchor="middle" x="241.44" y="-46.5" font-family="Helvetica,sans-Serif" font-size="10.00">panda::PFCand::setStatus</text>
</a>
</g>
</g>
<!-- Node1&#45;&gt;Node8 -->
<g id="edge7" class="edge"><title>Node1&#45;&gt;Node8</title>
<path fill="none" stroke="midnightblue" d="M106.143,-93.7886C126.115,-86.3286 151.454,-77.0993 174.256,-69.5 184.505,-66.0844 195.728,-62.5984 205.973,-59.5138"/>
<polygon fill="midnightblue" stroke="midnightblue" points="104.65,-90.6105 96.5182,-97.4017 107.11,-97.164 104.65,-90.6105"/>
</g>
<!-- Node9 -->
<g id="node9" class="node"><title>Node9</title>
<g id="a_node9"><a xlink:href="classpanda_1_1Tau.html#a13a1e5081816f0045880f739db031d9e" target="_top" xlink:title="Set status of branches with names that correspond to the variables of this object. ">
<polygon fill="white" stroke="black" points="184.53,-0.5 184.53,-20.5 298.351,-20.5 298.351,-0.5 184.53,-0.5"/>
<text text-anchor="middle" x="241.44" y="-7.5" font-family="Helvetica,sans-Serif" font-size="10.00">panda::Tau::setStatus</text>
</a>
</g>
</g>
<!-- Node1&#45;&gt;Node9 -->
<g id="edge8" class="edge"><title>Node1&#45;&gt;Node9</title>
<path fill="none" stroke="midnightblue" d="M88.8141,-90.5468C108.702,-73.2908 141.727,-46.8236 174.256,-30.5 182.088,-26.5699 190.835,-23.2549 199.338,-20.5238"/>
<polygon fill="midnightblue" stroke="midnightblue" points="86.3181,-88.0814 81.1349,-97.3218 90.9492,-93.3305 86.3181,-88.0814"/>
</g>
<!-- Node5 -->
<g id="node5" class="node"><title>Node5</title>
<g id="a_node5"><a xlink:href="classpanda_1_1Jet.html#afa2e8a9a09a34cddb5ce810c8b5a964a" target="_top" xlink:title="Set status of branches with names that correspond to the variables of this object. ">
<polygon fill="white" stroke="black" points="344.624,-117.5 344.624,-137.5 454.556,-137.5 454.556,-117.5 344.624,-117.5"/>
<text text-anchor="middle" x="399.59" y="-124.5" font-family="Helvetica,sans-Serif" font-size="10.00">panda::Jet::setStatus</text>
</a>
</g>
</g>
<!-- Node4&#45;&gt;Node5 -->
<g id="edge4" class="edge"><title>Node4&#45;&gt;Node5</title>
<path fill="none" stroke="midnightblue" d="M318.826,-127.5C327.517,-127.5 336.235,-127.5 344.551,-127.5"/>
<polygon fill="midnightblue" stroke="midnightblue" points="318.662,-124 308.662,-127.5 318.662,-131 318.662,-124"/>
</g>
<!-- Node6 -->
<g id="node6" class="node"><title>Node6</title>
<g id="a_node6"><a xlink:href="classpanda_1_1FatJet.html#a0b0f30a26fe1e58a47217baf71978e90" target="_top" xlink:title="Set status of branches with names that correspond to the variables of this object. ">
<polygon fill="white" stroke="black" points="490.556,-117.5 490.556,-137.5 614.935,-137.5 614.935,-117.5 490.556,-117.5"/>
<text text-anchor="middle" x="552.745" y="-124.5" font-family="Helvetica,sans-Serif" font-size="10.00">panda::FatJet::setStatus</text>
</a>
</g>
</g>
<!-- Node5&#45;&gt;Node6 -->
<g id="edge5" class="edge"><title>Node5&#45;&gt;Node6</title>
<path fill="none" stroke="midnightblue" d="M464.953,-127.5C473.433,-127.5 482.106,-127.5 490.531,-127.5"/>
<polygon fill="midnightblue" stroke="midnightblue" points="464.734,-124 454.734,-127.5 464.734,-131 464.734,-124"/>
</g>
</g>
</svg>
