<?xml version="1.0" encoding="UTF-8" standalone="no"?>
<!DOCTYPE svg PUBLIC "-//W3C//DTD SVG 1.1//EN"
 "http://www.w3.org/Graphics/SVG/1.1/DTD/svg11.dtd">
<!-- Generated by graphviz version 2.38.0 (20140413.2041)
 -->
<!-- Title: panda::TreeEntry Pages: 1 -->
<svg width="168pt" height="143pt"
 viewBox="0.00 0.00 168.30 143.00" xmlns="http://www.w3.org/2000/svg" xmlns:xlink="http://www.w3.org/1999/xlink">
<g id="graph0" class="graph" transform="scale(1 1) rotate(0) translate(4 139)">
<title>panda::TreeEntry</title>
<polygon fill="white" stroke="none" points="-4,4 -4,-139 164.304,-139 164.304,4 -4,4"/>
<!-- Node1 -->
<g id="node1" class="node"><title>Node1</title>
<polygon fill="#bfbfbf" stroke="black" points="34.837,-57.5 34.837,-77.5 128.082,-77.5 128.082,-57.5 34.837,-57.5"/>
<text text-anchor="middle" x="81.4595" y="-64.5" font-family="Helvetica,sans-Serif" font-size="10.00">panda::TreeEntry</text>
</g>
<!-- Node3 -->
<g id="node3" class="node"><title>Node3</title>
<g id="a_node3"><a xlink:href="classpanda_1_1Event.html" target="_top" xlink:title="panda::Event">
<polygon fill="white" stroke="black" points="-7.10543e-15,-0.5 -7.10543e-15,-20.5 74.919,-20.5 74.919,-0.5 -7.10543e-15,-0.5"/>
<text text-anchor="middle" x="37.4595" y="-7.5" font-family="Helvetica,sans-Serif" font-size="10.00">panda::Event</text>
</a>
</g>
</g>
<!-- Node1&#45;&gt;Node3 -->
<g id="edge2" class="edge"><title>Node1&#45;&gt;Node3</title>
<path fill="none" stroke="midnightblue" d="M67.8087,-49.4365C60.2453,-39.9823 51.136,-28.5956 44.8831,-20.7795"/>
<polygon fill="midnightblue" stroke="midnightblue" points="65.2138,-51.7956 74.1938,-57.4179 70.6799,-47.4227 65.2138,-51.7956"/>
</g>
<!-- Node4 -->
<g id="node4" class="node"><title>Node4</title>
<g id="a_node4"><a xlink:href="classpanda_1_1Run.html" target="_top" xlink:title="panda::Run">
<polygon fill="white" stroke="black" points="92.6145,-0.5 92.6145,-20.5 160.304,-20.5 160.304,-0.5 92.6145,-0.5"/>
<text text-anchor="middle" x="126.459" y="-7.5" font-family="Helvetica,sans-Serif" font-size="10.00">panda::Run</text>
</a>
</g>
</g>
<!-- Node1&#45;&gt;Node4 -->
<g id="edge3" class="edge"><title>Node1&#45;&gt;Node4</title>
<path fill="none" stroke="midnightblue" d="M95.4205,-49.4365C103.156,-39.9823 112.472,-28.5956 118.867,-20.7795"/>
<polygon fill="midnightblue" stroke="midnightblue" points="92.5139,-47.4619 88.8903,-57.4179 97.9316,-51.8946 92.5139,-47.4619"/>
</g>
<!-- Node2 -->
<g id="node2" class="node"><title>Node2</title>
<g id="a_node2"><a xlink:href="classpanda_1_1Object.html" target="_top" xlink:title="panda::Object">
<polygon fill="white" stroke="black" points="42.3355,-114.5 42.3355,-134.5 120.583,-134.5 120.583,-114.5 42.3355,-114.5"/>
<text text-anchor="middle" x="81.4595" y="-121.5" font-family="Helvetica,sans-Serif" font-size="10.00">panda::Object</text>
</a>
</g>
</g>
<!-- Node2&#45;&gt;Node1 -->
<g id="edge1" class="edge"><title>Node2&#45;&gt;Node1</title>
<path fill="none" stroke="midnightblue" d="M81.4595,-104.383C81.4595,-95.3738 81.4595,-85.0373 81.4595,-77.7795"/>
<polygon fill="midnightblue" stroke="midnightblue" points="77.9596,-104.418 81.4595,-114.418 84.9596,-104.418 77.9596,-104.418"/>
</g>
</g>
</svg>
