<?xml version="1.0" encoding="UTF-8" standalone="no"?>
<!DOCTYPE svg PUBLIC "-//W3C//DTD SVG 1.1//EN"
 "http://www.w3.org/Graphics/SVG/1.1/DTD/svg11.dtd">
<!-- Generated by graphviz version 2.38.0 (20140413.2041)
 -->
<!-- Title: panda::RecoMet::operator= Pages: 1 -->
<svg width="461pt" height="29pt"
 viewBox="0.00 0.00 461.18 29.00" xmlns="http://www.w3.org/2000/svg" xmlns:xlink="http://www.w3.org/1999/xlink">
<g id="graph0" class="graph" transform="scale(1 1) rotate(0) translate(4 25)">
<title>panda::RecoMet::operator=</title>
<polygon fill="white" stroke="none" points="-4,4 -4,-25 457.18,-25 457.18,4 -4,4"/>
<!-- Node1 -->
<g id="node1" class="node"><title>Node1</title>
<polygon fill="#bfbfbf" stroke="black" points="0,-0.5 0,-20.5 137.986,-20.5 137.986,-0.5 0,-0.5"/>
<text text-anchor="middle" x="68.993" y="-7.5" font-family="Helvetica,sans-Serif" font-size="10.00">panda::RecoMet::operator=</text>
</g>
<!-- Node2 -->
<g id="node2" class="node"><title>Node2</title>
<g id="a_node2"><a xlink:href="classpanda_1_1Met.html#a75a8d56e25e884dfd9bdeff20b3d0b61" target="_top" xlink:title="panda::Met::operator=">
<polygon fill="white" stroke="black" points="173.986,-0.5 173.986,-20.5 288.635,-20.5 288.635,-0.5 173.986,-0.5"/>
<text text-anchor="middle" x="231.31" y="-7.5" font-family="Helvetica,sans-Serif" font-size="10.00">panda::Met::operator=</text>
</a>
</g>
</g>
<!-- Node1&#45;&gt;Node2 -->
<g id="edge1" class="edge"><title>Node1&#45;&gt;Node2</title>
<path fill="none" stroke="midnightblue" d="M138.447,-10.5C146.797,-10.5 155.319,-10.5 163.642,-10.5"/>
<polygon fill="midnightblue" stroke="midnightblue" points="163.671,-14.0001 173.67,-10.5 163.67,-7.0001 163.671,-14.0001"/>
</g>
<!-- Node3 -->
<g id="node3" class="node"><title>Node3</title>
<g id="a_node3"><a xlink:href="classpanda_1_1Singlet.html#a161b3df14c430fd7f1afdd64d098b211" target="_top" xlink:title="panda::Singlet::operator=">
<polygon fill="white" stroke="black" points="324.635,-0.5 324.635,-20.5 453.18,-20.5 453.18,-0.5 324.635,-0.5"/>
<text text-anchor="middle" x="388.907" y="-7.5" font-family="Helvetica,sans-Serif" font-size="10.00">panda::Singlet::operator=</text>
</a>
</g>
</g>
<!-- Node2&#45;&gt;Node3 -->
<g id="edge2" class="edge"><title>Node2&#45;&gt;Node3</title>
<path fill="none" stroke="midnightblue" d="M288.925,-10.5C297.231,-10.5 305.886,-10.5 314.47,-10.5"/>
<polygon fill="midnightblue" stroke="midnightblue" points="314.49,-14.0001 324.49,-10.5 314.49,-7.0001 314.49,-14.0001"/>
</g>
</g>
</svg>
