<?xml version="1.0" encoding="UTF-8" standalone="no"?>
<!DOCTYPE svg PUBLIC "-//W3C//DTD SVG 1.1//EN"
 "http://www.w3.org/Graphics/SVG/1.1/DTD/svg11.dtd">
<!-- Generated by graphviz version 2.38.0 (20140413.2041)
 -->
<!-- Title: panda::Container::copy Pages: 1 -->
<svg width="450pt" height="233pt"
 viewBox="0.00 0.00 450.32 233.00" xmlns="http://www.w3.org/2000/svg" xmlns:xlink="http://www.w3.org/1999/xlink">
<g id="graph0" class="graph" transform="scale(1 1) rotate(0) translate(4 229)">
<title>panda::Container::copy</title>
<polygon fill="white" stroke="none" points="-4,4 -4,-229 446.319,-229 446.319,4 -4,4"/>
<!-- Node1 -->
<g id="node1" class="node"><title>Node1</title>
<polygon fill="#bfbfbf" stroke="black" points="1.42109e-14,-70.5 1.42109e-14,-90.5 119.37,-90.5 119.37,-70.5 1.42109e-14,-70.5"/>
<text text-anchor="middle" x="59.685" y="-77.5" font-family="Helvetica,sans-Serif" font-size="10.00">panda::Container::copy</text>
</g>
<!-- Node2 -->
<g id="node2" class="node"><title>Node2</title>
<g id="a_node2"><a xlink:href="classpanda_1_1CollectionBase.html#a3ec014ac2da87bb755afbea0822621cc" target="_top" xlink:title="Resize the container. ">
<polygon fill="white" stroke="black" points="155.37,-90.5 155.37,-122.5 271.401,-122.5 271.401,-90.5 155.37,-90.5"/>
<text text-anchor="start" x="163.37" y="-109.5" font-family="Helvetica,sans-Serif" font-size="10.00">panda::CollectionBase</text>
<text text-anchor="middle" x="213.385" y="-97.5" font-family="Helvetica,sans-Serif" font-size="10.00">::resize</text>
</a>
</g>
</g>
<!-- Node1&#45;&gt;Node2 -->
<g id="edge1" class="edge"><title>Node1&#45;&gt;Node2</title>
<path fill="none" stroke="midnightblue" d="M119.336,-90.5523C127.726,-91.9902 136.412,-93.4789 144.954,-94.9429"/>
<polygon fill="midnightblue" stroke="midnightblue" points="144.441,-98.406 154.889,-96.6456 145.624,-91.5066 144.441,-98.406"/>
</g>
<!-- Node8 -->
<g id="node8" class="node"><title>Node8</title>
<g id="a_node8"><a xlink:href="classpanda_1_1ContainerBase.html#af338d42cdb776d8af77a2c14d3a983f5" target="_top" xlink:title="Set the name of this container. ">
<polygon fill="white" stroke="black" points="155.645,-39.5 155.645,-71.5 271.126,-71.5 271.126,-39.5 155.645,-39.5"/>
<text text-anchor="start" x="163.645" y="-58.5" font-family="Helvetica,sans-Serif" font-size="10.00">panda::ContainerBase</text>
<text text-anchor="middle" x="213.385" y="-46.5" font-family="Helvetica,sans-Serif" font-size="10.00">::setName</text>
</a>
</g>
</g>
<!-- Node1&#45;&gt;Node8 -->
<g id="edge7" class="edge"><title>Node1&#45;&gt;Node8</title>
<path fill="none" stroke="midnightblue" d="M119.771,-70.7628C128.142,-69.3832 136.8,-67.9563 145.309,-66.5541"/>
<polygon fill="midnightblue" stroke="midnightblue" points="145.905,-70.0031 155.203,-64.9236 144.767,-63.0963 145.905,-70.0031"/>
</g>
<!-- Node3 -->
<g id="node3" class="node"><title>Node3</title>
<g id="a_node3"><a xlink:href="classpanda_1_1ContainerBase.html#a14b14c940d7c8b0ce870c7df333e18a7" target="_top" xlink:title="panda::ContainerBase\l::getData">
<polygon fill="white" stroke="black" points="317.119,-192.5 317.119,-224.5 432.6,-224.5 432.6,-192.5 317.119,-192.5"/>
<text text-anchor="start" x="325.119" y="-211.5" font-family="Helvetica,sans-Serif" font-size="10.00">panda::ContainerBase</text>
<text text-anchor="middle" x="374.86" y="-199.5" font-family="Helvetica,sans-Serif" font-size="10.00">::getData</text>
</a>
</g>
</g>
<!-- Node2&#45;&gt;Node3 -->
<g id="edge2" class="edge"><title>Node2&#45;&gt;Node3</title>
<path fill="none" stroke="midnightblue" d="M230.268,-122.502C247.852,-139.5 277.662,-166.249 307.401,-183.5 310.227,-185.139 313.18,-186.707 316.203,-188.2"/>
<polygon fill="midnightblue" stroke="midnightblue" points="314.882,-191.445 325.428,-192.455 317.813,-185.089 314.882,-191.445"/>
</g>
<!-- Node4 -->
<g id="node4" class="node"><title>Node4</title>
<g id="a_node4"><a xlink:href="classpanda_1_1ContainerBase.html#a89fcae0bf801676563ab4056c6c8345a" target="_top" xlink:title="panda::ContainerBase\l::reallocate_">
<polygon fill="white" stroke="black" points="317.119,-141.5 317.119,-173.5 432.6,-173.5 432.6,-141.5 317.119,-141.5"/>
<text text-anchor="start" x="325.119" y="-160.5" font-family="Helvetica,sans-Serif" font-size="10.00">panda::ContainerBase</text>
<text text-anchor="middle" x="374.86" y="-148.5" font-family="Helvetica,sans-Serif" font-size="10.00">::reallocate_</text>
</a>
</g>
</g>
<!-- Node2&#45;&gt;Node4 -->
<g id="edge3" class="edge"><title>Node2&#45;&gt;Node4</title>
<path fill="none" stroke="midnightblue" d="M264.844,-122.637C280.411,-127.615 297.707,-133.146 313.852,-138.309"/>
<polygon fill="midnightblue" stroke="midnightblue" points="313.139,-141.756 323.73,-141.468 315.271,-135.088 313.139,-141.756"/>
</g>
<!-- Node5 -->
<g id="node5" class="node"><title>Node5</title>
<g id="a_node5"><a xlink:href="structpanda_1_1ContainerElement_1_1datastore.html#ac050bf7055f0c53b4aff4234e2de6e20" target="_top" xlink:title="Override when there are vector members. ">
<polygon fill="white" stroke="black" points="307.401,-90.5 307.401,-122.5 442.319,-122.5 442.319,-90.5 307.401,-90.5"/>
<text text-anchor="start" x="315.401" y="-109.5" font-family="Helvetica,sans-Serif" font-size="10.00">panda::ContainerElement</text>
<text text-anchor="middle" x="374.86" y="-97.5" font-family="Helvetica,sans-Serif" font-size="10.00">::datastore::resizeVectors_</text>
</a>
</g>
</g>
<!-- Node2&#45;&gt;Node5 -->
<g id="edge4" class="edge"><title>Node2&#45;&gt;Node5</title>
<path fill="none" stroke="midnightblue" d="M271.509,-106.5C279.86,-106.5 288.572,-106.5 297.234,-106.5"/>
<polygon fill="midnightblue" stroke="midnightblue" points="297.356,-110 307.356,-106.5 297.356,-103 297.356,-110"/>
</g>
<!-- Node6 -->
<g id="node6" class="node"><title>Node6</title>
<g id="a_node6"><a xlink:href="classpanda_1_1ContainerBase.html#a611d8e68bcae5de2046874b340256fb4" target="_top" xlink:title="panda::ContainerBase\l::elemAt">
<polygon fill="white" stroke="black" points="317.119,-39.5 317.119,-71.5 432.6,-71.5 432.6,-39.5 317.119,-39.5"/>
<text text-anchor="start" x="325.119" y="-58.5" font-family="Helvetica,sans-Serif" font-size="10.00">panda::ContainerBase</text>
<text text-anchor="middle" x="374.86" y="-46.5" font-family="Helvetica,sans-Serif" font-size="10.00">::elemAt</text>
</a>
</g>
</g>
<!-- Node2&#45;&gt;Node6 -->
<g id="edge5" class="edge"><title>Node2&#45;&gt;Node6</title>
<path fill="none" stroke="midnightblue" d="M264.844,-90.3633C280.411,-85.3849 297.707,-79.8537 313.852,-74.6906"/>
<polygon fill="midnightblue" stroke="midnightblue" points="315.271,-77.9115 323.73,-71.5317 313.139,-71.2442 315.271,-77.9115"/>
</g>
<!-- Node7 -->
<g id="node7" class="node"><title>Node7</title>
<g id="a_node7"><a xlink:href="classpanda_1_1Object.html#a204960e5f165a28176f9b4a42b9ea90c" target="_top" xlink:title="Reset object state. ">
<polygon fill="white" stroke="black" points="326.569,-0.5 326.569,-20.5 423.151,-20.5 423.151,-0.5 326.569,-0.5"/>
<text text-anchor="middle" x="374.86" y="-7.5" font-family="Helvetica,sans-Serif" font-size="10.00">panda::Object::init</text>
</a>
</g>
</g>
<!-- Node2&#45;&gt;Node7 -->
<g id="edge6" class="edge"><title>Node2&#45;&gt;Node7</title>
<path fill="none" stroke="midnightblue" d="M257.887,-90.4668C262.678,-87.8325 267.299,-84.8494 271.401,-81.5 292.893,-63.9534 284.888,-46.716 307.401,-30.5 310.414,-28.3301 313.664,-26.3928 317.05,-24.6635"/>
<polygon fill="midnightblue" stroke="midnightblue" points="318.558,-27.8237 326.266,-20.5551 315.707,-21.4303 318.558,-27.8237"/>
</g>
</g>
</svg>
