<?xml version="1.0" encoding="UTF-8" standalone="no"?>
<!DOCTYPE svg PUBLIC "-//W3C//DTD SVG 1.1//EN"
 "http://www.w3.org/Graphics/SVG/1.1/DTD/svg11.dtd">
<!-- Generated by graphviz version 2.38.0 (20140413.2041)
 -->
<!-- Title: panda::Event::doSetStatus_ Pages: 1 -->
<svg width="479pt" height="170pt"
 viewBox="0.00 0.00 479.24 170.00" xmlns="http://www.w3.org/2000/svg" xmlns:xlink="http://www.w3.org/1999/xlink">
<g id="graph0" class="graph" transform="scale(1 1) rotate(0) translate(4 166)">
<title>panda::Event::doSetStatus_</title>
<polygon fill="white" stroke="none" points="-4,4 -4,-166 475.24,-166 475.24,4 -4,4"/>
<!-- Node1 -->
<g id="node1" class="node"><title>Node1</title>
<polygon fill="#bfbfbf" stroke="black" points="-1.42109e-14,-70.5 -1.42109e-14,-90.5 140.506,-90.5 140.506,-70.5 -1.42109e-14,-70.5"/>
<text text-anchor="middle" x="70.253" y="-77.5" font-family="Helvetica,sans-Serif" font-size="10.00">panda::Event::doSetStatus_</text>
</g>
<!-- Node2 -->
<g id="node2" class="node"><title>Node2</title>
<g id="a_node2"><a xlink:href="namespacepanda_1_1utils.html#a01665f786d6a2acedb8f008f3fc9fc84" target="_top" xlink:title="Set status of a branch. ">
<polygon fill="white" stroke="black" points="176.506,-70.5 176.506,-90.5 290.876,-90.5 290.876,-70.5 176.506,-70.5"/>
<text text-anchor="middle" x="233.691" y="-77.5" font-family="Helvetica,sans-Serif" font-size="10.00">panda::utils::setStatus</text>
</a>
</g>
</g>
<!-- Node1&#45;&gt;Node2 -->
<g id="edge1" class="edge"><title>Node1&#45;&gt;Node2</title>
<path fill="none" stroke="midnightblue" d="M140.654,-80.5C149.16,-80.5 157.837,-80.5 166.297,-80.5"/>
<polygon fill="midnightblue" stroke="midnightblue" points="166.483,-84.0001 176.483,-80.5 166.483,-77.0001 166.483,-84.0001"/>
</g>
<!-- Node3 -->
<g id="node3" class="node"><title>Node3</title>
<g id="a_node3"><a xlink:href="classpanda_1_1utils_1_1BranchName.html#a6cc8a6df7c5b12a0221fd49773cca6a7" target="_top" xlink:title="Is the name included and not vetoed? ">
<polygon fill="white" stroke="black" points="326.876,-141.5 326.876,-161.5 471.24,-161.5 471.24,-141.5 326.876,-141.5"/>
<text text-anchor="middle" x="399.058" y="-148.5" font-family="Helvetica,sans-Serif" font-size="10.00">panda::utils::BranchName::in</text>
</a>
</g>
</g>
<!-- Node2&#45;&gt;Node3 -->
<g id="edge2" class="edge"><title>Node2&#45;&gt;Node3</title>
<path fill="none" stroke="midnightblue" d="M249.748,-90.577C267.523,-102.091 298.292,-120.843 326.876,-132.5 332.263,-134.697 337.983,-136.713 343.747,-138.543"/>
<polygon fill="midnightblue" stroke="midnightblue" points="342.855,-141.929 353.439,-141.446 344.864,-135.224 342.855,-141.929"/>
</g>
<!-- Node4 -->
<g id="node4" class="node"><title>Node4</title>
<g id="a_node4"><a xlink:href="classpanda_1_1utils_1_1BranchName.html#ae3332329bf2afae5ed8e7c35e5d77ffa" target="_top" xlink:title="Is the name included and vetoed? ">
<polygon fill="white" stroke="black" points="333.544,-90.5 333.544,-122.5 464.572,-122.5 464.572,-90.5 333.544,-90.5"/>
<text text-anchor="start" x="341.544" y="-109.5" font-family="Helvetica,sans-Serif" font-size="10.00">panda::utils::BranchName</text>
<text text-anchor="middle" x="399.058" y="-97.5" font-family="Helvetica,sans-Serif" font-size="10.00">::vetoed</text>
</a>
</g>
</g>
<!-- Node2&#45;&gt;Node4 -->
<g id="edge3" class="edge"><title>Node2&#45;&gt;Node4</title>
<path fill="none" stroke="midnightblue" d="M290.913,-89.4477C301.371,-91.1122 312.448,-92.8751 323.358,-94.6114"/>
<polygon fill="midnightblue" stroke="midnightblue" points="322.882,-98.0796 333.308,-96.1949 323.982,-91.1666 322.882,-98.0796"/>
</g>
<!-- Node5 -->
<g id="node5" class="node"><title>Node5</title>
<g id="a_node5"><a xlink:href="classpanda_1_1utils_1_1BranchName.html#a13958ff4a9d554d2c057c600b4f70412" target="_top" xlink:title="Prepend the branch name with &lt;objName.&gt;. ">
<polygon fill="white" stroke="black" points="333.544,-39.5 333.544,-71.5 464.572,-71.5 464.572,-39.5 333.544,-39.5"/>
<text text-anchor="start" x="341.544" y="-58.5" font-family="Helvetica,sans-Serif" font-size="10.00">panda::utils::BranchName</text>
<text text-anchor="middle" x="399.058" y="-46.5" font-family="Helvetica,sans-Serif" font-size="10.00">::fullName</text>
</a>
</g>
</g>
<!-- Node2&#45;&gt;Node5 -->
<g id="edge4" class="edge"><title>Node2&#45;&gt;Node5</title>
<path fill="none" stroke="midnightblue" d="M290.913,-71.8964C301.371,-70.296 312.448,-68.6008 323.358,-66.9313"/>
<polygon fill="midnightblue" stroke="midnightblue" points="323.952,-70.3812 333.308,-65.4087 322.893,-63.4618 323.952,-70.3812"/>
</g>
<!-- Node6 -->
<g id="node6" class="node"><title>Node6</title>
<g id="a_node6"><a xlink:href="namespacepanda_1_1utils.html#aafa411773a4b0ee829d99e6e5a0abdcd" target="_top" xlink:title="Check status of a branch. ">
<polygon fill="white" stroke="black" points="335.483,-0.5 335.483,-20.5 462.633,-20.5 462.633,-0.5 335.483,-0.5"/>
<text text-anchor="middle" x="399.058" y="-7.5" font-family="Helvetica,sans-Serif" font-size="10.00">panda::utils::checkStatus</text>
</a>
</g>
</g>
<!-- Node2&#45;&gt;Node6 -->
<g id="edge5" class="edge"><title>Node2&#45;&gt;Node6</title>
<path fill="none" stroke="midnightblue" d="M250.802,-70.3194C268.79,-59.3008 299.039,-41.7947 326.876,-30.5 333.11,-27.9708 339.774,-25.639 346.432,-23.5297"/>
<polygon fill="midnightblue" stroke="midnightblue" points="347.568,-26.8426 356.13,-20.6015 345.545,-20.1413 347.568,-26.8426"/>
</g>
</g>
</svg>
