<?xml version="1.0" encoding="UTF-8" standalone="no"?>
<!DOCTYPE svg PUBLIC "-//W3C//DTD SVG 1.1//EN"
 "http://www.w3.org/Graphics/SVG/1.1/DTD/svg11.dtd">
<!-- Generated by graphviz version 2.38.0 (20140413.2041)
 -->
<!-- Title: panda::MicroJet::setAddress Pages: 1 -->
<svg width="474pt" height="29pt"
 viewBox="0.00 0.00 473.67 29.00" xmlns="http://www.w3.org/2000/svg" xmlns:xlink="http://www.w3.org/1999/xlink">
<g id="graph0" class="graph" transform="scale(1 1) rotate(0) translate(4 25)">
<title>panda::MicroJet::setAddress</title>
<polygon fill="white" stroke="none" points="-4,4 -4,-25 469.669,-25 469.669,4 -4,4"/>
<!-- Node1 -->
<g id="node1" class="node"><title>Node1</title>
<polygon fill="#bfbfbf" stroke="black" points="0,-0.5 0,-20.5 142.698,-20.5 142.698,-0.5 0,-0.5"/>
<text text-anchor="middle" x="71.349" y="-7.5" font-family="Helvetica,sans-Serif" font-size="10.00">panda::MicroJet::setAddress</text>
</g>
<!-- Node2 -->
<g id="node2" class="node"><title>Node2</title>
<g id="a_node2"><a xlink:href="classpanda_1_1Jet.html#a96b6f57c39cf4e35af339a58f828a78e" target="_top" xlink:title="Set address for the branches to the variables of this object. ">
<polygon fill="white" stroke="black" points="178.698,-0.5 178.698,-20.5 296.96,-20.5 296.96,-0.5 178.698,-0.5"/>
<text text-anchor="middle" x="237.829" y="-7.5" font-family="Helvetica,sans-Serif" font-size="10.00">panda::Jet::setAddress</text>
</a>
</g>
</g>
<!-- Node1&#45;&gt;Node2 -->
<g id="edge1" class="edge"><title>Node1&#45;&gt;Node2</title>
<path fill="none" stroke="midnightblue" d="M153.104,-10.5C161.689,-10.5 170.296,-10.5 178.55,-10.5"/>
<polygon fill="midnightblue" stroke="midnightblue" points="153.058,-7.0001 143.058,-10.5 153.058,-14.0001 153.058,-7.0001"/>
</g>
<!-- Node3 -->
<g id="node3" class="node"><title>Node3</title>
<g id="a_node3"><a xlink:href="classpanda_1_1FatJet.html#a63392b9abcf86c432b0d7b34c7887cbf" target="_top" xlink:title="Set address for the branches to the variables of this object. ">
<polygon fill="white" stroke="black" points="332.96,-0.5 332.96,-20.5 465.669,-20.5 465.669,-0.5 332.96,-0.5"/>
<text text-anchor="middle" x="399.314" y="-7.5" font-family="Helvetica,sans-Serif" font-size="10.00">panda::FatJet::setAddress</text>
</a>
</g>
</g>
<!-- Node2&#45;&gt;Node3 -->
<g id="edge2" class="edge"><title>Node2&#45;&gt;Node3</title>
<path fill="none" stroke="midnightblue" d="M307.467,-10.5C315.884,-10.5 324.469,-10.5 332.838,-10.5"/>
<polygon fill="midnightblue" stroke="midnightblue" points="307.31,-7.0001 297.31,-10.5 307.31,-14.0001 307.31,-7.0001"/>
</g>
</g>
</svg>
