<?xml version="1.0" encoding="UTF-8" standalone="no"?>
<!DOCTYPE svg PUBLIC "-//W3C//DTD SVG 1.1//EN"
 "http://www.w3.org/Graphics/SVG/1.1/DTD/svg11.dtd">
<!-- Generated by graphviz version 2.38.0 (20140413.2041)
 -->
<!-- Title: panda::TreeEntry::setStatus Pages: 1 -->
<svg width="343pt" height="80pt"
 viewBox="0.00 0.00 343.32 80.00" xmlns="http://www.w3.org/2000/svg" xmlns:xlink="http://www.w3.org/1999/xlink">
<g id="graph0" class="graph" transform="scale(1 1) rotate(0) translate(4 76)">
<title>panda::TreeEntry::setStatus</title>
<polygon fill="white" stroke="none" points="-4,4 -4,-76 339.318,-76 339.318,4 -4,4"/>
<!-- Node1 -->
<g id="node1" class="node"><title>Node1</title>
<polygon fill="#bfbfbf" stroke="black" points="-1.42109e-14,-22.5 -1.42109e-14,-42.5 140.486,-42.5 140.486,-22.5 -1.42109e-14,-22.5"/>
<text text-anchor="middle" x="70.243" y="-29.5" font-family="Helvetica,sans-Serif" font-size="10.00">panda::TreeEntry::setStatus</text>
</g>
<!-- Node2 -->
<g id="node2" class="node"><title>Node2</title>
<g id="a_node2"><a xlink:href="classpanda_1_1utils_1_1BranchList.html#a215520401f32786d157a68ee92d90372" target="_top" xlink:title="Return a new list of branches that starts with the objName, removing &lt;objName.&gt; from each...">
<polygon fill="white" stroke="black" points="195.942,-39.5 195.942,-71.5 315.861,-71.5 315.861,-39.5 195.942,-39.5"/>
<text text-anchor="start" x="203.942" y="-58.5" font-family="Helvetica,sans-Serif" font-size="10.00">panda::utils::BranchList</text>
<text text-anchor="middle" x="255.902" y="-46.5" font-family="Helvetica,sans-Serif" font-size="10.00">::subList</text>
</a>
</g>
</g>
<!-- Node1&#45;&gt;Node2 -->
<g id="edge1" class="edge"><title>Node1&#45;&gt;Node2</title>
<path fill="none" stroke="midnightblue" d="M140.677,-41.1953C155.45,-43.0454 171.047,-44.9987 185.808,-46.8472"/>
<polygon fill="midnightblue" stroke="midnightblue" points="185.516,-50.3379 195.873,-48.1077 186.386,-43.3921 185.516,-50.3379"/>
</g>
<!-- Node3 -->
<g id="node3" class="node"><title>Node3</title>
<g id="a_node3"><a xlink:href="classpanda_1_1TreeEntry.html#a46e449c33f281252d48c61e297654a67" target="_top" xlink:title="panda::TreeEntry::doSetStatus_">
<polygon fill="white" stroke="black" points="176.486,-0.5 176.486,-20.5 335.318,-20.5 335.318,-0.5 176.486,-0.5"/>
<text text-anchor="middle" x="255.902" y="-7.5" font-family="Helvetica,sans-Serif" font-size="10.00">panda::TreeEntry::doSetStatus_</text>
</a>
</g>
</g>
<!-- Node1&#45;&gt;Node3 -->
<g id="edge2" class="edge"><title>Node1&#45;&gt;Node3</title>
<path fill="none" stroke="midnightblue" d="M140.677,-24.1827C149.073,-23.177 157.735,-22.1394 166.359,-21.1064"/>
<polygon fill="midnightblue" stroke="midnightblue" points="166.933,-24.5626 176.446,-19.898 166.101,-17.6123 166.933,-24.5626"/>
</g>
</g>
</svg>
