<?xml version="1.0" encoding="UTF-8" standalone="no"?>
<!DOCTYPE svg PUBLIC "-//W3C//DTD SVG 1.1//EN"
 "http://www.w3.org/Graphics/SVG/1.1/DTD/svg11.dtd">
<!-- Generated by graphviz version 2.38.0 (20140413.2041)
 -->
<!-- Title: panda::Recoil::releaseTree Pages: 1 -->
<svg width="484pt" height="74pt"
 viewBox="0.00 0.00 484.20 74.00" xmlns="http://www.w3.org/2000/svg" xmlns:xlink="http://www.w3.org/1999/xlink">
<g id="graph0" class="graph" transform="scale(1 1) rotate(0) translate(4 70)">
<title>panda::Recoil::releaseTree</title>
<polygon fill="white" stroke="none" points="-4,4 -4,-70 480.2,-70 480.2,4 -4,4"/>
<!-- Node1 -->
<g id="node1" class="node"><title>Node1</title>
<polygon fill="#bfbfbf" stroke="black" points="0,-25.5 0,-45.5 136.026,-45.5 136.026,-25.5 0,-25.5"/>
<text text-anchor="middle" x="68.013" y="-32.5" font-family="Helvetica,sans-Serif" font-size="10.00">panda::Recoil::releaseTree</text>
</g>
<!-- Node2 -->
<g id="node2" class="node"><title>Node2</title>
<g id="a_node2"><a xlink:href="classpanda_1_1Object.html#aaf58438092b42a89b838ce12c6a23833" target="_top" xlink:title="Reset the branch pointer to unlink the branch from this object. ">
<polygon fill="white" stroke="black" points="172.026,-45.5 172.026,-65.5 309.172,-65.5 309.172,-45.5 172.026,-45.5"/>
<text text-anchor="middle" x="240.599" y="-52.5" font-family="Helvetica,sans-Serif" font-size="10.00">panda::Object::releaseTree</text>
</a>
</g>
</g>
<!-- Node1&#45;&gt;Node2 -->
<g id="edge1" class="edge"><title>Node1&#45;&gt;Node2</title>
<path fill="none" stroke="midnightblue" d="M136.433,-43.4045C144.709,-44.3748 153.22,-45.3727 161.636,-46.3593"/>
<polygon fill="midnightblue" stroke="midnightblue" points="161.491,-49.8663 171.83,-47.5546 162.306,-42.9139 161.491,-49.8663"/>
</g>
<!-- Node3 -->
<g id="node3" class="node"><title>Node3</title>
<g id="a_node3"><a xlink:href="namespacepanda_1_1utils.html#a82a8530e64fbdf917cf9b8659065f98b" target="_top" xlink:title="panda::utils::resetAddress">
<polygon fill="white" stroke="black" points="174.805,-6.5 174.805,-26.5 306.393,-26.5 306.393,-6.5 174.805,-6.5"/>
<text text-anchor="middle" x="240.599" y="-13.5" font-family="Helvetica,sans-Serif" font-size="10.00">panda::utils::resetAddress</text>
</a>
</g>
</g>
<!-- Node1&#45;&gt;Node3 -->
<g id="edge2" class="edge"><title>Node1&#45;&gt;Node3</title>
<path fill="none" stroke="midnightblue" d="M136.433,-27.9907C145.666,-26.9623 155.191,-25.9014 164.55,-24.8591"/>
<polygon fill="midnightblue" stroke="midnightblue" points="165.066,-28.3233 174.617,-23.7377 164.291,-21.3663 165.066,-28.3233"/>
</g>
<!-- Node4 -->
<g id="node4" class="node"><title>Node4</title>
<g id="a_node4"><a xlink:href="classpanda_1_1utils_1_1BranchName.html#a13958ff4a9d554d2c057c600b4f70412" target="_top" xlink:title="Prepend the branch name with &lt;objName.&gt;. ">
<polygon fill="white" stroke="black" points="345.172,-0.5 345.172,-32.5 476.2,-32.5 476.2,-0.5 345.172,-0.5"/>
<text text-anchor="start" x="353.172" y="-19.5" font-family="Helvetica,sans-Serif" font-size="10.00">panda::utils::BranchName</text>
<text text-anchor="middle" x="410.686" y="-7.5" font-family="Helvetica,sans-Serif" font-size="10.00">::fullName</text>
</a>
</g>
</g>
<!-- Node3&#45;&gt;Node4 -->
<g id="edge3" class="edge"><title>Node3&#45;&gt;Node4</title>
<path fill="none" stroke="midnightblue" d="M306.586,-16.5C315.88,-16.5 325.503,-16.5 334.966,-16.5"/>
<polygon fill="midnightblue" stroke="midnightblue" points="335.149,-20.0001 345.149,-16.5 335.149,-13.0001 335.149,-20.0001"/>
</g>
</g>
</svg>
