<?xml version="1.0" encoding="UTF-8" standalone="no"?>
<!DOCTYPE svg PUBLIC "-//W3C//DTD SVG 1.1//EN"
 "http://www.w3.org/Graphics/SVG/1.1/DTD/svg11.dtd">
<!-- Generated by graphviz version 2.38.0 (20140413.2041)
 -->
<!-- Title: panda::TreeEntry::getEntry Pages: 1 -->
<svg width="356pt" height="41pt"
 viewBox="0.00 0.00 356.38 41.00" xmlns="http://www.w3.org/2000/svg" xmlns:xlink="http://www.w3.org/1999/xlink">
<g id="graph0" class="graph" transform="scale(1 1) rotate(0) translate(4 37)">
<title>panda::TreeEntry::getEntry</title>
<polygon fill="white" stroke="none" points="-4,4 -4,-37 352.383,-37 352.383,4 -4,4"/>
<!-- Node1 -->
<g id="node1" class="node"><title>Node1</title>
<polygon fill="#bfbfbf" stroke="black" points="1.42109e-14,-6.5 1.42109e-14,-26.5 136.036,-26.5 136.036,-6.5 1.42109e-14,-6.5"/>
<text text-anchor="middle" x="68.018" y="-13.5" font-family="Helvetica,sans-Serif" font-size="10.00">panda::TreeEntry::getEntry</text>
</g>
<!-- Node2 -->
<g id="node2" class="node"><title>Node2</title>
<g id="a_node2"><a xlink:href="classpanda_1_1FileMerger.html#a13a672d0fef3317ce4335d6a56f4229b" target="_top" xlink:title="Run the merger. ">
<polygon fill="white" stroke="black" points="172.036,-0.5 172.036,-32.5 274.717,-32.5 274.717,-0.5 172.036,-0.5"/>
<text text-anchor="start" x="180.036" y="-19.5" font-family="Helvetica,sans-Serif" font-size="10.00">panda::FileMerger::</text>
<text text-anchor="middle" x="223.377" y="-7.5" font-family="Helvetica,sans-Serif" font-size="10.00">merge</text>
</a>
</g>
</g>
<!-- Node1&#45;&gt;Node2 -->
<g id="edge1" class="edge"><title>Node1&#45;&gt;Node2</title>
<path fill="none" stroke="midnightblue" d="M146.38,-16.5C154.999,-16.5 163.606,-16.5 171.766,-16.5"/>
<polygon fill="midnightblue" stroke="midnightblue" points="146.283,-13.0001 136.283,-16.5 146.283,-20.0001 146.283,-13.0001"/>
</g>
<!-- Node3 -->
<g id="node3" class="node"><title>Node3</title>
<g id="a_node3"><a xlink:href="padd_8cc.html#a2201d4f3fe424b79dbb580041d738741" target="_top" xlink:title="main">
<polygon fill="white" stroke="black" points="310.717,-6.5 310.717,-26.5 348.383,-26.5 348.383,-6.5 310.717,-6.5"/>
<text text-anchor="middle" x="329.55" y="-13.5" font-family="Helvetica,sans-Serif" font-size="10.00">main</text>
</a>
</g>
</g>
<!-- Node2&#45;&gt;Node3 -->
<g id="edge2" class="edge"><title>Node2&#45;&gt;Node3</title>
<path fill="none" stroke="midnightblue" d="M284.986,-16.5C294.168,-16.5 302.985,-16.5 310.257,-16.5"/>
<polygon fill="midnightblue" stroke="midnightblue" points="284.937,-13.0001 274.937,-16.5 284.937,-20.0001 284.937,-13.0001"/>
</g>
</g>
</svg>
