<?xml version="1.0" encoding="UTF-8" standalone="no"?>
<!DOCTYPE svg PUBLIC "-//W3C//DTD SVG 1.1//EN"
 "http://www.w3.org/Graphics/SVG/1.1/DTD/svg11.dtd">
<!-- Generated by graphviz version 2.38.0 (20140413.2041)
 -->
<!-- Title: panda::Particle::destructor Pages: 1 -->
<svg width="803pt" height="314pt"
 viewBox="0.00 0.00 802.71 314.00" xmlns="http://www.w3.org/2000/svg" xmlns:xlink="http://www.w3.org/1999/xlink">
<g id="graph0" class="graph" transform="scale(1 1) rotate(0) translate(4 310)">
<title>panda::Particle::destructor</title>
<polygon fill="white" stroke="none" points="-4,4 -4,-310 798.707,-310 798.707,4 -4,4"/>
<!-- Node1 -->
<g id="node1" class="node"><title>Node1</title>
<polygon fill="#bfbfbf" stroke="black" points="5.68434e-14,-117.5 5.68434e-14,-137.5 132.696,-137.5 132.696,-117.5 5.68434e-14,-117.5"/>
<text text-anchor="middle" x="66.348" y="-124.5" font-family="Helvetica,sans-Serif" font-size="10.00">panda::Particle::destructor</text>
</g>
<!-- Node2 -->
<g id="node2" class="node"><title>Node2</title>
<g id="a_node2"><a xlink:href="classpanda_1_1Lepton.html#af8bb4d531bdddbf51f479f7eb0dae175" target="_top" xlink:title="Destructor implementation. ">
<polygon fill="white" stroke="black" points="174.24,-246.5 174.24,-266.5 304.177,-266.5 304.177,-246.5 174.24,-246.5"/>
<text text-anchor="middle" x="239.209" y="-253.5" font-family="Helvetica,sans-Serif" font-size="10.00">panda::Lepton::destructor</text>
</a>
</g>
</g>
<!-- Node1&#45;&gt;Node2 -->
<g id="edge1" class="edge"><title>Node1&#45;&gt;Node2</title>
<path fill="none" stroke="midnightblue" d="M89.0802,-143.908C124.945,-170.986 195.477,-224.238 224.864,-246.425"/>
<polygon fill="midnightblue" stroke="midnightblue" points="90.8449,-140.855 80.7551,-137.622 86.627,-146.441 90.8449,-140.855"/>
</g>
<!-- Node5 -->
<g id="node5" class="node"><title>Node5</title>
<g id="a_node5"><a xlink:href="classpanda_1_1ParticleM.html#abef15d28e6e33ee92c0b318bd41af2ca" target="_top" xlink:title="Destructor implementation. ">
<polygon fill="white" stroke="black" points="168.696,-117.5 168.696,-137.5 309.721,-137.5 309.721,-117.5 168.696,-117.5"/>
<text text-anchor="middle" x="239.209" y="-124.5" font-family="Helvetica,sans-Serif" font-size="10.00">panda::ParticleM::destructor</text>
</a>
</g>
</g>
<!-- Node1&#45;&gt;Node5 -->
<g id="edge4" class="edge"><title>Node1&#45;&gt;Node5</title>
<path fill="none" stroke="midnightblue" d="M143.147,-127.5C151.602,-127.5 160.185,-127.5 168.559,-127.5"/>
<polygon fill="midnightblue" stroke="midnightblue" points="142.919,-124 132.918,-127.5 142.918,-131 142.919,-124"/>
</g>
<!-- Node14 -->
<g id="node14" class="node"><title>Node14</title>
<g id="a_node14"><a xlink:href="classpanda_1_1Photon.html#a03611f9014bd137d9aa651ac938575c7" target="_top" xlink:title="Destructor implementation. ">
<polygon fill="white" stroke="black" points="173.685,-78.5 173.685,-98.5 304.732,-98.5 304.732,-78.5 173.685,-78.5"/>
<text text-anchor="middle" x="239.209" y="-85.5" font-family="Helvetica,sans-Serif" font-size="10.00">panda::Photon::destructor</text>
</a>
</g>
</g>
<!-- Node1&#45;&gt;Node14 -->
<g id="edge13" class="edge"><title>Node1&#45;&gt;Node14</title>
<path fill="none" stroke="midnightblue" d="M121.194,-115.209C144.76,-109.83 172.058,-103.599 194.357,-98.5094"/>
<polygon fill="midnightblue" stroke="midnightblue" points="120.319,-111.819 111.349,-117.457 121.877,-118.643 120.319,-111.819"/>
</g>
<!-- Node3 -->
<g id="node3" class="node"><title>Node3</title>
<g id="a_node3"><a xlink:href="classpanda_1_1Electron.html#a9e9a34d904d5cc02ab895e73cdaf6d7f" target="_top" xlink:title="Destructor implementation. ">
<polygon fill="white" stroke="black" points="346.272,-285.5 346.272,-305.5 482.308,-305.5 482.308,-285.5 346.272,-285.5"/>
<text text-anchor="middle" x="414.29" y="-292.5" font-family="Helvetica,sans-Serif" font-size="10.00">panda::Electron::destructor</text>
</a>
</g>
</g>
<!-- Node2&#45;&gt;Node3 -->
<g id="edge2" class="edge"><title>Node2&#45;&gt;Node3</title>
<path fill="none" stroke="midnightblue" d="M294.755,-268.791C318.627,-274.17 346.279,-280.401 368.868,-285.491"/>
<polygon fill="midnightblue" stroke="midnightblue" points="295.306,-265.327 284.781,-266.543 293.767,-272.156 295.306,-265.327"/>
</g>
<!-- Node4 -->
<g id="node4" class="node"><title>Node4</title>
<g id="a_node4"><a xlink:href="classpanda_1_1Muon.html#aa982002bedb53cacab127270c53e54e8" target="_top" xlink:title="Destructor implementation. ">
<polygon fill="white" stroke="black" points="352.105,-246.5 352.105,-266.5 476.474,-266.5 476.474,-246.5 352.105,-246.5"/>
<text text-anchor="middle" x="414.29" y="-253.5" font-family="Helvetica,sans-Serif" font-size="10.00">panda::Muon::destructor</text>
</a>
</g>
</g>
<!-- Node2&#45;&gt;Node4 -->
<g id="edge3" class="edge"><title>Node2&#45;&gt;Node4</title>
<path fill="none" stroke="midnightblue" d="M314.935,-256.5C327.288,-256.5 339.969,-256.5 351.944,-256.5"/>
<polygon fill="midnightblue" stroke="midnightblue" points="314.658,-253 304.657,-256.5 314.657,-260 314.658,-253"/>
</g>
<!-- Node6 -->
<g id="node6" class="node"><title>Node6</title>
<g id="a_node6"><a xlink:href="classpanda_1_1GenJet.html#a4a10379464d97681df56ba78c59d9ec9" target="_top" xlink:title="Destructor implementation. ">
<polygon fill="white" stroke="black" points="348.491,-207.5 348.491,-227.5 480.089,-227.5 480.089,-207.5 348.491,-207.5"/>
<text text-anchor="middle" x="414.29" y="-214.5" font-family="Helvetica,sans-Serif" font-size="10.00">panda::GenJet::destructor</text>
</a>
</g>
</g>
<!-- Node5&#45;&gt;Node6 -->
<g id="edge5" class="edge"><title>Node5&#45;&gt;Node6</title>
<path fill="none" stroke="midnightblue" d="M260.354,-143.933C280.769,-159.868 313.808,-183.74 345.721,-198.5 353.242,-201.978 361.534,-204.95 369.658,-207.437"/>
<polygon fill="midnightblue" stroke="midnightblue" points="262.428,-141.111 252.418,-137.639 258.078,-146.595 262.428,-141.111"/>
</g>
<!-- Node7 -->
<g id="node7" class="node"><title>Node7</title>
<g id="a_node7"><a xlink:href="classpanda_1_1GenParticle.html#a3741159cb9918fc4a7bf714995d72469" target="_top" xlink:title="Destructor implementation. ">
<polygon fill="white" stroke="black" points="363.498,-156.5 363.498,-188.5 465.081,-188.5 465.081,-156.5 363.498,-156.5"/>
<text text-anchor="start" x="371.498" y="-175.5" font-family="Helvetica,sans-Serif" font-size="10.00">panda::GenParticle</text>
<text text-anchor="middle" x="414.29" y="-163.5" font-family="Helvetica,sans-Serif" font-size="10.00">::destructor</text>
</a>
</g>
</g>
<!-- Node5&#45;&gt;Node7 -->
<g id="edge6" class="edge"><title>Node5&#45;&gt;Node7</title>
<path fill="none" stroke="midnightblue" d="M289.041,-140.196C312.274,-146.237 340.015,-153.449 363.385,-159.525"/>
<polygon fill="midnightblue" stroke="midnightblue" points="289.61,-136.728 279.051,-137.599 287.849,-143.503 289.61,-136.728"/>
</g>
<!-- Node8 -->
<g id="node8" class="node"><title>Node8</title>
<g id="a_node8"><a xlink:href="classpanda_1_1MicroJet.html#a89f2dbacfc1c34c4f34185ea305f8797" target="_top" xlink:title="Destructor implementation. ">
<polygon fill="white" stroke="black" points="345.721,-117.5 345.721,-137.5 482.858,-137.5 482.858,-117.5 345.721,-117.5"/>
<text text-anchor="middle" x="414.29" y="-124.5" font-family="Helvetica,sans-Serif" font-size="10.00">panda::MicroJet::destructor</text>
</a>
</g>
</g>
<!-- Node5&#45;&gt;Node8 -->
<g id="edge7" class="edge"><title>Node5&#45;&gt;Node8</title>
<path fill="none" stroke="midnightblue" d="M320.363,-127.5C328.821,-127.5 337.36,-127.5 345.656,-127.5"/>
<polygon fill="midnightblue" stroke="midnightblue" points="320.108,-124 310.108,-127.5 320.108,-131 320.108,-124"/>
</g>
<!-- Node11 -->
<g id="node11" class="node"><title>Node11</title>
<g id="a_node11"><a xlink:href="classpanda_1_1Parton.html#a54783d8795081067290078d39305e21c" target="_top" xlink:title="Destructor implementation. ">
<polygon fill="white" stroke="black" points="349.881,-78.5 349.881,-98.5 478.698,-98.5 478.698,-78.5 349.881,-78.5"/>
<text text-anchor="middle" x="414.29" y="-85.5" font-family="Helvetica,sans-Serif" font-size="10.00">panda::Parton::destructor</text>
</a>
</g>
</g>
<!-- Node5&#45;&gt;Node11 -->
<g id="edge10" class="edge"><title>Node5&#45;&gt;Node11</title>
<path fill="none" stroke="midnightblue" d="M294.755,-115.209C318.627,-109.83 346.279,-103.599 368.868,-98.5094"/>
<polygon fill="midnightblue" stroke="midnightblue" points="293.767,-111.844 284.781,-117.457 295.306,-118.673 293.767,-111.844"/>
</g>
<!-- Node12 -->
<g id="node12" class="node"><title>Node12</title>
<g id="a_node12"><a xlink:href="classpanda_1_1PFCand.html#a30a87718470988f020ce75d7e990868b" target="_top" xlink:title="Destructor implementation. ">
<polygon fill="white" stroke="black" points="346.271,-39.5 346.271,-59.5 482.308,-59.5 482.308,-39.5 346.271,-39.5"/>
<text text-anchor="middle" x="414.29" y="-46.5" font-family="Helvetica,sans-Serif" font-size="10.00">panda::PFCand::destructor</text>
</a>
</g>
</g>
<!-- Node5&#45;&gt;Node12 -->
<g id="edge11" class="edge"><title>Node5&#45;&gt;Node12</title>
<path fill="none" stroke="midnightblue" d="M299.67,-113.74C303.16,-112.173 306.54,-110.433 309.721,-108.5 329.879,-96.2489 325.692,-81.9617 345.721,-69.5 352.265,-65.4284 359.68,-62.1495 367.141,-59.5198"/>
<polygon fill="midnightblue" stroke="midnightblue" points="298.233,-110.544 290.235,-117.492 300.82,-117.049 298.233,-110.544"/>
</g>
<!-- Node13 -->
<g id="node13" class="node"><title>Node13</title>
<g id="a_node13"><a xlink:href="classpanda_1_1Tau.html#a7caf1a64e1c468e27a6a88c34ab97457" target="_top" xlink:title="Destructor implementation. ">
<polygon fill="white" stroke="black" points="355.995,-0.5 355.995,-20.5 472.585,-20.5 472.585,-0.5 355.995,-0.5"/>
<text text-anchor="middle" x="414.29" y="-7.5" font-family="Helvetica,sans-Serif" font-size="10.00">panda::Tau::destructor</text>
</a>
</g>
</g>
<!-- Node5&#45;&gt;Node13 -->
<g id="edge12" class="edge"><title>Node5&#45;&gt;Node13</title>
<path fill="none" stroke="midnightblue" d="M304.193,-112.6C306.125,-111.342 307.976,-109.978 309.721,-108.5 338.859,-83.8273 316.843,-55.4767 345.721,-30.5 350.44,-26.4185 355.96,-23.1695 361.776,-20.5832"/>
<polygon fill="midnightblue" stroke="midnightblue" points="302.375,-109.605 295.276,-117.469 305.73,-115.748 302.375,-109.605"/>
</g>
<!-- Node9 -->
<g id="node9" class="node"><title>Node9</title>
<g id="a_node9"><a xlink:href="classpanda_1_1Jet.html#adbd430a93e346588348e1eebaa90c42a" target="_top" xlink:title="Destructor implementation. ">
<polygon fill="white" stroke="black" points="518.858,-117.5 518.858,-137.5 631.559,-137.5 631.559,-117.5 518.858,-117.5"/>
<text text-anchor="middle" x="575.209" y="-124.5" font-family="Helvetica,sans-Serif" font-size="10.00">panda::Jet::destructor</text>
</a>
</g>
</g>
<!-- Node8&#45;&gt;Node9 -->
<g id="edge8" class="edge"><title>Node8&#45;&gt;Node9</title>
<path fill="none" stroke="midnightblue" d="M493.171,-127.5C501.74,-127.5 510.334,-127.5 518.553,-127.5"/>
<polygon fill="midnightblue" stroke="midnightblue" points="493.146,-124 483.146,-127.5 493.146,-131 493.146,-124"/>
</g>
<!-- Node10 -->
<g id="node10" class="node"><title>Node10</title>
<g id="a_node10"><a xlink:href="classpanda_1_1FatJet.html#a421049d4b4315facb5bda39746f1a38b" target="_top" xlink:title="Destructor implementation. ">
<polygon fill="white" stroke="black" points="667.559,-117.5 667.559,-137.5 794.707,-137.5 794.707,-117.5 667.559,-117.5"/>
<text text-anchor="middle" x="731.133" y="-124.5" font-family="Helvetica,sans-Serif" font-size="10.00">panda::FatJet::destructor</text>
</a>
</g>
</g>
<!-- Node9&#45;&gt;Node10 -->
<g id="edge9" class="edge"><title>Node9&#45;&gt;Node10</title>
<path fill="none" stroke="midnightblue" d="M641.932,-127.5C650.354,-127.5 658.958,-127.5 667.332,-127.5"/>
<polygon fill="midnightblue" stroke="midnightblue" points="641.779,-124 631.779,-127.5 641.779,-131 641.779,-124"/>
</g>
</g>
</svg>
