<?xml version="1.0" encoding="UTF-8" standalone="no"?>
<!DOCTYPE svg PUBLIC "-//W3C//DTD SVG 1.1//EN"
 "http://www.w3.org/Graphics/SVG/1.1/DTD/svg11.dtd">
<!-- Generated by graphviz version 2.38.0 (20140413.2041)
 -->
<!-- Title: panda::Met::book Pages: 1 -->
<svg width="423pt" height="96pt"
 viewBox="0.00 0.00 423.10 96.00" xmlns="http://www.w3.org/2000/svg" xmlns:xlink="http://www.w3.org/1999/xlink">
<g id="graph0" class="graph" transform="scale(1 1) rotate(0) translate(4 92)">
<title>panda::Met::book</title>
<polygon fill="white" stroke="none" points="-4,4 -4,-92 419.102,-92 419.102,4 -4,4"/>
<!-- Node1 -->
<g id="node1" class="node"><title>Node1</title>
<polygon fill="#bfbfbf" stroke="black" points="0,-47.5 0,-67.5 93.255,-67.5 93.255,-47.5 0,-47.5"/>
<text text-anchor="middle" x="46.6275" y="-54.5" font-family="Helvetica,sans-Serif" font-size="10.00">panda::Met::book</text>
</g>
<!-- Node2 -->
<g id="node2" class="node"><title>Node2</title>
<g id="a_node2"><a xlink:href="classpanda_1_1Object.html#a2fcd6665633deef16e86aa4e49135dd7" target="_top" xlink:title="Book new branches to the tree corresponding to the variables of this object. ">
<polygon fill="white" stroke="black" points="129.255,-67.5 129.255,-87.5 234.738,-87.5 234.738,-67.5 129.255,-67.5"/>
<text text-anchor="middle" x="181.996" y="-74.5" font-family="Helvetica,sans-Serif" font-size="10.00">panda::Object::book</text>
</a>
</g>
</g>
<!-- Node1&#45;&gt;Node2 -->
<g id="edge1" class="edge"><title>Node1&#45;&gt;Node2</title>
<path fill="none" stroke="midnightblue" d="M93.5255,-64.3829C101.757,-65.6173 110.459,-66.9222 119.055,-68.2112"/>
<polygon fill="midnightblue" stroke="midnightblue" points="118.654,-71.6902 129.063,-69.712 119.692,-64.7676 118.654,-71.6902"/>
</g>
<!-- Node3 -->
<g id="node3" class="node"><title>Node3</title>
<g id="a_node3"><a xlink:href="namespacepanda_1_1utils.html#aaa6c7cd5892388e6ffdf713b11abf793" target="_top" xlink:title="Book the branch. ">
<polygon fill="white" stroke="black" points="134.814,-28.5 134.814,-48.5 229.178,-48.5 229.178,-28.5 134.814,-28.5"/>
<text text-anchor="middle" x="181.996" y="-35.5" font-family="Helvetica,sans-Serif" font-size="10.00">panda::utils::book</text>
</a>
</g>
</g>
<!-- Node1&#45;&gt;Node3 -->
<g id="edge2" class="edge"><title>Node1&#45;&gt;Node3</title>
<path fill="none" stroke="midnightblue" d="M93.5255,-50.9613C103.472,-49.5443 114.103,-48.0297 124.406,-46.562"/>
<polygon fill="midnightblue" stroke="midnightblue" points="125.155,-49.9908 134.561,-45.1153 124.167,-43.0607 125.155,-49.9908"/>
</g>
<!-- Node4 -->
<g id="node4" class="node"><title>Node4</title>
<g id="a_node4"><a xlink:href="classpanda_1_1utils_1_1BranchName.html#a6cc8a6df7c5b12a0221fd49773cca6a7" target="_top" xlink:title="Is the name included and not vetoed? ">
<polygon fill="white" stroke="black" points="270.738,-51.5 270.738,-71.5 415.102,-71.5 415.102,-51.5 270.738,-51.5"/>
<text text-anchor="middle" x="342.92" y="-58.5" font-family="Helvetica,sans-Serif" font-size="10.00">panda::utils::BranchName::in</text>
</a>
</g>
</g>
<!-- Node3&#45;&gt;Node4 -->
<g id="edge3" class="edge"><title>Node3&#45;&gt;Node4</title>
<path fill="none" stroke="midnightblue" d="M229.391,-45.2144C239.878,-46.7322 251.301,-48.3853 262.717,-50.0374"/>
<polygon fill="midnightblue" stroke="midnightblue" points="262.325,-53.5171 272.723,-51.4856 263.328,-46.5893 262.325,-53.5171"/>
</g>
<!-- Node5 -->
<g id="node5" class="node"><title>Node5</title>
<g id="a_node5"><a xlink:href="classpanda_1_1utils_1_1BranchName.html#a13958ff4a9d554d2c057c600b4f70412" target="_top" xlink:title="Prepend the branch name with &lt;objName.&gt;. ">
<polygon fill="white" stroke="black" points="277.406,-0.5 277.406,-32.5 408.434,-32.5 408.434,-0.5 277.406,-0.5"/>
<text text-anchor="start" x="285.406" y="-19.5" font-family="Helvetica,sans-Serif" font-size="10.00">panda::utils::BranchName</text>
<text text-anchor="middle" x="342.92" y="-7.5" font-family="Helvetica,sans-Serif" font-size="10.00">::fullName</text>
</a>
</g>
</g>
<!-- Node3&#45;&gt;Node5 -->
<g id="edge4" class="edge"><title>Node3&#45;&gt;Node5</title>
<path fill="none" stroke="midnightblue" d="M229.391,-32.0775C241.175,-30.4463 254.139,-28.6516 266.948,-26.8785"/>
<polygon fill="midnightblue" stroke="midnightblue" points="267.735,-30.303 277.161,-25.4647 266.775,-23.3691 267.735,-30.303"/>
</g>
</g>
</svg>
