<?xml version="1.0" encoding="UTF-8" standalone="no"?>
<!DOCTYPE svg PUBLIC "-//W3C//DTD SVG 1.1//EN"
 "http://www.w3.org/Graphics/SVG/1.1/DTD/svg11.dtd">
<!-- Generated by graphviz version 2.38.0 (20140413.2041)
 -->
<!-- Title: panda::Muon::operator= Pages: 1 -->
<svg width="628pt" height="41pt"
 viewBox="0.00 0.00 628.23 41.00" xmlns="http://www.w3.org/2000/svg" xmlns:xlink="http://www.w3.org/1999/xlink">
<g id="graph0" class="graph" transform="scale(1 1) rotate(0) translate(4 37)">
<title>panda::Muon::operator=</title>
<polygon fill="white" stroke="none" points="-4,4 -4,-37 624.226,-37 624.226,4 -4,4"/>
<!-- Node1 -->
<g id="node1" class="node"><title>Node1</title>
<polygon fill="#bfbfbf" stroke="black" points="2.84217e-14,-6.5 2.84217e-14,-26.5 122.988,-26.5 122.988,-6.5 2.84217e-14,-6.5"/>
<text text-anchor="middle" x="61.494" y="-13.5" font-family="Helvetica,sans-Serif" font-size="10.00">panda::Muon::operator=</text>
</g>
<!-- Node2 -->
<g id="node2" class="node"><title>Node2</title>
<g id="a_node2"><a xlink:href="classpanda_1_1Lepton.html#a24b1cd552930db2af2734d3acbb27257" target="_top" xlink:title="panda::Lepton::operator=">
<polygon fill="white" stroke="black" points="158.988,-6.5 158.988,-26.5 287.544,-26.5 287.544,-6.5 158.988,-6.5"/>
<text text-anchor="middle" x="223.266" y="-13.5" font-family="Helvetica,sans-Serif" font-size="10.00">panda::Lepton::operator=</text>
</a>
</g>
</g>
<!-- Node1&#45;&gt;Node2 -->
<g id="edge1" class="edge"><title>Node1&#45;&gt;Node2</title>
<path fill="none" stroke="midnightblue" d="M123.353,-16.5C131.628,-16.5 140.193,-16.5 148.664,-16.5"/>
<polygon fill="midnightblue" stroke="midnightblue" points="148.923,-20.0001 158.923,-16.5 148.923,-13.0001 148.923,-20.0001"/>
</g>
<!-- Node3 -->
<g id="node3" class="node"><title>Node3</title>
<g id="a_node3"><a xlink:href="classpanda_1_1Particle.html#a8c4fabfceb39b746b0e68a7389e662c4" target="_top" xlink:title="panda::Particle::operator=">
<polygon fill="white" stroke="black" points="323.544,-6.5 323.544,-26.5 454.859,-26.5 454.859,-6.5 323.544,-6.5"/>
<text text-anchor="middle" x="389.202" y="-13.5" font-family="Helvetica,sans-Serif" font-size="10.00">panda::Particle::operator=</text>
</a>
</g>
</g>
<!-- Node2&#45;&gt;Node3 -->
<g id="edge2" class="edge"><title>Node2&#45;&gt;Node3</title>
<path fill="none" stroke="midnightblue" d="M287.648,-16.5C296.067,-16.5 304.761,-16.5 313.351,-16.5"/>
<polygon fill="midnightblue" stroke="midnightblue" points="313.364,-20.0001 323.364,-16.5 313.364,-13.0001 313.364,-20.0001"/>
</g>
<!-- Node4 -->
<g id="node4" class="node"><title>Node4</title>
<g id="a_node4"><a xlink:href="classpanda_1_1ContainerElement.html#ae8ba59e4cb5d7c1d491fc87c9360f039" target="_top" xlink:title="panda::ContainerElement\l::operator=">
<polygon fill="white" stroke="black" points="490.859,-0.5 490.859,-32.5 620.226,-32.5 620.226,-0.5 490.859,-0.5"/>
<text text-anchor="start" x="498.859" y="-19.5" font-family="Helvetica,sans-Serif" font-size="10.00">panda::ContainerElement</text>
<text text-anchor="middle" x="555.543" y="-7.5" font-family="Helvetica,sans-Serif" font-size="10.00">::operator=</text>
</a>
</g>
</g>
<!-- Node3&#45;&gt;Node4 -->
<g id="edge3" class="edge"><title>Node3&#45;&gt;Node4</title>
<path fill="none" stroke="midnightblue" d="M455.153,-16.5C463.445,-16.5 471.982,-16.5 480.406,-16.5"/>
<polygon fill="midnightblue" stroke="midnightblue" points="480.6,-20.0001 490.6,-16.5 480.6,-13.0001 480.6,-20.0001"/>
</g>
</g>
</svg>
