<?xml version="1.0" encoding="UTF-8" standalone="no"?>
<!DOCTYPE svg PUBLIC "-//W3C//DTD SVG 1.1//EN"
 "http://www.w3.org/Graphics/SVG/1.1/DTD/svg11.dtd">
<!-- Generated by graphviz version 2.38.0 (20140413.2041)
 -->
<!-- Title: panda::FatJet::setStatus Pages: 1 -->
<svg width="1141pt" height="319pt"
 viewBox="0.00 0.00 1141.26 318.50" xmlns="http://www.w3.org/2000/svg" xmlns:xlink="http://www.w3.org/1999/xlink">
<g id="graph0" class="graph" transform="scale(1 1) rotate(0) translate(4 314.5)">
<title>panda::FatJet::setStatus</title>
<polygon fill="white" stroke="none" points="-4,4 -4,-314.5 1137.26,-314.5 1137.26,4 -4,4"/>
<!-- Node1 -->
<g id="node1" class="node"><title>Node1</title>
<polygon fill="#bfbfbf" stroke="black" points="-4.26326e-14,-147.5 -4.26326e-14,-167.5 124.379,-167.5 124.379,-147.5 -4.26326e-14,-147.5"/>
<text text-anchor="middle" x="62.1895" y="-154.5" font-family="Helvetica,sans-Serif" font-size="10.00">panda::FatJet::setStatus</text>
</g>
<!-- Node2 -->
<g id="node2" class="node"><title>Node2</title>
<g id="a_node2"><a xlink:href="classpanda_1_1Jet.html#afa2e8a9a09a34cddb5ce810c8b5a964a" target="_top" xlink:title="Set status of branches with names that correspond to the variables of this object. ">
<polygon fill="white" stroke="black" points="160.379,-147.5 160.379,-167.5 270.311,-167.5 270.311,-147.5 160.379,-147.5"/>
<text text-anchor="middle" x="215.345" y="-154.5" font-family="Helvetica,sans-Serif" font-size="10.00">panda::Jet::setStatus</text>
</a>
</g>
</g>
<!-- Node1&#45;&gt;Node2 -->
<g id="edge1" class="edge"><title>Node1&#45;&gt;Node2</title>
<path fill="none" stroke="midnightblue" d="M124.67,-157.5C133.038,-157.5 141.644,-157.5 150.06,-157.5"/>
<polygon fill="midnightblue" stroke="midnightblue" points="150.201,-161 160.201,-157.5 150.201,-154 150.201,-161"/>
</g>
<!-- Node7 -->
<g id="node7" class="node"><title>Node7</title>
<g id="a_node7"><a xlink:href="classpanda_1_1utils_1_1StoreManager.html#a6f30ec459d951e84a1196b7e2ffdcf49" target="_top" xlink:title="panda::utils::StoreManager\l::getName">
<polygon fill="white" stroke="black" points="816.862,-218.5 816.862,-250.5 952.897,-250.5 952.897,-218.5 816.862,-218.5"/>
<text text-anchor="start" x="824.862" y="-237.5" font-family="Helvetica,sans-Serif" font-size="10.00">panda::utils::StoreManager</text>
<text text-anchor="middle" x="884.88" y="-225.5" font-family="Helvetica,sans-Serif" font-size="10.00">::getName</text>
</a>
</g>
</g>
<!-- Node1&#45;&gt;Node7 -->
<g id="edge18" class="edge"><title>Node1&#45;&gt;Node7</title>
<path fill="none" stroke="midnightblue" d="M74.006,-167.539C111.857,-201.577 243.091,-310.5 372.495,-310.5 372.495,-310.5 372.495,-310.5 546.807,-310.5 649.657,-310.5 765.931,-276.412 831.518,-253.895"/>
<polygon fill="midnightblue" stroke="midnightblue" points="832.913,-257.115 841.209,-250.525 830.614,-250.504 832.913,-257.115"/>
</g>
<!-- Node8 -->
<g id="node8" class="node"><title>Node8</title>
<g id="a_node8"><a xlink:href="namespacepanda_1_1utils.html#a01665f786d6a2acedb8f008f3fc9fc84" target="_top" xlink:title="Set status of a branch. ">
<polygon fill="white" stroke="black" points="827.695,-70.5 827.695,-90.5 942.064,-90.5 942.064,-70.5 827.695,-70.5"/>
<text text-anchor="middle" x="884.88" y="-77.5" font-family="Helvetica,sans-Serif" font-size="10.00">panda::utils::setStatus</text>
</a>
</g>
</g>
<!-- Node1&#45;&gt;Node8 -->
<g id="edge19" class="edge"><title>Node1&#45;&gt;Node8</title>
<path fill="none" stroke="midnightblue" d="M74.006,-147.461C111.857,-113.423 243.091,-4.5 372.495,-4.5 372.495,-4.5 372.495,-4.5 546.807,-4.5 659.037,-4.5 787.251,-45.0893 848.149,-66.9425"/>
<polygon fill="midnightblue" stroke="midnightblue" points="847.085,-70.2798 857.679,-70.4078 849.477,-63.7012 847.085,-70.2798"/>
</g>
<!-- Node3 -->
<g id="node3" class="node"><title>Node3</title>
<g id="a_node3"><a xlink:href="classpanda_1_1MicroJet.html#a55b434c84ffd0e71a8d6e96c29cbe57a" target="_top" xlink:title="Set status of branches with names that correspond to the variables of this object. ">
<polygon fill="white" stroke="black" points="306.311,-147.5 306.311,-167.5 440.679,-167.5 440.679,-147.5 306.311,-147.5"/>
<text text-anchor="middle" x="373.495" y="-154.5" font-family="Helvetica,sans-Serif" font-size="10.00">panda::MicroJet::setStatus</text>
</a>
</g>
</g>
<!-- Node2&#45;&gt;Node3 -->
<g id="edge2" class="edge"><title>Node2&#45;&gt;Node3</title>
<path fill="none" stroke="midnightblue" d="M270.52,-157.5C278.814,-157.5 287.506,-157.5 296.17,-157.5"/>
<polygon fill="midnightblue" stroke="midnightblue" points="296.301,-161 306.301,-157.5 296.301,-154 296.301,-161"/>
</g>
<!-- Node2&#45;&gt;Node7 -->
<g id="edge16" class="edge"><title>Node2&#45;&gt;Node7</title>
<path fill="none" stroke="midnightblue" d="M262.515,-167.564C276.558,-170.54 292.049,-173.739 306.311,-176.5 458.658,-205.992 496.236,-220.355 650.935,-232.5 702.757,-236.569 761.261,-237.056 806.675,-236.532"/>
<polygon fill="midnightblue" stroke="midnightblue" points="806.794,-240.031 816.746,-236.397 806.7,-233.032 806.794,-240.031"/>
</g>
<!-- Node2&#45;&gt;Node8 -->
<g id="edge17" class="edge"><title>Node2&#45;&gt;Node8</title>
<path fill="none" stroke="midnightblue" d="M260.69,-147.441C275.214,-144.2 291.438,-140.637 306.311,-137.5 457.942,-105.519 496.274,-94.2391 650.935,-84.5 706.854,-80.9787 770.462,-80.0971 817.065,-80.0294"/>
<polygon fill="midnightblue" stroke="midnightblue" points="817.337,-83.5294 827.336,-80.0272 817.336,-76.5294 817.337,-83.5294"/>
</g>
<!-- Node4 -->
<g id="node4" class="node"><title>Node4</title>
<g id="a_node4"><a xlink:href="classpanda_1_1ParticleM.html#a3154bba2f00a8165994caa8ef55473bf" target="_top" xlink:title="Set status of branches with names that correspond to the variables of this object. ">
<polygon fill="white" stroke="black" points="476.679,-147.5 476.679,-167.5 614.935,-167.5 614.935,-147.5 476.679,-147.5"/>
<text text-anchor="middle" x="545.807" y="-154.5" font-family="Helvetica,sans-Serif" font-size="10.00">panda::ParticleM::setStatus</text>
</a>
</g>
</g>
<!-- Node3&#45;&gt;Node4 -->
<g id="edge3" class="edge"><title>Node3&#45;&gt;Node4</title>
<path fill="none" stroke="midnightblue" d="M440.83,-157.5C449.13,-157.5 457.681,-157.5 466.146,-157.5"/>
<polygon fill="midnightblue" stroke="midnightblue" points="466.407,-161 476.407,-157.5 466.407,-154 466.407,-161"/>
</g>
<!-- Node3&#45;&gt;Node7 -->
<g id="edge14" class="edge"><title>Node3&#45;&gt;Node7</title>
<path fill="none" stroke="midnightblue" d="M420.266,-167.539C474.926,-179.233 569.229,-198.482 650.935,-210.5 702.633,-218.104 761.138,-224.123 806.583,-228.231"/>
<polygon fill="midnightblue" stroke="midnightblue" points="806.39,-231.727 816.662,-229.13 807.012,-224.755 806.39,-231.727"/>
</g>
<!-- Node3&#45;&gt;Node8 -->
<g id="edge15" class="edge"><title>Node3&#45;&gt;Node8</title>
<path fill="none" stroke="midnightblue" d="M416.862,-147.406C470.893,-134.882 567.35,-113.696 650.935,-101.5 706.898,-93.3343 770.919,-87.8378 817.665,-84.5232"/>
<polygon fill="midnightblue" stroke="midnightblue" points="817.932,-88.0132 827.665,-83.8286 817.447,-81.03 817.932,-88.0132"/>
</g>
<!-- Node5 -->
<g id="node5" class="node"><title>Node5</title>
<g id="a_node5"><a xlink:href="classpanda_1_1Particle.html#a114feb26e7ed0b5fac53646fca93964e" target="_top" xlink:title="Set status of branches with names that correspond to the variables of this object. ">
<polygon fill="white" stroke="black" points="650.935,-147.5 650.935,-167.5 780.862,-167.5 780.862,-147.5 650.935,-147.5"/>
<text text-anchor="middle" x="715.899" y="-154.5" font-family="Helvetica,sans-Serif" font-size="10.00">panda::Particle::setStatus</text>
</a>
</g>
</g>
<!-- Node4&#45;&gt;Node5 -->
<g id="edge4" class="edge"><title>Node4&#45;&gt;Node5</title>
<path fill="none" stroke="midnightblue" d="M615.176,-157.5C623.577,-157.5 632.194,-157.5 640.676,-157.5"/>
<polygon fill="midnightblue" stroke="midnightblue" points="640.931,-161 650.931,-157.5 640.931,-154 640.931,-161"/>
</g>
<!-- Node4&#45;&gt;Node7 -->
<g id="edge12" class="edge"><title>Node4&#45;&gt;Node7</title>
<path fill="none" stroke="midnightblue" d="M590.873,-167.566C645.614,-180.071 739.937,-201.618 806.763,-216.884"/>
<polygon fill="midnightblue" stroke="midnightblue" points="806.3,-220.368 816.828,-219.183 807.859,-213.544 806.3,-220.368"/>
</g>
<!-- Node4&#45;&gt;Node8 -->
<g id="edge13" class="edge"><title>Node4&#45;&gt;Node8</title>
<path fill="none" stroke="midnightblue" d="M590.873,-147.434C652.404,-133.378 763.944,-107.898 830.232,-92.7552"/>
<polygon fill="midnightblue" stroke="midnightblue" points="831.1,-96.147 840.07,-90.5078 829.541,-89.3228 831.1,-96.147"/>
</g>
<!-- Node6 -->
<g id="node6" class="node"><title>Node6</title>
<g id="a_node6"><a xlink:href="classpanda_1_1Object.html#a282e820b1ad431db22ca4d4dd20b55e0" target="_top" xlink:title="Set status of branches with names that correspond to the variables of this object. ">
<polygon fill="white" stroke="black" points="822.135,-147.5 822.135,-167.5 947.624,-167.5 947.624,-147.5 822.135,-147.5"/>
<text text-anchor="middle" x="884.88" y="-154.5" font-family="Helvetica,sans-Serif" font-size="10.00">panda::Object::setStatus</text>
</a>
</g>
</g>
<!-- Node5&#45;&gt;Node6 -->
<g id="edge5" class="edge"><title>Node5&#45;&gt;Node6</title>
<path fill="none" stroke="midnightblue" d="M780.98,-157.5C791.051,-157.5 801.521,-157.5 811.758,-157.5"/>
<polygon fill="midnightblue" stroke="midnightblue" points="811.895,-161 821.895,-157.5 811.895,-154 811.895,-161"/>
</g>
<!-- Node5&#45;&gt;Node7 -->
<g id="edge6" class="edge"><title>Node5&#45;&gt;Node7</title>
<path fill="none" stroke="midnightblue" d="M744.211,-167.521C755.638,-171.882 768.996,-177.201 780.862,-182.5 802.399,-192.118 825.915,-203.888 845.035,-213.796"/>
<polygon fill="midnightblue" stroke="midnightblue" points="843.555,-216.972 854.04,-218.493 846.792,-210.765 843.555,-216.972"/>
</g>
<!-- Node5&#45;&gt;Node8 -->
<g id="edge7" class="edge"><title>Node5&#45;&gt;Node8</title>
<path fill="none" stroke="midnightblue" d="M744.211,-147.479C755.638,-143.118 768.996,-137.799 780.862,-132.5 806.761,-120.934 835.522,-106.256 856.058,-95.4464"/>
<polygon fill="midnightblue" stroke="midnightblue" points="857.953,-98.4031 865.152,-90.6293 854.677,-92.2174 857.953,-98.4031"/>
</g>
<!-- Node9 -->
<g id="node9" class="node"><title>Node9</title>
<g id="a_node9"><a xlink:href="classpanda_1_1utils_1_1BranchName.html#a6cc8a6df7c5b12a0221fd49773cca6a7" target="_top" xlink:title="Is the name included and not vetoed? ">
<polygon fill="white" stroke="black" points="988.897,-141.5 988.897,-161.5 1133.26,-161.5 1133.26,-141.5 988.897,-141.5"/>
<text text-anchor="middle" x="1061.08" y="-148.5" font-family="Helvetica,sans-Serif" font-size="10.00">panda::utils::BranchName::in</text>
</a>
</g>
</g>
<!-- Node8&#45;&gt;Node9 -->
<g id="edge8" class="edge"><title>Node8&#45;&gt;Node9</title>
<path fill="none" stroke="midnightblue" d="M903.658,-90.5729C923.837,-101.702 957.973,-119.619 988.897,-131.5 995.418,-134.005 1002.38,-136.349 1009.31,-138.487"/>
<polygon fill="midnightblue" stroke="midnightblue" points="1008.79,-141.984 1019.37,-141.467 1010.78,-135.272 1008.79,-141.984"/>
</g>
<!-- Node10 -->
<g id="node10" class="node"><title>Node10</title>
<g id="a_node10"><a xlink:href="classpanda_1_1utils_1_1BranchName.html#ae3332329bf2afae5ed8e7c35e5d77ffa" target="_top" xlink:title="Is the name included and vetoed? ">
<polygon fill="white" stroke="black" points="995.565,-90.5 995.565,-122.5 1126.59,-122.5 1126.59,-90.5 995.565,-90.5"/>
<text text-anchor="start" x="1003.56" y="-109.5" font-family="Helvetica,sans-Serif" font-size="10.00">panda::utils::BranchName</text>
<text text-anchor="middle" x="1061.08" y="-97.5" font-family="Helvetica,sans-Serif" font-size="10.00">::vetoed</text>
</a>
</g>
</g>
<!-- Node8&#45;&gt;Node10 -->
<g id="edge9" class="edge"><title>Node8&#45;&gt;Node10</title>
<path fill="none" stroke="midnightblue" d="M942.437,-88.9415C956.027,-90.9699 970.753,-93.1678 985.038,-95.2999"/>
<polygon fill="midnightblue" stroke="midnightblue" points="984.932,-98.8227 995.339,-96.8373 985.966,-91.8994 984.932,-98.8227"/>
</g>
<!-- Node11 -->
<g id="node11" class="node"><title>Node11</title>
<g id="a_node11"><a xlink:href="classpanda_1_1utils_1_1BranchName.html#a13958ff4a9d554d2c057c600b4f70412" target="_top" xlink:title="Prepend the branch name with &lt;objName.&gt;. ">
<polygon fill="white" stroke="black" points="995.565,-39.5 995.565,-71.5 1126.59,-71.5 1126.59,-39.5 995.565,-39.5"/>
<text text-anchor="start" x="1003.56" y="-58.5" font-family="Helvetica,sans-Serif" font-size="10.00">panda::utils::BranchName</text>
<text text-anchor="middle" x="1061.08" y="-46.5" font-family="Helvetica,sans-Serif" font-size="10.00">::fullName</text>
</a>
</g>
</g>
<!-- Node8&#45;&gt;Node11 -->
<g id="edge10" class="edge"><title>Node8&#45;&gt;Node11</title>
<path fill="none" stroke="midnightblue" d="M942.437,-72.3832C956.027,-70.4328 970.753,-68.3194 985.038,-66.2694"/>
<polygon fill="midnightblue" stroke="midnightblue" points="985.938,-69.6762 995.339,-64.791 984.943,-62.7472 985.938,-69.6762"/>
</g>
<!-- Node12 -->
<g id="node12" class="node"><title>Node12</title>
<g id="a_node12"><a xlink:href="namespacepanda_1_1utils.html#aafa411773a4b0ee829d99e6e5a0abdcd" target="_top" xlink:title="Check status of a branch. ">
<polygon fill="white" stroke="black" points="997.504,-0.5 997.504,-20.5 1124.65,-20.5 1124.65,-0.5 997.504,-0.5"/>
<text text-anchor="middle" x="1061.08" y="-7.5" font-family="Helvetica,sans-Serif" font-size="10.00">panda::utils::checkStatus</text>
</a>
</g>
</g>
<!-- Node8&#45;&gt;Node12 -->
<g id="edge11" class="edge"><title>Node8&#45;&gt;Node12</title>
<path fill="none" stroke="midnightblue" d="M903.63,-70.3521C923.783,-59.1554 957.896,-41.1784 988.897,-29.5 994.71,-27.3103 1000.88,-25.2677 1007.06,-23.3951"/>
<polygon fill="midnightblue" stroke="midnightblue" points="1008.1,-26.7378 1016.73,-20.5957 1006.15,-20.0137 1008.1,-26.7378"/>
</g>
</g>
</svg>
