<?xml version="1.0" encoding="UTF-8" standalone="no"?>
<!DOCTYPE svg PUBLIC "-//W3C//DTD SVG 1.1//EN"
 "http://www.w3.org/Graphics/SVG/1.1/DTD/svg11.dtd">
<!-- Generated by graphviz version 2.38.0 (20140413.2041)
 -->
<!-- Title: panda::Electron::~Electron Pages: 1 -->
<svg width="314pt" height="41pt"
 viewBox="0.00 0.00 314.13 41.00" xmlns="http://www.w3.org/2000/svg" xmlns:xlink="http://www.w3.org/1999/xlink">
<g id="graph0" class="graph" transform="scale(1 1) rotate(0) translate(4 37)">
<title>panda::Electron::~Electron</title>
<polygon fill="white" stroke="none" points="-4,4 -4,-37 310.131,-37 310.131,4 -4,4"/>
<!-- Node1 -->
<g id="node1" class="node"><title>Node1</title>
<polygon fill="#bfbfbf" stroke="black" points="-1.42109e-14,-6.5 -1.42109e-14,-26.5 134.096,-26.5 134.096,-6.5 -1.42109e-14,-6.5"/>
<text text-anchor="middle" x="67.048" y="-13.5" font-family="Helvetica,sans-Serif" font-size="10.00">panda::Electron::~Electron</text>
</g>
<!-- Node2 -->
<g id="node2" class="node"><title>Node2</title>
<g id="a_node2"><a xlink:href="classpanda_1_1utils_1_1StoreManager.html#a89a7b1715f9c7334b9ffdddeed298d4e" target="_top" xlink:title="panda::utils::StoreManager\l::free">
<polygon fill="white" stroke="black" points="170.096,-0.5 170.096,-32.5 306.131,-32.5 306.131,-0.5 170.096,-0.5"/>
<text text-anchor="start" x="178.096" y="-19.5" font-family="Helvetica,sans-Serif" font-size="10.00">panda::utils::StoreManager</text>
<text text-anchor="middle" x="238.113" y="-7.5" font-family="Helvetica,sans-Serif" font-size="10.00">::free</text>
</a>
</g>
</g>
<!-- Node1&#45;&gt;Node2 -->
<g id="edge1" class="edge"><title>Node1&#45;&gt;Node2</title>
<path fill="none" stroke="midnightblue" d="M134.382,-16.5C142.669,-16.5 151.2,-16.5 159.638,-16.5"/>
<polygon fill="midnightblue" stroke="midnightblue" points="159.86,-20.0001 169.86,-16.5 159.86,-13.0001 159.86,-20.0001"/>
</g>
</g>
</svg>
