<?xml version="1.0" encoding="UTF-8" standalone="no"?>
<!DOCTYPE svg PUBLIC "-//W3C//DTD SVG 1.1//EN"
 "http://www.w3.org/Graphics/SVG/1.1/DTD/svg11.dtd">
<!-- Generated by graphviz version 2.38.0 (20140413.2041)
 -->
<!-- Title: panda::PFCand::puppiNoLepP4 Pages: 1 -->
<svg width="439pt" height="86pt"
 viewBox="0.00 0.00 439.20 86.00" xmlns="http://www.w3.org/2000/svg" xmlns:xlink="http://www.w3.org/1999/xlink">
<g id="graph0" class="graph" transform="scale(1 1) rotate(0) translate(4 82)">
<title>panda::PFCand::puppiNoLepP4</title>
<polygon fill="white" stroke="none" points="-4,4 -4,-82 435.198,-82 435.198,4 -4,4"/>
<!-- Node1 -->
<g id="node1" class="node"><title>Node1</title>
<polygon fill="#bfbfbf" stroke="black" points="0,-19.5 0,-39.5 157.723,-39.5 157.723,-19.5 0,-19.5"/>
<text text-anchor="middle" x="78.8615" y="-26.5" font-family="Helvetica,sans-Serif" font-size="10.00">panda::PFCand::puppiNoLepP4</text>
</g>
<!-- Node2 -->
<g id="node2" class="node"><title>Node2</title>
<g id="a_node2"><a xlink:href="classpanda_1_1Particle.html#aab2f22a57738ea3b2d3226e72c150a99" target="_top" xlink:title="panda::Particle::p4">
<polygon fill="white" stroke="black" points="196.493,-39.5 196.493,-59.5 295.855,-59.5 295.855,-39.5 196.493,-39.5"/>
<text text-anchor="middle" x="246.174" y="-46.5" font-family="Helvetica,sans-Serif" font-size="10.00">panda::Particle::p4</text>
</a>
</g>
</g>
<!-- Node1&#45;&gt;Node2 -->
<g id="edge1" class="edge"><title>Node1&#45;&gt;Node2</title>
<path fill="none" stroke="midnightblue" d="M158.161,-38.9729C167.62,-40.1172 177.155,-41.2708 186.269,-42.3735"/>
<polygon fill="midnightblue" stroke="midnightblue" points="186.006,-45.8671 196.354,-43.5936 186.847,-38.9178 186.006,-45.8671"/>
</g>
<!-- Node4 -->
<g id="node4" class="node"><title>Node4</title>
<g id="a_node4"><a xlink:href="classpanda_1_1ParticleM.html#a3285647972bb49a26897e300f990b902" target="_top" xlink:title="panda::ParticleM::m">
<polygon fill="white" stroke="black" points="193.723,-0.5 193.723,-20.5 298.625,-20.5 298.625,-0.5 193.723,-0.5"/>
<text text-anchor="middle" x="246.174" y="-7.5" font-family="Helvetica,sans-Serif" font-size="10.00">panda::ParticleM::m</text>
</a>
</g>
</g>
<!-- Node1&#45;&gt;Node4 -->
<g id="edge4" class="edge"><title>Node1&#45;&gt;Node4</title>
<path fill="none" stroke="midnightblue" d="M158.161,-20.5008C166.704,-19.5188 175.31,-18.5297 183.612,-17.5756"/>
<polygon fill="midnightblue" stroke="midnightblue" points="184.027,-21.051 193.562,-16.4319 183.228,-14.0967 184.027,-21.051"/>
</g>
<!-- Node2&#45;&gt;Node2 -->
<g id="edge2" class="edge"><title>Node2&#45;&gt;Node2</title>
<path fill="none" stroke="midnightblue" d="M224.882,-59.7271C215.171,-68.6067 222.268,-78 246.174,-78 261.489,-78 269.905,-74.145 271.423,-69.0396"/>
<polygon fill="midnightblue" stroke="midnightblue" points="274.598,-67.5613 267.466,-59.7271 268.156,-70.2994 274.598,-67.5613"/>
</g>
<!-- Node3 -->
<g id="node3" class="node"><title>Node3</title>
<g id="a_node3"><a xlink:href="classpanda_1_1Particle.html#aa793c05fc1334ed462e18c794339eebf" target="_top" xlink:title="panda::Particle::m">
<polygon fill="white" stroke="black" points="334.625,-39.5 334.625,-59.5 431.198,-59.5 431.198,-39.5 334.625,-39.5"/>
<text text-anchor="middle" x="382.911" y="-46.5" font-family="Helvetica,sans-Serif" font-size="10.00">panda::Particle::m</text>
</a>
</g>
</g>
<!-- Node2&#45;&gt;Node3 -->
<g id="edge3" class="edge"><title>Node2&#45;&gt;Node3</title>
<path fill="none" stroke="midnightblue" d="M296.198,-49.5C305.371,-49.5 315.035,-49.5 324.436,-49.5"/>
<polygon fill="midnightblue" stroke="midnightblue" points="324.498,-53.0001 334.498,-49.5 324.498,-46.0001 324.498,-53.0001"/>
</g>
</g>
</svg>
