<?xml version="1.0" encoding="UTF-8" standalone="no"?>
<!DOCTYPE svg PUBLIC "-//W3C//DTD SVG 1.1//EN"
 "http://www.w3.org/Graphics/SVG/1.1/DTD/svg11.dtd">
<!-- Generated by graphviz version 2.38.0 (20140413.2041)
 -->
<!-- Title: panda::Run::doSetStatus_ Pages: 1 -->
<svg width="472pt" height="170pt"
 viewBox="0.00 0.00 472.01 170.00" xmlns="http://www.w3.org/2000/svg" xmlns:xlink="http://www.w3.org/1999/xlink">
<g id="graph0" class="graph" transform="scale(1 1) rotate(0) translate(4 166)">
<title>panda::Run::doSetStatus_</title>
<polygon fill="white" stroke="none" points="-4,4 -4,-166 468.011,-166 468.011,4 -4,4"/>
<!-- Node1 -->
<g id="node1" class="node"><title>Node1</title>
<polygon fill="#bfbfbf" stroke="black" points="-2.84217e-14,-70.5 -2.84217e-14,-90.5 133.277,-90.5 133.277,-70.5 -2.84217e-14,-70.5"/>
<text text-anchor="middle" x="66.6385" y="-77.5" font-family="Helvetica,sans-Serif" font-size="10.00">panda::Run::doSetStatus_</text>
</g>
<!-- Node2 -->
<g id="node2" class="node"><title>Node2</title>
<g id="a_node2"><a xlink:href="namespacepanda_1_1utils.html#a01665f786d6a2acedb8f008f3fc9fc84" target="_top" xlink:title="Set status of a branch. ">
<polygon fill="white" stroke="black" points="169.277,-70.5 169.277,-90.5 283.647,-90.5 283.647,-70.5 169.277,-70.5"/>
<text text-anchor="middle" x="226.462" y="-77.5" font-family="Helvetica,sans-Serif" font-size="10.00">panda::utils::setStatus</text>
</a>
</g>
</g>
<!-- Node1&#45;&gt;Node2 -->
<g id="edge1" class="edge"><title>Node1&#45;&gt;Node2</title>
<path fill="none" stroke="midnightblue" d="M133.655,-80.5C142.063,-80.5 150.671,-80.5 159.083,-80.5"/>
<polygon fill="midnightblue" stroke="midnightblue" points="159.222,-84.0001 169.222,-80.5 159.222,-77.0001 159.222,-84.0001"/>
</g>
<!-- Node3 -->
<g id="node3" class="node"><title>Node3</title>
<g id="a_node3"><a xlink:href="classpanda_1_1utils_1_1BranchName.html#a6cc8a6df7c5b12a0221fd49773cca6a7" target="_top" xlink:title="Is the name included and not vetoed? ">
<polygon fill="white" stroke="black" points="319.647,-141.5 319.647,-161.5 464.011,-161.5 464.011,-141.5 319.647,-141.5"/>
<text text-anchor="middle" x="391.829" y="-148.5" font-family="Helvetica,sans-Serif" font-size="10.00">panda::utils::BranchName::in</text>
</a>
</g>
</g>
<!-- Node2&#45;&gt;Node3 -->
<g id="edge2" class="edge"><title>Node2&#45;&gt;Node3</title>
<path fill="none" stroke="midnightblue" d="M242.519,-90.577C260.294,-102.091 291.063,-120.843 319.647,-132.5 325.034,-134.697 330.754,-136.713 336.518,-138.543"/>
<polygon fill="midnightblue" stroke="midnightblue" points="335.626,-141.929 346.21,-141.446 337.635,-135.224 335.626,-141.929"/>
</g>
<!-- Node4 -->
<g id="node4" class="node"><title>Node4</title>
<g id="a_node4"><a xlink:href="classpanda_1_1utils_1_1BranchName.html#ae3332329bf2afae5ed8e7c35e5d77ffa" target="_top" xlink:title="Is the name included and vetoed? ">
<polygon fill="white" stroke="black" points="326.315,-90.5 326.315,-122.5 457.343,-122.5 457.343,-90.5 326.315,-90.5"/>
<text text-anchor="start" x="334.315" y="-109.5" font-family="Helvetica,sans-Serif" font-size="10.00">panda::utils::BranchName</text>
<text text-anchor="middle" x="391.829" y="-97.5" font-family="Helvetica,sans-Serif" font-size="10.00">::vetoed</text>
</a>
</g>
</g>
<!-- Node2&#45;&gt;Node4 -->
<g id="edge3" class="edge"><title>Node2&#45;&gt;Node4</title>
<path fill="none" stroke="midnightblue" d="M283.684,-89.4477C294.142,-91.1122 305.219,-92.8751 316.129,-94.6114"/>
<polygon fill="midnightblue" stroke="midnightblue" points="315.653,-98.0796 326.079,-96.1949 316.753,-91.1666 315.653,-98.0796"/>
</g>
<!-- Node5 -->
<g id="node5" class="node"><title>Node5</title>
<g id="a_node5"><a xlink:href="classpanda_1_1utils_1_1BranchName.html#a13958ff4a9d554d2c057c600b4f70412" target="_top" xlink:title="Prepend the branch name with &lt;objName.&gt;. ">
<polygon fill="white" stroke="black" points="326.315,-39.5 326.315,-71.5 457.343,-71.5 457.343,-39.5 326.315,-39.5"/>
<text text-anchor="start" x="334.315" y="-58.5" font-family="Helvetica,sans-Serif" font-size="10.00">panda::utils::BranchName</text>
<text text-anchor="middle" x="391.829" y="-46.5" font-family="Helvetica,sans-Serif" font-size="10.00">::fullName</text>
</a>
</g>
</g>
<!-- Node2&#45;&gt;Node5 -->
<g id="edge4" class="edge"><title>Node2&#45;&gt;Node5</title>
<path fill="none" stroke="midnightblue" d="M283.684,-71.8964C294.142,-70.296 305.219,-68.6008 316.129,-66.9313"/>
<polygon fill="midnightblue" stroke="midnightblue" points="316.723,-70.3812 326.079,-65.4087 315.664,-63.4618 316.723,-70.3812"/>
</g>
<!-- Node6 -->
<g id="node6" class="node"><title>Node6</title>
<g id="a_node6"><a xlink:href="namespacepanda_1_1utils.html#aafa411773a4b0ee829d99e6e5a0abdcd" target="_top" xlink:title="Check status of a branch. ">
<polygon fill="white" stroke="black" points="328.254,-0.5 328.254,-20.5 455.404,-20.5 455.404,-0.5 328.254,-0.5"/>
<text text-anchor="middle" x="391.829" y="-7.5" font-family="Helvetica,sans-Serif" font-size="10.00">panda::utils::checkStatus</text>
</a>
</g>
</g>
<!-- Node2&#45;&gt;Node6 -->
<g id="edge5" class="edge"><title>Node2&#45;&gt;Node6</title>
<path fill="none" stroke="midnightblue" d="M243.573,-70.3194C261.561,-59.3008 291.81,-41.7947 319.647,-30.5 325.881,-27.9708 332.545,-25.639 339.203,-23.5297"/>
<polygon fill="midnightblue" stroke="midnightblue" points="340.339,-26.8426 348.901,-20.6015 338.316,-20.1413 340.339,-26.8426"/>
</g>
</g>
</svg>
