<?xml version="1.0" encoding="UTF-8" standalone="no"?>
<!DOCTYPE svg PUBLIC "-//W3C//DTD SVG 1.1//EN"
 "http://www.w3.org/Graphics/SVG/1.1/DTD/svg11.dtd">
<!-- Generated by graphviz version 2.38.0 (20140413.2041)
 -->
<!-- Title: panda::Particle::setAddress Pages: 1 -->
<!--zoomable 189 -->
<svg id="main" version="1.1" xmlns="http://www.w3.org/2000/svg" xmlns:xlink="http://www.w3.org/1999/xlink" xml:space="preserve" onload="init(evt)">
<style type="text/css"><![CDATA[
.edge:hover path { stroke: red; }
.edge:hover polygon { stroke: red; fill: red; }
]]></style>
<script type="text/javascript"><![CDATA[
var edges = document.getElementsByTagName('g');
if (edges && edges.length) {
  for (var i=0;i<edges.length;i++) {
    if (edges[i].id.substr(0,4)=='edge') {
      edges[i].setAttribute('class','edge');
    }
  }
}
]]></script>
        <defs>
                <circle id="rim" cx="0" cy="0" r="7"/>
                <circle id="rim2" cx="0" cy="0" r="3.5"/>
                <g id="zoomPlus">
                        <use xlink:href="#rim" fill="#404040">
                                <set attributeName="fill" to="#808080" begin="zoomplus.mouseover" end="zoomplus.mouseout"/>
                        </use>
                        <path d="M-4,0h8M0,-4v8" fill="none" stroke="white" stroke-width="1.5" pointer-events="none"/>
                </g>
                <g id="zoomMin">
                        <use xlink:href="#rim" fill="#404040">
                                <set attributeName="fill" to="#808080" begin="zoomminus.mouseover" end="zoomminus.mouseout"/>
                        </use>
                        <path d="M-4,0h8" fill="none" stroke="white" stroke-width="1.5" pointer-events="none"/>
                </g>
                <g id="dirArrow">
                        <path fill="none" stroke="white" stroke-width="1.5" d="M0,-3.0v7 M-2.5,-0.5L0,-3.0L2.5,-0.5"/>
                </g>
               <g id="resetDef">
                       <use xlink:href="#rim2" fill="#404040">
                               <set attributeName="fill" to="#808080" begin="reset.mouseover" end="reset.mouseout"/>
                       </use>
               </g>
        </defs>

<script type="text/javascript">
var viewWidth = 649;
var viewHeight = 189;
var sectionId = 'dynsection-23';
</script>
<script xlink:href="svgpan.js"/>
<svg id="graph" class="graph">
<g id="viewport">
<title>panda::Particle::setAddress</title>
<polygon fill="white" stroke="none" points="-4,4 -4,-185 645.026,-185 645.026,4 -4,4"/>
<!-- Node1 -->
<g id="node1" class="node"><title>Node1</title>
<polygon fill="#bfbfbf" stroke="black" points="4.26326e-14,-115.5 4.26326e-14,-135.5 138.257,-135.5 138.257,-115.5 4.26326e-14,-115.5"/>
<text text-anchor="middle" x="69.1285" y="-122.5" font-family="Helvetica,sans-Serif" font-size="10.00">panda::Particle::setAddress</text>
</g>
<!-- Node2 -->
<g id="node2" class="node"><title>Node2</title>
<g id="a_node2"><a xlink:href="classpanda_1_1Object.html#aed9f9d3b6abe518dd27957de843b36b5" target="_top" xlink:title="Set address for the branches to the variables of this object. ">
<polygon fill="white" stroke="black" points="175.365,-160.5 175.365,-180.5 309.184,-180.5 309.184,-160.5 175.365,-160.5"/>
<text text-anchor="middle" x="242.274" y="-167.5" font-family="Helvetica,sans-Serif" font-size="10.00">panda::Object::setAddress</text>
</a>
</g>
</g>
<!-- Node1&#45;&gt;Node2 -->
<g id="edge1" class="edge"><title>Node1&#45;&gt;Node2</title>
<path fill="none" stroke="midnightblue" d="M108.537,-135.599C133.53,-142.17 166.33,-150.795 193.071,-157.826"/>
<polygon fill="midnightblue" stroke="midnightblue" points="192.433,-161.277 202.994,-160.435 194.213,-154.507 192.433,-161.277"/>
</g>
<!-- Node3 -->
<g id="node3" class="node"><title>Node3</title>
<g id="a_node3"><a xlink:href="classpanda_1_1utils_1_1StoreManager.html#a6f30ec459d951e84a1196b7e2ffdcf49" target="_top" xlink:title="panda::utils::StoreManager\l::getName">
<polygon fill="white" stroke="black" points="174.257,-109.5 174.257,-141.5 310.292,-141.5 310.292,-109.5 174.257,-109.5"/>
<text text-anchor="start" x="182.257" y="-128.5" font-family="Helvetica,sans-Serif" font-size="10.00">panda::utils::StoreManager</text>
<text text-anchor="middle" x="242.274" y="-116.5" font-family="Helvetica,sans-Serif" font-size="10.00">::getName</text>
</a>
</g>
</g>
<!-- Node1&#45;&gt;Node3 -->
<g id="edge2" class="edge"><title>Node1&#45;&gt;Node3</title>
<path fill="none" stroke="midnightblue" d="M138.262,-125.5C146.771,-125.5 155.52,-125.5 164.153,-125.5"/>
<polygon fill="midnightblue" stroke="midnightblue" points="164.213,-129 174.213,-125.5 164.213,-122 164.213,-129"/>
</g>
<!-- Node4 -->
<g id="node4" class="node"><title>Node4</title>
<g id="a_node4"><a xlink:href="namespacepanda_1_1utils.html#abf9c62e588560197c2bae9932e6a6e05" target="_top" xlink:title="Set address. ">
<polygon fill="white" stroke="black" points="180.924,-70.5 180.924,-90.5 303.624,-90.5 303.624,-70.5 180.924,-70.5"/>
<text text-anchor="middle" x="242.274" y="-77.5" font-family="Helvetica,sans-Serif" font-size="10.00">panda::utils::setAddress</text>
</a>
</g>
</g>
<!-- Node1&#45;&gt;Node4 -->
<g id="edge3" class="edge"><title>Node1&#45;&gt;Node4</title>
<path fill="none" stroke="midnightblue" d="M108.537,-115.401C133.53,-108.83 166.33,-100.205 193.071,-93.1743"/>
<polygon fill="midnightblue" stroke="midnightblue" points="194.213,-96.4931 202.994,-90.5652 192.433,-89.7232 194.213,-96.4931"/>
</g>
<!-- Node5 -->
<g id="node5" class="node"><title>Node5</title>
<g id="a_node5"><a xlink:href="classpanda_1_1utils_1_1BranchName.html#a13958ff4a9d554d2c057c600b4f70412" target="_top" xlink:title="Prepend the branch name with &lt;objName.&gt;. ">
<polygon fill="white" stroke="black" points="503.33,-129.5 503.33,-161.5 634.358,-161.5 634.358,-129.5 503.33,-129.5"/>
<text text-anchor="start" x="511.33" y="-148.5" font-family="Helvetica,sans-Serif" font-size="10.00">panda::utils::BranchName</text>
<text text-anchor="middle" x="568.844" y="-136.5" font-family="Helvetica,sans-Serif" font-size="10.00">::fullName</text>
</a>
</g>
</g>
<!-- Node4&#45;&gt;Node5 -->
<g id="edge4" class="edge"><title>Node4&#45;&gt;Node5</title>
<path fill="none" stroke="midnightblue" d="M284.285,-90.5095C303.129,-94.9916 325.799,-100.219 346.292,-104.5 395.034,-114.682 450.082,-124.876 493.113,-132.552"/>
<polygon fill="midnightblue" stroke="midnightblue" points="492.763,-136.044 503.221,-134.348 493.988,-129.152 492.763,-136.044"/>
</g>
<!-- Node6 -->
<g id="node6" class="node"><title>Node6</title>
<g id="a_node6"><a xlink:href="namespacepanda_1_1utils.html#a01665f786d6a2acedb8f008f3fc9fc84" target="_top" xlink:title="Set status of a branch. ">
<polygon fill="white" stroke="black" points="346.292,-51.5 346.292,-71.5 460.662,-71.5 460.662,-51.5 346.292,-51.5"/>
<text text-anchor="middle" x="403.477" y="-58.5" font-family="Helvetica,sans-Serif" font-size="10.00">panda::utils::setStatus</text>
</a>
</g>
</g>
<!-- Node4&#45;&gt;Node6 -->
<g id="edge5" class="edge"><title>Node4&#45;&gt;Node6</title>
<path fill="none" stroke="midnightblue" d="M303.916,-73.2627C314.438,-72.007 325.428,-70.6954 336.093,-69.4226"/>
<polygon fill="midnightblue" stroke="midnightblue" points="336.678,-72.8777 346.192,-68.2173 335.848,-65.9271 336.678,-72.8777"/>
</g>
<!-- Node7 -->
<g id="node7" class="node"><title>Node7</title>
<g id="a_node7"><a xlink:href="classpanda_1_1utils_1_1BranchName.html#a6cc8a6df7c5b12a0221fd49773cca6a7" target="_top" xlink:title="Is the name included and not vetoed? ">
<polygon fill="white" stroke="black" points="496.662,-90.5 496.662,-110.5 641.026,-110.5 641.026,-90.5 496.662,-90.5"/>
<text text-anchor="middle" x="568.844" y="-97.5" font-family="Helvetica,sans-Serif" font-size="10.00">panda::utils::BranchName::in</text>
</a>
</g>
</g>
<!-- Node4&#45;&gt;Node7 -->
<g id="edge10" class="edge"><title>Node4&#45;&gt;Node7</title>
<path fill="none" stroke="midnightblue" d="M303.943,-84.2384C355.437,-87.4114 429.77,-91.9919 486.433,-95.4835"/>
<polygon fill="midnightblue" stroke="midnightblue" points="486.243,-98.9783 496.44,-96.1001 486.674,-91.9916 486.243,-98.9783"/>
</g>
<!-- Node9 -->
<g id="node9" class="node"><title>Node9</title>
<g id="a_node9"><a xlink:href="namespacepanda_1_1utils.html#aafa411773a4b0ee829d99e6e5a0abdcd" target="_top" xlink:title="Check status of a branch. ">
<polygon fill="white" stroke="black" points="505.269,-0.5 505.269,-20.5 632.419,-20.5 632.419,-0.5 505.269,-0.5"/>
<text text-anchor="middle" x="568.844" y="-7.5" font-family="Helvetica,sans-Serif" font-size="10.00">panda::utils::checkStatus</text>
</a>
</g>
</g>
<!-- Node4&#45;&gt;Node9 -->
<g id="edge11" class="edge"><title>Node4&#45;&gt;Node9</title>
<path fill="none" stroke="midnightblue" d="M265.717,-70.3361C286.276,-61.4299 317.76,-48.7993 346.292,-41.5 395.163,-28.9973 451.473,-21.2015 495.095,-16.5548"/>
<polygon fill="midnightblue" stroke="midnightblue" points="495.461,-20.0357 505.048,-15.5255 494.741,-13.0728 495.461,-20.0357"/>
</g>
<!-- Node6&#45;&gt;Node5 -->
<g id="edge8" class="edge"><title>Node6&#45;&gt;Node5</title>
<path fill="none" stroke="midnightblue" d="M418.307,-71.5109C435.885,-83.9212 467.461,-105.181 496.662,-119.5 500.94,-121.598 505.433,-123.623 509.994,-125.553"/>
<polygon fill="midnightblue" stroke="midnightblue" points="508.821,-128.854 519.403,-129.376 511.456,-122.369 508.821,-128.854"/>
</g>
<!-- Node6&#45;&gt;Node7 -->
<g id="edge6" class="edge"><title>Node6&#45;&gt;Node7</title>
<path fill="none" stroke="midnightblue" d="M446.548,-71.5435C467.7,-76.593 493.528,-82.7587 515.906,-88.1009"/>
<polygon fill="midnightblue" stroke="midnightblue" points="515.376,-91.5728 525.916,-90.4906 517.002,-84.7641 515.376,-91.5728"/>
</g>
<!-- Node8 -->
<g id="node8" class="node"><title>Node8</title>
<g id="a_node8"><a xlink:href="classpanda_1_1utils_1_1BranchName.html#ae3332329bf2afae5ed8e7c35e5d77ffa" target="_top" xlink:title="Is the name included and vetoed? ">
<polygon fill="white" stroke="black" points="503.33,-39.5 503.33,-71.5 634.358,-71.5 634.358,-39.5 503.33,-39.5"/>
<text text-anchor="start" x="511.33" y="-58.5" font-family="Helvetica,sans-Serif" font-size="10.00">panda::utils::BranchName</text>
<text text-anchor="middle" x="568.844" y="-46.5" font-family="Helvetica,sans-Serif" font-size="10.00">::vetoed</text>
</a>
</g>
</g>
<!-- Node6&#45;&gt;Node8 -->
<g id="edge7" class="edge"><title>Node6&#45;&gt;Node8</title>
<path fill="none" stroke="midnightblue" d="M460.699,-59.4351C471.05,-59.055 482.008,-58.6525 492.81,-58.2558"/>
<polygon fill="midnightblue" stroke="midnightblue" points="493.229,-61.7429 503.094,-57.8781 492.972,-54.7476 493.229,-61.7429"/>
</g>
<!-- Node6&#45;&gt;Node9 -->
<g id="edge9" class="edge"><title>Node6&#45;&gt;Node9</title>
<path fill="none" stroke="midnightblue" d="M431.734,-51.4496C449.994,-44.8624 474.634,-36.2532 496.662,-29.5 503.64,-27.3607 511.044,-25.2311 518.337,-23.2131"/>
<polygon fill="midnightblue" stroke="midnightblue" points="519.433,-26.5424 528.163,-20.5402 517.595,-19.7878 519.433,-26.5424"/>
</g>
</g>
</svg>
        <g id="navigator" transform="translate(0 0)" fill="#404254">
                <rect fill="#f2f5e9" fill-opacity="0.5" stroke="#606060" stroke-width=".5" x="0" y="0" width="60" height="60"/>
                <use id="zoomplus" xlink:href="#zoomPlus" x="17" y="9" onmousedown="handleZoom(evt,'in')"/>
                <use id="zoomminus" xlink:href="#zoomMin" x="42" y="9" onmousedown="handleZoom(evt,'out')"/>
                <use id="reset" xlink:href="#resetDef" x="30" y="36" onmousedown="handleReset()"/>
                <g id="arrowUp" xlink:href="#dirArrow" transform="translate(30 24)" onmousedown="handlePan(0,-1)">
                  <use xlink:href="#rim" fill="#404040">
                        <set attributeName="fill" to="#808080" begin="arrowUp.mouseover" end="arrowUp.mouseout"/>
                  </use>
                  <path fill="none" stroke="white" stroke-width="1.5" d="M0,-3.0v7 M-2.5,-0.5L0,-3.0L2.5,-0.5"/>
                </g>
                <g id="arrowRight" xlink:href="#dirArrow" transform="rotate(90) translate(36 -43)" onmousedown="handlePan(1,0)">
                  <use xlink:href="#rim" fill="#404040">
                        <set attributeName="fill" to="#808080" begin="arrowRight.mouseover" end="arrowRight.mouseout"/>
                  </use>
                  <path fill="none" stroke="white" stroke-width="1.5" d="M0,-3.0v7 M-2.5,-0.5L0,-3.0L2.5,-0.5"/>
                </g>
                <g id="arrowDown" xlink:href="#dirArrow" transform="rotate(180) translate(-30 -48)" onmousedown="handlePan(0,1)">
                  <use xlink:href="#rim" fill="#404040">
                        <set attributeName="fill" to="#808080" begin="arrowDown.mouseover" end="arrowDown.mouseout"/>
                  </use>
                  <path fill="none" stroke="white" stroke-width="1.5" d="M0,-3.0v7 M-2.5,-0.5L0,-3.0L2.5,-0.5"/>
                </g>
                <g id="arrowLeft" xlink:href="#dirArrow" transform="rotate(270) translate(-36 17)" onmousedown="handlePan(-1,0)">
                  <use xlink:href="#rim" fill="#404040">
                        <set attributeName="fill" to="#808080" begin="arrowLeft.mouseover" end="arrowLeft.mouseout"/>
                  </use>
                  <path fill="none" stroke="white" stroke-width="1.5" d="M0,-3.0v7 M-2.5,-0.5L0,-3.0L2.5,-0.5"/>
                </g>
        </g>
        <svg viewBox="0 0 15 15" width="100%" height="30px" preserveAspectRatio="xMaxYMin meet">
         <g id="arrow_out" transform="scale(0.3 0.3)">
          <a xlink:href="classpanda_1_1Particle_a96282cfb24384c1f00c40576069a4c7e_cgraph_org.svg" target="_base">
           <rect id="button" ry="5" rx="5" y="6" x="6" height="38" width="38"
                fill="#f2f5e9" fill-opacity="0.5" stroke="#606060" stroke-width="1.0"/>
           <path id="arrow"
             d="M 11.500037,31.436501 C 11.940474,20.09759 22.043105,11.32322 32.158766,21.979434 L 37.068811,17.246167 C 37.068811,17.246167 37.088388,32 37.088388,32 L 22.160133,31.978069 C 22.160133,31.978069 26.997745,27.140456 26.997745,27.140456 C 18.528582,18.264221 13.291696,25.230495 11.500037,31.436501 z"
             style="fill:#404040;"/>
          </a>
         </g>
        </svg>
</svg>
