<?xml version="1.0" encoding="UTF-8" standalone="no"?>
<!DOCTYPE svg PUBLIC "-//W3C//DTD SVG 1.1//EN"
 "http://www.w3.org/Graphics/SVG/1.1/DTD/svg11.dtd">
<!-- Generated by graphviz version 2.38.0 (20140413.2041)
 -->
<!-- Title: panda::ParticleM::destructor Pages: 1 -->
<!--zoomable 236 -->
<svg id="main" version="1.1" xmlns="http://www.w3.org/2000/svg" xmlns:xlink="http://www.w3.org/1999/xlink" xml:space="preserve" onload="init(evt)">
<style type="text/css"><![CDATA[
.edge:hover path { stroke: red; }
.edge:hover polygon { stroke: red; fill: red; }
]]></style>
<script type="text/javascript"><![CDATA[
var edges = document.getElementsByTagName('g');
if (edges && edges.length) {
  for (var i=0;i<edges.length;i++) {
    if (edges[i].id.substr(0,4)=='edge') {
      edges[i].setAttribute('class','edge');
    }
  }
}
]]></script>
        <defs>
                <circle id="rim" cx="0" cy="0" r="7"/>
                <circle id="rim2" cx="0" cy="0" r="3.5"/>
                <g id="zoomPlus">
                        <use xlink:href="#rim" fill="#404040">
                                <set attributeName="fill" to="#808080" begin="zoomplus.mouseover" end="zoomplus.mouseout"/>
                        </use>
                        <path d="M-4,0h8M0,-4v8" fill="none" stroke="white" stroke-width="1.5" pointer-events="none"/>
                </g>
                <g id="zoomMin">
                        <use xlink:href="#rim" fill="#404040">
                                <set attributeName="fill" to="#808080" begin="zoomminus.mouseover" end="zoomminus.mouseout"/>
                        </use>
                        <path d="M-4,0h8" fill="none" stroke="white" stroke-width="1.5" pointer-events="none"/>
                </g>
                <g id="dirArrow">
                        <path fill="none" stroke="white" stroke-width="1.5" d="M0,-3.0v7 M-2.5,-0.5L0,-3.0L2.5,-0.5"/>
                </g>
               <g id="resetDef">
                       <use xlink:href="#rim2" fill="#404040">
                               <set attributeName="fill" to="#808080" begin="reset.mouseover" end="reset.mouseout"/>
                       </use>
               </g>
        </defs>

<script type="text/javascript">
var viewWidth = 634;
var viewHeight = 236;
var sectionId = 'dynsection-7';
</script>
<script xlink:href="svgpan.js"/>
<svg id="graph" class="graph">
<g id="viewport">
<title>panda::ParticleM::destructor</title>
<polygon fill="white" stroke="none" points="-4,4 -4,-232 630.011,-232 630.011,4 -4,4"/>
<!-- Node1 -->
<g id="node1" class="node"><title>Node1</title>
<polygon fill="#bfbfbf" stroke="black" points="-5.68434e-14,-97.5 -5.68434e-14,-117.5 141.025,-117.5 141.025,-97.5 -5.68434e-14,-97.5"/>
<text text-anchor="middle" x="70.5125" y="-104.5" font-family="Helvetica,sans-Serif" font-size="10.00">panda::ParticleM::destructor</text>
</g>
<!-- Node2 -->
<g id="node2" class="node"><title>Node2</title>
<g id="a_node2"><a xlink:href="classpanda_1_1GenJet.html#a4a10379464d97681df56ba78c59d9ec9" target="_top" xlink:title="Destructor implementation. ">
<polygon fill="white" stroke="black" points="179.794,-207.5 179.794,-227.5 311.392,-227.5 311.392,-207.5 179.794,-207.5"/>
<text text-anchor="middle" x="245.593" y="-214.5" font-family="Helvetica,sans-Serif" font-size="10.00">panda::GenJet::destructor</text>
</a>
</g>
</g>
<!-- Node1&#45;&gt;Node2 -->
<g id="edge1" class="edge"><title>Node1&#45;&gt;Node2</title>
<path fill="none" stroke="midnightblue" d="M87.139,-125.002C106.359,-145.496 140.904,-179.099 177.025,-198.5 183.681,-202.075 191.076,-205.033 198.462,-207.463"/>
<polygon fill="midnightblue" stroke="midnightblue" points="89.6735,-122.588 80.3271,-117.598 84.522,-127.327 89.6735,-122.588"/>
</g>
<!-- Node3 -->
<g id="node3" class="node"><title>Node3</title>
<g id="a_node3"><a xlink:href="classpanda_1_1GenParticle.html#a3741159cb9918fc4a7bf714995d72469" target="_top" xlink:title="Destructor implementation. ">
<polygon fill="white" stroke="black" points="194.802,-156.5 194.802,-188.5 296.385,-188.5 296.385,-156.5 194.802,-156.5"/>
<text text-anchor="start" x="202.802" y="-175.5" font-family="Helvetica,sans-Serif" font-size="10.00">panda::GenParticle</text>
<text text-anchor="middle" x="245.593" y="-163.5" font-family="Helvetica,sans-Serif" font-size="10.00">::destructor</text>
</a>
</g>
</g>
<!-- Node1&#45;&gt;Node3 -->
<g id="edge2" class="edge"><title>Node1&#45;&gt;Node3</title>
<path fill="none" stroke="midnightblue" d="M107.463,-121.21C127.853,-128.966 153.849,-138.82 177.025,-147.5 184.756,-150.395 192.991,-153.46 200.958,-156.413"/>
<polygon fill="midnightblue" stroke="midnightblue" points="108.532,-117.872 97.9413,-117.586 106.042,-124.414 108.532,-117.872"/>
</g>
<!-- Node4 -->
<g id="node4" class="node"><title>Node4</title>
<g id="a_node4"><a xlink:href="classpanda_1_1MicroJet.html#a89f2dbacfc1c34c4f34185ea305f8797" target="_top" xlink:title="Destructor implementation. ">
<polygon fill="white" stroke="black" points="177.025,-117.5 177.025,-137.5 314.162,-137.5 314.162,-117.5 177.025,-117.5"/>
<text text-anchor="middle" x="245.593" y="-124.5" font-family="Helvetica,sans-Serif" font-size="10.00">panda::MicroJet::destructor</text>
</a>
</g>
</g>
<!-- Node1&#45;&gt;Node4 -->
<g id="edge3" class="edge"><title>Node1&#45;&gt;Node4</title>
<path fill="none" stroke="midnightblue" d="M151.388,-116.73C159.937,-117.718 168.573,-118.716 176.96,-119.685"/>
<polygon fill="midnightblue" stroke="midnightblue" points="151.748,-113.248 141.412,-115.577 150.944,-120.202 151.748,-113.248"/>
</g>
<!-- Node7 -->
<g id="node7" class="node"><title>Node7</title>
<g id="a_node7"><a xlink:href="classpanda_1_1Parton.html#a54783d8795081067290078d39305e21c" target="_top" xlink:title="Destructor implementation. ">
<polygon fill="white" stroke="black" points="181.185,-78.5 181.185,-98.5 310.002,-98.5 310.002,-78.5 181.185,-78.5"/>
<text text-anchor="middle" x="245.593" y="-85.5" font-family="Helvetica,sans-Serif" font-size="10.00">panda::Parton::destructor</text>
</a>
</g>
</g>
<!-- Node1&#45;&gt;Node7 -->
<g id="edge6" class="edge"><title>Node1&#45;&gt;Node7</title>
<path fill="none" stroke="midnightblue" d="M151.655,-98.7023C161.545,-97.6167 171.546,-96.5188 181.139,-95.4657"/>
<polygon fill="midnightblue" stroke="midnightblue" points="150.971,-95.2564 141.412,-99.8267 151.735,-102.215 150.971,-95.2564"/>
</g>
<!-- Node8 -->
<g id="node8" class="node"><title>Node8</title>
<g id="a_node8"><a xlink:href="classpanda_1_1PFCand.html#a30a87718470988f020ce75d7e990868b" target="_top" xlink:title="Destructor implementation. ">
<polygon fill="white" stroke="black" points="177.575,-39.5 177.575,-59.5 313.612,-59.5 313.612,-39.5 177.575,-39.5"/>
<text text-anchor="middle" x="245.593" y="-46.5" font-family="Helvetica,sans-Serif" font-size="10.00">panda::PFCand::destructor</text>
</a>
</g>
</g>
<!-- Node1&#45;&gt;Node8 -->
<g id="edge7" class="edge"><title>Node1&#45;&gt;Node8</title>
<path fill="none" stroke="midnightblue" d="M107.728,-93.8709C128.007,-86.3871 153.811,-77.1086 177.025,-69.5 187.371,-66.1088 198.691,-62.6582 209.055,-59.5995"/>
<polygon fill="midnightblue" stroke="midnightblue" points="106.411,-90.6263 98.252,-97.3854 108.845,-97.1895 106.411,-90.6263"/>
</g>
<!-- Node9 -->
<g id="node9" class="node"><title>Node9</title>
<g id="a_node9"><a xlink:href="classpanda_1_1Tau.html#a7caf1a64e1c468e27a6a88c34ab97457" target="_top" xlink:title="Destructor implementation. ">
<polygon fill="white" stroke="black" points="187.298,-0.5 187.298,-20.5 303.888,-20.5 303.888,-0.5 187.298,-0.5"/>
<text text-anchor="middle" x="245.593" y="-7.5" font-family="Helvetica,sans-Serif" font-size="10.00">panda::Tau::destructor</text>
</a>
</g>
</g>
<!-- Node1&#45;&gt;Node9 -->
<g id="edge8" class="edge"><title>Node1&#45;&gt;Node9</title>
<path fill="none" stroke="midnightblue" d="M90.469,-90.524C110.639,-73.2494 144.117,-46.7673 177.025,-30.5 184.921,-26.5967 193.721,-23.3069 202.29,-20.5944"/>
<polygon fill="midnightblue" stroke="midnightblue" points="87.9227,-88.1002 82.6801,-97.307 92.5199,-93.3791 87.9227,-88.1002"/>
</g>
<!-- Node5 -->
<g id="node5" class="node"><title>Node5</title>
<g id="a_node5"><a xlink:href="classpanda_1_1Jet.html#adbd430a93e346588348e1eebaa90c42a" target="_top" xlink:title="Destructor implementation. ">
<polygon fill="white" stroke="black" points="350.162,-117.5 350.162,-137.5 462.863,-137.5 462.863,-117.5 350.162,-117.5"/>
<text text-anchor="middle" x="406.512" y="-124.5" font-family="Helvetica,sans-Serif" font-size="10.00">panda::Jet::destructor</text>
</a>
</g>
</g>
<!-- Node4&#45;&gt;Node5 -->
<g id="edge4" class="edge"><title>Node4&#45;&gt;Node5</title>
<path fill="none" stroke="midnightblue" d="M324.475,-127.5C333.044,-127.5 341.638,-127.5 349.857,-127.5"/>
<polygon fill="midnightblue" stroke="midnightblue" points="324.45,-124 314.45,-127.5 324.45,-131 324.45,-124"/>
</g>
<!-- Node6 -->
<g id="node6" class="node"><title>Node6</title>
<g id="a_node6"><a xlink:href="classpanda_1_1FatJet.html#a421049d4b4315facb5bda39746f1a38b" target="_top" xlink:title="Destructor implementation. ">
<polygon fill="white" stroke="black" points="498.863,-117.5 498.863,-137.5 626.011,-137.5 626.011,-117.5 498.863,-117.5"/>
<text text-anchor="middle" x="562.437" y="-124.5" font-family="Helvetica,sans-Serif" font-size="10.00">panda::FatJet::destructor</text>
</a>
</g>
</g>
<!-- Node5&#45;&gt;Node6 -->
<g id="edge5" class="edge"><title>Node5&#45;&gt;Node6</title>
<path fill="none" stroke="midnightblue" d="M473.236,-127.5C481.658,-127.5 490.262,-127.5 498.636,-127.5"/>
<polygon fill="midnightblue" stroke="midnightblue" points="473.083,-124 463.083,-127.5 473.083,-131 473.083,-124"/>
</g>
</g>
</svg>
        <g id="navigator" transform="translate(0 0)" fill="#404254">
                <rect fill="#f2f5e9" fill-opacity="0.5" stroke="#606060" stroke-width=".5" x="0" y="0" width="60" height="60"/>
                <use id="zoomplus" xlink:href="#zoomPlus" x="17" y="9" onmousedown="handleZoom(evt,'in')"/>
                <use id="zoomminus" xlink:href="#zoomMin" x="42" y="9" onmousedown="handleZoom(evt,'out')"/>
                <use id="reset" xlink:href="#resetDef" x="30" y="36" onmousedown="handleReset()"/>
                <g id="arrowUp" xlink:href="#dirArrow" transform="translate(30 24)" onmousedown="handlePan(0,-1)">
                  <use xlink:href="#rim" fill="#404040">
                        <set attributeName="fill" to="#808080" begin="arrowUp.mouseover" end="arrowUp.mouseout"/>
                  </use>
                  <path fill="none" stroke="white" stroke-width="1.5" d="M0,-3.0v7 M-2.5,-0.5L0,-3.0L2.5,-0.5"/>
                </g>
                <g id="arrowRight" xlink:href="#dirArrow" transform="rotate(90) translate(36 -43)" onmousedown="handlePan(1,0)">
                  <use xlink:href="#rim" fill="#404040">
                        <set attributeName="fill" to="#808080" begin="arrowRight.mouseover" end="arrowRight.mouseout"/>
                  </use>
                  <path fill="none" stroke="white" stroke-width="1.5" d="M0,-3.0v7 M-2.5,-0.5L0,-3.0L2.5,-0.5"/>
                </g>
                <g id="arrowDown" xlink:href="#dirArrow" transform="rotate(180) translate(-30 -48)" onmousedown="handlePan(0,1)">
                  <use xlink:href="#rim" fill="#404040">
                        <set attributeName="fill" to="#808080" begin="arrowDown.mouseover" end="arrowDown.mouseout"/>
                  </use>
                  <path fill="none" stroke="white" stroke-width="1.5" d="M0,-3.0v7 M-2.5,-0.5L0,-3.0L2.5,-0.5"/>
                </g>
                <g id="arrowLeft" xlink:href="#dirArrow" transform="rotate(270) translate(-36 17)" onmousedown="handlePan(-1,0)">
                  <use xlink:href="#rim" fill="#404040">
                        <set attributeName="fill" to="#808080" begin="arrowLeft.mouseover" end="arrowLeft.mouseout"/>
                  </use>
                  <path fill="none" stroke="white" stroke-width="1.5" d="M0,-3.0v7 M-2.5,-0.5L0,-3.0L2.5,-0.5"/>
                </g>
        </g>
        <svg viewBox="0 0 15 15" width="100%" height="30px" preserveAspectRatio="xMaxYMin meet">
         <g id="arrow_out" transform="scale(0.3 0.3)">
          <a xlink:href="classpanda_1_1ParticleM_abef15d28e6e33ee92c0b318bd41af2ca_icgraph_org.svg" target="_base">
           <rect id="button" ry="5" rx="5" y="6" x="6" height="38" width="38"
                fill="#f2f5e9" fill-opacity="0.5" stroke="#606060" stroke-width="1.0"/>
           <path id="arrow"
             d="M 11.500037,31.436501 C 11.940474,20.09759 22.043105,11.32322 32.158766,21.979434 L 37.068811,17.246167 C 37.068811,17.246167 37.088388,32 37.088388,32 L 22.160133,31.978069 C 22.160133,31.978069 26.997745,27.140456 26.997745,27.140456 C 18.528582,18.264221 13.291696,25.230495 11.500037,31.436501 z"
             style="fill:#404040;"/>
          </a>
         </g>
        </svg>
</svg>
