<?xml version="1.0" encoding="UTF-8" standalone="no"?>
<!DOCTYPE svg PUBLIC "-//W3C//DTD SVG 1.1//EN"
 "http://www.w3.org/Graphics/SVG/1.1/DTD/svg11.dtd">
<!-- Generated by graphviz version 2.38.0 (20140413.2041)
 -->
<!-- Title: panda::ParticleM::operator= Pages: 1 -->
<!--zoomable 482 -->
<svg id="main" version="1.1" xmlns="http://www.w3.org/2000/svg" xmlns:xlink="http://www.w3.org/1999/xlink" xml:space="preserve" onload="init(evt)">
<style type="text/css"><![CDATA[
.edge:hover path { stroke: red; }
.edge:hover polygon { stroke: red; fill: red; }
]]></style>
<script type="text/javascript"><![CDATA[
var edges = document.getElementsByTagName('g');
if (edges && edges.length) {
  for (var i=0;i<edges.length;i++) {
    if (edges[i].id.substr(0,4)=='edge') {
      edges[i].setAttribute('class','edge');
    }
  }
}
]]></script>
        <defs>
                <circle id="rim" cx="0" cy="0" r="7"/>
                <circle id="rim2" cx="0" cy="0" r="3.5"/>
                <g id="zoomPlus">
                        <use xlink:href="#rim" fill="#404040">
                                <set attributeName="fill" to="#808080" begin="zoomplus.mouseover" end="zoomplus.mouseout"/>
                        </use>
                        <path d="M-4,0h8M0,-4v8" fill="none" stroke="white" stroke-width="1.5" pointer-events="none"/>
                </g>
                <g id="zoomMin">
                        <use xlink:href="#rim" fill="#404040">
                                <set attributeName="fill" to="#808080" begin="zoomminus.mouseover" end="zoomminus.mouseout"/>
                        </use>
                        <path d="M-4,0h8" fill="none" stroke="white" stroke-width="1.5" pointer-events="none"/>
                </g>
                <g id="dirArrow">
                        <path fill="none" stroke="white" stroke-width="1.5" d="M0,-3.0v7 M-2.5,-0.5L0,-3.0L2.5,-0.5"/>
                </g>
               <g id="resetDef">
                       <use xlink:href="#rim2" fill="#404040">
                               <set attributeName="fill" to="#808080" begin="reset.mouseover" end="reset.mouseout"/>
                       </use>
               </g>
        </defs>

<script type="text/javascript">
var viewWidth = 628;
var viewHeight = 482;
var sectionId = 'dynsection-12';
</script>
<script xlink:href="svgpan.js"/>
<svg id="graph" class="graph">
<g id="viewport">
<title>panda::ParticleM::operator=</title>
<polygon fill="white" stroke="none" points="-4,4 -4,-478 624.487,-478 624.487,4 -4,4"/>
<!-- Node1 -->
<g id="node1" class="node"><title>Node1</title>
<polygon fill="#bfbfbf" stroke="black" points="1.42109e-14,-214.5 1.42109e-14,-234.5 139.644,-234.5 139.644,-214.5 1.42109e-14,-214.5"/>
<text text-anchor="middle" x="69.822" y="-221.5" font-family="Helvetica,sans-Serif" font-size="10.00">panda::ParticleM::operator=</text>
</g>
<!-- Node2 -->
<g id="node2" class="node"><title>Node2</title>
<g id="a_node2"><a xlink:href="classpanda_1_1GenJet.html#a2061e0c00ed8d4f404e70156120fd9c0" target="_top" xlink:title="panda::GenJet::GenJet">
<polygon fill="white" stroke="black" points="183.832,-453.5 183.832,-473.5 303.212,-473.5 303.212,-453.5 183.832,-453.5"/>
<text text-anchor="middle" x="243.522" y="-460.5" font-family="Helvetica,sans-Serif" font-size="10.00">panda::GenJet::GenJet</text>
</a>
</g>
</g>
<!-- Node1&#45;&gt;Node2 -->
<g id="edge1" class="edge"><title>Node1&#45;&gt;Node2</title>
<path fill="none" stroke="midnightblue" d="M74.5735,-244.475C83.7465,-287.673 111.426,-390.247 175.644,-444.5 179.885,-448.083 184.762,-450.992 189.908,-453.353"/>
<polygon fill="midnightblue" stroke="midnightblue" points="77.9931,-243.727 72.5867,-234.615 71.131,-245.11 77.9931,-243.727"/>
</g>
<!-- Node3 -->
<g id="node3" class="node"><title>Node3</title>
<g id="a_node3"><a xlink:href="classpanda_1_1GenJet.html#aeaa1c9ce79a2ac5e7d49ff5ea1e34136" target="_top" xlink:title="panda::GenJet::operator=">
<polygon fill="white" stroke="black" points="178.413,-414.5 178.413,-434.5 308.63,-434.5 308.63,-414.5 178.413,-414.5"/>
<text text-anchor="middle" x="243.522" y="-421.5" font-family="Helvetica,sans-Serif" font-size="10.00">panda::GenJet::operator=</text>
</a>
</g>
</g>
<!-- Node1&#45;&gt;Node3 -->
<g id="edge2" class="edge"><title>Node1&#45;&gt;Node3</title>
<path fill="none" stroke="midnightblue" d="M76.7023,-244.197C88.8592,-281.478 120.349,-362.467 175.644,-405.5 180.311,-409.132 185.642,-412.07 191.212,-414.447"/>
<polygon fill="midnightblue" stroke="midnightblue" points="79.9969,-243.006 73.6631,-234.513 73.3181,-245.102 79.9969,-243.006"/>
</g>
<!-- Node4 -->
<g id="node4" class="node"><title>Node4</title>
<g id="a_node4"><a xlink:href="classpanda_1_1GenParticle.html#aec80c4367bfe4e6113e0a615bc4aa570" target="_top" xlink:title="panda::GenParticle\l::GenParticle">
<polygon fill="white" stroke="black" points="192.731,-363.5 192.731,-395.5 294.313,-395.5 294.313,-363.5 192.731,-363.5"/>
<text text-anchor="start" x="200.731" y="-382.5" font-family="Helvetica,sans-Serif" font-size="10.00">panda::GenParticle</text>
<text text-anchor="middle" x="243.522" y="-370.5" font-family="Helvetica,sans-Serif" font-size="10.00">::GenParticle</text>
</a>
</g>
</g>
<!-- Node1&#45;&gt;Node4 -->
<g id="edge3" class="edge"><title>Node1&#45;&gt;Node4</title>
<path fill="none" stroke="midnightblue" d="M81.6677,-243.672C98.4255,-271.7 133.159,-323.849 175.644,-354.5 180.771,-358.199 186.509,-361.416 192.412,-364.197"/>
<polygon fill="midnightblue" stroke="midnightblue" points="84.5735,-241.707 76.5066,-234.839 78.5295,-245.239 84.5735,-241.707"/>
</g>
<!-- Node5 -->
<g id="node5" class="node"><title>Node5</title>
<g id="a_node5"><a xlink:href="classpanda_1_1GenParticle.html#a46eed568bb72468ccda95c09002ea6a5" target="_top" xlink:title="panda::GenParticle\l::operator=">
<polygon fill="white" stroke="black" points="192.731,-312.5 192.731,-344.5 294.313,-344.5 294.313,-312.5 192.731,-312.5"/>
<text text-anchor="start" x="200.731" y="-331.5" font-family="Helvetica,sans-Serif" font-size="10.00">panda::GenParticle</text>
<text text-anchor="middle" x="243.522" y="-319.5" font-family="Helvetica,sans-Serif" font-size="10.00">::operator=</text>
</a>
</g>
</g>
<!-- Node1&#45;&gt;Node5 -->
<g id="edge4" class="edge"><title>Node1&#45;&gt;Node5</title>
<path fill="none" stroke="midnightblue" d="M89.7971,-241.49C109.951,-258.866 143.304,-285.757 175.644,-303.5 181.512,-306.72 187.881,-309.693 194.277,-312.381"/>
<polygon fill="midnightblue" stroke="midnightblue" points="91.8411,-238.628 82.0092,-234.68 87.2333,-243.898 91.8411,-238.628"/>
</g>
<!-- Node6 -->
<g id="node6" class="node"><title>Node6</title>
<g id="a_node6"><a xlink:href="classpanda_1_1MicroJet.html#a9027aa20ca61362ba328071c95925888" target="_top" xlink:title="panda::MicroJet::MicroJet">
<polygon fill="white" stroke="black" points="178.293,-273.5 178.293,-293.5 308.751,-293.5 308.751,-273.5 178.293,-273.5"/>
<text text-anchor="middle" x="243.522" y="-280.5" font-family="Helvetica,sans-Serif" font-size="10.00">panda::MicroJet::MicroJet</text>
</a>
</g>
</g>
<!-- Node1&#45;&gt;Node6 -->
<g id="edge5" class="edge"><title>Node1&#45;&gt;Node6</title>
<path fill="none" stroke="midnightblue" d="M105.057,-238.436C125.406,-246.499 151.815,-256.586 175.644,-264.5 185.037,-267.62 195.274,-270.69 204.851,-273.423"/>
<polygon fill="midnightblue" stroke="midnightblue" points="106.177,-235.114 95.5922,-234.658 103.582,-241.615 106.177,-235.114"/>
</g>
<!-- Node7 -->
<g id="node7" class="node"><title>Node7</title>
<g id="a_node7"><a xlink:href="classpanda_1_1MicroJet.html#a9375dd6d13362ae323e9915b529458e8" target="_top" xlink:title="panda::MicroJet::operator=">
<polygon fill="white" stroke="black" points="175.644,-234.5 175.644,-254.5 311.4,-254.5 311.4,-234.5 175.644,-234.5"/>
<text text-anchor="middle" x="243.522" y="-241.5" font-family="Helvetica,sans-Serif" font-size="10.00">panda::MicroJet::operator=</text>
</a>
</g>
</g>
<!-- Node1&#45;&gt;Node7 -->
<g id="edge6" class="edge"><title>Node1&#45;&gt;Node7</title>
<path fill="none" stroke="midnightblue" d="M149.753,-233.694C158.397,-234.701 167.135,-235.719 175.614,-236.706"/>
<polygon fill="midnightblue" stroke="midnightblue" points="150.007,-230.2 139.67,-232.52 149.197,-237.153 150.007,-230.2"/>
</g>
<!-- Node12 -->
<g id="node12" class="node"><title>Node12</title>
<g id="a_node12"><a xlink:href="classpanda_1_1Parton.html#a95d82e4fc54a04ec13ae894134c834d5" target="_top" xlink:title="panda::Parton::Parton">
<polygon fill="white" stroke="black" points="186.612,-195.5 186.612,-215.5 300.431,-215.5 300.431,-195.5 186.612,-195.5"/>
<text text-anchor="middle" x="243.522" y="-202.5" font-family="Helvetica,sans-Serif" font-size="10.00">panda::Parton::Parton</text>
</a>
</g>
</g>
<!-- Node1&#45;&gt;Node12 -->
<g id="edge11" class="edge"><title>Node1&#45;&gt;Node12</title>
<path fill="none" stroke="midnightblue" d="M149.613,-215.781C162.09,-214.4 174.767,-212.998 186.581,-211.69"/>
<polygon fill="midnightblue" stroke="midnightblue" points="149.224,-212.303 139.67,-216.881 149.994,-219.26 149.224,-212.303"/>
</g>
<!-- Node13 -->
<g id="node13" class="node"><title>Node13</title>
<g id="a_node13"><a xlink:href="classpanda_1_1Parton.html#a0def202110cf69ff7d9213cbf9db02ec" target="_top" xlink:title="panda::Parton::operator=">
<polygon fill="white" stroke="black" points="179.804,-156.5 179.804,-176.5 307.24,-176.5 307.24,-156.5 179.804,-156.5"/>
<text text-anchor="middle" x="243.522" y="-163.5" font-family="Helvetica,sans-Serif" font-size="10.00">panda::Parton::operator=</text>
</a>
</g>
</g>
<!-- Node1&#45;&gt;Node13 -->
<g id="edge12" class="edge"><title>Node1&#45;&gt;Node13</title>
<path fill="none" stroke="midnightblue" d="M106.801,-210.881C126.948,-203.4 152.584,-194.121 175.644,-186.5 186,-183.077 197.34,-179.589 207.693,-176.505"/>
<polygon fill="midnightblue" stroke="midnightblue" points="105.533,-207.618 97.3872,-214.393 107.98,-214.177 105.533,-207.618"/>
</g>
<!-- Node14 -->
<g id="node14" class="node"><title>Node14</title>
<g id="a_node14"><a xlink:href="classpanda_1_1PFCand.html#a3ffef86621fd1e30c54ca4435f692a8d" target="_top" xlink:title="panda::PFCand::PFCand">
<polygon fill="white" stroke="black" points="179.392,-117.5 179.392,-137.5 307.651,-137.5 307.651,-117.5 179.392,-117.5"/>
<text text-anchor="middle" x="243.522" y="-124.5" font-family="Helvetica,sans-Serif" font-size="10.00">panda::PFCand::PFCand</text>
</a>
</g>
</g>
<!-- Node1&#45;&gt;Node14 -->
<g id="edge13" class="edge"><title>Node1&#45;&gt;Node14</title>
<path fill="none" stroke="midnightblue" d="M89.6436,-207.535C109.673,-190.27 142.925,-163.795 175.644,-147.5 183.563,-143.556 192.404,-140.235 200.997,-137.503"/>
<polygon fill="midnightblue" stroke="midnightblue" points="87.1225,-205.091 81.9094,-214.314 91.7366,-210.355 87.1225,-205.091"/>
</g>
<!-- Node15 -->
<g id="node15" class="node"><title>Node15</title>
<g id="a_node15"><a xlink:href="classpanda_1_1PFCand.html#ad32d7ae95ef68eb076604648684aca06" target="_top" xlink:title="panda::PFCand::operator=">
<polygon fill="white" stroke="black" points="176.194,-78.5 176.194,-98.5 310.85,-98.5 310.85,-78.5 176.194,-78.5"/>
<text text-anchor="middle" x="243.522" y="-85.5" font-family="Helvetica,sans-Serif" font-size="10.00">panda::PFCand::operator=</text>
</a>
</g>
</g>
<!-- Node1&#45;&gt;Node15 -->
<g id="edge14" class="edge"><title>Node1&#45;&gt;Node15</title>
<path fill="none" stroke="midnightblue" d="M82.6718,-205.995C100.025,-180.367 134.765,-134.316 175.644,-108.5 182.099,-104.423 189.428,-101.142 196.808,-98.5111"/>
<polygon fill="midnightblue" stroke="midnightblue" points="79.685,-204.166 77.0861,-214.437 85.5229,-208.029 79.685,-204.166"/>
</g>
<!-- Node16 -->
<g id="node16" class="node"><title>Node16</title>
<g id="a_node16"><a xlink:href="classpanda_1_1Tau.html#ae8c55cd74106fdc7513d24fa92ef1b2b" target="_top" xlink:title="panda::Tau::Tau">
<polygon fill="white" stroke="black" points="198.839,-39.5 198.839,-59.5 288.204,-59.5 288.204,-39.5 198.839,-39.5"/>
<text text-anchor="middle" x="243.522" y="-46.5" font-family="Helvetica,sans-Serif" font-size="10.00">panda::Tau::Tau</text>
</a>
</g>
</g>
<!-- Node1&#45;&gt;Node16 -->
<g id="edge15" class="edge"><title>Node1&#45;&gt;Node16</title>
<path fill="none" stroke="midnightblue" d="M78.7323,-204.988C93.0724,-172.074 126.499,-105.587 175.644,-69.5 182.482,-64.479 190.58,-60.7085 198.739,-57.8801"/>
<polygon fill="midnightblue" stroke="midnightblue" points="75.4179,-203.84 74.7513,-214.414 81.8664,-206.564 75.4179,-203.84"/>
</g>
<!-- Node17 -->
<g id="node17" class="node"><title>Node17</title>
<g id="a_node17"><a xlink:href="classpanda_1_1Tau.html#a1482f04be4fffde6b5c648ae3e7b539f" target="_top" xlink:title="panda::Tau::operator=">
<polygon fill="white" stroke="black" points="185.917,-0.5 185.917,-20.5 301.126,-20.5 301.126,-0.5 185.917,-0.5"/>
<text text-anchor="middle" x="243.522" y="-7.5" font-family="Helvetica,sans-Serif" font-size="10.00">panda::Tau::operator=</text>
</a>
</g>
</g>
<!-- Node1&#45;&gt;Node17 -->
<g id="edge16" class="edge"><title>Node1&#45;&gt;Node17</title>
<path fill="none" stroke="midnightblue" d="M76.0301,-204.545C87.3245,-165.24 117.829,-77.5404 175.644,-30.5 180.626,-26.4463 186.412,-23.2138 192.455,-20.6363"/>
<polygon fill="midnightblue" stroke="midnightblue" points="72.6316,-203.704 73.3471,-214.274 79.3797,-205.565 72.6316,-203.704"/>
</g>
<!-- Node8 -->
<g id="node8" class="node"><title>Node8</title>
<g id="a_node8"><a xlink:href="classpanda_1_1Jet.html#acf20ecedd6baf62791de5d0d8c63a996" target="_top" xlink:title="panda::Jet::Jet">
<polygon fill="white" stroke="black" points="362.266,-253.5 362.266,-273.5 443.853,-273.5 443.853,-253.5 362.266,-253.5"/>
<text text-anchor="middle" x="403.06" y="-260.5" font-family="Helvetica,sans-Serif" font-size="10.00">panda::Jet::Jet</text>
</a>
</g>
</g>
<!-- Node7&#45;&gt;Node8 -->
<g id="edge7" class="edge"><title>Node7&#45;&gt;Node8</title>
<path fill="none" stroke="midnightblue" d="M321.845,-253.826C335.704,-255.497 349.622,-257.176 361.883,-258.654"/>
<polygon fill="midnightblue" stroke="midnightblue" points="322.136,-250.335 311.789,-252.613 321.298,-257.285 322.136,-250.335"/>
</g>
<!-- Node9 -->
<g id="node9" class="node"><title>Node9</title>
<g id="a_node9"><a xlink:href="classpanda_1_1Jet.html#a06509e069beffe7d5fa12a5450254e6a" target="_top" xlink:title="panda::Jet::operator=">
<polygon fill="white" stroke="black" points="347.4,-214.5 347.4,-234.5 458.72,-234.5 458.72,-214.5 347.4,-214.5"/>
<text text-anchor="middle" x="403.06" y="-221.5" font-family="Helvetica,sans-Serif" font-size="10.00">panda::Jet::operator=</text>
</a>
</g>
</g>
<!-- Node7&#45;&gt;Node9 -->
<g id="edge8" class="edge"><title>Node7&#45;&gt;Node9</title>
<path fill="none" stroke="midnightblue" d="M321.869,-234.681C330.485,-233.587 339.124,-232.49 347.374,-231.443"/>
<polygon fill="midnightblue" stroke="midnightblue" points="321.269,-231.229 311.789,-235.96 322.15,-238.173 321.269,-231.229"/>
</g>
<!-- Node10 -->
<g id="node10" class="node"><title>Node10</title>
<g id="a_node10"><a xlink:href="classpanda_1_1FatJet.html#ab92df78ab1a2192c18c8d846966bf6d9" target="_top" xlink:title="panda::FatJet::FatJet">
<polygon fill="white" stroke="black" points="502.363,-234.5 502.363,-254.5 612.844,-254.5 612.844,-234.5 502.363,-234.5"/>
<text text-anchor="middle" x="557.603" y="-241.5" font-family="Helvetica,sans-Serif" font-size="10.00">panda::FatJet::FatJet</text>
</a>
</g>
</g>
<!-- Node9&#45;&gt;Node10 -->
<g id="edge9" class="edge"><title>Node9&#45;&gt;Node10</title>
<path fill="none" stroke="midnightblue" d="M469.116,-233.029C480.115,-234.472 491.431,-235.955 502.124,-237.357"/>
<polygon fill="midnightblue" stroke="midnightblue" points="469.502,-229.55 459.132,-231.72 468.592,-236.491 469.502,-229.55"/>
</g>
<!-- Node11 -->
<g id="node11" class="node"><title>Node11</title>
<g id="a_node11"><a xlink:href="classpanda_1_1FatJet.html#a20e4f6ca23c2a9a603c33e7f023337fe" target="_top" xlink:title="panda::FatJet::operator=">
<polygon fill="white" stroke="black" points="494.72,-195.5 494.72,-215.5 620.487,-215.5 620.487,-195.5 494.72,-195.5"/>
<text text-anchor="middle" x="557.603" y="-202.5" font-family="Helvetica,sans-Serif" font-size="10.00">panda::FatJet::operator=</text>
</a>
</g>
</g>
<!-- Node9&#45;&gt;Node11 -->
<g id="edge10" class="edge"><title>Node9&#45;&gt;Node11</title>
<path fill="none" stroke="midnightblue" d="M469.27,-216.378C477.679,-215.33 486.272,-214.26 494.627,-213.219"/>
<polygon fill="midnightblue" stroke="midnightblue" points="468.622,-212.931 459.132,-217.641 469.488,-219.878 468.622,-212.931"/>
</g>
</g>
</svg>
        <g id="navigator" transform="translate(0 0)" fill="#404254">
                <rect fill="#f2f5e9" fill-opacity="0.5" stroke="#606060" stroke-width=".5" x="0" y="0" width="60" height="60"/>
                <use id="zoomplus" xlink:href="#zoomPlus" x="17" y="9" onmousedown="handleZoom(evt,'in')"/>
                <use id="zoomminus" xlink:href="#zoomMin" x="42" y="9" onmousedown="handleZoom(evt,'out')"/>
                <use id="reset" xlink:href="#resetDef" x="30" y="36" onmousedown="handleReset()"/>
                <g id="arrowUp" xlink:href="#dirArrow" transform="translate(30 24)" onmousedown="handlePan(0,-1)">
                  <use xlink:href="#rim" fill="#404040">
                        <set attributeName="fill" to="#808080" begin="arrowUp.mouseover" end="arrowUp.mouseout"/>
                  </use>
                  <path fill="none" stroke="white" stroke-width="1.5" d="M0,-3.0v7 M-2.5,-0.5L0,-3.0L2.5,-0.5"/>
                </g>
                <g id="arrowRight" xlink:href="#dirArrow" transform="rotate(90) translate(36 -43)" onmousedown="handlePan(1,0)">
                  <use xlink:href="#rim" fill="#404040">
                        <set attributeName="fill" to="#808080" begin="arrowRight.mouseover" end="arrowRight.mouseout"/>
                  </use>
                  <path fill="none" stroke="white" stroke-width="1.5" d="M0,-3.0v7 M-2.5,-0.5L0,-3.0L2.5,-0.5"/>
                </g>
                <g id="arrowDown" xlink:href="#dirArrow" transform="rotate(180) translate(-30 -48)" onmousedown="handlePan(0,1)">
                  <use xlink:href="#rim" fill="#404040">
                        <set attributeName="fill" to="#808080" begin="arrowDown.mouseover" end="arrowDown.mouseout"/>
                  </use>
                  <path fill="none" stroke="white" stroke-width="1.5" d="M0,-3.0v7 M-2.5,-0.5L0,-3.0L2.5,-0.5"/>
                </g>
                <g id="arrowLeft" xlink:href="#dirArrow" transform="rotate(270) translate(-36 17)" onmousedown="handlePan(-1,0)">
                  <use xlink:href="#rim" fill="#404040">
                        <set attributeName="fill" to="#808080" begin="arrowLeft.mouseover" end="arrowLeft.mouseout"/>
                  </use>
                  <path fill="none" stroke="white" stroke-width="1.5" d="M0,-3.0v7 M-2.5,-0.5L0,-3.0L2.5,-0.5"/>
                </g>
        </g>
        <svg viewBox="0 0 15 15" width="100%" height="30px" preserveAspectRatio="xMaxYMin meet">
         <g id="arrow_out" transform="scale(0.3 0.3)">
          <a xlink:href="classpanda_1_1ParticleM_a37f7be4e1150b6080b47b005af730af5_icgraph_org.svg" target="_base">
           <rect id="button" ry="5" rx="5" y="6" x="6" height="38" width="38"
                fill="#f2f5e9" fill-opacity="0.5" stroke="#606060" stroke-width="1.0"/>
           <path id="arrow"
             d="M 11.500037,31.436501 C 11.940474,20.09759 22.043105,11.32322 32.158766,21.979434 L 37.068811,17.246167 C 37.068811,17.246167 37.088388,32 37.088388,32 L 22.160133,31.978069 C 22.160133,31.978069 26.997745,27.140456 26.997745,27.140456 C 18.528582,18.264221 13.291696,25.230495 11.500037,31.436501 z"
             style="fill:#404040;"/>
          </a>
         </g>
        </svg>
</svg>
