<?xml version="1.0" encoding="UTF-8" standalone="no"?>
<!DOCTYPE svg PUBLIC "-//W3C//DTD SVG 1.1//EN"
 "http://www.w3.org/Graphics/SVG/1.1/DTD/svg11.dtd">
<!-- Generated by graphviz version 2.38.0 (20140413.2041)
 -->
<!-- Title: panda::Object::init Pages: 1 -->
<!--zoomable 443 -->
<svg id="main" version="1.1" xmlns="http://www.w3.org/2000/svg" xmlns:xlink="http://www.w3.org/1999/xlink" xml:space="preserve" onload="init(evt)">
<style type="text/css"><![CDATA[
.edge:hover path { stroke: red; }
.edge:hover polygon { stroke: red; fill: red; }
]]></style>
<script type="text/javascript"><![CDATA[
var edges = document.getElementsByTagName('g');
if (edges && edges.length) {
  for (var i=0;i<edges.length;i++) {
    if (edges[i].id.substr(0,4)=='edge') {
      edges[i].setAttribute('class','edge');
    }
  }
}
]]></script>
        <defs>
                <circle id="rim" cx="0" cy="0" r="7"/>
                <circle id="rim2" cx="0" cy="0" r="3.5"/>
                <g id="zoomPlus">
                        <use xlink:href="#rim" fill="#404040">
                                <set attributeName="fill" to="#808080" begin="zoomplus.mouseover" end="zoomplus.mouseout"/>
                        </use>
                        <path d="M-4,0h8M0,-4v8" fill="none" stroke="white" stroke-width="1.5" pointer-events="none"/>
                </g>
                <g id="zoomMin">
                        <use xlink:href="#rim" fill="#404040">
                                <set attributeName="fill" to="#808080" begin="zoomminus.mouseover" end="zoomminus.mouseout"/>
                        </use>
                        <path d="M-4,0h8" fill="none" stroke="white" stroke-width="1.5" pointer-events="none"/>
                </g>
                <g id="dirArrow">
                        <path fill="none" stroke="white" stroke-width="1.5" d="M0,-3.0v7 M-2.5,-0.5L0,-3.0L2.5,-0.5"/>
                </g>
               <g id="resetDef">
                       <use xlink:href="#rim2" fill="#404040">
                               <set attributeName="fill" to="#808080" begin="reset.mouseover" end="reset.mouseout"/>
                       </use>
               </g>
        </defs>

<script type="text/javascript">
var viewWidth = 835;
var viewHeight = 443;
var sectionId = 'dynsection-2';
</script>
<script xlink:href="svgpan.js"/>
<svg id="graph" class="graph">
<g id="viewport">
<title>panda::Object::init</title>
<polygon fill="white" stroke="none" points="-4,4 -4,-439 831.285,-439 831.285,4 -4,4"/>
<!-- Node1 -->
<g id="node1" class="node"><title>Node1</title>
<polygon fill="#bfbfbf" stroke="black" points="-5.68434e-14,-234.5 -5.68434e-14,-254.5 96.582,-254.5 96.582,-234.5 -5.68434e-14,-234.5"/>
<text text-anchor="middle" x="48.291" y="-241.5" font-family="Helvetica,sans-Serif" font-size="10.00">panda::Object::init</text>
</g>
<!-- Node2 -->
<g id="node2" class="node"><title>Node2</title>
<g id="a_node2"><a xlink:href="classpanda_1_1ArrayBase.html#afd97e008dcd9f49e77a9d77bd7115890" target="_top" xlink:title="Reset object state. ">
<polygon fill="white" stroke="black" points="133.417,-414.5 133.417,-434.5 247.777,-434.5 247.777,-414.5 133.417,-414.5"/>
<text text-anchor="middle" x="190.597" y="-421.5" font-family="Helvetica,sans-Serif" font-size="10.00">panda::ArrayBase::init</text>
</a>
</g>
</g>
<!-- Node1&#45;&gt;Node2 -->
<g id="edge1" class="edge"><title>Node1&#45;&gt;Node2</title>
<path fill="none" stroke="midnightblue" d="M54.3293,-264.574C63.8552,-298.472 87.6935,-367.11 132.582,-405.5 136.785,-409.094 141.691,-412.014 146.829,-414.386"/>
<polygon fill="midnightblue" stroke="midnightblue" points="57.6987,-263.625 51.7308,-254.871 50.9369,-265.436 57.6987,-263.625"/>
</g>
<!-- Node3 -->
<g id="node3" class="node"><title>Node3</title>
<g id="a_node3"><a xlink:href="classpanda_1_1CollectionBase.html#a3ec014ac2da87bb755afbea0822621cc" target="_top" xlink:title="Resize the container. ">
<polygon fill="white" stroke="black" points="132.582,-363.5 132.582,-395.5 248.613,-395.5 248.613,-363.5 132.582,-363.5"/>
<text text-anchor="start" x="140.582" y="-382.5" font-family="Helvetica,sans-Serif" font-size="10.00">panda::CollectionBase</text>
<text text-anchor="middle" x="190.597" y="-370.5" font-family="Helvetica,sans-Serif" font-size="10.00">::resize</text>
</a>
</g>
</g>
<!-- Node1&#45;&gt;Node3 -->
<g id="edge2" class="edge"><title>Node1&#45;&gt;Node3</title>
<path fill="none" stroke="midnightblue" d="M59.5854,-263.536C73.4037,-287.552 100.021,-328.81 132.582,-354.5 136.825,-357.847 141.585,-360.841 146.499,-363.491"/>
<polygon fill="midnightblue" stroke="midnightblue" points="62.5627,-261.69 54.6205,-254.678 56.4563,-265.112 62.5627,-261.69"/>
</g>
<!-- Node6 -->
<g id="node6" class="node"><title>Node6</title>
<g id="a_node6"><a xlink:href="classpanda_1_1GenReweight.html#a01ce537b498806530435f95dab9d5979" target="_top" xlink:title="Reset object state. ">
<polygon fill="white" stroke="black" points="135.636,-312.5 135.636,-344.5 245.558,-344.5 245.558,-312.5 135.636,-312.5"/>
<text text-anchor="start" x="143.636" y="-331.5" font-family="Helvetica,sans-Serif" font-size="10.00">panda::GenReweight</text>
<text text-anchor="middle" x="190.597" y="-319.5" font-family="Helvetica,sans-Serif" font-size="10.00">::init</text>
</a>
</g>
</g>
<!-- Node1&#45;&gt;Node6 -->
<g id="edge5" class="edge"><title>Node1&#45;&gt;Node6</title>
<path fill="none" stroke="midnightblue" d="M70.0323,-260.99C86.4254,-273.572 110.198,-290.839 132.582,-303.5 138.132,-306.64 144.153,-309.66 150.132,-312.449"/>
<polygon fill="midnightblue" stroke="midnightblue" points="71.7824,-257.917 61.7399,-254.541 67.4852,-263.443 71.7824,-257.917"/>
</g>
<!-- Node7 -->
<g id="node7" class="node"><title>Node7</title>
<g id="a_node7"><a xlink:href="classpanda_1_1HLTBits.html#a4a0a00855fd67ce90223b382eb939206" target="_top" xlink:title="Reset object state. ">
<polygon fill="white" stroke="black" points="138.977,-273.5 138.977,-293.5 242.218,-293.5 242.218,-273.5 138.977,-273.5"/>
<text text-anchor="middle" x="190.597" y="-280.5" font-family="Helvetica,sans-Serif" font-size="10.00">panda::HLTBits::init</text>
</a>
</g>
</g>
<!-- Node1&#45;&gt;Node7 -->
<g id="edge6" class="edge"><title>Node1&#45;&gt;Node7</title>
<path fill="none" stroke="midnightblue" d="M95.0699,-257.225C114.058,-262.503 135.767,-268.537 153.588,-273.491"/>
<polygon fill="midnightblue" stroke="midnightblue" points="95.9955,-253.849 85.4234,-254.543 94.1208,-260.594 95.9955,-253.849"/>
</g>
<!-- Node8 -->
<g id="node8" class="node"><title>Node8</title>
<g id="a_node8"><a xlink:href="classpanda_1_1Met.html#a57e9fa5eb78a244a2e9a320f97223620" target="_top" xlink:title="Reset object state. ">
<polygon fill="white" stroke="black" points="148.42,-234.5 148.42,-254.5 232.774,-254.5 232.774,-234.5 148.42,-234.5"/>
<text text-anchor="middle" x="190.597" y="-241.5" font-family="Helvetica,sans-Serif" font-size="10.00">panda::Met::init</text>
</a>
</g>
</g>
<!-- Node1&#45;&gt;Node8 -->
<g id="edge7" class="edge"><title>Node1&#45;&gt;Node8</title>
<path fill="none" stroke="midnightblue" d="M107.167,-244.5C120.947,-244.5 135.38,-244.5 148.248,-244.5"/>
<polygon fill="midnightblue" stroke="midnightblue" points="106.792,-241 96.7924,-244.5 106.792,-248 106.792,-241"/>
</g>
<!-- Node10 -->
<g id="node10" class="node"><title>Node10</title>
<g id="a_node10"><a xlink:href="classpanda_1_1MetFilters.html#a497595857e9014dd929edb22c44ef1f5" target="_top" xlink:title="Reset object state. ">
<polygon fill="white" stroke="black" points="134.813,-195.5 134.813,-215.5 246.381,-215.5 246.381,-195.5 134.813,-195.5"/>
<text text-anchor="middle" x="190.597" y="-202.5" font-family="Helvetica,sans-Serif" font-size="10.00">panda::MetFilters::init</text>
</a>
</g>
</g>
<!-- Node1&#45;&gt;Node10 -->
<g id="edge9" class="edge"><title>Node1&#45;&gt;Node10</title>
<path fill="none" stroke="midnightblue" d="M95.0699,-231.775C114.058,-226.497 135.767,-220.463 153.588,-215.509"/>
<polygon fill="midnightblue" stroke="midnightblue" points="94.1208,-228.406 85.4234,-234.457 95.9955,-235.151 94.1208,-228.406"/>
</g>
<!-- Node11 -->
<g id="node11" class="node"><title>Node11</title>
<g id="a_node11"><a xlink:href="classpanda_1_1Particle.html#a56ba0060e9e37322f98e2f30c3583dd3" target="_top" xlink:title="Reset object state. ">
<polygon fill="white" stroke="black" points="140.087,-156.5 140.087,-176.5 241.107,-176.5 241.107,-156.5 140.087,-156.5"/>
<text text-anchor="middle" x="190.597" y="-163.5" font-family="Helvetica,sans-Serif" font-size="10.00">panda::Particle::init</text>
</a>
</g>
</g>
<!-- Node1&#45;&gt;Node11 -->
<g id="edge10" class="edge"><title>Node1&#45;&gt;Node11</title>
<path fill="none" stroke="midnightblue" d="M69.8171,-227.839C86.0942,-215.227 109.815,-198.146 132.582,-186.5 139.96,-182.726 148.214,-179.377 156.1,-176.549"/>
<polygon fill="midnightblue" stroke="midnightblue" points="67.2794,-225.382 61.5935,-234.322 71.6134,-230.879 67.2794,-225.382"/>
</g>
<!-- Node25 -->
<g id="node25" class="node"><title>Node25</title>
<g id="a_node25"><a xlink:href="classpanda_1_1Recoil.html#a60ef07168ec3e66b38302a9c1a7e9799" target="_top" xlink:title="Reset object state. ">
<polygon fill="white" stroke="black" points="142.866,-117.5 142.866,-137.5 238.328,-137.5 238.328,-117.5 142.866,-117.5"/>
<text text-anchor="middle" x="190.597" y="-124.5" font-family="Helvetica,sans-Serif" font-size="10.00">panda::Recoil::init</text>
</a>
</g>
</g>
<!-- Node1&#45;&gt;Node25 -->
<g id="edge24" class="edge"><title>Node1&#45;&gt;Node25</title>
<path fill="none" stroke="midnightblue" d="M60.8814,-225.834C75.2327,-204.152 101.609,-168.659 132.582,-147.5 138.472,-143.476 145.256,-140.179 152.043,-137.506"/>
<polygon fill="midnightblue" stroke="midnightblue" points="57.7971,-224.159 55.3242,-234.462 63.6819,-227.95 57.7971,-224.159"/>
</g>
<!-- Node26 -->
<g id="node26" class="node"><title>Node26</title>
<g id="a_node26"><a xlink:href="classpanda_1_1SuperCluster.html#a5330ab046d7182950d704693d3eaecef" target="_top" xlink:title="Reset object state. ">
<polygon fill="white" stroke="black" points="136.751,-66.5 136.751,-98.5 244.443,-98.5 244.443,-66.5 136.751,-66.5"/>
<text text-anchor="start" x="144.751" y="-85.5" font-family="Helvetica,sans-Serif" font-size="10.00">panda::SuperCluster</text>
<text text-anchor="middle" x="190.597" y="-73.5" font-family="Helvetica,sans-Serif" font-size="10.00">::init</text>
</a>
</g>
</g>
<!-- Node1&#45;&gt;Node26 -->
<g id="edge25" class="edge"><title>Node1&#45;&gt;Node26</title>
<path fill="none" stroke="midnightblue" d="M56.9273,-224.776C69.0169,-195.826 95.0994,-141.679 132.582,-108.5 136.818,-104.75 141.686,-101.451 146.753,-98.5744"/>
<polygon fill="midnightblue" stroke="midnightblue" points="53.6142,-223.633 53.1112,-234.216 60.104,-226.257 53.6142,-223.633"/>
</g>
<!-- Node4 -->
<g id="node4" class="node"><title>Node4</title>
<g id="a_node4"><a xlink:href="classpanda_1_1Container.html#a05e9a487429721164541511d87a9783d" target="_top" xlink:title="panda::Container::copy">
<polygon fill="white" stroke="black" points="301.285,-388.5 301.285,-408.5 420.655,-408.5 420.655,-388.5 301.285,-388.5"/>
<text text-anchor="middle" x="360.97" y="-395.5" font-family="Helvetica,sans-Serif" font-size="10.00">panda::Container::copy</text>
</a>
</g>
</g>
<!-- Node3&#45;&gt;Node4 -->
<g id="edge3" class="edge"><title>Node3&#45;&gt;Node4</title>
<path fill="none" stroke="midnightblue" d="M259.053,-387.112C272.946,-388.68 287.474,-390.319 301.037,-391.85"/>
<polygon fill="midnightblue" stroke="midnightblue" points="259.4,-383.629 249.071,-385.986 258.615,-390.585 259.4,-383.629"/>
</g>
<!-- Node5 -->
<g id="node5" class="node"><title>Node5</title>
<g id="a_node5"><a xlink:href="classpanda_1_1Container.html#a9603d59e46e21b048714a9760964b536" target="_top" xlink:title="panda::Container::create_back">
<polygon fill="white" stroke="black" points="284.613,-349.5 284.613,-369.5 437.327,-369.5 437.327,-349.5 284.613,-349.5"/>
<text text-anchor="middle" x="360.97" y="-356.5" font-family="Helvetica,sans-Serif" font-size="10.00">panda::Container::create_back</text>
</a>
</g>
</g>
<!-- Node3&#45;&gt;Node5 -->
<g id="edge4" class="edge"><title>Node3&#45;&gt;Node5</title>
<path fill="none" stroke="midnightblue" d="M259.145,-371.476C267.516,-370.482 276.115,-369.461 284.594,-368.453"/>
<polygon fill="midnightblue" stroke="midnightblue" points="258.588,-368.018 249.071,-372.673 259.414,-374.969 258.588,-368.018"/>
</g>
<!-- Node9 -->
<g id="node9" class="node"><title>Node9</title>
<g id="a_node9"><a xlink:href="classpanda_1_1RecoMet.html#ac2ef2e81cc701c8a195cc487121752dc" target="_top" xlink:title="Reset object state. ">
<polygon fill="white" stroke="black" points="307.124,-272.5 307.124,-292.5 414.815,-292.5 414.815,-272.5 307.124,-272.5"/>
<text text-anchor="middle" x="360.97" y="-279.5" font-family="Helvetica,sans-Serif" font-size="10.00">panda::RecoMet::init</text>
</a>
</g>
</g>
<!-- Node8&#45;&gt;Node9 -->
<g id="edge8" class="edge"><title>Node8&#45;&gt;Node9</title>
<path fill="none" stroke="midnightblue" d="M242.779,-256.051C265.938,-261.278 293.056,-267.398 315.37,-272.434"/>
<polygon fill="midnightblue" stroke="midnightblue" points="243.311,-252.583 232.786,-253.796 241.77,-259.412 243.311,-252.583"/>
</g>
<!-- Node12 -->
<g id="node12" class="node"><title>Node12</title>
<g id="a_node12"><a xlink:href="classpanda_1_1Lepton.html#a69c57be8a4bc498e6d10bf89f54a112b" target="_top" xlink:title="Reset object state. ">
<polygon fill="white" stroke="black" points="311.839,-233.5 311.839,-253.5 410.1,-253.5 410.1,-233.5 311.839,-233.5"/>
<text text-anchor="middle" x="360.97" y="-240.5" font-family="Helvetica,sans-Serif" font-size="10.00">panda::Lepton::init</text>
</a>
</g>
</g>
<!-- Node11&#45;&gt;Node12 -->
<g id="edge11" class="edge"><title>Node11&#45;&gt;Node12</title>
<path fill="none" stroke="midnightblue" d="M232.426,-180.063C237.912,-182.106 243.431,-184.277 248.613,-186.5 282.544,-201.056 320.516,-221.415 342.2,-233.452"/>
<polygon fill="midnightblue" stroke="midnightblue" points="233.259,-176.643 222.665,-176.54 230.883,-183.227 233.259,-176.643"/>
</g>
<!-- Node15 -->
<g id="node15" class="node"><title>Node15</title>
<g id="a_node15"><a xlink:href="classpanda_1_1ParticleM.html#a92df7a2653432fa4d304039e1e62c41b" target="_top" xlink:title="Reset object state. ">
<polygon fill="white" stroke="black" points="306.295,-130.5 306.295,-150.5 415.644,-150.5 415.644,-130.5 306.295,-130.5"/>
<text text-anchor="middle" x="360.97" y="-137.5" font-family="Helvetica,sans-Serif" font-size="10.00">panda::ParticleM::init</text>
</a>
</g>
</g>
<!-- Node11&#45;&gt;Node15 -->
<g id="edge14" class="edge"><title>Node11&#45;&gt;Node15</title>
<path fill="none" stroke="midnightblue" d="M251.467,-157.255C269.255,-154.508 288.628,-151.517 306.016,-148.832"/>
<polygon fill="midnightblue" stroke="midnightblue" points="250.553,-153.855 241.204,-158.84 251.621,-160.773 250.553,-153.855"/>
</g>
<!-- Node24 -->
<g id="node24" class="node"><title>Node24</title>
<g id="a_node24"><a xlink:href="classpanda_1_1Photon.html#a576d8827e8f6123f41a6f4aef5b98169" target="_top" xlink:title="Reset object state. ">
<polygon fill="white" stroke="black" points="311.284,-91.5 311.284,-111.5 410.655,-111.5 410.655,-91.5 311.284,-91.5"/>
<text text-anchor="middle" x="360.97" y="-98.5" font-family="Helvetica,sans-Serif" font-size="10.00">panda::Photon::init</text>
</a>
</g>
</g>
<!-- Node11&#45;&gt;Node24 -->
<g id="edge23" class="edge"><title>Node11&#45;&gt;Node24</title>
<path fill="none" stroke="midnightblue" d="M236.789,-152.873C240.855,-151.22 244.852,-149.427 248.613,-147.5 266.177,-138.499 266.777,-129.95 284.613,-121.5 293.053,-117.501 302.418,-114.205 311.596,-111.523"/>
<polygon fill="midnightblue" stroke="midnightblue" points="235.377,-149.665 227.259,-156.473 237.85,-156.214 235.377,-149.665"/>
</g>
<!-- Node13 -->
<g id="node13" class="node"><title>Node13</title>
<g id="a_node13"><a xlink:href="classpanda_1_1Electron.html#afcfeb0cdca439167cffa096de7eb89e2" target="_top" xlink:title="Reset object state. ">
<polygon fill="white" stroke="black" points="473.877,-285.5 473.877,-305.5 578.237,-305.5 578.237,-285.5 473.877,-285.5"/>
<text text-anchor="middle" x="526.057" y="-292.5" font-family="Helvetica,sans-Serif" font-size="10.00">panda::Electron::init</text>
</a>
</g>
</g>
<!-- Node12&#45;&gt;Node13 -->
<g id="edge12" class="edge"><title>Node12&#45;&gt;Node13</title>
<path fill="none" stroke="midnightblue" d="M412.2,-256.154C420.627,-258.47 429.253,-260.962 437.327,-263.5 440.382,-264.46 473.084,-276.425 497.674,-285.444"/>
<polygon fill="midnightblue" stroke="midnightblue" points="413.012,-252.748 402.445,-253.523 411.189,-259.506 413.012,-252.748"/>
</g>
<!-- Node14 -->
<g id="node14" class="node"><title>Node14</title>
<g id="a_node14"><a xlink:href="classpanda_1_1Muon.html#a90bcf16472c051587bdbfcacfe7fb052" target="_top" xlink:title="Reset object state. ">
<polygon fill="white" stroke="black" points="479.711,-246.5 479.711,-266.5 572.404,-266.5 572.404,-246.5 479.711,-246.5"/>
<text text-anchor="middle" x="526.057" y="-253.5" font-family="Helvetica,sans-Serif" font-size="10.00">panda::Muon::init</text>
</a>
</g>
</g>
<!-- Node12&#45;&gt;Node14 -->
<g id="edge13" class="edge"><title>Node12&#45;&gt;Node14</title>
<path fill="none" stroke="midnightblue" d="M420.429,-248.16C439.874,-249.71 461.229,-251.412 479.546,-252.872"/>
<polygon fill="midnightblue" stroke="midnightblue" points="420.707,-244.671 410.46,-247.365 420.15,-251.649 420.707,-244.671"/>
</g>
<!-- Node16 -->
<g id="node16" class="node"><title>Node16</title>
<g id="a_node16"><a xlink:href="classpanda_1_1GenJet.html#aaea438a6a3461a997857f4d5e708f466" target="_top" xlink:title="Reset object state. ">
<polygon fill="white" stroke="black" points="476.096,-207.5 476.096,-227.5 576.018,-227.5 576.018,-207.5 476.096,-207.5"/>
<text text-anchor="middle" x="526.057" y="-214.5" font-family="Helvetica,sans-Serif" font-size="10.00">panda::GenJet::init</text>
</a>
</g>
</g>
<!-- Node15&#45;&gt;Node16 -->
<g id="edge15" class="edge"><title>Node15&#45;&gt;Node16</title>
<path fill="none" stroke="midnightblue" d="M388.612,-155.609C410.88,-167.937 443.669,-185.394 473.327,-198.5 480.503,-201.671 488.389,-204.76 495.795,-207.494"/>
<polygon fill="midnightblue" stroke="midnightblue" points="390.191,-152.482 379.752,-150.668 386.781,-158.596 390.191,-152.482"/>
</g>
<!-- Node17 -->
<g id="node17" class="node"><title>Node17</title>
<g id="a_node17"><a xlink:href="classpanda_1_1GenParticle.html#a133c2d435925b0466b2affcd8b03b5fc" target="_top" xlink:title="Reset object state. ">
<polygon fill="white" stroke="black" points="475.266,-156.5 475.266,-188.5 576.849,-188.5 576.849,-156.5 475.266,-156.5"/>
<text text-anchor="start" x="483.266" y="-175.5" font-family="Helvetica,sans-Serif" font-size="10.00">panda::GenParticle</text>
<text text-anchor="middle" x="526.057" y="-163.5" font-family="Helvetica,sans-Serif" font-size="10.00">::init</text>
</a>
</g>
</g>
<!-- Node15&#45;&gt;Node17 -->
<g id="edge16" class="edge"><title>Node15&#45;&gt;Node17</title>
<path fill="none" stroke="midnightblue" d="M423.072,-152.489C440.264,-155.862 458.751,-159.49 475.202,-162.718"/>
<polygon fill="midnightblue" stroke="midnightblue" points="423.611,-149.028 413.124,-150.537 422.263,-155.897 423.611,-149.028"/>
</g>
<!-- Node18 -->
<g id="node18" class="node"><title>Node18</title>
<g id="a_node18"><a xlink:href="classpanda_1_1MicroJet.html#acb01bef0c15e0175151fdd479cb1b5ba" target="_top" xlink:title="Reset object state. ">
<polygon fill="white" stroke="black" points="473.327,-117.5 473.327,-137.5 578.788,-137.5 578.788,-117.5 473.327,-117.5"/>
<text text-anchor="middle" x="526.057" y="-124.5" font-family="Helvetica,sans-Serif" font-size="10.00">panda::MicroJet::init</text>
</a>
</g>
</g>
<!-- Node15&#45;&gt;Node18 -->
<g id="edge17" class="edge"><title>Node15&#45;&gt;Node18</title>
<path fill="none" stroke="midnightblue" d="M425.958,-135.399C441.619,-134.151 458.188,-132.83 473.201,-131.634"/>
<polygon fill="midnightblue" stroke="midnightblue" points="425.513,-131.924 415.823,-136.207 426.069,-138.902 425.513,-131.924"/>
</g>
<!-- Node21 -->
<g id="node21" class="node"><title>Node21</title>
<g id="a_node21"><a xlink:href="classpanda_1_1Parton.html#a94dd23d135a2336f5e2d4afa7ab45e6c" target="_top" xlink:title="Reset object state. ">
<polygon fill="white" stroke="black" points="477.487,-78.5 477.487,-98.5 574.628,-98.5 574.628,-78.5 477.487,-78.5"/>
<text text-anchor="middle" x="526.057" y="-85.5" font-family="Helvetica,sans-Serif" font-size="10.00">panda::Parton::init</text>
</a>
</g>
</g>
<!-- Node15&#45;&gt;Node21 -->
<g id="edge20" class="edge"><title>Node15&#45;&gt;Node21</title>
<path fill="none" stroke="midnightblue" d="M415.036,-127.922C422.557,-125.907 430.165,-123.742 437.327,-121.5 449.13,-117.805 477.845,-106.864 499.228,-98.5844"/>
<polygon fill="midnightblue" stroke="midnightblue" points="414.034,-124.566 405.243,-130.479 415.803,-131.339 414.034,-124.566"/>
</g>
<!-- Node22 -->
<g id="node22" class="node"><title>Node22</title>
<g id="a_node22"><a xlink:href="classpanda_1_1PFCand.html#afd85b75ecaab10011291811260d1f84f" target="_top" xlink:title="Reset object state. ">
<polygon fill="white" stroke="black" points="473.877,-39.5 473.877,-59.5 578.238,-59.5 578.238,-39.5 473.877,-39.5"/>
<text text-anchor="middle" x="526.057" y="-46.5" font-family="Helvetica,sans-Serif" font-size="10.00">panda::PFCand::init</text>
</a>
</g>
</g>
<!-- Node15&#45;&gt;Node22 -->
<g id="edge21" class="edge"><title>Node15&#45;&gt;Node22</title>
<path fill="none" stroke="midnightblue" d="M425.363,-128.232C429.572,-126.305 433.609,-124.077 437.327,-121.5 460.429,-105.487 451.244,-86.8911 473.327,-69.5 478.395,-65.5086 484.354,-62.2365 490.39,-59.5806"/>
<polygon fill="midnightblue" stroke="midnightblue" points="423.93,-125.035 415.933,-131.984 426.519,-131.539 423.93,-125.035"/>
</g>
<!-- Node23 -->
<g id="node23" class="node"><title>Node23</title>
<g id="a_node23"><a xlink:href="classpanda_1_1Tau.html#a2295834641659e77e1a61165f7f18587" target="_top" xlink:title="Reset object state. ">
<polygon fill="white" stroke="black" points="483.6,-0.5 483.6,-20.5 568.514,-20.5 568.514,-0.5 483.6,-0.5"/>
<text text-anchor="middle" x="526.057" y="-7.5" font-family="Helvetica,sans-Serif" font-size="10.00">panda::Tau::init</text>
</a>
</g>
</g>
<!-- Node15&#45;&gt;Node23 -->
<g id="edge22" class="edge"><title>Node15&#45;&gt;Node23</title>
<path fill="none" stroke="midnightblue" d="M425.109,-129.663C429.513,-127.416 433.655,-124.724 437.327,-121.5 470.011,-92.803 442.452,-61.135 473.327,-30.5 477.428,-26.4308 482.448,-23.1704 487.732,-20.5632"/>
<polygon fill="midnightblue" stroke="midnightblue" points="423.573,-126.513 415.765,-133.674 426.335,-132.945 423.573,-126.513"/>
</g>
<!-- Node19 -->
<g id="node19" class="node"><title>Node19</title>
<g id="a_node19"><a xlink:href="classpanda_1_1Jet.html#a812a5a0a5a122791b2328c71e23a9d8b" target="_top" xlink:title="Reset object state. ">
<polygon fill="white" stroke="black" points="614.788,-117.5 614.788,-137.5 695.813,-137.5 695.813,-117.5 614.788,-117.5"/>
<text text-anchor="middle" x="655.3" y="-124.5" font-family="Helvetica,sans-Serif" font-size="10.00">panda::Jet::init</text>
</a>
</g>
</g>
<!-- Node18&#45;&gt;Node19 -->
<g id="edge18" class="edge"><title>Node18&#45;&gt;Node19</title>
<path fill="none" stroke="midnightblue" d="M589.012,-127.5C597.751,-127.5 606.531,-127.5 614.694,-127.5"/>
<polygon fill="midnightblue" stroke="midnightblue" points="588.812,-124 578.812,-127.5 588.812,-131 588.812,-124"/>
</g>
<!-- Node20 -->
<g id="node20" class="node"><title>Node20</title>
<g id="a_node20"><a xlink:href="classpanda_1_1FatJet.html#aa1a87839e3131c1629bbcf2e1a3b4cbc" target="_top" xlink:title="Reset object state. ">
<polygon fill="white" stroke="black" points="731.813,-117.5 731.813,-137.5 827.285,-137.5 827.285,-117.5 731.813,-117.5"/>
<text text-anchor="middle" x="779.549" y="-124.5" font-family="Helvetica,sans-Serif" font-size="10.00">panda::FatJet::init</text>
</a>
</g>
</g>
<!-- Node19&#45;&gt;Node20 -->
<g id="edge19" class="edge"><title>Node19&#45;&gt;Node20</title>
<path fill="none" stroke="midnightblue" d="M706.021,-127.5C714.401,-127.5 723.077,-127.5 731.39,-127.5"/>
<polygon fill="midnightblue" stroke="midnightblue" points="705.991,-124 695.991,-127.5 705.991,-131 705.991,-124"/>
</g>
</g>
</svg>
        <g id="navigator" transform="translate(0 0)" fill="#404254">
                <rect fill="#f2f5e9" fill-opacity="0.5" stroke="#606060" stroke-width=".5" x="0" y="0" width="60" height="60"/>
                <use id="zoomplus" xlink:href="#zoomPlus" x="17" y="9" onmousedown="handleZoom(evt,'in')"/>
                <use id="zoomminus" xlink:href="#zoomMin" x="42" y="9" onmousedown="handleZoom(evt,'out')"/>
                <use id="reset" xlink:href="#resetDef" x="30" y="36" onmousedown="handleReset()"/>
                <g id="arrowUp" xlink:href="#dirArrow" transform="translate(30 24)" onmousedown="handlePan(0,-1)">
                  <use xlink:href="#rim" fill="#404040">
                        <set attributeName="fill" to="#808080" begin="arrowUp.mouseover" end="arrowUp.mouseout"/>
                  </use>
                  <path fill="none" stroke="white" stroke-width="1.5" d="M0,-3.0v7 M-2.5,-0.5L0,-3.0L2.5,-0.5"/>
                </g>
                <g id="arrowRight" xlink:href="#dirArrow" transform="rotate(90) translate(36 -43)" onmousedown="handlePan(1,0)">
                  <use xlink:href="#rim" fill="#404040">
                        <set attributeName="fill" to="#808080" begin="arrowRight.mouseover" end="arrowRight.mouseout"/>
                  </use>
                  <path fill="none" stroke="white" stroke-width="1.5" d="M0,-3.0v7 M-2.5,-0.5L0,-3.0L2.5,-0.5"/>
                </g>
                <g id="arrowDown" xlink:href="#dirArrow" transform="rotate(180) translate(-30 -48)" onmousedown="handlePan(0,1)">
                  <use xlink:href="#rim" fill="#404040">
                        <set attributeName="fill" to="#808080" begin="arrowDown.mouseover" end="arrowDown.mouseout"/>
                  </use>
                  <path fill="none" stroke="white" stroke-width="1.5" d="M0,-3.0v7 M-2.5,-0.5L0,-3.0L2.5,-0.5"/>
                </g>
                <g id="arrowLeft" xlink:href="#dirArrow" transform="rotate(270) translate(-36 17)" onmousedown="handlePan(-1,0)">
                  <use xlink:href="#rim" fill="#404040">
                        <set attributeName="fill" to="#808080" begin="arrowLeft.mouseover" end="arrowLeft.mouseout"/>
                  </use>
                  <path fill="none" stroke="white" stroke-width="1.5" d="M0,-3.0v7 M-2.5,-0.5L0,-3.0L2.5,-0.5"/>
                </g>
        </g>
        <svg viewBox="0 0 15 15" width="100%" height="30px" preserveAspectRatio="xMaxYMin meet">
         <g id="arrow_out" transform="scale(0.3 0.3)">
          <a xlink:href="classpanda_1_1Object_a204960e5f165a28176f9b4a42b9ea90c_icgraph_org.svg" target="_base">
           <rect id="button" ry="5" rx="5" y="6" x="6" height="38" width="38"
                fill="#f2f5e9" fill-opacity="0.5" stroke="#606060" stroke-width="1.0"/>
           <path id="arrow"
             d="M 11.500037,31.436501 C 11.940474,20.09759 22.043105,11.32322 32.158766,21.979434 L 37.068811,17.246167 C 37.068811,17.246167 37.088388,32 37.088388,32 L 22.160133,31.978069 C 22.160133,31.978069 26.997745,27.140456 26.997745,27.140456 C 18.528582,18.264221 13.291696,25.230495 11.500037,31.436501 z"
             style="fill:#404040;"/>
          </a>
         </g>
        </svg>
</svg>
