<?xml version="1.0" encoding="UTF-8" standalone="no"?>
<!DOCTYPE svg PUBLIC "-//W3C//DTD SVG 1.1//EN"
 "http://www.w3.org/Graphics/SVG/1.1/DTD/svg11.dtd">
<!-- Generated by graphviz version 2.38.0 (20140413.2041)
 -->
<!-- Title: panda::Particle::setAddress Pages: 1 -->
<svg width="831pt" height="314pt"
 viewBox="0.00 0.00 830.51 314.00" xmlns="http://www.w3.org/2000/svg" xmlns:xlink="http://www.w3.org/1999/xlink">
<g id="graph0" class="graph" transform="scale(1 1) rotate(0) translate(4 310)">
<title>panda::Particle::setAddress</title>
<polygon fill="white" stroke="none" points="-4,4 -4,-310 826.512,-310 826.512,4 -4,4"/>
<!-- Node1 -->
<g id="node1" class="node"><title>Node1</title>
<polygon fill="#bfbfbf" stroke="black" points="-7.10543e-14,-117.5 -7.10543e-14,-137.5 138.257,-137.5 138.257,-117.5 -7.10543e-14,-117.5"/>
<text text-anchor="middle" x="69.1285" y="-124.5" font-family="Helvetica,sans-Serif" font-size="10.00">panda::Particle::setAddress</text>
</g>
<!-- Node2 -->
<g id="node2" class="node"><title>Node2</title>
<g id="a_node2"><a xlink:href="classpanda_1_1Lepton.html#ae5bb488ef12db0ad5549c4451cf6b155" target="_top" xlink:title="Set address for the branches to the variables of this object. ">
<polygon fill="white" stroke="black" points="179.801,-246.5 179.801,-266.5 315.299,-266.5 315.299,-246.5 179.801,-246.5"/>
<text text-anchor="middle" x="247.55" y="-253.5" font-family="Helvetica,sans-Serif" font-size="10.00">panda::Lepton::setAddress</text>
</a>
</g>
</g>
<!-- Node1&#45;&gt;Node2 -->
<g id="edge1" class="edge"><title>Node1&#45;&gt;Node2</title>
<path fill="none" stroke="midnightblue" d="M92.0992,-143.565C128.982,-170.534 202.299,-224.144 232.771,-246.425"/>
<polygon fill="midnightblue" stroke="midnightblue" points="94.1101,-140.7 83.972,-137.622 89.9784,-146.35 94.1101,-140.7"/>
</g>
<!-- Node5 -->
<g id="node5" class="node"><title>Node5</title>
<g id="a_node5"><a xlink:href="classpanda_1_1ParticleM.html#ad8aeae1e2ca26f4cdb7d079ab56a10fe" target="_top" xlink:title="Set address for the branches to the variables of this object. ">
<polygon fill="white" stroke="black" points="174.257,-117.5 174.257,-137.5 320.843,-137.5 320.843,-117.5 174.257,-117.5"/>
<text text-anchor="middle" x="247.55" y="-124.5" font-family="Helvetica,sans-Serif" font-size="10.00">panda::ParticleM::setAddress</text>
</a>
</g>
</g>
<!-- Node1&#45;&gt;Node5 -->
<g id="edge4" class="edge"><title>Node1&#45;&gt;Node5</title>
<path fill="none" stroke="midnightblue" d="M148.615,-127.5C157.108,-127.5 165.723,-127.5 174.139,-127.5"/>
<polygon fill="midnightblue" stroke="midnightblue" points="148.338,-124 138.338,-127.5 148.338,-131 148.338,-124"/>
</g>
<!-- Node14 -->
<g id="node14" class="node"><title>Node14</title>
<g id="a_node14"><a xlink:href="classpanda_1_1Photon.html#a35076760a5b960f3eee4afe347d6b0e9" target="_top" xlink:title="Set address for the branches to the variables of this object. ">
<polygon fill="white" stroke="black" points="179.246,-78.5 179.246,-98.5 315.854,-98.5 315.854,-78.5 179.246,-78.5"/>
<text text-anchor="middle" x="247.55" y="-85.5" font-family="Helvetica,sans-Serif" font-size="10.00">panda::Photon::setAddress</text>
</a>
</g>
</g>
<!-- Node1&#45;&gt;Node14 -->
<g id="edge13" class="edge"><title>Node1&#45;&gt;Node14</title>
<path fill="none" stroke="midnightblue" d="M125.402,-115.281C149.808,-109.886 178.143,-103.622 201.271,-98.5094"/>
<polygon fill="midnightblue" stroke="midnightblue" points="124.57,-111.88 115.561,-117.457 126.081,-118.715 124.57,-111.88"/>
</g>
<!-- Node3 -->
<g id="node3" class="node"><title>Node3</title>
<g id="a_node3"><a xlink:href="classpanda_1_1Electron.html#a26659ab11a463332edbb15d82e2e49c1" target="_top" xlink:title="Set address for the branches to the variables of this object. ">
<polygon fill="white" stroke="black" points="357.393,-285.5 357.393,-305.5 498.99,-305.5 498.99,-285.5 357.393,-285.5"/>
<text text-anchor="middle" x="428.192" y="-292.5" font-family="Helvetica,sans-Serif" font-size="10.00">panda::Electron::setAddress</text>
</a>
</g>
</g>
<!-- Node2&#45;&gt;Node3 -->
<g id="edge2" class="edge"><title>Node2&#45;&gt;Node3</title>
<path fill="none" stroke="midnightblue" d="M304.519,-268.719C329.233,-274.114 357.924,-280.378 381.343,-285.491"/>
<polygon fill="midnightblue" stroke="midnightblue" points="305.071,-265.257 294.555,-266.543 303.578,-272.096 305.071,-265.257"/>
</g>
<!-- Node4 -->
<g id="node4" class="node"><title>Node4</title>
<g id="a_node4"><a xlink:href="classpanda_1_1Muon.html#a58468a794c9beb19603e59a1a9400514" target="_top" xlink:title="Set address for the branches to the variables of this object. ">
<polygon fill="white" stroke="black" points="363.227,-246.5 363.227,-266.5 493.157,-266.5 493.157,-246.5 363.227,-246.5"/>
<text text-anchor="middle" x="428.192" y="-253.5" font-family="Helvetica,sans-Serif" font-size="10.00">panda::Muon::setAddress</text>
</a>
</g>
</g>
<!-- Node2&#45;&gt;Node4 -->
<g id="edge3" class="edge"><title>Node2&#45;&gt;Node4</title>
<path fill="none" stroke="midnightblue" d="M325.345,-256.5C337.956,-256.5 350.906,-256.5 363.164,-256.5"/>
<polygon fill="midnightblue" stroke="midnightblue" points="325.324,-253 315.324,-256.5 325.324,-260 325.324,-253"/>
</g>
<!-- Node6 -->
<g id="node6" class="node"><title>Node6</title>
<g id="a_node6"><a xlink:href="classpanda_1_1GenJet.html#a509b0782225dddb65a02d2469e031146" target="_top" xlink:title="Set address for the branches to the variables of this object. ">
<polygon fill="white" stroke="black" points="359.612,-207.5 359.612,-227.5 496.771,-227.5 496.771,-207.5 359.612,-207.5"/>
<text text-anchor="middle" x="428.192" y="-214.5" font-family="Helvetica,sans-Serif" font-size="10.00">panda::GenJet::setAddress</text>
</a>
</g>
</g>
<!-- Node5&#45;&gt;Node6 -->
<g id="edge5" class="edge"><title>Node5&#45;&gt;Node6</title>
<path fill="none" stroke="midnightblue" d="M269.267,-143.974C290.25,-159.94 324.183,-183.834 356.843,-198.5 364.575,-201.972 373.079,-204.928 381.421,-207.401"/>
<polygon fill="midnightblue" stroke="midnightblue" points="271.16,-141.014 261.108,-137.666 266.879,-146.552 271.16,-141.014"/>
</g>
<!-- Node7 -->
<g id="node7" class="node"><title>Node7</title>
<g id="a_node7"><a xlink:href="classpanda_1_1GenParticle.html#a049670d248a94df47fb4de6e73956b4f" target="_top" xlink:title="Set address for the branches to the variables of this object. ">
<polygon fill="white" stroke="black" points="377.4,-156.5 377.4,-188.5 478.983,-188.5 478.983,-156.5 377.4,-156.5"/>
<text text-anchor="start" x="385.4" y="-175.5" font-family="Helvetica,sans-Serif" font-size="10.00">panda::GenParticle</text>
<text text-anchor="middle" x="428.192" y="-163.5" font-family="Helvetica,sans-Serif" font-size="10.00">::setAddress</text>
</a>
</g>
</g>
<!-- Node5&#45;&gt;Node7 -->
<g id="edge6" class="edge"><title>Node5&#45;&gt;Node7</title>
<path fill="none" stroke="midnightblue" d="M298.507,-140.084C323.126,-146.286 352.733,-153.744 377.338,-159.942"/>
<polygon fill="midnightblue" stroke="midnightblue" points="299.193,-136.648 288.641,-137.599 297.483,-143.436 299.193,-136.648"/>
</g>
<!-- Node8 -->
<g id="node8" class="node"><title>Node8</title>
<g id="a_node8"><a xlink:href="classpanda_1_1MicroJet.html#ace34e537033194800fb766bd9cb18025" target="_top" xlink:title="Set address for the branches to the variables of this object. ">
<polygon fill="white" stroke="black" points="356.843,-117.5 356.843,-137.5 499.541,-137.5 499.541,-117.5 356.843,-117.5"/>
<text text-anchor="middle" x="428.192" y="-124.5" font-family="Helvetica,sans-Serif" font-size="10.00">panda::MicroJet::setAddress</text>
</a>
</g>
</g>
<!-- Node5&#45;&gt;Node8 -->
<g id="edge7" class="edge"><title>Node5&#45;&gt;Node8</title>
<path fill="none" stroke="midnightblue" d="M330.987,-127.5C339.584,-127.5 348.266,-127.5 356.713,-127.5"/>
<polygon fill="midnightblue" stroke="midnightblue" points="330.953,-124 320.953,-127.5 330.953,-131 330.953,-124"/>
</g>
<!-- Node11 -->
<g id="node11" class="node"><title>Node11</title>
<g id="a_node11"><a xlink:href="classpanda_1_1Parton.html#a94d47d8282b93fe05c2c339f5b2052f7" target="_top" xlink:title="Set address for the branches to the variables of this object. ">
<polygon fill="white" stroke="black" points="361.003,-78.5 361.003,-98.5 495.381,-98.5 495.381,-78.5 361.003,-78.5"/>
<text text-anchor="middle" x="428.192" y="-85.5" font-family="Helvetica,sans-Serif" font-size="10.00">panda::Parton::setAddress</text>
</a>
</g>
</g>
<!-- Node5&#45;&gt;Node11 -->
<g id="edge10" class="edge"><title>Node5&#45;&gt;Node11</title>
<path fill="none" stroke="midnightblue" d="M304.519,-115.281C329.233,-109.886 357.924,-103.622 381.343,-98.5094"/>
<polygon fill="midnightblue" stroke="midnightblue" points="303.578,-111.904 294.555,-117.457 305.071,-118.743 303.578,-111.904"/>
</g>
<!-- Node12 -->
<g id="node12" class="node"><title>Node12</title>
<g id="a_node12"><a xlink:href="classpanda_1_1PFCand.html#a4646580d00cd946b4f077afd3ee8b3b5" target="_top" xlink:title="Set address for the branches to the variables of this object. ">
<polygon fill="white" stroke="black" points="357.393,-39.5 357.393,-59.5 498.991,-59.5 498.991,-39.5 357.393,-39.5"/>
<text text-anchor="middle" x="428.192" y="-46.5" font-family="Helvetica,sans-Serif" font-size="10.00">panda::PFCand::setAddress</text>
</a>
</g>
</g>
<!-- Node5&#45;&gt;Node12 -->
<g id="edge11" class="edge"><title>Node5&#45;&gt;Node12</title>
<path fill="none" stroke="midnightblue" d="M310.776,-113.699C314.269,-112.144 317.652,-110.418 320.843,-108.5 341.061,-96.3479 336.747,-81.8535 356.843,-69.5 363.441,-65.4438 370.889,-62.185 378.408,-59.574"/>
<polygon fill="midnightblue" stroke="midnightblue" points="309.35,-110.498 301.331,-117.423 311.918,-117.01 309.35,-110.498"/>
</g>
<!-- Node13 -->
<g id="node13" class="node"><title>Node13</title>
<g id="a_node13"><a xlink:href="classpanda_1_1Tau.html#a67c457d171771dadcc84c33cfbda7e2c" target="_top" xlink:title="Set address for the branches to the variables of this object. ">
<polygon fill="white" stroke="black" points="367.116,-0.5 367.116,-20.5 489.267,-20.5 489.267,-0.5 367.116,-0.5"/>
<text text-anchor="middle" x="428.192" y="-7.5" font-family="Helvetica,sans-Serif" font-size="10.00">panda::Tau::setAddress</text>
</a>
</g>
</g>
<!-- Node5&#45;&gt;Node13 -->
<g id="edge12" class="edge"><title>Node5&#45;&gt;Node13</title>
<path fill="none" stroke="midnightblue" d="M315.354,-112.547C317.269,-111.303 319.106,-109.956 320.843,-108.5 350.102,-83.9705 327.831,-55.3206 356.843,-30.5 361.571,-26.4554 367.066,-23.2264 372.862,-20.649"/>
<polygon fill="midnightblue" stroke="midnightblue" points="313.623,-109.504 306.528,-117.374 316.981,-115.646 313.623,-109.504"/>
</g>
<!-- Node9 -->
<g id="node9" class="node"><title>Node9</title>
<g id="a_node9"><a xlink:href="classpanda_1_1Jet.html#a96b6f57c39cf4e35af339a58f828a78e" target="_top" xlink:title="Set address for the branches to the variables of this object. ">
<polygon fill="white" stroke="black" points="535.541,-117.5 535.541,-137.5 653.803,-137.5 653.803,-117.5 535.541,-117.5"/>
<text text-anchor="middle" x="594.672" y="-124.5" font-family="Helvetica,sans-Serif" font-size="10.00">panda::Jet::setAddress</text>
</a>
</g>
</g>
<!-- Node8&#45;&gt;Node9 -->
<g id="edge8" class="edge"><title>Node8&#45;&gt;Node9</title>
<path fill="none" stroke="midnightblue" d="M509.947,-127.5C518.532,-127.5 527.139,-127.5 535.393,-127.5"/>
<polygon fill="midnightblue" stroke="midnightblue" points="509.901,-124 499.901,-127.5 509.901,-131 509.901,-124"/>
</g>
<!-- Node10 -->
<g id="node10" class="node"><title>Node10</title>
<g id="a_node10"><a xlink:href="classpanda_1_1FatJet.html#a63392b9abcf86c432b0d7b34c7887cbf" target="_top" xlink:title="Set address for the branches to the variables of this object. ">
<polygon fill="white" stroke="black" points="689.803,-117.5 689.803,-137.5 822.512,-137.5 822.512,-117.5 689.803,-117.5"/>
<text text-anchor="middle" x="756.157" y="-124.5" font-family="Helvetica,sans-Serif" font-size="10.00">panda::FatJet::setAddress</text>
</a>
</g>
</g>
<!-- Node9&#45;&gt;Node10 -->
<g id="edge9" class="edge"><title>Node9&#45;&gt;Node10</title>
<path fill="none" stroke="midnightblue" d="M664.31,-127.5C672.727,-127.5 681.312,-127.5 689.681,-127.5"/>
<polygon fill="midnightblue" stroke="midnightblue" points="664.153,-124 654.153,-127.5 664.153,-131 664.153,-124"/>
</g>
</g>
</svg>
