<?xml version="1.0" encoding="UTF-8" standalone="no"?>
<!DOCTYPE svg PUBLIC "-//W3C//DTD SVG 1.1//EN"
 "http://www.w3.org/Graphics/SVG/1.1/DTD/svg11.dtd">
<!-- Generated by graphviz version 2.38.0 (20140413.2041)
 -->
<!-- Title: panda.branch.Branch.write_set_address Pages: 1 -->
<svg width="301pt" height="41pt"
 viewBox="0.00 0.00 301.07 41.00" xmlns="http://www.w3.org/2000/svg" xmlns:xlink="http://www.w3.org/1999/xlink">
<g id="graph0" class="graph" transform="scale(1 1) rotate(0) translate(4 37)">
<title>panda.branch.Branch.write_set_address</title>
<polygon fill="white" stroke="none" points="-4,4 -4,-37 297.068,-37 297.068,4 -4,4"/>
<!-- Node1 -->
<g id="node1" class="node"><title>Node1</title>
<polygon fill="#bfbfbf" stroke="black" points="-1.42109e-14,-0.5 -1.42109e-14,-32.5 135.477,-32.5 135.477,-0.5 -1.42109e-14,-0.5"/>
<text text-anchor="start" x="8" y="-19.5" font-family="Helvetica,sans-Serif" font-size="10.00">panda.branch.Branch.write</text>
<text text-anchor="middle" x="67.7385" y="-7.5" font-family="Helvetica,sans-Serif" font-size="10.00">_set_address</text>
</g>
<!-- Node2 -->
<g id="node2" class="node"><title>Node2</title>
<g id="a_node2"><a xlink:href="classpanda_1_1branch_1_1Branch.html#a9ff4186314d76f2444161163bd992495" target="_top" xlink:title="panda.branch.Branch.is\l_array">
<polygon fill="white" stroke="black" points="171.477,-0.5 171.477,-32.5 293.068,-32.5 293.068,-0.5 171.477,-0.5"/>
<text text-anchor="start" x="179.477" y="-19.5" font-family="Helvetica,sans-Serif" font-size="10.00">panda.branch.Branch.is</text>
<text text-anchor="middle" x="232.272" y="-7.5" font-family="Helvetica,sans-Serif" font-size="10.00">_array</text>
</a>
</g>
</g>
<!-- Node1&#45;&gt;Node2 -->
<g id="edge1" class="edge"><title>Node1&#45;&gt;Node2</title>
<path fill="none" stroke="midnightblue" d="M135.786,-16.5C144.178,-16.5 152.78,-16.5 161.217,-16.5"/>
<polygon fill="midnightblue" stroke="midnightblue" points="161.402,-20.0001 171.402,-16.5 161.402,-13.0001 161.402,-20.0001"/>
</g>
</g>
</svg>
