<?xml version="1.0" encoding="UTF-8" standalone="no"?>
<!DOCTYPE svg PUBLIC "-//W3C//DTD SVG 1.1//EN"
 "http://www.w3.org/Graphics/SVG/1.1/DTD/svg11.dtd">
<!-- Generated by graphviz version 2.38.0 (20140413.2041)
 -->
<!-- Title: panda::ArrayBase::init Pages: 1 -->
<svg width="288pt" height="182pt"
 viewBox="0.00 0.00 287.73 182.00" xmlns="http://www.w3.org/2000/svg" xmlns:xlink="http://www.w3.org/1999/xlink">
<g id="graph0" class="graph" transform="scale(1 1) rotate(0) translate(4 178)">
<title>panda::ArrayBase::init</title>
<polygon fill="white" stroke="none" points="-4,4 -4,-178 283.727,-178 283.727,4 -4,4"/>
<!-- Node1 -->
<g id="node1" class="node"><title>Node1</title>
<polygon fill="#bfbfbf" stroke="black" points="7.10543e-15,-70.5 7.10543e-15,-90.5 114.36,-90.5 114.36,-70.5 7.10543e-15,-70.5"/>
<text text-anchor="middle" x="57.18" y="-77.5" font-family="Helvetica,sans-Serif" font-size="10.00">panda::ArrayBase::init</text>
</g>
<!-- Node2 -->
<g id="node2" class="node"><title>Node2</title>
<g id="a_node2"><a xlink:href="classpanda_1_1ContainerBase.html#a14b14c940d7c8b0ce870c7df333e18a7" target="_top" xlink:title="panda::ContainerBase\l::getData">
<polygon fill="white" stroke="black" points="157.303,-141.5 157.303,-173.5 272.784,-173.5 272.784,-141.5 157.303,-141.5"/>
<text text-anchor="start" x="165.303" y="-160.5" font-family="Helvetica,sans-Serif" font-size="10.00">panda::ContainerBase</text>
<text text-anchor="middle" x="215.043" y="-148.5" font-family="Helvetica,sans-Serif" font-size="10.00">::getData</text>
</a>
</g>
</g>
<!-- Node1&#45;&gt;Node2 -->
<g id="edge1" class="edge"><title>Node1&#45;&gt;Node2</title>
<path fill="none" stroke="midnightblue" d="M74.4633,-90.6054C92.6012,-101.643 122.98,-119.481 150.36,-132.5 153.938,-134.201 157.666,-135.884 161.442,-137.524"/>
<polygon fill="midnightblue" stroke="midnightblue" points="160.299,-140.84 170.874,-141.498 163.017,-134.389 160.299,-140.84"/>
</g>
<!-- Node3 -->
<g id="node3" class="node"><title>Node3</title>
<g id="a_node3"><a xlink:href="structpanda_1_1ContainerElement_1_1datastore.html#aff3ea42523fa1d980435a5085c8f1289" target="_top" xlink:title="panda::ContainerElement\l::datastore::nmax">
<polygon fill="white" stroke="black" points="150.36,-90.5 150.36,-122.5 279.727,-122.5 279.727,-90.5 150.36,-90.5"/>
<text text-anchor="start" x="158.36" y="-109.5" font-family="Helvetica,sans-Serif" font-size="10.00">panda::ContainerElement</text>
<text text-anchor="middle" x="215.043" y="-97.5" font-family="Helvetica,sans-Serif" font-size="10.00">::datastore::nmax</text>
</a>
</g>
</g>
<!-- Node1&#45;&gt;Node3 -->
<g id="edge2" class="edge"><title>Node1&#45;&gt;Node3</title>
<path fill="none" stroke="midnightblue" d="M114.45,-89.8866C122.786,-91.2771 131.481,-92.7275 140.11,-94.1669"/>
<polygon fill="midnightblue" stroke="midnightblue" points="139.744,-97.6543 150.184,-95.8474 140.896,-90.7497 139.744,-97.6543"/>
</g>
<!-- Node4 -->
<g id="node4" class="node"><title>Node4</title>
<g id="a_node4"><a xlink:href="classpanda_1_1ContainerBase.html#a611d8e68bcae5de2046874b340256fb4" target="_top" xlink:title="panda::ContainerBase\l::elemAt">
<polygon fill="white" stroke="black" points="157.303,-39.5 157.303,-71.5 272.784,-71.5 272.784,-39.5 157.303,-39.5"/>
<text text-anchor="start" x="165.303" y="-58.5" font-family="Helvetica,sans-Serif" font-size="10.00">panda::ContainerBase</text>
<text text-anchor="middle" x="215.043" y="-46.5" font-family="Helvetica,sans-Serif" font-size="10.00">::elemAt</text>
</a>
</g>
</g>
<!-- Node1&#45;&gt;Node4 -->
<g id="edge3" class="edge"><title>Node1&#45;&gt;Node4</title>
<path fill="none" stroke="midnightblue" d="M114.45,-71.4744C125.065,-69.7718 136.263,-67.9758 147.165,-66.227"/>
<polygon fill="midnightblue" stroke="midnightblue" points="147.751,-69.678 157.07,-64.6383 146.642,-62.7663 147.751,-69.678"/>
</g>
<!-- Node5 -->
<g id="node5" class="node"><title>Node5</title>
<g id="a_node5"><a xlink:href="classpanda_1_1Object.html#a204960e5f165a28176f9b4a42b9ea90c" target="_top" xlink:title="Reset object state. ">
<polygon fill="white" stroke="black" points="166.752,-0.5 166.752,-20.5 263.334,-20.5 263.334,-0.5 166.752,-0.5"/>
<text text-anchor="middle" x="215.043" y="-7.5" font-family="Helvetica,sans-Serif" font-size="10.00">panda::Object::init</text>
</a>
</g>
</g>
<!-- Node1&#45;&gt;Node5 -->
<g id="edge4" class="edge"><title>Node1&#45;&gt;Node5</title>
<path fill="none" stroke="midnightblue" d="M74.3566,-70.4792C92.4012,-59.6005 122.699,-42.2162 150.36,-30.5 156.102,-28.0678 162.244,-25.7744 168.364,-23.6689"/>
<polygon fill="midnightblue" stroke="midnightblue" points="169.503,-26.9789 177.903,-20.522 167.31,-20.3313 169.503,-26.9789"/>
</g>
</g>
</svg>
