<?xml version="1.0" encoding="UTF-8" standalone="no"?>
<!DOCTYPE svg PUBLIC "-//W3C//DTD SVG 1.1//EN"
 "http://www.w3.org/Graphics/SVG/1.1/DTD/svg11.dtd">
<!-- Generated by graphviz version 2.38.0 (20140413.2041)
 -->
<!-- Title: panda::RecoMet::book Pages: 1 -->
<svg width="576pt" height="96pt"
 viewBox="0.00 0.00 575.69 96.00" xmlns="http://www.w3.org/2000/svg" xmlns:xlink="http://www.w3.org/1999/xlink">
<g id="graph0" class="graph" transform="scale(1 1) rotate(0) translate(4 92)">
<title>panda::RecoMet::book</title>
<polygon fill="white" stroke="none" points="-4,4 -4,-92 571.694,-92 571.694,4 -4,4"/>
<!-- Node1 -->
<g id="node1" class="node"><title>Node1</title>
<polygon fill="#bfbfbf" stroke="black" points="-4.9738e-14,-47.5 -4.9738e-14,-67.5 116.592,-67.5 116.592,-47.5 -4.9738e-14,-47.5"/>
<text text-anchor="middle" x="58.296" y="-54.5" font-family="Helvetica,sans-Serif" font-size="10.00">panda::RecoMet::book</text>
</g>
<!-- Node2 -->
<g id="node2" class="node"><title>Node2</title>
<g id="a_node2"><a xlink:href="classpanda_1_1Met.html#aca05a4a18ca9ff84de5761e081169fd3" target="_top" xlink:title="Book new branches to the tree corresponding to the variables of this object. ">
<polygon fill="white" stroke="black" points="152.592,-67.5 152.592,-87.5 245.847,-87.5 245.847,-67.5 152.592,-67.5"/>
<text text-anchor="middle" x="199.219" y="-74.5" font-family="Helvetica,sans-Serif" font-size="10.00">panda::Met::book</text>
</a>
</g>
</g>
<!-- Node1&#45;&gt;Node2 -->
<g id="edge1" class="edge"><title>Node1&#45;&gt;Node2</title>
<path fill="none" stroke="midnightblue" d="M116.604,-65.7502C125.106,-66.9742 133.858,-68.2343 142.331,-69.454"/>
<polygon fill="midnightblue" stroke="midnightblue" points="142.093,-72.9559 152.49,-70.9166 143.091,-66.0273 142.093,-72.9559"/>
</g>
<!-- Node4 -->
<g id="node4" class="node"><title>Node4</title>
<g id="a_node4"><a xlink:href="namespacepanda_1_1utils.html#aaa6c7cd5892388e6ffdf713b11abf793" target="_top" xlink:title="Book the branch. ">
<polygon fill="white" stroke="black" points="287.406,-28.5 287.406,-48.5 381.77,-48.5 381.77,-28.5 287.406,-28.5"/>
<text text-anchor="middle" x="334.588" y="-35.5" font-family="Helvetica,sans-Serif" font-size="10.00">panda::utils::book</text>
</a>
</g>
</g>
<!-- Node1&#45;&gt;Node4 -->
<g id="edge6" class="edge"><title>Node1&#45;&gt;Node4</title>
<path fill="none" stroke="midnightblue" d="M116.797,-53.517C163.923,-50.2526 230.249,-45.6583 277.098,-42.4131"/>
<polygon fill="midnightblue" stroke="midnightblue" points="277.346,-45.9043 287.08,-41.7216 276.862,-38.9211 277.346,-45.9043"/>
</g>
<!-- Node3 -->
<g id="node3" class="node"><title>Node3</title>
<g id="a_node3"><a xlink:href="classpanda_1_1Object.html#a2fcd6665633deef16e86aa4e49135dd7" target="_top" xlink:title="Book new branches to the tree corresponding to the variables of this object. ">
<polygon fill="white" stroke="black" points="281.847,-67.5 281.847,-87.5 387.33,-87.5 387.33,-67.5 281.847,-67.5"/>
<text text-anchor="middle" x="334.588" y="-74.5" font-family="Helvetica,sans-Serif" font-size="10.00">panda::Object::book</text>
</a>
</g>
</g>
<!-- Node2&#45;&gt;Node3 -->
<g id="edge2" class="edge"><title>Node2&#45;&gt;Node3</title>
<path fill="none" stroke="midnightblue" d="M246.118,-77.5C254.349,-77.5 263.051,-77.5 271.647,-77.5"/>
<polygon fill="midnightblue" stroke="midnightblue" points="271.655,-81.0001 281.655,-77.5 271.655,-74.0001 271.655,-81.0001"/>
</g>
<!-- Node2&#45;&gt;Node4 -->
<g id="edge3" class="edge"><title>Node2&#45;&gt;Node4</title>
<path fill="none" stroke="midnightblue" d="M234.565,-67.4565C251.367,-62.5435 271.781,-56.5737 289.7,-51.334"/>
<polygon fill="midnightblue" stroke="midnightblue" points="290.743,-54.6755 299.359,-48.5094 288.779,-47.9569 290.743,-54.6755"/>
</g>
<!-- Node5 -->
<g id="node5" class="node"><title>Node5</title>
<g id="a_node5"><a xlink:href="classpanda_1_1utils_1_1BranchName.html#a6cc8a6df7c5b12a0221fd49773cca6a7" target="_top" xlink:title="Is the name included and not vetoed? ">
<polygon fill="white" stroke="black" points="423.33,-51.5 423.33,-71.5 567.694,-71.5 567.694,-51.5 423.33,-51.5"/>
<text text-anchor="middle" x="495.512" y="-58.5" font-family="Helvetica,sans-Serif" font-size="10.00">panda::utils::BranchName::in</text>
</a>
</g>
</g>
<!-- Node4&#45;&gt;Node5 -->
<g id="edge4" class="edge"><title>Node4&#45;&gt;Node5</title>
<path fill="none" stroke="midnightblue" d="M381.983,-45.2144C392.47,-46.7322 403.893,-48.3853 415.309,-50.0374"/>
<polygon fill="midnightblue" stroke="midnightblue" points="414.917,-53.5171 425.315,-51.4856 415.92,-46.5893 414.917,-53.5171"/>
</g>
<!-- Node6 -->
<g id="node6" class="node"><title>Node6</title>
<g id="a_node6"><a xlink:href="classpanda_1_1utils_1_1BranchName.html#a13958ff4a9d554d2c057c600b4f70412" target="_top" xlink:title="Prepend the branch name with &lt;objName.&gt;. ">
<polygon fill="white" stroke="black" points="429.998,-0.5 429.998,-32.5 561.026,-32.5 561.026,-0.5 429.998,-0.5"/>
<text text-anchor="start" x="437.998" y="-19.5" font-family="Helvetica,sans-Serif" font-size="10.00">panda::utils::BranchName</text>
<text text-anchor="middle" x="495.512" y="-7.5" font-family="Helvetica,sans-Serif" font-size="10.00">::fullName</text>
</a>
</g>
</g>
<!-- Node4&#45;&gt;Node6 -->
<g id="edge5" class="edge"><title>Node4&#45;&gt;Node6</title>
<path fill="none" stroke="midnightblue" d="M381.983,-32.0775C393.767,-30.4463 406.731,-28.6516 419.54,-26.8785"/>
<polygon fill="midnightblue" stroke="midnightblue" points="420.327,-30.303 429.753,-25.4647 419.367,-23.3691 420.327,-30.303"/>
</g>
</g>
</svg>
