<?xml version="1.0" encoding="UTF-8" standalone="no"?>
<!DOCTYPE svg PUBLIC "-//W3C//DTD SVG 1.1//EN"
 "http://www.w3.org/Graphics/SVG/1.1/DTD/svg11.dtd">
<!-- Generated by graphviz version 2.38.0 (20140413.2041)
 -->
<!-- Title: panda::GenReweight::book Pages: 1 -->
<svg width="440pt" height="96pt"
 viewBox="0.00 0.00 439.77 96.00" xmlns="http://www.w3.org/2000/svg" xmlns:xlink="http://www.w3.org/1999/xlink">
<g id="graph0" class="graph" transform="scale(1 1) rotate(0) translate(4 92)">
<title>panda::GenReweight::book</title>
<polygon fill="white" stroke="none" points="-4,4 -4,-92 435.769,-92 435.769,4 -4,4"/>
<!-- Node1 -->
<g id="node1" class="node"><title>Node1</title>
<polygon fill="#bfbfbf" stroke="black" points="1.42109e-14,-41.5 1.42109e-14,-73.5 109.922,-73.5 109.922,-41.5 1.42109e-14,-41.5"/>
<text text-anchor="start" x="8" y="-60.5" font-family="Helvetica,sans-Serif" font-size="10.00">panda::GenReweight</text>
<text text-anchor="middle" x="54.961" y="-48.5" font-family="Helvetica,sans-Serif" font-size="10.00">::book</text>
</g>
<!-- Node2 -->
<g id="node2" class="node"><title>Node2</title>
<g id="a_node2"><a xlink:href="classpanda_1_1Object.html#a2fcd6665633deef16e86aa4e49135dd7" target="_top" xlink:title="Book new branches to the tree corresponding to the variables of this object. ">
<polygon fill="white" stroke="black" points="145.922,-67.5 145.922,-87.5 251.405,-87.5 251.405,-67.5 145.922,-67.5"/>
<text text-anchor="middle" x="198.663" y="-74.5" font-family="Helvetica,sans-Serif" font-size="10.00">panda::Object::book</text>
</a>
</g>
</g>
<!-- Node1&#45;&gt;Node2 -->
<g id="edge1" class="edge"><title>Node1&#45;&gt;Node2</title>
<path fill="none" stroke="midnightblue" d="M109.937,-65.1182C118.369,-66.3083 127.14,-67.5463 135.733,-68.7591"/>
<polygon fill="midnightblue" stroke="midnightblue" points="135.317,-72.235 145.708,-70.167 136.295,-65.3037 135.317,-72.235"/>
</g>
<!-- Node3 -->
<g id="node3" class="node"><title>Node3</title>
<g id="a_node3"><a xlink:href="namespacepanda_1_1utils.html#aaa6c7cd5892388e6ffdf713b11abf793" target="_top" xlink:title="Book the branch. ">
<polygon fill="white" stroke="black" points="151.482,-28.5 151.482,-48.5 245.845,-48.5 245.845,-28.5 151.482,-28.5"/>
<text text-anchor="middle" x="198.663" y="-35.5" font-family="Helvetica,sans-Serif" font-size="10.00">panda::utils::book</text>
</a>
</g>
</g>
<!-- Node1&#45;&gt;Node3 -->
<g id="edge2" class="edge"><title>Node1&#45;&gt;Node3</title>
<path fill="none" stroke="midnightblue" d="M109.937,-50.2627C120.144,-48.8941 130.847,-47.4591 141.13,-46.0803"/>
<polygon fill="midnightblue" stroke="midnightblue" points="141.793,-49.5228 151.239,-44.7248 140.862,-42.5849 141.793,-49.5228"/>
</g>
<!-- Node4 -->
<g id="node4" class="node"><title>Node4</title>
<g id="a_node4"><a xlink:href="classpanda_1_1utils_1_1BranchName.html#a6cc8a6df7c5b12a0221fd49773cca6a7" target="_top" xlink:title="Is the name included and not vetoed? ">
<polygon fill="white" stroke="black" points="287.405,-51.5 287.405,-71.5 431.769,-71.5 431.769,-51.5 287.405,-51.5"/>
<text text-anchor="middle" x="359.587" y="-58.5" font-family="Helvetica,sans-Serif" font-size="10.00">panda::utils::BranchName::in</text>
</a>
</g>
</g>
<!-- Node3&#45;&gt;Node4 -->
<g id="edge3" class="edge"><title>Node3&#45;&gt;Node4</title>
<path fill="none" stroke="midnightblue" d="M246.058,-45.2144C256.545,-46.7322 267.968,-48.3853 279.384,-50.0374"/>
<polygon fill="midnightblue" stroke="midnightblue" points="278.992,-53.5171 289.39,-51.4856 279.995,-46.5893 278.992,-53.5171"/>
</g>
<!-- Node5 -->
<g id="node5" class="node"><title>Node5</title>
<g id="a_node5"><a xlink:href="classpanda_1_1utils_1_1BranchName.html#a13958ff4a9d554d2c057c600b4f70412" target="_top" xlink:title="Prepend the branch name with &lt;objName.&gt;. ">
<polygon fill="white" stroke="black" points="294.073,-0.5 294.073,-32.5 425.101,-32.5 425.101,-0.5 294.073,-0.5"/>
<text text-anchor="start" x="302.073" y="-19.5" font-family="Helvetica,sans-Serif" font-size="10.00">panda::utils::BranchName</text>
<text text-anchor="middle" x="359.587" y="-7.5" font-family="Helvetica,sans-Serif" font-size="10.00">::fullName</text>
</a>
</g>
</g>
<!-- Node3&#45;&gt;Node5 -->
<g id="edge4" class="edge"><title>Node3&#45;&gt;Node5</title>
<path fill="none" stroke="midnightblue" d="M246.058,-32.0775C257.842,-30.4463 270.806,-28.6516 283.615,-26.8785"/>
<polygon fill="midnightblue" stroke="midnightblue" points="284.402,-30.303 293.828,-25.4647 283.442,-23.3691 284.402,-30.303"/>
</g>
</g>
</svg>
