<?xml version="1.0" encoding="UTF-8" standalone="no"?>
<!DOCTYPE svg PUBLIC "-//W3C//DTD SVG 1.1//EN"
 "http://www.w3.org/Graphics/SVG/1.1/DTD/svg11.dtd">
<!-- Generated by graphviz version 2.38.0 (20140413.2041)
 -->
<!-- Title: panda::FatJet::setAddress Pages: 1 -->
<svg width="1333pt" height="319pt"
 viewBox="0.00 0.00 1333.28 318.50" xmlns="http://www.w3.org/2000/svg" xmlns:xlink="http://www.w3.org/1999/xlink">
<g id="graph0" class="graph" transform="scale(1 1) rotate(0) translate(4 314.5)">
<title>panda::FatJet::setAddress</title>
<polygon fill="white" stroke="none" points="-4,4 -4,-314.5 1329.28,-314.5 1329.28,4 -4,4"/>
<!-- Node1 -->
<g id="node1" class="node"><title>Node1</title>
<polygon fill="#bfbfbf" stroke="black" points="-7.10543e-14,-120 -7.10543e-14,-140 132.709,-140 132.709,-120 -7.10543e-14,-120"/>
<text text-anchor="middle" x="66.3545" y="-127" font-family="Helvetica,sans-Serif" font-size="10.00">panda::FatJet::setAddress</text>
</g>
<!-- Node2 -->
<g id="node2" class="node"><title>Node2</title>
<g id="a_node2"><a xlink:href="classpanda_1_1Jet.html#a96b6f57c39cf4e35af339a58f828a78e" target="_top" xlink:title="Set address for the branches to the variables of this object. ">
<polygon fill="white" stroke="black" points="168.709,-120 168.709,-140 286.971,-140 286.971,-120 168.709,-120"/>
<text text-anchor="middle" x="227.84" y="-127" font-family="Helvetica,sans-Serif" font-size="10.00">panda::Jet::setAddress</text>
</a>
</g>
</g>
<!-- Node1&#45;&gt;Node2 -->
<g id="edge1" class="edge"><title>Node1&#45;&gt;Node2</title>
<path fill="none" stroke="midnightblue" d="M133.144,-130C141.501,-130 150.07,-130 158.466,-130"/>
<polygon fill="midnightblue" stroke="midnightblue" points="158.597,-133.5 168.597,-130 158.597,-126.5 158.597,-133.5"/>
</g>
<!-- Node7 -->
<g id="node7" class="node"><title>Node7</title>
<g id="a_node7"><a xlink:href="classpanda_1_1utils_1_1StoreManager.html#a6f30ec459d951e84a1196b7e2ffdcf49" target="_top" xlink:title="panda::utils::StoreManager\l::getName">
<polygon fill="white" stroke="black" points="858.512,-60 858.512,-92 994.547,-92 994.547,-60 858.512,-60"/>
<text text-anchor="start" x="866.512" y="-79" font-family="Helvetica,sans-Serif" font-size="10.00">panda::utils::StoreManager</text>
<text text-anchor="middle" x="926.529" y="-67" font-family="Helvetica,sans-Serif" font-size="10.00">::getName</text>
</a>
</g>
</g>
<!-- Node1&#45;&gt;Node7 -->
<g id="edge23" class="edge"><title>Node1&#45;&gt;Node7</title>
<path fill="none" stroke="midnightblue" d="M81.4857,-119.799C125.376,-89.1528 264.157,-0 393.32,-0 393.32,-0 393.32,-0 575.962,-0 682.662,-0 803.585,-34.2282 871.586,-56.7437"/>
<polygon fill="midnightblue" stroke="midnightblue" points="870.633,-60.1156 881.227,-59.9752 872.858,-53.4785 870.633,-60.1156"/>
</g>
<!-- Node8 -->
<g id="node8" class="node"><title>Node8</title>
<g id="a_node8"><a xlink:href="namespacepanda_1_1utils.html#abf9c62e588560197c2bae9932e6a6e05" target="_top" xlink:title="Set address. ">
<polygon fill="white" stroke="black" points="865.179,-220 865.179,-240 987.879,-240 987.879,-220 865.179,-220"/>
<text text-anchor="middle" x="926.529" y="-227" font-family="Helvetica,sans-Serif" font-size="10.00">panda::utils::setAddress</text>
</a>
</g>
</g>
<!-- Node1&#45;&gt;Node8 -->
<g id="edge24" class="edge"><title>Node1&#45;&gt;Node8</title>
<path fill="none" stroke="midnightblue" d="M77.2427,-140.223C114.688,-177.786 252.795,-306 393.32,-306 393.32,-306 393.32,-306 575.962,-306 692.394,-306 825.762,-265.243 888.822,-243.423"/>
<polygon fill="midnightblue" stroke="midnightblue" points="890.046,-246.702 898.325,-240.092 887.731,-240.096 890.046,-246.702"/>
</g>
<!-- Node3 -->
<g id="node3" class="node"><title>Node3</title>
<g id="a_node3"><a xlink:href="classpanda_1_1MicroJet.html#ace34e537033194800fb766bd9cb18025" target="_top" xlink:title="Set address for the branches to the variables of this object. ">
<polygon fill="white" stroke="black" points="322.971,-143 322.971,-163 465.669,-163 465.669,-143 322.971,-143"/>
<text text-anchor="middle" x="394.32" y="-150" font-family="Helvetica,sans-Serif" font-size="10.00">panda::MicroJet::setAddress</text>
</a>
</g>
</g>
<!-- Node2&#45;&gt;Node3 -->
<g id="edge2" class="edge"><title>Node2&#45;&gt;Node3</title>
<path fill="none" stroke="midnightblue" d="M287.293,-138.174C295.588,-139.334 304.238,-140.543 312.861,-141.749"/>
<polygon fill="midnightblue" stroke="midnightblue" points="312.56,-145.241 322.949,-143.16 313.53,-138.308 312.56,-145.241"/>
</g>
<!-- Node2&#45;&gt;Node7 -->
<g id="edge20" class="edge"><title>Node2&#45;&gt;Node7</title>
<path fill="none" stroke="midnightblue" d="M243.32,-119.912C261.116,-108.174 292.689,-89.4526 322.971,-82 506.876,-36.739 732.011,-52.4921 848.093,-65.599"/>
<polygon fill="midnightblue" stroke="midnightblue" points="847.966,-69.1075 858.301,-66.7768 848.769,-62.1536 847.966,-69.1075"/>
</g>
<!-- Node2&#45;&gt;Node8 -->
<g id="edge21" class="edge"><title>Node2&#45;&gt;Node8</title>
<path fill="none" stroke="midnightblue" d="M247.771,-140.13C266.407,-149.693 295.924,-163.76 322.971,-172 478.471,-219.374 522.129,-217.177 684.255,-229 741.59,-233.181 806.791,-233.167 854.948,-232.254"/>
<polygon fill="midnightblue" stroke="midnightblue" points="855.031,-235.753 864.956,-232.046 854.886,-228.754 855.031,-235.753"/>
</g>
<!-- Node14 -->
<g id="node14" class="node"><title>Node14</title>
<g id="a_node14"><a xlink:href="classpanda_1_1utils_1_1StoreManager.html#ae6c8fb6b0c3d25147b09ef8b92b61da8" target="_top" xlink:title="panda::utils::StoreManager\l::getData">
<polygon fill="white" stroke="black" points="326.302,-92 326.302,-124 462.337,-124 462.337,-92 326.302,-92"/>
<text text-anchor="start" x="334.302" y="-111" font-family="Helvetica,sans-Serif" font-size="10.00">panda::utils::StoreManager</text>
<text text-anchor="middle" x="394.32" y="-99" font-family="Helvetica,sans-Serif" font-size="10.00">::getData</text>
</a>
</g>
</g>
<!-- Node2&#45;&gt;Node14 -->
<g id="edge22" class="edge"><title>Node2&#45;&gt;Node14</title>
<path fill="none" stroke="midnightblue" d="M287.293,-122.182C296.613,-120.935 306.379,-119.629 316.053,-118.335"/>
<polygon fill="midnightblue" stroke="midnightblue" points="316.631,-121.789 326.079,-116.994 315.703,-114.851 316.631,-121.789"/>
</g>
<!-- Node4 -->
<g id="node4" class="node"><title>Node4</title>
<g id="a_node4"><a xlink:href="classpanda_1_1ParticleM.html#ad8aeae1e2ca26f4cdb7d079ab56a10fe" target="_top" xlink:title="Set address for the branches to the variables of this object. ">
<polygon fill="white" stroke="black" points="501.669,-143 501.669,-163 648.255,-163 648.255,-143 501.669,-143"/>
<text text-anchor="middle" x="574.962" y="-150" font-family="Helvetica,sans-Serif" font-size="10.00">panda::ParticleM::setAddress</text>
</a>
</g>
</g>
<!-- Node3&#45;&gt;Node4 -->
<g id="edge3" class="edge"><title>Node3&#45;&gt;Node4</title>
<path fill="none" stroke="midnightblue" d="M465.924,-153C474.244,-153 482.791,-153 491.259,-153"/>
<polygon fill="midnightblue" stroke="midnightblue" points="491.527,-156.5 501.527,-153 491.527,-149.5 491.527,-156.5"/>
</g>
<!-- Node3&#45;&gt;Node7 -->
<g id="edge18" class="edge"><title>Node3&#45;&gt;Node7</title>
<path fill="none" stroke="midnightblue" d="M437.16,-142.963C493.118,-129.917 595.575,-107.347 684.255,-95 738.826,-87.4019 800.795,-82.6026 848.266,-79.7283"/>
<polygon fill="midnightblue" stroke="midnightblue" points="848.696,-83.2092 858.473,-79.1264 848.284,-76.2213 848.696,-83.2092"/>
</g>
<!-- Node3&#45;&gt;Node8 -->
<g id="edge19" class="edge"><title>Node3&#45;&gt;Node8</title>
<path fill="none" stroke="midnightblue" d="M442.15,-163.092C499.123,-175.059 598.35,-194.903 684.255,-207 741.438,-215.053 806.65,-221.081 854.85,-224.942"/>
<polygon fill="midnightblue" stroke="midnightblue" points="854.623,-228.435 864.868,-225.733 855.174,-221.457 854.623,-228.435"/>
</g>
<!-- Node5 -->
<g id="node5" class="node"><title>Node5</title>
<g id="a_node5"><a xlink:href="classpanda_1_1Particle.html#a96282cfb24384c1f00c40576069a4c7e" target="_top" xlink:title="Set address for the branches to the variables of this object. ">
<polygon fill="white" stroke="black" points="684.255,-143 684.255,-163 822.512,-163 822.512,-143 684.255,-143"/>
<text text-anchor="middle" x="753.383" y="-150" font-family="Helvetica,sans-Serif" font-size="10.00">panda::Particle::setAddress</text>
</a>
</g>
</g>
<!-- Node4&#45;&gt;Node5 -->
<g id="edge4" class="edge"><title>Node4&#45;&gt;Node5</title>
<path fill="none" stroke="midnightblue" d="M648.483,-153C656.861,-153 665.435,-153 673.887,-153"/>
<polygon fill="midnightblue" stroke="midnightblue" points="674.117,-156.5 684.117,-153 674.117,-149.5 674.117,-156.5"/>
</g>
<!-- Node4&#45;&gt;Node7 -->
<g id="edge16" class="edge"><title>Node4&#45;&gt;Node7</title>
<path fill="none" stroke="midnightblue" d="M621.662,-142.934C679.166,-130.267 778.787,-108.323 848.228,-93.0274"/>
<polygon fill="midnightblue" stroke="midnightblue" points="849.233,-96.39 858.246,-90.8207 847.727,-89.5539 849.233,-96.39"/>
</g>
<!-- Node4&#45;&gt;Node8 -->
<g id="edge17" class="edge"><title>Node4&#45;&gt;Node8</title>
<path fill="none" stroke="midnightblue" d="M621.662,-163.066C685.604,-177.151 801.623,-202.707 870.316,-217.838"/>
<polygon fill="midnightblue" stroke="midnightblue" points="869.577,-221.259 880.096,-219.992 871.083,-214.423 869.577,-221.259"/>
</g>
<!-- Node6 -->
<g id="node6" class="node"><title>Node6</title>
<g id="a_node6"><a xlink:href="classpanda_1_1Object.html#aed9f9d3b6abe518dd27957de843b36b5" target="_top" xlink:title="Set address for the branches to the variables of this object. ">
<polygon fill="white" stroke="black" points="859.62,-143 859.62,-163 993.439,-163 993.439,-143 859.62,-143"/>
<text text-anchor="middle" x="926.529" y="-150" font-family="Helvetica,sans-Serif" font-size="10.00">panda::Object::setAddress</text>
</a>
</g>
</g>
<!-- Node5&#45;&gt;Node6 -->
<g id="edge5" class="edge"><title>Node5&#45;&gt;Node6</title>
<path fill="none" stroke="midnightblue" d="M822.517,-153C831.389,-153 840.523,-153 849.514,-153"/>
<polygon fill="midnightblue" stroke="midnightblue" points="849.583,-156.5 859.583,-153 849.583,-149.5 849.583,-156.5"/>
</g>
<!-- Node5&#45;&gt;Node7 -->
<g id="edge6" class="edge"><title>Node5&#45;&gt;Node7</title>
<path fill="none" stroke="midnightblue" d="M784.188,-142.907C796.215,-138.617 810.146,-133.368 822.512,-128 844.148,-118.607 867.673,-106.855 886.772,-96.9011"/>
<polygon fill="midnightblue" stroke="midnightblue" points="888.54,-99.9261 895.765,-92.1771 885.284,-93.7291 888.54,-99.9261"/>
</g>
<!-- Node5&#45;&gt;Node8 -->
<g id="edge7" class="edge"><title>Node5&#45;&gt;Node8</title>
<path fill="none" stroke="midnightblue" d="M784.188,-163.093C796.215,-167.383 810.146,-172.632 822.512,-178 848.689,-189.364 877.629,-204.181 898.153,-215.09"/>
<polygon fill="midnightblue" stroke="midnightblue" points="896.759,-218.314 907.227,-219.95 900.064,-212.143 896.759,-218.314"/>
</g>
<!-- Node9 -->
<g id="node9" class="node"><title>Node9</title>
<g id="a_node9"><a xlink:href="classpanda_1_1utils_1_1BranchName.html#a13958ff4a9d554d2c057c600b4f70412" target="_top" xlink:title="Prepend the branch name with &lt;objName.&gt;. ">
<polygon fill="white" stroke="black" points="1187.58,-278 1187.58,-310 1318.61,-310 1318.61,-278 1187.58,-278"/>
<text text-anchor="start" x="1195.58" y="-297" font-family="Helvetica,sans-Serif" font-size="10.00">panda::utils::BranchName</text>
<text text-anchor="middle" x="1253.1" y="-285" font-family="Helvetica,sans-Serif" font-size="10.00">::fullName</text>
</a>
</g>
</g>
<!-- Node8&#45;&gt;Node9 -->
<g id="edge8" class="edge"><title>Node8&#45;&gt;Node9</title>
<path fill="none" stroke="midnightblue" d="M968.531,-240.051C987.374,-244.541 1010.05,-249.764 1030.55,-254 1079.27,-264.068 1134.32,-274.013 1177.36,-281.469"/>
<polygon fill="midnightblue" stroke="midnightblue" points="1177.01,-284.962 1187.46,-283.213 1178.2,-278.064 1177.01,-284.962"/>
</g>
<!-- Node10 -->
<g id="node10" class="node"><title>Node10</title>
<g id="a_node10"><a xlink:href="namespacepanda_1_1utils.html#a01665f786d6a2acedb8f008f3fc9fc84" target="_top" xlink:title="Set status of a branch. ">
<polygon fill="white" stroke="black" points="1030.55,-200 1030.55,-220 1144.92,-220 1144.92,-200 1030.55,-200"/>
<text text-anchor="middle" x="1087.73" y="-207" font-family="Helvetica,sans-Serif" font-size="10.00">panda::utils::setStatus</text>
</a>
</g>
</g>
<!-- Node8&#45;&gt;Node10 -->
<g id="edge9" class="edge"><title>Node8&#45;&gt;Node10</title>
<path fill="none" stroke="midnightblue" d="M988.171,-222.382C998.693,-221.06 1009.68,-219.679 1020.35,-218.34"/>
<polygon fill="midnightblue" stroke="midnightblue" points="1020.96,-221.79 1030.45,-217.071 1020.09,-214.845 1020.96,-221.79"/>
</g>
<!-- Node11 -->
<g id="node11" class="node"><title>Node11</title>
<g id="a_node11"><a xlink:href="classpanda_1_1utils_1_1BranchName.html#a6cc8a6df7c5b12a0221fd49773cca6a7" target="_top" xlink:title="Is the name included and not vetoed? ">
<polygon fill="white" stroke="black" points="1180.92,-239 1180.92,-259 1325.28,-259 1325.28,-239 1180.92,-239"/>
<text text-anchor="middle" x="1253.1" y="-246" font-family="Helvetica,sans-Serif" font-size="10.00">panda::utils::BranchName::in</text>
</a>
</g>
</g>
<!-- Node8&#45;&gt;Node11 -->
<g id="edge14" class="edge"><title>Node8&#45;&gt;Node11</title>
<path fill="none" stroke="midnightblue" d="M988.198,-233.551C1039.69,-236.566 1114.03,-240.917 1170.69,-244.234"/>
<polygon fill="midnightblue" stroke="midnightblue" points="1170.51,-247.73 1180.69,-244.82 1170.92,-240.742 1170.51,-247.73"/>
</g>
<!-- Node13 -->
<g id="node13" class="node"><title>Node13</title>
<g id="a_node13"><a xlink:href="namespacepanda_1_1utils.html#aafa411773a4b0ee829d99e6e5a0abdcd" target="_top" xlink:title="Check status of a branch. ">
<polygon fill="white" stroke="black" points="1189.52,-149 1189.52,-169 1316.67,-169 1316.67,-149 1189.52,-149"/>
<text text-anchor="middle" x="1253.1" y="-156" font-family="Helvetica,sans-Serif" font-size="10.00">panda::utils::checkStatus</text>
</a>
</g>
</g>
<!-- Node8&#45;&gt;Node13 -->
<g id="edge15" class="edge"><title>Node8&#45;&gt;Node13</title>
<path fill="none" stroke="midnightblue" d="M949.148,-219.91C969.664,-210.745 1001.58,-197.541 1030.55,-190 1079.36,-177.291 1135.68,-169.498 1179.31,-164.904"/>
<polygon fill="midnightblue" stroke="midnightblue" points="1179.67,-168.385 1189.27,-163.888 1178.96,-161.422 1179.67,-168.385"/>
</g>
<!-- Node10&#45;&gt;Node9 -->
<g id="edge12" class="edge"><title>Node10&#45;&gt;Node9</title>
<path fill="none" stroke="midnightblue" d="M1102.56,-220.011C1120.14,-232.421 1151.72,-253.681 1180.92,-268 1185.2,-270.098 1189.69,-272.123 1194.25,-274.053"/>
<polygon fill="midnightblue" stroke="midnightblue" points="1193.08,-277.354 1203.66,-277.876 1195.71,-270.869 1193.08,-277.354"/>
</g>
<!-- Node10&#45;&gt;Node11 -->
<g id="edge10" class="edge"><title>Node10&#45;&gt;Node11</title>
<path fill="none" stroke="midnightblue" d="M1130.8,-220.043C1151.95,-225.093 1177.78,-231.259 1200.16,-236.601"/>
<polygon fill="midnightblue" stroke="midnightblue" points="1199.63,-240.073 1210.17,-238.991 1201.26,-233.264 1199.63,-240.073"/>
</g>
<!-- Node12 -->
<g id="node12" class="node"><title>Node12</title>
<g id="a_node12"><a xlink:href="classpanda_1_1utils_1_1BranchName.html#ae3332329bf2afae5ed8e7c35e5d77ffa" target="_top" xlink:title="Is the name included and vetoed? ">
<polygon fill="white" stroke="black" points="1187.58,-188 1187.58,-220 1318.61,-220 1318.61,-188 1187.58,-188"/>
<text text-anchor="start" x="1195.58" y="-207" font-family="Helvetica,sans-Serif" font-size="10.00">panda::utils::BranchName</text>
<text text-anchor="middle" x="1253.1" y="-195" font-family="Helvetica,sans-Serif" font-size="10.00">::vetoed</text>
</a>
</g>
</g>
<!-- Node10&#45;&gt;Node12 -->
<g id="edge11" class="edge"><title>Node10&#45;&gt;Node12</title>
<path fill="none" stroke="midnightblue" d="M1144.95,-207.935C1155.31,-207.555 1166.26,-207.152 1177.07,-206.756"/>
<polygon fill="midnightblue" stroke="midnightblue" points="1177.48,-210.243 1187.35,-206.378 1177.23,-203.248 1177.48,-210.243"/>
</g>
<!-- Node10&#45;&gt;Node13 -->
<g id="edge13" class="edge"><title>Node10&#45;&gt;Node13</title>
<path fill="none" stroke="midnightblue" d="M1115.99,-199.95C1134.25,-193.362 1158.89,-184.753 1180.92,-178 1187.9,-175.861 1195.3,-173.731 1202.59,-171.713"/>
<polygon fill="midnightblue" stroke="midnightblue" points="1203.69,-175.042 1212.42,-169.04 1201.85,-168.288 1203.69,-175.042"/>
</g>
</g>
</svg>
