<?xml version="1.0" encoding="UTF-8" standalone="no"?>
<!DOCTYPE svg PUBLIC "-//W3C//DTD SVG 1.1//EN"
 "http://www.w3.org/Graphics/SVG/1.1/DTD/svg11.dtd">
<!-- Generated by graphviz version 2.38.0 (20140413.2041)
 -->
<!-- Title: panda::RefVector::push_back Pages: 1 -->
<svg width="303pt" height="68pt"
 viewBox="0.00 0.00 303.31 68.00" xmlns="http://www.w3.org/2000/svg" xmlns:xlink="http://www.w3.org/1999/xlink">
<g id="graph0" class="graph" transform="scale(1 1) rotate(0) translate(4 64)">
<title>panda::RefVector::push_back</title>
<polygon fill="white" stroke="none" points="-4,4 -4,-64 299.307,-64 299.307,4 -4,4"/>
<!-- Node1 -->
<g id="node1" class="node"><title>Node1</title>
<polygon fill="#bfbfbf" stroke="black" points="0,-19.5 0,-39.5 147.717,-39.5 147.717,-19.5 0,-19.5"/>
<text text-anchor="middle" x="73.8585" y="-26.5" font-family="Helvetica,sans-Serif" font-size="10.00">panda::RefVector::push_back</text>
</g>
<!-- Node2 -->
<g id="node2" class="node"><title>Node2</title>
<g id="a_node2"><a xlink:href="classpanda_1_1Ref.html#a1249f0bb38474905f0da01ead67b2c5f" target="_top" xlink:title="Accessor to container. ">
<polygon fill="white" stroke="black" points="183.717,-39.5 183.717,-59.5 295.307,-59.5 295.307,-39.5 183.717,-39.5"/>
<text text-anchor="middle" x="239.512" y="-46.5" font-family="Helvetica,sans-Serif" font-size="10.00">panda::Ref::container</text>
</a>
</g>
</g>
<!-- Node1&#45;&gt;Node2 -->
<g id="edge1" class="edge"><title>Node1&#45;&gt;Node2</title>
<path fill="none" stroke="midnightblue" d="M148.069,-38.4471C156.54,-39.4822 165.135,-40.5326 173.486,-41.5532"/>
<polygon fill="midnightblue" stroke="midnightblue" points="173.176,-45.0413 183.527,-42.7803 174.025,-38.093 173.176,-45.0413"/>
</g>
<!-- Node3 -->
<g id="node3" class="node"><title>Node3</title>
<g id="a_node3"><a xlink:href="classpanda_1_1Ref.html#adc0eaedf3db52609635a3e09a395375a" target="_top" xlink:title="Accessor to idx. ">
<polygon fill="white" stroke="black" points="197.889,-0.5 197.889,-20.5 281.135,-20.5 281.135,-0.5 197.889,-0.5"/>
<text text-anchor="middle" x="239.512" y="-7.5" font-family="Helvetica,sans-Serif" font-size="10.00">panda::Ref::idx</text>
</a>
</g>
</g>
<!-- Node1&#45;&gt;Node3 -->
<g id="edge2" class="edge"><title>Node1&#45;&gt;Node3</title>
<path fill="none" stroke="midnightblue" d="M148.069,-21.0003C161.367,-19.4565 174.971,-17.877 187.457,-16.4274"/>
<polygon fill="midnightblue" stroke="midnightblue" points="188.121,-19.8739 197.651,-15.244 187.314,-12.9206 188.121,-19.8739"/>
</g>
</g>
</svg>
