<?xml version="1.0" encoding="UTF-8" standalone="no"?>
<!DOCTYPE svg PUBLIC "-//W3C//DTD SVG 1.1//EN"
 "http://www.w3.org/Graphics/SVG/1.1/DTD/svg11.dtd">
<!-- Generated by graphviz version 2.38.0 (20140413.2041)
 -->
<!-- Title: panda::Jet::destructor Pages: 1 -->
<svg width="805pt" height="41pt"
 viewBox="0.00 0.00 804.93 41.00" xmlns="http://www.w3.org/2000/svg" xmlns:xlink="http://www.w3.org/1999/xlink">
<g id="graph0" class="graph" transform="scale(1 1) rotate(0) translate(4 37)">
<title>panda::Jet::destructor</title>
<polygon fill="white" stroke="none" points="-4,4 -4,-37 800.926,-37 800.926,4 -4,4"/>
<!-- Node1 -->
<g id="node1" class="node"><title>Node1</title>
<polygon fill="#bfbfbf" stroke="black" points="1.42109e-14,-6.5 1.42109e-14,-26.5 112.701,-26.5 112.701,-6.5 1.42109e-14,-6.5"/>
<text text-anchor="middle" x="56.3505" y="-13.5" font-family="Helvetica,sans-Serif" font-size="10.00">panda::Jet::destructor</text>
</g>
<!-- Node2 -->
<g id="node2" class="node"><title>Node2</title>
<g id="a_node2"><a xlink:href="classpanda_1_1MicroJet.html#a89f2dbacfc1c34c4f34185ea305f8797" target="_top" xlink:title="Destructor implementation. ">
<polygon fill="white" stroke="black" points="148.701,-6.5 148.701,-26.5 285.838,-26.5 285.838,-6.5 148.701,-6.5"/>
<text text-anchor="middle" x="217.269" y="-13.5" font-family="Helvetica,sans-Serif" font-size="10.00">panda::MicroJet::destructor</text>
</a>
</g>
</g>
<!-- Node1&#45;&gt;Node2 -->
<g id="edge1" class="edge"><title>Node1&#45;&gt;Node2</title>
<path fill="none" stroke="midnightblue" d="M112.933,-16.5C121.232,-16.5 129.914,-16.5 138.568,-16.5"/>
<polygon fill="midnightblue" stroke="midnightblue" points="138.69,-20.0001 148.69,-16.5 138.69,-13.0001 138.69,-20.0001"/>
</g>
<!-- Node3 -->
<g id="node3" class="node"><title>Node3</title>
<g id="a_node3"><a xlink:href="classpanda_1_1ParticleM.html#abef15d28e6e33ee92c0b318bd41af2ca" target="_top" xlink:title="Destructor implementation. ">
<polygon fill="white" stroke="black" points="321.838,-6.5 321.838,-26.5 462.863,-26.5 462.863,-6.5 321.838,-6.5"/>
<text text-anchor="middle" x="392.35" y="-13.5" font-family="Helvetica,sans-Serif" font-size="10.00">panda::ParticleM::destructor</text>
</a>
</g>
</g>
<!-- Node2&#45;&gt;Node3 -->
<g id="edge2" class="edge"><title>Node2&#45;&gt;Node3</title>
<path fill="none" stroke="midnightblue" d="M286.179,-16.5C294.461,-16.5 302.981,-16.5 311.418,-16.5"/>
<polygon fill="midnightblue" stroke="midnightblue" points="311.645,-20.0001 321.645,-16.5 311.644,-13.0001 311.645,-20.0001"/>
</g>
<!-- Node4 -->
<g id="node4" class="node"><title>Node4</title>
<g id="a_node4"><a xlink:href="classpanda_1_1Particle.html#ad1a5f606b804ac2ec5d7e391aba6bda6" target="_top" xlink:title="Destructor implementation. ">
<polygon fill="white" stroke="black" points="498.863,-6.5 498.863,-26.5 631.559,-26.5 631.559,-6.5 498.863,-6.5"/>
<text text-anchor="middle" x="565.211" y="-13.5" font-family="Helvetica,sans-Serif" font-size="10.00">panda::Particle::destructor</text>
</a>
</g>
</g>
<!-- Node3&#45;&gt;Node4 -->
<g id="edge3" class="edge"><title>Node3&#45;&gt;Node4</title>
<path fill="none" stroke="midnightblue" d="M463.339,-16.5C471.66,-16.5 480.183,-16.5 488.578,-16.5"/>
<polygon fill="midnightblue" stroke="midnightblue" points="488.733,-20.0001 498.733,-16.5 488.733,-13.0001 488.733,-20.0001"/>
</g>
<!-- Node5 -->
<g id="node5" class="node"><title>Node5</title>
<g id="a_node5"><a xlink:href="classpanda_1_1ContainerElement.html#aa1c71695dae992e82bf91f354aa8480c" target="_top" xlink:title="Destructor implementation. ">
<polygon fill="white" stroke="black" points="667.559,-0.5 667.559,-32.5 796.926,-32.5 796.926,-0.5 667.559,-0.5"/>
<text text-anchor="start" x="675.559" y="-19.5" font-family="Helvetica,sans-Serif" font-size="10.00">panda::ContainerElement</text>
<text text-anchor="middle" x="732.242" y="-7.5" font-family="Helvetica,sans-Serif" font-size="10.00">::destructor</text>
</a>
</g>
</g>
<!-- Node4&#45;&gt;Node5 -->
<g id="edge4" class="edge"><title>Node4&#45;&gt;Node5</title>
<path fill="none" stroke="midnightblue" d="M631.91,-16.5C640.218,-16.5 648.762,-16.5 657.189,-16.5"/>
<polygon fill="midnightblue" stroke="midnightblue" points="657.384,-20.0001 667.384,-16.5 657.383,-13.0001 657.384,-20.0001"/>
</g>
</g>
</svg>
