<?xml version="1.0" encoding="UTF-8" standalone="no"?>
<!DOCTYPE svg PUBLIC "-//W3C//DTD SVG 1.1//EN"
 "http://www.w3.org/Graphics/SVG/1.1/DTD/svg11.dtd">
<!-- Generated by graphviz version 2.38.0 (20140413.2041)
 -->
<!-- Title: panda::utils::BranchList::subList Pages: 1 -->
<svg width="525pt" height="107pt"
 viewBox="0.00 0.00 525.08 107.00" xmlns="http://www.w3.org/2000/svg" xmlns:xlink="http://www.w3.org/1999/xlink">
<g id="graph0" class="graph" transform="scale(1 1) rotate(0) translate(4 103)">
<title>panda::utils::BranchList::subList</title>
<polygon fill="white" stroke="none" points="-4,4 -4,-103 521.082,-103 521.082,4 -4,4"/>
<!-- Node1 -->
<g id="node1" class="node"><title>Node1</title>
<polygon fill="#bfbfbf" stroke="black" points="-5.68434e-14,-33.5 -5.68434e-14,-65.5 119.919,-65.5 119.919,-33.5 -5.68434e-14,-33.5"/>
<text text-anchor="start" x="8" y="-52.5" font-family="Helvetica,sans-Serif" font-size="10.00">panda::utils::BranchList</text>
<text text-anchor="middle" x="59.9595" y="-40.5" font-family="Helvetica,sans-Serif" font-size="10.00">::subList</text>
</g>
<!-- Node2 -->
<g id="node2" class="node"><title>Node2</title>
<g id="a_node2"><a xlink:href="classpanda_1_1TreeEntry.html#a2865563c62ec22b700c7b752dc684f92" target="_top" xlink:title="Set status of branches to true (matching branch) or false (vetoed branch) ">
<polygon fill="white" stroke="black" points="160.084,-78.5 160.084,-98.5 300.57,-98.5 300.57,-78.5 160.084,-78.5"/>
<text text-anchor="middle" x="230.327" y="-85.5" font-family="Helvetica,sans-Serif" font-size="10.00">panda::TreeEntry::setStatus</text>
</a>
</g>
</g>
<!-- Node1&#45;&gt;Node2 -->
<g id="edge1" class="edge"><title>Node1&#45;&gt;Node2</title>
<path fill="none" stroke="midnightblue" d="M130.113,-65.5183C149.063,-69.908 169.064,-74.5409 186.104,-78.488"/>
<polygon fill="midnightblue" stroke="midnightblue" points="130.851,-62.0969 120.32,-63.2499 129.272,-68.9164 130.851,-62.0969"/>
</g>
<!-- Node3 -->
<g id="node3" class="node"><title>Node3</title>
<g id="a_node3"><a xlink:href="classpanda_1_1TreeEntry.html#a637493ca67678fe71c1ca146f76c74df" target="_top" xlink:title="Bind the tree to this object. ">
<polygon fill="white" stroke="black" points="155.919,-39.5 155.919,-59.5 304.735,-59.5 304.735,-39.5 155.919,-39.5"/>
<text text-anchor="middle" x="230.327" y="-46.5" font-family="Helvetica,sans-Serif" font-size="10.00">panda::TreeEntry::setAddress</text>
</a>
</g>
</g>
<!-- Node1&#45;&gt;Node3 -->
<g id="edge2" class="edge"><title>Node1&#45;&gt;Node3</title>
<path fill="none" stroke="midnightblue" d="M130.4,-49.5C138.764,-49.5 147.329,-49.5 155.749,-49.5"/>
<polygon fill="midnightblue" stroke="midnightblue" points="130.32,-46.0001 120.32,-49.5 130.32,-53.0001 130.32,-46.0001"/>
</g>
<!-- Node6 -->
<g id="node6" class="node"><title>Node6</title>
<g id="a_node6"><a xlink:href="classpanda_1_1TreeEntry.html#ae7ebe6da38bc3ce8e93eaaf1dded043a" target="_top" xlink:title="Create branches bound to this object on the tree. ">
<polygon fill="white" stroke="black" points="170.087,-0.5 170.087,-20.5 290.567,-20.5 290.567,-0.5 170.087,-0.5"/>
<text text-anchor="middle" x="230.327" y="-7.5" font-family="Helvetica,sans-Serif" font-size="10.00">panda::TreeEntry::book</text>
</a>
</g>
</g>
<!-- Node1&#45;&gt;Node6 -->
<g id="edge5" class="edge"><title>Node1&#45;&gt;Node6</title>
<path fill="none" stroke="midnightblue" d="M130.113,-33.4817C149.063,-29.092 169.064,-24.4591 186.104,-20.512"/>
<polygon fill="midnightblue" stroke="midnightblue" points="129.272,-30.0836 120.32,-35.7501 130.851,-36.9031 129.272,-30.0836"/>
</g>
<!-- Node4 -->
<g id="node4" class="node"><title>Node4</title>
<g id="a_node4"><a xlink:href="classpanda_1_1FileMerger.html#a13a672d0fef3317ce4335d6a56f4229b" target="_top" xlink:title="Run the merger. ">
<polygon fill="white" stroke="black" points="340.735,-13.5 340.735,-45.5 443.416,-45.5 443.416,-13.5 340.735,-13.5"/>
<text text-anchor="start" x="348.735" y="-32.5" font-family="Helvetica,sans-Serif" font-size="10.00">panda::FileMerger::</text>
<text text-anchor="middle" x="392.075" y="-20.5" font-family="Helvetica,sans-Serif" font-size="10.00">merge</text>
</a>
</g>
</g>
<!-- Node3&#45;&gt;Node4 -->
<g id="edge3" class="edge"><title>Node3&#45;&gt;Node4</title>
<path fill="none" stroke="midnightblue" d="M315.212,-38.9978C323.804,-37.9222 332.333,-36.8544 340.401,-35.8442"/>
<polygon fill="midnightblue" stroke="midnightblue" points="314.61,-35.5458 305.122,-40.2611 315.48,-42.4916 314.61,-35.5458"/>
</g>
<!-- Node5 -->
<g id="node5" class="node"><title>Node5</title>
<g id="a_node5"><a xlink:href="padd_8cc.html#a2201d4f3fe424b79dbb580041d738741" target="_top" xlink:title="main">
<polygon fill="white" stroke="black" points="479.416,-19.5 479.416,-39.5 517.082,-39.5 517.082,-19.5 479.416,-19.5"/>
<text text-anchor="middle" x="498.249" y="-26.5" font-family="Helvetica,sans-Serif" font-size="10.00">main</text>
</a>
</g>
</g>
<!-- Node4&#45;&gt;Node5 -->
<g id="edge4" class="edge"><title>Node4&#45;&gt;Node5</title>
<path fill="none" stroke="midnightblue" d="M453.685,-29.5C462.867,-29.5 471.684,-29.5 478.956,-29.5"/>
<polygon fill="midnightblue" stroke="midnightblue" points="453.636,-26.0001 443.636,-29.5 453.636,-33.0001 453.636,-26.0001"/>
</g>
<!-- Node6&#45;&gt;Node4 -->
<g id="edge6" class="edge"><title>Node6&#45;&gt;Node4</title>
<path fill="none" stroke="midnightblue" d="M300.939,-18.7794C314.315,-20.3704 328.082,-22.0077 340.705,-23.5091"/>
<polygon fill="midnightblue" stroke="midnightblue" points="301.155,-15.2805 290.811,-17.5749 300.328,-22.2315 301.155,-15.2805"/>
</g>
</g>
</svg>
