<?xml version="1.0" encoding="UTF-8" standalone="no"?>
<!DOCTYPE svg PUBLIC "-//W3C//DTD SVG 1.1//EN"
 "http://www.w3.org/Graphics/SVG/1.1/DTD/svg11.dtd">
<!-- Generated by graphviz version 2.38.0 (20140413.2041)
 -->
<!-- Title: panda::MicroJet::init Pages: 1 -->
<svg width="528pt" height="29pt"
 viewBox="0.00 0.00 528.41 29.00" xmlns="http://www.w3.org/2000/svg" xmlns:xlink="http://www.w3.org/1999/xlink">
<g id="graph0" class="graph" transform="scale(1 1) rotate(0) translate(4 25)">
<title>panda::MicroJet::init</title>
<polygon fill="white" stroke="none" points="-4,4 -4,-25 524.412,-25 524.412,4 -4,4"/>
<!-- Node1 -->
<g id="node1" class="node"><title>Node1</title>
<polygon fill="#bfbfbf" stroke="black" points="7.10543e-15,-0.5 7.10543e-15,-20.5 105.461,-20.5 105.461,-0.5 7.10543e-15,-0.5"/>
<text text-anchor="middle" x="52.7305" y="-7.5" font-family="Helvetica,sans-Serif" font-size="10.00">panda::MicroJet::init</text>
</g>
<!-- Node2 -->
<g id="node2" class="node"><title>Node2</title>
<g id="a_node2"><a xlink:href="classpanda_1_1ParticleM.html#a92df7a2653432fa4d304039e1e62c41b" target="_top" xlink:title="Reset object state. ">
<polygon fill="white" stroke="black" points="141.461,-0.5 141.461,-20.5 250.81,-20.5 250.81,-0.5 141.461,-0.5"/>
<text text-anchor="middle" x="196.135" y="-7.5" font-family="Helvetica,sans-Serif" font-size="10.00">panda::ParticleM::init</text>
</a>
</g>
</g>
<!-- Node1&#45;&gt;Node2 -->
<g id="edge1" class="edge"><title>Node1&#45;&gt;Node2</title>
<path fill="none" stroke="midnightblue" d="M105.582,-10.5C113.966,-10.5 122.733,-10.5 131.36,-10.5"/>
<polygon fill="midnightblue" stroke="midnightblue" points="131.393,-14.0001 141.393,-10.5 131.393,-7.0001 131.393,-14.0001"/>
</g>
<!-- Node3 -->
<g id="node3" class="node"><title>Node3</title>
<g id="a_node3"><a xlink:href="classpanda_1_1Particle.html#a56ba0060e9e37322f98e2f30c3583dd3" target="_top" xlink:title="Reset object state. ">
<polygon fill="white" stroke="black" points="286.81,-0.5 286.81,-20.5 387.83,-20.5 387.83,-0.5 286.81,-0.5"/>
<text text-anchor="middle" x="337.32" y="-7.5" font-family="Helvetica,sans-Serif" font-size="10.00">panda::Particle::init</text>
</a>
</g>
</g>
<!-- Node2&#45;&gt;Node3 -->
<g id="edge2" class="edge"><title>Node2&#45;&gt;Node3</title>
<path fill="none" stroke="midnightblue" d="M250.948,-10.5C259.323,-10.5 268.02,-10.5 276.519,-10.5"/>
<polygon fill="midnightblue" stroke="midnightblue" points="276.751,-14.0001 286.751,-10.5 276.751,-7.0001 276.751,-14.0001"/>
</g>
<!-- Node4 -->
<g id="node4" class="node"><title>Node4</title>
<g id="a_node4"><a xlink:href="classpanda_1_1Object.html#a204960e5f165a28176f9b4a42b9ea90c" target="_top" xlink:title="Reset object state. ">
<polygon fill="white" stroke="black" points="423.83,-0.5 423.83,-20.5 520.412,-20.5 520.412,-0.5 423.83,-0.5"/>
<text text-anchor="middle" x="472.121" y="-7.5" font-family="Helvetica,sans-Serif" font-size="10.00">panda::Object::init</text>
</a>
</g>
</g>
<!-- Node3&#45;&gt;Node4 -->
<g id="edge3" class="edge"><title>Node3&#45;&gt;Node4</title>
<path fill="none" stroke="midnightblue" d="M388.148,-10.5C396.415,-10.5 405.049,-10.5 413.49,-10.5"/>
<polygon fill="midnightblue" stroke="midnightblue" points="413.653,-14.0001 423.653,-10.5 413.653,-7.0001 413.653,-14.0001"/>
</g>
</g>
</svg>
