<?xml version="1.0" encoding="UTF-8" standalone="no"?>
<!DOCTYPE svg PUBLIC "-//W3C//DTD SVG 1.1//EN"
 "http://www.w3.org/Graphics/SVG/1.1/DTD/svg11.dtd">
<!-- Generated by graphviz version 2.38.0 (20140413.2041)
 -->
<!-- Title: panda::GenParticle::destructor Pages: 1 -->
<svg width="621pt" height="41pt"
 viewBox="0.00 0.00 620.67 41.00" xmlns="http://www.w3.org/2000/svg" xmlns:xlink="http://www.w3.org/1999/xlink">
<g id="graph0" class="graph" transform="scale(1 1) rotate(0) translate(4 37)">
<title>panda::GenParticle::destructor</title>
<polygon fill="white" stroke="none" points="-4,4 -4,-37 616.671,-37 616.671,4 -4,4"/>
<!-- Node1 -->
<g id="node1" class="node"><title>Node1</title>
<polygon fill="#bfbfbf" stroke="black" points="4.26326e-14,-0.5 4.26326e-14,-32.5 101.583,-32.5 101.583,-0.5 4.26326e-14,-0.5"/>
<text text-anchor="start" x="8" y="-19.5" font-family="Helvetica,sans-Serif" font-size="10.00">panda::GenParticle</text>
<text text-anchor="middle" x="50.7915" y="-7.5" font-family="Helvetica,sans-Serif" font-size="10.00">::destructor</text>
</g>
<!-- Node2 -->
<g id="node2" class="node"><title>Node2</title>
<g id="a_node2"><a xlink:href="classpanda_1_1ParticleM.html#abef15d28e6e33ee92c0b318bd41af2ca" target="_top" xlink:title="Destructor implementation. ">
<polygon fill="white" stroke="black" points="137.583,-6.5 137.583,-26.5 278.608,-26.5 278.608,-6.5 137.583,-6.5"/>
<text text-anchor="middle" x="208.096" y="-13.5" font-family="Helvetica,sans-Serif" font-size="10.00">panda::ParticleM::destructor</text>
</a>
</g>
</g>
<!-- Node1&#45;&gt;Node2 -->
<g id="edge1" class="edge"><title>Node1&#45;&gt;Node2</title>
<path fill="none" stroke="midnightblue" d="M101.786,-16.5C109.943,-16.5 118.57,-16.5 127.233,-16.5"/>
<polygon fill="midnightblue" stroke="midnightblue" points="127.393,-20.0001 137.393,-16.5 127.393,-13.0001 127.393,-20.0001"/>
</g>
<!-- Node3 -->
<g id="node3" class="node"><title>Node3</title>
<g id="a_node3"><a xlink:href="classpanda_1_1Particle.html#ad1a5f606b804ac2ec5d7e391aba6bda6" target="_top" xlink:title="Destructor implementation. ">
<polygon fill="white" stroke="black" points="314.608,-6.5 314.608,-26.5 447.304,-26.5 447.304,-6.5 314.608,-6.5"/>
<text text-anchor="middle" x="380.956" y="-13.5" font-family="Helvetica,sans-Serif" font-size="10.00">panda::Particle::destructor</text>
</a>
</g>
</g>
<!-- Node2&#45;&gt;Node3 -->
<g id="edge2" class="edge"><title>Node2&#45;&gt;Node3</title>
<path fill="none" stroke="midnightblue" d="M279.084,-16.5C287.405,-16.5 295.928,-16.5 304.323,-16.5"/>
<polygon fill="midnightblue" stroke="midnightblue" points="304.478,-20.0001 314.478,-16.5 304.478,-13.0001 304.478,-20.0001"/>
</g>
<!-- Node4 -->
<g id="node4" class="node"><title>Node4</title>
<g id="a_node4"><a xlink:href="classpanda_1_1ContainerElement.html#aa1c71695dae992e82bf91f354aa8480c" target="_top" xlink:title="Destructor implementation. ">
<polygon fill="white" stroke="black" points="483.304,-0.5 483.304,-32.5 612.671,-32.5 612.671,-0.5 483.304,-0.5"/>
<text text-anchor="start" x="491.304" y="-19.5" font-family="Helvetica,sans-Serif" font-size="10.00">panda::ContainerElement</text>
<text text-anchor="middle" x="547.988" y="-7.5" font-family="Helvetica,sans-Serif" font-size="10.00">::destructor</text>
</a>
</g>
</g>
<!-- Node3&#45;&gt;Node4 -->
<g id="edge3" class="edge"><title>Node3&#45;&gt;Node4</title>
<path fill="none" stroke="midnightblue" d="M447.655,-16.5C455.963,-16.5 464.507,-16.5 472.934,-16.5"/>
<polygon fill="midnightblue" stroke="midnightblue" points="473.129,-20.0001 483.129,-16.5 473.128,-13.0001 473.129,-20.0001"/>
</g>
</g>
</svg>
