<?xml version="1.0" encoding="UTF-8" standalone="no"?>
<!DOCTYPE svg PUBLIC "-//W3C//DTD SVG 1.1//EN"
 "http://www.w3.org/Graphics/SVG/1.1/DTD/svg11.dtd">
<!-- Generated by graphviz version 2.38.0 (20140413.2041)
 -->
<!-- Title: panda::Tau::~Tau Pages: 1 -->
<svg width="275pt" height="41pt"
 viewBox="0.00 0.00 275.24 41.00" xmlns="http://www.w3.org/2000/svg" xmlns:xlink="http://www.w3.org/1999/xlink">
<g id="graph0" class="graph" transform="scale(1 1) rotate(0) translate(4 37)">
<title>panda::Tau::~Tau</title>
<polygon fill="white" stroke="none" points="-4,4 -4,-37 271.239,-37 271.239,4 -4,4"/>
<!-- Node1 -->
<g id="node1" class="node"><title>Node1</title>
<polygon fill="#bfbfbf" stroke="black" points="7.10543e-15,-6.5 7.10543e-15,-26.5 95.204,-26.5 95.204,-6.5 7.10543e-15,-6.5"/>
<text text-anchor="middle" x="47.602" y="-13.5" font-family="Helvetica,sans-Serif" font-size="10.00">panda::Tau::~Tau</text>
</g>
<!-- Node2 -->
<g id="node2" class="node"><title>Node2</title>
<g id="a_node2"><a xlink:href="classpanda_1_1utils_1_1StoreManager.html#a89a7b1715f9c7334b9ffdddeed298d4e" target="_top" xlink:title="panda::utils::StoreManager\l::free">
<polygon fill="white" stroke="black" points="131.204,-0.5 131.204,-32.5 267.239,-32.5 267.239,-0.5 131.204,-0.5"/>
<text text-anchor="start" x="139.204" y="-19.5" font-family="Helvetica,sans-Serif" font-size="10.00">panda::utils::StoreManager</text>
<text text-anchor="middle" x="199.221" y="-7.5" font-family="Helvetica,sans-Serif" font-size="10.00">::free</text>
</a>
</g>
</g>
<!-- Node1&#45;&gt;Node2 -->
<g id="edge1" class="edge"><title>Node1&#45;&gt;Node2</title>
<path fill="none" stroke="midnightblue" d="M95.532,-16.5C103.663,-16.5 112.306,-16.5 120.993,-16.5"/>
<polygon fill="midnightblue" stroke="midnightblue" points="121.183,-20.0001 131.183,-16.5 121.183,-13.0001 121.183,-20.0001"/>
</g>
</g>
</svg>
