<?xml version="1.0" encoding="UTF-8" standalone="no"?>
<!DOCTYPE svg PUBLIC "-//W3C//DTD SVG 1.1//EN"
 "http://www.w3.org/Graphics/SVG/1.1/DTD/svg11.dtd">
<!-- Generated by graphviz version 2.38.0 (20140413.2041)
 -->
<!-- Title: panda::HLTBits::setStatus Pages: 1 -->
<svg width="482pt" height="170pt"
 viewBox="0.00 0.00 482.00 170.00" xmlns="http://www.w3.org/2000/svg" xmlns:xlink="http://www.w3.org/1999/xlink">
<g id="graph0" class="graph" transform="scale(1 1) rotate(0) translate(4 166)">
<title>panda::HLTBits::setStatus</title>
<polygon fill="white" stroke="none" points="-4,4 -4,-166 478.001,-166 478.001,4 -4,4"/>
<!-- Node1 -->
<g id="node1" class="node"><title>Node1</title>
<polygon fill="#bfbfbf" stroke="black" points="1.42109e-14,-89.5 1.42109e-14,-109.5 132.148,-109.5 132.148,-89.5 1.42109e-14,-89.5"/>
<text text-anchor="middle" x="66.074" y="-96.5" font-family="Helvetica,sans-Serif" font-size="10.00">panda::HLTBits::setStatus</text>
</g>
<!-- Node2 -->
<g id="node2" class="node"><title>Node2</title>
<g id="a_node2"><a xlink:href="classpanda_1_1Object.html#a282e820b1ad431db22ca4d4dd20b55e0" target="_top" xlink:title="Set status of branches with names that correspond to the variables of this object. ">
<polygon fill="white" stroke="black" points="168.148,-109.5 168.148,-129.5 293.637,-129.5 293.637,-109.5 168.148,-109.5"/>
<text text-anchor="middle" x="230.892" y="-116.5" font-family="Helvetica,sans-Serif" font-size="10.00">panda::Object::setStatus</text>
</a>
</g>
</g>
<!-- Node1&#45;&gt;Node2 -->
<g id="edge1" class="edge"><title>Node1&#45;&gt;Node2</title>
<path fill="none" stroke="midnightblue" d="M132.36,-107.52C140.818,-108.558 149.517,-109.627 158.073,-110.678"/>
<polygon fill="midnightblue" stroke="midnightblue" points="157.675,-114.155 168.028,-111.901 158.529,-107.208 157.675,-114.155"/>
</g>
<!-- Node3 -->
<g id="node3" class="node"><title>Node3</title>
<g id="a_node3"><a xlink:href="namespacepanda_1_1utils.html#a01665f786d6a2acedb8f008f3fc9fc84" target="_top" xlink:title="Set status of a branch. ">
<polygon fill="white" stroke="black" points="173.707,-70.5 173.707,-90.5 288.077,-90.5 288.077,-70.5 173.707,-70.5"/>
<text text-anchor="middle" x="230.892" y="-77.5" font-family="Helvetica,sans-Serif" font-size="10.00">panda::utils::setStatus</text>
</a>
</g>
</g>
<!-- Node1&#45;&gt;Node3 -->
<g id="edge2" class="edge"><title>Node1&#45;&gt;Node3</title>
<path fill="none" stroke="midnightblue" d="M132.36,-91.8815C142.579,-90.689 153.15,-89.4554 163.396,-88.2598"/>
<polygon fill="midnightblue" stroke="midnightblue" points="163.98,-91.7155 173.507,-87.0799 163.169,-84.7626 163.98,-91.7155"/>
</g>
<!-- Node4 -->
<g id="node4" class="node"><title>Node4</title>
<g id="a_node4"><a xlink:href="classpanda_1_1utils_1_1BranchName.html#a6cc8a6df7c5b12a0221fd49773cca6a7" target="_top" xlink:title="Is the name included and not vetoed? ">
<polygon fill="white" stroke="black" points="329.637,-141.5 329.637,-161.5 474.001,-161.5 474.001,-141.5 329.637,-141.5"/>
<text text-anchor="middle" x="401.819" y="-148.5" font-family="Helvetica,sans-Serif" font-size="10.00">panda::utils::BranchName::in</text>
</a>
</g>
</g>
<!-- Node3&#45;&gt;Node4 -->
<g id="edge3" class="edge"><title>Node3&#45;&gt;Node4</title>
<path fill="none" stroke="midnightblue" d="M271.146,-90.5109C278.853,-93.2168 286.694,-96.5252 293.637,-100.5 312.215,-111.136 310.786,-122.355 329.637,-132.5 333.375,-134.512 337.34,-136.321 341.41,-137.947"/>
<polygon fill="midnightblue" stroke="midnightblue" points="340.448,-141.32 351.042,-141.416 342.82,-134.735 340.448,-141.32"/>
</g>
<!-- Node5 -->
<g id="node5" class="node"><title>Node5</title>
<g id="a_node5"><a xlink:href="classpanda_1_1utils_1_1BranchName.html#ae3332329bf2afae5ed8e7c35e5d77ffa" target="_top" xlink:title="Is the name included and vetoed? ">
<polygon fill="white" stroke="black" points="336.305,-90.5 336.305,-122.5 467.333,-122.5 467.333,-90.5 336.305,-90.5"/>
<text text-anchor="start" x="344.305" y="-109.5" font-family="Helvetica,sans-Serif" font-size="10.00">panda::utils::BranchName</text>
<text text-anchor="middle" x="401.819" y="-97.5" font-family="Helvetica,sans-Serif" font-size="10.00">::vetoed</text>
</a>
</g>
</g>
<!-- Node3&#45;&gt;Node5 -->
<g id="edge4" class="edge"><title>Node3&#45;&gt;Node5</title>
<path fill="none" stroke="midnightblue" d="M288.143,-89.1576C300.26,-91.0226 313.252,-93.0223 325.952,-94.9769"/>
<polygon fill="midnightblue" stroke="midnightblue" points="325.635,-98.4693 336.051,-96.5314 326.7,-91.5508 325.635,-98.4693"/>
</g>
<!-- Node6 -->
<g id="node6" class="node"><title>Node6</title>
<g id="a_node6"><a xlink:href="classpanda_1_1utils_1_1BranchName.html#a13958ff4a9d554d2c057c600b4f70412" target="_top" xlink:title="Prepend the branch name with &lt;objName.&gt;. ">
<polygon fill="white" stroke="black" points="336.305,-39.5 336.305,-71.5 467.333,-71.5 467.333,-39.5 336.305,-39.5"/>
<text text-anchor="start" x="344.305" y="-58.5" font-family="Helvetica,sans-Serif" font-size="10.00">panda::utils::BranchName</text>
<text text-anchor="middle" x="401.819" y="-46.5" font-family="Helvetica,sans-Serif" font-size="10.00">::fullName</text>
</a>
</g>
</g>
<!-- Node3&#45;&gt;Node6 -->
<g id="edge5" class="edge"><title>Node3&#45;&gt;Node6</title>
<path fill="none" stroke="midnightblue" d="M288.143,-72.1754C300.26,-70.3821 313.252,-68.4593 325.952,-66.5799"/>
<polygon fill="midnightblue" stroke="midnightblue" points="326.671,-70.0116 336.051,-65.0852 325.646,-63.087 326.671,-70.0116"/>
</g>
<!-- Node7 -->
<g id="node7" class="node"><title>Node7</title>
<g id="a_node7"><a xlink:href="namespacepanda_1_1utils.html#aafa411773a4b0ee829d99e6e5a0abdcd" target="_top" xlink:title="Check status of a branch. ">
<polygon fill="white" stroke="black" points="338.244,-0.5 338.244,-20.5 465.394,-20.5 465.394,-0.5 338.244,-0.5"/>
<text text-anchor="middle" x="401.819" y="-7.5" font-family="Helvetica,sans-Serif" font-size="10.00">panda::utils::checkStatus</text>
</a>
</g>
</g>
<!-- Node3&#45;&gt;Node7 -->
<g id="edge6" class="edge"><title>Node3&#45;&gt;Node7</title>
<path fill="none" stroke="midnightblue" d="M249.064,-70.3866C268.213,-59.4267 300.353,-41.9718 329.637,-30.5 336.061,-27.9833 342.926,-25.6418 349.763,-23.5128"/>
<polygon fill="midnightblue" stroke="midnightblue" points="351.121,-26.7602 359.705,-20.55 349.122,-20.0517 351.121,-26.7602"/>
</g>
</g>
</svg>
