<?xml version="1.0" encoding="UTF-8" standalone="no"?>
<!DOCTYPE svg PUBLIC "-//W3C//DTD SVG 1.1//EN"
 "http://www.w3.org/Graphics/SVG/1.1/DTD/svg11.dtd">
<!-- Generated by graphviz version 2.38.0 (20140413.2041)
 -->
<!-- Title: panda::GenReweight::init Pages: 1 -->
<svg width="251pt" height="41pt"
 viewBox="0.00 0.00 250.50 41.00" xmlns="http://www.w3.org/2000/svg" xmlns:xlink="http://www.w3.org/1999/xlink">
<g id="graph0" class="graph" transform="scale(1 1) rotate(0) translate(4 37)">
<title>panda::GenReweight::init</title>
<polygon fill="white" stroke="none" points="-4,4 -4,-37 246.504,-37 246.504,4 -4,4"/>
<!-- Node1 -->
<g id="node1" class="node"><title>Node1</title>
<polygon fill="#bfbfbf" stroke="black" points="1.42109e-14,-0.5 1.42109e-14,-32.5 109.922,-32.5 109.922,-0.5 1.42109e-14,-0.5"/>
<text text-anchor="start" x="8" y="-19.5" font-family="Helvetica,sans-Serif" font-size="10.00">panda::GenReweight</text>
<text text-anchor="middle" x="54.961" y="-7.5" font-family="Helvetica,sans-Serif" font-size="10.00">::init</text>
</g>
<!-- Node2 -->
<g id="node2" class="node"><title>Node2</title>
<g id="a_node2"><a xlink:href="classpanda_1_1Object.html#a204960e5f165a28176f9b4a42b9ea90c" target="_top" xlink:title="Reset object state. ">
<polygon fill="white" stroke="black" points="145.922,-6.5 145.922,-26.5 242.504,-26.5 242.504,-6.5 145.922,-6.5"/>
<text text-anchor="middle" x="194.213" y="-13.5" font-family="Helvetica,sans-Serif" font-size="10.00">panda::Object::init</text>
</a>
</g>
</g>
<!-- Node1&#45;&gt;Node2 -->
<g id="edge1" class="edge"><title>Node1&#45;&gt;Node2</title>
<path fill="none" stroke="midnightblue" d="M110.207,-16.5C118.517,-16.5 127.122,-16.5 135.503,-16.5"/>
<polygon fill="midnightblue" stroke="midnightblue" points="135.582,-20.0001 145.582,-16.5 135.582,-13.0001 135.582,-20.0001"/>
</g>
</g>
</svg>
