<?xml version="1.0" encoding="UTF-8" standalone="no"?>
<!DOCTYPE svg PUBLIC "-//W3C//DTD SVG 1.1//EN"
 "http://www.w3.org/Graphics/SVG/1.1/DTD/svg11.dtd">
<!-- Generated by graphviz version 2.38.0 (20140413.2041)
 -->
<!-- Title: panda::GenJet::operator= Pages: 1 -->
<svg width="647pt" height="41pt"
 viewBox="0.00 0.00 646.54 41.00" xmlns="http://www.w3.org/2000/svg" xmlns:xlink="http://www.w3.org/1999/xlink">
<g id="graph0" class="graph" transform="scale(1 1) rotate(0) translate(4 37)">
<title>panda::GenJet::operator=</title>
<polygon fill="white" stroke="none" points="-4,4 -4,-37 642.543,-37 642.543,4 -4,4"/>
<!-- Node1 -->
<g id="node1" class="node"><title>Node1</title>
<polygon fill="#bfbfbf" stroke="black" points="-5.68434e-14,-6.5 -5.68434e-14,-26.5 130.217,-26.5 130.217,-6.5 -5.68434e-14,-6.5"/>
<text text-anchor="middle" x="65.1085" y="-13.5" font-family="Helvetica,sans-Serif" font-size="10.00">panda::GenJet::operator=</text>
</g>
<!-- Node2 -->
<g id="node2" class="node"><title>Node2</title>
<g id="a_node2"><a xlink:href="classpanda_1_1ParticleM.html#a37f7be4e1150b6080b47b005af730af5" target="_top" xlink:title="panda::ParticleM::operator=">
<polygon fill="white" stroke="black" points="166.217,-6.5 166.217,-26.5 305.861,-26.5 305.861,-6.5 166.217,-6.5"/>
<text text-anchor="middle" x="236.039" y="-13.5" font-family="Helvetica,sans-Serif" font-size="10.00">panda::ParticleM::operator=</text>
</a>
</g>
</g>
<!-- Node1&#45;&gt;Node2 -->
<g id="edge1" class="edge"><title>Node1&#45;&gt;Node2</title>
<path fill="none" stroke="midnightblue" d="M130.456,-16.5C138.833,-16.5 147.49,-16.5 156.072,-16.5"/>
<polygon fill="midnightblue" stroke="midnightblue" points="156.09,-20.0001 166.09,-16.5 156.09,-13.0001 156.09,-20.0001"/>
</g>
<!-- Node3 -->
<g id="node3" class="node"><title>Node3</title>
<g id="a_node3"><a xlink:href="classpanda_1_1Particle.html#a8c4fabfceb39b746b0e68a7389e662c4" target="_top" xlink:title="panda::Particle::operator=">
<polygon fill="white" stroke="black" points="341.861,-6.5 341.861,-26.5 473.176,-26.5 473.176,-6.5 341.861,-6.5"/>
<text text-anchor="middle" x="407.518" y="-13.5" font-family="Helvetica,sans-Serif" font-size="10.00">panda::Particle::operator=</text>
</a>
</g>
</g>
<!-- Node2&#45;&gt;Node3 -->
<g id="edge2" class="edge"><title>Node2&#45;&gt;Node3</title>
<path fill="none" stroke="midnightblue" d="M305.973,-16.5C314.377,-16.5 322.997,-16.5 331.485,-16.5"/>
<polygon fill="midnightblue" stroke="midnightblue" points="331.75,-20.0001 341.75,-16.5 331.75,-13.0001 331.75,-20.0001"/>
</g>
<!-- Node4 -->
<g id="node4" class="node"><title>Node4</title>
<g id="a_node4"><a xlink:href="classpanda_1_1ContainerElement.html#ae8ba59e4cb5d7c1d491fc87c9360f039" target="_top" xlink:title="panda::ContainerElement\l::operator=">
<polygon fill="white" stroke="black" points="509.176,-0.5 509.176,-32.5 638.543,-32.5 638.543,-0.5 509.176,-0.5"/>
<text text-anchor="start" x="517.176" y="-19.5" font-family="Helvetica,sans-Serif" font-size="10.00">panda::ContainerElement</text>
<text text-anchor="middle" x="573.859" y="-7.5" font-family="Helvetica,sans-Serif" font-size="10.00">::operator=</text>
</a>
</g>
</g>
<!-- Node3&#45;&gt;Node4 -->
<g id="edge3" class="edge"><title>Node3&#45;&gt;Node4</title>
<path fill="none" stroke="midnightblue" d="M473.47,-16.5C481.762,-16.5 490.299,-16.5 498.723,-16.5"/>
<polygon fill="midnightblue" stroke="midnightblue" points="498.917,-20.0001 508.917,-16.5 498.917,-13.0001 498.917,-20.0001"/>
</g>
</g>
</svg>
