<?xml version="1.0" encoding="UTF-8" standalone="no"?>
<!DOCTYPE svg PUBLIC "-//W3C//DTD SVG 1.1//EN"
 "http://www.w3.org/Graphics/SVG/1.1/DTD/svg11.dtd">
<!-- Generated by graphviz version 2.38.0 (20140413.2041)
 -->
<!-- Title: panda::SuperCluster::setStatus Pages: 1 -->
<svg width="468pt" height="189pt"
 viewBox="0.00 0.00 468.09 189.00" xmlns="http://www.w3.org/2000/svg" xmlns:xlink="http://www.w3.org/1999/xlink">
<g id="graph0" class="graph" transform="scale(1 1) rotate(0) translate(4 185)">
<title>panda::SuperCluster::setStatus</title>
<polygon fill="white" stroke="none" points="-4,4 -4,-185 464.091,-185 464.091,4 -4,4"/>
<!-- Node1 -->
<g id="node1" class="node"><title>Node1</title>
<polygon fill="#bfbfbf" stroke="black" points="-7.10543e-15,-109.5 -7.10543e-15,-141.5 107.692,-141.5 107.692,-109.5 -7.10543e-15,-109.5"/>
<text text-anchor="start" x="8" y="-128.5" font-family="Helvetica,sans-Serif" font-size="10.00">panda::SuperCluster</text>
<text text-anchor="middle" x="53.846" y="-116.5" font-family="Helvetica,sans-Serif" font-size="10.00">::setStatus</text>
</g>
<!-- Node2 -->
<g id="node2" class="node"><title>Node2</title>
<g id="a_node2"><a xlink:href="classpanda_1_1Object.html#a282e820b1ad431db22ca4d4dd20b55e0" target="_top" xlink:title="Set status of branches with names that correspond to the variables of this object. ">
<polygon fill="white" stroke="black" points="148.965,-160.5 148.965,-180.5 274.454,-180.5 274.454,-160.5 148.965,-160.5"/>
<text text-anchor="middle" x="211.709" y="-167.5" font-family="Helvetica,sans-Serif" font-size="10.00">panda::Object::setStatus</text>
</a>
</g>
</g>
<!-- Node1&#45;&gt;Node2 -->
<g id="edge1" class="edge"><title>Node1&#45;&gt;Node2</title>
<path fill="none" stroke="midnightblue" d="M107.913,-141.109C119.688,-144.55 132.109,-148.163 143.692,-151.5 150.723,-153.525 158.173,-155.655 165.453,-157.725"/>
<polygon fill="midnightblue" stroke="midnightblue" points="164.642,-161.133 175.217,-160.498 166.554,-154.4 164.642,-161.133"/>
</g>
<!-- Node3 -->
<g id="node3" class="node"><title>Node3</title>
<g id="a_node3"><a xlink:href="classpanda_1_1utils_1_1StoreManager.html#a6f30ec459d951e84a1196b7e2ffdcf49" target="_top" xlink:title="panda::utils::StoreManager\l::getName">
<polygon fill="white" stroke="black" points="143.692,-109.5 143.692,-141.5 279.727,-141.5 279.727,-109.5 143.692,-109.5"/>
<text text-anchor="start" x="151.692" y="-128.5" font-family="Helvetica,sans-Serif" font-size="10.00">panda::utils::StoreManager</text>
<text text-anchor="middle" x="211.709" y="-116.5" font-family="Helvetica,sans-Serif" font-size="10.00">::getName</text>
</a>
</g>
</g>
<!-- Node1&#45;&gt;Node3 -->
<g id="edge2" class="edge"><title>Node1&#45;&gt;Node3</title>
<path fill="none" stroke="midnightblue" d="M108.049,-125.5C116.29,-125.5 124.941,-125.5 133.58,-125.5"/>
<polygon fill="midnightblue" stroke="midnightblue" points="133.689,-129 143.689,-125.5 133.689,-122 133.689,-129"/>
</g>
<!-- Node4 -->
<g id="node4" class="node"><title>Node4</title>
<g id="a_node4"><a xlink:href="namespacepanda_1_1utils.html#a01665f786d6a2acedb8f008f3fc9fc84" target="_top" xlink:title="Set status of a branch. ">
<polygon fill="white" stroke="black" points="154.524,-70.5 154.524,-90.5 268.894,-90.5 268.894,-70.5 154.524,-70.5"/>
<text text-anchor="middle" x="211.709" y="-77.5" font-family="Helvetica,sans-Serif" font-size="10.00">panda::utils::setStatus</text>
</a>
</g>
</g>
<!-- Node1&#45;&gt;Node4 -->
<g id="edge3" class="edge"><title>Node1&#45;&gt;Node4</title>
<path fill="none" stroke="midnightblue" d="M108.049,-110.139C126.949,-104.683 148.014,-98.6011 166.12,-93.3737"/>
<polygon fill="midnightblue" stroke="midnightblue" points="167.205,-96.7035 175.841,-90.5669 165.263,-89.9782 167.205,-96.7035"/>
</g>
<!-- Node5 -->
<g id="node5" class="node"><title>Node5</title>
<g id="a_node5"><a xlink:href="classpanda_1_1utils_1_1BranchName.html#a6cc8a6df7c5b12a0221fd49773cca6a7" target="_top" xlink:title="Is the name included and not vetoed? ">
<polygon fill="white" stroke="black" points="315.727,-141.5 315.727,-161.5 460.091,-161.5 460.091,-141.5 315.727,-141.5"/>
<text text-anchor="middle" x="387.909" y="-148.5" font-family="Helvetica,sans-Serif" font-size="10.00">panda::utils::BranchName::in</text>
</a>
</g>
</g>
<!-- Node4&#45;&gt;Node5 -->
<g id="edge4" class="edge"><title>Node4&#45;&gt;Node5</title>
<path fill="none" stroke="midnightblue" d="M256.384,-90.5144C264.405,-93.1865 272.514,-96.4814 279.727,-100.5 298.428,-110.919 296.876,-122.355 315.727,-132.5 319.465,-134.512 323.43,-136.321 327.5,-137.947"/>
<polygon fill="midnightblue" stroke="midnightblue" points="326.538,-141.32 337.132,-141.416 328.91,-134.735 326.538,-141.32"/>
</g>
<!-- Node6 -->
<g id="node6" class="node"><title>Node6</title>
<g id="a_node6"><a xlink:href="classpanda_1_1utils_1_1BranchName.html#ae3332329bf2afae5ed8e7c35e5d77ffa" target="_top" xlink:title="Is the name included and vetoed? ">
<polygon fill="white" stroke="black" points="322.395,-90.5 322.395,-122.5 453.423,-122.5 453.423,-90.5 322.395,-90.5"/>
<text text-anchor="start" x="330.395" y="-109.5" font-family="Helvetica,sans-Serif" font-size="10.00">panda::utils::BranchName</text>
<text text-anchor="middle" x="387.909" y="-97.5" font-family="Helvetica,sans-Serif" font-size="10.00">::vetoed</text>
</a>
</g>
</g>
<!-- Node4&#45;&gt;Node6 -->
<g id="edge5" class="edge"><title>Node4&#45;&gt;Node6</title>
<path fill="none" stroke="midnightblue" d="M269.267,-88.9415C282.857,-90.9699 297.583,-93.1678 311.868,-95.2999"/>
<polygon fill="midnightblue" stroke="midnightblue" points="311.762,-98.8227 322.169,-96.8373 312.796,-91.8994 311.762,-98.8227"/>
</g>
<!-- Node7 -->
<g id="node7" class="node"><title>Node7</title>
<g id="a_node7"><a xlink:href="classpanda_1_1utils_1_1BranchName.html#a13958ff4a9d554d2c057c600b4f70412" target="_top" xlink:title="Prepend the branch name with &lt;objName.&gt;. ">
<polygon fill="white" stroke="black" points="322.395,-39.5 322.395,-71.5 453.423,-71.5 453.423,-39.5 322.395,-39.5"/>
<text text-anchor="start" x="330.395" y="-58.5" font-family="Helvetica,sans-Serif" font-size="10.00">panda::utils::BranchName</text>
<text text-anchor="middle" x="387.909" y="-46.5" font-family="Helvetica,sans-Serif" font-size="10.00">::fullName</text>
</a>
</g>
</g>
<!-- Node4&#45;&gt;Node7 -->
<g id="edge6" class="edge"><title>Node4&#45;&gt;Node7</title>
<path fill="none" stroke="midnightblue" d="M269.267,-72.3832C282.857,-70.4328 297.583,-68.3194 311.868,-66.2694"/>
<polygon fill="midnightblue" stroke="midnightblue" points="312.768,-69.6762 322.169,-64.791 311.773,-62.7472 312.768,-69.6762"/>
</g>
<!-- Node8 -->
<g id="node8" class="node"><title>Node8</title>
<g id="a_node8"><a xlink:href="namespacepanda_1_1utils.html#aafa411773a4b0ee829d99e6e5a0abdcd" target="_top" xlink:title="Check status of a branch. ">
<polygon fill="white" stroke="black" points="324.334,-0.5 324.334,-20.5 451.484,-20.5 451.484,-0.5 324.334,-0.5"/>
<text text-anchor="middle" x="387.909" y="-7.5" font-family="Helvetica,sans-Serif" font-size="10.00">panda::utils::checkStatus</text>
</a>
</g>
</g>
<!-- Node4&#45;&gt;Node8 -->
<g id="edge7" class="edge"><title>Node4&#45;&gt;Node8</title>
<path fill="none" stroke="midnightblue" d="M230.882,-70.4519C251.13,-59.5492 285.061,-42.144 315.727,-30.5 322.258,-28.0202 329.229,-25.6909 336.158,-23.5602"/>
<polygon fill="midnightblue" stroke="midnightblue" points="337.625,-26.7763 346.223,-20.5861 335.641,-20.0633 337.625,-26.7763"/>
</g>
</g>
</svg>
