<?xml version="1.0" encoding="UTF-8" standalone="no"?>
<!DOCTYPE svg PUBLIC "-//W3C//DTD SVG 1.1//EN"
 "http://www.w3.org/Graphics/SVG/1.1/DTD/svg11.dtd">
<!-- Generated by graphviz version 2.38.0 (20140413.2041)
 -->
<!-- Title: panda::Jet::init Pages: 1 -->
<svg width="645pt" height="29pt"
 viewBox="0.00 0.00 645.44 29.00" xmlns="http://www.w3.org/2000/svg" xmlns:xlink="http://www.w3.org/1999/xlink">
<g id="graph0" class="graph" transform="scale(1 1) rotate(0) translate(4 25)">
<title>panda::Jet::init</title>
<polygon fill="white" stroke="none" points="-4,4 -4,-25 641.437,-25 641.437,4 -4,4"/>
<!-- Node1 -->
<g id="node1" class="node"><title>Node1</title>
<polygon fill="#bfbfbf" stroke="black" points="4.9738e-14,-0.5 4.9738e-14,-20.5 81.025,-20.5 81.025,-0.5 4.9738e-14,-0.5"/>
<text text-anchor="middle" x="40.5125" y="-7.5" font-family="Helvetica,sans-Serif" font-size="10.00">panda::Jet::init</text>
</g>
<!-- Node2 -->
<g id="node2" class="node"><title>Node2</title>
<g id="a_node2"><a xlink:href="classpanda_1_1MicroJet.html#acb01bef0c15e0175151fdd479cb1b5ba" target="_top" xlink:title="Reset object state. ">
<polygon fill="white" stroke="black" points="117.025,-0.5 117.025,-20.5 222.486,-20.5 222.486,-0.5 117.025,-0.5"/>
<text text-anchor="middle" x="169.755" y="-7.5" font-family="Helvetica,sans-Serif" font-size="10.00">panda::MicroJet::init</text>
</a>
</g>
</g>
<!-- Node1&#45;&gt;Node2 -->
<g id="edge1" class="edge"><title>Node1&#45;&gt;Node2</title>
<path fill="none" stroke="midnightblue" d="M81.0755,-10.5C89.1506,-10.5 97.8321,-10.5 106.48,-10.5"/>
<polygon fill="midnightblue" stroke="midnightblue" points="106.579,-14.0001 116.579,-10.5 106.579,-7.0001 106.579,-14.0001"/>
</g>
<!-- Node3 -->
<g id="node3" class="node"><title>Node3</title>
<g id="a_node3"><a xlink:href="classpanda_1_1ParticleM.html#a92df7a2653432fa4d304039e1e62c41b" target="_top" xlink:title="Reset object state. ">
<polygon fill="white" stroke="black" points="258.486,-0.5 258.486,-20.5 367.835,-20.5 367.835,-0.5 258.486,-0.5"/>
<text text-anchor="middle" x="313.16" y="-7.5" font-family="Helvetica,sans-Serif" font-size="10.00">panda::ParticleM::init</text>
</a>
</g>
</g>
<!-- Node2&#45;&gt;Node3 -->
<g id="edge2" class="edge"><title>Node2&#45;&gt;Node3</title>
<path fill="none" stroke="midnightblue" d="M222.607,-10.5C230.991,-10.5 239.758,-10.5 248.385,-10.5"/>
<polygon fill="midnightblue" stroke="midnightblue" points="248.418,-14.0001 258.418,-10.5 248.418,-7.0001 248.418,-14.0001"/>
</g>
<!-- Node4 -->
<g id="node4" class="node"><title>Node4</title>
<g id="a_node4"><a xlink:href="classpanda_1_1Particle.html#a56ba0060e9e37322f98e2f30c3583dd3" target="_top" xlink:title="Reset object state. ">
<polygon fill="white" stroke="black" points="403.835,-0.5 403.835,-20.5 504.855,-20.5 504.855,-0.5 403.835,-0.5"/>
<text text-anchor="middle" x="454.345" y="-7.5" font-family="Helvetica,sans-Serif" font-size="10.00">panda::Particle::init</text>
</a>
</g>
</g>
<!-- Node3&#45;&gt;Node4 -->
<g id="edge3" class="edge"><title>Node3&#45;&gt;Node4</title>
<path fill="none" stroke="midnightblue" d="M367.973,-10.5C376.348,-10.5 385.045,-10.5 393.544,-10.5"/>
<polygon fill="midnightblue" stroke="midnightblue" points="393.776,-14.0001 403.776,-10.5 393.776,-7.0001 393.776,-14.0001"/>
</g>
<!-- Node5 -->
<g id="node5" class="node"><title>Node5</title>
<g id="a_node5"><a xlink:href="classpanda_1_1Object.html#a204960e5f165a28176f9b4a42b9ea90c" target="_top" xlink:title="Reset object state. ">
<polygon fill="white" stroke="black" points="540.855,-0.5 540.855,-20.5 637.437,-20.5 637.437,-0.5 540.855,-0.5"/>
<text text-anchor="middle" x="589.146" y="-7.5" font-family="Helvetica,sans-Serif" font-size="10.00">panda::Object::init</text>
</a>
</g>
</g>
<!-- Node4&#45;&gt;Node5 -->
<g id="edge4" class="edge"><title>Node4&#45;&gt;Node5</title>
<path fill="none" stroke="midnightblue" d="M505.173,-10.5C513.44,-10.5 522.074,-10.5 530.515,-10.5"/>
<polygon fill="midnightblue" stroke="midnightblue" points="530.678,-14.0001 540.678,-10.5 530.678,-7.0001 530.678,-14.0001"/>
</g>
</g>
</svg>
