<?xml version="1.0" encoding="UTF-8" standalone="no"?>
<!DOCTYPE svg PUBLIC "-//W3C//DTD SVG 1.1//EN"
 "http://www.w3.org/Graphics/SVG/1.1/DTD/svg11.dtd">
<!-- Generated by graphviz version 2.38.0 (20140413.2041)
 -->
<!-- Title: panda::Jet::releaseTree Pages: 1 -->
<svg width="302pt" height="29pt"
 viewBox="0.00 0.00 301.62 29.00" xmlns="http://www.w3.org/2000/svg" xmlns:xlink="http://www.w3.org/1999/xlink">
<g id="graph0" class="graph" transform="scale(1 1) rotate(0) translate(4 25)">
<title>panda::Jet::releaseTree</title>
<polygon fill="white" stroke="none" points="-4,4 -4,-25 297.625,-25 297.625,4 -4,4"/>
<!-- Node1 -->
<g id="node1" class="node"><title>Node1</title>
<polygon fill="#bfbfbf" stroke="black" points="2.84217e-14,-0.5 2.84217e-14,-20.5 121.589,-20.5 121.589,-0.5 2.84217e-14,-0.5"/>
<text text-anchor="middle" x="60.7945" y="-7.5" font-family="Helvetica,sans-Serif" font-size="10.00">panda::Jet::releaseTree</text>
</g>
<!-- Node2 -->
<g id="node2" class="node"><title>Node2</title>
<g id="a_node2"><a xlink:href="classpanda_1_1FatJet.html#a9ade7c13e2e94e5796ed7f60b2366896" target="_top" xlink:title="Reset the branch pointer to unlink the branch from this object. ">
<polygon fill="white" stroke="black" points="157.589,-0.5 157.589,-20.5 293.625,-20.5 293.625,-0.5 157.589,-0.5"/>
<text text-anchor="middle" x="225.607" y="-7.5" font-family="Helvetica,sans-Serif" font-size="10.00">panda::FatJet::releaseTree</text>
</a>
</g>
</g>
<!-- Node1&#45;&gt;Node2 -->
<g id="edge1" class="edge"><title>Node1&#45;&gt;Node2</title>
<path fill="none" stroke="midnightblue" d="M132.142,-10.5C140.578,-10.5 149.175,-10.5 157.563,-10.5"/>
<polygon fill="midnightblue" stroke="midnightblue" points="131.957,-7.0001 121.957,-10.5 131.957,-14.0001 131.957,-7.0001"/>
</g>
</g>
</svg>
