<?xml version="1.0" encoding="UTF-8" standalone="no"?>
<!DOCTYPE svg PUBLIC "-//W3C//DTD SVG 1.1//EN"
 "http://www.w3.org/Graphics/SVG/1.1/DTD/svg11.dtd">
<!-- Generated by graphviz version 2.38.0 (20140413.2041)
 -->
<!-- Title: panda::PFCand::destructor Pages: 1 -->
<svg width="655pt" height="41pt"
 viewBox="0.00 0.00 655.12 41.00" xmlns="http://www.w3.org/2000/svg" xmlns:xlink="http://www.w3.org/1999/xlink">
<g id="graph0" class="graph" transform="scale(1 1) rotate(0) translate(4 37)">
<title>panda::PFCand::destructor</title>
<polygon fill="white" stroke="none" points="-4,4 -4,-37 651.125,-37 651.125,4 -4,4"/>
<!-- Node1 -->
<g id="node1" class="node"><title>Node1</title>
<polygon fill="#bfbfbf" stroke="black" points="1.42109e-14,-6.5 1.42109e-14,-26.5 136.037,-26.5 136.037,-6.5 1.42109e-14,-6.5"/>
<text text-anchor="middle" x="68.0185" y="-13.5" font-family="Helvetica,sans-Serif" font-size="10.00">panda::PFCand::destructor</text>
</g>
<!-- Node2 -->
<g id="node2" class="node"><title>Node2</title>
<g id="a_node2"><a xlink:href="classpanda_1_1ParticleM.html#abef15d28e6e33ee92c0b318bd41af2ca" target="_top" xlink:title="Destructor implementation. ">
<polygon fill="white" stroke="black" points="172.037,-6.5 172.037,-26.5 313.062,-26.5 313.062,-6.5 172.037,-6.5"/>
<text text-anchor="middle" x="242.55" y="-13.5" font-family="Helvetica,sans-Serif" font-size="10.00">panda::ParticleM::destructor</text>
</a>
</g>
</g>
<!-- Node1&#45;&gt;Node2 -->
<g id="edge1" class="edge"><title>Node1&#45;&gt;Node2</title>
<path fill="none" stroke="midnightblue" d="M136.218,-16.5C144.65,-16.5 153.339,-16.5 161.939,-16.5"/>
<polygon fill="midnightblue" stroke="midnightblue" points="161.973,-20.0001 171.973,-16.5 161.973,-13.0001 161.973,-20.0001"/>
</g>
<!-- Node3 -->
<g id="node3" class="node"><title>Node3</title>
<g id="a_node3"><a xlink:href="classpanda_1_1Particle.html#ad1a5f606b804ac2ec5d7e391aba6bda6" target="_top" xlink:title="Destructor implementation. ">
<polygon fill="white" stroke="black" points="349.062,-6.5 349.062,-26.5 481.758,-26.5 481.758,-6.5 349.062,-6.5"/>
<text text-anchor="middle" x="415.41" y="-13.5" font-family="Helvetica,sans-Serif" font-size="10.00">panda::Particle::destructor</text>
</a>
</g>
</g>
<!-- Node2&#45;&gt;Node3 -->
<g id="edge2" class="edge"><title>Node2&#45;&gt;Node3</title>
<path fill="none" stroke="midnightblue" d="M313.538,-16.5C321.859,-16.5 330.382,-16.5 338.777,-16.5"/>
<polygon fill="midnightblue" stroke="midnightblue" points="338.932,-20.0001 348.932,-16.5 338.932,-13.0001 338.932,-20.0001"/>
</g>
<!-- Node4 -->
<g id="node4" class="node"><title>Node4</title>
<g id="a_node4"><a xlink:href="classpanda_1_1ContainerElement.html#aa1c71695dae992e82bf91f354aa8480c" target="_top" xlink:title="Destructor implementation. ">
<polygon fill="white" stroke="black" points="517.758,-0.5 517.758,-32.5 647.125,-32.5 647.125,-0.5 517.758,-0.5"/>
<text text-anchor="start" x="525.758" y="-19.5" font-family="Helvetica,sans-Serif" font-size="10.00">panda::ContainerElement</text>
<text text-anchor="middle" x="582.442" y="-7.5" font-family="Helvetica,sans-Serif" font-size="10.00">::destructor</text>
</a>
</g>
</g>
<!-- Node3&#45;&gt;Node4 -->
<g id="edge3" class="edge"><title>Node3&#45;&gt;Node4</title>
<path fill="none" stroke="midnightblue" d="M482.109,-16.5C490.417,-16.5 498.961,-16.5 507.388,-16.5"/>
<polygon fill="midnightblue" stroke="midnightblue" points="507.583,-20.0001 517.583,-16.5 507.582,-13.0001 507.583,-20.0001"/>
</g>
</g>
</svg>
