<?xml version="1.0" encoding="UTF-8" standalone="no"?>
<!DOCTYPE svg PUBLIC "-//W3C//DTD SVG 1.1//EN"
 "http://www.w3.org/Graphics/SVG/1.1/DTD/svg11.dtd">
<!-- Generated by graphviz version 2.38.0 (20140413.2041)
 -->
<!-- Title: panda::Parton::setStatus Pages: 1 -->
<!--zoomable 189 -->
<svg id="main" version="1.1" xmlns="http://www.w3.org/2000/svg" xmlns:xlink="http://www.w3.org/1999/xlink" xml:space="preserve" onload="init(evt)">
<style type="text/css"><![CDATA[
.edge:hover path { stroke: red; }
.edge:hover polygon { stroke: red; fill: red; }
]]></style>
<script type="text/javascript"><![CDATA[
var edges = document.getElementsByTagName('g');
if (edges && edges.length) {
  for (var i=0;i<edges.length;i++) {
    if (edges[i].id.substr(0,4)=='edge') {
      edges[i].setAttribute('class','edge');
    }
  }
}
]]></script>
        <defs>
                <circle id="rim" cx="0" cy="0" r="7"/>
                <circle id="rim2" cx="0" cy="0" r="3.5"/>
                <g id="zoomPlus">
                        <use xlink:href="#rim" fill="#404040">
                                <set attributeName="fill" to="#808080" begin="zoomplus.mouseover" end="zoomplus.mouseout"/>
                        </use>
                        <path d="M-4,0h8M0,-4v8" fill="none" stroke="white" stroke-width="1.5" pointer-events="none"/>
                </g>
                <g id="zoomMin">
                        <use xlink:href="#rim" fill="#404040">
                                <set attributeName="fill" to="#808080" begin="zoomminus.mouseover" end="zoomminus.mouseout"/>
                        </use>
                        <path d="M-4,0h8" fill="none" stroke="white" stroke-width="1.5" pointer-events="none"/>
                </g>
                <g id="dirArrow">
                        <path fill="none" stroke="white" stroke-width="1.5" d="M0,-3.0v7 M-2.5,-0.5L0,-3.0L2.5,-0.5"/>
                </g>
               <g id="resetDef">
                       <use xlink:href="#rim2" fill="#404040">
                               <set attributeName="fill" to="#808080" begin="reset.mouseover" end="reset.mouseout"/>
                       </use>
               </g>
        </defs>

<script type="text/javascript">
var viewWidth = 827;
var viewHeight = 189;
var sectionId = 'dynsection-10';
</script>
<script xlink:href="svgpan.js"/>
<svg id="graph" class="graph">
<g id="viewport">
<title>panda::Parton::setStatus</title>
<polygon fill="white" stroke="none" points="-4,4 -4,-185 822.63,-185 822.63,4 -4,4"/>
<!-- Node1 -->
<g id="node1" class="node"><title>Node1</title>
<polygon fill="#bfbfbf" stroke="black" points="-7.10543e-15,-109.5 -7.10543e-15,-129.5 126.048,-129.5 126.048,-109.5 -7.10543e-15,-109.5"/>
<text text-anchor="middle" x="63.024" y="-116.5" font-family="Helvetica,sans-Serif" font-size="10.00">panda::Parton::setStatus</text>
</g>
<!-- Node2 -->
<g id="node2" class="node"><title>Node2</title>
<g id="a_node2"><a xlink:href="classpanda_1_1ParticleM.html#a3154bba2f00a8165994caa8ef55473bf" target="_top" xlink:title="Set status of branches with names that correspond to the variables of this object. ">
<polygon fill="white" stroke="black" points="162.048,-109.5 162.048,-129.5 300.304,-129.5 300.304,-109.5 162.048,-109.5"/>
<text text-anchor="middle" x="231.176" y="-116.5" font-family="Helvetica,sans-Serif" font-size="10.00">panda::ParticleM::setStatus</text>
</a>
</g>
</g>
<!-- Node1&#45;&gt;Node2 -->
<g id="edge1" class="edge"><title>Node1&#45;&gt;Node2</title>
<path fill="none" stroke="midnightblue" d="M126.366,-119.5C134.705,-119.5 143.342,-119.5 151.91,-119.5"/>
<polygon fill="midnightblue" stroke="midnightblue" points="151.916,-123 161.916,-119.5 151.916,-116 151.916,-123"/>
</g>
<!-- Node5 -->
<g id="node5" class="node"><title>Node5</title>
<g id="a_node5"><a xlink:href="classpanda_1_1utils_1_1StoreManager.html#a6f30ec459d951e84a1196b7e2ffdcf49" target="_top" xlink:title="panda::utils::StoreManager\l::getName">
<polygon fill="white" stroke="black" points="502.231,-148.5 502.231,-180.5 638.266,-180.5 638.266,-148.5 502.231,-148.5"/>
<text text-anchor="start" x="510.231" y="-167.5" font-family="Helvetica,sans-Serif" font-size="10.00">panda::utils::StoreManager</text>
<text text-anchor="middle" x="570.249" y="-155.5" font-family="Helvetica,sans-Serif" font-size="10.00">::getName</text>
</a>
</g>
</g>
<!-- Node1&#45;&gt;Node5 -->
<g id="edge12" class="edge"><title>Node1&#45;&gt;Node5</title>
<path fill="none" stroke="midnightblue" d="M112.274,-129.508C128.095,-132.614 145.786,-135.9 162.048,-138.5 239.131,-150.823 258.441,-154.933 336.304,-160.5 388.159,-164.208 446.663,-165.201 492.069,-165.27"/>
<polygon fill="midnightblue" stroke="midnightblue" points="492.137,-168.77 502.138,-165.271 492.138,-161.77 492.137,-168.77"/>
</g>
<!-- Node6 -->
<g id="node6" class="node"><title>Node6</title>
<g id="a_node6"><a xlink:href="namespacepanda_1_1utils.html#a01665f786d6a2acedb8f008f3fc9fc84" target="_top" xlink:title="Set status of a branch. ">
<polygon fill="white" stroke="black" points="513.064,-70.5 513.064,-90.5 627.434,-90.5 627.434,-70.5 513.064,-70.5"/>
<text text-anchor="middle" x="570.249" y="-77.5" font-family="Helvetica,sans-Serif" font-size="10.00">panda::utils::setStatus</text>
</a>
</g>
</g>
<!-- Node1&#45;&gt;Node6 -->
<g id="edge13" class="edge"><title>Node1&#45;&gt;Node6</title>
<path fill="none" stroke="midnightblue" d="M108.247,-109.404C125.025,-105.857 144.35,-102.11 162.048,-99.5 281.226,-81.9247 421.947,-79.3215 502.872,-79.5503"/>
<polygon fill="midnightblue" stroke="midnightblue" points="502.906,-83.0503 512.921,-79.5942 502.936,-76.0504 502.906,-83.0503"/>
</g>
<!-- Node3 -->
<g id="node3" class="node"><title>Node3</title>
<g id="a_node3"><a xlink:href="classpanda_1_1Particle.html#a114feb26e7ed0b5fac53646fca93964e" target="_top" xlink:title="Set status of branches with names that correspond to the variables of this object. ">
<polygon fill="white" stroke="black" points="336.304,-109.5 336.304,-129.5 466.231,-129.5 466.231,-109.5 336.304,-109.5"/>
<text text-anchor="middle" x="401.268" y="-116.5" font-family="Helvetica,sans-Serif" font-size="10.00">panda::Particle::setStatus</text>
</a>
</g>
</g>
<!-- Node2&#45;&gt;Node3 -->
<g id="edge2" class="edge"><title>Node2&#45;&gt;Node3</title>
<path fill="none" stroke="midnightblue" d="M300.545,-119.5C308.946,-119.5 317.563,-119.5 326.045,-119.5"/>
<polygon fill="midnightblue" stroke="midnightblue" points="326.3,-123 336.3,-119.5 326.3,-116 326.3,-123"/>
</g>
<!-- Node2&#45;&gt;Node5 -->
<g id="edge10" class="edge"><title>Node2&#45;&gt;Node5</title>
<path fill="none" stroke="midnightblue" d="M283.168,-129.533C300.041,-132.658 318.941,-135.95 336.304,-138.5 388.051,-146.1 446.556,-152.622 491.989,-157.233"/>
<polygon fill="midnightblue" stroke="midnightblue" points="491.764,-160.728 502.064,-158.246 492.465,-153.763 491.764,-160.728"/>
</g>
<!-- Node2&#45;&gt;Node6 -->
<g id="edge11" class="edge"><title>Node2&#45;&gt;Node6</title>
<path fill="none" stroke="midnightblue" d="M278.65,-109.457C296.593,-105.873 317.335,-102.088 336.304,-99.5 392.3,-91.8617 456.318,-86.9107 503.054,-83.9839"/>
<polygon fill="midnightblue" stroke="midnightblue" points="503.285,-87.4764 513.053,-83.3721 502.857,-80.4895 503.285,-87.4764"/>
</g>
<!-- Node4 -->
<g id="node4" class="node"><title>Node4</title>
<g id="a_node4"><a xlink:href="classpanda_1_1Object.html#a282e820b1ad431db22ca4d4dd20b55e0" target="_top" xlink:title="Set status of branches with names that correspond to the variables of this object. ">
<polygon fill="white" stroke="black" points="507.504,-109.5 507.504,-129.5 632.993,-129.5 632.993,-109.5 507.504,-109.5"/>
<text text-anchor="middle" x="570.249" y="-116.5" font-family="Helvetica,sans-Serif" font-size="10.00">panda::Object::setStatus</text>
</a>
</g>
</g>
<!-- Node3&#45;&gt;Node4 -->
<g id="edge3" class="edge"><title>Node3&#45;&gt;Node4</title>
<path fill="none" stroke="midnightblue" d="M466.349,-119.5C476.42,-119.5 486.89,-119.5 497.127,-119.5"/>
<polygon fill="midnightblue" stroke="midnightblue" points="497.264,-123 507.264,-119.5 497.264,-116 497.264,-123"/>
</g>
<!-- Node3&#45;&gt;Node5 -->
<g id="edge4" class="edge"><title>Node3&#45;&gt;Node5</title>
<path fill="none" stroke="midnightblue" d="M439.741,-129.599C457.505,-134.386 479.311,-140.263 499.929,-145.819"/>
<polygon fill="midnightblue" stroke="midnightblue" points="499.048,-149.206 509.615,-148.429 500.87,-142.448 499.048,-149.206"/>
</g>
<!-- Node3&#45;&gt;Node6 -->
<g id="edge5" class="edge"><title>Node3&#45;&gt;Node6</title>
<path fill="none" stroke="midnightblue" d="M445.269,-109.457C466.986,-104.384 493.526,-98.1857 516.47,-92.8269"/>
<polygon fill="midnightblue" stroke="midnightblue" points="517.451,-96.1922 526.392,-90.5094 515.858,-89.3756 517.451,-96.1922"/>
</g>
<!-- Node7 -->
<g id="node7" class="node"><title>Node7</title>
<g id="a_node7"><a xlink:href="classpanda_1_1utils_1_1BranchName.html#a6cc8a6df7c5b12a0221fd49773cca6a7" target="_top" xlink:title="Is the name included and not vetoed? ">
<polygon fill="white" stroke="black" points="674.266,-141.5 674.266,-161.5 818.63,-161.5 818.63,-141.5 674.266,-141.5"/>
<text text-anchor="middle" x="746.448" y="-148.5" font-family="Helvetica,sans-Serif" font-size="10.00">panda::utils::BranchName::in</text>
</a>
</g>
</g>
<!-- Node6&#45;&gt;Node7 -->
<g id="edge6" class="edge"><title>Node6&#45;&gt;Node7</title>
<path fill="none" stroke="midnightblue" d="M617.404,-90.6052C624.606,-93.0189 631.797,-95.9539 638.266,-99.5 657.038,-109.79 655.482,-121.232 674.266,-131.5 678.727,-133.939 683.512,-136.102 688.414,-138.016"/>
<polygon fill="midnightblue" stroke="midnightblue" points="687.334,-141.347 697.929,-141.397 689.678,-134.751 687.334,-141.347"/>
</g>
<!-- Node8 -->
<g id="node8" class="node"><title>Node8</title>
<g id="a_node8"><a xlink:href="classpanda_1_1utils_1_1BranchName.html#ae3332329bf2afae5ed8e7c35e5d77ffa" target="_top" xlink:title="Is the name included and vetoed? ">
<polygon fill="white" stroke="black" points="680.934,-90.5 680.934,-122.5 811.962,-122.5 811.962,-90.5 680.934,-90.5"/>
<text text-anchor="start" x="688.934" y="-109.5" font-family="Helvetica,sans-Serif" font-size="10.00">panda::utils::BranchName</text>
<text text-anchor="middle" x="746.448" y="-97.5" font-family="Helvetica,sans-Serif" font-size="10.00">::vetoed</text>
</a>
</g>
</g>
<!-- Node6&#45;&gt;Node8 -->
<g id="edge7" class="edge"><title>Node6&#45;&gt;Node8</title>
<path fill="none" stroke="midnightblue" d="M627.806,-88.9415C641.396,-90.9699 656.122,-93.1678 670.407,-95.2999"/>
<polygon fill="midnightblue" stroke="midnightblue" points="670.301,-98.8227 680.708,-96.8373 671.335,-91.8994 670.301,-98.8227"/>
</g>
<!-- Node9 -->
<g id="node9" class="node"><title>Node9</title>
<g id="a_node9"><a xlink:href="classpanda_1_1utils_1_1BranchName.html#a13958ff4a9d554d2c057c600b4f70412" target="_top" xlink:title="Prepend the branch name with &lt;objName.&gt;. ">
<polygon fill="white" stroke="black" points="680.934,-39.5 680.934,-71.5 811.962,-71.5 811.962,-39.5 680.934,-39.5"/>
<text text-anchor="start" x="688.934" y="-58.5" font-family="Helvetica,sans-Serif" font-size="10.00">panda::utils::BranchName</text>
<text text-anchor="middle" x="746.448" y="-46.5" font-family="Helvetica,sans-Serif" font-size="10.00">::fullName</text>
</a>
</g>
</g>
<!-- Node6&#45;&gt;Node9 -->
<g id="edge8" class="edge"><title>Node6&#45;&gt;Node9</title>
<path fill="none" stroke="midnightblue" d="M627.806,-72.3832C641.396,-70.4328 656.122,-68.3194 670.407,-66.2694"/>
<polygon fill="midnightblue" stroke="midnightblue" points="671.307,-69.6762 680.708,-64.791 670.312,-62.7472 671.307,-69.6762"/>
</g>
<!-- Node10 -->
<g id="node10" class="node"><title>Node10</title>
<g id="a_node10"><a xlink:href="namespacepanda_1_1utils.html#aafa411773a4b0ee829d99e6e5a0abdcd" target="_top" xlink:title="Check status of a branch. ">
<polygon fill="white" stroke="black" points="682.873,-0.5 682.873,-20.5 810.023,-20.5 810.023,-0.5 682.873,-0.5"/>
<text text-anchor="middle" x="746.448" y="-7.5" font-family="Helvetica,sans-Serif" font-size="10.00">panda::utils::checkStatus</text>
</a>
</g>
</g>
<!-- Node6&#45;&gt;Node10 -->
<g id="edge9" class="edge"><title>Node6&#45;&gt;Node10</title>
<path fill="none" stroke="midnightblue" d="M588.999,-70.3521C609.152,-59.1554 643.265,-41.1784 674.266,-29.5 680.079,-27.3103 686.248,-25.2677 692.428,-23.3951"/>
<polygon fill="midnightblue" stroke="midnightblue" points="693.468,-26.7378 702.101,-20.5957 691.522,-20.0137 693.468,-26.7378"/>
</g>
</g>
</svg>
        <g id="navigator" transform="translate(0 0)" fill="#404254">
                <rect fill="#f2f5e9" fill-opacity="0.5" stroke="#606060" stroke-width=".5" x="0" y="0" width="60" height="60"/>
                <use id="zoomplus" xlink:href="#zoomPlus" x="17" y="9" onmousedown="handleZoom(evt,'in')"/>
                <use id="zoomminus" xlink:href="#zoomMin" x="42" y="9" onmousedown="handleZoom(evt,'out')"/>
                <use id="reset" xlink:href="#resetDef" x="30" y="36" onmousedown="handleReset()"/>
                <g id="arrowUp" xlink:href="#dirArrow" transform="translate(30 24)" onmousedown="handlePan(0,-1)">
                  <use xlink:href="#rim" fill="#404040">
                        <set attributeName="fill" to="#808080" begin="arrowUp.mouseover" end="arrowUp.mouseout"/>
                  </use>
                  <path fill="none" stroke="white" stroke-width="1.5" d="M0,-3.0v7 M-2.5,-0.5L0,-3.0L2.5,-0.5"/>
                </g>
                <g id="arrowRight" xlink:href="#dirArrow" transform="rotate(90) translate(36 -43)" onmousedown="handlePan(1,0)">
                  <use xlink:href="#rim" fill="#404040">
                        <set attributeName="fill" to="#808080" begin="arrowRight.mouseover" end="arrowRight.mouseout"/>
                  </use>
                  <path fill="none" stroke="white" stroke-width="1.5" d="M0,-3.0v7 M-2.5,-0.5L0,-3.0L2.5,-0.5"/>
                </g>
                <g id="arrowDown" xlink:href="#dirArrow" transform="rotate(180) translate(-30 -48)" onmousedown="handlePan(0,1)">
                  <use xlink:href="#rim" fill="#404040">
                        <set attributeName="fill" to="#808080" begin="arrowDown.mouseover" end="arrowDown.mouseout"/>
                  </use>
                  <path fill="none" stroke="white" stroke-width="1.5" d="M0,-3.0v7 M-2.5,-0.5L0,-3.0L2.5,-0.5"/>
                </g>
                <g id="arrowLeft" xlink:href="#dirArrow" transform="rotate(270) translate(-36 17)" onmousedown="handlePan(-1,0)">
                  <use xlink:href="#rim" fill="#404040">
                        <set attributeName="fill" to="#808080" begin="arrowLeft.mouseover" end="arrowLeft.mouseout"/>
                  </use>
                  <path fill="none" stroke="white" stroke-width="1.5" d="M0,-3.0v7 M-2.5,-0.5L0,-3.0L2.5,-0.5"/>
                </g>
        </g>
        <svg viewBox="0 0 15 15" width="100%" height="30px" preserveAspectRatio="xMaxYMin meet">
         <g id="arrow_out" transform="scale(0.3 0.3)">
          <a xlink:href="classpanda_1_1Parton_afc1af337bdb9cc55a55ebea4c819fc76_cgraph_org.svg" target="_base">
           <rect id="button" ry="5" rx="5" y="6" x="6" height="38" width="38"
                fill="#f2f5e9" fill-opacity="0.5" stroke="#606060" stroke-width="1.0"/>
           <path id="arrow"
             d="M 11.500037,31.436501 C 11.940474,20.09759 22.043105,11.32322 32.158766,21.979434 L 37.068811,17.246167 C 37.068811,17.246167 37.088388,32 37.088388,32 L 22.160133,31.978069 C 22.160133,31.978069 26.997745,27.140456 26.997745,27.140456 C 18.528582,18.264221 13.291696,25.230495 11.500037,31.436501 z"
             style="fill:#404040;"/>
          </a>
         </g>
        </svg>
</svg>
