<?xml version="1.0" encoding="UTF-8" standalone="no"?>
<!DOCTYPE svg PUBLIC "-//W3C//DTD SVG 1.1//EN"
 "http://www.w3.org/Graphics/SVG/1.1/DTD/svg11.dtd">
<!-- Generated by graphviz version 2.38.0 (20140413.2041)
 -->
<!-- Title: panda::ParticleM::releaseTree Pages: 1 -->
<!--zoomable 125 -->
<svg id="main" version="1.1" xmlns="http://www.w3.org/2000/svg" xmlns:xlink="http://www.w3.org/1999/xlink" xml:space="preserve" onload="init(evt)">
<style type="text/css"><![CDATA[
.edge:hover path { stroke: red; }
.edge:hover polygon { stroke: red; fill: red; }
]]></style>
<script type="text/javascript"><![CDATA[
var edges = document.getElementsByTagName('g');
if (edges && edges.length) {
  for (var i=0;i<edges.length;i++) {
    if (edges[i].id.substr(0,4)=='edge') {
      edges[i].setAttribute('class','edge');
    }
  }
}
]]></script>
        <defs>
                <circle id="rim" cx="0" cy="0" r="7"/>
                <circle id="rim2" cx="0" cy="0" r="3.5"/>
                <g id="zoomPlus">
                        <use xlink:href="#rim" fill="#404040">
                                <set attributeName="fill" to="#808080" begin="zoomplus.mouseover" end="zoomplus.mouseout"/>
                        </use>
                        <path d="M-4,0h8M0,-4v8" fill="none" stroke="white" stroke-width="1.5" pointer-events="none"/>
                </g>
                <g id="zoomMin">
                        <use xlink:href="#rim" fill="#404040">
                                <set attributeName="fill" to="#808080" begin="zoomminus.mouseover" end="zoomminus.mouseout"/>
                        </use>
                        <path d="M-4,0h8" fill="none" stroke="white" stroke-width="1.5" pointer-events="none"/>
                </g>
                <g id="dirArrow">
                        <path fill="none" stroke="white" stroke-width="1.5" d="M0,-3.0v7 M-2.5,-0.5L0,-3.0L2.5,-0.5"/>
                </g>
               <g id="resetDef">
                       <use xlink:href="#rim2" fill="#404040">
                               <set attributeName="fill" to="#808080" begin="reset.mouseover" end="reset.mouseout"/>
                       </use>
               </g>
        </defs>

<script type="text/javascript">
var viewWidth = 676;
var viewHeight = 125;
var sectionId = 'dynsection-13';
</script>
<script xlink:href="svgpan.js"/>
<svg id="graph" class="graph">
<g id="viewport">
<title>panda::ParticleM::releaseTree</title>
<polygon fill="white" stroke="none" points="-4,4 -4,-121 671.671,-121 671.671,4 -4,4"/>
<!-- Node1 -->
<g id="node1" class="node"><title>Node1</title>
<polygon fill="#bfbfbf" stroke="black" points="2.84217e-14,-45.5 2.84217e-14,-65.5 149.913,-65.5 149.913,-45.5 2.84217e-14,-45.5"/>
<text text-anchor="middle" x="74.9565" y="-52.5" font-family="Helvetica,sans-Serif" font-size="10.00">panda::ParticleM::releaseTree</text>
</g>
<!-- Node2 -->
<g id="node2" class="node"><title>Node2</title>
<g id="a_node2"><a xlink:href="classpanda_1_1Particle.html#a8fb6fa0b4316967da573181262727142" target="_top" xlink:title="Reset the branch pointer to unlink the branch from this object. ">
<polygon fill="white" stroke="black" points="185.913,-45.5 185.913,-65.5 327.497,-65.5 327.497,-45.5 185.913,-45.5"/>
<text text-anchor="middle" x="256.705" y="-52.5" font-family="Helvetica,sans-Serif" font-size="10.00">panda::Particle::releaseTree</text>
</a>
</g>
</g>
<!-- Node1&#45;&gt;Node2 -->
<g id="edge1" class="edge"><title>Node1&#45;&gt;Node2</title>
<path fill="none" stroke="midnightblue" d="M150.105,-55.5C158.493,-55.5 167.069,-55.5 175.529,-55.5"/>
<polygon fill="midnightblue" stroke="midnightblue" points="175.771,-59.0001 185.771,-55.5 175.771,-52.0001 175.771,-59.0001"/>
</g>
<!-- Node4 -->
<g id="node4" class="node"><title>Node4</title>
<g id="a_node4"><a xlink:href="classpanda_1_1utils_1_1StoreManager.html#a6f30ec459d951e84a1196b7e2ffdcf49" target="_top" xlink:title="panda::utils::StoreManager\l::getName">
<polygon fill="white" stroke="black" points="364.052,-84.5 364.052,-116.5 500.087,-116.5 500.087,-84.5 364.052,-84.5"/>
<text text-anchor="start" x="372.052" y="-103.5" font-family="Helvetica,sans-Serif" font-size="10.00">panda::utils::StoreManager</text>
<text text-anchor="middle" x="432.07" y="-91.5" font-family="Helvetica,sans-Serif" font-size="10.00">::getName</text>
</a>
</g>
</g>
<!-- Node1&#45;&gt;Node4 -->
<g id="edge6" class="edge"><title>Node1&#45;&gt;Node4</title>
<path fill="none" stroke="midnightblue" d="M129.816,-65.531C147.635,-68.6559 167.589,-71.948 185.913,-74.5 241.914,-82.2994 305.4,-88.9728 353.735,-93.6054"/>
<polygon fill="midnightblue" stroke="midnightblue" points="353.524,-97.1011 363.811,-94.5627 354.187,-90.1325 353.524,-97.1011"/>
</g>
<!-- Node5 -->
<g id="node5" class="node"><title>Node5</title>
<g id="a_node5"><a xlink:href="namespacepanda_1_1utils.html#a82a8530e64fbdf917cf9b8659065f98b" target="_top" xlink:title="panda::utils::resetAddress">
<polygon fill="white" stroke="black" points="366.276,-6.5 366.276,-26.5 497.864,-26.5 497.864,-6.5 366.276,-6.5"/>
<text text-anchor="middle" x="432.07" y="-13.5" font-family="Helvetica,sans-Serif" font-size="10.00">panda::utils::resetAddress</text>
</a>
</g>
</g>
<!-- Node1&#45;&gt;Node5 -->
<g id="edge7" class="edge"><title>Node1&#45;&gt;Node5</title>
<path fill="none" stroke="midnightblue" d="M125.051,-45.4582C144.001,-41.8747 165.901,-38.0886 185.913,-35.5 242.731,-28.1507 307.351,-23.2853 355.979,-20.3192"/>
<polygon fill="midnightblue" stroke="midnightblue" points="356.331,-23.8046 366.104,-19.7149 355.914,-16.817 356.331,-23.8046"/>
</g>
<!-- Node3 -->
<g id="node3" class="node"><title>Node3</title>
<g id="a_node3"><a xlink:href="classpanda_1_1Object.html#aaf58438092b42a89b838ce12c6a23833" target="_top" xlink:title="Reset the branch pointer to unlink the branch from this object. ">
<polygon fill="white" stroke="black" points="363.497,-45.5 363.497,-65.5 500.643,-65.5 500.643,-45.5 363.497,-45.5"/>
<text text-anchor="middle" x="432.07" y="-52.5" font-family="Helvetica,sans-Serif" font-size="10.00">panda::Object::releaseTree</text>
</a>
</g>
</g>
<!-- Node2&#45;&gt;Node3 -->
<g id="edge2" class="edge"><title>Node2&#45;&gt;Node3</title>
<path fill="none" stroke="midnightblue" d="M327.719,-55.5C336.071,-55.5 344.637,-55.5 353.091,-55.5"/>
<polygon fill="midnightblue" stroke="midnightblue" points="353.326,-59.0001 363.326,-55.5 353.326,-52.0001 353.326,-59.0001"/>
</g>
<!-- Node2&#45;&gt;Node4 -->
<g id="edge3" class="edge"><title>Node2&#45;&gt;Node4</title>
<path fill="none" stroke="midnightblue" d="M296.611,-65.5989C315.138,-70.4078 337.899,-76.3158 359.391,-81.8944"/>
<polygon fill="midnightblue" stroke="midnightblue" points="358.598,-85.3044 369.156,-84.4292 360.356,-78.5289 358.598,-85.3044"/>
</g>
<!-- Node2&#45;&gt;Node5 -->
<g id="edge4" class="edge"><title>Node2&#45;&gt;Node5</title>
<path fill="none" stroke="midnightblue" d="M302.351,-45.4565C324.999,-40.3615 352.7,-34.1301 376.594,-28.7549"/>
<polygon fill="midnightblue" stroke="midnightblue" points="377.587,-32.1189 386.575,-26.5094 376.051,-25.2896 377.587,-32.1189"/>
</g>
<!-- Node6 -->
<g id="node6" class="node"><title>Node6</title>
<g id="a_node6"><a xlink:href="classpanda_1_1utils_1_1BranchName.html#a13958ff4a9d554d2c057c600b4f70412" target="_top" xlink:title="Prepend the branch name with &lt;objName.&gt;. ">
<polygon fill="white" stroke="black" points="536.643,-0.5 536.643,-32.5 667.671,-32.5 667.671,-0.5 536.643,-0.5"/>
<text text-anchor="start" x="544.643" y="-19.5" font-family="Helvetica,sans-Serif" font-size="10.00">panda::utils::BranchName</text>
<text text-anchor="middle" x="602.157" y="-7.5" font-family="Helvetica,sans-Serif" font-size="10.00">::fullName</text>
</a>
</g>
</g>
<!-- Node5&#45;&gt;Node6 -->
<g id="edge5" class="edge"><title>Node5&#45;&gt;Node6</title>
<path fill="none" stroke="midnightblue" d="M498.057,-16.5C507.351,-16.5 516.974,-16.5 526.437,-16.5"/>
<polygon fill="midnightblue" stroke="midnightblue" points="526.62,-20.0001 536.62,-16.5 526.62,-13.0001 526.62,-20.0001"/>
</g>
</g>
</svg>
        <g id="navigator" transform="translate(0 0)" fill="#404254">
                <rect fill="#f2f5e9" fill-opacity="0.5" stroke="#606060" stroke-width=".5" x="0" y="0" width="60" height="60"/>
                <use id="zoomplus" xlink:href="#zoomPlus" x="17" y="9" onmousedown="handleZoom(evt,'in')"/>
                <use id="zoomminus" xlink:href="#zoomMin" x="42" y="9" onmousedown="handleZoom(evt,'out')"/>
                <use id="reset" xlink:href="#resetDef" x="30" y="36" onmousedown="handleReset()"/>
                <g id="arrowUp" xlink:href="#dirArrow" transform="translate(30 24)" onmousedown="handlePan(0,-1)">
                  <use xlink:href="#rim" fill="#404040">
                        <set attributeName="fill" to="#808080" begin="arrowUp.mouseover" end="arrowUp.mouseout"/>
                  </use>
                  <path fill="none" stroke="white" stroke-width="1.5" d="M0,-3.0v7 M-2.5,-0.5L0,-3.0L2.5,-0.5"/>
                </g>
                <g id="arrowRight" xlink:href="#dirArrow" transform="rotate(90) translate(36 -43)" onmousedown="handlePan(1,0)">
                  <use xlink:href="#rim" fill="#404040">
                        <set attributeName="fill" to="#808080" begin="arrowRight.mouseover" end="arrowRight.mouseout"/>
                  </use>
                  <path fill="none" stroke="white" stroke-width="1.5" d="M0,-3.0v7 M-2.5,-0.5L0,-3.0L2.5,-0.5"/>
                </g>
                <g id="arrowDown" xlink:href="#dirArrow" transform="rotate(180) translate(-30 -48)" onmousedown="handlePan(0,1)">
                  <use xlink:href="#rim" fill="#404040">
                        <set attributeName="fill" to="#808080" begin="arrowDown.mouseover" end="arrowDown.mouseout"/>
                  </use>
                  <path fill="none" stroke="white" stroke-width="1.5" d="M0,-3.0v7 M-2.5,-0.5L0,-3.0L2.5,-0.5"/>
                </g>
                <g id="arrowLeft" xlink:href="#dirArrow" transform="rotate(270) translate(-36 17)" onmousedown="handlePan(-1,0)">
                  <use xlink:href="#rim" fill="#404040">
                        <set attributeName="fill" to="#808080" begin="arrowLeft.mouseover" end="arrowLeft.mouseout"/>
                  </use>
                  <path fill="none" stroke="white" stroke-width="1.5" d="M0,-3.0v7 M-2.5,-0.5L0,-3.0L2.5,-0.5"/>
                </g>
        </g>
        <svg viewBox="0 0 15 15" width="100%" height="30px" preserveAspectRatio="xMaxYMin meet">
         <g id="arrow_out" transform="scale(0.3 0.3)">
          <a xlink:href="classpanda_1_1ParticleM_a0315a281e15ff66329eef5169b162e8e_cgraph_org.svg" target="_base">
           <rect id="button" ry="5" rx="5" y="6" x="6" height="38" width="38"
                fill="#f2f5e9" fill-opacity="0.5" stroke="#606060" stroke-width="1.0"/>
           <path id="arrow"
             d="M 11.500037,31.436501 C 11.940474,20.09759 22.043105,11.32322 32.158766,21.979434 L 37.068811,17.246167 C 37.068811,17.246167 37.088388,32 37.088388,32 L 22.160133,31.978069 C 22.160133,31.978069 26.997745,27.140456 26.997745,27.140456 C 18.528582,18.264221 13.291696,25.230495 11.500037,31.436501 z"
             style="fill:#404040;"/>
          </a>
         </g>
        </svg>
</svg>
