<?xml version="1.0" encoding="UTF-8" standalone="no"?>
<!DOCTYPE svg PUBLIC "-//W3C//DTD SVG 1.1//EN"
 "http://www.w3.org/Graphics/SVG/1.1/DTD/svg11.dtd">
<!-- Generated by graphviz version 2.38.0 (20140413.2041)
 -->
<!-- Title: panda::utils::StoreManager::getData Pages: 1 -->
<svg width="494pt" height="486pt"
 viewBox="0.00 0.00 494.24 486.12" xmlns="http://www.w3.org/2000/svg" xmlns:xlink="http://www.w3.org/1999/xlink">
<g id="graph0" class="graph" transform="scale(1 1) rotate(0) translate(4 482.121)">
<title>panda::utils::StoreManager::getData</title>
<polygon fill="white" stroke="none" points="-4,4 -4,-482.121 490.24,-482.121 490.24,4 -4,4"/>
<!-- Node1 -->
<g id="node1" class="node"><title>Node1</title>
<polygon fill="#bfbfbf" stroke="black" points="0,-208.5 0,-240.5 136.035,-240.5 136.035,-208.5 0,-208.5"/>
<text text-anchor="start" x="8" y="-227.5" font-family="Helvetica,sans-Serif" font-size="10.00">panda::utils::StoreManager</text>
<text text-anchor="middle" x="68.0175" y="-215.5" font-family="Helvetica,sans-Serif" font-size="10.00">::getData</text>
</g>
<!-- Node2 -->
<g id="node2" class="node"><title>Node2</title>
<g id="a_node2"><a xlink:href="classpanda_1_1Electron.html#a26659ab11a463332edbb15d82e2e49c1" target="_top" xlink:title="Set address for the branches to the variables of this object. ">
<polygon fill="white" stroke="black" points="344.643,-453.5 344.643,-473.5 486.24,-473.5 486.24,-453.5 344.643,-453.5"/>
<text text-anchor="middle" x="415.441" y="-460.5" font-family="Helvetica,sans-Serif" font-size="10.00">panda::Electron::setAddress</text>
</a>
</g>
</g>
<!-- Node1&#45;&gt;Node2 -->
<g id="edge1" class="edge"><title>Node1&#45;&gt;Node2</title>
<path fill="none" stroke="midnightblue" d="M72.745,-250.894C81.0277,-298.633 105.765,-398.621 172.035,-444.5 228.088,-483.306 309.892,-480.711 362.648,-473.508"/>
<polygon fill="midnightblue" stroke="midnightblue" points="76.1538,-250.05 71.0971,-240.739 69.2442,-251.171 76.1538,-250.05"/>
</g>
<!-- Node3 -->
<g id="node3" class="node"><title>Node3</title>
<g id="a_node3"><a xlink:href="classpanda_1_1Electron.html#a77a28ebcf6778febcd82ae81cbf7d74c" target="_top" xlink:title="Book new branches to the tree corresponding to the variables of this object. ">
<polygon fill="white" stroke="black" points="358.811,-273.5 358.811,-293.5 472.072,-293.5 472.072,-273.5 358.811,-273.5"/>
<text text-anchor="middle" x="415.441" y="-280.5" font-family="Helvetica,sans-Serif" font-size="10.00">panda::Electron::book</text>
</a>
</g>
</g>
<!-- Node1&#45;&gt;Node3 -->
<g id="edge2" class="edge"><title>Node1&#45;&gt;Node3</title>
<path fill="none" stroke="midnightblue" d="M112.669,-244.705C130.678,-252.174 151.991,-259.927 172.035,-264.5 234.798,-278.818 308.806,-282.82 358.389,-283.715"/>
<polygon fill="midnightblue" stroke="midnightblue" points="113.606,-241.3 103.034,-240.606 110.866,-247.741 113.606,-241.3"/>
</g>
<!-- Node4 -->
<g id="node4" class="node"><title>Node4</title>
<g id="a_node4"><a xlink:href="classpanda_1_1GenParticle.html#a049670d248a94df47fb4de6e73956b4f" target="_top" xlink:title="Set address for the branches to the variables of this object. ">
<polygon fill="white" stroke="black" points="189.547,-363.5 189.547,-395.5 291.13,-395.5 291.13,-363.5 189.547,-363.5"/>
<text text-anchor="start" x="197.547" y="-382.5" font-family="Helvetica,sans-Serif" font-size="10.00">panda::GenParticle</text>
<text text-anchor="middle" x="240.339" y="-370.5" font-family="Helvetica,sans-Serif" font-size="10.00">::setAddress</text>
</a>
</g>
</g>
<!-- Node1&#45;&gt;Node4 -->
<g id="edge3" class="edge"><title>Node1&#45;&gt;Node4</title>
<path fill="none" stroke="midnightblue" d="M83.0621,-249.563C100.476,-278.554 132.72,-325.945 172.035,-354.5 177.279,-358.309 183.17,-361.602 189.228,-364.432"/>
<polygon fill="midnightblue" stroke="midnightblue" points="86.0229,-247.693 77.9392,-240.845 79.9876,-251.239 86.0229,-247.693"/>
</g>
<!-- Node5 -->
<g id="node5" class="node"><title>Node5</title>
<g id="a_node5"><a xlink:href="classpanda_1_1GenParticle.html#a748bcf33806985c71d40c09e564e46ba" target="_top" xlink:title="Book new branches to the tree corresponding to the variables of this object. ">
<polygon fill="white" stroke="black" points="189.547,-312.5 189.547,-344.5 291.13,-344.5 291.13,-312.5 189.547,-312.5"/>
<text text-anchor="start" x="197.547" y="-331.5" font-family="Helvetica,sans-Serif" font-size="10.00">panda::GenParticle</text>
<text text-anchor="middle" x="240.339" y="-319.5" font-family="Helvetica,sans-Serif" font-size="10.00">::book</text>
</a>
</g>
</g>
<!-- Node1&#45;&gt;Node5 -->
<g id="edge4" class="edge"><title>Node1&#45;&gt;Node5</title>
<path fill="none" stroke="midnightblue" d="M97.6996,-247C117.854,-262.26 145.797,-282.336 172.035,-297.5 181.28,-302.843 191.605,-307.98 201.337,-312.483"/>
<polygon fill="midnightblue" stroke="midnightblue" points="99.6368,-244.076 89.5664,-240.784 95.3859,-249.637 99.6368,-244.076"/>
</g>
<!-- Node6 -->
<g id="node6" class="node"><title>Node6</title>
<g id="a_node6"><a xlink:href="classpanda_1_1Jet.html#a96b6f57c39cf4e35af339a58f828a78e" target="_top" xlink:title="Set address for the branches to the variables of this object. ">
<polygon fill="white" stroke="black" points="181.208,-195.5 181.208,-215.5 299.47,-215.5 299.47,-195.5 181.208,-195.5"/>
<text text-anchor="middle" x="240.339" y="-202.5" font-family="Helvetica,sans-Serif" font-size="10.00">panda::Jet::setAddress</text>
</a>
</g>
</g>
<!-- Node1&#45;&gt;Node6 -->
<g id="edge5" class="edge"><title>Node1&#45;&gt;Node6</title>
<path fill="none" stroke="midnightblue" d="M146.476,-215.859C158.099,-214.563 169.915,-213.245 181.048,-212.003"/>
<polygon fill="midnightblue" stroke="midnightblue" points="145.883,-212.404 136.333,-216.991 146.659,-219.36 145.883,-212.404"/>
</g>
<!-- Node8 -->
<g id="node8" class="node"><title>Node8</title>
<g id="a_node8"><a xlink:href="classpanda_1_1Jet.html#af047a1a3e21716a28f9a1deaa9d43123" target="_top" xlink:title="Book new branches to the tree corresponding to the variables of this object. ">
<polygon fill="white" stroke="black" points="195.376,-156.5 195.376,-176.5 285.302,-176.5 285.302,-156.5 195.376,-156.5"/>
<text text-anchor="middle" x="240.339" y="-163.5" font-family="Helvetica,sans-Serif" font-size="10.00">panda::Jet::book</text>
</a>
</g>
</g>
<!-- Node1&#45;&gt;Node8 -->
<g id="edge7" class="edge"><title>Node1&#45;&gt;Node8</title>
<path fill="none" stroke="midnightblue" d="M120.337,-204.829C136.773,-198.729 155.1,-192.133 172.035,-186.5 182.329,-183.076 193.601,-179.615 203.925,-176.557"/>
<polygon fill="midnightblue" stroke="midnightblue" points="119.047,-201.575 110.903,-208.353 121.496,-208.132 119.047,-201.575"/>
</g>
<!-- Node10 -->
<g id="node10" class="node"><title>Node10</title>
<g id="a_node10"><a xlink:href="classpanda_1_1Lepton.html#ae5bb488ef12db0ad5549c4451cf6b155" target="_top" xlink:title="Set address for the branches to the variables of this object. ">
<polygon fill="white" stroke="black" points="172.59,-414.5 172.59,-434.5 308.088,-434.5 308.088,-414.5 172.59,-414.5"/>
<text text-anchor="middle" x="240.339" y="-421.5" font-family="Helvetica,sans-Serif" font-size="10.00">panda::Lepton::setAddress</text>
</a>
</g>
</g>
<!-- Node1&#45;&gt;Node10 -->
<g id="edge9" class="edge"><title>Node1&#45;&gt;Node10</title>
<path fill="none" stroke="midnightblue" d="M76.6327,-250.222C89.636,-289.635 119.898,-364.68 172.035,-405.5 176.624,-409.093 181.858,-412.006 187.334,-414.369"/>
<polygon fill="midnightblue" stroke="midnightblue" points="79.9253,-249.027 73.5569,-240.56 73.2551,-251.15 79.9253,-249.027"/>
</g>
<!-- Node12 -->
<g id="node12" class="node"><title>Node12</title>
<g id="a_node12"><a xlink:href="classpanda_1_1Lepton.html#a4be584d13f41f6c922d6fe58056ec25d" target="_top" xlink:title="Book new branches to the tree corresponding to the variables of this object. ">
<polygon fill="white" stroke="black" points="186.758,-234.5 186.758,-254.5 293.92,-254.5 293.92,-234.5 186.758,-234.5"/>
<text text-anchor="middle" x="240.339" y="-241.5" font-family="Helvetica,sans-Serif" font-size="10.00">panda::Lepton::book</text>
</a>
</g>
</g>
<!-- Node1&#45;&gt;Node12 -->
<g id="edge12" class="edge"><title>Node1&#45;&gt;Node12</title>
<path fill="none" stroke="midnightblue" d="M146.628,-233.613C160.187,-235.206 174.003,-236.828 186.687,-238.317"/>
<polygon fill="midnightblue" stroke="midnightblue" points="146.673,-230.095 136.333,-232.405 145.857,-237.047 146.673,-230.095"/>
</g>
<!-- Node14 -->
<g id="node14" class="node"><title>Node14</title>
<g id="a_node14"><a xlink:href="classpanda_1_1Photon.html#a35076760a5b960f3eee4afe347d6b0e9" target="_top" xlink:title="Set address for the branches to the variables of this object. ">
<polygon fill="white" stroke="black" points="172.035,-117.5 172.035,-137.5 308.643,-137.5 308.643,-117.5 172.035,-117.5"/>
<text text-anchor="middle" x="240.339" y="-124.5" font-family="Helvetica,sans-Serif" font-size="10.00">panda::Photon::setAddress</text>
</a>
</g>
</g>
<!-- Node1&#45;&gt;Node14 -->
<g id="edge15" class="edge"><title>Node1&#45;&gt;Node14</title>
<path fill="none" stroke="midnightblue" d="M93.998,-201.826C113.886,-184.808 143.097,-162.031 172.035,-147.5 179.878,-143.562 188.634,-140.256 197.167,-137.54"/>
<polygon fill="midnightblue" stroke="midnightblue" points="91.5797,-199.291 86.3335,-208.496 96.1748,-204.571 91.5797,-199.291"/>
</g>
<!-- Node15 -->
<g id="node15" class="node"><title>Node15</title>
<g id="a_node15"><a xlink:href="classpanda_1_1Photon.html#af824c1f835d0c088bf82614984ab34ee" target="_top" xlink:title="Book new branches to the tree corresponding to the variables of this object. ">
<polygon fill="white" stroke="black" points="186.203,-78.5 186.203,-98.5 294.475,-98.5 294.475,-78.5 186.203,-78.5"/>
<text text-anchor="middle" x="240.339" y="-85.5" font-family="Helvetica,sans-Serif" font-size="10.00">panda::Photon::book</text>
</a>
</g>
</g>
<!-- Node1&#45;&gt;Node15 -->
<g id="edge16" class="edge"><title>Node1&#45;&gt;Node15</title>
<path fill="none" stroke="midnightblue" d="M84.7347,-199.798C102.741,-173.448 134.634,-132.301 172.035,-108.5 178.411,-104.443 185.646,-101.177 192.951,-98.5585"/>
<polygon fill="midnightblue" stroke="midnightblue" points="81.601,-198.188 78.9584,-208.448 87.4224,-202.075 81.601,-198.188"/>
</g>
<!-- Node16 -->
<g id="node16" class="node"><title>Node16</title>
<g id="a_node16"><a xlink:href="classpanda_1_1Tau.html#a67c457d171771dadcc84c33cfbda7e2c" target="_top" xlink:title="Set address for the branches to the variables of this object. ">
<polygon fill="white" stroke="black" points="179.263,-39.5 179.263,-59.5 301.414,-59.5 301.414,-39.5 179.263,-39.5"/>
<text text-anchor="middle" x="240.339" y="-46.5" font-family="Helvetica,sans-Serif" font-size="10.00">panda::Tau::setAddress</text>
</a>
</g>
</g>
<!-- Node1&#45;&gt;Node16 -->
<g id="edge17" class="edge"><title>Node1&#45;&gt;Node16</title>
<path fill="none" stroke="midnightblue" d="M79.3653,-198.789C94.5571,-164.281 126.156,-103.412 172.035,-69.5 177.524,-65.4424 183.833,-62.203 190.339,-59.618"/>
<polygon fill="midnightblue" stroke="midnightblue" points="76.0607,-197.615 75.3481,-208.186 82.4973,-200.366 76.0607,-197.615"/>
</g>
<!-- Node17 -->
<g id="node17" class="node"><title>Node17</title>
<g id="a_node17"><a xlink:href="classpanda_1_1Tau.html#a4f31bfd77bced4bc2935e1cb2ddce5e7" target="_top" xlink:title="Book new branches to the tree corresponding to the variables of this object. ">
<polygon fill="white" stroke="black" points="193.431,-0.5 193.431,-20.5 287.246,-20.5 287.246,-0.5 193.431,-0.5"/>
<text text-anchor="middle" x="240.339" y="-7.5" font-family="Helvetica,sans-Serif" font-size="10.00">panda::Tau::book</text>
</a>
</g>
</g>
<!-- Node1&#45;&gt;Node17 -->
<g id="edge18" class="edge"><title>Node1&#45;&gt;Node17</title>
<path fill="none" stroke="midnightblue" d="M75.5376,-198.614C87.4445,-156.712 116.73,-74.2193 172.035,-29.5 178.172,-24.5379 185.531,-20.8707 193.097,-18.1608"/>
<polygon fill="midnightblue" stroke="midnightblue" points="72.1383,-197.776 72.8795,-208.345 78.8909,-199.621 72.1383,-197.776"/>
</g>
<!-- Node7 -->
<g id="node7" class="node"><title>Node7</title>
<g id="a_node7"><a xlink:href="classpanda_1_1FatJet.html#a63392b9abcf86c432b0d7b34c7887cbf" target="_top" xlink:title="Set address for the branches to the variables of this object. ">
<polygon fill="white" stroke="black" points="349.087,-195.5 349.087,-215.5 481.796,-215.5 481.796,-195.5 349.087,-195.5"/>
<text text-anchor="middle" x="415.441" y="-202.5" font-family="Helvetica,sans-Serif" font-size="10.00">panda::FatJet::setAddress</text>
</a>
</g>
</g>
<!-- Node6&#45;&gt;Node7 -->
<g id="edge6" class="edge"><title>Node6&#45;&gt;Node7</title>
<path fill="none" stroke="midnightblue" d="M310.099,-205.5C322.937,-205.5 336.32,-205.5 349.053,-205.5"/>
<polygon fill="midnightblue" stroke="midnightblue" points="309.944,-202 299.944,-205.5 309.944,-209 309.944,-202"/>
</g>
<!-- Node9 -->
<g id="node9" class="node"><title>Node9</title>
<g id="a_node9"><a xlink:href="classpanda_1_1FatJet.html#a733475668d0bd2a7dd5030909e87305c" target="_top" xlink:title="Book new branches to the tree corresponding to the variables of this object. ">
<polygon fill="white" stroke="black" points="363.255,-156.5 363.255,-176.5 467.628,-176.5 467.628,-156.5 363.255,-156.5"/>
<text text-anchor="middle" x="415.441" y="-163.5" font-family="Helvetica,sans-Serif" font-size="10.00">panda::FatJet::book</text>
</a>
</g>
</g>
<!-- Node8&#45;&gt;Node9 -->
<g id="edge8" class="edge"><title>Node8&#45;&gt;Node9</title>
<path fill="none" stroke="midnightblue" d="M295.745,-166.5C317.243,-166.5 341.825,-166.5 363.021,-166.5"/>
<polygon fill="midnightblue" stroke="midnightblue" points="295.468,-163 285.468,-166.5 295.468,-170 295.468,-163"/>
</g>
<!-- Node10&#45;&gt;Node2 -->
<g id="edge10" class="edge"><title>Node10&#45;&gt;Node2</title>
<path fill="none" stroke="midnightblue" d="M295.892,-436.791C319.767,-442.17 347.423,-448.401 370.014,-453.491"/>
<polygon fill="midnightblue" stroke="midnightblue" points="296.442,-433.327 285.917,-434.543 294.903,-440.156 296.442,-433.327"/>
</g>
<!-- Node11 -->
<g id="node11" class="node"><title>Node11</title>
<g id="a_node11"><a xlink:href="classpanda_1_1Muon.html#a58468a794c9beb19603e59a1a9400514" target="_top" xlink:title="Set address for the branches to the variables of this object. ">
<polygon fill="white" stroke="black" points="350.476,-414.5 350.476,-434.5 480.406,-434.5 480.406,-414.5 350.476,-414.5"/>
<text text-anchor="middle" x="415.441" y="-421.5" font-family="Helvetica,sans-Serif" font-size="10.00">panda::Muon::setAddress</text>
</a>
</g>
</g>
<!-- Node10&#45;&gt;Node11 -->
<g id="edge11" class="edge"><title>Node10&#45;&gt;Node11</title>
<path fill="none" stroke="midnightblue" d="M318.39,-424.5C329.035,-424.5 339.874,-424.5 350.253,-424.5"/>
<polygon fill="midnightblue" stroke="midnightblue" points="318.265,-421 308.265,-424.5 318.265,-428 318.265,-421"/>
</g>
<!-- Node12&#45;&gt;Node3 -->
<g id="edge13" class="edge"><title>Node12&#45;&gt;Node3</title>
<path fill="none" stroke="midnightblue" d="M295.892,-256.791C319.767,-262.17 347.423,-268.401 370.014,-273.491"/>
<polygon fill="midnightblue" stroke="midnightblue" points="296.442,-253.327 285.917,-254.543 294.903,-260.156 296.442,-253.327"/>
</g>
<!-- Node13 -->
<g id="node13" class="node"><title>Node13</title>
<g id="a_node13"><a xlink:href="classpanda_1_1Muon.html#a24dbbfcffa726e1594dcccd1db34fe5f" target="_top" xlink:title="Book new branches to the tree corresponding to the variables of this object. ">
<polygon fill="white" stroke="black" points="364.644,-234.5 364.644,-254.5 466.238,-254.5 466.238,-234.5 364.644,-234.5"/>
<text text-anchor="middle" x="415.441" y="-241.5" font-family="Helvetica,sans-Serif" font-size="10.00">panda::Muon::book</text>
</a>
</g>
</g>
<!-- Node12&#45;&gt;Node13 -->
<g id="edge14" class="edge"><title>Node12&#45;&gt;Node13</title>
<path fill="none" stroke="midnightblue" d="M304.389,-244.5C324.198,-244.5 345.785,-244.5 364.551,-244.5"/>
<polygon fill="midnightblue" stroke="midnightblue" points="304.216,-241 294.216,-244.5 304.216,-248 304.216,-241"/>
</g>
</g>
</svg>
