<?xml version="1.0" encoding="UTF-8" standalone="no"?>
<!DOCTYPE svg PUBLIC "-//W3C//DTD SVG 1.1//EN"
 "http://www.w3.org/Graphics/SVG/1.1/DTD/svg11.dtd">
<!-- Generated by graphviz version 2.38.0 (20140413.2041)
 -->
<!-- Title: panda::FatJet::releaseTree Pages: 1 -->
<svg width="1187pt" height="314pt"
 viewBox="0.00 0.00 1187.32 314.00" xmlns="http://www.w3.org/2000/svg" xmlns:xlink="http://www.w3.org/1999/xlink">
<g id="graph0" class="graph" transform="scale(1 1) rotate(0) translate(4 310)">
<title>panda::FatJet::releaseTree</title>
<polygon fill="white" stroke="none" points="-4,4 -4,-310 1183.32,-310 1183.32,4 -4,4"/>
<!-- Node1 -->
<g id="node1" class="node"><title>Node1</title>
<polygon fill="#bfbfbf" stroke="black" points="4.26326e-14,-143 4.26326e-14,-163 136.036,-163 136.036,-143 4.26326e-14,-143"/>
<text text-anchor="middle" x="68.018" y="-150" font-family="Helvetica,sans-Serif" font-size="10.00">panda::FatJet::releaseTree</text>
</g>
<!-- Node2 -->
<g id="node2" class="node"><title>Node2</title>
<g id="a_node2"><a xlink:href="classpanda_1_1Jet.html#af402d8510a38cfe145405448644ea3eb" target="_top" xlink:title="Reset the branch pointer to unlink the branch from this object. ">
<polygon fill="white" stroke="black" points="172.036,-143 172.036,-163 293.625,-163 293.625,-143 172.036,-143"/>
<text text-anchor="middle" x="232.831" y="-150" font-family="Helvetica,sans-Serif" font-size="10.00">panda::Jet::releaseTree</text>
</a>
</g>
</g>
<!-- Node1&#45;&gt;Node2 -->
<g id="edge1" class="edge"><title>Node1&#45;&gt;Node2</title>
<path fill="none" stroke="midnightblue" d="M136.18,-153C144.587,-153 153.203,-153 161.655,-153"/>
<polygon fill="midnightblue" stroke="midnightblue" points="161.857,-156.5 171.857,-153 161.857,-149.5 161.857,-156.5"/>
</g>
<!-- Node7 -->
<g id="node7" class="node"><title>Node7</title>
<g id="a_node7"><a xlink:href="classpanda_1_1utils_1_1StoreManager.html#a6f30ec459d951e84a1196b7e2ffdcf49" target="_top" xlink:title="panda::utils::StoreManager\l::getName">
<polygon fill="white" stroke="black" points="875.702,-214 875.702,-246 1011.74,-246 1011.74,-214 875.702,-214"/>
<text text-anchor="start" x="883.702" y="-233" font-family="Helvetica,sans-Serif" font-size="10.00">panda::utils::StoreManager</text>
<text text-anchor="middle" x="943.72" y="-221" font-family="Helvetica,sans-Serif" font-size="10.00">::getName</text>
</a>
</g>
</g>
<!-- Node1&#45;&gt;Node7 -->
<g id="edge15" class="edge"><title>Node1&#45;&gt;Node7</title>
<path fill="none" stroke="midnightblue" d="M80.7863,-163.039C121.936,-197.077 264.342,-306 401.637,-306 401.637,-306 401.637,-306 587.606,-306 695.923,-306 818.791,-271.772 887.896,-249.256"/>
<polygon fill="midnightblue" stroke="midnightblue" points="889.293,-252.481 897.694,-246.025 887.101,-245.833 889.293,-252.481"/>
</g>
<!-- Node8 -->
<g id="node8" class="node"><title>Node8</title>
<g id="a_node8"><a xlink:href="namespacepanda_1_1utils.html#a82a8530e64fbdf917cf9b8659065f98b" target="_top" xlink:title="panda::utils::resetAddress">
<polygon fill="white" stroke="black" points="877.926,-66 877.926,-86 1009.51,-86 1009.51,-66 877.926,-66"/>
<text text-anchor="middle" x="943.72" y="-73" font-family="Helvetica,sans-Serif" font-size="10.00">panda::utils::resetAddress</text>
</a>
</g>
</g>
<!-- Node1&#45;&gt;Node8 -->
<g id="edge16" class="edge"><title>Node1&#45;&gt;Node8</title>
<path fill="none" stroke="midnightblue" d="M80.7863,-142.961C121.936,-108.923 264.342,-0 401.637,-0 401.637,-0 401.637,-0 587.606,-0 705.803,-0 841.325,-40.7568 905.412,-62.5774"/>
<polygon fill="midnightblue" stroke="midnightblue" points="904.476,-65.9568 915.071,-65.9078 906.758,-59.3392 904.476,-65.9568"/>
</g>
<!-- Node3 -->
<g id="node3" class="node"><title>Node3</title>
<g id="a_node3"><a xlink:href="classpanda_1_1MicroJet.html#a1f12baa07c2b52599be1e7808da40742" target="_top" xlink:title="Reset the branch pointer to unlink the branch from this object. ">
<polygon fill="white" stroke="black" points="329.625,-143 329.625,-163 475.65,-163 475.65,-143 329.625,-143"/>
<text text-anchor="middle" x="402.637" y="-150" font-family="Helvetica,sans-Serif" font-size="10.00">panda::MicroJet::releaseTree</text>
</a>
</g>
</g>
<!-- Node2&#45;&gt;Node3 -->
<g id="edge2" class="edge"><title>Node2&#45;&gt;Node3</title>
<path fill="none" stroke="midnightblue" d="M293.939,-153C302.185,-153 310.766,-153 319.325,-153"/>
<polygon fill="midnightblue" stroke="midnightblue" points="319.34,-156.5 329.34,-153 319.34,-149.5 319.34,-156.5"/>
</g>
<!-- Node2&#45;&gt;Node7 -->
<g id="edge13" class="edge"><title>Node2&#45;&gt;Node7</title>
<path fill="none" stroke="midnightblue" d="M283.007,-163.019C297.961,-165.995 314.451,-169.204 329.625,-172 492.363,-201.991 532.507,-217.176 697.563,-229 753.646,-233.018 817.13,-233.155 865.442,-232.347"/>
<polygon fill="midnightblue" stroke="midnightblue" points="865.58,-235.845 875.513,-232.161 865.45,-228.846 865.58,-235.845"/>
</g>
<!-- Node2&#45;&gt;Node8 -->
<g id="edge14" class="edge"><title>Node2&#45;&gt;Node8</title>
<path fill="none" stroke="midnightblue" d="M281.063,-142.984C296.528,-139.746 313.8,-136.173 329.625,-133 491.743,-100.493 532.493,-87.5287 697.563,-78 754.59,-74.7081 819.2,-74.318 867.771,-74.692"/>
<polygon fill="midnightblue" stroke="midnightblue" points="867.853,-78.1927 877.884,-74.7826 867.915,-71.193 867.853,-78.1927"/>
</g>
<!-- Node4 -->
<g id="node4" class="node"><title>Node4</title>
<g id="a_node4"><a xlink:href="classpanda_1_1ParticleM.html#a0315a281e15ff66329eef5169b162e8e" target="_top" xlink:title="Reset the branch pointer to unlink the branch from this object. ">
<polygon fill="white" stroke="black" points="511.65,-143 511.65,-163 661.563,-163 661.563,-143 511.65,-143"/>
<text text-anchor="middle" x="586.606" y="-150" font-family="Helvetica,sans-Serif" font-size="10.00">panda::ParticleM::releaseTree</text>
</a>
</g>
</g>
<!-- Node3&#45;&gt;Node4 -->
<g id="edge3" class="edge"><title>Node3&#45;&gt;Node4</title>
<path fill="none" stroke="midnightblue" d="M475.818,-153C484.142,-153 492.686,-153 501.154,-153"/>
<polygon fill="midnightblue" stroke="midnightblue" points="501.426,-156.5 511.426,-153 501.426,-149.5 501.426,-156.5"/>
</g>
<!-- Node3&#45;&gt;Node7 -->
<g id="edge11" class="edge"><title>Node3&#45;&gt;Node7</title>
<path fill="none" stroke="midnightblue" d="M451.028,-163.039C508.952,-174.999 610.068,-194.882 697.563,-207 753.601,-214.761 817.215,-220.644 865.597,-224.517"/>
<polygon fill="midnightblue" stroke="midnightblue" points="865.438,-228.015 875.682,-225.313 865.989,-221.037 865.438,-228.015"/>
</g>
<!-- Node3&#45;&gt;Node8 -->
<g id="edge12" class="edge"><title>Node3&#45;&gt;Node8</title>
<path fill="none" stroke="midnightblue" d="M446.209,-142.964C503.144,-129.918 607.382,-107.349 697.563,-95 754.325,-87.2275 818.948,-82.3826 867.591,-79.5319"/>
<polygon fill="midnightblue" stroke="midnightblue" points="867.935,-83.018 877.72,-78.9535 867.536,-76.0294 867.935,-83.018"/>
</g>
<!-- Node5 -->
<g id="node5" class="node"><title>Node5</title>
<g id="a_node5"><a xlink:href="classpanda_1_1Particle.html#a8fb6fa0b4316967da573181262727142" target="_top" xlink:title="Reset the branch pointer to unlink the branch from this object. ">
<polygon fill="white" stroke="black" points="697.563,-143 697.563,-163 839.147,-163 839.147,-143 697.563,-143"/>
<text text-anchor="middle" x="768.355" y="-150" font-family="Helvetica,sans-Serif" font-size="10.00">panda::Particle::releaseTree</text>
</a>
</g>
</g>
<!-- Node4&#45;&gt;Node5 -->
<g id="edge4" class="edge"><title>Node4&#45;&gt;Node5</title>
<path fill="none" stroke="midnightblue" d="M661.755,-153C670.143,-153 678.719,-153 687.179,-153"/>
<polygon fill="midnightblue" stroke="midnightblue" points="687.421,-156.5 697.421,-153 687.421,-149.5 687.421,-156.5"/>
</g>
<!-- Node4&#45;&gt;Node7 -->
<g id="edge9" class="edge"><title>Node4&#45;&gt;Node7</title>
<path fill="none" stroke="midnightblue" d="M634.031,-163.066C692.806,-175.811 794.893,-197.946 865.487,-213.253"/>
<polygon fill="midnightblue" stroke="midnightblue" points="865.15,-216.762 875.665,-215.46 866.634,-209.921 865.15,-216.762"/>
</g>
<!-- Node4&#45;&gt;Node8 -->
<g id="edge10" class="edge"><title>Node4&#45;&gt;Node8</title>
<path fill="none" stroke="midnightblue" d="M634.031,-142.934C698.988,-128.849 816.848,-103.293 886.63,-88.162"/>
<polygon fill="midnightblue" stroke="midnightblue" points="887.534,-91.5475 896.565,-86.0078 886.051,-84.7064 887.534,-91.5475"/>
</g>
<!-- Node6 -->
<g id="node6" class="node"><title>Node6</title>
<g id="a_node6"><a xlink:href="classpanda_1_1Object.html#aaf58438092b42a89b838ce12c6a23833" target="_top" xlink:title="Reset the branch pointer to unlink the branch from this object. ">
<polygon fill="white" stroke="black" points="875.147,-143 875.147,-163 1012.29,-163 1012.29,-143 875.147,-143"/>
<text text-anchor="middle" x="943.72" y="-150" font-family="Helvetica,sans-Serif" font-size="10.00">panda::Object::releaseTree</text>
</a>
</g>
</g>
<!-- Node5&#45;&gt;Node6 -->
<g id="edge5" class="edge"><title>Node5&#45;&gt;Node6</title>
<path fill="none" stroke="midnightblue" d="M839.369,-153C847.721,-153 856.287,-153 864.741,-153"/>
<polygon fill="midnightblue" stroke="midnightblue" points="864.976,-156.5 874.976,-153 864.976,-149.5 864.976,-156.5"/>
</g>
<!-- Node5&#45;&gt;Node7 -->
<g id="edge6" class="edge"><title>Node5&#45;&gt;Node7</title>
<path fill="none" stroke="midnightblue" d="M799.896,-163.039C812.218,-167.322 826.488,-172.578 839.147,-178 860.923,-187.326 884.576,-199.072 903.773,-209.04"/>
<polygon fill="midnightblue" stroke="midnightblue" points="902.329,-212.235 912.812,-213.772 905.576,-206.033 902.329,-212.235"/>
</g>
<!-- Node5&#45;&gt;Node8 -->
<g id="edge7" class="edge"><title>Node5&#45;&gt;Node8</title>
<path fill="none" stroke="midnightblue" d="M799.896,-142.961C812.218,-138.678 826.488,-133.422 839.147,-128 865.612,-116.666 894.849,-101.757 915.492,-90.81"/>
<polygon fill="midnightblue" stroke="midnightblue" points="917.161,-93.8865 924.331,-86.0862 913.862,-87.7128 917.161,-93.8865"/>
</g>
<!-- Node9 -->
<g id="node9" class="node"><title>Node9</title>
<g id="a_node9"><a xlink:href="classpanda_1_1utils_1_1BranchName.html#a13958ff4a9d554d2c057c600b4f70412" target="_top" xlink:title="Prepend the branch name with &lt;objName.&gt;. ">
<polygon fill="white" stroke="black" points="1048.29,-60 1048.29,-92 1179.32,-92 1179.32,-60 1048.29,-60"/>
<text text-anchor="start" x="1056.29" y="-79" font-family="Helvetica,sans-Serif" font-size="10.00">panda::utils::BranchName</text>
<text text-anchor="middle" x="1113.81" y="-67" font-family="Helvetica,sans-Serif" font-size="10.00">::fullName</text>
</a>
</g>
</g>
<!-- Node8&#45;&gt;Node9 -->
<g id="edge8" class="edge"><title>Node8&#45;&gt;Node9</title>
<path fill="none" stroke="midnightblue" d="M1009.71,-76C1019,-76 1028.62,-76 1038.09,-76"/>
<polygon fill="midnightblue" stroke="midnightblue" points="1038.27,-79.5001 1048.27,-76 1038.27,-72.5001 1038.27,-79.5001"/>
</g>
</g>
</svg>
