<?xml version="1.0" encoding="UTF-8" standalone="no"?>
<!DOCTYPE svg PUBLIC "-//W3C//DTD SVG 1.1//EN"
 "http://www.w3.org/Graphics/SVG/1.1/DTD/svg11.dtd">
<!-- Generated by graphviz version 2.38.0 (20140413.2041)
 -->
<!-- Title: panda::CollectionBase::resize Pages: 1 -->
<svg width="313pt" height="68pt"
 viewBox="0.00 0.00 312.74 68.00" xmlns="http://www.w3.org/2000/svg" xmlns:xlink="http://www.w3.org/1999/xlink">
<g id="graph0" class="graph" transform="scale(1 1) rotate(0) translate(4 64)">
<title>panda::CollectionBase::resize</title>
<polygon fill="white" stroke="none" points="-4,4 -4,-64 308.745,-64 308.745,4 -4,4"/>
<!-- Node1 -->
<g id="node1" class="node"><title>Node1</title>
<polygon fill="#bfbfbf" stroke="black" points="-1.42109e-14,-13.5 -1.42109e-14,-45.5 116.031,-45.5 116.031,-13.5 -1.42109e-14,-13.5"/>
<text text-anchor="start" x="8" y="-32.5" font-family="Helvetica,sans-Serif" font-size="10.00">panda::CollectionBase</text>
<text text-anchor="middle" x="58.0155" y="-20.5" font-family="Helvetica,sans-Serif" font-size="10.00">::resize</text>
</g>
<!-- Node2 -->
<g id="node2" class="node"><title>Node2</title>
<g id="a_node2"><a xlink:href="classpanda_1_1Container.html#a05e9a487429721164541511d87a9783d" target="_top" xlink:title="panda::Container::copy">
<polygon fill="white" stroke="black" points="168.703,-39.5 168.703,-59.5 288.073,-59.5 288.073,-39.5 168.703,-39.5"/>
<text text-anchor="middle" x="228.388" y="-46.5" font-family="Helvetica,sans-Serif" font-size="10.00">panda::Container::copy</text>
</a>
</g>
</g>
<!-- Node1&#45;&gt;Node2 -->
<g id="edge1" class="edge"><title>Node1&#45;&gt;Node2</title>
<path fill="none" stroke="midnightblue" d="M126.471,-37.5126C140.364,-39.163 154.892,-40.8886 168.455,-42.4997"/>
<polygon fill="midnightblue" stroke="midnightblue" points="126.832,-34.031 116.489,-36.3269 126.006,-40.9821 126.832,-34.031"/>
</g>
<!-- Node3 -->
<g id="node3" class="node"><title>Node3</title>
<g id="a_node3"><a xlink:href="classpanda_1_1Container.html#a9603d59e46e21b048714a9760964b536" target="_top" xlink:title="panda::Container::create_back">
<polygon fill="white" stroke="black" points="152.031,-0.5 152.031,-20.5 304.745,-20.5 304.745,-0.5 152.031,-0.5"/>
<text text-anchor="middle" x="228.388" y="-7.5" font-family="Helvetica,sans-Serif" font-size="10.00">panda::Container::create_back</text>
</a>
</g>
</g>
<!-- Node1&#45;&gt;Node3 -->
<g id="edge2" class="edge"><title>Node1&#45;&gt;Node3</title>
<path fill="none" stroke="midnightblue" d="M126.563,-21.8776C134.934,-20.933 143.533,-19.9626 152.012,-19.0058"/>
<polygon fill="midnightblue" stroke="midnightblue" points="126.033,-18.4151 116.489,-23.0144 126.818,-25.3709 126.033,-18.4151"/>
</g>
</g>
</svg>
