<?xml version="1.0" encoding="UTF-8" standalone="no"?>
<!DOCTYPE svg PUBLIC "-//W3C//DTD SVG 1.1//EN"
 "http://www.w3.org/Graphics/SVG/1.1/DTD/svg11.dtd">
<!-- Generated by graphviz version 2.38.0 (20140413.2041)
 -->
<!-- Title: panda::Container::end Pages: 1 -->
<svg width="451pt" height="108pt"
 viewBox="0.00 0.00 450.89 108.00" xmlns="http://www.w3.org/2000/svg" xmlns:xlink="http://www.w3.org/1999/xlink">
<g id="graph0" class="graph" transform="scale(1 1) rotate(0) translate(4 104)">
<title>panda::Container::end</title>
<polygon fill="white" stroke="none" points="-4,4 -4,-104 446.893,-104 446.893,4 -4,4"/>
<!-- Node1 -->
<g id="node1" class="node"><title>Node1</title>
<polygon fill="#bfbfbf" stroke="black" points="0,-50.5 0,-70.5 114.929,-70.5 114.929,-50.5 0,-50.5"/>
<text text-anchor="middle" x="57.4645" y="-57.5" font-family="Helvetica,sans-Serif" font-size="10.00">panda::Container::end</text>
</g>
<!-- Node2 -->
<g id="node2" class="node"><title>Node2</title>
<g id="a_node2"><a xlink:href="classpanda_1_1Container.html#a92b22e7d3f1f73de8e9a8b4350bc8f2f" target="_top" xlink:title="panda::Container::const\l_addr_">
<polygon fill="white" stroke="black" points="151.204,-67.5 151.204,-99.5 273.353,-99.5 273.353,-67.5 151.204,-67.5"/>
<text text-anchor="start" x="159.204" y="-86.5" font-family="Helvetica,sans-Serif" font-size="10.00">panda::Container::const</text>
<text text-anchor="middle" x="212.278" y="-74.5" font-family="Helvetica,sans-Serif" font-size="10.00">_addr_</text>
</a>
</g>
</g>
<!-- Node1&#45;&gt;Node2 -->
<g id="edge1" class="edge"><title>Node1&#45;&gt;Node2</title>
<path fill="none" stroke="midnightblue" d="M114.933,-68.999C123.519,-70.2914 132.467,-71.6381 141.299,-72.9674"/>
<polygon fill="midnightblue" stroke="midnightblue" points="140.787,-76.4297 151.197,-74.4571 141.829,-69.5077 140.787,-76.4297"/>
</g>
<!-- Node3 -->
<g id="node3" class="node"><title>Node3</title>
<g id="a_node3"><a xlink:href="classpanda_1_1Container.html#a0873333a978d458a525f855d73416e09" target="_top" xlink:title="panda::Container::max_">
<polygon fill="white" stroke="black" points="150.929,-28.5 150.929,-48.5 273.628,-48.5 273.628,-28.5 150.929,-28.5"/>
<text text-anchor="middle" x="212.278" y="-35.5" font-family="Helvetica,sans-Serif" font-size="10.00">panda::Container::max_</text>
</a>
</g>
</g>
<!-- Node1&#45;&gt;Node3 -->
<g id="edge2" class="edge"><title>Node1&#45;&gt;Node3</title>
<path fill="none" stroke="midnightblue" d="M114.933,-52.3705C123.305,-51.1652 132.02,-49.9105 140.637,-48.67"/>
<polygon fill="midnightblue" stroke="midnightblue" points="141.282,-52.1133 150.681,-47.224 140.284,-45.1848 141.282,-52.1133"/>
</g>
<!-- Node4 -->
<g id="node4" class="node"><title>Node4</title>
<g id="a_node4"><a xlink:href="classpanda_1_1Container.html#ae8c189c8e337af593b268455a2dda89f" target="_top" xlink:title="panda::Container::getData">
<polygon fill="white" stroke="black" points="309.628,-51.5 309.628,-71.5 442.893,-71.5 442.893,-51.5 309.628,-51.5"/>
<text text-anchor="middle" x="376.26" y="-58.5" font-family="Helvetica,sans-Serif" font-size="10.00">panda::Container::getData</text>
</a>
</g>
</g>
<!-- Node3&#45;&gt;Node4 -->
<g id="edge3" class="edge"><title>Node3&#45;&gt;Node4</title>
<path fill="none" stroke="midnightblue" d="M274.055,-47.1298C282.379,-48.3117 291.007,-49.5367 299.556,-50.7506"/>
<polygon fill="midnightblue" stroke="midnightblue" points="299.139,-54.2265 309.532,-52.1672 300.124,-47.296 299.139,-54.2265"/>
</g>
<!-- Node5 -->
<g id="node5" class="node"><title>Node5</title>
<g id="a_node5"><a xlink:href="structpanda_1_1ContainerElement_1_1datastore.html#aff3ea42523fa1d980435a5085c8f1289" target="_top" xlink:title="panda::ContainerElement\l::datastore::nmax">
<polygon fill="white" stroke="black" points="311.577,-0.5 311.577,-32.5 440.944,-32.5 440.944,-0.5 311.577,-0.5"/>
<text text-anchor="start" x="319.577" y="-19.5" font-family="Helvetica,sans-Serif" font-size="10.00">panda::ContainerElement</text>
<text text-anchor="middle" x="376.26" y="-7.5" font-family="Helvetica,sans-Serif" font-size="10.00">::datastore::nmax</text>
</a>
</g>
</g>
<!-- Node3&#45;&gt;Node5 -->
<g id="edge4" class="edge"><title>Node3&#45;&gt;Node5</title>
<path fill="none" stroke="midnightblue" d="M274.055,-30.2454C282.926,-29.0406 292.142,-27.7889 301.24,-26.5533"/>
<polygon fill="midnightblue" stroke="midnightblue" points="301.999,-29.9824 311.437,-25.1683 301.057,-23.0461 301.999,-29.9824"/>
</g>
</g>
</svg>
