<?xml version="1.0" encoding="UTF-8" standalone="no"?>
<!DOCTYPE svg PUBLIC "-//W3C//DTD SVG 1.1//EN"
 "http://www.w3.org/Graphics/SVG/1.1/DTD/svg11.dtd">
<!-- Generated by graphviz version 2.38.0 (20140413.2041)
 -->
<!-- Title: panda::PFCand::operator= Pages: 1 -->
<svg width="651pt" height="41pt"
 viewBox="0.00 0.00 650.98 41.00" xmlns="http://www.w3.org/2000/svg" xmlns:xlink="http://www.w3.org/1999/xlink">
<g id="graph0" class="graph" transform="scale(1 1) rotate(0) translate(4 37)">
<title>panda::PFCand::operator=</title>
<polygon fill="white" stroke="none" points="-4,4 -4,-37 646.982,-37 646.982,4 -4,4"/>
<!-- Node1 -->
<g id="node1" class="node"><title>Node1</title>
<polygon fill="#bfbfbf" stroke="black" points="-2.84217e-14,-6.5 -2.84217e-14,-26.5 134.656,-26.5 134.656,-6.5 -2.84217e-14,-6.5"/>
<text text-anchor="middle" x="67.328" y="-13.5" font-family="Helvetica,sans-Serif" font-size="10.00">panda::PFCand::operator=</text>
</g>
<!-- Node2 -->
<g id="node2" class="node"><title>Node2</title>
<g id="a_node2"><a xlink:href="classpanda_1_1ParticleM.html#a37f7be4e1150b6080b47b005af730af5" target="_top" xlink:title="panda::ParticleM::operator=">
<polygon fill="white" stroke="black" points="170.656,-6.5 170.656,-26.5 310.3,-26.5 310.3,-6.5 170.656,-6.5"/>
<text text-anchor="middle" x="240.478" y="-13.5" font-family="Helvetica,sans-Serif" font-size="10.00">panda::ParticleM::operator=</text>
</a>
</g>
</g>
<!-- Node1&#45;&gt;Node2 -->
<g id="edge1" class="edge"><title>Node1&#45;&gt;Node2</title>
<path fill="none" stroke="midnightblue" d="M134.989,-16.5C143.263,-16.5 151.786,-16.5 160.226,-16.5"/>
<polygon fill="midnightblue" stroke="midnightblue" points="160.458,-20.0001 170.458,-16.5 160.458,-13.0001 160.458,-20.0001"/>
</g>
<!-- Node3 -->
<g id="node3" class="node"><title>Node3</title>
<g id="a_node3"><a xlink:href="classpanda_1_1Particle.html#a8c4fabfceb39b746b0e68a7389e662c4" target="_top" xlink:title="panda::Particle::operator=">
<polygon fill="white" stroke="black" points="346.3,-6.5 346.3,-26.5 477.615,-26.5 477.615,-6.5 346.3,-6.5"/>
<text text-anchor="middle" x="411.957" y="-13.5" font-family="Helvetica,sans-Serif" font-size="10.00">panda::Particle::operator=</text>
</a>
</g>
</g>
<!-- Node2&#45;&gt;Node3 -->
<g id="edge2" class="edge"><title>Node2&#45;&gt;Node3</title>
<path fill="none" stroke="midnightblue" d="M310.412,-16.5C318.816,-16.5 327.436,-16.5 335.924,-16.5"/>
<polygon fill="midnightblue" stroke="midnightblue" points="336.189,-20.0001 346.189,-16.5 336.189,-13.0001 336.189,-20.0001"/>
</g>
<!-- Node4 -->
<g id="node4" class="node"><title>Node4</title>
<g id="a_node4"><a xlink:href="classpanda_1_1ContainerElement.html#ae8ba59e4cb5d7c1d491fc87c9360f039" target="_top" xlink:title="panda::ContainerElement\l::operator=">
<polygon fill="white" stroke="black" points="513.615,-0.5 513.615,-32.5 642.982,-32.5 642.982,-0.5 513.615,-0.5"/>
<text text-anchor="start" x="521.615" y="-19.5" font-family="Helvetica,sans-Serif" font-size="10.00">panda::ContainerElement</text>
<text text-anchor="middle" x="578.298" y="-7.5" font-family="Helvetica,sans-Serif" font-size="10.00">::operator=</text>
</a>
</g>
</g>
<!-- Node3&#45;&gt;Node4 -->
<g id="edge3" class="edge"><title>Node3&#45;&gt;Node4</title>
<path fill="none" stroke="midnightblue" d="M477.909,-16.5C486.201,-16.5 494.738,-16.5 503.162,-16.5"/>
<polygon fill="midnightblue" stroke="midnightblue" points="503.356,-20.0001 513.356,-16.5 503.356,-13.0001 503.356,-20.0001"/>
</g>
</g>
</svg>
