<?xml version="1.0" encoding="UTF-8" standalone="no"?>
<!DOCTYPE svg PUBLIC "-//W3C//DTD SVG 1.1//EN"
 "http://www.w3.org/Graphics/SVG/1.1/DTD/svg11.dtd">
<!-- Generated by graphviz version 2.38.0 (20140413.2041)
 -->
<!-- Title: panda::ContainerElement::ContainerElement Pages: 1 -->
<svg width="332pt" height="41pt"
 viewBox="0.00 0.00 331.64 41.00" xmlns="http://www.w3.org/2000/svg" xmlns:xlink="http://www.w3.org/1999/xlink">
<g id="graph0" class="graph" transform="scale(1 1) rotate(0) translate(4 37)">
<title>panda::ContainerElement::ContainerElement</title>
<polygon fill="white" stroke="none" points="-4,4 -4,-37 327.637,-37 327.637,4 -4,4"/>
<!-- Node1 -->
<g id="node1" class="node"><title>Node1</title>
<polygon fill="#bfbfbf" stroke="black" points="-1.42109e-14,-0.5 -1.42109e-14,-32.5 129.367,-32.5 129.367,-0.5 -1.42109e-14,-0.5"/>
<text text-anchor="start" x="8" y="-19.5" font-family="Helvetica,sans-Serif" font-size="10.00">panda::ContainerElement</text>
<text text-anchor="middle" x="64.6835" y="-7.5" font-family="Helvetica,sans-Serif" font-size="10.00">::ContainerElement</text>
</g>
<!-- Node2 -->
<g id="node2" class="node"><title>Node2</title>
<g id="a_node2"><a xlink:href="classpanda_1_1utils_1_1StoreManager.html#a25422015b8accf040d23b7ba3ae00a5b" target="_top" xlink:title="panda::utils::StoreManager::add">
<polygon fill="white" stroke="black" points="165.367,-6.5 165.367,-26.5 323.637,-26.5 323.637,-6.5 165.367,-6.5"/>
<text text-anchor="middle" x="244.502" y="-13.5" font-family="Helvetica,sans-Serif" font-size="10.00">panda::utils::StoreManager::add</text>
</a>
</g>
</g>
<!-- Node1&#45;&gt;Node2 -->
<g id="edge1" class="edge"><title>Node1&#45;&gt;Node2</title>
<path fill="none" stroke="midnightblue" d="M129.378,-16.5C137.758,-16.5 146.464,-16.5 155.163,-16.5"/>
<polygon fill="midnightblue" stroke="midnightblue" points="155.352,-20.0001 165.352,-16.5 155.352,-13.0001 155.352,-20.0001"/>
</g>
</g>
</svg>
