<?xml version="1.0" encoding="UTF-8" standalone="no"?>
<!DOCTYPE svg PUBLIC "-//W3C//DTD SVG 1.1//EN"
 "http://www.w3.org/Graphics/SVG/1.1/DTD/svg11.dtd">
<!-- Generated by graphviz version 2.38.0 (20140413.2041)
 -->
<!-- Title: panda::Object::setAddress Pages: 1 -->
<svg width="1003pt" height="355pt"
 viewBox="0.00 0.00 1002.55 355.00" xmlns="http://www.w3.org/2000/svg" xmlns:xlink="http://www.w3.org/1999/xlink">
<g id="graph0" class="graph" transform="scale(1 1) rotate(0) translate(4 351)">
<title>panda::Object::setAddress</title>
<polygon fill="white" stroke="none" points="-4,4 -4,-351 998.552,-351 998.552,4 -4,4"/>
<!-- Node1 -->
<g id="node1" class="node"><title>Node1</title>
<polygon fill="#bfbfbf" stroke="black" points="-1.42109e-14,-191.5 -1.42109e-14,-211.5 133.819,-211.5 133.819,-191.5 -1.42109e-14,-191.5"/>
<text text-anchor="middle" x="66.9095" y="-198.5" font-family="Helvetica,sans-Serif" font-size="10.00">panda::Object::setAddress</text>
</g>
<!-- Node2 -->
<g id="node2" class="node"><title>Node2</title>
<g id="a_node2"><a xlink:href="classpanda_1_1GenReweight.html#a7ddd15dba6c66778f7db56e4f67b4e17" target="_top" xlink:title="Set address for the branches to the variables of this object. ">
<polygon fill="white" stroke="black" points="185.097,-314.5 185.097,-346.5 295.019,-346.5 295.019,-314.5 185.097,-314.5"/>
<text text-anchor="start" x="193.097" y="-333.5" font-family="Helvetica,sans-Serif" font-size="10.00">panda::GenReweight</text>
<text text-anchor="middle" x="240.058" y="-321.5" font-family="Helvetica,sans-Serif" font-size="10.00">::setAddress</text>
</a>
</g>
</g>
<!-- Node1&#45;&gt;Node2 -->
<g id="edge1" class="edge"><title>Node1&#45;&gt;Node2</title>
<path fill="none" stroke="midnightblue" d="M81.4876,-219.741C99.4079,-242.664 133.018,-281.858 169.819,-305.5 174.98,-308.816 180.64,-311.767 186.43,-314.374"/>
<polygon fill="midnightblue" stroke="midnightblue" points="84.07,-217.357 75.2099,-211.548 78.5134,-221.614 84.07,-217.357"/>
</g>
<!-- Node3 -->
<g id="node3" class="node"><title>Node3</title>
<g id="a_node3"><a xlink:href="classpanda_1_1HLTBits.html#a27e84bb1ed5ae0f867ef38d7c4a33808" target="_top" xlink:title="Set address for the branches to the variables of this object. ">
<polygon fill="white" stroke="black" points="169.819,-275.5 169.819,-295.5 310.297,-295.5 310.297,-275.5 169.819,-275.5"/>
<text text-anchor="middle" x="240.058" y="-282.5" font-family="Helvetica,sans-Serif" font-size="10.00">panda::HLTBits::setAddress</text>
</a>
</g>
</g>
<!-- Node1&#45;&gt;Node3 -->
<g id="edge2" class="edge"><title>Node1&#45;&gt;Node3</title>
<path fill="none" stroke="midnightblue" d="M89.0774,-217.691C108.98,-232.243 140.079,-253.298 169.819,-266.5 177.68,-269.99 186.334,-272.979 194.781,-275.483"/>
<polygon fill="midnightblue" stroke="midnightblue" points="91.133,-214.858 81.0183,-211.705 86.9588,-220.477 91.133,-214.858"/>
</g>
<!-- Node4 -->
<g id="node4" class="node"><title>Node4</title>
<g id="a_node4"><a xlink:href="classpanda_1_1Met.html#a72bfef4b511eb4cb119b3ddb7d801620" target="_top" xlink:title="Set address for the branches to the variables of this object. ">
<polygon fill="white" stroke="black" points="179.262,-236.5 179.262,-256.5 300.853,-256.5 300.853,-236.5 179.262,-236.5"/>
<text text-anchor="middle" x="240.058" y="-243.5" font-family="Helvetica,sans-Serif" font-size="10.00">panda::Met::setAddress</text>
</a>
</g>
</g>
<!-- Node1&#45;&gt;Node4 -->
<g id="edge3" class="edge"><title>Node1&#45;&gt;Node4</title>
<path fill="none" stroke="midnightblue" d="M116.251,-214.21C143.013,-221.247 175.81,-229.87 200.777,-236.435"/>
<polygon fill="midnightblue" stroke="midnightblue" points="116.88,-210.757 106.319,-211.599 115.1,-217.527 116.88,-210.757"/>
</g>
<!-- Node6 -->
<g id="node6" class="node"><title>Node6</title>
<g id="a_node6"><a xlink:href="classpanda_1_1MetFilters.html#a3119a56e8b4862608f4dfe415ba404e5" target="_top" xlink:title="Set address for the branches to the variables of this object. ">
<polygon fill="white" stroke="black" points="190.662,-185.5 190.662,-217.5 289.454,-217.5 289.454,-185.5 190.662,-185.5"/>
<text text-anchor="start" x="198.662" y="-204.5" font-family="Helvetica,sans-Serif" font-size="10.00">panda::MetFilters::</text>
<text text-anchor="middle" x="240.058" y="-192.5" font-family="Helvetica,sans-Serif" font-size="10.00">setAddress</text>
</a>
</g>
</g>
<!-- Node1&#45;&gt;Node6 -->
<g id="edge5" class="edge"><title>Node1&#45;&gt;Node6</title>
<path fill="none" stroke="midnightblue" d="M144.327,-201.5C160.045,-201.5 176.181,-201.5 190.579,-201.5"/>
<polygon fill="midnightblue" stroke="midnightblue" points="144.08,-198 134.08,-201.5 144.08,-205 144.08,-198"/>
</g>
<!-- Node7 -->
<g id="node7" class="node"><title>Node7</title>
<g id="a_node7"><a xlink:href="classpanda_1_1Particle.html#a96282cfb24384c1f00c40576069a4c7e" target="_top" xlink:title="Set address for the branches to the variables of this object. ">
<polygon fill="white" stroke="black" points="170.93,-146.5 170.93,-166.5 309.186,-166.5 309.186,-146.5 170.93,-146.5"/>
<text text-anchor="middle" x="240.058" y="-153.5" font-family="Helvetica,sans-Serif" font-size="10.00">panda::Particle::setAddress</text>
</a>
</g>
</g>
<!-- Node1&#45;&gt;Node7 -->
<g id="edge6" class="edge"><title>Node1&#45;&gt;Node7</title>
<path fill="none" stroke="midnightblue" d="M116.251,-188.79C143.013,-181.753 175.81,-173.13 200.777,-166.565"/>
<polygon fill="midnightblue" stroke="midnightblue" points="115.1,-185.473 106.319,-191.401 116.88,-192.243 115.1,-185.473"/>
</g>
<!-- Node21 -->
<g id="node21" class="node"><title>Node21</title>
<g id="a_node21"><a xlink:href="classpanda_1_1Recoil.html#a979603205d02d30892f6bd230d59fb14" target="_top" xlink:title="Set address for the branches to the variables of this object. ">
<polygon fill="white" stroke="black" points="173.709,-107.5 173.709,-127.5 306.407,-127.5 306.407,-107.5 173.709,-107.5"/>
<text text-anchor="middle" x="240.058" y="-114.5" font-family="Helvetica,sans-Serif" font-size="10.00">panda::Recoil::setAddress</text>
</a>
</g>
</g>
<!-- Node1&#45;&gt;Node21 -->
<g id="edge20" class="edge"><title>Node1&#45;&gt;Node21</title>
<path fill="none" stroke="midnightblue" d="M89.4959,-185.429C109.466,-171.186 140.419,-150.664 169.819,-137.5 178.384,-133.665 187.873,-130.361 197.01,-127.605"/>
<polygon fill="midnightblue" stroke="midnightblue" points="87.4403,-182.596 81.3921,-191.295 91.5449,-188.266 87.4403,-182.596"/>
</g>
<!-- Node22 -->
<g id="node22" class="node"><title>Node22</title>
<g id="a_node22"><a xlink:href="classpanda_1_1SuperCluster.html#a22a6ed5bd06be05d701d3e281de4f780" target="_top" xlink:title="Set address for the branches to the variables of this object. ">
<polygon fill="white" stroke="black" points="186.212,-56.5 186.212,-88.5 293.904,-88.5 293.904,-56.5 186.212,-56.5"/>
<text text-anchor="start" x="194.212" y="-75.5" font-family="Helvetica,sans-Serif" font-size="10.00">panda::SuperCluster</text>
<text text-anchor="middle" x="240.058" y="-63.5" font-family="Helvetica,sans-Serif" font-size="10.00">::setAddress</text>
</a>
</g>
</g>
<!-- Node1&#45;&gt;Node22 -->
<g id="edge21" class="edge"><title>Node1&#45;&gt;Node22</title>
<path fill="none" stroke="midnightblue" d="M81.8506,-183.167C99.929,-160.503 133.477,-122.049 169.819,-98.5 175.53,-94.7992 181.844,-91.5164 188.267,-88.637"/>
<polygon fill="midnightblue" stroke="midnightblue" points="78.9039,-181.254 75.4987,-191.286 84.4172,-185.567 78.9039,-181.254"/>
</g>
<!-- Node5 -->
<g id="node5" class="node"><title>Node5</title>
<g id="a_node5"><a xlink:href="classpanda_1_1RecoMet.html#a09b18e4ca48c7c4aad137b8d01ef78c7" target="_top" xlink:title="Set address for the branches to the variables of this object. ">
<polygon fill="white" stroke="black" points="347.126,-275.5 347.126,-295.5 492.054,-295.5 492.054,-275.5 347.126,-275.5"/>
<text text-anchor="middle" x="419.59" y="-282.5" font-family="Helvetica,sans-Serif" font-size="10.00">panda::RecoMet::setAddress</text>
</a>
</g>
</g>
<!-- Node4&#45;&gt;Node5 -->
<g id="edge4" class="edge"><title>Node4&#45;&gt;Node5</title>
<path fill="none" stroke="midnightblue" d="M296.679,-258.719C321.24,-264.114 349.753,-270.378 373.026,-275.491"/>
<polygon fill="midnightblue" stroke="midnightblue" points="297.295,-255.271 286.777,-256.543 295.793,-262.108 297.295,-255.271"/>
</g>
<!-- Node8 -->
<g id="node8" class="node"><title>Node8</title>
<g id="a_node8"><a xlink:href="classpanda_1_1Lepton.html#ae5bb488ef12db0ad5549c4451cf6b155" target="_top" xlink:title="Set address for the branches to the variables of this object. ">
<polygon fill="white" stroke="black" points="351.841,-236.5 351.841,-256.5 487.339,-256.5 487.339,-236.5 351.841,-236.5"/>
<text text-anchor="middle" x="419.59" y="-243.5" font-family="Helvetica,sans-Serif" font-size="10.00">panda::Lepton::setAddress</text>
</a>
</g>
</g>
<!-- Node7&#45;&gt;Node8 -->
<g id="edge7" class="edge"><title>Node7&#45;&gt;Node8</title>
<path fill="none" stroke="midnightblue" d="M293.066,-169.717C298.97,-171.746 304.826,-174.007 310.297,-176.5 347.17,-193.3 386.037,-221.336 405.646,-236.322"/>
<polygon fill="midnightblue" stroke="midnightblue" points="293.736,-166.255 283.144,-166.521 291.59,-172.918 293.736,-166.255"/>
</g>
<!-- Node11 -->
<g id="node11" class="node"><title>Node11</title>
<g id="a_node11"><a xlink:href="classpanda_1_1ParticleM.html#ad8aeae1e2ca26f4cdb7d079ab56a10fe" target="_top" xlink:title="Set address for the branches to the variables of this object. ">
<polygon fill="white" stroke="black" points="346.297,-127.5 346.297,-147.5 492.883,-147.5 492.883,-127.5 346.297,-127.5"/>
<text text-anchor="middle" x="419.59" y="-134.5" font-family="Helvetica,sans-Serif" font-size="10.00">panda::ParticleM::setAddress</text>
</a>
</g>
</g>
<!-- Node7&#45;&gt;Node11 -->
<g id="edge10" class="edge"><title>Node7&#45;&gt;Node11</title>
<path fill="none" stroke="midnightblue" d="M319.237,-148.133C328.21,-147.173 337.329,-146.197 346.221,-145.245"/>
<polygon fill="midnightblue" stroke="midnightblue" points="318.76,-144.664 309.189,-149.208 319.504,-151.624 318.76,-144.664"/>
</g>
<!-- Node20 -->
<g id="node20" class="node"><title>Node20</title>
<g id="a_node20"><a xlink:href="classpanda_1_1Photon.html#a35076760a5b960f3eee4afe347d6b0e9" target="_top" xlink:title="Set address for the branches to the variables of this object. ">
<polygon fill="white" stroke="black" points="351.286,-88.5 351.286,-108.5 487.894,-108.5 487.894,-88.5 351.286,-88.5"/>
<text text-anchor="middle" x="419.59" y="-95.5" font-family="Helvetica,sans-Serif" font-size="10.00">panda::Photon::setAddress</text>
</a>
</g>
</g>
<!-- Node7&#45;&gt;Node20 -->
<g id="edge19" class="edge"><title>Node7&#45;&gt;Node20</title>
<path fill="none" stroke="midnightblue" d="M293.109,-143.543C298.968,-141.694 304.802,-139.674 310.297,-137.5 327.12,-130.845 329.481,-125.173 346.297,-118.5 355.859,-114.706 366.404,-111.348 376.415,-108.52"/>
<polygon fill="midnightblue" stroke="midnightblue" points="291.853,-140.266 283.28,-146.49 293.864,-146.971 291.853,-140.266"/>
</g>
<!-- Node9 -->
<g id="node9" class="node"><title>Node9</title>
<g id="a_node9"><a xlink:href="classpanda_1_1Electron.html#a26659ab11a463332edbb15d82e2e49c1" target="_top" xlink:title="Set address for the branches to the variables of this object. ">
<polygon fill="white" stroke="black" points="529.433,-285.5 529.433,-305.5 671.03,-305.5 671.03,-285.5 529.433,-285.5"/>
<text text-anchor="middle" x="600.232" y="-292.5" font-family="Helvetica,sans-Serif" font-size="10.00">panda::Electron::setAddress</text>
</a>
</g>
</g>
<!-- Node8&#45;&gt;Node9 -->
<g id="edge8" class="edge"><title>Node8&#45;&gt;Node9</title>
<path fill="none" stroke="midnightblue" d="M466.65,-259.235C475.364,-261.646 484.404,-264.149 492.883,-266.5 508.885,-270.936 512.867,-272.113 528.883,-276.5 539.62,-279.441 551.288,-282.605 561.979,-285.492"/>
<polygon fill="midnightblue" stroke="midnightblue" points="467.57,-255.858 456.999,-256.565 465.703,-262.604 467.57,-255.858"/>
</g>
<!-- Node10 -->
<g id="node10" class="node"><title>Node10</title>
<g id="a_node10"><a xlink:href="classpanda_1_1Muon.html#a58468a794c9beb19603e59a1a9400514" target="_top" xlink:title="Set address for the branches to the variables of this object. ">
<polygon fill="white" stroke="black" points="535.267,-246.5 535.267,-266.5 665.197,-266.5 665.197,-246.5 535.267,-246.5"/>
<text text-anchor="middle" x="600.232" y="-253.5" font-family="Helvetica,sans-Serif" font-size="10.00">panda::Muon::setAddress</text>
</a>
</g>
</g>
<!-- Node8&#45;&gt;Node10 -->
<g id="edge9" class="edge"><title>Node8&#45;&gt;Node10</title>
<path fill="none" stroke="midnightblue" d="M497.385,-250.799C509.996,-251.505 522.946,-252.23 535.204,-252.916"/>
<polygon fill="midnightblue" stroke="midnightblue" points="497.544,-247.302 487.364,-250.238 497.152,-254.291 497.544,-247.302"/>
</g>
<!-- Node12 -->
<g id="node12" class="node"><title>Node12</title>
<g id="a_node12"><a xlink:href="classpanda_1_1GenJet.html#a509b0782225dddb65a02d2469e031146" target="_top" xlink:title="Set address for the branches to the variables of this object. ">
<polygon fill="white" stroke="black" points="531.652,-207.5 531.652,-227.5 668.812,-227.5 668.812,-207.5 531.652,-207.5"/>
<text text-anchor="middle" x="600.232" y="-214.5" font-family="Helvetica,sans-Serif" font-size="10.00">panda::GenJet::setAddress</text>
</a>
</g>
</g>
<!-- Node11&#45;&gt;Node12 -->
<g id="edge11" class="edge"><title>Node11&#45;&gt;Node12</title>
<path fill="none" stroke="midnightblue" d="M444.183,-153.073C465.56,-166.619 498.302,-185.987 528.883,-198.5 537.196,-201.902 546.309,-204.878 555.139,-207.403"/>
<polygon fill="midnightblue" stroke="midnightblue" points="446.063,-150.12 435.757,-147.661 442.28,-156.01 446.063,-150.12"/>
</g>
<!-- Node13 -->
<g id="node13" class="node"><title>Node13</title>
<g id="a_node13"><a xlink:href="classpanda_1_1GenParticle.html#a049670d248a94df47fb4de6e73956b4f" target="_top" xlink:title="Set address for the branches to the variables of this object. ">
<polygon fill="white" stroke="black" points="549.44,-156.5 549.44,-188.5 651.024,-188.5 651.024,-156.5 549.44,-156.5"/>
<text text-anchor="start" x="557.44" y="-175.5" font-family="Helvetica,sans-Serif" font-size="10.00">panda::GenParticle</text>
<text text-anchor="middle" x="600.232" y="-163.5" font-family="Helvetica,sans-Serif" font-size="10.00">::setAddress</text>
</a>
</g>
</g>
<!-- Node11&#45;&gt;Node13 -->
<g id="edge12" class="edge"><title>Node11&#45;&gt;Node13</title>
<path fill="none" stroke="midnightblue" d="M481.7,-149.473C503.727,-153.788 528.304,-158.604 549.266,-162.711"/>
<polygon fill="midnightblue" stroke="midnightblue" points="482.268,-146.018 471.782,-147.53 480.922,-152.887 482.268,-146.018"/>
</g>
<!-- Node14 -->
<g id="node14" class="node"><title>Node14</title>
<g id="a_node14"><a xlink:href="classpanda_1_1MicroJet.html#ace34e537033194800fb766bd9cb18025" target="_top" xlink:title="Set address for the branches to the variables of this object. ">
<polygon fill="white" stroke="black" points="528.883,-117.5 528.883,-137.5 671.581,-137.5 671.581,-117.5 528.883,-117.5"/>
<text text-anchor="middle" x="600.232" y="-124.5" font-family="Helvetica,sans-Serif" font-size="10.00">panda::MicroJet::setAddress</text>
</a>
</g>
</g>
<!-- Node11&#45;&gt;Node14 -->
<g id="edge13" class="edge"><title>Node11&#45;&gt;Node14</title>
<path fill="none" stroke="midnightblue" d="M503.027,-132.885C511.624,-132.404 520.306,-131.918 528.753,-131.445"/>
<polygon fill="midnightblue" stroke="midnightblue" points="502.782,-129.394 492.993,-133.447 503.173,-136.383 502.782,-129.394"/>
</g>
<!-- Node17 -->
<g id="node17" class="node"><title>Node17</title>
<g id="a_node17"><a xlink:href="classpanda_1_1Parton.html#a94d47d8282b93fe05c2c339f5b2052f7" target="_top" xlink:title="Set address for the branches to the variables of this object. ">
<polygon fill="white" stroke="black" points="533.043,-78.5 533.043,-98.5 667.421,-98.5 667.421,-78.5 533.043,-78.5"/>
<text text-anchor="middle" x="600.232" y="-85.5" font-family="Helvetica,sans-Serif" font-size="10.00">panda::Parton::setAddress</text>
</a>
</g>
</g>
<!-- Node11&#45;&gt;Node17 -->
<g id="edge16" class="edge"><title>Node11&#45;&gt;Node17</title>
<path fill="none" stroke="midnightblue" d="M469.164,-124.862C477.097,-122.761 485.224,-120.587 492.883,-118.5 506.256,-114.857 538.416,-105.768 563.893,-98.5423"/>
<polygon fill="midnightblue" stroke="midnightblue" points="468.045,-121.537 459.268,-127.472 469.83,-128.306 468.045,-121.537"/>
</g>
<!-- Node18 -->
<g id="node18" class="node"><title>Node18</title>
<g id="a_node18"><a xlink:href="classpanda_1_1PFCand.html#a4646580d00cd946b4f077afd3ee8b3b5" target="_top" xlink:title="Set address for the branches to the variables of this object. ">
<polygon fill="white" stroke="black" points="529.433,-39.5 529.433,-59.5 671.031,-59.5 671.031,-39.5 529.433,-39.5"/>
<text text-anchor="middle" x="600.232" y="-46.5" font-family="Helvetica,sans-Serif" font-size="10.00">panda::PFCand::setAddress</text>
</a>
</g>
</g>
<!-- Node11&#45;&gt;Node18 -->
<g id="edge17" class="edge"><title>Node11&#45;&gt;Node18</title>
<path fill="none" stroke="midnightblue" d="M484.673,-123.324C487.53,-121.87 490.284,-120.267 492.883,-118.5 515.231,-103.306 506.688,-84.9161 528.883,-69.5 534.723,-65.4437 541.374,-62.205 548.203,-59.6203"/>
<polygon fill="midnightblue" stroke="midnightblue" points="482.998,-120.237 475.263,-127.478 485.825,-126.641 482.998,-120.237"/>
</g>
<!-- Node19 -->
<g id="node19" class="node"><title>Node19</title>
<g id="a_node19"><a xlink:href="classpanda_1_1Tau.html#a67c457d171771dadcc84c33cfbda7e2c" target="_top" xlink:title="Set address for the branches to the variables of this object. ">
<polygon fill="white" stroke="black" points="539.156,-0.5 539.156,-20.5 661.308,-20.5 661.308,-0.5 539.156,-0.5"/>
<text text-anchor="middle" x="600.232" y="-7.5" font-family="Helvetica,sans-Serif" font-size="10.00">panda::Tau::setAddress</text>
</a>
</g>
</g>
<!-- Node11&#45;&gt;Node19 -->
<g id="edge18" class="edge"><title>Node11&#45;&gt;Node19</title>
<path fill="none" stroke="midnightblue" d="M488.035,-122.267C489.725,-121.101 491.346,-119.847 492.883,-118.5 524.659,-90.6444 497.386,-58.6717 528.883,-30.5 533.426,-26.4368 538.738,-23.1942 544.372,-20.6073"/>
<polygon fill="midnightblue" stroke="midnightblue" points="486.023,-119.386 479.092,-127.398 489.507,-125.457 486.023,-119.386"/>
</g>
<!-- Node15 -->
<g id="node15" class="node"><title>Node15</title>
<g id="a_node15"><a xlink:href="classpanda_1_1Jet.html#a96b6f57c39cf4e35af339a58f828a78e" target="_top" xlink:title="Set address for the branches to the variables of this object. ">
<polygon fill="white" stroke="black" points="707.581,-117.5 707.581,-137.5 825.843,-137.5 825.843,-117.5 707.581,-117.5"/>
<text text-anchor="middle" x="766.712" y="-124.5" font-family="Helvetica,sans-Serif" font-size="10.00">panda::Jet::setAddress</text>
</a>
</g>
</g>
<!-- Node14&#45;&gt;Node15 -->
<g id="edge14" class="edge"><title>Node14&#45;&gt;Node15</title>
<path fill="none" stroke="midnightblue" d="M681.987,-127.5C690.572,-127.5 699.179,-127.5 707.433,-127.5"/>
<polygon fill="midnightblue" stroke="midnightblue" points="681.941,-124 671.941,-127.5 681.941,-131 681.941,-124"/>
</g>
<!-- Node16 -->
<g id="node16" class="node"><title>Node16</title>
<g id="a_node16"><a xlink:href="classpanda_1_1FatJet.html#a63392b9abcf86c432b0d7b34c7887cbf" target="_top" xlink:title="Set address for the branches to the variables of this object. ">
<polygon fill="white" stroke="black" points="861.843,-117.5 861.843,-137.5 994.552,-137.5 994.552,-117.5 861.843,-117.5"/>
<text text-anchor="middle" x="928.197" y="-124.5" font-family="Helvetica,sans-Serif" font-size="10.00">panda::FatJet::setAddress</text>
</a>
</g>
</g>
<!-- Node15&#45;&gt;Node16 -->
<g id="edge15" class="edge"><title>Node15&#45;&gt;Node16</title>
<path fill="none" stroke="midnightblue" d="M836.35,-127.5C844.767,-127.5 853.352,-127.5 861.721,-127.5"/>
<polygon fill="midnightblue" stroke="midnightblue" points="836.193,-124 826.193,-127.5 836.193,-131 836.193,-124"/>
</g>
</g>
</svg>
