<?xml version="1.0" encoding="UTF-8" standalone="no"?>
<!DOCTYPE svg PUBLIC "-//W3C//DTD SVG 1.1//EN"
 "http://www.w3.org/Graphics/SVG/1.1/DTD/svg11.dtd">
<!-- Generated by graphviz version 2.38.0 (20140413.2041)
 -->
<!-- Title: panda::Container::const_addr_ Pages: 1 -->
<svg width="289pt" height="68pt"
 viewBox="0.00 0.00 288.86 68.00" xmlns="http://www.w3.org/2000/svg" xmlns:xlink="http://www.w3.org/1999/xlink">
<g id="graph0" class="graph" transform="scale(1 1) rotate(0) translate(4 64)">
<title>panda::Container::const_addr_</title>
<polygon fill="white" stroke="none" points="-4,4 -4,-64 284.856,-64 284.856,4 -4,4"/>
<!-- Node1 -->
<g id="node1" class="node"><title>Node1</title>
<polygon fill="#bfbfbf" stroke="black" points="7.10543e-15,-13.5 7.10543e-15,-45.5 122.149,-45.5 122.149,-13.5 7.10543e-15,-13.5"/>
<text text-anchor="start" x="8" y="-32.5" font-family="Helvetica,sans-Serif" font-size="10.00">panda::Container::const</text>
<text text-anchor="middle" x="61.0745" y="-20.5" font-family="Helvetica,sans-Serif" font-size="10.00">_addr_</text>
</g>
<!-- Node2 -->
<g id="node2" class="node"><title>Node2</title>
<g id="a_node2"><a xlink:href="classpanda_1_1Container.html#ab877d1d6d361a300aa917836f0c8876e" target="_top" xlink:title="Return an iterator pointing to the first element. ">
<polygon fill="white" stroke="black" points="158.149,-39.5 158.149,-59.5 280.856,-59.5 280.856,-39.5 158.149,-39.5"/>
<text text-anchor="middle" x="219.502" y="-46.5" font-family="Helvetica,sans-Serif" font-size="10.00">panda::Container::begin</text>
</a>
</g>
</g>
<!-- Node1&#45;&gt;Node2 -->
<g id="edge1" class="edge"><title>Node1&#45;&gt;Node2</title>
<path fill="none" stroke="midnightblue" d="M132.73,-38.5336C141.142,-39.6092 149.673,-40.6998 157.926,-41.7551"/>
<polygon fill="midnightblue" stroke="midnightblue" points="132.917,-35.0291 122.554,-37.2325 132.029,-41.9726 132.917,-35.0291"/>
</g>
<!-- Node3 -->
<g id="node3" class="node"><title>Node3</title>
<g id="a_node3"><a xlink:href="classpanda_1_1Container.html#a90cc2a139fc2289aa5b5f627b07486f4" target="_top" xlink:title="Return an iterator pointing to the end of the array (invalid address) ">
<polygon fill="white" stroke="black" points="162.038,-0.5 162.038,-20.5 276.967,-20.5 276.967,-0.5 162.038,-0.5"/>
<text text-anchor="middle" x="219.502" y="-7.5" font-family="Helvetica,sans-Serif" font-size="10.00">panda::Container::end</text>
</a>
</g>
</g>
<!-- Node1&#45;&gt;Node3 -->
<g id="edge2" class="edge"><title>Node1&#45;&gt;Node3</title>
<path fill="none" stroke="midnightblue" d="M132.705,-20.9211C142.528,-19.728 152.512,-18.5153 162.029,-17.3593"/>
<polygon fill="midnightblue" stroke="midnightblue" points="132.059,-17.4738 122.554,-22.1541 132.903,-24.4227 132.059,-17.4738"/>
</g>
</g>
</svg>
