<?xml version="1.0" encoding="UTF-8" standalone="no"?>
<!DOCTYPE svg PUBLIC "-//W3C//DTD SVG 1.1//EN"
 "http://www.w3.org/Graphics/SVG/1.1/DTD/svg11.dtd">
<!-- Generated by graphviz version 2.38.0 (20140413.2041)
 -->
<!-- Title: panda::Particle::dPhi Pages: 1 -->
<svg width="396pt" height="29pt"
 viewBox="0.00 0.00 395.85 29.00" xmlns="http://www.w3.org/2000/svg" xmlns:xlink="http://www.w3.org/1999/xlink">
<g id="graph0" class="graph" transform="scale(1 1) rotate(0) translate(4 25)">
<title>panda::Particle::dPhi</title>
<polygon fill="white" stroke="none" points="-4,4 -4,-25 391.853,-25 391.853,4 -4,4"/>
<!-- Node1 -->
<g id="node1" class="node"><title>Node1</title>
<polygon fill="#bfbfbf" stroke="black" points="1.42109e-14,-0.5 1.42109e-14,-20.5 108.25,-20.5 108.25,-0.5 1.42109e-14,-0.5"/>
<text text-anchor="middle" x="54.125" y="-7.5" font-family="Helvetica,sans-Serif" font-size="10.00">panda::Particle::dPhi</text>
</g>
<!-- Node2 -->
<g id="node2" class="node"><title>Node2</title>
<g id="a_node2"><a xlink:href="classpanda_1_1Particle.html#a31b515f8bcd6d64227ec24dd4b9682c3" target="_top" xlink:title="panda::Particle::dR2">
<polygon fill="white" stroke="black" points="144.25,-0.5 144.25,-20.5 250.831,-20.5 250.831,-0.5 144.25,-0.5"/>
<text text-anchor="middle" x="197.54" y="-7.5" font-family="Helvetica,sans-Serif" font-size="10.00">panda::Particle::dR2</text>
</a>
</g>
</g>
<!-- Node1&#45;&gt;Node2 -->
<g id="edge1" class="edge"><title>Node1&#45;&gt;Node2</title>
<path fill="none" stroke="midnightblue" d="M118.759,-10.5C127.178,-10.5 135.733,-10.5 143.939,-10.5"/>
<polygon fill="midnightblue" stroke="midnightblue" points="118.588,-7.0001 108.588,-10.5 118.588,-14.0001 118.588,-7.0001"/>
</g>
<!-- Node3 -->
<g id="node3" class="node"><title>Node3</title>
<g id="a_node3"><a xlink:href="classpanda_1_1Particle.html#adbc50bce85d9da56699bbd7d9ab1e4bf" target="_top" xlink:title="panda::Particle::dR">
<polygon fill="white" stroke="black" points="286.831,-0.5 286.831,-20.5 387.853,-20.5 387.853,-0.5 286.831,-0.5"/>
<text text-anchor="middle" x="337.342" y="-7.5" font-family="Helvetica,sans-Serif" font-size="10.00">panda::Particle::dR</text>
</a>
</g>
</g>
<!-- Node2&#45;&gt;Node3 -->
<g id="edge2" class="edge"><title>Node2&#45;&gt;Node3</title>
<path fill="none" stroke="midnightblue" d="M261.04,-10.5C269.648,-10.5 278.389,-10.5 286.722,-10.5"/>
<polygon fill="midnightblue" stroke="midnightblue" points="261.03,-7.0001 251.03,-10.5 261.03,-14.0001 261.03,-7.0001"/>
</g>
</g>
</svg>
