<?xml version="1.0" encoding="UTF-8" standalone="no"?>
<!DOCTYPE svg PUBLIC "-//W3C//DTD SVG 1.1//EN"
 "http://www.w3.org/Graphics/SVG/1.1/DTD/svg11.dtd">
<!-- Generated by graphviz version 2.38.0 (20140413.2041)
 -->
<!-- Title: panda.oneliner.OneLiner Pages: 1 -->
<svg width="134pt" height="86pt"
 viewBox="0.00 0.00 134.04 86.00" xmlns="http://www.w3.org/2000/svg" xmlns:xlink="http://www.w3.org/1999/xlink">
<g id="graph0" class="graph" transform="scale(1 1) rotate(0) translate(4 82)">
<title>panda.oneliner.OneLiner</title>
<polygon fill="white" stroke="none" points="-4,4 -4,-82 130.037,-82 130.037,4 -4,4"/>
<!-- Node1 -->
<g id="node1" class="node"><title>Node1</title>
<polygon fill="#bfbfbf" stroke="black" points="-7.10543e-15,-0.5 -7.10543e-15,-20.5 126.037,-20.5 126.037,-0.5 -7.10543e-15,-0.5"/>
<text text-anchor="middle" x="63.0185" y="-7.5" font-family="Helvetica,sans-Serif" font-size="10.00">panda.oneliner.OneLiner</text>
</g>
<!-- Node2 -->
<g id="node2" class="node"><title>Node2</title>
<polygon fill="white" stroke="#bfbfbf" points="34.1835,-57.5 34.1835,-77.5 91.8535,-77.5 91.8535,-57.5 34.1835,-57.5"/>
<text text-anchor="middle" x="63.0185" y="-64.5" font-family="Helvetica,sans-Serif" font-size="10.00">Definition</text>
</g>
<!-- Node2&#45;&gt;Node1 -->
<g id="edge1" class="edge"><title>Node2&#45;&gt;Node1</title>
<path fill="none" stroke="midnightblue" d="M63.0185,-47.383C63.0185,-38.3738 63.0185,-28.0373 63.0185,-20.7795"/>
<polygon fill="midnightblue" stroke="midnightblue" points="59.5186,-47.4178 63.0185,-57.4179 66.5186,-47.4179 59.5186,-47.4178"/>
</g>
</g>
</svg>
