<?xml version="1.0" encoding="UTF-8" standalone="no"?>
<!DOCTYPE svg PUBLIC "-//W3C//DTD SVG 1.1//EN"
 "http://www.w3.org/Graphics/SVG/1.1/DTD/svg11.dtd">
<!-- Generated by graphviz version 2.38.0 (20140413.2041)
 -->
<!-- Title: panda::Lepton Pages: 1 -->
<svg width="186pt" height="257pt"
 viewBox="0.00 0.00 186.19 257.00" xmlns="http://www.w3.org/2000/svg" xmlns:xlink="http://www.w3.org/1999/xlink">
<g id="graph0" class="graph" transform="scale(1 1) rotate(0) translate(4 253)">
<title>panda::Lepton</title>
<polygon fill="white" stroke="none" points="-4,4 -4,-253 182.192,-253 182.192,4 -4,4"/>
<!-- Node1 -->
<g id="node1" class="node"><title>Node1</title>
<polygon fill="#bfbfbf" stroke="black" points="52.0495,-57.5 52.0495,-77.5 131.976,-77.5 131.976,-57.5 52.0495,-57.5"/>
<text text-anchor="middle" x="92.013" y="-64.5" font-family="Helvetica,sans-Serif" font-size="10.00">panda::Lepton</text>
</g>
<!-- Node5 -->
<g id="node5" class="node"><title>Node5</title>
<g id="a_node5"><a xlink:href="classpanda_1_1Electron.html" target="_top" xlink:title="panda::Electron">
<polygon fill="white" stroke="black" points="7.10543e-15,-0.5 7.10543e-15,-20.5 86.026,-20.5 86.026,-0.5 7.10543e-15,-0.5"/>
<text text-anchor="middle" x="43.013" y="-7.5" font-family="Helvetica,sans-Serif" font-size="10.00">panda::Electron</text>
</a>
</g>
</g>
<!-- Node1&#45;&gt;Node5 -->
<g id="edge4" class="edge"><title>Node1&#45;&gt;Node5</title>
<path fill="none" stroke="midnightblue" d="M77.0683,-49.7253C68.5955,-40.215 58.3147,-28.6754 51.2802,-20.7795"/>
<polygon fill="midnightblue" stroke="midnightblue" points="74.6562,-52.2795 83.9216,-57.4179 79.8829,-47.623 74.6562,-52.2795"/>
</g>
<!-- Node6 -->
<g id="node6" class="node"><title>Node6</title>
<g id="a_node6"><a xlink:href="classpanda_1_1Muon.html" target="_top" xlink:title="panda::Muon">
<polygon fill="white" stroke="black" points="103.834,-0.5 103.834,-20.5 178.192,-20.5 178.192,-0.5 103.834,-0.5"/>
<text text-anchor="middle" x="141.013" y="-7.5" font-family="Helvetica,sans-Serif" font-size="10.00">panda::Muon</text>
</a>
</g>
</g>
<!-- Node1&#45;&gt;Node6 -->
<g id="edge5" class="edge"><title>Node1&#45;&gt;Node6</title>
<path fill="none" stroke="midnightblue" d="M106.958,-49.7253C115.431,-40.215 125.711,-28.6754 132.746,-20.7795"/>
<polygon fill="midnightblue" stroke="midnightblue" points="104.143,-47.623 100.104,-57.4179 109.37,-52.2795 104.143,-47.623"/>
</g>
<!-- Node2 -->
<g id="node2" class="node"><title>Node2</title>
<g id="a_node2"><a xlink:href="classpanda_1_1Particle.html" target="_top" xlink:title="panda::Particle">
<polygon fill="white" stroke="black" points="50.67,-114.5 50.67,-134.5 133.356,-134.5 133.356,-114.5 50.67,-114.5"/>
<text text-anchor="middle" x="92.013" y="-121.5" font-family="Helvetica,sans-Serif" font-size="10.00">panda::Particle</text>
</a>
</g>
</g>
<!-- Node2&#45;&gt;Node1 -->
<g id="edge1" class="edge"><title>Node2&#45;&gt;Node1</title>
<path fill="none" stroke="midnightblue" d="M92.013,-104.383C92.013,-95.3738 92.013,-85.0373 92.013,-77.7795"/>
<polygon fill="midnightblue" stroke="midnightblue" points="88.5131,-104.418 92.013,-114.418 95.5131,-104.418 88.5131,-104.418"/>
</g>
<!-- Node3 -->
<g id="node3" class="node"><title>Node3</title>
<g id="a_node3"><a xlink:href="classpanda_1_1ContainerElement.html" target="_top" xlink:title="panda::ContainerElement">
<polygon fill="white" stroke="black" points="27.3295,-171.5 27.3295,-191.5 156.697,-191.5 156.697,-171.5 27.3295,-171.5"/>
<text text-anchor="middle" x="92.013" y="-178.5" font-family="Helvetica,sans-Serif" font-size="10.00">panda::ContainerElement</text>
</a>
</g>
</g>
<!-- Node3&#45;&gt;Node2 -->
<g id="edge2" class="edge"><title>Node3&#45;&gt;Node2</title>
<path fill="none" stroke="midnightblue" d="M92.013,-161.383C92.013,-152.374 92.013,-142.037 92.013,-134.779"/>
<polygon fill="midnightblue" stroke="midnightblue" points="88.5131,-161.418 92.013,-171.418 95.5131,-161.418 88.5131,-161.418"/>
</g>
<!-- Node4 -->
<g id="node4" class="node"><title>Node4</title>
<g id="a_node4"><a xlink:href="classpanda_1_1Object.html" target="_top" xlink:title="panda::Object">
<polygon fill="white" stroke="black" points="52.889,-228.5 52.889,-248.5 131.137,-248.5 131.137,-228.5 52.889,-228.5"/>
<text text-anchor="middle" x="92.013" y="-235.5" font-family="Helvetica,sans-Serif" font-size="10.00">panda::Object</text>
</a>
</g>
</g>
<!-- Node4&#45;&gt;Node3 -->
<g id="edge3" class="edge"><title>Node4&#45;&gt;Node3</title>
<path fill="none" stroke="midnightblue" d="M92.013,-218.383C92.013,-209.374 92.013,-199.037 92.013,-191.779"/>
<polygon fill="midnightblue" stroke="midnightblue" points="88.5131,-218.418 92.013,-228.418 95.5131,-218.418 88.5131,-218.418"/>
</g>
</g>
</svg>
