<?xml version="1.0" encoding="UTF-8" standalone="no"?>
<!DOCTYPE svg PUBLIC "-//W3C//DTD SVG 1.1//EN"
 "http://www.w3.org/Graphics/SVG/1.1/DTD/svg11.dtd">
<!-- Generated by graphviz version 2.38.0 (20140413.2041)
 -->
<!-- Title: Framework/src/CollectionBase.cc Pages: 1 -->
<!--zoomable 383 -->
<svg id="main" version="1.1" xmlns="http://www.w3.org/2000/svg" xmlns:xlink="http://www.w3.org/1999/xlink" xml:space="preserve" onload="init(evt)">
<style type="text/css"><![CDATA[
.edge:hover path { stroke: red; }
.edge:hover polygon { stroke: red; fill: red; }
]]></style>
<script type="text/javascript"><![CDATA[
var edges = document.getElementsByTagName('g');
if (edges && edges.length) {
  for (var i=0;i<edges.length;i++) {
    if (edges[i].id.substr(0,4)=='edge') {
      edges[i].setAttribute('class','edge');
    }
  }
}
]]></script>
        <defs>
                <circle id="rim" cx="0" cy="0" r="7"/>
                <circle id="rim2" cx="0" cy="0" r="3.5"/>
                <g id="zoomPlus">
                        <use xlink:href="#rim" fill="#404040">
                                <set attributeName="fill" to="#808080" begin="zoomplus.mouseover" end="zoomplus.mouseout"/>
                        </use>
                        <path d="M-4,0h8M0,-4v8" fill="none" stroke="white" stroke-width="1.5" pointer-events="none"/>
                </g>
                <g id="zoomMin">
                        <use xlink:href="#rim" fill="#404040">
                                <set attributeName="fill" to="#808080" begin="zoomminus.mouseover" end="zoomminus.mouseout"/>
                        </use>
                        <path d="M-4,0h8" fill="none" stroke="white" stroke-width="1.5" pointer-events="none"/>
                </g>
                <g id="dirArrow">
                        <path fill="none" stroke="white" stroke-width="1.5" d="M0,-3.0v7 M-2.5,-0.5L0,-3.0L2.5,-0.5"/>
                </g>
               <g id="resetDef">
                       <use xlink:href="#rim2" fill="#404040">
                               <set attributeName="fill" to="#808080" begin="reset.mouseover" end="reset.mouseout"/>
                       </use>
               </g>
        </defs>

<script type="text/javascript">
var viewWidth = 542;
var viewHeight = 383;
var sectionId = 'dynsection-0';
</script>
<script xlink:href="svgpan.js"/>
<svg id="graph" class="graph">
<g id="viewport">
<title>Framework/src/CollectionBase.cc</title>
<polygon fill="white" stroke="none" points="-4,4 -4,-379 538.387,-379 538.387,4 -4,4"/>
<!-- Node1 -->
<g id="node1" class="node"><title>Node1</title>
<polygon fill="#bfbfbf" stroke="black" points="348.002,-342.5 348.002,-374.5 476.772,-374.5 476.772,-342.5 348.002,-342.5"/>
<text text-anchor="start" x="356.002" y="-361.5" font-family="Helvetica,sans-Serif" font-size="10.00">Framework/src/Collection</text>
<text text-anchor="middle" x="412.387" y="-349.5" font-family="Helvetica,sans-Serif" font-size="10.00">Base.cc</text>
</g>
<!-- Node2 -->
<g id="node2" class="node"><title>Node2</title>
<g id="a_node2"><a xlink:href="CollectionBase_8h.html" target="_top" xlink:title="../interface/CollectionBase.h">
<polygon fill="white" stroke="black" points="108.15,-285.5 108.15,-305.5 248.624,-305.5 248.624,-285.5 108.15,-285.5"/>
<text text-anchor="middle" x="178.387" y="-292.5" font-family="Helvetica,sans-Serif" font-size="10.00">../interface/CollectionBase.h</text>
</a>
</g>
</g>
<!-- Node1&#45;&gt;Node2 -->
<g id="edge1" class="edge"><title>Node1&#45;&gt;Node2</title>
<path fill="none" stroke="midnightblue" d="M354.844,-342.5C314.273,-331.923 260.71,-317.96 223.283,-308.204"/>
<polygon fill="midnightblue" stroke="midnightblue" points="223.738,-304.705 213.178,-305.57 221.972,-311.479 223.738,-304.705"/>
</g>
<!-- Node6 -->
<g id="node6" class="node"><title>Node6</title>
<g id="a_node6"><a xlink:href="IOUtils_8h.html" target="_top" xlink:title="IOUtils.h">
<polygon fill="white" stroke="black" points="263.221,-57.5 263.221,-77.5 317.553,-77.5 317.553,-57.5 263.221,-57.5"/>
<text text-anchor="middle" x="290.387" y="-64.5" font-family="Helvetica,sans-Serif" font-size="10.00">IOUtils.h</text>
</a>
</g>
</g>
<!-- Node1&#45;&gt;Node6 -->
<g id="edge22" class="edge"><title>Node1&#45;&gt;Node6</title>
<path fill="none" stroke="midnightblue" d="M446.371,-342.474C482.47,-323.931 534.387,-288.71 534.387,-239.5 534.387,-239.5 534.387,-239.5 534.387,-180.5 534.387,-90.9066 396.827,-72.7127 328.28,-69.2083"/>
<polygon fill="midnightblue" stroke="midnightblue" points="328.043,-65.695 317.903,-68.7633 327.743,-72.6886 328.043,-65.695"/>
</g>
<!-- Node3 -->
<g id="node3" class="node"><title>Node3</title>
<g id="a_node3"><a xlink:href="ContainerBase_8h.html" target="_top" xlink:title="ContainerBase.h">
<polygon fill="white" stroke="black" points="245.154,-228.5 245.154,-248.5 335.62,-248.5 335.62,-228.5 245.154,-228.5"/>
<text text-anchor="middle" x="290.387" y="-235.5" font-family="Helvetica,sans-Serif" font-size="10.00">ContainerBase.h</text>
</a>
</g>
</g>
<!-- Node2&#45;&gt;Node3 -->
<g id="edge2" class="edge"><title>Node2&#45;&gt;Node3</title>
<path fill="none" stroke="midnightblue" d="M196.882,-285.418C214.796,-276.621 242.188,-263.169 262.701,-253.096"/>
<polygon fill="midnightblue" stroke="midnightblue" points="264.432,-256.145 271.865,-248.596 261.346,-249.862 264.432,-256.145"/>
</g>
<!-- Node9 -->
<g id="node9" class="node"><title>Node9</title>
<polygon fill="white" stroke="#bfbfbf" points="101.774,-0.5 101.774,-20.5 145,-20.5 145,-0.5 101.774,-0.5"/>
<text text-anchor="middle" x="123.387" y="-7.5" font-family="Helvetica,sans-Serif" font-size="10.00">vector</text>
</g>
<!-- Node2&#45;&gt;Node9 -->
<g id="edge20" class="edge"><title>Node2&#45;&gt;Node9</title>
<path fill="none" stroke="midnightblue" d="M157.844,-285.43C125.511,-269.595 66.387,-233.647 66.387,-182.5 66.387,-182.5 66.387,-182.5 66.387,-123.5 66.387,-86.4644 91.4489,-49.2999 108.336,-28.4613"/>
<polygon fill="midnightblue" stroke="midnightblue" points="111.211,-30.4812 114.976,-20.578 105.857,-25.9716 111.211,-30.4812"/>
</g>
<!-- Node12 -->
<g id="node12" class="node"><title>Node12</title>
<polygon fill="white" stroke="#bfbfbf" points="0,-228.5 0,-248.5 38.774,-248.5 38.774,-228.5 0,-228.5"/>
<text text-anchor="middle" x="19.387" y="-235.5" font-family="Helvetica,sans-Serif" font-size="10.00">utility</text>
</g>
<!-- Node2&#45;&gt;Node12 -->
<g id="edge21" class="edge"><title>Node2&#45;&gt;Node12</title>
<path fill="none" stroke="midnightblue" d="M152.131,-285.418C123.727,-275.592 78.5398,-259.962 48.9182,-249.715"/>
<polygon fill="midnightblue" stroke="midnightblue" points="49.7377,-246.295 39.1429,-246.334 47.4493,-252.911 49.7377,-246.295"/>
</g>
<!-- Node4 -->
<g id="node4" class="node"><title>Node4</title>
<g id="a_node4"><a xlink:href="ContainerElement_8h.html" target="_top" xlink:title="ContainerElement.h">
<polygon fill="white" stroke="black" points="238.211,-171.5 238.211,-191.5 342.563,-191.5 342.563,-171.5 238.211,-171.5"/>
<text text-anchor="middle" x="290.387" y="-178.5" font-family="Helvetica,sans-Serif" font-size="10.00">ContainerElement.h</text>
</a>
</g>
</g>
<!-- Node3&#45;&gt;Node4 -->
<g id="edge3" class="edge"><title>Node3&#45;&gt;Node4</title>
<path fill="none" stroke="midnightblue" d="M290.387,-228.418C290.387,-221.216 290.387,-210.896 290.387,-201.863"/>
<polygon fill="midnightblue" stroke="midnightblue" points="293.887,-201.779 290.387,-191.779 286.887,-201.779 293.887,-201.779"/>
</g>
<!-- Node3&#45;&gt;Node6 -->
<g id="edge15" class="edge"><title>Node3&#45;&gt;Node6</title>
<path fill="none" stroke="midnightblue" d="M309.028,-228.36C322.87,-220.595 341.07,-208.142 351.387,-192 365.329,-170.186 360.706,-160.749 363.387,-135 364.354,-125.717 367.917,-122.161 363.387,-114 355.361,-99.5401 340.618,-89.076 326.472,-81.8566"/>
<polygon fill="midnightblue" stroke="midnightblue" points="327.878,-78.6504 317.338,-77.5716 324.905,-84.9876 327.878,-78.6504"/>
</g>
<!-- Node7 -->
<g id="node7" class="node"><title>Node7</title>
<polygon fill="white" stroke="#bfbfbf" points="430.106,-0.5 430.106,-20.5 486.668,-20.5 486.668,-0.5 430.106,-0.5"/>
<text text-anchor="middle" x="458.387" y="-7.5" font-family="Helvetica,sans-Serif" font-size="10.00">TString.h</text>
</g>
<!-- Node3&#45;&gt;Node7 -->
<g id="edge16" class="edge"><title>Node3&#45;&gt;Node7</title>
<path fill="none" stroke="midnightblue" d="M327.213,-228.479C348.424,-221.607 374.2,-210.157 391.387,-192 435.55,-145.342 451.166,-67.0017 456.206,-30.8513"/>
<polygon fill="midnightblue" stroke="midnightblue" points="459.709,-31.051 457.494,-20.6903 452.764,-30.1709 459.709,-31.051"/>
</g>
<!-- Node8 -->
<g id="node8" class="node"><title>Node8</title>
<polygon fill="white" stroke="#bfbfbf" points="236.886,-0.5 236.886,-20.5 287.889,-20.5 287.889,-0.5 236.886,-0.5"/>
<text text-anchor="middle" x="262.387" y="-7.5" font-family="Helvetica,sans-Serif" font-size="10.00">TTree.h</text>
</g>
<!-- Node3&#45;&gt;Node8 -->
<g id="edge17" class="edge"><title>Node3&#45;&gt;Node8</title>
<path fill="none" stroke="midnightblue" d="M319.278,-228.346C336.859,-221.25 358.207,-209.609 370.387,-192 390.239,-163.3 392.153,-146.478 379.387,-114 363.074,-72.4982 319.125,-41.8895 289.981,-25.3886"/>
<polygon fill="midnightblue" stroke="midnightblue" points="291.546,-22.2554 281.092,-20.531 288.189,-28.3979 291.546,-22.2554"/>
</g>
<!-- Node3&#45;&gt;Node9 -->
<g id="edge18" class="edge"><title>Node3&#45;&gt;Node9</title>
<path fill="none" stroke="midnightblue" d="M244.843,-234.448C214.141,-229.888 175.214,-218.784 152.387,-192 112.818,-145.572 116.318,-67.1164 120.52,-30.8942"/>
<polygon fill="midnightblue" stroke="midnightblue" points="124.025,-31.0821 121.855,-20.7119 117.085,-30.1719 124.025,-31.0821"/>
</g>
<!-- Node11 -->
<g id="node11" class="node"><title>Node11</title>
<polygon fill="white" stroke="#bfbfbf" points="160.992,-171.5 160.992,-191.5 219.782,-191.5 219.782,-171.5 160.992,-171.5"/>
<text text-anchor="middle" x="190.387" y="-178.5" font-family="Helvetica,sans-Serif" font-size="10.00">functional</text>
</g>
<!-- Node3&#45;&gt;Node11 -->
<g id="edge19" class="edge"><title>Node3&#45;&gt;Node11</title>
<path fill="none" stroke="midnightblue" d="M273.874,-228.418C258.096,-219.74 234.084,-206.533 215.856,-196.508"/>
<polygon fill="midnightblue" stroke="midnightblue" points="217.373,-193.348 206.924,-191.596 214,-199.482 217.373,-193.348"/>
</g>
<!-- Node5 -->
<g id="node5" class="node"><title>Node5</title>
<g id="a_node5"><a xlink:href="Object_8h.html" target="_top" xlink:title="Object.h">
<polygon fill="white" stroke="black" points="208.77,-114.5 208.77,-134.5 262.003,-134.5 262.003,-114.5 208.77,-114.5"/>
<text text-anchor="middle" x="235.387" y="-121.5" font-family="Helvetica,sans-Serif" font-size="10.00">Object.h</text>
</a>
</g>
</g>
<!-- Node4&#45;&gt;Node5 -->
<g id="edge4" class="edge"><title>Node4&#45;&gt;Node5</title>
<path fill="none" stroke="midnightblue" d="M281.305,-171.418C273.312,-163.425 261.477,-151.59 251.825,-141.938"/>
<polygon fill="midnightblue" stroke="midnightblue" points="254.212,-139.376 244.666,-134.779 249.263,-144.325 254.212,-139.376"/>
</g>
<!-- Node4&#45;&gt;Node6 -->
<g id="edge10" class="edge"><title>Node4&#45;&gt;Node6</title>
<path fill="none" stroke="midnightblue" d="M290.387,-171.335C290.387,-153.204 290.387,-112.407 290.387,-87.9997"/>
<polygon fill="midnightblue" stroke="midnightblue" points="293.887,-87.792 290.387,-77.7921 286.887,-87.7921 293.887,-87.792"/>
</g>
<!-- Node4&#45;&gt;Node7 -->
<g id="edge12" class="edge"><title>Node4&#45;&gt;Node7</title>
<path fill="none" stroke="midnightblue" d="M308.722,-171.458C324.282,-163.252 346.677,-150.142 363.387,-135 399.29,-102.464 431.459,-54.9984 447.543,-29.4227"/>
<polygon fill="midnightblue" stroke="midnightblue" points="450.612,-31.1152 452.894,-20.7692 444.658,-27.4337 450.612,-31.1152"/>
</g>
<!-- Node4&#45;&gt;Node8 -->
<g id="edge11" class="edge"><title>Node4&#45;&gt;Node8</title>
<path fill="none" stroke="midnightblue" d="M251.471,-171.383C232.263,-164.707 210.809,-153.481 199.387,-135 176.451,-97.8894 217.573,-51.4205 243.543,-27.4475"/>
<polygon fill="midnightblue" stroke="midnightblue" points="245.9,-30.0356 251.029,-20.765 241.238,-24.8136 245.9,-30.0356"/>
</g>
<!-- Node4&#45;&gt;Node9 -->
<g id="edge13" class="edge"><title>Node4&#45;&gt;Node9</title>
<path fill="none" stroke="midnightblue" d="M256.738,-171.496C235.405,-164.412 208.355,-152.728 189.387,-135 157.542,-105.237 137.929,-56.584 129.035,-30.1013"/>
<polygon fill="midnightblue" stroke="midnightblue" points="132.351,-28.9792 125.965,-20.525 125.685,-31.1161 132.351,-28.9792"/>
</g>
<!-- Node10 -->
<g id="node10" class="node"><title>Node10</title>
<polygon fill="white" stroke="#bfbfbf" points="318.663,-114.5 318.663,-134.5 354.111,-134.5 354.111,-114.5 318.663,-114.5"/>
<text text-anchor="middle" x="336.387" y="-121.5" font-family="Helvetica,sans-Serif" font-size="10.00">map</text>
</g>
<!-- Node4&#45;&gt;Node10 -->
<g id="edge14" class="edge"><title>Node4&#45;&gt;Node10</title>
<path fill="none" stroke="midnightblue" d="M297.983,-171.418C304.536,-163.583 314.175,-152.058 322.157,-142.514"/>
<polygon fill="midnightblue" stroke="midnightblue" points="324.895,-144.696 328.626,-134.779 319.526,-140.205 324.895,-144.696"/>
</g>
<!-- Node5&#45;&gt;Node6 -->
<g id="edge5" class="edge"><title>Node5&#45;&gt;Node6</title>
<path fill="none" stroke="midnightblue" d="M244.469,-114.418C252.462,-106.425 264.297,-94.5903 273.949,-84.9377"/>
<polygon fill="midnightblue" stroke="midnightblue" points="276.511,-87.3254 281.108,-77.7795 271.562,-82.3757 276.511,-87.3254"/>
</g>
<!-- Node5&#45;&gt;Node8 -->
<g id="edge9" class="edge"><title>Node5&#45;&gt;Node8</title>
<path fill="none" stroke="midnightblue" d="M237.597,-114.335C241.987,-96.1219 251.892,-55.0369 257.766,-30.6694"/>
<polygon fill="midnightblue" stroke="midnightblue" points="261.206,-31.3339 260.147,-20.7921 254.401,-29.6933 261.206,-31.3339"/>
</g>
<!-- Node6&#45;&gt;Node7 -->
<g id="edge6" class="edge"><title>Node6&#45;&gt;Node7</title>
<path fill="none" stroke="midnightblue" d="M317.753,-57.5409C345.859,-48.3396 389.799,-33.9546 421.078,-23.7141"/>
<polygon fill="midnightblue" stroke="midnightblue" points="422.339,-26.9844 430.753,-20.5467 420.161,-20.3318 422.339,-26.9844"/>
</g>
<!-- Node6&#45;&gt;Node8 -->
<g id="edge7" class="edge"><title>Node6&#45;&gt;Node8</title>
<path fill="none" stroke="midnightblue" d="M285.763,-57.4179C281.976,-49.9789 276.495,-39.2123 271.792,-29.9742"/>
<polygon fill="midnightblue" stroke="midnightblue" points="274.767,-28.1032 267.111,-20.7795 268.529,-31.279 274.767,-28.1032"/>
</g>
<!-- Node6&#45;&gt;Node9 -->
<g id="edge8" class="edge"><title>Node6&#45;&gt;Node9</title>
<path fill="none" stroke="midnightblue" d="M263.184,-57.5409C233.494,-47.7628 186.029,-32.1307 154.781,-21.8395"/>
<polygon fill="midnightblue" stroke="midnightblue" points="155.842,-18.5038 145.249,-18.7 153.652,-25.1526 155.842,-18.5038"/>
</g>
</g>
</svg>
        <g id="navigator" transform="translate(0 0)" fill="#404254">
                <rect fill="#f2f5e9" fill-opacity="0.5" stroke="#606060" stroke-width=".5" x="0" y="0" width="60" height="60"/>
                <use id="zoomplus" xlink:href="#zoomPlus" x="17" y="9" onmousedown="handleZoom(evt,'in')"/>
                <use id="zoomminus" xlink:href="#zoomMin" x="42" y="9" onmousedown="handleZoom(evt,'out')"/>
                <use id="reset" xlink:href="#resetDef" x="30" y="36" onmousedown="handleReset()"/>
                <g id="arrowUp" xlink:href="#dirArrow" transform="translate(30 24)" onmousedown="handlePan(0,-1)">
                  <use xlink:href="#rim" fill="#404040">
                        <set attributeName="fill" to="#808080" begin="arrowUp.mouseover" end="arrowUp.mouseout"/>
                  </use>
                  <path fill="none" stroke="white" stroke-width="1.5" d="M0,-3.0v7 M-2.5,-0.5L0,-3.0L2.5,-0.5"/>
                </g>
                <g id="arrowRight" xlink:href="#dirArrow" transform="rotate(90) translate(36 -43)" onmousedown="handlePan(1,0)">
                  <use xlink:href="#rim" fill="#404040">
                        <set attributeName="fill" to="#808080" begin="arrowRight.mouseover" end="arrowRight.mouseout"/>
                  </use>
                  <path fill="none" stroke="white" stroke-width="1.5" d="M0,-3.0v7 M-2.5,-0.5L0,-3.0L2.5,-0.5"/>
                </g>
                <g id="arrowDown" xlink:href="#dirArrow" transform="rotate(180) translate(-30 -48)" onmousedown="handlePan(0,1)">
                  <use xlink:href="#rim" fill="#404040">
                        <set attributeName="fill" to="#808080" begin="arrowDown.mouseover" end="arrowDown.mouseout"/>
                  </use>
                  <path fill="none" stroke="white" stroke-width="1.5" d="M0,-3.0v7 M-2.5,-0.5L0,-3.0L2.5,-0.5"/>
                </g>
                <g id="arrowLeft" xlink:href="#dirArrow" transform="rotate(270) translate(-36 17)" onmousedown="handlePan(-1,0)">
                  <use xlink:href="#rim" fill="#404040">
                        <set attributeName="fill" to="#808080" begin="arrowLeft.mouseover" end="arrowLeft.mouseout"/>
                  </use>
                  <path fill="none" stroke="white" stroke-width="1.5" d="M0,-3.0v7 M-2.5,-0.5L0,-3.0L2.5,-0.5"/>
                </g>
        </g>
        <svg viewBox="0 0 15 15" width="100%" height="30px" preserveAspectRatio="xMaxYMin meet">
         <g id="arrow_out" transform="scale(0.3 0.3)">
          <a xlink:href="CollectionBase_8cc__incl_org.svg" target="_base">
           <rect id="button" ry="5" rx="5" y="6" x="6" height="38" width="38"
                fill="#f2f5e9" fill-opacity="0.5" stroke="#606060" stroke-width="1.0"/>
           <path id="arrow"
             d="M 11.500037,31.436501 C 11.940474,20.09759 22.043105,11.32322 32.158766,21.979434 L 37.068811,17.246167 C 37.068811,17.246167 37.088388,32 37.088388,32 L 22.160133,31.978069 C 22.160133,31.978069 26.997745,27.140456 26.997745,27.140456 C 18.528582,18.264221 13.291696,25.230495 11.500037,31.436501 z"
             style="fill:#404040;"/>
          </a>
         </g>
        </svg>
</svg>
