<?xml version="1.0" encoding="UTF-8" standalone="no"?>
<!DOCTYPE svg PUBLIC "-//W3C//DTD SVG 1.1//EN"
 "http://www.w3.org/Graphics/SVG/1.1/DTD/svg11.dtd">
<!-- Generated by graphviz version 2.38.0 (20140413.2041)
 -->
<!-- Title: Framework/interface/CollectionBase.h Pages: 1 -->
<svg width="457pt" height="326pt"
 viewBox="0.00 0.00 456.67 326.00" xmlns="http://www.w3.org/2000/svg" xmlns:xlink="http://www.w3.org/1999/xlink">
<g id="graph0" class="graph" transform="scale(1 1) rotate(0) translate(4 322)">
<title>Framework/interface/CollectionBase.h</title>
<polygon fill="white" stroke="none" points="-4,4 -4,-322 452.668,-322 452.668,4 -4,4"/>
<!-- Node1 -->
<g id="node1" class="node"><title>Node1</title>
<polygon fill="#bfbfbf" stroke="black" points="328.724,-285.5 328.724,-317.5 435.837,-317.5 435.837,-285.5 328.724,-285.5"/>
<text text-anchor="start" x="336.724" y="-304.5" font-family="Helvetica,sans-Serif" font-size="10.00">Framework/interface</text>
<text text-anchor="middle" x="382.281" y="-292.5" font-family="Helvetica,sans-Serif" font-size="10.00">/CollectionBase.h</text>
</g>
<!-- Node2 -->
<g id="node2" class="node"><title>Node2</title>
<g id="a_node2"><a xlink:href="ContainerBase_8h.html" target="_top" xlink:title="ContainerBase.h">
<polygon fill="white" stroke="black" points="131.048,-228.5 131.048,-248.5 221.514,-248.5 221.514,-228.5 131.048,-228.5"/>
<text text-anchor="middle" x="176.281" y="-235.5" font-family="Helvetica,sans-Serif" font-size="10.00">ContainerBase.h</text>
</a>
</g>
</g>
<!-- Node1&#45;&gt;Node2 -->
<g id="edge1" class="edge"><title>Node1&#45;&gt;Node2</title>
<path fill="none" stroke="midnightblue" d="M331.623,-285.5C296.212,-275.014 249.558,-261.199 216.652,-251.455"/>
<polygon fill="midnightblue" stroke="midnightblue" points="217.491,-248.053 206.909,-248.57 215.503,-254.765 217.491,-248.053"/>
</g>
<!-- Node8 -->
<g id="node8" class="node"><title>Node8</title>
<polygon fill="white" stroke="#bfbfbf" points="284.668,-0.5 284.668,-20.5 327.894,-20.5 327.894,-0.5 284.668,-0.5"/>
<text text-anchor="middle" x="306.281" y="-7.5" font-family="Helvetica,sans-Serif" font-size="10.00">vector</text>
</g>
<!-- Node1&#45;&gt;Node8 -->
<g id="edge19" class="edge"><title>Node1&#45;&gt;Node8</title>
<path fill="none" stroke="midnightblue" d="M382.281,-285.225C382.281,-262.732 382.281,-219.375 382.281,-182.5 382.281,-182.5 382.281,-182.5 382.281,-123.5 382.281,-83.3176 348.371,-46.8439 325.852,-27.0531"/>
<polygon fill="midnightblue" stroke="midnightblue" points="328.05,-24.328 318.156,-20.5405 323.529,-29.6718 328.05,-24.328"/>
</g>
<!-- Node11 -->
<g id="node11" class="node"><title>Node11</title>
<polygon fill="white" stroke="#bfbfbf" points="409.894,-228.5 409.894,-248.5 448.668,-248.5 448.668,-228.5 409.894,-228.5"/>
<text text-anchor="middle" x="429.281" y="-235.5" font-family="Helvetica,sans-Serif" font-size="10.00">utility</text>
</g>
<!-- Node1&#45;&gt;Node11 -->
<g id="edge20" class="edge"><title>Node1&#45;&gt;Node11</title>
<path fill="none" stroke="midnightblue" d="M393.898,-285.421C400.655,-276.652 409.191,-265.574 416.185,-256.496"/>
<polygon fill="midnightblue" stroke="midnightblue" points="418.98,-258.604 422.311,-248.546 413.435,-254.331 418.98,-258.604"/>
</g>
<!-- Node3 -->
<g id="node3" class="node"><title>Node3</title>
<g id="a_node3"><a xlink:href="ContainerElement_8h.html" target="_top" xlink:title="ContainerElement.h">
<polygon fill="white" stroke="black" points="124.105,-171.5 124.105,-191.5 228.457,-191.5 228.457,-171.5 124.105,-171.5"/>
<text text-anchor="middle" x="176.281" y="-178.5" font-family="Helvetica,sans-Serif" font-size="10.00">ContainerElement.h</text>
</a>
</g>
</g>
<!-- Node2&#45;&gt;Node3 -->
<g id="edge2" class="edge"><title>Node2&#45;&gt;Node3</title>
<path fill="none" stroke="midnightblue" d="M176.281,-228.418C176.281,-221.216 176.281,-210.896 176.281,-201.863"/>
<polygon fill="midnightblue" stroke="midnightblue" points="179.781,-201.779 176.281,-191.779 172.781,-201.779 179.781,-201.779"/>
</g>
<!-- Node5 -->
<g id="node5" class="node"><title>Node5</title>
<g id="a_node5"><a xlink:href="IOUtils_8h.html" target="_top" xlink:title="IOUtils.h">
<polygon fill="white" stroke="black" points="141.115,-57.5 141.115,-77.5 195.447,-77.5 195.447,-57.5 141.115,-57.5"/>
<text text-anchor="middle" x="168.281" y="-64.5" font-family="Helvetica,sans-Serif" font-size="10.00">IOUtils.h</text>
</a>
</g>
</g>
<!-- Node2&#45;&gt;Node5 -->
<g id="edge14" class="edge"><title>Node2&#45;&gt;Node5</title>
<path fill="none" stroke="midnightblue" d="M194.921,-228.36C208.764,-220.595 226.963,-208.142 237.281,-192 256.17,-162.446 266.997,-144.271 249.281,-114 239.678,-97.5923 221.747,-86.648 205.192,-79.6145"/>
<polygon fill="midnightblue" stroke="midnightblue" points="206.266,-76.2768 195.678,-75.9135 203.729,-82.8007 206.266,-76.2768"/>
</g>
<!-- Node6 -->
<g id="node6" class="node"><title>Node6</title>
<polygon fill="white" stroke="#bfbfbf" points="1.77636e-14,-0.5 1.77636e-14,-20.5 56.561,-20.5 56.561,-0.5 1.77636e-14,-0.5"/>
<text text-anchor="middle" x="28.2805" y="-7.5" font-family="Helvetica,sans-Serif" font-size="10.00">TString.h</text>
</g>
<!-- Node2&#45;&gt;Node6 -->
<g id="edge15" class="edge"><title>Node2&#45;&gt;Node6</title>
<path fill="none" stroke="midnightblue" d="M131.033,-237.262C96.0665,-234.402 49.6511,-224.203 25.2805,-192 -11.2277,-143.759 9.02619,-65.6434 21.1988,-30.1335"/>
<polygon fill="midnightblue" stroke="midnightblue" points="24.5507,-31.1557 24.6453,-20.5613 17.9645,-28.7844 24.5507,-31.1557"/>
</g>
<!-- Node7 -->
<g id="node7" class="node"><title>Node7</title>
<polygon fill="white" stroke="#bfbfbf" points="78.779,-0.5 78.779,-20.5 129.782,-20.5 129.782,-0.5 78.779,-0.5"/>
<text text-anchor="middle" x="104.281" y="-7.5" font-family="Helvetica,sans-Serif" font-size="10.00">TTree.h</text>
</g>
<!-- Node2&#45;&gt;Node7 -->
<g id="edge16" class="edge"><title>Node2&#45;&gt;Node7</title>
<path fill="none" stroke="midnightblue" d="M131.045,-235.736C99.4371,-231.851 59.2736,-221.026 38.2805,-192 0.0654576,-139.161 58.6655,-61.8004 88.5306,-28.1546"/>
<polygon fill="midnightblue" stroke="midnightblue" points="91.2804,-30.3333 95.4278,-20.584 86.1059,-25.619 91.2804,-30.3333"/>
</g>
<!-- Node2&#45;&gt;Node8 -->
<g id="edge17" class="edge"><title>Node2&#45;&gt;Node8</title>
<path fill="none" stroke="midnightblue" d="M202.273,-228.494C220.135,-221.136 243.25,-209.135 258.281,-192 294.202,-151.051 291.898,-131.269 303.281,-78 306.605,-62.4407 307.222,-44.384 307.081,-31.016"/>
<polygon fill="midnightblue" stroke="midnightblue" points="310.571,-30.5615 306.812,-20.6558 303.573,-30.7434 310.571,-30.5615"/>
</g>
<!-- Node10 -->
<g id="node10" class="node"><title>Node10</title>
<polygon fill="white" stroke="#bfbfbf" points="46.885,-171.5 46.885,-191.5 105.676,-191.5 105.676,-171.5 46.885,-171.5"/>
<text text-anchor="middle" x="76.2805" y="-178.5" font-family="Helvetica,sans-Serif" font-size="10.00">functional</text>
</g>
<!-- Node2&#45;&gt;Node10 -->
<g id="edge18" class="edge"><title>Node2&#45;&gt;Node10</title>
<path fill="none" stroke="midnightblue" d="M159.768,-228.418C143.989,-219.74 119.978,-206.533 101.749,-196.508"/>
<polygon fill="midnightblue" stroke="midnightblue" points="103.267,-193.348 92.818,-191.596 99.8934,-199.482 103.267,-193.348"/>
</g>
<!-- Node4 -->
<g id="node4" class="node"><title>Node4</title>
<g id="a_node4"><a xlink:href="Object_8h.html" target="_top" xlink:title="Object.h">
<polygon fill="white" stroke="black" points="94.664,-114.5 94.664,-134.5 147.897,-134.5 147.897,-114.5 94.664,-114.5"/>
<text text-anchor="middle" x="121.281" y="-121.5" font-family="Helvetica,sans-Serif" font-size="10.00">Object.h</text>
</a>
</g>
</g>
<!-- Node3&#45;&gt;Node4 -->
<g id="edge3" class="edge"><title>Node3&#45;&gt;Node4</title>
<path fill="none" stroke="midnightblue" d="M167.198,-171.418C159.205,-163.425 147.371,-151.59 137.718,-141.938"/>
<polygon fill="midnightblue" stroke="midnightblue" points="140.106,-139.376 130.56,-134.779 135.156,-144.325 140.106,-139.376"/>
</g>
<!-- Node3&#45;&gt;Node5 -->
<g id="edge9" class="edge"><title>Node3&#45;&gt;Node5</title>
<path fill="none" stroke="midnightblue" d="M175.626,-171.335C174.331,-153.204 171.417,-112.407 169.673,-87.9997"/>
<polygon fill="midnightblue" stroke="midnightblue" points="173.148,-87.5173 168.944,-77.7921 166.166,-88.0161 173.148,-87.5173"/>
</g>
<!-- Node3&#45;&gt;Node6 -->
<g id="edge11" class="edge"><title>Node3&#45;&gt;Node6</title>
<path fill="none" stroke="midnightblue" d="M138.519,-171.481C117.168,-164.647 91.4015,-153.236 74.2805,-135 46.3261,-105.225 34.9908,-56.9293 30.6895,-30.4163"/>
<polygon fill="midnightblue" stroke="midnightblue" points="34.1509,-29.8972 29.2488,-20.5047 27.2237,-30.9042 34.1509,-29.8972"/>
</g>
<!-- Node3&#45;&gt;Node7 -->
<g id="edge10" class="edge"><title>Node3&#45;&gt;Node7</title>
<path fill="none" stroke="midnightblue" d="M137.365,-171.383C118.156,-164.707 96.7025,-153.481 85.2805,-135 64.9425,-102.092 82.1588,-55.1038 94.4781,-29.6198"/>
<polygon fill="midnightblue" stroke="midnightblue" points="97.6058,-31.1906 99.0258,-20.6913 91.3683,-28.0134 97.6058,-31.1906"/>
</g>
<!-- Node3&#45;&gt;Node8 -->
<g id="edge12" class="edge"><title>Node3&#45;&gt;Node8</title>
<path fill="none" stroke="midnightblue" d="M197.472,-171.414C213.438,-163.678 234.955,-151.238 249.281,-135 277.03,-103.546 293.713,-56.2848 301.327,-30.2945"/>
<polygon fill="midnightblue" stroke="midnightblue" points="304.725,-31.1389 304.041,-20.5662 297.982,-29.2581 304.725,-31.1389"/>
</g>
<!-- Node9 -->
<g id="node9" class="node"><title>Node9</title>
<polygon fill="white" stroke="#bfbfbf" points="204.557,-114.5 204.557,-134.5 240.004,-134.5 240.004,-114.5 204.557,-114.5"/>
<text text-anchor="middle" x="222.281" y="-121.5" font-family="Helvetica,sans-Serif" font-size="10.00">map</text>
</g>
<!-- Node3&#45;&gt;Node9 -->
<g id="edge13" class="edge"><title>Node3&#45;&gt;Node9</title>
<path fill="none" stroke="midnightblue" d="M183.876,-171.418C190.429,-163.583 200.069,-152.058 208.051,-142.514"/>
<polygon fill="midnightblue" stroke="midnightblue" points="210.789,-144.696 214.52,-134.779 205.419,-140.205 210.789,-144.696"/>
</g>
<!-- Node4&#45;&gt;Node5 -->
<g id="edge4" class="edge"><title>Node4&#45;&gt;Node5</title>
<path fill="none" stroke="midnightblue" d="M129.042,-114.418C135.737,-106.583 145.586,-95.0575 153.742,-85.5137"/>
<polygon fill="midnightblue" stroke="midnightblue" points="156.515,-87.6556 160.351,-77.7795 151.193,-83.108 156.515,-87.6556"/>
</g>
<!-- Node4&#45;&gt;Node7 -->
<g id="edge8" class="edge"><title>Node4&#45;&gt;Node7</title>
<path fill="none" stroke="midnightblue" d="M119.889,-114.335C117.137,-96.2039 110.945,-55.4065 107.24,-30.9997"/>
<polygon fill="midnightblue" stroke="midnightblue" points="110.652,-30.1536 105.691,-20.7921 103.731,-31.2041 110.652,-30.1536"/>
</g>
<!-- Node5&#45;&gt;Node6 -->
<g id="edge5" class="edge"><title>Node5&#45;&gt;Node6</title>
<path fill="none" stroke="midnightblue" d="M145.162,-57.4179C122.161,-48.3817 86.6612,-34.4353 60.8185,-24.2828"/>
<polygon fill="midnightblue" stroke="midnightblue" points="62.0203,-20.9946 51.433,-20.5956 59.4607,-27.5098 62.0203,-20.9946"/>
</g>
<!-- Node5&#45;&gt;Node7 -->
<g id="edge6" class="edge"><title>Node5&#45;&gt;Node7</title>
<path fill="none" stroke="midnightblue" d="M157.712,-57.4179C148.227,-49.2667 134.093,-37.1201 122.744,-27.3669"/>
<polygon fill="midnightblue" stroke="midnightblue" points="124.944,-24.6427 115.078,-20.7795 120.381,-29.9516 124.944,-24.6427"/>
</g>
<!-- Node5&#45;&gt;Node8 -->
<g id="edge7" class="edge"><title>Node5&#45;&gt;Node8</title>
<path fill="none" stroke="midnightblue" d="M191.068,-57.4179C213.912,-48.3137 249.261,-34.2253 274.78,-24.0544"/>
<polygon fill="midnightblue" stroke="midnightblue" points="276.378,-27.1857 284.371,-20.232 273.786,-20.6831 276.378,-27.1857"/>
</g>
</g>
</svg>
