<?xml version="1.0" encoding="UTF-8" standalone="no"?>
<!DOCTYPE svg PUBLIC "-//W3C//DTD SVG 1.1//EN"
 "http://www.w3.org/Graphics/SVG/1.1/DTD/svg11.dtd">
<!-- Generated by graphviz version 2.38.0 (20140413.2041)
 -->
<!-- Title: Objects/interface/Constants.h Pages: 1 -->
<svg width="525pt" height="86pt"
 viewBox="0.00 0.00 525.22 86.00" xmlns="http://www.w3.org/2000/svg" xmlns:xlink="http://www.w3.org/1999/xlink">
<g id="graph0" class="graph" transform="scale(1 1) rotate(0) translate(4 82)">
<title>Objects/interface/Constants.h</title>
<polygon fill="white" stroke="none" points="-4,4 -4,-82 521.224,-82 521.224,4 -4,4"/>
<!-- Node1 -->
<g id="node1" class="node"><title>Node1</title>
<polygon fill="#bfbfbf" stroke="black" points="189.929,-57.5 189.929,-77.5 337.075,-77.5 337.075,-57.5 189.929,-57.5"/>
<text text-anchor="middle" x="263.502" y="-64.5" font-family="Helvetica,sans-Serif" font-size="10.00">Objects/interface/Constants.h</text>
</g>
<!-- Node2 -->
<g id="node2" class="node"><title>Node2</title>
<polygon fill="white" stroke="#bfbfbf" points="2.4869e-14,-0.5 2.4869e-14,-20.5 51.003,-20.5 51.003,-0.5 2.4869e-14,-0.5"/>
<text text-anchor="middle" x="25.5015" y="-7.5" font-family="Helvetica,sans-Serif" font-size="10.00">TTree.h</text>
</g>
<!-- Node1&#45;&gt;Node2 -->
<g id="edge1" class="edge"><title>Node1&#45;&gt;Node2</title>
<path fill="none" stroke="midnightblue" d="M220.6,-57.4649C181.515,-49.1034 121.972,-36.0422 60.8944,-21.0129"/>
<polygon fill="midnightblue" stroke="midnightblue" points="61.6295,-17.5893 51.0815,-18.5843 59.9478,-24.3843 61.6295,-17.5893"/>
</g>
<!-- Node3 -->
<g id="node3" class="node"><title>Node3</title>
<polygon fill="white" stroke="#bfbfbf" points="69.221,-0.5 69.221,-20.5 125.782,-20.5 125.782,-0.5 69.221,-0.5"/>
<text text-anchor="middle" x="97.5015" y="-7.5" font-family="Helvetica,sans-Serif" font-size="10.00">TString.h</text>
</g>
<!-- Node1&#45;&gt;Node3 -->
<g id="edge2" class="edge"><title>Node1&#45;&gt;Node3</title>
<path fill="none" stroke="midnightblue" d="M236.09,-57.4179C208.253,-48.1949 164.978,-33.8567 134.197,-23.6582"/>
<polygon fill="midnightblue" stroke="midnightblue" points="135.271,-20.327 124.678,-20.5042 133.07,-26.9718 135.271,-20.327"/>
</g>
<!-- Node4 -->
<g id="node4" class="node"><title>Node4</title>
<polygon fill="white" stroke="#bfbfbf" points="143.775,-0.5 143.775,-20.5 199.229,-20.5 199.229,-0.5 143.775,-0.5"/>
<text text-anchor="middle" x="171.502" y="-7.5" font-family="Helvetica,sans-Serif" font-size="10.00">Rtypes.h</text>
</g>
<!-- Node1&#45;&gt;Node4 -->
<g id="edge3" class="edge"><title>Node1&#45;&gt;Node4</title>
<path fill="none" stroke="midnightblue" d="M248.31,-57.4179C233.927,-48.8195 212.108,-35.7754 195.395,-25.7844"/>
<polygon fill="midnightblue" stroke="midnightblue" points="197.095,-22.7228 186.716,-20.5956 193.503,-28.731 197.095,-22.7228"/>
</g>
<!-- Node5 -->
<g id="node5" class="node"><title>Node5</title>
<polygon fill="white" stroke="#bfbfbf" points="217.159,-0.5 217.159,-20.5 309.845,-20.5 309.845,-0.5 217.159,-0.5"/>
<text text-anchor="middle" x="263.502" y="-7.5" font-family="Helvetica,sans-Serif" font-size="10.00">TLorentzVector.h</text>
</g>
<!-- Node1&#45;&gt;Node5 -->
<g id="edge4" class="edge"><title>Node1&#45;&gt;Node5</title>
<path fill="none" stroke="midnightblue" d="M263.502,-57.4179C263.502,-50.2164 263.502,-39.8962 263.502,-30.8632"/>
<polygon fill="midnightblue" stroke="midnightblue" points="267.002,-30.7794 263.502,-20.7795 260.002,-30.7795 267.002,-30.7794"/>
</g>
<!-- Node6 -->
<g id="node6" class="node"><title>Node6</title>
<polygon fill="white" stroke="#bfbfbf" points="328.051,-0.5 328.051,-20.5 392.952,-20.5 392.952,-0.5 328.051,-0.5"/>
<text text-anchor="middle" x="360.502" y="-7.5" font-family="Helvetica,sans-Serif" font-size="10.00">TVector2.h</text>
</g>
<!-- Node1&#45;&gt;Node6 -->
<g id="edge5" class="edge"><title>Node1&#45;&gt;Node6</title>
<path fill="none" stroke="midnightblue" d="M279.519,-57.4179C294.683,-48.8195 317.689,-35.7754 335.309,-25.7844"/>
<polygon fill="midnightblue" stroke="midnightblue" points="337.488,-28.5727 344.46,-20.5956 334.035,-22.4834 337.488,-28.5727"/>
</g>
<!-- Node7 -->
<g id="node7" class="node"><title>Node7</title>
<polygon fill="white" stroke="#bfbfbf" points="410.889,-0.5 410.889,-20.5 454.115,-20.5 454.115,-0.5 410.889,-0.5"/>
<text text-anchor="middle" x="432.502" y="-7.5" font-family="Helvetica,sans-Serif" font-size="10.00">cmath</text>
</g>
<!-- Node1&#45;&gt;Node7 -->
<g id="edge6" class="edge"><title>Node1&#45;&gt;Node7</title>
<path fill="none" stroke="midnightblue" d="M291.408,-57.4179C321.609,-47.5892 369.66,-31.9514 401.144,-21.7051"/>
<polygon fill="midnightblue" stroke="midnightblue" points="402.314,-25.005 410.74,-18.5821 400.148,-18.3486 402.314,-25.005"/>
</g>
<!-- Node8 -->
<g id="node8" class="node"><title>Node8</title>
<polygon fill="white" stroke="#bfbfbf" points="471.779,-0.5 471.779,-20.5 517.224,-20.5 517.224,-0.5 471.779,-0.5"/>
<text text-anchor="middle" x="494.502" y="-7.5" font-family="Helvetica,sans-Serif" font-size="10.00">cstring</text>
</g>
<!-- Node1&#45;&gt;Node8 -->
<g id="edge7" class="edge"><title>Node1&#45;&gt;Node8</title>
<path fill="none" stroke="midnightblue" d="M307.426,-57.4806C345.956,-49.3512 403.683,-36.6464 461.822,-21.3273"/>
<polygon fill="midnightblue" stroke="midnightblue" points="462.768,-24.6975 471.533,-18.7449 460.969,-17.9326 462.768,-24.6975"/>
</g>
</g>
</svg>
