<?xml version="1.0" encoding="UTF-8" standalone="no"?>
<!DOCTYPE svg PUBLIC "-//W3C//DTD SVG 1.1//EN"
 "http://www.w3.org/Graphics/SVG/1.1/DTD/svg11.dtd">
<!-- Generated by graphviz version 2.38.0 (20140413.2041)
 -->
<!-- Title: Framework/src/ContainerElement.cc Pages: 1 -->
<svg width="429pt" height="371pt"
 viewBox="0.00 0.00 429.14 371.00" xmlns="http://www.w3.org/2000/svg" xmlns:xlink="http://www.w3.org/1999/xlink">
<g id="graph0" class="graph" transform="scale(1 1) rotate(0) translate(4 367)">
<title>Framework/src/ContainerElement.cc</title>
<polygon fill="white" stroke="none" points="-4,4 -4,-367 425.141,-367 425.141,4 -4,4"/>
<!-- Node1 -->
<g id="node1" class="node"><title>Node1</title>
<polygon fill="#bfbfbf" stroke="black" points="118.024,-342.5 118.024,-362.5 295.696,-362.5 295.696,-342.5 118.024,-342.5"/>
<text text-anchor="middle" x="206.86" y="-349.5" font-family="Helvetica,sans-Serif" font-size="10.00">Framework/src/ContainerElement.cc</text>
</g>
<!-- Node2 -->
<g id="node2" class="node"><title>Node2</title>
<g id="a_node2"><a xlink:href="ContainerElement_8h.html" target="_top" xlink:title="../interface/ContainerElement.h">
<polygon fill="white" stroke="black" points="180.955,-171.5 180.955,-191.5 334.765,-191.5 334.765,-171.5 180.955,-171.5"/>
<text text-anchor="middle" x="257.86" y="-178.5" font-family="Helvetica,sans-Serif" font-size="10.00">../interface/ContainerElement.h</text>
</a>
</g>
</g>
<!-- Node1&#45;&gt;Node2 -->
<g id="edge1" class="edge"><title>Node1&#45;&gt;Node2</title>
<path fill="none" stroke="midnightblue" d="M212.309,-342.387C217.473,-333.406 225.124,-319.158 229.86,-306 242.715,-270.284 250.967,-226.569 254.977,-201.89"/>
<polygon fill="midnightblue" stroke="midnightblue" points="258.483,-202.124 256.565,-191.704 251.566,-201.046 258.483,-202.124"/>
</g>
<!-- Node9 -->
<g id="node9" class="node"><title>Node9</title>
<g id="a_node9"><a xlink:href="ArrayBase_8h.html" target="_top" xlink:title="../interface/ArrayBase.h">
<polygon fill="white" stroke="black" points="100.626,-285.5 100.626,-305.5 221.095,-305.5 221.095,-285.5 100.626,-285.5"/>
<text text-anchor="middle" x="160.86" y="-292.5" font-family="Helvetica,sans-Serif" font-size="10.00">../interface/ArrayBase.h</text>
</a>
</g>
</g>
<!-- Node1&#45;&gt;Node9 -->
<g id="edge13" class="edge"><title>Node1&#45;&gt;Node9</title>
<path fill="none" stroke="midnightblue" d="M199.264,-342.418C192.712,-334.583 183.072,-323.058 175.09,-313.514"/>
<polygon fill="midnightblue" stroke="midnightblue" points="177.722,-311.205 168.621,-305.779 172.352,-315.696 177.722,-311.205"/>
</g>
<!-- Node3 -->
<g id="node3" class="node"><title>Node3</title>
<g id="a_node3"><a xlink:href="Object_8h.html" target="_top" xlink:title="Object.h">
<polygon fill="white" stroke="black" points="219.244,-114.5 219.244,-134.5 272.477,-134.5 272.477,-114.5 219.244,-114.5"/>
<text text-anchor="middle" x="245.86" y="-121.5" font-family="Helvetica,sans-Serif" font-size="10.00">Object.h</text>
</a>
</g>
</g>
<!-- Node2&#45;&gt;Node3 -->
<g id="edge2" class="edge"><title>Node2&#45;&gt;Node3</title>
<path fill="none" stroke="midnightblue" d="M255.879,-171.418C254.29,-164.137 252.006,-153.669 250.02,-144.566"/>
<polygon fill="midnightblue" stroke="midnightblue" points="253.436,-143.804 247.885,-134.779 246.597,-145.296 253.436,-143.804"/>
</g>
<!-- Node4 -->
<g id="node4" class="node"><title>Node4</title>
<g id="a_node4"><a xlink:href="IOUtils_8h.html" target="_top" xlink:title="IOUtils.h">
<polygon fill="white" stroke="black" points="163.694,-57.5 163.694,-77.5 218.026,-77.5 218.026,-57.5 163.694,-57.5"/>
<text text-anchor="middle" x="190.86" y="-64.5" font-family="Helvetica,sans-Serif" font-size="10.00">IOUtils.h</text>
</a>
</g>
</g>
<!-- Node2&#45;&gt;Node4 -->
<g id="edge8" class="edge"><title>Node2&#45;&gt;Node4</title>
<path fill="none" stroke="midnightblue" d="M245.013,-171.462C234.136,-163.165 218.911,-149.923 209.86,-135 201.016,-120.419 196.137,-101.547 193.546,-87.6348"/>
<polygon fill="midnightblue" stroke="midnightblue" points="196.992,-87.022 191.926,-77.7169 190.084,-88.1503 196.992,-87.022"/>
</g>
<!-- Node5 -->
<g id="node5" class="node"><title>Node5</title>
<polygon fill="white" stroke="#bfbfbf" points="364.58,-0.5 364.58,-20.5 421.141,-20.5 421.141,-0.5 364.58,-0.5"/>
<text text-anchor="middle" x="392.86" y="-7.5" font-family="Helvetica,sans-Serif" font-size="10.00">TString.h</text>
</g>
<!-- Node2&#45;&gt;Node5 -->
<g id="edge10" class="edge"><title>Node2&#45;&gt;Node5</title>
<path fill="none" stroke="midnightblue" d="M312.31,-171.464C334.628,-164.992 358.723,-153.918 373.86,-135 397.826,-105.047 397.749,-57.5481 395.409,-31.0343"/>
<polygon fill="midnightblue" stroke="midnightblue" points="398.853,-30.3299 394.292,-20.7671 391.894,-31.087 398.853,-30.3299"/>
</g>
<!-- Node6 -->
<g id="node6" class="node"><title>Node6</title>
<polygon fill="white" stroke="#bfbfbf" points="192.359,-0.5 192.359,-20.5 243.362,-20.5 243.362,-0.5 192.359,-0.5"/>
<text text-anchor="middle" x="217.86" y="-7.5" font-family="Helvetica,sans-Serif" font-size="10.00">TTree.h</text>
</g>
<!-- Node2&#45;&gt;Node6 -->
<g id="edge9" class="edge"><title>Node2&#45;&gt;Node6</title>
<path fill="none" stroke="midnightblue" d="M265.17,-171.16C274.236,-158.411 287.811,-134.766 281.86,-114 272.288,-80.5961 248.311,-47.5092 232.576,-28.3124"/>
<polygon fill="midnightblue" stroke="midnightblue" points="235.129,-25.9098 226.008,-20.5185 229.776,-30.4207 235.129,-25.9098"/>
</g>
<!-- Node7 -->
<g id="node7" class="node"><title>Node7</title>
<polygon fill="white" stroke="#bfbfbf" points="93.2473,-0.5 93.2473,-20.5 136.473,-20.5 136.473,-0.5 93.2473,-0.5"/>
<text text-anchor="middle" x="114.86" y="-7.5" font-family="Helvetica,sans-Serif" font-size="10.00">vector</text>
</g>
<!-- Node2&#45;&gt;Node7 -->
<g id="edge11" class="edge"><title>Node2&#45;&gt;Node7</title>
<path fill="none" stroke="midnightblue" d="M243.357,-171.458C230.366,-162.964 211.205,-149.429 196.86,-135 164.502,-102.452 137.435,-55.3219 123.989,-29.719"/>
<polygon fill="midnightblue" stroke="midnightblue" points="127.06,-28.0377 119.374,-20.7457 120.835,-31.2393 127.06,-28.0377"/>
</g>
<!-- Node8 -->
<g id="node8" class="node"><title>Node8</title>
<polygon fill="white" stroke="#bfbfbf" points="329.137,-114.5 329.137,-134.5 364.584,-134.5 364.584,-114.5 329.137,-114.5"/>
<text text-anchor="middle" x="346.86" y="-121.5" font-family="Helvetica,sans-Serif" font-size="10.00">map</text>
</g>
<!-- Node2&#45;&gt;Node8 -->
<g id="edge12" class="edge"><title>Node2&#45;&gt;Node8</title>
<path fill="none" stroke="midnightblue" d="M272.557,-171.418C286.342,-162.899 307.188,-150.017 323.295,-140.063"/>
<polygon fill="midnightblue" stroke="midnightblue" points="325.475,-142.83 332.142,-134.596 321.795,-136.875 325.475,-142.83"/>
</g>
<!-- Node3&#45;&gt;Node4 -->
<g id="edge3" class="edge"><title>Node3&#45;&gt;Node4</title>
<path fill="none" stroke="midnightblue" d="M236.778,-114.418C228.785,-106.425 216.951,-94.5903 207.298,-84.9377"/>
<polygon fill="midnightblue" stroke="midnightblue" points="209.686,-82.3757 200.14,-77.7795 204.736,-87.3254 209.686,-82.3757"/>
</g>
<!-- Node3&#45;&gt;Node6 -->
<g id="edge7" class="edge"><title>Node3&#45;&gt;Node6</title>
<path fill="none" stroke="midnightblue" d="M243.569,-114.335C239.016,-96.1219 228.744,-55.0369 222.653,-30.6694"/>
<polygon fill="midnightblue" stroke="midnightblue" points="226.004,-29.6446 220.183,-20.7921 219.213,-31.3424 226.004,-29.6446"/>
</g>
<!-- Node4&#45;&gt;Node5 -->
<g id="edge4" class="edge"><title>Node4&#45;&gt;Node5</title>
<path fill="none" stroke="midnightblue" d="M218.103,-59.0825C253.271,-49.5068 314.674,-32.7884 354.537,-21.9347"/>
<polygon fill="midnightblue" stroke="midnightblue" points="355.696,-25.2464 364.425,-19.2422 353.857,-18.4923 355.696,-25.2464"/>
</g>
<!-- Node4&#45;&gt;Node6 -->
<g id="edge5" class="edge"><title>Node4&#45;&gt;Node6</title>
<path fill="none" stroke="midnightblue" d="M195.319,-57.4179C198.971,-49.9789 204.256,-39.2123 208.791,-29.9742"/>
<polygon fill="midnightblue" stroke="midnightblue" points="212.04,-31.2985 213.305,-20.7795 205.756,-28.2138 212.04,-31.2985"/>
</g>
<!-- Node4&#45;&gt;Node7 -->
<g id="edge6" class="edge"><title>Node4&#45;&gt;Node7</title>
<path fill="none" stroke="midnightblue" d="M178.31,-57.4179C166.759,-49.0584 149.401,-36.4966 135.759,-26.6239"/>
<polygon fill="midnightblue" stroke="midnightblue" points="137.582,-23.6229 127.429,-20.5956 133.478,-29.2938 137.582,-23.6229"/>
</g>
<!-- Node10 -->
<g id="node10" class="node"><title>Node10</title>
<g id="a_node10"><a xlink:href="ContainerBase_8h.html" target="_top" xlink:title="ContainerBase.h">
<polygon fill="white" stroke="black" points="107.627,-228.5 107.627,-248.5 198.093,-248.5 198.093,-228.5 107.627,-228.5"/>
<text text-anchor="middle" x="152.86" y="-235.5" font-family="Helvetica,sans-Serif" font-size="10.00">ContainerBase.h</text>
</a>
</g>
</g>
<!-- Node9&#45;&gt;Node10 -->
<g id="edge14" class="edge"><title>Node9&#45;&gt;Node10</title>
<path fill="none" stroke="midnightblue" d="M159.539,-285.418C158.492,-278.216 156.991,-267.896 155.677,-258.863"/>
<polygon fill="midnightblue" stroke="midnightblue" points="159.113,-258.172 154.21,-248.779 152.186,-259.179 159.113,-258.172"/>
</g>
<!-- Node10&#45;&gt;Node2 -->
<g id="edge15" class="edge"><title>Node10&#45;&gt;Node2</title>
<path fill="none" stroke="midnightblue" d="M170.199,-228.418C186.842,-219.7 212.21,-206.412 231.381,-196.37"/>
<polygon fill="midnightblue" stroke="midnightblue" points="233.262,-199.336 240.496,-191.596 230.014,-193.135 233.262,-199.336"/>
</g>
<!-- Node10&#45;&gt;Node4 -->
<g id="edge16" class="edge"><title>Node10&#45;&gt;Node4</title>
<path fill="none" stroke="midnightblue" d="M154.903,-228.414C160.883,-201.821 178.439,-123.744 186.599,-87.45"/>
<polygon fill="midnightblue" stroke="midnightblue" points="190.028,-88.1553 188.807,-77.6311 183.199,-86.6197 190.028,-88.1553"/>
</g>
<!-- Node10&#45;&gt;Node5 -->
<g id="edge17" class="edge"><title>Node10&#45;&gt;Node5</title>
<path fill="none" stroke="midnightblue" d="M198.249,-234.489C238.911,-230.055 298.897,-219.093 343.86,-192 394.006,-161.785 401.874,-135.998 409.86,-78 411.133,-68.7539 411.52,-66.1846 409.86,-57 408.194,-47.7812 404.773,-37.9949 401.433,-29.8698"/>
<polygon fill="midnightblue" stroke="midnightblue" points="404.605,-28.388 397.385,-20.6342 398.194,-31.1981 404.605,-28.388"/>
</g>
<!-- Node10&#45;&gt;Node6 -->
<g id="edge18" class="edge"><title>Node10&#45;&gt;Node6</title>
<path fill="none" stroke="midnightblue" d="M110.815,-228.342C91.1603,-221.727 69.5553,-210.569 57.8603,-192 52.8862,-184.103 54.638,-179.759 57.8603,-171 82.8703,-103.013 155.073,-50.1056 193.356,-25.9064"/>
<polygon fill="midnightblue" stroke="midnightblue" points="195.2,-28.8811 201.867,-20.6469 191.521,-22.9263 195.2,-28.8811"/>
</g>
<!-- Node10&#45;&gt;Node7 -->
<g id="edge19" class="edge"><title>Node10&#45;&gt;Node7</title>
<path fill="none" stroke="midnightblue" d="M107.361,-234.206C78.5827,-229.49 43.4244,-218.301 24.8603,-192 -9.73907,-142.981 -6.57037,-108.109 24.8603,-57 37.4923,-36.4592 62.5829,-24.8505 83.0701,-18.5084"/>
<polygon fill="midnightblue" stroke="midnightblue" points="84.2956,-21.7998 92.9774,-15.7273 82.4036,-15.0603 84.2956,-21.7998"/>
</g>
<!-- Node11 -->
<g id="node11" class="node"><title>Node11</title>
<polygon fill="white" stroke="#bfbfbf" points="66.4648,-171.5 66.4648,-191.5 125.256,-191.5 125.256,-171.5 66.4648,-171.5"/>
<text text-anchor="middle" x="95.8603" y="-178.5" font-family="Helvetica,sans-Serif" font-size="10.00">functional</text>
</g>
<!-- Node10&#45;&gt;Node11 -->
<g id="edge20" class="edge"><title>Node10&#45;&gt;Node11</title>
<path fill="none" stroke="midnightblue" d="M143.448,-228.418C135.164,-220.425 122.899,-208.59 112.896,-198.938"/>
<polygon fill="midnightblue" stroke="midnightblue" points="115.104,-196.205 105.477,-191.779 110.243,-201.242 115.104,-196.205"/>
</g>
</g>
</svg>
