<?xml version="1.0" encoding="UTF-8" standalone="no"?>
<!DOCTYPE svg PUBLIC "-//W3C//DTD SVG 1.1//EN"
 "http://www.w3.org/Graphics/SVG/1.1/DTD/svg11.dtd">
<!-- Generated by graphviz version 2.38.0 (20140413.2041)
 -->
<!-- Title: Framework/interface/ContainerElement.h Pages: 1 -->
<svg width="267pt" height="212pt"
 viewBox="0.00 0.00 267.00 212.00" xmlns="http://www.w3.org/2000/svg" xmlns:xlink="http://www.w3.org/1999/xlink">
<g id="graph0" class="graph" transform="scale(1 1) rotate(0) translate(4 208)">
<title>Framework/interface/ContainerElement.h</title>
<polygon fill="white" stroke="none" points="-4,4 -4,-208 263.004,-208 263.004,4 -4,4"/>
<!-- Node1 -->
<g id="node1" class="node"><title>Node1</title>
<polygon fill="#bfbfbf" stroke="black" points="75.715,-171.5 75.715,-203.5 182.846,-203.5 182.846,-171.5 75.715,-171.5"/>
<text text-anchor="start" x="83.715" y="-190.5" font-family="Helvetica,sans-Serif" font-size="10.00">Framework/interface</text>
<text text-anchor="middle" x="129.28" y="-178.5" font-family="Helvetica,sans-Serif" font-size="10.00">/ContainerElement.h</text>
</g>
<!-- Node2 -->
<g id="node2" class="node"><title>Node2</title>
<g id="a_node2"><a xlink:href="Object_8h.html" target="_top" xlink:title="Object.h">
<polygon fill="white" stroke="black" points="75.664,-114.5 75.664,-134.5 128.897,-134.5 128.897,-114.5 75.664,-114.5"/>
<text text-anchor="middle" x="102.28" y="-121.5" font-family="Helvetica,sans-Serif" font-size="10.00">Object.h</text>
</a>
</g>
</g>
<!-- Node1&#45;&gt;Node2 -->
<g id="edge1" class="edge"><title>Node1&#45;&gt;Node2</title>
<path fill="none" stroke="midnightblue" d="M122.606,-171.421C118.925,-163.104 114.324,-152.71 110.432,-143.915"/>
<polygon fill="midnightblue" stroke="midnightblue" points="113.532,-142.274 106.284,-134.546 107.131,-145.107 113.532,-142.274"/>
</g>
<!-- Node3 -->
<g id="node3" class="node"><title>Node3</title>
<g id="a_node3"><a xlink:href="IOUtils_8h.html" target="_top" xlink:title="IOUtils.h">
<polygon fill="white" stroke="black" points="37.1145,-57.5 37.1145,-77.5 91.4465,-77.5 91.4465,-57.5 37.1145,-57.5"/>
<text text-anchor="middle" x="64.2805" y="-64.5" font-family="Helvetica,sans-Serif" font-size="10.00">IOUtils.h</text>
</a>
</g>
</g>
<!-- Node1&#45;&gt;Node3 -->
<g id="edge7" class="edge"><title>Node1&#45;&gt;Node3</title>
<path fill="none" stroke="midnightblue" d="M101.502,-171.432C88.3228,-162.677 73.8352,-150.334 66.2805,-135 59.1019,-120.43 59.2064,-101.801 60.7588,-87.9683"/>
<polygon fill="midnightblue" stroke="midnightblue" points="64.2807,-88.0751 62.2751,-77.6718 57.3554,-87.0551 64.2807,-88.0751"/>
</g>
<!-- Node4 -->
<g id="node4" class="node"><title>Node4</title>
<polygon fill="white" stroke="#bfbfbf" points="-1.06581e-14,-0.5 -1.06581e-14,-20.5 56.561,-20.5 56.561,-0.5 -1.06581e-14,-0.5"/>
<text text-anchor="middle" x="28.2805" y="-7.5" font-family="Helvetica,sans-Serif" font-size="10.00">TString.h</text>
</g>
<!-- Node1&#45;&gt;Node4 -->
<g id="edge9" class="edge"><title>Node1&#45;&gt;Node4</title>
<path fill="none" stroke="midnightblue" d="M101.855,-171.287C87.2662,-162.185 69.8065,-149.565 57.2805,-135 38.7473,-113.45 34.9076,-105.64 28.2805,-78 24.5372,-62.3875 24.8607,-44.114 25.9373,-30.6774"/>
<polygon fill="midnightblue" stroke="midnightblue" points="29.4231,-30.9941 26.9461,-20.6929 22.4585,-30.2904 29.4231,-30.9941"/>
</g>
<!-- Node5 -->
<g id="node5" class="node"><title>Node5</title>
<polygon fill="white" stroke="#bfbfbf" points="93.779,-0.5 93.779,-20.5 144.782,-20.5 144.782,-0.5 93.779,-0.5"/>
<text text-anchor="middle" x="119.28" y="-7.5" font-family="Helvetica,sans-Serif" font-size="10.00">TTree.h</text>
</g>
<!-- Node1&#45;&gt;Node5 -->
<g id="edge8" class="edge"><title>Node1&#45;&gt;Node5</title>
<path fill="none" stroke="midnightblue" d="M132.656,-171.267C134.741,-161.064 137.214,-147.298 138.28,-135 141.515,-97.7039 131.755,-54.5704 125.05,-30.4174"/>
<polygon fill="midnightblue" stroke="midnightblue" points="128.391,-29.3725 122.242,-20.7449 121.668,-31.3242 128.391,-29.3725"/>
</g>
<!-- Node6 -->
<g id="node6" class="node"><title>Node6</title>
<polygon fill="white" stroke="#bfbfbf" points="167.667,-0.5 167.667,-20.5 210.893,-20.5 210.893,-0.5 167.667,-0.5"/>
<text text-anchor="middle" x="189.28" y="-7.5" font-family="Helvetica,sans-Serif" font-size="10.00">vector</text>
</g>
<!-- Node1&#45;&gt;Node6 -->
<g id="edge10" class="edge"><title>Node1&#45;&gt;Node6</title>
<path fill="none" stroke="midnightblue" d="M137.043,-171.438C142.078,-161.306 148.556,-147.556 153.28,-135 166.921,-98.7468 178.603,-54.9303 184.719,-30.4387"/>
<polygon fill="midnightblue" stroke="midnightblue" points="188.139,-31.1883 187.124,-20.6422 181.34,-29.519 188.139,-31.1883"/>
</g>
<!-- Node7 -->
<g id="node7" class="node"><title>Node7</title>
<polygon fill="white" stroke="#bfbfbf" points="223.557,-114.5 223.557,-134.5 259.004,-134.5 259.004,-114.5 223.557,-114.5"/>
<text text-anchor="middle" x="241.28" y="-121.5" font-family="Helvetica,sans-Serif" font-size="10.00">map</text>
</g>
<!-- Node1&#45;&gt;Node7 -->
<g id="edge11" class="edge"><title>Node1&#45;&gt;Node7</title>
<path fill="none" stroke="midnightblue" d="M156.966,-171.421C174.893,-161.657 198.074,-149.032 215.592,-139.491"/>
<polygon fill="midnightblue" stroke="midnightblue" points="217.564,-142.403 224.672,-134.546 214.216,-136.255 217.564,-142.403"/>
</g>
<!-- Node2&#45;&gt;Node3 -->
<g id="edge2" class="edge"><title>Node2&#45;&gt;Node3</title>
<path fill="none" stroke="midnightblue" d="M96.0056,-114.418C90.7019,-106.742 82.95,-95.5217 76.4367,-86.0945"/>
<polygon fill="midnightblue" stroke="midnightblue" points="79.2557,-84.0173 70.6918,-77.7795 73.4966,-87.9963 79.2557,-84.0173"/>
</g>
<!-- Node2&#45;&gt;Node5 -->
<g id="edge6" class="edge"><title>Node2&#45;&gt;Node5</title>
<path fill="none" stroke="midnightblue" d="M103.672,-114.335C106.424,-96.2039 112.616,-55.4065 116.321,-30.9997"/>
<polygon fill="midnightblue" stroke="midnightblue" points="119.83,-31.2041 117.87,-20.7921 112.909,-30.1536 119.83,-31.2041"/>
</g>
<!-- Node3&#45;&gt;Node4 -->
<g id="edge3" class="edge"><title>Node3&#45;&gt;Node4</title>
<path fill="none" stroke="midnightblue" d="M58.3358,-57.4179C53.3631,-49.8207 46.1186,-38.7527 39.9881,-29.3866"/>
<polygon fill="midnightblue" stroke="midnightblue" points="42.7594,-27.2297 34.3543,-20.7795 36.9025,-31.0633 42.7594,-27.2297"/>
</g>
<!-- Node3&#45;&gt;Node5 -->
<g id="edge4" class="edge"><title>Node3&#45;&gt;Node5</title>
<path fill="none" stroke="midnightblue" d="M73.3626,-57.4179C81.3555,-49.425 93.1902,-37.5903 102.843,-27.9377"/>
<polygon fill="midnightblue" stroke="midnightblue" points="105.405,-30.3254 110.001,-20.7795 100.455,-25.3757 105.405,-30.3254"/>
</g>
<!-- Node3&#45;&gt;Node6 -->
<g id="edge5" class="edge"><title>Node3&#45;&gt;Node6</title>
<path fill="none" stroke="midnightblue" d="M84.9217,-57.4179C105.187,-48.5011 136.319,-34.803 159.309,-24.6873"/>
<polygon fill="midnightblue" stroke="midnightblue" points="160.865,-27.8267 168.609,-20.5956 158.046,-21.4195 160.865,-27.8267"/>
</g>
</g>
</svg>
