<?xml version="1.0" encoding="UTF-8" standalone="no"?>
<!DOCTYPE svg PUBLIC "-//W3C//DTD SVG 1.1//EN"
 "http://www.w3.org/Graphics/SVG/1.1/DTD/svg11.dtd">
<!-- Generated by graphviz version 2.38.0 (20140413.2041)
 -->
<!-- Title: Framework/src/ContainerBase.cc Pages: 1 -->
<svg width="452pt" height="314pt"
 viewBox="0.00 0.00 451.68 314.00" xmlns="http://www.w3.org/2000/svg" xmlns:xlink="http://www.w3.org/1999/xlink">
<g id="graph0" class="graph" transform="scale(1 1) rotate(0) translate(4 310)">
<title>Framework/src/ContainerBase.cc</title>
<polygon fill="white" stroke="none" points="-4,4 -4,-310 447.678,-310 447.678,4 -4,4"/>
<!-- Node1 -->
<g id="node1" class="node"><title>Node1</title>
<polygon fill="#bfbfbf" stroke="black" points="256.388,-285.5 256.388,-305.5 420.173,-305.5 420.173,-285.5 256.388,-285.5"/>
<text text-anchor="middle" x="338.281" y="-292.5" font-family="Helvetica,sans-Serif" font-size="10.00">Framework/src/ContainerBase.cc</text>
</g>
<!-- Node2 -->
<g id="node2" class="node"><title>Node2</title>
<g id="a_node2"><a xlink:href="ContainerBase_8h.html" target="_top" xlink:title="../interface/ContainerBase.h">
<polygon fill="white" stroke="black" points="151.319,-228.5 151.319,-248.5 291.243,-248.5 291.243,-228.5 151.319,-228.5"/>
<text text-anchor="middle" x="221.281" y="-235.5" font-family="Helvetica,sans-Serif" font-size="10.00">../interface/ContainerBase.h</text>
</a>
</g>
</g>
<!-- Node1&#45;&gt;Node2 -->
<g id="edge1" class="edge"><title>Node1&#45;&gt;Node2</title>
<path fill="none" stroke="midnightblue" d="M318.96,-285.418C300.161,-276.581 271.372,-263.047 249.912,-252.959"/>
<polygon fill="midnightblue" stroke="midnightblue" points="251.168,-249.682 240.629,-248.596 248.19,-256.017 251.168,-249.682"/>
</g>
<!-- Node11 -->
<g id="node11" class="node"><title>Node11</title>
<polygon fill="white" stroke="#bfbfbf" points="309.725,-228.5 309.725,-248.5 366.836,-248.5 366.836,-228.5 309.725,-228.5"/>
<text text-anchor="middle" x="338.281" y="-235.5" font-family="Helvetica,sans-Serif" font-size="10.00">algorithm</text>
</g>
<!-- Node1&#45;&gt;Node11 -->
<g id="edge19" class="edge"><title>Node1&#45;&gt;Node11</title>
<path fill="none" stroke="midnightblue" d="M338.281,-285.418C338.281,-278.216 338.281,-267.896 338.281,-258.863"/>
<polygon fill="midnightblue" stroke="midnightblue" points="341.781,-258.779 338.281,-248.779 334.781,-258.779 341.781,-258.779"/>
</g>
<!-- Node12 -->
<g id="node12" class="node"><title>Node12</title>
<polygon fill="white" stroke="#bfbfbf" points="384.884,-228.5 384.884,-248.5 443.678,-248.5 443.678,-228.5 384.884,-228.5"/>
<text text-anchor="middle" x="414.281" y="-235.5" font-family="Helvetica,sans-Serif" font-size="10.00">stdexcept</text>
</g>
<!-- Node1&#45;&gt;Node12 -->
<g id="edge20" class="edge"><title>Node1&#45;&gt;Node12</title>
<path fill="none" stroke="midnightblue" d="M350.83,-285.418C362.382,-277.058 379.74,-264.497 393.382,-254.624"/>
<polygon fill="midnightblue" stroke="midnightblue" points="395.663,-257.294 401.712,-248.596 391.559,-251.623 395.663,-257.294"/>
</g>
<!-- Node3 -->
<g id="node3" class="node"><title>Node3</title>
<g id="a_node3"><a xlink:href="ContainerElement_8h.html" target="_top" xlink:title="ContainerElement.h">
<polygon fill="white" stroke="black" points="123.105,-171.5 123.105,-191.5 227.457,-191.5 227.457,-171.5 123.105,-171.5"/>
<text text-anchor="middle" x="175.281" y="-178.5" font-family="Helvetica,sans-Serif" font-size="10.00">ContainerElement.h</text>
</a>
</g>
</g>
<!-- Node2&#45;&gt;Node3 -->
<g id="edge2" class="edge"><title>Node2&#45;&gt;Node3</title>
<path fill="none" stroke="midnightblue" d="M213.685,-228.418C207.132,-220.583 197.492,-209.058 189.51,-199.514"/>
<polygon fill="midnightblue" stroke="midnightblue" points="192.142,-197.205 183.041,-191.779 186.772,-201.696 192.142,-197.205"/>
</g>
<!-- Node5 -->
<g id="node5" class="node"><title>Node5</title>
<g id="a_node5"><a xlink:href="IOUtils_8h.html" target="_top" xlink:title="IOUtils.h">
<polygon fill="white" stroke="black" points="195.115,-57.5 195.115,-77.5 249.447,-77.5 249.447,-57.5 195.115,-57.5"/>
<text text-anchor="middle" x="222.281" y="-64.5" font-family="Helvetica,sans-Serif" font-size="10.00">IOUtils.h</text>
</a>
</g>
</g>
<!-- Node2&#45;&gt;Node5 -->
<g id="edge14" class="edge"><title>Node2&#45;&gt;Node5</title>
<path fill="none" stroke="midnightblue" d="M225.276,-228.306C228.971,-219.266 234.197,-204.975 236.281,-192 242.214,-155.049 233.682,-111.48 227.561,-87.2208"/>
<polygon fill="midnightblue" stroke="midnightblue" points="230.935,-86.2889 224.979,-77.5266 224.171,-88.0905 230.935,-86.2889"/>
</g>
<!-- Node6 -->
<g id="node6" class="node"><title>Node6</title>
<polygon fill="white" stroke="#bfbfbf" points="1.77636e-14,-0.5 1.77636e-14,-20.5 56.561,-20.5 56.561,-0.5 1.77636e-14,-0.5"/>
<text text-anchor="middle" x="28.2805" y="-7.5" font-family="Helvetica,sans-Serif" font-size="10.00">TString.h</text>
</g>
<!-- Node2&#45;&gt;Node6 -->
<g id="edge15" class="edge"><title>Node2&#45;&gt;Node6</title>
<path fill="none" stroke="midnightblue" d="M155.775,-228.476C127.768,-222.002 96.1083,-210.924 72.2805,-192 23.067,-152.915 23.2786,-68.7648 26.1882,-30.7897"/>
<polygon fill="midnightblue" stroke="midnightblue" points="29.6958,-30.8662 27.1261,-20.5878 22.7252,-30.2254 29.6958,-30.8662"/>
</g>
<!-- Node7 -->
<g id="node7" class="node"><title>Node7</title>
<polygon fill="white" stroke="#bfbfbf" points="115.779,-0.5 115.779,-20.5 166.782,-20.5 166.782,-0.5 115.779,-0.5"/>
<text text-anchor="middle" x="141.281" y="-7.5" font-family="Helvetica,sans-Serif" font-size="10.00">TTree.h</text>
</g>
<!-- Node2&#45;&gt;Node7 -->
<g id="edge16" class="edge"><title>Node2&#45;&gt;Node7</title>
<path fill="none" stroke="midnightblue" d="M182.494,-228.445C139.205,-215.901 71.9916,-188.467 47.2805,-135 26.9413,-90.9927 81.6235,-47.8403 115.921,-26.0787"/>
<polygon fill="midnightblue" stroke="midnightblue" points="117.87,-28.9887 124.559,-20.7719 114.206,-23.0243 117.87,-28.9887"/>
</g>
<!-- Node8 -->
<g id="node8" class="node"><title>Node8</title>
<polygon fill="white" stroke="#bfbfbf" points="284.668,-0.5 284.668,-20.5 327.894,-20.5 327.894,-0.5 284.668,-0.5"/>
<text text-anchor="middle" x="306.281" y="-7.5" font-family="Helvetica,sans-Serif" font-size="10.00">vector</text>
</g>
<!-- Node2&#45;&gt;Node8 -->
<g id="edge17" class="edge"><title>Node2&#45;&gt;Node8</title>
<path fill="none" stroke="midnightblue" d="M228.185,-228.49C234.77,-219.587 244.641,-205.394 251.281,-192 278.861,-136.359 295.754,-64.1453 302.664,-30.4145"/>
<polygon fill="midnightblue" stroke="midnightblue" points="306.112,-31.0203 304.625,-20.5302 299.245,-29.6575 306.112,-31.0203"/>
</g>
<!-- Node10 -->
<g id="node10" class="node"><title>Node10</title>
<polygon fill="white" stroke="#bfbfbf" points="371.885,-171.5 371.885,-191.5 430.676,-191.5 430.676,-171.5 371.885,-171.5"/>
<text text-anchor="middle" x="401.281" y="-178.5" font-family="Helvetica,sans-Serif" font-size="10.00">functional</text>
</g>
<!-- Node2&#45;&gt;Node10 -->
<g id="edge18" class="edge"><title>Node2&#45;&gt;Node10</title>
<path fill="none" stroke="midnightblue" d="M251.004,-228.418C281.319,-219.155 328.52,-204.732 361.923,-194.526"/>
<polygon fill="midnightblue" stroke="midnightblue" points="363.271,-197.774 371.812,-191.504 361.226,-191.079 363.271,-197.774"/>
</g>
<!-- Node4 -->
<g id="node4" class="node"><title>Node4</title>
<g id="a_node4"><a xlink:href="Object_8h.html" target="_top" xlink:title="Object.h">
<polygon fill="white" stroke="black" points="148.664,-114.5 148.664,-134.5 201.897,-134.5 201.897,-114.5 148.664,-114.5"/>
<text text-anchor="middle" x="175.281" y="-121.5" font-family="Helvetica,sans-Serif" font-size="10.00">Object.h</text>
</a>
</g>
</g>
<!-- Node3&#45;&gt;Node4 -->
<g id="edge3" class="edge"><title>Node3&#45;&gt;Node4</title>
<path fill="none" stroke="midnightblue" d="M175.281,-171.418C175.281,-164.216 175.281,-153.896 175.281,-144.863"/>
<polygon fill="midnightblue" stroke="midnightblue" points="178.781,-144.779 175.281,-134.779 171.781,-144.779 178.781,-144.779"/>
</g>
<!-- Node3&#45;&gt;Node5 -->
<g id="edge9" class="edge"><title>Node3&#45;&gt;Node5</title>
<path fill="none" stroke="midnightblue" d="M184.882,-171.342C193.25,-162.769 205.003,-149.185 211.281,-135 217.94,-119.952 220.602,-101.37 221.65,-87.6771"/>
<polygon fill="midnightblue" stroke="midnightblue" points="225.154,-87.6851 222.202,-77.5101 218.165,-87.3056 225.154,-87.6851"/>
</g>
<!-- Node3&#45;&gt;Node6 -->
<g id="edge11" class="edge"><title>Node3&#45;&gt;Node6</title>
<path fill="none" stroke="midnightblue" d="M122.824,-174.59C96.2843,-168.825 65.8422,-157.446 47.2805,-135 22.7247,-105.305 23.0978,-57.3619 25.6279,-30.7891"/>
<polygon fill="midnightblue" stroke="midnightblue" points="29.1082,-31.1601 26.7778,-20.8247 22.1544,-30.3575 29.1082,-31.1601"/>
</g>
<!-- Node3&#45;&gt;Node7 -->
<g id="edge10" class="edge"><title>Node3&#45;&gt;Node7</title>
<path fill="none" stroke="midnightblue" d="M164.774,-171.233C156.058,-162.79 144.31,-149.461 139.281,-135 127.003,-99.6963 132.372,-55.2137 137.049,-30.4182"/>
<polygon fill="midnightblue" stroke="midnightblue" points="140.499,-31.0145 139.083,-20.5147 133.642,-29.606 140.499,-31.0145"/>
</g>
<!-- Node3&#45;&gt;Node8 -->
<g id="edge12" class="edge"><title>Node3&#45;&gt;Node8</title>
<path fill="none" stroke="midnightblue" d="M188.279,-171.381C199.886,-162.835 216.916,-149.267 229.281,-135 258.659,-101.1 284.323,-54.8216 297.294,-29.6386"/>
<polygon fill="midnightblue" stroke="midnightblue" points="300.517,-31.0214 301.909,-20.5184 294.271,-27.8606 300.517,-31.0214"/>
</g>
<!-- Node9 -->
<g id="node9" class="node"><title>Node9</title>
<polygon fill="white" stroke="#bfbfbf" points="56.557,-114.5 56.557,-134.5 92.004,-134.5 92.004,-114.5 56.557,-114.5"/>
<text text-anchor="middle" x="74.2805" y="-121.5" font-family="Helvetica,sans-Serif" font-size="10.00">map</text>
</g>
<!-- Node3&#45;&gt;Node9 -->
<g id="edge13" class="edge"><title>Node3&#45;&gt;Node9</title>
<path fill="none" stroke="midnightblue" d="M158.602,-171.418C142.667,-162.74 118.415,-149.533 100.004,-139.508"/>
<polygon fill="midnightblue" stroke="midnightblue" points="101.44,-136.304 90.9834,-134.596 98.0918,-142.452 101.44,-136.304"/>
</g>
<!-- Node4&#45;&gt;Node5 -->
<g id="edge4" class="edge"><title>Node4&#45;&gt;Node5</title>
<path fill="none" stroke="midnightblue" d="M183.042,-114.418C189.737,-106.583 199.586,-95.0575 207.742,-85.5137"/>
<polygon fill="midnightblue" stroke="midnightblue" points="210.515,-87.6556 214.351,-77.7795 205.193,-83.108 210.515,-87.6556"/>
</g>
<!-- Node4&#45;&gt;Node7 -->
<g id="edge8" class="edge"><title>Node4&#45;&gt;Node7</title>
<path fill="none" stroke="midnightblue" d="M172.498,-114.335C166.969,-96.1219 154.497,-55.0369 147.1,-30.6694"/>
<polygon fill="midnightblue" stroke="midnightblue" points="150.355,-29.3442 144.101,-20.7921 143.657,-31.3776 150.355,-29.3442"/>
</g>
<!-- Node5&#45;&gt;Node6 -->
<g id="edge5" class="edge"><title>Node5&#45;&gt;Node6</title>
<path fill="none" stroke="midnightblue" d="M194.897,-58.7365C161.339,-49.2228 104.288,-33.0484 66.4422,-22.319"/>
<polygon fill="midnightblue" stroke="midnightblue" points="67.3625,-18.9421 56.787,-19.5817 65.4531,-25.6767 67.3625,-18.9421"/>
</g>
<!-- Node5&#45;&gt;Node7 -->
<g id="edge6" class="edge"><title>Node5&#45;&gt;Node7</title>
<path fill="none" stroke="midnightblue" d="M208.905,-57.4179C196.476,-48.9788 177.741,-36.257 163.14,-26.3426"/>
<polygon fill="midnightblue" stroke="midnightblue" points="164.915,-23.3176 154.676,-20.5956 160.983,-29.1088 164.915,-23.3176"/>
</g>
<!-- Node5&#45;&gt;Node8 -->
<g id="edge7" class="edge"><title>Node5&#45;&gt;Node8</title>
<path fill="none" stroke="midnightblue" d="M236.151,-57.4179C249.04,-48.9788 268.47,-36.257 283.612,-26.3426"/>
<polygon fill="midnightblue" stroke="midnightblue" points="285.94,-29.0017 292.389,-20.5956 282.106,-23.1454 285.94,-29.0017"/>
</g>
</g>
</svg>
