<?xml version="1.0" encoding="UTF-8" standalone="no"?>
<!DOCTYPE svg PUBLIC "-//W3C//DTD SVG 1.1//EN"
 "http://www.w3.org/Graphics/SVG/1.1/DTD/svg11.dtd">
<!-- Generated by graphviz version 2.38.0 (20140413.2041)
 -->
<!-- Title: obj Pages: 1 -->
<svg width="95pt" height="188pt"
 viewBox="0.00 0.00 95.00 188.00" xmlns="http://www.w3.org/2000/svg" xmlns:xlink="http://www.w3.org/1999/xlink">
<g id="graph0" class="graph" transform="scale(1 1) rotate(0) translate(4 184)">
<title>obj</title>
<polygon fill="white" stroke="none" points="-4,4 -4,-184 90.996,-184 90.996,4 -4,4"/>
<!-- dir_43724e81dd40e09f32417973865cdd64 -->
<g id="node1" class="node"><title>dir_43724e81dd40e09f32417973865cdd64</title>
<g id="a_node1"><a xlink:href="dir_43724e81dd40e09f32417973865cdd64.html" target="_top" xlink:title="obj">
<polygon fill="#eeeeff" stroke="black" points="81,-180 27,-180 27,-144 81,-144 81,-180"/>
<text text-anchor="middle" x="54" y="-159" font-family="Helvetica,sans-Serif" font-size="10.00">obj</text>
</a>
</g>
</g>
<!-- dir_5dafd4660615c7e05a84a5ee9d9fd12b -->
<g id="node2" class="node"><title>dir_5dafd4660615c7e05a84a5ee9d9fd12b</title>
<g id="a_node2"><a xlink:href="dir_5dafd4660615c7e05a84a5ee9d9fd12b.html" target="_top" xlink:title="Objects">
<polygon fill="white" stroke="red" points="54,-108 0,-108 0,-72 54,-72 54,-108"/>
<text text-anchor="middle" x="27" y="-87" font-family="Helvetica,sans-Serif" font-size="10.00">Objects</text>
</a>
</g>
</g>
<!-- dir_43724e81dd40e09f32417973865cdd64&#45;&gt;dir_5dafd4660615c7e05a84a5ee9d9fd12b -->
<g id="edge1" class="edge"><title>dir_43724e81dd40e09f32417973865cdd64&#45;&gt;dir_5dafd4660615c7e05a84a5ee9d9fd12b</title>
<path fill="none" stroke="black" d="M47.3258,-143.697C44.2851,-135.813 40.6173,-126.304 37.2393,-117.546"/>
<polygon fill="black" stroke="black" points="40.4617,-116.175 33.5974,-108.104 33.9307,-118.694 40.4617,-116.175"/>
<g id="a_edge1&#45;headlabel"><a xlink:href="dir_000005_000006.html" target="_top" xlink:title="23">
<text text-anchor="middle" x="44.4043" y="-115.507" font-family="Helvetica,sans-Serif" font-size="10.00">23</text>
</a>
</g>
</g>
<!-- dir_bcbb2cf9a3d3d83e5515c82071a07177 -->
<g id="node3" class="node"><title>dir_bcbb2cf9a3d3d83e5515c82071a07177</title>
<g id="a_node3"><a xlink:href="dir_bcbb2cf9a3d3d83e5515c82071a07177.html" target="_top" xlink:title="Framework">
<polygon fill="white" stroke="red" points="86.992,-36 21.008,-36 21.008,-0 86.992,-0 86.992,-36"/>
<text text-anchor="middle" x="54" y="-15" font-family="Helvetica,sans-Serif" font-size="10.00">Framework</text>
</a>
</g>
</g>
<!-- dir_43724e81dd40e09f32417973865cdd64&#45;&gt;dir_bcbb2cf9a3d3d83e5515c82071a07177 -->
<g id="edge2" class="edge"><title>dir_43724e81dd40e09f32417973865cdd64&#45;&gt;dir_bcbb2cf9a3d3d83e5515c82071a07177</title>
<path fill="none" stroke="black" d="M57.6538,-143.908C59.6758,-133.569 61.9808,-120.09 63,-108 64.3441,-92.0566 64.3441,-87.9434 63,-72 62.2834,-63.4991 60.9311,-54.3119 59.4884,-46.0122"/>
<polygon fill="black" stroke="black" points="62.9142,-45.2892 57.6538,-36.0925 56.0309,-46.5623 62.9142,-45.2892"/>
<g id="a_edge2&#45;headlabel"><a xlink:href="dir_000005_000000.html" target="_top" xlink:title="2">
<text text-anchor="middle" x="66.3597" y="-45.3075" font-family="Helvetica,sans-Serif" font-size="10.00">2</text>
</a>
</g>
</g>
<!-- dir_5dafd4660615c7e05a84a5ee9d9fd12b&#45;&gt;dir_bcbb2cf9a3d3d83e5515c82071a07177 -->
<g id="edge3" class="edge"><title>dir_5dafd4660615c7e05a84a5ee9d9fd12b&#45;&gt;dir_bcbb2cf9a3d3d83e5515c82071a07177</title>
<path fill="none" stroke="black" d="M33.6742,-71.6966C36.7149,-63.8132 40.3827,-54.3042 43.7607,-45.5464"/>
<polygon fill="black" stroke="black" points="47.0693,-46.6939 47.4026,-36.1043 40.5383,-44.1748 47.0693,-46.6939"/>
<g id="a_edge3&#45;headlabel"><a xlink:href="dir_000006_000000.html" target="_top" xlink:title="72">
<text text-anchor="middle" x="48.4248" y="-48.0695" font-family="Helvetica,sans-Serif" font-size="10.00">72</text>
</a>
</g>
</g>
</g>
</svg>
