<?xml version="1.0" encoding="UTF-8" standalone="no"?>
<!DOCTYPE svg PUBLIC "-//W3C//DTD SVG 1.1//EN"
 "http://www.w3.org/Graphics/SVG/1.1/DTD/svg11.dtd">
<!-- Generated by graphviz version 2.38.0 (20140413.2041)
 -->
<!-- Title: Framework/src Pages: 1 -->
<svg width="94pt" height="152pt"
 viewBox="0.00 0.00 94.00 152.00" xmlns="http://www.w3.org/2000/svg" xmlns:xlink="http://www.w3.org/1999/xlink">
<g id="graph0" class="graph" transform="scale(1 1) rotate(0) translate(4 148)">
<title>Framework/src</title>
<polygon fill="white" stroke="none" points="-4,4 -4,-148 90,-148 90,4 -4,4"/>
<g id="clust1" class="cluster"><title>clusterdir_bcbb2cf9a3d3d83e5515c82071a07177</title>
<g id="a_clust1"><a xlink:href="dir_bcbb2cf9a3d3d83e5515c82071a07177.html" target="_top" xlink:title="Framework">
<polygon fill="#ddddee" stroke="black" points="8,-64 8,-136 78,-136 78,-64 8,-64"/>
<text text-anchor="middle" x="43" y="-123" font-family="Helvetica,sans-Serif" font-size="10.00">Framework</text>
</a>
</g>
</g>
<!-- dir_789eab27568de29e5ef4e65af023cceb -->
<g id="node1" class="node"><title>dir_789eab27568de29e5ef4e65af023cceb</title>
<g id="a_node1"><a xlink:href="dir_789eab27568de29e5ef4e65af023cceb.html" target="_top" xlink:title="src">
<polygon fill="#eeeeff" stroke="black" points="70,-108 16,-108 16,-72 70,-72 70,-108"/>
<text text-anchor="middle" x="43" y="-87" font-family="Helvetica,sans-Serif" font-size="10.00">src</text>
</a>
</g>
</g>
<!-- dir_8ce3b92dc7c3ab140f8899857f44bfe9 -->
<g id="node2" class="node"><title>dir_8ce3b92dc7c3ab140f8899857f44bfe9</title>
<g id="a_node2"><a xlink:href="dir_8ce3b92dc7c3ab140f8899857f44bfe9.html" target="_top" xlink:title="interface">
<polygon fill="none" stroke="black" points="70.3431,-36 15.6569,-36 15.6569,-0 70.3431,-0 70.3431,-36"/>
<text text-anchor="middle" x="43" y="-15" font-family="Helvetica,sans-Serif" font-size="10.00">interface</text>
</a>
</g>
</g>
<!-- dir_789eab27568de29e5ef4e65af023cceb&#45;&gt;dir_8ce3b92dc7c3ab140f8899857f44bfe9 -->
<g id="edge1" class="edge"><title>dir_789eab27568de29e5ef4e65af023cceb&#45;&gt;dir_8ce3b92dc7c3ab140f8899857f44bfe9</title>
<path fill="none" stroke="black" d="M43,-71.6966C43,-63.9827 43,-54.7125 43,-46.1124"/>
<polygon fill="black" stroke="black" points="46.5001,-46.1043 43,-36.1043 39.5001,-46.1044 46.5001,-46.1043"/>
<g id="a_edge1&#45;headlabel"><a xlink:href="dir_000002_000001.html" target="_top" xlink:title="9">
<text text-anchor="middle" x="49.3393" y="-46.699" font-family="Helvetica,sans-Serif" font-size="10.00">9</text>
</a>
</g>
</g>
</g>
</svg>
