<?xml version="1.0" encoding="UTF-8" standalone="no"?>
<!DOCTYPE svg PUBLIC "-//W3C//DTD SVG 1.1//EN"
 "http://www.w3.org/Graphics/SVG/1.1/DTD/svg11.dtd">
<!-- Generated by graphviz version 2.38.0 (20140413.2041)
 -->
<!-- Title: Objects/interface Pages: 1 -->
<svg width="94pt" height="152pt"
 viewBox="0.00 0.00 94.00 152.00" xmlns="http://www.w3.org/2000/svg" xmlns:xlink="http://www.w3.org/1999/xlink">
<g id="graph0" class="graph" transform="scale(1 1) rotate(0) translate(4 148)">
<title>Objects/interface</title>
<polygon fill="white" stroke="none" points="-4,4 -4,-148 90,-148 90,4 -4,4"/>
<g id="clust1" class="cluster"><title>clusterdir_5dafd4660615c7e05a84a5ee9d9fd12b</title>
<g id="a_clust1"><a xlink:href="dir_5dafd4660615c7e05a84a5ee9d9fd12b.html" target="_top" xlink:title="Objects">
<polygon fill="#ddddee" stroke="black" points="8,-64 8,-136 78,-136 78,-64 8,-64"/>
<text text-anchor="middle" x="43" y="-123" font-family="Helvetica,sans-Serif" font-size="10.00">Objects</text>
</a>
</g>
</g>
<!-- dir_072e9eda35606d5d78d217910a237ee0 -->
<g id="node1" class="node"><title>dir_072e9eda35606d5d78d217910a237ee0</title>
<g id="a_node1"><a xlink:href="dir_072e9eda35606d5d78d217910a237ee0.html" target="_top" xlink:title="interface">
<polygon fill="#eeeeff" stroke="black" points="70.3431,-108 15.6569,-108 15.6569,-72 70.3431,-72 70.3431,-108"/>
<text text-anchor="middle" x="43" y="-87" font-family="Helvetica,sans-Serif" font-size="10.00">interface</text>
</a>
</g>
</g>
<!-- dir_bcbb2cf9a3d3d83e5515c82071a07177 -->
<g id="node2" class="node"><title>dir_bcbb2cf9a3d3d83e5515c82071a07177</title>
<g id="a_node2"><a xlink:href="dir_bcbb2cf9a3d3d83e5515c82071a07177.html" target="_top" xlink:title="Framework">
<polygon fill="white" stroke="red" points="75.992,-36 10.008,-36 10.008,-0 75.992,-0 75.992,-36"/>
<text text-anchor="middle" x="43" y="-15" font-family="Helvetica,sans-Serif" font-size="10.00">Framework</text>
</a>
</g>
</g>
<!-- dir_072e9eda35606d5d78d217910a237ee0&#45;&gt;dir_bcbb2cf9a3d3d83e5515c82071a07177 -->
<g id="edge1" class="edge"><title>dir_072e9eda35606d5d78d217910a237ee0&#45;&gt;dir_bcbb2cf9a3d3d83e5515c82071a07177</title>
<path fill="none" stroke="black" d="M43,-71.6966C43,-63.9827 43,-54.7125 43,-46.1124"/>
<polygon fill="black" stroke="black" points="46.5001,-46.1043 43,-36.1043 39.5001,-46.1044 46.5001,-46.1043"/>
<g id="a_edge1&#45;headlabel"><a xlink:href="dir_000007_000000.html" target="_top" xlink:title="72">
<text text-anchor="middle" x="49.3393" y="-46.699" font-family="Helvetica,sans-Serif" font-size="10.00">72</text>
</a>
</g>
</g>
</g>
</svg>
