<?xml version="1.0" encoding="UTF-8" standalone="no"?>
<!DOCTYPE svg PUBLIC "-//W3C//DTD SVG 1.1//EN"
 "http://www.w3.org/Graphics/SVG/1.1/DTD/svg11.dtd">
<!-- Generated by graphviz version 2.38.0 (20140413.2041)
 -->
<!-- Title: Utils Pages: 1 -->
<svg width="292pt" height="204pt"
 viewBox="0.00 0.00 292.00 204.00" xmlns="http://www.w3.org/2000/svg" xmlns:xlink="http://www.w3.org/1999/xlink">
<g id="graph0" class="graph" transform="scale(1 1) rotate(0) translate(4 200)">
<title>Utils</title>
<polygon fill="white" stroke="none" points="-4,4 -4,-200 288,-200 288,4 -4,4"/>
<g id="clust1" class="cluster"><title>clusterdir_0a824aa1f70ce3b829ef378253b085da</title>
<g id="a_clust1"><a xlink:href="dir_0a824aa1f70ce3b829ef378253b085da.html" target="_top">
<polygon fill="#eeeeff" stroke="black" points="8,-64 8,-188 222,-188 222,-64 8,-64"/>
</a>
</g>
</g>
<!-- dir_0a824aa1f70ce3b829ef378253b085da -->
<g id="node1" class="node"><title>dir_0a824aa1f70ce3b829ef378253b085da</title>
<text text-anchor="middle" x="187" y="-159" font-family="Helvetica,sans-Serif" font-size="10.00">Utils</text>
</g>
<!-- dir_a5507fa85d57c2e4ea2af1e49a0aca33 -->
<g id="node2" class="node"><title>dir_a5507fa85d57c2e4ea2af1e49a0aca33</title>
<g id="a_node2"><a xlink:href="dir_a5507fa85d57c2e4ea2af1e49a0aca33.html" target="_top" xlink:title="bin">
<polygon fill="white" stroke="black" points="70,-180 16,-180 16,-144 70,-144 70,-180"/>
<text text-anchor="middle" x="43" y="-159" font-family="Helvetica,sans-Serif" font-size="10.00">bin</text>
</a>
</g>
</g>
<!-- dir_f2c57afa3d843f8550b16b48487359bf -->
<g id="node3" class="node"><title>dir_f2c57afa3d843f8550b16b48487359bf</title>
<g id="a_node3"><a xlink:href="dir_f2c57afa3d843f8550b16b48487359bf.html" target="_top" xlink:title="interface">
<polygon fill="white" stroke="black" points="142.343,-108 87.6569,-108 87.6569,-72 142.343,-72 142.343,-108"/>
<text text-anchor="middle" x="115" y="-87" font-family="Helvetica,sans-Serif" font-size="10.00">interface</text>
</a>
</g>
</g>
<!-- dir_a5507fa85d57c2e4ea2af1e49a0aca33&#45;&gt;dir_f2c57afa3d843f8550b16b48487359bf -->
<g id="edge5" class="edge"><title>dir_a5507fa85d57c2e4ea2af1e49a0aca33&#45;&gt;dir_f2c57afa3d843f8550b16b48487359bf</title>
<path fill="none" stroke="black" d="M60.7978,-143.697C69.604,-135.135 80.3821,-124.656 90.0011,-115.304"/>
<polygon fill="black" stroke="black" points="92.6768,-117.585 97.407,-108.104 87.7972,-112.566 92.6768,-117.585"/>
<g id="a_edge5&#45;headlabel"><a xlink:href="dir_000010_000011.html" target="_top" xlink:title="1">
<text text-anchor="middle" x="92.0787" y="-119.126" font-family="Helvetica,sans-Serif" font-size="10.00">1</text>
</a>
</g>
</g>
<!-- dir_bcbb2cf9a3d3d83e5515c82071a07177 -->
<g id="node6" class="node"><title>dir_bcbb2cf9a3d3d83e5515c82071a07177</title>
<g id="a_node6"><a xlink:href="dir_bcbb2cf9a3d3d83e5515c82071a07177.html" target="_top" xlink:title="Framework">
<polygon fill="white" stroke="red" points="218.992,-36 153.008,-36 153.008,-0 218.992,-0 218.992,-36"/>
<text text-anchor="middle" x="186" y="-15" font-family="Helvetica,sans-Serif" font-size="10.00">Framework</text>
</a>
</g>
</g>
<!-- dir_f2c57afa3d843f8550b16b48487359bf&#45;&gt;dir_bcbb2cf9a3d3d83e5515c82071a07177 -->
<g id="edge1" class="edge"><title>dir_f2c57afa3d843f8550b16b48487359bf&#45;&gt;dir_bcbb2cf9a3d3d83e5515c82071a07177</title>
<path fill="none" stroke="black" d="M132.551,-71.6966C141.234,-63.135 151.863,-52.6562 161.348,-43.3045"/>
<polygon fill="black" stroke="black" points="163.988,-45.6175 168.651,-36.1043 159.073,-40.6327 163.988,-45.6175"/>
<g id="a_edge1&#45;headlabel"><a xlink:href="dir_000011_000000.html" target="_top" xlink:title="1">
<text text-anchor="middle" x="163.421" y="-47.163" font-family="Helvetica,sans-Serif" font-size="10.00">1</text>
</a>
</g>
</g>
<!-- dir_3b54c29e85cdeae2d9dc17cfeade480d -->
<g id="node4" class="node"><title>dir_3b54c29e85cdeae2d9dc17cfeade480d</title>
<g id="a_node4"><a xlink:href="dir_3b54c29e85cdeae2d9dc17cfeade480d.html" target="_top" xlink:title="src">
<polygon fill="white" stroke="black" points="142,-180 88,-180 88,-144 142,-144 142,-180"/>
<text text-anchor="middle" x="115" y="-159" font-family="Helvetica,sans-Serif" font-size="10.00">src</text>
</a>
</g>
</g>
<!-- dir_3b54c29e85cdeae2d9dc17cfeade480d&#45;&gt;dir_f2c57afa3d843f8550b16b48487359bf -->
<g id="edge3" class="edge"><title>dir_3b54c29e85cdeae2d9dc17cfeade480d&#45;&gt;dir_f2c57afa3d843f8550b16b48487359bf</title>
<path fill="none" stroke="black" d="M115,-143.697C115,-135.983 115,-126.712 115,-118.112"/>
<polygon fill="black" stroke="black" points="118.5,-118.104 115,-108.104 111.5,-118.104 118.5,-118.104"/>
<g id="a_edge3&#45;headlabel"><a xlink:href="dir_000012_000011.html" target="_top" xlink:title="1">
<text text-anchor="middle" x="121.339" y="-118.699" font-family="Helvetica,sans-Serif" font-size="10.00">1</text>
</a>
</g>
</g>
<!-- dir_5dafd4660615c7e05a84a5ee9d9fd12b -->
<g id="node5" class="node"><title>dir_5dafd4660615c7e05a84a5ee9d9fd12b</title>
<g id="a_node5"><a xlink:href="dir_5dafd4660615c7e05a84a5ee9d9fd12b.html" target="_top" xlink:title="Objects">
<polygon fill="white" stroke="red" points="284,-108 230,-108 230,-72 284,-72 284,-108"/>
<text text-anchor="middle" x="257" y="-87" font-family="Helvetica,sans-Serif" font-size="10.00">Objects</text>
</a>
</g>
</g>
<!-- dir_3b54c29e85cdeae2d9dc17cfeade480d&#45;&gt;dir_5dafd4660615c7e05a84a5ee9d9fd12b -->
<g id="edge4" class="edge"><title>dir_3b54c29e85cdeae2d9dc17cfeade480d&#45;&gt;dir_5dafd4660615c7e05a84a5ee9d9fd12b</title>
<path fill="none" stroke="black" d="M142.232,-148.095C167.129,-136.284 202.453,-119.492 220.822,-110.494"/>
<polygon fill="black" stroke="black" points="222.606,-113.516 229.997,-105.925 219.485,-107.25 222.606,-113.516"/>
<g id="a_edge4&#45;headlabel"><a xlink:href="dir_000012_000006.html" target="_top" xlink:title="2">
<text text-anchor="middle" x="220.654" y="-114.66" font-family="Helvetica,sans-Serif" font-size="10.00">2</text>
</a>
</g>
</g>
<!-- dir_5dafd4660615c7e05a84a5ee9d9fd12b&#45;&gt;dir_bcbb2cf9a3d3d83e5515c82071a07177 -->
<g id="edge2" class="edge"><title>dir_5dafd4660615c7e05a84a5ee9d9fd12b&#45;&gt;dir_bcbb2cf9a3d3d83e5515c82071a07177</title>
<path fill="none" stroke="black" d="M239.449,-71.6966C230.766,-63.135 220.137,-52.6562 210.652,-43.3045"/>
<polygon fill="black" stroke="black" points="212.927,-40.6327 203.349,-36.1043 208.012,-45.6175 212.927,-40.6327"/>
<g id="a_edge2&#45;headlabel"><a xlink:href="dir_000006_000000.html" target="_top" xlink:title="72">
<text text-anchor="middle" x="217.48" y="-38.1345" font-family="Helvetica,sans-Serif" font-size="10.00">72</text>
</a>
</g>
</g>
</g>
</svg>
