<?xml version="1.0" encoding="UTF-8" standalone="no"?>
<!DOCTYPE svg PUBLIC "-//W3C//DTD SVG 1.1//EN"
 "http://www.w3.org/Graphics/SVG/1.1/DTD/svg11.dtd">
<!-- Generated by graphviz version 2.38.0 (20140413.2041)
 -->
<!-- Title: Utils/src Pages: 1 -->
<svg width="134pt" height="152pt"
 viewBox="0.00 0.00 134.17 152.00" xmlns="http://www.w3.org/2000/svg" xmlns:xlink="http://www.w3.org/1999/xlink">
<g id="graph0" class="graph" transform="scale(1 1) rotate(0) translate(4 148)">
<title>Utils/src</title>
<polygon fill="white" stroke="none" points="-4,4 -4,-148 130.171,-148 130.171,4 -4,4"/>
<g id="clust1" class="cluster"><title>clusterdir_0a824aa1f70ce3b829ef378253b085da</title>
<g id="a_clust1"><a xlink:href="dir_0a824aa1f70ce3b829ef378253b085da.html" target="_top" xlink:title="Utils">
<polygon fill="#ddddee" stroke="black" points="28.171,-64 28.171,-136 98.171,-136 98.171,-64 28.171,-64"/>
<text text-anchor="middle" x="63.171" y="-123" font-family="Helvetica,sans-Serif" font-size="10.00">Utils</text>
</a>
</g>
</g>
<!-- dir_3b54c29e85cdeae2d9dc17cfeade480d -->
<g id="node1" class="node"><title>dir_3b54c29e85cdeae2d9dc17cfeade480d</title>
<g id="a_node1"><a xlink:href="dir_3b54c29e85cdeae2d9dc17cfeade480d.html" target="_top" xlink:title="src">
<polygon fill="#eeeeff" stroke="black" points="90.171,-108 36.171,-108 36.171,-72 90.171,-72 90.171,-108"/>
<text text-anchor="middle" x="63.171" y="-87" font-family="Helvetica,sans-Serif" font-size="10.00">src</text>
</a>
</g>
</g>
<!-- dir_f2c57afa3d843f8550b16b48487359bf -->
<g id="node2" class="node"><title>dir_f2c57afa3d843f8550b16b48487359bf</title>
<g id="a_node2"><a xlink:href="dir_f2c57afa3d843f8550b16b48487359bf.html" target="_top" xlink:title="interface">
<polygon fill="none" stroke="black" points="54.5141,-36 -0.172083,-36 -0.172083,-0 54.5141,-0 54.5141,-36"/>
<text text-anchor="middle" x="27.171" y="-15" font-family="Helvetica,sans-Serif" font-size="10.00">interface</text>
</a>
</g>
</g>
<!-- dir_3b54c29e85cdeae2d9dc17cfeade480d&#45;&gt;dir_f2c57afa3d843f8550b16b48487359bf -->
<g id="edge1" class="edge"><title>dir_3b54c29e85cdeae2d9dc17cfeade480d&#45;&gt;dir_f2c57afa3d843f8550b16b48487359bf</title>
<path fill="none" stroke="black" d="M54.2721,-71.6966C50.1742,-63.7284 45.2222,-54.0995 40.6783,-45.2641"/>
<polygon fill="black" stroke="black" points="43.6536,-43.3965 35.9675,-36.1043 37.4285,-46.598 43.6536,-43.3965"/>
<g id="a_edge1&#45;headlabel"><a xlink:href="dir_000012_000011.html" target="_top" xlink:title="1">
<text text-anchor="middle" x="47.8224" y="-42.2946" font-family="Helvetica,sans-Serif" font-size="10.00">1</text>
</a>
</g>
</g>
<!-- dir_5dafd4660615c7e05a84a5ee9d9fd12b -->
<g id="node3" class="node"><title>dir_5dafd4660615c7e05a84a5ee9d9fd12b</title>
<g id="a_node3"><a xlink:href="dir_5dafd4660615c7e05a84a5ee9d9fd12b.html" target="_top" xlink:title="Objects">
<polygon fill="white" stroke="red" points="126.171,-36 72.171,-36 72.171,-0 126.171,-0 126.171,-36"/>
<text text-anchor="middle" x="99.171" y="-15" font-family="Helvetica,sans-Serif" font-size="10.00">Objects</text>
</a>
</g>
</g>
<!-- dir_3b54c29e85cdeae2d9dc17cfeade480d&#45;&gt;dir_5dafd4660615c7e05a84a5ee9d9fd12b -->
<g id="edge2" class="edge"><title>dir_3b54c29e85cdeae2d9dc17cfeade480d&#45;&gt;dir_5dafd4660615c7e05a84a5ee9d9fd12b</title>
<path fill="none" stroke="black" d="M72.0699,-71.6966C76.1678,-63.7284 81.1198,-54.0995 85.6637,-45.2641"/>
<polygon fill="black" stroke="black" points="88.9135,-46.598 90.3745,-36.1043 82.6884,-43.3965 88.9135,-46.598"/>
<g id="a_edge2&#45;headlabel"><a xlink:href="dir_000012_000006.html" target="_top" xlink:title="2">
<text text-anchor="middle" x="89.7945" y="-48.0931" font-family="Helvetica,sans-Serif" font-size="10.00">2</text>
</a>
</g>
</g>
</g>
</svg>
