<?xml version="1.0" encoding="UTF-8" standalone="no"?>
<!DOCTYPE svg PUBLIC "-//W3C//DTD SVG 1.1//EN"
 "http://www.w3.org/Graphics/SVG/1.1/DTD/svg11.dtd">
<!-- Generated by graphviz version 2.38.0 (20140413.2041)
 -->
<!-- Title: Objects/interface/Event.h Pages: 1 -->
<svg width="2785pt" height="749pt"
 viewBox="0.00 0.00 2785.00 749.00" xmlns="http://www.w3.org/2000/svg" xmlns:xlink="http://www.w3.org/1999/xlink">
<g id="graph0" class="graph" transform="scale(1 1) rotate(0) translate(4 745)">
<title>Objects/interface/Event.h</title>
<polygon fill="white" stroke="none" points="-4,4 -4,-745 2781,-745 2781,4 -4,4"/>
<!-- Node1 -->
<g id="node1" class="node"><title>Node1</title>
<polygon fill="#bfbfbf" stroke="black" points="1298.15,-720.5 1298.15,-740.5 1425.85,-740.5 1425.85,-720.5 1298.15,-720.5"/>
<text text-anchor="middle" x="1362" y="-727.5" font-family="Helvetica,sans-Serif" font-size="10.00">Objects/interface/Event.h</text>
</g>
<!-- Node2 -->
<g id="node2" class="node"><title>Node2</title>
<g id="a_node2"><a xlink:href="TreeEntry_8h.html" target="_top" xlink:title="../../Framework/interface\l/TreeEntry.h">
<polygon fill="white" stroke="black" points="948.106,-171.5 948.106,-203.5 1071.89,-203.5 1071.89,-171.5 948.106,-171.5"/>
<text text-anchor="start" x="956.106" y="-190.5" font-family="Helvetica,sans-Serif" font-size="10.00">../../Framework/interface</text>
<text text-anchor="middle" x="1010" y="-178.5" font-family="Helvetica,sans-Serif" font-size="10.00">/TreeEntry.h</text>
</a>
</g>
</g>
<!-- Node1&#45;&gt;Node2 -->
<g id="edge1" class="edge"><title>Node1&#45;&gt;Node2</title>
<path fill="none" stroke="midnightblue" d="M1297.88,-728.773C1046.56,-725.725 139.86,-712.771 86,-684 53.849,-666.826 38,-653.951 38,-617.5 38,-617.5 38,-617.5 38,-312.5 38,-221.765 713.08,-196.143 938.04,-190.123"/>
<polygon fill="midnightblue" stroke="midnightblue" points="938.185,-193.621 948.09,-189.86 938.001,-186.623 938.185,-193.621"/>
</g>
<!-- Node8 -->
<g id="node8" class="node"><title>Node8</title>
<g id="a_node8"><a xlink:href="Constants_8h.html" target="_top" xlink:title="Constants.h">
<polygon fill="white" stroke="black" points="440.325,-372.5 440.325,-392.5 509.675,-392.5 509.675,-372.5 440.325,-372.5"/>
<text text-anchor="middle" x="475" y="-379.5" font-family="Helvetica,sans-Serif" font-size="10.00">Constants.h</text>
</a>
</g>
</g>
<!-- Node1&#45;&gt;Node8 -->
<g id="edge11" class="edge"><title>Node1&#45;&gt;Node8</title>
<path fill="none" stroke="midnightblue" d="M1297.97,-728.344C1104.23,-724.579 526.16,-711.303 340,-684 220.282,-666.442 76,-738.499 76,-617.5 76,-617.5 76,-617.5 76,-501.5 76,-466.061 90.0715,-453.98 120,-435 170.688,-402.855 346.307,-389.92 429.987,-385.491"/>
<polygon fill="midnightblue" stroke="midnightblue" points="430.394,-388.975 440.202,-384.968 430.036,-381.984 430.394,-388.975"/>
</g>
<!-- Node14 -->
<g id="node14" class="node"><title>Node14</title>
<g id="a_node14"><a xlink:href="GenReweight_8h.html" target="_top" xlink:title="GenReweight.h">
<polygon fill="white" stroke="black" points="784.547,-435.5 784.547,-455.5 869.453,-455.5 869.453,-435.5 784.547,-435.5"/>
<text text-anchor="middle" x="827" y="-442.5" font-family="Helvetica,sans-Serif" font-size="10.00">GenReweight.h</text>
</a>
</g>
</g>
<!-- Node1&#45;&gt;Node14 -->
<g id="edge19" class="edge"><title>Node1&#45;&gt;Node14</title>
<path fill="none" stroke="midnightblue" d="M1298.12,-728.475C1136.94,-725.458 716.941,-714.796 581,-684 504.692,-666.713 418,-695.741 418,-617.5 418,-617.5 418,-617.5 418,-558.5 418,-511.922 456.255,-510.505 499,-492 609.531,-444.15 650.607,-473.477 774.234,-455.981"/>
<polygon fill="midnightblue" stroke="midnightblue" points="775.089,-459.392 784.463,-454.454 774.056,-452.469 775.089,-459.392"/>
</g>
<!-- Node31 -->
<g id="node31" class="node"><title>Node31</title>
<g id="a_node31"><a xlink:href="PFCand_8h.html" target="_top" xlink:title="PFCand.h">
<polygon fill="white" stroke="black" points="1542.49,-549.5 1542.49,-569.5 1603.51,-569.5 1603.51,-549.5 1542.49,-549.5"/>
<text text-anchor="middle" x="1573" y="-556.5" font-family="Helvetica,sans-Serif" font-size="10.00">PFCand.h</text>
</a>
</g>
</g>
<!-- Node1&#45;&gt;Node31 -->
<g id="edge58" class="edge"><title>Node1&#45;&gt;Node31</title>
<path fill="none" stroke="midnightblue" d="M1408.73,-720.478C1434.66,-713.713 1466.34,-702.371 1490,-684 1526.74,-655.464 1552.87,-605.958 1565.13,-579.108"/>
<polygon fill="midnightblue" stroke="midnightblue" points="1568.44,-580.278 1569.27,-569.716 1562.03,-577.453 1568.44,-580.278"/>
</g>
<!-- Node34 -->
<g id="node34" class="node"><title>Node34</title>
<g id="a_node34"><a xlink:href="SuperCluster_8h.html" target="_top" xlink:title="SuperCluster.h">
<polygon fill="white" stroke="black" points="1022.66,-435.5 1022.66,-455.5 1105.34,-455.5 1105.34,-435.5 1022.66,-435.5"/>
<text text-anchor="middle" x="1064" y="-442.5" font-family="Helvetica,sans-Serif" font-size="10.00">SuperCluster.h</text>
</a>
</g>
</g>
<!-- Node1&#45;&gt;Node34 -->
<g id="edge74" class="edge"><title>Node1&#45;&gt;Node34</title>
<path fill="none" stroke="midnightblue" d="M1343.97,-720.378C1302.5,-698.739 1198.72,-640.776 1131,-570 1108.69,-546.68 1101.3,-541.419 1086,-513 1077.81,-497.792 1071.94,-478.99 1068.33,-465.262"/>
<polygon fill="midnightblue" stroke="midnightblue" points="1071.72,-464.377 1065.92,-455.507 1064.92,-466.054 1071.72,-464.377"/>
</g>
<!-- Node35 -->
<g id="node35" class="node"><title>Node35</title>
<g id="a_node35"><a xlink:href="Electron_8h.html" target="_top" xlink:title="Electron.h">
<polygon fill="white" stroke="black" points="1832.49,-663.5 1832.49,-683.5 1893.51,-683.5 1893.51,-663.5 1832.49,-663.5"/>
<text text-anchor="middle" x="1863" y="-670.5" font-family="Helvetica,sans-Serif" font-size="10.00">Electron.h</text>
</a>
</g>
</g>
<!-- Node1&#45;&gt;Node35 -->
<g id="edge80" class="edge"><title>Node1&#45;&gt;Node35</title>
<path fill="none" stroke="midnightblue" d="M1426.09,-725.31C1514.59,-719.023 1679.04,-705.536 1818,-684 1819.29,-683.801 1820.59,-683.588 1821.91,-683.365"/>
<polygon fill="midnightblue" stroke="midnightblue" points="1822.9,-686.742 1832.1,-681.485 1821.63,-679.858 1822.9,-686.742"/>
</g>
<!-- Node37 -->
<g id="node37" class="node"><title>Node37</title>
<g id="a_node37"><a xlink:href="GenParticle_8h.html" target="_top" xlink:title="GenParticle.h">
<polygon fill="white" stroke="black" points="1776.72,-549.5 1776.72,-569.5 1853.28,-569.5 1853.28,-549.5 1776.72,-549.5"/>
<text text-anchor="middle" x="1815" y="-556.5" font-family="Helvetica,sans-Serif" font-size="10.00">GenParticle.h</text>
</a>
</g>
</g>
<!-- Node1&#45;&gt;Node37 -->
<g id="edge146" class="edge"><title>Node1&#45;&gt;Node37</title>
<path fill="none" stroke="midnightblue" d="M1426.16,-726.793C1517.33,-722.073 1679.07,-710.219 1731,-684 1773.49,-662.549 1798.23,-608.369 1808.83,-579.421"/>
<polygon fill="midnightblue" stroke="midnightblue" points="1812.24,-580.278 1812.21,-569.683 1805.63,-577.983 1812.24,-580.278"/>
</g>
<!-- Node38 -->
<g id="node38" class="node"><title>Node38</title>
<g id="a_node38"><a xlink:href="Muon_8h.html" target="_top" xlink:title="Muon.h">
<polygon fill="white" stroke="black" points="1672.33,-663.5 1672.33,-683.5 1721.67,-683.5 1721.67,-663.5 1672.33,-663.5"/>
<text text-anchor="middle" x="1697" y="-670.5" font-family="Helvetica,sans-Serif" font-size="10.00">Muon.h</text>
</a>
</g>
</g>
<!-- Node1&#45;&gt;Node38 -->
<g id="edge98" class="edge"><title>Node1&#45;&gt;Node38</title>
<path fill="none" stroke="midnightblue" d="M1416.94,-720.479C1486.32,-709.09 1603.64,-689.828 1661.94,-680.256"/>
<polygon fill="midnightblue" stroke="midnightblue" points="1662.81,-683.66 1672.11,-678.586 1661.68,-676.752 1662.81,-683.66"/>
</g>
<!-- Node39 -->
<g id="node39" class="node"><title>Node39</title>
<g id="a_node39"><a xlink:href="Tau_8h.html" target="_top" xlink:title="Tau.h">
<polygon fill="white" stroke="black" points="2262.22,-606.5 2262.22,-626.5 2303.78,-626.5 2303.78,-606.5 2262.22,-606.5"/>
<text text-anchor="middle" x="2283" y="-613.5" font-family="Helvetica,sans-Serif" font-size="10.00">Tau.h</text>
</a>
</g>
</g>
<!-- Node1&#45;&gt;Node39 -->
<g id="edge104" class="edge"><title>Node1&#45;&gt;Node39</title>
<path fill="none" stroke="midnightblue" d="M1425.91,-725.98C1527.32,-719.976 1731.24,-706.207 1903,-684 2033.56,-667.12 2187.65,-636.958 2252.17,-623.861"/>
<polygon fill="midnightblue" stroke="midnightblue" points="2252.99,-627.265 2262.09,-621.837 2251.59,-620.406 2252.99,-627.265"/>
</g>
<!-- Node40 -->
<g id="node40" class="node"><title>Node40</title>
<g id="a_node40"><a xlink:href="Photon_8h.html" target="_top" xlink:title="Photon.h">
<polygon fill="white" stroke="black" points="1257.99,-606.5 1257.99,-626.5 1314.01,-626.5 1314.01,-606.5 1257.99,-606.5"/>
<text text-anchor="middle" x="1286" y="-613.5" font-family="Helvetica,sans-Serif" font-size="10.00">Photon.h</text>
</a>
</g>
</g>
<!-- Node1&#45;&gt;Node40 -->
<g id="edge111" class="edge"><title>Node1&#45;&gt;Node40</title>
<path fill="none" stroke="midnightblue" d="M1355.03,-720.193C1348.24,-711.07 1337.72,-696.719 1329,-684 1317.87,-667.755 1305.73,-648.871 1297.2,-635.386"/>
<polygon fill="midnightblue" stroke="midnightblue" points="1299.98,-633.233 1291.69,-626.636 1294.06,-636.963 1299.98,-633.233"/>
</g>
<!-- Node41 -->
<g id="node41" class="node"><title>Node41</title>
<g id="a_node41"><a xlink:href="Jet_8h.html" target="_top" xlink:title="Jet.h">
<polygon fill="white" stroke="black" points="1470.16,-606.5 1470.16,-626.5 1507.84,-626.5 1507.84,-606.5 1470.16,-606.5"/>
<text text-anchor="middle" x="1489" y="-613.5" font-family="Helvetica,sans-Serif" font-size="10.00">Jet.h</text>
</a>
</g>
</g>
<!-- Node1&#45;&gt;Node41 -->
<g id="edge119" class="edge"><title>Node1&#45;&gt;Node41</title>
<path fill="none" stroke="midnightblue" d="M1406.26,-720.421C1428.24,-713.781 1453.54,-702.576 1470,-684 1481.44,-671.095 1486.02,-651.742 1487.84,-637.236"/>
<polygon fill="midnightblue" stroke="midnightblue" points="1491.37,-637.134 1488.79,-626.858 1484.4,-636.499 1491.37,-637.134"/>
</g>
<!-- Node42 -->
<g id="node42" class="node"><title>Node42</title>
<g id="a_node42"><a xlink:href="MicroJet_8h.html" target="_top" xlink:title="MicroJet.h">
<polygon fill="white" stroke="black" points="1312.94,-549.5 1312.94,-569.5 1375.06,-569.5 1375.06,-549.5 1312.94,-549.5"/>
<text text-anchor="middle" x="1344" y="-556.5" font-family="Helvetica,sans-Serif" font-size="10.00">MicroJet.h</text>
</a>
</g>
</g>
<!-- Node1&#45;&gt;Node42 -->
<g id="edge144" class="edge"><title>Node1&#45;&gt;Node42</title>
<path fill="none" stroke="midnightblue" d="M1361.03,-720.414C1358.21,-693.936 1349.96,-616.416 1346.07,-579.922"/>
<polygon fill="midnightblue" stroke="midnightblue" points="1349.51,-579.204 1344.97,-569.631 1342.55,-579.946 1349.51,-579.204"/>
</g>
<!-- Node43 -->
<g id="node43" class="node"><title>Node43</title>
<g id="a_node43"><a xlink:href="GenJet_8h.html" target="_top" xlink:title="GenJet.h">
<polygon fill="white" stroke="black" points="1621.71,-549.5 1621.71,-569.5 1678.29,-569.5 1678.29,-549.5 1621.71,-549.5"/>
<text text-anchor="middle" x="1650" y="-556.5" font-family="Helvetica,sans-Serif" font-size="10.00">GenJet.h</text>
</a>
</g>
</g>
<!-- Node1&#45;&gt;Node43 -->
<g id="edge145" class="edge"><title>Node1&#45;&gt;Node43</title>
<path fill="none" stroke="midnightblue" d="M1412.51,-720.497C1443.48,-713.551 1483.16,-702.017 1515,-684 1565.89,-655.2 1613.39,-603.963 1636.07,-577.447"/>
<polygon fill="midnightblue" stroke="midnightblue" points="1638.77,-579.671 1642.53,-569.766 1633.42,-575.164 1638.77,-579.671"/>
</g>
<!-- Node44 -->
<g id="node44" class="node"><title>Node44</title>
<g id="a_node44"><a xlink:href="FatJet_8h.html" target="_top" xlink:title="FatJet.h">
<polygon fill="white" stroke="black" points="1408.94,-663.5 1408.94,-683.5 1461.06,-683.5 1461.06,-663.5 1408.94,-663.5"/>
<text text-anchor="middle" x="1435" y="-670.5" font-family="Helvetica,sans-Serif" font-size="10.00">FatJet.h</text>
</a>
</g>
</g>
<!-- Node1&#45;&gt;Node44 -->
<g id="edge137" class="edge"><title>Node1&#45;&gt;Node44</title>
<path fill="none" stroke="midnightblue" d="M1374.05,-720.418C1385.08,-712.108 1401.62,-699.647 1414.69,-689.802"/>
<polygon fill="midnightblue" stroke="midnightblue" points="1416.8,-692.592 1422.68,-683.779 1412.59,-687.002 1416.8,-692.592"/>
</g>
<!-- Node45 -->
<g id="node45" class="node"><title>Node45</title>
<g id="a_node45"><a xlink:href="Parton_8h.html" target="_top" xlink:title="Parton.h">
<polygon fill="white" stroke="black" points="1432.1,-549.5 1432.1,-569.5 1485.9,-569.5 1485.9,-549.5 1432.1,-549.5"/>
<text text-anchor="middle" x="1459" y="-556.5" font-family="Helvetica,sans-Serif" font-size="10.00">Parton.h</text>
</a>
</g>
</g>
<!-- Node1&#45;&gt;Node45 -->
<g id="edge147" class="edge"><title>Node1&#45;&gt;Node45</title>
<path fill="none" stroke="midnightblue" d="M1367.15,-720.46C1374.45,-707.662 1388.22,-683.532 1400,-663 1417.03,-633.305 1436.9,-598.815 1448.69,-578.37"/>
<polygon fill="midnightblue" stroke="midnightblue" points="1451.82,-579.955 1453.78,-569.544 1445.75,-576.458 1451.82,-579.955"/>
</g>
<!-- Node46 -->
<g id="node46" class="node"><title>Node46</title>
<g id="a_node46"><a xlink:href="RecoMet_8h.html" target="_top" xlink:title="RecoMet.h">
<polygon fill="white" stroke="black" points="754.829,-492.5 754.829,-512.5 819.171,-512.5 819.171,-492.5 754.829,-492.5"/>
<text text-anchor="middle" x="787" y="-499.5" font-family="Helvetica,sans-Serif" font-size="10.00">RecoMet.h</text>
</a>
</g>
</g>
<!-- Node1&#45;&gt;Node46 -->
<g id="edge153" class="edge"><title>Node1&#45;&gt;Node46</title>
<path fill="none" stroke="midnightblue" d="M1298.14,-728.647C1160.54,-726.186 845.662,-716.977 811,-684 766.582,-641.741 775.69,-559.919 782.716,-522.731"/>
<polygon fill="midnightblue" stroke="midnightblue" points="786.19,-523.215 784.768,-512.716 779.332,-521.81 786.19,-523.215"/>
</g>
<!-- Node47 -->
<g id="node47" class="node"><title>Node47</title>
<g id="a_node47"><a xlink:href="Met_8h.html" target="_top" xlink:title="Met.h">
<polygon fill="white" stroke="black" points="887.497,-435.5 887.497,-455.5 928.503,-455.5 928.503,-435.5 887.497,-435.5"/>
<text text-anchor="middle" x="908" y="-442.5" font-family="Helvetica,sans-Serif" font-size="10.00">Met.h</text>
</a>
</g>
</g>
<!-- Node1&#45;&gt;Node47 -->
<g id="edge164" class="edge"><title>Node1&#45;&gt;Node47</title>
<path fill="none" stroke="midnightblue" d="M1297.82,-727.96C1097.01,-722.299 494,-698.552 494,-617.5 494,-617.5 494,-617.5 494,-558.5 494,-385.049 700.744,-501.086 877.648,-455.831"/>
<polygon fill="midnightblue" stroke="midnightblue" points="878.66,-459.182 887.381,-453.166 876.812,-452.431 878.66,-459.182"/>
</g>
<!-- Node48 -->
<g id="node48" class="node"><title>Node48</title>
<g id="a_node48"><a xlink:href="MetFilters_8h.html" target="_top" xlink:title="MetFilters.h">
<polygon fill="white" stroke="black" points="1692.89,-435.5 1692.89,-455.5 1761.11,-455.5 1761.11,-435.5 1692.89,-435.5"/>
<text text-anchor="middle" x="1727" y="-442.5" font-family="Helvetica,sans-Serif" font-size="10.00">MetFilters.h</text>
</a>
</g>
</g>
<!-- Node1&#45;&gt;Node48 -->
<g id="edge165" class="edge"><title>Node1&#45;&gt;Node48</title>
<path fill="none" stroke="midnightblue" d="M1426.02,-728.436C1648.9,-724.071 2380.95,-703.939 2449,-627 2471.97,-601.033 2471.41,-575.451 2449,-549 2404.85,-496.879 1921.99,-459.789 1771.51,-449.43"/>
<polygon fill="midnightblue" stroke="midnightblue" points="1771.48,-445.92 1761.26,-448.731 1771,-452.904 1771.48,-445.92"/>
</g>
<!-- Node49 -->
<g id="node49" class="node"><title>Node49</title>
<g id="a_node49"><a xlink:href="HLTBits_8h.html" target="_top" xlink:title="HLTBits.h">
<polygon fill="white" stroke="black" points="636.054,-435.5 636.054,-455.5 695.946,-455.5 695.946,-435.5 636.054,-435.5"/>
<text text-anchor="middle" x="666" y="-442.5" font-family="Helvetica,sans-Serif" font-size="10.00">HLTBits.h</text>
</a>
</g>
</g>
<!-- Node1&#45;&gt;Node49 -->
<g id="edge171" class="edge"><title>Node1&#45;&gt;Node49</title>
<path fill="none" stroke="midnightblue" d="M1298.11,-728.34C1084.46,-724.232 406.143,-709.251 367,-684 295.284,-637.736 296.982,-536.181 370,-492 412.205,-466.462 554.477,-453.784 625.278,-448.933"/>
<polygon fill="midnightblue" stroke="midnightblue" points="625.848,-452.403 635.594,-448.247 625.384,-445.419 625.848,-452.403"/>
</g>
<!-- Node50 -->
<g id="node50" class="node"><title>Node50</title>
<g id="a_node50"><a xlink:href="Recoil_8h.html" target="_top" xlink:title="Recoil.h">
<polygon fill="white" stroke="black" points="713.943,-435.5 713.943,-455.5 766.057,-455.5 766.057,-435.5 713.943,-435.5"/>
<text text-anchor="middle" x="740" y="-442.5" font-family="Helvetica,sans-Serif" font-size="10.00">Recoil.h</text>
</a>
</g>
</g>
<!-- Node1&#45;&gt;Node50 -->
<g id="edge177" class="edge"><title>Node1&#45;&gt;Node50</title>
<path fill="none" stroke="midnightblue" d="M1298.15,-728.449C1101.89,-724.927 515.893,-712.151 435,-684 387.01,-667.299 342,-668.313 342,-617.5 342,-617.5 342,-617.5 342,-558.5 342,-504.755 392.689,-510.903 443,-492 550.02,-451.79 587.756,-477.921 703.743,-455.99"/>
<polygon fill="midnightblue" stroke="midnightblue" points="704.579,-459.392 713.713,-454.024 703.225,-452.525 704.579,-459.392"/>
</g>
<!-- Node3 -->
<g id="node3" class="node"><title>Node3</title>
<g id="a_node3"><a xlink:href="IOUtils_8h.html" target="_top" xlink:title="IOUtils.h">
<polygon fill="white" stroke="black" points="1099.83,-57.5 1099.83,-77.5 1154.17,-77.5 1154.17,-57.5 1099.83,-57.5"/>
<text text-anchor="middle" x="1127" y="-64.5" font-family="Helvetica,sans-Serif" font-size="10.00">IOUtils.h</text>
</a>
</g>
</g>
<!-- Node2&#45;&gt;Node3 -->
<g id="edge2" class="edge"><title>Node2&#45;&gt;Node3</title>
<path fill="none" stroke="midnightblue" d="M1019.87,-171.375C1030.3,-156 1047.74,-131.953 1066,-114 1077.56,-102.632 1092.06,-91.7075 1104.01,-83.4133"/>
<polygon fill="midnightblue" stroke="midnightblue" points="1106.25,-86.1232 1112.57,-77.6197 1102.33,-80.3261 1106.25,-86.1232"/>
</g>
<!-- Node5 -->
<g id="node5" class="node"><title>Node5</title>
<polygon fill="white" stroke="#bfbfbf" points="932.499,-0.5 932.499,-20.5 983.501,-20.5 983.501,-0.5 932.499,-0.5"/>
<text text-anchor="middle" x="958" y="-7.5" font-family="Helvetica,sans-Serif" font-size="10.00">TTree.h</text>
</g>
<!-- Node2&#45;&gt;Node5 -->
<g id="edge9" class="edge"><title>Node2&#45;&gt;Node5</title>
<path fill="none" stroke="midnightblue" d="M1005.48,-171.276C995.978,-139.311 973.981,-65.2824 963.607,-30.369"/>
<polygon fill="midnightblue" stroke="midnightblue" points="966.881,-29.0996 960.677,-20.5108 960.171,-31.0935 966.881,-29.0996"/>
</g>
<!-- Node6 -->
<g id="node6" class="node"><title>Node6</title>
<polygon fill="white" stroke="#bfbfbf" points="1455.39,-0.5 1455.39,-20.5 1498.61,-20.5 1498.61,-0.5 1455.39,-0.5"/>
<text text-anchor="middle" x="1477" y="-7.5" font-family="Helvetica,sans-Serif" font-size="10.00">vector</text>
</g>
<!-- Node2&#45;&gt;Node6 -->
<g id="edge10" class="edge"><title>Node2&#45;&gt;Node6</title>
<path fill="none" stroke="midnightblue" d="M1014.14,-171.284C1022.85,-142.666 1046.07,-81.5056 1091,-57 1151.95,-23.7603 1364.29,-14.5597 1445.28,-12.2287"/>
<polygon fill="midnightblue" stroke="midnightblue" points="1445.47,-15.725 1455.37,-11.9548 1445.28,-8.7276 1445.47,-15.725"/>
</g>
<!-- Node7 -->
<g id="node7" class="node"><title>Node7</title>
<g id="a_node7"><a xlink:href="Object_8h.html" target="_top" xlink:title="Object.h">
<polygon fill="white" stroke="black" points="1075.38,-114.5 1075.38,-134.5 1128.62,-134.5 1128.62,-114.5 1075.38,-114.5"/>
<text text-anchor="middle" x="1102" y="-121.5" font-family="Helvetica,sans-Serif" font-size="10.00">Object.h</text>
</a>
</g>
</g>
<!-- Node2&#45;&gt;Node7 -->
<g id="edge6" class="edge"><title>Node2&#45;&gt;Node7</title>
<path fill="none" stroke="midnightblue" d="M1032.74,-171.421C1047.06,-161.929 1065.45,-149.731 1079.69,-140.293"/>
<polygon fill="midnightblue" stroke="midnightblue" points="1081.96,-142.989 1088.36,-134.546 1078.09,-137.155 1081.96,-142.989"/>
</g>
<!-- Node4 -->
<g id="node4" class="node"><title>Node4</title>
<polygon fill="white" stroke="#bfbfbf" points="1153.72,-0.5 1153.72,-20.5 1210.28,-20.5 1210.28,-0.5 1153.72,-0.5"/>
<text text-anchor="middle" x="1182" y="-7.5" font-family="Helvetica,sans-Serif" font-size="10.00">TString.h</text>
</g>
<!-- Node3&#45;&gt;Node4 -->
<g id="edge3" class="edge"><title>Node3&#45;&gt;Node4</title>
<path fill="none" stroke="midnightblue" d="M1136.08,-57.4179C1144.08,-49.425 1155.91,-37.5903 1165.56,-27.9377"/>
<polygon fill="midnightblue" stroke="midnightblue" points="1168.12,-30.3254 1172.72,-20.7795 1163.17,-25.3757 1168.12,-30.3254"/>
</g>
<!-- Node3&#45;&gt;Node5 -->
<g id="edge4" class="edge"><title>Node3&#45;&gt;Node5</title>
<path fill="none" stroke="midnightblue" d="M1099.47,-57.5409C1070.52,-48.1198 1024.88,-33.2646 993.299,-22.9877"/>
<polygon fill="midnightblue" stroke="midnightblue" points="994.172,-19.5912 983.579,-19.8246 992.005,-26.2475 994.172,-19.5912"/>
</g>
<!-- Node3&#45;&gt;Node6 -->
<g id="edge5" class="edge"><title>Node3&#45;&gt;Node6</title>
<path fill="none" stroke="midnightblue" d="M1154.17,-62.23C1217.9,-52.2157 1376.73,-27.2569 1444.99,-16.5301"/>
<polygon fill="midnightblue" stroke="midnightblue" points="1445.8,-19.9452 1455.14,-14.9351 1444.72,-13.03 1445.8,-19.9452"/>
</g>
<!-- Node7&#45;&gt;Node3 -->
<g id="edge7" class="edge"><title>Node7&#45;&gt;Node3</title>
<path fill="none" stroke="midnightblue" d="M1106.13,-114.418C1109.51,-106.979 1114.4,-96.2123 1118.6,-86.9742"/>
<polygon fill="midnightblue" stroke="midnightblue" points="1121.83,-88.3315 1122.78,-77.7795 1115.46,-85.4348 1121.83,-88.3315"/>
</g>
<!-- Node7&#45;&gt;Node5 -->
<g id="edge8" class="edge"><title>Node7&#45;&gt;Node5</title>
<path fill="none" stroke="midnightblue" d="M1081.71,-114.457C1064.42,-106.25 1039.37,-93.1406 1020,-78 1001.26,-63.3483 983.093,-42.8985 971.323,-28.5565"/>
<polygon fill="midnightblue" stroke="midnightblue" points="973.863,-26.129 964.873,-20.5222 968.404,-30.5113 973.863,-26.129"/>
</g>
<!-- Node8&#45;&gt;Node4 -->
<g id="edge13" class="edge"><title>Node8&#45;&gt;Node4</title>
<path fill="none" stroke="midnightblue" d="M509.918,-378.86C614.823,-369.98 920,-336.815 920,-251.5 920,-251.5 920,-251.5 920,-186.5 920,-80.2738 1070.77,-34.5065 1143.57,-18.5999"/>
<polygon fill="midnightblue" stroke="midnightblue" points="1144.65,-21.9491 1153.71,-16.4661 1143.21,-15.099 1144.65,-21.9491"/>
</g>
<!-- Node8&#45;&gt;Node5 -->
<g id="edge12" class="edge"><title>Node8&#45;&gt;Node5</title>
<path fill="none" stroke="midnightblue" d="M440.072,-379.487C330.377,-372.223 0,-342.769 0,-251.5 0,-251.5 0,-251.5 0,-123.5 0,-28.7795 748.362,-14.0032 922.223,-11.8484"/>
<polygon fill="midnightblue" stroke="midnightblue" points="922.418,-15.3464 932.376,-11.729 922.335,-8.34691 922.418,-15.3464"/>
</g>
<!-- Node9 -->
<g id="node9" class="node"><title>Node9</title>
<polygon fill="white" stroke="#bfbfbf" points="447.273,-303.5 447.273,-323.5 502.727,-323.5 502.727,-303.5 447.273,-303.5"/>
<text text-anchor="middle" x="475" y="-310.5" font-family="Helvetica,sans-Serif" font-size="10.00">Rtypes.h</text>
</g>
<!-- Node8&#45;&gt;Node9 -->
<g id="edge14" class="edge"><title>Node8&#45;&gt;Node9</title>
<path fill="none" stroke="midnightblue" d="M475,-372.464C475,-362.629 475,-346.609 475,-333.9"/>
<polygon fill="midnightblue" stroke="midnightblue" points="478.5,-333.823 475,-323.823 471.5,-333.823 478.5,-333.823"/>
</g>
<!-- Node10 -->
<g id="node10" class="node"><title>Node10</title>
<polygon fill="white" stroke="#bfbfbf" points="520.657,-303.5 520.657,-323.5 613.343,-323.5 613.343,-303.5 520.657,-303.5"/>
<text text-anchor="middle" x="567" y="-310.5" font-family="Helvetica,sans-Serif" font-size="10.00">TLorentzVector.h</text>
</g>
<!-- Node8&#45;&gt;Node10 -->
<g id="edge15" class="edge"><title>Node8&#45;&gt;Node10</title>
<path fill="none" stroke="midnightblue" d="M487.408,-372.464C502.497,-361.475 528.191,-342.763 546.296,-329.578"/>
<polygon fill="midnightblue" stroke="midnightblue" points="548.472,-332.323 554.495,-323.607 544.351,-326.664 548.472,-332.323"/>
</g>
<!-- Node11 -->
<g id="node11" class="node"><title>Node11</title>
<polygon fill="white" stroke="#bfbfbf" points="631.549,-303.5 631.549,-323.5 696.451,-323.5 696.451,-303.5 631.549,-303.5"/>
<text text-anchor="middle" x="664" y="-310.5" font-family="Helvetica,sans-Serif" font-size="10.00">TVector2.h</text>
</g>
<!-- Node8&#45;&gt;Node11 -->
<g id="edge16" class="edge"><title>Node8&#45;&gt;Node11</title>
<path fill="none" stroke="midnightblue" d="M501.335,-372.421C530.787,-362.233 579.887,-345.147 622,-330 624.585,-329.07 627.257,-328.102 629.942,-327.123"/>
<polygon fill="midnightblue" stroke="midnightblue" points="631.411,-330.312 639.595,-323.584 629.001,-323.74 631.411,-330.312"/>
</g>
<!-- Node12 -->
<g id="node12" class="node"><title>Node12</title>
<polygon fill="white" stroke="#bfbfbf" points="323.387,-303.5 323.387,-323.5 366.613,-323.5 366.613,-303.5 323.387,-303.5"/>
<text text-anchor="middle" x="345" y="-310.5" font-family="Helvetica,sans-Serif" font-size="10.00">cmath</text>
</g>
<!-- Node8&#45;&gt;Node12 -->
<g id="edge17" class="edge"><title>Node8&#45;&gt;Node12</title>
<path fill="none" stroke="midnightblue" d="M457.294,-372.39C437.304,-362.103 403.81,-344.861 375,-330 373.857,-329.41 372.69,-328.808 371.51,-328.199"/>
<polygon fill="midnightblue" stroke="midnightblue" points="372.939,-324.998 362.448,-323.52 369.727,-331.218 372.939,-324.998"/>
</g>
<!-- Node13 -->
<g id="node13" class="node"><title>Node13</title>
<polygon fill="white" stroke="#bfbfbf" points="384.278,-303.5 384.278,-323.5 429.722,-323.5 429.722,-303.5 384.278,-303.5"/>
<text text-anchor="middle" x="407" y="-310.5" font-family="Helvetica,sans-Serif" font-size="10.00">cstring</text>
</g>
<!-- Node8&#45;&gt;Node13 -->
<g id="edge18" class="edge"><title>Node8&#45;&gt;Node13</title>
<path fill="none" stroke="midnightblue" d="M465.829,-372.464C455.041,-361.834 436.919,-343.979 423.633,-330.889"/>
<polygon fill="midnightblue" stroke="midnightblue" points="426.042,-328.348 416.462,-323.823 421.129,-333.334 426.042,-328.348"/>
</g>
<!-- Node14&#45;&gt;Node8 -->
<g id="edge20" class="edge"><title>Node14&#45;&gt;Node8</title>
<path fill="none" stroke="midnightblue" d="M784.44,-436.686C781.246,-436.112 778.072,-435.544 775,-435 684.679,-418.997 578.919,-401.019 520.181,-391.101"/>
<polygon fill="midnightblue" stroke="midnightblue" points="520.565,-387.617 510.123,-389.404 519.401,-394.519 520.565,-387.617"/>
</g>
<!-- Node15 -->
<g id="node15" class="node"><title>Node15</title>
<g id="a_node15"><a xlink:href="Singlet_8h.html" target="_top" xlink:title="../../Framework/interface\l/Singlet.h">
<polygon fill="white" stroke="black" points="747.106,-366.5 747.106,-398.5 870.894,-398.5 870.894,-366.5 747.106,-366.5"/>
<text text-anchor="start" x="755.106" y="-385.5" font-family="Helvetica,sans-Serif" font-size="10.00">../../Framework/interface</text>
<text text-anchor="middle" x="809" y="-373.5" font-family="Helvetica,sans-Serif" font-size="10.00">/Singlet.h</text>
</a>
</g>
</g>
<!-- Node14&#45;&gt;Node15 -->
<g id="edge21" class="edge"><title>Node14&#45;&gt;Node15</title>
<path fill="none" stroke="midnightblue" d="M824.344,-435.499C822.247,-428.393 819.215,-418.117 816.399,-408.575"/>
<polygon fill="midnightblue" stroke="midnightblue" points="819.67,-407.292 813.483,-398.691 812.956,-409.273 819.67,-407.292"/>
</g>
<!-- Node16 -->
<g id="node16" class="node"><title>Node16</title>
<g id="a_node16"><a xlink:href="Container_8h.html" target="_top" xlink:title="../../Framework/interface\l/Container.h">
<polygon fill="white" stroke="black" points="2132.11,-366.5 2132.11,-398.5 2255.89,-398.5 2255.89,-366.5 2132.11,-366.5"/>
<text text-anchor="start" x="2140.11" y="-385.5" font-family="Helvetica,sans-Serif" font-size="10.00">../../Framework/interface</text>
<text text-anchor="middle" x="2194" y="-373.5" font-family="Helvetica,sans-Serif" font-size="10.00">/Container.h</text>
</a>
</g>
</g>
<!-- Node14&#45;&gt;Node16 -->
<g id="edge24" class="edge"><title>Node14&#45;&gt;Node16</title>
<path fill="none" stroke="midnightblue" d="M869.508,-436.105C872.375,-435.686 875.225,-435.311 878,-435 1122.05,-407.641 1883.09,-389.936 2121.7,-384.946"/>
<polygon fill="midnightblue" stroke="midnightblue" points="2122.07,-388.439 2131.99,-384.732 2121.92,-381.441 2122.07,-388.439"/>
</g>
<!-- Node29 -->
<g id="node29" class="node"><title>Node29</title>
<g id="a_node29"><a xlink:href="Ref_8h.html" target="_top" xlink:title="../../Framework/interface\l/Ref.h">
<polygon fill="white" stroke="black" points="1716.11,-297.5 1716.11,-329.5 1839.89,-329.5 1839.89,-297.5 1716.11,-297.5"/>
<text text-anchor="start" x="1724.11" y="-316.5" font-family="Helvetica,sans-Serif" font-size="10.00">../../Framework/interface</text>
<text text-anchor="middle" x="1778" y="-304.5" font-family="Helvetica,sans-Serif" font-size="10.00">/Ref.h</text>
</a>
</g>
</g>
<!-- Node14&#45;&gt;Node29 -->
<g id="edge49" class="edge"><title>Node14&#45;&gt;Node29</title>
<path fill="none" stroke="midnightblue" d="M846.772,-435.461C864.633,-426.967 891.359,-413.434 913,-399 932.173,-386.212 931.564,-374.464 953,-366 1022.02,-338.748 1517.98,-321.916 1706,-316.454"/>
<polygon fill="midnightblue" stroke="midnightblue" points="1706.16,-319.951 1716.06,-316.165 1705.96,-312.954 1706.16,-319.951"/>
</g>
<!-- Node30 -->
<g id="node30" class="node"><title>Node30</title>
<g id="a_node30"><a xlink:href="RefVector_8h.html" target="_top" xlink:title="../../Framework/interface\l/RefVector.h">
<polygon fill="white" stroke="black" points="1261.11,-366.5 1261.11,-398.5 1384.89,-398.5 1384.89,-366.5 1261.11,-366.5"/>
<text text-anchor="start" x="1269.11" y="-385.5" font-family="Helvetica,sans-Serif" font-size="10.00">../../Framework/interface</text>
<text text-anchor="middle" x="1323" y="-373.5" font-family="Helvetica,sans-Serif" font-size="10.00">/RefVector.h</text>
</a>
</g>
</g>
<!-- Node14&#45;&gt;Node30 -->
<g id="edge53" class="edge"><title>Node14&#45;&gt;Node30</title>
<path fill="none" stroke="midnightblue" d="M869.54,-436.349C872.399,-435.871 875.239,-435.416 878,-435 1008.93,-415.253 1162.54,-398.993 1250.75,-390.316"/>
<polygon fill="midnightblue" stroke="midnightblue" points="1251.3,-393.779 1260.91,-389.321 1250.62,-386.812 1251.3,-393.779"/>
</g>
<!-- Node15&#45;&gt;Node4 -->
<g id="edge23" class="edge"><title>Node15&#45;&gt;Node4</title>
<path fill="none" stroke="midnightblue" d="M865.299,-366.463C963.791,-339.354 1157,-282.256 1157,-251.5 1157,-251.5 1157,-251.5 1157,-186.5 1157,-129.122 1170.33,-62.2161 1177.53,-30.3006"/>
<polygon fill="midnightblue" stroke="midnightblue" points="1180.94,-31.0754 1179.78,-20.5439 1174.12,-29.4984 1180.94,-31.0754"/>
</g>
<!-- Node15&#45;&gt;Node7 -->
<g id="edge22" class="edge"><title>Node15&#45;&gt;Node7</title>
<path fill="none" stroke="midnightblue" d="M855.228,-366.455C879.566,-357.561 909.384,-345.083 934,-330 1007.37,-285.044 1035.16,-276.824 1081,-204 1092.36,-185.957 1097.62,-161.86 1100.03,-145.145"/>
<polygon fill="midnightblue" stroke="midnightblue" points="1103.54,-145.268 1101.28,-134.917 1096.6,-144.418 1103.54,-145.268"/>
</g>
<!-- Node17 -->
<g id="node17" class="node"><title>Node17</title>
<g id="a_node17"><a xlink:href="ArrayBase_8h.html" target="_top" xlink:title="ArrayBase.h">
<polygon fill="white" stroke="black" points="1896.49,-303.5 1896.49,-323.5 1967.51,-323.5 1967.51,-303.5 1896.49,-303.5"/>
<text text-anchor="middle" x="1932" y="-310.5" font-family="Helvetica,sans-Serif" font-size="10.00">ArrayBase.h</text>
</a>
</g>
</g>
<!-- Node16&#45;&gt;Node17 -->
<g id="edge25" class="edge"><title>Node16&#45;&gt;Node17</title>
<path fill="none" stroke="midnightblue" d="M2131.84,-368.458C2088.22,-358.89 2028.69,-344.996 1977,-330 1973.64,-329.027 1970.17,-327.952 1966.71,-326.836"/>
<polygon fill="midnightblue" stroke="midnightblue" points="1967.68,-323.471 1957.09,-323.631 1965.47,-330.113 1967.68,-323.471"/>
</g>
<!-- Node22 -->
<g id="node22" class="node"><title>Node22</title>
<g id="a_node22"><a xlink:href="CollectionBase_8h.html" target="_top" xlink:title="CollectionBase.h">
<polygon fill="white" stroke="black" points="2056.49,-303.5 2056.49,-323.5 2147.51,-323.5 2147.51,-303.5 2056.49,-303.5"/>
<text text-anchor="middle" x="2102" y="-310.5" font-family="Helvetica,sans-Serif" font-size="10.00">CollectionBase.h</text>
</a>
</g>
</g>
<!-- Node16&#45;&gt;Node22 -->
<g id="edge39" class="edge"><title>Node16&#45;&gt;Node22</title>
<path fill="none" stroke="midnightblue" d="M2173.12,-366.297C2158.06,-355.323 2137.8,-340.572 2122.76,-329.618"/>
<polygon fill="midnightblue" stroke="midnightblue" points="2124.73,-326.722 2114.58,-323.665 2120.61,-332.381 2124.73,-326.722"/>
</g>
<!-- Node24 -->
<g id="node24" class="node"><title>Node24</title>
<g id="a_node24"><a xlink:href="Iterator_8h.html" target="_top" xlink:title="Iterator.h">
<polygon fill="white" stroke="black" points="2165.99,-303.5 2165.99,-323.5 2222.01,-323.5 2222.01,-303.5 2165.99,-303.5"/>
<text text-anchor="middle" x="2194" y="-310.5" font-family="Helvetica,sans-Serif" font-size="10.00">Iterator.h</text>
</a>
</g>
</g>
<!-- Node16&#45;&gt;Node24 -->
<g id="edge43" class="edge"><title>Node16&#45;&gt;Node24</title>
<path fill="none" stroke="midnightblue" d="M2194,-366.297C2194,-356.656 2194,-344.1 2194,-333.765"/>
<polygon fill="midnightblue" stroke="midnightblue" points="2197.5,-333.665 2194,-323.665 2190.5,-333.665 2197.5,-333.665"/>
</g>
<!-- Node25 -->
<g id="node25" class="node"><title>Node25</title>
<polygon fill="white" stroke="#bfbfbf" points="2162.94,-240.5 2162.94,-260.5 2225.06,-260.5 2225.06,-240.5 2162.94,-240.5"/>
<text text-anchor="middle" x="2194" y="-247.5" font-family="Helvetica,sans-Serif" font-size="10.00">type_traits</text>
</g>
<!-- Node16&#45;&gt;Node25 -->
<g id="edge48" class="edge"><title>Node16&#45;&gt;Node25</title>
<path fill="none" stroke="midnightblue" d="M2236.32,-366.49C2252.68,-358.37 2269.68,-346.536 2279,-330 2286.2,-317.222 2286.54,-309.582 2279,-297 2269.29,-280.795 2251.63,-270.035 2234.9,-263.069"/>
<polygon fill="midnightblue" stroke="midnightblue" points="2235.83,-259.675 2225.24,-259.393 2233.34,-266.218 2235.83,-259.675"/>
</g>
<!-- Node26 -->
<g id="node26" class="node"><title>Node26</title>
<polygon fill="white" stroke="#bfbfbf" points="1413.6,-240.5 1413.6,-260.5 1472.4,-260.5 1472.4,-240.5 1413.6,-240.5"/>
<text text-anchor="middle" x="1443" y="-247.5" font-family="Helvetica,sans-Serif" font-size="10.00">stdexcept</text>
</g>
<!-- Node16&#45;&gt;Node26 -->
<g id="edge45" class="edge"><title>Node16&#45;&gt;Node26</title>
<path fill="none" stroke="midnightblue" d="M2131.83,-368.575C2127.16,-367.679 2122.51,-366.81 2118,-366 2015.73,-347.613 1981.24,-373.773 1887,-330 1866.71,-320.577 1869.55,-305.843 1849,-297 1701.4,-233.472 1645.76,-286.311 1482.6,-260.816"/>
<polygon fill="midnightblue" stroke="midnightblue" points="1483.15,-257.36 1472.72,-259.197 1482.02,-264.268 1483.15,-257.36"/>
</g>
<!-- Node27 -->
<g id="node27" class="node"><title>Node27</title>
<polygon fill="white" stroke="#bfbfbf" points="1985.95,-303.5 1985.95,-323.5 2038.05,-323.5 2038.05,-303.5 1985.95,-303.5"/>
<text text-anchor="middle" x="2012" y="-310.5" font-family="Helvetica,sans-Serif" font-size="10.00">memory</text>
</g>
<!-- Node16&#45;&gt;Node27 -->
<g id="edge46" class="edge"><title>Node16&#45;&gt;Node27</title>
<path fill="none" stroke="midnightblue" d="M2147.96,-366.426C2118.81,-356.621 2080.44,-343.238 2047,-330 2045.15,-329.266 2043.25,-328.491 2041.34,-327.696"/>
<polygon fill="midnightblue" stroke="midnightblue" points="2042.44,-324.361 2031.87,-323.63 2039.68,-330.793 2042.44,-324.361"/>
</g>
<!-- Node28 -->
<g id="node28" class="node"><title>Node28</title>
<polygon fill="white" stroke="#bfbfbf" points="2240.33,-303.5 2240.33,-323.5 2269.67,-323.5 2269.67,-303.5 2240.33,-303.5"/>
<text text-anchor="middle" x="2255" y="-310.5" font-family="Helvetica,sans-Serif" font-size="10.00">set</text>
</g>
<!-- Node16&#45;&gt;Node28 -->
<g id="edge47" class="edge"><title>Node16&#45;&gt;Node28</title>
<path fill="none" stroke="midnightblue" d="M2207.84,-366.297C2217.37,-355.836 2230.02,-341.942 2239.82,-331.178"/>
<polygon fill="midnightblue" stroke="midnightblue" points="2242.51,-333.415 2246.66,-323.665 2237.34,-328.703 2242.51,-333.415"/>
</g>
<!-- Node18 -->
<g id="node18" class="node"><title>Node18</title>
<g id="a_node18"><a xlink:href="ContainerBase_8h.html" target="_top" xlink:title="ContainerBase.h">
<polygon fill="white" stroke="black" points="1490.77,-240.5 1490.77,-260.5 1581.23,-260.5 1581.23,-240.5 1490.77,-240.5"/>
<text text-anchor="middle" x="1536" y="-247.5" font-family="Helvetica,sans-Serif" font-size="10.00">ContainerBase.h</text>
</a>
</g>
</g>
<!-- Node17&#45;&gt;Node18 -->
<g id="edge26" class="edge"><title>Node17&#45;&gt;Node18</title>
<path fill="none" stroke="midnightblue" d="M1905.76,-303.447C1898.16,-301.078 1889.81,-298.712 1882,-297 1780.81,-274.831 1660.45,-261.979 1591.66,-255.887"/>
<polygon fill="midnightblue" stroke="midnightblue" points="1591.75,-252.382 1581.49,-255.002 1591.15,-259.355 1591.75,-252.382"/>
</g>
<!-- Node18&#45;&gt;Node3 -->
<g id="edge34" class="edge"><title>Node18&#45;&gt;Node3</title>
<path fill="none" stroke="midnightblue" d="M1503.46,-240.439C1480.25,-232.993 1449.01,-220.907 1425,-204 1381,-173.017 1390.64,-140.848 1344,-114 1287.17,-81.2869 1209.89,-71.9629 1164.54,-69.3858"/>
<polygon fill="midnightblue" stroke="midnightblue" points="1164.43,-65.8766 1154.27,-68.8875 1164.09,-72.8684 1164.43,-65.8766"/>
</g>
<!-- Node18&#45;&gt;Node4 -->
<g id="edge35" class="edge"><title>Node18&#45;&gt;Node4</title>
<path fill="none" stroke="midnightblue" d="M1517.12,-240.356C1500.73,-231.991 1476.75,-218.708 1458,-204 1414.23,-169.662 1415.3,-147.653 1371,-114 1319.76,-75.0755 1251.82,-42.094 1212.91,-24.7026"/>
<polygon fill="midnightblue" stroke="midnightblue" points="1214.24,-21.4606 1203.68,-20.6228 1211.41,-27.8641 1214.24,-21.4606"/>
</g>
<!-- Node18&#45;&gt;Node5 -->
<g id="edge36" class="edge"><title>Node18&#45;&gt;Node5</title>
<path fill="none" stroke="midnightblue" d="M1490.73,-241.295C1487.45,-240.817 1484.18,-240.379 1481,-240 1421.07,-232.854 980.239,-248.069 939,-204 893.906,-155.811 929.243,-68.165 948.098,-30.0405"/>
<polygon fill="midnightblue" stroke="midnightblue" points="951.451,-31.1702 952.898,-20.6745 945.222,-27.9774 951.451,-31.1702"/>
</g>
<!-- Node18&#45;&gt;Node6 -->
<g id="edge37" class="edge"><title>Node18&#45;&gt;Node6</title>
<path fill="none" stroke="midnightblue" d="M1536.71,-240.216C1537.62,-225.424 1538.6,-195.659 1534,-171 1524.11,-117.963 1499.12,-59.0238 1485.75,-29.8833"/>
<polygon fill="midnightblue" stroke="midnightblue" points="1488.8,-28.1438 1481.4,-20.5616 1482.46,-31.1036 1488.8,-28.1438"/>
</g>
<!-- Node19 -->
<g id="node19" class="node"><title>Node19</title>
<g id="a_node19"><a xlink:href="ContainerElement_8h.html" target="_top" xlink:title="ContainerElement.h">
<polygon fill="white" stroke="black" points="1218.82,-177.5 1218.82,-197.5 1323.18,-197.5 1323.18,-177.5 1218.82,-177.5"/>
<text text-anchor="middle" x="1271" y="-184.5" font-family="Helvetica,sans-Serif" font-size="10.00">ContainerElement.h</text>
</a>
</g>
</g>
<!-- Node18&#45;&gt;Node19 -->
<g id="edge27" class="edge"><title>Node18&#45;&gt;Node19</title>
<path fill="none" stroke="midnightblue" d="M1496.9,-240.499C1449.93,-229.687 1371.09,-211.541 1320.08,-199.797"/>
<polygon fill="midnightblue" stroke="midnightblue" points="1320.79,-196.37 1310.26,-197.538 1319.22,-203.192 1320.79,-196.37"/>
</g>
<!-- Node21 -->
<g id="node21" class="node"><title>Node21</title>
<polygon fill="white" stroke="#bfbfbf" points="1466.6,-177.5 1466.6,-197.5 1525.4,-197.5 1525.4,-177.5 1466.6,-177.5"/>
<text text-anchor="middle" x="1496" y="-184.5" font-family="Helvetica,sans-Serif" font-size="10.00">functional</text>
</g>
<!-- Node18&#45;&gt;Node21 -->
<g id="edge38" class="edge"><title>Node18&#45;&gt;Node21</title>
<path fill="none" stroke="midnightblue" d="M1530.1,-240.499C1524.19,-231.489 1514.94,-217.386 1507.57,-206.139"/>
<polygon fill="midnightblue" stroke="midnightblue" points="1510.34,-203.981 1501.93,-197.538 1504.48,-207.819 1510.34,-203.981"/>
</g>
<!-- Node19&#45;&gt;Node3 -->
<g id="edge29" class="edge"><title>Node19&#45;&gt;Node3</title>
<path fill="none" stroke="midnightblue" d="M1264.65,-177.096C1254.3,-162.298 1232.6,-133.278 1209,-114 1193.3,-101.171 1173.46,-90.055 1157.23,-82.0218"/>
<polygon fill="midnightblue" stroke="midnightblue" points="1158.68,-78.8355 1148.15,-77.6585 1155.65,-85.1447 1158.68,-78.8355"/>
</g>
<!-- Node19&#45;&gt;Node4 -->
<g id="edge31" class="edge"><title>Node19&#45;&gt;Node4</title>
<path fill="none" stroke="midnightblue" d="M1266.21,-177.091C1252.02,-149.187 1209.99,-66.5395 1191.23,-29.6427"/>
<polygon fill="midnightblue" stroke="midnightblue" points="1194.25,-27.8595 1186.59,-20.5326 1188.01,-31.0328 1194.25,-27.8595"/>
</g>
<!-- Node19&#45;&gt;Node5 -->
<g id="edge30" class="edge"><title>Node19&#45;&gt;Node5</title>
<path fill="none" stroke="midnightblue" d="M1254.61,-177.338C1203.27,-148.633 1045.28,-60.3014 983.316,-25.6541"/>
<polygon fill="midnightblue" stroke="midnightblue" points="984.662,-22.3969 974.225,-20.5717 981.246,-28.5067 984.662,-22.3969"/>
</g>
<!-- Node19&#45;&gt;Node6 -->
<g id="edge32" class="edge"><title>Node19&#45;&gt;Node6</title>
<path fill="none" stroke="midnightblue" d="M1285.13,-177.353C1300.14,-167.448 1324.36,-150.924 1344,-135 1388.2,-99.1588 1436.22,-52.4287 1460.68,-28.0069"/>
<polygon fill="midnightblue" stroke="midnightblue" points="1463.45,-30.1823 1468.03,-20.628 1458.5,-25.2416 1463.45,-30.1823"/>
</g>
<!-- Node19&#45;&gt;Node7 -->
<g id="edge28" class="edge"><title>Node19&#45;&gt;Node7</title>
<path fill="none" stroke="midnightblue" d="M1246.06,-177.499C1217.11,-167.047 1169.16,-149.742 1136.61,-137.992"/>
<polygon fill="midnightblue" stroke="midnightblue" points="1137.63,-134.641 1127.04,-134.538 1135.26,-141.225 1137.63,-134.641"/>
</g>
<!-- Node20 -->
<g id="node20" class="node"><title>Node20</title>
<polygon fill="white" stroke="#bfbfbf" points="1299.28,-114.5 1299.28,-134.5 1334.72,-134.5 1334.72,-114.5 1299.28,-114.5"/>
<text text-anchor="middle" x="1317" y="-121.5" font-family="Helvetica,sans-Serif" font-size="10.00">map</text>
</g>
<!-- Node19&#45;&gt;Node20 -->
<g id="edge33" class="edge"><title>Node19&#45;&gt;Node20</title>
<path fill="none" stroke="midnightblue" d="M1277.79,-177.499C1284.65,-168.399 1295.43,-154.103 1303.95,-142.802"/>
<polygon fill="midnightblue" stroke="midnightblue" points="1306.96,-144.629 1310.18,-134.538 1301.37,-140.415 1306.96,-144.629"/>
</g>
<!-- Node22&#45;&gt;Node6 -->
<g id="edge41" class="edge"><title>Node22&#45;&gt;Node6</title>
<path fill="none" stroke="midnightblue" d="M2102,-303.476C2102,-283.02 2102,-231.556 2102,-188.5 2102,-188.5 2102,-188.5 2102,-123.5 2102,-62.6461 1637,-23.4437 1509.18,-13.817"/>
<polygon fill="midnightblue" stroke="midnightblue" points="1509.11,-10.3026 1498.88,-13.0508 1508.59,-17.2833 1509.11,-10.3026"/>
</g>
<!-- Node22&#45;&gt;Node18 -->
<g id="edge40" class="edge"><title>Node22&#45;&gt;Node18</title>
<path fill="none" stroke="midnightblue" d="M2073.69,-303.436C2065.19,-301.009 2055.78,-298.614 2047,-297 1883.2,-266.897 1686.05,-256.495 1591.67,-253.074"/>
<polygon fill="midnightblue" stroke="midnightblue" points="1591.61,-249.57 1581.5,-252.718 1591.37,-256.566 1591.61,-249.57"/>
</g>
<!-- Node23 -->
<g id="node23" class="node"><title>Node23</title>
<polygon fill="white" stroke="#bfbfbf" points="2035.61,-240.5 2035.61,-260.5 2074.39,-260.5 2074.39,-240.5 2035.61,-240.5"/>
<text text-anchor="middle" x="2055" y="-247.5" font-family="Helvetica,sans-Serif" font-size="10.00">utility</text>
</g>
<!-- Node22&#45;&gt;Node23 -->
<g id="edge42" class="edge"><title>Node22&#45;&gt;Node23</title>
<path fill="none" stroke="midnightblue" d="M2095.06,-303.499C2087.98,-294.309 2076.82,-279.82 2068.07,-268.467"/>
<polygon fill="midnightblue" stroke="midnightblue" points="2070.84,-266.323 2061.96,-260.538 2065.29,-270.595 2070.84,-266.323"/>
</g>
<!-- Node24&#45;&gt;Node25 -->
<g id="edge44" class="edge"><title>Node24&#45;&gt;Node25</title>
<path fill="none" stroke="midnightblue" d="M2194,-303.499C2194,-294.94 2194,-281.783 2194,-270.846"/>
<polygon fill="midnightblue" stroke="midnightblue" points="2197.5,-270.538 2194,-260.538 2190.5,-270.538 2197.5,-270.538"/>
</g>
<!-- Node29&#45;&gt;Node18 -->
<g id="edge50" class="edge"><title>Node29&#45;&gt;Node18</title>
<path fill="none" stroke="midnightblue" d="M1718.49,-297.5C1676.35,-286.878 1620.66,-272.841 1581.94,-263.079"/>
<polygon fill="midnightblue" stroke="midnightblue" points="1582.53,-259.62 1571.98,-260.57 1580.82,-266.408 1582.53,-259.62"/>
</g>
<!-- Node29&#45;&gt;Node25 -->
<g id="edge52" class="edge"><title>Node29&#45;&gt;Node25</title>
<path fill="none" stroke="midnightblue" d="M1840.28,-303.368C1926.37,-290.744 2079.39,-268.306 2152.66,-257.562"/>
<polygon fill="midnightblue" stroke="midnightblue" points="2153.49,-260.978 2162.88,-256.064 2152.47,-254.052 2153.49,-260.978"/>
</g>
<!-- Node29&#45;&gt;Node26 -->
<g id="edge51" class="edge"><title>Node29&#45;&gt;Node26</title>
<path fill="none" stroke="midnightblue" d="M1715.98,-302.943C1658.16,-293.754 1569.32,-278.923 1482.76,-261.047"/>
<polygon fill="midnightblue" stroke="midnightblue" points="1483.27,-257.578 1472.76,-258.967 1481.84,-264.431 1483.27,-257.578"/>
</g>
<!-- Node30&#45;&gt;Node6 -->
<g id="edge57" class="edge"><title>Node30&#45;&gt;Node6</title>
<path fill="none" stroke="midnightblue" d="M1385.06,-379.789C1469.17,-373.788 1609,-349.129 1609,-251.5 1609,-251.5 1609,-251.5 1609,-123.5 1609,-70.858 1547.21,-37.8206 1508.18,-22.2043"/>
<polygon fill="midnightblue" stroke="midnightblue" points="1509.39,-18.9197 1498.8,-18.608 1506.88,-25.4559 1509.39,-18.9197"/>
</g>
<!-- Node30&#45;&gt;Node18 -->
<g id="edge54" class="edge"><title>Node30&#45;&gt;Node18</title>
<path fill="none" stroke="midnightblue" d="M1347.85,-366.333C1389.29,-341.043 1471.94,-290.6 1512.47,-265.858"/>
<polygon fill="midnightblue" stroke="midnightblue" points="1514.43,-268.766 1521.14,-260.568 1510.78,-262.79 1514.43,-268.766"/>
</g>
<!-- Node30&#45;&gt;Node26 -->
<g id="edge56" class="edge"><title>Node30&#45;&gt;Node26</title>
<path fill="none" stroke="midnightblue" d="M1324.69,-366.34C1327.46,-347.957 1334.53,-316.959 1352,-297 1365.64,-281.41 1385.88,-270.555 1403.82,-263.369"/>
<polygon fill="midnightblue" stroke="midnightblue" points="1405.35,-266.533 1413.48,-259.747 1402.89,-259.977 1405.35,-266.533"/>
</g>
<!-- Node30&#45;&gt;Node29 -->
<g id="edge55" class="edge"><title>Node30&#45;&gt;Node29</title>
<path fill="none" stroke="midnightblue" d="M1385.31,-372.324C1469.09,-359.987 1617.72,-338.101 1706.13,-325.083"/>
<polygon fill="midnightblue" stroke="midnightblue" points="1706.69,-328.538 1716.08,-323.618 1705.67,-321.613 1706.69,-328.538"/>
</g>
<!-- Node31&#45;&gt;Node8 -->
<g id="edge59" class="edge"><title>Node31&#45;&gt;Node8</title>
<path fill="none" stroke="midnightblue" d="M1542.31,-554.19C1527.96,-552.323 1510.64,-550.276 1495,-549 1303.69,-533.384 819.875,-552.316 632,-513 606.795,-507.725 602.087,-501.107 578,-492 534.597,-475.59 507.852,-493.113 480,-456 468.665,-440.897 468.875,-418.672 471.005,-402.815"/>
<polygon fill="midnightblue" stroke="midnightblue" points="474.518,-403.035 472.758,-392.588 467.619,-401.853 474.518,-403.035"/>
</g>
<!-- Node31&#45;&gt;Node16 -->
<g id="edge71" class="edge"><title>Node31&#45;&gt;Node16</title>
<path fill="none" stroke="midnightblue" d="M1603.92,-550.682C1606.98,-550.052 1610.04,-549.476 1613,-549 1797.1,-519.376 1849.12,-554.118 2031,-513 2101.37,-497.09 2137.56,-512.042 2183,-456 2193.58,-442.95 2196.18,-424.088 2196.21,-408.875"/>
<polygon fill="midnightblue" stroke="midnightblue" points="2199.69,-408.451 2195.85,-398.577 2192.7,-408.691 2199.69,-408.451"/>
</g>
<!-- Node31&#45;&gt;Node29 -->
<g id="edge72" class="edge"><title>Node31&#45;&gt;Node29</title>
<path fill="none" stroke="midnightblue" d="M1603.76,-551.126C1700.36,-527.946 1991.45,-457.969 1993,-456 2017.7,-424.541 2017.77,-397.406 1993,-366 1991.84,-364.527 1911.86,-345.636 1849.8,-331.156"/>
<polygon fill="midnightblue" stroke="midnightblue" points="1850.54,-327.735 1840.01,-328.874 1848.95,-334.553 1850.54,-327.735"/>
</g>
<!-- Node31&#45;&gt;Node30 -->
<g id="edge73" class="edge"><title>Node31&#45;&gt;Node30</title>
<path fill="none" stroke="midnightblue" d="M1557.46,-549.454C1542.32,-540.525 1518.76,-526.313 1499,-513 1445.2,-476.756 1384.74,-431.148 1350.53,-404.859"/>
<polygon fill="midnightblue" stroke="midnightblue" points="1352.47,-401.939 1342.41,-398.609 1348.2,-407.485 1352.47,-401.939"/>
</g>
<!-- Node32 -->
<g id="node32" class="node"><title>Node32</title>
<g id="a_node32"><a xlink:href="ParticleM_8h.html" target="_top" xlink:title="ParticleM.h">
<polygon fill="white" stroke="black" points="1617,-492.5 1617,-512.5 1683,-512.5 1683,-492.5 1617,-492.5"/>
<text text-anchor="middle" x="1650" y="-499.5" font-family="Helvetica,sans-Serif" font-size="10.00">ParticleM.h</text>
</a>
</g>
</g>
<!-- Node31&#45;&gt;Node32 -->
<g id="edge60" class="edge"><title>Node31&#45;&gt;Node32</title>
<path fill="none" stroke="midnightblue" d="M1585.71,-549.418C1597.42,-541.058 1615,-528.497 1628.83,-518.624"/>
<polygon fill="midnightblue" stroke="midnightblue" points="1631.16,-521.256 1637.27,-512.596 1627.09,-515.56 1631.16,-521.256"/>
</g>
<!-- Node32&#45;&gt;Node8 -->
<g id="edge61" class="edge"><title>Node32&#45;&gt;Node8</title>
<path fill="none" stroke="midnightblue" d="M1616.79,-500.903C1451.78,-497.821 724.149,-482.803 627,-456 608.023,-450.764 605.633,-443.754 588,-435 560.289,-421.243 528.138,-406.727 505.233,-396.626"/>
<polygon fill="midnightblue" stroke="midnightblue" points="506.585,-393.397 496.022,-392.582 503.771,-399.807 506.585,-393.397"/>
</g>
<!-- Node32&#45;&gt;Node16 -->
<g id="edge68" class="edge"><title>Node32&#45;&gt;Node16</title>
<path fill="none" stroke="midnightblue" d="M1683.24,-498.155C1739.6,-492.124 1857.33,-477.976 1955,-456 2020.3,-441.308 2093.75,-417.973 2141.78,-401.761"/>
<polygon fill="midnightblue" stroke="midnightblue" points="2142.99,-405.047 2151.33,-398.517 2140.74,-398.418 2142.99,-405.047"/>
</g>
<!-- Node32&#45;&gt;Node29 -->
<g id="edge69" class="edge"><title>Node32&#45;&gt;Node29</title>
<path fill="none" stroke="midnightblue" d="M1683.07,-494.728C1736.42,-483.649 1836.06,-462.253 1841,-456 1865.79,-424.609 1858.14,-402.143 1841,-366 1835.27,-353.913 1825.16,-343.722 1814.69,-335.678"/>
<polygon fill="midnightblue" stroke="midnightblue" points="1816.47,-332.649 1806.3,-329.692 1812.41,-338.348 1816.47,-332.649"/>
</g>
<!-- Node32&#45;&gt;Node30 -->
<g id="edge70" class="edge"><title>Node32&#45;&gt;Node30</title>
<path fill="none" stroke="midnightblue" d="M1616.89,-493.594C1584.94,-485.557 1535.44,-472.028 1494,-456 1474.16,-448.328 1470.43,-443.642 1451,-435 1425.22,-423.538 1396.07,-411.722 1372.11,-402.304"/>
<polygon fill="midnightblue" stroke="midnightblue" points="1373.11,-398.937 1362.52,-398.555 1370.56,-405.457 1373.11,-398.937"/>
</g>
<!-- Node33 -->
<g id="node33" class="node"><title>Node33</title>
<g id="a_node33"><a xlink:href="Particle_8h.html" target="_top" xlink:title="Particle.h">
<polygon fill="white" stroke="black" points="1503.16,-435.5 1503.16,-455.5 1560.84,-455.5 1560.84,-435.5 1503.16,-435.5"/>
<text text-anchor="middle" x="1532" y="-442.5" font-family="Helvetica,sans-Serif" font-size="10.00">Particle.h</text>
</a>
</g>
</g>
<!-- Node32&#45;&gt;Node33 -->
<g id="edge62" class="edge"><title>Node32&#45;&gt;Node33</title>
<path fill="none" stroke="midnightblue" d="M1630.51,-492.418C1611.47,-483.541 1582.26,-469.925 1560.58,-459.823"/>
<polygon fill="midnightblue" stroke="midnightblue" points="1562.06,-456.648 1551.51,-455.596 1559.1,-462.993 1562.06,-456.648"/>
</g>
<!-- Node33&#45;&gt;Node8 -->
<g id="edge63" class="edge"><title>Node33&#45;&gt;Node8</title>
<path fill="none" stroke="midnightblue" d="M1503.16,-442.864C1399.64,-436.99 1037.11,-416.385 738,-399 661.533,-394.556 572.567,-389.293 520.175,-386.185"/>
<polygon fill="midnightblue" stroke="midnightblue" points="520.073,-382.673 509.884,-385.574 519.659,-389.66 520.073,-382.673"/>
</g>
<!-- Node33&#45;&gt;Node16 -->
<g id="edge65" class="edge"><title>Node33&#45;&gt;Node16</title>
<path fill="none" stroke="midnightblue" d="M1560.87,-441.84C1658.39,-432.854 1977.48,-403.452 2121.87,-390.146"/>
<polygon fill="midnightblue" stroke="midnightblue" points="2122.32,-393.619 2131.96,-389.217 2121.68,-386.649 2122.32,-393.619"/>
</g>
<!-- Node33&#45;&gt;Node19 -->
<g id="edge64" class="edge"><title>Node33&#45;&gt;Node19</title>
<path fill="none" stroke="midnightblue" d="M1522.71,-435.389C1484.26,-397.674 1337.25,-253.483 1287.54,-204.723"/>
<polygon fill="midnightblue" stroke="midnightblue" points="1289.77,-202.006 1280.18,-197.502 1284.87,-207.003 1289.77,-202.006"/>
</g>
<!-- Node33&#45;&gt;Node29 -->
<g id="edge66" class="edge"><title>Node33&#45;&gt;Node29</title>
<path fill="none" stroke="midnightblue" d="M1549.3,-435.359C1588.79,-414.489 1686.34,-362.938 1740.41,-334.366"/>
<polygon fill="midnightblue" stroke="midnightblue" points="1742.13,-337.415 1749.34,-329.648 1738.86,-331.226 1742.13,-337.415"/>
</g>
<!-- Node33&#45;&gt;Node30 -->
<g id="edge67" class="edge"><title>Node33&#45;&gt;Node30</title>
<path fill="none" stroke="midnightblue" d="M1502.94,-436.018C1472.44,-427.115 1423.57,-412.853 1384.46,-401.437"/>
<polygon fill="midnightblue" stroke="midnightblue" points="1385.32,-398.043 1374.74,-398.601 1383.36,-404.762 1385.32,-398.043"/>
</g>
<!-- Node34&#45;&gt;Node8 -->
<g id="edge75" class="edge"><title>Node34&#45;&gt;Node8</title>
<path fill="none" stroke="midnightblue" d="M1022.58,-440.211C915.661,-429.137 631.003,-399.656 520.109,-388.172"/>
<polygon fill="midnightblue" stroke="midnightblue" points="520.239,-384.667 509.932,-387.118 519.518,-391.629 520.239,-384.667"/>
</g>
<!-- Node34&#45;&gt;Node16 -->
<g id="edge77" class="edge"><title>Node34&#45;&gt;Node16</title>
<path fill="none" stroke="midnightblue" d="M1105.56,-442.257C1273.92,-433.168 1906.52,-399.019 2121.77,-387.399"/>
<polygon fill="midnightblue" stroke="midnightblue" points="2122.21,-390.881 2132.01,-386.847 2121.83,-383.891 2122.21,-390.881"/>
</g>
<!-- Node34&#45;&gt;Node19 -->
<g id="edge76" class="edge"><title>Node34&#45;&gt;Node19</title>
<path fill="none" stroke="midnightblue" d="M1073.33,-435.394C1092.5,-416.501 1137.33,-371.351 1171,-330 1205.66,-287.433 1241.72,-233.652 1259.57,-206.274"/>
<polygon fill="midnightblue" stroke="midnightblue" points="1262.59,-208.048 1265.09,-197.753 1256.72,-204.241 1262.59,-208.048"/>
</g>
<!-- Node34&#45;&gt;Node29 -->
<g id="edge78" class="edge"><title>Node34&#45;&gt;Node29</title>
<path fill="none" stroke="midnightblue" d="M1105.51,-435.59C1135.36,-428.217 1175.99,-416.156 1209,-399 1230.38,-387.89 1229.59,-374.848 1252,-366 1332.73,-334.123 1581.39,-321.235 1705.7,-316.679"/>
<polygon fill="midnightblue" stroke="midnightblue" points="1706.02,-320.17 1715.88,-316.314 1705.77,-313.174 1706.02,-320.17"/>
</g>
<!-- Node34&#45;&gt;Node30 -->
<g id="edge79" class="edge"><title>Node34&#45;&gt;Node30</title>
<path fill="none" stroke="midnightblue" d="M1102.22,-435.499C1141.31,-426.291 1203,-411.763 1251.24,-400.401"/>
<polygon fill="midnightblue" stroke="midnightblue" points="1252.08,-403.799 1261.01,-398.1 1250.47,-396.986 1252.08,-403.799"/>
</g>
<!-- Node35&#45;&gt;Node8 -->
<g id="edge81" class="edge"><title>Node35&#45;&gt;Node8</title>
<path fill="none" stroke="midnightblue" d="M1832.33,-670.253C1805.58,-668.303 1765.72,-665.42 1731,-663 1493.7,-646.462 1434.33,-643.005 1197,-627 982.214,-612.516 349.118,-695.537 235,-513 226.983,-500.177 215.734,-459.652 236,-435 260.142,-405.632 367.525,-392.147 429.831,-386.698"/>
<polygon fill="midnightblue" stroke="midnightblue" points="430.494,-390.154 440.167,-385.831 429.909,-383.179 430.494,-390.154"/>
</g>
<!-- Node35&#45;&gt;Node16 -->
<g id="edge94" class="edge"><title>Node35&#45;&gt;Node16</title>
<path fill="none" stroke="midnightblue" d="M1893.7,-671.865C2034.54,-668.804 2612.99,-654.582 2639,-627 2701.97,-560.233 2647.85,-469.984 2563,-435 2465.57,-394.825 2342.68,-384.928 2266.21,-383.042"/>
<polygon fill="midnightblue" stroke="midnightblue" points="2266.27,-379.542 2256.2,-382.834 2266.13,-386.541 2266.27,-379.542"/>
</g>
<!-- Node35&#45;&gt;Node29 -->
<g id="edge95" class="edge"><title>Node35&#45;&gt;Node29</title>
<path fill="none" stroke="midnightblue" d="M1893.8,-672.679C2022.33,-673.13 2516.04,-671.852 2664,-627 2719.77,-610.095 2777,-618.774 2777,-560.5 2777,-560.5 2777,-560.5 2777,-444.5 2777,-405.93 2772.13,-387.339 2740,-366 2660.98,-313.518 1981.46,-338.688 1887,-330 1875.1,-328.906 1862.52,-327.422 1850.29,-325.804"/>
<polygon fill="midnightblue" stroke="midnightblue" points="1850.51,-322.301 1840.13,-324.419 1849.56,-329.237 1850.51,-322.301"/>
</g>
<!-- Node35&#45;&gt;Node30 -->
<g id="edge96" class="edge"><title>Node35&#45;&gt;Node30</title>
<path fill="none" stroke="midnightblue" d="M1893.7,-673.009C2003.35,-674.278 2366.28,-673.483 2313,-606 2134.9,-380.439 1953.6,-555.553 1684,-456 1664.79,-448.908 1662.46,-441.371 1643,-435 1560.51,-407.988 1461.25,-394.831 1395.38,-388.639"/>
<polygon fill="midnightblue" stroke="midnightblue" points="1395.38,-385.124 1385.1,-387.703 1394.74,-392.095 1395.38,-385.124"/>
</g>
<!-- Node35&#45;&gt;Node34 -->
<g id="edge97" class="edge"><title>Node35&#45;&gt;Node34</title>
<path fill="none" stroke="midnightblue" d="M1832.32,-670.28C1708.57,-661.318 1252.49,-628.225 1249,-627 1171.66,-599.826 1155.83,-576.513 1104,-513 1091.66,-497.881 1080.48,-478.582 1073.1,-464.673"/>
<polygon fill="midnightblue" stroke="midnightblue" points="1076.13,-462.914 1068.43,-455.635 1069.91,-466.126 1076.13,-462.914"/>
</g>
<!-- Node36 -->
<g id="node36" class="node"><title>Node36</title>
<g id="a_node36"><a xlink:href="Lepton_8h.html" target="_top" xlink:title="Lepton.h">
<polygon fill="white" stroke="black" points="1721.54,-606.5 1721.54,-626.5 1776.46,-626.5 1776.46,-606.5 1721.54,-606.5"/>
<text text-anchor="middle" x="1749" y="-613.5" font-family="Helvetica,sans-Serif" font-size="10.00">Lepton.h</text>
</a>
</g>
</g>
<!-- Node35&#45;&gt;Node36 -->
<g id="edge82" class="edge"><title>Node35&#45;&gt;Node36</title>
<path fill="none" stroke="midnightblue" d="M1844.18,-663.418C1825.86,-654.581 1797.81,-641.047 1776.9,-630.959"/>
<polygon fill="midnightblue" stroke="midnightblue" points="1778.38,-627.789 1767.85,-626.596 1775.34,-634.093 1778.38,-627.789"/>
</g>
<!-- Node36&#45;&gt;Node8 -->
<g id="edge83" class="edge"><title>Node36&#45;&gt;Node8</title>
<path fill="none" stroke="midnightblue" d="M1721.36,-613.622C1633.36,-607.616 1351.86,-588.211 1119,-570 1043.74,-564.114 514.676,-533.413 442,-513 387.463,-497.682 357.781,-504.187 328,-456 302.194,-414.245 377.91,-395.843 430.048,-388.281"/>
<polygon fill="midnightblue" stroke="midnightblue" points="430.688,-391.726 440.125,-386.909 429.744,-384.79 430.688,-391.726"/>
</g>
<!-- Node36&#45;&gt;Node16 -->
<g id="edge85" class="edge"><title>Node36&#45;&gt;Node16</title>
<path fill="none" stroke="midnightblue" d="M1776.55,-615.865C1888.13,-616.662 2303.82,-612.823 2373,-513 2392.75,-484.507 2393.85,-462.695 2373,-435 2359.71,-417.347 2309.6,-403.865 2265.76,-395.131"/>
<polygon fill="midnightblue" stroke="midnightblue" points="2266.43,-391.695 2255.94,-393.232 2265.1,-398.568 2266.43,-391.695"/>
</g>
<!-- Node36&#45;&gt;Node29 -->
<g id="edge86" class="edge"><title>Node36&#45;&gt;Node29</title>
<path fill="none" stroke="midnightblue" d="M1776.47,-614.765C1877.44,-611.848 2227.7,-599.763 2335,-570 2443.95,-539.779 2564.52,-448.31 2487,-366 2441.21,-317.381 1953.45,-336.707 1887,-330 1875.11,-328.8 1862.54,-327.263 1850.31,-325.623"/>
<polygon fill="midnightblue" stroke="midnightblue" points="1850.53,-322.121 1840.15,-324.228 1849.58,-329.056 1850.53,-322.121"/>
</g>
<!-- Node36&#45;&gt;Node30 -->
<g id="edge87" class="edge"><title>Node36&#45;&gt;Node30</title>
<path fill="none" stroke="midnightblue" d="M1721.32,-614.798C1651.63,-612.543 1471.11,-603.531 1423,-570 1366.71,-530.773 1339.33,-449.534 1328.64,-408.45"/>
<polygon fill="midnightblue" stroke="midnightblue" points="1332.02,-407.551 1326.22,-398.688 1325.23,-409.237 1332.02,-407.551"/>
</g>
<!-- Node36&#45;&gt;Node33 -->
<g id="edge84" class="edge"><title>Node36&#45;&gt;Node33</title>
<path fill="none" stroke="midnightblue" d="M1747.49,-606.496C1743.21,-583.734 1728.78,-523.471 1692,-492 1682.69,-484.031 1615.36,-466.621 1571.06,-455.796"/>
<polygon fill="midnightblue" stroke="midnightblue" points="1571.71,-452.352 1561.16,-453.394 1570.05,-459.154 1571.71,-452.352"/>
</g>
<!-- Node36&#45;&gt;Node37 -->
<g id="edge88" class="edge"><title>Node36&#45;&gt;Node37</title>
<path fill="none" stroke="midnightblue" d="M1759.9,-606.418C1769.68,-598.267 1784.26,-586.12 1795.96,-576.367"/>
<polygon fill="midnightblue" stroke="midnightblue" points="1798.42,-578.87 1803.86,-569.779 1793.94,-573.493 1798.42,-578.87"/>
</g>
<!-- Node37&#45;&gt;Node8 -->
<g id="edge89" class="edge"><title>Node37&#45;&gt;Node8</title>
<path fill="none" stroke="midnightblue" d="M1776.66,-555.294C1751.24,-553.257 1717.15,-550.695 1687,-549 1269.13,-525.508 1159.19,-579.656 746,-513 723.504,-509.371 568.679,-467.488 549,-456 524.362,-441.617 501.845,-417.222 488.28,-400.746"/>
<polygon fill="midnightblue" stroke="midnightblue" points="490.685,-398.148 481.709,-392.52 485.216,-402.518 490.685,-398.148"/>
</g>
<!-- Node37&#45;&gt;Node16 -->
<g id="edge91" class="edge"><title>Node37&#45;&gt;Node16</title>
<path fill="none" stroke="midnightblue" d="M1853.5,-557.444C1956.43,-554.226 2232.03,-542.873 2259,-513 2282.23,-487.268 2274.09,-466.21 2259,-435 2253.06,-422.709 2242.6,-412.457 2231.78,-404.42"/>
<polygon fill="midnightblue" stroke="midnightblue" points="2233.73,-401.512 2223.51,-398.709 2229.75,-407.272 2233.73,-401.512"/>
</g>
<!-- Node37&#45;&gt;Node29 -->
<g id="edge92" class="edge"><title>Node37&#45;&gt;Node29</title>
<path fill="none" stroke="midnightblue" d="M1853.3,-553.176C1890.4,-547.006 1947.55,-534.779 1993,-513 2031.08,-494.753 2050.12,-493.765 2069,-456 2086.89,-420.223 2094.94,-396.446 2069,-366 2038.15,-329.799 1910.19,-338.483 1850.08,-330.615"/>
<polygon fill="midnightblue" stroke="midnightblue" points="1850.45,-327.129 1840.02,-329.005 1849.34,-334.041 1850.45,-327.129"/>
</g>
<!-- Node37&#45;&gt;Node30 -->
<g id="edge93" class="edge"><title>Node37&#45;&gt;Node30</title>
<path fill="none" stroke="midnightblue" d="M1803.27,-549.292C1785.17,-535.411 1748.95,-508.95 1715,-492 1671.99,-470.525 1657.34,-474.579 1613,-456 1593.38,-447.78 1590.12,-441.89 1570,-435 1512.62,-415.35 1445.05,-401.891 1395.11,-393.673"/>
<polygon fill="midnightblue" stroke="midnightblue" points="1395.47,-390.187 1385.04,-392.049 1394.36,-397.098 1395.47,-390.187"/>
</g>
<!-- Node37&#45;&gt;Node32 -->
<g id="edge90" class="edge"><title>Node37&#45;&gt;Node32</title>
<path fill="none" stroke="midnightblue" d="M1787.75,-549.418C1760.2,-540.235 1717.44,-525.981 1686.87,-515.791"/>
<polygon fill="midnightblue" stroke="midnightblue" points="1687.61,-512.346 1677.01,-512.504 1685.39,-518.987 1687.61,-512.346"/>
</g>
<!-- Node38&#45;&gt;Node8 -->
<g id="edge99" class="edge"><title>Node38&#45;&gt;Node8</title>
<path fill="none" stroke="midnightblue" d="M1672.15,-671.385C1630.39,-669.528 1543.51,-665.737 1470,-663 1347.35,-658.434 484.973,-657.141 366,-627 270.538,-602.815 220.041,-601.082 176,-513 160.497,-481.993 153.664,-461.512 176,-435 207.968,-397.055 354.807,-387.068 430.139,-384.439"/>
<polygon fill="midnightblue" stroke="midnightblue" points="430.391,-387.933 440.274,-384.115 430.167,-380.936 430.391,-387.933"/>
</g>
<!-- Node38&#45;&gt;Node16 -->
<g id="edge101" class="edge"><title>Node38&#45;&gt;Node16</title>
<path fill="none" stroke="midnightblue" d="M1722.09,-670.411C1747.51,-668.34 1787.97,-665.172 1823,-663 1864.08,-660.453 2534.61,-656.803 2563,-627 2623,-564.013 2598.3,-481.837 2525,-435 2483.21,-408.295 2350.17,-394.314 2266.02,-387.956"/>
<polygon fill="midnightblue" stroke="midnightblue" points="2266.24,-384.463 2256.01,-387.218 2265.73,-391.444 2266.24,-384.463"/>
</g>
<!-- Node38&#45;&gt;Node29 -->
<g id="edge102" class="edge"><title>Node38&#45;&gt;Node29</title>
<path fill="none" stroke="midnightblue" d="M1722.09,-670.401C1747.51,-668.323 1787.97,-665.149 1823,-663 1991.98,-652.635 2419.02,-664.983 2584,-627 2657.05,-610.182 2739,-635.461 2739,-560.5 2739,-560.5 2739,-560.5 2739,-444.5 2739,-408.017 2743.85,-388.333 2715,-366 2678.59,-337.815 1932.85,-334.246 1887,-330 1875.1,-328.898 1862.52,-327.411 1850.29,-325.791"/>
<polygon fill="midnightblue" stroke="midnightblue" points="1850.51,-322.288 1840.13,-324.405 1849.56,-329.224 1850.51,-322.288"/>
</g>
<!-- Node38&#45;&gt;Node30 -->
<g id="edge103" class="edge"><title>Node38&#45;&gt;Node30</title>
<path fill="none" stroke="midnightblue" d="M1672.15,-671.912C1589.75,-669.665 1326.29,-660.006 1249,-627 1207.1,-609.109 1171,-606.056 1171,-560.5 1171,-560.5 1171,-560.5 1171,-501.5 1171,-452.013 1221.89,-420.287 1264.78,-402.337"/>
<polygon fill="midnightblue" stroke="midnightblue" points="1266.09,-405.582 1274.07,-398.607 1263.49,-399.086 1266.09,-405.582"/>
</g>
<!-- Node38&#45;&gt;Node36 -->
<g id="edge100" class="edge"><title>Node38&#45;&gt;Node36</title>
<path fill="none" stroke="midnightblue" d="M1705.59,-663.418C1713.07,-655.504 1724.11,-643.824 1733.19,-634.225"/>
<polygon fill="midnightblue" stroke="midnightblue" points="1735.9,-636.451 1740.23,-626.779 1730.81,-631.641 1735.9,-636.451"/>
</g>
<!-- Node39&#45;&gt;Node8 -->
<g id="edge105" class="edge"><title>Node39&#45;&gt;Node8</title>
<path fill="none" stroke="midnightblue" d="M2261.98,-614.694C2158.01,-610.671 1688.33,-592.078 1304,-570 1292.42,-569.335 481.857,-517.075 471,-513 425.975,-496.099 373.089,-477.285 396,-435 405.389,-417.672 423.415,-405.253 439.88,-396.958"/>
<polygon fill="midnightblue" stroke="midnightblue" points="441.741,-399.951 449.317,-392.544 438.776,-393.61 441.741,-399.951"/>
</g>
<!-- Node39&#45;&gt;Node16 -->
<g id="edge107" class="edge"><title>Node39&#45;&gt;Node16</title>
<path fill="none" stroke="midnightblue" d="M2304.17,-614.988C2333.78,-612.993 2386.66,-604.49 2411,-570 2445.6,-520.981 2448.21,-482.071 2411,-435 2393.06,-412.302 2322.11,-398.554 2266.16,-391.042"/>
<polygon fill="midnightblue" stroke="midnightblue" points="2266.27,-387.527 2255.9,-389.711 2265.37,-394.469 2266.27,-387.527"/>
</g>
<!-- Node39&#45;&gt;Node29 -->
<g id="edge108" class="edge"><title>Node39&#45;&gt;Node29</title>
<path fill="none" stroke="midnightblue" d="M2303.93,-613.056C2334.38,-608.675 2391.66,-597.251 2432,-570 2512.57,-515.577 2582.65,-431.721 2511,-366 2459.82,-319.056 1956.11,-336.895 1887,-330 1875.11,-328.814 1862.53,-327.283 1850.31,-325.647"/>
<polygon fill="midnightblue" stroke="midnightblue" points="1850.53,-322.144 1840.14,-324.252 1849.58,-329.079 1850.53,-322.144"/>
</g>
<!-- Node39&#45;&gt;Node30 -->
<g id="edge109" class="edge"><title>Node39&#45;&gt;Node30</title>
<path fill="none" stroke="midnightblue" d="M2262.08,-610.784C2166.49,-589.144 1770.67,-498.591 1651,-456 1630.21,-448.6 1627.03,-441.697 1606,-435 1536.09,-412.734 1453.2,-399.062 1395.27,-391.454"/>
<polygon fill="midnightblue" stroke="midnightblue" points="1395.47,-387.952 1385.11,-390.149 1394.58,-394.895 1395.47,-387.952"/>
</g>
<!-- Node39&#45;&gt;Node32 -->
<g id="edge106" class="edge"><title>Node39&#45;&gt;Node32</title>
<path fill="none" stroke="midnightblue" d="M2261.94,-611.774C2171.8,-595.825 1817.46,-533.13 1693.28,-511.158"/>
<polygon fill="midnightblue" stroke="midnightblue" points="1693.82,-507.699 1683.36,-509.403 1692.6,-514.592 1693.82,-507.699"/>
</g>
<!-- Node39&#45;&gt;Node37 -->
<g id="edge110" class="edge"><title>Node39&#45;&gt;Node37</title>
<path fill="none" stroke="midnightblue" d="M2261.98,-613.03C2191.81,-604.783 1964.37,-578.054 1863.7,-566.224"/>
<polygon fill="midnightblue" stroke="midnightblue" points="1863.84,-562.716 1853.5,-565.025 1863.03,-569.668 1863.84,-562.716"/>
</g>
<!-- Node40&#45;&gt;Node8 -->
<g id="edge112" class="edge"><title>Node40&#45;&gt;Node8</title>
<path fill="none" stroke="midnightblue" d="M1257.81,-614.91C1099.09,-611.306 321.558,-589.795 252,-513 228.727,-487.306 230.42,-462.131 252,-435 273.816,-407.571 371.458,-393.489 430.063,-387.385"/>
<polygon fill="midnightblue" stroke="midnightblue" points="430.572,-390.851 440.172,-386.37 429.873,-383.886 430.572,-390.851"/>
</g>
<!-- Node40&#45;&gt;Node16 -->
<g id="edge114" class="edge"><title>Node40&#45;&gt;Node16</title>
<path fill="none" stroke="midnightblue" d="M1314.18,-613.672C1472.68,-603.255 2247.24,-550.535 2280,-513 2288.33,-503.459 2297.62,-468.653 2278,-435 2270.15,-421.545 2257.26,-411.146 2243.91,-403.331"/>
<polygon fill="midnightblue" stroke="midnightblue" points="2245.57,-400.253 2235.11,-398.563 2242.24,-406.406 2245.57,-400.253"/>
</g>
<!-- Node40&#45;&gt;Node29 -->
<g id="edge115" class="edge"><title>Node40&#45;&gt;Node29</title>
<path fill="none" stroke="midnightblue" d="M1314.12,-612.023C1354.96,-606.389 1432.61,-593.457 1495,-570 1513.06,-563.209 1514.97,-555.865 1533,-549 1600.71,-523.221 1622.23,-532.542 1692,-513 1701.59,-510.313 1856.18,-464.086 1862,-456 1885.36,-423.53 1881.54,-400.902 1862,-366 1854.53,-352.66 1842.04,-342.358 1828.94,-334.598"/>
<polygon fill="midnightblue" stroke="midnightblue" points="1830.29,-331.344 1819.83,-329.625 1826.93,-337.488 1830.29,-331.344"/>
</g>
<!-- Node40&#45;&gt;Node30 -->
<g id="edge116" class="edge"><title>Node40&#45;&gt;Node30</title>
<path fill="none" stroke="midnightblue" d="M1269.15,-606.429C1256.59,-598.625 1240.39,-586.088 1233,-570 1207.95,-515.479 1202.9,-486.904 1233,-435 1240.93,-421.331 1254,-410.981 1267.75,-403.281"/>
<polygon fill="midnightblue" stroke="midnightblue" points="1269.56,-406.288 1276.85,-398.596 1266.35,-400.066 1269.56,-406.288"/>
</g>
<!-- Node40&#45;&gt;Node33 -->
<g id="edge113" class="edge"><title>Node40&#45;&gt;Node33</title>
<path fill="none" stroke="midnightblue" d="M1286.15,-606.236C1286.85,-592.283 1290.07,-565.73 1304,-549 1352.71,-490.491 1441.71,-464.039 1492.93,-453.183"/>
<polygon fill="midnightblue" stroke="midnightblue" points="1493.84,-456.569 1502.95,-451.156 1492.45,-449.708 1493.84,-456.569"/>
</g>
<!-- Node40&#45;&gt;Node34 -->
<g id="edge117" class="edge"><title>Node40&#45;&gt;Node34</title>
<path fill="none" stroke="midnightblue" d="M1263.29,-606.362C1244.23,-598.187 1216.72,-585.174 1195,-570 1148.27,-537.353 1101.63,-488.54 1078.68,-463.165"/>
<polygon fill="midnightblue" stroke="midnightblue" points="1081.11,-460.635 1071.83,-455.516 1075.89,-465.302 1081.11,-460.635"/>
</g>
<!-- Node40&#45;&gt;Node37 -->
<g id="edge118" class="edge"><title>Node40&#45;&gt;Node37</title>
<path fill="none" stroke="midnightblue" d="M1314.07,-612.582C1399.74,-603.675 1658.56,-576.765 1766.7,-565.521"/>
<polygon fill="midnightblue" stroke="midnightblue" points="1767.1,-568.999 1776.69,-564.483 1766.38,-562.036 1767.1,-568.999"/>
</g>
<!-- Node41&#45;&gt;Node8 -->
<g id="edge120" class="edge"><title>Node41&#45;&gt;Node8</title>
<path fill="none" stroke="midnightblue" d="M1469.74,-614.378C1329.93,-606.149 473.348,-554.299 366,-513 326.593,-497.84 308.882,-493.765 290,-456 262.015,-400.03 366.581,-386.977 429.899,-384.123"/>
<polygon fill="midnightblue" stroke="midnightblue" points="430.201,-387.614 440.06,-383.735 429.934,-380.619 430.201,-387.614"/>
</g>
<!-- Node41&#45;&gt;Node16 -->
<g id="edge127" class="edge"><title>Node41&#45;&gt;Node16</title>
<path fill="none" stroke="midnightblue" d="M1507.93,-614.591C1612.32,-609.533 2115.35,-584.569 2183,-570 2218.27,-562.405 2314.45,-542.651 2335,-513 2354.75,-484.507 2354.87,-463.408 2335,-435 2319.11,-412.276 2292.07,-399.545 2265.89,-392.425"/>
<polygon fill="midnightblue" stroke="midnightblue" points="2266.47,-388.964 2255.93,-389.963 2264.79,-395.76 2266.47,-388.964"/>
</g>
<!-- Node41&#45;&gt;Node29 -->
<g id="edge128" class="edge"><title>Node41&#45;&gt;Node29</title>
<path fill="none" stroke="midnightblue" d="M1508.02,-614.559C1621.22,-608.929 2202.59,-579.635 2239,-570 2321.32,-548.218 2368.32,-537.503 2393,-456 2447.24,-276.866 2117.97,-357.406 1887,-330 1875.06,-328.584 1862.41,-326.928 1850.12,-325.235"/>
<polygon fill="midnightblue" stroke="midnightblue" points="1850.29,-321.725 1839.9,-323.81 1849.32,-328.658 1850.29,-321.725"/>
</g>
<!-- Node41&#45;&gt;Node30 -->
<g id="edge129" class="edge"><title>Node41&#45;&gt;Node30</title>
<path fill="none" stroke="midnightblue" d="M1469.89,-613.725C1426.86,-609.291 1324.51,-596.161 1304,-570 1267.05,-522.855 1293.05,-447.099 1310.58,-408.241"/>
<polygon fill="midnightblue" stroke="midnightblue" points="1313.96,-409.295 1315.03,-398.755 1307.62,-406.324 1313.96,-409.295"/>
</g>
<!-- Node41&#45;&gt;Node31 -->
<g id="edge136" class="edge"><title>Node41&#45;&gt;Node31</title>
<path fill="none" stroke="midnightblue" d="M1502.87,-606.418C1515.76,-597.979 1535.19,-585.257 1550.33,-575.343"/>
<polygon fill="midnightblue" stroke="midnightblue" points="1552.66,-578.002 1559.11,-569.596 1548.83,-572.145 1552.66,-578.002"/>
</g>
<!-- Node41&#45;&gt;Node42 -->
<g id="edge121" class="edge"><title>Node41&#45;&gt;Node42</title>
<path fill="none" stroke="midnightblue" d="M1470.04,-608.31C1446.56,-599.402 1406.14,-584.07 1377.41,-573.171"/>
<polygon fill="midnightblue" stroke="midnightblue" points="1378.37,-569.793 1367.78,-569.519 1375.89,-576.338 1378.37,-569.793"/>
</g>
<!-- Node41&#45;&gt;Node43 -->
<g id="edge130" class="edge"><title>Node41&#45;&gt;Node43</title>
<path fill="none" stroke="midnightblue" d="M1508.1,-608.975C1534.07,-600.104 1581.02,-584.064 1613.78,-572.874"/>
<polygon fill="midnightblue" stroke="midnightblue" points="1615.12,-576.115 1623.45,-569.571 1612.85,-569.491 1615.12,-576.115"/>
</g>
<!-- Node42&#45;&gt;Node8 -->
<g id="edge122" class="edge"><title>Node42&#45;&gt;Node8</title>
<path fill="none" stroke="midnightblue" d="M1312.85,-556.964C1171.27,-549.948 593.624,-520.95 556,-513 520.705,-505.543 424.548,-485.651 404,-456 388.181,-433.174 418.767,-410.968 444.605,-397.275"/>
<polygon fill="midnightblue" stroke="midnightblue" points="446.462,-400.258 453.815,-392.629 443.31,-394.008 446.462,-400.258"/>
</g>
<!-- Node42&#45;&gt;Node16 -->
<g id="edge124" class="edge"><title>Node42&#45;&gt;Node16</title>
<path fill="none" stroke="midnightblue" d="M1375.45,-549.431C1424.69,-535.494 1523.13,-508.679 1608,-492 1719.45,-470.098 1749.27,-476.397 1861,-456 1903.11,-448.312 1913.19,-444.175 1955,-435 2011.12,-422.684 2074.72,-408.993 2122.2,-398.825"/>
<polygon fill="midnightblue" stroke="midnightblue" points="2123.03,-402.226 2132.07,-396.71 2121.56,-395.381 2123.03,-402.226"/>
</g>
<!-- Node42&#45;&gt;Node29 -->
<g id="edge125" class="edge"><title>Node42&#45;&gt;Node29</title>
<path fill="none" stroke="midnightblue" d="M1362.53,-549.398C1392.83,-534.916 1455.19,-506.76 1511,-492 1567.18,-477.144 1730.62,-498.732 1770,-456 1798.91,-424.625 1792.33,-370.835 1785.07,-339.389"/>
<polygon fill="midnightblue" stroke="midnightblue" points="1788.45,-338.498 1782.63,-329.646 1781.66,-340.197 1788.45,-338.498"/>
</g>
<!-- Node42&#45;&gt;Node30 -->
<g id="edge126" class="edge"><title>Node42&#45;&gt;Node30</title>
<path fill="none" stroke="midnightblue" d="M1338.69,-549.396C1327.54,-529.202 1303.13,-478.958 1309,-435 1310.19,-426.12 1312.47,-416.602 1314.86,-408.194"/>
<polygon fill="midnightblue" stroke="midnightblue" points="1318.21,-409.191 1317.75,-398.606 1311.51,-407.167 1318.21,-409.191"/>
</g>
<!-- Node42&#45;&gt;Node32 -->
<g id="edge123" class="edge"><title>Node42&#45;&gt;Node32</title>
<path fill="none" stroke="midnightblue" d="M1375.31,-552.873C1430.28,-542.991 1544.24,-522.508 1606.72,-511.28"/>
<polygon fill="midnightblue" stroke="midnightblue" points="1607.43,-514.708 1616.65,-509.494 1606.19,-507.818 1607.43,-514.708"/>
</g>
<!-- Node43&#45;&gt;Node8 -->
<g id="edge131" class="edge"><title>Node43&#45;&gt;Node8</title>
<path fill="none" stroke="midnightblue" d="M1621.44,-550.525C1618.6,-549.927 1615.76,-549.402 1613,-549 1197.97,-488.504 1079.82,-602.228 670,-513 646.048,-507.785 641.885,-500.784 619,-492 574.51,-474.923 554.786,-486.295 518,-456 500.764,-441.806 488.799,-418.777 481.944,-402.487"/>
<polygon fill="midnightblue" stroke="midnightblue" points="485.096,-400.938 478.174,-392.916 478.583,-403.503 485.096,-400.938"/>
</g>
<!-- Node43&#45;&gt;Node16 -->
<g id="edge133" class="edge"><title>Node43&#45;&gt;Node16</title>
<path fill="none" stroke="midnightblue" d="M1678.49,-556.15C1788.59,-547.06 2180.25,-514.625 2183,-513 2216.19,-493.374 2230.22,-472.443 2221,-435 2218.69,-425.599 2214.32,-416.014 2209.75,-407.702"/>
<polygon fill="midnightblue" stroke="midnightblue" points="2212.7,-405.799 2204.62,-398.936 2206.66,-409.334 2212.7,-405.799"/>
</g>
<!-- Node43&#45;&gt;Node29 -->
<g id="edge134" class="edge"><title>Node43&#45;&gt;Node29</title>
<path fill="none" stroke="midnightblue" d="M1678.33,-556.063C1744.05,-550.124 1905.11,-533.847 1955,-513 1974.48,-504.861 2021.56,-474.882 2031,-456 2048.89,-420.223 2056.46,-396.855 2031,-366 1979.51,-303.587 1931.28,-344.034 1850.1,-330.823"/>
<polygon fill="midnightblue" stroke="midnightblue" points="1850.51,-327.338 1840.04,-328.935 1849.22,-334.218 1850.51,-327.338"/>
</g>
<!-- Node43&#45;&gt;Node30 -->
<g id="edge135" class="edge"><title>Node43&#45;&gt;Node30</title>
<path fill="none" stroke="midnightblue" d="M1630.71,-549.401C1594.75,-532.256 1515.28,-493.506 1451,-456 1436.31,-447.427 1433.62,-443.696 1419,-435 1400.45,-423.967 1379.36,-412.538 1361.69,-403.257"/>
<polygon fill="midnightblue" stroke="midnightblue" points="1363.27,-400.136 1352.79,-398.614 1360.03,-406.342 1363.27,-400.136"/>
</g>
<!-- Node43&#45;&gt;Node32 -->
<g id="edge132" class="edge"><title>Node43&#45;&gt;Node32</title>
<path fill="none" stroke="midnightblue" d="M1650,-549.418C1650,-542.216 1650,-531.896 1650,-522.863"/>
<polygon fill="midnightblue" stroke="midnightblue" points="1653.5,-522.779 1650,-512.779 1646.5,-522.779 1653.5,-522.779"/>
</g>
<!-- Node44&#45;&gt;Node8 -->
<g id="edge138" class="edge"><title>Node44&#45;&gt;Node8</title>
<path fill="none" stroke="midnightblue" d="M1408.72,-672.394C1232.4,-671.578 227.106,-665.256 176,-627 106.361,-574.871 81.3259,-500.993 138,-435 175.118,-391.779 346.992,-384.439 429.954,-383.457"/>
<polygon fill="midnightblue" stroke="midnightblue" points="430.126,-386.955 440.093,-383.363 430.061,-379.956 430.126,-386.955"/>
</g>
<!-- Node44&#45;&gt;Node16 -->
<g id="edge140" class="edge"><title>Node44&#45;&gt;Node16</title>
<path fill="none" stroke="midnightblue" d="M1461.29,-671.429C1602.97,-665.621 2270.7,-637.765 2313,-627 2369.83,-612.535 2392.86,-613.669 2432,-570 2472.05,-525.321 2476.98,-474.708 2432,-435 2407.64,-413.5 2326.75,-399.253 2265.98,-391.3"/>
<polygon fill="midnightblue" stroke="midnightblue" points="2266.4,-387.824 2256.03,-390.03 2265.51,-394.768 2266.4,-387.824"/>
</g>
<!-- Node44&#45;&gt;Node29 -->
<g id="edge141" class="edge"><title>Node44&#45;&gt;Node29</title>
<path fill="none" stroke="midnightblue" d="M1461.12,-671.404C1609.63,-665.151 2341.87,-634.009 2364,-627 2471.68,-592.893 2524.16,-565.464 2552,-456 2559.41,-426.876 2537.54,-367.297 2536,-366 2480.72,-319.519 1958.87,-337.09 1887,-330 1875.11,-328.827 1862.53,-327.303 1850.31,-325.669"/>
<polygon fill="midnightblue" stroke="midnightblue" points="1850.52,-322.167 1840.14,-324.276 1849.57,-329.102 1850.52,-322.167"/>
</g>
<!-- Node44&#45;&gt;Node30 -->
<g id="edge142" class="edge"><title>Node44&#45;&gt;Node30</title>
<path fill="none" stroke="midnightblue" d="M1408.79,-672.329C1345.88,-671.306 1189.22,-664.922 1157,-627 1101.75,-561.97 1106.38,-503.7 1157,-435 1163.12,-426.689 1210.13,-412.548 1252.57,-401.185"/>
<polygon fill="midnightblue" stroke="midnightblue" points="1253.61,-404.529 1262.38,-398.584 1251.81,-397.763 1253.61,-404.529"/>
</g>
<!-- Node44&#45;&gt;Node41 -->
<g id="edge139" class="edge"><title>Node44&#45;&gt;Node41</title>
<path fill="none" stroke="midnightblue" d="M1443.92,-663.418C1451.76,-655.425 1463.38,-643.59 1472.86,-633.938"/>
<polygon fill="midnightblue" stroke="midnightblue" points="1475.38,-636.367 1479.89,-626.779 1470.39,-631.463 1475.38,-636.367"/>
</g>
<!-- Node44&#45;&gt;Node42 -->
<g id="edge143" class="edge"><title>Node44&#45;&gt;Node42</title>
<path fill="none" stroke="midnightblue" d="M1427.55,-663.335C1412.36,-644.63 1377.56,-601.799 1358,-577.731"/>
<polygon fill="midnightblue" stroke="midnightblue" points="1360.57,-575.346 1351.55,-569.792 1355.14,-579.76 1360.57,-575.346"/>
</g>
<!-- Node45&#45;&gt;Node8 -->
<g id="edge148" class="edge"><title>Node45&#45;&gt;Node8</title>
<path fill="none" stroke="midnightblue" d="M1431.98,-554.544C1417.73,-552.594 1399.95,-550.372 1384,-549 1033.82,-518.892 938.318,-583.569 594,-513 585.165,-511.189 447.137,-463.413 442,-456 429.771,-438.353 444.511,-415.446 458.007,-400.149"/>
<polygon fill="midnightblue" stroke="midnightblue" points="460.889,-402.195 465.198,-392.516 455.793,-397.395 460.889,-402.195"/>
</g>
<!-- Node45&#45;&gt;Node16 -->
<g id="edge150" class="edge"><title>Node45&#45;&gt;Node16</title>
<path fill="none" stroke="midnightblue" d="M1486.02,-554.162C1582.2,-538.611 1907.57,-485.043 2009,-456 2059.23,-441.617 2114.78,-418.874 2151.78,-402.699"/>
<polygon fill="midnightblue" stroke="midnightblue" points="2153.49,-405.767 2161.23,-398.531 2150.67,-399.362 2153.49,-405.767"/>
</g>
<!-- Node45&#45;&gt;Node29 -->
<g id="edge151" class="edge"><title>Node45&#45;&gt;Node29</title>
<path fill="none" stroke="midnightblue" d="M1475.92,-549.347C1503.03,-535.051 1558.22,-507.462 1608,-492 1692.16,-465.857 1746.62,-523.739 1803,-456 1830.77,-422.637 1809.24,-369.257 1792.6,-338.484"/>
<polygon fill="midnightblue" stroke="midnightblue" points="1795.61,-336.699 1787.65,-329.707 1789.51,-340.137 1795.61,-336.699"/>
</g>
<!-- Node45&#45;&gt;Node30 -->
<g id="edge152" class="edge"><title>Node45&#45;&gt;Node30</title>
<path fill="none" stroke="midnightblue" d="M1451.69,-549.091C1430.97,-522.426 1371.39,-445.771 1341.12,-406.82"/>
<polygon fill="midnightblue" stroke="midnightblue" points="1343.69,-404.415 1334.79,-398.667 1338.16,-408.711 1343.69,-404.415"/>
</g>
<!-- Node45&#45;&gt;Node32 -->
<g id="edge149" class="edge"><title>Node45&#45;&gt;Node32</title>
<path fill="none" stroke="midnightblue" d="M1485.96,-550.736C1517.92,-541.534 1571.52,-526.099 1608.71,-515.389"/>
<polygon fill="midnightblue" stroke="midnightblue" points="1610.1,-518.633 1618.74,-512.502 1608.16,-511.906 1610.1,-518.633"/>
</g>
<!-- Node46&#45;&gt;Node8 -->
<g id="edge154" class="edge"><title>Node46&#45;&gt;Node8</title>
<path fill="none" stroke="midnightblue" d="M754.622,-497.067C715.486,-490.99 648.143,-478.215 594,-456 557.052,-440.84 518.27,-415.083 495.385,-398.701"/>
<polygon fill="midnightblue" stroke="midnightblue" points="497.301,-395.766 487.153,-392.719 493.186,-401.429 497.301,-395.766"/>
</g>
<!-- Node46&#45;&gt;Node16 -->
<g id="edge161" class="edge"><title>Node46&#45;&gt;Node16</title>
<path fill="none" stroke="midnightblue" d="M819.356,-501.446C943.091,-500.935 1398.03,-496.256 1770,-456 1894.5,-442.526 2037.81,-415.598 2121.88,-398.622"/>
<polygon fill="midnightblue" stroke="midnightblue" points="2122.73,-402.021 2131.83,-396.602 2121.34,-395.161 2122.73,-402.021"/>
</g>
<!-- Node46&#45;&gt;Node29 -->
<g id="edge162" class="edge"><title>Node46&#45;&gt;Node29</title>
<path fill="none" stroke="midnightblue" d="M819.45,-494.454C850.677,-487.047 898.797,-473.965 938,-456 953.804,-448.758 955.174,-442.196 971,-435 1069.7,-390.122 1098.49,-386.285 1205,-366 1382.98,-332.104 1596.43,-320.387 1705.72,-316.436"/>
<polygon fill="midnightblue" stroke="midnightblue" points="1706.1,-319.925 1715.97,-316.077 1705.85,-312.929 1706.1,-319.925"/>
</g>
<!-- Node46&#45;&gt;Node30 -->
<g id="edge163" class="edge"><title>Node46&#45;&gt;Node30</title>
<path fill="none" stroke="midnightblue" d="M819.412,-494.356C864.388,-484.293 943.318,-466.053 971,-456 990.991,-448.74 993.744,-441.483 1014,-435 1092.87,-409.758 1187.24,-396.324 1250.77,-389.581"/>
<polygon fill="midnightblue" stroke="midnightblue" points="1251.49,-393.025 1261.08,-388.516 1250.78,-386.062 1251.49,-393.025"/>
</g>
<!-- Node46&#45;&gt;Node47 -->
<g id="edge155" class="edge"><title>Node46&#45;&gt;Node47</title>
<path fill="none" stroke="midnightblue" d="M806.981,-492.418C826.51,-483.541 856.464,-469.925 878.69,-459.823"/>
<polygon fill="midnightblue" stroke="midnightblue" points="880.334,-462.92 887.99,-455.596 877.438,-456.547 880.334,-462.92"/>
</g>
<!-- Node47&#45;&gt;Node8 -->
<g id="edge156" class="edge"><title>Node47&#45;&gt;Node8</title>
<path fill="none" stroke="midnightblue" d="M887.475,-437.466C884.327,-436.542 881.094,-435.682 878,-435 749.714,-406.732 594.794,-392.337 519.888,-386.591"/>
<polygon fill="midnightblue" stroke="midnightblue" points="520.095,-383.097 509.861,-385.837 519.57,-390.077 520.095,-383.097"/>
</g>
<!-- Node47&#45;&gt;Node15 -->
<g id="edge157" class="edge"><title>Node47&#45;&gt;Node15</title>
<path fill="none" stroke="midnightblue" d="M893.392,-435.499C880.018,-427.259 859.729,-414.757 842.397,-404.078"/>
<polygon fill="midnightblue" stroke="midnightblue" points="844.005,-400.957 833.655,-398.691 840.332,-406.917 844.005,-400.957"/>
</g>
<!-- Node47&#45;&gt;Node16 -->
<g id="edge158" class="edge"><title>Node47&#45;&gt;Node16</title>
<path fill="none" stroke="midnightblue" d="M928.696,-442.363C950.045,-440.225 984.319,-436.977 1014,-435 1433.18,-407.083 1937.19,-390.865 2121.77,-385.501"/>
<polygon fill="midnightblue" stroke="midnightblue" points="2122,-388.996 2131.89,-385.209 2121.8,-381.999 2122,-388.996"/>
</g>
<!-- Node47&#45;&gt;Node29 -->
<g id="edge159" class="edge"><title>Node47&#45;&gt;Node29</title>
<path fill="none" stroke="midnightblue" d="M916.953,-435.444C935.902,-416.508 979.886,-373.832 999,-366 1063.32,-339.643 1524.79,-322.457 1705.6,-316.669"/>
<polygon fill="midnightblue" stroke="midnightblue" points="1705.92,-320.161 1715.81,-316.345 1705.7,-313.164 1705.92,-320.161"/>
</g>
<!-- Node47&#45;&gt;Node30 -->
<g id="edge160" class="edge"><title>Node47&#45;&gt;Node30</title>
<path fill="none" stroke="midnightblue" d="M928.58,-441.475C986.631,-432.942 1153.75,-408.378 1250.81,-394.111"/>
<polygon fill="midnightblue" stroke="midnightblue" points="1251.46,-397.553 1260.85,-392.636 1250.44,-390.627 1251.46,-397.553"/>
</g>
<!-- Node48&#45;&gt;Node8 -->
<g id="edge166" class="edge"><title>Node48&#45;&gt;Node8</title>
<path fill="none" stroke="midnightblue" d="M1692.71,-442.255C1660.91,-440.213 1612.27,-437.193 1570,-435 1200.37,-415.822 1107.64,-417.888 738,-399 661.504,-395.091 572.546,-389.664 520.165,-386.377"/>
<polygon fill="midnightblue" stroke="midnightblue" points="520.075,-382.864 509.875,-385.729 519.635,-389.851 520.075,-382.864"/>
</g>
<!-- Node48&#45;&gt;Node15 -->
<g id="edge167" class="edge"><title>Node48&#45;&gt;Node15</title>
<path fill="none" stroke="midnightblue" d="M1692.69,-442.22C1558.52,-433.304 1067.6,-400.684 881.334,-388.307"/>
<polygon fill="midnightblue" stroke="midnightblue" points="881.311,-384.797 871.101,-387.627 880.847,-391.782 881.311,-384.797"/>
</g>
<!-- Node48&#45;&gt;Node16 -->
<g id="edge168" class="edge"><title>Node48&#45;&gt;Node16</title>
<path fill="none" stroke="midnightblue" d="M1761.34,-440.015C1837.07,-430.122 2019.78,-406.256 2121.89,-392.919"/>
<polygon fill="midnightblue" stroke="midnightblue" points="2122.35,-396.388 2131.82,-391.622 2121.45,-389.447 2122.35,-396.388"/>
</g>
<!-- Node48&#45;&gt;Node29 -->
<g id="edge169" class="edge"><title>Node48&#45;&gt;Node29</title>
<path fill="none" stroke="midnightblue" d="M1730.67,-435.151C1738.47,-415.257 1756.94,-368.176 1768.37,-339.059"/>
<polygon fill="midnightblue" stroke="midnightblue" points="1771.69,-340.171 1772.08,-329.583 1765.17,-337.614 1771.69,-340.171"/>
</g>
<!-- Node48&#45;&gt;Node30 -->
<g id="edge170" class="edge"><title>Node48&#45;&gt;Node30</title>
<path fill="none" stroke="midnightblue" d="M1692.69,-437.486C1688.1,-436.612 1683.44,-435.76 1679,-435 1581.17,-418.254 1467.6,-402.451 1395.54,-392.875"/>
<polygon fill="midnightblue" stroke="midnightblue" points="1395.59,-389.351 1385.21,-391.508 1394.67,-396.29 1395.59,-389.351"/>
</g>
<!-- Node49&#45;&gt;Node8 -->
<g id="edge172" class="edge"><title>Node49&#45;&gt;Node8</title>
<path fill="none" stroke="midnightblue" d="M637.817,-435.499C604.809,-424.957 549.97,-407.443 513.167,-395.69"/>
<polygon fill="midnightblue" stroke="midnightblue" points="513.889,-392.246 503.298,-392.538 511.759,-398.914 513.889,-392.246"/>
</g>
<!-- Node49&#45;&gt;Node15 -->
<g id="edge173" class="edge"><title>Node49&#45;&gt;Node15</title>
<path fill="none" stroke="midnightblue" d="M687.1,-435.499C707.374,-426.851 738.647,-413.511 764.441,-402.508"/>
<polygon fill="midnightblue" stroke="midnightblue" points="765.841,-405.716 773.666,-398.573 763.095,-399.277 765.841,-405.716"/>
</g>
<!-- Node49&#45;&gt;Node16 -->
<g id="edge174" class="edge"><title>Node49&#45;&gt;Node16</title>
<path fill="none" stroke="midnightblue" d="M696.117,-436.52C699.103,-435.923 702.1,-435.399 705,-435 845.807,-415.623 1842.48,-391.555 2121.54,-385.136"/>
<polygon fill="midnightblue" stroke="midnightblue" points="2122.03,-388.626 2131.95,-384.897 2121.87,-381.627 2122.03,-388.626"/>
</g>
<!-- Node49&#45;&gt;Node29 -->
<g id="edge175" class="edge"><title>Node49&#45;&gt;Node29</title>
<path fill="none" stroke="midnightblue" d="M671.066,-435.334C681.176,-418.084 705.693,-381.171 738,-366 824.931,-325.179 1484.15,-316.642 1705.66,-314.92"/>
<polygon fill="midnightblue" stroke="midnightblue" points="1705.9,-318.418 1715.87,-314.843 1705.84,-311.418 1705.9,-318.418"/>
</g>
<!-- Node49&#45;&gt;Node30 -->
<g id="edge176" class="edge"><title>Node49&#45;&gt;Node30</title>
<path fill="none" stroke="midnightblue" d="M696.139,-436.667C699.12,-436.04 702.111,-435.469 705,-435 900.741,-403.203 1134.73,-390.501 1250.61,-385.878"/>
<polygon fill="midnightblue" stroke="midnightblue" points="1250.91,-389.368 1260.77,-385.481 1250.64,-382.374 1250.91,-389.368"/>
</g>
<!-- Node50&#45;&gt;Node8 -->
<g id="edge178" class="edge"><title>Node50&#45;&gt;Node8</title>
<path fill="none" stroke="midnightblue" d="M713.66,-437.215C710.743,-436.449 707.811,-435.696 705,-435 640.931,-419.14 566.289,-402.821 519.833,-392.917"/>
<polygon fill="midnightblue" stroke="midnightblue" points="520.302,-389.439 509.793,-390.783 518.847,-396.286 520.302,-389.439"/>
</g>
<!-- Node50&#45;&gt;Node15 -->
<g id="edge179" class="edge"><title>Node50&#45;&gt;Node15</title>
<path fill="none" stroke="midnightblue" d="M750.181,-435.499C759.075,-427.637 772.356,-415.895 784.049,-405.558"/>
<polygon fill="midnightblue" stroke="midnightblue" points="786.642,-407.937 791.816,-398.691 782.006,-402.693 786.642,-407.937"/>
</g>
<!-- Node50&#45;&gt;Node16 -->
<g id="edge180" class="edge"><title>Node50&#45;&gt;Node16</title>
<path fill="none" stroke="midnightblue" d="M766.206,-436.866C769.481,-436.125 772.803,-435.474 776,-435 909.375,-415.23 1851.73,-391.609 2121.82,-385.183"/>
<polygon fill="midnightblue" stroke="midnightblue" points="2121.99,-388.68 2131.9,-384.944 2121.82,-381.682 2121.99,-388.68"/>
</g>
<!-- Node50&#45;&gt;Node29 -->
<g id="edge181" class="edge"><title>Node50&#45;&gt;Node29</title>
<path fill="none" stroke="midnightblue" d="M766.259,-437.552C801.172,-428.045 860.715,-410.819 880,-399 897.685,-388.162 894.082,-374.504 913,-366 984.361,-333.924 1510.93,-319.971 1705.78,-315.868"/>
<polygon fill="midnightblue" stroke="midnightblue" points="1705.99,-319.365 1715.91,-315.658 1705.84,-312.366 1705.99,-319.365"/>
</g>
<!-- Node50&#45;&gt;Node30 -->
<g id="edge182" class="edge"><title>Node50&#45;&gt;Node30</title>
<path fill="none" stroke="midnightblue" d="M766.235,-437.045C769.506,-436.273 772.818,-435.566 776,-435 944.594,-405.028 1145.73,-391.766 1250.85,-386.518"/>
<polygon fill="midnightblue" stroke="midnightblue" points="1251.21,-390.004 1261.03,-386.02 1250.87,-383.013 1251.21,-390.004"/>
</g>
</g>
</svg>
