<?xml version="1.0" encoding="UTF-8" standalone="no"?>
<!DOCTYPE svg PUBLIC "-//W3C//DTD SVG 1.1//EN"
 "http://www.w3.org/Graphics/SVG/1.1/DTD/svg11.dtd">
<!-- Generated by graphviz version 2.38.0 (20140413.2041)
 -->
<!-- Title: Objects/interface/Event.h Pages: 1 -->
<svg width="341pt" height="86pt"
 viewBox="0.00 0.00 340.61 86.00" xmlns="http://www.w3.org/2000/svg" xmlns:xlink="http://www.w3.org/1999/xlink">
<g id="graph0" class="graph" transform="scale(1 1) rotate(0) translate(4 82)">
<title>Objects/interface/Event.h</title>
<polygon fill="white" stroke="none" points="-4,4 -4,-82 336.61,-82 336.61,4 -4,4"/>
<!-- Node1 -->
<g id="node1" class="node"><title>Node1</title>
<polygon fill="#bfbfbf" stroke="black" points="82.3245,-57.5 82.3245,-77.5 210.024,-77.5 210.024,-57.5 82.3245,-57.5"/>
<text text-anchor="middle" x="146.174" y="-64.5" font-family="Helvetica,sans-Serif" font-size="10.00">Objects/interface/Event.h</text>
</g>
<!-- Node2 -->
<g id="node2" class="node"><title>Node2</title>
<g id="a_node2"><a xlink:href="LinkDef_8h.html" target="_top" xlink:title="obj/LinkDef.h">
<polygon fill="white" stroke="black" points="0,-0.5 0,-20.5 74.348,-20.5 74.348,-0.5 0,-0.5"/>
<text text-anchor="middle" x="37.174" y="-7.5" font-family="Helvetica,sans-Serif" font-size="10.00">obj/LinkDef.h</text>
</a>
</g>
</g>
<!-- Node1&#45;&gt;Node2 -->
<g id="edge1" class="edge"><title>Node1&#45;&gt;Node2</title>
<path fill="none" stroke="midnightblue" d="M118.989,-52.7829C99.0625,-42.7282 72.5651,-29.3579 55.1999,-20.5956"/>
<polygon fill="midnightblue" stroke="midnightblue" points="117.67,-56.0377 128.175,-57.4179 120.824,-49.7882 117.67,-56.0377"/>
</g>
<!-- Node3 -->
<g id="node3" class="node"><title>Node3</title>
<g id="a_node3"><a xlink:href="Event_8cc.html" target="_top" xlink:title="Objects/src/Event.cc">
<polygon fill="white" stroke="black" points="92.6105,-0.5 92.6105,-20.5 199.738,-20.5 199.738,-0.5 92.6105,-0.5"/>
<text text-anchor="middle" x="146.174" y="-7.5" font-family="Helvetica,sans-Serif" font-size="10.00">Objects/src/Event.cc</text>
</a>
</g>
</g>
<!-- Node1&#45;&gt;Node3 -->
<g id="edge2" class="edge"><title>Node1&#45;&gt;Node3</title>
<path fill="none" stroke="midnightblue" d="M146.174,-47.383C146.174,-38.3738 146.174,-28.0373 146.174,-20.7795"/>
<polygon fill="midnightblue" stroke="midnightblue" points="142.674,-47.4178 146.174,-57.4179 149.674,-47.4179 142.674,-47.4178"/>
</g>
<!-- Node4 -->
<g id="node4" class="node"><title>Node4</title>
<g id="a_node4"><a xlink:href="FileMerger_8cc.html" target="_top" xlink:title="Utils/src/FileMerger.cc">
<polygon fill="white" stroke="black" points="217.738,-0.5 217.738,-20.5 332.61,-20.5 332.61,-0.5 217.738,-0.5"/>
<text text-anchor="middle" x="275.174" y="-7.5" font-family="Helvetica,sans-Serif" font-size="10.00">Utils/src/FileMerger.cc</text>
</a>
</g>
</g>
<!-- Node1&#45;&gt;Node4 -->
<g id="edge3" class="edge"><title>Node1&#45;&gt;Node4</title>
<path fill="none" stroke="midnightblue" d="M176.751,-53.4633C200.499,-43.3383 232.822,-29.5571 253.841,-20.5956"/>
<polygon fill="midnightblue" stroke="midnightblue" points="175.302,-50.2762 167.476,-57.4179 178.047,-56.7154 175.302,-50.2762"/>
</g>
</g>
</svg>
