<?xml version="1.0" encoding="UTF-8" standalone="no"?>
<!DOCTYPE svg PUBLIC "-//W3C//DTD SVG 1.1//EN"
 "http://www.w3.org/Graphics/SVG/1.1/DTD/svg11.dtd">
<!-- Generated by graphviz version 2.38.0 (20140413.2041)
 -->
<!-- Title: Objects/src/FatJet.cc Pages: 1 -->
<!--zoomable 749 -->
<svg id="main" version="1.1" xmlns="http://www.w3.org/2000/svg" xmlns:xlink="http://www.w3.org/1999/xlink" xml:space="preserve" onload="init(evt)">
<style type="text/css"><![CDATA[
.edge:hover path { stroke: red; }
.edge:hover polygon { stroke: red; fill: red; }
]]></style>
<script type="text/javascript"><![CDATA[
var edges = document.getElementsByTagName('g');
if (edges && edges.length) {
  for (var i=0;i<edges.length;i++) {
    if (edges[i].id.substr(0,4)=='edge') {
      edges[i].setAttribute('class','edge');
    }
  }
}
]]></script>
        <defs>
                <circle id="rim" cx="0" cy="0" r="7"/>
                <circle id="rim2" cx="0" cy="0" r="3.5"/>
                <g id="zoomPlus">
                        <use xlink:href="#rim" fill="#404040">
                                <set attributeName="fill" to="#808080" begin="zoomplus.mouseover" end="zoomplus.mouseout"/>
                        </use>
                        <path d="M-4,0h8M0,-4v8" fill="none" stroke="white" stroke-width="1.5" pointer-events="none"/>
                </g>
                <g id="zoomMin">
                        <use xlink:href="#rim" fill="#404040">
                                <set attributeName="fill" to="#808080" begin="zoomminus.mouseover" end="zoomminus.mouseout"/>
                        </use>
                        <path d="M-4,0h8" fill="none" stroke="white" stroke-width="1.5" pointer-events="none"/>
                </g>
                <g id="dirArrow">
                        <path fill="none" stroke="white" stroke-width="1.5" d="M0,-3.0v7 M-2.5,-0.5L0,-3.0L2.5,-0.5"/>
                </g>
               <g id="resetDef">
                       <use xlink:href="#rim2" fill="#404040">
                               <set attributeName="fill" to="#808080" begin="reset.mouseover" end="reset.mouseout"/>
                       </use>
               </g>
        </defs>

<script type="text/javascript">
var viewWidth = 1219;
var viewHeight = 749;
var sectionId = 'dynsection-0';
</script>
<script xlink:href="svgpan.js"/>
<svg id="graph" class="graph">
<g id="viewport">
<title>Objects/src/FatJet.cc</title>
<polygon fill="white" stroke="none" points="-4,4 -4,-745 1215.12,-745 1215.12,4 -4,4"/>
<!-- Node1 -->
<g id="node1" class="node"><title>Node1</title>
<polygon fill="#bfbfbf" stroke="black" points="747.94,-720.5 747.94,-740.5 857.286,-740.5 857.286,-720.5 747.94,-720.5"/>
<text text-anchor="middle" x="802.613" y="-727.5" font-family="Helvetica,sans-Serif" font-size="10.00">Objects/src/FatJet.cc</text>
</g>
<!-- Node2 -->
<g id="node2" class="node"><title>Node2</title>
<g id="a_node2"><a xlink:href="FatJet_8h.html" target="_top" xlink:title="../interface/FatJet.h">
<polygon fill="white" stroke="black" points="751.823,-663.5 751.823,-683.5 853.404,-683.5 853.404,-663.5 751.823,-663.5"/>
<text text-anchor="middle" x="802.613" y="-670.5" font-family="Helvetica,sans-Serif" font-size="10.00">../interface/FatJet.h</text>
</a>
</g>
</g>
<!-- Node1&#45;&gt;Node2 -->
<g id="edge1" class="edge"><title>Node1&#45;&gt;Node2</title>
<path fill="none" stroke="midnightblue" d="M802.613,-720.418C802.613,-713.216 802.613,-702.896 802.613,-693.863"/>
<polygon fill="midnightblue" stroke="midnightblue" points="806.113,-693.779 802.613,-683.779 799.113,-693.779 806.113,-693.779"/>
</g>
<!-- Node3 -->
<g id="node3" class="node"><title>Node3</title>
<g id="a_node3"><a xlink:href="Constants_8h.html" target="_top" xlink:title="Constants.h">
<polygon fill="white" stroke="black" points="193.938,-372.5 193.938,-392.5 263.289,-392.5 263.289,-372.5 193.938,-372.5"/>
<text text-anchor="middle" x="228.613" y="-379.5" font-family="Helvetica,sans-Serif" font-size="10.00">Constants.h</text>
</a>
</g>
</g>
<!-- Node2&#45;&gt;Node3 -->
<g id="edge2" class="edge"><title>Node2&#45;&gt;Node3</title>
<path fill="none" stroke="midnightblue" d="M751.649,-671.738C615.291,-669.266 249.509,-659.632 206.613,-627 181.605,-607.976 182.613,-591.921 182.613,-560.5 182.613,-560.5 182.613,-560.5 182.613,-501.5 182.613,-463.768 203.283,-423.599 216.911,-401.215"/>
<polygon fill="midnightblue" stroke="midnightblue" points="220.028,-402.835 222.409,-392.512 214.109,-399.097 220.028,-402.835"/>
</g>
<!-- Node11 -->
<g id="node11" class="node"><title>Node11</title>
<g id="a_node11"><a xlink:href="Jet_8h.html" target="_top" xlink:title="Jet.h">
<polygon fill="white" stroke="black" points="750.775,-606.5 750.775,-626.5 788.451,-626.5 788.451,-606.5 750.775,-606.5"/>
<text text-anchor="middle" x="769.613" y="-613.5" font-family="Helvetica,sans-Serif" font-size="10.00">Jet.h</text>
</a>
</g>
</g>
<!-- Node2&#45;&gt;Node11 -->
<g id="edge10" class="edge"><title>Node2&#45;&gt;Node11</title>
<path fill="none" stroke="midnightblue" d="M797.164,-663.418C792.605,-655.821 785.965,-644.753 780.345,-635.387"/>
<polygon fill="midnightblue" stroke="midnightblue" points="783.327,-633.554 775.181,-626.779 777.324,-637.155 783.327,-633.554"/>
</g>
<!-- Node12 -->
<g id="node12" class="node"><title>Node12</title>
<g id="a_node12"><a xlink:href="MicroJet_8h.html" target="_top" xlink:title="MicroJet.h">
<polygon fill="white" stroke="black" points="841.557,-549.5 841.557,-569.5 903.669,-569.5 903.669,-549.5 841.557,-549.5"/>
<text text-anchor="middle" x="872.613" y="-556.5" font-family="Helvetica,sans-Serif" font-size="10.00">MicroJet.h</text>
</a>
</g>
</g>
<!-- Node2&#45;&gt;Node12 -->
<g id="edge82" class="edge"><title>Node2&#45;&gt;Node12</title>
<path fill="none" stroke="midnightblue" d="M808.341,-663.335C819.929,-644.794 846.332,-602.549 861.445,-578.369"/>
<polygon fill="midnightblue" stroke="midnightblue" points="864.473,-580.127 866.805,-569.792 858.537,-576.417 864.473,-580.127"/>
</g>
<!-- Node20 -->
<g id="node20" class="node"><title>Node20</title>
<g id="a_node20"><a xlink:href="Container_8h.html" target="_top" xlink:title="../../Framework/interface\l/Container.h">
<polygon fill="white" stroke="black" points="956.72,-366.5 956.72,-398.5 1080.51,-398.5 1080.51,-366.5 956.72,-366.5"/>
<text text-anchor="start" x="964.72" y="-385.5" font-family="Helvetica,sans-Serif" font-size="10.00">../../Framework/interface</text>
<text text-anchor="middle" x="1018.61" y="-373.5" font-family="Helvetica,sans-Serif" font-size="10.00">/Container.h</text>
</a>
</g>
</g>
<!-- Node2&#45;&gt;Node20 -->
<g id="edge79" class="edge"><title>Node2&#45;&gt;Node20</title>
<path fill="none" stroke="midnightblue" d="M853.452,-665.994C946.02,-652.717 1132.61,-618.733 1132.61,-560.5 1132.61,-560.5 1132.61,-560.5 1132.61,-501.5 1132.61,-457.628 1091.35,-423.834 1058.47,-403.871"/>
<polygon fill="midnightblue" stroke="midnightblue" points="1059.86,-400.631 1049.46,-398.611 1056.33,-406.676 1059.86,-400.631"/>
</g>
<!-- Node31 -->
<g id="node31" class="node"><title>Node31</title>
<g id="a_node31"><a xlink:href="Ref_8h.html" target="_top" xlink:title="../../Framework/interface\l/Ref.h">
<polygon fill="white" stroke="black" points="505.72,-297.5 505.72,-329.5 629.507,-329.5 629.507,-297.5 505.72,-297.5"/>
<text text-anchor="start" x="513.72" y="-316.5" font-family="Helvetica,sans-Serif" font-size="10.00">../../Framework/interface</text>
<text text-anchor="middle" x="567.613" y="-304.5" font-family="Helvetica,sans-Serif" font-size="10.00">/Ref.h</text>
</a>
</g>
</g>
<!-- Node2&#45;&gt;Node31 -->
<g id="edge80" class="edge"><title>Node2&#45;&gt;Node31</title>
<path fill="none" stroke="midnightblue" d="M751.729,-668.068C609.92,-655.037 220.613,-614.359 220.613,-560.5 220.613,-560.5 220.613,-560.5 220.613,-501.5 220.613,-436.679 410.634,-365.391 509.442,-332.704"/>
<polygon fill="midnightblue" stroke="midnightblue" points="510.588,-336.011 518.999,-329.568 508.406,-329.36 510.588,-336.011"/>
</g>
<!-- Node32 -->
<g id="node32" class="node"><title>Node32</title>
<g id="a_node32"><a xlink:href="RefVector_8h.html" target="_top" xlink:title="../../Framework/interface\l/RefVector.h">
<polygon fill="white" stroke="black" points="652.72,-366.5 652.72,-398.5 776.507,-398.5 776.507,-366.5 652.72,-366.5"/>
<text text-anchor="start" x="660.72" y="-385.5" font-family="Helvetica,sans-Serif" font-size="10.00">../../Framework/interface</text>
<text text-anchor="middle" x="714.613" y="-373.5" font-family="Helvetica,sans-Serif" font-size="10.00">/RefVector.h</text>
</a>
</g>
</g>
<!-- Node2&#45;&gt;Node32 -->
<g id="edge81" class="edge"><title>Node2&#45;&gt;Node32</title>
<path fill="none" stroke="midnightblue" d="M818.865,-663.442C844.499,-648.099 893.38,-614.295 912.613,-570 927.987,-534.594 965.22,-511.884 899.613,-435 895.644,-430.349 835.458,-414.113 784.797,-401.099"/>
<polygon fill="midnightblue" stroke="midnightblue" points="785.367,-397.632 774.811,-398.544 783.631,-404.414 785.367,-397.632"/>
</g>
<!-- Node4 -->
<g id="node4" class="node"><title>Node4</title>
<polygon fill="white" stroke="#bfbfbf" points="406.112,-0.5 406.112,-20.5 457.115,-20.5 457.115,-0.5 406.112,-0.5"/>
<text text-anchor="middle" x="431.613" y="-7.5" font-family="Helvetica,sans-Serif" font-size="10.00">TTree.h</text>
</g>
<!-- Node3&#45;&gt;Node4 -->
<g id="edge3" class="edge"><title>Node3&#45;&gt;Node4</title>
<path fill="none" stroke="midnightblue" d="M219.184,-372.279C210.115,-362.693 197.012,-346.767 191.613,-330 187.118,-316.039 186.654,-310.803 191.613,-297 236.223,-172.827 361.87,-65.4483 411.287,-26.7988"/>
<polygon fill="midnightblue" stroke="midnightblue" points="413.551,-29.4723 419.329,-20.5917 409.275,-23.9307 413.551,-29.4723"/>
</g>
<!-- Node5 -->
<g id="node5" class="node"><title>Node5</title>
<polygon fill="white" stroke="#bfbfbf" points="163.333,-0.5 163.333,-20.5 219.894,-20.5 219.894,-0.5 163.333,-0.5"/>
<text text-anchor="middle" x="191.613" y="-7.5" font-family="Helvetica,sans-Serif" font-size="10.00">TString.h</text>
</g>
<!-- Node3&#45;&gt;Node5 -->
<g id="edge4" class="edge"><title>Node3&#45;&gt;Node5</title>
<path fill="none" stroke="midnightblue" d="M210.219,-372.344C194.358,-363.55 171.962,-348.833 158.613,-330 137.516,-300.235 134.613,-287.983 134.613,-251.5 134.613,-251.5 134.613,-251.5 134.613,-123.5 134.613,-86.4644 159.675,-49.2999 176.562,-28.4613"/>
<polygon fill="midnightblue" stroke="midnightblue" points="179.437,-30.4812 183.202,-20.578 174.083,-25.9716 179.437,-30.4812"/>
</g>
<!-- Node6 -->
<g id="node6" class="node"><title>Node6</title>
<polygon fill="white" stroke="#bfbfbf" points="200.886,-303.5 200.886,-323.5 256.34,-323.5 256.34,-303.5 200.886,-303.5"/>
<text text-anchor="middle" x="228.613" y="-310.5" font-family="Helvetica,sans-Serif" font-size="10.00">Rtypes.h</text>
</g>
<!-- Node3&#45;&gt;Node6 -->
<g id="edge5" class="edge"><title>Node3&#45;&gt;Node6</title>
<path fill="none" stroke="midnightblue" d="M228.613,-372.464C228.613,-362.629 228.613,-346.609 228.613,-333.9"/>
<polygon fill="midnightblue" stroke="midnightblue" points="232.113,-333.823 228.613,-323.823 225.113,-333.823 232.113,-333.823"/>
</g>
<!-- Node7 -->
<g id="node7" class="node"><title>Node7</title>
<polygon fill="white" stroke="#bfbfbf" points="274.27,-303.5 274.27,-323.5 366.956,-323.5 366.956,-303.5 274.27,-303.5"/>
<text text-anchor="middle" x="320.613" y="-310.5" font-family="Helvetica,sans-Serif" font-size="10.00">TLorentzVector.h</text>
</g>
<!-- Node3&#45;&gt;Node7 -->
<g id="edge6" class="edge"><title>Node3&#45;&gt;Node7</title>
<path fill="none" stroke="midnightblue" d="M241.021,-372.464C256.11,-361.475 281.804,-342.763 299.909,-329.578"/>
<polygon fill="midnightblue" stroke="midnightblue" points="302.085,-332.323 308.108,-323.607 297.964,-326.664 302.085,-332.323"/>
</g>
<!-- Node8 -->
<g id="node8" class="node"><title>Node8</title>
<polygon fill="white" stroke="#bfbfbf" points="385.163,-303.5 385.163,-323.5 450.064,-323.5 450.064,-303.5 385.163,-303.5"/>
<text text-anchor="middle" x="417.613" y="-310.5" font-family="Helvetica,sans-Serif" font-size="10.00">TVector2.h</text>
</g>
<!-- Node3&#45;&gt;Node8 -->
<g id="edge7" class="edge"><title>Node3&#45;&gt;Node8</title>
<path fill="none" stroke="midnightblue" d="M254.948,-372.421C284.4,-362.233 333.5,-345.147 375.613,-330 378.198,-329.07 380.87,-328.102 383.555,-327.123"/>
<polygon fill="midnightblue" stroke="midnightblue" points="385.024,-330.312 393.208,-323.584 382.614,-323.74 385.024,-330.312"/>
</g>
<!-- Node9 -->
<g id="node9" class="node"><title>Node9</title>
<polygon fill="white" stroke="#bfbfbf" points="5.68434e-14,-303.5 5.68434e-14,-323.5 43.226,-323.5 43.226,-303.5 5.68434e-14,-303.5"/>
<text text-anchor="middle" x="21.613" y="-310.5" font-family="Helvetica,sans-Serif" font-size="10.00">cmath</text>
</g>
<!-- Node3&#45;&gt;Node9 -->
<g id="edge8" class="edge"><title>Node3&#45;&gt;Node9</title>
<path fill="none" stroke="midnightblue" d="M193.684,-373.466C157.492,-364.651 99.6113,-349.172 51.613,-330 50.1839,-329.429 48.7324,-328.812 47.2783,-328.165"/>
<polygon fill="midnightblue" stroke="midnightblue" points="48.3769,-324.809 37.8496,-323.615 45.3345,-331.113 48.3769,-324.809"/>
</g>
<!-- Node10 -->
<g id="node10" class="node"><title>Node10</title>
<polygon fill="white" stroke="#bfbfbf" points="60.8905,-303.5 60.8905,-323.5 106.336,-323.5 106.336,-303.5 60.8905,-303.5"/>
<text text-anchor="middle" x="83.613" y="-310.5" font-family="Helvetica,sans-Serif" font-size="10.00">cstring</text>
</g>
<!-- Node3&#45;&gt;Node10 -->
<g id="edge9" class="edge"><title>Node3&#45;&gt;Node10</title>
<path fill="none" stroke="midnightblue" d="M209.058,-372.464C184.194,-360.975 141.064,-341.046 112.429,-327.815"/>
<polygon fill="midnightblue" stroke="midnightblue" points="113.867,-324.624 103.322,-323.607 110.931,-330.979 113.867,-324.624"/>
</g>
<!-- Node11&#45;&gt;Node3 -->
<g id="edge11" class="edge"><title>Node11&#45;&gt;Node3</title>
<path fill="none" stroke="midnightblue" d="M750.691,-614.974C665.405,-612.44 319.297,-600.342 282.613,-570 232.003,-528.139 227.151,-441.963 227.721,-403.178"/>
<polygon fill="midnightblue" stroke="midnightblue" points="231.232,-402.863 228.027,-392.765 224.235,-402.657 231.232,-402.863"/>
</g>
<!-- Node11&#45;&gt;Node12 -->
<g id="edge12" class="edge"><title>Node11&#45;&gt;Node12</title>
<path fill="none" stroke="midnightblue" d="M786.621,-606.418C802.947,-597.7 827.832,-584.412 846.638,-574.37"/>
<polygon fill="midnightblue" stroke="midnightblue" points="848.407,-577.393 855.579,-569.596 845.11,-571.219 848.407,-577.393"/>
</g>
<!-- Node11&#45;&gt;Node20 -->
<g id="edge64" class="edge"><title>Node11&#45;&gt;Node20</title>
<path fill="none" stroke="midnightblue" d="M788.746,-612.878C834.796,-605.594 952.915,-580.966 1019.61,-513 1045.52,-486.602 1058.25,-470.706 1048.61,-435 1046,-425.316 1041.06,-415.582 1035.94,-407.224"/>
<polygon fill="midnightblue" stroke="midnightblue" points="1038.81,-405.216 1030.4,-398.762 1032.95,-409.047 1038.81,-405.216"/>
</g>
<!-- Node11&#45;&gt;Node31 -->
<g id="edge65" class="edge"><title>Node11&#45;&gt;Node31</title>
<path fill="none" stroke="midnightblue" d="M750.726,-615.357C696.162,-613.866 537.015,-601.745 455.613,-513 411.441,-464.844 412.862,-417.866 452.613,-366 463.672,-351.57 479.672,-341.081 496.237,-333.496"/>
<polygon fill="midnightblue" stroke="midnightblue" points="497.635,-336.705 505.471,-329.574 494.899,-330.262 497.635,-336.705"/>
</g>
<!-- Node11&#45;&gt;Node32 -->
<g id="edge66" class="edge"><title>Node11&#45;&gt;Node32</title>
<path fill="none" stroke="midnightblue" d="M774.666,-606.432C779.341,-597.485 785.955,-583.262 788.613,-570 790.447,-560.849 790.392,-558.162 788.613,-549 778.23,-495.519 748.057,-438.698 729.603,-407.503"/>
<polygon fill="midnightblue" stroke="midnightblue" points="732.444,-405.437 724.286,-398.677 726.448,-409.049 732.444,-405.437"/>
</g>
<!-- Node33 -->
<g id="node33" class="node"><title>Node33</title>
<g id="a_node33"><a xlink:href="GenJet_8h.html" target="_top" xlink:title="GenJet.h">
<polygon fill="white" stroke="black" points="723.327,-549.5 723.327,-569.5 779.9,-569.5 779.9,-549.5 723.327,-549.5"/>
<text text-anchor="middle" x="751.613" y="-556.5" font-family="Helvetica,sans-Serif" font-size="10.00">GenJet.h</text>
</a>
</g>
</g>
<!-- Node11&#45;&gt;Node33 -->
<g id="edge67" class="edge"><title>Node11&#45;&gt;Node33</title>
<path fill="none" stroke="midnightblue" d="M766.641,-606.418C764.258,-599.137 760.832,-588.669 757.853,-579.566"/>
<polygon fill="midnightblue" stroke="midnightblue" points="761.087,-578.195 754.65,-569.779 754.434,-580.372 761.087,-578.195"/>
</g>
<!-- Node34 -->
<g id="node34" class="node"><title>Node34</title>
<g id="a_node34"><a xlink:href="PFCand_8h.html" target="_top" xlink:title="PFCand.h">
<polygon fill="white" stroke="black" points="633.107,-549.5 633.107,-569.5 694.119,-569.5 694.119,-549.5 633.107,-549.5"/>
<text text-anchor="middle" x="663.613" y="-556.5" font-family="Helvetica,sans-Serif" font-size="10.00">PFCand.h</text>
</a>
</g>
</g>
<!-- Node11&#45;&gt;Node34 -->
<g id="edge73" class="edge"><title>Node11&#45;&gt;Node34</title>
<path fill="none" stroke="midnightblue" d="M752.109,-606.418C735.231,-597.66 709.464,-584.291 690.079,-574.233"/>
<polygon fill="midnightblue" stroke="midnightblue" points="691.631,-571.095 681.143,-569.596 688.407,-577.308 691.631,-571.095"/>
</g>
<!-- Node12&#45;&gt;Node3 -->
<g id="edge13" class="edge"><title>Node12&#45;&gt;Node3</title>
<path fill="none" stroke="midnightblue" d="M841.517,-552.948C768.529,-539.567 580.897,-503.122 428.613,-456 368.602,-437.43 300.049,-411.533 260.794,-396.242"/>
<polygon fill="midnightblue" stroke="midnightblue" points="262.056,-392.977 251.468,-392.593 259.506,-399.496 262.056,-392.977"/>
</g>
<!-- Node13 -->
<g id="node13" class="node"><title>Node13</title>
<g id="a_node13"><a xlink:href="ParticleM_8h.html" target="_top" xlink:title="ParticleM.h">
<polygon fill="white" stroke="black" points="658.613,-492.5 658.613,-512.5 724.613,-512.5 724.613,-492.5 658.613,-492.5"/>
<text text-anchor="middle" x="691.613" y="-499.5" font-family="Helvetica,sans-Serif" font-size="10.00">ParticleM.h</text>
</a>
</g>
</g>
<!-- Node12&#45;&gt;Node13 -->
<g id="edge14" class="edge"><title>Node12&#45;&gt;Node13</title>
<path fill="none" stroke="midnightblue" d="M842.725,-549.418C812.241,-540.155 764.778,-525.732 731.189,-515.526"/>
<polygon fill="midnightblue" stroke="midnightblue" points="731.831,-512.063 721.245,-512.504 729.795,-518.76 731.831,-512.063"/>
</g>
<!-- Node12&#45;&gt;Node20 -->
<g id="edge61" class="edge"><title>Node12&#45;&gt;Node20</title>
<path fill="none" stroke="midnightblue" d="M903.844,-552.512C930.217,-546.216 967.855,-534.194 994.613,-513 1018.48,-494.096 1023.79,-485.14 1032.61,-456 1037.34,-440.401 1033.91,-422.414 1029.27,-408.258"/>
<polygon fill="midnightblue" stroke="midnightblue" points="1032.5,-406.902 1025.78,-398.717 1025.93,-409.31 1032.5,-406.902"/>
</g>
<!-- Node12&#45;&gt;Node31 -->
<g id="edge62" class="edge"><title>Node12&#45;&gt;Node31</title>
<path fill="none" stroke="midnightblue" d="M881.946,-549.394C889.975,-540.856 900.975,-527.294 905.613,-513 911.498,-494.862 906.698,-446.159 899.613,-435 867.868,-385.002 840.432,-388.414 785.613,-366 738.693,-346.816 683.037,-333.816 639.704,-325.676"/>
<polygon fill="midnightblue" stroke="midnightblue" points="640.28,-322.224 629.813,-323.862 639.017,-329.109 640.28,-322.224"/>
</g>
<!-- Node12&#45;&gt;Node32 -->
<g id="edge63" class="edge"><title>Node12&#45;&gt;Node32</title>
<path fill="none" stroke="midnightblue" d="M876.826,-549.327C886.295,-527.196 906.485,-470.115 880.613,-435 859.028,-405.704 820.942,-392.581 786.691,-386.894"/>
<polygon fill="midnightblue" stroke="midnightblue" points="787.083,-383.414 776.68,-385.419 786.063,-390.339 787.083,-383.414"/>
</g>
<!-- Node13&#45;&gt;Node3 -->
<g id="edge15" class="edge"><title>Node13&#45;&gt;Node3</title>
<path fill="none" stroke="midnightblue" d="M658.315,-493.014C576.574,-472.181 365.962,-418.505 273.39,-394.912"/>
<polygon fill="midnightblue" stroke="midnightblue" points="274.045,-391.467 263.49,-392.389 272.316,-398.25 274.045,-391.467"/>
</g>
<!-- Node14 -->
<g id="node14" class="node"><title>Node14</title>
<g id="a_node14"><a xlink:href="Particle_8h.html" target="_top" xlink:title="Particle.h">
<polygon fill="white" stroke="black" points="590.778,-435.5 590.778,-455.5 648.449,-455.5 648.449,-435.5 590.778,-435.5"/>
<text text-anchor="middle" x="619.613" y="-442.5" font-family="Helvetica,sans-Serif" font-size="10.00">Particle.h</text>
</a>
</g>
</g>
<!-- Node13&#45;&gt;Node14 -->
<g id="edge16" class="edge"><title>Node13&#45;&gt;Node14</title>
<path fill="none" stroke="midnightblue" d="M679.724,-492.418C668.949,-484.188 652.843,-471.884 640.013,-462.084"/>
<polygon fill="midnightblue" stroke="midnightblue" points="641.832,-459.069 631.761,-455.779 637.583,-464.631 641.832,-459.069"/>
</g>
<!-- Node13&#45;&gt;Node20 -->
<g id="edge58" class="edge"><title>Node13&#45;&gt;Node20</title>
<path fill="none" stroke="midnightblue" d="M700.589,-492.139C715.13,-477.557 745.374,-449.584 776.613,-435 830.505,-409.84 896.893,-396.831 946.495,-390.189"/>
<polygon fill="midnightblue" stroke="midnightblue" points="947.026,-393.65 956.499,-388.905 946.134,-386.706 947.026,-393.65"/>
</g>
<!-- Node13&#45;&gt;Node31 -->
<g id="edge59" class="edge"><title>Node13&#45;&gt;Node31</title>
<path fill="none" stroke="midnightblue" d="M658.359,-496.991C633.075,-491.697 599.66,-480.31 581.613,-456 556.472,-422.135 558.654,-370.445 562.886,-339.808"/>
<polygon fill="midnightblue" stroke="midnightblue" points="566.346,-340.332 564.427,-329.912 559.429,-339.255 566.346,-340.332"/>
</g>
<!-- Node13&#45;&gt;Node32 -->
<g id="edge60" class="edge"><title>Node13&#45;&gt;Node32</title>
<path fill="none" stroke="midnightblue" d="M693.418,-492.241C696.899,-474.382 704.646,-434.633 709.747,-408.463"/>
<polygon fill="midnightblue" stroke="midnightblue" points="713.209,-408.997 711.687,-398.512 706.338,-407.658 713.209,-408.997"/>
</g>
<!-- Node14&#45;&gt;Node3 -->
<g id="edge17" class="edge"><title>Node14&#45;&gt;Node3</title>
<path fill="none" stroke="midnightblue" d="M590.544,-439.965C522.824,-429.4 354.182,-403.09 273.284,-390.469"/>
<polygon fill="midnightblue" stroke="midnightblue" points="273.821,-387.011 263.401,-388.927 272.742,-393.927 273.821,-387.011"/>
</g>
<!-- Node15 -->
<g id="node15" class="node"><title>Node15</title>
<g id="a_node15"><a xlink:href="ContainerElement_8h.html" target="_top" xlink:title="../../Framework/interface\l/ContainerElement.h">
<polygon fill="white" stroke="black" points="421.72,-171.5 421.72,-203.5 545.507,-203.5 545.507,-171.5 421.72,-171.5"/>
<text text-anchor="start" x="429.72" y="-190.5" font-family="Helvetica,sans-Serif" font-size="10.00">../../Framework/interface</text>
<text text-anchor="middle" x="483.613" y="-178.5" font-family="Helvetica,sans-Serif" font-size="10.00">/ContainerElement.h</text>
</a>
</g>
</g>
<!-- Node14&#45;&gt;Node15 -->
<g id="edge18" class="edge"><title>Node14&#45;&gt;Node15</title>
<path fill="none" stroke="midnightblue" d="M603.741,-435.248C576.375,-418.317 520.914,-379.496 496.613,-330 478.392,-292.888 478.457,-243.725 480.674,-214.194"/>
<polygon fill="midnightblue" stroke="midnightblue" points="484.19,-214.176 481.596,-203.903 477.218,-213.551 484.19,-214.176"/>
</g>
<!-- Node14&#45;&gt;Node20 -->
<g id="edge30" class="edge"><title>Node14&#45;&gt;Node20</title>
<path fill="none" stroke="midnightblue" d="M648.629,-440.064C710.62,-430.587 857.554,-408.123 946.475,-394.529"/>
<polygon fill="midnightblue" stroke="midnightblue" points="947.133,-397.969 956.489,-392.998 946.075,-391.049 947.133,-397.969"/>
</g>
<!-- Node14&#45;&gt;Node31 -->
<g id="edge49" class="edge"><title>Node14&#45;&gt;Node31</title>
<path fill="none" stroke="midnightblue" d="M615.873,-435.151C607.916,-415.257 589.083,-368.176 577.437,-339.059"/>
<polygon fill="midnightblue" stroke="midnightblue" points="580.61,-337.568 573.646,-329.583 574.111,-340.168 580.61,-337.568"/>
</g>
<!-- Node14&#45;&gt;Node32 -->
<g id="edge53" class="edge"><title>Node14&#45;&gt;Node32</title>
<path fill="none" stroke="midnightblue" d="M633.631,-435.499C646.347,-427.334 665.577,-414.986 682.107,-404.372"/>
<polygon fill="midnightblue" stroke="midnightblue" points="684.431,-407.04 690.954,-398.691 680.649,-401.149 684.431,-407.04"/>
</g>
<!-- Node15&#45;&gt;Node4 -->
<g id="edge26" class="edge"><title>Node15&#45;&gt;Node4</title>
<path fill="none" stroke="midnightblue" d="M438.92,-171.393C422.271,-163.342 405.123,-151.585 395.613,-135 375.725,-100.317 401.255,-53.75 418.409,-28.8789"/>
<polygon fill="midnightblue" stroke="midnightblue" points="421.251,-30.9212 424.25,-20.7596 415.569,-26.8333 421.251,-30.9212"/>
</g>
<!-- Node15&#45;&gt;Node5 -->
<g id="edge27" class="edge"><title>Node15&#45;&gt;Node5</title>
<path fill="none" stroke="midnightblue" d="M453.237,-171.36C433.701,-161.422 407.895,-147.917 385.613,-135 321.88,-98.0528 249.239,-50.2092 213.639,-26.3697"/>
<polygon fill="midnightblue" stroke="midnightblue" points="215.268,-23.248 205.015,-20.5786 211.366,-29.0593 215.268,-23.248"/>
</g>
<!-- Node16 -->
<g id="node16" class="node"><title>Node16</title>
<g id="a_node16"><a xlink:href="Object_8h.html" target="_top" xlink:title="Object.h">
<polygon fill="white" stroke="black" points="404.997,-114.5 404.997,-134.5 458.23,-134.5 458.23,-114.5 404.997,-114.5"/>
<text text-anchor="middle" x="431.613" y="-121.5" font-family="Helvetica,sans-Serif" font-size="10.00">Object.h</text>
</a>
</g>
</g>
<!-- Node15&#45;&gt;Node16 -->
<g id="edge19" class="edge"><title>Node15&#45;&gt;Node16</title>
<path fill="none" stroke="midnightblue" d="M470.759,-171.421C463.206,-162.561 453.645,-151.345 445.863,-142.216"/>
<polygon fill="midnightblue" stroke="midnightblue" points="448.475,-139.885 439.324,-134.546 443.148,-144.427 448.475,-139.885"/>
</g>
<!-- Node17 -->
<g id="node17" class="node"><title>Node17</title>
<g id="a_node17"><a xlink:href="IOUtils_8h.html" target="_top" xlink:title="IOUtils.h">
<polygon fill="white" stroke="black" points="459.447,-57.5 459.447,-77.5 513.779,-77.5 513.779,-57.5 459.447,-57.5"/>
<text text-anchor="middle" x="486.613" y="-64.5" font-family="Helvetica,sans-Serif" font-size="10.00">IOUtils.h</text>
</a>
</g>
</g>
<!-- Node15&#45;&gt;Node17 -->
<g id="edge25" class="edge"><title>Node15&#45;&gt;Node17</title>
<path fill="none" stroke="midnightblue" d="M484.005,-171.074C484.548,-149.706 485.53,-111.112 486.121,-87.8427"/>
<polygon fill="midnightblue" stroke="midnightblue" points="489.621,-87.8789 486.377,-77.7931 482.624,-87.7009 489.621,-87.8789"/>
</g>
<!-- Node18 -->
<g id="node18" class="node"><title>Node18</title>
<polygon fill="white" stroke="#bfbfbf" points="709,-0.5 709,-20.5 752.226,-20.5 752.226,-0.5 709,-0.5"/>
<text text-anchor="middle" x="730.613" y="-7.5" font-family="Helvetica,sans-Serif" font-size="10.00">vector</text>
</g>
<!-- Node15&#45;&gt;Node18 -->
<g id="edge28" class="edge"><title>Node15&#45;&gt;Node18</title>
<path fill="none" stroke="midnightblue" d="M506.348,-171.352C521.513,-161.185 541.853,-147.427 559.613,-135 614.466,-96.6198 678.179,-50.0756 710.125,-26.5996"/>
<polygon fill="midnightblue" stroke="midnightblue" points="712.278,-29.3608 718.26,-20.6159 708.131,-23.7221 712.278,-29.3608"/>
</g>
<!-- Node19 -->
<g id="node19" class="node"><title>Node19</title>
<polygon fill="white" stroke="#bfbfbf" points="514.89,-114.5 514.89,-134.5 550.337,-134.5 550.337,-114.5 514.89,-114.5"/>
<text text-anchor="middle" x="532.613" y="-121.5" font-family="Helvetica,sans-Serif" font-size="10.00">map</text>
</g>
<!-- Node15&#45;&gt;Node19 -->
<g id="edge29" class="edge"><title>Node15&#45;&gt;Node19</title>
<path fill="none" stroke="midnightblue" d="M495.725,-171.421C502.77,-162.652 511.668,-151.574 518.96,-142.496"/>
<polygon fill="midnightblue" stroke="midnightblue" points="521.813,-144.534 525.347,-134.546 516.355,-140.15 521.813,-144.534"/>
</g>
<!-- Node16&#45;&gt;Node4 -->
<g id="edge24" class="edge"><title>Node16&#45;&gt;Node4</title>
<path fill="none" stroke="midnightblue" d="M431.613,-114.335C431.613,-96.2039 431.613,-55.4065 431.613,-30.9997"/>
<polygon fill="midnightblue" stroke="midnightblue" points="435.113,-30.792 431.613,-20.7921 428.113,-30.7921 435.113,-30.792"/>
</g>
<!-- Node16&#45;&gt;Node17 -->
<g id="edge20" class="edge"><title>Node16&#45;&gt;Node17</title>
<path fill="none" stroke="midnightblue" d="M440.695,-114.418C448.688,-106.425 460.523,-94.5903 470.175,-84.9377"/>
<polygon fill="midnightblue" stroke="midnightblue" points="472.737,-87.3254 477.334,-77.7795 467.788,-82.3757 472.737,-87.3254"/>
</g>
<!-- Node17&#45;&gt;Node4 -->
<g id="edge22" class="edge"><title>Node17&#45;&gt;Node4</title>
<path fill="none" stroke="midnightblue" d="M477.531,-57.4179C469.538,-49.425 457.703,-37.5903 448.051,-27.9377"/>
<polygon fill="midnightblue" stroke="midnightblue" points="450.438,-25.3757 440.892,-20.7795 445.489,-30.3254 450.438,-25.3757"/>
</g>
<!-- Node17&#45;&gt;Node5 -->
<g id="edge21" class="edge"><title>Node17&#45;&gt;Node5</title>
<path fill="none" stroke="midnightblue" d="M459.389,-61.4243C406.668,-51.595 290.515,-29.9393 229.989,-18.6549"/>
<polygon fill="midnightblue" stroke="midnightblue" points="230.538,-15.197 220.066,-16.8048 229.255,-22.0785 230.538,-15.197"/>
</g>
<!-- Node17&#45;&gt;Node18 -->
<g id="edge23" class="edge"><title>Node17&#45;&gt;Node18</title>
<path fill="none" stroke="midnightblue" d="M514.129,-60.2977C559.761,-50.0117 650.835,-29.4828 699.023,-18.6206"/>
<polygon fill="midnightblue" stroke="midnightblue" points="699.918,-22.0069 708.904,-16.3935 698.379,-15.1782 699.918,-22.0069"/>
</g>
<!-- Node21 -->
<g id="node21" class="node"><title>Node21</title>
<g id="a_node21"><a xlink:href="ArrayBase_8h.html" target="_top" xlink:title="ArrayBase.h">
<polygon fill="white" stroke="black" points="800.108,-303.5 800.108,-323.5 871.119,-323.5 871.119,-303.5 800.108,-303.5"/>
<text text-anchor="middle" x="835.613" y="-310.5" font-family="Helvetica,sans-Serif" font-size="10.00">ArrayBase.h</text>
</a>
</g>
</g>
<!-- Node20&#45;&gt;Node21 -->
<g id="edge31" class="edge"><title>Node20&#45;&gt;Node21</title>
<path fill="none" stroke="midnightblue" d="M977.544,-366.464C945.165,-354.609 900.532,-338.268 870.014,-327.095"/>
<polygon fill="midnightblue" stroke="midnightblue" points="870.838,-323.669 860.244,-323.518 868.431,-330.243 870.838,-323.669"/>
</g>
<!-- Node24 -->
<g id="node24" class="node"><title>Node24</title>
<g id="a_node24"><a xlink:href="CollectionBase_8h.html" target="_top" xlink:title="CollectionBase.h">
<polygon fill="white" stroke="black" points="1120.11,-303.5 1120.11,-323.5 1211.12,-323.5 1211.12,-303.5 1120.11,-303.5"/>
<text text-anchor="middle" x="1165.61" y="-310.5" font-family="Helvetica,sans-Serif" font-size="10.00">CollectionBase.h</text>
</a>
</g>
</g>
<!-- Node20&#45;&gt;Node24 -->
<g id="edge39" class="edge"><title>Node20&#45;&gt;Node24</title>
<path fill="none" stroke="midnightblue" d="M1051.6,-366.464C1077.16,-354.815 1112.22,-338.835 1136.69,-327.683"/>
<polygon fill="midnightblue" stroke="midnightblue" points="1138.18,-330.85 1145.83,-323.518 1135.28,-324.481 1138.18,-330.85"/>
</g>
<!-- Node26 -->
<g id="node26" class="node"><title>Node26</title>
<g id="a_node26"><a xlink:href="Iterator_8h.html" target="_top" xlink:title="Iterator.h">
<polygon fill="white" stroke="black" points="1045.61,-303.5 1045.61,-323.5 1101.62,-323.5 1101.62,-303.5 1045.61,-303.5"/>
<text text-anchor="middle" x="1073.61" y="-310.5" font-family="Helvetica,sans-Serif" font-size="10.00">Iterator.h</text>
</a>
</g>
</g>
<!-- Node20&#45;&gt;Node26 -->
<g id="edge43" class="edge"><title>Node20&#45;&gt;Node26</title>
<path fill="none" stroke="midnightblue" d="M1031.09,-366.297C1039.6,-355.939 1050.86,-342.214 1059.66,-331.495"/>
<polygon fill="midnightblue" stroke="midnightblue" points="1062.45,-333.615 1066.09,-323.665 1057.04,-329.173 1062.45,-333.615"/>
</g>
<!-- Node27 -->
<g id="node27" class="node"><title>Node27</title>
<polygon fill="white" stroke="#bfbfbf" points="868.553,-240.5 868.553,-260.5 930.674,-260.5 930.674,-240.5 868.553,-240.5"/>
<text text-anchor="middle" x="899.613" y="-247.5" font-family="Helvetica,sans-Serif" font-size="10.00">type_traits</text>
</g>
<!-- Node20&#45;&gt;Node27 -->
<g id="edge48" class="edge"><title>Node20&#45;&gt;Node27</title>
<path fill="none" stroke="midnightblue" d="M970.319,-366.499C951.668,-358.444 931.71,-346.656 918.613,-330 905.303,-313.074 901.125,-288.208 899.912,-271.018"/>
<polygon fill="midnightblue" stroke="midnightblue" points="903.388,-270.379 899.47,-260.536 896.394,-270.674 903.388,-270.379"/>
</g>
<!-- Node28 -->
<g id="node28" class="node"><title>Node28</title>
<polygon fill="white" stroke="#bfbfbf" points="570.216,-240.5 570.216,-260.5 629.01,-260.5 629.01,-240.5 570.216,-240.5"/>
<text text-anchor="middle" x="599.613" y="-247.5" font-family="Helvetica,sans-Serif" font-size="10.00">stdexcept</text>
</g>
<!-- Node20&#45;&gt;Node28 -->
<g id="edge45" class="edge"><title>Node20&#45;&gt;Node28</title>
<path fill="none" stroke="midnightblue" d="M956.59,-368.714C900.112,-356.848 821.037,-339.613 790.613,-330 731.303,-311.259 664.657,-281.865 627.86,-264.865"/>
<polygon fill="midnightblue" stroke="midnightblue" points="629.28,-261.666 618.737,-260.621 626.328,-268.013 629.28,-261.666"/>
</g>
<!-- Node29 -->
<g id="node29" class="node"><title>Node29</title>
<polygon fill="white" stroke="#bfbfbf" points="927.561,-303.5 927.561,-323.5 979.666,-323.5 979.666,-303.5 927.561,-303.5"/>
<text text-anchor="middle" x="953.613" y="-310.5" font-family="Helvetica,sans-Serif" font-size="10.00">memory</text>
</g>
<!-- Node20&#45;&gt;Node29 -->
<g id="edge46" class="edge"><title>Node20&#45;&gt;Node29</title>
<path fill="none" stroke="midnightblue" d="M1003.86,-366.297C993.616,-355.733 979.971,-341.669 969.486,-330.862"/>
<polygon fill="midnightblue" stroke="midnightblue" points="971.979,-328.405 962.504,-323.665 966.955,-333.279 971.979,-328.405"/>
</g>
<!-- Node30 -->
<g id="node30" class="node"><title>Node30</title>
<polygon fill="white" stroke="#bfbfbf" points="997.944,-303.5 997.944,-323.5 1027.28,-323.5 1027.28,-303.5 997.944,-303.5"/>
<text text-anchor="middle" x="1012.61" y="-310.5" font-family="Helvetica,sans-Serif" font-size="10.00">set</text>
</g>
<!-- Node20&#45;&gt;Node30 -->
<g id="edge47" class="edge"><title>Node20&#45;&gt;Node30</title>
<path fill="none" stroke="midnightblue" d="M1017.25,-366.297C1016.39,-356.656 1015.26,-344.1 1014.34,-333.765"/>
<polygon fill="midnightblue" stroke="midnightblue" points="1017.81,-333.313 1013.43,-323.665 1010.84,-333.937 1017.81,-333.313"/>
</g>
<!-- Node22 -->
<g id="node22" class="node"><title>Node22</title>
<g id="a_node22"><a xlink:href="ContainerBase_8h.html" target="_top" xlink:title="ContainerBase.h">
<polygon fill="white" stroke="black" points="647.38,-240.5 647.38,-260.5 737.846,-260.5 737.846,-240.5 647.38,-240.5"/>
<text text-anchor="middle" x="692.613" y="-247.5" font-family="Helvetica,sans-Serif" font-size="10.00">ContainerBase.h</text>
</a>
</g>
</g>
<!-- Node21&#45;&gt;Node22 -->
<g id="edge32" class="edge"><title>Node21&#45;&gt;Node22</title>
<path fill="none" stroke="midnightblue" d="M814.513,-303.499C790.433,-293.228 750.837,-276.337 723.334,-264.605"/>
<polygon fill="midnightblue" stroke="midnightblue" points="724.371,-261.242 713.8,-260.538 721.625,-267.681 724.371,-261.242"/>
</g>
<!-- Node22&#45;&gt;Node4 -->
<g id="edge36" class="edge"><title>Node22&#45;&gt;Node4</title>
<path fill="none" stroke="midnightblue" d="M692.365,-240.491C691.544,-225.044 688.077,-193.039 673.613,-171 622.929,-93.7748 520.495,-45.2869 466.592,-24.0322"/>
<polygon fill="midnightblue" stroke="midnightblue" points="467.705,-20.7103 457.115,-20.3797 465.187,-27.2419 467.705,-20.7103"/>
</g>
<!-- Node22&#45;&gt;Node5 -->
<g id="edge35" class="edge"><title>Node22&#45;&gt;Node5</title>
<path fill="none" stroke="midnightblue" d="M647.3,-241.627C644.022,-241.072 640.767,-240.525 637.613,-240 537.714,-223.381 504.993,-245.497 412.613,-204 319.798,-162.307 237.138,-68.2933 205.401,-29.1365"/>
<polygon fill="midnightblue" stroke="midnightblue" points="207.745,-26.4631 198.771,-20.832 202.275,-30.8306 207.745,-26.4631"/>
</g>
<!-- Node22&#45;&gt;Node15 -->
<g id="edge33" class="edge"><title>Node22&#45;&gt;Node15</title>
<path fill="none" stroke="midnightblue" d="M661.774,-240.499C631.234,-231.585 583.614,-217.687 545.288,-206.501"/>
<polygon fill="midnightblue" stroke="midnightblue" points="545.835,-203.015 535.255,-203.573 543.874,-209.734 545.835,-203.015"/>
</g>
<!-- Node22&#45;&gt;Node17 -->
<g id="edge34" class="edge"><title>Node22&#45;&gt;Node17</title>
<path fill="none" stroke="midnightblue" d="M659.975,-240.429C639.763,-233.366 614.527,-221.731 597.613,-204 567.643,-172.583 587.799,-147.027 559.613,-114 548.162,-100.582 531.735,-89.8588 517.364,-82.2009"/>
<polygon fill="midnightblue" stroke="midnightblue" points="518.792,-79.0015 508.289,-77.6137 515.634,-85.2487 518.792,-79.0015"/>
</g>
<!-- Node22&#45;&gt;Node18 -->
<g id="edge37" class="edge"><title>Node22&#45;&gt;Node18</title>
<path fill="none" stroke="midnightblue" d="M695.993,-240.215C699.184,-231.107 703.875,-216.768 706.613,-204 720.001,-141.574 726.722,-66.0442 729.308,-31.0488"/>
<polygon fill="midnightblue" stroke="midnightblue" points="732.818,-31.0338 730.03,-20.8123 725.835,-30.5411 732.818,-31.0338"/>
</g>
<!-- Node23 -->
<g id="node23" class="node"><title>Node23</title>
<polygon fill="white" stroke="#bfbfbf" points="606.218,-177.5 606.218,-197.5 665.009,-197.5 665.009,-177.5 606.218,-177.5"/>
<text text-anchor="middle" x="635.613" y="-184.5" font-family="Helvetica,sans-Serif" font-size="10.00">functional</text>
</g>
<!-- Node22&#45;&gt;Node23 -->
<g id="edge38" class="edge"><title>Node22&#45;&gt;Node23</title>
<path fill="none" stroke="midnightblue" d="M684.202,-240.499C675.531,-231.219 661.81,-216.535 651.157,-205.134"/>
<polygon fill="midnightblue" stroke="midnightblue" points="653.443,-202.455 644.058,-197.538 648.328,-207.234 653.443,-202.455"/>
</g>
<!-- Node24&#45;&gt;Node18 -->
<g id="edge41" class="edge"><title>Node24&#45;&gt;Node18</title>
<path fill="none" stroke="midnightblue" d="M1165.61,-303.476C1165.61,-283.02 1165.61,-231.556 1165.61,-188.5 1165.61,-188.5 1165.61,-188.5 1165.61,-123.5 1165.61,-40.2633 863.138,-17.9657 762.64,-12.8544"/>
<polygon fill="midnightblue" stroke="midnightblue" points="762.641,-9.35047 752.483,-12.3621 762.302,-16.3423 762.641,-9.35047"/>
</g>
<!-- Node24&#45;&gt;Node22 -->
<g id="edge40" class="edge"><title>Node24&#45;&gt;Node22</title>
<path fill="none" stroke="midnightblue" d="M1137,-303.464C1128.57,-301.067 1119.28,-298.681 1110.61,-297 982.362,-272.127 829.144,-259.794 748.545,-254.624"/>
<polygon fill="midnightblue" stroke="midnightblue" points="748.337,-251.104 738.137,-253.97 747.898,-258.09 748.337,-251.104"/>
</g>
<!-- Node25 -->
<g id="node25" class="node"><title>Node25</title>
<polygon fill="white" stroke="#bfbfbf" points="1099.23,-240.5 1099.23,-260.5 1138,-260.5 1138,-240.5 1099.23,-240.5"/>
<text text-anchor="middle" x="1118.61" y="-247.5" font-family="Helvetica,sans-Serif" font-size="10.00">utility</text>
</g>
<!-- Node24&#45;&gt;Node25 -->
<g id="edge42" class="edge"><title>Node24&#45;&gt;Node25</title>
<path fill="none" stroke="midnightblue" d="M1158.68,-303.499C1151.6,-294.309 1140.43,-279.82 1131.69,-268.467"/>
<polygon fill="midnightblue" stroke="midnightblue" points="1134.45,-266.323 1125.58,-260.538 1128.91,-270.595 1134.45,-266.323"/>
</g>
<!-- Node26&#45;&gt;Node27 -->
<g id="edge44" class="edge"><title>Node26&#45;&gt;Node27</title>
<path fill="none" stroke="midnightblue" d="M1052.59,-303.368C1047.4,-301.203 1041.83,-298.956 1036.61,-297 1003.9,-284.737 966.2,-272.34 938.637,-263.589"/>
<polygon fill="midnightblue" stroke="midnightblue" points="939.559,-260.21 928.969,-260.538 937.452,-266.885 939.559,-260.21"/>
</g>
<!-- Node31&#45;&gt;Node22 -->
<g id="edge50" class="edge"><title>Node31&#45;&gt;Node22</title>
<path fill="none" stroke="midnightblue" d="M598.512,-297.421C618.891,-287.477 645.352,-274.563 665.022,-264.964"/>
<polygon fill="midnightblue" stroke="midnightblue" points="666.624,-268.077 674.076,-260.546 663.554,-261.786 666.624,-268.077"/>
</g>
<!-- Node31&#45;&gt;Node27 -->
<g id="edge52" class="edge"><title>Node31&#45;&gt;Node27</title>
<path fill="none" stroke="midnightblue" d="M629.67,-301.098C696.457,-288.827 800.805,-269.655 858.24,-259.102"/>
<polygon fill="midnightblue" stroke="midnightblue" points="859.196,-262.485 868.399,-257.235 857.931,-255.6 859.196,-262.485"/>
</g>
<!-- Node31&#45;&gt;Node28 -->
<g id="edge51" class="edge"><title>Node31&#45;&gt;Node28</title>
<path fill="none" stroke="midnightblue" d="M575.523,-297.421C579.934,-289.013 585.458,-278.484 590.103,-269.629"/>
<polygon fill="midnightblue" stroke="midnightblue" points="593.321,-271.027 594.868,-260.546 587.123,-267.775 593.321,-271.027"/>
</g>
<!-- Node32&#45;&gt;Node18 -->
<g id="edge57" class="edge"><title>Node32&#45;&gt;Node18</title>
<path fill="none" stroke="midnightblue" d="M726.148,-366.436C742.803,-343.136 771.613,-296.351 771.613,-251.5 771.613,-251.5 771.613,-251.5 771.613,-123.5 771.613,-88.4852 753.723,-50.8597 741.578,-29.3505"/>
<polygon fill="midnightblue" stroke="midnightblue" points="744.565,-27.5248 736.487,-20.6692 738.527,-31.0659 744.565,-27.5248"/>
</g>
<!-- Node32&#45;&gt;Node22 -->
<g id="edge54" class="edge"><title>Node32&#45;&gt;Node22</title>
<path fill="none" stroke="midnightblue" d="M712.046,-366.333C708.038,-342.645 700.295,-296.891 695.889,-270.858"/>
<polygon fill="midnightblue" stroke="midnightblue" points="699.295,-270.007 694.175,-260.731 692.393,-271.175 699.295,-270.007"/>
</g>
<!-- Node32&#45;&gt;Node28 -->
<g id="edge56" class="edge"><title>Node32&#45;&gt;Node28</title>
<path fill="none" stroke="midnightblue" d="M701.196,-366.333C679.584,-341.902 637.207,-293.997 614.621,-268.466"/>
<polygon fill="midnightblue" stroke="midnightblue" points="617.026,-265.902 607.779,-260.731 611.783,-270.54 617.026,-265.902"/>
</g>
<!-- Node32&#45;&gt;Node31 -->
<g id="edge55" class="edge"><title>Node32&#45;&gt;Node31</title>
<path fill="none" stroke="midnightblue" d="M681.623,-366.464C660.42,-356.8 632.675,-344.154 609.864,-333.757"/>
<polygon fill="midnightblue" stroke="midnightblue" points="611.298,-330.564 600.747,-329.602 608.394,-336.934 611.298,-330.564"/>
</g>
<!-- Node33&#45;&gt;Node3 -->
<g id="edge68" class="edge"><title>Node33&#45;&gt;Node3</title>
<path fill="none" stroke="midnightblue" d="M723.252,-552.503C716.812,-551.248 709.991,-550.003 703.613,-549 567.903,-527.647 523.441,-565.8 396.613,-513 345.221,-491.605 342.819,-468.834 298.613,-435 282.397,-422.588 263.76,-408.905 249.796,-398.764"/>
<polygon fill="midnightblue" stroke="midnightblue" points="251.519,-395.69 241.366,-392.66 247.413,-401.36 251.519,-395.69"/>
</g>
<!-- Node33&#45;&gt;Node13 -->
<g id="edge69" class="edge"><title>Node33&#45;&gt;Node13</title>
<path fill="none" stroke="midnightblue" d="M741.705,-549.418C732.899,-541.346 719.819,-529.356 709.233,-519.652"/>
<polygon fill="midnightblue" stroke="midnightblue" points="711.473,-516.957 701.736,-512.779 706.743,-522.117 711.473,-516.957"/>
</g>
<!-- Node33&#45;&gt;Node20 -->
<g id="edge70" class="edge"><title>Node33&#45;&gt;Node20</title>
<path fill="none" stroke="midnightblue" d="M765.592,-549.338C806.824,-522.313 928.691,-442.437 986.928,-404.267"/>
<polygon fill="midnightblue" stroke="midnightblue" points="988.93,-407.14 995.375,-398.731 985.092,-401.286 988.93,-407.14"/>
</g>
<!-- Node33&#45;&gt;Node31 -->
<g id="edge71" class="edge"><title>Node33&#45;&gt;Node31</title>
<path fill="none" stroke="midnightblue" d="M723.132,-551.643C681.174,-539.897 603.817,-511.624 567.613,-456 544.717,-420.823 552.383,-369.572 560.015,-339.372"/>
<polygon fill="midnightblue" stroke="midnightblue" points="563.417,-340.197 562.663,-329.629 556.662,-338.361 563.417,-340.197"/>
</g>
<!-- Node33&#45;&gt;Node32 -->
<g id="edge72" class="edge"><title>Node33&#45;&gt;Node32</title>
<path fill="none" stroke="midnightblue" d="M749.624,-549.091C744.069,-522.818 728.253,-448.015 719.912,-408.562"/>
<polygon fill="midnightblue" stroke="midnightblue" points="723.313,-407.727 717.82,-398.667 716.464,-409.175 723.313,-407.727"/>
</g>
<!-- Node34&#45;&gt;Node3 -->
<g id="edge74" class="edge"><title>Node34&#45;&gt;Node3</title>
<path fill="none" stroke="midnightblue" d="M633.081,-556.373C565.698,-551.291 406.447,-537.045 358.613,-513 331.048,-499.144 270.776,-432.122 243.069,-400.318"/>
<polygon fill="midnightblue" stroke="midnightblue" points="245.661,-397.965 236.468,-392.698 240.37,-402.548 245.661,-397.965"/>
</g>
<!-- Node34&#45;&gt;Node13 -->
<g id="edge75" class="edge"><title>Node34&#45;&gt;Node13</title>
<path fill="none" stroke="midnightblue" d="M668.237,-549.418C672.024,-541.979 677.505,-531.212 682.208,-521.974"/>
<polygon fill="midnightblue" stroke="midnightblue" points="685.471,-523.279 686.889,-512.779 679.233,-520.103 685.471,-523.279"/>
</g>
<!-- Node34&#45;&gt;Node20 -->
<g id="edge76" class="edge"><title>Node34&#45;&gt;Node20</title>
<path fill="none" stroke="midnightblue" d="M681.443,-549.366C721.875,-528.692 823.69,-476.859 909.613,-435 931.704,-424.238 956.458,-412.515 976.786,-402.977"/>
<polygon fill="midnightblue" stroke="midnightblue" points="978.513,-406.033 986.084,-398.622 975.543,-399.694 978.513,-406.033"/>
</g>
<!-- Node34&#45;&gt;Node31 -->
<g id="edge77" class="edge"><title>Node34&#45;&gt;Node31</title>
<path fill="none" stroke="midnightblue" d="M632.988,-555.735C584.186,-550.625 492.261,-537.878 472.613,-513 432.12,-461.728 439.19,-422.137 472.613,-366 480.801,-352.248 494.082,-341.942 508.152,-334.313"/>
<polygon fill="midnightblue" stroke="midnightblue" points="510.074,-337.266 517.467,-329.677 506.955,-330.999 510.074,-337.266"/>
</g>
<!-- Node34&#45;&gt;Node32 -->
<g id="edge78" class="edge"><title>Node34&#45;&gt;Node32</title>
<path fill="none" stroke="midnightblue" d="M658.947,-549.379C652.97,-536.484 644.014,-512.241 649.613,-492 658.514,-459.821 679.772,-427.591 695.568,-406.723"/>
<polygon fill="midnightblue" stroke="midnightblue" points="698.371,-408.819 701.739,-398.774 692.842,-404.527 698.371,-408.819"/>
</g>
</g>
</svg>
        <g id="navigator" transform="translate(0 0)" fill="#404254">
                <rect fill="#f2f5e9" fill-opacity="0.5" stroke="#606060" stroke-width=".5" x="0" y="0" width="60" height="60"/>
                <use id="zoomplus" xlink:href="#zoomPlus" x="17" y="9" onmousedown="handleZoom(evt,'in')"/>
                <use id="zoomminus" xlink:href="#zoomMin" x="42" y="9" onmousedown="handleZoom(evt,'out')"/>
                <use id="reset" xlink:href="#resetDef" x="30" y="36" onmousedown="handleReset()"/>
                <g id="arrowUp" xlink:href="#dirArrow" transform="translate(30 24)" onmousedown="handlePan(0,-1)">
                  <use xlink:href="#rim" fill="#404040">
                        <set attributeName="fill" to="#808080" begin="arrowUp.mouseover" end="arrowUp.mouseout"/>
                  </use>
                  <path fill="none" stroke="white" stroke-width="1.5" d="M0,-3.0v7 M-2.5,-0.5L0,-3.0L2.5,-0.5"/>
                </g>
                <g id="arrowRight" xlink:href="#dirArrow" transform="rotate(90) translate(36 -43)" onmousedown="handlePan(1,0)">
                  <use xlink:href="#rim" fill="#404040">
                        <set attributeName="fill" to="#808080" begin="arrowRight.mouseover" end="arrowRight.mouseout"/>
                  </use>
                  <path fill="none" stroke="white" stroke-width="1.5" d="M0,-3.0v7 M-2.5,-0.5L0,-3.0L2.5,-0.5"/>
                </g>
                <g id="arrowDown" xlink:href="#dirArrow" transform="rotate(180) translate(-30 -48)" onmousedown="handlePan(0,1)">
                  <use xlink:href="#rim" fill="#404040">
                        <set attributeName="fill" to="#808080" begin="arrowDown.mouseover" end="arrowDown.mouseout"/>
                  </use>
                  <path fill="none" stroke="white" stroke-width="1.5" d="M0,-3.0v7 M-2.5,-0.5L0,-3.0L2.5,-0.5"/>
                </g>
                <g id="arrowLeft" xlink:href="#dirArrow" transform="rotate(270) translate(-36 17)" onmousedown="handlePan(-1,0)">
                  <use xlink:href="#rim" fill="#404040">
                        <set attributeName="fill" to="#808080" begin="arrowLeft.mouseover" end="arrowLeft.mouseout"/>
                  </use>
                  <path fill="none" stroke="white" stroke-width="1.5" d="M0,-3.0v7 M-2.5,-0.5L0,-3.0L2.5,-0.5"/>
                </g>
        </g>
        <svg viewBox="0 0 15 15" width="100%" height="30px" preserveAspectRatio="xMaxYMin meet">
         <g id="arrow_out" transform="scale(0.3 0.3)">
          <a xlink:href="FatJet_8cc__incl_org.svg" target="_base">
           <rect id="button" ry="5" rx="5" y="6" x="6" height="38" width="38"
                fill="#f2f5e9" fill-opacity="0.5" stroke="#606060" stroke-width="1.0"/>
           <path id="arrow"
             d="M 11.500037,31.436501 C 11.940474,20.09759 22.043105,11.32322 32.158766,21.979434 L 37.068811,17.246167 C 37.068811,17.246167 37.088388,32 37.088388,32 L 22.160133,31.978069 C 22.160133,31.978069 26.997745,27.140456 26.997745,27.140456 C 18.528582,18.264221 13.291696,25.230495 11.500037,31.436501 z"
             style="fill:#404040;"/>
          </a>
         </g>
        </svg>
</svg>
