<?xml version="1.0" encoding="UTF-8" standalone="no"?>
<!DOCTYPE svg PUBLIC "-//W3C//DTD SVG 1.1//EN"
 "http://www.w3.org/Graphics/SVG/1.1/DTD/svg11.dtd">
<!-- Generated by graphviz version 2.38.0 (20140413.2041)
 -->
<!-- Title: Utils/interface/FileMerger.h Pages: 1 -->
<svg width="230pt" height="86pt"
 viewBox="0.00 0.00 230.11 86.00" xmlns="http://www.w3.org/2000/svg" xmlns:xlink="http://www.w3.org/1999/xlink">
<g id="graph0" class="graph" transform="scale(1 1) rotate(0) translate(4 82)">
<title>Utils/interface/FileMerger.h</title>
<polygon fill="white" stroke="none" points="-4,4 -4,-82 226.109,-82 226.109,4 -4,4"/>
<!-- Node1 -->
<g id="node1" class="node"><title>Node1</title>
<polygon fill="#bfbfbf" stroke="black" points="36.951,-57.5 36.951,-77.5 172.395,-77.5 172.395,-57.5 36.951,-57.5"/>
<text text-anchor="middle" x="104.673" y="-64.5" font-family="Helvetica,sans-Serif" font-size="10.00">Utils/interface/FileMerger.h</text>
</g>
<!-- Node2 -->
<g id="node2" class="node"><title>Node2</title>
<g id="a_node2"><a xlink:href="padd_8cc.html" target="_top" xlink:title="Utils/bin/padd.cc">
<polygon fill="white" stroke="black" points="0,-0.5 0,-20.5 89.346,-20.5 89.346,-0.5 0,-0.5"/>
<text text-anchor="middle" x="44.673" y="-7.5" font-family="Helvetica,sans-Serif" font-size="10.00">Utils/bin/padd.cc</text>
</a>
</g>
</g>
<!-- Node1&#45;&gt;Node2 -->
<g id="edge1" class="edge"><title>Node1&#45;&gt;Node2</title>
<path fill="none" stroke="midnightblue" d="M87.3103,-50.5841C76.7651,-40.9177 63.6708,-28.9147 54.796,-20.7795"/>
<polygon fill="midnightblue" stroke="midnightblue" points="85.0286,-53.2406 94.7652,-57.4179 89.7587,-48.0805 85.0286,-53.2406"/>
</g>
<!-- Node3 -->
<g id="node3" class="node"><title>Node3</title>
<g id="a_node3"><a xlink:href="FileMerger_8cc.html" target="_top" xlink:title="Utils/src/FileMerger.cc">
<polygon fill="white" stroke="black" points="107.237,-0.5 107.237,-20.5 222.109,-20.5 222.109,-0.5 107.237,-0.5"/>
<text text-anchor="middle" x="164.673" y="-7.5" font-family="Helvetica,sans-Serif" font-size="10.00">Utils/src/FileMerger.cc</text>
</a>
</g>
</g>
<!-- Node1&#45;&gt;Node3 -->
<g id="edge2" class="edge"><title>Node1&#45;&gt;Node3</title>
<path fill="none" stroke="midnightblue" d="M122.036,-50.5841C132.581,-40.9177 145.675,-28.9147 154.55,-20.7795"/>
<polygon fill="midnightblue" stroke="midnightblue" points="119.587,-48.0805 114.581,-57.4179 124.317,-53.2406 119.587,-48.0805"/>
</g>
</g>
</svg>
