<?xml version="1.0" encoding="UTF-8" standalone="no"?>
<!DOCTYPE svg PUBLIC "-//W3C//DTD SVG 1.1//EN"
 "http://www.w3.org/Graphics/SVG/1.1/DTD/svg11.dtd">
<!-- Generated by graphviz version 2.38.0 (20140413.2041)
 -->
<!-- Title: Utils/src/FileMerger.cc Pages: 1 -->
<svg width="3241pt" height="659pt"
 viewBox="0.00 0.00 3241.17 659.00" xmlns="http://www.w3.org/2000/svg" xmlns:xlink="http://www.w3.org/1999/xlink">
<g id="graph0" class="graph" transform="scale(1 1) rotate(0) translate(4 655)">
<title>Utils/src/FileMerger.cc</title>
<polygon fill="white" stroke="none" points="-4,4 -4,-655 3237.17,-655 3237.17,4 -4,4"/>
<!-- Node1 -->
<g id="node1" class="node"><title>Node1</title>
<polygon fill="#bfbfbf" stroke="black" points="2915.56,-630.5 2915.56,-650.5 3030.44,-650.5 3030.44,-630.5 2915.56,-630.5"/>
<text text-anchor="middle" x="2973" y="-637.5" font-family="Helvetica,sans-Serif" font-size="10.00">Utils/src/FileMerger.cc</text>
</g>
<!-- Node2 -->
<g id="node2" class="node"><title>Node2</title>
<g id="a_node2"><a xlink:href="FileMerger_8h.html" target="_top" xlink:title="../interface/FileMerger.h">
<polygon fill="white" stroke="black" points="2572.22,-132.5 2572.22,-152.5 2693.78,-152.5 2693.78,-132.5 2572.22,-132.5"/>
<text text-anchor="middle" x="2633" y="-139.5" font-family="Helvetica,sans-Serif" font-size="10.00">../interface/FileMerger.h</text>
</a>
</g>
</g>
<!-- Node1&#45;&gt;Node2 -->
<g id="edge1" class="edge"><title>Node1&#45;&gt;Node2</title>
<path fill="none" stroke="midnightblue" d="M2965.01,-630.378C2957.74,-621.618 2947.21,-607.724 2941,-594 2926.19,-561.3 2922,-551.396 2922,-515.5 2922,-515.5 2922,-515.5 2922,-279.5 2922,-183.453 2789.7,-155.118 2704.13,-146.836"/>
<polygon fill="midnightblue" stroke="midnightblue" points="2704.21,-143.329 2693.94,-145.922 2703.58,-150.301 2704.21,-143.329"/>
</g>
<!-- Node8 -->
<g id="node8" class="node"><title>Node8</title>
<g id="a_node8"><a xlink:href="Event_8h.html" target="_top" xlink:title="../../Objects/interface\l/Event.h">
<polygon fill="white" stroke="black" points="1543.15,-561.5 1543.15,-593.5 1650.85,-593.5 1650.85,-561.5 1543.15,-561.5"/>
<text text-anchor="start" x="1551.15" y="-580.5" font-family="Helvetica,sans-Serif" font-size="10.00">../../Objects/interface</text>
<text text-anchor="middle" x="1597" y="-568.5" font-family="Helvetica,sans-Serif" font-size="10.00">/Event.h</text>
</a>
</g>
</g>
<!-- Node1&#45;&gt;Node8 -->
<g id="edge9" class="edge"><title>Node1&#45;&gt;Node8</title>
<path fill="none" stroke="midnightblue" d="M2915.19,-636.937C2692.91,-627.083 1894.11,-591.671 1661.18,-581.345"/>
<polygon fill="midnightblue" stroke="midnightblue" points="1661.31,-577.848 1651.17,-580.901 1661,-584.841 1661.31,-577.848"/>
</g>
<!-- Node46 -->
<g id="node46" class="node"><title>Node46</title>
<g id="a_node46"><a xlink:href="Run_8h.html" target="_top" xlink:title="../../Objects/interface\l/Run.h">
<polygon fill="white" stroke="black" points="2748.16,-264.5 2748.16,-296.5 2855.84,-296.5 2855.84,-264.5 2748.16,-264.5"/>
<text text-anchor="start" x="2756.16" y="-283.5" font-family="Helvetica,sans-Serif" font-size="10.00">../../Objects/interface</text>
<text text-anchor="middle" x="2802" y="-271.5" font-family="Helvetica,sans-Serif" font-size="10.00">/Run.h</text>
</a>
</g>
</g>
<!-- Node1&#45;&gt;Node46 -->
<g id="edge169" class="edge"><title>Node1&#45;&gt;Node46</title>
<path fill="none" stroke="midnightblue" d="M2949.83,-630.463C2911.73,-613.904 2840,-574.85 2840,-515.5 2840,-515.5 2840,-515.5 2840,-399.5 2840,-365.791 2825.78,-329.16 2814.73,-305.8"/>
<polygon fill="midnightblue" stroke="midnightblue" points="2817.79,-304.086 2810.25,-296.648 2811.51,-307.168 2817.79,-304.086"/>
</g>
<!-- Node47 -->
<g id="node47" class="node"><title>Node47</title>
<polygon fill="white" stroke="#bfbfbf" points="2949.72,-567.5 2949.72,-587.5 2996.28,-587.5 2996.28,-567.5 2949.72,-567.5"/>
<text text-anchor="middle" x="2973" y="-574.5" font-family="Helvetica,sans-Serif" font-size="10.00">TFile.h</text>
</g>
<!-- Node1&#45;&gt;Node47 -->
<g id="edge172" class="edge"><title>Node1&#45;&gt;Node47</title>
<path fill="none" stroke="midnightblue" d="M2973,-630.499C2973,-621.94 2973,-608.783 2973,-597.846"/>
<polygon fill="midnightblue" stroke="midnightblue" points="2976.5,-597.538 2973,-587.538 2969.5,-597.538 2976.5,-597.538"/>
</g>
<!-- Node48 -->
<g id="node48" class="node"><title>Node48</title>
<polygon fill="white" stroke="#bfbfbf" points="3014.11,-567.5 3014.11,-587.5 3077.89,-587.5 3077.89,-567.5 3014.11,-567.5"/>
<text text-anchor="middle" x="3046" y="-574.5" font-family="Helvetica,sans-Serif" font-size="10.00">TSystem.h</text>
</g>
<!-- Node1&#45;&gt;Node48 -->
<g id="edge173" class="edge"><title>Node1&#45;&gt;Node48</title>
<path fill="none" stroke="midnightblue" d="M2983.77,-630.499C2995.2,-620.948 3013.48,-605.675 3027.28,-594.147"/>
<polygon fill="midnightblue" stroke="midnightblue" points="3029.76,-596.636 3035.18,-587.538 3025.27,-591.264 3029.76,-596.636"/>
</g>
<!-- Node49 -->
<g id="node49" class="node"><title>Node49</title>
<polygon fill="white" stroke="#bfbfbf" points="3095.55,-567.5 3095.55,-587.5 3160.45,-587.5 3160.45,-567.5 3095.55,-567.5"/>
<text text-anchor="middle" x="3128" y="-574.5" font-family="Helvetica,sans-Serif" font-size="10.00">TRegexp.h</text>
</g>
<!-- Node1&#45;&gt;Node49 -->
<g id="edge174" class="edge"><title>Node1&#45;&gt;Node49</title>
<path fill="none" stroke="midnightblue" d="M2995.87,-630.499C3022.2,-620.138 3065.64,-603.04 3095.48,-591.297"/>
<polygon fill="midnightblue" stroke="midnightblue" points="3097.01,-594.457 3105.04,-587.538 3094.45,-587.943 3097.01,-594.457"/>
</g>
<!-- Node50 -->
<g id="node50" class="node"><title>Node50</title>
<polygon fill="white" stroke="#bfbfbf" points="3178.83,-567.5 3178.83,-587.5 3233.17,-587.5 3233.17,-567.5 3178.83,-567.5"/>
<text text-anchor="middle" x="3206" y="-574.5" font-family="Helvetica,sans-Serif" font-size="10.00">iostream</text>
</g>
<!-- Node1&#45;&gt;Node50 -->
<g id="edge175" class="edge"><title>Node1&#45;&gt;Node50</title>
<path fill="none" stroke="midnightblue" d="M3022.36,-630.443C3062.37,-622.529 3119.97,-609.836 3169,-594 3171.44,-593.213 3173.93,-592.333 3176.43,-591.402"/>
<polygon fill="midnightblue" stroke="midnightblue" points="3177.87,-594.595 3185.88,-587.654 3175.29,-588.089 3177.87,-594.595"/>
</g>
<!-- Node3 -->
<g id="node3" class="node"><title>Node3</title>
<g id="a_node3"><a xlink:href="IOUtils_8h.html" target="_top" xlink:title="../../Framework/interface\l/IOUtils.h">
<polygon fill="white" stroke="black" points="2033.11,-57.5 2033.11,-89.5 2156.89,-89.5 2156.89,-57.5 2033.11,-57.5"/>
<text text-anchor="start" x="2041.11" y="-76.5" font-family="Helvetica,sans-Serif" font-size="10.00">../../Framework/interface</text>
<text text-anchor="middle" x="2095" y="-64.5" font-family="Helvetica,sans-Serif" font-size="10.00">/IOUtils.h</text>
</a>
</g>
</g>
<!-- Node2&#45;&gt;Node3 -->
<g id="edge2" class="edge"><title>Node2&#45;&gt;Node3</title>
<path fill="none" stroke="midnightblue" d="M2592.65,-132.442C2581.46,-130.128 2569.29,-127.791 2558,-126 2420.37,-104.173 2258.28,-88.3991 2166.99,-80.417"/>
<polygon fill="midnightblue" stroke="midnightblue" points="2167.3,-76.9301 2157.03,-79.5522 2166.69,-83.9039 2167.3,-76.9301"/>
</g>
<!-- Node4 -->
<g id="node4" class="node"><title>Node4</title>
<polygon fill="white" stroke="#bfbfbf" points="1976.72,-0.5 1976.72,-20.5 2033.28,-20.5 2033.28,-0.5 1976.72,-0.5"/>
<text text-anchor="middle" x="2005" y="-7.5" font-family="Helvetica,sans-Serif" font-size="10.00">TString.h</text>
</g>
<!-- Node2&#45;&gt;Node4 -->
<g id="edge6" class="edge"><title>Node2&#45;&gt;Node4</title>
<path fill="none" stroke="midnightblue" d="M2608.16,-132.385C2560.13,-115.1 2450.85,-77.4654 2356,-57 2243.91,-32.8162 2108.73,-19.7127 2043.68,-14.386"/>
<polygon fill="midnightblue" stroke="midnightblue" points="2043.73,-10.8791 2033.48,-13.5682 2043.17,-17.8567 2043.73,-10.8791"/>
</g>
<!-- Node6 -->
<g id="node6" class="node"><title>Node6</title>
<polygon fill="white" stroke="#bfbfbf" points="1873.39,-0.5 1873.39,-20.5 1916.61,-20.5 1916.61,-0.5 1873.39,-0.5"/>
<text text-anchor="middle" x="1895" y="-7.5" font-family="Helvetica,sans-Serif" font-size="10.00">vector</text>
</g>
<!-- Node2&#45;&gt;Node6 -->
<g id="edge7" class="edge"><title>Node2&#45;&gt;Node6</title>
<path fill="none" stroke="midnightblue" d="M2589.06,-132.469C2578.26,-130.301 2566.72,-128.027 2556,-126 2469.52,-109.648 2252.73,-71.9533 2166,-57 2079.53,-42.0926 1977.43,-25.1206 1926.79,-16.7449"/>
<polygon fill="midnightblue" stroke="midnightblue" points="1927.23,-13.2695 1916.79,-15.0919 1926.09,-20.1758 1927.23,-13.2695"/>
</g>
<!-- Node7 -->
<g id="node7" class="node"><title>Node7</title>
<polygon fill="white" stroke="#bfbfbf" points="2603.6,-63.5 2603.6,-83.5 2662.4,-83.5 2662.4,-63.5 2603.6,-63.5"/>
<text text-anchor="middle" x="2633" y="-70.5" font-family="Helvetica,sans-Serif" font-size="10.00">functional</text>
</g>
<!-- Node2&#45;&gt;Node7 -->
<g id="edge8" class="edge"><title>Node2&#45;&gt;Node7</title>
<path fill="none" stroke="midnightblue" d="M2633,-132.464C2633,-122.629 2633,-106.609 2633,-93.8998"/>
<polygon fill="midnightblue" stroke="midnightblue" points="2636.5,-93.8226 2633,-83.8227 2629.5,-93.8227 2636.5,-93.8226"/>
</g>
<!-- Node3&#45;&gt;Node4 -->
<g id="edge3" class="edge"><title>Node3&#45;&gt;Node4</title>
<path fill="none" stroke="midnightblue" d="M2072.75,-57.4213C2058.75,-47.9286 2040.75,-35.7311 2026.83,-26.2933"/>
<polygon fill="midnightblue" stroke="midnightblue" points="2028.59,-23.2592 2018.35,-20.5459 2024.66,-29.0537 2028.59,-23.2592"/>
</g>
<!-- Node5 -->
<g id="node5" class="node"><title>Node5</title>
<polygon fill="white" stroke="#bfbfbf" points="2696.5,-0.5 2696.5,-20.5 2747.5,-20.5 2747.5,-0.5 2696.5,-0.5"/>
<text text-anchor="middle" x="2722" y="-7.5" font-family="Helvetica,sans-Serif" font-size="10.00">TTree.h</text>
</g>
<!-- Node3&#45;&gt;Node5 -->
<g id="edge4" class="edge"><title>Node3&#45;&gt;Node5</title>
<path fill="none" stroke="midnightblue" d="M2157.12,-66.4561C2286.94,-53.8262 2583.43,-24.9811 2686.17,-14.9862"/>
<polygon fill="midnightblue" stroke="midnightblue" points="2686.72,-18.4494 2696.33,-13.9974 2686.04,-11.4823 2686.72,-18.4494"/>
</g>
<!-- Node3&#45;&gt;Node6 -->
<g id="edge5" class="edge"><title>Node3&#45;&gt;Node6</title>
<path fill="none" stroke="midnightblue" d="M2045.82,-57.4996C2008.56,-46.1358 1958.48,-30.8622 1926.47,-21.0972"/>
<polygon fill="midnightblue" stroke="midnightblue" points="1927.33,-17.7019 1916.75,-18.1322 1925.29,-24.3974 1927.33,-17.7019"/>
</g>
<!-- Node9 -->
<g id="node9" class="node"><title>Node9</title>
<g id="a_node9"><a xlink:href="TreeEntry_8h.html" target="_top" xlink:title="../../Framework/interface\l/TreeEntry.h">
<polygon fill="white" stroke="black" points="2609.11,-195.5 2609.11,-227.5 2732.89,-227.5 2732.89,-195.5 2609.11,-195.5"/>
<text text-anchor="start" x="2617.11" y="-214.5" font-family="Helvetica,sans-Serif" font-size="10.00">../../Framework/interface</text>
<text text-anchor="middle" x="2671" y="-202.5" font-family="Helvetica,sans-Serif" font-size="10.00">/TreeEntry.h</text>
</a>
</g>
</g>
<!-- Node8&#45;&gt;Node9 -->
<g id="edge10" class="edge"><title>Node8&#45;&gt;Node9</title>
<path fill="none" stroke="midnightblue" d="M1650.95,-576.369C1845.31,-575.533 2509.1,-569.413 2716,-525 2794.51,-508.146 2884,-538.803 2884,-458.5 2884,-458.5 2884,-458.5 2884,-342.5 2884,-306.604 2890.1,-289.66 2865,-264 2833.37,-231.667 2783.94,-218.882 2742.9,-214.134"/>
<polygon fill="midnightblue" stroke="midnightblue" points="2743.23,-210.65 2732.93,-213.117 2742.52,-217.614 2743.23,-210.65"/>
</g>
<!-- Node11 -->
<g id="node11" class="node"><title>Node11</title>
<g id="a_node11"><a xlink:href="Constants_8h.html" target="_top" xlink:title="Constants.h">
<polygon fill="white" stroke="black" points="2286.32,-201.5 2286.32,-221.5 2355.68,-221.5 2355.68,-201.5 2286.32,-201.5"/>
<text text-anchor="middle" x="2321" y="-208.5" font-family="Helvetica,sans-Serif" font-size="10.00">Constants.h</text>
</a>
</g>
</g>
<!-- Node8&#45;&gt;Node11 -->
<g id="edge17" class="edge"><title>Node8&#45;&gt;Node11</title>
<path fill="none" stroke="midnightblue" d="M1650.93,-576.966C1838.39,-578.105 2460.62,-577.727 2652,-525 2712.67,-508.285 2777,-521.428 2777,-458.5 2777,-458.5 2777,-458.5 2777,-399.5 2777,-320.512 2730.99,-302.455 2662,-264 2612.07,-236.174 2446.94,-221.208 2366.22,-215.397"/>
<polygon fill="midnightblue" stroke="midnightblue" points="2366.1,-211.88 2355.88,-214.67 2365.6,-218.863 2366.1,-211.88"/>
</g>
<!-- Node17 -->
<g id="node17" class="node"><title>Node17</title>
<g id="a_node17"><a xlink:href="GenReweight_8h.html" target="_top" xlink:title="GenReweight.h">
<polygon fill="white" stroke="black" points="1908.55,-270.5 1908.55,-290.5 1993.45,-290.5 1993.45,-270.5 1908.55,-270.5"/>
<text text-anchor="middle" x="1951" y="-277.5" font-family="Helvetica,sans-Serif" font-size="10.00">GenReweight.h</text>
</a>
</g>
</g>
<!-- Node8&#45;&gt;Node17 -->
<g id="edge25" class="edge"><title>Node8&#45;&gt;Node17</title>
<path fill="none" stroke="midnightblue" d="M1651.08,-575.863C1766.15,-573.743 2031.27,-564.58 2111,-525 2141.98,-509.618 2151.34,-500.195 2164,-468 2186.19,-411.55 2188.76,-373.935 2144,-333 2095.96,-289.059 2064.72,-314.471 2002,-297 1997.94,-295.869 1993.71,-294.649 1989.49,-293.408"/>
<polygon fill="midnightblue" stroke="midnightblue" points="1990.37,-290.018 1979.79,-290.507 1988.37,-296.725 1990.37,-290.018"/>
</g>
<!-- Node25 -->
<g id="node25" class="node"><title>Node25</title>
<g id="a_node25"><a xlink:href="PFCand_8h.html" target="_top" xlink:title="PFCand.h">
<polygon fill="white" stroke="black" points="947.494,-390.5 947.494,-410.5 1008.51,-410.5 1008.51,-390.5 947.494,-390.5"/>
<text text-anchor="middle" x="978" y="-397.5" font-family="Helvetica,sans-Serif" font-size="10.00">PFCand.h</text>
</a>
</g>
</g>
<!-- Node8&#45;&gt;Node25 -->
<g id="edge39" class="edge"><title>Node8&#45;&gt;Node25</title>
<path fill="none" stroke="midnightblue" d="M1543.13,-577.098C1423.61,-577.515 1140.42,-573.224 1060,-525 1019.68,-500.824 995.151,-448.271 984.406,-420.146"/>
<polygon fill="midnightblue" stroke="midnightblue" points="987.667,-418.873 980.959,-410.673 981.089,-421.267 987.667,-418.873"/>
</g>
<!-- Node29 -->
<g id="node29" class="node"><title>Node29</title>
<g id="a_node29"><a xlink:href="SuperCluster_8h.html" target="_top" xlink:title="SuperCluster.h">
<polygon fill="white" stroke="black" points="1585.66,-270.5 1585.66,-290.5 1668.34,-290.5 1668.34,-270.5 1585.66,-270.5"/>
<text text-anchor="middle" x="1627" y="-277.5" font-family="Helvetica,sans-Serif" font-size="10.00">SuperCluster.h</text>
</a>
</g>
</g>
<!-- Node8&#45;&gt;Node29 -->
<g id="edge60" class="edge"><title>Node8&#45;&gt;Node29</title>
<path fill="none" stroke="midnightblue" d="M1641.5,-561.391C1681.39,-545.196 1737.44,-515.239 1763,-468 1800.44,-398.798 1700.45,-326.04 1651.81,-295.888"/>
<polygon fill="midnightblue" stroke="midnightblue" points="1653.46,-292.797 1643.1,-290.602 1649.83,-298.781 1653.46,-292.797"/>
</g>
<!-- Node30 -->
<g id="node30" class="node"><title>Node30</title>
<g id="a_node30"><a xlink:href="Electron_8h.html" target="_top" xlink:title="Electron.h">
<polygon fill="white" stroke="black" points="921.495,-504.5 921.495,-524.5 982.505,-524.5 982.505,-504.5 921.495,-504.5"/>
<text text-anchor="middle" x="952" y="-511.5" font-family="Helvetica,sans-Serif" font-size="10.00">Electron.h</text>
</a>
</g>
</g>
<!-- Node8&#45;&gt;Node30 -->
<g id="edge66" class="edge"><title>Node8&#45;&gt;Node30</title>
<path fill="none" stroke="midnightblue" d="M1542.96,-574.083C1437.51,-568.876 1197.13,-554.6 997,-525 995.712,-524.809 994.405,-524.605 993.087,-524.388"/>
<polygon fill="midnightblue" stroke="midnightblue" points="993.359,-520.88 982.895,-522.542 992.111,-527.768 993.359,-520.88"/>
</g>
<!-- Node32 -->
<g id="node32" class="node"><title>Node32</title>
<g id="a_node32"><a xlink:href="GenParticle_8h.html" target="_top" xlink:title="GenParticle.h">
<polygon fill="white" stroke="black" points="1182.72,-390.5 1182.72,-410.5 1259.28,-410.5 1259.28,-390.5 1182.72,-390.5"/>
<text text-anchor="middle" x="1221" y="-397.5" font-family="Helvetica,sans-Serif" font-size="10.00">GenParticle.h</text>
</a>
</g>
</g>
<!-- Node8&#45;&gt;Node32 -->
<g id="edge132" class="edge"><title>Node8&#45;&gt;Node32</title>
<path fill="none" stroke="midnightblue" d="M1559.35,-561.392C1534.88,-551.411 1502.36,-537.848 1474,-525 1390.45,-487.155 1293.45,-438.434 1247.61,-415.116"/>
<polygon fill="midnightblue" stroke="midnightblue" points="1249.12,-411.961 1238.62,-410.539 1245.94,-418.198 1249.12,-411.961"/>
</g>
<!-- Node33 -->
<g id="node33" class="node"><title>Node33</title>
<g id="a_node33"><a xlink:href="Muon_8h.html" target="_top" xlink:title="Muon.h">
<polygon fill="white" stroke="black" points="251.328,-504.5 251.328,-524.5 300.672,-524.5 300.672,-504.5 251.328,-504.5"/>
<text text-anchor="middle" x="276" y="-511.5" font-family="Helvetica,sans-Serif" font-size="10.00">Muon.h</text>
</a>
</g>
</g>
<!-- Node8&#45;&gt;Node33 -->
<g id="edge84" class="edge"><title>Node8&#45;&gt;Node33</title>
<path fill="none" stroke="midnightblue" d="M1542.75,-573.995C1321.64,-563.785 491.606,-525.456 310.88,-517.111"/>
<polygon fill="midnightblue" stroke="midnightblue" points="311.013,-513.613 300.862,-516.648 310.69,-520.606 311.013,-513.613"/>
</g>
<!-- Node34 -->
<g id="node34" class="node"><title>Node34</title>
<g id="a_node34"><a xlink:href="Tau_8h.html" target="_top" xlink:title="Tau.h">
<polygon fill="white" stroke="black" points="1200.22,-447.5 1200.22,-467.5 1241.78,-467.5 1241.78,-447.5 1200.22,-447.5"/>
<text text-anchor="middle" x="1221" y="-454.5" font-family="Helvetica,sans-Serif" font-size="10.00">Tau.h</text>
</a>
</g>
</g>
<!-- Node8&#45;&gt;Node34 -->
<g id="edge90" class="edge"><title>Node8&#45;&gt;Node34</title>
<path fill="none" stroke="midnightblue" d="M1543.07,-572.857C1486.1,-567.555 1394.5,-554.842 1321,-525 1290.01,-512.418 1258.59,-489.489 1239.45,-474.123"/>
<polygon fill="midnightblue" stroke="midnightblue" points="1241.51,-471.293 1231.56,-467.66 1237.08,-476.706 1241.51,-471.293"/>
</g>
<!-- Node35 -->
<g id="node35" class="node"><title>Node35</title>
<g id="a_node35"><a xlink:href="Photon_8h.html" target="_top" xlink:title="Photon.h">
<polygon fill="white" stroke="black" points="1366.99,-447.5 1366.99,-467.5 1423.01,-467.5 1423.01,-447.5 1366.99,-447.5"/>
<text text-anchor="middle" x="1395" y="-454.5" font-family="Helvetica,sans-Serif" font-size="10.00">Photon.h</text>
</a>
</g>
</g>
<!-- Node8&#45;&gt;Node35 -->
<g id="edge97" class="edge"><title>Node8&#45;&gt;Node35</title>
<path fill="none" stroke="midnightblue" d="M1571.01,-561.315C1531.71,-538.362 1457.72,-495.14 1419.4,-472.751"/>
<polygon fill="midnightblue" stroke="midnightblue" points="1420.86,-469.555 1410.46,-467.533 1417.33,-475.599 1420.86,-469.555"/>
</g>
<!-- Node36 -->
<g id="node36" class="node"><title>Node36</title>
<g id="a_node36"><a xlink:href="Jet_8h.html" target="_top" xlink:title="Jet.h">
<polygon fill="white" stroke="black" points="1039.16,-447.5 1039.16,-467.5 1076.84,-467.5 1076.84,-447.5 1039.16,-447.5"/>
<text text-anchor="middle" x="1058" y="-454.5" font-family="Helvetica,sans-Serif" font-size="10.00">Jet.h</text>
</a>
</g>
</g>
<!-- Node8&#45;&gt;Node36 -->
<g id="edge105" class="edge"><title>Node8&#45;&gt;Node36</title>
<path fill="none" stroke="midnightblue" d="M1542.98,-574.549C1417.1,-569.526 1112.26,-554.432 1077,-525 1063.48,-513.718 1059.22,-493.544 1058.04,-478.366"/>
<polygon fill="midnightblue" stroke="midnightblue" points="1061.52,-477.82 1057.64,-467.962 1054.53,-478.09 1061.52,-477.82"/>
</g>
<!-- Node37 -->
<g id="node37" class="node"><title>Node37</title>
<g id="a_node37"><a xlink:href="MicroJet_8h.html" target="_top" xlink:title="MicroJet.h">
<polygon fill="white" stroke="black" points="1026.94,-390.5 1026.94,-410.5 1089.06,-410.5 1089.06,-390.5 1026.94,-390.5"/>
<text text-anchor="middle" x="1058" y="-397.5" font-family="Helvetica,sans-Serif" font-size="10.00">MicroJet.h</text>
</a>
</g>
</g>
<!-- Node8&#45;&gt;Node37 -->
<g id="edge130" class="edge"><title>Node8&#45;&gt;Node37</title>
<path fill="none" stroke="midnightblue" d="M1542.89,-573.413C1478.65,-568.462 1369.01,-555.923 1280,-525 1200.93,-497.531 1117.09,-442.915 1079,-416.5"/>
<polygon fill="midnightblue" stroke="midnightblue" points="1080.95,-413.59 1070.75,-410.719 1076.93,-419.323 1080.95,-413.59"/>
</g>
<!-- Node38 -->
<g id="node38" class="node"><title>Node38</title>
<g id="a_node38"><a xlink:href="GenJet_8h.html" target="_top" xlink:title="GenJet.h">
<polygon fill="white" stroke="black" points="645.713,-390.5 645.713,-410.5 702.287,-410.5 702.287,-390.5 645.713,-390.5"/>
<text text-anchor="middle" x="674" y="-397.5" font-family="Helvetica,sans-Serif" font-size="10.00">GenJet.h</text>
</a>
</g>
</g>
<!-- Node8&#45;&gt;Node38 -->
<g id="edge131" class="edge"><title>Node8&#45;&gt;Node38</title>
<path fill="none" stroke="midnightblue" d="M1543.1,-575.236C1403.06,-571.509 1030.37,-558.636 912,-525 826.215,-500.624 735.538,-443.569 695.333,-416.396"/>
<polygon fill="midnightblue" stroke="midnightblue" points="697.113,-413.373 686.882,-410.62 693.163,-419.152 697.113,-413.373"/>
</g>
<!-- Node39 -->
<g id="node39" class="node"><title>Node39</title>
<g id="a_node39"><a xlink:href="FatJet_8h.html" target="_top" xlink:title="FatJet.h">
<polygon fill="white" stroke="black" points="1085.94,-504.5 1085.94,-524.5 1138.06,-524.5 1138.06,-504.5 1085.94,-504.5"/>
<text text-anchor="middle" x="1112" y="-511.5" font-family="Helvetica,sans-Serif" font-size="10.00">FatJet.h</text>
</a>
</g>
</g>
<!-- Node8&#45;&gt;Node39 -->
<g id="edge123" class="edge"><title>Node8&#45;&gt;Node39</title>
<path fill="none" stroke="midnightblue" d="M1543,-571.988C1459.47,-564.608 1294.04,-548.397 1155,-525 1152.79,-524.629 1150.53,-524.219 1148.25,-523.783"/>
<polygon fill="midnightblue" stroke="midnightblue" points="1148.79,-520.321 1138.3,-521.753 1147.4,-527.18 1148.79,-520.321"/>
</g>
<!-- Node40 -->
<g id="node40" class="node"><title>Node40</title>
<g id="a_node40"><a xlink:href="Parton_8h.html" target="_top" xlink:title="Parton.h">
<polygon fill="white" stroke="black" points="1358.1,-390.5 1358.1,-410.5 1411.9,-410.5 1411.9,-390.5 1358.1,-390.5"/>
<text text-anchor="middle" x="1385" y="-397.5" font-family="Helvetica,sans-Serif" font-size="10.00">Parton.h</text>
</a>
</g>
</g>
<!-- Node8&#45;&gt;Node40 -->
<g id="edge133" class="edge"><title>Node8&#45;&gt;Node40</title>
<path fill="none" stroke="midnightblue" d="M1578.56,-561.276C1538.49,-528.204 1443.88,-450.104 1403.64,-416.886"/>
<polygon fill="midnightblue" stroke="midnightblue" points="1405.86,-414.178 1395.92,-410.511 1401.4,-419.576 1405.86,-414.178"/>
</g>
<!-- Node41 -->
<g id="node41" class="node"><title>Node41</title>
<g id="a_node41"><a xlink:href="RecoMet_8h.html" target="_top" xlink:title="RecoMet.h">
<polygon fill="white" stroke="black" points="1792.83,-333.5 1792.83,-353.5 1857.17,-353.5 1857.17,-333.5 1792.83,-333.5"/>
<text text-anchor="middle" x="1825" y="-340.5" font-family="Helvetica,sans-Serif" font-size="10.00">RecoMet.h</text>
</a>
</g>
</g>
<!-- Node8&#45;&gt;Node41 -->
<g id="edge139" class="edge"><title>Node8&#45;&gt;Node41</title>
<path fill="none" stroke="midnightblue" d="M1650.86,-569.776C1704.38,-561.937 1781.26,-547.158 1801,-525 1841.42,-479.637 1834.68,-400.647 1828.8,-364.093"/>
<polygon fill="midnightblue" stroke="midnightblue" points="1832.17,-363.051 1826.99,-353.812 1825.28,-364.268 1832.17,-363.051"/>
</g>
<!-- Node42 -->
<g id="node42" class="node"><title>Node42</title>
<g id="a_node42"><a xlink:href="Met_8h.html" target="_top" xlink:title="Met.h">
<polygon fill="white" stroke="black" points="1762.5,-270.5 1762.5,-290.5 1803.5,-290.5 1803.5,-270.5 1762.5,-270.5"/>
<text text-anchor="middle" x="1783" y="-277.5" font-family="Helvetica,sans-Serif" font-size="10.00">Met.h</text>
</a>
</g>
</g>
<!-- Node8&#45;&gt;Node42 -->
<g id="edge150" class="edge"><title>Node8&#45;&gt;Node42</title>
<path fill="none" stroke="midnightblue" d="M1651.27,-573.329C1768.73,-564.98 2036,-537.322 2036,-458.5 2036,-458.5 2036,-458.5 2036,-399.5 2036,-290.421 1911.04,-344.825 1813,-297 1811.84,-296.436 1810.67,-295.855 1809.48,-295.264"/>
<polygon fill="midnightblue" stroke="midnightblue" points="1810.88,-292.052 1800.38,-290.652 1807.72,-298.296 1810.88,-292.052"/>
</g>
<!-- Node43 -->
<g id="node43" class="node"><title>Node43</title>
<g id="a_node43"><a xlink:href="MetFilters_8h.html" target="_top" xlink:title="MetFilters.h">
<polygon fill="white" stroke="black" points="1821.89,-270.5 1821.89,-290.5 1890.11,-290.5 1890.11,-270.5 1821.89,-270.5"/>
<text text-anchor="middle" x="1856" y="-277.5" font-family="Helvetica,sans-Serif" font-size="10.00">MetFilters.h</text>
</a>
</g>
</g>
<!-- Node8&#45;&gt;Node43 -->
<g id="edge151" class="edge"><title>Node8&#45;&gt;Node43</title>
<path fill="none" stroke="midnightblue" d="M1651.03,-576.34C1790.18,-574.476 2150,-559.859 2150,-458.5 2150,-458.5 2150,-458.5 2150,-399.5 2150,-279.413 2014.38,-333.583 1900,-297 1896.91,-296.013 1893.72,-294.956 1890.52,-293.875"/>
<polygon fill="midnightblue" stroke="midnightblue" points="1891.64,-290.558 1881.04,-290.606 1889.36,-297.175 1891.64,-290.558"/>
</g>
<!-- Node44 -->
<g id="node44" class="node"><title>Node44</title>
<g id="a_node44"><a xlink:href="HLTBits_8h.html" target="_top" xlink:title="HLTBits.h">
<polygon fill="white" stroke="black" points="2011.05,-270.5 2011.05,-290.5 2070.95,-290.5 2070.95,-270.5 2011.05,-270.5"/>
<text text-anchor="middle" x="2041" y="-277.5" font-family="Helvetica,sans-Serif" font-size="10.00">HLTBits.h</text>
</a>
</g>
</g>
<!-- Node8&#45;&gt;Node44 -->
<g id="edge157" class="edge"><title>Node8&#45;&gt;Node44</title>
<path fill="none" stroke="midnightblue" d="M1650.96,-576.258C1867.66,-574.585 2663,-561.434 2663,-458.5 2663,-458.5 2663,-458.5 2663,-399.5 2663,-267.957 2206.56,-332.867 2080,-297 2077.01,-296.153 2073.94,-295.159 2070.89,-294.089"/>
<polygon fill="midnightblue" stroke="midnightblue" points="2071.97,-290.754 2061.37,-290.506 2069.5,-297.305 2071.97,-290.754"/>
</g>
<!-- Node45 -->
<g id="node45" class="node"><title>Node45</title>
<g id="a_node45"><a xlink:href="Recoil_8h.html" target="_top" xlink:title="Recoil.h">
<polygon fill="white" stroke="black" points="2088.94,-270.5 2088.94,-290.5 2141.06,-290.5 2141.06,-270.5 2088.94,-270.5"/>
<text text-anchor="middle" x="2115" y="-277.5" font-family="Helvetica,sans-Serif" font-size="10.00">Recoil.h</text>
</a>
</g>
</g>
<!-- Node8&#45;&gt;Node45 -->
<g id="edge163" class="edge"><title>Node8&#45;&gt;Node45</title>
<path fill="none" stroke="midnightblue" d="M1650.93,-576.663C1877.3,-576.647 2739,-569.309 2739,-458.5 2739,-458.5 2739,-458.5 2739,-399.5 2739,-341.991 2682.59,-351.085 2628,-333 2539.17,-303.57 2253.2,-287.858 2151.4,-283.089"/>
<polygon fill="midnightblue" stroke="midnightblue" points="2151.45,-279.588 2141.3,-282.624 2151.13,-286.58 2151.45,-279.588"/>
</g>
<!-- Node9&#45;&gt;Node3 -->
<g id="edge11" class="edge"><title>Node9&#45;&gt;Node3</title>
<path fill="none" stroke="midnightblue" d="M2634.5,-195.389C2613.09,-185.969 2585.85,-173.001 2563,-159 2542.46,-146.413 2542.3,-135.105 2520,-126 2457.73,-100.581 2271.11,-85.3641 2167.07,-78.6278"/>
<polygon fill="midnightblue" stroke="midnightblue" points="2167.16,-75.1266 2156.96,-77.983 2166.72,-82.1124 2167.16,-75.1266"/>
</g>
<!-- Node9&#45;&gt;Node5 -->
<g id="edge15" class="edge"><title>Node9&#45;&gt;Node5</title>
<path fill="none" stroke="midnightblue" d="M2727.15,-195.498C2745.29,-187.701 2763.44,-176.092 2774,-159 2797.83,-120.437 2792.73,-98.282 2774,-57 2768.35,-44.54 2757.41,-34.1506 2747.02,-26.4602"/>
<polygon fill="midnightblue" stroke="midnightblue" points="2748.77,-23.4191 2738.54,-20.6489 2744.81,-29.1916 2748.77,-23.4191"/>
</g>
<!-- Node9&#45;&gt;Node6 -->
<g id="edge16" class="edge"><title>Node9&#45;&gt;Node6</title>
<path fill="none" stroke="midnightblue" d="M2609.01,-196.273C2580.54,-188.048 2547.15,-175.913 2520,-159 2502.39,-148.034 2505.84,-134.675 2487,-126 2299.52,-39.6774 2220.43,-153.383 2024,-90 1981.11,-76.1614 1937.66,-45.5155 1913.74,-26.8718"/>
<polygon fill="midnightblue" stroke="midnightblue" points="1915.85,-24.0807 1905.84,-20.5994 1911.5,-29.561 1915.85,-24.0807"/>
</g>
<!-- Node10 -->
<g id="node10" class="node"><title>Node10</title>
<g id="a_node10"><a xlink:href="Object_8h.html" target="_top" xlink:title="Object.h">
<polygon fill="white" stroke="black" points="2033.38,-132.5 2033.38,-152.5 2086.62,-152.5 2086.62,-132.5 2033.38,-132.5"/>
<text text-anchor="middle" x="2060" y="-139.5" font-family="Helvetica,sans-Serif" font-size="10.00">Object.h</text>
</a>
</g>
</g>
<!-- Node9&#45;&gt;Node10 -->
<g id="edge12" class="edge"><title>Node9&#45;&gt;Node10</title>
<path fill="none" stroke="midnightblue" d="M2609.06,-207.525C2480.96,-200.952 2190.87,-183.789 2095,-159 2092.32,-158.306 2089.58,-157.428 2086.88,-156.443"/>
<polygon fill="midnightblue" stroke="midnightblue" points="2087.98,-153.111 2077.4,-152.549 2085.32,-159.586 2087.98,-153.111"/>
</g>
<!-- Node10&#45;&gt;Node3 -->
<g id="edge13" class="edge"><title>Node10&#45;&gt;Node3</title>
<path fill="none" stroke="midnightblue" d="M2064.72,-132.464C2069.26,-123.783 2076.31,-110.283 2082.47,-98.4955"/>
<polygon fill="midnightblue" stroke="midnightblue" points="2085.62,-100.018 2087.15,-89.5335 2079.41,-96.7764 2085.62,-100.018"/>
</g>
<!-- Node10&#45;&gt;Node5 -->
<g id="edge14" class="edge"><title>Node10&#45;&gt;Node5</title>
<path fill="none" stroke="midnightblue" d="M2078.22,-132.459C2083.53,-130.091 2089.41,-127.721 2095,-126 2314.15,-58.5054 2589.36,-25.2539 2686.27,-15.0344"/>
<polygon fill="midnightblue" stroke="midnightblue" points="2686.81,-18.4963 2696.4,-13.9816 2686.09,-11.5338 2686.81,-18.4963"/>
</g>
<!-- Node11&#45;&gt;Node4 -->
<g id="edge19" class="edge"><title>Node11&#45;&gt;Node4</title>
<path fill="none" stroke="midnightblue" d="M2286.09,-209.466C2215.51,-206.607 2059.56,-196.14 2024,-159 1990.77,-124.284 1995.82,-62.0708 2001.05,-30.7016"/>
<polygon fill="midnightblue" stroke="midnightblue" points="2004.53,-31.1187 2002.91,-20.648 1997.65,-29.8419 2004.53,-31.1187"/>
</g>
<!-- Node11&#45;&gt;Node5 -->
<g id="edge18" class="edge"><title>Node11&#45;&gt;Node5</title>
<path fill="none" stroke="midnightblue" d="M2355.97,-208.768C2451.42,-203.686 2710.94,-187.359 2736,-159 2767.98,-122.804 2745.51,-60.3509 2731.27,-29.6328"/>
<polygon fill="midnightblue" stroke="midnightblue" points="2734.36,-27.9833 2726.84,-20.5158 2728.06,-31.0403 2734.36,-27.9833"/>
</g>
<!-- Node12 -->
<g id="node12" class="node"><title>Node12</title>
<polygon fill="white" stroke="#bfbfbf" points="2104.27,-132.5 2104.27,-152.5 2159.73,-152.5 2159.73,-132.5 2104.27,-132.5"/>
<text text-anchor="middle" x="2132" y="-139.5" font-family="Helvetica,sans-Serif" font-size="10.00">Rtypes.h</text>
</g>
<!-- Node11&#45;&gt;Node12 -->
<g id="edge20" class="edge"><title>Node11&#45;&gt;Node12</title>
<path fill="none" stroke="midnightblue" d="M2292.21,-201.411C2261.48,-191.555 2211.48,-175.071 2169,-159 2166.88,-158.199 2164.71,-157.352 2162.52,-156.483"/>
<polygon fill="midnightblue" stroke="midnightblue" points="2163.61,-153.147 2153.03,-152.609 2160.97,-159.628 2163.61,-153.147"/>
</g>
<!-- Node13 -->
<g id="node13" class="node"><title>Node13</title>
<polygon fill="white" stroke="#bfbfbf" points="2177.66,-132.5 2177.66,-152.5 2270.34,-152.5 2270.34,-132.5 2177.66,-132.5"/>
<text text-anchor="middle" x="2224" y="-139.5" font-family="Helvetica,sans-Serif" font-size="10.00">TLorentzVector.h</text>
</g>
<!-- Node11&#45;&gt;Node13 -->
<g id="edge21" class="edge"><title>Node11&#45;&gt;Node13</title>
<path fill="none" stroke="midnightblue" d="M2307.92,-201.464C2291.94,-190.425 2264.67,-171.593 2245.57,-158.398"/>
<polygon fill="midnightblue" stroke="midnightblue" points="2247.4,-155.41 2237.18,-152.607 2243.42,-161.17 2247.4,-155.41"/>
</g>
<!-- Node14 -->
<g id="node14" class="node"><title>Node14</title>
<polygon fill="white" stroke="#bfbfbf" points="2288.55,-132.5 2288.55,-152.5 2353.45,-152.5 2353.45,-132.5 2288.55,-132.5"/>
<text text-anchor="middle" x="2321" y="-139.5" font-family="Helvetica,sans-Serif" font-size="10.00">TVector2.h</text>
</g>
<!-- Node11&#45;&gt;Node14 -->
<g id="edge22" class="edge"><title>Node11&#45;&gt;Node14</title>
<path fill="none" stroke="midnightblue" d="M2321,-201.464C2321,-191.629 2321,-175.609 2321,-162.9"/>
<polygon fill="midnightblue" stroke="midnightblue" points="2324.5,-162.823 2321,-152.823 2317.5,-162.823 2324.5,-162.823"/>
</g>
<!-- Node15 -->
<g id="node15" class="node"><title>Node15</title>
<polygon fill="white" stroke="#bfbfbf" points="2371.39,-132.5 2371.39,-152.5 2414.61,-152.5 2414.61,-132.5 2371.39,-132.5"/>
<text text-anchor="middle" x="2393" y="-139.5" font-family="Helvetica,sans-Serif" font-size="10.00">cmath</text>
</g>
<!-- Node11&#45;&gt;Node15 -->
<g id="edge23" class="edge"><title>Node11&#45;&gt;Node15</title>
<path fill="none" stroke="midnightblue" d="M2330.71,-201.464C2342.13,-190.834 2361.32,-172.979 2375.39,-159.889"/>
<polygon fill="midnightblue" stroke="midnightblue" points="2378.05,-162.197 2382.98,-152.823 2373.28,-157.073 2378.05,-162.197"/>
</g>
<!-- Node16 -->
<g id="node16" class="node"><title>Node16</title>
<polygon fill="white" stroke="#bfbfbf" points="2432.28,-132.5 2432.28,-152.5 2477.72,-152.5 2477.72,-132.5 2432.28,-132.5"/>
<text text-anchor="middle" x="2455" y="-139.5" font-family="Helvetica,sans-Serif" font-size="10.00">cstring</text>
</g>
<!-- Node11&#45;&gt;Node16 -->
<g id="edge24" class="edge"><title>Node11&#45;&gt;Node16</title>
<path fill="none" stroke="midnightblue" d="M2339.07,-201.464C2361.85,-190.075 2401.22,-170.392 2427.68,-157.162"/>
<polygon fill="midnightblue" stroke="midnightblue" points="2429.41,-160.209 2436.79,-152.607 2426.28,-153.948 2429.41,-160.209"/>
</g>
<!-- Node17&#45;&gt;Node11 -->
<g id="edge26" class="edge"><title>Node17&#45;&gt;Node11</title>
<path fill="none" stroke="midnightblue" d="M1978.34,-270.448C1985.95,-268.134 1994.25,-265.795 2002,-264 2098.61,-241.628 2213.9,-225.596 2276.01,-217.816"/>
<polygon fill="midnightblue" stroke="midnightblue" points="2276.75,-221.252 2286.24,-216.549 2275.89,-214.305 2276.75,-221.252"/>
</g>
<!-- Node18 -->
<g id="node18" class="node"><title>Node18</title>
<g id="a_node18"><a xlink:href="Singlet_8h.html" target="_top" xlink:title="../../Framework/interface\l/Singlet.h">
<polygon fill="white" stroke="black" points="1979.11,-195.5 1979.11,-227.5 2102.89,-227.5 2102.89,-195.5 1979.11,-195.5"/>
<text text-anchor="start" x="1987.11" y="-214.5" font-family="Helvetica,sans-Serif" font-size="10.00">../../Framework/interface</text>
<text text-anchor="middle" x="2041" y="-202.5" font-family="Helvetica,sans-Serif" font-size="10.00">/Singlet.h</text>
</a>
</g>
</g>
<!-- Node17&#45;&gt;Node18 -->
<g id="edge27" class="edge"><title>Node17&#45;&gt;Node18</title>
<path fill="none" stroke="midnightblue" d="M1963.14,-270.464C1975.72,-261.096 1995.85,-246.115 2012.48,-233.73"/>
<polygon fill="midnightblue" stroke="midnightblue" points="2014.87,-236.312 2020.81,-227.533 2010.69,-230.698 2014.87,-236.312"/>
</g>
<!-- Node19 -->
<g id="node19" class="node"><title>Node19</title>
<g id="a_node19"><a xlink:href="Container_8h.html" target="_top" xlink:title="../../Framework/interface\l/Container.h">
<polygon fill="white" stroke="red" points="1401.11,-195.5 1401.11,-227.5 1524.89,-227.5 1524.89,-195.5 1401.11,-195.5"/>
<text text-anchor="start" x="1409.11" y="-214.5" font-family="Helvetica,sans-Serif" font-size="10.00">../../Framework/interface</text>
<text text-anchor="middle" x="1463" y="-202.5" font-family="Helvetica,sans-Serif" font-size="10.00">/Container.h</text>
</a>
</g>
</g>
<!-- Node17&#45;&gt;Node19 -->
<g id="edge30" class="edge"><title>Node17&#45;&gt;Node19</title>
<path fill="none" stroke="midnightblue" d="M1923.97,-270.482C1916,-268.086 1907.21,-265.695 1899,-264 1772.27,-237.83 1621.87,-223.721 1534.93,-217.185"/>
<polygon fill="midnightblue" stroke="midnightblue" points="1535.14,-213.691 1524.91,-216.444 1534.62,-220.672 1535.14,-213.691"/>
</g>
<!-- Node23 -->
<g id="node23" class="node"><title>Node23</title>
<g id="a_node23"><a xlink:href="Ref_8h.html" target="_top" xlink:title="../../Framework/interface\l/Ref.h">
<polygon fill="white" stroke="red" points="888.106,-126.5 888.106,-158.5 1011.89,-158.5 1011.89,-126.5 888.106,-126.5"/>
<text text-anchor="start" x="896.106" y="-145.5" font-family="Helvetica,sans-Serif" font-size="10.00">../../Framework/interface</text>
<text text-anchor="middle" x="950" y="-133.5" font-family="Helvetica,sans-Serif" font-size="10.00">/Ref.h</text>
</a>
</g>
</g>
<!-- Node17&#45;&gt;Node23 -->
<g id="edge35" class="edge"><title>Node17&#45;&gt;Node23</title>
<path fill="none" stroke="midnightblue" d="M1920.76,-270.47C1913.62,-268.344 1906.04,-266.089 1899,-264 1844.8,-247.925 1828.04,-252.316 1777,-228 1753.63,-216.865 1753.46,-203.491 1729,-195 1663.33,-172.202 1202.68,-152.872 1022.24,-146.091"/>
<polygon fill="midnightblue" stroke="midnightblue" points="1022.18,-142.586 1012.06,-145.71 1021.92,-149.581 1022.18,-142.586"/>
</g>
<!-- Node24 -->
<g id="node24" class="node"><title>Node24</title>
<g id="a_node24"><a xlink:href="RefVector_8h.html" target="_top" xlink:title="../../Framework/interface\l/RefVector.h">
<polygon fill="white" stroke="red" points="760.106,-195.5 760.106,-227.5 883.894,-227.5 883.894,-195.5 760.106,-195.5"/>
<text text-anchor="start" x="768.106" y="-214.5" font-family="Helvetica,sans-Serif" font-size="10.00">../../Framework/interface</text>
<text text-anchor="middle" x="822" y="-202.5" font-family="Helvetica,sans-Serif" font-size="10.00">/RefVector.h</text>
</a>
</g>
</g>
<!-- Node17&#45;&gt;Node24 -->
<g id="edge36" class="edge"><title>Node17&#45;&gt;Node24</title>
<path fill="none" stroke="midnightblue" d="M1925.11,-270.44C1916.86,-267.919 1907.64,-265.471 1899,-264 1800.69,-247.252 1119.77,-222.701 894.316,-214.943"/>
<polygon fill="midnightblue" stroke="midnightblue" points="894.361,-211.443 884.247,-214.597 894.121,-218.439 894.361,-211.443"/>
</g>
<!-- Node18&#45;&gt;Node4 -->
<g id="edge29" class="edge"><title>Node18&#45;&gt;Node4</title>
<path fill="none" stroke="midnightblue" d="M2019.98,-195.403C2009.11,-186.254 1996.9,-173.55 1991,-159 1973.34,-115.459 1988.01,-58.9574 1997.86,-30.1588"/>
<polygon fill="midnightblue" stroke="midnightblue" points="2001.22,-31.157 2001.33,-20.5626 1994.64,-28.7806 2001.22,-31.157"/>
</g>
<!-- Node18&#45;&gt;Node10 -->
<g id="edge28" class="edge"><title>Node18&#45;&gt;Node10</title>
<path fill="none" stroke="midnightblue" d="M2045.31,-195.297C2048.07,-185.554 2051.68,-172.833 2054.63,-162.436"/>
<polygon fill="midnightblue" stroke="midnightblue" points="2058.04,-163.24 2057.4,-152.665 2051.31,-161.33 2058.04,-163.24"/>
</g>
<!-- Node20 -->
<g id="node20" class="node"><title>Node20</title>
<g id="a_node20"><a xlink:href="ArrayBase_8h.html" target="_top" xlink:title="ArrayBase.h">
<polygon fill="white" stroke="red" points="1459.49,-132.5 1459.49,-152.5 1530.51,-152.5 1530.51,-132.5 1459.49,-132.5"/>
<text text-anchor="middle" x="1495" y="-139.5" font-family="Helvetica,sans-Serif" font-size="10.00">ArrayBase.h</text>
</a>
</g>
</g>
<!-- Node19&#45;&gt;Node20 -->
<g id="edge31" class="edge"><title>Node19&#45;&gt;Node20</title>
<path fill="none" stroke="midnightblue" d="M1470.26,-195.297C1475.01,-185.349 1481.25,-172.296 1486.27,-161.782"/>
<polygon fill="midnightblue" stroke="midnightblue" points="1489.47,-163.197 1490.62,-152.665 1483.15,-160.18 1489.47,-163.197"/>
</g>
<!-- Node21 -->
<g id="node21" class="node"><title>Node21</title>
<g id="a_node21"><a xlink:href="CollectionBase_8h.html" target="_top" xlink:title="CollectionBase.h">
<polygon fill="white" stroke="red" points="1559.49,-63.5 1559.49,-83.5 1650.51,-83.5 1650.51,-63.5 1559.49,-63.5"/>
<text text-anchor="middle" x="1605" y="-70.5" font-family="Helvetica,sans-Serif" font-size="10.00">CollectionBase.h</text>
</a>
</g>
</g>
<!-- Node19&#45;&gt;Node21 -->
<g id="edge32" class="edge"><title>Node19&#45;&gt;Node21</title>
<path fill="none" stroke="midnightblue" d="M1454.59,-195.226C1445.81,-177.011 1435.24,-146.463 1450,-126 1472.5,-94.8148 1514.66,-82.2175 1549.33,-77.266"/>
<polygon fill="midnightblue" stroke="midnightblue" points="1549.87,-80.7264 1559.36,-76.0126 1549,-73.7805 1549.87,-80.7264"/>
</g>
<!-- Node22 -->
<g id="node22" class="node"><title>Node22</title>
<g id="a_node22"><a xlink:href="Iterator_8h.html" target="_top" xlink:title="Iterator.h">
<polygon fill="white" stroke="red" points="1548.99,-132.5 1548.99,-152.5 1605.01,-152.5 1605.01,-132.5 1548.99,-132.5"/>
<text text-anchor="middle" x="1577" y="-139.5" font-family="Helvetica,sans-Serif" font-size="10.00">Iterator.h</text>
</a>
</g>
</g>
<!-- Node19&#45;&gt;Node22 -->
<g id="edge34" class="edge"><title>Node19&#45;&gt;Node22</title>
<path fill="none" stroke="midnightblue" d="M1488.58,-195.464C1507.79,-184.176 1533.92,-168.821 1552.78,-157.733"/>
<polygon fill="midnightblue" stroke="midnightblue" points="1554.81,-160.602 1561.66,-152.518 1551.26,-154.567 1554.81,-160.602"/>
</g>
<!-- Node21&#45;&gt;Node6 -->
<g id="edge33" class="edge"><title>Node21&#45;&gt;Node6</title>
<path fill="none" stroke="midnightblue" d="M1647.79,-63.4992C1706.6,-51.1283 1811.06,-29.1561 1863.35,-18.1583"/>
<polygon fill="midnightblue" stroke="midnightblue" points="1864.31,-21.5318 1873.38,-16.0483 1862.87,-14.6817 1864.31,-21.5318"/>
</g>
<!-- Node24&#45;&gt;Node6 -->
<g id="edge38" class="edge"><title>Node24&#45;&gt;Node6</title>
<path fill="none" stroke="midnightblue" d="M827.554,-195.295C835.604,-175.643 852.515,-142.049 879,-126 1050.42,-22.1297 1710.04,-12.4152 1863.13,-11.5681"/>
<polygon fill="midnightblue" stroke="midnightblue" points="1863.29,-15.0675 1873.27,-11.5212 1863.25,-8.06759 1863.29,-15.0675"/>
</g>
<!-- Node24&#45;&gt;Node23 -->
<g id="edge37" class="edge"><title>Node24&#45;&gt;Node23</title>
<path fill="none" stroke="midnightblue" d="M850.726,-195.464C868.797,-186.005 892.325,-173.689 911.94,-163.422"/>
<polygon fill="midnightblue" stroke="midnightblue" points="913.691,-166.456 920.927,-158.718 910.444,-160.254 913.691,-166.456"/>
</g>
<!-- Node25&#45;&gt;Node11 -->
<g id="edge40" class="edge"><title>Node25&#45;&gt;Node11</title>
<path fill="none" stroke="midnightblue" d="M1008.89,-391.505C1011.95,-390.911 1015.03,-390.392 1018,-390 1086.38,-380.984 2201.82,-392.57 2259,-354 2300.59,-325.949 2314.5,-263.358 2318.98,-231.669"/>
<polygon fill="midnightblue" stroke="midnightblue" points="2322.48,-231.868 2320.24,-221.513 2315.53,-231.008 2322.48,-231.868"/>
</g>
<!-- Node25&#45;&gt;Node19 -->
<g id="edge57" class="edge"><title>Node25&#45;&gt;Node19</title>
<path fill="none" stroke="midnightblue" d="M978.772,-390.334C980.366,-376.509 985.128,-350.12 999,-333 1038.22,-284.6 1062.11,-284.309 1121,-264 1210.81,-233.028 1320.24,-220.668 1390.74,-215.745"/>
<polygon fill="midnightblue" stroke="midnightblue" points="1391.1,-219.228 1400.85,-215.071 1390.64,-212.244 1391.1,-219.228"/>
</g>
<!-- Node25&#45;&gt;Node23 -->
<g id="edge58" class="edge"><title>Node25&#45;&gt;Node23</title>
<path fill="none" stroke="midnightblue" d="M947.374,-396.865C858.682,-388.535 604.834,-359.546 556,-297 528.101,-261.268 526.094,-229.07 556,-195 576.858,-171.238 769.916,-155.097 877.831,-147.849"/>
<polygon fill="midnightblue" stroke="midnightblue" points="878.254,-151.329 888,-147.175 877.791,-144.344 878.254,-151.329"/>
</g>
<!-- Node25&#45;&gt;Node24 -->
<g id="edge59" class="edge"><title>Node25&#45;&gt;Node24</title>
<path fill="none" stroke="midnightblue" d="M947.219,-396.606C894.798,-389.808 789.638,-367.607 746,-297 738.289,-284.524 739.128,-276.957 746,-264 752.85,-251.083 764.55,-240.81 776.744,-232.946"/>
<polygon fill="midnightblue" stroke="midnightblue" points="778.849,-235.766 785.648,-227.641 775.266,-229.752 778.849,-235.766"/>
</g>
<!-- Node26 -->
<g id="node26" class="node"><title>Node26</title>
<g id="a_node26"><a xlink:href="ParticleM_8h.html" target="_top" xlink:title="ParticleM.h">
<polygon fill="white" stroke="black" points="1008,-333.5 1008,-353.5 1074,-353.5 1074,-333.5 1008,-333.5"/>
<text text-anchor="middle" x="1041" y="-340.5" font-family="Helvetica,sans-Serif" font-size="10.00">ParticleM.h</text>
</a>
</g>
</g>
<!-- Node25&#45;&gt;Node26 -->
<g id="edge41" class="edge"><title>Node25&#45;&gt;Node26</title>
<path fill="none" stroke="midnightblue" d="M988.403,-390.418C997.74,-382.267 1011.65,-370.12 1022.83,-360.367"/>
<polygon fill="midnightblue" stroke="midnightblue" points="1025.14,-362.993 1030.37,-353.779 1020.54,-357.719 1025.14,-362.993"/>
</g>
<!-- Node26&#45;&gt;Node11 -->
<g id="edge42" class="edge"><title>Node26&#45;&gt;Node11</title>
<path fill="none" stroke="midnightblue" d="M1074,-342.569C1247.44,-342.741 2049.35,-341.129 2150,-297 2169,-288.671 2165.55,-275.215 2183,-264 2211.86,-245.446 2248.38,-232.194 2276.6,-223.783"/>
<polygon fill="midnightblue" stroke="midnightblue" points="2277.57,-227.145 2286.21,-221.009 2275.63,-220.42 2277.57,-227.145"/>
</g>
<!-- Node26&#45;&gt;Node19 -->
<g id="edge54" class="edge"><title>Node26&#45;&gt;Node19</title>
<path fill="none" stroke="midnightblue" d="M1074.29,-336.526C1106.82,-329.843 1157.12,-317.219 1197,-297 1218.49,-286.107 1218.21,-274.278 1240,-264 1287.78,-241.463 1346.07,-228.445 1391.08,-221.137"/>
<polygon fill="midnightblue" stroke="midnightblue" points="1391.71,-224.58 1401.05,-219.575 1390.63,-217.664 1391.71,-224.58"/>
</g>
<!-- Node26&#45;&gt;Node23 -->
<g id="edge55" class="edge"><title>Node26&#45;&gt;Node23</title>
<path fill="none" stroke="midnightblue" d="M1019.01,-333.343C1003.86,-325.85 984.609,-313.748 974,-297 949.08,-257.661 946.857,-201.569 948.05,-169.212"/>
<polygon fill="midnightblue" stroke="midnightblue" points="951.566,-168.99 948.584,-158.823 944.576,-168.631 951.566,-168.99"/>
</g>
<!-- Node26&#45;&gt;Node24 -->
<g id="edge56" class="edge"><title>Node26&#45;&gt;Node24</title>
<path fill="none" stroke="midnightblue" d="M1007.79,-334.103C971.562,-324.566 916.277,-308.797 898,-297 873.242,-281.02 851.505,-254.926 837.69,-235.957"/>
<polygon fill="midnightblue" stroke="midnightblue" points="840.375,-233.692 831.742,-227.55 834.661,-237.735 840.375,-233.692"/>
</g>
<!-- Node27 -->
<g id="node27" class="node"><title>Node27</title>
<g id="a_node27"><a xlink:href="Particle_8h.html" target="_top" xlink:title="Particle.h">
<polygon fill="white" stroke="black" points="1130.16,-270.5 1130.16,-290.5 1187.84,-290.5 1187.84,-270.5 1130.16,-270.5"/>
<text text-anchor="middle" x="1159" y="-277.5" font-family="Helvetica,sans-Serif" font-size="10.00">Particle.h</text>
</a>
</g>
</g>
<!-- Node26&#45;&gt;Node27 -->
<g id="edge43" class="edge"><title>Node26&#45;&gt;Node27</title>
<path fill="none" stroke="midnightblue" d="M1058.41,-333.499C1077.93,-323.408 1109.81,-306.928 1132.45,-295.227"/>
<polygon fill="midnightblue" stroke="midnightblue" points="1134.24,-298.239 1141.52,-290.538 1131.03,-292.021 1134.24,-298.239"/>
</g>
<!-- Node27&#45;&gt;Node11 -->
<g id="edge44" class="edge"><title>Node27&#45;&gt;Node11</title>
<path fill="none" stroke="midnightblue" d="M1187.86,-278.152C1303.86,-272.688 1747.4,-251.369 2112,-228 2168.69,-224.366 2233.97,-219.4 2276.27,-216.078"/>
<polygon fill="midnightblue" stroke="midnightblue" points="2276.56,-219.566 2286.25,-215.291 2276.01,-212.588 2276.56,-219.566"/>
</g>
<!-- Node27&#45;&gt;Node19 -->
<g id="edge51" class="edge"><title>Node27&#45;&gt;Node19</title>
<path fill="none" stroke="midnightblue" d="M1182,-270.484C1188.41,-268.17 1195.42,-265.823 1202,-264 1265.03,-246.528 1338.2,-232.627 1391,-223.692"/>
<polygon fill="midnightblue" stroke="midnightblue" points="1391.66,-227.13 1400.95,-222.027 1390.51,-220.226 1391.66,-227.13"/>
</g>
<!-- Node27&#45;&gt;Node23 -->
<g id="edge52" class="edge"><title>Node27&#45;&gt;Node23</title>
<path fill="none" stroke="midnightblue" d="M1152.4,-270.395C1139.72,-253.459 1110.32,-216.855 1078,-195 1057.69,-181.267 1033.16,-170.283 1011.03,-162.045"/>
<polygon fill="midnightblue" stroke="midnightblue" points="1011.98,-158.667 1001.38,-158.568 1009.6,-165.252 1011.98,-158.667"/>
</g>
<!-- Node27&#45;&gt;Node24 -->
<g id="edge53" class="edge"><title>Node27&#45;&gt;Node24</title>
<path fill="none" stroke="midnightblue" d="M1136.02,-270.391C1129.61,-268.077 1122.6,-265.752 1116,-264 1041.44,-244.189 954.159,-230.002 894.177,-221.598"/>
<polygon fill="midnightblue" stroke="midnightblue" points="894.434,-218.101 884.049,-220.198 893.475,-225.035 894.434,-218.101"/>
</g>
<!-- Node28 -->
<g id="node28" class="node"><title>Node28</title>
<g id="a_node28"><a xlink:href="ContainerElement_8h.html" target="_top" xlink:title="ContainerElement.h">
<polygon fill="white" stroke="red" points="1856.82,-201.5 1856.82,-221.5 1961.18,-221.5 1961.18,-201.5 1856.82,-201.5"/>
<text text-anchor="middle" x="1909" y="-208.5" font-family="Helvetica,sans-Serif" font-size="10.00">ContainerElement.h</text>
</a>
</g>
</g>
<!-- Node27&#45;&gt;Node28 -->
<g id="edge45" class="edge"><title>Node27&#45;&gt;Node28</title>
<path fill="none" stroke="midnightblue" d="M1187.94,-276.915C1298.01,-267.082 1692.09,-231.877 1846.4,-218.092"/>
<polygon fill="midnightblue" stroke="midnightblue" points="1847,-221.552 1856.65,-217.176 1846.38,-214.58 1847,-221.552"/>
</g>
<!-- Node28&#45;&gt;Node3 -->
<g id="edge47" class="edge"><title>Node28&#45;&gt;Node3</title>
<path fill="none" stroke="midnightblue" d="M1921.4,-201.347C1942.47,-185.814 1986.58,-153.318 2024,-126 2037.69,-116.005 2052.9,-104.966 2065.72,-95.6792"/>
<polygon fill="midnightblue" stroke="midnightblue" points="2068.11,-98.2646 2074.16,-89.5647 2064.01,-92.5949 2068.11,-98.2646"/>
</g>
<!-- Node28&#45;&gt;Node4 -->
<g id="edge49" class="edge"><title>Node28&#45;&gt;Node4</title>
<path fill="none" stroke="midnightblue" d="M1913.07,-201.433C1923.82,-177.598 1953.97,-111.28 1981,-57 1985.58,-47.8062 1990.89,-37.6906 1995.34,-29.3368"/>
<polygon fill="midnightblue" stroke="midnightblue" points="1998.44,-30.9656 2000.09,-20.5001 1992.28,-27.6519 1998.44,-30.9656"/>
</g>
<!-- Node28&#45;&gt;Node5 -->
<g id="edge48" class="edge"><title>Node28&#45;&gt;Node5</title>
<path fill="none" stroke="midnightblue" d="M1939.48,-201.485C1949.15,-198.966 1959.95,-196.508 1970,-195 2050.64,-182.899 2643.11,-214.336 2703,-159 2738.47,-126.229 2732.25,-62.6126 2726.33,-30.7132"/>
<polygon fill="midnightblue" stroke="midnightblue" points="2729.67,-29.605 2724.24,-20.5117 2722.82,-31.0109 2729.67,-29.605"/>
</g>
<!-- Node28&#45;&gt;Node6 -->
<g id="edge50" class="edge"><title>Node28&#45;&gt;Node6</title>
<path fill="none" stroke="midnightblue" d="M1901.12,-201.401C1893.25,-191.666 1881.68,-175.398 1877,-159 1864.56,-115.407 1868.51,-101.532 1877,-57 1878.77,-47.7295 1882.39,-37.9365 1885.93,-29.8202"/>
<polygon fill="midnightblue" stroke="midnightblue" points="1889.17,-31.1455 1890.21,-20.6019 1882.82,-28.1946 1889.17,-31.1455"/>
</g>
<!-- Node28&#45;&gt;Node10 -->
<g id="edge46" class="edge"><title>Node28&#45;&gt;Node10</title>
<path fill="none" stroke="midnightblue" d="M1929.36,-201.464C1955.26,-189.975 2000.17,-170.046 2029.99,-156.815"/>
<polygon fill="midnightblue" stroke="midnightblue" points="2031.75,-159.862 2039.48,-152.607 2028.92,-153.463 2031.75,-159.862"/>
</g>
<!-- Node29&#45;&gt;Node11 -->
<g id="edge61" class="edge"><title>Node29&#45;&gt;Node11</title>
<path fill="none" stroke="midnightblue" d="M1668.39,-274.07C1692.96,-270.932 1724.73,-267.02 1753,-264 1947.3,-243.245 2179.59,-223.884 2275.82,-216.103"/>
<polygon fill="midnightblue" stroke="midnightblue" points="2276.37,-219.569 2286.06,-215.277 2275.81,-212.592 2276.37,-219.569"/>
</g>
<!-- Node29&#45;&gt;Node19 -->
<g id="edge63" class="edge"><title>Node29&#45;&gt;Node19</title>
<path fill="none" stroke="midnightblue" d="M1604.88,-270.464C1580.48,-260.494 1540.51,-244.167 1509.21,-231.378"/>
<polygon fill="midnightblue" stroke="midnightblue" points="1510.38,-228.075 1499.8,-227.533 1507.73,-234.556 1510.38,-228.075"/>
</g>
<!-- Node29&#45;&gt;Node23 -->
<g id="edge64" class="edge"><title>Node29&#45;&gt;Node23</title>
<path fill="none" stroke="midnightblue" d="M1620.31,-270.3C1606.53,-252.16 1572.97,-212.064 1534,-195 1444.04,-155.606 1157.87,-146.34 1022.41,-144.164"/>
<polygon fill="midnightblue" stroke="midnightblue" points="1022.19,-140.661 1012.13,-144.008 1022.08,-147.66 1022.19,-140.661"/>
</g>
<!-- Node29&#45;&gt;Node24 -->
<g id="edge65" class="edge"><title>Node29&#45;&gt;Node24</title>
<path fill="none" stroke="midnightblue" d="M1585.41,-276.039C1455.8,-265.251 1058.05,-232.146 893.949,-218.488"/>
<polygon fill="midnightblue" stroke="midnightblue" points="894.21,-214.998 883.954,-217.656 893.629,-221.974 894.21,-214.998"/>
</g>
<!-- Node29&#45;&gt;Node28 -->
<g id="edge62" class="edge"><title>Node29&#45;&gt;Node28</title>
<path fill="none" stroke="midnightblue" d="M1665.03,-270.464C1715.7,-258.426 1805.37,-237.121 1860.75,-223.964"/>
<polygon fill="midnightblue" stroke="midnightblue" points="1861.75,-227.324 1870.67,-221.607 1860.13,-220.513 1861.75,-227.324"/>
</g>
<!-- Node30&#45;&gt;Node11 -->
<g id="edge67" class="edge"><title>Node30&#45;&gt;Node11</title>
<path fill="none" stroke="midnightblue" d="M982.555,-511.033C1007.86,-509.025 1044.75,-506.177 1077,-504 1347.97,-485.709 1416.39,-490.946 1687,-468 1916.46,-448.543 1973.54,-439.954 2202,-411 2246.43,-405.369 2571.66,-387.832 2601,-354 2627.21,-323.782 2626.6,-294.736 2601,-264 2571.61,-228.706 2437.31,-217.514 2365.92,-214.031"/>
<polygon fill="midnightblue" stroke="midnightblue" points="2366.01,-210.532 2355.86,-213.571 2365.69,-217.525 2366.01,-210.532"/>
</g>
<!-- Node30&#45;&gt;Node19 -->
<g id="edge80" class="edge"><title>Node30&#45;&gt;Node19</title>
<path fill="none" stroke="midnightblue" d="M982.776,-510.926C1087.22,-502.149 1422.2,-473.624 1432,-468 1513.55,-421.212 1509.07,-355.631 1488,-264 1485.83,-254.57 1481.7,-244.863 1477.41,-236.455"/>
<polygon fill="midnightblue" stroke="midnightblue" points="1480.44,-234.711 1472.59,-227.597 1474.29,-238.055 1480.44,-234.711"/>
</g>
<!-- Node30&#45;&gt;Node23 -->
<g id="edge81" class="edge"><title>Node30&#45;&gt;Node23</title>
<path fill="none" stroke="midnightblue" d="M921.449,-513.143C787.472,-511.381 255.645,-502.265 190,-468 71.2022,-405.99 -29.9739,-292.462 62,-195 89.8646,-165.473 671.337,-149.701 877.943,-145.013"/>
<polygon fill="midnightblue" stroke="midnightblue" points="878.163,-148.509 888.082,-144.785 878.006,-141.511 878.163,-148.509"/>
</g>
<!-- Node30&#45;&gt;Node24 -->
<g id="edge82" class="edge"><title>Node30&#45;&gt;Node24</title>
<path fill="none" stroke="midnightblue" d="M921.201,-513.601C788.626,-513.769 270.741,-511.612 214,-468 171.656,-435.453 184.555,-406.718 176,-354 169.593,-314.517 148.863,-293.387 176,-264 214.278,-222.549 589.208,-214.437 749.702,-212.868"/>
<polygon fill="midnightblue" stroke="midnightblue" points="749.99,-216.366 759.957,-212.774 749.926,-209.366 749.99,-216.366"/>
</g>
<!-- Node30&#45;&gt;Node29 -->
<g id="edge83" class="edge"><title>Node30&#45;&gt;Node29</title>
<path fill="none" stroke="midnightblue" d="M982.564,-511.148C1007.87,-509.208 1044.77,-506.394 1077,-504 1132.1,-499.906 1526.16,-497.315 1573,-468 1629.29,-432.767 1630.92,-341.305 1628.69,-301.029"/>
<polygon fill="midnightblue" stroke="midnightblue" points="1632.17,-300.638 1627.98,-290.908 1625.18,-301.128 1632.17,-300.638"/>
</g>
<!-- Node31 -->
<g id="node31" class="node"><title>Node31</title>
<g id="a_node31"><a xlink:href="Lepton_8h.html" target="_top" xlink:title="Lepton.h">
<polygon fill="white" stroke="black" points="333.544,-447.5 333.544,-467.5 388.456,-467.5 388.456,-447.5 333.544,-447.5"/>
<text text-anchor="middle" x="361" y="-454.5" font-family="Helvetica,sans-Serif" font-size="10.00">Lepton.h</text>
</a>
</g>
</g>
<!-- Node30&#45;&gt;Node31 -->
<g id="edge68" class="edge"><title>Node30&#45;&gt;Node31</title>
<path fill="none" stroke="midnightblue" d="M921.47,-510.659C822.078,-501.409 507.903,-472.171 398.781,-462.016"/>
<polygon fill="midnightblue" stroke="midnightblue" points="398.859,-458.508 388.578,-461.066 398.21,-465.478 398.859,-458.508"/>
</g>
<!-- Node31&#45;&gt;Node11 -->
<g id="edge69" class="edge"><title>Node31&#45;&gt;Node11</title>
<path fill="none" stroke="midnightblue" d="M388.859,-455.629C510.951,-451.743 1010.95,-435.117 1421,-411 1546.02,-403.647 1577.01,-397.92 1702,-390 1740.42,-387.565 2367.5,-381.919 2394,-354 2421.54,-324.99 2412.41,-299.513 2394,-264 2385.31,-247.237 2368.38,-234.771 2353.01,-226.306"/>
<polygon fill="midnightblue" stroke="midnightblue" points="2354.22,-222.995 2343.73,-221.55 2351.03,-229.225 2354.22,-222.995"/>
</g>
<!-- Node31&#45;&gt;Node19 -->
<g id="edge71" class="edge"><title>Node31&#45;&gt;Node19</title>
<path fill="none" stroke="midnightblue" d="M385.917,-447.42C421.553,-434.473 489.164,-410.053 547,-390 713.121,-332.401 750.022,-300.571 922,-264 1087.45,-228.818 1286.49,-217.655 1390.93,-214.124"/>
<polygon fill="midnightblue" stroke="midnightblue" points="1391.17,-217.619 1401.05,-213.796 1390.94,-210.622 1391.17,-217.619"/>
</g>
<!-- Node31&#45;&gt;Node23 -->
<g id="edge72" class="edge"><title>Node31&#45;&gt;Node23</title>
<path fill="none" stroke="midnightblue" d="M349.637,-447.417C340.207,-439.091 327.487,-425.832 322,-411 318.762,-402.246 320.505,-399.213 322,-390 339.215,-283.915 369.292,-243.892 465,-195 535.268,-159.104 760.284,-148.178 877.482,-144.89"/>
<polygon fill="midnightblue" stroke="midnightblue" points="877.889,-148.381 887.792,-144.613 877.701,-141.383 877.889,-148.381"/>
</g>
<!-- Node31&#45;&gt;Node24 -->
<g id="edge73" class="edge"><title>Node31&#45;&gt;Node24</title>
<path fill="none" stroke="midnightblue" d="M350.944,-447.273C338.474,-434.651 319.802,-411.151 328,-390 356.622,-316.157 382.508,-298.072 454,-264 504.939,-239.723 658.111,-224.576 750.002,-217.418"/>
<polygon fill="midnightblue" stroke="midnightblue" points="750.366,-220.901 760.069,-216.647 749.831,-213.921 750.366,-220.901"/>
</g>
<!-- Node31&#45;&gt;Node27 -->
<g id="edge70" class="edge"><title>Node31&#45;&gt;Node27</title>
<path fill="none" stroke="midnightblue" d="M388.747,-449.508C438.419,-437.06 545.865,-410.445 637,-390 817.087,-349.599 1033.32,-306.311 1120.14,-289.143"/>
<polygon fill="midnightblue" stroke="midnightblue" points="1120.94,-292.552 1130.07,-287.18 1119.58,-285.684 1120.94,-292.552"/>
</g>
<!-- Node31&#45;&gt;Node32 -->
<g id="edge74" class="edge"><title>Node31&#45;&gt;Node32</title>
<path fill="none" stroke="midnightblue" d="M388.786,-454.94C486.221,-449.434 821.445,-430.216 1098,-411 1122.55,-409.294 1149.84,-407.206 1172.47,-405.422"/>
<polygon fill="midnightblue" stroke="midnightblue" points="1172.82,-408.905 1182.51,-404.626 1172.26,-401.927 1172.82,-408.905"/>
</g>
<!-- Node32&#45;&gt;Node11 -->
<g id="edge75" class="edge"><title>Node32&#45;&gt;Node11</title>
<path fill="none" stroke="midnightblue" d="M1259.34,-396.276C1284.76,-394.232 1318.85,-391.669 1349,-390 1403.73,-386.971 2296.95,-393.46 2335,-354 2367.02,-320.79 2344.83,-260.664 2330.51,-230.615"/>
<polygon fill="midnightblue" stroke="midnightblue" points="2333.64,-229.048 2326.05,-221.66 2327.38,-232.171 2333.64,-229.048"/>
</g>
<!-- Node32&#45;&gt;Node19 -->
<g id="edge77" class="edge"><title>Node32&#45;&gt;Node19</title>
<path fill="none" stroke="midnightblue" d="M1232.67,-390.481C1269.33,-362.156 1382.82,-274.454 1435.55,-233.708"/>
<polygon fill="midnightblue" stroke="midnightblue" points="1437.7,-236.472 1443.47,-227.588 1433.42,-230.933 1437.7,-236.472"/>
</g>
<!-- Node32&#45;&gt;Node23 -->
<g id="edge78" class="edge"><title>Node32&#45;&gt;Node23</title>
<path fill="none" stroke="midnightblue" d="M1199.48,-390.472C1164.88,-375.17 1096.12,-341.423 1050,-297 1009.73,-258.206 977.606,-200.299 961.434,-167.828"/>
<polygon fill="midnightblue" stroke="midnightblue" points="964.469,-166.067 956.936,-158.617 958.179,-169.139 964.469,-166.067"/>
</g>
<!-- Node32&#45;&gt;Node24 -->
<g id="edge79" class="edge"><title>Node32&#45;&gt;Node24</title>
<path fill="none" stroke="midnightblue" d="M1182.44,-393.455C1098.61,-379.576 903.56,-343.052 857,-297 840.692,-280.87 831.644,-256.039 826.856,-237.461"/>
<polygon fill="midnightblue" stroke="midnightblue" points="830.24,-236.563 824.56,-227.619 823.423,-238.153 830.24,-236.563"/>
</g>
<!-- Node32&#45;&gt;Node26 -->
<g id="edge76" class="edge"><title>Node32&#45;&gt;Node26</title>
<path fill="none" stroke="midnightblue" d="M1191.28,-390.418C1160.96,-381.155 1113.76,-366.732 1080.36,-356.526"/>
<polygon fill="midnightblue" stroke="midnightblue" points="1081.05,-353.079 1070.47,-353.504 1079.01,-359.774 1081.05,-353.079"/>
</g>
<!-- Node33&#45;&gt;Node11 -->
<g id="edge85" class="edge"><title>Node33&#45;&gt;Node11</title>
<path fill="none" stroke="midnightblue" d="M300.83,-512.917C423.645,-509.952 978.416,-495.591 1432,-468 1545.51,-461.096 1573.65,-456.122 1687,-447 1890.53,-430.621 1945.55,-454.705 2145,-411 2171.37,-405.221 2175.7,-396.115 2202,-390 2277.08,-372.541 2494.9,-410.81 2547,-354 2574.04,-324.518 2572.96,-295.259 2548,-264 2525.7,-236.072 2425.85,-222.151 2366.26,-216.214"/>
<polygon fill="midnightblue" stroke="midnightblue" points="2366.27,-212.7 2355.98,-215.23 2365.6,-219.668 2366.27,-212.7"/>
</g>
<!-- Node33&#45;&gt;Node19 -->
<g id="edge87" class="edge"><title>Node33&#45;&gt;Node19</title>
<path fill="none" stroke="midnightblue" d="M272.96,-504.344C268.988,-490.531 263.872,-464.159 276,-447 416.691,-247.955 554.529,-314.444 793,-264 1006.98,-218.736 1266.89,-212.149 1390.69,-211.865"/>
<polygon fill="midnightblue" stroke="midnightblue" points="1390.8,-215.365 1400.8,-211.855 1390.8,-208.365 1390.8,-215.365"/>
</g>
<!-- Node33&#45;&gt;Node23 -->
<g id="edge88" class="edge"><title>Node33&#45;&gt;Node23</title>
<path fill="none" stroke="midnightblue" d="M251.02,-508.931C183.08,-495.799 0,-455.409 0,-401.5 0,-401.5 0,-401.5 0,-279.5 0,-238.85 1.84932,-218.525 35,-195 103.067,-146.697 674.284,-142.978 878.099,-143.208"/>
<polygon fill="midnightblue" stroke="midnightblue" points="878.098,-146.708 888.103,-143.223 878.108,-139.708 878.098,-146.708"/>
</g>
<!-- Node33&#45;&gt;Node24 -->
<g id="edge89" class="edge"><title>Node33&#45;&gt;Node24</title>
<path fill="none" stroke="midnightblue" d="M251.206,-506.563C231.718,-499.838 205.377,-487.711 190,-468 133.591,-395.693 96.7146,-331.311 159,-264 198.466,-221.349 585.918,-213.931 749.603,-212.708"/>
<polygon fill="midnightblue" stroke="midnightblue" points="750.08,-216.204 760.055,-212.636 750.032,-209.205 750.08,-216.204"/>
</g>
<!-- Node33&#45;&gt;Node31 -->
<g id="edge86" class="edge"><title>Node33&#45;&gt;Node31</title>
<path fill="none" stroke="midnightblue" d="M290.036,-504.418C303.201,-495.899 323.111,-483.017 338.494,-473.063"/>
<polygon fill="midnightblue" stroke="midnightblue" points="340.449,-475.967 346.943,-467.596 336.646,-470.09 340.449,-475.967"/>
</g>
<!-- Node34&#45;&gt;Node11 -->
<g id="edge91" class="edge"><title>Node34&#45;&gt;Node11</title>
<path fill="none" stroke="midnightblue" d="M1241.88,-454.959C1268.74,-452.999 1316.83,-449.56 1358,-447 1648.55,-428.931 1724.72,-458.037 2012,-411 2046.58,-405.338 2053.52,-396.266 2088,-390 2131.8,-382.04 2456.97,-386.86 2487,-354 2513.98,-324.472 2510.73,-296.203 2487,-264 2459.4,-226.536 2404.81,-215.52 2365.77,-212.683"/>
<polygon fill="midnightblue" stroke="midnightblue" points="2365.89,-209.184 2355.7,-212.105 2365.48,-216.172 2365.89,-209.184"/>
</g>
<!-- Node34&#45;&gt;Node19 -->
<g id="edge93" class="edge"><title>Node34&#45;&gt;Node19</title>
<path fill="none" stroke="midnightblue" d="M1241.94,-454.563C1288,-449.87 1396.01,-436.37 1421,-411 1467.17,-364.119 1468.33,-279.96 1465.57,-237.89"/>
<polygon fill="midnightblue" stroke="midnightblue" points="1469.04,-237.373 1464.77,-227.677 1462.07,-237.921 1469.04,-237.373"/>
</g>
<!-- Node34&#45;&gt;Node23 -->
<g id="edge94" class="edge"><title>Node34&#45;&gt;Node23</title>
<path fill="none" stroke="midnightblue" d="M1200,-454.975C1152.48,-451.128 1033.43,-439.244 938,-411 877.896,-393.212 860.388,-389.89 809,-354 780.138,-333.843 769.717,-328.5 754,-297 733.643,-256.201 714.919,-230.923 743,-195 759.712,-173.62 825.13,-159.841 878.011,-151.967"/>
<polygon fill="midnightblue" stroke="midnightblue" points="878.665,-155.409 888.063,-150.518 877.666,-148.481 878.665,-155.409"/>
</g>
<!-- Node34&#45;&gt;Node24 -->
<g id="edge95" class="edge"><title>Node34&#45;&gt;Node24</title>
<path fill="none" stroke="midnightblue" d="M1199.96,-455.003C1173.4,-453.118 1126.32,-449.788 1086,-447 1027.12,-442.928 596.298,-454.128 556,-411 509.929,-361.693 540.067,-304.557 594,-264 638.738,-230.357 701.46,-218.018 749.796,-213.791"/>
<polygon fill="midnightblue" stroke="midnightblue" points="750.182,-217.272 759.88,-213.008 749.639,-210.293 750.182,-217.272"/>
</g>
<!-- Node34&#45;&gt;Node26 -->
<g id="edge92" class="edge"><title>Node34&#45;&gt;Node26</title>
<path fill="none" stroke="midnightblue" d="M1206.27,-447.335C1175.08,-427.925 1102.13,-382.539 1064.45,-359.094"/>
<polygon fill="midnightblue" stroke="midnightblue" points="1066.02,-355.946 1055.68,-353.635 1062.32,-361.89 1066.02,-355.946"/>
</g>
<!-- Node34&#45;&gt;Node32 -->
<g id="edge96" class="edge"><title>Node34&#45;&gt;Node32</title>
<path fill="none" stroke="midnightblue" d="M1221,-447.418C1221,-440.216 1221,-429.896 1221,-420.863"/>
<polygon fill="midnightblue" stroke="midnightblue" points="1224.5,-420.779 1221,-410.779 1217.5,-420.779 1224.5,-420.779"/>
</g>
<!-- Node35&#45;&gt;Node11 -->
<g id="edge98" class="edge"><title>Node35&#45;&gt;Node11</title>
<path fill="none" stroke="midnightblue" d="M1423.32,-455.3C1536.48,-450.401 1956.46,-431.22 2088,-411 2126.89,-405.022 2135.23,-396.69 2174,-390 2251.27,-376.669 2472.46,-412.203 2525,-354 2551.8,-324.308 2549.58,-295.557 2525,-264 2505.65,-239.161 2419.86,-224.422 2365.88,-217.443"/>
<polygon fill="midnightblue" stroke="midnightblue" points="2366.22,-213.959 2355.86,-216.19 2365.35,-220.905 2366.22,-213.959"/>
</g>
<!-- Node35&#45;&gt;Node19 -->
<g id="edge100" class="edge"><title>Node35&#45;&gt;Node19</title>
<path fill="none" stroke="midnightblue" d="M1413.95,-447.421C1427.63,-439.762 1445.2,-427.418 1454,-411 1484,-355.017 1475.5,-276.883 1468.37,-237.42"/>
<polygon fill="midnightblue" stroke="midnightblue" points="1471.8,-236.742 1466.47,-227.587 1464.93,-238.069 1471.8,-236.742"/>
</g>
<!-- Node35&#45;&gt;Node23 -->
<g id="edge101" class="edge"><title>Node35&#45;&gt;Node23</title>
<path fill="none" stroke="midnightblue" d="M1376.58,-447.446C1331.28,-424.83 1211.55,-362.931 1121,-297 1063.62,-255.22 1003.4,-197.369 972.004,-165.967"/>
<polygon fill="midnightblue" stroke="midnightblue" points="974.194,-163.205 964.662,-158.579 969.229,-168.14 974.194,-163.205"/>
</g>
<!-- Node35&#45;&gt;Node24 -->
<g id="edge102" class="edge"><title>Node35&#45;&gt;Node24</title>
<path fill="none" stroke="midnightblue" d="M1366.86,-454.582C1337.84,-452.619 1291.26,-449.508 1251,-447 1182.79,-442.751 683.888,-460.717 637,-411 602.285,-374.19 531.23,-417.399 686,-264 703.495,-246.66 727.407,-235.057 750.305,-227.337"/>
<polygon fill="midnightblue" stroke="midnightblue" points="751.556,-230.612 760.035,-224.26 749.445,-223.938 751.556,-230.612"/>
</g>
<!-- Node35&#45;&gt;Node27 -->
<g id="edge99" class="edge"><title>Node35&#45;&gt;Node27</title>
<path fill="none" stroke="midnightblue" d="M1385.63,-447.221C1357.4,-419.292 1274.7,-337.645 1268,-333 1244.78,-316.895 1215.73,-303.452 1193.46,-294.343"/>
<polygon fill="midnightblue" stroke="midnightblue" points="1194.65,-291.048 1184.06,-290.59 1192.05,-297.549 1194.65,-291.048"/>
</g>
<!-- Node35&#45;&gt;Node29 -->
<g id="edge103" class="edge"><title>Node35&#45;&gt;Node29</title>
<path fill="none" stroke="midnightblue" d="M1420.11,-447.358C1440.43,-439.354 1469.3,-426.581 1492,-411 1541.29,-377.164 1589.49,-325.031 1612.69,-298.409"/>
<polygon fill="midnightblue" stroke="midnightblue" points="1615.44,-300.579 1619.31,-290.717 1610.14,-296.012 1615.44,-300.579"/>
</g>
<!-- Node35&#45;&gt;Node32 -->
<g id="edge104" class="edge"><title>Node35&#45;&gt;Node32</title>
<path fill="none" stroke="midnightblue" d="M1366.66,-447.541C1337.42,-438.3 1291.64,-423.83 1259.22,-413.581"/>
<polygon fill="midnightblue" stroke="midnightblue" points="1260.21,-410.224 1249.62,-410.547 1258.1,-416.898 1260.21,-410.224"/>
</g>
<!-- Node36&#45;&gt;Node11 -->
<g id="edge106" class="edge"><title>Node36&#45;&gt;Node11</title>
<path fill="none" stroke="midnightblue" d="M1077.09,-455.138C1243.78,-443.237 2445.93,-357.302 2449,-354 2476.23,-324.695 2471.39,-297.145 2449,-264 2430.53,-236.657 2394.87,-223.829 2365.87,-217.811"/>
<polygon fill="midnightblue" stroke="midnightblue" points="2366.41,-214.35 2355.93,-215.955 2365.12,-221.231 2366.41,-214.35"/>
</g>
<!-- Node36&#45;&gt;Node19 -->
<g id="edge113" class="edge"><title>Node36&#45;&gt;Node19</title>
<path fill="none" stroke="midnightblue" d="M1070.6,-447.417C1110.78,-418.638 1239.98,-327.627 1354,-264 1374.83,-252.378 1398.71,-240.898 1418.8,-231.737"/>
<polygon fill="midnightblue" stroke="midnightblue" points="1420.36,-234.873 1428.03,-227.568 1417.48,-228.493 1420.36,-234.873"/>
</g>
<!-- Node36&#45;&gt;Node23 -->
<g id="edge114" class="edge"><title>Node36&#45;&gt;Node23</title>
<path fill="none" stroke="midnightblue" d="M1039.12,-456.329C942.461,-455.291 505.802,-448.536 460,-411 439.649,-394.321 447.589,-380.067 444,-354 433.516,-277.86 444.346,-231.471 512,-195 573.536,-161.827 770.147,-149.776 877.819,-145.592"/>
<polygon fill="midnightblue" stroke="midnightblue" points="878.092,-149.084 887.954,-145.211 877.829,-142.089 878.092,-149.084"/>
</g>
<!-- Node36&#45;&gt;Node24 -->
<g id="edge115" class="edge"><title>Node36&#45;&gt;Node24</title>
<path fill="none" stroke="midnightblue" d="M1038.92,-456.496C943.249,-456.279 518.775,-452.947 480,-411 435.652,-363.024 437.38,-313.518 480,-264 514.086,-224.397 659.897,-214.839 749.766,-212.778"/>
<polygon fill="midnightblue" stroke="midnightblue" points="749.971,-216.275 759.898,-212.572 749.829,-209.277 749.971,-216.275"/>
</g>
<!-- Node36&#45;&gt;Node25 -->
<g id="edge122" class="edge"><title>Node36&#45;&gt;Node25</title>
<path fill="none" stroke="midnightblue" d="M1044.79,-447.418C1032.51,-438.979 1014.01,-426.257 999.589,-416.343"/>
<polygon fill="midnightblue" stroke="midnightblue" points="1001.45,-413.377 991.23,-410.596 997.488,-419.145 1001.45,-413.377"/>
</g>
<!-- Node36&#45;&gt;Node37 -->
<g id="edge107" class="edge"><title>Node36&#45;&gt;Node37</title>
<path fill="none" stroke="midnightblue" d="M1058,-447.418C1058,-440.216 1058,-429.896 1058,-420.863"/>
<polygon fill="midnightblue" stroke="midnightblue" points="1061.5,-420.779 1058,-410.779 1054.5,-420.779 1061.5,-420.779"/>
</g>
<!-- Node36&#45;&gt;Node38 -->
<g id="edge116" class="edge"><title>Node36&#45;&gt;Node38</title>
<path fill="none" stroke="midnightblue" d="M1039,-454.581C987.044,-449.202 838.339,-432.928 716,-411 714.758,-410.777 713.498,-410.543 712.226,-410.299"/>
<polygon fill="midnightblue" stroke="midnightblue" points="712.895,-406.863 702.396,-408.287 711.491,-413.721 712.895,-406.863"/>
</g>
<!-- Node37&#45;&gt;Node11 -->
<g id="edge108" class="edge"><title>Node37&#45;&gt;Node11</title>
<path fill="none" stroke="midnightblue" d="M1089.48,-396.497C1112.8,-394.376 1145.35,-391.631 1174,-390 1236.32,-386.451 2249.97,-395.038 2297,-354 2331.95,-323.508 2328.76,-262.548 2324.42,-231.549"/>
<polygon fill="midnightblue" stroke="midnightblue" points="2327.87,-230.921 2322.84,-221.595 2320.95,-232.021 2327.87,-230.921"/>
</g>
<!-- Node37&#45;&gt;Node19 -->
<g id="edge110" class="edge"><title>Node37&#45;&gt;Node19</title>
<path fill="none" stroke="midnightblue" d="M1071.37,-390.292C1091.14,-376.869 1129.56,-351.514 1164,-333 1229.35,-297.874 1247.14,-291.626 1316,-264 1345.75,-252.065 1379.46,-240.142 1407.09,-230.779"/>
<polygon fill="midnightblue" stroke="midnightblue" points="1408.23,-234.087 1416.59,-227.577 1406,-227.453 1408.23,-234.087"/>
</g>
<!-- Node37&#45;&gt;Node23 -->
<g id="edge111" class="edge"><title>Node37&#45;&gt;Node23</title>
<path fill="none" stroke="midnightblue" d="M1026.57,-391.997C1023.67,-391.317 1020.78,-390.643 1018,-390 946.985,-373.578 924.803,-383.157 858,-354 816.986,-336.099 802.149,-332.574 775,-297 755.302,-271.189 756.409,-260.015 751,-228 748.557,-213.538 742.022,-206.598 751,-195 766.719,-174.696 827.648,-160.945 877.993,-152.796"/>
<polygon fill="midnightblue" stroke="midnightblue" points="878.567,-156.249 887.904,-151.241 877.482,-149.334 878.567,-156.249"/>
</g>
<!-- Node37&#45;&gt;Node24 -->
<g id="edge112" class="edge"><title>Node37&#45;&gt;Node24</title>
<path fill="none" stroke="midnightblue" d="M1028.27,-390.478C960.363,-369.582 798.6,-318.049 784,-297 770.644,-277.744 784.797,-253.038 799.473,-235.322"/>
<polygon fill="midnightblue" stroke="midnightblue" points="802.184,-237.54 806.157,-227.719 796.926,-232.919 802.184,-237.54"/>
</g>
<!-- Node37&#45;&gt;Node26 -->
<g id="edge109" class="edge"><title>Node37&#45;&gt;Node26</title>
<path fill="none" stroke="midnightblue" d="M1055.19,-390.418C1052.94,-383.137 1049.71,-372.669 1046.89,-363.566"/>
<polygon fill="midnightblue" stroke="midnightblue" points="1050.17,-362.3 1043.87,-353.779 1043.48,-364.367 1050.17,-362.3"/>
</g>
<!-- Node38&#45;&gt;Node11 -->
<g id="edge117" class="edge"><title>Node38&#45;&gt;Node11</title>
<path fill="none" stroke="midnightblue" d="M702.389,-398.464C880.391,-391.961 1836.1,-356.96 1866,-354 2025.02,-338.257 2075.77,-363.673 2221,-297 2256.06,-280.902 2288.6,-249 2306.54,-229.33"/>
<polygon fill="midnightblue" stroke="midnightblue" points="2309.26,-231.529 2313.3,-221.731 2304.03,-226.876 2309.26,-231.529"/>
</g>
<!-- Node38&#45;&gt;Node19 -->
<g id="edge119" class="edge"><title>Node38&#45;&gt;Node19</title>
<path fill="none" stroke="midnightblue" d="M692.992,-390.474C745.745,-365.819 899.069,-296.981 1034,-264 1157.24,-233.876 1304.88,-221.078 1390.9,-215.86"/>
<polygon fill="midnightblue" stroke="midnightblue" points="1391.3,-219.342 1401.07,-215.261 1390.88,-212.355 1391.3,-219.342"/>
</g>
<!-- Node38&#45;&gt;Node23 -->
<g id="edge120" class="edge"><title>Node38&#45;&gt;Node23</title>
<path fill="none" stroke="midnightblue" d="M650.613,-390.382C617.657,-376.107 558.809,-345.045 534,-297 513.2,-256.718 502.972,-228.965 533,-195 555.424,-169.636 764.622,-153.976 877.91,-147.284"/>
<polygon fill="midnightblue" stroke="midnightblue" points="878.118,-150.778 887.898,-146.702 877.711,-143.79 878.118,-150.778"/>
</g>
<!-- Node38&#45;&gt;Node24 -->
<g id="edge121" class="edge"><title>Node38&#45;&gt;Node24</title>
<path fill="none" stroke="midnightblue" d="M673.718,-390.4C673.469,-366.714 675.96,-302.336 708,-264 719.986,-249.659 736.797,-239.139 753.834,-231.493"/>
<polygon fill="midnightblue" stroke="midnightblue" points="755.42,-234.624 763.294,-227.535 752.718,-228.167 755.42,-234.624"/>
</g>
<!-- Node38&#45;&gt;Node26 -->
<g id="edge118" class="edge"><title>Node38&#45;&gt;Node26</title>
<path fill="none" stroke="midnightblue" d="M702.492,-395.23C766.43,-385.648 921.664,-362.384 997.65,-350.997"/>
<polygon fill="midnightblue" stroke="midnightblue" points="998.457,-354.415 1007.83,-349.471 997.42,-347.492 998.457,-354.415"/>
</g>
<!-- Node39&#45;&gt;Node11 -->
<g id="edge124" class="edge"><title>Node39&#45;&gt;Node11</title>
<path fill="none" stroke="midnightblue" d="M1138.33,-513.025C1333.21,-509.225 2546.33,-480.545 2639,-354 2662.63,-321.728 2664.93,-294.461 2639,-264 2604.48,-223.443 2445.33,-214.728 2366.08,-212.923"/>
<polygon fill="midnightblue" stroke="midnightblue" points="2365.98,-209.421 2355.91,-212.72 2365.84,-216.419 2365.98,-209.421"/>
</g>
<!-- Node39&#45;&gt;Node19 -->
<g id="edge126" class="edge"><title>Node39&#45;&gt;Node19</title>
<path fill="none" stroke="midnightblue" d="M1138.09,-513.975C1224.56,-515.088 1500.32,-514.813 1573,-468 1604.65,-447.618 1615.66,-426.381 1606,-390 1589.45,-327.663 1577.07,-312.011 1534,-264 1523.51,-252.304 1509.94,-241.669 1497.48,-233.141"/>
<polygon fill="midnightblue" stroke="midnightblue" points="1499.35,-230.183 1489.08,-227.586 1495.49,-236.022 1499.35,-230.183"/>
</g>
<!-- Node39&#45;&gt;Node23 -->
<g id="edge127" class="edge"><title>Node39&#45;&gt;Node23</title>
<path fill="none" stroke="midnightblue" d="M1085.8,-511.207C1061.5,-509.133 1024.33,-506.092 992,-504 912.51,-498.856 345.022,-507.762 276,-468 249.829,-452.924 247.575,-439.96 239,-411 204.547,-294.647 293.052,-239.359 406,-195 490.038,-161.995 749.854,-149.599 877.593,-145.412"/>
<polygon fill="midnightblue" stroke="midnightblue" points="877.791,-148.907 887.674,-145.09 877.567,-141.911 877.791,-148.907"/>
</g>
<!-- Node39&#45;&gt;Node24 -->
<g id="edge128" class="edge"><title>Node39&#45;&gt;Node24</title>
<path fill="none" stroke="midnightblue" d="M1085.8,-511.235C1061.49,-509.18 1024.32,-506.151 992,-504 843.89,-494.142 464.005,-520.073 325,-468 286.453,-453.56 270.05,-447.995 252,-411 211.413,-327.816 220.659,-341.639 391,-264 453.215,-235.644 643.776,-221.611 749.477,-215.844"/>
<polygon fill="midnightblue" stroke="midnightblue" points="749.947,-219.324 759.746,-215.295 749.574,-212.334 749.947,-219.324"/>
</g>
<!-- Node39&#45;&gt;Node36 -->
<g id="edge125" class="edge"><title>Node39&#45;&gt;Node36</title>
<path fill="none" stroke="midnightblue" d="M1103.08,-504.418C1095.24,-496.425 1083.62,-484.59 1074.14,-474.938"/>
<polygon fill="midnightblue" stroke="midnightblue" points="1076.61,-472.463 1067.11,-467.779 1071.62,-477.367 1076.61,-472.463"/>
</g>
<!-- Node39&#45;&gt;Node37 -->
<g id="edge129" class="edge"><title>Node39&#45;&gt;Node37</title>
<path fill="none" stroke="midnightblue" d="M1108.97,-504.242C1104.57,-491.185 1095.84,-466.75 1086,-447 1081.25,-437.469 1075.13,-427.337 1069.83,-419.059"/>
<polygon fill="midnightblue" stroke="midnightblue" points="1072.71,-417.072 1064.3,-410.632 1066.86,-420.913 1072.71,-417.072"/>
</g>
<!-- Node40&#45;&gt;Node11 -->
<g id="edge134" class="edge"><title>Node40&#45;&gt;Node11</title>
<path fill="none" stroke="midnightblue" d="M1412.15,-397.687C1443.09,-395.656 1495.17,-392.342 1540,-390 1586.26,-387.583 2340.96,-387.454 2373,-354 2400.67,-325.112 2388.4,-300.918 2373,-264 2366.92,-249.422 2354.48,-236.858 2343.3,-227.79"/>
<polygon fill="midnightblue" stroke="midnightblue" points="2345.19,-224.832 2335.11,-221.561 2340.95,-230.402 2345.19,-224.832"/>
</g>
<!-- Node40&#45;&gt;Node19 -->
<g id="edge136" class="edge"><title>Node40&#45;&gt;Node19</title>
<path fill="none" stroke="midnightblue" d="M1387.2,-390.321C1392.73,-368.006 1408.33,-309.413 1430,-264 1434.55,-254.469 1440.54,-244.57 1446.17,-236.029"/>
<polygon fill="midnightblue" stroke="midnightblue" points="1449.11,-237.93 1451.83,-227.691 1443.32,-233.999 1449.11,-237.93"/>
</g>
<!-- Node40&#45;&gt;Node23 -->
<g id="edge137" class="edge"><title>Node40&#45;&gt;Node23</title>
<path fill="none" stroke="midnightblue" d="M1375.37,-390.38C1341.69,-358.924 1225,-253.68 1111,-195 1083.11,-180.643 1050.44,-169.296 1021.84,-160.949"/>
<polygon fill="midnightblue" stroke="midnightblue" points="1022.49,-157.494 1011.91,-158.122 1020.57,-164.226 1022.49,-157.494"/>
</g>
<!-- Node40&#45;&gt;Node24 -->
<g id="edge138" class="edge"><title>Node40&#45;&gt;Node24</title>
<path fill="none" stroke="midnightblue" d="M1357.66,-394.723C1291.97,-382.768 1120.63,-348.758 985,-297 938.38,-279.209 887.824,-251.578 855.579,-232.795"/>
<polygon fill="midnightblue" stroke="midnightblue" points="856.982,-229.56 846.587,-227.509 853.434,-235.594 856.982,-229.56"/>
</g>
<!-- Node40&#45;&gt;Node26 -->
<g id="edge135" class="edge"><title>Node40&#45;&gt;Node26</title>
<path fill="none" stroke="midnightblue" d="M1358.01,-395.184C1298.6,-385.686 1156.12,-362.906 1084.16,-351.4"/>
<polygon fill="midnightblue" stroke="midnightblue" points="1084.49,-347.91 1074.07,-349.787 1083.39,-354.822 1084.49,-347.91"/>
</g>
<!-- Node41&#45;&gt;Node11 -->
<g id="edge140" class="edge"><title>Node41&#45;&gt;Node11</title>
<path fill="none" stroke="midnightblue" d="M1857.34,-343.402C1921.64,-344.128 2069.14,-340.424 2183,-297 2207.19,-287.775 2209.08,-277.774 2231,-264 2252.29,-250.624 2277.13,-236.515 2295.32,-226.454"/>
<polygon fill="midnightblue" stroke="midnightblue" points="2297.09,-229.473 2304.17,-221.587 2293.72,-223.339 2297.09,-229.473"/>
</g>
<!-- Node41&#45;&gt;Node19 -->
<g id="edge147" class="edge"><title>Node41&#45;&gt;Node19</title>
<path fill="none" stroke="midnightblue" d="M1799.55,-333.492C1777.74,-325.308 1745.86,-312.211 1720,-297 1699.24,-284.785 1698.74,-274.378 1677,-264 1632.3,-242.664 1578.01,-229.731 1535.3,-222.162"/>
<polygon fill="midnightblue" stroke="midnightblue" points="1535.71,-218.681 1525.26,-220.443 1534.52,-225.581 1535.71,-218.681"/>
</g>
<!-- Node41&#45;&gt;Node23 -->
<g id="edge148" class="edge"><title>Node41&#45;&gt;Node23</title>
<path fill="none" stroke="midnightblue" d="M1809.46,-333.458C1794.62,-324.643 1771.8,-310.615 1753,-297 1734.33,-283.484 1732.37,-276.484 1713,-264 1683.68,-245.104 1605.63,-204.266 1572,-195 1470.28,-166.973 1163.35,-151.784 1022.31,-146.12"/>
<polygon fill="midnightblue" stroke="midnightblue" points="1022.17,-142.612 1012.04,-145.713 1021.89,-149.607 1022.17,-142.612"/>
</g>
<!-- Node41&#45;&gt;Node24 -->
<g id="edge149" class="edge"><title>Node41&#45;&gt;Node24</title>
<path fill="none" stroke="midnightblue" d="M1792.79,-342.821C1692.51,-343.308 1377.21,-340.976 1121,-297 1032.62,-281.83 932.931,-250.728 873.896,-230.783"/>
<polygon fill="midnightblue" stroke="midnightblue" points="875.018,-227.468 864.424,-227.561 872.764,-234.095 875.018,-227.468"/>
</g>
<!-- Node41&#45;&gt;Node42 -->
<g id="edge141" class="edge"><title>Node41&#45;&gt;Node42</title>
<path fill="none" stroke="midnightblue" d="M1818.8,-333.499C1812.54,-324.399 1802.69,-310.103 1794.91,-298.802"/>
<polygon fill="midnightblue" stroke="midnightblue" points="1797.78,-296.789 1789.22,-290.538 1792.01,-300.759 1797.78,-296.789"/>
</g>
<!-- Node42&#45;&gt;Node11 -->
<g id="edge142" class="edge"><title>Node42&#45;&gt;Node11</title>
<path fill="none" stroke="midnightblue" d="M1797.8,-270.459C1802.5,-267.971 1807.83,-265.537 1813,-264 1856.83,-250.971 2159.94,-225.495 2275.96,-216.095"/>
<polygon fill="midnightblue" stroke="midnightblue" points="2276.58,-219.557 2286.27,-215.263 2276.02,-212.579 2276.58,-219.557"/>
</g>
<!-- Node42&#45;&gt;Node18 -->
<g id="edge143" class="edge"><title>Node42&#45;&gt;Node18</title>
<path fill="none" stroke="midnightblue" d="M1798.85,-270.357C1803.32,-268.042 1808.26,-265.727 1813,-264 1820.5,-261.267 1904.9,-242.441 1968.84,-228.336"/>
<polygon fill="midnightblue" stroke="midnightblue" points="1969.9,-231.686 1978.91,-226.115 1968.4,-224.85 1969.9,-231.686"/>
</g>
<!-- Node42&#45;&gt;Node19 -->
<g id="edge144" class="edge"><title>Node42&#45;&gt;Node19</title>
<path fill="none" stroke="midnightblue" d="M1762.24,-275.07C1747.63,-271.959 1727.62,-267.708 1710,-264 1651.05,-251.596 1584.15,-237.656 1534.86,-227.411"/>
<polygon fill="midnightblue" stroke="midnightblue" points="1535.44,-223.956 1524.93,-225.348 1534.01,-230.809 1535.44,-223.956"/>
</g>
<!-- Node42&#45;&gt;Node23 -->
<g id="edge145" class="edge"><title>Node42&#45;&gt;Node23</title>
<path fill="none" stroke="midnightblue" d="M1768.07,-270.38C1751.54,-260.227 1724.18,-243.237 1701,-228 1679.37,-213.779 1677.43,-203.578 1653,-195 1538.23,-154.696 1177.74,-145.932 1022.4,-144.028"/>
<polygon fill="midnightblue" stroke="midnightblue" points="1022.06,-140.524 1012.02,-143.907 1021.98,-147.523 1022.06,-140.524"/>
</g>
<!-- Node42&#45;&gt;Node24 -->
<g id="edge146" class="edge"><title>Node42&#45;&gt;Node24</title>
<path fill="none" stroke="midnightblue" d="M1762.35,-275.949C1741.03,-272.409 1706.79,-267.069 1677,-264 1387.91,-234.211 1041.91,-219.891 894.381,-214.782"/>
<polygon fill="midnightblue" stroke="midnightblue" points="894.219,-211.274 884.105,-214.43 893.979,-218.27 894.219,-211.274"/>
</g>
<!-- Node43&#45;&gt;Node11 -->
<g id="edge152" class="edge"><title>Node43&#45;&gt;Node11</title>
<path fill="none" stroke="midnightblue" d="M1878.56,-270.498C1885.36,-268.073 1892.9,-265.663 1900,-264 2034.55,-232.467 2198.08,-219.49 2275.79,-214.809"/>
<polygon fill="midnightblue" stroke="midnightblue" points="2276.4,-218.279 2286.17,-214.202 2275.99,-211.291 2276.4,-218.279"/>
</g>
<!-- Node43&#45;&gt;Node18 -->
<g id="edge153" class="edge"><title>Node43&#45;&gt;Node18</title>
<path fill="none" stroke="midnightblue" d="M1880.95,-270.464C1908.72,-260.408 1954.34,-243.885 1989.79,-231.048"/>
<polygon fill="midnightblue" stroke="midnightblue" points="1991.28,-234.23 1999.49,-227.533 1988.9,-227.648 1991.28,-234.23"/>
</g>
<!-- Node43&#45;&gt;Node19 -->
<g id="edge154" class="edge"><title>Node43&#45;&gt;Node19</title>
<path fill="none" stroke="midnightblue" d="M1833.5,-270.433C1826.97,-268.064 1819.77,-265.701 1813,-264 1718.47,-240.261 1606.64,-226.163 1535.28,-218.876"/>
<polygon fill="midnightblue" stroke="midnightblue" points="1535.36,-215.366 1525.06,-217.85 1534.66,-222.331 1535.36,-215.366"/>
</g>
<!-- Node43&#45;&gt;Node23 -->
<g id="edge155" class="edge"><title>Node43&#45;&gt;Node23</title>
<path fill="none" stroke="midnightblue" d="M1832.07,-270.498C1807.97,-261.083 1770.02,-245.287 1739,-228 1716.39,-215.396 1715.44,-203.532 1691,-195 1628.96,-173.345 1196.02,-153.528 1022.09,-146.348"/>
<polygon fill="midnightblue" stroke="midnightblue" points="1022.14,-142.847 1012.01,-145.934 1021.85,-149.842 1022.14,-142.847"/>
</g>
<!-- Node43&#45;&gt;Node24 -->
<g id="edge156" class="edge"><title>Node43&#45;&gt;Node24</title>
<path fill="none" stroke="midnightblue" d="M1834.48,-270.343C1827.72,-267.85 1820.16,-265.443 1813,-264 1723.84,-246.025 1107.49,-222.663 894.334,-215.031"/>
<polygon fill="midnightblue" stroke="midnightblue" points="894.309,-211.528 884.19,-214.669 894.059,-218.524 894.309,-211.528"/>
</g>
<!-- Node44&#45;&gt;Node11 -->
<g id="edge158" class="edge"><title>Node44&#45;&gt;Node11</title>
<path fill="none" stroke="midnightblue" d="M2061.82,-270.478C2067.63,-268.164 2074,-265.818 2080,-264 2147.28,-243.6 2227.47,-228.171 2276.29,-219.736"/>
<polygon fill="midnightblue" stroke="midnightblue" points="2276.95,-223.175 2286.22,-218.043 2275.77,-216.275 2276.95,-223.175"/>
</g>
<!-- Node44&#45;&gt;Node18 -->
<g id="edge159" class="edge"><title>Node44&#45;&gt;Node18</title>
<path fill="none" stroke="midnightblue" d="M2041,-270.464C2041,-262.041 2041,-249.081 2041,-237.55"/>
<polygon fill="midnightblue" stroke="midnightblue" points="2044.5,-237.533 2041,-227.533 2037.5,-237.534 2044.5,-237.533"/>
</g>
<!-- Node44&#45;&gt;Node19 -->
<g id="edge160" class="edge"><title>Node44&#45;&gt;Node19</title>
<path fill="none" stroke="midnightblue" d="M2021.11,-270.34C2015.09,-267.911 2008.37,-265.538 2002,-264 1915.34,-243.089 1661.22,-224.894 1535.35,-216.869"/>
<polygon fill="midnightblue" stroke="midnightblue" points="1535.25,-213.356 1525.05,-216.217 1534.81,-220.342 1535.25,-213.356"/>
</g>
<!-- Node44&#45;&gt;Node23 -->
<g id="edge161" class="edge"><title>Node44&#45;&gt;Node23</title>
<path fill="none" stroke="midnightblue" d="M2020.2,-270.397C2014.39,-268.083 2008.01,-265.757 2002,-264 1920.76,-240.265 1893.08,-260.666 1815,-228 1791.12,-218.008 1791.47,-203.453 1767,-195 1697.7,-171.061 1209.3,-152.253 1022.46,-145.859"/>
<polygon fill="midnightblue" stroke="midnightblue" points="1022.3,-142.352 1012.19,-145.509 1022.06,-149.347 1022.3,-142.352"/>
</g>
<!-- Node44&#45;&gt;Node24 -->
<g id="edge162" class="edge"><title>Node44&#45;&gt;Node24</title>
<path fill="none" stroke="midnightblue" d="M2021.96,-270.458C2015.73,-267.905 2008.7,-265.434 2002,-264 1894.15,-240.904 1134.05,-220.252 894.279,-214.251"/>
<polygon fill="midnightblue" stroke="midnightblue" points="894.356,-210.751 884.272,-214.001 894.182,-217.749 894.356,-210.751"/>
</g>
<!-- Node45&#45;&gt;Node11 -->
<g id="edge164" class="edge"><title>Node45&#45;&gt;Node11</title>
<path fill="none" stroke="midnightblue" d="M2137.74,-270.375C2143.36,-268.209 2149.37,-265.96 2155,-264 2197.09,-249.335 2245.88,-234.447 2279.62,-224.476"/>
<polygon fill="midnightblue" stroke="midnightblue" points="2280.98,-227.725 2289.58,-221.545 2279,-221.009 2280.98,-227.725"/>
</g>
<!-- Node45&#45;&gt;Node18 -->
<g id="edge165" class="edge"><title>Node45&#45;&gt;Node18</title>
<path fill="none" stroke="midnightblue" d="M2105.02,-270.464C2094.86,-261.268 2078.73,-246.663 2065.2,-234.414"/>
<polygon fill="midnightblue" stroke="midnightblue" points="2067.37,-231.651 2057.6,-227.533 2062.67,-236.84 2067.37,-231.651"/>
</g>
<!-- Node45&#45;&gt;Node19 -->
<g id="edge166" class="edge"><title>Node45&#45;&gt;Node19</title>
<path fill="none" stroke="midnightblue" d="M2097.61,-270.43C2092.11,-267.941 2085.92,-265.513 2080,-264 1978.71,-238.128 1675.15,-221.84 1535.17,-215.509"/>
<polygon fill="midnightblue" stroke="midnightblue" points="1535.12,-212.003 1524.97,-215.052 1534.8,-218.996 1535.12,-212.003"/>
</g>
<!-- Node45&#45;&gt;Node23 -->
<g id="edge167" class="edge"><title>Node45&#45;&gt;Node23</title>
<path fill="none" stroke="midnightblue" d="M2096.81,-270.363C2091.5,-267.993 2085.61,-265.647 2080,-264 1979.88,-234.62 1943.93,-269.043 1848,-228 1825.85,-218.524 1827.57,-203.427 1805,-195 1732.68,-167.995 1215.1,-150.914 1022.21,-145.427"/>
<polygon fill="midnightblue" stroke="midnightblue" points="1022.27,-141.927 1012.17,-145.143 1022.07,-148.924 1022.27,-141.927"/>
</g>
<!-- Node45&#45;&gt;Node24 -->
<g id="edge168" class="edge"><title>Node45&#45;&gt;Node24</title>
<path fill="none" stroke="midnightblue" d="M2098,-270.438C2092.42,-267.884 2086.08,-265.417 2080,-264 2022.06,-250.502 1152.79,-222.714 894.1,-214.705"/>
<polygon fill="midnightblue" stroke="midnightblue" points="894.165,-211.206 884.062,-214.395 893.949,-218.202 894.165,-211.206"/>
</g>
<!-- Node46&#45;&gt;Node9 -->
<g id="edge170" class="edge"><title>Node46&#45;&gt;Node9</title>
<path fill="none" stroke="midnightblue" d="M2772.6,-264.464C2754.02,-254.962 2729.81,-242.578 2709.68,-232.283"/>
<polygon fill="midnightblue" stroke="midnightblue" points="2711.25,-229.155 2700.75,-227.718 2708.06,-235.387 2711.25,-229.155"/>
</g>
<!-- Node46&#45;&gt;Node11 -->
<g id="edge171" class="edge"><title>Node46&#45;&gt;Node11</title>
<path fill="none" stroke="midnightblue" d="M2747.91,-266.657C2743.22,-265.699 2738.53,-264.797 2734,-264 2600.95,-240.602 2441.97,-223.912 2365.89,-216.612"/>
<polygon fill="midnightblue" stroke="midnightblue" points="2366,-213.107 2355.71,-215.644 2365.34,-220.075 2366,-213.107"/>
</g>
</g>
</svg>
