<?xml version="1.0" encoding="UTF-8" standalone="no"?>
<!DOCTYPE svg PUBLIC "-//W3C//DTD SVG 1.1//EN"
 "http://www.w3.org/Graphics/SVG/1.1/DTD/svg11.dtd">
<!-- Generated by graphviz version 2.38.0 (20140413.2041)
 -->
<!-- Title: Objects/interface/GenJet.h Pages: 1 -->
<svg width="504pt" height="257pt"
 viewBox="0.00 0.00 504.07 257.00" xmlns="http://www.w3.org/2000/svg" xmlns:xlink="http://www.w3.org/1999/xlink">
<g id="graph0" class="graph" transform="scale(1 1) rotate(0) translate(4 253)">
<title>Objects/interface/GenJet.h</title>
<polygon fill="white" stroke="none" points="-4,4 -4,-253 500.072,-253 500.072,4 -4,4"/>
<!-- Node1 -->
<g id="node1" class="node"><title>Node1</title>
<polygon fill="#bfbfbf" stroke="black" points="211.99,-228.5 211.99,-248.5 346.358,-248.5 346.358,-228.5 211.99,-228.5"/>
<text text-anchor="middle" x="279.174" y="-235.5" font-family="Helvetica,sans-Serif" font-size="10.00">Objects/interface/GenJet.h</text>
</g>
<!-- Node2 -->
<g id="node2" class="node"><title>Node2</title>
<g id="a_node2"><a xlink:href="LinkDef_8h.html" target="_top" xlink:title="obj/LinkDef.h">
<polygon fill="white" stroke="black" points="-2.84217e-14,-0.5 -2.84217e-14,-20.5 74.348,-20.5 74.348,-0.5 -2.84217e-14,-0.5"/>
<text text-anchor="middle" x="37.174" y="-7.5" font-family="Helvetica,sans-Serif" font-size="10.00">obj/LinkDef.h</text>
</a>
</g>
</g>
<!-- Node1&#45;&gt;Node2 -->
<g id="edge1" class="edge"><title>Node1&#45;&gt;Node2</title>
<path fill="none" stroke="midnightblue" d="M201.575,-229.565C141.612,-218.881 62.434,-193.813 23.174,-135 -1.14599,-98.5676 21.9072,-42.258 32.4951,-20.5038"/>
<polygon fill="midnightblue" stroke="midnightblue" points="201.336,-233.074 211.778,-231.279 202.495,-226.171 201.336,-233.074"/>
</g>
<!-- Node3 -->
<g id="node3" class="node"><title>Node3</title>
<g id="a_node3"><a xlink:href="Jet_8h.html" target="_top" xlink:title="Objects/interface/Jet.h">
<polygon fill="white" stroke="black" points="146.438,-171.5 146.438,-191.5 261.909,-191.5 261.909,-171.5 146.438,-171.5"/>
<text text-anchor="middle" x="204.174" y="-178.5" font-family="Helvetica,sans-Serif" font-size="10.00">Objects/interface/Jet.h</text>
</a>
</g>
</g>
<!-- Node1&#45;&gt;Node3 -->
<g id="edge2" class="edge"><title>Node1&#45;&gt;Node3</title>
<path fill="none" stroke="midnightblue" d="M258.572,-222.392C245.113,-212.522 227.983,-199.96 216.577,-191.596"/>
<polygon fill="midnightblue" stroke="midnightblue" points="256.655,-225.327 266.789,-228.418 260.795,-219.682 256.655,-225.327"/>
</g>
<!-- Node5 -->
<g id="node5" class="node"><title>Node5</title>
<g id="a_node5"><a xlink:href="Event_8h.html" target="_top" xlink:title="Objects/interface/Event.h">
<polygon fill="white" stroke="black" points="212.324,-57.5 212.324,-77.5 340.023,-77.5 340.023,-57.5 212.324,-57.5"/>
<text text-anchor="middle" x="276.174" y="-64.5" font-family="Helvetica,sans-Serif" font-size="10.00">Objects/interface/Event.h</text>
</a>
</g>
</g>
<!-- Node1&#45;&gt;Node5 -->
<g id="edge13" class="edge"><title>Node1&#45;&gt;Node5</title>
<path fill="none" stroke="midnightblue" d="M296.111,-221.24C318.712,-197.478 353.838,-151.963 335.174,-114 327.013,-97.4003 309.56,-85.1484 295.742,-77.5665"/>
<polygon fill="midnightblue" stroke="midnightblue" points="293.556,-218.846 289.023,-228.422 298.538,-223.763 293.556,-218.846"/>
</g>
<!-- Node10 -->
<g id="node10" class="node"><title>Node10</title>
<g id="a_node10"><a xlink:href="GenJet_8cc.html" target="_top" xlink:title="Objects/src/GenJet.cc">
<polygon fill="white" stroke="black" points="382.276,-171.5 382.276,-191.5 496.072,-191.5 496.072,-171.5 382.276,-171.5"/>
<text text-anchor="middle" x="439.174" y="-178.5" font-family="Helvetica,sans-Serif" font-size="10.00">Objects/src/GenJet.cc</text>
</a>
</g>
</g>
<!-- Node1&#45;&gt;Node10 -->
<g id="edge14" class="edge"><title>Node1&#45;&gt;Node10</title>
<path fill="none" stroke="midnightblue" d="M315.182,-225.122C344.892,-214.91 386.349,-200.658 412.98,-191.504"/>
<polygon fill="midnightblue" stroke="midnightblue" points="313.914,-221.857 305.595,-228.418 316.189,-228.477 313.914,-221.857"/>
</g>
<!-- Node3&#45;&gt;Node2 -->
<g id="edge3" class="edge"><title>Node3&#45;&gt;Node2</title>
<path fill="none" stroke="midnightblue" d="M136.492,-170.551C95.8014,-163.03 49.5613,-151.214 37.174,-135 10.7501,-100.414 26.2329,-43.0223 33.7763,-20.7412"/>
<polygon fill="midnightblue" stroke="midnightblue" points="135.962,-174.011 146.422,-172.324 137.193,-167.12 135.962,-174.011"/>
</g>
<!-- Node4 -->
<g id="node4" class="node"><title>Node4</title>
<g id="a_node4"><a xlink:href="FatJet_8h.html" target="_top" xlink:title="Objects/interface/FatJet.h">
<polygon fill="white" stroke="black" points="46.215,-114.5 46.215,-134.5 176.133,-134.5 176.133,-114.5 46.215,-114.5"/>
<text text-anchor="middle" x="111.174" y="-121.5" font-family="Helvetica,sans-Serif" font-size="10.00">Objects/interface/FatJet.h</text>
</a>
</g>
</g>
<!-- Node3&#45;&gt;Node4 -->
<g id="edge4" class="edge"><title>Node3&#45;&gt;Node4</title>
<path fill="none" stroke="midnightblue" d="M180.047,-166.231C163.158,-156.243 141.101,-143.199 126.554,-134.596"/>
<polygon fill="midnightblue" stroke="midnightblue" points="178.428,-169.34 188.817,-171.418 181.991,-163.315 178.428,-169.34"/>
</g>
<!-- Node3&#45;&gt;Node5 -->
<g id="edge11" class="edge"><title>Node3&#45;&gt;Node5</title>
<path fill="none" stroke="midnightblue" d="M206.648,-161.233C209.133,-147.255 213.973,-128.359 223.174,-114 232.988,-98.6839 249.497,-85.6951 261.486,-77.5648"/>
<polygon fill="midnightblue" stroke="midnightblue" points="203.174,-160.794 205.12,-171.209 210.094,-161.853 203.174,-160.794"/>
</g>
<!-- Node9 -->
<g id="node9" class="node"><title>Node9</title>
<g id="a_node9"><a xlink:href="Jet_8cc.html" target="_top" xlink:title="Objects/src/Jet.cc">
<polygon fill="white" stroke="black" points="231.724,-114.5 231.724,-134.5 326.623,-134.5 326.623,-114.5 231.724,-114.5"/>
<text text-anchor="middle" x="279.174" y="-121.5" font-family="Helvetica,sans-Serif" font-size="10.00">Objects/src/Jet.cc</text>
</a>
</g>
</g>
<!-- Node3&#45;&gt;Node9 -->
<g id="edge12" class="edge"><title>Node3&#45;&gt;Node9</title>
<path fill="none" stroke="midnightblue" d="M224.776,-165.392C238.235,-155.522 255.365,-142.96 266.771,-134.596"/>
<polygon fill="midnightblue" stroke="midnightblue" points="222.553,-162.682 216.559,-171.418 226.693,-168.327 222.553,-162.682"/>
</g>
<!-- Node4&#45;&gt;Node2 -->
<g id="edge5" class="edge"><title>Node4&#45;&gt;Node2</title>
<path fill="none" stroke="midnightblue" d="M96.7419,-106.518C89.8958,-98.1549 81.7874,-87.787 75.174,-78 61.9221,-58.3887 48.7271,-33.8993 41.9167,-20.7967"/>
<polygon fill="midnightblue" stroke="midnightblue" points="94.2154,-108.953 103.304,-114.399 99.5948,-104.474 94.2154,-108.953"/>
</g>
<!-- Node4&#45;&gt;Node5 -->
<g id="edge6" class="edge"><title>Node4&#45;&gt;Node5</title>
<path fill="none" stroke="midnightblue" d="M147.908,-111.255C178.573,-101.034 221.579,-86.6983 249.161,-77.5042"/>
<polygon fill="midnightblue" stroke="midnightblue" points="146.8,-107.935 138.42,-114.418 149.014,-114.576 146.8,-107.935"/>
</g>
<!-- Node8 -->
<g id="node8" class="node"><title>Node8</title>
<g id="a_node8"><a xlink:href="FatJet_8cc.html" target="_top" xlink:title="Objects/src/FatJet.cc">
<polygon fill="white" stroke="black" points="84.501,-57.5 84.501,-77.5 193.847,-77.5 193.847,-57.5 84.501,-57.5"/>
<text text-anchor="middle" x="139.174" y="-64.5" font-family="Helvetica,sans-Serif" font-size="10.00">Objects/src/FatJet.cc</text>
</a>
</g>
</g>
<!-- Node4&#45;&gt;Node8 -->
<g id="edge10" class="edge"><title>Node4&#45;&gt;Node8</title>
<path fill="none" stroke="midnightblue" d="M120.455,-105.27C125.144,-96.0587 130.633,-85.2766 134.45,-77.7795"/>
<polygon fill="midnightblue" stroke="midnightblue" points="117.215,-103.918 115.798,-114.418 123.454,-107.094 117.215,-103.918"/>
</g>
<!-- Node5&#45;&gt;Node2 -->
<g id="edge7" class="edge"><title>Node5&#45;&gt;Node2</title>
<path fill="none" stroke="midnightblue" d="M227.078,-55.2018C181.781,-44.7778 115.508,-29.5268 74.4255,-20.0725"/>
<polygon fill="midnightblue" stroke="midnightblue" points="226.445,-58.6476 236.976,-57.4795 228.015,-51.8259 226.445,-58.6476"/>
</g>
<!-- Node6 -->
<g id="node6" class="node"><title>Node6</title>
<g id="a_node6"><a xlink:href="Event_8cc.html" target="_top" xlink:title="Objects/src/Event.cc">
<polygon fill="white" stroke="black" points="157.61,-0.5 157.61,-20.5 264.737,-20.5 264.737,-0.5 157.61,-0.5"/>
<text text-anchor="middle" x="211.174" y="-7.5" font-family="Helvetica,sans-Serif" font-size="10.00">Objects/src/Event.cc</text>
</a>
</g>
</g>
<!-- Node5&#45;&gt;Node6 -->
<g id="edge8" class="edge"><title>Node5&#45;&gt;Node6</title>
<path fill="none" stroke="midnightblue" d="M257.7,-50.8678C246.219,-41.1535 231.849,-28.9944 222.141,-20.7795"/>
<polygon fill="midnightblue" stroke="midnightblue" points="255.546,-53.6303 265.441,-57.4179 260.067,-48.2866 255.546,-53.6303"/>
</g>
<!-- Node7 -->
<g id="node7" class="node"><title>Node7</title>
<g id="a_node7"><a xlink:href="FileMerger_8cc.html" target="_top" xlink:title="Utils/src/FileMerger.cc">
<polygon fill="white" stroke="black" points="282.738,-0.5 282.738,-20.5 397.61,-20.5 397.61,-0.5 282.738,-0.5"/>
<text text-anchor="middle" x="340.174" y="-7.5" font-family="Helvetica,sans-Serif" font-size="10.00">Utils/src/FileMerger.cc</text>
</a>
</g>
</g>
<!-- Node5&#45;&gt;Node7 -->
<g id="edge9" class="edge"><title>Node5&#45;&gt;Node7</title>
<path fill="none" stroke="midnightblue" d="M294.364,-50.8678C305.668,-41.1535 319.817,-28.9944 329.376,-20.7795"/>
<polygon fill="midnightblue" stroke="midnightblue" points="292.045,-48.2457 286.742,-57.4179 296.608,-53.5546 292.045,-48.2457"/>
</g>
</g>
</svg>
