<?xml version="1.0" encoding="UTF-8" standalone="no"?>
<!DOCTYPE svg PUBLIC "-//W3C//DTD SVG 1.1//EN"
 "http://www.w3.org/Graphics/SVG/1.1/DTD/svg11.dtd">
<!-- Generated by graphviz version 2.38.0 (20140413.2041)
 -->
<!-- Title: Objects/interface/GenParticle.h Pages: 1 -->
<!--zoomable 257 -->
<svg id="main" version="1.1" xmlns="http://www.w3.org/2000/svg" xmlns:xlink="http://www.w3.org/1999/xlink" xml:space="preserve" onload="init(evt)">
<style type="text/css"><![CDATA[
.edge:hover path { stroke: red; }
.edge:hover polygon { stroke: red; fill: red; }
]]></style>
<script type="text/javascript"><![CDATA[
var edges = document.getElementsByTagName('g');
if (edges && edges.length) {
  for (var i=0;i<edges.length;i++) {
    if (edges[i].id.substr(0,4)=='edge') {
      edges[i].setAttribute('class','edge');
    }
  }
}
]]></script>
        <defs>
                <circle id="rim" cx="0" cy="0" r="7"/>
                <circle id="rim2" cx="0" cy="0" r="3.5"/>
                <g id="zoomPlus">
                        <use xlink:href="#rim" fill="#404040">
                                <set attributeName="fill" to="#808080" begin="zoomplus.mouseover" end="zoomplus.mouseout"/>
                        </use>
                        <path d="M-4,0h8M0,-4v8" fill="none" stroke="white" stroke-width="1.5" pointer-events="none"/>
                </g>
                <g id="zoomMin">
                        <use xlink:href="#rim" fill="#404040">
                                <set attributeName="fill" to="#808080" begin="zoomminus.mouseover" end="zoomminus.mouseout"/>
                        </use>
                        <path d="M-4,0h8" fill="none" stroke="white" stroke-width="1.5" pointer-events="none"/>
                </g>
                <g id="dirArrow">
                        <path fill="none" stroke="white" stroke-width="1.5" d="M0,-3.0v7 M-2.5,-0.5L0,-3.0L2.5,-0.5"/>
                </g>
               <g id="resetDef">
                       <use xlink:href="#rim2" fill="#404040">
                               <set attributeName="fill" to="#808080" begin="reset.mouseover" end="reset.mouseout"/>
                       </use>
               </g>
        </defs>

<script type="text/javascript">
var viewWidth = 820;
var viewHeight = 257;
var sectionId = 'dynsection-1';
</script>
<script xlink:href="svgpan.js"/>
<svg id="graph" class="graph">
<g id="viewport">
<title>Objects/interface/GenParticle.h</title>
<polygon fill="white" stroke="none" points="-4,4 -4,-253 815.916,-253 815.916,4 -4,4"/>
<!-- Node1 -->
<g id="node1" class="node"><title>Node1</title>
<polygon fill="#bfbfbf" stroke="black" points="408.112,-228.5 408.112,-248.5 562.475,-248.5 562.475,-228.5 408.112,-228.5"/>
<text text-anchor="middle" x="485.294" y="-235.5" font-family="Helvetica,sans-Serif" font-size="10.00">Objects/interface/GenParticle.h</text>
</g>
<!-- Node2 -->
<g id="node2" class="node"><title>Node2</title>
<g id="a_node2"><a xlink:href="LinkDef_8h.html" target="_top" xlink:title="obj/LinkDef.h">
<polygon fill="white" stroke="black" points="159.12,-0.5 159.12,-20.5 233.468,-20.5 233.468,-0.5 159.12,-0.5"/>
<text text-anchor="middle" x="196.294" y="-7.5" font-family="Helvetica,sans-Serif" font-size="10.00">obj/LinkDef.h</text>
</a>
</g>
</g>
<!-- Node1&#45;&gt;Node2 -->
<g id="edge1" class="edge"><title>Node1&#45;&gt;Node2</title>
<path fill="none" stroke="midnightblue" d="M397.974,-232.552C272.081,-223.284 49.7626,-198.181 5.29394,-135 -8.56729,-115.306 8.36712,-70.4601 22.2939,-57 59.0025,-21.5216 119.797,-12.8018 158.937,-11.1323"/>
<polygon fill="midnightblue" stroke="midnightblue" points="397.759,-236.046 407.984,-233.271 398.261,-229.064 397.759,-236.046"/>
</g>
<!-- Node3 -->
<g id="node3" class="node"><title>Node3</title>
<g id="a_node3"><a xlink:href="Lepton_8h.html" target="_top" xlink:title="Objects/interface/Lepton.h">
<polygon fill="white" stroke="black" points="172.94,-171.5 172.94,-191.5 305.647,-191.5 305.647,-171.5 172.94,-171.5"/>
<text text-anchor="middle" x="239.294" y="-178.5" font-family="Helvetica,sans-Serif" font-size="10.00">Objects/interface/Lepton.h</text>
</a>
</g>
</g>
<!-- Node1&#45;&gt;Node3 -->
<g id="edge2" class="edge"><title>Node1&#45;&gt;Node3</title>
<path fill="none" stroke="midnightblue" d="M434.916,-226.237C389.025,-215.976 322.123,-201.019 279.662,-191.525"/>
<polygon fill="midnightblue" stroke="midnightblue" points="434.425,-229.713 444.948,-228.479 435.952,-222.882 434.425,-229.713"/>
</g>
<!-- Node5 -->
<g id="node5" class="node"><title>Node5</title>
<g id="a_node5"><a xlink:href="Event_8h.html" target="_top" xlink:title="Objects/interface/Event.h">
<polygon fill="white" stroke="black" points="360.444,-57.5 360.444,-77.5 488.143,-77.5 488.143,-57.5 360.444,-57.5"/>
<text text-anchor="middle" x="424.294" y="-64.5" font-family="Helvetica,sans-Serif" font-size="10.00">Objects/interface/Event.h</text>
</a>
</g>
</g>
<!-- Node1&#45;&gt;Node5 -->
<g id="edge24" class="edge"><title>Node1&#45;&gt;Node5</title>
<path fill="none" stroke="midnightblue" d="M480.526,-218.509C474.12,-193.961 461.843,-150.084 447.294,-114 442.064,-101.03 434.529,-86.7378 429.526,-77.6962"/>
<polygon fill="midnightblue" stroke="midnightblue" points="477.17,-219.512 483.043,-228.33 483.951,-217.774 477.17,-219.512"/>
</g>
<!-- Node12 -->
<g id="node12" class="node"><title>Node12</title>
<g id="a_node12"><a xlink:href="Tau_8h.html" target="_top" xlink:title="Objects/interface/Tau.h">
<polygon fill="white" stroke="black" points="494.614,-114.5 494.614,-134.5 613.974,-134.5 613.974,-114.5 494.614,-114.5"/>
<text text-anchor="middle" x="554.294" y="-121.5" font-family="Helvetica,sans-Serif" font-size="10.00">Objects/interface/Tau.h</text>
</a>
</g>
</g>
<!-- Node1&#45;&gt;Node12 -->
<g id="edge16" class="edge"><title>Node1&#45;&gt;Node12</title>
<path fill="none" stroke="midnightblue" d="M496.201,-219.796C511.047,-195.698 537.081,-153.44 548.569,-134.792"/>
<polygon fill="midnightblue" stroke="midnightblue" points="493.206,-217.985 490.941,-228.335 499.166,-221.656 493.206,-217.985"/>
</g>
<!-- Node14 -->
<g id="node14" class="node"><title>Node14</title>
<g id="a_node14"><a xlink:href="Photon_8h.html" target="_top" xlink:title="Objects/interface/Photon.h">
<polygon fill="white" stroke="black" points="632.385,-114.5 632.385,-134.5 766.202,-134.5 766.202,-114.5 632.385,-114.5"/>
<text text-anchor="middle" x="699.294" y="-121.5" font-family="Helvetica,sans-Serif" font-size="10.00">Objects/interface/Photon.h</text>
</a>
</g>
</g>
<!-- Node1&#45;&gt;Node14 -->
<g id="edge20" class="edge"><title>Node1&#45;&gt;Node14</title>
<path fill="none" stroke="midnightblue" d="M500.358,-220.977C514.736,-206.077 537.655,-184.493 561.294,-171 591.638,-153.68 629.541,-141.783 657.943,-134.511"/>
<polygon fill="midnightblue" stroke="midnightblue" points="497.607,-218.794 493.299,-228.473 502.703,-223.593 497.607,-218.794"/>
</g>
<!-- Node16 -->
<g id="node16" class="node"><title>Node16</title>
<g id="a_node16"><a xlink:href="GenParticle_8cc.html" target="_top" xlink:title="Objects/src/GenParticle.cc">
<polygon fill="white" stroke="black" points="570.398,-171.5 570.398,-191.5 704.189,-191.5 704.189,-171.5 570.398,-171.5"/>
<text text-anchor="middle" x="637.294" y="-178.5" font-family="Helvetica,sans-Serif" font-size="10.00">Objects/src/GenParticle.cc</text>
</a>
</g>
</g>
<!-- Node1&#45;&gt;Node16 -->
<g id="edge25" class="edge"><title>Node1&#45;&gt;Node16</title>
<path fill="none" stroke="midnightblue" d="M519.87,-224.989C548.068,-214.786 587.221,-200.619 612.41,-191.504"/>
<polygon fill="midnightblue" stroke="midnightblue" points="518.606,-221.724 510.394,-228.418 520.988,-228.306 518.606,-221.724"/>
</g>
<!-- Node3&#45;&gt;Node2 -->
<g id="edge3" class="edge"><title>Node3&#45;&gt;Node2</title>
<path fill="none" stroke="midnightblue" d="M162.554,-175.108C105.258,-169.297 33.8019,-157.645 15.2939,-135 -4.76334,-110.459 28.1197,-71.1599 45.2939,-57 77.8267,-30.1771 125.862,-19.1601 158.975,-14.6391"/>
<polygon fill="midnightblue" stroke="midnightblue" points="162.415,-178.611 172.706,-176.093 163.091,-171.644 162.415,-178.611"/>
</g>
<!-- Node4 -->
<g id="node4" class="node"><title>Node4</title>
<g id="a_node4"><a xlink:href="Electron_8h.html" target="_top" xlink:title="Objects/interface/Electron.h">
<polygon fill="white" stroke="black" points="169.891,-114.5 169.891,-134.5 308.697,-134.5 308.697,-114.5 169.891,-114.5"/>
<text text-anchor="middle" x="239.294" y="-121.5" font-family="Helvetica,sans-Serif" font-size="10.00">Objects/interface/Electron.h</text>
</a>
</g>
</g>
<!-- Node3&#45;&gt;Node4 -->
<g id="edge4" class="edge"><title>Node3&#45;&gt;Node4</title>
<path fill="none" stroke="midnightblue" d="M239.294,-161.383C239.294,-152.374 239.294,-142.037 239.294,-134.779"/>
<polygon fill="midnightblue" stroke="midnightblue" points="235.794,-161.418 239.294,-171.418 242.794,-161.418 235.794,-161.418"/>
</g>
<!-- Node9 -->
<g id="node9" class="node"><title>Node9</title>
<g id="a_node9"><a xlink:href="Muon_8h.html" target="_top" xlink:title="Objects/interface/Muon.h">
<polygon fill="white" stroke="black" points="24.7244,-114.5 24.7244,-134.5 151.863,-134.5 151.863,-114.5 24.7244,-114.5"/>
<text text-anchor="middle" x="88.2939" y="-121.5" font-family="Helvetica,sans-Serif" font-size="10.00">Objects/interface/Muon.h</text>
</a>
</g>
</g>
<!-- Node3&#45;&gt;Node9 -->
<g id="edge11" class="edge"><title>Node3&#45;&gt;Node9</title>
<path fill="none" stroke="midnightblue" d="M204.945,-167.989C176.933,-157.786 138.038,-143.619 113.015,-134.504"/>
<polygon fill="midnightblue" stroke="midnightblue" points="203.765,-171.284 214.359,-171.418 206.161,-164.707 203.765,-171.284"/>
</g>
<!-- Node11 -->
<g id="node11" class="node"><title>Node11</title>
<g id="a_node11"><a xlink:href="Lepton_8cc.html" target="_top" xlink:title="Objects/src/Lepton.cc">
<polygon fill="white" stroke="black" points="326.226,-114.5 326.226,-134.5 438.361,-134.5 438.361,-114.5 326.226,-114.5"/>
<text text-anchor="middle" x="382.294" y="-121.5" font-family="Helvetica,sans-Serif" font-size="10.00">Objects/src/Lepton.cc</text>
</a>
</g>
</g>
<!-- Node3&#45;&gt;Node11 -->
<g id="edge15" class="edge"><title>Node3&#45;&gt;Node11</title>
<path fill="none" stroke="midnightblue" d="M272.49,-167.732C298.876,-157.584 335.138,-143.637 358.645,-134.596"/>
<polygon fill="midnightblue" stroke="midnightblue" points="270.984,-164.561 262.907,-171.418 273.497,-171.095 270.984,-164.561"/>
</g>
<!-- Node4&#45;&gt;Node2 -->
<g id="edge5" class="edge"><title>Node4&#45;&gt;Node2</title>
<path fill="none" stroke="midnightblue" d="M228.782,-105.658C224.222,-97.4269 219.073,-87.4117 215.294,-78 207.33,-58.1666 201.255,-33.764 198.293,-20.7348"/>
<polygon fill="midnightblue" stroke="midnightblue" points="225.751,-107.408 233.747,-114.358 231.831,-103.938 225.751,-107.408"/>
</g>
<!-- Node4&#45;&gt;Node5 -->
<g id="edge6" class="edge"><title>Node4&#45;&gt;Node5</title>
<path fill="none" stroke="midnightblue" d="M279.59,-111.52C314.026,-101.282 362.814,-86.7779 394.007,-77.5042"/>
<polygon fill="midnightblue" stroke="midnightblue" points="278.431,-108.213 269.843,-114.418 280.426,-114.923 278.431,-108.213"/>
</g>
<!-- Node8 -->
<g id="node8" class="node"><title>Node8</title>
<g id="a_node8"><a xlink:href="Electron_8cc.html" target="_top" xlink:title="Objects/src/Electron.cc">
<polygon fill="white" stroke="black" points="224.177,-57.5 224.177,-77.5 342.411,-77.5 342.411,-57.5 224.177,-57.5"/>
<text text-anchor="middle" x="283.294" y="-64.5" font-family="Helvetica,sans-Serif" font-size="10.00">Objects/src/Electron.cc</text>
</a>
</g>
</g>
<!-- Node4&#45;&gt;Node8 -->
<g id="edge10" class="edge"><title>Node4&#45;&gt;Node8</title>
<path fill="none" stroke="midnightblue" d="M252.945,-106.437C260.508,-96.9823 269.617,-85.5956 275.87,-77.7795"/>
<polygon fill="midnightblue" stroke="midnightblue" points="250.074,-104.423 246.56,-114.418 255.54,-108.796 250.074,-104.423"/>
</g>
<!-- Node5&#45;&gt;Node2 -->
<g id="edge7" class="edge"><title>Node5&#45;&gt;Node2</title>
<path fill="none" stroke="midnightblue" d="M377.065,-55.107C334.548,-44.8509 272.897,-29.9789 233.709,-20.5255"/>
<polygon fill="midnightblue" stroke="midnightblue" points="376.358,-58.5368 386.9,-57.4795 377.999,-51.732 376.358,-58.5368"/>
</g>
<!-- Node6 -->
<g id="node6" class="node"><title>Node6</title>
<g id="a_node6"><a xlink:href="Event_8cc.html" target="_top" xlink:title="Objects/src/Event.cc">
<polygon fill="white" stroke="black" points="310.73,-0.5 310.73,-20.5 417.857,-20.5 417.857,-0.5 310.73,-0.5"/>
<text text-anchor="middle" x="364.294" y="-7.5" font-family="Helvetica,sans-Serif" font-size="10.00">Objects/src/Event.cc</text>
</a>
</g>
</g>
<!-- Node5&#45;&gt;Node6 -->
<g id="edge8" class="edge"><title>Node5&#45;&gt;Node6</title>
<path fill="none" stroke="midnightblue" d="M406.931,-50.5841C396.386,-40.9177 383.292,-28.9147 374.417,-20.7795"/>
<polygon fill="midnightblue" stroke="midnightblue" points="404.65,-53.2406 414.386,-57.4179 409.38,-48.0805 404.65,-53.2406"/>
</g>
<!-- Node7 -->
<g id="node7" class="node"><title>Node7</title>
<g id="a_node7"><a xlink:href="FileMerger_8cc.html" target="_top" xlink:title="Utils/src/FileMerger.cc">
<polygon fill="white" stroke="black" points="435.858,-0.5 435.858,-20.5 550.73,-20.5 550.73,-0.5 435.858,-0.5"/>
<text text-anchor="middle" x="493.294" y="-7.5" font-family="Helvetica,sans-Serif" font-size="10.00">Utils/src/FileMerger.cc</text>
</a>
</g>
</g>
<!-- Node5&#45;&gt;Node7 -->
<g id="edge9" class="edge"><title>Node5&#45;&gt;Node7</title>
<path fill="none" stroke="midnightblue" d="M443.551,-51.15C455.796,-41.3899 471.246,-29.0742 481.652,-20.7795"/>
<polygon fill="midnightblue" stroke="midnightblue" points="441.326,-48.4478 435.688,-57.4179 445.689,-53.9216 441.326,-48.4478"/>
</g>
<!-- Node9&#45;&gt;Node2 -->
<g id="edge12" class="edge"><title>Node9&#45;&gt;Node2</title>
<path fill="none" stroke="midnightblue" d="M69.8288,-107.383C56.0985,-93.4165 41.5984,-72.9946 53.2939,-57 77.2832,-24.1927 125.137,-14.4734 158.862,-11.8862"/>
<polygon fill="midnightblue" stroke="midnightblue" points="67.5511,-110.047 77.2063,-114.409 72.3786,-104.978 67.5511,-110.047"/>
</g>
<!-- Node9&#45;&gt;Node5 -->
<g id="edge13" class="edge"><title>Node9&#45;&gt;Node5</title>
<path fill="none" stroke="midnightblue" d="M153.579,-112.813C216.316,-102.544 310.065,-87.1982 369.157,-77.5255"/>
<polygon fill="midnightblue" stroke="midnightblue" points="152.705,-109.41 143.401,-114.479 153.835,-116.318 152.705,-109.41"/>
</g>
<!-- Node10 -->
<g id="node10" class="node"><title>Node10</title>
<g id="a_node10"><a xlink:href="Muon_8cc.html" target="_top" xlink:title="Objects/src/Muon.cc">
<polygon fill="white" stroke="black" points="62.0104,-57.5 62.0104,-77.5 168.577,-77.5 168.577,-57.5 62.0104,-57.5"/>
<text text-anchor="middle" x="115.294" y="-64.5" font-family="Helvetica,sans-Serif" font-size="10.00">Objects/src/Muon.cc</text>
</a>
</g>
</g>
<!-- Node9&#45;&gt;Node10 -->
<g id="edge14" class="edge"><title>Node9&#45;&gt;Node10</title>
<path fill="none" stroke="midnightblue" d="M97.2434,-105.27C101.765,-96.0587 107.058,-85.2766 110.739,-77.7795"/>
<polygon fill="midnightblue" stroke="midnightblue" points="94.0174,-103.899 92.7524,-114.418 100.301,-106.984 94.0174,-103.899"/>
</g>
<!-- Node12&#45;&gt;Node2 -->
<g id="edge17" class="edge"><title>Node12&#45;&gt;Node2</title>
<path fill="none" stroke="midnightblue" d="M544.119,-105.657C534.249,-90.1197 517.78,-68.3541 497.294,-57 474.557,-44.398 308.976,-24.2909 233.548,-15.6585"/>
<polygon fill="midnightblue" stroke="midnightblue" points="541.221,-107.629 549.388,-114.378 547.212,-104.009 541.221,-107.629"/>
</g>
<!-- Node12&#45;&gt;Node5 -->
<g id="edge18" class="edge"><title>Node12&#45;&gt;Node5</title>
<path fill="none" stroke="midnightblue" d="M523.48,-110.463C499.548,-100.338 466.974,-86.5571 445.793,-77.5956"/>
<polygon fill="midnightblue" stroke="midnightblue" points="522.254,-113.745 532.827,-114.418 524.981,-107.298 522.254,-113.745"/>
</g>
<!-- Node13 -->
<g id="node13" class="node"><title>Node13</title>
<g id="a_node13"><a xlink:href="Tau_8cc.html" target="_top" xlink:title="Objects/src/Tau.cc">
<polygon fill="white" stroke="black" points="543.9,-57.5 543.9,-77.5 642.688,-77.5 642.688,-57.5 543.9,-57.5"/>
<text text-anchor="middle" x="593.294" y="-64.5" font-family="Helvetica,sans-Serif" font-size="10.00">Objects/src/Tau.cc</text>
</a>
</g>
</g>
<!-- Node12&#45;&gt;Node13 -->
<g id="edge19" class="edge"><title>Node12&#45;&gt;Node13</title>
<path fill="none" stroke="midnightblue" d="M566.599,-106.147C573.262,-96.7503 581.228,-85.5159 586.714,-77.7795"/>
<polygon fill="midnightblue" stroke="midnightblue" points="563.663,-104.236 560.734,-114.418 569.373,-108.285 563.663,-104.236"/>
</g>
<!-- Node14&#45;&gt;Node2 -->
<g id="edge21" class="edge"><title>Node14&#45;&gt;Node2</title>
<path fill="none" stroke="midnightblue" d="M691.339,-105.019C683.555,-89.3844 670.119,-67.8441 651.294,-57 646.763,-54.3902 341.326,-25.2408 233.491,-15.0176"/>
<polygon fill="midnightblue" stroke="midnightblue" points="688.249,-106.675 695.637,-114.268 694.597,-103.724 688.249,-106.675"/>
</g>
<!-- Node14&#45;&gt;Node5 -->
<g id="edge22" class="edge"><title>Node14&#45;&gt;Node5</title>
<path fill="none" stroke="midnightblue" d="M644.265,-112.494C592.935,-102.228 517.287,-87.0985 469.421,-77.5255"/>
<polygon fill="midnightblue" stroke="midnightblue" points="643.699,-115.95 654.191,-114.479 645.072,-109.086 643.699,-115.95"/>
</g>
<!-- Node15 -->
<g id="node15" class="node"><title>Node15</title>
<g id="a_node15"><a xlink:href="Photon_8cc.html" target="_top" xlink:title="Objects/src/Photon.cc">
<polygon fill="white" stroke="black" points="698.671,-57.5 698.671,-77.5 811.916,-77.5 811.916,-57.5 698.671,-57.5"/>
<text text-anchor="middle" x="755.294" y="-64.5" font-family="Helvetica,sans-Serif" font-size="10.00">Objects/src/Photon.cc</text>
</a>
</g>
</g>
<!-- Node14&#45;&gt;Node15 -->
<g id="edge23" class="edge"><title>Node14&#45;&gt;Node15</title>
<path fill="none" stroke="midnightblue" d="M715.789,-107.299C725.581,-97.6828 737.644,-85.8349 745.846,-77.7795"/>
<polygon fill="midnightblue" stroke="midnightblue" points="713.223,-104.914 708.541,-114.418 718.128,-109.908 713.223,-104.914"/>
</g>
</g>
</svg>
        <g id="navigator" transform="translate(0 0)" fill="#404254">
                <rect fill="#f2f5e9" fill-opacity="0.5" stroke="#606060" stroke-width=".5" x="0" y="0" width="60" height="60"/>
                <use id="zoomplus" xlink:href="#zoomPlus" x="17" y="9" onmousedown="handleZoom(evt,'in')"/>
                <use id="zoomminus" xlink:href="#zoomMin" x="42" y="9" onmousedown="handleZoom(evt,'out')"/>
                <use id="reset" xlink:href="#resetDef" x="30" y="36" onmousedown="handleReset()"/>
                <g id="arrowUp" xlink:href="#dirArrow" transform="translate(30 24)" onmousedown="handlePan(0,-1)">
                  <use xlink:href="#rim" fill="#404040">
                        <set attributeName="fill" to="#808080" begin="arrowUp.mouseover" end="arrowUp.mouseout"/>
                  </use>
                  <path fill="none" stroke="white" stroke-width="1.5" d="M0,-3.0v7 M-2.5,-0.5L0,-3.0L2.5,-0.5"/>
                </g>
                <g id="arrowRight" xlink:href="#dirArrow" transform="rotate(90) translate(36 -43)" onmousedown="handlePan(1,0)">
                  <use xlink:href="#rim" fill="#404040">
                        <set attributeName="fill" to="#808080" begin="arrowRight.mouseover" end="arrowRight.mouseout"/>
                  </use>
                  <path fill="none" stroke="white" stroke-width="1.5" d="M0,-3.0v7 M-2.5,-0.5L0,-3.0L2.5,-0.5"/>
                </g>
                <g id="arrowDown" xlink:href="#dirArrow" transform="rotate(180) translate(-30 -48)" onmousedown="handlePan(0,1)">
                  <use xlink:href="#rim" fill="#404040">
                        <set attributeName="fill" to="#808080" begin="arrowDown.mouseover" end="arrowDown.mouseout"/>
                  </use>
                  <path fill="none" stroke="white" stroke-width="1.5" d="M0,-3.0v7 M-2.5,-0.5L0,-3.0L2.5,-0.5"/>
                </g>
                <g id="arrowLeft" xlink:href="#dirArrow" transform="rotate(270) translate(-36 17)" onmousedown="handlePan(-1,0)">
                  <use xlink:href="#rim" fill="#404040">
                        <set attributeName="fill" to="#808080" begin="arrowLeft.mouseover" end="arrowLeft.mouseout"/>
                  </use>
                  <path fill="none" stroke="white" stroke-width="1.5" d="M0,-3.0v7 M-2.5,-0.5L0,-3.0L2.5,-0.5"/>
                </g>
        </g>
        <svg viewBox="0 0 15 15" width="100%" height="30px" preserveAspectRatio="xMaxYMin meet">
         <g id="arrow_out" transform="scale(0.3 0.3)">
          <a xlink:href="GenParticle_8h__dep__incl_org.svg" target="_base">
           <rect id="button" ry="5" rx="5" y="6" x="6" height="38" width="38"
                fill="#f2f5e9" fill-opacity="0.5" stroke="#606060" stroke-width="1.0"/>
           <path id="arrow"
             d="M 11.500037,31.436501 C 11.940474,20.09759 22.043105,11.32322 32.158766,21.979434 L 37.068811,17.246167 C 37.068811,17.246167 37.088388,32 37.088388,32 L 22.160133,31.978069 C 22.160133,31.978069 26.997745,27.140456 26.997745,27.140456 C 18.528582,18.264221 13.291696,25.230495 11.500037,31.436501 z"
             style="fill:#404040;"/>
          </a>
         </g>
        </svg>
</svg>
