<?xml version="1.0" encoding="UTF-8" standalone="no"?>
<!DOCTYPE svg PUBLIC "-//W3C//DTD SVG 1.1//EN"
 "http://www.w3.org/Graphics/SVG/1.1/DTD/svg11.dtd">
<!-- Generated by graphviz version 2.38.0 (20140413.2041)
 -->
<!-- Title: Graph Legend Pages: 1 -->
<svg width="511pt" height="164pt"
 viewBox="0.00 0.00 510.67 164.00" xmlns="http://www.w3.org/2000/svg" xmlns:xlink="http://www.w3.org/1999/xlink">
<g id="graph0" class="graph" transform="scale(1 1) rotate(0) translate(4 160)">
<title>Graph Legend</title>
<polygon fill="white" stroke="none" points="-4,4 -4,-160 506.674,-160 506.674,4 -4,4"/>
<!-- Node9 -->
<g id="node1" class="node"><title>Node9</title>
<polygon fill="#bfbfbf" stroke="black" points="293.407,-20 238.605,-20 238.605,-0 293.407,-0 293.407,-20"/>
<text text-anchor="middle" x="266.006" y="-7" font-family="Helvetica,sans-Serif" font-size="10.00">Inherited</text>
</g>
<!-- Node10 -->
<g id="node2" class="node"><title>Node10</title>
<g id="a_node2"><a xlink:href="$classPublicBase.html" xlink:title="PublicBase">
<polygon fill="none" stroke="black" points="66.018,-88 -0.00600109,-88 -0.00600109,-68 66.018,-68 66.018,-88"/>
<text text-anchor="middle" x="33.006" y="-75" font-family="Helvetica,sans-Serif" font-size="10.00">PublicBase</text>
</a>
</g>
</g>
<!-- Node10&#45;&gt;Node9 -->
<g id="edge1" class="edge"><title>Node10&#45;&gt;Node9</title>
<path fill="none" stroke="midnightblue" d="M74.5589,-65.2296C121.902,-51.8193 197.937,-30.2813 238.472,-18.7994"/>
<polygon fill="midnightblue" stroke="midnightblue" points="73.5826,-61.8684 64.9151,-67.9614 75.4905,-68.6034 73.5826,-61.8684"/>
</g>
<!-- Node11 -->
<g id="node3" class="node"><title>Node11</title>
<g id="a_node3"><a xlink:href="$classTruncated.html" xlink:title="Truncated">
<polygon fill="none" stroke="red" points="63.518,-156 2.494,-156 2.494,-136 63.518,-136 63.518,-156"/>
<text text-anchor="middle" x="33.006" y="-143" font-family="Helvetica,sans-Serif" font-size="10.00">Truncated</text>
</a>
</g>
</g>
<!-- Node11&#45;&gt;Node10 -->
<g id="edge2" class="edge"><title>Node11&#45;&gt;Node10</title>
<path fill="none" stroke="midnightblue" d="M33.006,-125.576C33.006,-113.193 33.006,-97.7217 33.006,-88.0991"/>
<polygon fill="midnightblue" stroke="midnightblue" points="29.5061,-125.823 33.006,-135.823 36.5061,-125.823 29.5061,-125.823"/>
</g>
<!-- Node13 -->
<g id="node4" class="node"><title>Node13</title>
<g id="a_node4"><a xlink:href="$classProtectedBase.html" xlink:title="ProtectedBase">
<polygon fill="none" stroke="black" points="165.586,-88 84.4259,-88 84.4259,-68 165.586,-68 165.586,-88"/>
<text text-anchor="middle" x="125.006" y="-75" font-family="Helvetica,sans-Serif" font-size="10.00">ProtectedBase</text>
</a>
</g>
</g>
<!-- Node13&#45;&gt;Node9 -->
<g id="edge3" class="edge"><title>Node13&#45;&gt;Node9</title>
<path fill="none" stroke="darkgreen" d="M153.478,-63.6725C181.126,-50.7311 222.354,-31.4327 246.477,-20.1413"/>
<polygon fill="darkgreen" stroke="darkgreen" points="151.889,-60.552 144.316,-67.9614 154.857,-66.8918 151.889,-60.552"/>
</g>
<!-- Node14 -->
<g id="node5" class="node"><title>Node14</title>
<g id="a_node5"><a xlink:href="$classPrivateBase.html" xlink:title="PrivateBase">
<polygon fill="none" stroke="black" points="253.907,-88 184.105,-88 184.105,-68 253.907,-68 253.907,-88"/>
<text text-anchor="middle" x="219.006" y="-75" font-family="Helvetica,sans-Serif" font-size="10.00">PrivateBase</text>
</a>
</g>
</g>
<!-- Node14&#45;&gt;Node9 -->
<g id="edge4" class="edge"><title>Node14&#45;&gt;Node9</title>
<path fill="none" stroke="#8b1a1a" d="M231.507,-59.4458C240.521,-46.7871 252.324,-30.2127 259.526,-20.0991"/>
<polygon fill="#8b1a1a" stroke="#8b1a1a" points="228.491,-57.647 225.541,-67.823 234.193,-61.7076 228.491,-57.647"/>
</g>
<!-- Node15 -->
<g id="node6" class="node"><title>Node15</title>
<polygon fill="none" stroke="#bfbfbf" points="355.805,-88 272.207,-88 272.207,-68 355.805,-68 355.805,-88"/>
<text text-anchor="middle" x="314.006" y="-75" font-family="Helvetica,sans-Serif" font-size="10.00">Undocumented</text>
</g>
<!-- Node15&#45;&gt;Node9 -->
<g id="edge5" class="edge"><title>Node15&#45;&gt;Node9</title>
<path fill="none" stroke="midnightblue" d="M301.239,-59.4458C292.033,-46.7871 279.979,-30.2127 272.624,-20.0991"/>
<polygon fill="midnightblue" stroke="midnightblue" points="298.619,-61.7942 307.332,-67.823 304.281,-57.677 298.619,-61.7942"/>
</g>
<!-- Node16 -->
<g id="node7" class="node"><title>Node16</title>
<g id="a_node7"><a xlink:href="$classTempl.html" xlink:title="Templ&lt; int &gt;">
<polygon fill="none" stroke="black" points="445.575,-88 374.437,-88 374.437,-68 445.575,-68 445.575,-88"/>
<text text-anchor="middle" x="410.006" y="-75" font-family="Helvetica,sans-Serif" font-size="10.00">Templ&lt; int &gt;</text>
</a>
</g>
</g>
<!-- Node16&#45;&gt;Node9 -->
<g id="edge6" class="edge"><title>Node16&#45;&gt;Node9</title>
<path fill="none" stroke="midnightblue" d="M380.928,-63.6725C352.692,-50.7311 310.587,-31.4327 285.951,-20.1413"/>
<polygon fill="midnightblue" stroke="midnightblue" points="379.736,-66.9765 390.285,-67.9614 382.653,-60.613 379.736,-66.9765"/>
</g>
<!-- Node17 -->
<g id="node8" class="node"><title>Node17</title>
<g id="a_node8"><a xlink:href="$classTempl.html" xlink:title="Templ&lt; T &gt;">
<polygon fill="none" stroke="black" points="443.626,-156 376.386,-156 376.386,-136 443.626,-136 443.626,-156"/>
<text text-anchor="middle" x="410.006" y="-143" font-family="Helvetica,sans-Serif" font-size="10.00">Templ&lt; T &gt;</text>
</a>
</g>
</g>
<!-- Node17&#45;&gt;Node16 -->
<g id="edge7" class="edge"><title>Node17&#45;&gt;Node16</title>
<path fill="none" stroke="orange" stroke-dasharray="5,2" d="M410.006,-125.576C410.006,-113.193 410.006,-97.7217 410.006,-88.0991"/>
<polygon fill="orange" stroke="orange" points="406.506,-125.823 410.006,-135.823 413.506,-125.823 406.506,-125.823"/>
<text text-anchor="middle" x="423.902" y="-109" font-family="Helvetica,sans-Serif" font-size="10.00">&lt; int &gt;</text>
</g>
<!-- Node18 -->
<g id="node9" class="node"><title>Node18</title>
<g id="a_node9"><a xlink:href="$classUsed.html" xlink:title="Used">
<polygon fill="none" stroke="black" points="502.844,-88 463.168,-88 463.168,-68 502.844,-68 502.844,-88"/>
<text text-anchor="middle" x="483.006" y="-75" font-family="Helvetica,sans-Serif" font-size="10.00">Used</text>
</a>
</g>
</g>
<!-- Node18&#45;&gt;Node9 -->
<g id="edge8" class="edge"><title>Node18&#45;&gt;Node9</title>
<path fill="none" stroke="#9a32cd" stroke-dasharray="5,2" d="M453.546,-67.579C391.244,-48.224 328.65,-29.5434 293.598,-19.1513"/>
<polygon fill="#9a32cd" stroke="#9a32cd" points="452.547,-70.9334 463.135,-70.564 454.627,-64.2498 452.547,-70.9334"/>
<text text-anchor="middle" x="423.287" y="-41" font-family="Helvetica,sans-Serif" font-size="10.00">m_usedClass</text>
</g>
</g>
</svg>
