<?xml version="1.0" encoding="UTF-8" standalone="no"?>
<!DOCTYPE svg PUBLIC "-//W3C//DTD SVG 1.1//EN"
 "http://www.w3.org/Graphics/SVG/1.1/DTD/svg11.dtd">
<!-- Generated by graphviz version 2.38.0 (20140413.2041)
 -->
<!-- Title: Graphical Class Hierarchy Pages: 1 -->
<svg width="405pt" height="380pt"
 viewBox="0.00 0.00 404.74 380.00" xmlns="http://www.w3.org/2000/svg" xmlns:xlink="http://www.w3.org/1999/xlink">
<g id="graph0" class="graph" transform="scale(1 1) rotate(0) translate(4 376)">
<title>Graphical Class Hierarchy</title>
<polygon fill="white" stroke="none" points="-4,4 -4,-376 400.741,-376 400.741,4 -4,4"/>
<!-- Node1 -->
<g id="node1" class="node"><title>Node1</title>
<polygon fill="white" stroke="#bfbfbf" points="-1.42109e-14,-175.5 -1.42109e-14,-195.5 57.67,-195.5 57.67,-175.5 -1.42109e-14,-175.5"/>
<text text-anchor="middle" x="28.835" y="-182.5" font-family="Helvetica,sans-Serif" font-size="10.00">Definition</text>
</g>
<!-- Node2 -->
<g id="node2" class="node"><title>Node2</title>
<g id="a_node2"><a xlink:href="classpanda_1_1branch_1_1Branch.html" target="_top" xlink:title="panda.branch.Branch">
<polygon fill="white" stroke="black" points="110.889,-117.5 110.889,-137.5 222.482,-137.5 222.482,-117.5 110.889,-117.5"/>
<text text-anchor="middle" x="166.686" y="-124.5" font-family="Helvetica,sans-Serif" font-size="10.00">panda.branch.Branch</text>
</a>
</g>
</g>
<!-- Node1&#45;&gt;Node2 -->
<g id="edge1" class="edge"><title>Node1&#45;&gt;Node2</title>
<path fill="none" stroke="midnightblue" d="M52.2725,-169.57C64.1331,-161.734 79.2007,-152.672 93.67,-146.5 101.758,-143.05 110.63,-140.092 119.3,-137.609"/>
<polygon fill="midnightblue" stroke="midnightblue" points="50.2022,-166.745 43.8908,-175.255 54.1315,-172.538 50.2022,-166.745"/>
</g>
<!-- Node3 -->
<g id="node3" class="node"><title>Node3</title>
<g id="a_node3"><a xlink:href="classpanda_1_1constexpr_1_1Assert.html" target="_top" xlink:title="panda.constexpr.Assert">
<polygon fill="white" stroke="black" points="106.169,-78.5 106.169,-98.5 227.202,-98.5 227.202,-78.5 106.169,-78.5"/>
<text text-anchor="middle" x="166.686" y="-85.5" font-family="Helvetica,sans-Serif" font-size="10.00">panda.constexpr.Assert</text>
</a>
</g>
</g>
<!-- Node1&#45;&gt;Node3 -->
<g id="edge2" class="edge"><title>Node1&#45;&gt;Node3</title>
<path fill="none" stroke="midnightblue" d="M40.5591,-166.46C51.6016,-148.588 70.4472,-122.432 93.67,-107.5 99.3256,-103.863 105.655,-100.92 112.151,-98.5388"/>
<polygon fill="midnightblue" stroke="midnightblue" points="37.3402,-165.026 35.249,-175.412 43.3608,-168.597 37.3402,-165.026"/>
</g>
<!-- Node4 -->
<g id="node4" class="node"><title>Node4</title>
<g id="a_node4"><a xlink:href="classpanda_1_1constexpr_1_1Constant.html" target="_top" xlink:title="panda.constexpr.Constant">
<polygon fill="white" stroke="black" points="100.331,-351.5 100.331,-371.5 233.041,-371.5 233.041,-351.5 100.331,-351.5"/>
<text text-anchor="middle" x="166.686" y="-358.5" font-family="Helvetica,sans-Serif" font-size="10.00">panda.constexpr.Constant</text>
</a>
</g>
</g>
<!-- Node1&#45;&gt;Node4 -->
<g id="edge3" class="edge"><title>Node1&#45;&gt;Node4</title>
<path fill="none" stroke="midnightblue" d="M32.2524,-205.717C37.3549,-239.23 52.378,-306.19 93.67,-342.5 97.7483,-346.086 102.427,-349.007 107.399,-351.385"/>
<polygon fill="midnightblue" stroke="midnightblue" points="35.7083,-205.156 30.8787,-195.726 28.7736,-206.11 35.7083,-205.156"/>
</g>
<!-- Node5 -->
<g id="node5" class="node"><title>Node5</title>
<g id="a_node5"><a xlink:href="classpanda_1_1constexpr_1_1Enum.html" target="_top" xlink:title="panda.constexpr.Enum">
<polygon fill="white" stroke="black" points="107.279,-312.5 107.279,-332.5 226.092,-332.5 226.092,-312.5 107.279,-312.5"/>
<text text-anchor="middle" x="166.686" y="-319.5" font-family="Helvetica,sans-Serif" font-size="10.00">panda.constexpr.Enum</text>
</a>
</g>
</g>
<!-- Node1&#45;&gt;Node5 -->
<g id="edge4" class="edge"><title>Node1&#45;&gt;Node5</title>
<path fill="none" stroke="midnightblue" d="M35.2309,-205.543C43.4041,-232.003 61.4879,-278.19 93.67,-303.5 98.2437,-307.097 103.435,-310.017 108.885,-312.386"/>
<polygon fill="midnightblue" stroke="midnightblue" points="38.5608,-204.459 32.406,-195.835 31.8396,-206.415 38.5608,-204.459"/>
</g>
<!-- Node6 -->
<g id="node6" class="node"><title>Node6</title>
<g id="a_node6"><a xlink:href="classpanda_1_1function_1_1Function.html" target="_top" xlink:title="panda.function.Function">
<polygon fill="white" stroke="black" points="105.331,-273.5 105.331,-293.5 228.04,-293.5 228.04,-273.5 105.331,-273.5"/>
<text text-anchor="middle" x="166.686" y="-280.5" font-family="Helvetica,sans-Serif" font-size="10.00">panda.function.Function</text>
</a>
</g>
</g>
<!-- Node1&#45;&gt;Node6 -->
<g id="edge5" class="edge"><title>Node1&#45;&gt;Node6</title>
<path fill="none" stroke="midnightblue" d="M40.5009,-204.786C51.5005,-222.888 70.3155,-249.38 93.67,-264.5 99.3143,-268.154 105.637,-271.108 112.129,-273.495"/>
<polygon fill="midnightblue" stroke="midnightblue" points="43.2748,-202.595 35.2149,-195.718 37.2273,-206.12 43.2748,-202.595"/>
</g>
<!-- Node7 -->
<g id="node7" class="node"><title>Node7</title>
<g id="a_node7"><a xlink:href="classpanda_1_1objbranch_1_1ObjBranch.html" target="_top" xlink:title="panda.objbranch.ObjBranch">
<polygon fill="white" stroke="black" points="96.4425,-234.5 96.4425,-254.5 236.929,-254.5 236.929,-234.5 96.4425,-234.5"/>
<text text-anchor="middle" x="166.686" y="-241.5" font-family="Helvetica,sans-Serif" font-size="10.00">panda.objbranch.ObjBranch</text>
</a>
</g>
</g>
<!-- Node1&#45;&gt;Node7 -->
<g id="edge6" class="edge"><title>Node1&#45;&gt;Node7</title>
<path fill="none" stroke="midnightblue" d="M51.7514,-201.548C63.6665,-209.664 78.9431,-219.119 93.67,-225.5 101.738,-228.996 110.601,-231.975 119.268,-234.465"/>
<polygon fill="midnightblue" stroke="midnightblue" points="53.5598,-198.542 43.3598,-195.677 49.5465,-204.277 53.5598,-198.542"/>
</g>
<!-- Node8 -->
<g id="node8" class="node"><title>Node8</title>
<g id="a_node8"><a xlink:href="classpanda_1_1oneliner_1_1OneLiner.html" target="_top" xlink:title="panda.oneliner.OneLiner">
<polygon fill="white" stroke="black" points="103.667,-195.5 103.667,-215.5 229.704,-215.5 229.704,-195.5 103.667,-195.5"/>
<text text-anchor="middle" x="166.686" y="-202.5" font-family="Helvetica,sans-Serif" font-size="10.00">panda.oneliner.OneLiner</text>
</a>
</g>
</g>
<!-- Node1&#45;&gt;Node8 -->
<g id="edge7" class="edge"><title>Node1&#45;&gt;Node8</title>
<path fill="none" stroke="midnightblue" d="M68.0784,-191.13C79.0723,-192.749 91.3576,-194.557 103.404,-196.331"/>
<polygon fill="midnightblue" stroke="midnightblue" points="68.3866,-187.638 57.9834,-189.644 67.367,-194.563 68.3866,-187.638"/>
</g>
<!-- Node11 -->
<g id="node11" class="node"><title>Node11</title>
<g id="a_node11"><a xlink:href="classpanda_1_1physics_1_1PhysicsObject.html" target="_top" xlink:title="panda.physics.PhysicsObject">
<polygon fill="white" stroke="black" points="93.67,-39.5 93.67,-59.5 239.702,-59.5 239.702,-39.5 93.67,-39.5"/>
<text text-anchor="middle" x="166.686" y="-46.5" font-family="Helvetica,sans-Serif" font-size="10.00">panda.physics.PhysicsObject</text>
</a>
</g>
</g>
<!-- Node1&#45;&gt;Node11 -->
<g id="edge10" class="edge"><title>Node1&#45;&gt;Node11</title>
<path fill="none" stroke="midnightblue" d="M35.2798,-165.625C43.5082,-139.386 61.6539,-93.5871 93.67,-68.5 98.2502,-64.9111 103.445,-61.9968 108.898,-59.6309"/>
<polygon fill="midnightblue" stroke="midnightblue" points="31.9126,-164.669 32.4331,-175.251 38.6253,-166.654 31.9126,-164.669"/>
</g>
<!-- Node12 -->
<g id="node12" class="node"><title>Node12</title>
<g id="a_node12"><a xlink:href="classpanda_1_1reference_1_1Reference.html" target="_top" xlink:title="panda.reference.Reference">
<polygon fill="white" stroke="black" points="97.8325,-156.5 97.8325,-176.5 235.539,-176.5 235.539,-156.5 97.8325,-156.5"/>
<text text-anchor="middle" x="166.686" y="-163.5" font-family="Helvetica,sans-Serif" font-size="10.00">panda.reference.Reference</text>
</a>
</g>
</g>
<!-- Node1&#45;&gt;Node12 -->
<g id="edge11" class="edge"><title>Node1&#45;&gt;Node12</title>
<path fill="none" stroke="midnightblue" d="M68.0384,-180.157C77.3362,-178.857 87.5596,-177.427 97.7823,-175.997"/>
<polygon fill="midnightblue" stroke="midnightblue" points="67.4022,-176.712 57.9834,-181.563 68.3718,-183.644 67.4022,-176.712"/>
</g>
<!-- Node13 -->
<g id="node13" class="node"><title>Node13</title>
<g id="a_node13"><a xlink:href="classpanda_1_1tree_1_1Tree.html" target="_top" xlink:title="panda.tree.Tree">
<polygon fill="white" stroke="black" points="123.118,-0.5 123.118,-20.5 210.253,-20.5 210.253,-0.5 123.118,-0.5"/>
<text text-anchor="middle" x="166.686" y="-7.5" font-family="Helvetica,sans-Serif" font-size="10.00">panda.tree.Tree</text>
</a>
</g>
</g>
<!-- Node1&#45;&gt;Node13 -->
<g id="edge12" class="edge"><title>Node1&#45;&gt;Node13</title>
<path fill="none" stroke="midnightblue" d="M32.2929,-165.409C37.4549,-132.105 52.5633,-65.5656 93.67,-29.5 101.835,-22.3366 112.395,-17.8285 122.9,-15.0045"/>
<polygon fill="midnightblue" stroke="midnightblue" points="28.8234,-164.948 30.9005,-175.337 35.7555,-165.92 28.8234,-164.948"/>
</g>
<!-- Node9 -->
<g id="node9" class="node"><title>Node9</title>
<g id="a_node9"><a xlink:href="classpanda_1_1oneliner_1_1Include.html" target="_top" xlink:title="panda.oneliner.Include">
<polygon fill="white" stroke="black" points="277.647,-214.5 277.647,-234.5 394.796,-234.5 394.796,-214.5 277.647,-214.5"/>
<text text-anchor="middle" x="336.221" y="-221.5" font-family="Helvetica,sans-Serif" font-size="10.00">panda.oneliner.Include</text>
</a>
</g>
</g>
<!-- Node8&#45;&gt;Node9 -->
<g id="edge8" class="edge"><title>Node8&#45;&gt;Node9</title>
<path fill="none" stroke="midnightblue" d="M240.02,-213.703C252.547,-215.124 265.422,-216.584 277.496,-217.953"/>
<polygon fill="midnightblue" stroke="midnightblue" points="240.401,-210.224 230.07,-212.575 239.612,-217.18 240.401,-210.224"/>
</g>
<!-- Node10 -->
<g id="node10" class="node"><title>Node10</title>
<g id="a_node10"><a xlink:href="classpanda_1_1oneliner_1_1Typedef.html" target="_top" xlink:title="panda.oneliner.Typedef">
<polygon fill="white" stroke="black" points="275.702,-175.5 275.702,-195.5 396.741,-195.5 396.741,-175.5 275.702,-175.5"/>
<text text-anchor="middle" x="336.221" y="-182.5" font-family="Helvetica,sans-Serif" font-size="10.00">panda.oneliner.Typedef</text>
</a>
</g>
</g>
<!-- Node8&#45;&gt;Node10 -->
<g id="edge9" class="edge"><title>Node8&#45;&gt;Node10</title>
<path fill="none" stroke="midnightblue" d="M240.312,-196.83C252.082,-195.425 264.15,-193.984 275.565,-192.622"/>
<polygon fill="midnightblue" stroke="midnightblue" points="239.585,-193.392 230.07,-198.053 240.414,-200.343 239.585,-193.392"/>
</g>
<!-- Node14 -->
<g id="node14" class="node"><title>Node14</title>
<polygon fill="white" stroke="#bfbfbf" points="6.3875,-20.5 6.3875,-40.5 51.2825,-40.5 51.2825,-20.5 6.3875,-20.5"/>
<text text-anchor="middle" x="28.835" y="-27.5" font-family="Helvetica,sans-Serif" font-size="10.00">Object</text>
</g>
<!-- Node14&#45;&gt;Node11 -->
<g id="edge13" class="edge"><title>Node14&#45;&gt;Node11</title>
<path fill="none" stroke="midnightblue" d="M61.4104,-34.9161C71.2501,-36.2923 82.5325,-37.8702 93.9587,-39.4683"/>
<polygon fill="midnightblue" stroke="midnightblue" points="61.7494,-31.4295 51.361,-33.5106 60.7798,-38.3621 61.7494,-31.4295"/>
</g>
<!-- Node14&#45;&gt;Node13 -->
<g id="edge14" class="edge"><title>Node14&#45;&gt;Node13</title>
<path fill="none" stroke="midnightblue" d="M61.4865,-25.8403C79.7635,-23.1495 102.999,-19.7288 122.888,-16.8007"/>
<polygon fill="midnightblue" stroke="midnightblue" points="60.7446,-22.4117 51.361,-27.3309 61.7642,-29.337 60.7446,-22.4117"/>
</g>
</g>
</svg>
