<?xml version="1.0" encoding="UTF-8" standalone="no"?>
<!DOCTYPE svg PUBLIC "-//W3C//DTD SVG 1.1//EN"
 "http://www.w3.org/Graphics/SVG/1.1/DTD/svg11.dtd">
<!-- Generated by graphviz version 2.38.0 (20140413.2041)
 -->
<!-- Title: Graphical Class Hierarchy Pages: 1 -->
<svg width="218pt" height="68pt"
 viewBox="0.00 0.00 218.25 68.00" xmlns="http://www.w3.org/2000/svg" xmlns:xlink="http://www.w3.org/1999/xlink">
<g id="graph0" class="graph" transform="scale(1 1) rotate(0) translate(4 64)">
<title>Graphical Class Hierarchy</title>
<polygon fill="white" stroke="none" points="-4,4 -4,-64 214.254,-64 214.254,4 -4,4"/>
<!-- Node1 -->
<g id="node1" class="node"><title>Node1</title>
<polygon fill="white" stroke="#bfbfbf" points="0,-19.5 0,-39.5 43.226,-39.5 43.226,-19.5 0,-19.5"/>
<text text-anchor="middle" x="21.613" y="-26.5" font-family="Helvetica,sans-Serif" font-size="10.00">vector</text>
</g>
<!-- Node2 -->
<g id="node2" class="node"><title>Node2</title>
<g id="a_node2"><a xlink:href="classpanda_1_1utils_1_1BranchList.html" target="_top" xlink:title="List of branch names. ">
<polygon fill="white" stroke="black" points="84.7805,-39.5 84.7805,-59.5 204.699,-59.5 204.699,-39.5 84.7805,-39.5"/>
<text text-anchor="middle" x="144.74" y="-46.5" font-family="Helvetica,sans-Serif" font-size="10.00">panda::utils::BranchList</text>
</a>
</g>
</g>
<!-- Node1&#45;&gt;Node2 -->
<g id="edge1" class="edge"><title>Node1&#45;&gt;Node2</title>
<path fill="none" stroke="midnightblue" d="M53.5634,-34.6104C63.0854,-36.1826 73.903,-37.9688 84.6582,-39.7447"/>
<polygon fill="midnightblue" stroke="midnightblue" points="53.8721,-31.1141 43.4355,-32.9381 52.7317,-38.0205 53.8721,-31.1141"/>
</g>
<!-- Node3 -->
<g id="node3" class="node"><title>Node3</title>
<g id="a_node3"><a xlink:href="classpanda_1_1utils_1_1BranchName.html" target="_top" xlink:title="Tokenized branch name. ">
<polygon fill="white" stroke="black" points="79.226,-0.5 79.226,-20.5 210.254,-20.5 210.254,-0.5 79.226,-0.5"/>
<text text-anchor="middle" x="144.74" y="-7.5" font-family="Helvetica,sans-Serif" font-size="10.00">panda::utils::BranchName</text>
</a>
</g>
</g>
<!-- Node1&#45;&gt;Node3 -->
<g id="edge2" class="edge"><title>Node1&#45;&gt;Node3</title>
<path fill="none" stroke="midnightblue" d="M53.5236,-24.6514C61.6682,-23.3738 70.7627,-21.9472 79.9563,-20.5051"/>
<polygon fill="midnightblue" stroke="midnightblue" points="52.7723,-21.2263 43.4355,-26.2338 53.8571,-28.1418 52.7723,-21.2263"/>
</g>
</g>
</svg>
