<?xml version="1.0" encoding="UTF-8" standalone="no"?>
<!DOCTYPE svg PUBLIC "-//W3C//DTD SVG 1.1//EN"
 "http://www.w3.org/Graphics/SVG/1.1/DTD/svg11.dtd">
<!-- Generated by graphviz version 2.38.0 (20140413.2041)
 -->
<!-- Title: Graphical Class Hierarchy Pages: 1 -->
<svg width="190pt" height="41pt"
 viewBox="0.00 0.00 189.66 41.00" xmlns="http://www.w3.org/2000/svg" xmlns:xlink="http://www.w3.org/1999/xlink">
<g id="graph0" class="graph" transform="scale(1 1) rotate(0) translate(4 37)">
<title>Graphical Class Hierarchy</title>
<polygon fill="white" stroke="none" points="-4,4 -4,-37 185.657,-37 185.657,4 -4,4"/>
<!-- Node1 -->
<g id="node1" class="node"><title>Node1</title>
<polygon fill="white" stroke="#bfbfbf" points="-3.55271e-15,-6.5 -3.55271e-15,-26.5 34.897,-26.5 34.897,-6.5 -3.55271e-15,-6.5"/>
<text text-anchor="middle" x="17.4485" y="-13.5" font-family="Helvetica,sans-Serif" font-size="10.00">type</text>
</g>
<!-- Node2 -->
<g id="node2" class="node"><title>Node2</title>
<g id="a_node2"><a xlink:href="classpanda_1_1Container.html" target="_top" xlink:title="Template class for all container implementations. Inherits from base_type::array_type or base_type::c...">
<polygon fill="white" stroke="black" points="70.897,-0.5 70.897,-32.5 181.657,-32.5 181.657,-0.5 70.897,-0.5"/>
<text text-anchor="start" x="78.897" y="-19.5" font-family="Helvetica,sans-Serif" font-size="10.00">panda::Container&lt; E,</text>
<text text-anchor="middle" x="126.277" y="-7.5" font-family="Helvetica,sans-Serif" font-size="10.00"> FIXED &gt;</text>
</a>
</g>
</g>
<!-- Node1&#45;&gt;Node2 -->
<g id="edge1" class="edge"><title>Node1&#45;&gt;Node2</title>
<path fill="none" stroke="midnightblue" d="M45.3724,-16.5C53.1545,-16.5 61.941,-16.5 70.7674,-16.5"/>
<polygon fill="midnightblue" stroke="midnightblue" points="45.1405,-13.0001 35.1405,-16.5 45.1404,-20.0001 45.1405,-13.0001"/>
</g>
</g>
</svg>
