<?xml version="1.0" encoding="UTF-8" standalone="no"?>
<!DOCTYPE svg PUBLIC "-//W3C//DTD SVG 1.1//EN"
 "http://www.w3.org/Graphics/SVG/1.1/DTD/svg11.dtd">
<!-- Generated by graphviz version 2.38.0 (20140413.2041)
 -->
<!-- Title: Graphical Class Hierarchy Pages: 1 -->
<svg width="268pt" height="68pt"
 viewBox="0.00 0.00 267.72 68.00" xmlns="http://www.w3.org/2000/svg" xmlns:xlink="http://www.w3.org/1999/xlink">
<g id="graph0" class="graph" transform="scale(1 1) rotate(0) translate(4 64)">
<title>Graphical Class Hierarchy</title>
<polygon fill="white" stroke="none" points="-4,4 -4,-64 263.716,-64 263.716,4 -4,4"/>
<!-- Node1 -->
<g id="node1" class="node"><title>Node1</title>
<polygon fill="white" stroke="#bfbfbf" points="-1.42109e-14,-39.5 -1.42109e-14,-59.5 82.679,-59.5 82.679,-39.5 -1.42109e-14,-39.5"/>
<text text-anchor="middle" x="41.3395" y="-46.5" font-family="Helvetica,sans-Serif" font-size="10.00">GenericBranch</text>
</g>
<!-- Node2 -->
<g id="node2" class="node"><title>Node2</title>
<g id="a_node2"><a xlink:href="classpanda_1_1refvbranch_1_1RefVectorBranch.html" target="_top" xlink:title="panda.refvbranch.RefVector\lBranch">
<polygon fill="white" stroke="black" points="118.679,-13.5 118.679,-45.5 259.716,-45.5 259.716,-13.5 118.679,-13.5"/>
<text text-anchor="start" x="126.679" y="-32.5" font-family="Helvetica,sans-Serif" font-size="10.00">panda.refvbranch.RefVector</text>
<text text-anchor="middle" x="189.197" y="-20.5" font-family="Helvetica,sans-Serif" font-size="10.00">Branch</text>
</a>
</g>
</g>
<!-- Node1&#45;&gt;Node2 -->
<g id="edge1" class="edge"><title>Node1&#45;&gt;Node2</title>
<path fill="none" stroke="midnightblue" d="M93.0956,-42.5403C101.293,-41.4164 109.903,-40.2358 118.454,-39.0632"/>
<polygon fill="midnightblue" stroke="midnightblue" points="92.4009,-39.1028 82.9691,-43.9289 93.3519,-46.0379 92.4009,-39.1028"/>
</g>
<!-- Node3 -->
<g id="node3" class="node"><title>Node3</title>
<polygon fill="white" stroke="#bfbfbf" points="9.7235,-0.5 9.7235,-20.5 72.9555,-20.5 72.9555,-0.5 9.7235,-0.5"/>
<text text-anchor="middle" x="41.3395" y="-7.5" font-family="Helvetica,sans-Serif" font-size="10.00">RefBranch</text>
</g>
<!-- Node3&#45;&gt;Node2 -->
<g id="edge2" class="edge"><title>Node3&#45;&gt;Node2</title>
<path fill="none" stroke="midnightblue" d="M83.3867,-15.847C94.3647,-17.277 106.543,-18.8634 118.599,-20.4339"/>
<polygon fill="midnightblue" stroke="midnightblue" points="83.6406,-12.3505 73.2722,-14.5294 82.7363,-19.2919 83.6406,-12.3505"/>
</g>
</g>
</svg>
