<?xml version="1.0" encoding="UTF-8" standalone="no"?>
<!DOCTYPE svg PUBLIC "-//W3C//DTD SVG 1.1//EN"
 "http://www.w3.org/Graphics/SVG/1.1/DTD/svg11.dtd">
<!-- Generated by graphviz version 2.38.0 (20140413.2041)
 -->
<!-- Title: Graphical Class Hierarchy Pages: 1 -->
<svg width="210pt" height="107pt"
 viewBox="0.00 0.00 209.94 107.00" xmlns="http://www.w3.org/2000/svg" xmlns:xlink="http://www.w3.org/1999/xlink">
<g id="graph0" class="graph" transform="scale(1 1) rotate(0) translate(4 103)">
<title>Graphical Class Hierarchy</title>
<polygon fill="white" stroke="none" points="-4,4 -4,-103 205.942,-103 205.942,4 -4,4"/>
<!-- Node1 -->
<g id="node1" class="node"><title>Node1</title>
<polygon fill="white" stroke="#bfbfbf" points="7.10543e-15,-39.5 7.10543e-15,-59.5 42.675,-59.5 42.675,-39.5 7.10543e-15,-39.5"/>
<text text-anchor="middle" x="21.3375" y="-46.5" font-family="Helvetica,sans-Serif" font-size="10.00">object</text>
</g>
<!-- Node2 -->
<g id="node2" class="node"><title>Node2</title>
<g id="a_node2"><a xlink:href="classpanda_1_1base_1_1Definition.html" target="_top" xlink:title="panda.base.Definition">
<polygon fill="white" stroke="black" points="83.9585,-78.5 83.9585,-98.5 196.658,-98.5 196.658,-78.5 83.9585,-78.5"/>
<text text-anchor="middle" x="140.308" y="-85.5" font-family="Helvetica,sans-Serif" font-size="10.00">panda.base.Definition</text>
</a>
</g>
</g>
<!-- Node1&#45;&gt;Node2 -->
<g id="edge1" class="edge"><title>Node1&#45;&gt;Node2</title>
<path fill="none" stroke="midnightblue" d="M52.3895,-60.4032C60.8673,-63.4151 70.1137,-66.6401 78.675,-69.5 87.6732,-72.5059 97.4685,-75.6364 106.51,-78.4686"/>
<polygon fill="midnightblue" stroke="midnightblue" points="53.4719,-57.0732 42.8773,-56.9999 51.1138,-63.6641 53.4719,-57.0732"/>
</g>
<!-- Node3 -->
<g id="node3" class="node"><title>Node3</title>
<g id="a_node3"><a xlink:href="classpanda_1_1obj_1_1Object.html" target="_top" xlink:title="panda.obj.Object">
<polygon fill="white" stroke="black" points="94.516,-39.5 94.516,-59.5 186.101,-59.5 186.101,-39.5 94.516,-39.5"/>
<text text-anchor="middle" x="140.308" y="-46.5" font-family="Helvetica,sans-Serif" font-size="10.00">panda.obj.Object</text>
</a>
</g>
</g>
<!-- Node1&#45;&gt;Node3 -->
<g id="edge2" class="edge"><title>Node1&#45;&gt;Node3</title>
<path fill="none" stroke="midnightblue" d="M52.7712,-49.5C65.4839,-49.5 80.5137,-49.5 94.4503,-49.5"/>
<polygon fill="midnightblue" stroke="midnightblue" points="52.7123,-46.0001 42.7123,-49.5 52.7123,-53.0001 52.7123,-46.0001"/>
</g>
<!-- Node4 -->
<g id="node4" class="node"><title>Node4</title>
<g id="a_node4"><a xlink:href="classpanda_1_1output_1_1FileOutput.html" target="_top" xlink:title="panda.output.FileOutput">
<polygon fill="white" stroke="black" points="78.675,-0.5 78.675,-20.5 201.942,-20.5 201.942,-0.5 78.675,-0.5"/>
<text text-anchor="middle" x="140.308" y="-7.5" font-family="Helvetica,sans-Serif" font-size="10.00">panda.output.FileOutput</text>
</a>
</g>
</g>
<!-- Node1&#45;&gt;Node4 -->
<g id="edge3" class="edge"><title>Node1&#45;&gt;Node4</title>
<path fill="none" stroke="midnightblue" d="M52.4491,-39.3035C60.9275,-36.4437 70.1592,-33.3404 78.675,-30.5 88.454,-27.2382 99.1299,-23.7069 108.761,-20.5323"/>
<polygon fill="midnightblue" stroke="midnightblue" points="51.2844,-36.0025 42.9302,-42.5184 53.5244,-42.6345 51.2844,-36.0025"/>
</g>
</g>
</svg>
