<?xml version="1.0" encoding="UTF-8" standalone="no"?>
<!DOCTYPE svg PUBLIC "-//W3C//DTD SVG 1.1//EN"
 "http://www.w3.org/Graphics/SVG/1.1/DTD/svg11.dtd">
<!-- Generated by graphviz version 2.38.0 (20140413.2041)
 -->
<!-- Title: Graphical Class Hierarchy Pages: 1 -->
<svg width="240pt" height="68pt"
 viewBox="0.00 0.00 240.49 68.00" xmlns="http://www.w3.org/2000/svg" xmlns:xlink="http://www.w3.org/1999/xlink">
<g id="graph0" class="graph" transform="scale(1 1) rotate(0) translate(4 64)">
<title>Graphical Class Hierarchy</title>
<polygon fill="white" stroke="none" points="-4,4 -4,-64 236.491,-64 236.491,4 -4,4"/>
<!-- Node1 -->
<g id="node1" class="node"><title>Node1</title>
<polygon fill="white" stroke="#bfbfbf" points="7.10543e-15,-19.5 7.10543e-15,-39.5 47.675,-39.5 47.675,-19.5 7.10543e-15,-19.5"/>
<text text-anchor="middle" x="23.8375" y="-26.5" font-family="Helvetica,sans-Serif" font-size="10.00">Branch</text>
</g>
<!-- Node2 -->
<g id="node2" class="node"><title>Node2</title>
<g id="a_node2"><a xlink:href="classpanda_1_1generic_1_1GenericBranch.html" target="_top" xlink:title="panda.generic.GenericBranch">
<polygon fill="white" stroke="black" points="83.675,-39.5 83.675,-59.5 232.491,-59.5 232.491,-39.5 83.675,-39.5"/>
<text text-anchor="middle" x="158.083" y="-46.5" font-family="Helvetica,sans-Serif" font-size="10.00">panda.generic.GenericBranch</text>
</a>
</g>
</g>
<!-- Node1&#45;&gt;Node2 -->
<g id="edge1" class="edge"><title>Node1&#45;&gt;Node2</title>
<path fill="none" stroke="midnightblue" d="M57.8201,-34.4881C67.9027,-36.0129 79.3716,-37.7474 90.8452,-39.4826"/>
<polygon fill="midnightblue" stroke="midnightblue" points="58.2839,-31.0185 47.8729,-32.9837 57.2371,-37.9398 58.2839,-31.0185"/>
</g>
<!-- Node3 -->
<g id="node3" class="node"><title>Node3</title>
<g id="a_node3"><a xlink:href="classpanda_1_1refbranch_1_1RefBranch.html" target="_top" xlink:title="panda.refbranch.RefBranch">
<polygon fill="white" stroke="black" points="88.6745,-0.5 88.6745,-20.5 227.492,-20.5 227.492,-0.5 88.6745,-0.5"/>
<text text-anchor="middle" x="158.083" y="-7.5" font-family="Helvetica,sans-Serif" font-size="10.00">panda.refbranch.RefBranch</text>
</a>
</g>
</g>
<!-- Node1&#45;&gt;Node3 -->
<g id="edge2" class="edge"><title>Node1&#45;&gt;Node3</title>
<path fill="none" stroke="midnightblue" d="M57.91,-24.7484C67.3035,-23.3988 77.8949,-21.8771 88.5695,-20.3435"/>
<polygon fill="midnightblue" stroke="midnightblue" points="57.2735,-21.3038 47.8729,-26.1905 58.269,-28.2327 57.2735,-21.3038"/>
</g>
</g>
</svg>
