<?xml version="1.0" encoding="UTF-8" standalone="no"?>
<!DOCTYPE svg PUBLIC "-//W3C//DTD SVG 1.1//EN"
 "http://www.w3.org/Graphics/SVG/1.1/DTD/svg11.dtd">
<!-- Generated by graphviz version 2.38.0 (20140413.2041)
 -->
<!-- Title: Framework/interface/IOUtils.h Pages: 1 -->
<svg width="195pt" height="98pt"
 viewBox="0.00 0.00 194.89 98.00" xmlns="http://www.w3.org/2000/svg" xmlns:xlink="http://www.w3.org/1999/xlink">
<g id="graph0" class="graph" transform="scale(1 1) rotate(0) translate(4 94)">
<title>Framework/interface/IOUtils.h</title>
<polygon fill="white" stroke="none" points="-4,4 -4,-94 190.894,-94 190.894,4 -4,4"/>
<!-- Node1 -->
<g id="node1" class="node"><title>Node1</title>
<polygon fill="#bfbfbf" stroke="black" points="46.724,-57.5 46.724,-89.5 153.837,-89.5 153.837,-57.5 46.724,-57.5"/>
<text text-anchor="start" x="54.724" y="-76.5" font-family="Helvetica,sans-Serif" font-size="10.00">Framework/interface</text>
<text text-anchor="middle" x="100.281" y="-64.5" font-family="Helvetica,sans-Serif" font-size="10.00">/IOUtils.h</text>
</g>
<!-- Node2 -->
<g id="node2" class="node"><title>Node2</title>
<polygon fill="white" stroke="#bfbfbf" points="3.55271e-15,-0.5 3.55271e-15,-20.5 56.561,-20.5 56.561,-0.5 3.55271e-15,-0.5"/>
<text text-anchor="middle" x="28.2805" y="-7.5" font-family="Helvetica,sans-Serif" font-size="10.00">TString.h</text>
</g>
<!-- Node1&#45;&gt;Node2 -->
<g id="edge1" class="edge"><title>Node1&#45;&gt;Node2</title>
<path fill="none" stroke="midnightblue" d="M82.4827,-57.4213C71.5983,-48.1998 57.7013,-36.4259 46.7041,-27.1089"/>
<polygon fill="midnightblue" stroke="midnightblue" points="48.85,-24.3397 38.9576,-20.5459 44.325,-29.6806 48.85,-24.3397"/>
</g>
<!-- Node3 -->
<g id="node3" class="node"><title>Node3</title>
<polygon fill="white" stroke="#bfbfbf" points="74.779,-0.5 74.779,-20.5 125.782,-20.5 125.782,-0.5 74.779,-0.5"/>
<text text-anchor="middle" x="100.281" y="-7.5" font-family="Helvetica,sans-Serif" font-size="10.00">TTree.h</text>
</g>
<!-- Node1&#45;&gt;Node3 -->
<g id="edge2" class="edge"><title>Node1&#45;&gt;Node3</title>
<path fill="none" stroke="midnightblue" d="M100.281,-57.4213C100.281,-49.3751 100.281,-39.3856 100.281,-30.7806"/>
<polygon fill="midnightblue" stroke="midnightblue" points="103.781,-30.5459 100.281,-20.5459 96.7806,-30.5459 103.781,-30.5459"/>
</g>
<!-- Node4 -->
<g id="node4" class="node"><title>Node4</title>
<polygon fill="white" stroke="#bfbfbf" points="143.668,-0.5 143.668,-20.5 186.894,-20.5 186.894,-0.5 143.668,-0.5"/>
<text text-anchor="middle" x="165.281" y="-7.5" font-family="Helvetica,sans-Serif" font-size="10.00">vector</text>
</g>
<!-- Node1&#45;&gt;Node4 -->
<g id="edge3" class="edge"><title>Node1&#45;&gt;Node4</title>
<path fill="none" stroke="midnightblue" d="M116.348,-57.4213C125.981,-48.3806 138.229,-36.8867 148.061,-27.6597"/>
<polygon fill="midnightblue" stroke="midnightblue" points="150.745,-29.9412 155.641,-20.5459 145.954,-24.8369 150.745,-29.9412"/>
</g>
</g>
</svg>
