<?xml version="1.0" encoding="UTF-8" standalone="no"?>
<!DOCTYPE svg PUBLIC "-//W3C//DTD SVG 1.1//EN"
 "http://www.w3.org/Graphics/SVG/1.1/DTD/svg11.dtd">
<!-- Generated by graphviz version 2.38.0 (20140413.2041)
 -->
<!-- Title: Framework/src/IOUtils.cc Pages: 1 -->
<svg width="237pt" height="143pt"
 viewBox="0.00 0.00 236.68 143.00" xmlns="http://www.w3.org/2000/svg" xmlns:xlink="http://www.w3.org/1999/xlink">
<g id="graph0" class="graph" transform="scale(1 1) rotate(0) translate(4 139)">
<title>Framework/src/IOUtils.cc</title>
<polygon fill="white" stroke="none" points="-4,4 -4,-139 232.678,-139 232.678,4 -4,4"/>
<!-- Node1 -->
<g id="node1" class="node"><title>Node1</title>
<polygon fill="#bfbfbf" stroke="black" points="85.4545,-114.5 85.4545,-134.5 213.107,-134.5 213.107,-114.5 85.4545,-114.5"/>
<text text-anchor="middle" x="149.281" y="-121.5" font-family="Helvetica,sans-Serif" font-size="10.00">Framework/src/IOUtils.cc</text>
</g>
<!-- Node2 -->
<g id="node2" class="node"><title>Node2</title>
<g id="a_node2"><a xlink:href="IOUtils_8h.html" target="_top" xlink:title="../interface/IOUtils.h">
<polygon fill="white" stroke="black" points="48.3855,-57.5 48.3855,-77.5 152.175,-77.5 152.175,-57.5 48.3855,-57.5"/>
<text text-anchor="middle" x="100.281" y="-64.5" font-family="Helvetica,sans-Serif" font-size="10.00">../interface/IOUtils.h</text>
</a>
</g>
</g>
<!-- Node1&#45;&gt;Node2 -->
<g id="edge1" class="edge"><title>Node1&#45;&gt;Node2</title>
<path fill="none" stroke="midnightblue" d="M141.189,-114.418C134.209,-106.583 123.941,-95.0575 115.438,-85.5137"/>
<polygon fill="midnightblue" stroke="midnightblue" points="117.813,-82.9178 108.548,-77.7795 112.586,-87.5743 117.813,-82.9178"/>
</g>
<!-- Node6 -->
<g id="node6" class="node"><title>Node6</title>
<polygon fill="white" stroke="#bfbfbf" points="169.884,-57.5 169.884,-77.5 228.678,-77.5 228.678,-57.5 169.884,-57.5"/>
<text text-anchor="middle" x="199.281" y="-64.5" font-family="Helvetica,sans-Serif" font-size="10.00">stdexcept</text>
</g>
<!-- Node1&#45;&gt;Node6 -->
<g id="edge5" class="edge"><title>Node1&#45;&gt;Node6</title>
<path fill="none" stroke="midnightblue" d="M157.537,-114.418C164.731,-106.504 175.349,-94.8243 184.076,-85.2251"/>
<polygon fill="midnightblue" stroke="midnightblue" points="186.708,-87.5332 190.845,-77.7795 181.528,-82.8245 186.708,-87.5332"/>
</g>
<!-- Node3 -->
<g id="node3" class="node"><title>Node3</title>
<polygon fill="white" stroke="#bfbfbf" points="3.55271e-15,-0.5 3.55271e-15,-20.5 56.561,-20.5 56.561,-0.5 3.55271e-15,-0.5"/>
<text text-anchor="middle" x="28.2805" y="-7.5" font-family="Helvetica,sans-Serif" font-size="10.00">TString.h</text>
</g>
<!-- Node2&#45;&gt;Node3 -->
<g id="edge2" class="edge"><title>Node2&#45;&gt;Node3</title>
<path fill="none" stroke="midnightblue" d="M88.3912,-57.4179C77.617,-49.1876 61.5103,-36.8839 48.6808,-27.0836"/>
<polygon fill="midnightblue" stroke="midnightblue" points="50.4995,-24.0685 40.4282,-20.7795 46.2502,-29.6313 50.4995,-24.0685"/>
</g>
<!-- Node4 -->
<g id="node4" class="node"><title>Node4</title>
<polygon fill="white" stroke="#bfbfbf" points="74.779,-0.5 74.779,-20.5 125.782,-20.5 125.782,-0.5 74.779,-0.5"/>
<text text-anchor="middle" x="100.281" y="-7.5" font-family="Helvetica,sans-Serif" font-size="10.00">TTree.h</text>
</g>
<!-- Node2&#45;&gt;Node4 -->
<g id="edge3" class="edge"><title>Node2&#45;&gt;Node4</title>
<path fill="none" stroke="midnightblue" d="M100.281,-57.4179C100.281,-50.2164 100.281,-39.8962 100.281,-30.8632"/>
<polygon fill="midnightblue" stroke="midnightblue" points="103.781,-30.7794 100.281,-20.7795 96.7806,-30.7795 103.781,-30.7794"/>
</g>
<!-- Node5 -->
<g id="node5" class="node"><title>Node5</title>
<polygon fill="white" stroke="#bfbfbf" points="143.668,-0.5 143.668,-20.5 186.894,-20.5 186.894,-0.5 143.668,-0.5"/>
<text text-anchor="middle" x="165.281" y="-7.5" font-family="Helvetica,sans-Serif" font-size="10.00">vector</text>
</g>
<!-- Node2&#45;&gt;Node5 -->
<g id="edge4" class="edge"><title>Node2&#45;&gt;Node5</title>
<path fill="none" stroke="midnightblue" d="M111.014,-57.4179C120.647,-49.2667 135.002,-37.1201 146.529,-27.3669"/>
<polygon fill="midnightblue" stroke="midnightblue" points="148.941,-29.9108 154.314,-20.7795 144.419,-24.5671 148.941,-29.9108"/>
</g>
</g>
</svg>
