<?xml version="1.0" encoding="UTF-8" standalone="no"?>
<!DOCTYPE svg PUBLIC "-//W3C//DTD SVG 1.1//EN"
 "http://www.w3.org/Graphics/SVG/1.1/DTD/svg11.dtd">
<!-- Generated by graphviz version 2.38.0 (20140413.2041)
 -->
<!-- Title: Objects/interface/Jet.h Pages: 1 -->
<svg width="396pt" height="200pt"
 viewBox="0.00 0.00 395.61 200.00" xmlns="http://www.w3.org/2000/svg" xmlns:xlink="http://www.w3.org/1999/xlink">
<g id="graph0" class="graph" transform="scale(1 1) rotate(0) translate(4 196)">
<title>Objects/interface/Jet.h</title>
<polygon fill="white" stroke="none" points="-4,4 -4,-196 391.61,-196 391.61,4 -4,4"/>
<!-- Node1 -->
<g id="node1" class="node"><title>Node1</title>
<polygon fill="#bfbfbf" stroke="black" points="108.438,-171.5 108.438,-191.5 223.909,-191.5 223.909,-171.5 108.438,-171.5"/>
<text text-anchor="middle" x="166.174" y="-178.5" font-family="Helvetica,sans-Serif" font-size="10.00">Objects/interface/Jet.h</text>
</g>
<!-- Node2 -->
<g id="node2" class="node"><title>Node2</title>
<g id="a_node2"><a xlink:href="LinkDef_8h.html" target="_top" xlink:title="obj/LinkDef.h">
<polygon fill="white" stroke="black" points="-2.84217e-14,-0.5 -2.84217e-14,-20.5 74.348,-20.5 74.348,-0.5 -2.84217e-14,-0.5"/>
<text text-anchor="middle" x="37.174" y="-7.5" font-family="Helvetica,sans-Serif" font-size="10.00">obj/LinkDef.h</text>
</a>
</g>
</g>
<!-- Node1&#45;&gt;Node2 -->
<g id="edge1" class="edge"><title>Node1&#45;&gt;Node2</title>
<path fill="none" stroke="midnightblue" d="M98.4707,-169.276C78.5945,-162.603 58.8189,-151.964 46.174,-135 20.0924,-100.011 29.7154,-42.8555 34.8178,-20.6894"/>
<polygon fill="midnightblue" stroke="midnightblue" points="97.6194,-172.675 108.205,-172.243 99.6605,-165.979 97.6194,-172.675"/>
</g>
<!-- Node3 -->
<g id="node3" class="node"><title>Node3</title>
<g id="a_node3"><a xlink:href="FatJet_8h.html" target="_top" xlink:title="Objects/interface/FatJet.h">
<polygon fill="white" stroke="black" points="55.215,-114.5 55.215,-134.5 185.133,-134.5 185.133,-114.5 55.215,-114.5"/>
<text text-anchor="middle" x="120.174" y="-121.5" font-family="Helvetica,sans-Serif" font-size="10.00">Objects/interface/FatJet.h</text>
</a>
</g>
</g>
<!-- Node1&#45;&gt;Node3 -->
<g id="edge2" class="edge"><title>Node1&#45;&gt;Node3</title>
<path fill="none" stroke="midnightblue" d="M152.144,-163.725C144.19,-154.215 134.539,-142.675 127.935,-134.779"/>
<polygon fill="midnightblue" stroke="midnightblue" points="149.478,-165.993 158.578,-171.418 154.847,-161.502 149.478,-165.993"/>
</g>
<!-- Node4 -->
<g id="node4" class="node"><title>Node4</title>
<g id="a_node4"><a xlink:href="Event_8h.html" target="_top" xlink:title="Objects/interface/Event.h">
<polygon fill="white" stroke="black" points="193.324,-57.5 193.324,-77.5 321.023,-77.5 321.023,-57.5 193.324,-57.5"/>
<text text-anchor="middle" x="257.174" y="-64.5" font-family="Helvetica,sans-Serif" font-size="10.00">Objects/interface/Event.h</text>
</a>
</g>
</g>
<!-- Node1&#45;&gt;Node4 -->
<g id="edge9" class="edge"><title>Node1&#45;&gt;Node4</title>
<path fill="none" stroke="midnightblue" d="M180.042,-163.431C199.529,-139.448 234.338,-96.6054 249.624,-77.7921"/>
<polygon fill="midnightblue" stroke="midnightblue" points="177.21,-161.366 173.621,-171.335 182.643,-165.78 177.21,-161.366"/>
</g>
<!-- Node8 -->
<g id="node8" class="node"><title>Node8</title>
<g id="a_node8"><a xlink:href="Jet_8cc.html" target="_top" xlink:title="Objects/src/Jet.cc">
<polygon fill="white" stroke="black" points="240.724,-114.5 240.724,-134.5 335.623,-134.5 335.623,-114.5 240.724,-114.5"/>
<text text-anchor="middle" x="288.174" y="-121.5" font-family="Helvetica,sans-Serif" font-size="10.00">Objects/src/Jet.cc</text>
</a>
</g>
</g>
<!-- Node1&#45;&gt;Node8 -->
<g id="edge10" class="edge"><title>Node1&#45;&gt;Node8</title>
<path fill="none" stroke="midnightblue" d="M195.693,-167.192C218.094,-157.094 248.297,-143.477 267.998,-134.596"/>
<polygon fill="midnightblue" stroke="midnightblue" points="193.998,-164.117 186.32,-171.418 196.875,-170.499 193.998,-164.117"/>
</g>
<!-- Node3&#45;&gt;Node2 -->
<g id="edge3" class="edge"><title>Node3&#45;&gt;Node2</title>
<path fill="none" stroke="midnightblue" d="M92.1006,-109.279C79.4659,-101.588 65.3585,-90.9874 56.174,-78 43.6949,-60.3539 39.3712,-34.646 37.9039,-20.9372"/>
<polygon fill="midnightblue" stroke="midnightblue" points="90.5338,-112.416 100.949,-114.359 94.0186,-106.345 90.5338,-112.416"/>
</g>
<!-- Node3&#45;&gt;Node4 -->
<g id="edge4" class="edge"><title>Node3&#45;&gt;Node4</title>
<path fill="none" stroke="midnightblue" d="M152.312,-110.598C177.562,-100.461 212.096,-86.5969 234.518,-77.5956"/>
<polygon fill="midnightblue" stroke="midnightblue" points="150.773,-107.444 142.797,-114.418 153.381,-113.94 150.773,-107.444"/>
</g>
<!-- Node7 -->
<g id="node7" class="node"><title>Node7</title>
<g id="a_node7"><a xlink:href="FatJet_8cc.html" target="_top" xlink:title="Objects/src/FatJet.cc">
<polygon fill="white" stroke="black" points="65.501,-57.5 65.501,-77.5 174.847,-77.5 174.847,-57.5 65.501,-57.5"/>
<text text-anchor="middle" x="120.174" y="-64.5" font-family="Helvetica,sans-Serif" font-size="10.00">Objects/src/FatJet.cc</text>
</a>
</g>
</g>
<!-- Node3&#45;&gt;Node7 -->
<g id="edge8" class="edge"><title>Node3&#45;&gt;Node7</title>
<path fill="none" stroke="midnightblue" d="M120.174,-104.383C120.174,-95.3738 120.174,-85.0373 120.174,-77.7795"/>
<polygon fill="midnightblue" stroke="midnightblue" points="116.674,-104.418 120.174,-114.418 123.674,-104.418 116.674,-104.418"/>
</g>
<!-- Node4&#45;&gt;Node2 -->
<g id="edge5" class="edge"><title>Node4&#45;&gt;Node2</title>
<path fill="none" stroke="midnightblue" d="M211.088,-54.9784C170.051,-44.7192 110.843,-29.9172 73.1908,-20.5042"/>
<polygon fill="midnightblue" stroke="midnightblue" points="210.295,-58.3879 220.845,-57.4179 211.993,-51.5969 210.295,-58.3879"/>
</g>
<!-- Node5 -->
<g id="node5" class="node"><title>Node5</title>
<g id="a_node5"><a xlink:href="Event_8cc.html" target="_top" xlink:title="Objects/src/Event.cc">
<polygon fill="white" stroke="black" points="147.61,-0.5 147.61,-20.5 254.737,-20.5 254.737,-0.5 147.61,-0.5"/>
<text text-anchor="middle" x="201.174" y="-7.5" font-family="Helvetica,sans-Serif" font-size="10.00">Objects/src/Event.cc</text>
</a>
</g>
</g>
<!-- Node4&#45;&gt;Node5 -->
<g id="edge6" class="edge"><title>Node4&#45;&gt;Node5</title>
<path fill="none" stroke="midnightblue" d="M240.679,-50.2992C230.887,-40.6828 218.824,-28.8349 210.622,-20.7795"/>
<polygon fill="midnightblue" stroke="midnightblue" points="238.34,-52.9078 247.927,-57.4179 243.245,-47.9137 238.34,-52.9078"/>
</g>
<!-- Node6 -->
<g id="node6" class="node"><title>Node6</title>
<g id="a_node6"><a xlink:href="FileMerger_8cc.html" target="_top" xlink:title="Utils/src/FileMerger.cc">
<polygon fill="white" stroke="black" points="272.738,-0.5 272.738,-20.5 387.61,-20.5 387.61,-0.5 272.738,-0.5"/>
<text text-anchor="middle" x="330.174" y="-7.5" font-family="Helvetica,sans-Serif" font-size="10.00">Utils/src/FileMerger.cc</text>
</a>
</g>
</g>
<!-- Node4&#45;&gt;Node6 -->
<g id="edge7" class="edge"><title>Node4&#45;&gt;Node6</title>
<path fill="none" stroke="midnightblue" d="M277.548,-51.15C290.502,-41.3899 306.848,-29.0742 317.858,-20.7795"/>
<polygon fill="midnightblue" stroke="midnightblue" points="275.109,-48.6049 269.228,-57.4179 279.321,-54.1957 275.109,-48.6049"/>
</g>
</g>
</svg>
