<?xml version="1.0" encoding="UTF-8" standalone="no"?>
<!DOCTYPE svg PUBLIC "-//W3C//DTD SVG 1.1//EN"
 "http://www.w3.org/Graphics/SVG/1.1/DTD/svg11.dtd">
<!-- Generated by graphviz version 2.38.0 (20140413.2041)
 -->
<!-- Title: Objects/interface/Jet.h Pages: 1 -->
<!--zoomable 635 -->
<svg id="main" version="1.1" xmlns="http://www.w3.org/2000/svg" xmlns:xlink="http://www.w3.org/1999/xlink" xml:space="preserve" onload="init(evt)">
<style type="text/css"><![CDATA[
.edge:hover path { stroke: red; }
.edge:hover polygon { stroke: red; fill: red; }
]]></style>
<script type="text/javascript"><![CDATA[
var edges = document.getElementsByTagName('g');
if (edges && edges.length) {
  for (var i=0;i<edges.length;i++) {
    if (edges[i].id.substr(0,4)=='edge') {
      edges[i].setAttribute('class','edge');
    }
  }
}
]]></script>
        <defs>
                <circle id="rim" cx="0" cy="0" r="7"/>
                <circle id="rim2" cx="0" cy="0" r="3.5"/>
                <g id="zoomPlus">
                        <use xlink:href="#rim" fill="#404040">
                                <set attributeName="fill" to="#808080" begin="zoomplus.mouseover" end="zoomplus.mouseout"/>
                        </use>
                        <path d="M-4,0h8M0,-4v8" fill="none" stroke="white" stroke-width="1.5" pointer-events="none"/>
                </g>
                <g id="zoomMin">
                        <use xlink:href="#rim" fill="#404040">
                                <set attributeName="fill" to="#808080" begin="zoomminus.mouseover" end="zoomminus.mouseout"/>
                        </use>
                        <path d="M-4,0h8" fill="none" stroke="white" stroke-width="1.5" pointer-events="none"/>
                </g>
                <g id="dirArrow">
                        <path fill="none" stroke="white" stroke-width="1.5" d="M0,-3.0v7 M-2.5,-0.5L0,-3.0L2.5,-0.5"/>
                </g>
               <g id="resetDef">
                       <use xlink:href="#rim2" fill="#404040">
                               <set attributeName="fill" to="#808080" begin="reset.mouseover" end="reset.mouseout"/>
                       </use>
               </g>
        </defs>

<script type="text/javascript">
var viewWidth = 1246;
var viewHeight = 635;
var sectionId = 'dynsection-0';
</script>
<script xlink:href="svgpan.js"/>
<svg id="graph" class="graph">
<g id="viewport">
<title>Objects/interface/Jet.h</title>
<polygon fill="white" stroke="none" points="-4,4 -4,-631 1241.5,-631 1241.5,4 -4,4"/>
<!-- Node1 -->
<g id="node1" class="node"><title>Node1</title>
<polygon fill="#bfbfbf" stroke="black" points="561.317,-606.5 561.317,-626.5 676.788,-626.5 676.788,-606.5 561.317,-606.5"/>
<text text-anchor="middle" x="619.053" y="-613.5" font-family="Helvetica,sans-Serif" font-size="10.00">Objects/interface/Jet.h</text>
</g>
<!-- Node2 -->
<g id="node2" class="node"><title>Node2</title>
<g id="a_node2"><a xlink:href="Constants_8h.html" target="_top" xlink:title="Constants.h">
<polygon fill="white" stroke="black" points="928.377,-372.5 928.377,-392.5 997.728,-392.5 997.728,-372.5 928.377,-372.5"/>
<text text-anchor="middle" x="963.053" y="-379.5" font-family="Helvetica,sans-Serif" font-size="10.00">Constants.h</text>
</a>
</g>
</g>
<!-- Node1&#45;&gt;Node2 -->
<g id="edge1" class="edge"><title>Node1&#45;&gt;Node2</title>
<path fill="none" stroke="midnightblue" d="M677.026,-612.838C752.006,-608.348 877.354,-596.961 914.053,-570 959.545,-536.578 957.277,-510.985 970.053,-456 974.203,-438.136 971.404,-417.244 968.198,-402.488"/>
<polygon fill="midnightblue" stroke="midnightblue" points="971.544,-401.438 965.775,-392.552 964.744,-403.097 971.544,-401.438"/>
</g>
<!-- Node10 -->
<g id="node10" class="node"><title>Node10</title>
<g id="a_node10"><a xlink:href="MicroJet_8h.html" target="_top" xlink:title="MicroJet.h">
<polygon fill="white" stroke="black" points="480.997,-549.5 480.997,-569.5 543.109,-569.5 543.109,-549.5 480.997,-549.5"/>
<text text-anchor="middle" x="512.053" y="-556.5" font-family="Helvetica,sans-Serif" font-size="10.00">MicroJet.h</text>
</a>
</g>
</g>
<!-- Node1&#45;&gt;Node10 -->
<g id="edge9" class="edge"><title>Node1&#45;&gt;Node10</title>
<path fill="none" stroke="midnightblue" d="M601.384,-606.418C584.346,-597.66 558.336,-584.291 538.769,-574.233"/>
<polygon fill="midnightblue" stroke="midnightblue" points="540.242,-571.054 529.748,-569.596 537.041,-577.28 540.242,-571.054"/>
</g>
<!-- Node18 -->
<g id="node18" class="node"><title>Node18</title>
<g id="a_node18"><a xlink:href="Container_8h.html" target="_top" xlink:title="../../Framework/interface\l/Container.h">
<polygon fill="white" stroke="black" points="231.159,-366.5 231.159,-398.5 354.946,-398.5 354.946,-366.5 231.159,-366.5"/>
<text text-anchor="start" x="239.159" y="-385.5" font-family="Helvetica,sans-Serif" font-size="10.00">../../Framework/interface</text>
<text text-anchor="middle" x="293.053" y="-373.5" font-family="Helvetica,sans-Serif" font-size="10.00">/Container.h</text>
</a>
</g>
</g>
<!-- Node1&#45;&gt;Node18 -->
<g id="edge61" class="edge"><title>Node1&#45;&gt;Node18</title>
<path fill="none" stroke="midnightblue" d="M570.969,-606.452C537.494,-599.134 492.35,-587.197 455.053,-570 372.775,-532.063 328.586,-535.998 286.053,-456 278.362,-441.535 280.248,-423.143 283.987,-408.503"/>
<polygon fill="midnightblue" stroke="midnightblue" points="287.432,-409.198 286.927,-398.616 280.722,-407.203 287.432,-409.198"/>
</g>
<!-- Node29 -->
<g id="node29" class="node"><title>Node29</title>
<g id="a_node29"><a xlink:href="Ref_8h.html" target="_top" xlink:title="../../Framework/interface\l/Ref.h">
<polygon fill="white" stroke="black" points="581.159,-297.5 581.159,-329.5 704.946,-329.5 704.946,-297.5 581.159,-297.5"/>
<text text-anchor="start" x="589.159" y="-316.5" font-family="Helvetica,sans-Serif" font-size="10.00">../../Framework/interface</text>
<text text-anchor="middle" x="643.053" y="-304.5" font-family="Helvetica,sans-Serif" font-size="10.00">/Ref.h</text>
</a>
</g>
</g>
<!-- Node1&#45;&gt;Node29 -->
<g id="edge62" class="edge"><title>Node1&#45;&gt;Node29</title>
<path fill="none" stroke="midnightblue" d="M667.999,-606.44C748.507,-590.128 900.053,-552.866 900.053,-503.5 900.053,-503.5 900.053,-503.5 900.053,-444.5 900.053,-361.236 791.309,-331.289 715.293,-320.527"/>
<polygon fill="midnightblue" stroke="midnightblue" points="715.64,-317.042 705.265,-319.19 714.715,-323.981 715.64,-317.042"/>
</g>
<!-- Node30 -->
<g id="node30" class="node"><title>Node30</title>
<g id="a_node30"><a xlink:href="RefVector_8h.html" target="_top" xlink:title="../../Framework/interface\l/RefVector.h">
<polygon fill="white" stroke="black" points="409.159,-366.5 409.159,-398.5 532.946,-398.5 532.946,-366.5 409.159,-366.5"/>
<text text-anchor="start" x="417.159" y="-385.5" font-family="Helvetica,sans-Serif" font-size="10.00">../../Framework/interface</text>
<text text-anchor="middle" x="471.053" y="-373.5" font-family="Helvetica,sans-Serif" font-size="10.00">/RefVector.h</text>
</a>
</g>
</g>
<!-- Node1&#45;&gt;Node30 -->
<g id="edge63" class="edge"><title>Node1&#45;&gt;Node30</title>
<path fill="none" stroke="midnightblue" d="M561.167,-611.254C530.617,-606.006 494.843,-594.591 472.053,-570 431.341,-526.073 448.939,-448.259 461.838,-408.46"/>
<polygon fill="midnightblue" stroke="midnightblue" points="465.234,-409.347 465.139,-398.753 458.606,-407.094 465.234,-409.347"/>
</g>
<!-- Node31 -->
<g id="node31" class="node"><title>Node31</title>
<g id="a_node31"><a xlink:href="GenJet_8h.html" target="_top" xlink:title="GenJet.h">
<polygon fill="white" stroke="black" points="590.766,-549.5 590.766,-569.5 647.339,-569.5 647.339,-549.5 590.766,-549.5"/>
<text text-anchor="middle" x="619.053" y="-556.5" font-family="Helvetica,sans-Serif" font-size="10.00">GenJet.h</text>
</a>
</g>
</g>
<!-- Node1&#45;&gt;Node31 -->
<g id="edge64" class="edge"><title>Node1&#45;&gt;Node31</title>
<path fill="none" stroke="midnightblue" d="M619.053,-606.418C619.053,-599.216 619.053,-588.896 619.053,-579.863"/>
<polygon fill="midnightblue" stroke="midnightblue" points="622.553,-579.779 619.053,-569.779 615.553,-579.779 622.553,-579.779"/>
</g>
<!-- Node32 -->
<g id="node32" class="node"><title>Node32</title>
<g id="a_node32"><a xlink:href="PFCand_8h.html" target="_top" xlink:title="PFCand.h">
<polygon fill="white" stroke="black" points="729.547,-549.5 729.547,-569.5 790.558,-569.5 790.558,-549.5 729.547,-549.5"/>
<text text-anchor="middle" x="760.053" y="-556.5" font-family="Helvetica,sans-Serif" font-size="10.00">PFCand.h</text>
</a>
</g>
</g>
<!-- Node1&#45;&gt;Node32 -->
<g id="edge70" class="edge"><title>Node1&#45;&gt;Node32</title>
<path fill="none" stroke="midnightblue" d="M642.336,-606.418C665.501,-597.382 701.255,-583.435 727.282,-573.283"/>
<polygon fill="midnightblue" stroke="midnightblue" points="728.69,-576.49 736.735,-569.596 726.146,-569.969 728.69,-576.49"/>
</g>
<!-- Node3 -->
<g id="node3" class="node"><title>Node3</title>
<polygon fill="white" stroke="#bfbfbf" points="657.551,-0.5 657.551,-20.5 708.554,-20.5 708.554,-0.5 657.551,-0.5"/>
<text text-anchor="middle" x="683.053" y="-7.5" font-family="Helvetica,sans-Serif" font-size="10.00">TTree.h</text>
</g>
<!-- Node2&#45;&gt;Node3 -->
<g id="edge2" class="edge"><title>Node2&#45;&gt;Node3</title>
<path fill="none" stroke="midnightblue" d="M960.179,-372.269C948.536,-335.975 901.874,-200.826 827.053,-114 793.286,-74.8158 741.555,-42.7939 710.156,-25.4907"/>
<polygon fill="midnightblue" stroke="midnightblue" points="711.569,-22.2758 701.107,-20.6017 708.241,-28.4344 711.569,-22.2758"/>
</g>
<!-- Node4 -->
<g id="node4" class="node"><title>Node4</title>
<polygon fill="white" stroke="#bfbfbf" points="874.772,-0.5 874.772,-20.5 931.333,-20.5 931.333,-0.5 874.772,-0.5"/>
<text text-anchor="middle" x="903.053" y="-7.5" font-family="Helvetica,sans-Serif" font-size="10.00">TString.h</text>
</g>
<!-- Node2&#45;&gt;Node4 -->
<g id="edge3" class="edge"><title>Node2&#45;&gt;Node4</title>
<path fill="none" stroke="midnightblue" d="M962.697,-372.36C961.902,-351.139 960.053,-296.877 960.053,-251.5 960.053,-251.5 960.053,-251.5 960.053,-123.5 960.053,-86.4644 934.991,-49.2999 918.103,-28.4613"/>
<polygon fill="midnightblue" stroke="midnightblue" points="920.582,-25.9716 911.463,-20.578 915.228,-30.4812 920.582,-25.9716"/>
</g>
<!-- Node5 -->
<g id="node5" class="node"><title>Node5</title>
<polygon fill="white" stroke="#bfbfbf" points="988.326,-303.5 988.326,-323.5 1043.78,-323.5 1043.78,-303.5 988.326,-303.5"/>
<text text-anchor="middle" x="1016.05" y="-310.5" font-family="Helvetica,sans-Serif" font-size="10.00">Rtypes.h</text>
</g>
<!-- Node2&#45;&gt;Node5 -->
<g id="edge4" class="edge"><title>Node2&#45;&gt;Node5</title>
<path fill="none" stroke="midnightblue" d="M970.2,-372.464C978.373,-362.132 991.946,-344.975 1002.21,-332.001"/>
<polygon fill="midnightblue" stroke="midnightblue" points="1005.22,-333.837 1008.68,-323.823 999.729,-329.494 1005.22,-333.837"/>
</g>
<!-- Node6 -->
<g id="node6" class="node"><title>Node6</title>
<polygon fill="white" stroke="#bfbfbf" points="1061.71,-303.5 1061.71,-323.5 1154.4,-323.5 1154.4,-303.5 1061.71,-303.5"/>
<text text-anchor="middle" x="1108.05" y="-310.5" font-family="Helvetica,sans-Serif" font-size="10.00">TLorentzVector.h</text>
</g>
<!-- Node2&#45;&gt;Node6 -->
<g id="edge5" class="edge"><title>Node2&#45;&gt;Node6</title>
<path fill="none" stroke="midnightblue" d="M982.608,-372.464C1007.47,-360.975 1050.6,-341.046 1079.24,-327.815"/>
<polygon fill="midnightblue" stroke="midnightblue" points="1080.73,-330.979 1088.34,-323.607 1077.8,-324.624 1080.73,-330.979"/>
</g>
<!-- Node7 -->
<g id="node7" class="node"><title>Node7</title>
<polygon fill="white" stroke="#bfbfbf" points="1172.6,-303.5 1172.6,-323.5 1237.5,-323.5 1237.5,-303.5 1172.6,-303.5"/>
<text text-anchor="middle" x="1205.05" y="-310.5" font-family="Helvetica,sans-Serif" font-size="10.00">TVector2.h</text>
</g>
<!-- Node2&#45;&gt;Node7 -->
<g id="edge6" class="edge"><title>Node2&#45;&gt;Node7</title>
<path fill="none" stroke="midnightblue" d="M998.04,-373.628C1038.2,-364.33 1105.9,-347.854 1163.05,-330 1166,-329.079 1169.04,-328.072 1172.08,-327.025"/>
<polygon fill="midnightblue" stroke="midnightblue" points="1173.41,-330.269 1181.65,-323.614 1171.06,-323.675 1173.41,-330.269"/>
</g>
<!-- Node8 -->
<g id="node8" class="node"><title>Node8</title>
<polygon fill="white" stroke="#bfbfbf" points="787.439,-303.5 787.439,-323.5 830.666,-323.5 830.666,-303.5 787.439,-303.5"/>
<text text-anchor="middle" x="809.053" y="-310.5" font-family="Helvetica,sans-Serif" font-size="10.00">cmath</text>
</g>
<!-- Node2&#45;&gt;Node8 -->
<g id="edge7" class="edge"><title>Node2&#45;&gt;Node8</title>
<path fill="none" stroke="midnightblue" d="M939.489,-372.391C914.356,-362.519 873.506,-346.021 839.053,-330 837.856,-329.444 836.639,-328.866 835.413,-328.274"/>
<polygon fill="midnightblue" stroke="midnightblue" points="836.574,-324.941 826.064,-323.601 833.444,-331.203 836.574,-324.941"/>
</g>
<!-- Node9 -->
<g id="node9" class="node"><title>Node9</title>
<polygon fill="white" stroke="#bfbfbf" points="848.33,-303.5 848.33,-323.5 893.775,-323.5 893.775,-303.5 848.33,-303.5"/>
<text text-anchor="middle" x="871.053" y="-310.5" font-family="Helvetica,sans-Serif" font-size="10.00">cstring</text>
</g>
<!-- Node2&#45;&gt;Node9 -->
<g id="edge8" class="edge"><title>Node2&#45;&gt;Node9</title>
<path fill="none" stroke="midnightblue" d="M950.645,-372.464C935.555,-361.475 909.862,-342.763 891.756,-329.578"/>
<polygon fill="midnightblue" stroke="midnightblue" points="893.701,-326.664 883.557,-323.607 889.58,-332.323 893.701,-326.664"/>
</g>
<!-- Node10&#45;&gt;Node2 -->
<g id="edge10" class="edge"><title>Node10&#45;&gt;Node2</title>
<path fill="none" stroke="midnightblue" d="M543.179,-550.008C573.537,-541.488 620.879,-527.571 661.053,-513 763.793,-475.736 881.889,-421.722 934.821,-396.896"/>
<polygon fill="midnightblue" stroke="midnightblue" points="936.37,-400.036 943.928,-392.611 933.389,-393.702 936.37,-400.036"/>
</g>
<!-- Node11 -->
<g id="node11" class="node"><title>Node11</title>
<g id="a_node11"><a xlink:href="ParticleM_8h.html" target="_top" xlink:title="ParticleM.h">
<polygon fill="white" stroke="black" points="586.053,-492.5 586.053,-512.5 652.053,-512.5 652.053,-492.5 586.053,-492.5"/>
<text text-anchor="middle" x="619.053" y="-499.5" font-family="Helvetica,sans-Serif" font-size="10.00">ParticleM.h</text>
</a>
</g>
</g>
<!-- Node10&#45;&gt;Node11 -->
<g id="edge11" class="edge"><title>Node10&#45;&gt;Node11</title>
<path fill="none" stroke="midnightblue" d="M529.721,-549.418C546.759,-540.66 572.769,-527.291 592.336,-517.233"/>
<polygon fill="midnightblue" stroke="midnightblue" points="594.064,-520.28 601.357,-512.596 590.863,-514.054 594.064,-520.28"/>
</g>
<!-- Node10&#45;&gt;Node18 -->
<g id="edge58" class="edge"><title>Node10&#45;&gt;Node18</title>
<path fill="none" stroke="midnightblue" d="M480.72,-555.396C431.248,-549.835 338.356,-536.502 316.053,-513 289.571,-485.095 287.983,-437.831 289.993,-408.775"/>
<polygon fill="midnightblue" stroke="midnightblue" points="293.498,-408.879 290.895,-398.609 286.525,-408.261 293.498,-408.879"/>
</g>
<!-- Node10&#45;&gt;Node29 -->
<g id="edge59" class="edge"><title>Node10&#45;&gt;Node29</title>
<path fill="none" stroke="midnightblue" d="M517.028,-549.233C535.683,-514.486 601.846,-391.251 630.104,-338.617"/>
<polygon fill="midnightblue" stroke="midnightblue" points="633.273,-340.114 634.92,-329.648 627.106,-336.803 633.273,-340.114"/>
</g>
<!-- Node10&#45;&gt;Node30 -->
<g id="edge60" class="edge"><title>Node10&#45;&gt;Node30</title>
<path fill="none" stroke="midnightblue" d="M498.847,-549.417C488.276,-541.275 474.232,-528.281 468.053,-513 454.269,-478.918 459.312,-435.556 464.759,-408.664"/>
<polygon fill="midnightblue" stroke="midnightblue" points="468.252,-409.073 466.985,-398.554 461.416,-407.568 468.252,-409.073"/>
</g>
<!-- Node11&#45;&gt;Node2 -->
<g id="edge12" class="edge"><title>Node11&#45;&gt;Node2</title>
<path fill="none" stroke="midnightblue" d="M644.665,-492.488C681.29,-479.623 750.757,-455.301 810.053,-435 849.77,-421.402 895.39,-406.085 926.407,-395.716"/>
<polygon fill="midnightblue" stroke="midnightblue" points="927.563,-399.021 935.939,-392.532 925.345,-392.381 927.563,-399.021"/>
</g>
<!-- Node12 -->
<g id="node12" class="node"><title>Node12</title>
<g id="a_node12"><a xlink:href="Particle_8h.html" target="_top" xlink:title="Particle.h">
<polygon fill="white" stroke="black" points="662.217,-435.5 662.217,-455.5 719.888,-455.5 719.888,-435.5 662.217,-435.5"/>
<text text-anchor="middle" x="691.053" y="-442.5" font-family="Helvetica,sans-Serif" font-size="10.00">Particle.h</text>
</a>
</g>
</g>
<!-- Node11&#45;&gt;Node12 -->
<g id="edge13" class="edge"><title>Node11&#45;&gt;Node12</title>
<path fill="none" stroke="midnightblue" d="M630.942,-492.418C641.716,-484.188 657.823,-471.884 670.652,-462.084"/>
<polygon fill="midnightblue" stroke="midnightblue" points="673.083,-464.631 678.905,-455.779 668.833,-459.069 673.083,-464.631"/>
</g>
<!-- Node11&#45;&gt;Node18 -->
<g id="edge55" class="edge"><title>Node11&#45;&gt;Node18</title>
<path fill="none" stroke="midnightblue" d="M594.013,-492.437C540.756,-473.16 415.325,-427.758 344.346,-402.066"/>
<polygon fill="midnightblue" stroke="midnightblue" points="345.3,-398.689 334.705,-398.577 342.917,-405.271 345.3,-398.689"/>
</g>
<!-- Node11&#45;&gt;Node29 -->
<g id="edge56" class="edge"><title>Node11&#45;&gt;Node29</title>
<path fill="none" stroke="midnightblue" d="M620.21,-492.481C623.733,-465.031 634.414,-381.812 639.83,-339.612"/>
<polygon fill="midnightblue" stroke="midnightblue" points="643.315,-339.952 641.116,-329.588 636.371,-339.061 643.315,-339.952"/>
</g>
<!-- Node11&#45;&gt;Node30 -->
<g id="edge57" class="edge"><title>Node11&#45;&gt;Node30</title>
<path fill="none" stroke="midnightblue" d="M607.439,-492.241C584.044,-473.588 530.7,-431.057 498.091,-405.057"/>
<polygon fill="midnightblue" stroke="midnightblue" points="499.882,-402.01 489.881,-398.512 495.518,-407.483 499.882,-402.01"/>
</g>
<!-- Node12&#45;&gt;Node2 -->
<g id="edge14" class="edge"><title>Node12&#45;&gt;Node2</title>
<path fill="none" stroke="midnightblue" d="M719.904,-438.03C767.27,-427.407 861.859,-406.194 918.08,-393.586"/>
<polygon fill="midnightblue" stroke="midnightblue" points="919.119,-396.94 928.111,-391.336 917.587,-390.109 919.119,-396.94"/>
</g>
<!-- Node13 -->
<g id="node13" class="node"><title>Node13</title>
<g id="a_node13"><a xlink:href="ContainerElement_8h.html" target="_top" xlink:title="../../Framework/interface\l/ContainerElement.h">
<polygon fill="white" stroke="black" points="673.159,-171.5 673.159,-203.5 796.946,-203.5 796.946,-171.5 673.159,-171.5"/>
<text text-anchor="start" x="681.159" y="-190.5" font-family="Helvetica,sans-Serif" font-size="10.00">../../Framework/interface</text>
<text text-anchor="middle" x="735.053" y="-178.5" font-family="Helvetica,sans-Serif" font-size="10.00">/ContainerElement.h</text>
</a>
</g>
</g>
<!-- Node12&#45;&gt;Node13 -->
<g id="edge15" class="edge"><title>Node12&#45;&gt;Node13</title>
<path fill="none" stroke="midnightblue" d="M693.06,-435.328C697.267,-415.941 707.185,-369.348 714.053,-330 721.101,-289.611 727.792,-242.47 731.655,-214.081"/>
<polygon fill="midnightblue" stroke="midnightblue" points="735.17,-214.205 733.038,-203.827 728.233,-213.269 735.17,-214.205"/>
</g>
<!-- Node12&#45;&gt;Node18 -->
<g id="edge27" class="edge"><title>Node12&#45;&gt;Node18</title>
<path fill="none" stroke="midnightblue" d="M662.109,-440.064C600.274,-430.587 453.708,-408.123 365.01,-394.529"/>
<polygon fill="midnightblue" stroke="midnightblue" points="365.436,-391.053 355.021,-392.998 364.375,-397.972 365.436,-391.053"/>
</g>
<!-- Node12&#45;&gt;Node29 -->
<g id="edge46" class="edge"><title>Node12&#45;&gt;Node29</title>
<path fill="none" stroke="midnightblue" d="M687.6,-435.151C680.255,-415.257 662.871,-368.176 652.121,-339.059"/>
<polygon fill="midnightblue" stroke="midnightblue" points="655.369,-337.752 648.622,-329.583 648.802,-340.177 655.369,-337.752"/>
</g>
<!-- Node12&#45;&gt;Node30 -->
<g id="edge50" class="edge"><title>Node12&#45;&gt;Node30</title>
<path fill="none" stroke="midnightblue" d="M661.838,-436.4C629.7,-427.489 577.058,-412.892 535.203,-401.287"/>
<polygon fill="midnightblue" stroke="midnightblue" points="535.932,-397.857 525.361,-398.558 534.062,-404.603 535.932,-397.857"/>
</g>
<!-- Node13&#45;&gt;Node3 -->
<g id="edge23" class="edge"><title>Node13&#45;&gt;Node3</title>
<path fill="none" stroke="midnightblue" d="M716.438,-171.205C694.801,-152.065 660.362,-117.024 647.053,-78 644.04,-69.1663 643.987,-65.8155 647.053,-57 650.824,-46.1541 658.376,-35.9451 665.593,-27.9564"/>
<polygon fill="midnightblue" stroke="midnightblue" points="668.11,-30.3882 672.546,-20.7666 663.078,-25.522 668.11,-30.3882"/>
</g>
<!-- Node13&#45;&gt;Node4 -->
<g id="edge24" class="edge"><title>Node13&#45;&gt;Node4</title>
<path fill="none" stroke="midnightblue" d="M771.489,-171.433C789.644,-162.678 811.071,-150.334 827.053,-135 859.464,-103.902 883.613,-56.1629 895.273,-30.0843"/>
<polygon fill="midnightblue" stroke="midnightblue" points="898.602,-31.2057 899.371,-20.6388 892.18,-28.4199 898.602,-31.2057"/>
</g>
<!-- Node14 -->
<g id="node14" class="node"><title>Node14</title>
<g id="a_node14"><a xlink:href="Object_8h.html" target="_top" xlink:title="Object.h">
<polygon fill="white" stroke="black" points="711.436,-114.5 711.436,-134.5 764.669,-134.5 764.669,-114.5 711.436,-114.5"/>
<text text-anchor="middle" x="738.053" y="-121.5" font-family="Helvetica,sans-Serif" font-size="10.00">Object.h</text>
</a>
</g>
</g>
<!-- Node13&#45;&gt;Node14 -->
<g id="edge16" class="edge"><title>Node13&#45;&gt;Node14</title>
<path fill="none" stroke="midnightblue" d="M735.794,-171.421C736.19,-163.375 736.681,-153.386 737.104,-144.781"/>
<polygon fill="midnightblue" stroke="midnightblue" points="740.612,-144.706 737.608,-134.546 733.621,-144.362 740.612,-144.706"/>
</g>
<!-- Node15 -->
<g id="node15" class="node"><title>Node15</title>
<g id="a_node15"><a xlink:href="IOUtils_8h.html" target="_top" xlink:title="IOUtils.h">
<polygon fill="white" stroke="black" points="655.887,-57.5 655.887,-77.5 710.218,-77.5 710.218,-57.5 655.887,-57.5"/>
<text text-anchor="middle" x="683.053" y="-64.5" font-family="Helvetica,sans-Serif" font-size="10.00">IOUtils.h</text>
</a>
</g>
</g>
<!-- Node13&#45;&gt;Node15 -->
<g id="edge22" class="edge"><title>Node13&#45;&gt;Node15</title>
<path fill="none" stroke="midnightblue" d="M723.701,-171.395C716.675,-161.471 707.908,-147.969 702.053,-135 695.182,-119.782 690.169,-101.474 687.023,-87.9241"/>
<polygon fill="midnightblue" stroke="midnightblue" points="690.373,-86.8566 684.82,-77.8334 683.534,-88.3499 690.373,-86.8566"/>
</g>
<!-- Node16 -->
<g id="node16" class="node"><title>Node16</title>
<polygon fill="white" stroke="#bfbfbf" points="471.44,-0.5 471.44,-20.5 514.666,-20.5 514.666,-0.5 471.44,-0.5"/>
<text text-anchor="middle" x="493.053" y="-7.5" font-family="Helvetica,sans-Serif" font-size="10.00">vector</text>
</g>
<!-- Node13&#45;&gt;Node16 -->
<g id="edge25" class="edge"><title>Node13&#45;&gt;Node16</title>
<path fill="none" stroke="midnightblue" d="M713.584,-171.495C699.006,-161.271 679.313,-147.394 662.053,-135 608.09,-96.2521 545.015,-49.8654 513.361,-26.5095"/>
<polygon fill="midnightblue" stroke="midnightblue" points="515.424,-23.6818 505.3,-20.5581 511.267,-29.3134 515.424,-23.6818"/>
</g>
<!-- Node17 -->
<g id="node17" class="node"><title>Node17</title>
<polygon fill="white" stroke="#bfbfbf" points="782.329,-114.5 782.329,-134.5 817.776,-134.5 817.776,-114.5 782.329,-114.5"/>
<text text-anchor="middle" x="800.053" y="-121.5" font-family="Helvetica,sans-Serif" font-size="10.00">map</text>
</g>
<!-- Node13&#45;&gt;Node17 -->
<g id="edge26" class="edge"><title>Node13&#45;&gt;Node17</title>
<path fill="none" stroke="midnightblue" d="M751.12,-171.421C760.753,-162.381 773.001,-150.887 782.833,-141.66"/>
<polygon fill="midnightblue" stroke="midnightblue" points="785.517,-143.941 790.413,-134.546 780.726,-138.837 785.517,-143.941"/>
</g>
<!-- Node14&#45;&gt;Node3 -->
<g id="edge21" class="edge"><title>Node14&#45;&gt;Node3</title>
<path fill="none" stroke="midnightblue" d="M736.631,-114.482C734.301,-101.295 728.914,-76.2317 719.053,-57 713.731,-46.6224 705.859,-36.3249 698.833,-28.1576"/>
<polygon fill="midnightblue" stroke="midnightblue" points="701.244,-25.6048 691.958,-20.5036 696.036,-30.2822 701.244,-25.6048"/>
</g>
<!-- Node14&#45;&gt;Node15 -->
<g id="edge17" class="edge"><title>Node14&#45;&gt;Node15</title>
<path fill="none" stroke="midnightblue" d="M728.97,-114.418C720.977,-106.425 709.143,-94.5903 699.49,-84.9377"/>
<polygon fill="midnightblue" stroke="midnightblue" points="701.878,-82.3757 692.332,-77.7795 696.928,-87.3254 701.878,-82.3757"/>
</g>
<!-- Node15&#45;&gt;Node3 -->
<g id="edge19" class="edge"><title>Node15&#45;&gt;Node3</title>
<path fill="none" stroke="midnightblue" d="M683.053,-57.4179C683.053,-50.2164 683.053,-39.8962 683.053,-30.8632"/>
<polygon fill="midnightblue" stroke="midnightblue" points="686.553,-30.7794 683.053,-20.7795 679.553,-30.7795 686.553,-30.7794"/>
</g>
<!-- Node15&#45;&gt;Node4 -->
<g id="edge18" class="edge"><title>Node15&#45;&gt;Node4</title>
<path fill="none" stroke="midnightblue" d="M710.471,-59.6454C749.368,-49.921 820.732,-32.08 864.814,-21.0595"/>
<polygon fill="midnightblue" stroke="midnightblue" points="865.738,-24.4364 874.591,-18.6154 864.04,-17.6454 865.738,-24.4364"/>
</g>
<!-- Node15&#45;&gt;Node16 -->
<g id="edge20" class="edge"><title>Node15&#45;&gt;Node16</title>
<path fill="none" stroke="midnightblue" d="M655.83,-58.6198C621.127,-48.5742 561.245,-31.2401 524.591,-20.6296"/>
<polygon fill="midnightblue" stroke="midnightblue" points="525.488,-17.2455 514.909,-17.8268 523.541,-23.9694 525.488,-17.2455"/>
</g>
<!-- Node19 -->
<g id="node19" class="node"><title>Node19</title>
<g id="a_node19"><a xlink:href="ArrayBase_8h.html" target="_top" xlink:title="ArrayBase.h">
<polygon fill="white" stroke="black" points="339.547,-303.5 339.547,-323.5 410.558,-323.5 410.558,-303.5 339.547,-303.5"/>
<text text-anchor="middle" x="375.053" y="-310.5" font-family="Helvetica,sans-Serif" font-size="10.00">ArrayBase.h</text>
</a>
</g>
</g>
<!-- Node18&#45;&gt;Node19 -->
<g id="edge28" class="edge"><title>Node18&#45;&gt;Node19</title>
<path fill="none" stroke="midnightblue" d="M311.66,-366.297C324.839,-355.528 342.471,-341.122 355.793,-330.236"/>
<polygon fill="midnightblue" stroke="midnightblue" points="358.307,-332.702 363.836,-323.665 353.878,-327.282 358.307,-332.702"/>
</g>
<!-- Node22 -->
<g id="node22" class="node"><title>Node22</title>
<g id="a_node22"><a xlink:href="CollectionBase_8h.html" target="_top" xlink:title="CollectionBase.h">
<polygon fill="white" stroke="black" points="117.545,-303.5 117.545,-323.5 208.56,-323.5 208.56,-303.5 117.545,-303.5"/>
<text text-anchor="middle" x="163.053" y="-310.5" font-family="Helvetica,sans-Serif" font-size="10.00">CollectionBase.h</text>
</a>
</g>
</g>
<!-- Node18&#45;&gt;Node22 -->
<g id="edge36" class="edge"><title>Node18&#45;&gt;Node22</title>
<path fill="none" stroke="midnightblue" d="M263.878,-366.464C241.576,-354.97 211.092,-339.259 189.497,-328.129"/>
<polygon fill="midnightblue" stroke="midnightblue" points="191.042,-324.988 180.55,-323.518 187.836,-331.21 191.042,-324.988"/>
</g>
<!-- Node24 -->
<g id="node24" class="node"><title>Node24</title>
<g id="a_node24"><a xlink:href="Iterator_8h.html" target="_top" xlink:title="Iterator.h">
<polygon fill="white" stroke="black" points="265.048,-303.5 265.048,-323.5 321.058,-323.5 321.058,-303.5 265.048,-303.5"/>
<text text-anchor="middle" x="293.053" y="-310.5" font-family="Helvetica,sans-Serif" font-size="10.00">Iterator.h</text>
</a>
</g>
</g>
<!-- Node18&#45;&gt;Node24 -->
<g id="edge40" class="edge"><title>Node18&#45;&gt;Node24</title>
<path fill="none" stroke="midnightblue" d="M293.053,-366.297C293.053,-356.656 293.053,-344.1 293.053,-333.765"/>
<polygon fill="midnightblue" stroke="midnightblue" points="296.553,-333.665 293.053,-323.665 289.553,-333.665 296.553,-333.665"/>
</g>
<!-- Node25 -->
<g id="node25" class="node"><title>Node25</title>
<polygon fill="white" stroke="#bfbfbf" points="261.992,-240.5 261.992,-260.5 324.113,-260.5 324.113,-240.5 261.992,-240.5"/>
<text text-anchor="middle" x="293.053" y="-247.5" font-family="Helvetica,sans-Serif" font-size="10.00">type_traits</text>
</g>
<!-- Node18&#45;&gt;Node25 -->
<g id="edge45" class="edge"><title>Node18&#45;&gt;Node25</title>
<path fill="none" stroke="midnightblue" d="M278.174,-366.254C269.912,-356.691 260.439,-343.623 256.053,-330 251.557,-316.039 251.142,-310.82 256.053,-297 259.938,-286.063 267.7,-275.844 275.116,-267.872"/>
<polygon fill="midnightblue" stroke="midnightblue" points="277.678,-270.259 282.26,-260.706 272.721,-265.317 277.678,-270.259"/>
</g>
<!-- Node26 -->
<g id="node26" class="node"><title>Node26</title>
<polygon fill="white" stroke="#bfbfbf" points="613.655,-240.5 613.655,-260.5 672.45,-260.5 672.45,-240.5 613.655,-240.5"/>
<text text-anchor="middle" x="643.053" y="-247.5" font-family="Helvetica,sans-Serif" font-size="10.00">stdexcept</text>
</g>
<!-- Node18&#45;&gt;Node26 -->
<g id="edge42" class="edge"><title>Node18&#45;&gt;Node26</title>
<path fill="none" stroke="midnightblue" d="M333.544,-366.46C403.062,-340.639 543.889,-288.332 608.832,-264.21"/>
<polygon fill="midnightblue" stroke="midnightblue" points="610.425,-267.352 618.581,-260.589 607.988,-260.79 610.425,-267.352"/>
</g>
<!-- Node27 -->
<g id="node27" class="node"><title>Node27</title>
<polygon fill="white" stroke="#bfbfbf" points="1.06581e-14,-303.5 1.06581e-14,-323.5 52.105,-323.5 52.105,-303.5 1.06581e-14,-303.5"/>
<text text-anchor="middle" x="26.0525" y="-310.5" font-family="Helvetica,sans-Serif" font-size="10.00">memory</text>
</g>
<!-- Node18&#45;&gt;Node27 -->
<g id="edge43" class="edge"><title>Node18&#45;&gt;Node27</title>
<path fill="none" stroke="midnightblue" d="M231.098,-371.209C183.843,-362.533 117.492,-348.557 61.0525,-330 58.762,-329.247 56.4178,-328.396 54.081,-327.49"/>
<polygon fill="midnightblue" stroke="midnightblue" points="55.2508,-324.186 44.6741,-323.566 52.5558,-330.646 55.2508,-324.186"/>
</g>
<!-- Node28 -->
<g id="node28" class="node"><title>Node28</title>
<polygon fill="white" stroke="#bfbfbf" points="70.3835,-303.5 70.3835,-323.5 99.7215,-323.5 99.7215,-303.5 70.3835,-303.5"/>
<text text-anchor="middle" x="85.0525" y="-310.5" font-family="Helvetica,sans-Serif" font-size="10.00">set</text>
</g>
<!-- Node18&#45;&gt;Node28 -->
<g id="edge44" class="edge"><title>Node18&#45;&gt;Node28</title>
<path fill="none" stroke="midnightblue" d="M230.896,-369.451C194.137,-361.053 147.256,-348.087 108.053,-330 107.364,-329.682 106.673,-329.345 105.983,-328.992"/>
<polygon fill="midnightblue" stroke="midnightblue" points="107.655,-325.914 97.2749,-323.794 104.068,-331.925 107.655,-325.914"/>
</g>
<!-- Node20 -->
<g id="node20" class="node"><title>Node20</title>
<g id="a_node20"><a xlink:href="ContainerBase_8h.html" target="_top" xlink:title="ContainerBase.h">
<polygon fill="white" stroke="black" points="504.82,-240.5 504.82,-260.5 595.285,-260.5 595.285,-240.5 504.82,-240.5"/>
<text text-anchor="middle" x="550.053" y="-247.5" font-family="Helvetica,sans-Serif" font-size="10.00">ContainerBase.h</text>
</a>
</g>
</g>
<!-- Node19&#45;&gt;Node20 -->
<g id="edge29" class="edge"><title>Node19&#45;&gt;Node20</title>
<path fill="none" stroke="midnightblue" d="M400.874,-303.499C430.988,-293.002 480.933,-275.593 514.649,-263.841"/>
<polygon fill="midnightblue" stroke="midnightblue" points="515.834,-267.134 524.125,-260.538 513.53,-260.524 515.834,-267.134"/>
</g>
<!-- Node20&#45;&gt;Node3 -->
<g id="edge33" class="edge"><title>Node20&#45;&gt;Node3</title>
<path fill="none" stroke="midnightblue" d="M559.26,-240.47C567.699,-231.775 580.062,-217.926 588.053,-204 622.617,-143.762 605.005,-116.362 641.053,-57 647.564,-46.2764 656.867,-35.8743 665.064,-27.729"/>
<polygon fill="midnightblue" stroke="midnightblue" points="667.638,-30.1105 672.455,-20.6743 662.805,-25.0466 667.638,-30.1105"/>
</g>
<!-- Node20&#45;&gt;Node4 -->
<g id="edge32" class="edge"><title>Node20&#45;&gt;Node4</title>
<path fill="none" stroke="midnightblue" d="M595.338,-241.679C668.263,-229.053 803.841,-205.438 806.053,-204 862.682,-167.172 865.62,-140.581 891.053,-78 897.195,-62.8861 900.205,-44.5695 901.673,-30.9895"/>
<polygon fill="midnightblue" stroke="midnightblue" points="905.173,-31.1429 902.579,-20.8706 898.201,-30.5188 905.173,-31.1429"/>
</g>
<!-- Node20&#45;&gt;Node13 -->
<g id="edge30" class="edge"><title>Node20&#45;&gt;Node13</title>
<path fill="none" stroke="midnightblue" d="M577.35,-240.499C604.153,-231.661 645.818,-217.923 679.592,-206.787"/>
<polygon fill="midnightblue" stroke="midnightblue" points="680.94,-210.028 689.341,-203.573 678.748,-203.38 680.94,-210.028"/>
</g>
<!-- Node20&#45;&gt;Node15 -->
<g id="edge31" class="edge"><title>Node20&#45;&gt;Node15</title>
<path fill="none" stroke="midnightblue" d="M570.351,-240.457C585.916,-232.669 607.039,-220.14 621.053,-204 651.748,-168.648 670.029,-115.561 678.108,-87.4825"/>
<polygon fill="midnightblue" stroke="midnightblue" points="681.515,-88.2927 680.791,-77.7226 674.765,-86.4371 681.515,-88.2927"/>
</g>
<!-- Node20&#45;&gt;Node16 -->
<g id="edge34" class="edge"><title>Node20&#45;&gt;Node16</title>
<path fill="none" stroke="midnightblue" d="M539.329,-240.216C530.365,-231.762 518.103,-218.426 512.053,-204 487.207,-144.757 488.884,-66.5632 491.319,-30.8215"/>
<polygon fill="midnightblue" stroke="midnightblue" points="494.813,-31.029 492.103,-20.7866 487.834,-30.4834 494.813,-31.029"/>
</g>
<!-- Node21 -->
<g id="node21" class="node"><title>Node21</title>
<polygon fill="white" stroke="#bfbfbf" points="520.657,-177.5 520.657,-197.5 579.448,-197.5 579.448,-177.5 520.657,-177.5"/>
<text text-anchor="middle" x="550.053" y="-184.5" font-family="Helvetica,sans-Serif" font-size="10.00">functional</text>
</g>
<!-- Node20&#45;&gt;Node21 -->
<g id="edge35" class="edge"><title>Node20&#45;&gt;Node21</title>
<path fill="none" stroke="midnightblue" d="M550.053,-240.499C550.053,-231.94 550.053,-218.783 550.053,-207.846"/>
<polygon fill="midnightblue" stroke="midnightblue" points="553.553,-207.538 550.053,-197.538 546.553,-207.538 553.553,-207.538"/>
</g>
<!-- Node22&#45;&gt;Node16 -->
<g id="edge38" class="edge"><title>Node22&#45;&gt;Node16</title>
<path fill="none" stroke="midnightblue" d="M171.01,-303.261C187.114,-283.578 222.053,-235.466 222.053,-188.5 222.053,-188.5 222.053,-188.5 222.053,-123.5 222.053,-21.0863 389.403,-10.4689 461.086,-10.6186"/>
<polygon fill="midnightblue" stroke="midnightblue" points="461.301,-14.1207 471.334,-10.7159 461.367,-7.12106 461.301,-14.1207"/>
</g>
<!-- Node22&#45;&gt;Node20 -->
<g id="edge37" class="edge"><title>Node22&#45;&gt;Node20</title>
<path fill="none" stroke="midnightblue" d="M208.919,-304.747C223.934,-302.238 240.699,-299.467 256.053,-297 339.036,-283.664 435.316,-268.897 494.458,-259.907"/>
<polygon fill="midnightblue" stroke="midnightblue" points="495.337,-263.314 504.698,-258.352 494.286,-256.393 495.337,-263.314"/>
</g>
<!-- Node23 -->
<g id="node23" class="node"><title>Node23</title>
<polygon fill="white" stroke="#bfbfbf" points="143.666,-240.5 143.666,-260.5 182.44,-260.5 182.44,-240.5 143.666,-240.5"/>
<text text-anchor="middle" x="163.053" y="-247.5" font-family="Helvetica,sans-Serif" font-size="10.00">utility</text>
</g>
<!-- Node22&#45;&gt;Node23 -->
<g id="edge39" class="edge"><title>Node22&#45;&gt;Node23</title>
<path fill="none" stroke="midnightblue" d="M163.053,-303.499C163.053,-294.94 163.053,-281.783 163.053,-270.846"/>
<polygon fill="midnightblue" stroke="midnightblue" points="166.553,-270.538 163.053,-260.538 159.553,-270.538 166.553,-270.538"/>
</g>
<!-- Node24&#45;&gt;Node25 -->
<g id="edge41" class="edge"><title>Node24&#45;&gt;Node25</title>
<path fill="none" stroke="midnightblue" d="M293.053,-303.499C293.053,-294.94 293.053,-281.783 293.053,-270.846"/>
<polygon fill="midnightblue" stroke="midnightblue" points="296.553,-270.538 293.053,-260.538 289.553,-270.538 296.553,-270.538"/>
</g>
<!-- Node29&#45;&gt;Node20 -->
<g id="edge47" class="edge"><title>Node29&#45;&gt;Node20</title>
<path fill="none" stroke="midnightblue" d="M620.064,-297.421C605.591,-287.929 586.995,-275.731 572.606,-266.293"/>
<polygon fill="midnightblue" stroke="midnightblue" points="574.125,-263.104 563.844,-260.546 570.286,-268.957 574.125,-263.104"/>
</g>
<!-- Node29&#45;&gt;Node25 -->
<g id="edge49" class="edge"><title>Node29&#45;&gt;Node25</title>
<path fill="none" stroke="midnightblue" d="M580.883,-301.665C509.762,-289.269 395.298,-269.32 334.353,-258.698"/>
<polygon fill="midnightblue" stroke="midnightblue" points="334.785,-255.221 324.332,-256.952 333.583,-262.117 334.785,-255.221"/>
</g>
<!-- Node29&#45;&gt;Node26 -->
<g id="edge48" class="edge"><title>Node29&#45;&gt;Node26</title>
<path fill="none" stroke="midnightblue" d="M643.053,-297.421C643.053,-289.375 643.053,-279.386 643.053,-270.781"/>
<polygon fill="midnightblue" stroke="midnightblue" points="646.553,-270.546 643.053,-260.546 639.553,-270.546 646.553,-270.546"/>
</g>
<!-- Node30&#45;&gt;Node16 -->
<g id="edge54" class="edge"><title>Node30&#45;&gt;Node16</title>
<path fill="none" stroke="midnightblue" d="M471.181,-366.252C471.698,-319.754 474.213,-175.691 486.053,-57 486.925,-48.2519 488.34,-38.621 489.671,-30.4811"/>
<polygon fill="midnightblue" stroke="midnightblue" points="493.137,-30.9754 491.373,-20.5284 486.237,-29.795 493.137,-30.9754"/>
</g>
<!-- Node30&#45;&gt;Node20 -->
<g id="edge51" class="edge"><title>Node30&#45;&gt;Node20</title>
<path fill="none" stroke="midnightblue" d="M480.269,-366.333C494.922,-342.22 523.47,-295.243 539.129,-269.476"/>
<polygon fill="midnightblue" stroke="midnightblue" points="542.241,-271.095 544.443,-260.731 536.258,-267.459 542.241,-271.095"/>
</g>
<!-- Node30&#45;&gt;Node26 -->
<g id="edge53" class="edge"><title>Node30&#45;&gt;Node26</title>
<path fill="none" stroke="midnightblue" d="M487.676,-366.468C507.27,-349.018 541.092,-319.73 572.053,-297 587.251,-285.841 605.127,-274.395 619.14,-265.774"/>
<polygon fill="midnightblue" stroke="midnightblue" points="621.002,-268.738 627.723,-260.548 617.362,-262.759 621.002,-268.738"/>
</g>
<!-- Node30&#45;&gt;Node29 -->
<g id="edge52" class="edge"><title>Node30&#45;&gt;Node29</title>
<path fill="none" stroke="midnightblue" d="M509.653,-366.464C534.793,-356.671 567.793,-343.816 594.68,-333.343"/>
<polygon fill="midnightblue" stroke="midnightblue" points="596.236,-336.493 604.284,-329.602 593.696,-329.97 596.236,-336.493"/>
</g>
<!-- Node31&#45;&gt;Node2 -->
<g id="edge65" class="edge"><title>Node31&#45;&gt;Node2</title>
<path fill="none" stroke="midnightblue" d="M647.564,-551.807C677.039,-544.345 723.988,-530.929 762.053,-513 832.723,-479.713 908.107,-425.387 943.088,-398.941"/>
<polygon fill="midnightblue" stroke="midnightblue" points="945.635,-401.4 951.465,-392.554 941.391,-395.833 945.635,-401.4"/>
</g>
<!-- Node31&#45;&gt;Node11 -->
<g id="edge66" class="edge"><title>Node31&#45;&gt;Node11</title>
<path fill="none" stroke="midnightblue" d="M619.053,-549.418C619.053,-542.216 619.053,-531.896 619.053,-522.863"/>
<polygon fill="midnightblue" stroke="midnightblue" points="622.553,-522.779 619.053,-512.779 615.553,-522.779 622.553,-522.779"/>
</g>
<!-- Node31&#45;&gt;Node18 -->
<g id="edge67" class="edge"><title>Node31&#45;&gt;Node18</title>
<path fill="none" stroke="midnightblue" d="M590.501,-552.436C539.352,-540.549 430.322,-510.472 354.053,-456 335.701,-442.893 319.511,-423.033 308.43,-407.411"/>
<polygon fill="midnightblue" stroke="midnightblue" points="311.059,-405.055 302.519,-398.785 305.285,-409.013 311.059,-405.055"/>
</g>
<!-- Node31&#45;&gt;Node29 -->
<g id="edge68" class="edge"><title>Node31&#45;&gt;Node29</title>
<path fill="none" stroke="midnightblue" d="M635.297,-549.439C660.921,-534.091 709.788,-500.282 729.053,-456 748.663,-410.921 703.699,-362.927 671.681,-336.028"/>
<polygon fill="midnightblue" stroke="midnightblue" points="673.829,-333.263 663.867,-329.658 669.407,-338.689 673.829,-333.263"/>
</g>
<!-- Node31&#45;&gt;Node30 -->
<g id="edge69" class="edge"><title>Node31&#45;&gt;Node30</title>
<path fill="none" stroke="midnightblue" d="M610.2,-549.237C601.584,-540.146 588.197,-525.818 577.053,-513 545.402,-476.597 510.219,-432.941 489.399,-406.753"/>
<polygon fill="midnightblue" stroke="midnightblue" points="492.123,-404.555 483.167,-398.895 486.639,-408.905 492.123,-404.555"/>
</g>
<!-- Node32&#45;&gt;Node2 -->
<g id="edge71" class="edge"><title>Node32&#45;&gt;Node2</title>
<path fill="none" stroke="midnightblue" d="M790.797,-552.376C835.506,-541.633 916.952,-514.698 952.053,-456 961.633,-439.979 963.847,-418.527 963.991,-403.121"/>
<polygon fill="midnightblue" stroke="midnightblue" points="967.482,-402.637 963.784,-392.708 960.483,-402.775 967.482,-402.637"/>
</g>
<!-- Node32&#45;&gt;Node11 -->
<g id="edge72" class="edge"><title>Node32&#45;&gt;Node11</title>
<path fill="none" stroke="midnightblue" d="M736.769,-549.418C713.604,-540.382 677.85,-526.435 651.823,-516.283"/>
<polygon fill="midnightblue" stroke="midnightblue" points="652.959,-512.969 642.37,-512.596 650.415,-519.49 652.959,-512.969"/>
</g>
<!-- Node32&#45;&gt;Node18 -->
<g id="edge73" class="edge"><title>Node32&#45;&gt;Node18</title>
<path fill="none" stroke="midnightblue" d="M729.266,-552.16C692.614,-544.312 629.738,-529.894 577.053,-513 511.508,-491.983 495.693,-484.529 433.053,-456 397.133,-439.641 357.26,-418.708 329.283,-403.545"/>
<polygon fill="midnightblue" stroke="midnightblue" points="330.73,-400.348 320.274,-398.639 327.382,-406.495 330.73,-400.348"/>
</g>
<!-- Node32&#45;&gt;Node29 -->
<g id="edge74" class="edge"><title>Node32&#45;&gt;Node29</title>
<path fill="none" stroke="midnightblue" d="M761.299,-549.36C764.841,-519.634 772.104,-424.26 729.053,-366 719.296,-352.797 705.052,-342.331 690.952,-334.378"/>
<polygon fill="midnightblue" stroke="midnightblue" points="692.232,-331.095 681.756,-329.511 688.958,-337.282 692.232,-331.095"/>
</g>
<!-- Node32&#45;&gt;Node30 -->
<g id="edge75" class="edge"><title>Node32&#45;&gt;Node30</title>
<path fill="none" stroke="midnightblue" d="M747.11,-549.388C728.38,-536.297 692.514,-511.591 661.053,-492 617.954,-465.162 606.146,-460.17 562.053,-435 543.829,-424.597 523.509,-413.089 506.701,-403.594"/>
<polygon fill="midnightblue" stroke="midnightblue" points="508.189,-400.415 497.761,-398.546 504.748,-406.511 508.189,-400.415"/>
</g>
</g>
</svg>
        <g id="navigator" transform="translate(0 0)" fill="#404254">
                <rect fill="#f2f5e9" fill-opacity="0.5" stroke="#606060" stroke-width=".5" x="0" y="0" width="60" height="60"/>
                <use id="zoomplus" xlink:href="#zoomPlus" x="17" y="9" onmousedown="handleZoom(evt,'in')"/>
                <use id="zoomminus" xlink:href="#zoomMin" x="42" y="9" onmousedown="handleZoom(evt,'out')"/>
                <use id="reset" xlink:href="#resetDef" x="30" y="36" onmousedown="handleReset()"/>
                <g id="arrowUp" xlink:href="#dirArrow" transform="translate(30 24)" onmousedown="handlePan(0,-1)">
                  <use xlink:href="#rim" fill="#404040">
                        <set attributeName="fill" to="#808080" begin="arrowUp.mouseover" end="arrowUp.mouseout"/>
                  </use>
                  <path fill="none" stroke="white" stroke-width="1.5" d="M0,-3.0v7 M-2.5,-0.5L0,-3.0L2.5,-0.5"/>
                </g>
                <g id="arrowRight" xlink:href="#dirArrow" transform="rotate(90) translate(36 -43)" onmousedown="handlePan(1,0)">
                  <use xlink:href="#rim" fill="#404040">
                        <set attributeName="fill" to="#808080" begin="arrowRight.mouseover" end="arrowRight.mouseout"/>
                  </use>
                  <path fill="none" stroke="white" stroke-width="1.5" d="M0,-3.0v7 M-2.5,-0.5L0,-3.0L2.5,-0.5"/>
                </g>
                <g id="arrowDown" xlink:href="#dirArrow" transform="rotate(180) translate(-30 -48)" onmousedown="handlePan(0,1)">
                  <use xlink:href="#rim" fill="#404040">
                        <set attributeName="fill" to="#808080" begin="arrowDown.mouseover" end="arrowDown.mouseout"/>
                  </use>
                  <path fill="none" stroke="white" stroke-width="1.5" d="M0,-3.0v7 M-2.5,-0.5L0,-3.0L2.5,-0.5"/>
                </g>
                <g id="arrowLeft" xlink:href="#dirArrow" transform="rotate(270) translate(-36 17)" onmousedown="handlePan(-1,0)">
                  <use xlink:href="#rim" fill="#404040">
                        <set attributeName="fill" to="#808080" begin="arrowLeft.mouseover" end="arrowLeft.mouseout"/>
                  </use>
                  <path fill="none" stroke="white" stroke-width="1.5" d="M0,-3.0v7 M-2.5,-0.5L0,-3.0L2.5,-0.5"/>
                </g>
        </g>
        <svg viewBox="0 0 15 15" width="100%" height="30px" preserveAspectRatio="xMaxYMin meet">
         <g id="arrow_out" transform="scale(0.3 0.3)">
          <a xlink:href="Jet_8h__incl_org.svg" target="_base">
           <rect id="button" ry="5" rx="5" y="6" x="6" height="38" width="38"
                fill="#f2f5e9" fill-opacity="0.5" stroke="#606060" stroke-width="1.0"/>
           <path id="arrow"
             d="M 11.500037,31.436501 C 11.940474,20.09759 22.043105,11.32322 32.158766,21.979434 L 37.068811,17.246167 C 37.068811,17.246167 37.088388,32 37.088388,32 L 22.160133,31.978069 C 22.160133,31.978069 26.997745,27.140456 26.997745,27.140456 C 18.528582,18.264221 13.291696,25.230495 11.500037,31.436501 z"
             style="fill:#404040;"/>
          </a>
         </g>
        </svg>
</svg>
