<?xml version="1.0" encoding="UTF-8" standalone="no"?>
<!DOCTYPE svg PUBLIC "-//W3C//DTD SVG 1.1//EN"
 "http://www.w3.org/Graphics/SVG/1.1/DTD/svg11.dtd">
<!-- Generated by graphviz version 2.38.0 (20140413.2041)
 -->
<!-- Title: Objects/interface/Lepton.h Pages: 1 -->
<svg width="1208pt" height="635pt"
 viewBox="0.00 0.00 1208.45 635.00" xmlns="http://www.w3.org/2000/svg" xmlns:xlink="http://www.w3.org/1999/xlink">
<g id="graph0" class="graph" transform="scale(1 1) rotate(0) translate(4 631)">
<title>Objects/interface/Lepton.h</title>
<polygon fill="white" stroke="none" points="-4,4 -4,-631 1204.45,-631 1204.45,4 -4,4"/>
<!-- Node1 -->
<g id="node1" class="node"><title>Node1</title>
<polygon fill="#bfbfbf" stroke="black" points="683.097,-606.5 683.097,-626.5 815.804,-626.5 815.804,-606.5 683.097,-606.5"/>
<text text-anchor="middle" x="749.451" y="-613.5" font-family="Helvetica,sans-Serif" font-size="10.00">Objects/interface/Lepton.h</text>
</g>
<!-- Node2 -->
<g id="node2" class="node"><title>Node2</title>
<g id="a_node2"><a xlink:href="Constants_8h.html" target="_top" xlink:title="Constants.h">
<polygon fill="white" stroke="black" points="276.775,-372.5 276.775,-392.5 346.126,-392.5 346.126,-372.5 276.775,-372.5"/>
<text text-anchor="middle" x="311.451" y="-379.5" font-family="Helvetica,sans-Serif" font-size="10.00">Constants.h</text>
</a>
</g>
</g>
<!-- Node1&#45;&gt;Node2 -->
<g id="edge1" class="edge"><title>Node1&#45;&gt;Node2</title>
<path fill="none" stroke="midnightblue" d="M732.28,-606.405C664.951,-570.742 418.668,-440.291 337.552,-397.326"/>
<polygon fill="midnightblue" stroke="midnightblue" points="338.977,-394.12 328.502,-392.532 335.701,-400.306 338.977,-394.12"/>
</g>
<!-- Node10 -->
<g id="node10" class="node"><title>Node10</title>
<g id="a_node10"><a xlink:href="Particle_8h.html" target="_top" xlink:title="Particle.h">
<polygon fill="white" stroke="black" points="761.615,-435.5 761.615,-455.5 819.286,-455.5 819.286,-435.5 761.615,-435.5"/>
<text text-anchor="middle" x="790.451" y="-442.5" font-family="Helvetica,sans-Serif" font-size="10.00">Particle.h</text>
</a>
</g>
</g>
<!-- Node1&#45;&gt;Node10 -->
<g id="edge9" class="edge"><title>Node1&#45;&gt;Node10</title>
<path fill="none" stroke="midnightblue" d="M749.993,-606.373C750.884,-593.471 753.022,-569.219 757.451,-549 763.993,-519.124 775.651,-485.573 783.213,-465.245"/>
<polygon fill="midnightblue" stroke="midnightblue" points="786.573,-466.255 786.841,-455.664 780.027,-463.777 786.573,-466.255"/>
</g>
<!-- Node16 -->
<g id="node16" class="node"><title>Node16</title>
<g id="a_node16"><a xlink:href="Container_8h.html" target="_top" xlink:title="../../Framework/interface\l/Container.h">
<polygon fill="white" stroke="black" points="695.557,-366.5 695.557,-398.5 819.344,-398.5 819.344,-366.5 695.557,-366.5"/>
<text text-anchor="start" x="703.557" y="-385.5" font-family="Helvetica,sans-Serif" font-size="10.00">../../Framework/interface</text>
<text text-anchor="middle" x="757.451" y="-373.5" font-family="Helvetica,sans-Serif" font-size="10.00">/Container.h</text>
</a>
</g>
</g>
<!-- Node1&#45;&gt;Node16 -->
<g id="edge51" class="edge"><title>Node1&#45;&gt;Node16</title>
<path fill="none" stroke="midnightblue" d="M748.525,-606.451C745.985,-579.983 739.538,-500.452 746.451,-435 747.369,-426.306 749.136,-416.921 750.989,-408.575"/>
<polygon fill="midnightblue" stroke="midnightblue" points="754.432,-409.225 753.326,-398.688 747.62,-407.615 754.432,-409.225"/>
</g>
<!-- Node27 -->
<g id="node27" class="node"><title>Node27</title>
<g id="a_node27"><a xlink:href="Ref_8h.html" target="_top" xlink:title="../../Framework/interface\l/Ref.h">
<polygon fill="white" stroke="black" points="1010.56,-297.5 1010.56,-329.5 1134.34,-329.5 1134.34,-297.5 1010.56,-297.5"/>
<text text-anchor="start" x="1018.56" y="-316.5" font-family="Helvetica,sans-Serif" font-size="10.00">../../Framework/interface</text>
<text text-anchor="middle" x="1072.45" y="-304.5" font-family="Helvetica,sans-Serif" font-size="10.00">/Ref.h</text>
</a>
</g>
</g>
<!-- Node1&#45;&gt;Node27 -->
<g id="edge52" class="edge"><title>Node1&#45;&gt;Node27</title>
<path fill="none" stroke="midnightblue" d="M816.035,-608.193C918.58,-595.064 1103.45,-563.126 1103.45,-503.5 1103.45,-503.5 1103.45,-503.5 1103.45,-444.5 1103.45,-407.182 1091.21,-365.44 1082.12,-339.565"/>
<polygon fill="midnightblue" stroke="midnightblue" points="1085.28,-338.028 1078.58,-329.826 1078.7,-340.42 1085.28,-338.028"/>
</g>
<!-- Node28 -->
<g id="node28" class="node"><title>Node28</title>
<g id="a_node28"><a xlink:href="RefVector_8h.html" target="_top" xlink:title="../../Framework/interface\l/RefVector.h">
<polygon fill="white" stroke="black" points="951.557,-366.5 951.557,-398.5 1075.34,-398.5 1075.34,-366.5 951.557,-366.5"/>
<text text-anchor="start" x="959.557" y="-385.5" font-family="Helvetica,sans-Serif" font-size="10.00">../../Framework/interface</text>
<text text-anchor="middle" x="1013.45" y="-373.5" font-family="Helvetica,sans-Serif" font-size="10.00">/RefVector.h</text>
</a>
</g>
</g>
<!-- Node1&#45;&gt;Node28 -->
<g id="edge53" class="edge"><title>Node1&#45;&gt;Node28</title>
<path fill="none" stroke="midnightblue" d="M780.131,-606.452C824.206,-592.263 906.208,-561.304 961.451,-513 984.749,-492.628 989.742,-484.649 1001.45,-456 1007.57,-441.037 1010.57,-423.125 1012.04,-408.85"/>
<polygon fill="midnightblue" stroke="midnightblue" points="1015.54,-409.01 1012.89,-398.751 1008.56,-408.42 1015.54,-409.01"/>
</g>
<!-- Node29 -->
<g id="node29" class="node"><title>Node29</title>
<g id="a_node29"><a xlink:href="GenParticle_8h.html" target="_top" xlink:title="GenParticle.h">
<polygon fill="white" stroke="black" points="766.167,-549.5 766.167,-569.5 842.735,-569.5 842.735,-549.5 766.167,-549.5"/>
<text text-anchor="middle" x="804.451" y="-556.5" font-family="Helvetica,sans-Serif" font-size="10.00">GenParticle.h</text>
</a>
</g>
</g>
<!-- Node1&#45;&gt;Node29 -->
<g id="edge54" class="edge"><title>Node1&#45;&gt;Node29</title>
<path fill="none" stroke="midnightblue" d="M758.533,-606.418C766.526,-598.425 778.36,-586.59 788.013,-576.938"/>
<polygon fill="midnightblue" stroke="midnightblue" points="790.575,-579.325 795.171,-569.779 785.625,-574.376 790.575,-579.325"/>
</g>
<!-- Node3 -->
<g id="node3" class="node"><title>Node3</title>
<polygon fill="white" stroke="#bfbfbf" points="465.949,-0.5 465.949,-20.5 516.952,-20.5 516.952,-0.5 465.949,-0.5"/>
<text text-anchor="middle" x="491.451" y="-7.5" font-family="Helvetica,sans-Serif" font-size="10.00">TTree.h</text>
</g>
<!-- Node2&#45;&gt;Node3 -->
<g id="edge2" class="edge"><title>Node2&#45;&gt;Node3</title>
<path fill="none" stroke="midnightblue" d="M303.157,-372.325C294.73,-362.527 281.889,-346.21 274.451,-330 259.479,-297.375 255.451,-287.396 255.451,-251.5 255.451,-251.5 255.451,-251.5 255.451,-123.5 255.451,-36.0755 389.265,-16.8073 455.369,-12.6225"/>
<polygon fill="midnightblue" stroke="midnightblue" points="455.951,-16.096 465.745,-12.0547 455.569,-9.10642 455.951,-16.096"/>
</g>
<!-- Node4 -->
<g id="node4" class="node"><title>Node4</title>
<polygon fill="white" stroke="#bfbfbf" points="297.17,-0.5 297.17,-20.5 353.731,-20.5 353.731,-0.5 297.17,-0.5"/>
<text text-anchor="middle" x="325.451" y="-7.5" font-family="Helvetica,sans-Serif" font-size="10.00">TString.h</text>
</g>
<!-- Node2&#45;&gt;Node4 -->
<g id="edge3" class="edge"><title>Node2&#45;&gt;Node4</title>
<path fill="none" stroke="midnightblue" d="M276.719,-376.903C225.778,-369.465 134.353,-353.239 111.451,-330 86.2534,-304.433 92.4505,-287.396 92.4505,-251.5 92.4505,-251.5 92.4505,-251.5 92.4505,-123.5 92.4505,-38.2942 220.586,-17.8688 286.812,-13.0023"/>
<polygon fill="midnightblue" stroke="midnightblue" points="287.128,-16.4892 296.88,-12.3473 286.674,-9.50399 287.128,-16.4892"/>
</g>
<!-- Node5 -->
<g id="node5" class="node"><title>Node5</title>
<polygon fill="white" stroke="#bfbfbf" points="283.724,-303.5 283.724,-323.5 339.178,-323.5 339.178,-303.5 283.724,-303.5"/>
<text text-anchor="middle" x="311.451" y="-310.5" font-family="Helvetica,sans-Serif" font-size="10.00">Rtypes.h</text>
</g>
<!-- Node2&#45;&gt;Node5 -->
<g id="edge4" class="edge"><title>Node2&#45;&gt;Node5</title>
<path fill="none" stroke="midnightblue" d="M311.451,-372.464C311.451,-362.629 311.451,-346.609 311.451,-333.9"/>
<polygon fill="midnightblue" stroke="midnightblue" points="314.951,-333.823 311.451,-323.823 307.951,-333.823 314.951,-333.823"/>
</g>
<!-- Node6 -->
<g id="node6" class="node"><title>Node6</title>
<polygon fill="white" stroke="#bfbfbf" points="357.108,-303.5 357.108,-323.5 449.794,-323.5 449.794,-303.5 357.108,-303.5"/>
<text text-anchor="middle" x="403.451" y="-310.5" font-family="Helvetica,sans-Serif" font-size="10.00">TLorentzVector.h</text>
</g>
<!-- Node2&#45;&gt;Node6 -->
<g id="edge5" class="edge"><title>Node2&#45;&gt;Node6</title>
<path fill="none" stroke="midnightblue" d="M323.858,-372.464C338.948,-361.475 364.641,-342.763 382.747,-329.578"/>
<polygon fill="midnightblue" stroke="midnightblue" points="384.923,-332.323 390.946,-323.607 380.802,-326.664 384.923,-332.323"/>
</g>
<!-- Node7 -->
<g id="node7" class="node"><title>Node7</title>
<polygon fill="white" stroke="#bfbfbf" points="3.55271e-14,-303.5 3.55271e-14,-323.5 64.901,-323.5 64.901,-303.5 3.55271e-14,-303.5"/>
<text text-anchor="middle" x="32.4505" y="-310.5" font-family="Helvetica,sans-Serif" font-size="10.00">TVector2.h</text>
</g>
<!-- Node2&#45;&gt;Node7 -->
<g id="edge6" class="edge"><title>Node2&#45;&gt;Node7</title>
<path fill="none" stroke="midnightblue" d="M276.424,-374.979C230.581,-366.166 147.899,-349.315 78.4505,-330 74.8273,-328.992 71.0696,-327.865 67.3342,-326.69"/>
<polygon fill="midnightblue" stroke="midnightblue" points="68.1991,-323.291 57.6067,-323.52 66.0299,-329.946 68.1991,-323.291"/>
</g>
<!-- Node8 -->
<g id="node8" class="node"><title>Node8</title>
<polygon fill="white" stroke="#bfbfbf" points="120.838,-303.5 120.838,-323.5 164.064,-323.5 164.064,-303.5 120.838,-303.5"/>
<text text-anchor="middle" x="142.451" y="-310.5" font-family="Helvetica,sans-Serif" font-size="10.00">cmath</text>
</g>
<!-- Node2&#45;&gt;Node8 -->
<g id="edge7" class="edge"><title>Node2&#45;&gt;Node8</title>
<path fill="none" stroke="midnightblue" d="M284.154,-372.492C255.839,-362.892 210.47,-346.79 172.451,-330 171.076,-329.393 169.677,-328.752 168.27,-328.091"/>
<polygon fill="midnightblue" stroke="midnightblue" points="169.61,-324.849 159.094,-323.556 166.509,-331.124 169.61,-324.849"/>
</g>
<!-- Node9 -->
<g id="node9" class="node"><title>Node9</title>
<polygon fill="white" stroke="#bfbfbf" points="181.728,-303.5 181.728,-323.5 227.173,-323.5 227.173,-303.5 181.728,-303.5"/>
<text text-anchor="middle" x="204.451" y="-310.5" font-family="Helvetica,sans-Serif" font-size="10.00">cstring</text>
</g>
<!-- Node2&#45;&gt;Node9 -->
<g id="edge8" class="edge"><title>Node2&#45;&gt;Node9</title>
<path fill="none" stroke="midnightblue" d="M297.02,-372.464C279.231,-361.325 248.77,-342.251 227.673,-329.041"/>
<polygon fill="midnightblue" stroke="midnightblue" points="229.327,-325.947 218.994,-323.607 225.612,-331.88 229.327,-325.947"/>
</g>
<!-- Node10&#45;&gt;Node2 -->
<g id="edge10" class="edge"><title>Node10&#45;&gt;Node2</title>
<path fill="none" stroke="midnightblue" d="M761.383,-437.666C756.738,-436.693 751.973,-435.765 747.451,-435 672.93,-422.399 452.217,-398.415 356.535,-388.247"/>
<polygon fill="midnightblue" stroke="midnightblue" points="356.629,-384.737 346.315,-387.163 355.89,-391.698 356.629,-384.737"/>
</g>
<!-- Node11 -->
<g id="node11" class="node"><title>Node11</title>
<g id="a_node11"><a xlink:href="ContainerElement_8h.html" target="_top" xlink:title="../../Framework/interface\l/ContainerElement.h">
<polygon fill="white" stroke="black" points="422.557,-171.5 422.557,-203.5 546.344,-203.5 546.344,-171.5 422.557,-171.5"/>
<text text-anchor="start" x="430.557" y="-190.5" font-family="Helvetica,sans-Serif" font-size="10.00">../../Framework/interface</text>
<text text-anchor="middle" x="484.451" y="-178.5" font-family="Helvetica,sans-Serif" font-size="10.00">/ContainerElement.h</text>
</a>
</g>
</g>
<!-- Node10&#45;&gt;Node11 -->
<g id="edge11" class="edge"><title>Node10&#45;&gt;Node11</title>
<path fill="none" stroke="midnightblue" d="M761.147,-437.28C693.477,-419.983 529.579,-374.308 496.451,-330 471.095,-296.087 474.36,-243.989 479.256,-213.37"/>
<polygon fill="midnightblue" stroke="midnightblue" points="482.706,-213.959 481.011,-203.501 475.814,-212.734 482.706,-213.959"/>
</g>
<!-- Node10&#45;&gt;Node16 -->
<g id="edge23" class="edge"><title>Node10&#45;&gt;Node16</title>
<path fill="none" stroke="midnightblue" d="M785.581,-435.499C781.614,-428.166 775.821,-417.458 770.522,-407.663"/>
<polygon fill="midnightblue" stroke="midnightblue" points="773.505,-405.821 765.669,-398.691 767.349,-409.152 773.505,-405.821"/>
</g>
<!-- Node10&#45;&gt;Node27 -->
<g id="edge42" class="edge"><title>Node10&#45;&gt;Node27</title>
<path fill="none" stroke="midnightblue" d="M797.152,-435.421C809.787,-418.974 838.812,-384.268 871.451,-366 883.004,-359.533 947.584,-343.508 1000.47,-331.036"/>
<polygon fill="midnightblue" stroke="midnightblue" points="1001.6,-334.366 1010.53,-328.672 1000,-327.552 1001.6,-334.366"/>
</g>
<!-- Node10&#45;&gt;Node28 -->
<g id="edge46" class="edge"><title>Node10&#45;&gt;Node28</title>
<path fill="none" stroke="midnightblue" d="M819.604,-436.525C852.243,-427.597 906.154,-412.85 948.847,-401.172"/>
<polygon fill="midnightblue" stroke="midnightblue" points="949.882,-404.517 958.604,-398.503 948.035,-397.765 949.882,-404.517"/>
</g>
<!-- Node11&#45;&gt;Node3 -->
<g id="edge19" class="edge"><title>Node11&#45;&gt;Node3</title>
<path fill="none" stroke="midnightblue" d="M473.048,-171.178C466.489,-161.385 458.886,-148.102 455.451,-135 445.544,-97.2157 465.978,-53.4136 479.919,-29.4535"/>
<polygon fill="midnightblue" stroke="midnightblue" points="483.008,-31.11 485.215,-20.7475 477.027,-27.4719 483.008,-31.11"/>
</g>
<!-- Node11&#45;&gt;Node4 -->
<g id="edge20" class="edge"><title>Node11&#45;&gt;Node4</title>
<path fill="none" stroke="midnightblue" d="M422.382,-171.678C401.196,-163.874 378.963,-152.214 363.451,-135 336.764,-105.386 328.816,-57.3771 326.451,-30.7804"/>
<polygon fill="midnightblue" stroke="midnightblue" points="329.921,-30.237 325.725,-20.5086 322.939,-30.7305 329.921,-30.237"/>
</g>
<!-- Node12 -->
<g id="node12" class="node"><title>Node12</title>
<g id="a_node12"><a xlink:href="Object_8h.html" target="_top" xlink:title="Object.h">
<polygon fill="white" stroke="black" points="464.834,-114.5 464.834,-134.5 518.067,-134.5 518.067,-114.5 464.834,-114.5"/>
<text text-anchor="middle" x="491.451" y="-121.5" font-family="Helvetica,sans-Serif" font-size="10.00">Object.h</text>
</a>
</g>
</g>
<!-- Node11&#45;&gt;Node12 -->
<g id="edge12" class="edge"><title>Node11&#45;&gt;Node12</title>
<path fill="none" stroke="midnightblue" d="M486.181,-171.421C487.115,-163.285 488.276,-153.161 489.271,-144.491"/>
<polygon fill="midnightblue" stroke="midnightblue" points="492.749,-144.88 490.412,-134.546 485.795,-144.082 492.749,-144.88"/>
</g>
<!-- Node13 -->
<g id="node13" class="node"><title>Node13</title>
<g id="a_node13"><a xlink:href="IOUtils_8h.html" target="_top" xlink:title="IOUtils.h">
<polygon fill="white" stroke="black" points="519.284,-57.5 519.284,-77.5 573.617,-77.5 573.617,-57.5 519.284,-57.5"/>
<text text-anchor="middle" x="546.451" y="-64.5" font-family="Helvetica,sans-Serif" font-size="10.00">IOUtils.h</text>
</a>
</g>
</g>
<!-- Node11&#45;&gt;Node13 -->
<g id="edge18" class="edge"><title>Node11&#45;&gt;Node13</title>
<path fill="none" stroke="midnightblue" d="M500.297,-171.079C509.387,-161.453 520.364,-148.382 527.451,-135 535.352,-120.078 540.306,-101.484 543.166,-87.754"/>
<polygon fill="midnightblue" stroke="midnightblue" points="546.676,-88.029 545.095,-77.5528 539.798,-86.7283 546.676,-88.029"/>
</g>
<!-- Node14 -->
<g id="node14" class="node"><title>Node14</title>
<polygon fill="white" stroke="#bfbfbf" points="676.838,-0.5 676.838,-20.5 720.063,-20.5 720.063,-0.5 676.838,-0.5"/>
<text text-anchor="middle" x="698.451" y="-7.5" font-family="Helvetica,sans-Serif" font-size="10.00">vector</text>
</g>
<!-- Node11&#45;&gt;Node14 -->
<g id="edge21" class="edge"><title>Node11&#45;&gt;Node14</title>
<path fill="none" stroke="midnightblue" d="M503.067,-171.276C543.51,-138.204 639.014,-60.1045 679.636,-26.8857"/>
<polygon fill="midnightblue" stroke="midnightblue" points="681.906,-29.5507 687.432,-20.5108 677.475,-24.1318 681.906,-29.5507"/>
</g>
<!-- Node15 -->
<g id="node15" class="node"><title>Node15</title>
<polygon fill="white" stroke="#bfbfbf" points="372.727,-114.5 372.727,-134.5 408.174,-134.5 408.174,-114.5 372.727,-114.5"/>
<text text-anchor="middle" x="390.451" y="-121.5" font-family="Helvetica,sans-Serif" font-size="10.00">map</text>
</g>
<!-- Node11&#45;&gt;Node15 -->
<g id="edge22" class="edge"><title>Node11&#45;&gt;Node15</title>
<path fill="none" stroke="midnightblue" d="M461.215,-171.421C446.447,-161.838 427.432,-149.499 412.832,-140.024"/>
<polygon fill="midnightblue" stroke="midnightblue" points="414.684,-137.054 404.39,-134.546 410.873,-142.926 414.684,-137.054"/>
</g>
<!-- Node12&#45;&gt;Node3 -->
<g id="edge17" class="edge"><title>Node12&#45;&gt;Node3</title>
<path fill="none" stroke="midnightblue" d="M491.451,-114.335C491.451,-96.2039 491.451,-55.4065 491.451,-30.9997"/>
<polygon fill="midnightblue" stroke="midnightblue" points="494.951,-30.792 491.451,-20.7921 487.951,-30.7921 494.951,-30.792"/>
</g>
<!-- Node12&#45;&gt;Node13 -->
<g id="edge13" class="edge"><title>Node12&#45;&gt;Node13</title>
<path fill="none" stroke="midnightblue" d="M500.533,-114.418C508.526,-106.425 520.36,-94.5903 530.013,-84.9377"/>
<polygon fill="midnightblue" stroke="midnightblue" points="532.575,-87.3254 537.171,-77.7795 527.625,-82.3757 532.575,-87.3254"/>
</g>
<!-- Node13&#45;&gt;Node3 -->
<g id="edge15" class="edge"><title>Node13&#45;&gt;Node3</title>
<path fill="none" stroke="midnightblue" d="M537.368,-57.4179C529.375,-49.425 517.541,-37.5903 507.888,-27.9377"/>
<polygon fill="midnightblue" stroke="midnightblue" points="510.276,-25.3757 500.73,-20.7795 505.326,-30.3254 510.276,-25.3757"/>
</g>
<!-- Node13&#45;&gt;Node4 -->
<g id="edge14" class="edge"><title>Node13&#45;&gt;Node4</title>
<path fill="none" stroke="midnightblue" d="M518.908,-59.6454C479.833,-49.921 408.145,-32.08 363.862,-21.0595"/>
<polygon fill="midnightblue" stroke="midnightblue" points="364.591,-17.6341 354.042,-18.6154 362.9,-24.4269 364.591,-17.6341"/>
</g>
<!-- Node13&#45;&gt;Node14 -->
<g id="edge16" class="edge"><title>Node13&#45;&gt;Node14</title>
<path fill="none" stroke="midnightblue" d="M571.55,-57.4179C597.799,-47.9199 639.04,-32.9972 667.339,-22.7574"/>
<polygon fill="midnightblue" stroke="midnightblue" points="668.551,-26.041 676.763,-19.3473 666.169,-19.4587 668.551,-26.041"/>
</g>
<!-- Node17 -->
<g id="node17" class="node"><title>Node17</title>
<g id="a_node17"><a xlink:href="ArrayBase_8h.html" target="_top" xlink:title="ArrayBase.h">
<polygon fill="white" stroke="black" points="505.945,-303.5 505.945,-323.5 576.956,-323.5 576.956,-303.5 505.945,-303.5"/>
<text text-anchor="middle" x="541.451" y="-310.5" font-family="Helvetica,sans-Serif" font-size="10.00">ArrayBase.h</text>
</a>
</g>
</g>
<!-- Node16&#45;&gt;Node17 -->
<g id="edge24" class="edge"><title>Node16&#45;&gt;Node17</title>
<path fill="none" stroke="midnightblue" d="M705.654,-366.475C671.66,-356.472 626.284,-342.853 586.451,-330 583.305,-328.985 580.044,-327.909 576.78,-326.815"/>
<polygon fill="midnightblue" stroke="midnightblue" points="577.687,-323.427 567.093,-323.527 575.437,-330.056 577.687,-323.427"/>
</g>
<!-- Node20 -->
<g id="node20" class="node"><title>Node20</title>
<g id="a_node20"><a xlink:href="CollectionBase_8h.html" target="_top" xlink:title="CollectionBase.h">
<polygon fill="white" stroke="black" points="665.942,-303.5 665.942,-323.5 756.959,-323.5 756.959,-303.5 665.942,-303.5"/>
<text text-anchor="middle" x="711.451" y="-310.5" font-family="Helvetica,sans-Serif" font-size="10.00">CollectionBase.h</text>
</a>
</g>
</g>
<!-- Node16&#45;&gt;Node20 -->
<g id="edge32" class="edge"><title>Node16&#45;&gt;Node20</title>
<path fill="none" stroke="midnightblue" d="M747.012,-366.297C740.042,-356.144 730.85,-342.756 723.558,-332.135"/>
<polygon fill="midnightblue" stroke="midnightblue" points="726.288,-329.928 717.743,-323.665 720.517,-333.89 726.288,-329.928"/>
</g>
<!-- Node22 -->
<g id="node22" class="node"><title>Node22</title>
<g id="a_node22"><a xlink:href="Iterator_8h.html" target="_top" xlink:title="Iterator.h">
<polygon fill="white" stroke="black" points="822.446,-303.5 822.446,-323.5 878.456,-323.5 878.456,-303.5 822.446,-303.5"/>
<text text-anchor="middle" x="850.451" y="-310.5" font-family="Helvetica,sans-Serif" font-size="10.00">Iterator.h</text>
</a>
</g>
</g>
<!-- Node16&#45;&gt;Node22 -->
<g id="edge36" class="edge"><title>Node16&#45;&gt;Node22</title>
<path fill="none" stroke="midnightblue" d="M778.554,-366.297C793.785,-355.323 814.262,-340.572 829.466,-329.618"/>
<polygon fill="midnightblue" stroke="midnightblue" points="831.662,-332.35 837.729,-323.665 827.57,-326.67 831.662,-332.35"/>
</g>
<!-- Node23 -->
<g id="node23" class="node"><title>Node23</title>
<polygon fill="white" stroke="#bfbfbf" points="875.39,-240.5 875.39,-260.5 937.511,-260.5 937.511,-240.5 875.39,-240.5"/>
<text text-anchor="middle" x="906.451" y="-247.5" font-family="Helvetica,sans-Serif" font-size="10.00">type_traits</text>
</g>
<!-- Node16&#45;&gt;Node23 -->
<g id="edge41" class="edge"><title>Node16&#45;&gt;Node23</title>
<path fill="none" stroke="midnightblue" d="M819.646,-369.814C843.947,-362.272 870.092,-349.971 887.451,-330 901.712,-313.592 905.668,-288.266 906.57,-270.842"/>
<polygon fill="midnightblue" stroke="midnightblue" points="910.073,-270.783 906.8,-260.706 903.074,-270.624 910.073,-270.783"/>
</g>
<!-- Node24 -->
<g id="node24" class="node"><title>Node24</title>
<polygon fill="white" stroke="#bfbfbf" points="1043.05,-240.5 1043.05,-260.5 1101.85,-260.5 1101.85,-240.5 1043.05,-240.5"/>
<text text-anchor="middle" x="1072.45" y="-247.5" font-family="Helvetica,sans-Serif" font-size="10.00">stdexcept</text>
</g>
<!-- Node16&#45;&gt;Node24 -->
<g id="edge38" class="edge"><title>Node16&#45;&gt;Node24</title>
<path fill="none" stroke="midnightblue" d="M806.955,-366.416C836.948,-356.862 875.789,-343.748 909.451,-330 958.728,-309.874 1014.19,-281.993 1046.06,-265.445"/>
<polygon fill="midnightblue" stroke="midnightblue" points="1047.92,-268.425 1055.16,-260.694 1044.68,-262.22 1047.92,-268.425"/>
</g>
<!-- Node25 -->
<g id="node25" class="node"><title>Node25</title>
<polygon fill="white" stroke="#bfbfbf" points="595.398,-303.5 595.398,-323.5 647.503,-323.5 647.503,-303.5 595.398,-303.5"/>
<text text-anchor="middle" x="621.451" y="-310.5" font-family="Helvetica,sans-Serif" font-size="10.00">memory</text>
</g>
<!-- Node16&#45;&gt;Node25 -->
<g id="edge39" class="edge"><title>Node16&#45;&gt;Node25</title>
<path fill="none" stroke="midnightblue" d="M726.929,-366.464C703.494,-354.918 671.421,-339.118 648.813,-327.98"/>
<polygon fill="midnightblue" stroke="midnightblue" points="650.273,-324.798 639.756,-323.518 647.179,-331.077 650.273,-324.798"/>
</g>
<!-- Node26 -->
<g id="node26" class="node"><title>Node26</title>
<polygon fill="white" stroke="#bfbfbf" points="774.782,-303.5 774.782,-323.5 804.12,-323.5 804.12,-303.5 774.782,-303.5"/>
<text text-anchor="middle" x="789.451" y="-310.5" font-family="Helvetica,sans-Serif" font-size="10.00">set</text>
</g>
<!-- Node16&#45;&gt;Node26 -->
<g id="edge40" class="edge"><title>Node16&#45;&gt;Node26</title>
<path fill="none" stroke="midnightblue" d="M764.712,-366.297C769.463,-356.349 775.697,-343.296 780.719,-332.782"/>
<polygon fill="midnightblue" stroke="midnightblue" points="783.922,-334.197 785.073,-323.665 777.605,-331.18 783.922,-334.197"/>
</g>
<!-- Node18 -->
<g id="node18" class="node"><title>Node18</title>
<g id="a_node18"><a xlink:href="ContainerBase_8h.html" target="_top" xlink:title="ContainerBase.h">
<polygon fill="white" stroke="black" points="653.217,-240.5 653.217,-260.5 743.684,-260.5 743.684,-240.5 653.217,-240.5"/>
<text text-anchor="middle" x="698.451" y="-247.5" font-family="Helvetica,sans-Serif" font-size="10.00">ContainerBase.h</text>
</a>
</g>
</g>
<!-- Node17&#45;&gt;Node18 -->
<g id="edge25" class="edge"><title>Node17&#45;&gt;Node18</title>
<path fill="none" stroke="midnightblue" d="M564.616,-303.499C591.285,-293.138 635.29,-276.04 665.513,-264.297"/>
<polygon fill="midnightblue" stroke="midnightblue" points="667.136,-267.422 675.19,-260.538 664.601,-260.897 667.136,-267.422"/>
</g>
<!-- Node18&#45;&gt;Node3 -->
<g id="edge29" class="edge"><title>Node18&#45;&gt;Node3</title>
<path fill="none" stroke="midnightblue" d="M695.06,-240.232C683.631,-210.114 643.771,-113.676 582.451,-57 566.507,-42.2643 544.897,-31.19 526.736,-23.658"/>
<polygon fill="midnightblue" stroke="midnightblue" points="527.918,-20.3617 517.331,-19.9396 525.344,-26.8714 527.918,-20.3617"/>
</g>
<!-- Node18&#45;&gt;Node4 -->
<g id="edge28" class="edge"><title>Node18&#45;&gt;Node4</title>
<path fill="none" stroke="midnightblue" d="M653.139,-241.615C649.861,-241.063 646.606,-240.519 643.451,-240 541.358,-223.194 505.511,-251.225 413.451,-204 352.9,-172.939 337.856,-145.09 326.451,-78 323.786,-62.3286 323.698,-44.2805 324.186,-30.9441"/>
<polygon fill="midnightblue" stroke="midnightblue" points="327.699,-30.7808 324.713,-20.6155 320.708,-30.4242 327.699,-30.7808"/>
</g>
<!-- Node18&#45;&gt;Node11 -->
<g id="edge26" class="edge"><title>Node18&#45;&gt;Node11</title>
<path fill="none" stroke="midnightblue" d="M666.874,-240.499C635.47,-231.548 586.429,-217.569 547.101,-206.358"/>
<polygon fill="midnightblue" stroke="midnightblue" points="547.904,-202.948 537.328,-203.573 545.985,-209.68 547.904,-202.948"/>
</g>
<!-- Node18&#45;&gt;Node13 -->
<g id="edge27" class="edge"><title>Node18&#45;&gt;Node13</title>
<path fill="none" stroke="midnightblue" d="M668.967,-240.352C649.684,-233.103 625.078,-221.288 608.451,-204 575.838,-170.091 558.272,-115.979 550.833,-87.48"/>
<polygon fill="midnightblue" stroke="midnightblue" points="554.187,-86.4629 548.394,-77.592 547.391,-88.1392 554.187,-86.4629"/>
</g>
<!-- Node18&#45;&gt;Node14 -->
<g id="edge30" class="edge"><title>Node18&#45;&gt;Node14</title>
<path fill="none" stroke="midnightblue" d="M698.451,-240.461C698.451,-205.559 698.451,-79.1254 698.451,-30.6234"/>
<polygon fill="midnightblue" stroke="midnightblue" points="701.951,-30.5482 698.451,-20.5483 694.951,-30.5483 701.951,-30.5482"/>
</g>
<!-- Node19 -->
<g id="node19" class="node"><title>Node19</title>
<polygon fill="white" stroke="#bfbfbf" points="726.055,-177.5 726.055,-197.5 784.846,-197.5 784.846,-177.5 726.055,-177.5"/>
<text text-anchor="middle" x="755.451" y="-184.5" font-family="Helvetica,sans-Serif" font-size="10.00">functional</text>
</g>
<!-- Node18&#45;&gt;Node19 -->
<g id="edge31" class="edge"><title>Node18&#45;&gt;Node19</title>
<path fill="none" stroke="midnightblue" d="M706.861,-240.499C715.533,-231.219 729.254,-216.535 739.907,-205.134"/>
<polygon fill="midnightblue" stroke="midnightblue" points="742.735,-207.234 747.005,-197.538 737.621,-202.455 742.735,-207.234"/>
</g>
<!-- Node20&#45;&gt;Node14 -->
<g id="edge34" class="edge"><title>Node20&#45;&gt;Node14</title>
<path fill="none" stroke="midnightblue" d="M726.79,-303.403C755.045,-285.353 812.451,-242.087 812.451,-188.5 812.451,-188.5 812.451,-188.5 812.451,-123.5 812.451,-76.4556 762.44,-42.5963 728.666,-25.0941"/>
<polygon fill="midnightblue" stroke="midnightblue" points="730.138,-21.9171 719.626,-20.594 727.018,-28.1836 730.138,-21.9171"/>
</g>
<!-- Node20&#45;&gt;Node18 -->
<g id="edge33" class="edge"><title>Node20&#45;&gt;Node18</title>
<path fill="none" stroke="midnightblue" d="M709.532,-303.499C707.689,-294.849 704.845,-281.506 702.5,-270.502"/>
<polygon fill="midnightblue" stroke="midnightblue" points="705.884,-269.589 700.377,-260.538 699.038,-271.048 705.884,-269.589"/>
</g>
<!-- Node21 -->
<g id="node21" class="node"><title>Node21</title>
<polygon fill="white" stroke="#bfbfbf" points="596.063,-240.5 596.063,-260.5 634.838,-260.5 634.838,-240.5 596.063,-240.5"/>
<text text-anchor="middle" x="615.451" y="-247.5" font-family="Helvetica,sans-Serif" font-size="10.00">utility</text>
</g>
<!-- Node20&#45;&gt;Node21 -->
<g id="edge35" class="edge"><title>Node20&#45;&gt;Node21</title>
<path fill="none" stroke="midnightblue" d="M697.285,-303.499C681.758,-293.633 656.62,-277.66 638.298,-266.018"/>
<polygon fill="midnightblue" stroke="midnightblue" points="639.991,-262.947 629.674,-260.538 636.237,-268.855 639.991,-262.947"/>
</g>
<!-- Node22&#45;&gt;Node23 -->
<g id="edge37" class="edge"><title>Node22&#45;&gt;Node23</title>
<path fill="none" stroke="midnightblue" d="M858.713,-303.499C867.233,-294.219 880.714,-279.535 891.18,-268.134"/>
<polygon fill="midnightblue" stroke="midnightblue" points="893.969,-270.271 898.154,-260.538 888.813,-265.537 893.969,-270.271"/>
</g>
<!-- Node27&#45;&gt;Node18 -->
<g id="edge43" class="edge"><title>Node27&#45;&gt;Node18</title>
<path fill="none" stroke="midnightblue" d="M1010.27,-302.359C938.752,-290.694 822.401,-271.717 753.863,-260.538"/>
<polygon fill="midnightblue" stroke="midnightblue" points="754.132,-257.036 743.699,-258.88 753.005,-263.944 754.132,-257.036"/>
</g>
<!-- Node27&#45;&gt;Node23 -->
<g id="edge45" class="edge"><title>Node27&#45;&gt;Node23</title>
<path fill="none" stroke="midnightblue" d="M1031.42,-297.421C1003.49,-287.16 966.969,-273.739 940.626,-264.058"/>
<polygon fill="midnightblue" stroke="midnightblue" points="941.661,-260.71 931.067,-260.546 939.246,-267.28 941.661,-260.71"/>
</g>
<!-- Node27&#45;&gt;Node24 -->
<g id="edge44" class="edge"><title>Node27&#45;&gt;Node24</title>
<path fill="none" stroke="midnightblue" d="M1072.45,-297.421C1072.45,-289.375 1072.45,-279.386 1072.45,-270.781"/>
<polygon fill="midnightblue" stroke="midnightblue" points="1075.95,-270.546 1072.45,-260.546 1068.95,-270.546 1075.95,-270.546"/>
</g>
<!-- Node28&#45;&gt;Node14 -->
<g id="edge50" class="edge"><title>Node28&#45;&gt;Node14</title>
<path fill="none" stroke="midnightblue" d="M1075.55,-370.465C1103.71,-362.913 1135.89,-350.424 1159.45,-330 1189.19,-304.215 1200.45,-290.861 1200.45,-251.5 1200.45,-251.5 1200.45,-251.5 1200.45,-123.5 1200.45,-26.82 841.283,-13.5618 730.556,-11.7716"/>
<polygon fill="midnightblue" stroke="midnightblue" points="730.392,-8.26907 720.344,-11.6283 730.293,-15.2684 730.392,-8.26907"/>
</g>
<!-- Node28&#45;&gt;Node18 -->
<g id="edge47" class="edge"><title>Node28&#45;&gt;Node18</title>
<path fill="none" stroke="midnightblue" d="M995.463,-366.386C972.049,-347.462 929.176,-315.309 887.451,-297 844.469,-278.14 792.409,-266.344 753.819,-259.502"/>
<polygon fill="midnightblue" stroke="midnightblue" points="754.261,-256.027 743.813,-257.785 753.077,-262.926 754.261,-256.027"/>
</g>
<!-- Node28&#45;&gt;Node24 -->
<g id="edge49" class="edge"><title>Node28&#45;&gt;Node24</title>
<path fill="none" stroke="midnightblue" d="M1075.39,-372.484C1100.9,-365.383 1128.03,-352.69 1143.45,-330 1151.69,-317.869 1150.49,-309.868 1143.45,-297 1135.69,-282.806 1121.4,-272.388 1107.66,-265.131"/>
<polygon fill="midnightblue" stroke="midnightblue" points="1108.85,-261.819 1098.33,-260.605 1105.8,-268.118 1108.85,-261.819"/>
</g>
<!-- Node28&#45;&gt;Node27 -->
<g id="edge48" class="edge"><title>Node28&#45;&gt;Node27</title>
<path fill="none" stroke="midnightblue" d="M1026.84,-366.297C1034.38,-357.73 1043.95,-346.861 1052.38,-337.294"/>
<polygon fill="midnightblue" stroke="midnightblue" points="1055.13,-339.461 1059.12,-329.643 1049.88,-334.835 1055.13,-339.461"/>
</g>
<!-- Node29&#45;&gt;Node2 -->
<g id="edge55" class="edge"><title>Node29&#45;&gt;Node2</title>
<path fill="none" stroke="midnightblue" d="M779.452,-549.41C722.779,-528.828 580.148,-477.171 460.451,-435 421.951,-421.436 377.739,-406.197 347.537,-395.839"/>
<polygon fill="midnightblue" stroke="midnightblue" points="348.455,-392.453 337.86,-392.522 346.185,-399.075 348.455,-392.453"/>
</g>
<!-- Node29&#45;&gt;Node16 -->
<g id="edge62" class="edge"><title>Node29&#45;&gt;Node16</title>
<path fill="none" stroke="midnightblue" d="M797.996,-549.471C786.156,-532.287 761.362,-493.261 752.451,-456 748.756,-440.55 749.905,-422.761 752.027,-408.67"/>
<polygon fill="midnightblue" stroke="midnightblue" points="755.492,-409.17 753.775,-398.716 748.598,-407.96 755.492,-409.17"/>
</g>
<!-- Node29&#45;&gt;Node27 -->
<g id="edge63" class="edge"><title>Node29&#45;&gt;Node27</title>
<path fill="none" stroke="midnightblue" d="M821.71,-549.375C835.707,-541.296 855.216,-528.41 868.451,-513 916.105,-457.509 888.475,-415.364 942.451,-366 958.917,-350.94 980.32,-340.055 1000.99,-332.289"/>
<polygon fill="midnightblue" stroke="midnightblue" points="1002.17,-335.585 1010.42,-328.936 999.821,-328.99 1002.17,-335.585"/>
</g>
<!-- Node29&#45;&gt;Node28 -->
<g id="edge64" class="edge"><title>Node29&#45;&gt;Node28</title>
<path fill="none" stroke="midnightblue" d="M842.918,-552.758C871.553,-546.847 910.233,-535.229 937.451,-513 971.766,-484.974 994.016,-437.081 1005.1,-408.054"/>
<polygon fill="midnightblue" stroke="midnightblue" points="1008.39,-409.231 1008.55,-398.637 1001.82,-406.82 1008.39,-409.231"/>
</g>
<!-- Node30 -->
<g id="node30" class="node"><title>Node30</title>
<g id="a_node30"><a xlink:href="ParticleM_8h.html" target="_top" xlink:title="ParticleM.h">
<polygon fill="white" stroke="black" points="793.451,-492.5 793.451,-512.5 859.451,-512.5 859.451,-492.5 793.451,-492.5"/>
<text text-anchor="middle" x="826.451" y="-499.5" font-family="Helvetica,sans-Serif" font-size="10.00">ParticleM.h</text>
</a>
</g>
</g>
<!-- Node29&#45;&gt;Node30 -->
<g id="edge56" class="edge"><title>Node29&#45;&gt;Node30</title>
<path fill="none" stroke="midnightblue" d="M808.083,-549.418C811.027,-542.058 815.274,-531.441 818.943,-522.27"/>
<polygon fill="midnightblue" stroke="midnightblue" points="822.274,-523.364 822.739,-512.779 815.775,-520.764 822.274,-523.364"/>
</g>
<!-- Node30&#45;&gt;Node2 -->
<g id="edge57" class="edge"><title>Node30&#45;&gt;Node2</title>
<path fill="none" stroke="midnightblue" d="M809.331,-492.371C781.326,-477.85 723.606,-449.642 671.451,-435 613.012,-418.594 439.274,-397.78 356.401,-388.435"/>
<polygon fill="midnightblue" stroke="midnightblue" points="356.61,-384.936 346.282,-387.3 355.83,-391.893 356.61,-384.936"/>
</g>
<!-- Node30&#45;&gt;Node10 -->
<g id="edge58" class="edge"><title>Node30&#45;&gt;Node10</title>
<path fill="none" stroke="midnightblue" d="M820.506,-492.418C815.533,-484.821 808.289,-473.753 802.158,-464.387"/>
<polygon fill="midnightblue" stroke="midnightblue" points="804.929,-462.23 796.524,-455.779 799.073,-466.063 804.929,-462.23"/>
</g>
<!-- Node30&#45;&gt;Node16 -->
<g id="edge59" class="edge"><title>Node30&#45;&gt;Node16</title>
<path fill="none" stroke="midnightblue" d="M829.372,-492.294C833.07,-478.873 837.896,-453.521 828.451,-435 821.937,-422.229 810.611,-411.885 798.894,-403.912"/>
<polygon fill="midnightblue" stroke="midnightblue" points="800.681,-400.901 790.356,-398.524 796.945,-406.821 800.681,-400.901"/>
</g>
<!-- Node30&#45;&gt;Node27 -->
<g id="edge60" class="edge"><title>Node30&#45;&gt;Node27</title>
<path fill="none" stroke="midnightblue" d="M830.922,-492.464C844.611,-465.116 886.414,-384.012 909.451,-366 935.496,-345.635 969.742,-333.241 1000.12,-325.738"/>
<polygon fill="midnightblue" stroke="midnightblue" points="1001.31,-329.055 1010.25,-323.377 999.721,-322.237 1001.31,-329.055"/>
</g>
<!-- Node30&#45;&gt;Node28 -->
<g id="edge61" class="edge"><title>Node30&#45;&gt;Node28</title>
<path fill="none" stroke="midnightblue" d="M841.018,-492.474C855.77,-483.322 879.23,-468.731 899.451,-456 927.136,-438.569 958.496,-418.609 981.307,-404.052"/>
<polygon fill="midnightblue" stroke="midnightblue" points="983.365,-406.89 989.91,-398.559 979.598,-400.99 983.365,-406.89"/>
</g>
</g>
</svg>
