<?xml version="1.0" encoding="UTF-8" standalone="no"?>
<!DOCTYPE svg PUBLIC "-//W3C//DTD SVG 1.1//EN"
 "http://www.w3.org/Graphics/SVG/1.1/DTD/svg11.dtd">
<!-- Generated by graphviz version 2.38.0 (20140413.2041)
 -->
<!-- Title: Objects/interface/Lepton.h Pages: 1 -->
<svg width="459pt" height="200pt"
 viewBox="0.00 0.00 458.93 200.00" xmlns="http://www.w3.org/2000/svg" xmlns:xlink="http://www.w3.org/1999/xlink">
<g id="graph0" class="graph" transform="scale(1 1) rotate(0) translate(4 196)">
<title>Objects/interface/Lepton.h</title>
<polygon fill="white" stroke="none" points="-4,4 -4,-196 454.934,-196 454.934,4 -4,4"/>
<!-- Node1 -->
<g id="node1" class="node"><title>Node1</title>
<polygon fill="#bfbfbf" stroke="black" points="92.2969,-171.5 92.2969,-191.5 225.004,-191.5 225.004,-171.5 92.2969,-171.5"/>
<text text-anchor="middle" x="158.65" y="-178.5" font-family="Helvetica,sans-Serif" font-size="10.00">Objects/interface/Lepton.h</text>
</g>
<!-- Node2 -->
<g id="node2" class="node"><title>Node2</title>
<g id="a_node2"><a xlink:href="LinkDef_8h.html" target="_top" xlink:title="obj/LinkDef.h">
<polygon fill="white" stroke="black" points="3.47635,-0.5 3.47635,-20.5 77.8244,-20.5 77.8244,-0.5 3.47635,-0.5"/>
<text text-anchor="middle" x="40.6504" y="-7.5" font-family="Helvetica,sans-Serif" font-size="10.00">obj/LinkDef.h</text>
</a>
</g>
</g>
<!-- Node1&#45;&gt;Node2 -->
<g id="edge1" class="edge"><title>Node1&#45;&gt;Node2</title>
<path fill="none" stroke="midnightblue" d="M82.1422,-176.483C53.4553,-170.791 23.5102,-158.944 5.65035,-135 -0.669368,-126.527 -4.03637,-93.7081 8.65035,-57 13.5084,-42.9436 24.1017,-29.3334 31.772,-20.7192"/>
<polygon fill="midnightblue" stroke="midnightblue" points="81.7605,-179.97 92.2148,-178.25 82.9697,-173.075 81.7605,-179.97"/>
</g>
<!-- Node3 -->
<g id="node3" class="node"><title>Node3</title>
<g id="a_node3"><a xlink:href="Electron_8h.html" target="_top" xlink:title="Objects/interface/Electron.h">
<polygon fill="white" stroke="black" points="14.2474,-114.5 14.2474,-134.5 153.053,-134.5 153.053,-114.5 14.2474,-114.5"/>
<text text-anchor="middle" x="83.6504" y="-121.5" font-family="Helvetica,sans-Serif" font-size="10.00">Objects/interface/Electron.h</text>
</a>
</g>
</g>
<!-- Node1&#45;&gt;Node3 -->
<g id="edge2" class="edge"><title>Node1&#45;&gt;Node3</title>
<path fill="none" stroke="midnightblue" d="M138.049,-165.392C124.59,-155.522 107.459,-142.96 96.0535,-134.596"/>
<polygon fill="midnightblue" stroke="midnightblue" points="136.132,-168.327 146.266,-171.418 140.271,-162.682 136.132,-168.327"/>
</g>
<!-- Node8 -->
<g id="node8" class="node"><title>Node8</title>
<g id="a_node8"><a xlink:href="Muon_8h.html" target="_top" xlink:title="Objects/interface/Muon.h">
<polygon fill="white" stroke="black" points="171.081,-114.5 171.081,-134.5 298.22,-134.5 298.22,-114.5 171.081,-114.5"/>
<text text-anchor="middle" x="234.65" y="-121.5" font-family="Helvetica,sans-Serif" font-size="10.00">Objects/interface/Muon.h</text>
</a>
</g>
</g>
<!-- Node1&#45;&gt;Node8 -->
<g id="edge9" class="edge"><title>Node1&#45;&gt;Node8</title>
<path fill="none" stroke="midnightblue" d="M179.527,-165.392C193.165,-155.522 210.524,-142.96 222.082,-134.596"/>
<polygon fill="midnightblue" stroke="midnightblue" points="177.249,-162.72 171.2,-171.418 181.353,-168.391 177.249,-162.72"/>
</g>
<!-- Node10 -->
<g id="node10" class="node"><title>Node10</title>
<g id="a_node10"><a xlink:href="Lepton_8cc.html" target="_top" xlink:title="Objects/src/Lepton.cc">
<polygon fill="white" stroke="black" points="316.583,-114.5 316.583,-134.5 428.718,-134.5 428.718,-114.5 316.583,-114.5"/>
<text text-anchor="middle" x="372.65" y="-121.5" font-family="Helvetica,sans-Serif" font-size="10.00">Objects/src/Lepton.cc</text>
</a>
</g>
</g>
<!-- Node1&#45;&gt;Node10 -->
<g id="edge13" class="edge"><title>Node1&#45;&gt;Node10</title>
<path fill="none" stroke="midnightblue" d="M203.733,-168.913C243.641,-158.657 301.068,-143.897 337.616,-134.504"/>
<polygon fill="midnightblue" stroke="midnightblue" points="202.802,-165.539 193.988,-171.418 204.545,-172.318 202.802,-165.539"/>
</g>
<!-- Node3&#45;&gt;Node2 -->
<g id="edge3" class="edge"><title>Node3&#45;&gt;Node2</title>
<path fill="none" stroke="midnightblue" d="M50.4675,-109.852C37.129,-102.519 23.1537,-92.0487 15.6504,-78 5.30732,-58.6344 21.4341,-34.0491 32.2215,-20.8651"/>
<polygon fill="midnightblue" stroke="midnightblue" points="49.0102,-113.037 59.5128,-114.432 52.1724,-106.792 49.0102,-113.037"/>
</g>
<!-- Node4 -->
<g id="node4" class="node"><title>Node4</title>
<g id="a_node4"><a xlink:href="Event_8h.html" target="_top" xlink:title="Objects/interface/Event.h">
<polygon fill="white" stroke="black" points="198.801,-57.5 198.801,-77.5 326.5,-77.5 326.5,-57.5 198.801,-57.5"/>
<text text-anchor="middle" x="262.65" y="-64.5" font-family="Helvetica,sans-Serif" font-size="10.00">Objects/interface/Event.h</text>
</a>
</g>
</g>
<!-- Node3&#45;&gt;Node4 -->
<g id="edge4" class="edge"><title>Node3&#45;&gt;Node4</title>
<path fill="none" stroke="midnightblue" d="M123.07,-111.388C156.364,-101.158 203.294,-86.7381 233.346,-77.5042"/>
<polygon fill="midnightblue" stroke="midnightblue" points="121.739,-108.135 113.209,-114.418 123.796,-114.826 121.739,-108.135"/>
</g>
<!-- Node7 -->
<g id="node7" class="node"><title>Node7</title>
<g id="a_node7"><a xlink:href="Electron_8cc.html" target="_top" xlink:title="Objects/src/Electron.cc">
<polygon fill="white" stroke="black" points="24.5334,-57.5 24.5334,-77.5 142.767,-77.5 142.767,-57.5 24.5334,-57.5"/>
<text text-anchor="middle" x="83.6504" y="-64.5" font-family="Helvetica,sans-Serif" font-size="10.00">Objects/src/Electron.cc</text>
</a>
</g>
</g>
<!-- Node3&#45;&gt;Node7 -->
<g id="edge8" class="edge"><title>Node3&#45;&gt;Node7</title>
<path fill="none" stroke="midnightblue" d="M83.6504,-104.383C83.6504,-95.3738 83.6504,-85.0373 83.6504,-77.7795"/>
<polygon fill="midnightblue" stroke="midnightblue" points="80.1505,-104.418 83.6504,-114.418 87.1505,-104.418 80.1505,-104.418"/>
</g>
<!-- Node4&#45;&gt;Node2 -->
<g id="edge5" class="edge"><title>Node4&#45;&gt;Node2</title>
<path fill="none" stroke="midnightblue" d="M216.145,-54.9784C174.735,-44.7192 114.989,-29.9172 76.9946,-20.5042"/>
<polygon fill="midnightblue" stroke="midnightblue" points="215.443,-58.4103 225.992,-57.4179 217.127,-51.6157 215.443,-58.4103"/>
</g>
<!-- Node5 -->
<g id="node5" class="node"><title>Node5</title>
<g id="a_node5"><a xlink:href="Event_8cc.html" target="_top" xlink:title="Objects/src/Event.cc">
<polygon fill="white" stroke="black" points="273.087,-0.5 273.087,-20.5 380.214,-20.5 380.214,-0.5 273.087,-0.5"/>
<text text-anchor="middle" x="326.65" y="-7.5" font-family="Helvetica,sans-Serif" font-size="10.00">Objects/src/Event.cc</text>
</a>
</g>
</g>
<!-- Node4&#45;&gt;Node5 -->
<g id="edge6" class="edge"><title>Node4&#45;&gt;Node5</title>
<path fill="none" stroke="midnightblue" d="M280.841,-50.8678C292.144,-41.1535 306.293,-28.9944 315.852,-20.7795"/>
<polygon fill="midnightblue" stroke="midnightblue" points="278.522,-48.2457 273.219,-57.4179 283.084,-53.5546 278.522,-48.2457"/>
</g>
<!-- Node6 -->
<g id="node6" class="node"><title>Node6</title>
<g id="a_node6"><a xlink:href="FileMerger_8cc.html" target="_top" xlink:title="Utils/src/FileMerger.cc">
<polygon fill="white" stroke="black" points="140.214,-0.5 140.214,-20.5 255.086,-20.5 255.086,-0.5 140.214,-0.5"/>
<text text-anchor="middle" x="197.65" y="-7.5" font-family="Helvetica,sans-Serif" font-size="10.00">Utils/src/FileMerger.cc</text>
</a>
</g>
</g>
<!-- Node4&#45;&gt;Node6 -->
<g id="edge7" class="edge"><title>Node4&#45;&gt;Node6</title>
<path fill="none" stroke="midnightblue" d="M244.176,-50.8678C232.695,-41.1535 218.326,-28.9944 208.617,-20.7795"/>
<polygon fill="midnightblue" stroke="midnightblue" points="242.022,-53.6303 251.917,-57.4179 246.544,-48.2866 242.022,-53.6303"/>
</g>
<!-- Node8&#45;&gt;Node2 -->
<g id="edge10" class="edge"><title>Node8&#45;&gt;Node2</title>
<path fill="none" stroke="midnightblue" d="M217.597,-107.392C201.531,-92.8342 176.309,-71.5222 151.65,-57 125.09,-41.3577 92.1409,-28.5944 69.067,-20.6094"/>
<polygon fill="midnightblue" stroke="midnightblue" points="215.387,-110.115 225.113,-114.318 220.131,-104.967 215.387,-110.115"/>
</g>
<!-- Node8&#45;&gt;Node4 -->
<g id="edge11" class="edge"><title>Node8&#45;&gt;Node4</title>
<path fill="none" stroke="midnightblue" d="M243.931,-105.27C248.62,-96.0587 254.11,-85.2766 257.926,-77.7795"/>
<polygon fill="midnightblue" stroke="midnightblue" points="240.692,-103.918 239.274,-114.418 246.93,-107.094 240.692,-103.918"/>
</g>
<!-- Node9 -->
<g id="node9" class="node"><title>Node9</title>
<g id="a_node9"><a xlink:href="Muon_8cc.html" target="_top" xlink:title="Objects/src/Muon.cc">
<polygon fill="white" stroke="black" points="344.367,-57.5 344.367,-77.5 450.934,-77.5 450.934,-57.5 344.367,-57.5"/>
<text text-anchor="middle" x="397.65" y="-64.5" font-family="Helvetica,sans-Serif" font-size="10.00">Objects/src/Muon.cc</text>
</a>
</g>
</g>
<!-- Node8&#45;&gt;Node9 -->
<g id="edge12" class="edge"><title>Node8&#45;&gt;Node9</title>
<path fill="none" stroke="midnightblue" d="M271.333,-111.122C301.6,-100.91 343.835,-86.6584 370.965,-77.5042"/>
<polygon fill="midnightblue" stroke="midnightblue" points="269.923,-107.904 261.566,-114.418 272.161,-114.537 269.923,-107.904"/>
</g>
</g>
</svg>
