<?xml version="1.0" encoding="UTF-8" standalone="no"?>
<!DOCTYPE svg PUBLIC "-//W3C//DTD SVG 1.1//EN"
 "http://www.w3.org/Graphics/SVG/1.1/DTD/svg11.dtd">
<!-- Generated by graphviz version 2.38.0 (20140413.2041)
 -->
<!-- Title: Objects/interface/Met.h Pages: 1 -->
<svg width="402pt" height="200pt"
 viewBox="0.00 0.00 401.61 200.00" xmlns="http://www.w3.org/2000/svg" xmlns:xlink="http://www.w3.org/1999/xlink">
<g id="graph0" class="graph" transform="scale(1 1) rotate(0) translate(4 196)">
<title>Objects/interface/Met.h</title>
<polygon fill="white" stroke="none" points="-4,4 -4,-196 397.61,-196 397.61,4 -4,4"/>
<!-- Node1 -->
<g id="node1" class="node"><title>Node1</title>
<polygon fill="#bfbfbf" stroke="black" points="115.774,-171.5 115.774,-191.5 234.574,-191.5 234.574,-171.5 115.774,-171.5"/>
<text text-anchor="middle" x="175.174" y="-178.5" font-family="Helvetica,sans-Serif" font-size="10.00">Objects/interface/Met.h</text>
</g>
<!-- Node2 -->
<g id="node2" class="node"><title>Node2</title>
<g id="a_node2"><a xlink:href="LinkDef_8h.html" target="_top" xlink:title="obj/LinkDef.h">
<polygon fill="white" stroke="black" points="-2.84217e-14,-0.5 -2.84217e-14,-20.5 74.348,-20.5 74.348,-0.5 -2.84217e-14,-0.5"/>
<text text-anchor="middle" x="37.174" y="-7.5" font-family="Helvetica,sans-Serif" font-size="10.00">obj/LinkDef.h</text>
</a>
</g>
</g>
<!-- Node1&#45;&gt;Node2 -->
<g id="edge1" class="edge"><title>Node1&#45;&gt;Node2</title>
<path fill="none" stroke="midnightblue" d="M105.73,-171.379C83.3064,-164.887 60.5506,-153.824 46.174,-135 19.686,-100.317 29.5471,-42.9825 34.7656,-20.7288"/>
<polygon fill="midnightblue" stroke="midnightblue" points="105.074,-174.825 115.635,-173.971 106.846,-168.053 105.074,-174.825"/>
</g>
<!-- Node3 -->
<g id="node3" class="node"><title>Node3</title>
<g id="a_node3"><a xlink:href="RecoMet_8h.html" target="_top" xlink:title="Objects/interface/RecoMet.h">
<polygon fill="white" stroke="black" points="55.1055,-114.5 55.1055,-134.5 197.242,-134.5 197.242,-114.5 55.1055,-114.5"/>
<text text-anchor="middle" x="126.174" y="-121.5" font-family="Helvetica,sans-Serif" font-size="10.00">Objects/interface/RecoMet.h</text>
</a>
</g>
</g>
<!-- Node1&#45;&gt;Node3 -->
<g id="edge2" class="edge"><title>Node1&#45;&gt;Node3</title>
<path fill="none" stroke="midnightblue" d="M160.229,-163.725C151.756,-154.215 141.476,-142.675 134.441,-134.779"/>
<polygon fill="midnightblue" stroke="midnightblue" points="157.817,-166.279 167.083,-171.418 163.044,-161.623 157.817,-166.279"/>
</g>
<!-- Node4 -->
<g id="node4" class="node"><title>Node4</title>
<g id="a_node4"><a xlink:href="Event_8h.html" target="_top" xlink:title="Objects/interface/Event.h">
<polygon fill="white" stroke="black" points="205.324,-57.5 205.324,-77.5 333.023,-77.5 333.023,-57.5 205.324,-57.5"/>
<text text-anchor="middle" x="269.174" y="-64.5" font-family="Helvetica,sans-Serif" font-size="10.00">Objects/interface/Event.h</text>
</a>
</g>
</g>
<!-- Node1&#45;&gt;Node4 -->
<g id="edge9" class="edge"><title>Node1&#45;&gt;Node4</title>
<path fill="none" stroke="midnightblue" d="M189.5,-163.431C209.629,-139.448 245.586,-96.6054 261.375,-77.7921"/>
<polygon fill="midnightblue" stroke="midnightblue" points="186.614,-161.425 182.866,-171.335 191.976,-165.925 186.614,-161.425"/>
</g>
<!-- Node8 -->
<g id="node8" class="node"><title>Node8</title>
<g id="a_node8"><a xlink:href="Met_8cc.html" target="_top" xlink:title="Objects/src/Met.cc">
<polygon fill="white" stroke="black" points="253.06,-114.5 253.06,-134.5 351.288,-134.5 351.288,-114.5 253.06,-114.5"/>
<text text-anchor="middle" x="302.174" y="-121.5" font-family="Helvetica,sans-Serif" font-size="10.00">Objects/src/Met.cc</text>
</a>
</g>
</g>
<!-- Node1&#45;&gt;Node8 -->
<g id="edge10" class="edge"><title>Node1&#45;&gt;Node8</title>
<path fill="none" stroke="midnightblue" d="M205.589,-167.328C228.939,-157.216 260.571,-143.517 281.171,-134.596"/>
<polygon fill="midnightblue" stroke="midnightblue" points="203.931,-164.232 196.145,-171.418 206.713,-170.656 203.931,-164.232"/>
</g>
<!-- Node3&#45;&gt;Node2 -->
<g id="edge3" class="edge"><title>Node3&#45;&gt;Node2</title>
<path fill="none" stroke="midnightblue" d="M95.2981,-109.729C81.5246,-102.167 66.182,-91.5444 56.174,-78 43.1874,-60.4244 39.0629,-34.2279 37.7636,-20.5516"/>
<polygon fill="midnightblue" stroke="midnightblue" points="94.0061,-113.001 104.498,-114.475 97.215,-106.78 94.0061,-113.001"/>
</g>
<!-- Node3&#45;&gt;Node4 -->
<g id="edge4" class="edge"><title>Node3&#45;&gt;Node4</title>
<path fill="none" stroke="midnightblue" d="M159.37,-110.732C185.757,-100.584 222.019,-86.6367 245.525,-77.5956"/>
<polygon fill="midnightblue" stroke="midnightblue" points="157.865,-107.561 149.788,-114.418 160.377,-114.095 157.865,-107.561"/>
</g>
<!-- Node7 -->
<g id="node7" class="node"><title>Node7</title>
<g id="a_node7"><a xlink:href="RecoMet_8cc.html" target="_top" xlink:title="Objects/src/RecoMet.cc">
<polygon fill="white" stroke="black" points="65.3915,-57.5 65.3915,-77.5 186.956,-77.5 186.956,-57.5 65.3915,-57.5"/>
<text text-anchor="middle" x="126.174" y="-64.5" font-family="Helvetica,sans-Serif" font-size="10.00">Objects/src/RecoMet.cc</text>
</a>
</g>
</g>
<!-- Node3&#45;&gt;Node7 -->
<g id="edge8" class="edge"><title>Node3&#45;&gt;Node7</title>
<path fill="none" stroke="midnightblue" d="M126.174,-104.383C126.174,-95.3738 126.174,-85.0373 126.174,-77.7795"/>
<polygon fill="midnightblue" stroke="midnightblue" points="122.674,-104.418 126.174,-114.418 129.674,-104.418 122.674,-104.418"/>
</g>
<!-- Node4&#45;&gt;Node2 -->
<g id="edge5" class="edge"><title>Node4&#45;&gt;Node2</title>
<path fill="none" stroke="midnightblue" d="M221.329,-55.1575C177.782,-44.8337 114.376,-29.8023 74.4765,-20.3433"/>
<polygon fill="midnightblue" stroke="midnightblue" points="220.586,-58.5782 231.124,-57.4795 222.201,-51.767 220.586,-58.5782"/>
</g>
<!-- Node5 -->
<g id="node5" class="node"><title>Node5</title>
<g id="a_node5"><a xlink:href="Event_8cc.html" target="_top" xlink:title="Objects/src/Event.cc">
<polygon fill="white" stroke="black" points="153.61,-0.5 153.61,-20.5 260.737,-20.5 260.737,-0.5 153.61,-0.5"/>
<text text-anchor="middle" x="207.174" y="-7.5" font-family="Helvetica,sans-Serif" font-size="10.00">Objects/src/Event.cc</text>
</a>
</g>
</g>
<!-- Node4&#45;&gt;Node5 -->
<g id="edge6" class="edge"><title>Node4&#45;&gt;Node5</title>
<path fill="none" stroke="midnightblue" d="M251.232,-50.5841C240.336,-40.9177 226.805,-28.9147 217.634,-20.7795"/>
<polygon fill="midnightblue" stroke="midnightblue" points="249.133,-53.4 258.936,-57.4179 253.778,-48.1634 249.133,-53.4"/>
</g>
<!-- Node6 -->
<g id="node6" class="node"><title>Node6</title>
<g id="a_node6"><a xlink:href="FileMerger_8cc.html" target="_top" xlink:title="Utils/src/FileMerger.cc">
<polygon fill="white" stroke="black" points="278.738,-0.5 278.738,-20.5 393.61,-20.5 393.61,-0.5 278.738,-0.5"/>
<text text-anchor="middle" x="336.174" y="-7.5" font-family="Helvetica,sans-Serif" font-size="10.00">Utils/src/FileMerger.cc</text>
</a>
</g>
</g>
<!-- Node4&#45;&gt;Node6 -->
<g id="edge7" class="edge"><title>Node4&#45;&gt;Node6</title>
<path fill="none" stroke="midnightblue" d="M288.217,-50.8678C300.051,-41.1535 314.863,-28.9944 324.87,-20.7795"/>
<polygon fill="midnightblue" stroke="midnightblue" points="285.746,-48.3676 280.238,-57.4179 290.188,-53.7782 285.746,-48.3676"/>
</g>
</g>
</svg>
