<?xml version="1.0" encoding="UTF-8" standalone="no"?>
<!DOCTYPE svg PUBLIC "-//W3C//DTD SVG 1.1//EN"
 "http://www.w3.org/Graphics/SVG/1.1/DTD/svg11.dtd">
<!-- Generated by graphviz version 2.38.0 (20140413.2041)
 -->
<!-- Title: Objects/interface/MicroJet.h Pages: 1 -->
<!--zoomable 257 -->
<svg id="main" version="1.1" xmlns="http://www.w3.org/2000/svg" xmlns:xlink="http://www.w3.org/1999/xlink" xml:space="preserve" onload="init(evt)">
<style type="text/css"><![CDATA[
.edge:hover path { stroke: red; }
.edge:hover polygon { stroke: red; fill: red; }
]]></style>
<script type="text/javascript"><![CDATA[
var edges = document.getElementsByTagName('g');
if (edges && edges.length) {
  for (var i=0;i<edges.length;i++) {
    if (edges[i].id.substr(0,4)=='edge') {
      edges[i].setAttribute('class','edge');
    }
  }
}
]]></script>
        <defs>
                <circle id="rim" cx="0" cy="0" r="7"/>
                <circle id="rim2" cx="0" cy="0" r="3.5"/>
                <g id="zoomPlus">
                        <use xlink:href="#rim" fill="#404040">
                                <set attributeName="fill" to="#808080" begin="zoomplus.mouseover" end="zoomplus.mouseout"/>
                        </use>
                        <path d="M-4,0h8M0,-4v8" fill="none" stroke="white" stroke-width="1.5" pointer-events="none"/>
                </g>
                <g id="zoomMin">
                        <use xlink:href="#rim" fill="#404040">
                                <set attributeName="fill" to="#808080" begin="zoomminus.mouseover" end="zoomminus.mouseout"/>
                        </use>
                        <path d="M-4,0h8" fill="none" stroke="white" stroke-width="1.5" pointer-events="none"/>
                </g>
                <g id="dirArrow">
                        <path fill="none" stroke="white" stroke-width="1.5" d="M0,-3.0v7 M-2.5,-0.5L0,-3.0L2.5,-0.5"/>
                </g>
               <g id="resetDef">
                       <use xlink:href="#rim2" fill="#404040">
                               <set attributeName="fill" to="#808080" begin="reset.mouseover" end="reset.mouseout"/>
                       </use>
               </g>
        </defs>

<script type="text/javascript">
var viewWidth = 532;
var viewHeight = 257;
var sectionId = 'dynsection-1';
</script>
<script xlink:href="svgpan.js"/>
<svg id="graph" class="graph">
<g id="viewport">
<title>Objects/interface/MicroJet.h</title>
<polygon fill="white" stroke="none" points="-4,4 -4,-253 527.806,-253 527.806,4 -4,4"/>
<!-- Node1 -->
<g id="node1" class="node"><title>Node1</title>
<polygon fill="#bfbfbf" stroke="black" points="137.185,-228.5 137.185,-248.5 277.092,-248.5 277.092,-228.5 137.185,-228.5"/>
<text text-anchor="middle" x="207.139" y="-235.5" font-family="Helvetica,sans-Serif" font-size="10.00">Objects/interface/MicroJet.h</text>
</g>
<!-- Node2 -->
<g id="node2" class="node"><title>Node2</title>
<g id="a_node2"><a xlink:href="LinkDef_8h.html" target="_top" xlink:title="obj/LinkDef.h">
<polygon fill="white" stroke="black" points="116.965,-0.5 116.965,-20.5 191.313,-20.5 191.313,-0.5 116.965,-0.5"/>
<text text-anchor="middle" x="154.139" y="-7.5" font-family="Helvetica,sans-Serif" font-size="10.00">obj/LinkDef.h</text>
</a>
</g>
</g>
<!-- Node1&#45;&gt;Node2 -->
<g id="edge1" class="edge"><title>Node1&#45;&gt;Node2</title>
<path fill="none" stroke="midnightblue" d="M179.726,-223.767C162.268,-214.914 139.239,-203.033 119.139,-192 74.9683,-167.755 52.6231,-174.34 21.1389,-135 4.53889,-114.258 7.18611,-104.256 3.13887,-78 1.71699,-68.7756 -2.42793,-64.4914 3.13887,-57 29.1041,-22.0576 81.065,-12.9683 116.714,-11.0969"/>
<polygon fill="midnightblue" stroke="midnightblue" points="178.293,-226.965 188.797,-228.35 181.45,-220.717 178.293,-226.965"/>
</g>
<!-- Node3 -->
<g id="node3" class="node"><title>Node3</title>
<g id="a_node3"><a xlink:href="Jet_8h.html" target="_top" xlink:title="Objects/interface/Jet.h">
<polygon fill="white" stroke="black" points="149.403,-171.5 149.403,-191.5 264.874,-191.5 264.874,-171.5 149.403,-171.5"/>
<text text-anchor="middle" x="207.139" y="-178.5" font-family="Helvetica,sans-Serif" font-size="10.00">Objects/interface/Jet.h</text>
</a>
</g>
</g>
<!-- Node1&#45;&gt;Node3 -->
<g id="edge2" class="edge"><title>Node1&#45;&gt;Node3</title>
<path fill="none" stroke="midnightblue" d="M207.139,-218.383C207.139,-209.374 207.139,-199.037 207.139,-191.779"/>
<polygon fill="midnightblue" stroke="midnightblue" points="203.639,-218.418 207.139,-228.418 210.639,-218.418 203.639,-218.418"/>
</g>
<!-- Node4 -->
<g id="node4" class="node"><title>Node4</title>
<g id="a_node4"><a xlink:href="FatJet_8h.html" target="_top" xlink:title="Objects/interface/FatJet.h">
<polygon fill="white" stroke="black" points="30.1799,-114.5 30.1799,-134.5 160.098,-134.5 160.098,-114.5 30.1799,-114.5"/>
<text text-anchor="middle" x="95.1389" y="-121.5" font-family="Helvetica,sans-Serif" font-size="10.00">Objects/interface/FatJet.h</text>
</a>
</g>
</g>
<!-- Node1&#45;&gt;Node4 -->
<g id="edge13" class="edge"><title>Node1&#45;&gt;Node4</title>
<path fill="none" stroke="midnightblue" d="M181.47,-223.266C168.221,-215.165 152.327,-204.208 140.139,-192 122.411,-174.243 107.365,-148.58 99.9948,-134.908"/>
<polygon fill="midnightblue" stroke="midnightblue" points="179.753,-226.317 190.142,-228.399 183.319,-220.293 179.753,-226.317"/>
</g>
<!-- Node5 -->
<g id="node5" class="node"><title>Node5</title>
<g id="a_node5"><a xlink:href="Event_8h.html" target="_top" xlink:title="Objects/interface/Event.h">
<polygon fill="white" stroke="black" points="216.289,-57.5 216.289,-77.5 343.988,-77.5 343.988,-57.5 216.289,-57.5"/>
<text text-anchor="middle" x="280.139" y="-64.5" font-family="Helvetica,sans-Serif" font-size="10.00">Objects/interface/Event.h</text>
</a>
</g>
</g>
<!-- Node1&#45;&gt;Node5 -->
<g id="edge14" class="edge"><title>Node1&#45;&gt;Node5</title>
<path fill="none" stroke="midnightblue" d="M243.167,-224.548C279.43,-209.34 333.303,-180.284 357.139,-135 370.878,-108.897 333.924,-88.5512 306.569,-77.5592"/>
<polygon fill="midnightblue" stroke="midnightblue" points="241.409,-221.483 233.446,-228.472 244.029,-227.974 241.409,-221.483"/>
</g>
<!-- Node10 -->
<g id="node10" class="node"><title>Node10</title>
<g id="a_node10"><a xlink:href="MicroJet_8cc.html" target="_top" xlink:title="Objects/src/MicroJet.cc">
<polygon fill="white" stroke="black" points="404.471,-171.5 404.471,-191.5 523.806,-191.5 523.806,-171.5 404.471,-171.5"/>
<text text-anchor="middle" x="464.139" y="-178.5" font-family="Helvetica,sans-Serif" font-size="10.00">Objects/src/MicroJet.cc</text>
</a>
</g>
</g>
<!-- Node1&#45;&gt;Node10 -->
<g id="edge15" class="edge"><title>Node1&#45;&gt;Node10</title>
<path fill="none" stroke="midnightblue" d="M259.167,-226.366C307.125,-216.102 377.419,-201.059 421.965,-191.525"/>
<polygon fill="midnightblue" stroke="midnightblue" points="258.336,-222.964 249.289,-228.479 259.8,-229.809 258.336,-222.964"/>
</g>
<!-- Node3&#45;&gt;Node2 -->
<g id="edge3" class="edge"><title>Node3&#45;&gt;Node2</title>
<path fill="none" stroke="midnightblue" d="M201.215,-161.611C189.848,-125.364 165.36,-47.2819 157.002,-20.6311"/>
<polygon fill="midnightblue" stroke="midnightblue" points="197.957,-162.919 204.289,-171.414 204.637,-160.825 197.957,-162.919"/>
</g>
<!-- Node3&#45;&gt;Node4 -->
<g id="edge4" class="edge"><title>Node3&#45;&gt;Node4</title>
<path fill="none" stroke="midnightblue" d="M179.485,-166.92C158.978,-156.85 131.585,-143.398 113.661,-134.596"/>
<polygon fill="midnightblue" stroke="midnightblue" points="178.125,-170.152 188.644,-171.418 181.211,-163.868 178.125,-170.152"/>
</g>
<!-- Node3&#45;&gt;Node5 -->
<g id="edge11" class="edge"><title>Node3&#45;&gt;Node5</title>
<path fill="none" stroke="midnightblue" d="M216.618,-162.386C223.944,-148.784 234.583,-129.853 245.139,-114 253.866,-100.893 265.153,-86.6332 272.515,-77.6362"/>
<polygon fill="midnightblue" stroke="midnightblue" points="213.522,-160.755 211.919,-171.228 219.703,-164.041 213.522,-160.755"/>
</g>
<!-- Node9 -->
<g id="node9" class="node"><title>Node9</title>
<g id="a_node9"><a xlink:href="Jet_8cc.html" target="_top" xlink:title="Objects/src/Jet.cc">
<polygon fill="white" stroke="black" points="253.689,-114.5 253.689,-134.5 348.588,-134.5 348.588,-114.5 253.689,-114.5"/>
<text text-anchor="middle" x="301.139" y="-121.5" font-family="Helvetica,sans-Serif" font-size="10.00">Objects/src/Jet.cc</text>
</a>
</g>
</g>
<!-- Node3&#45;&gt;Node9 -->
<g id="edge12" class="edge"><title>Node3&#45;&gt;Node9</title>
<path fill="none" stroke="midnightblue" d="M231.525,-166.231C248.595,-156.243 270.89,-143.199 285.594,-134.596"/>
<polygon fill="midnightblue" stroke="midnightblue" points="229.525,-163.347 222.661,-171.418 233.06,-169.389 229.525,-163.347"/>
</g>
<!-- Node4&#45;&gt;Node2 -->
<g id="edge5" class="edge"><title>Node4&#45;&gt;Node2</title>
<path fill="none" stroke="midnightblue" d="M110.665,-106.708C117.637,-98.5115 125.536,-88.2282 131.139,-78 141.704,-58.7151 148.783,-33.673 152.055,-20.5039"/>
<polygon fill="midnightblue" stroke="midnightblue" points="107.865,-104.591 103.871,-114.404 113.113,-109.224 107.865,-104.591"/>
</g>
<!-- Node4&#45;&gt;Node5 -->
<g id="edge6" class="edge"><title>Node4&#45;&gt;Node5</title>
<path fill="none" stroke="midnightblue" d="M135.435,-111.52C169.871,-101.282 218.659,-86.7779 249.852,-77.5042"/>
<polygon fill="midnightblue" stroke="midnightblue" points="134.276,-108.213 125.688,-114.418 136.271,-114.923 134.276,-108.213"/>
</g>
<!-- Node8 -->
<g id="node8" class="node"><title>Node8</title>
<g id="a_node8"><a xlink:href="FatJet_8cc.html" target="_top" xlink:title="Objects/src/FatJet.cc">
<polygon fill="white" stroke="black" points="12.4659,-57.5 12.4659,-77.5 121.812,-77.5 121.812,-57.5 12.4659,-57.5"/>
<text text-anchor="middle" x="67.1389" y="-64.5" font-family="Helvetica,sans-Serif" font-size="10.00">Objects/src/FatJet.cc</text>
</a>
</g>
</g>
<!-- Node4&#45;&gt;Node8 -->
<g id="edge10" class="edge"><title>Node4&#45;&gt;Node8</title>
<path fill="none" stroke="midnightblue" d="M85.8579,-105.27C81.1688,-96.0587 75.6797,-85.2766 71.863,-77.7795"/>
<polygon fill="midnightblue" stroke="midnightblue" points="82.8593,-107.094 90.5152,-114.418 89.0974,-103.918 82.8593,-107.094"/>
</g>
<!-- Node5&#45;&gt;Node2 -->
<g id="edge7" class="edge"><title>Node5&#45;&gt;Node2</title>
<path fill="none" stroke="midnightblue" d="M249.963,-53.328C226.797,-43.2159 195.415,-29.5172 174.976,-20.5956"/>
<polygon fill="midnightblue" stroke="midnightblue" points="248.767,-56.625 259.333,-57.4179 251.568,-50.2095 248.767,-56.625"/>
</g>
<!-- Node6 -->
<g id="node6" class="node"><title>Node6</title>
<g id="a_node6"><a xlink:href="Event_8cc.html" target="_top" xlink:title="Objects/src/Event.cc">
<polygon fill="white" stroke="black" points="350.575,-0.5 350.575,-20.5 457.702,-20.5 457.702,-0.5 350.575,-0.5"/>
<text text-anchor="middle" x="404.139" y="-7.5" font-family="Helvetica,sans-Serif" font-size="10.00">Objects/src/Event.cc</text>
</a>
</g>
</g>
<!-- Node5&#45;&gt;Node6 -->
<g id="edge8" class="edge"><title>Node5&#45;&gt;Node6</title>
<path fill="none" stroke="midnightblue" d="M309.836,-53.328C332.634,-43.2159 363.518,-29.5172 383.632,-20.5956"/>
<polygon fill="midnightblue" stroke="midnightblue" points="308.337,-50.1639 300.615,-57.4179 311.175,-56.5627 308.337,-50.1639"/>
</g>
<!-- Node7 -->
<g id="node7" class="node"><title>Node7</title>
<g id="a_node7"><a xlink:href="FileMerger_8cc.html" target="_top" xlink:title="Utils/src/FileMerger.cc">
<polygon fill="white" stroke="black" points="217.703,-0.5 217.703,-20.5 332.575,-20.5 332.575,-0.5 217.703,-0.5"/>
<text text-anchor="middle" x="275.139" y="-7.5" font-family="Helvetica,sans-Serif" font-size="10.00">Utils/src/FileMerger.cc</text>
</a>
</g>
</g>
<!-- Node5&#45;&gt;Node7 -->
<g id="edge9" class="edge"><title>Node5&#45;&gt;Node7</title>
<path fill="none" stroke="midnightblue" d="M278.401,-47.383C277.582,-38.3738 276.642,-28.0373 275.982,-20.7795"/>
<polygon fill="midnightblue" stroke="midnightblue" points="274.922,-47.7758 279.313,-57.4179 281.893,-47.142 274.922,-47.7758"/>
</g>
</g>
</svg>
        <g id="navigator" transform="translate(0 0)" fill="#404254">
                <rect fill="#f2f5e9" fill-opacity="0.5" stroke="#606060" stroke-width=".5" x="0" y="0" width="60" height="60"/>
                <use id="zoomplus" xlink:href="#zoomPlus" x="17" y="9" onmousedown="handleZoom(evt,'in')"/>
                <use id="zoomminus" xlink:href="#zoomMin" x="42" y="9" onmousedown="handleZoom(evt,'out')"/>
                <use id="reset" xlink:href="#resetDef" x="30" y="36" onmousedown="handleReset()"/>
                <g id="arrowUp" xlink:href="#dirArrow" transform="translate(30 24)" onmousedown="handlePan(0,-1)">
                  <use xlink:href="#rim" fill="#404040">
                        <set attributeName="fill" to="#808080" begin="arrowUp.mouseover" end="arrowUp.mouseout"/>
                  </use>
                  <path fill="none" stroke="white" stroke-width="1.5" d="M0,-3.0v7 M-2.5,-0.5L0,-3.0L2.5,-0.5"/>
                </g>
                <g id="arrowRight" xlink:href="#dirArrow" transform="rotate(90) translate(36 -43)" onmousedown="handlePan(1,0)">
                  <use xlink:href="#rim" fill="#404040">
                        <set attributeName="fill" to="#808080" begin="arrowRight.mouseover" end="arrowRight.mouseout"/>
                  </use>
                  <path fill="none" stroke="white" stroke-width="1.5" d="M0,-3.0v7 M-2.5,-0.5L0,-3.0L2.5,-0.5"/>
                </g>
                <g id="arrowDown" xlink:href="#dirArrow" transform="rotate(180) translate(-30 -48)" onmousedown="handlePan(0,1)">
                  <use xlink:href="#rim" fill="#404040">
                        <set attributeName="fill" to="#808080" begin="arrowDown.mouseover" end="arrowDown.mouseout"/>
                  </use>
                  <path fill="none" stroke="white" stroke-width="1.5" d="M0,-3.0v7 M-2.5,-0.5L0,-3.0L2.5,-0.5"/>
                </g>
                <g id="arrowLeft" xlink:href="#dirArrow" transform="rotate(270) translate(-36 17)" onmousedown="handlePan(-1,0)">
                  <use xlink:href="#rim" fill="#404040">
                        <set attributeName="fill" to="#808080" begin="arrowLeft.mouseover" end="arrowLeft.mouseout"/>
                  </use>
                  <path fill="none" stroke="white" stroke-width="1.5" d="M0,-3.0v7 M-2.5,-0.5L0,-3.0L2.5,-0.5"/>
                </g>
        </g>
        <svg viewBox="0 0 15 15" width="100%" height="30px" preserveAspectRatio="xMaxYMin meet">
         <g id="arrow_out" transform="scale(0.3 0.3)">
          <a xlink:href="MicroJet_8h__dep__incl_org.svg" target="_base">
           <rect id="button" ry="5" rx="5" y="6" x="6" height="38" width="38"
                fill="#f2f5e9" fill-opacity="0.5" stroke="#606060" stroke-width="1.0"/>
           <path id="arrow"
             d="M 11.500037,31.436501 C 11.940474,20.09759 22.043105,11.32322 32.158766,21.979434 L 37.068811,17.246167 C 37.068811,17.246167 37.088388,32 37.088388,32 L 22.160133,31.978069 C 22.160133,31.978069 26.997745,27.140456 26.997745,27.140456 C 18.528582,18.264221 13.291696,25.230495 11.500037,31.436501 z"
             style="fill:#404040;"/>
          </a>
         </g>
        </svg>
</svg>
