<?xml version="1.0" encoding="UTF-8" standalone="no"?>
<!DOCTYPE svg PUBLIC "-//W3C//DTD SVG 1.1//EN"
 "http://www.w3.org/Graphics/SVG/1.1/DTD/svg11.dtd">
<!-- Generated by graphviz version 2.38.0 (20140413.2041)
 -->
<!-- Title: Objects/src/Muon.cc Pages: 1 -->
<!--zoomable 749 -->
<svg id="main" version="1.1" xmlns="http://www.w3.org/2000/svg" xmlns:xlink="http://www.w3.org/1999/xlink" xml:space="preserve" onload="init(evt)">
<style type="text/css"><![CDATA[
.edge:hover path { stroke: red; }
.edge:hover polygon { stroke: red; fill: red; }
]]></style>
<script type="text/javascript"><![CDATA[
var edges = document.getElementsByTagName('g');
if (edges && edges.length) {
  for (var i=0;i<edges.length;i++) {
    if (edges[i].id.substr(0,4)=='edge') {
      edges[i].setAttribute('class','edge');
    }
  }
}
]]></script>
        <defs>
                <circle id="rim" cx="0" cy="0" r="7"/>
                <circle id="rim2" cx="0" cy="0" r="3.5"/>
                <g id="zoomPlus">
                        <use xlink:href="#rim" fill="#404040">
                                <set attributeName="fill" to="#808080" begin="zoomplus.mouseover" end="zoomplus.mouseout"/>
                        </use>
                        <path d="M-4,0h8M0,-4v8" fill="none" stroke="white" stroke-width="1.5" pointer-events="none"/>
                </g>
                <g id="zoomMin">
                        <use xlink:href="#rim" fill="#404040">
                                <set attributeName="fill" to="#808080" begin="zoomminus.mouseover" end="zoomminus.mouseout"/>
                        </use>
                        <path d="M-4,0h8" fill="none" stroke="white" stroke-width="1.5" pointer-events="none"/>
                </g>
                <g id="dirArrow">
                        <path fill="none" stroke="white" stroke-width="1.5" d="M0,-3.0v7 M-2.5,-0.5L0,-3.0L2.5,-0.5"/>
                </g>
               <g id="resetDef">
                       <use xlink:href="#rim2" fill="#404040">
                               <set attributeName="fill" to="#808080" begin="reset.mouseover" end="reset.mouseout"/>
                       </use>
               </g>
        </defs>

<script type="text/javascript">
var viewWidth = 1209;
var viewHeight = 749;
var sectionId = 'dynsection-0';
</script>
<script xlink:href="svgpan.js"/>
<svg id="graph" class="graph">
<g id="viewport">
<title>Objects/src/Muon.cc</title>
<polygon fill="white" stroke="none" points="-4,4 -4,-745 1204.9,-745 1204.9,4 -4,4"/>
<!-- Node1 -->
<g id="node1" class="node"><title>Node1</title>
<polygon fill="#bfbfbf" stroke="black" points="893.439,-720.5 893.439,-740.5 1000.01,-740.5 1000.01,-720.5 893.439,-720.5"/>
<text text-anchor="middle" x="946.722" y="-727.5" font-family="Helvetica,sans-Serif" font-size="10.00">Objects/src/Muon.cc</text>
</g>
<!-- Node2 -->
<g id="node2" class="node"><title>Node2</title>
<g id="a_node2"><a xlink:href="Muon_8h.html" target="_top" xlink:title="../interface/Muon.h">
<polygon fill="white" stroke="black" points="897.322,-663.5 897.322,-683.5 996.123,-683.5 996.123,-663.5 897.322,-663.5"/>
<text text-anchor="middle" x="946.722" y="-670.5" font-family="Helvetica,sans-Serif" font-size="10.00">../interface/Muon.h</text>
</a>
</g>
</g>
<!-- Node1&#45;&gt;Node2 -->
<g id="edge1" class="edge"><title>Node1&#45;&gt;Node2</title>
<path fill="none" stroke="midnightblue" d="M946.722,-720.418C946.722,-713.216 946.722,-702.896 946.722,-693.863"/>
<polygon fill="midnightblue" stroke="midnightblue" points="950.223,-693.779 946.722,-683.779 943.223,-693.779 950.223,-693.779"/>
</g>
<!-- Node3 -->
<g id="node3" class="node"><title>Node3</title>
<g id="a_node3"><a xlink:href="Constants_8h.html" target="_top" xlink:title="Constants.h">
<polygon fill="white" stroke="black" points="380.047,-372.5 380.047,-392.5 449.398,-392.5 449.398,-372.5 380.047,-372.5"/>
<text text-anchor="middle" x="414.722" y="-379.5" font-family="Helvetica,sans-Serif" font-size="10.00">Constants.h</text>
</a>
</g>
</g>
<!-- Node2&#45;&gt;Node3 -->
<g id="edge2" class="edge"><title>Node2&#45;&gt;Node3</title>
<path fill="none" stroke="midnightblue" d="M897.059,-671.4C774.164,-667.337 465.722,-648.384 465.722,-560.5 465.722,-560.5 465.722,-560.5 465.722,-501.5 465.722,-463.225 442.834,-423.275 427.724,-401.071"/>
<polygon fill="midnightblue" stroke="midnightblue" points="430.44,-398.85 421.814,-392.699 424.721,-402.887 430.44,-398.85"/>
</g>
<!-- Node11 -->
<g id="node11" class="node"><title>Node11</title>
<g id="a_node11"><a xlink:href="Lepton_8h.html" target="_top" xlink:title="Lepton.h">
<polygon fill="white" stroke="black" points="919.266,-606.5 919.266,-626.5 974.178,-626.5 974.178,-606.5 919.266,-606.5"/>
<text text-anchor="middle" x="946.722" y="-613.5" font-family="Helvetica,sans-Serif" font-size="10.00">Lepton.h</text>
</a>
</g>
</g>
<!-- Node2&#45;&gt;Node11 -->
<g id="edge10" class="edge"><title>Node2&#45;&gt;Node11</title>
<path fill="none" stroke="midnightblue" d="M946.722,-663.418C946.722,-656.216 946.722,-645.896 946.722,-636.863"/>
<polygon fill="midnightblue" stroke="midnightblue" points="950.223,-636.779 946.722,-626.779 943.223,-636.779 950.223,-636.779"/>
</g>
<!-- Node18 -->
<g id="node18" class="node"><title>Node18</title>
<g id="a_node18"><a xlink:href="Container_8h.html" target="_top" xlink:title="../../Framework/interface\l/Container.h">
<polygon fill="white" stroke="black" points="663.829,-366.5 663.829,-398.5 787.616,-398.5 787.616,-366.5 663.829,-366.5"/>
<text text-anchor="start" x="671.829" y="-385.5" font-family="Helvetica,sans-Serif" font-size="10.00">../../Framework/interface</text>
<text text-anchor="middle" x="725.722" y="-373.5" font-family="Helvetica,sans-Serif" font-size="10.00">/Container.h</text>
</a>
</g>
</g>
<!-- Node2&#45;&gt;Node18 -->
<g id="edge68" class="edge"><title>Node2&#45;&gt;Node18</title>
<path fill="none" stroke="midnightblue" d="M897.092,-667.877C796.644,-657.145 578.722,-626.281 578.722,-560.5 578.722,-560.5 578.722,-560.5 578.722,-501.5 578.722,-452.668 628.664,-420.672 670.328,-402.476"/>
<polygon fill="midnightblue" stroke="midnightblue" points="671.745,-405.678 679.614,-398.583 669.039,-399.222 671.745,-405.678"/>
</g>
<!-- Node29 -->
<g id="node29" class="node"><title>Node29</title>
<g id="a_node29"><a xlink:href="Ref_8h.html" target="_top" xlink:title="../../Framework/interface\l/Ref.h">
<polygon fill="white" stroke="black" points="972.829,-297.5 972.829,-329.5 1096.62,-329.5 1096.62,-297.5 972.829,-297.5"/>
<text text-anchor="start" x="980.829" y="-316.5" font-family="Helvetica,sans-Serif" font-size="10.00">../../Framework/interface</text>
<text text-anchor="middle" x="1034.72" y="-304.5" font-family="Helvetica,sans-Serif" font-size="10.00">/Ref.h</text>
</a>
</g>
</g>
<!-- Node2&#45;&gt;Node29 -->
<g id="edge69" class="edge"><title>Node2&#45;&gt;Node29</title>
<path fill="none" stroke="midnightblue" d="M961.267,-663.405C1008.06,-633.089 1154.08,-529.954 1195.72,-399 1200.17,-385.023 1204.37,-377.846 1195.72,-366 1175.34,-338.076 1139.62,-324.946 1106.99,-318.908"/>
<polygon fill="midnightblue" stroke="midnightblue" points="1107.43,-315.432 1096.99,-317.253 1106.28,-322.338 1107.43,-315.432"/>
</g>
<!-- Node30 -->
<g id="node30" class="node"><title>Node30</title>
<g id="a_node30"><a xlink:href="RefVector_8h.html" target="_top" xlink:title="../../Framework/interface\l/RefVector.h">
<polygon fill="white" stroke="black" points="1062.83,-366.5 1062.83,-398.5 1186.62,-398.5 1186.62,-366.5 1062.83,-366.5"/>
<text text-anchor="start" x="1070.83" y="-385.5" font-family="Helvetica,sans-Serif" font-size="10.00">../../Framework/interface</text>
<text text-anchor="middle" x="1124.72" y="-373.5" font-family="Helvetica,sans-Serif" font-size="10.00">/RefVector.h</text>
</a>
</g>
</g>
<!-- Node2&#45;&gt;Node30 -->
<g id="edge70" class="edge"><title>Node2&#45;&gt;Node30</title>
<path fill="none" stroke="midnightblue" d="M961.227,-663.496C986.592,-647.224 1039.64,-610.798 1074.72,-570 1111.03,-527.775 1117.8,-510.97 1126.72,-456 1129.24,-440.505 1128.83,-422.907 1127.75,-408.93"/>
<polygon fill="midnightblue" stroke="midnightblue" points="1131.2,-408.235 1126.78,-398.606 1124.23,-408.889 1131.2,-408.235"/>
</g>
<!-- Node4 -->
<g id="node4" class="node"><title>Node4</title>
<polygon fill="white" stroke="#bfbfbf" points="490.221,-0.5 490.221,-20.5 541.224,-20.5 541.224,-0.5 490.221,-0.5"/>
<text text-anchor="middle" x="515.722" y="-7.5" font-family="Helvetica,sans-Serif" font-size="10.00">TTree.h</text>
</g>
<!-- Node3&#45;&gt;Node4 -->
<g id="edge3" class="edge"><title>Node3&#45;&gt;Node4</title>
<path fill="none" stroke="midnightblue" d="M400.551,-372.191C387.688,-362.994 369.181,-347.754 358.722,-330 340.503,-299.071 339.722,-287.396 339.722,-251.5 339.722,-251.5 339.722,-251.5 339.722,-123.5 339.722,-57.5967 428.643,-28.7951 480.076,-17.6482"/>
<polygon fill="midnightblue" stroke="midnightblue" points="481.036,-21.0242 490.131,-15.5893 479.632,-14.1665 481.036,-21.0242"/>
</g>
<!-- Node5 -->
<g id="node5" class="node"><title>Node5</title>
<polygon fill="white" stroke="#bfbfbf" points="589.442,-0.5 589.442,-20.5 646.003,-20.5 646.003,-0.5 589.442,-0.5"/>
<text text-anchor="middle" x="617.722" y="-7.5" font-family="Helvetica,sans-Serif" font-size="10.00">TString.h</text>
</g>
<!-- Node3&#45;&gt;Node5 -->
<g id="edge4" class="edge"><title>Node3&#45;&gt;Node5</title>
<path fill="none" stroke="midnightblue" d="M419.586,-372.111C427.676,-356.503 444.424,-324.239 458.722,-297 514.813,-190.147 522.663,-159.894 585.722,-57 591.578,-47.446 598.699,-37.2055 604.736,-28.8634"/>
<polygon fill="midnightblue" stroke="midnightblue" points="607.649,-30.8098 610.75,-20.6789 602.008,-26.665 607.649,-30.8098"/>
</g>
<!-- Node6 -->
<g id="node6" class="node"><title>Node6</title>
<polygon fill="white" stroke="#bfbfbf" points="62.9955,-303.5 62.9955,-323.5 118.449,-323.5 118.449,-303.5 62.9955,-303.5"/>
<text text-anchor="middle" x="90.7225" y="-310.5" font-family="Helvetica,sans-Serif" font-size="10.00">Rtypes.h</text>
</g>
<!-- Node3&#45;&gt;Node6 -->
<g id="edge5" class="edge"><title>Node3&#45;&gt;Node6</title>
<path fill="none" stroke="midnightblue" d="M379.694,-377.725C325.05,-371.279 216.569,-356.235 127.722,-330 124.967,-329.186 122.139,-328.233 119.334,-327.205"/>
<polygon fill="midnightblue" stroke="midnightblue" points="120.604,-323.944 110.018,-323.522 118.031,-330.453 120.604,-323.944"/>
</g>
<!-- Node7 -->
<g id="node7" class="node"><title>Node7</title>
<polygon fill="white" stroke="#bfbfbf" points="136.379,-303.5 136.379,-323.5 229.065,-323.5 229.065,-303.5 136.379,-303.5"/>
<text text-anchor="middle" x="182.722" y="-310.5" font-family="Helvetica,sans-Serif" font-size="10.00">TLorentzVector.h</text>
</g>
<!-- Node3&#45;&gt;Node7 -->
<g id="edge6" class="edge"><title>Node3&#45;&gt;Node7</title>
<path fill="none" stroke="midnightblue" d="M383.434,-372.464C342.269,-360.576 269.808,-339.65 224.134,-326.459"/>
<polygon fill="midnightblue" stroke="midnightblue" points="224.835,-323.019 214.256,-323.607 222.893,-329.744 224.835,-323.019"/>
</g>
<!-- Node8 -->
<g id="node8" class="node"><title>Node8</title>
<polygon fill="white" stroke="#bfbfbf" points="247.272,-303.5 247.272,-323.5 312.173,-323.5 312.173,-303.5 247.272,-303.5"/>
<text text-anchor="middle" x="279.722" y="-310.5" font-family="Helvetica,sans-Serif" font-size="10.00">TVector2.h</text>
</g>
<!-- Node3&#45;&gt;Node8 -->
<g id="edge7" class="edge"><title>Node3&#45;&gt;Node8</title>
<path fill="none" stroke="midnightblue" d="M396.516,-372.464C373.568,-361.075 333.908,-341.392 307.25,-328.162"/>
<polygon fill="midnightblue" stroke="midnightblue" points="308.585,-324.917 298.072,-323.607 305.473,-331.187 308.585,-324.917"/>
</g>
<!-- Node9 -->
<g id="node9" class="node"><title>Node9</title>
<polygon fill="white" stroke="#bfbfbf" points="368.109,-303.5 368.109,-323.5 411.335,-323.5 411.335,-303.5 368.109,-303.5"/>
<text text-anchor="middle" x="389.722" y="-310.5" font-family="Helvetica,sans-Serif" font-size="10.00">cmath</text>
</g>
<!-- Node3&#45;&gt;Node9 -->
<g id="edge8" class="edge"><title>Node3&#45;&gt;Node9</title>
<path fill="none" stroke="midnightblue" d="M411.351,-372.464C407.644,-362.53 401.582,-346.284 396.818,-333.516"/>
<polygon fill="midnightblue" stroke="midnightblue" points="399.976,-331.968 393.201,-323.823 393.418,-334.415 399.976,-331.968"/>
</g>
<!-- Node10 -->
<g id="node10" class="node"><title>Node10</title>
<polygon fill="white" stroke="#bfbfbf" points="-2.84217e-14,-303.5 -2.84217e-14,-323.5 45.445,-323.5 45.445,-303.5 -2.84217e-14,-303.5"/>
<text text-anchor="middle" x="22.7225" y="-310.5" font-family="Helvetica,sans-Serif" font-size="10.00">cstring</text>
</g>
<!-- Node3&#45;&gt;Node10 -->
<g id="edge9" class="edge"><title>Node3&#45;&gt;Node10</title>
<path fill="none" stroke="midnightblue" d="M379.816,-380.234C314.42,-377.056 169.598,-366.184 53.7225,-330 51.784,-329.395 49.8178,-328.68 47.865,-327.894"/>
<polygon fill="midnightblue" stroke="midnightblue" points="48.951,-324.542 38.4014,-323.564 46.0382,-330.907 48.951,-324.542"/>
</g>
<!-- Node11&#45;&gt;Node3 -->
<g id="edge11" class="edge"><title>Node11&#45;&gt;Node3</title>
<path fill="none" stroke="midnightblue" d="M919.041,-606.683C892.522,-598.032 851.509,-584.117 816.722,-570 672.968,-511.66 506.259,-429.513 441.95,-397.261"/>
<polygon fill="midnightblue" stroke="midnightblue" points="443.38,-394.062 432.873,-392.699 440.236,-400.317 443.38,-394.062"/>
</g>
<!-- Node12 -->
<g id="node12" class="node"><title>Node12</title>
<g id="a_node12"><a xlink:href="Particle_8h.html" target="_top" xlink:title="Particle.h">
<polygon fill="white" stroke="black" points="834.887,-435.5 834.887,-455.5 892.558,-455.5 892.558,-435.5 834.887,-435.5"/>
<text text-anchor="middle" x="863.722" y="-442.5" font-family="Helvetica,sans-Serif" font-size="10.00">Particle.h</text>
</a>
</g>
</g>
<!-- Node11&#45;&gt;Node12 -->
<g id="edge12" class="edge"><title>Node11&#45;&gt;Node12</title>
<path fill="none" stroke="midnightblue" d="M947.2,-606.196C947.582,-593.084 947.22,-568.584 940.722,-549 929.133,-514.065 900.384,-481.491 881.482,-462.807"/>
<polygon fill="midnightblue" stroke="midnightblue" points="883.7,-460.085 874.063,-455.683 878.852,-465.134 883.7,-460.085"/>
</g>
<!-- Node11&#45;&gt;Node18 -->
<g id="edge54" class="edge"><title>Node11&#45;&gt;Node18</title>
<path fill="none" stroke="midnightblue" d="M919.1,-606.619C897.986,-598.994 868.842,-586.602 846.722,-570 794.427,-530.748 785.813,-512.972 753.722,-456 745.197,-440.864 738.164,-422.615 733.28,-408.212"/>
<polygon fill="midnightblue" stroke="midnightblue" points="736.542,-406.925 730.112,-398.504 729.887,-409.096 736.542,-406.925"/>
</g>
<!-- Node11&#45;&gt;Node29 -->
<g id="edge55" class="edge"><title>Node11&#45;&gt;Node29</title>
<path fill="none" stroke="midnightblue" d="M949.356,-606.492C961.089,-566.36 1008.83,-403.061 1027.34,-339.75"/>
<polygon fill="midnightblue" stroke="midnightblue" points="1030.8,-340.39 1030.25,-329.81 1024.08,-338.426 1030.8,-340.39"/>
</g>
<!-- Node11&#45;&gt;Node30 -->
<g id="edge56" class="edge"><title>Node11&#45;&gt;Node30</title>
<path fill="none" stroke="midnightblue" d="M974.533,-609.926C998.191,-603.85 1031.6,-591.919 1052.72,-570 1096.97,-524.083 1114.79,-448.013 1121.33,-408.722"/>
<polygon fill="midnightblue" stroke="midnightblue" points="1124.81,-409.088 1122.88,-398.67 1117.89,-408.017 1124.81,-409.088"/>
</g>
<!-- Node31 -->
<g id="node31" class="node"><title>Node31</title>
<g id="a_node31"><a xlink:href="GenParticle_8h.html" target="_top" xlink:title="GenParticle.h">
<polygon fill="white" stroke="black" points="855.438,-549.5 855.438,-569.5 932.006,-569.5 932.006,-549.5 855.438,-549.5"/>
<text text-anchor="middle" x="893.722" y="-556.5" font-family="Helvetica,sans-Serif" font-size="10.00">GenParticle.h</text>
</a>
</g>
</g>
<!-- Node11&#45;&gt;Node31 -->
<g id="edge57" class="edge"><title>Node11&#45;&gt;Node31</title>
<path fill="none" stroke="midnightblue" d="M937.971,-606.418C930.345,-598.504 919.09,-586.824 909.839,-577.225"/>
<polygon fill="midnightblue" stroke="midnightblue" points="912.124,-574.552 902.665,-569.779 907.083,-579.409 912.124,-574.552"/>
</g>
<!-- Node12&#45;&gt;Node3 -->
<g id="edge13" class="edge"><title>Node12&#45;&gt;Node3</title>
<path fill="none" stroke="midnightblue" d="M834.608,-440.545C758.171,-430.16 551.363,-402.064 459.61,-389.598"/>
<polygon fill="midnightblue" stroke="midnightblue" points="459.909,-386.107 449.528,-388.229 458.966,-393.043 459.909,-386.107"/>
</g>
<!-- Node13 -->
<g id="node13" class="node"><title>Node13</title>
<g id="a_node13"><a xlink:href="ContainerElement_8h.html" target="_top" xlink:title="../../Framework/interface\l/ContainerElement.h">
<polygon fill="white" stroke="black" points="695.829,-171.5 695.829,-203.5 819.616,-203.5 819.616,-171.5 695.829,-171.5"/>
<text text-anchor="start" x="703.829" y="-190.5" font-family="Helvetica,sans-Serif" font-size="10.00">../../Framework/interface</text>
<text text-anchor="middle" x="757.722" y="-178.5" font-family="Helvetica,sans-Serif" font-size="10.00">/ContainerElement.h</text>
</a>
</g>
</g>
<!-- Node12&#45;&gt;Node13 -->
<g id="edge14" class="edge"><title>Node12&#45;&gt;Node13</title>
<path fill="none" stroke="midnightblue" d="M867.463,-435.259C882.599,-397.547 937.936,-256.519 925.722,-240 903.685,-210.195 864.721,-197.081 829.862,-191.529"/>
<polygon fill="midnightblue" stroke="midnightblue" points="830.069,-188.023 819.679,-190.096 829.095,-194.955 830.069,-188.023"/>
</g>
<!-- Node12&#45;&gt;Node18 -->
<g id="edge26" class="edge"><title>Node12&#45;&gt;Node18</title>
<path fill="none" stroke="midnightblue" d="M843.36,-435.499C823.881,-426.889 793.88,-413.628 769.051,-402.652"/>
<polygon fill="midnightblue" stroke="midnightblue" points="770.382,-399.414 759.821,-398.573 767.552,-405.817 770.382,-399.414"/>
</g>
<!-- Node12&#45;&gt;Node29 -->
<g id="edge45" class="edge"><title>Node12&#45;&gt;Node29</title>
<path fill="none" stroke="midnightblue" d="M870.293,-435.284C881.883,-419.523 907.337,-387.06 934.722,-366 950.919,-353.545 970.579,-342.669 988.167,-334.161"/>
<polygon fill="midnightblue" stroke="midnightblue" points="990.13,-337.106 997.69,-329.683 987.151,-330.771 990.13,-337.106"/>
</g>
<!-- Node12&#45;&gt;Node30 -->
<g id="edge49" class="edge"><title>Node12&#45;&gt;Node30</title>
<path fill="none" stroke="midnightblue" d="M892.651,-437.739C930.993,-428.778 999.947,-412.662 1052.76,-400.318"/>
<polygon fill="midnightblue" stroke="midnightblue" points="1053.82,-403.665 1062.76,-397.981 1052.23,-396.849 1053.82,-403.665"/>
</g>
<!-- Node13&#45;&gt;Node4 -->
<g id="edge22" class="edge"><title>Node13&#45;&gt;Node4</title>
<path fill="none" stroke="midnightblue" d="M695.739,-173.174C667.992,-165.183 635.927,-152.984 610.722,-135 570.89,-106.579 539.917,-56.6606 525.171,-29.8153"/>
<polygon fill="midnightblue" stroke="midnightblue" points="528.127,-27.9214 520.329,-20.7493 521.952,-31.219 528.127,-27.9214"/>
</g>
<!-- Node13&#45;&gt;Node5 -->
<g id="edge23" class="edge"><title>Node13&#45;&gt;Node5</title>
<path fill="none" stroke="midnightblue" d="M751.473,-171.149C740.449,-145.395 715.572,-92.7958 682.722,-57 671.481,-44.75 656.39,-33.9366 643.578,-25.9284"/>
<polygon fill="midnightblue" stroke="midnightblue" points="645.114,-22.7676 634.74,-20.6125 641.506,-28.7661 645.114,-22.7676"/>
</g>
<!-- Node14 -->
<g id="node14" class="node"><title>Node14</title>
<g id="a_node14"><a xlink:href="Object_8h.html" target="_top" xlink:title="Object.h">
<polygon fill="white" stroke="black" points="620.106,-114.5 620.106,-134.5 673.339,-134.5 673.339,-114.5 620.106,-114.5"/>
<text text-anchor="middle" x="646.722" y="-121.5" font-family="Helvetica,sans-Serif" font-size="10.00">Object.h</text>
</a>
</g>
</g>
<!-- Node13&#45;&gt;Node14 -->
<g id="edge15" class="edge"><title>Node13&#45;&gt;Node14</title>
<path fill="none" stroke="midnightblue" d="M730.284,-171.421C712.517,-161.657 689.543,-149.032 672.182,-139.491"/>
<polygon fill="midnightblue" stroke="midnightblue" points="673.633,-136.295 663.183,-134.546 670.261,-142.429 673.633,-136.295"/>
</g>
<!-- Node15 -->
<g id="node15" class="node"><title>Node15</title>
<g id="a_node15"><a xlink:href="IOUtils_8h.html" target="_top" xlink:title="IOUtils.h">
<polygon fill="white" stroke="black" points="619.556,-57.5 619.556,-77.5 673.889,-77.5 673.889,-57.5 619.556,-57.5"/>
<text text-anchor="middle" x="646.722" y="-64.5" font-family="Helvetica,sans-Serif" font-size="10.00">IOUtils.h</text>
</a>
</g>
</g>
<!-- Node13&#45;&gt;Node15 -->
<g id="edge21" class="edge"><title>Node13&#45;&gt;Node15</title>
<path fill="none" stroke="midnightblue" d="M743.211,-171.074C722.381,-148.929 684.145,-108.283 662.588,-85.3665"/>
<polygon fill="midnightblue" stroke="midnightblue" points="664.865,-82.6788 655.464,-77.7931 659.767,-87.4751 664.865,-82.6788"/>
</g>
<!-- Node16 -->
<g id="node16" class="node"><title>Node16</title>
<polygon fill="white" stroke="#bfbfbf" points="848.11,-0.5 848.11,-20.5 891.335,-20.5 891.335,-0.5 848.11,-0.5"/>
<text text-anchor="middle" x="869.722" y="-7.5" font-family="Helvetica,sans-Serif" font-size="10.00">vector</text>
</g>
<!-- Node13&#45;&gt;Node16 -->
<g id="edge24" class="edge"><title>Node13&#45;&gt;Node16</title>
<path fill="none" stroke="midnightblue" d="M777.344,-171.374C788.741,-161.853 802.768,-148.788 812.722,-135 837.046,-101.311 854.861,-55.5868 863.624,-30.2885"/>
<polygon fill="midnightblue" stroke="midnightblue" points="867.044,-31.0986 866.911,-20.5046 860.408,-28.8692 867.044,-31.0986"/>
</g>
<!-- Node17 -->
<g id="node17" class="node"><title>Node17</title>
<polygon fill="white" stroke="#bfbfbf" points="767.999,-114.5 767.999,-134.5 803.446,-134.5 803.446,-114.5 767.999,-114.5"/>
<text text-anchor="middle" x="785.722" y="-121.5" font-family="Helvetica,sans-Serif" font-size="10.00">map</text>
</g>
<!-- Node13&#45;&gt;Node17 -->
<g id="edge25" class="edge"><title>Node13&#45;&gt;Node17</title>
<path fill="none" stroke="midnightblue" d="M764.644,-171.421C768.462,-163.104 773.233,-152.71 777.27,-143.915"/>
<polygon fill="midnightblue" stroke="midnightblue" points="780.579,-145.094 781.57,-134.546 774.218,-142.174 780.579,-145.094"/>
</g>
<!-- Node14&#45;&gt;Node4 -->
<g id="edge20" class="edge"><title>Node14&#45;&gt;Node4</title>
<path fill="none" stroke="midnightblue" d="M636.002,-114.335C613.74,-95.3015 562.262,-51.2891 534.416,-27.4818"/>
<polygon fill="midnightblue" stroke="midnightblue" points="536.466,-24.6302 526.591,-20.7921 531.917,-29.9507 536.466,-24.6302"/>
</g>
<!-- Node14&#45;&gt;Node15 -->
<g id="edge16" class="edge"><title>Node14&#45;&gt;Node15</title>
<path fill="none" stroke="midnightblue" d="M646.722,-114.418C646.722,-107.216 646.722,-96.8962 646.722,-87.8632"/>
<polygon fill="midnightblue" stroke="midnightblue" points="650.223,-87.7794 646.722,-77.7795 643.223,-87.7795 650.223,-87.7794"/>
</g>
<!-- Node15&#45;&gt;Node4 -->
<g id="edge18" class="edge"><title>Node15&#45;&gt;Node4</title>
<path fill="none" stroke="midnightblue" d="M625.091,-57.4179C603.758,-48.4613 570.935,-34.6806 546.81,-24.552"/>
<polygon fill="midnightblue" stroke="midnightblue" points="547.962,-21.2397 537.387,-20.5956 545.252,-27.6939 547.962,-21.2397"/>
</g>
<!-- Node15&#45;&gt;Node5 -->
<g id="edge17" class="edge"><title>Node15&#45;&gt;Node5</title>
<path fill="none" stroke="midnightblue" d="M641.934,-57.4179C637.97,-49.8998 632.213,-38.9829 627.308,-29.6799"/>
<polygon fill="midnightblue" stroke="midnightblue" points="630.375,-27.9927 622.615,-20.7795 624.183,-31.2576 630.375,-27.9927"/>
</g>
<!-- Node15&#45;&gt;Node16 -->
<g id="edge19" class="edge"><title>Node15&#45;&gt;Node16</title>
<path fill="none" stroke="midnightblue" d="M674.067,-59.7559C715.52,-49.5319 794.077,-30.1571 837.989,-19.3267"/>
<polygon fill="midnightblue" stroke="midnightblue" points="838.974,-22.6886 847.845,-16.8958 837.298,-15.8923 838.974,-22.6886"/>
</g>
<!-- Node19 -->
<g id="node19" class="node"><title>Node19</title>
<g id="a_node19"><a xlink:href="ArrayBase_8h.html" target="_top" xlink:title="ArrayBase.h">
<polygon fill="white" stroke="black" points="468.217,-303.5 468.217,-323.5 539.228,-323.5 539.228,-303.5 468.217,-303.5"/>
<text text-anchor="middle" x="503.722" y="-310.5" font-family="Helvetica,sans-Serif" font-size="10.00">ArrayBase.h</text>
</a>
</g>
</g>
<!-- Node18&#45;&gt;Node19 -->
<g id="edge27" class="edge"><title>Node18&#45;&gt;Node19</title>
<path fill="none" stroke="midnightblue" d="M671.289,-366.401C636.176,-356.479 589.596,-342.977 548.722,-330 545.572,-329 542.308,-327.934 539.042,-326.847"/>
<polygon fill="midnightblue" stroke="midnightblue" points="539.946,-323.458 529.352,-323.569 537.703,-330.089 539.946,-323.458"/>
</g>
<!-- Node22 -->
<g id="node22" class="node"><title>Node22</title>
<g id="a_node22"><a xlink:href="CollectionBase_8h.html" target="_top" xlink:title="CollectionBase.h">
<polygon fill="white" stroke="black" points="675.214,-303.5 675.214,-323.5 766.231,-323.5 766.231,-303.5 675.214,-303.5"/>
<text text-anchor="middle" x="720.722" y="-310.5" font-family="Helvetica,sans-Serif" font-size="10.00">CollectionBase.h</text>
</a>
</g>
</g>
<!-- Node18&#45;&gt;Node22 -->
<g id="edge35" class="edge"><title>Node18&#45;&gt;Node22</title>
<path fill="none" stroke="midnightblue" d="M724.588,-366.297C723.869,-356.656 722.931,-344.1 722.16,-333.765"/>
<polygon fill="midnightblue" stroke="midnightblue" points="725.641,-333.376 721.406,-323.665 718.66,-333.897 725.641,-333.376"/>
</g>
<!-- Node24 -->
<g id="node24" class="node"><title>Node24</title>
<g id="a_node24"><a xlink:href="Iterator_8h.html" target="_top" xlink:title="Iterator.h">
<polygon fill="white" stroke="black" points="784.717,-303.5 784.717,-323.5 840.727,-323.5 840.727,-303.5 784.717,-303.5"/>
<text text-anchor="middle" x="812.722" y="-310.5" font-family="Helvetica,sans-Serif" font-size="10.00">Iterator.h</text>
</a>
</g>
</g>
<!-- Node18&#45;&gt;Node24 -->
<g id="edge39" class="edge"><title>Node18&#45;&gt;Node24</title>
<path fill="none" stroke="midnightblue" d="M745.464,-366.297C759.58,-355.426 778.511,-340.847 792.692,-329.926"/>
<polygon fill="midnightblue" stroke="midnightblue" points="795.035,-332.539 800.822,-323.665 790.764,-326.993 795.035,-332.539"/>
</g>
<!-- Node25 -->
<g id="node25" class="node"><title>Node25</title>
<polygon fill="white" stroke="#bfbfbf" points="854.662,-240.5 854.662,-260.5 916.783,-260.5 916.783,-240.5 854.662,-240.5"/>
<text text-anchor="middle" x="885.722" y="-247.5" font-family="Helvetica,sans-Serif" font-size="10.00">type_traits</text>
</g>
<!-- Node18&#45;&gt;Node25 -->
<g id="edge44" class="edge"><title>Node18&#45;&gt;Node25</title>
<path fill="none" stroke="midnightblue" d="M786.499,-366.39C808.535,-358.483 832.271,-346.828 849.722,-330 866.544,-313.779 876.227,-288.212 881.228,-270.692"/>
<polygon fill="midnightblue" stroke="midnightblue" points="884.744,-271.078 883.867,-260.52 877.968,-269.321 884.744,-271.078"/>
</g>
<!-- Node26 -->
<g id="node26" class="node"><title>Node26</title>
<polygon fill="white" stroke="#bfbfbf" points="1005.33,-240.5 1005.33,-260.5 1064.12,-260.5 1064.12,-240.5 1005.33,-240.5"/>
<text text-anchor="middle" x="1034.72" y="-247.5" font-family="Helvetica,sans-Serif" font-size="10.00">stdexcept</text>
</g>
<!-- Node18&#45;&gt;Node26 -->
<g id="edge41" class="edge"><title>Node18&#45;&gt;Node26</title>
<path fill="none" stroke="midnightblue" d="M773.586,-366.447C802.834,-356.855 840.817,-343.69 873.722,-330 922.379,-309.757 977.17,-281.914 1008.65,-265.405"/>
<polygon fill="midnightblue" stroke="midnightblue" points="1010.43,-268.426 1017.64,-260.666 1007.16,-262.233 1010.43,-268.426"/>
</g>
<!-- Node27 -->
<g id="node27" class="node"><title>Node27</title>
<polygon fill="white" stroke="#bfbfbf" points="557.67,-303.5 557.67,-323.5 609.775,-323.5 609.775,-303.5 557.67,-303.5"/>
<text text-anchor="middle" x="583.722" y="-310.5" font-family="Helvetica,sans-Serif" font-size="10.00">memory</text>
</g>
<!-- Node18&#45;&gt;Node27 -->
<g id="edge42" class="edge"><title>Node18&#45;&gt;Node27</title>
<path fill="none" stroke="midnightblue" d="M693.855,-366.464C669.276,-354.867 635.598,-338.976 611.976,-327.831"/>
<polygon fill="midnightblue" stroke="midnightblue" points="613.373,-324.62 602.835,-323.518 610.386,-330.951 613.373,-324.62"/>
</g>
<!-- Node28 -->
<g id="node28" class="node"><title>Node28</title>
<polygon fill="white" stroke="#bfbfbf" points="628.053,-303.5 628.053,-323.5 657.391,-323.5 657.391,-303.5 628.053,-303.5"/>
<text text-anchor="middle" x="642.722" y="-310.5" font-family="Helvetica,sans-Serif" font-size="10.00">set</text>
</g>
<!-- Node18&#45;&gt;Node28 -->
<g id="edge43" class="edge"><title>Node18&#45;&gt;Node28</title>
<path fill="none" stroke="midnightblue" d="M706.889,-366.297C693.549,-355.528 675.702,-341.122 662.216,-330.236"/>
<polygon fill="midnightblue" stroke="midnightblue" points="664.055,-327.222 654.076,-323.665 659.658,-332.669 664.055,-327.222"/>
</g>
<!-- Node20 -->
<g id="node20" class="node"><title>Node20</title>
<g id="a_node20"><a xlink:href="ContainerBase_8h.html" target="_top" xlink:title="ContainerBase.h">
<polygon fill="white" stroke="black" points="675.489,-240.5 675.489,-260.5 765.956,-260.5 765.956,-240.5 675.489,-240.5"/>
<text text-anchor="middle" x="720.722" y="-247.5" font-family="Helvetica,sans-Serif" font-size="10.00">ContainerBase.h</text>
</a>
</g>
</g>
<!-- Node19&#45;&gt;Node20 -->
<g id="edge28" class="edge"><title>Node19&#45;&gt;Node20</title>
<path fill="none" stroke="midnightblue" d="M528.845,-303.484C535.293,-301.27 542.24,-298.971 548.722,-297 590.548,-284.283 638.697,-271.721 673.395,-263.029"/>
<polygon fill="midnightblue" stroke="midnightblue" points="674.401,-266.385 683.258,-260.571 672.708,-259.593 674.401,-266.385"/>
</g>
<!-- Node20&#45;&gt;Node4 -->
<g id="edge32" class="edge"><title>Node20&#45;&gt;Node4</title>
<path fill="none" stroke="midnightblue" d="M677.519,-240.465C640.533,-231.924 591.05,-218.316 576.722,-204 528.401,-155.719 518.299,-69.4195 516.23,-30.9425"/>
<polygon fill="midnightblue" stroke="midnightblue" points="519.714,-30.4819 515.812,-20.6317 512.72,-30.7652 519.714,-30.4819"/>
</g>
<!-- Node20&#45;&gt;Node5 -->
<g id="edge31" class="edge"><title>Node20&#45;&gt;Node5</title>
<path fill="none" stroke="midnightblue" d="M680.598,-240.445C647.385,-232.042 604.036,-218.651 593.722,-204 555.8,-150.131 589.843,-66.1937 608.015,-29.5899"/>
<polygon fill="midnightblue" stroke="midnightblue" points="611.185,-31.0788 612.646,-20.5852 604.96,-27.877 611.185,-31.0788"/>
</g>
<!-- Node20&#45;&gt;Node13 -->
<g id="edge29" class="edge"><title>Node20&#45;&gt;Node13</title>
<path fill="none" stroke="midnightblue" d="M726.182,-240.499C730.676,-233.09 737.259,-222.237 743.25,-212.361"/>
<polygon fill="midnightblue" stroke="midnightblue" points="746.314,-214.057 748.508,-203.691 740.329,-210.426 746.314,-214.057"/>
</g>
<!-- Node20&#45;&gt;Node15 -->
<g id="edge30" class="edge"><title>Node20&#45;&gt;Node15</title>
<path fill="none" stroke="midnightblue" d="M688.417,-240.485C659.319,-231.634 619.768,-217.53 610.722,-204 588.491,-170.747 597.584,-151.781 610.722,-114 614.494,-103.154 622.046,-92.9451 629.263,-84.9564"/>
<polygon fill="midnightblue" stroke="midnightblue" points="631.78,-87.3882 636.216,-77.7666 626.748,-82.522 631.78,-87.3882"/>
</g>
<!-- Node20&#45;&gt;Node16 -->
<g id="edge33" class="edge"><title>Node20&#45;&gt;Node16</title>
<path fill="none" stroke="midnightblue" d="M766.049,-240.705C788.036,-234.164 813.022,-222.962 828.722,-204 870.985,-152.958 872.744,-68.7739 871.114,-30.9561"/>
<polygon fill="midnightblue" stroke="midnightblue" points="874.598,-30.5828 870.54,-20.7961 867.609,-30.9776 874.598,-30.5828"/>
</g>
<!-- Node21 -->
<g id="node21" class="node"><title>Node21</title>
<polygon fill="white" stroke="#bfbfbf" points="619.327,-177.5 619.327,-197.5 678.118,-197.5 678.118,-177.5 619.327,-177.5"/>
<text text-anchor="middle" x="648.722" y="-184.5" font-family="Helvetica,sans-Serif" font-size="10.00">functional</text>
</g>
<!-- Node20&#45;&gt;Node21 -->
<g id="edge34" class="edge"><title>Node20&#45;&gt;Node21</title>
<path fill="none" stroke="midnightblue" d="M710.099,-240.499C698.826,-230.948 680.798,-215.675 667.191,-204.147"/>
<polygon fill="midnightblue" stroke="midnightblue" points="669.282,-201.331 659.39,-197.538 664.757,-206.672 669.282,-201.331"/>
</g>
<!-- Node22&#45;&gt;Node16 -->
<g id="edge37" class="edge"><title>Node22&#45;&gt;Node16</title>
<path fill="none" stroke="midnightblue" d="M736.902,-303.241C764.435,-286.71 820.536,-249.545 852.722,-204 891.311,-149.396 895.324,-123.018 884.722,-57 883.274,-47.978 880.306,-38.3202 877.39,-30.2336"/>
<polygon fill="midnightblue" stroke="midnightblue" points="880.577,-28.7693 873.718,-20.6939 874.044,-31.2838 880.577,-28.7693"/>
</g>
<!-- Node22&#45;&gt;Node20 -->
<g id="edge36" class="edge"><title>Node22&#45;&gt;Node20</title>
<path fill="none" stroke="midnightblue" d="M720.722,-303.499C720.722,-294.94 720.722,-281.783 720.722,-270.846"/>
<polygon fill="midnightblue" stroke="midnightblue" points="724.223,-270.538 720.722,-260.538 717.223,-270.538 724.223,-270.538"/>
</g>
<!-- Node23 -->
<g id="node23" class="node"><title>Node23</title>
<polygon fill="white" stroke="#bfbfbf" points="618.335,-240.5 618.335,-260.5 657.11,-260.5 657.11,-240.5 618.335,-240.5"/>
<text text-anchor="middle" x="637.722" y="-247.5" font-family="Helvetica,sans-Serif" font-size="10.00">utility</text>
</g>
<!-- Node22&#45;&gt;Node23 -->
<g id="edge38" class="edge"><title>Node22&#45;&gt;Node23</title>
<path fill="none" stroke="midnightblue" d="M708.476,-303.499C695.235,-293.768 673.911,-278.097 658.13,-266.498"/>
<polygon fill="midnightblue" stroke="midnightblue" points="660.15,-263.64 650.02,-260.538 656.005,-269.28 660.15,-263.64"/>
</g>
<!-- Node24&#45;&gt;Node25 -->
<g id="edge40" class="edge"><title>Node24&#45;&gt;Node25</title>
<path fill="none" stroke="midnightblue" d="M823.494,-303.499C834.924,-293.948 853.202,-278.675 866.998,-267.147"/>
<polygon fill="midnightblue" stroke="midnightblue" points="869.478,-269.636 874.907,-260.538 864.989,-264.264 869.478,-269.636"/>
</g>
<!-- Node29&#45;&gt;Node20 -->
<g id="edge46" class="edge"><title>Node29&#45;&gt;Node20</title>
<path fill="none" stroke="midnightblue" d="M972.686,-300.448C915.479,-289.335 831.327,-272.987 776.277,-262.292"/>
<polygon fill="midnightblue" stroke="midnightblue" points="776.833,-258.835 766.349,-260.364 775.498,-265.707 776.833,-258.835"/>
</g>
<!-- Node29&#45;&gt;Node25 -->
<g id="edge48" class="edge"><title>Node29&#45;&gt;Node25</title>
<path fill="none" stroke="midnightblue" d="M997.891,-297.421C973.158,-287.296 940.908,-274.093 917.34,-264.444"/>
<polygon fill="midnightblue" stroke="midnightblue" points="918.399,-261.096 907.818,-260.546 915.747,-267.574 918.399,-261.096"/>
</g>
<!-- Node29&#45;&gt;Node26 -->
<g id="edge47" class="edge"><title>Node29&#45;&gt;Node26</title>
<path fill="none" stroke="midnightblue" d="M1034.72,-297.421C1034.72,-289.375 1034.72,-279.386 1034.72,-270.781"/>
<polygon fill="midnightblue" stroke="midnightblue" points="1038.22,-270.546 1034.72,-260.546 1031.22,-270.546 1038.22,-270.546"/>
</g>
<!-- Node30&#45;&gt;Node16 -->
<g id="edge53" class="edge"><title>Node30&#45;&gt;Node16</title>
<path fill="none" stroke="midnightblue" d="M1140.84,-366.373C1163.15,-343.711 1200.72,-298.558 1200.72,-251.5 1200.72,-251.5 1200.72,-251.5 1200.72,-123.5 1200.72,-60.7322 984.454,-26.2587 901.545,-15.349"/>
<polygon fill="midnightblue" stroke="midnightblue" points="901.805,-11.8538 891.44,-14.0499 900.912,-18.7966 901.805,-11.8538"/>
</g>
<!-- Node30&#45;&gt;Node20 -->
<g id="edge50" class="edge"><title>Node30&#45;&gt;Node20</title>
<path fill="none" stroke="midnightblue" d="M1126.1,-366.437C1126.95,-347.259 1125.16,-314.518 1105.72,-297 1093.63,-286.097 879.738,-265.671 776.111,-256.355"/>
<polygon fill="midnightblue" stroke="midnightblue" points="776.409,-252.868 766.137,-255.462 775.785,-259.84 776.409,-252.868"/>
</g>
<!-- Node30&#45;&gt;Node26 -->
<g id="edge52" class="edge"><title>Node30&#45;&gt;Node26</title>
<path fill="none" stroke="midnightblue" d="M1133.09,-366.461C1141.85,-348.477 1152.56,-318.156 1138.72,-297 1124.44,-275.161 1097.11,-263.742 1074.05,-257.805"/>
<polygon fill="midnightblue" stroke="midnightblue" points="1074.68,-254.359 1064.15,-255.514 1073.1,-261.178 1074.68,-254.359"/>
</g>
<!-- Node30&#45;&gt;Node29 -->
<g id="edge51" class="edge"><title>Node30&#45;&gt;Node29</title>
<path fill="none" stroke="midnightblue" d="M1104.3,-366.297C1092.22,-357.302 1076.73,-345.769 1063.43,-335.869"/>
<polygon fill="midnightblue" stroke="midnightblue" points="1065.18,-332.807 1055.06,-329.643 1061,-338.422 1065.18,-332.807"/>
</g>
<!-- Node31&#45;&gt;Node3 -->
<g id="edge58" class="edge"><title>Node31&#45;&gt;Node3</title>
<path fill="none" stroke="midnightblue" d="M874.491,-549.405C814.92,-521.241 637.061,-437.218 630.722,-435 572.995,-414.804 503.865,-399.862 459.634,-391.417"/>
<polygon fill="midnightblue" stroke="midnightblue" points="460.243,-387.97 449.768,-389.563 458.949,-394.85 460.243,-387.97"/>
</g>
<!-- Node31&#45;&gt;Node18 -->
<g id="edge65" class="edge"><title>Node31&#45;&gt;Node18</title>
<path fill="none" stroke="midnightblue" d="M875.58,-549.482C860.196,-541.291 838.087,-528.191 821.722,-513 787.262,-481.011 756.685,-435.233 739.737,-407.543"/>
<polygon fill="midnightblue" stroke="midnightblue" points="742.684,-405.652 734.526,-398.892 736.688,-409.264 742.684,-405.652"/>
</g>
<!-- Node31&#45;&gt;Node29 -->
<g id="edge66" class="edge"><title>Node31&#45;&gt;Node29</title>
<path fill="none" stroke="midnightblue" d="M899.078,-549.233C919.157,-514.486 990.371,-391.251 1020.79,-338.617"/>
<polygon fill="midnightblue" stroke="midnightblue" points="1024,-340.058 1025.97,-329.648 1017.94,-336.555 1024,-340.058"/>
</g>
<!-- Node31&#45;&gt;Node30 -->
<g id="edge67" class="edge"><title>Node31&#45;&gt;Node30</title>
<path fill="none" stroke="midnightblue" d="M905.817,-549.338C941.27,-522.479 1045.63,-443.42 1096.37,-404.977"/>
<polygon fill="midnightblue" stroke="midnightblue" points="1098.76,-407.56 1104.62,-398.731 1094.53,-401.98 1098.76,-407.56"/>
</g>
<!-- Node32 -->
<g id="node32" class="node"><title>Node32</title>
<g id="a_node32"><a xlink:href="ParticleM_8h.html" target="_top" xlink:title="ParticleM.h">
<polygon fill="white" stroke="black" points="830.722,-492.5 830.722,-512.5 896.722,-512.5 896.722,-492.5 830.722,-492.5"/>
<text text-anchor="middle" x="863.722" y="-499.5" font-family="Helvetica,sans-Serif" font-size="10.00">ParticleM.h</text>
</a>
</g>
</g>
<!-- Node31&#45;&gt;Node32 -->
<g id="edge59" class="edge"><title>Node31&#45;&gt;Node32</title>
<path fill="none" stroke="midnightblue" d="M888.769,-549.418C884.668,-541.9 878.713,-530.983 873.639,-521.68"/>
<polygon fill="midnightblue" stroke="midnightblue" points="876.645,-519.882 868.784,-512.779 870.5,-523.234 876.645,-519.882"/>
</g>
<!-- Node32&#45;&gt;Node3 -->
<g id="edge60" class="edge"><title>Node32&#45;&gt;Node3</title>
<path fill="none" stroke="midnightblue" d="M845.845,-492.345C817.208,-478.045 758.951,-450.45 706.722,-435 621.218,-409.706 517.736,-395.063 459.752,-388.238"/>
<polygon fill="midnightblue" stroke="midnightblue" points="459.804,-384.721 449.469,-387.054 459.003,-391.675 459.804,-384.721"/>
</g>
<!-- Node32&#45;&gt;Node12 -->
<g id="edge61" class="edge"><title>Node32&#45;&gt;Node12</title>
<path fill="none" stroke="midnightblue" d="M863.722,-492.418C863.722,-485.216 863.722,-474.896 863.722,-465.863"/>
<polygon fill="midnightblue" stroke="midnightblue" points="867.223,-465.779 863.722,-455.779 860.223,-465.779 867.223,-465.779"/>
</g>
<!-- Node32&#45;&gt;Node18 -->
<g id="edge62" class="edge"><title>Node32&#45;&gt;Node18</title>
<path fill="none" stroke="midnightblue" d="M852.894,-492.241C831.079,-473.588 781.34,-431.057 750.934,-405.057"/>
<polygon fill="midnightblue" stroke="midnightblue" points="753.154,-402.351 743.279,-398.512 748.605,-407.671 753.154,-402.351"/>
</g>
<!-- Node32&#45;&gt;Node29 -->
<g id="edge63" class="edge"><title>Node32&#45;&gt;Node29</title>
<path fill="none" stroke="midnightblue" d="M871.309,-492.431C889.853,-470.36 939.148,-412.267 982.722,-366 991.978,-356.172 1002.51,-345.631 1011.66,-336.662"/>
<polygon fill="midnightblue" stroke="midnightblue" points="1014.24,-339.031 1018.97,-329.547 1009.36,-334.016 1014.24,-339.031"/>
</g>
<!-- Node32&#45;&gt;Node30 -->
<g id="edge64" class="edge"><title>Node32&#45;&gt;Node30</title>
<path fill="none" stroke="midnightblue" d="M883.769,-492.437C926.059,-473.317 1025.19,-428.499 1082.25,-402.701"/>
<polygon fill="midnightblue" stroke="midnightblue" points="1083.7,-405.886 1091.37,-398.577 1080.82,-399.507 1083.7,-405.886"/>
</g>
</g>
</svg>
        <g id="navigator" transform="translate(0 0)" fill="#404254">
                <rect fill="#f2f5e9" fill-opacity="0.5" stroke="#606060" stroke-width=".5" x="0" y="0" width="60" height="60"/>
                <use id="zoomplus" xlink:href="#zoomPlus" x="17" y="9" onmousedown="handleZoom(evt,'in')"/>
                <use id="zoomminus" xlink:href="#zoomMin" x="42" y="9" onmousedown="handleZoom(evt,'out')"/>
                <use id="reset" xlink:href="#resetDef" x="30" y="36" onmousedown="handleReset()"/>
                <g id="arrowUp" xlink:href="#dirArrow" transform="translate(30 24)" onmousedown="handlePan(0,-1)">
                  <use xlink:href="#rim" fill="#404040">
                        <set attributeName="fill" to="#808080" begin="arrowUp.mouseover" end="arrowUp.mouseout"/>
                  </use>
                  <path fill="none" stroke="white" stroke-width="1.5" d="M0,-3.0v7 M-2.5,-0.5L0,-3.0L2.5,-0.5"/>
                </g>
                <g id="arrowRight" xlink:href="#dirArrow" transform="rotate(90) translate(36 -43)" onmousedown="handlePan(1,0)">
                  <use xlink:href="#rim" fill="#404040">
                        <set attributeName="fill" to="#808080" begin="arrowRight.mouseover" end="arrowRight.mouseout"/>
                  </use>
                  <path fill="none" stroke="white" stroke-width="1.5" d="M0,-3.0v7 M-2.5,-0.5L0,-3.0L2.5,-0.5"/>
                </g>
                <g id="arrowDown" xlink:href="#dirArrow" transform="rotate(180) translate(-30 -48)" onmousedown="handlePan(0,1)">
                  <use xlink:href="#rim" fill="#404040">
                        <set attributeName="fill" to="#808080" begin="arrowDown.mouseover" end="arrowDown.mouseout"/>
                  </use>
                  <path fill="none" stroke="white" stroke-width="1.5" d="M0,-3.0v7 M-2.5,-0.5L0,-3.0L2.5,-0.5"/>
                </g>
                <g id="arrowLeft" xlink:href="#dirArrow" transform="rotate(270) translate(-36 17)" onmousedown="handlePan(-1,0)">
                  <use xlink:href="#rim" fill="#404040">
                        <set attributeName="fill" to="#808080" begin="arrowLeft.mouseover" end="arrowLeft.mouseout"/>
                  </use>
                  <path fill="none" stroke="white" stroke-width="1.5" d="M0,-3.0v7 M-2.5,-0.5L0,-3.0L2.5,-0.5"/>
                </g>
        </g>
        <svg viewBox="0 0 15 15" width="100%" height="30px" preserveAspectRatio="xMaxYMin meet">
         <g id="arrow_out" transform="scale(0.3 0.3)">
          <a xlink:href="Muon_8cc__incl_org.svg" target="_base">
           <rect id="button" ry="5" rx="5" y="6" x="6" height="38" width="38"
                fill="#f2f5e9" fill-opacity="0.5" stroke="#606060" stroke-width="1.0"/>
           <path id="arrow"
             d="M 11.500037,31.436501 C 11.940474,20.09759 22.043105,11.32322 32.158766,21.979434 L 37.068811,17.246167 C 37.068811,17.246167 37.088388,32 37.088388,32 L 22.160133,31.978069 C 22.160133,31.978069 26.997745,27.140456 26.997745,27.140456 C 18.528582,18.264221 13.291696,25.230495 11.500037,31.436501 z"
             style="fill:#404040;"/>
          </a>
         </g>
        </svg>
</svg>
