<?xml version="1.0" encoding="UTF-8" standalone="no"?>
<!DOCTYPE svg PUBLIC "-//W3C//DTD SVG 1.1//EN"
 "http://www.w3.org/Graphics/SVG/1.1/DTD/svg11.dtd">
<!-- Generated by graphviz version 2.38.0 (20140413.2041)
 -->
<!-- Title: panda::utils::setAddress Pages: 1 -->
<svg width="461pt" height="170pt"
 viewBox="0.00 0.00 461.43 170.00" xmlns="http://www.w3.org/2000/svg" xmlns:xlink="http://www.w3.org/1999/xlink">
<g id="graph0" class="graph" transform="scale(1 1) rotate(0) translate(4 166)">
<title>panda::utils::setAddress</title>
<polygon fill="white" stroke="none" points="-4,4 -4,-166 457.434,-166 457.434,4 -4,4"/>
<!-- Node1 -->
<g id="node1" class="node"><title>Node1</title>
<polygon fill="#bfbfbf" stroke="black" points="-2.84217e-14,-70.5 -2.84217e-14,-90.5 122.7,-90.5 122.7,-70.5 -2.84217e-14,-70.5"/>
<text text-anchor="middle" x="61.35" y="-77.5" font-family="Helvetica,sans-Serif" font-size="10.00">panda::utils::setAddress</text>
</g>
<!-- Node2 -->
<g id="node2" class="node"><title>Node2</title>
<g id="a_node2"><a xlink:href="classpanda_1_1utils_1_1BranchName.html#a13958ff4a9d554d2c057c600b4f70412" target="_top" xlink:title="Prepend the branch name with &lt;objName.&gt;. ">
<polygon fill="white" stroke="black" points="315.738,-129.5 315.738,-161.5 446.766,-161.5 446.766,-129.5 315.738,-129.5"/>
<text text-anchor="start" x="323.738" y="-148.5" font-family="Helvetica,sans-Serif" font-size="10.00">panda::utils::BranchName</text>
<text text-anchor="middle" x="381.252" y="-136.5" font-family="Helvetica,sans-Serif" font-size="10.00">::fullName</text>
</a>
</g>
</g>
<!-- Node1&#45;&gt;Node2 -->
<g id="edge1" class="edge"><title>Node1&#45;&gt;Node2</title>
<path fill="none" stroke="midnightblue" d="M100.67,-90.6165C118.287,-95.1202 139.494,-100.335 158.7,-104.5 207.363,-115.053 262.41,-125.249 305.461,-132.833"/>
<polygon fill="midnightblue" stroke="midnightblue" points="305.12,-136.326 315.574,-134.605 306.329,-129.432 305.12,-136.326"/>
</g>
<!-- Node3 -->
<g id="node3" class="node"><title>Node3</title>
<g id="a_node3"><a xlink:href="namespacepanda_1_1utils.html#a01665f786d6a2acedb8f008f3fc9fc84" target="_top" xlink:title="Set status of a branch. ">
<polygon fill="white" stroke="black" points="158.7,-51.5 158.7,-71.5 273.07,-71.5 273.07,-51.5 158.7,-51.5"/>
<text text-anchor="middle" x="215.885" y="-58.5" font-family="Helvetica,sans-Serif" font-size="10.00">panda::utils::setStatus</text>
</a>
</g>
</g>
<!-- Node1&#45;&gt;Node3 -->
<g id="edge2" class="edge"><title>Node1&#45;&gt;Node3</title>
<path fill="none" stroke="midnightblue" d="M123.074,-72.9361C131.343,-71.9061 139.867,-70.8444 148.234,-69.8022"/>
<polygon fill="midnightblue" stroke="midnightblue" points="148.843,-73.2534 158.334,-68.5441 147.978,-66.3071 148.843,-73.2534"/>
</g>
<!-- Node4 -->
<g id="node4" class="node"><title>Node4</title>
<g id="a_node4"><a xlink:href="classpanda_1_1utils_1_1BranchName.html#a6cc8a6df7c5b12a0221fd49773cca6a7" target="_top" xlink:title="Is the name included and not vetoed? ">
<polygon fill="white" stroke="black" points="309.07,-90.5 309.07,-110.5 453.434,-110.5 453.434,-90.5 309.07,-90.5"/>
<text text-anchor="middle" x="381.252" y="-97.5" font-family="Helvetica,sans-Serif" font-size="10.00">panda::utils::BranchName::in</text>
</a>
</g>
</g>
<!-- Node1&#45;&gt;Node4 -->
<g id="edge7" class="edge"><title>Node1&#45;&gt;Node4</title>
<path fill="none" stroke="midnightblue" d="M122.893,-84.3089C172.754,-87.4458 243.913,-91.9226 298.774,-95.374"/>
<polygon fill="midnightblue" stroke="midnightblue" points="298.619,-98.8711 308.819,-96.006 299.058,-91.8849 298.619,-98.8711"/>
</g>
<!-- Node6 -->
<g id="node6" class="node"><title>Node6</title>
<g id="a_node6"><a xlink:href="namespacepanda_1_1utils.html#aafa411773a4b0ee829d99e6e5a0abdcd" target="_top" xlink:title="Check status of a branch. ">
<polygon fill="white" stroke="black" points="317.677,-0.5 317.677,-20.5 444.827,-20.5 444.827,-0.5 317.677,-0.5"/>
<text text-anchor="middle" x="381.252" y="-7.5" font-family="Helvetica,sans-Serif" font-size="10.00">panda::utils::checkStatus</text>
</a>
</g>
</g>
<!-- Node1&#45;&gt;Node6 -->
<g id="edge8" class="edge"><title>Node1&#45;&gt;Node6</title>
<path fill="none" stroke="midnightblue" d="M82.8919,-70.4592C102.06,-61.5098 131.682,-48.7399 158.7,-41.5 207.426,-28.4431 263.738,-20.6555 307.397,-16.1513"/>
<polygon fill="midnightblue" stroke="midnightblue" points="307.756,-19.6329 317.359,-15.1576 307.061,-12.6675 307.756,-19.6329"/>
</g>
<!-- Node3&#45;&gt;Node2 -->
<g id="edge5" class="edge"><title>Node3&#45;&gt;Node2</title>
<path fill="none" stroke="midnightblue" d="M230.715,-71.5109C248.293,-83.9212 279.869,-105.181 309.07,-119.5 313.348,-121.598 317.841,-123.623 322.402,-125.553"/>
<polygon fill="midnightblue" stroke="midnightblue" points="321.229,-128.854 331.811,-129.376 323.864,-122.369 321.229,-128.854"/>
</g>
<!-- Node3&#45;&gt;Node4 -->
<g id="edge3" class="edge"><title>Node3&#45;&gt;Node4</title>
<path fill="none" stroke="midnightblue" d="M258.956,-71.5435C280.108,-76.593 305.936,-82.7587 328.314,-88.1009"/>
<polygon fill="midnightblue" stroke="midnightblue" points="327.784,-91.5728 338.324,-90.4906 329.41,-84.7641 327.784,-91.5728"/>
</g>
<!-- Node5 -->
<g id="node5" class="node"><title>Node5</title>
<g id="a_node5"><a xlink:href="classpanda_1_1utils_1_1BranchName.html#ae3332329bf2afae5ed8e7c35e5d77ffa" target="_top" xlink:title="Is the name included and vetoed? ">
<polygon fill="white" stroke="black" points="315.738,-39.5 315.738,-71.5 446.766,-71.5 446.766,-39.5 315.738,-39.5"/>
<text text-anchor="start" x="323.738" y="-58.5" font-family="Helvetica,sans-Serif" font-size="10.00">panda::utils::BranchName</text>
<text text-anchor="middle" x="381.252" y="-46.5" font-family="Helvetica,sans-Serif" font-size="10.00">::vetoed</text>
</a>
</g>
</g>
<!-- Node3&#45;&gt;Node5 -->
<g id="edge4" class="edge"><title>Node3&#45;&gt;Node5</title>
<path fill="none" stroke="midnightblue" d="M273.107,-59.4351C283.458,-59.055 294.416,-58.6525 305.218,-58.2558"/>
<polygon fill="midnightblue" stroke="midnightblue" points="305.637,-61.7429 315.502,-57.8781 305.38,-54.7476 305.637,-61.7429"/>
</g>
<!-- Node3&#45;&gt;Node6 -->
<g id="edge6" class="edge"><title>Node3&#45;&gt;Node6</title>
<path fill="none" stroke="midnightblue" d="M244.142,-51.4496C262.402,-44.8624 287.042,-36.2532 309.07,-29.5 316.048,-27.3607 323.452,-25.2311 330.745,-23.2131"/>
<polygon fill="midnightblue" stroke="midnightblue" points="331.841,-26.5424 340.571,-20.5402 330.003,-19.7878 331.841,-26.5424"/>
</g>
</g>
</svg>
