<?xml version="1.0" encoding="UTF-8" standalone="no"?>
<!DOCTYPE svg PUBLIC "-//W3C//DTD SVG 1.1//EN"
 "http://www.w3.org/Graphics/SVG/1.1/DTD/svg11.dtd">
<!-- Generated by graphviz version 2.38.0 (20140413.2041)
 -->
<!-- Title: panda::utils::setStatus Pages: 1 -->
<svg width="303pt" height="170pt"
 viewBox="0.00 0.00 302.73 170.00" xmlns="http://www.w3.org/2000/svg" xmlns:xlink="http://www.w3.org/1999/xlink">
<g id="graph0" class="graph" transform="scale(1 1) rotate(0) translate(4 166)">
<title>panda::utils::setStatus</title>
<polygon fill="white" stroke="none" points="-4,4 -4,-166 298.734,-166 298.734,4 -4,4"/>
<!-- Node1 -->
<g id="node1" class="node"><title>Node1</title>
<polygon fill="#bfbfbf" stroke="black" points="1.42109e-14,-70.5 1.42109e-14,-90.5 114.37,-90.5 114.37,-70.5 1.42109e-14,-70.5"/>
<text text-anchor="middle" x="57.185" y="-77.5" font-family="Helvetica,sans-Serif" font-size="10.00">panda::utils::setStatus</text>
</g>
<!-- Node2 -->
<g id="node2" class="node"><title>Node2</title>
<g id="a_node2"><a xlink:href="classpanda_1_1utils_1_1BranchName.html#a6cc8a6df7c5b12a0221fd49773cca6a7" target="_top" xlink:title="Is the name included and not vetoed? ">
<polygon fill="white" stroke="black" points="150.37,-141.5 150.37,-161.5 294.734,-161.5 294.734,-141.5 150.37,-141.5"/>
<text text-anchor="middle" x="222.552" y="-148.5" font-family="Helvetica,sans-Serif" font-size="10.00">panda::utils::BranchName::in</text>
</a>
</g>
</g>
<!-- Node1&#45;&gt;Node2 -->
<g id="edge1" class="edge"><title>Node1&#45;&gt;Node2</title>
<path fill="none" stroke="midnightblue" d="M73.242,-90.577C91.0174,-102.091 121.786,-120.843 150.37,-132.5 155.757,-134.697 161.477,-136.713 167.241,-138.543"/>
<polygon fill="midnightblue" stroke="midnightblue" points="166.349,-141.929 176.933,-141.446 168.358,-135.224 166.349,-141.929"/>
</g>
<!-- Node3 -->
<g id="node3" class="node"><title>Node3</title>
<g id="a_node3"><a xlink:href="classpanda_1_1utils_1_1BranchName.html#ae3332329bf2afae5ed8e7c35e5d77ffa" target="_top" xlink:title="Is the name included and vetoed? ">
<polygon fill="white" stroke="black" points="157.038,-90.5 157.038,-122.5 288.066,-122.5 288.066,-90.5 157.038,-90.5"/>
<text text-anchor="start" x="165.038" y="-109.5" font-family="Helvetica,sans-Serif" font-size="10.00">panda::utils::BranchName</text>
<text text-anchor="middle" x="222.552" y="-97.5" font-family="Helvetica,sans-Serif" font-size="10.00">::vetoed</text>
</a>
</g>
</g>
<!-- Node1&#45;&gt;Node3 -->
<g id="edge2" class="edge"><title>Node1&#45;&gt;Node3</title>
<path fill="none" stroke="midnightblue" d="M114.407,-89.4477C124.865,-91.1122 135.942,-92.8751 146.852,-94.6114"/>
<polygon fill="midnightblue" stroke="midnightblue" points="146.376,-98.0796 156.802,-96.1949 147.476,-91.1666 146.376,-98.0796"/>
</g>
<!-- Node4 -->
<g id="node4" class="node"><title>Node4</title>
<g id="a_node4"><a xlink:href="classpanda_1_1utils_1_1BranchName.html#a13958ff4a9d554d2c057c600b4f70412" target="_top" xlink:title="Prepend the branch name with &lt;objName.&gt;. ">
<polygon fill="white" stroke="black" points="157.038,-39.5 157.038,-71.5 288.066,-71.5 288.066,-39.5 157.038,-39.5"/>
<text text-anchor="start" x="165.038" y="-58.5" font-family="Helvetica,sans-Serif" font-size="10.00">panda::utils::BranchName</text>
<text text-anchor="middle" x="222.552" y="-46.5" font-family="Helvetica,sans-Serif" font-size="10.00">::fullName</text>
</a>
</g>
</g>
<!-- Node1&#45;&gt;Node4 -->
<g id="edge3" class="edge"><title>Node1&#45;&gt;Node4</title>
<path fill="none" stroke="midnightblue" d="M114.407,-71.8964C124.865,-70.296 135.942,-68.6008 146.852,-66.9313"/>
<polygon fill="midnightblue" stroke="midnightblue" points="147.446,-70.3812 156.802,-65.4087 146.387,-63.4618 147.446,-70.3812"/>
</g>
<!-- Node5 -->
<g id="node5" class="node"><title>Node5</title>
<g id="a_node5"><a xlink:href="namespacepanda_1_1utils.html#aafa411773a4b0ee829d99e6e5a0abdcd" target="_top" xlink:title="Check status of a branch. ">
<polygon fill="white" stroke="black" points="158.977,-0.5 158.977,-20.5 286.127,-20.5 286.127,-0.5 158.977,-0.5"/>
<text text-anchor="middle" x="222.552" y="-7.5" font-family="Helvetica,sans-Serif" font-size="10.00">panda::utils::checkStatus</text>
</a>
</g>
</g>
<!-- Node1&#45;&gt;Node5 -->
<g id="edge4" class="edge"><title>Node1&#45;&gt;Node5</title>
<path fill="none" stroke="midnightblue" d="M74.2963,-70.3194C92.2839,-59.3008 122.533,-41.7947 150.37,-30.5 156.604,-27.9708 163.268,-25.639 169.926,-23.5297"/>
<polygon fill="midnightblue" stroke="midnightblue" points="171.062,-26.8426 179.624,-20.6015 169.039,-20.1413 171.062,-26.8426"/>
</g>
</g>
</svg>
