<?xml version="1.0" encoding="UTF-8" standalone="no"?>
<!DOCTYPE svg PUBLIC "-//W3C//DTD SVG 1.1//EN"
 "http://www.w3.org/Graphics/SVG/1.1/DTD/svg11.dtd">
<!-- Generated by graphviz version 2.38.0 (20140413.2041)
 -->
<!-- Title: panda::utils::book Pages: 1 -->
<svg width="283pt" height="80pt"
 viewBox="0.00 0.00 282.73 80.00" xmlns="http://www.w3.org/2000/svg" xmlns:xlink="http://www.w3.org/1999/xlink">
<g id="graph0" class="graph" transform="scale(1 1) rotate(0) translate(4 76)">
<title>panda::utils::book</title>
<polygon fill="white" stroke="none" points="-4,4 -4,-76 278.728,-76 278.728,4 -4,4"/>
<!-- Node1 -->
<g id="node1" class="node"><title>Node1</title>
<polygon fill="#bfbfbf" stroke="black" points="2.13163e-14,-28.5 2.13163e-14,-48.5 94.364,-48.5 94.364,-28.5 2.13163e-14,-28.5"/>
<text text-anchor="middle" x="47.182" y="-35.5" font-family="Helvetica,sans-Serif" font-size="10.00">panda::utils::book</text>
</g>
<!-- Node2 -->
<g id="node2" class="node"><title>Node2</title>
<g id="a_node2"><a xlink:href="classpanda_1_1utils_1_1BranchName.html#a6cc8a6df7c5b12a0221fd49773cca6a7" target="_top" xlink:title="Is the name included and not vetoed? ">
<polygon fill="white" stroke="black" points="130.364,-51.5 130.364,-71.5 274.728,-71.5 274.728,-51.5 130.364,-51.5"/>
<text text-anchor="middle" x="202.546" y="-58.5" font-family="Helvetica,sans-Serif" font-size="10.00">panda::utils::BranchName::in</text>
</a>
</g>
</g>
<!-- Node1&#45;&gt;Node2 -->
<g id="edge1" class="edge"><title>Node1&#45;&gt;Node2</title>
<path fill="none" stroke="midnightblue" d="M94.6124,-45.4632C104.068,-46.8812 114.254,-48.4088 124.45,-49.9379"/>
<polygon fill="midnightblue" stroke="midnightblue" points="124.214,-53.4416 134.623,-51.4635 125.252,-46.519 124.214,-53.4416"/>
</g>
<!-- Node3 -->
<g id="node3" class="node"><title>Node3</title>
<g id="a_node3"><a xlink:href="classpanda_1_1utils_1_1BranchName.html#a13958ff4a9d554d2c057c600b4f70412" target="_top" xlink:title="Prepend the branch name with &lt;objName.&gt;. ">
<polygon fill="white" stroke="black" points="137.032,-0.5 137.032,-32.5 268.06,-32.5 268.06,-0.5 137.032,-0.5"/>
<text text-anchor="start" x="145.032" y="-19.5" font-family="Helvetica,sans-Serif" font-size="10.00">panda::utils::BranchName</text>
<text text-anchor="middle" x="202.546" y="-7.5" font-family="Helvetica,sans-Serif" font-size="10.00">::fullName</text>
</a>
</g>
</g>
<!-- Node1&#45;&gt;Node3 -->
<g id="edge2" class="edge"><title>Node1&#45;&gt;Node3</title>
<path fill="none" stroke="midnightblue" d="M94.6124,-31.8396C104.805,-30.3775 115.846,-28.7936 126.834,-27.2174"/>
<polygon fill="midnightblue" stroke="midnightblue" points="127.482,-30.6604 136.884,-25.7758 126.488,-23.7313 127.482,-30.6604"/>
</g>
</g>
</svg>
