<?xml version="1.0" encoding="UTF-8" standalone="no"?>
<!DOCTYPE svg PUBLIC "-//W3C//DTD SVG 1.1//EN"
 "http://www.w3.org/Graphics/SVG/1.1/DTD/svg11.dtd">
<!-- Generated by graphviz version 2.38.0 (20140413.2041)
 -->
<!-- Title: main Pages: 1 -->
<svg width="525pt" height="125pt"
 viewBox="0.00 0.00 525.08 125.00" xmlns="http://www.w3.org/2000/svg" xmlns:xlink="http://www.w3.org/1999/xlink">
<g id="graph0" class="graph" transform="scale(1 1) rotate(0) translate(4 121)">
<title>main</title>
<polygon fill="white" stroke="none" points="-4,4 -4,-121 521.082,-121 521.082,4 -4,4"/>
<!-- Node1 -->
<g id="node1" class="node"><title>Node1</title>
<polygon fill="#bfbfbf" stroke="black" points="2.84217e-14,-64.5 2.84217e-14,-84.5 37.666,-84.5 37.666,-64.5 2.84217e-14,-64.5"/>
<text text-anchor="middle" x="18.833" y="-71.5" font-family="Helvetica,sans-Serif" font-size="10.00">main</text>
</g>
<!-- Node2 -->
<g id="node2" class="node"><title>Node2</title>
<g id="a_node2"><a xlink:href="classpanda_1_1FileMerger.html#a6725e20df5ca4795d030bfb7e274d1c0" target="_top" xlink:title="Add input paths. ">
<polygon fill="white" stroke="black" points="73.666,-84.5 73.666,-116.5 176.347,-116.5 176.347,-84.5 73.666,-84.5"/>
<text text-anchor="start" x="81.666" y="-103.5" font-family="Helvetica,sans-Serif" font-size="10.00">panda::FileMerger::</text>
<text text-anchor="middle" x="125.007" y="-91.5" font-family="Helvetica,sans-Serif" font-size="10.00">addInput</text>
</a>
</g>
</g>
<!-- Node1&#45;&gt;Node2 -->
<g id="edge1" class="edge"><title>Node1&#45;&gt;Node2</title>
<path fill="none" stroke="midnightblue" d="M37.9786,-79.0289C45.3337,-80.8645 54.288,-83.0994 63.6067,-85.4252"/>
<polygon fill="midnightblue" stroke="midnightblue" points="62.8479,-88.8431 73.3979,-87.8689 64.5431,-82.0515 62.8479,-88.8431"/>
</g>
<!-- Node3 -->
<g id="node3" class="node"><title>Node3</title>
<g id="a_node3"><a xlink:href="classpanda_1_1FileMerger.html#a13a672d0fef3317ce4335d6a56f4229b" target="_top" xlink:title="Run the merger. ">
<polygon fill="white" stroke="black" points="73.666,-33.5 73.666,-65.5 176.347,-65.5 176.347,-33.5 73.666,-33.5"/>
<text text-anchor="start" x="81.666" y="-52.5" font-family="Helvetica,sans-Serif" font-size="10.00">panda::FileMerger::</text>
<text text-anchor="middle" x="125.007" y="-40.5" font-family="Helvetica,sans-Serif" font-size="10.00">merge</text>
</a>
</g>
</g>
<!-- Node1&#45;&gt;Node3 -->
<g id="edge2" class="edge"><title>Node1&#45;&gt;Node3</title>
<path fill="none" stroke="midnightblue" d="M37.9786,-70.1453C45.3337,-68.3802 54.288,-66.2314 63.6067,-63.995"/>
<polygon fill="midnightblue" stroke="midnightblue" points="64.4907,-67.3823 73.3979,-61.6453 62.8572,-60.5756 64.4907,-67.3823"/>
</g>
<!-- Node4 -->
<g id="node4" class="node"><title>Node4</title>
<g id="a_node4"><a xlink:href="classpanda_1_1TreeEntry.html#a5aa5edab08e4a0ede18aa75736cfe602" target="_top" xlink:title="Read an entry from the input tree. ">
<polygon fill="white" stroke="black" points="218.737,-78.5 218.737,-98.5 354.773,-98.5 354.773,-78.5 218.737,-78.5"/>
<text text-anchor="middle" x="286.755" y="-85.5" font-family="Helvetica,sans-Serif" font-size="10.00">panda::TreeEntry::getEntry</text>
</a>
</g>
</g>
<!-- Node3&#45;&gt;Node4 -->
<g id="edge3" class="edge"><title>Node3&#45;&gt;Node4</title>
<path fill="none" stroke="midnightblue" d="M176.552,-61.8398C195.148,-66.3798 216.207,-71.521 234.836,-76.0689"/>
<polygon fill="midnightblue" stroke="midnightblue" points="234.071,-79.4849 244.616,-78.4565 235.731,-72.6846 234.071,-79.4849"/>
</g>
<!-- Node5 -->
<g id="node5" class="node"><title>Node5</title>
<g id="a_node5"><a xlink:href="classpanda_1_1TreeEntry.html#a637493ca67678fe71c1ca146f76c74df" target="_top" xlink:title="Bind the tree to this object. ">
<polygon fill="white" stroke="black" points="212.347,-39.5 212.347,-59.5 361.163,-59.5 361.163,-39.5 212.347,-39.5"/>
<text text-anchor="middle" x="286.755" y="-46.5" font-family="Helvetica,sans-Serif" font-size="10.00">panda::TreeEntry::setAddress</text>
</a>
</g>
</g>
<!-- Node3&#45;&gt;Node5 -->
<g id="edge4" class="edge"><title>Node3&#45;&gt;Node5</title>
<path fill="none" stroke="midnightblue" d="M176.552,-49.5C184.699,-49.5 193.318,-49.5 201.999,-49.5"/>
<polygon fill="midnightblue" stroke="midnightblue" points="202.193,-53.0001 212.193,-49.5 202.193,-46.0001 202.193,-53.0001"/>
</g>
<!-- Node7 -->
<g id="node7" class="node"><title>Node7</title>
<g id="a_node7"><a xlink:href="classpanda_1_1TreeEntry.html#ae7ebe6da38bc3ce8e93eaaf1dded043a" target="_top" xlink:title="Create branches bound to this object on the tree. ">
<polygon fill="white" stroke="black" points="226.515,-0.5 226.515,-20.5 346.995,-20.5 346.995,-0.5 226.515,-0.5"/>
<text text-anchor="middle" x="286.755" y="-7.5" font-family="Helvetica,sans-Serif" font-size="10.00">panda::TreeEntry::book</text>
</a>
</g>
</g>
<!-- Node3&#45;&gt;Node7 -->
<g id="edge6" class="edge"><title>Node3&#45;&gt;Node7</title>
<path fill="none" stroke="midnightblue" d="M176.552,-37.1602C195.148,-32.6202 216.207,-27.479 234.836,-22.9311"/>
<polygon fill="midnightblue" stroke="midnightblue" points="235.731,-26.3154 244.616,-20.5435 234.071,-19.5151 235.731,-26.3154"/>
</g>
<!-- Node6 -->
<g id="node6" class="node"><title>Node6</title>
<g id="a_node6"><a xlink:href="classpanda_1_1utils_1_1BranchList.html#a215520401f32786d157a68ee92d90372" target="_top" xlink:title="Return a new list of branches that starts with the objName, removing &lt;objName.&gt; from each...">
<polygon fill="white" stroke="black" points="397.163,-13.5 397.163,-45.5 517.082,-45.5 517.082,-13.5 397.163,-13.5"/>
<text text-anchor="start" x="405.163" y="-32.5" font-family="Helvetica,sans-Serif" font-size="10.00">panda::utils::BranchList</text>
<text text-anchor="middle" x="457.123" y="-20.5" font-family="Helvetica,sans-Serif" font-size="10.00">::subList</text>
</a>
</g>
</g>
<!-- Node5&#45;&gt;Node6 -->
<g id="edge5" class="edge"><title>Node5&#45;&gt;Node6</title>
<path fill="none" stroke="midnightblue" d="M361.603,-40.7277C370.021,-39.7278 378.578,-38.7113 386.932,-37.719"/>
<polygon fill="midnightblue" stroke="midnightblue" points="387.48,-41.1786 396.997,-36.5233 386.654,-34.2275 387.48,-41.1786"/>
</g>
<!-- Node7&#45;&gt;Node6 -->
<g id="edge7" class="edge"><title>Node7&#45;&gt;Node6</title>
<path fill="none" stroke="midnightblue" d="M347.115,-17.1987C360.016,-18.6546 373.771,-20.2068 387.012,-21.701"/>
<polygon fill="midnightblue" stroke="midnightblue" points="386.685,-25.1863 397.015,-22.8298 387.47,-18.2304 386.685,-25.1863"/>
</g>
</g>
</svg>
