<?xml version="1.0" encoding="UTF-8" standalone="no"?>
<!DOCTYPE svg PUBLIC "-//W3C//DTD SVG 1.1//EN"
 "http://www.w3.org/Graphics/SVG/1.1/DTD/svg11.dtd">
<!-- Generated by graphviz version 2.38.0 (20140413.2041)
 -->
<!-- Title: Utils/bin/padd.cc Pages: 1 -->
<svg width="295pt" height="212pt"
 viewBox="0.00 0.00 295.45 212.00" xmlns="http://www.w3.org/2000/svg" xmlns:xlink="http://www.w3.org/1999/xlink">
<g id="graph0" class="graph" transform="scale(1 1) rotate(0) translate(4 208)">
<title>Utils/bin/padd.cc</title>
<polygon fill="white" stroke="none" points="-4,4 -4,-208 291.447,-208 291.447,4 -4,4"/>
<!-- Node1 -->
<g id="node1" class="node"><title>Node1</title>
<polygon fill="#bfbfbf" stroke="black" points="162.607,-183.5 162.607,-203.5 251.953,-203.5 251.953,-183.5 162.607,-183.5"/>
<text text-anchor="middle" x="207.28" y="-190.5" font-family="Helvetica,sans-Serif" font-size="10.00">Utils/bin/padd.cc</text>
</g>
<!-- Node2 -->
<g id="node2" class="node"><title>Node2</title>
<g id="a_node2"><a xlink:href="FileMerger_8h.html" target="_top" xlink:title="../interface/FileMerger.h">
<polygon fill="white" stroke="black" points="93.4975,-126.5 93.4975,-146.5 215.063,-146.5 215.063,-126.5 93.4975,-126.5"/>
<text text-anchor="middle" x="154.28" y="-133.5" font-family="Helvetica,sans-Serif" font-size="10.00">../interface/FileMerger.h</text>
</a>
</g>
</g>
<!-- Node1&#45;&gt;Node2 -->
<g id="edge1" class="edge"><title>Node1&#45;&gt;Node2</title>
<path fill="none" stroke="midnightblue" d="M198.529,-183.418C190.903,-175.504 179.648,-163.824 170.397,-154.225"/>
<polygon fill="midnightblue" stroke="midnightblue" points="172.682,-151.552 163.223,-146.779 167.641,-156.409 172.682,-151.552"/>
</g>
<!-- Node8 -->
<g id="node8" class="node"><title>Node8</title>
<polygon fill="white" stroke="#bfbfbf" points="233.114,-126.5 233.114,-146.5 287.447,-146.5 287.447,-126.5 233.114,-126.5"/>
<text text-anchor="middle" x="260.28" y="-133.5" font-family="Helvetica,sans-Serif" font-size="10.00">iostream</text>
</g>
<!-- Node1&#45;&gt;Node8 -->
<g id="edge9" class="edge"><title>Node1&#45;&gt;Node8</title>
<path fill="none" stroke="midnightblue" d="M216.032,-183.418C223.658,-175.504 234.913,-163.824 244.164,-154.225"/>
<polygon fill="midnightblue" stroke="midnightblue" points="246.92,-156.409 251.338,-146.779 241.879,-151.552 246.92,-156.409"/>
</g>
<!-- Node3 -->
<g id="node3" class="node"><title>Node3</title>
<g id="a_node3"><a xlink:href="IOUtils_8h.html" target="_top" xlink:title="../../Framework/interface\l/IOUtils.h">
<polygon fill="white" stroke="black" points="47.387,-57.5 47.387,-89.5 171.174,-89.5 171.174,-57.5 47.387,-57.5"/>
<text text-anchor="start" x="55.387" y="-76.5" font-family="Helvetica,sans-Serif" font-size="10.00">../../Framework/interface</text>
<text text-anchor="middle" x="109.28" y="-64.5" font-family="Helvetica,sans-Serif" font-size="10.00">/IOUtils.h</text>
</a>
</g>
</g>
<!-- Node2&#45;&gt;Node3 -->
<g id="edge2" class="edge"><title>Node2&#45;&gt;Node3</title>
<path fill="none" stroke="midnightblue" d="M147.641,-126.499C142.063,-118.939 133.841,-107.793 126.437,-97.7571"/>
<polygon fill="midnightblue" stroke="midnightblue" points="129.24,-95.6608 120.487,-89.6914 123.607,-99.8164 129.24,-95.6608"/>
</g>
<!-- Node4 -->
<g id="node4" class="node"><title>Node4</title>
<polygon fill="white" stroke="#bfbfbf" points="-1.06581e-14,-0.5 -1.06581e-14,-20.5 56.561,-20.5 56.561,-0.5 -1.06581e-14,-0.5"/>
<text text-anchor="middle" x="28.2805" y="-7.5" font-family="Helvetica,sans-Serif" font-size="10.00">TString.h</text>
</g>
<!-- Node2&#45;&gt;Node4 -->
<g id="edge6" class="edge"><title>Node2&#45;&gt;Node4</title>
<path fill="none" stroke="midnightblue" d="M98.997,-126.475C76.8063,-120.012 53.0379,-108.942 38.2805,-90 25.1899,-73.1972 24.2874,-47.9547 25.6116,-30.6578"/>
<polygon fill="midnightblue" stroke="midnightblue" points="29.103,-30.9255 26.6976,-20.6073 22.1435,-30.1734 29.103,-30.9255"/>
</g>
<!-- Node6 -->
<g id="node6" class="node"><title>Node6</title>
<polygon fill="white" stroke="#bfbfbf" points="164.667,-0.5 164.667,-20.5 207.893,-20.5 207.893,-0.5 164.667,-0.5"/>
<text text-anchor="middle" x="186.28" y="-7.5" font-family="Helvetica,sans-Serif" font-size="10.00">vector</text>
</g>
<!-- Node2&#45;&gt;Node6 -->
<g id="edge7" class="edge"><title>Node2&#45;&gt;Node6</title>
<path fill="none" stroke="midnightblue" d="M161.177,-126.307C167.373,-117.496 176.117,-103.569 180.28,-90 186.217,-70.6528 187.294,-47.4261 187.146,-31.2794"/>
<polygon fill="midnightblue" stroke="midnightblue" points="190.636,-30.8347 186.874,-20.93 183.638,-31.0185 190.636,-30.8347"/>
</g>
<!-- Node7 -->
<g id="node7" class="node"><title>Node7</title>
<polygon fill="white" stroke="#bfbfbf" points="226.885,-63.5 226.885,-83.5 285.676,-83.5 285.676,-63.5 226.885,-63.5"/>
<text text-anchor="middle" x="256.28" y="-70.5" font-family="Helvetica,sans-Serif" font-size="10.00">functional</text>
</g>
<!-- Node2&#45;&gt;Node7 -->
<g id="edge8" class="edge"><title>Node2&#45;&gt;Node7</title>
<path fill="none" stroke="midnightblue" d="M169.331,-126.499C185.979,-116.543 213.026,-100.368 232.537,-88.6997"/>
<polygon fill="midnightblue" stroke="midnightblue" points="234.382,-91.6741 241.168,-83.5377 230.79,-85.6665 234.382,-91.6741"/>
</g>
<!-- Node3&#45;&gt;Node4 -->
<g id="edge3" class="edge"><title>Node3&#45;&gt;Node4</title>
<path fill="none" stroke="midnightblue" d="M89.258,-57.4213C76.7729,-48.019 60.7644,-35.9632 48.2831,-26.5637"/>
<polygon fill="midnightblue" stroke="midnightblue" points="50.386,-23.7658 40.2923,-20.5459 46.1749,-29.3576 50.386,-23.7658"/>
</g>
<!-- Node5 -->
<g id="node5" class="node"><title>Node5</title>
<polygon fill="white" stroke="#bfbfbf" points="83.779,-0.5 83.779,-20.5 134.782,-20.5 134.782,-0.5 83.779,-0.5"/>
<text text-anchor="middle" x="109.28" y="-7.5" font-family="Helvetica,sans-Serif" font-size="10.00">TTree.h</text>
</g>
<!-- Node3&#45;&gt;Node5 -->
<g id="edge4" class="edge"><title>Node3&#45;&gt;Node5</title>
<path fill="none" stroke="midnightblue" d="M109.28,-57.4213C109.28,-49.3751 109.28,-39.3856 109.28,-30.7806"/>
<polygon fill="midnightblue" stroke="midnightblue" points="112.781,-30.5459 109.28,-20.5459 105.781,-30.5459 112.781,-30.5459"/>
</g>
<!-- Node3&#45;&gt;Node6 -->
<g id="edge5" class="edge"><title>Node3&#45;&gt;Node6</title>
<path fill="none" stroke="midnightblue" d="M128.314,-57.4213C140.069,-48.1094 155.108,-36.1948 166.923,-26.8355"/>
<polygon fill="midnightblue" stroke="midnightblue" points="169.197,-29.499 174.862,-20.5459 164.85,-24.0121 169.197,-29.499"/>
</g>
</g>
</svg>
