<?xml version="1.0" encoding="UTF-8" standalone="no"?>
<!DOCTYPE svg PUBLIC "-//W3C//DTD SVG 1.1//EN"
 "http://www.w3.org/Graphics/SVG/1.1/DTD/svg11.dtd">
<!-- Generated by graphviz version 2.38.0 (20140413.2041)
 -->
<!-- Title: Objects/interface/ParticleM.h Pages: 1 -->
<!--zoomable 314 -->
<svg id="main" version="1.1" xmlns="http://www.w3.org/2000/svg" xmlns:xlink="http://www.w3.org/1999/xlink" xml:space="preserve" onload="init(evt)">
<style type="text/css"><![CDATA[
.edge:hover path { stroke: red; }
.edge:hover polygon { stroke: red; fill: red; }
]]></style>
<script type="text/javascript"><![CDATA[
var edges = document.getElementsByTagName('g');
if (edges && edges.length) {
  for (var i=0;i<edges.length;i++) {
    if (edges[i].id.substr(0,4)=='edge') {
      edges[i].setAttribute('class','edge');
    }
  }
}
]]></script>
        <defs>
                <circle id="rim" cx="0" cy="0" r="7"/>
                <circle id="rim2" cx="0" cy="0" r="3.5"/>
                <g id="zoomPlus">
                        <use xlink:href="#rim" fill="#404040">
                                <set attributeName="fill" to="#808080" begin="zoomplus.mouseover" end="zoomplus.mouseout"/>
                        </use>
                        <path d="M-4,0h8M0,-4v8" fill="none" stroke="white" stroke-width="1.5" pointer-events="none"/>
                </g>
                <g id="zoomMin">
                        <use xlink:href="#rim" fill="#404040">
                                <set attributeName="fill" to="#808080" begin="zoomminus.mouseover" end="zoomminus.mouseout"/>
                        </use>
                        <path d="M-4,0h8" fill="none" stroke="white" stroke-width="1.5" pointer-events="none"/>
                </g>
                <g id="dirArrow">
                        <path fill="none" stroke="white" stroke-width="1.5" d="M0,-3.0v7 M-2.5,-0.5L0,-3.0L2.5,-0.5"/>
                </g>
               <g id="resetDef">
                       <use xlink:href="#rim2" fill="#404040">
                               <set attributeName="fill" to="#808080" begin="reset.mouseover" end="reset.mouseout"/>
                       </use>
               </g>
        </defs>

<script type="text/javascript">
var viewWidth = 1861;
var viewHeight = 314;
var sectionId = 'dynsection-1';
</script>
<script xlink:href="svgpan.js"/>
<svg id="graph" class="graph">
<g id="viewport">
<title>Objects/interface/ParticleM.h</title>
<polygon fill="white" stroke="none" points="-4,4 -4,-310 1856.61,-310 1856.61,4 -4,4"/>
<!-- Node1 -->
<g id="node1" class="node"><title>Node1</title>
<polygon fill="#bfbfbf" stroke="black" points="997.102,-285.5 997.102,-305.5 1140.9,-305.5 1140.9,-285.5 997.102,-285.5"/>
<text text-anchor="middle" x="1069" y="-292.5" font-family="Helvetica,sans-Serif" font-size="10.00">Objects/interface/ParticleM.h</text>
</g>
<!-- Node2 -->
<g id="node2" class="node"><title>Node2</title>
<g id="a_node2"><a xlink:href="LinkDef_8h.html" target="_top" xlink:title="obj/LinkDef.h">
<polygon fill="white" stroke="black" points="799.826,-0.5 799.826,-20.5 874.174,-20.5 874.174,-0.5 799.826,-0.5"/>
<text text-anchor="middle" x="837" y="-7.5" font-family="Helvetica,sans-Serif" font-size="10.00">obj/LinkDef.h</text>
</a>
</g>
</g>
<!-- Node1&#45;&gt;Node2 -->
<g id="edge1" class="edge"><title>Node1&#45;&gt;Node2</title>
<path fill="none" stroke="midnightblue" d="M986.646,-294.483C736.09,-293.354 0,-281.602 0,-182.5 0,-182.5 0,-182.5 0,-123.5 0,-46.4914 85.0282,-74.5941 160,-57 283.142,-28.1014 676.088,-15.6687 799.524,-12.4124"/>
<polygon fill="midnightblue" stroke="midnightblue" points="986.768,-297.984 996.782,-294.525 986.797,-290.984 986.768,-297.984"/>
</g>
<!-- Node3 -->
<g id="node3" class="node"><title>Node3</title>
<g id="a_node3"><a xlink:href="GenParticle_8h.html" target="_top" xlink:title="Objects/interface/GenParticle.h">
<polygon fill="white" stroke="black" points="600.818,-228.5 600.818,-248.5 755.182,-248.5 755.182,-228.5 600.818,-228.5"/>
<text text-anchor="middle" x="678" y="-235.5" font-family="Helvetica,sans-Serif" font-size="10.00">Objects/interface/GenParticle.h</text>
</a>
</g>
</g>
<!-- Node1&#45;&gt;Node3 -->
<g id="edge2" class="edge"><title>Node1&#45;&gt;Node3</title>
<path fill="none" stroke="midnightblue" d="M994.827,-284.066C921.824,-273.798 811.495,-258.278 742.163,-248.525"/>
<polygon fill="midnightblue" stroke="midnightblue" points="994.482,-287.552 1004.87,-285.479 995.457,-280.621 994.482,-287.552"/>
</g>
<!-- Node13 -->
<g id="node13" class="node"><title>Node13</title>
<g id="a_node13"><a xlink:href="Tau_8h.html" target="_top" xlink:title="Objects/interface/Tau.h">
<polygon fill="white" stroke="black" points="828.32,-171.5 828.32,-191.5 947.68,-191.5 947.68,-171.5 828.32,-171.5"/>
<text text-anchor="middle" x="888" y="-178.5" font-family="Helvetica,sans-Serif" font-size="10.00">Objects/interface/Tau.h</text>
</a>
</g>
</g>
<!-- Node1&#45;&gt;Node13 -->
<g id="edge44" class="edge"><title>Node1&#45;&gt;Node13</title>
<path fill="none" stroke="midnightblue" d="M1045.36,-279.869C1007.43,-256.401 934.086,-211.017 902.763,-191.635"/>
<polygon fill="midnightblue" stroke="midnightblue" points="1043.84,-283.049 1054.19,-285.335 1047.53,-277.096 1043.84,-283.049"/>
</g>
<!-- Node18 -->
<g id="node18" class="node"><title>Node18</title>
<g id="a_node18"><a xlink:href="Parton_8h.html" target="_top" xlink:title="Objects/interface/Parton.h">
<polygon fill="white" stroke="black" points="955.207,-114.5 955.207,-134.5 1086.79,-134.5 1086.79,-114.5 955.207,-114.5"/>
<text text-anchor="middle" x="1021" y="-121.5" font-family="Helvetica,sans-Serif" font-size="10.00">Objects/interface/Parton.h</text>
</a>
</g>
</g>
<!-- Node1&#45;&gt;Node18 -->
<g id="edge28" class="edge"><title>Node1&#45;&gt;Node18</title>
<path fill="none" stroke="midnightblue" d="M1055.51,-277.116C1049.85,-268.994 1043.74,-258.937 1040,-249 1024.64,-208.192 1021.69,-155.331 1021.13,-134.501"/>
<polygon fill="midnightblue" stroke="midnightblue" points="1052.81,-279.356 1061.54,-285.356 1058.45,-275.22 1052.81,-279.356"/>
</g>
<!-- Node20 -->
<g id="node20" class="node"><title>Node20</title>
<g id="a_node20"><a xlink:href="PFCand_8h.html" target="_top" xlink:title="Objects/interface/PFCand.h">
<polygon fill="white" stroke="black" points="1048.6,-228.5 1048.6,-248.5 1187.4,-248.5 1187.4,-228.5 1048.6,-228.5"/>
<text text-anchor="middle" x="1118" y="-235.5" font-family="Helvetica,sans-Serif" font-size="10.00">Objects/interface/PFCand.h</text>
</a>
</g>
</g>
<!-- Node1&#45;&gt;Node20 -->
<g id="edge32" class="edge"><title>Node1&#45;&gt;Node20</title>
<path fill="none" stroke="midnightblue" d="M1083.94,-277.725C1092.42,-268.215 1102.7,-256.675 1109.73,-248.779"/>
<polygon fill="midnightblue" stroke="midnightblue" points="1081.13,-275.623 1077.09,-285.418 1086.36,-280.279 1081.13,-275.623"/>
</g>
<!-- Node26 -->
<g id="node26" class="node"><title>Node26</title>
<g id="a_node26"><a xlink:href="GenJet_8h.html" target="_top" xlink:title="Objects/interface/GenJet.h">
<polygon fill="white" stroke="black" points="1576.82,-228.5 1576.82,-248.5 1711.18,-248.5 1711.18,-228.5 1576.82,-228.5"/>
<text text-anchor="middle" x="1644" y="-235.5" font-family="Helvetica,sans-Serif" font-size="10.00">Objects/interface/GenJet.h</text>
</a>
</g>
</g>
<!-- Node1&#45;&gt;Node26 -->
<g id="edge45" class="edge"><title>Node1&#45;&gt;Node26</title>
<path fill="none" stroke="midnightblue" d="M1151.05,-286.652C1265.37,-275.717 1470.43,-256.102 1576.44,-245.963"/>
<polygon fill="midnightblue" stroke="midnightblue" points="1150.57,-283.181 1140.95,-287.618 1151.24,-290.15 1150.57,-283.181"/>
</g>
<!-- Node28 -->
<g id="node28" class="node"><title>Node28</title>
<g id="a_node28"><a xlink:href="MicroJet_8h.html" target="_top" xlink:title="Objects/interface/MicroJet.h">
<polygon fill="white" stroke="black" points="1371.05,-228.5 1371.05,-248.5 1510.95,-248.5 1510.95,-228.5 1371.05,-228.5"/>
<text text-anchor="middle" x="1441" y="-235.5" font-family="Helvetica,sans-Serif" font-size="10.00">Objects/interface/MicroJet.h</text>
</a>
</g>
</g>
<!-- Node1&#45;&gt;Node28 -->
<g id="edge50" class="edge"><title>Node1&#45;&gt;Node28</title>
<path fill="none" stroke="midnightblue" d="M1140,-284.003C1209.45,-273.734 1314.13,-258.258 1379.96,-248.525"/>
<polygon fill="midnightblue" stroke="midnightblue" points="1139.39,-280.554 1130.01,-285.479 1140.42,-287.479 1139.39,-280.554"/>
</g>
<!-- Node30 -->
<g id="node30" class="node"><title>Node30</title>
<g id="a_node30"><a xlink:href="ParticleM_8cc.html" target="_top" xlink:title="Objects/src/ParticleM.cc">
<polygon fill="white" stroke="black" points="1729.39,-228.5 1729.39,-248.5 1852.61,-248.5 1852.61,-228.5 1729.39,-228.5"/>
<text text-anchor="middle" x="1791" y="-235.5" font-family="Helvetica,sans-Serif" font-size="10.00">Objects/src/ParticleM.cc</text>
</a>
</g>
</g>
<!-- Node1&#45;&gt;Node30 -->
<g id="edge56" class="edge"><title>Node1&#45;&gt;Node30</title>
<path fill="none" stroke="midnightblue" d="M1151.53,-290.408C1275.26,-283.894 1516.08,-269.747 1720,-249 1722.97,-248.698 1726.01,-248.369 1729.07,-248.021"/>
<polygon fill="midnightblue" stroke="midnightblue" points="1151.18,-286.921 1141.38,-290.939 1151.55,-293.912 1151.18,-286.921"/>
</g>
<!-- Node3&#45;&gt;Node2 -->
<g id="edge3" class="edge"><title>Node3&#45;&gt;Node2</title>
<path fill="none" stroke="midnightblue" d="M590.467,-234.021C425.738,-225.495 89.8482,-197.73 133,-114 153,-75.193 171.929,-71.8029 213,-57 321.956,-17.73 682.385,-12.3119 799.724,-11.5974"/>
<polygon fill="midnightblue" stroke="midnightblue" points="590.42,-237.523 600.584,-234.532 590.773,-230.532 590.42,-237.523"/>
</g>
<!-- Node4 -->
<g id="node4" class="node"><title>Node4</title>
<g id="a_node4"><a xlink:href="Lepton_8h.html" target="_top" xlink:title="Objects/interface/Lepton.h">
<polygon fill="white" stroke="black" points="371.647,-171.5 371.647,-191.5 504.353,-191.5 504.353,-171.5 371.647,-171.5"/>
<text text-anchor="middle" x="438" y="-178.5" font-family="Helvetica,sans-Serif" font-size="10.00">Objects/interface/Lepton.h</text>
</a>
</g>
</g>
<!-- Node3&#45;&gt;Node4 -->
<g id="edge4" class="edge"><title>Node3&#45;&gt;Node4</title>
<path fill="none" stroke="midnightblue" d="M628.85,-226.237C584.079,-215.976 518.809,-201.019 477.384,-191.525"/>
<polygon fill="midnightblue" stroke="midnightblue" points="628.108,-229.657 638.638,-228.479 629.672,-222.834 628.108,-229.657"/>
</g>
<!-- Node6 -->
<g id="node6" class="node"><title>Node6</title>
<g id="a_node6"><a xlink:href="Event_8h.html" target="_top" xlink:title="Objects/interface/Event.h">
<polygon fill="white" stroke="black" points="1035.15,-57.5 1035.15,-77.5 1162.85,-77.5 1162.85,-57.5 1035.15,-57.5"/>
<text text-anchor="middle" x="1099" y="-64.5" font-family="Helvetica,sans-Serif" font-size="10.00">Objects/interface/Event.h</text>
</a>
</g>
</g>
<!-- Node3&#45;&gt;Node6 -->
<g id="edge26" class="edge"><title>Node3&#45;&gt;Node6</title>
<path fill="none" stroke="midnightblue" d="M693.045,-220.6C718.378,-193.328 772.45,-140.042 830,-114 848.421,-105.665 961.941,-88.2065 1035.5,-77.5035"/>
<polygon fill="midnightblue" stroke="midnightblue" points="690.291,-218.425 686.133,-228.17 695.461,-223.145 690.291,-218.425"/>
</g>
<!-- Node3&#45;&gt;Node13 -->
<g id="edge18" class="edge"><title>Node3&#45;&gt;Node13</title>
<path fill="none" stroke="midnightblue" d="M722.489,-225.848C761.641,-215.594 817.832,-200.877 853.62,-191.504"/>
<polygon fill="midnightblue" stroke="midnightblue" points="721.464,-222.498 712.677,-228.418 723.238,-229.27 721.464,-222.498"/>
</g>
<!-- Node15 -->
<g id="node15" class="node"><title>Node15</title>
<g id="a_node15"><a xlink:href="Photon_8h.html" target="_top" xlink:title="Objects/interface/Photon.h">
<polygon fill="white" stroke="black" points="611.091,-114.5 611.091,-134.5 744.909,-134.5 744.909,-114.5 611.091,-114.5"/>
<text text-anchor="middle" x="678" y="-121.5" font-family="Helvetica,sans-Serif" font-size="10.00">Objects/interface/Photon.h</text>
</a>
</g>
</g>
<!-- Node3&#45;&gt;Node15 -->
<g id="edge22" class="edge"><title>Node3&#45;&gt;Node15</title>
<path fill="none" stroke="midnightblue" d="M678,-218.17C678,-193.839 678,-153.028 678,-134.792"/>
<polygon fill="midnightblue" stroke="midnightblue" points="674.5,-218.335 678,-228.335 681.5,-218.335 674.5,-218.335"/>
</g>
<!-- Node17 -->
<g id="node17" class="node"><title>Node17</title>
<g id="a_node17"><a xlink:href="GenParticle_8cc.html" target="_top" xlink:title="Objects/src/GenParticle.cc">
<polygon fill="white" stroke="black" points="28.1045,-171.5 28.1045,-191.5 161.895,-191.5 161.895,-171.5 28.1045,-171.5"/>
<text text-anchor="middle" x="95" y="-178.5" font-family="Helvetica,sans-Serif" font-size="10.00">Objects/src/GenParticle.cc</text>
</a>
</g>
</g>
<!-- Node3&#45;&gt;Node17 -->
<g id="edge27" class="edge"><title>Node3&#45;&gt;Node17</title>
<path fill="none" stroke="midnightblue" d="M590.461,-230.27C490.236,-221.828 321.161,-207.088 176,-192 171.493,-191.532 166.848,-191.032 162.169,-190.516"/>
<polygon fill="midnightblue" stroke="midnightblue" points="590.282,-233.767 600.54,-231.117 590.869,-226.791 590.282,-233.767"/>
</g>
<!-- Node4&#45;&gt;Node2 -->
<g id="edge5" class="edge"><title>Node4&#45;&gt;Node2</title>
<path fill="none" stroke="midnightblue" d="M435.103,-161.143C432.205,-133.698 431.612,-83.8365 460,-57 484.433,-33.9025 709.325,-18.7237 799.679,-13.5103"/>
<polygon fill="midnightblue" stroke="midnightblue" points="431.674,-161.922 436.409,-171.4 438.618,-161.038 431.674,-161.922"/>
</g>
<!-- Node5 -->
<g id="node5" class="node"><title>Node5</title>
<g id="a_node5"><a xlink:href="Electron_8h.html" target="_top" xlink:title="Objects/interface/Electron.h">
<polygon fill="white" stroke="black" points="141.597,-114.5 141.597,-134.5 280.403,-134.5 280.403,-114.5 141.597,-114.5"/>
<text text-anchor="middle" x="211" y="-121.5" font-family="Helvetica,sans-Serif" font-size="10.00">Objects/interface/Electron.h</text>
</a>
</g>
</g>
<!-- Node4&#45;&gt;Node5 -->
<g id="edge6" class="edge"><title>Node4&#45;&gt;Node5</title>
<path fill="none" stroke="midnightblue" d="M390.978,-169.107C348.648,-158.851 287.267,-143.979 248.251,-134.525"/>
<polygon fill="midnightblue" stroke="midnightblue" points="390.227,-172.526 400.77,-171.479 391.875,-165.723 390.227,-172.526"/>
</g>
<!-- Node10 -->
<g id="node10" class="node"><title>Node10</title>
<g id="a_node10"><a xlink:href="Muon_8h.html" target="_top" xlink:title="Objects/interface/Muon.h">
<polygon fill="white" stroke="black" points="466.43,-114.5 466.43,-134.5 593.569,-134.5 593.569,-114.5 466.43,-114.5"/>
<text text-anchor="middle" x="530" y="-121.5" font-family="Helvetica,sans-Serif" font-size="10.00">Objects/interface/Muon.h</text>
</a>
</g>
</g>
<!-- Node4&#45;&gt;Node10 -->
<g id="edge13" class="edge"><title>Node4&#45;&gt;Node10</title>
<path fill="none" stroke="midnightblue" d="M461.868,-166.231C478.575,-156.243 500.395,-143.199 514.786,-134.596"/>
<polygon fill="midnightblue" stroke="midnightblue" points="459.979,-163.282 453.192,-171.418 463.571,-169.291 459.979,-163.282"/>
</g>
<!-- Node12 -->
<g id="node12" class="node"><title>Node12</title>
<g id="a_node12"><a xlink:href="Lepton_8cc.html" target="_top" xlink:title="Objects/src/Lepton.cc">
<polygon fill="white" stroke="black" points="297.933,-114.5 297.933,-134.5 410.067,-134.5 410.067,-114.5 297.933,-114.5"/>
<text text-anchor="middle" x="354" y="-121.5" font-family="Helvetica,sans-Serif" font-size="10.00">Objects/src/Lepton.cc</text>
</a>
</g>
</g>
<!-- Node4&#45;&gt;Node12 -->
<g id="edge17" class="edge"><title>Node4&#45;&gt;Node12</title>
<path fill="none" stroke="midnightblue" d="M415.356,-165.673C400.218,-155.762 380.787,-143.039 367.891,-134.596"/>
<polygon fill="midnightblue" stroke="midnightblue" points="413.846,-168.868 424.129,-171.418 417.68,-163.012 413.846,-168.868"/>
</g>
<!-- Node5&#45;&gt;Node2 -->
<g id="edge7" class="edge"><title>Node5&#45;&gt;Node2</title>
<path fill="none" stroke="midnightblue" d="M210.931,-104.04C212.013,-88.7574 216.203,-68.2411 230,-57 274.139,-21.0387 674.099,-13.3793 799.545,-11.8559"/>
<polygon fill="midnightblue" stroke="midnightblue" points="207.419,-104.361 210.601,-114.467 214.415,-104.583 207.419,-104.361"/>
</g>
<!-- Node5&#45;&gt;Node6 -->
<g id="edge8" class="edge"><title>Node5&#45;&gt;Node6</title>
<path fill="none" stroke="midnightblue" d="M290.957,-113.89C617.948,-86.5633 703.292,-107.201 1027,-78 1029.64,-77.7621 1032.33,-77.4993 1035.04,-77.2173"/>
<polygon fill="midnightblue" stroke="midnightblue" points="290.385,-110.426 280.715,-114.755 290.974,-117.401 290.385,-110.426"/>
</g>
<!-- Node9 -->
<g id="node9" class="node"><title>Node9</title>
<g id="a_node9"><a xlink:href="Electron_8cc.html" target="_top" xlink:title="Objects/src/Electron.cc">
<polygon fill="white" stroke="black" points="238.883,-57.5 238.883,-77.5 357.117,-77.5 357.117,-57.5 238.883,-57.5"/>
<text text-anchor="middle" x="298" y="-64.5" font-family="Helvetica,sans-Serif" font-size="10.00">Objects/src/Electron.cc</text>
</a>
</g>
</g>
<!-- Node5&#45;&gt;Node9 -->
<g id="edge12" class="edge"><title>Node5&#45;&gt;Node9</title>
<path fill="none" stroke="midnightblue" d="M234.011,-108.953C249.751,-99.0023 270.13,-86.1189 283.612,-77.5956"/>
<polygon fill="midnightblue" stroke="midnightblue" points="231.949,-106.116 225.366,-114.418 235.689,-112.033 231.949,-106.116"/>
</g>
<!-- Node6&#45;&gt;Node2 -->
<g id="edge9" class="edge"><title>Node6&#45;&gt;Node2</title>
<path fill="none" stroke="midnightblue" d="M1046.19,-55.4144C995.267,-44.724 919.478,-28.8141 874.471,-19.366"/>
<polygon fill="midnightblue" stroke="midnightblue" points="1045.52,-58.8503 1056.03,-57.4795 1046.96,-51.9996 1045.52,-58.8503"/>
</g>
<!-- Node7 -->
<g id="node7" class="node"><title>Node7</title>
<g id="a_node7"><a xlink:href="Event_8cc.html" target="_top" xlink:title="Objects/src/Event.cc">
<polygon fill="white" stroke="black" points="1109.44,-0.5 1109.44,-20.5 1216.56,-20.5 1216.56,-0.5 1109.44,-0.5"/>
<text text-anchor="middle" x="1163" y="-7.5" font-family="Helvetica,sans-Serif" font-size="10.00">Objects/src/Event.cc</text>
</a>
</g>
</g>
<!-- Node6&#45;&gt;Node7 -->
<g id="edge10" class="edge"><title>Node6&#45;&gt;Node7</title>
<path fill="none" stroke="midnightblue" d="M1117.19,-50.8678C1128.49,-41.1535 1142.64,-28.9944 1152.2,-20.7795"/>
<polygon fill="midnightblue" stroke="midnightblue" points="1114.87,-48.2457 1109.57,-57.4179 1119.43,-53.5546 1114.87,-48.2457"/>
</g>
<!-- Node8 -->
<g id="node8" class="node"><title>Node8</title>
<g id="a_node8"><a xlink:href="FileMerger_8cc.html" target="_top" xlink:title="Utils/src/FileMerger.cc">
<polygon fill="white" stroke="black" points="976.564,-0.5 976.564,-20.5 1091.44,-20.5 1091.44,-0.5 976.564,-0.5"/>
<text text-anchor="middle" x="1034" y="-7.5" font-family="Helvetica,sans-Serif" font-size="10.00">Utils/src/FileMerger.cc</text>
</a>
</g>
</g>
<!-- Node6&#45;&gt;Node8 -->
<g id="edge11" class="edge"><title>Node6&#45;&gt;Node8</title>
<path fill="none" stroke="midnightblue" d="M1080.53,-50.8678C1069.05,-41.1535 1054.68,-28.9944 1044.97,-20.7795"/>
<polygon fill="midnightblue" stroke="midnightblue" points="1078.37,-53.6303 1088.27,-57.4179 1082.89,-48.2866 1078.37,-53.6303"/>
</g>
<!-- Node10&#45;&gt;Node2 -->
<g id="edge14" class="edge"><title>Node10&#45;&gt;Node2</title>
<path fill="none" stroke="midnightblue" d="M552.133,-109.005C575.761,-94.0984 614.715,-71.1245 651,-57 700.877,-37.5846 761.585,-24.5938 799.774,-17.626"/>
<polygon fill="midnightblue" stroke="midnightblue" points="550.117,-106.14 543.576,-114.475 553.887,-112.038 550.117,-106.14"/>
</g>
<!-- Node10&#45;&gt;Node6 -->
<g id="edge15" class="edge"><title>Node10&#45;&gt;Node6</title>
<path fill="none" stroke="midnightblue" d="M603.549,-113.875C792.148,-93.7528 841.757,-98.0554 1027,-78 1029.63,-77.715 1032.32,-77.4128 1035.03,-77.0982"/>
<polygon fill="midnightblue" stroke="midnightblue" points="603.152,-110.397 593.584,-114.947 603.901,-117.357 603.152,-110.397"/>
</g>
<!-- Node11 -->
<g id="node11" class="node"><title>Node11</title>
<g id="a_node11"><a xlink:href="Muon_8cc.html" target="_top" xlink:title="Objects/src/Muon.cc">
<polygon fill="white" stroke="black" points="468.716,-57.5 468.716,-77.5 575.284,-77.5 575.284,-57.5 468.716,-57.5"/>
<text text-anchor="middle" x="522" y="-64.5" font-family="Helvetica,sans-Serif" font-size="10.00">Objects/src/Muon.cc</text>
</a>
</g>
</g>
<!-- Node10&#45;&gt;Node11 -->
<g id="edge16" class="edge"><title>Node10&#45;&gt;Node11</title>
<path fill="none" stroke="midnightblue" d="M527.219,-104.383C525.909,-95.3738 524.405,-85.0373 523.35,-77.7795"/>
<polygon fill="midnightblue" stroke="midnightblue" points="523.776,-105.026 528.679,-114.418 530.703,-104.018 523.776,-105.026"/>
</g>
<!-- Node13&#45;&gt;Node2 -->
<g id="edge19" class="edge"><title>Node13&#45;&gt;Node2</title>
<path fill="none" stroke="midnightblue" d="M860.138,-166.133C848.572,-158.569 836.38,-148.114 830,-135 811.116,-96.1843 826.201,-42.1873 833.555,-20.7771"/>
<polygon fill="midnightblue" stroke="midnightblue" points="858.387,-169.164 868.754,-171.35 862.013,-163.177 858.387,-169.164"/>
</g>
<!-- Node13&#45;&gt;Node6 -->
<g id="edge20" class="edge"><title>Node13&#45;&gt;Node6</title>
<path fill="none" stroke="midnightblue" d="M957.944,-174.263C1011.22,-167.926 1078.32,-155.978 1096,-135 1109.55,-118.916 1105.35,-92.0903 1101.79,-77.9255"/>
<polygon fill="midnightblue" stroke="midnightblue" points="957.371,-170.805 947.834,-175.419 958.167,-177.76 957.371,-170.805"/>
</g>
<!-- Node14 -->
<g id="node14" class="node"><title>Node14</title>
<g id="a_node14"><a xlink:href="Tau_8cc.html" target="_top" xlink:title="Objects/src/Tau.cc">
<polygon fill="white" stroke="black" points="838.606,-114.5 838.606,-134.5 937.394,-134.5 937.394,-114.5 838.606,-114.5"/>
<text text-anchor="middle" x="888" y="-121.5" font-family="Helvetica,sans-Serif" font-size="10.00">Objects/src/Tau.cc</text>
</a>
</g>
</g>
<!-- Node13&#45;&gt;Node14 -->
<g id="edge21" class="edge"><title>Node13&#45;&gt;Node14</title>
<path fill="none" stroke="midnightblue" d="M888,-161.383C888,-152.374 888,-142.037 888,-134.779"/>
<polygon fill="midnightblue" stroke="midnightblue" points="884.5,-161.418 888,-171.418 891.5,-161.418 884.5,-161.418"/>
</g>
<!-- Node15&#45;&gt;Node2 -->
<g id="edge23" class="edge"><title>Node15&#45;&gt;Node2</title>
<path fill="none" stroke="midnightblue" d="M665.522,-105.826C657,-91.3808 649.057,-71.1112 660,-57 676.964,-35.1238 753.041,-21.9302 799.762,-15.7467"/>
<polygon fill="midnightblue" stroke="midnightblue" points="662.657,-107.842 671.014,-114.355 668.543,-104.052 662.657,-107.842"/>
</g>
<!-- Node15&#45;&gt;Node6 -->
<g id="edge24" class="edge"><title>Node15&#45;&gt;Node6</title>
<path fill="none" stroke="midnightblue" d="M755.07,-113.487C825.79,-104.291 933.454,-90.2693 1027,-78 1029.63,-77.6557 1032.3,-77.3039 1035.01,-76.9483"/>
<polygon fill="midnightblue" stroke="midnightblue" points="754.375,-110.048 744.91,-114.808 755.277,-116.989 754.375,-110.048"/>
</g>
<!-- Node16 -->
<g id="node16" class="node"><title>Node16</title>
<g id="a_node16"><a xlink:href="Photon_8cc.html" target="_top" xlink:title="Objects/src/Photon.cc">
<polygon fill="white" stroke="black" points="669.378,-57.5 669.378,-77.5 782.622,-77.5 782.622,-57.5 669.378,-57.5"/>
<text text-anchor="middle" x="726" y="-64.5" font-family="Helvetica,sans-Serif" font-size="10.00">Objects/src/Photon.cc</text>
</a>
</g>
</g>
<!-- Node15&#45;&gt;Node16 -->
<g id="edge25" class="edge"><title>Node15&#45;&gt;Node16</title>
<path fill="none" stroke="midnightblue" d="M692.64,-106.725C700.94,-97.215 711.011,-85.6754 717.902,-77.7795"/>
<polygon fill="midnightblue" stroke="midnightblue" points="689.865,-104.582 685.926,-114.418 695.139,-109.185 689.865,-104.582"/>
</g>
<!-- Node18&#45;&gt;Node2 -->
<g id="edge29" class="edge"><title>Node18&#45;&gt;Node2</title>
<path fill="none" stroke="midnightblue" d="M972.482,-111.658C948.458,-104.361 919.795,-93.402 897,-78 873.293,-61.9816 852.668,-34.6357 842.943,-20.5206"/>
<polygon fill="midnightblue" stroke="midnightblue" points="971.541,-115.03 982.121,-114.468 973.5,-108.309 971.541,-115.03"/>
</g>
<!-- Node18&#45;&gt;Node6 -->
<g id="edge30" class="edge"><title>Node18&#45;&gt;Node6</title>
<path fill="none" stroke="midnightblue" d="M1042.43,-108.392C1056.42,-98.5222 1074.24,-85.9596 1086.1,-77.5956"/>
<polygon fill="midnightblue" stroke="midnightblue" points="1040.04,-105.795 1033.88,-114.418 1044.07,-111.516 1040.04,-105.795"/>
</g>
<!-- Node19 -->
<g id="node19" class="node"><title>Node19</title>
<g id="a_node19"><a xlink:href="Parton_8cc.html" target="_top" xlink:title="Objects/src/Parton.cc">
<polygon fill="white" stroke="black" points="906.492,-57.5 906.492,-77.5 1017.51,-77.5 1017.51,-57.5 906.492,-57.5"/>
<text text-anchor="middle" x="962" y="-64.5" font-family="Helvetica,sans-Serif" font-size="10.00">Objects/src/Parton.cc</text>
</a>
</g>
</g>
<!-- Node18&#45;&gt;Node19 -->
<g id="edge31" class="edge"><title>Node18&#45;&gt;Node19</title>
<path fill="none" stroke="midnightblue" d="M1003.93,-107.584C993.557,-97.9177 980.681,-85.9147 971.954,-77.7795"/>
<polygon fill="midnightblue" stroke="midnightblue" points="1001.56,-110.159 1011.26,-114.418 1006.33,-105.039 1001.56,-110.159"/>
</g>
<!-- Node20&#45;&gt;Node2 -->
<g id="edge33" class="edge"><title>Node20&#45;&gt;Node2</title>
<path fill="none" stroke="midnightblue" d="M1119.39,-218.272C1120.73,-204.812 1123.27,-186.531 1128,-171 1143.82,-119.046 1207.73,-97.9053 1172,-57 1152.62,-34.8134 957.632,-19.4437 874.368,-13.8429"/>
<polygon fill="midnightblue" stroke="midnightblue" points="1115.9,-218.015 1118.53,-228.278 1122.88,-218.614 1115.9,-218.015"/>
</g>
<!-- Node20&#45;&gt;Node6 -->
<g id="edge42" class="edge"><title>Node20&#45;&gt;Node6</title>
<path fill="none" stroke="midnightblue" d="M1106.4,-219.422C1101.9,-211.364 1097.28,-201.549 1095,-192 1092.84,-182.921 1092.66,-180.035 1095,-171 1099.59,-153.282 1110.41,-152.718 1115,-135 1117.34,-125.965 1116.57,-123.2 1115,-114 1112.77,-100.959 1107.2,-86.6833 1103.26,-77.6649"/>
<polygon fill="midnightblue" stroke="midnightblue" points="1103.54,-221.458 1111.68,-228.244 1109.55,-217.865 1103.54,-221.458"/>
</g>
<!-- Node21 -->
<g id="node21" class="node"><title>Node21</title>
<g id="a_node21"><a xlink:href="Jet_8h.html" target="_top" xlink:title="Objects/interface/Jet.h">
<polygon fill="white" stroke="black" points="1273.26,-171.5 1273.26,-191.5 1388.74,-191.5 1388.74,-171.5 1273.26,-171.5"/>
<text text-anchor="middle" x="1331" y="-178.5" font-family="Helvetica,sans-Serif" font-size="10.00">Objects/interface/Jet.h</text>
</a>
</g>
</g>
<!-- Node20&#45;&gt;Node21 -->
<g id="edge34" class="edge"><title>Node20&#45;&gt;Node21</title>
<path fill="none" stroke="midnightblue" d="M1162.87,-225.913C1202.59,-215.657 1259.75,-200.897 1296.13,-191.504"/>
<polygon fill="midnightblue" stroke="midnightblue" points="1161.98,-222.529 1153.17,-228.418 1163.73,-229.306 1161.98,-222.529"/>
</g>
<!-- Node25 -->
<g id="node25" class="node"><title>Node25</title>
<g id="a_node25"><a xlink:href="PFCand_8cc.html" target="_top" xlink:title="Objects/src/PFCand.cc">
<polygon fill="white" stroke="black" points="1136.88,-171.5 1136.88,-191.5 1255.12,-191.5 1255.12,-171.5 1136.88,-171.5"/>
<text text-anchor="middle" x="1196" y="-178.5" font-family="Helvetica,sans-Serif" font-size="10.00">Objects/src/PFCand.cc</text>
</a>
</g>
</g>
<!-- Node20&#45;&gt;Node25 -->
<g id="edge43" class="edge"><title>Node20&#45;&gt;Node25</title>
<path fill="none" stroke="midnightblue" d="M1139.43,-222.392C1153.42,-212.522 1171.24,-199.96 1183.1,-191.596"/>
<polygon fill="midnightblue" stroke="midnightblue" points="1137.04,-219.795 1130.88,-228.418 1141.07,-225.516 1137.04,-219.795"/>
</g>
<!-- Node21&#45;&gt;Node2 -->
<g id="edge35" class="edge"><title>Node21&#45;&gt;Node2</title>
<path fill="none" stroke="midnightblue" d="M1297.25,-167.324C1280.92,-159.712 1261.91,-148.874 1248,-135 1219.98,-107.042 1237.78,-79.1878 1205,-57 1177.94,-38.6881 962.399,-20.8073 874.309,-14.1885"/>
<polygon fill="midnightblue" stroke="midnightblue" points="1295.93,-170.568 1306.49,-171.432 1298.77,-164.171 1295.93,-170.568"/>
</g>
<!-- Node21&#45;&gt;Node6 -->
<g id="edge40" class="edge"><title>Node21&#45;&gt;Node6</title>
<path fill="none" stroke="midnightblue" d="M1347.54,-163.787C1359.76,-149.388 1372.33,-128.667 1360,-114 1335.32,-84.6468 1232.06,-74.2283 1163.05,-70.5316"/>
<polygon fill="midnightblue" stroke="midnightblue" points="1344.71,-161.691 1340.57,-171.441 1349.89,-166.403 1344.71,-161.691"/>
</g>
<!-- Node22 -->
<g id="node22" class="node"><title>Node22</title>
<g id="a_node22"><a xlink:href="FatJet_8h.html" target="_top" xlink:title="Objects/interface/FatJet.h">
<polygon fill="white" stroke="black" points="1445.04,-114.5 1445.04,-134.5 1574.96,-134.5 1574.96,-114.5 1445.04,-114.5"/>
<text text-anchor="middle" x="1510" y="-121.5" font-family="Helvetica,sans-Serif" font-size="10.00">Objects/interface/FatJet.h</text>
</a>
</g>
</g>
<!-- Node21&#45;&gt;Node22 -->
<g id="edge36" class="edge"><title>Node21&#45;&gt;Node22</title>
<path fill="none" stroke="midnightblue" d="M1370.42,-168.388C1403.71,-158.158 1450.64,-143.738 1480.7,-134.504"/>
<polygon fill="midnightblue" stroke="midnightblue" points="1369.09,-165.135 1360.56,-171.418 1371.15,-171.826 1369.09,-165.135"/>
</g>
<!-- Node24 -->
<g id="node24" class="node"><title>Node24</title>
<g id="a_node24"><a xlink:href="Jet_8cc.html" target="_top" xlink:title="Objects/src/Jet.cc">
<polygon fill="white" stroke="black" points="1256.55,-114.5 1256.55,-134.5 1351.45,-134.5 1351.45,-114.5 1256.55,-114.5"/>
<text text-anchor="middle" x="1304" y="-121.5" font-family="Helvetica,sans-Serif" font-size="10.00">Objects/src/Jet.cc</text>
</a>
</g>
</g>
<!-- Node21&#45;&gt;Node24 -->
<g id="edge41" class="edge"><title>Node21&#45;&gt;Node24</title>
<path fill="none" stroke="midnightblue" d="M1322.05,-162.27C1317.53,-153.059 1312.24,-142.277 1308.56,-134.779"/>
<polygon fill="midnightblue" stroke="midnightblue" points="1318.99,-163.984 1326.54,-171.418 1325.28,-160.899 1318.99,-163.984"/>
</g>
<!-- Node22&#45;&gt;Node2 -->
<g id="edge37" class="edge"><title>Node22&#45;&gt;Node2</title>
<path fill="none" stroke="midnightblue" d="M1535.31,-108.885C1556.18,-95.0596 1579.97,-73.9603 1564,-57 1518.52,-8.69496 1034.2,-25.3993 968,-21 936.374,-18.8982 900.471,-16.2781 874.259,-14.3221"/>
<polygon fill="midnightblue" stroke="midnightblue" points="1533.26,-106.038 1526.67,-114.331 1537,-111.96 1533.26,-106.038"/>
</g>
<!-- Node22&#45;&gt;Node6 -->
<g id="edge38" class="edge"><title>Node22&#45;&gt;Node6</title>
<path fill="none" stroke="midnightblue" d="M1434.65,-113.417C1356.8,-102.999 1236.6,-86.9134 1163.14,-77.0836"/>
<polygon fill="midnightblue" stroke="midnightblue" points="1434.5,-116.928 1444.88,-114.785 1435.43,-109.99 1434.5,-116.928"/>
</g>
<!-- Node23 -->
<g id="node23" class="node"><title>Node23</title>
<g id="a_node23"><a xlink:href="FatJet_8cc.html" target="_top" xlink:title="Objects/src/FatJet.cc">
<polygon fill="white" stroke="black" points="1445.33,-57.5 1445.33,-77.5 1554.67,-77.5 1554.67,-57.5 1445.33,-57.5"/>
<text text-anchor="middle" x="1500" y="-64.5" font-family="Helvetica,sans-Serif" font-size="10.00">Objects/src/FatJet.cc</text>
</a>
</g>
</g>
<!-- Node22&#45;&gt;Node23 -->
<g id="edge39" class="edge"><title>Node22&#45;&gt;Node23</title>
<path fill="none" stroke="midnightblue" d="M1506.52,-104.383C1504.89,-95.3738 1503.01,-85.0373 1501.69,-77.7795"/>
<polygon fill="midnightblue" stroke="midnightblue" points="1503.12,-105.205 1508.35,-114.418 1510,-103.953 1503.12,-105.205"/>
</g>
<!-- Node26&#45;&gt;Node2 -->
<g id="edge46" class="edge"><title>Node26&#45;&gt;Node2</title>
<path fill="none" stroke="midnightblue" d="M1643.92,-217.979C1642.59,-179.589 1633.52,-94.7314 1581,-57 1525.59,-17.1924 1036.08,-25.4676 968,-21 936.372,-18.9246 900.469,-16.3022 874.258,-14.3387"/>
<polygon fill="midnightblue" stroke="midnightblue" points="1640.43,-218.369 1644.13,-228.297 1647.43,-218.23 1640.43,-218.369"/>
</g>
<!-- Node26&#45;&gt;Node6 -->
<g id="edge48" class="edge"><title>Node26&#45;&gt;Node6</title>
<path fill="none" stroke="midnightblue" d="M1721.45,-226.957C1762.71,-219.582 1807.5,-208.137 1820,-192 1825.71,-184.62 1825.7,-178.394 1820,-171 1759.41,-92.3456 1701.79,-131.182 1604,-114 1447.07,-86.4266 1259.6,-75.0986 1163.23,-70.8277"/>
<polygon fill="midnightblue" stroke="midnightblue" points="1720.59,-223.553 1711.33,-228.699 1721.78,-230.452 1720.59,-223.553"/>
</g>
<!-- Node26&#45;&gt;Node21 -->
<g id="edge47" class="edge"><title>Node26&#45;&gt;Node21</title>
<path fill="none" stroke="midnightblue" d="M1582.46,-226.686C1524.02,-216.418 1437.18,-201.158 1382.36,-191.525"/>
<polygon fill="midnightblue" stroke="midnightblue" points="1582.21,-230.196 1592.66,-228.479 1583.42,-223.302 1582.21,-230.196"/>
</g>
<!-- Node27 -->
<g id="node27" class="node"><title>Node27</title>
<g id="a_node27"><a xlink:href="GenJet_8cc.html" target="_top" xlink:title="Objects/src/GenJet.cc">
<polygon fill="white" stroke="black" points="1697.1,-171.5 1697.1,-191.5 1810.9,-191.5 1810.9,-171.5 1697.1,-171.5"/>
<text text-anchor="middle" x="1754" y="-178.5" font-family="Helvetica,sans-Serif" font-size="10.00">Objects/src/GenJet.cc</text>
</a>
</g>
</g>
<!-- Node26&#45;&gt;Node27 -->
<g id="edge49" class="edge"><title>Node26&#45;&gt;Node27</title>
<path fill="none" stroke="midnightblue" d="M1671.16,-223.92C1691.3,-213.85 1718.2,-200.398 1735.81,-191.596"/>
<polygon fill="midnightblue" stroke="midnightblue" points="1669.54,-220.815 1662.16,-228.418 1672.67,-227.076 1669.54,-220.815"/>
</g>
<!-- Node28&#45;&gt;Node2 -->
<g id="edge51" class="edge"><title>Node28&#45;&gt;Node2</title>
<path fill="none" stroke="midnightblue" d="M1435.9,-218.651C1427.75,-191.864 1409.29,-142.843 1377,-114 1324.12,-66.7687 1296.86,-73.8957 1228,-57 1161.38,-40.6538 958.803,-21.9647 874.466,-14.659"/>
<polygon fill="midnightblue" stroke="midnightblue" points="1432.57,-219.706 1438.7,-228.345 1439.29,-217.767 1432.57,-219.706"/>
</g>
<!-- Node28&#45;&gt;Node6 -->
<g id="edge54" class="edge"><title>Node28&#45;&gt;Node6</title>
<path fill="none" stroke="midnightblue" d="M1521.3,-231.953C1547.78,-225.835 1574.61,-214.095 1591,-192 1602.23,-176.852 1604.25,-133.681 1584,-114 1554.39,-85.2309 1287.82,-73.8784 1162.97,-70.1105"/>
<polygon fill="midnightblue" stroke="midnightblue" points="1520.29,-228.589 1511.2,-234.033 1521.7,-235.446 1520.29,-228.589"/>
</g>
<!-- Node28&#45;&gt;Node21 -->
<g id="edge52" class="edge"><title>Node28&#45;&gt;Node21</title>
<path fill="none" stroke="midnightblue" d="M1413.84,-223.92C1393.7,-213.85 1366.8,-200.398 1349.19,-191.596"/>
<polygon fill="midnightblue" stroke="midnightblue" points="1412.33,-227.076 1422.84,-228.418 1415.46,-220.815 1412.33,-227.076"/>
</g>
<!-- Node28&#45;&gt;Node22 -->
<g id="edge53" class="edge"><title>Node28&#45;&gt;Node22</title>
<path fill="none" stroke="midnightblue" d="M1520.88,-227.214C1541.48,-220.533 1561.38,-209.653 1574,-192 1590.21,-169.318 1554.82,-146.748 1530.48,-134.616"/>
<polygon fill="midnightblue" stroke="midnightblue" points="1519.69,-223.917 1511.07,-230.083 1521.65,-230.636 1519.69,-223.917"/>
</g>
<!-- Node29 -->
<g id="node29" class="node"><title>Node29</title>
<g id="a_node29"><a xlink:href="MicroJet_8cc.html" target="_top" xlink:title="Objects/src/MicroJet.cc">
<polygon fill="white" stroke="black" points="1445.33,-171.5 1445.33,-191.5 1564.67,-191.5 1564.67,-171.5 1445.33,-171.5"/>
<text text-anchor="middle" x="1505" y="-178.5" font-family="Helvetica,sans-Serif" font-size="10.00">Objects/src/MicroJet.cc</text>
</a>
</g>
</g>
<!-- Node28&#45;&gt;Node29 -->
<g id="edge55" class="edge"><title>Node28&#45;&gt;Node29</title>
<path fill="none" stroke="midnightblue" d="M1459.19,-221.868C1470.49,-212.153 1484.64,-199.994 1494.2,-191.779"/>
<polygon fill="midnightblue" stroke="midnightblue" points="1456.87,-219.246 1451.57,-228.418 1461.43,-224.555 1456.87,-219.246"/>
</g>
</g>
</svg>
        <g id="navigator" transform="translate(0 0)" fill="#404254">
                <rect fill="#f2f5e9" fill-opacity="0.5" stroke="#606060" stroke-width=".5" x="0" y="0" width="60" height="60"/>
                <use id="zoomplus" xlink:href="#zoomPlus" x="17" y="9" onmousedown="handleZoom(evt,'in')"/>
                <use id="zoomminus" xlink:href="#zoomMin" x="42" y="9" onmousedown="handleZoom(evt,'out')"/>
                <use id="reset" xlink:href="#resetDef" x="30" y="36" onmousedown="handleReset()"/>
                <g id="arrowUp" xlink:href="#dirArrow" transform="translate(30 24)" onmousedown="handlePan(0,-1)">
                  <use xlink:href="#rim" fill="#404040">
                        <set attributeName="fill" to="#808080" begin="arrowUp.mouseover" end="arrowUp.mouseout"/>
                  </use>
                  <path fill="none" stroke="white" stroke-width="1.5" d="M0,-3.0v7 M-2.5,-0.5L0,-3.0L2.5,-0.5"/>
                </g>
                <g id="arrowRight" xlink:href="#dirArrow" transform="rotate(90) translate(36 -43)" onmousedown="handlePan(1,0)">
                  <use xlink:href="#rim" fill="#404040">
                        <set attributeName="fill" to="#808080" begin="arrowRight.mouseover" end="arrowRight.mouseout"/>
                  </use>
                  <path fill="none" stroke="white" stroke-width="1.5" d="M0,-3.0v7 M-2.5,-0.5L0,-3.0L2.5,-0.5"/>
                </g>
                <g id="arrowDown" xlink:href="#dirArrow" transform="rotate(180) translate(-30 -48)" onmousedown="handlePan(0,1)">
                  <use xlink:href="#rim" fill="#404040">
                        <set attributeName="fill" to="#808080" begin="arrowDown.mouseover" end="arrowDown.mouseout"/>
                  </use>
                  <path fill="none" stroke="white" stroke-width="1.5" d="M0,-3.0v7 M-2.5,-0.5L0,-3.0L2.5,-0.5"/>
                </g>
                <g id="arrowLeft" xlink:href="#dirArrow" transform="rotate(270) translate(-36 17)" onmousedown="handlePan(-1,0)">
                  <use xlink:href="#rim" fill="#404040">
                        <set attributeName="fill" to="#808080" begin="arrowLeft.mouseover" end="arrowLeft.mouseout"/>
                  </use>
                  <path fill="none" stroke="white" stroke-width="1.5" d="M0,-3.0v7 M-2.5,-0.5L0,-3.0L2.5,-0.5"/>
                </g>
        </g>
        <svg viewBox="0 0 15 15" width="100%" height="30px" preserveAspectRatio="xMaxYMin meet">
         <g id="arrow_out" transform="scale(0.3 0.3)">
          <a xlink:href="ParticleM_8h__dep__incl_org.svg" target="_base">
           <rect id="button" ry="5" rx="5" y="6" x="6" height="38" width="38"
                fill="#f2f5e9" fill-opacity="0.5" stroke="#606060" stroke-width="1.0"/>
           <path id="arrow"
             d="M 11.500037,31.436501 C 11.940474,20.09759 22.043105,11.32322 32.158766,21.979434 L 37.068811,17.246167 C 37.068811,17.246167 37.088388,32 37.088388,32 L 22.160133,31.978069 C 22.160133,31.978069 26.997745,27.140456 26.997745,27.140456 C 18.528582,18.264221 13.291696,25.230495 11.500037,31.436501 z"
             style="fill:#404040;"/>
          </a>
         </g>
        </svg>
</svg>
