<?xml version="1.0" encoding="UTF-8" standalone="no"?>
<!DOCTYPE svg PUBLIC "-//W3C//DTD SVG 1.1//EN"
 "http://www.w3.org/Graphics/SVG/1.1/DTD/svg11.dtd">
<!-- Generated by graphviz version 2.38.0 (20140413.2041)
 -->
<!-- Title: Objects/interface/Photon.h Pages: 1 -->
<svg width="344pt" height="143pt"
 viewBox="0.00 0.00 343.80 143.00" xmlns="http://www.w3.org/2000/svg" xmlns:xlink="http://www.w3.org/1999/xlink">
<g id="graph0" class="graph" transform="scale(1 1) rotate(0) translate(4 139)">
<title>Objects/interface/Photon.h</title>
<polygon fill="white" stroke="none" points="-4,4 -4,-139 339.797,-139 339.797,4 -4,4"/>
<!-- Node1 -->
<g id="node1" class="node"><title>Node1</title>
<polygon fill="#bfbfbf" stroke="black" points="74.2655,-114.5 74.2655,-134.5 208.083,-134.5 208.083,-114.5 74.2655,-114.5"/>
<text text-anchor="middle" x="141.174" y="-121.5" font-family="Helvetica,sans-Serif" font-size="10.00">Objects/interface/Photon.h</text>
</g>
<!-- Node2 -->
<g id="node2" class="node"><title>Node2</title>
<g id="a_node2"><a xlink:href="LinkDef_8h.html" target="_top" xlink:title="obj/LinkDef.h">
<polygon fill="white" stroke="black" points="0,-0.5 0,-20.5 74.348,-20.5 74.348,-0.5 0,-0.5"/>
<text text-anchor="middle" x="37.174" y="-7.5" font-family="Helvetica,sans-Serif" font-size="10.00">obj/LinkDef.h</text>
</a>
</g>
</g>
<!-- Node1&#45;&gt;Node2 -->
<g id="edge1" class="edge"><title>Node1&#45;&gt;Node2</title>
<path fill="none" stroke="midnightblue" d="M110.934,-109.774C96.5434,-102.061 79.951,-91.2978 68.174,-78 52.8036,-60.6447 43.6196,-34.3553 39.5944,-20.6068"/>
<polygon fill="midnightblue" stroke="midnightblue" points="109.502,-112.973 120,-114.399 112.682,-106.737 109.502,-112.973"/>
</g>
<!-- Node3 -->
<g id="node3" class="node"><title>Node3</title>
<g id="a_node3"><a xlink:href="Event_8h.html" target="_top" xlink:title="Objects/interface/Event.h">
<polygon fill="white" stroke="black" points="77.3245,-57.5 77.3245,-77.5 205.024,-77.5 205.024,-57.5 77.3245,-57.5"/>
<text text-anchor="middle" x="141.174" y="-64.5" font-family="Helvetica,sans-Serif" font-size="10.00">Objects/interface/Event.h</text>
</a>
</g>
</g>
<!-- Node1&#45;&gt;Node3 -->
<g id="edge2" class="edge"><title>Node1&#45;&gt;Node3</title>
<path fill="none" stroke="midnightblue" d="M141.174,-104.383C141.174,-95.3738 141.174,-85.0373 141.174,-77.7795"/>
<polygon fill="midnightblue" stroke="midnightblue" points="137.674,-104.418 141.174,-114.418 144.674,-104.418 137.674,-104.418"/>
</g>
<!-- Node6 -->
<g id="node6" class="node"><title>Node6</title>
<g id="a_node6"><a xlink:href="Photon_8cc.html" target="_top" xlink:title="Objects/src/Photon.cc">
<polygon fill="white" stroke="black" points="222.551,-57.5 222.551,-77.5 335.796,-77.5 335.796,-57.5 222.551,-57.5"/>
<text text-anchor="middle" x="279.174" y="-64.5" font-family="Helvetica,sans-Serif" font-size="10.00">Objects/src/Photon.cc</text>
</a>
</g>
</g>
<!-- Node1&#45;&gt;Node6 -->
<g id="edge6" class="edge"><title>Node1&#45;&gt;Node6</title>
<path fill="none" stroke="midnightblue" d="M173.546,-110.598C198.981,-100.461 233.767,-86.5969 256.352,-77.5956"/>
<polygon fill="midnightblue" stroke="midnightblue" points="171.955,-107.464 163.962,-114.418 174.547,-113.967 171.955,-107.464"/>
</g>
<!-- Node3&#45;&gt;Node2 -->
<g id="edge3" class="edge"><title>Node3&#45;&gt;Node2</title>
<path fill="none" stroke="midnightblue" d="M114.977,-52.6456C95.9939,-42.6067 70.8664,-29.3181 54.373,-20.5956"/>
<polygon fill="midnightblue" stroke="midnightblue" points="113.524,-55.8368 124.001,-57.4179 116.797,-49.6489 113.524,-55.8368"/>
</g>
<!-- Node4 -->
<g id="node4" class="node"><title>Node4</title>
<g id="a_node4"><a xlink:href="Event_8cc.html" target="_top" xlink:title="Objects/src/Event.cc">
<polygon fill="white" stroke="black" points="92.6105,-0.5 92.6105,-20.5 199.738,-20.5 199.738,-0.5 92.6105,-0.5"/>
<text text-anchor="middle" x="146.174" y="-7.5" font-family="Helvetica,sans-Serif" font-size="10.00">Objects/src/Event.cc</text>
</a>
</g>
</g>
<!-- Node3&#45;&gt;Node4 -->
<g id="edge4" class="edge"><title>Node3&#45;&gt;Node4</title>
<path fill="none" stroke="midnightblue" d="M142.912,-47.383C143.731,-38.3738 144.671,-28.0373 145.33,-20.7795"/>
<polygon fill="midnightblue" stroke="midnightblue" points="139.419,-47.142 142,-57.4179 146.391,-47.7758 139.419,-47.142"/>
</g>
<!-- Node5 -->
<g id="node5" class="node"><title>Node5</title>
<g id="a_node5"><a xlink:href="FileMerger_8cc.html" target="_top" xlink:title="Utils/src/FileMerger.cc">
<polygon fill="white" stroke="black" points="217.738,-0.5 217.738,-20.5 332.61,-20.5 332.61,-0.5 217.738,-0.5"/>
<text text-anchor="middle" x="275.174" y="-7.5" font-family="Helvetica,sans-Serif" font-size="10.00">Utils/src/FileMerger.cc</text>
</a>
</g>
</g>
<!-- Node3&#45;&gt;Node5 -->
<g id="edge5" class="edge"><title>Node3&#45;&gt;Node5</title>
<path fill="none" stroke="midnightblue" d="M172.608,-53.598C197.306,-43.4609 231.083,-29.5969 253.014,-20.5956"/>
<polygon fill="midnightblue" stroke="midnightblue" points="171.223,-50.3829 163.301,-57.4179 173.881,-56.8586 171.223,-50.3829"/>
</g>
</g>
</svg>
