<?xml version="1.0" encoding="UTF-8" standalone="no"?>
<!DOCTYPE svg PUBLIC "-//W3C//DTD SVG 1.1//EN"
 "http://www.w3.org/Graphics/SVG/1.1/DTD/svg11.dtd">
<!-- Generated by graphviz version 2.38.0 (20140413.2041)
 -->
<!-- Title: Objects/src/Photon.cc Pages: 1 -->
<svg width="1236pt" height="692pt"
 viewBox="0.00 0.00 1236.23 692.00" xmlns="http://www.w3.org/2000/svg" xmlns:xlink="http://www.w3.org/1999/xlink">
<g id="graph0" class="graph" transform="scale(1 1) rotate(0) translate(4 688)">
<title>Objects/src/Photon.cc</title>
<polygon fill="white" stroke="none" points="-4,4 -4,-688 1232.23,-688 1232.23,4 -4,4"/>
<!-- Node1 -->
<g id="node1" class="node"><title>Node1</title>
<polygon fill="#bfbfbf" stroke="black" points="717.607,-663.5 717.607,-683.5 830.852,-683.5 830.852,-663.5 717.607,-663.5"/>
<text text-anchor="middle" x="774.229" y="-670.5" font-family="Helvetica,sans-Serif" font-size="10.00">Objects/src/Photon.cc</text>
</g>
<!-- Node2 -->
<g id="node2" class="node"><title>Node2</title>
<g id="a_node2"><a xlink:href="Photon_8h.html" target="_top" xlink:title="../interface/Photon.h">
<polygon fill="white" stroke="black" points="721.489,-606.5 721.489,-626.5 826.969,-626.5 826.969,-606.5 721.489,-606.5"/>
<text text-anchor="middle" x="774.229" y="-613.5" font-family="Helvetica,sans-Serif" font-size="10.00">../interface/Photon.h</text>
</a>
</g>
</g>
<!-- Node1&#45;&gt;Node2 -->
<g id="edge1" class="edge"><title>Node1&#45;&gt;Node2</title>
<path fill="none" stroke="midnightblue" d="M774.229,-663.418C774.229,-656.216 774.229,-645.896 774.229,-636.863"/>
<polygon fill="midnightblue" stroke="midnightblue" points="777.729,-636.779 774.229,-626.779 770.729,-636.779 777.729,-636.779"/>
</g>
<!-- Node3 -->
<g id="node3" class="node"><title>Node3</title>
<g id="a_node3"><a xlink:href="Constants_8h.html" target="_top" xlink:title="Constants.h">
<polygon fill="white" stroke="black" points="340.554,-372.5 340.554,-392.5 409.905,-392.5 409.905,-372.5 340.554,-372.5"/>
<text text-anchor="middle" x="375.229" y="-379.5" font-family="Helvetica,sans-Serif" font-size="10.00">Constants.h</text>
</a>
</g>
</g>
<!-- Node2&#45;&gt;Node3 -->
<g id="edge2" class="edge"><title>Node2&#45;&gt;Node3</title>
<path fill="none" stroke="midnightblue" d="M758.588,-606.405C697.378,-570.815 473.811,-440.821 399.459,-397.589"/>
<polygon fill="midnightblue" stroke="midnightblue" points="401.167,-394.533 390.763,-392.532 397.648,-400.584 401.167,-394.533"/>
</g>
<!-- Node11 -->
<g id="node11" class="node"><title>Node11</title>
<g id="a_node11"><a xlink:href="Particle_8h.html" target="_top" xlink:title="Particle.h">
<polygon fill="white" stroke="black" points="764.394,-435.5 764.394,-455.5 822.065,-455.5 822.065,-435.5 764.394,-435.5"/>
<text text-anchor="middle" x="793.229" y="-442.5" font-family="Helvetica,sans-Serif" font-size="10.00">Particle.h</text>
</a>
</g>
</g>
<!-- Node2&#45;&gt;Node11 -->
<g id="edge10" class="edge"><title>Node2&#45;&gt;Node11</title>
<path fill="none" stroke="midnightblue" d="M775.251,-606.414C778.228,-579.936 786.943,-502.416 791.046,-465.922"/>
<polygon fill="midnightblue" stroke="midnightblue" points="794.564,-465.96 792.203,-455.631 787.607,-465.177 794.564,-465.96"/>
</g>
<!-- Node17 -->
<g id="node17" class="node"><title>Node17</title>
<g id="a_node17"><a xlink:href="Container_8h.html" target="_top" xlink:title="../../Framework/interface\l/Container.h">
<polygon fill="white" stroke="black" points="706.336,-366.5 706.336,-398.5 830.123,-398.5 830.123,-366.5 706.336,-366.5"/>
<text text-anchor="start" x="714.336" y="-385.5" font-family="Helvetica,sans-Serif" font-size="10.00">../../Framework/interface</text>
<text text-anchor="middle" x="768.229" y="-373.5" font-family="Helvetica,sans-Serif" font-size="10.00">/Container.h</text>
</a>
</g>
</g>
<!-- Node2&#45;&gt;Node17 -->
<g id="edge52" class="edge"><title>Node2&#45;&gt;Node17</title>
<path fill="none" stroke="midnightblue" d="M771.819,-606.471C765.082,-580.059 747.069,-500.666 755.229,-435 756.317,-426.249 758.406,-416.85 760.596,-408.508"/>
<polygon fill="midnightblue" stroke="midnightblue" points="764.035,-409.208 763.357,-398.635 757.293,-407.323 764.035,-409.208"/>
</g>
<!-- Node28 -->
<g id="node28" class="node"><title>Node28</title>
<g id="a_node28"><a xlink:href="Ref_8h.html" target="_top" xlink:title="../../Framework/interface\l/Ref.h">
<polygon fill="white" stroke="black" points="1000.34,-297.5 1000.34,-329.5 1124.12,-329.5 1124.12,-297.5 1000.34,-297.5"/>
<text text-anchor="start" x="1008.34" y="-316.5" font-family="Helvetica,sans-Serif" font-size="10.00">../../Framework/interface</text>
<text text-anchor="middle" x="1062.23" y="-304.5" font-family="Helvetica,sans-Serif" font-size="10.00">/Ref.h</text>
</a>
</g>
</g>
<!-- Node2&#45;&gt;Node28 -->
<g id="edge53" class="edge"><title>Node2&#45;&gt;Node28</title>
<path fill="none" stroke="midnightblue" d="M827.187,-610.941C931.218,-600.518 1152.23,-570.491 1152.23,-503.5 1152.23,-503.5 1152.23,-503.5 1152.23,-444.5 1152.23,-408.604 1153.21,-395.82 1133.23,-366 1124.98,-353.683 1112.73,-343.285 1100.72,-335.129"/>
<polygon fill="midnightblue" stroke="midnightblue" points="1102.39,-332.04 1092.08,-329.59 1098.61,-337.933 1102.39,-332.04"/>
</g>
<!-- Node29 -->
<g id="node29" class="node"><title>Node29</title>
<g id="a_node29"><a xlink:href="RefVector_8h.html" target="_top" xlink:title="../../Framework/interface\l/RefVector.h">
<polygon fill="white" stroke="black" points="1000.34,-366.5 1000.34,-398.5 1124.12,-398.5 1124.12,-366.5 1000.34,-366.5"/>
<text text-anchor="start" x="1008.34" y="-385.5" font-family="Helvetica,sans-Serif" font-size="10.00">../../Framework/interface</text>
<text text-anchor="middle" x="1062.23" y="-373.5" font-family="Helvetica,sans-Serif" font-size="10.00">/RefVector.h</text>
</a>
</g>
</g>
<!-- Node2&#45;&gt;Node29 -->
<g id="edge54" class="edge"><title>Node2&#45;&gt;Node29</title>
<path fill="none" stroke="midnightblue" d="M817.797,-606.456C849.178,-599.017 892.015,-586.934 927.229,-570 967.229,-550.764 977.775,-544.314 1009.23,-513 1031.16,-491.165 1037.33,-484.57 1049.23,-456 1055.46,-441.043 1058.71,-423.132 1060.4,-408.855"/>
<polygon fill="midnightblue" stroke="midnightblue" points="1063.9,-409.054 1061.41,-398.754 1056.93,-408.355 1063.9,-409.054"/>
</g>
<!-- Node30 -->
<g id="node30" class="node"><title>Node30</title>
<g id="a_node30"><a xlink:href="SuperCluster_8h.html" target="_top" xlink:title="SuperCluster.h">
<polygon fill="white" stroke="black" points="625.891,-435.5 625.891,-455.5 708.568,-455.5 708.568,-435.5 625.891,-435.5"/>
<text text-anchor="middle" x="667.229" y="-442.5" font-family="Helvetica,sans-Serif" font-size="10.00">SuperCluster.h</text>
</a>
</g>
</g>
<!-- Node2&#45;&gt;Node30 -->
<g id="edge55" class="edge"><title>Node2&#45;&gt;Node30</title>
<path fill="none" stroke="midnightblue" d="M760.815,-606.339C749.355,-597.963 733.052,-584.674 722.229,-570 697.716,-536.762 680.916,-490.869 672.808,-465.421"/>
<polygon fill="midnightblue" stroke="midnightblue" points="676.065,-464.105 669.782,-455.574 669.374,-466.161 676.065,-464.105"/>
</g>
<!-- Node31 -->
<g id="node31" class="node"><title>Node31</title>
<g id="a_node31"><a xlink:href="GenParticle_8h.html" target="_top" xlink:title="GenParticle.h">
<polygon fill="white" stroke="black" points="841.945,-549.5 841.945,-569.5 918.513,-569.5 918.513,-549.5 841.945,-549.5"/>
<text text-anchor="middle" x="880.229" y="-556.5" font-family="Helvetica,sans-Serif" font-size="10.00">GenParticle.h</text>
</a>
</g>
</g>
<!-- Node2&#45;&gt;Node31 -->
<g id="edge61" class="edge"><title>Node2&#45;&gt;Node31</title>
<path fill="none" stroke="midnightblue" d="M791.733,-606.418C808.611,-597.66 834.378,-584.291 853.763,-574.233"/>
<polygon fill="midnightblue" stroke="midnightblue" points="855.435,-577.308 862.7,-569.596 852.211,-571.095 855.435,-577.308"/>
</g>
<!-- Node4 -->
<g id="node4" class="node"><title>Node4</title>
<polygon fill="white" stroke="#bfbfbf" points="193.728,-0.5 193.728,-20.5 244.731,-20.5 244.731,-0.5 193.728,-0.5"/>
<text text-anchor="middle" x="219.229" y="-7.5" font-family="Helvetica,sans-Serif" font-size="10.00">TTree.h</text>
</g>
<!-- Node3&#45;&gt;Node4 -->
<g id="edge3" class="edge"><title>Node3&#45;&gt;Node4</title>
<path fill="none" stroke="midnightblue" d="M340.383,-380.983C261.254,-379.104 71.2333,-370.392 24.2294,-330 -3.44067,-306.222 0.229378,-287.983 0.229378,-251.5 0.229378,-251.5 0.229378,-251.5 0.229378,-123.5 0.229378,-42.1564 121.475,-19.8558 183.537,-13.769"/>
<polygon fill="midnightblue" stroke="midnightblue" points="184.028,-17.2392 193.679,-12.8671 183.408,-10.2667 184.028,-17.2392"/>
</g>
<!-- Node5 -->
<g id="node5" class="node"><title>Node5</title>
<polygon fill="white" stroke="#bfbfbf" points="532.949,-0.5 532.949,-20.5 589.51,-20.5 589.51,-0.5 532.949,-0.5"/>
<text text-anchor="middle" x="561.229" y="-7.5" font-family="Helvetica,sans-Serif" font-size="10.00">TString.h</text>
</g>
<!-- Node3&#45;&gt;Node5 -->
<g id="edge4" class="edge"><title>Node3&#45;&gt;Node5</title>
<path fill="none" stroke="midnightblue" d="M340.319,-381.28C265.446,-379.991 93.2963,-372.378 57.2294,-330 47.7235,-318.831 50.0217,-309.773 57.2294,-297 159.135,-116.403 423.869,-41.5088 523.005,-19.2053"/>
<polygon fill="midnightblue" stroke="midnightblue" points="523.877,-22.5972 532.893,-17.0326 522.375,-15.7603 523.877,-22.5972"/>
</g>
<!-- Node6 -->
<g id="node6" class="node"><title>Node6</title>
<polygon fill="white" stroke="#bfbfbf" points="129.502,-303.5 129.502,-323.5 184.956,-323.5 184.956,-303.5 129.502,-303.5"/>
<text text-anchor="middle" x="157.229" y="-310.5" font-family="Helvetica,sans-Serif" font-size="10.00">Rtypes.h</text>
</g>
<!-- Node3&#45;&gt;Node6 -->
<g id="edge5" class="edge"><title>Node3&#45;&gt;Node6</title>
<path fill="none" stroke="midnightblue" d="M340.484,-372.933C303.759,-363.572 244.334,-347.552 194.229,-330 191.956,-329.203 189.621,-328.339 187.283,-327.44"/>
<polygon fill="midnightblue" stroke="midnightblue" points="188.387,-324.112 177.803,-323.631 185.777,-330.607 188.387,-324.112"/>
</g>
<!-- Node7 -->
<g id="node7" class="node"><title>Node7</title>
<polygon fill="white" stroke="#bfbfbf" points="202.886,-303.5 202.886,-323.5 295.572,-323.5 295.572,-303.5 202.886,-303.5"/>
<text text-anchor="middle" x="249.229" y="-310.5" font-family="Helvetica,sans-Serif" font-size="10.00">TLorentzVector.h</text>
</g>
<!-- Node3&#45;&gt;Node7 -->
<g id="edge6" class="edge"><title>Node3&#45;&gt;Node7</title>
<path fill="none" stroke="midnightblue" d="M358.236,-372.464C336.913,-361.125 300.127,-341.565 275.25,-328.336"/>
<polygon fill="midnightblue" stroke="midnightblue" points="276.828,-325.211 266.355,-323.607 273.542,-331.392 276.828,-325.211"/>
</g>
<!-- Node8 -->
<g id="node8" class="node"><title>Node8</title>
<polygon fill="white" stroke="#bfbfbf" points="313.779,-303.5 313.779,-323.5 378.68,-323.5 378.68,-303.5 313.779,-303.5"/>
<text text-anchor="middle" x="346.229" y="-310.5" font-family="Helvetica,sans-Serif" font-size="10.00">TVector2.h</text>
</g>
<!-- Node3&#45;&gt;Node8 -->
<g id="edge7" class="edge"><title>Node3&#45;&gt;Node8</title>
<path fill="none" stroke="midnightblue" d="M371.318,-372.464C366.975,-362.43 359.846,-345.959 354.295,-333.134"/>
<polygon fill="midnightblue" stroke="midnightblue" points="357.449,-331.61 350.265,-323.823 351.025,-334.39 357.449,-331.61"/>
</g>
<!-- Node9 -->
<g id="node9" class="node"><title>Node9</title>
<polygon fill="white" stroke="#bfbfbf" points="396.616,-303.5 396.616,-323.5 439.842,-323.5 439.842,-303.5 396.616,-303.5"/>
<text text-anchor="middle" x="418.229" y="-310.5" font-family="Helvetica,sans-Serif" font-size="10.00">cmath</text>
</g>
<!-- Node3&#45;&gt;Node9 -->
<g id="edge8" class="edge"><title>Node3&#45;&gt;Node9</title>
<path fill="none" stroke="midnightblue" d="M381.029,-372.464C387.596,-362.232 398.46,-345.304 406.757,-332.376"/>
<polygon fill="midnightblue" stroke="midnightblue" points="409.79,-334.129 412.246,-323.823 403.899,-330.348 409.79,-334.129"/>
</g>
<!-- Node10 -->
<g id="node10" class="node"><title>Node10</title>
<polygon fill="white" stroke="#bfbfbf" points="66.5069,-303.5 66.5069,-323.5 111.952,-323.5 111.952,-303.5 66.5069,-303.5"/>
<text text-anchor="middle" x="89.2294" y="-310.5" font-family="Helvetica,sans-Serif" font-size="10.00">cstring</text>
</g>
<!-- Node3&#45;&gt;Node10 -->
<g id="edge9" class="edge"><title>Node3&#45;&gt;Node10</title>
<path fill="none" stroke="midnightblue" d="M340.228,-377.411C290.36,-370.923 196.46,-356.236 120.229,-330 118.352,-329.354 116.443,-328.617 114.543,-327.823"/>
<polygon fill="midnightblue" stroke="midnightblue" points="115.835,-324.564 105.29,-323.538 112.893,-330.916 115.835,-324.564"/>
</g>
<!-- Node11&#45;&gt;Node3 -->
<g id="edge11" class="edge"><title>Node11&#45;&gt;Node3</title>
<path fill="none" stroke="midnightblue" d="M764.168,-440.259C692.381,-429.783 506.265,-402.622 420.152,-390.056"/>
<polygon fill="midnightblue" stroke="midnightblue" points="420.562,-386.578 410.161,-388.598 419.551,-393.505 420.562,-386.578"/>
</g>
<!-- Node12 -->
<g id="node12" class="node"><title>Node12</title>
<g id="a_node12"><a xlink:href="ContainerElement_8h.html" target="_top" xlink:title="../../Framework/interface\l/ContainerElement.h">
<polygon fill="white" stroke="black" points="395.336,-171.5 395.336,-203.5 519.123,-203.5 519.123,-171.5 395.336,-171.5"/>
<text text-anchor="start" x="403.336" y="-190.5" font-family="Helvetica,sans-Serif" font-size="10.00">../../Framework/interface</text>
<text text-anchor="middle" x="457.229" y="-178.5" font-family="Helvetica,sans-Serif" font-size="10.00">/ContainerElement.h</text>
</a>
</g>
</g>
<!-- Node11&#45;&gt;Node12 -->
<g id="edge12" class="edge"><title>Node11&#45;&gt;Node12</title>
<path fill="none" stroke="midnightblue" d="M764.097,-439.113C710.474,-427.824 595.24,-396.982 525.229,-330 491.405,-297.639 472.359,-245.01 463.486,-213.875"/>
<polygon fill="midnightblue" stroke="midnightblue" points="466.757,-212.563 460.765,-203.826 460.001,-214.394 466.757,-212.563"/>
</g>
<!-- Node11&#45;&gt;Node17 -->
<g id="edge24" class="edge"><title>Node11&#45;&gt;Node17</title>
<path fill="none" stroke="midnightblue" d="M789.541,-435.499C786.566,-428.241 782.237,-417.679 778.257,-407.966"/>
<polygon fill="midnightblue" stroke="midnightblue" points="781.486,-406.617 774.455,-398.691 775.009,-409.272 781.486,-406.617"/>
</g>
<!-- Node11&#45;&gt;Node28 -->
<g id="edge43" class="edge"><title>Node11&#45;&gt;Node28</title>
<path fill="none" stroke="midnightblue" d="M809.796,-435.464C825.94,-426.541 851.074,-412.335 872.229,-399 894.13,-385.195 897.208,-377.842 920.229,-366 945.87,-352.81 975.68,-341.45 1001.35,-332.781"/>
<polygon fill="midnightblue" stroke="midnightblue" points="1002.58,-336.062 1010.97,-329.592 1000.37,-329.418 1002.58,-336.062"/>
</g>
<!-- Node11&#45;&gt;Node29 -->
<g id="edge47" class="edge"><title>Node11&#45;&gt;Node29</title>
<path fill="none" stroke="midnightblue" d="M822.273,-437.914C862.112,-428.88 935.031,-412.344 990.069,-399.864"/>
<polygon fill="midnightblue" stroke="midnightblue" points="991.147,-403.208 1000.13,-397.583 989.599,-396.381 991.147,-403.208"/>
</g>
<!-- Node12&#45;&gt;Node4 -->
<g id="edge20" class="edge"><title>Node12&#45;&gt;Node4</title>
<path fill="none" stroke="midnightblue" d="M425.389,-171.429C406.048,-161.83 381.138,-148.664 360.229,-135 326.065,-112.672 318.959,-104.86 288.229,-78 269.59,-61.7084 249.308,-41.8892 235.59,-28.1471"/>
<polygon fill="midnightblue" stroke="midnightblue" points="237.86,-25.466 228.333,-20.8308 232.89,-30.3955 237.86,-25.466"/>
</g>
<!-- Node12&#45;&gt;Node5 -->
<g id="edge21" class="edge"><title>Node12&#45;&gt;Node5</title>
<path fill="none" stroke="midnightblue" d="M477.492,-171.497C501.164,-152.644 539.25,-117.886 556.229,-78 562.607,-63.0198 563.486,-44.431 562.984,-30.7185"/>
<polygon fill="midnightblue" stroke="midnightblue" points="566.464,-30.2871 562.327,-20.5331 559.478,-30.7376 566.464,-30.2871"/>
</g>
<!-- Node13 -->
<g id="node13" class="node"><title>Node13</title>
<g id="a_node13"><a xlink:href="Object_8h.html" target="_top" xlink:title="Object.h">
<polygon fill="white" stroke="black" points="369.613,-114.5 369.613,-134.5 422.846,-134.5 422.846,-114.5 369.613,-114.5"/>
<text text-anchor="middle" x="396.229" y="-121.5" font-family="Helvetica,sans-Serif" font-size="10.00">Object.h</text>
</a>
</g>
</g>
<!-- Node12&#45;&gt;Node13 -->
<g id="edge13" class="edge"><title>Node12&#45;&gt;Node13</title>
<path fill="none" stroke="midnightblue" d="M442.151,-171.421C433.11,-162.381 421.616,-150.887 412.389,-141.66"/>
<polygon fill="midnightblue" stroke="midnightblue" points="414.821,-139.142 405.275,-134.546 409.871,-144.092 414.821,-139.142"/>
</g>
<!-- Node14 -->
<g id="node14" class="node"><title>Node14</title>
<g id="a_node14"><a xlink:href="IOUtils_8h.html" target="_top" xlink:title="IOUtils.h">
<polygon fill="white" stroke="black" points="493.063,-57.5 493.063,-77.5 547.395,-77.5 547.395,-57.5 493.063,-57.5"/>
<text text-anchor="middle" x="520.229" y="-64.5" font-family="Helvetica,sans-Serif" font-size="10.00">IOUtils.h</text>
</a>
</g>
</g>
<!-- Node12&#45;&gt;Node14 -->
<g id="edge19" class="edge"><title>Node12&#45;&gt;Node14</title>
<path fill="none" stroke="midnightblue" d="M465.615,-171.206C471.206,-160.976 478.701,-147.204 485.229,-135 493.959,-118.683 503.76,-100.032 510.765,-86.6428"/>
<polygon fill="midnightblue" stroke="midnightblue" points="513.984,-88.0396 515.513,-77.5556 507.78,-84.798 513.984,-88.0396"/>
</g>
<!-- Node15 -->
<g id="node15" class="node"><title>Node15</title>
<polygon fill="white" stroke="#bfbfbf" points="696.616,-0.5 696.616,-20.5 739.842,-20.5 739.842,-0.5 696.616,-0.5"/>
<text text-anchor="middle" x="718.229" y="-7.5" font-family="Helvetica,sans-Serif" font-size="10.00">vector</text>
</g>
<!-- Node12&#45;&gt;Node15 -->
<g id="edge22" class="edge"><title>Node12&#45;&gt;Node15</title>
<path fill="none" stroke="midnightblue" d="M482.502,-171.281C499.057,-161.199 521.092,-147.565 540.229,-135 597.709,-97.2628 663.867,-50.4433 696.997,-26.7573"/>
<polygon fill="midnightblue" stroke="midnightblue" points="699.338,-29.3851 705.43,-20.7168 695.262,-23.6942 699.338,-29.3851"/>
</g>
<!-- Node16 -->
<g id="node16" class="node"><title>Node16</title>
<polygon fill="white" stroke="#bfbfbf" points="440.506,-114.5 440.506,-134.5 475.953,-134.5 475.953,-114.5 440.506,-114.5"/>
<text text-anchor="middle" x="458.229" y="-121.5" font-family="Helvetica,sans-Serif" font-size="10.00">map</text>
</g>
<!-- Node12&#45;&gt;Node16 -->
<g id="edge23" class="edge"><title>Node12&#45;&gt;Node16</title>
<path fill="none" stroke="midnightblue" d="M457.477,-171.421C457.608,-163.375 457.772,-153.386 457.913,-144.781"/>
<polygon fill="midnightblue" stroke="midnightblue" points="461.417,-144.602 458.081,-134.546 454.418,-144.487 461.417,-144.602"/>
</g>
<!-- Node13&#45;&gt;Node4 -->
<g id="edge18" class="edge"><title>Node13&#45;&gt;Node4</title>
<path fill="none" stroke="midnightblue" d="M381.745,-114.335C351.147,-94.9733 279.7,-49.764 242.569,-26.2687"/>
<polygon fill="midnightblue" stroke="midnightblue" points="244.236,-23.1816 233.914,-20.7921 240.493,-29.0969 244.236,-23.1816"/>
</g>
<!-- Node13&#45;&gt;Node14 -->
<g id="edge14" class="edge"><title>Node13&#45;&gt;Node14</title>
<path fill="none" stroke="midnightblue" d="M416.705,-114.418C436.809,-105.501 467.692,-91.803 490.498,-81.6873"/>
<polygon fill="midnightblue" stroke="midnightblue" points="492.001,-84.8496 499.723,-77.5956 489.163,-78.4508 492.001,-84.8496"/>
</g>
<!-- Node14&#45;&gt;Node4 -->
<g id="edge16" class="edge"><title>Node14&#45;&gt;Node4</title>
<path fill="none" stroke="midnightblue" d="M492.987,-61.5221C438.403,-51.5484 315.674,-29.1227 254.824,-18.004"/>
<polygon fill="midnightblue" stroke="midnightblue" points="255.376,-14.547 244.91,-16.1924 254.118,-21.433 255.376,-14.547"/>
</g>
<!-- Node14&#45;&gt;Node5 -->
<g id="edge15" class="edge"><title>Node14&#45;&gt;Node5</title>
<path fill="none" stroke="midnightblue" d="M527,-57.4179C532.781,-49.6624 541.259,-38.29 548.33,-28.8035"/>
<polygon fill="midnightblue" stroke="midnightblue" points="551.141,-30.8888 554.312,-20.7795 545.529,-26.7051 551.141,-30.8888"/>
</g>
<!-- Node14&#45;&gt;Node15 -->
<g id="edge17" class="edge"><title>Node14&#45;&gt;Node15</title>
<path fill="none" stroke="midnightblue" d="M547.76,-58.8525C584.086,-48.762 647.901,-31.0357 686.301,-20.3689"/>
<polygon fill="midnightblue" stroke="midnightblue" points="687.716,-23.6086 696.414,-17.5598 685.842,-16.864 687.716,-23.6086"/>
</g>
<!-- Node18 -->
<g id="node18" class="node"><title>Node18</title>
<g id="a_node18"><a xlink:href="ArrayBase_8h.html" target="_top" xlink:title="ArrayBase.h">
<polygon fill="white" stroke="black" points="581.724,-303.5 581.724,-323.5 652.735,-323.5 652.735,-303.5 581.724,-303.5"/>
<text text-anchor="middle" x="617.229" y="-310.5" font-family="Helvetica,sans-Serif" font-size="10.00">ArrayBase.h</text>
</a>
</g>
</g>
<!-- Node17&#45;&gt;Node18 -->
<g id="edge25" class="edge"><title>Node17&#45;&gt;Node18</title>
<path fill="none" stroke="midnightblue" d="M734.342,-366.464C708.089,-354.815 672.074,-338.835 646.939,-327.683"/>
<polygon fill="midnightblue" stroke="midnightblue" points="648.114,-324.375 637.553,-323.518 645.275,-330.773 648.114,-324.375"/>
</g>
<!-- Node21 -->
<g id="node21" class="node"><title>Node21</title>
<g id="a_node21"><a xlink:href="CollectionBase_8h.html" target="_top" xlink:title="CollectionBase.h">
<polygon fill="white" stroke="black" points="670.721,-303.5 670.721,-323.5 761.737,-323.5 761.737,-303.5 670.721,-303.5"/>
<text text-anchor="middle" x="716.229" y="-310.5" font-family="Helvetica,sans-Serif" font-size="10.00">CollectionBase.h</text>
</a>
</g>
</g>
<!-- Node17&#45;&gt;Node21 -->
<g id="edge33" class="edge"><title>Node17&#45;&gt;Node21</title>
<path fill="none" stroke="midnightblue" d="M756.43,-366.297C748.47,-356.041 737.95,-342.486 729.667,-331.814"/>
<polygon fill="midnightblue" stroke="midnightblue" points="732.238,-329.419 723.342,-323.665 726.709,-333.71 732.238,-329.419"/>
</g>
<!-- Node23 -->
<g id="node23" class="node"><title>Node23</title>
<g id="a_node23"><a xlink:href="Iterator_8h.html" target="_top" xlink:title="Iterator.h">
<polygon fill="white" stroke="black" points="888.224,-303.5 888.224,-323.5 944.234,-323.5 944.234,-303.5 888.224,-303.5"/>
<text text-anchor="middle" x="916.229" y="-310.5" font-family="Helvetica,sans-Serif" font-size="10.00">Iterator.h</text>
</a>
</g>
</g>
<!-- Node17&#45;&gt;Node23 -->
<g id="edge37" class="edge"><title>Node17&#45;&gt;Node23</title>
<path fill="none" stroke="midnightblue" d="M801.443,-366.464C827.175,-354.815 862.474,-338.835 887.11,-327.683"/>
<polygon fill="midnightblue" stroke="midnightblue" points="888.643,-330.831 896.309,-323.518 885.756,-324.454 888.643,-330.831"/>
</g>
<!-- Node24 -->
<g id="node24" class="node"><title>Node24</title>
<polygon fill="white" stroke="#bfbfbf" points="885.169,-240.5 885.169,-260.5 947.29,-260.5 947.29,-240.5 885.169,-240.5"/>
<text text-anchor="middle" x="916.229" y="-247.5" font-family="Helvetica,sans-Serif" font-size="10.00">type_traits</text>
</g>
<!-- Node17&#45;&gt;Node24 -->
<g id="edge42" class="edge"><title>Node17&#45;&gt;Node24</title>
<path fill="none" stroke="midnightblue" d="M792.103,-366.364C806.797,-356.64 825.721,-343.365 841.229,-330 863.845,-310.51 887.186,-285.087 901.697,-268.534"/>
<polygon fill="midnightblue" stroke="midnightblue" points="904.526,-270.614 908.43,-260.764 899.236,-266.029 904.526,-270.614"/>
</g>
<!-- Node25 -->
<g id="node25" class="node"><title>Node25</title>
<polygon fill="white" stroke="#bfbfbf" points="1032.83,-240.5 1032.83,-260.5 1091.63,-260.5 1091.63,-240.5 1032.83,-240.5"/>
<text text-anchor="middle" x="1062.23" y="-247.5" font-family="Helvetica,sans-Serif" font-size="10.00">stdexcept</text>
</g>
<!-- Node17&#45;&gt;Node25 -->
<g id="edge39" class="edge"><title>Node17&#45;&gt;Node25</title>
<path fill="none" stroke="midnightblue" d="M830.403,-367.305C875.417,-356.448 931.94,-341.446 953.229,-330 972.931,-319.408 973.321,-310.403 991.229,-297 1006.23,-285.774 1023.97,-274.402 1037.97,-265.835"/>
<polygon fill="midnightblue" stroke="midnightblue" points="1039.82,-268.809 1046.56,-260.64 1036.19,-262.819 1039.82,-268.809"/>
</g>
<!-- Node26 -->
<g id="node26" class="node"><title>Node26</title>
<polygon fill="white" stroke="#bfbfbf" points="780.177,-303.5 780.177,-323.5 832.282,-323.5 832.282,-303.5 780.177,-303.5"/>
<text text-anchor="middle" x="806.229" y="-310.5" font-family="Helvetica,sans-Serif" font-size="10.00">memory</text>
</g>
<!-- Node17&#45;&gt;Node26 -->
<g id="edge40" class="edge"><title>Node17&#45;&gt;Node26</title>
<path fill="none" stroke="midnightblue" d="M776.852,-366.297C782.552,-356.246 790.05,-343.026 796.044,-332.458"/>
<polygon fill="midnightblue" stroke="midnightblue" points="799.143,-334.09 801.032,-323.665 793.054,-330.636 799.143,-334.09"/>
</g>
<!-- Node27 -->
<g id="node27" class="node"><title>Node27</title>
<polygon fill="white" stroke="#bfbfbf" points="534.56,-303.5 534.56,-323.5 563.898,-323.5 563.898,-303.5 534.56,-303.5"/>
<text text-anchor="middle" x="549.229" y="-310.5" font-family="Helvetica,sans-Serif" font-size="10.00">set</text>
</g>
<!-- Node17&#45;&gt;Node27 -->
<g id="edge41" class="edge"><title>Node17&#45;&gt;Node27</title>
<path fill="none" stroke="midnightblue" d="M705.936,-370.711C666.483,-362.538 615.021,-349.365 572.229,-330 571.385,-329.618 570.537,-329.205 569.692,-328.77"/>
<polygon fill="midnightblue" stroke="midnightblue" points="571.329,-325.67 560.957,-323.507 567.717,-331.666 571.329,-325.67"/>
</g>
<!-- Node19 -->
<g id="node19" class="node"><title>Node19</title>
<g id="a_node19"><a xlink:href="ContainerBase_8h.html" target="_top" xlink:title="ContainerBase.h">
<polygon fill="white" stroke="black" points="615.996,-240.5 615.996,-260.5 706.462,-260.5 706.462,-240.5 615.996,-240.5"/>
<text text-anchor="middle" x="661.229" y="-247.5" font-family="Helvetica,sans-Serif" font-size="10.00">ContainerBase.h</text>
</a>
</g>
</g>
<!-- Node18&#45;&gt;Node19 -->
<g id="edge26" class="edge"><title>Node18&#45;&gt;Node19</title>
<path fill="none" stroke="midnightblue" d="M623.722,-303.499C630.286,-294.399 640.598,-280.103 648.749,-268.802"/>
<polygon fill="midnightblue" stroke="midnightblue" points="651.699,-270.696 654.71,-260.538 646.022,-266.6 651.699,-270.696"/>
</g>
<!-- Node19&#45;&gt;Node4 -->
<g id="edge30" class="edge"><title>Node19&#45;&gt;Node4</title>
<path fill="none" stroke="midnightblue" d="M615.914,-241.64C612.637,-241.082 609.383,-240.53 606.229,-240 508.523,-223.568 474.212,-249.559 386.229,-204 307.996,-163.489 250.428,-69.5328 228.711,-29.7841"/>
<polygon fill="midnightblue" stroke="midnightblue" points="231.77,-28.0829 223.971,-20.9119 225.596,-31.3814 231.77,-28.0829"/>
</g>
<!-- Node19&#45;&gt;Node5 -->
<g id="edge29" class="edge"><title>Node19&#45;&gt;Node5</title>
<path fill="none" stroke="midnightblue" d="M659.687,-240.108C657.071,-225.168 651.166,-195.203 642.229,-171 622.407,-117.312 589.153,-58.2724 572.074,-29.4031"/>
<polygon fill="midnightblue" stroke="midnightblue" points="574.892,-27.2952 566.756,-20.5081 568.884,-30.8872 574.892,-27.2952"/>
</g>
<!-- Node19&#45;&gt;Node12 -->
<g id="edge27" class="edge"><title>Node19&#45;&gt;Node12</title>
<path fill="none" stroke="midnightblue" d="M631.128,-240.499C601.319,-231.585 554.838,-217.687 517.429,-206.501"/>
<polygon fill="midnightblue" stroke="midnightblue" points="518.219,-203.084 507.636,-203.573 516.214,-209.791 518.219,-203.084"/>
</g>
<!-- Node19&#45;&gt;Node14 -->
<g id="edge28" class="edge"><title>Node19&#45;&gt;Node14</title>
<path fill="none" stroke="midnightblue" d="M626.771,-240.367C606.632,-233.414 582.128,-221.92 566.229,-204 536.378,-170.354 525.742,-116.523 522.073,-87.8888"/>
<polygon fill="midnightblue" stroke="midnightblue" points="525.513,-87.1548 520.921,-77.6067 518.556,-87.9342 525.513,-87.1548"/>
</g>
<!-- Node19&#45;&gt;Node15 -->
<g id="edge31" class="edge"><title>Node19&#45;&gt;Node15</title>
<path fill="none" stroke="midnightblue" d="M664.23,-240.496C667.219,-231.36 671.841,-216.782 675.229,-204 691.864,-141.251 707.441,-65.8765 714.406,-30.9836"/>
<polygon fill="midnightblue" stroke="midnightblue" points="717.918,-31.2684 716.427,-20.7789 711.051,-29.9085 717.918,-31.2684"/>
</g>
<!-- Node20 -->
<g id="node20" class="node"><title>Node20</title>
<polygon fill="white" stroke="#bfbfbf" points="574.834,-177.5 574.834,-197.5 633.625,-197.5 633.625,-177.5 574.834,-177.5"/>
<text text-anchor="middle" x="604.229" y="-184.5" font-family="Helvetica,sans-Serif" font-size="10.00">functional</text>
</g>
<!-- Node19&#45;&gt;Node20 -->
<g id="edge32" class="edge"><title>Node19&#45;&gt;Node20</title>
<path fill="none" stroke="midnightblue" d="M652.819,-240.499C644.147,-231.219 630.426,-216.535 619.773,-205.134"/>
<polygon fill="midnightblue" stroke="midnightblue" points="622.059,-202.455 612.674,-197.538 616.945,-207.234 622.059,-202.455"/>
</g>
<!-- Node21&#45;&gt;Node15 -->
<g id="edge35" class="edge"><title>Node21&#45;&gt;Node15</title>
<path fill="none" stroke="midnightblue" d="M721.295,-303.49C732.059,-283.474 756.229,-233.514 756.229,-188.5 756.229,-188.5 756.229,-188.5 756.229,-123.5 756.229,-88.9345 739.798,-51.3983 728.545,-29.7447"/>
<polygon fill="midnightblue" stroke="midnightblue" points="731.506,-27.8619 723.674,-20.7268 725.347,-31.1887 731.506,-27.8619"/>
</g>
<!-- Node21&#45;&gt;Node19 -->
<g id="edge34" class="edge"><title>Node21&#45;&gt;Node19</title>
<path fill="none" stroke="midnightblue" d="M708.114,-303.499C699.746,-294.219 686.507,-279.535 676.228,-268.134"/>
<polygon fill="midnightblue" stroke="midnightblue" points="678.674,-265.621 669.378,-260.538 673.475,-270.308 678.674,-265.621"/>
</g>
<!-- Node22 -->
<g id="node22" class="node"><title>Node22</title>
<polygon fill="white" stroke="#bfbfbf" points="558.842,-240.5 558.842,-260.5 597.616,-260.5 597.616,-240.5 558.842,-240.5"/>
<text text-anchor="middle" x="578.229" y="-247.5" font-family="Helvetica,sans-Serif" font-size="10.00">utility</text>
</g>
<!-- Node21&#45;&gt;Node22 -->
<g id="edge36" class="edge"><title>Node21&#45;&gt;Node22</title>
<path fill="none" stroke="midnightblue" d="M695.867,-303.499C672.362,-293.11 633.537,-275.948 606.966,-264.202"/>
<polygon fill="midnightblue" stroke="midnightblue" points="608.343,-260.984 597.782,-260.143 605.513,-267.387 608.343,-260.984"/>
</g>
<!-- Node23&#45;&gt;Node24 -->
<g id="edge38" class="edge"><title>Node23&#45;&gt;Node24</title>
<path fill="none" stroke="midnightblue" d="M916.229,-303.499C916.229,-294.94 916.229,-281.783 916.229,-270.846"/>
<polygon fill="midnightblue" stroke="midnightblue" points="919.729,-270.538 916.229,-260.538 912.729,-270.538 919.729,-270.538"/>
</g>
<!-- Node28&#45;&gt;Node19 -->
<g id="edge44" class="edge"><title>Node28&#45;&gt;Node19</title>
<path fill="none" stroke="midnightblue" d="M1000.01,-303.036C922.484,-291.242 791.172,-271.267 716.85,-259.961"/>
<polygon fill="midnightblue" stroke="midnightblue" points="717.165,-256.469 706.753,-258.425 716.113,-263.389 717.165,-256.469"/>
</g>
<!-- Node28&#45;&gt;Node24 -->
<g id="edge46" class="edge"><title>Node28&#45;&gt;Node24</title>
<path fill="none" stroke="midnightblue" d="M1026.14,-297.421C1001.9,-287.296 970.304,-274.093 947.21,-264.444"/>
<polygon fill="midnightblue" stroke="midnightblue" points="948.457,-261.172 937.88,-260.546 945.758,-267.631 948.457,-261.172"/>
</g>
<!-- Node28&#45;&gt;Node25 -->
<g id="edge45" class="edge"><title>Node28&#45;&gt;Node25</title>
<path fill="none" stroke="midnightblue" d="M1062.23,-297.421C1062.23,-289.375 1062.23,-279.386 1062.23,-270.781"/>
<polygon fill="midnightblue" stroke="midnightblue" points="1065.73,-270.546 1062.23,-260.546 1058.73,-270.546 1065.73,-270.546"/>
</g>
<!-- Node29&#45;&gt;Node15 -->
<g id="edge51" class="edge"><title>Node29&#45;&gt;Node15</title>
<path fill="none" stroke="midnightblue" d="M1116.56,-366.456C1138.75,-358.33 1163.53,-346.501 1182.23,-330 1212.55,-303.243 1228.23,-291.938 1228.23,-251.5 1228.23,-251.5 1228.23,-251.5 1228.23,-123.5 1228.23,-25.2422 862.522,-13.0819 750.471,-11.6622"/>
<polygon fill="midnightblue" stroke="midnightblue" points="750.18,-8.15901 740.143,-11.5533 750.106,-15.1586 750.18,-8.15901"/>
</g>
<!-- Node29&#45;&gt;Node19 -->
<g id="edge48" class="edge"><title>Node29&#45;&gt;Node19</title>
<path fill="none" stroke="midnightblue" d="M1090.06,-366.397C1118.19,-349.257 1154.68,-320.617 1133.23,-297 1119.38,-281.752 838.624,-262.532 716.816,-254.873"/>
<polygon fill="midnightblue" stroke="midnightblue" points="716.78,-251.364 706.581,-254.233 716.343,-258.35 716.78,-251.364"/>
</g>
<!-- Node29&#45;&gt;Node25 -->
<g id="edge50" class="edge"><title>Node29&#45;&gt;Node25</title>
<path fill="none" stroke="midnightblue" d="M1119.46,-366.389C1137.59,-358.605 1155.66,-347.033 1166.23,-330 1173.96,-317.539 1174.26,-309.275 1166.23,-297 1151.95,-275.161 1124.62,-263.742 1101.56,-257.805"/>
<polygon fill="midnightblue" stroke="midnightblue" points="1102.19,-254.359 1091.66,-255.514 1100.61,-261.178 1102.19,-254.359"/>
</g>
<!-- Node29&#45;&gt;Node28 -->
<g id="edge49" class="edge"><title>Node29&#45;&gt;Node28</title>
<path fill="none" stroke="midnightblue" d="M1062.23,-366.297C1062.23,-358.501 1062.23,-348.799 1062.23,-339.906"/>
<polygon fill="midnightblue" stroke="midnightblue" points="1065.73,-339.643 1062.23,-329.643 1058.73,-339.643 1065.73,-339.643"/>
</g>
<!-- Node30&#45;&gt;Node3 -->
<g id="edge56" class="edge"><title>Node30&#45;&gt;Node3</title>
<path fill="none" stroke="midnightblue" d="M625.703,-435.825C571.304,-424.461 476.268,-404.607 420.209,-392.896"/>
<polygon fill="midnightblue" stroke="midnightblue" points="420.718,-389.427 410.214,-390.808 419.287,-396.279 420.718,-389.427"/>
</g>
<!-- Node30&#45;&gt;Node12 -->
<g id="edge57" class="edge"><title>Node30&#45;&gt;Node12</title>
<path fill="none" stroke="midnightblue" d="M625.585,-436.148C576.764,-425.978 501.311,-408.934 492.229,-399 444.99,-347.326 448.423,-257.23 453.457,-213.6"/>
<polygon fill="midnightblue" stroke="midnightblue" points="456.944,-213.924 454.742,-203.56 450.001,-213.035 456.944,-213.924"/>
</g>
<!-- Node30&#45;&gt;Node17 -->
<g id="edge58" class="edge"><title>Node30&#45;&gt;Node17</title>
<path fill="none" stroke="midnightblue" d="M682.132,-435.499C695.777,-427.259 716.475,-414.757 734.158,-404.078"/>
<polygon fill="midnightblue" stroke="midnightblue" points="736.326,-406.857 743.076,-398.691 732.707,-400.865 736.326,-406.857"/>
</g>
<!-- Node30&#45;&gt;Node28 -->
<g id="edge59" class="edge"><title>Node30&#45;&gt;Node28</title>
<path fill="none" stroke="midnightblue" d="M708.817,-439.719C745.177,-434.138 798.398,-422.487 839.229,-399 857.209,-388.658 854.281,-376.397 872.229,-366 892.437,-354.294 945.217,-340.409 990.034,-330.008"/>
<polygon fill="midnightblue" stroke="midnightblue" points="991.084,-333.358 1000.05,-327.711 989.518,-326.536 991.084,-333.358"/>
</g>
<!-- Node30&#45;&gt;Node29 -->
<g id="edge60" class="edge"><title>Node30&#45;&gt;Node29</title>
<path fill="none" stroke="midnightblue" d="M708.755,-438.087C775.591,-427.766 907.856,-407.34 990.281,-394.611"/>
<polygon fill="midnightblue" stroke="midnightblue" points="990.978,-398.045 1000.33,-393.06 989.91,-391.127 990.978,-398.045"/>
</g>
<!-- Node31&#45;&gt;Node3 -->
<g id="edge62" class="edge"><title>Node31&#45;&gt;Node3</title>
<path fill="none" stroke="midnightblue" d="M852.3,-549.415C798.391,-531.821 676.303,-491.683 574.229,-456 515.832,-435.586 448.242,-410.691 408.765,-396.021"/>
<polygon fill="midnightblue" stroke="midnightblue" points="409.949,-392.728 399.356,-392.521 407.508,-399.288 409.949,-392.728"/>
</g>
<!-- Node31&#45;&gt;Node17 -->
<g id="edge69" class="edge"><title>Node31&#45;&gt;Node17</title>
<path fill="none" stroke="midnightblue" d="M878.281,-549.353C873.344,-527.759 858.741,-472.606 831.229,-435 822.788,-423.461 811.175,-412.997 800.217,-404.561"/>
<polygon fill="midnightblue" stroke="midnightblue" points="802.154,-401.641 792.029,-398.521 797.999,-407.274 802.154,-401.641"/>
</g>
<!-- Node31&#45;&gt;Node28 -->
<g id="edge70" class="edge"><title>Node31&#45;&gt;Node28</title>
<path fill="none" stroke="midnightblue" d="M903.645,-549.48C919.89,-542.054 940.77,-529.975 953.229,-513 993.16,-458.601 953.232,-421.766 991.229,-366 999.578,-353.747 1011.85,-343.365 1023.85,-335.203"/>
<polygon fill="midnightblue" stroke="midnightblue" points="1025.96,-338.008 1032.48,-329.657 1022.17,-332.119 1025.96,-338.008"/>
</g>
<!-- Node31&#45;&gt;Node29 -->
<g id="edge71" class="edge"><title>Node31&#45;&gt;Node29</title>
<path fill="none" stroke="midnightblue" d="M915.793,-549.443C938.004,-542.385 966.103,-530.751 986.229,-513 1019.14,-483.975 1041.63,-437.13 1053.17,-408.449"/>
<polygon fill="midnightblue" stroke="midnightblue" points="1056.57,-409.36 1056.93,-398.771 1050.05,-406.827 1056.57,-409.36"/>
</g>
<!-- Node32 -->
<g id="node32" class="node"><title>Node32</title>
<g id="a_node32"><a xlink:href="ParticleM_8h.html" target="_top" xlink:title="ParticleM.h">
<polygon fill="white" stroke="black" points="878.229,-492.5 878.229,-512.5 944.229,-512.5 944.229,-492.5 878.229,-492.5"/>
<text text-anchor="middle" x="911.229" y="-499.5" font-family="Helvetica,sans-Serif" font-size="10.00">ParticleM.h</text>
</a>
</g>
</g>
<!-- Node31&#45;&gt;Node32 -->
<g id="edge63" class="edge"><title>Node31&#45;&gt;Node32</title>
<path fill="none" stroke="midnightblue" d="M885.348,-549.418C889.586,-541.9 895.739,-530.983 900.983,-521.68"/>
<polygon fill="midnightblue" stroke="midnightblue" points="904.138,-523.21 905.999,-512.779 898.04,-519.772 904.138,-523.21"/>
</g>
<!-- Node32&#45;&gt;Node3 -->
<g id="edge64" class="edge"><title>Node32&#45;&gt;Node3</title>
<path fill="none" stroke="midnightblue" d="M878.056,-497.639C811.832,-489.724 665.464,-471.128 617.229,-456 596.936,-449.635 594.181,-442.368 574.229,-435 522.536,-415.909 460.802,-401.112 419.948,-392.374"/>
<polygon fill="midnightblue" stroke="midnightblue" points="420.536,-388.921 410.03,-390.284 419.093,-395.771 420.536,-388.921"/>
</g>
<!-- Node32&#45;&gt;Node11 -->
<g id="edge65" class="edge"><title>Node32&#45;&gt;Node11</title>
<path fill="none" stroke="midnightblue" d="M891.744,-492.418C872.699,-483.541 843.487,-469.925 821.813,-459.823"/>
<polygon fill="midnightblue" stroke="midnightblue" points="823.286,-456.648 812.744,-455.596 820.329,-462.993 823.286,-456.648"/>
</g>
<!-- Node32&#45;&gt;Node17 -->
<g id="edge66" class="edge"><title>Node32&#45;&gt;Node17</title>
<path fill="none" stroke="midnightblue" d="M906.55,-492.315C899.129,-478.464 883.506,-452.043 864.229,-435 849.763,-422.21 831.567,-411.431 814.917,-403.093"/>
<polygon fill="midnightblue" stroke="midnightblue" points="816.386,-399.915 805.859,-398.714 813.339,-406.217 816.386,-399.915"/>
</g>
<!-- Node32&#45;&gt;Node28 -->
<g id="edge67" class="edge"><title>Node32&#45;&gt;Node28</title>
<path fill="none" stroke="midnightblue" d="M912.026,-492.416C914.548,-468.77 924.314,-404.479 958.229,-366 970.538,-352.035 987.508,-341.442 1004.17,-333.607"/>
<polygon fill="midnightblue" stroke="midnightblue" points="1005.64,-336.784 1013.37,-329.533 1002.81,-330.384 1005.64,-336.784"/>
</g>
<!-- Node32&#45;&gt;Node29 -->
<g id="edge68" class="edge"><title>Node32&#45;&gt;Node29</title>
<path fill="none" stroke="midnightblue" d="M923.078,-492.241C947.049,-473.508 1001.84,-430.694 1035.07,-404.726"/>
<polygon fill="midnightblue" stroke="midnightblue" points="1037.29,-407.427 1043.02,-398.512 1032.98,-401.912 1037.29,-407.427"/>
</g>
</g>
</svg>
