<?xml version="1.0" encoding="UTF-8" standalone="no"?>
<!DOCTYPE svg PUBLIC "-//W3C//DTD SVG 1.1//EN"
 "http://www.w3.org/Graphics/SVG/1.1/DTD/svg11.dtd">
<!-- Generated by graphviz version 2.38.0 (20140413.2041)
 -->
<!-- Title: Framework/interface/RefVector.h Pages: 1 -->
<!--zoomable 383 -->
<svg id="main" version="1.1" xmlns="http://www.w3.org/2000/svg" xmlns:xlink="http://www.w3.org/1999/xlink" xml:space="preserve" onload="init(evt)">
<style type="text/css"><![CDATA[
.edge:hover path { stroke: red; }
.edge:hover polygon { stroke: red; fill: red; }
]]></style>
<script type="text/javascript"><![CDATA[
var edges = document.getElementsByTagName('g');
if (edges && edges.length) {
  for (var i=0;i<edges.length;i++) {
    if (edges[i].id.substr(0,4)=='edge') {
      edges[i].setAttribute('class','edge');
    }
  }
}
]]></script>
        <defs>
                <circle id="rim" cx="0" cy="0" r="7"/>
                <circle id="rim2" cx="0" cy="0" r="3.5"/>
                <g id="zoomPlus">
                        <use xlink:href="#rim" fill="#404040">
                                <set attributeName="fill" to="#808080" begin="zoomplus.mouseover" end="zoomplus.mouseout"/>
                        </use>
                        <path d="M-4,0h8M0,-4v8" fill="none" stroke="white" stroke-width="1.5" pointer-events="none"/>
                </g>
                <g id="zoomMin">
                        <use xlink:href="#rim" fill="#404040">
                                <set attributeName="fill" to="#808080" begin="zoomminus.mouseover" end="zoomminus.mouseout"/>
                        </use>
                        <path d="M-4,0h8" fill="none" stroke="white" stroke-width="1.5" pointer-events="none"/>
                </g>
                <g id="dirArrow">
                        <path fill="none" stroke="white" stroke-width="1.5" d="M0,-3.0v7 M-2.5,-0.5L0,-3.0L2.5,-0.5"/>
                </g>
               <g id="resetDef">
                       <use xlink:href="#rim2" fill="#404040">
                               <set attributeName="fill" to="#808080" begin="reset.mouseover" end="reset.mouseout"/>
                       </use>
               </g>
        </defs>

<script type="text/javascript">
var viewWidth = 557;
var viewHeight = 383;
var sectionId = 'dynsection-0';
</script>
<script xlink:href="svgpan.js"/>
<svg id="graph" class="graph">
<g id="viewport">
<title>Framework/interface/RefVector.h</title>
<polygon fill="white" stroke="none" points="-4,4 -4,-379 552.678,-379 552.678,4 -4,4"/>
<!-- Node1 -->
<g id="node1" class="node"><title>Node1</title>
<polygon fill="#bfbfbf" stroke="black" points="354.724,-342.5 354.724,-374.5 461.837,-374.5 461.837,-342.5 354.724,-342.5"/>
<text text-anchor="start" x="362.724" y="-361.5" font-family="Helvetica,sans-Serif" font-size="10.00">Framework/interface</text>
<text text-anchor="middle" x="408.28" y="-349.5" font-family="Helvetica,sans-Serif" font-size="10.00">/RefVector.h</text>
</g>
<!-- Node2 -->
<g id="node2" class="node"><title>Node2</title>
<g id="a_node2"><a xlink:href="ContainerBase_8h.html" target="_top" xlink:title="ContainerBase.h">
<polygon fill="white" stroke="black" points="194.047,-228.5 194.047,-248.5 284.513,-248.5 284.513,-228.5 194.047,-228.5"/>
<text text-anchor="middle" x="239.28" y="-235.5" font-family="Helvetica,sans-Serif" font-size="10.00">ContainerBase.h</text>
</a>
</g>
</g>
<!-- Node1&#45;&gt;Node2 -->
<g id="edge1" class="edge"><title>Node1&#45;&gt;Node2</title>
<path fill="none" stroke="midnightblue" d="M386.533,-342.315C353.938,-319.556 292.804,-276.871 260.513,-254.325"/>
<polygon fill="midnightblue" stroke="midnightblue" points="262.42,-251.388 252.217,-248.533 258.413,-257.127 262.42,-251.388"/>
</g>
<!-- Node8 -->
<g id="node8" class="node"><title>Node8</title>
<polygon fill="white" stroke="#bfbfbf" points="284.667,-0.5 284.667,-20.5 327.893,-20.5 327.893,-0.5 284.667,-0.5"/>
<text text-anchor="middle" x="306.28" y="-7.5" font-family="Helvetica,sans-Serif" font-size="10.00">vector</text>
</g>
<!-- Node1&#45;&gt;Node8 -->
<g id="edge24" class="edge"><title>Node1&#45;&gt;Node8</title>
<path fill="none" stroke="midnightblue" d="M402.767,-342.459C395.135,-320.257 382.28,-277.26 382.28,-239.5 382.28,-239.5 382.28,-239.5 382.28,-123.5 382.28,-83.3176 348.371,-46.8439 325.852,-27.0531"/>
<polygon fill="midnightblue" stroke="midnightblue" points="328.05,-24.328 318.155,-20.5405 323.529,-29.6718 328.05,-24.328"/>
</g>
<!-- Node11 -->
<g id="node11" class="node"><title>Node11</title>
<g id="a_node11"><a xlink:href="Ref_8h.html" target="_top" xlink:title="Ref.h">
<polygon fill="white" stroke="black" points="415.333,-285.5 415.333,-305.5 455.228,-305.5 455.228,-285.5 415.333,-285.5"/>
<text text-anchor="middle" x="435.28" y="-292.5" font-family="Helvetica,sans-Serif" font-size="10.00">Ref.h</text>
</a>
</g>
</g>
<!-- Node1&#45;&gt;Node11 -->
<g id="edge19" class="edge"><title>Node1&#45;&gt;Node11</title>
<path fill="none" stroke="midnightblue" d="M414.955,-342.421C418.636,-334.104 423.237,-323.71 427.129,-314.915"/>
<polygon fill="midnightblue" stroke="midnightblue" points="430.43,-316.107 431.277,-305.546 424.029,-313.274 430.43,-316.107"/>
</g>
<!-- Node12 -->
<g id="node12" class="node"><title>Node12</title>
<polygon fill="white" stroke="#bfbfbf" points="489.883,-228.5 489.883,-248.5 548.678,-248.5 548.678,-228.5 489.883,-228.5"/>
<text text-anchor="middle" x="519.28" y="-235.5" font-family="Helvetica,sans-Serif" font-size="10.00">stdexcept</text>
</g>
<!-- Node1&#45;&gt;Node12 -->
<g id="edge23" class="edge"><title>Node1&#45;&gt;Node12</title>
<path fill="none" stroke="midnightblue" d="M426.013,-342.307C437.326,-332.348 452.098,-318.84 464.28,-306 479.338,-290.13 495.111,-270.73 505.886,-256.989"/>
<polygon fill="midnightblue" stroke="midnightblue" points="508.82,-258.916 512.186,-248.871 503.29,-254.625 508.82,-258.916"/>
</g>
<!-- Node3 -->
<g id="node3" class="node"><title>Node3</title>
<g id="a_node3"><a xlink:href="ContainerElement_8h.html" target="_top" xlink:title="ContainerElement.h">
<polygon fill="white" stroke="black" points="145.104,-171.5 145.104,-191.5 249.456,-191.5 249.456,-171.5 145.104,-171.5"/>
<text text-anchor="middle" x="197.28" y="-178.5" font-family="Helvetica,sans-Serif" font-size="10.00">ContainerElement.h</text>
</a>
</g>
</g>
<!-- Node2&#45;&gt;Node3 -->
<g id="edge2" class="edge"><title>Node2&#45;&gt;Node3</title>
<path fill="none" stroke="midnightblue" d="M232.345,-228.418C226.423,-220.662 217.738,-209.29 210.494,-199.803"/>
<polygon fill="midnightblue" stroke="midnightblue" points="213.217,-197.603 204.367,-191.779 207.654,-201.851 213.217,-197.603"/>
</g>
<!-- Node5 -->
<g id="node5" class="node"><title>Node5</title>
<g id="a_node5"><a xlink:href="IOUtils_8h.html" target="_top" xlink:title="IOUtils.h">
<polygon fill="white" stroke="black" points="149.114,-57.5 149.114,-77.5 203.446,-77.5 203.446,-57.5 149.114,-57.5"/>
<text text-anchor="middle" x="176.28" y="-64.5" font-family="Helvetica,sans-Serif" font-size="10.00">IOUtils.h</text>
</a>
</g>
</g>
<!-- Node2&#45;&gt;Node5 -->
<g id="edge14" class="edge"><title>Node2&#45;&gt;Node5</title>
<path fill="none" stroke="midnightblue" d="M244.333,-228.432C249.008,-219.485 255.623,-205.262 258.28,-192 265.138,-157.784 268.551,-143.093 249.28,-114 239.945,-99.9058 224.591,-89.3794 210.367,-82.0214"/>
<polygon fill="midnightblue" stroke="midnightblue" points="211.787,-78.8203 201.258,-77.6381 208.752,-85.128 211.787,-78.8203"/>
</g>
<!-- Node6 -->
<g id="node6" class="node"><title>Node6</title>
<polygon fill="white" stroke="#bfbfbf" points="-3.90799e-14,-0.5 -3.90799e-14,-20.5 56.561,-20.5 56.561,-0.5 -3.90799e-14,-0.5"/>
<text text-anchor="middle" x="28.2805" y="-7.5" font-family="Helvetica,sans-Serif" font-size="10.00">TString.h</text>
</g>
<!-- Node2&#45;&gt;Node6 -->
<g id="edge15" class="edge"><title>Node2&#45;&gt;Node6</title>
<path fill="none" stroke="midnightblue" d="M193.697,-232.992C142.353,-226.905 63.5391,-214.181 44.2805,-192 4.46736,-146.145 15.5978,-66.8171 23.4821,-30.5666"/>
<polygon fill="midnightblue" stroke="midnightblue" points="26.9007,-31.3179 25.7647,-20.7841 20.0838,-29.7272 26.9007,-31.3179"/>
</g>
<!-- Node7 -->
<g id="node7" class="node"><title>Node7</title>
<polygon fill="white" stroke="#bfbfbf" points="81.779,-0.5 81.779,-20.5 132.782,-20.5 132.782,-0.5 81.779,-0.5"/>
<text text-anchor="middle" x="107.28" y="-7.5" font-family="Helvetica,sans-Serif" font-size="10.00">TTree.h</text>
</g>
<!-- Node2&#45;&gt;Node7 -->
<g id="edge16" class="edge"><title>Node2&#45;&gt;Node7</title>
<path fill="none" stroke="midnightblue" d="M193.844,-232.352C146.096,-225.896 75.6678,-213.045 59.2805,-192 20.5106,-142.211 68.4248,-63.8105 93.6347,-29.072"/>
<polygon fill="midnightblue" stroke="midnightblue" points="96.5908,-30.963 99.7711,-20.8567 90.9826,-26.7739 96.5908,-30.963"/>
</g>
<!-- Node2&#45;&gt;Node8 -->
<g id="edge17" class="edge"><title>Node2&#45;&gt;Node8</title>
<path fill="none" stroke="midnightblue" d="M248.409,-228.2C256.406,-219.531 267.744,-205.886 274.28,-192 299.864,-137.651 305.118,-65.325 306.112,-31.0742"/>
<polygon fill="midnightblue" stroke="midnightblue" points="309.62,-30.7045 306.313,-20.6391 302.621,-30.57 309.62,-30.7045"/>
</g>
<!-- Node10 -->
<g id="node10" class="node"><title>Node10</title>
<polygon fill="white" stroke="#bfbfbf" points="67.885,-171.5 67.885,-191.5 126.676,-191.5 126.676,-171.5 67.885,-171.5"/>
<text text-anchor="middle" x="97.2805" y="-178.5" font-family="Helvetica,sans-Serif" font-size="10.00">functional</text>
</g>
<!-- Node2&#45;&gt;Node10 -->
<g id="edge18" class="edge"><title>Node2&#45;&gt;Node10</title>
<path fill="none" stroke="midnightblue" d="M215.832,-228.418C192.502,-219.382 156.495,-205.435 130.283,-195.283"/>
<polygon fill="midnightblue" stroke="midnightblue" points="131.353,-191.944 120.764,-191.596 128.825,-198.471 131.353,-191.944"/>
</g>
<!-- Node4 -->
<g id="node4" class="node"><title>Node4</title>
<g id="a_node4"><a xlink:href="Object_8h.html" target="_top" xlink:title="Object.h">
<polygon fill="white" stroke="black" points="94.664,-114.5 94.664,-134.5 147.897,-134.5 147.897,-114.5 94.664,-114.5"/>
<text text-anchor="middle" x="121.28" y="-121.5" font-family="Helvetica,sans-Serif" font-size="10.00">Object.h</text>
</a>
</g>
</g>
<!-- Node3&#45;&gt;Node4 -->
<g id="edge3" class="edge"><title>Node3&#45;&gt;Node4</title>
<path fill="none" stroke="midnightblue" d="M184.731,-171.418C173.179,-163.058 155.821,-150.497 142.179,-140.624"/>
<polygon fill="midnightblue" stroke="midnightblue" points="144.002,-137.623 133.849,-134.596 139.898,-143.294 144.002,-137.623"/>
</g>
<!-- Node3&#45;&gt;Node5 -->
<g id="edge9" class="edge"><title>Node3&#45;&gt;Node5</title>
<path fill="none" stroke="midnightblue" d="M195.562,-171.335C192.147,-153.122 184.444,-112.037 179.875,-87.6694"/>
<polygon fill="midnightblue" stroke="midnightblue" points="183.306,-86.9758 178.023,-77.7921 176.426,-88.2658 183.306,-86.9758"/>
</g>
<!-- Node3&#45;&gt;Node6 -->
<g id="edge11" class="edge"><title>Node3&#45;&gt;Node6</title>
<path fill="none" stroke="midnightblue" d="M145.002,-171.87C120.467,-165.413 92.4734,-154.236 73.2805,-135 44.5101,-106.164 33.9828,-57.4978 30.2457,-30.6744"/>
<polygon fill="midnightblue" stroke="midnightblue" points="33.7069,-30.1424 29.0264,-20.6375 26.758,-30.9867 33.7069,-30.1424"/>
</g>
<!-- Node3&#45;&gt;Node7 -->
<g id="edge10" class="edge"><title>Node3&#45;&gt;Node7</title>
<path fill="none" stroke="midnightblue" d="M145.044,-172.518C122.728,-166.238 98.758,-155.022 85.2805,-135 63.5938,-102.782 82.7961,-55.522 96.4447,-29.8101"/>
<polygon fill="midnightblue" stroke="midnightblue" points="99.6588,-31.2331 101.478,-20.7955 93.5468,-27.8206 99.6588,-31.2331"/>
</g>
<!-- Node3&#45;&gt;Node8 -->
<g id="edge12" class="edge"><title>Node3&#45;&gt;Node8</title>
<path fill="none" stroke="midnightblue" d="M210.647,-171.303C222.075,-162.904 238.359,-149.601 249.28,-135 274.168,-101.725 291.772,-55.8461 300.347,-30.4102"/>
<polygon fill="midnightblue" stroke="midnightblue" points="303.784,-31.1605 303.556,-20.5681 297.129,-28.9911 303.784,-31.1605"/>
</g>
<!-- Node9 -->
<g id="node9" class="node"><title>Node9</title>
<polygon fill="white" stroke="#bfbfbf" points="204.557,-114.5 204.557,-134.5 240.004,-134.5 240.004,-114.5 204.557,-114.5"/>
<text text-anchor="middle" x="222.28" y="-121.5" font-family="Helvetica,sans-Serif" font-size="10.00">map</text>
</g>
<!-- Node3&#45;&gt;Node9 -->
<g id="edge13" class="edge"><title>Node3&#45;&gt;Node9</title>
<path fill="none" stroke="midnightblue" d="M201.409,-171.418C204.79,-163.979 209.684,-153.212 213.883,-143.974"/>
<polygon fill="midnightblue" stroke="midnightblue" points="217.111,-145.331 218.063,-134.779 210.738,-142.435 217.111,-145.331"/>
</g>
<!-- Node4&#45;&gt;Node5 -->
<g id="edge4" class="edge"><title>Node4&#45;&gt;Node5</title>
<path fill="none" stroke="midnightblue" d="M130.363,-114.418C138.356,-106.425 150.19,-94.5903 159.843,-84.9377"/>
<polygon fill="midnightblue" stroke="midnightblue" points="162.405,-87.3254 167.001,-77.7795 157.455,-82.3757 162.405,-87.3254"/>
</g>
<!-- Node4&#45;&gt;Node7 -->
<g id="edge8" class="edge"><title>Node4&#45;&gt;Node7</title>
<path fill="none" stroke="midnightblue" d="M120.135,-114.335C117.868,-96.2039 112.769,-55.4065 109.718,-30.9997"/>
<polygon fill="midnightblue" stroke="midnightblue" points="113.155,-30.2807 108.442,-20.7921 106.209,-31.149 113.155,-30.2807"/>
</g>
<!-- Node5&#45;&gt;Node6 -->
<g id="edge5" class="edge"><title>Node5&#45;&gt;Node6</title>
<path fill="none" stroke="midnightblue" d="M151.841,-57.4179C127.419,-48.3419 89.6663,-34.3123 62.3173,-24.1488"/>
<polygon fill="midnightblue" stroke="midnightblue" points="63.3489,-20.7984 52.756,-20.5956 60.9104,-27.3599 63.3489,-20.7984"/>
</g>
<!-- Node5&#45;&gt;Node7 -->
<g id="edge6" class="edge"><title>Node5&#45;&gt;Node7</title>
<path fill="none" stroke="midnightblue" d="M164.887,-57.4179C154.561,-49.1876 139.126,-36.8839 126.831,-27.0836"/>
<polygon fill="midnightblue" stroke="midnightblue" points="128.923,-24.2757 118.922,-20.7795 124.56,-29.7495 128.923,-24.2757"/>
</g>
<!-- Node5&#45;&gt;Node8 -->
<g id="edge7" class="edge"><title>Node5&#45;&gt;Node8</title>
<path fill="none" stroke="midnightblue" d="M197.747,-57.4179C218.917,-48.4613 251.49,-34.6806 275.43,-24.552"/>
<polygon fill="midnightblue" stroke="midnightblue" points="276.936,-27.7155 284.782,-20.5956 274.208,-21.2687 276.936,-27.7155"/>
</g>
<!-- Node11&#45;&gt;Node2 -->
<g id="edge20" class="edge"><title>Node11&#45;&gt;Node2</title>
<path fill="none" stroke="midnightblue" d="M415.043,-288.821C383.689,-280.023 322.696,-262.907 281.469,-251.339"/>
<polygon fill="midnightblue" stroke="midnightblue" points="282.276,-247.93 271.703,-248.598 280.385,-254.67 282.276,-247.93"/>
</g>
<!-- Node11&#45;&gt;Node12 -->
<g id="edge21" class="edge"><title>Node11&#45;&gt;Node12</title>
<path fill="none" stroke="midnightblue" d="M449.151,-285.418C462.04,-276.979 481.47,-264.257 496.612,-254.343"/>
<polygon fill="midnightblue" stroke="midnightblue" points="498.94,-257.002 505.389,-248.596 495.106,-251.145 498.94,-257.002"/>
</g>
<!-- Node13 -->
<g id="node13" class="node"><title>Node13</title>
<polygon fill="white" stroke="#bfbfbf" points="410.22,-228.5 410.22,-248.5 472.341,-248.5 472.341,-228.5 410.22,-228.5"/>
<text text-anchor="middle" x="441.28" y="-235.5" font-family="Helvetica,sans-Serif" font-size="10.00">type_traits</text>
</g>
<!-- Node11&#45;&gt;Node13 -->
<g id="edge22" class="edge"><title>Node11&#45;&gt;Node13</title>
<path fill="none" stroke="midnightblue" d="M436.271,-285.418C437.057,-278.216 438.183,-267.896 439.168,-258.863"/>
<polygon fill="midnightblue" stroke="midnightblue" points="442.663,-259.1 440.268,-248.779 435.704,-258.341 442.663,-259.1"/>
</g>
</g>
</svg>
        <g id="navigator" transform="translate(0 0)" fill="#404254">
                <rect fill="#f2f5e9" fill-opacity="0.5" stroke="#606060" stroke-width=".5" x="0" y="0" width="60" height="60"/>
                <use id="zoomplus" xlink:href="#zoomPlus" x="17" y="9" onmousedown="handleZoom(evt,'in')"/>
                <use id="zoomminus" xlink:href="#zoomMin" x="42" y="9" onmousedown="handleZoom(evt,'out')"/>
                <use id="reset" xlink:href="#resetDef" x="30" y="36" onmousedown="handleReset()"/>
                <g id="arrowUp" xlink:href="#dirArrow" transform="translate(30 24)" onmousedown="handlePan(0,-1)">
                  <use xlink:href="#rim" fill="#404040">
                        <set attributeName="fill" to="#808080" begin="arrowUp.mouseover" end="arrowUp.mouseout"/>
                  </use>
                  <path fill="none" stroke="white" stroke-width="1.5" d="M0,-3.0v7 M-2.5,-0.5L0,-3.0L2.5,-0.5"/>
                </g>
                <g id="arrowRight" xlink:href="#dirArrow" transform="rotate(90) translate(36 -43)" onmousedown="handlePan(1,0)">
                  <use xlink:href="#rim" fill="#404040">
                        <set attributeName="fill" to="#808080" begin="arrowRight.mouseover" end="arrowRight.mouseout"/>
                  </use>
                  <path fill="none" stroke="white" stroke-width="1.5" d="M0,-3.0v7 M-2.5,-0.5L0,-3.0L2.5,-0.5"/>
                </g>
                <g id="arrowDown" xlink:href="#dirArrow" transform="rotate(180) translate(-30 -48)" onmousedown="handlePan(0,1)">
                  <use xlink:href="#rim" fill="#404040">
                        <set attributeName="fill" to="#808080" begin="arrowDown.mouseover" end="arrowDown.mouseout"/>
                  </use>
                  <path fill="none" stroke="white" stroke-width="1.5" d="M0,-3.0v7 M-2.5,-0.5L0,-3.0L2.5,-0.5"/>
                </g>
                <g id="arrowLeft" xlink:href="#dirArrow" transform="rotate(270) translate(-36 17)" onmousedown="handlePan(-1,0)">
                  <use xlink:href="#rim" fill="#404040">
                        <set attributeName="fill" to="#808080" begin="arrowLeft.mouseover" end="arrowLeft.mouseout"/>
                  </use>
                  <path fill="none" stroke="white" stroke-width="1.5" d="M0,-3.0v7 M-2.5,-0.5L0,-3.0L2.5,-0.5"/>
                </g>
        </g>
        <svg viewBox="0 0 15 15" width="100%" height="30px" preserveAspectRatio="xMaxYMin meet">
         <g id="arrow_out" transform="scale(0.3 0.3)">
          <a xlink:href="RefVector_8h__incl_org.svg" target="_base">
           <rect id="button" ry="5" rx="5" y="6" x="6" height="38" width="38"
                fill="#f2f5e9" fill-opacity="0.5" stroke="#606060" stroke-width="1.0"/>
           <path id="arrow"
             d="M 11.500037,31.436501 C 11.940474,20.09759 22.043105,11.32322 32.158766,21.979434 L 37.068811,17.246167 C 37.068811,17.246167 37.088388,32 37.088388,32 L 22.160133,31.978069 C 22.160133,31.978069 26.997745,27.140456 26.997745,27.140456 C 18.528582,18.264221 13.291696,25.230495 11.500037,31.436501 z"
             style="fill:#404040;"/>
          </a>
         </g>
        </svg>
</svg>
