<?xml version="1.0" encoding="UTF-8" standalone="no"?>
<!DOCTYPE svg PUBLIC "-//W3C//DTD SVG 1.1//EN"
 "http://www.w3.org/Graphics/SVG/1.1/DTD/svg11.dtd">
<!-- Generated by graphviz version 2.38.0 (20140413.2041)
 -->
<!-- Title: Objects/interface/Run.h Pages: 1 -->
<svg width="333pt" height="86pt"
 viewBox="0.00 0.00 332.61 86.00" xmlns="http://www.w3.org/2000/svg" xmlns:xlink="http://www.w3.org/1999/xlink">
<g id="graph0" class="graph" transform="scale(1 1) rotate(0) translate(4 82)">
<title>Objects/interface/Run.h</title>
<polygon fill="white" stroke="none" points="-4,4 -4,-82 328.61,-82 328.61,4 -4,4"/>
<!-- Node1 -->
<g id="node1" class="node"><title>Node1</title>
<polygon fill="#bfbfbf" stroke="black" points="81.939,-57.5 81.939,-77.5 202.409,-77.5 202.409,-57.5 81.939,-57.5"/>
<text text-anchor="middle" x="142.174" y="-64.5" font-family="Helvetica,sans-Serif" font-size="10.00">Objects/interface/Run.h</text>
</g>
<!-- Node2 -->
<g id="node2" class="node"><title>Node2</title>
<g id="a_node2"><a xlink:href="LinkDef_8h.html" target="_top" xlink:title="obj/LinkDef.h">
<polygon fill="white" stroke="black" points="0,-0.5 0,-20.5 74.348,-20.5 74.348,-0.5 0,-0.5"/>
<text text-anchor="middle" x="37.174" y="-7.5" font-family="Helvetica,sans-Serif" font-size="10.00">obj/LinkDef.h</text>
</a>
</g>
</g>
<!-- Node1&#45;&gt;Node2 -->
<g id="edge1" class="edge"><title>Node1&#45;&gt;Node2</title>
<path fill="none" stroke="midnightblue" d="M115.725,-52.6456C96.5595,-42.6067 71.1904,-29.3181 54.5384,-20.5956"/>
<polygon fill="midnightblue" stroke="midnightblue" points="114.353,-55.8782 124.835,-57.4179 117.601,-49.6773 114.353,-55.8782"/>
</g>
<!-- Node3 -->
<g id="node3" class="node"><title>Node3</title>
<g id="a_node3"><a xlink:href="Run_8cc.html" target="_top" xlink:title="Objects/src/Run.cc">
<polygon fill="white" stroke="black" points="92.225,-0.5 92.225,-20.5 192.123,-20.5 192.123,-0.5 92.225,-0.5"/>
<text text-anchor="middle" x="142.174" y="-7.5" font-family="Helvetica,sans-Serif" font-size="10.00">Objects/src/Run.cc</text>
</a>
</g>
</g>
<!-- Node1&#45;&gt;Node3 -->
<g id="edge2" class="edge"><title>Node1&#45;&gt;Node3</title>
<path fill="none" stroke="midnightblue" d="M142.174,-47.383C142.174,-38.3738 142.174,-28.0373 142.174,-20.7795"/>
<polygon fill="midnightblue" stroke="midnightblue" points="138.674,-47.4178 142.174,-57.4179 145.674,-47.4179 138.674,-47.4178"/>
</g>
<!-- Node4 -->
<g id="node4" class="node"><title>Node4</title>
<g id="a_node4"><a xlink:href="FileMerger_8cc.html" target="_top" xlink:title="Utils/src/FileMerger.cc">
<polygon fill="white" stroke="black" points="209.738,-0.5 209.738,-20.5 324.61,-20.5 324.61,-0.5 209.738,-0.5"/>
<text text-anchor="middle" x="267.174" y="-7.5" font-family="Helvetica,sans-Serif" font-size="10.00">Utils/src/FileMerger.cc</text>
</a>
</g>
</g>
<!-- Node1&#45;&gt;Node4 -->
<g id="edge3" class="edge"><title>Node1&#45;&gt;Node4</title>
<path fill="none" stroke="midnightblue" d="M172.11,-53.328C195.092,-43.2159 226.226,-29.5172 246.502,-20.5956"/>
<polygon fill="midnightblue" stroke="midnightblue" points="170.559,-50.1868 162.815,-57.4179 173.378,-56.594 170.559,-50.1868"/>
</g>
</g>
</svg>
