<?xml version="1.0" encoding="UTF-8" standalone="no"?>
<!DOCTYPE svg PUBLIC "-//W3C//DTD SVG 1.1//EN"
 "http://www.w3.org/Graphics/SVG/1.1/DTD/svg11.dtd">
<!-- Generated by graphviz version 2.38.0 (20140413.2041)
 -->
<!-- Title: Objects/src/Run.cc Pages: 1 -->
<!--zoomable 326 -->
<svg id="main" version="1.1" xmlns="http://www.w3.org/2000/svg" xmlns:xlink="http://www.w3.org/1999/xlink" xml:space="preserve" onload="init(evt)">
<style type="text/css"><![CDATA[
.edge:hover path { stroke: red; }
.edge:hover polygon { stroke: red; fill: red; }
]]></style>
<script type="text/javascript"><![CDATA[
var edges = document.getElementsByTagName('g');
if (edges && edges.length) {
  for (var i=0;i<edges.length;i++) {
    if (edges[i].id.substr(0,4)=='edge') {
      edges[i].setAttribute('class','edge');
    }
  }
}
]]></script>
        <defs>
                <circle id="rim" cx="0" cy="0" r="7"/>
                <circle id="rim2" cx="0" cy="0" r="3.5"/>
                <g id="zoomPlus">
                        <use xlink:href="#rim" fill="#404040">
                                <set attributeName="fill" to="#808080" begin="zoomplus.mouseover" end="zoomplus.mouseout"/>
                        </use>
                        <path d="M-4,0h8M0,-4v8" fill="none" stroke="white" stroke-width="1.5" pointer-events="none"/>
                </g>
                <g id="zoomMin">
                        <use xlink:href="#rim" fill="#404040">
                                <set attributeName="fill" to="#808080" begin="zoomminus.mouseover" end="zoomminus.mouseout"/>
                        </use>
                        <path d="M-4,0h8" fill="none" stroke="white" stroke-width="1.5" pointer-events="none"/>
                </g>
                <g id="dirArrow">
                        <path fill="none" stroke="white" stroke-width="1.5" d="M0,-3.0v7 M-2.5,-0.5L0,-3.0L2.5,-0.5"/>
                </g>
               <g id="resetDef">
                       <use xlink:href="#rim2" fill="#404040">
                               <set attributeName="fill" to="#808080" begin="reset.mouseover" end="reset.mouseout"/>
                       </use>
               </g>
        </defs>

<script type="text/javascript">
var viewWidth = 586;
var viewHeight = 326;
var sectionId = 'dynsection-0';
</script>
<script xlink:href="svgpan.js"/>
<svg id="graph" class="graph">
<g id="viewport">
<title>Objects/src/Run.cc</title>
<polygon fill="white" stroke="none" points="-4,4 -4,-322 582.226,-322 582.226,4 -4,4"/>
<!-- Node1 -->
<g id="node1" class="node"><title>Node1</title>
<polygon fill="#bfbfbf" stroke="black" points="116.664,-297.5 116.664,-317.5 216.562,-317.5 216.562,-297.5 116.664,-297.5"/>
<text text-anchor="middle" x="166.613" y="-304.5" font-family="Helvetica,sans-Serif" font-size="10.00">Objects/src/Run.cc</text>
</g>
<!-- Node2 -->
<g id="node2" class="node"><title>Node2</title>
<g id="a_node2"><a xlink:href="Run_8h.html" target="_top" xlink:title="../interface/Run.h">
<polygon fill="white" stroke="black" points="120.546,-240.5 120.546,-260.5 212.68,-260.5 212.68,-240.5 120.546,-240.5"/>
<text text-anchor="middle" x="166.613" y="-247.5" font-family="Helvetica,sans-Serif" font-size="10.00">../interface/Run.h</text>
</a>
</g>
</g>
<!-- Node1&#45;&gt;Node2 -->
<g id="edge1" class="edge"><title>Node1&#45;&gt;Node2</title>
<path fill="none" stroke="midnightblue" d="M166.613,-297.418C166.613,-290.216 166.613,-279.896 166.613,-270.863"/>
<polygon fill="midnightblue" stroke="midnightblue" points="170.113,-270.779 166.613,-260.779 163.113,-270.779 170.113,-270.779"/>
</g>
<!-- Node3 -->
<g id="node3" class="node"><title>Node3</title>
<g id="a_node3"><a xlink:href="TreeEntry_8h.html" target="_top" xlink:title="../../Framework/interface\l/TreeEntry.h">
<polygon fill="white" stroke="black" points="52.7195,-171.5 52.7195,-203.5 176.506,-203.5 176.506,-171.5 52.7195,-171.5"/>
<text text-anchor="start" x="60.7195" y="-190.5" font-family="Helvetica,sans-Serif" font-size="10.00">../../Framework/interface</text>
<text text-anchor="middle" x="114.613" y="-178.5" font-family="Helvetica,sans-Serif" font-size="10.00">/TreeEntry.h</text>
</a>
</g>
</g>
<!-- Node2&#45;&gt;Node3 -->
<g id="edge2" class="edge"><title>Node2&#45;&gt;Node3</title>
<path fill="none" stroke="midnightblue" d="M158.94,-240.499C152.431,-232.863 142.803,-221.57 134.182,-211.456"/>
<polygon fill="midnightblue" stroke="midnightblue" points="136.714,-209.031 127.563,-203.691 131.387,-213.572 136.714,-209.031"/>
</g>
<!-- Node9 -->
<g id="node9" class="node"><title>Node9</title>
<g id="a_node9"><a xlink:href="Constants_8h.html" target="_top" xlink:title="Constants.h">
<polygon fill="white" stroke="black" points="228.938,-57.5 228.938,-77.5 298.288,-77.5 298.288,-57.5 228.938,-57.5"/>
<text text-anchor="middle" x="263.613" y="-64.5" font-family="Helvetica,sans-Serif" font-size="10.00">Constants.h</text>
</a>
</g>
</g>
<!-- Node2&#45;&gt;Node9 -->
<g id="edge12" class="edge"><title>Node2&#45;&gt;Node9</title>
<path fill="none" stroke="midnightblue" d="M171.557,-240.275C186.796,-211.839 233.253,-125.152 253.735,-86.932"/>
<polygon fill="midnightblue" stroke="midnightblue" points="256.924,-88.3905 258.563,-77.9231 250.754,-85.084 256.924,-88.3905"/>
</g>
<!-- Node4 -->
<g id="node4" class="node"><title>Node4</title>
<g id="a_node4"><a xlink:href="IOUtils_8h.html" target="_top" xlink:title="IOUtils.h">
<polygon fill="white" stroke="black" points="125.447,-57.5 125.447,-77.5 179.779,-77.5 179.779,-57.5 125.447,-57.5"/>
<text text-anchor="middle" x="152.613" y="-64.5" font-family="Helvetica,sans-Serif" font-size="10.00">IOUtils.h</text>
</a>
</g>
</g>
<!-- Node3&#45;&gt;Node4 -->
<g id="edge3" class="edge"><title>Node3&#45;&gt;Node4</title>
<path fill="none" stroke="midnightblue" d="M128.948,-171.136C136.937,-161.531 146.151,-148.461 150.613,-135 155.667,-119.754 155.82,-101.448 154.906,-87.9065"/>
<polygon fill="midnightblue" stroke="midnightblue" points="158.379,-87.4574 153.971,-77.8234 151.409,-88.1039 158.379,-87.4574"/>
</g>
<!-- Node6 -->
<g id="node6" class="node"><title>Node6</title>
<polygon fill="white" stroke="#bfbfbf" points="61.1115,-0.5 61.1115,-20.5 112.114,-20.5 112.114,-0.5 61.1115,-0.5"/>
<text text-anchor="middle" x="86.613" y="-7.5" font-family="Helvetica,sans-Serif" font-size="10.00">TTree.h</text>
</g>
<!-- Node3&#45;&gt;Node6 -->
<g id="edge10" class="edge"><title>Node3&#45;&gt;Node6</title>
<path fill="none" stroke="midnightblue" d="M100.13,-171.184C92.089,-161.596 82.8721,-148.527 78.613,-135 67.4214,-99.4557 75.0661,-55.3876 81.1612,-30.6598"/>
<polygon fill="midnightblue" stroke="midnightblue" points="84.6064,-31.322 83.7794,-20.7595 77.839,-29.5323 84.6064,-31.322"/>
</g>
<!-- Node7 -->
<g id="node7" class="node"><title>Node7</title>
<polygon fill="white" stroke="#bfbfbf" points="0,-0.5 0,-20.5 43.226,-20.5 43.226,-0.5 0,-0.5"/>
<text text-anchor="middle" x="21.613" y="-7.5" font-family="Helvetica,sans-Serif" font-size="10.00">vector</text>
</g>
<!-- Node3&#45;&gt;Node7 -->
<g id="edge11" class="edge"><title>Node3&#45;&gt;Node7</title>
<path fill="none" stroke="midnightblue" d="M99.2835,-171.315C90.0733,-161.572 78.6254,-148.295 70.613,-135 49.7662,-100.408 34.5143,-55.3633 26.9558,-30.3453"/>
<polygon fill="midnightblue" stroke="midnightblue" points="30.286,-29.2635 24.1124,-20.6532 23.5691,-31.2341 30.286,-29.2635"/>
</g>
<!-- Node8 -->
<g id="node8" class="node"><title>Node8</title>
<g id="a_node8"><a xlink:href="Object_8h.html" target="_top" xlink:title="Object.h">
<polygon fill="white" stroke="black" points="87.9965,-114.5 87.9965,-134.5 141.23,-134.5 141.23,-114.5 87.9965,-114.5"/>
<text text-anchor="middle" x="114.613" y="-121.5" font-family="Helvetica,sans-Serif" font-size="10.00">Object.h</text>
</a>
</g>
</g>
<!-- Node3&#45;&gt;Node8 -->
<g id="edge7" class="edge"><title>Node3&#45;&gt;Node8</title>
<path fill="none" stroke="midnightblue" d="M114.613,-171.421C114.613,-163.375 114.613,-153.386 114.613,-144.781"/>
<polygon fill="midnightblue" stroke="midnightblue" points="118.113,-144.546 114.613,-134.546 111.113,-144.546 118.113,-144.546"/>
</g>
<!-- Node5 -->
<g id="node5" class="node"><title>Node5</title>
<polygon fill="white" stroke="#bfbfbf" points="130.333,-0.5 130.333,-20.5 186.893,-20.5 186.893,-0.5 130.333,-0.5"/>
<text text-anchor="middle" x="158.613" y="-7.5" font-family="Helvetica,sans-Serif" font-size="10.00">TString.h</text>
</g>
<!-- Node4&#45;&gt;Node5 -->
<g id="edge4" class="edge"><title>Node4&#45;&gt;Node5</title>
<path fill="none" stroke="midnightblue" d="M153.604,-57.4179C154.389,-50.2164 155.515,-39.8962 156.501,-30.8632"/>
<polygon fill="midnightblue" stroke="midnightblue" points="159.995,-31.1001 157.601,-20.7795 153.037,-30.3409 159.995,-31.1001"/>
</g>
<!-- Node4&#45;&gt;Node6 -->
<g id="edge5" class="edge"><title>Node4&#45;&gt;Node6</title>
<path fill="none" stroke="midnightblue" d="M141.714,-57.4179C131.933,-49.2667 117.357,-37.1201 105.653,-27.3669"/>
<polygon fill="midnightblue" stroke="midnightblue" points="107.671,-24.4926 97.7483,-20.7795 103.19,-29.8701 107.671,-24.4926"/>
</g>
<!-- Node4&#45;&gt;Node7 -->
<g id="edge6" class="edge"><title>Node4&#45;&gt;Node7</title>
<path fill="none" stroke="midnightblue" d="M130.981,-57.4179C109.648,-48.4613 76.8251,-34.6806 52.7005,-24.552"/>
<polygon fill="midnightblue" stroke="midnightblue" points="53.8524,-21.2397 43.2771,-20.5956 51.1425,-27.6939 53.8524,-21.2397"/>
</g>
<!-- Node8&#45;&gt;Node4 -->
<g id="edge8" class="edge"><title>Node8&#45;&gt;Node4</title>
<path fill="none" stroke="midnightblue" d="M120.888,-114.418C126.192,-106.742 133.943,-95.5217 140.457,-86.0945"/>
<polygon fill="midnightblue" stroke="midnightblue" points="143.397,-87.9963 146.202,-77.7795 137.638,-84.0173 143.397,-87.9963"/>
</g>
<!-- Node8&#45;&gt;Node6 -->
<g id="edge9" class="edge"><title>Node8&#45;&gt;Node6</title>
<path fill="none" stroke="midnightblue" d="M112.322,-114.335C107.768,-96.1219 97.4972,-55.0369 91.4053,-30.6694"/>
<polygon fill="midnightblue" stroke="midnightblue" points="94.7569,-29.6446 88.936,-20.7921 87.9659,-31.3424 94.7569,-29.6446"/>
</g>
<!-- Node9&#45;&gt;Node5 -->
<g id="edge14" class="edge"><title>Node9&#45;&gt;Node5</title>
<path fill="none" stroke="midnightblue" d="M246.274,-57.4179C229.631,-48.7001 204.264,-35.4122 185.092,-25.3699"/>
<polygon fill="midnightblue" stroke="midnightblue" points="186.46,-22.1353 175.977,-20.5956 183.212,-28.3362 186.46,-22.1353"/>
</g>
<!-- Node9&#45;&gt;Node6 -->
<g id="edge13" class="edge"><title>Node9&#45;&gt;Node6</title>
<path fill="none" stroke="midnightblue" d="M234.385,-57.4179C203.508,-47.8232 154.815,-32.6926 121.839,-22.4458"/>
<polygon fill="midnightblue" stroke="midnightblue" points="122.735,-19.0592 112.147,-19.4342 120.658,-25.744 122.735,-19.0592"/>
</g>
<!-- Node10 -->
<g id="node10" class="node"><title>Node10</title>
<polygon fill="white" stroke="#bfbfbf" points="267.886,-0.5 267.886,-20.5 323.34,-20.5 323.34,-0.5 267.886,-0.5"/>
<text text-anchor="middle" x="295.613" y="-7.5" font-family="Helvetica,sans-Serif" font-size="10.00">Rtypes.h</text>
</g>
<!-- Node9&#45;&gt;Node10 -->
<g id="edge15" class="edge"><title>Node9&#45;&gt;Node10</title>
<path fill="none" stroke="midnightblue" d="M268.897,-57.4179C273.271,-49.8998 279.623,-38.9829 285.036,-29.6799"/>
<polygon fill="midnightblue" stroke="midnightblue" points="288.21,-31.1831 290.214,-20.7795 282.16,-27.6628 288.21,-31.1831"/>
</g>
<!-- Node11 -->
<g id="node11" class="node"><title>Node11</title>
<polygon fill="white" stroke="#bfbfbf" points="341.27,-0.5 341.27,-20.5 433.956,-20.5 433.956,-0.5 341.27,-0.5"/>
<text text-anchor="middle" x="387.613" y="-7.5" font-family="Helvetica,sans-Serif" font-size="10.00">TLorentzVector.h</text>
</g>
<!-- Node9&#45;&gt;Node11 -->
<g id="edge16" class="edge"><title>Node9&#45;&gt;Node11</title>
<path fill="none" stroke="midnightblue" d="M284.089,-57.4179C304.192,-48.5011 335.075,-34.803 357.882,-24.6873"/>
<polygon fill="midnightblue" stroke="midnightblue" points="359.384,-27.8496 367.107,-20.5956 356.546,-21.4508 359.384,-27.8496"/>
</g>
<!-- Node12 -->
<g id="node12" class="node"><title>Node12</title>
<polygon fill="white" stroke="#bfbfbf" points="452.163,-0.5 452.163,-20.5 517.063,-20.5 517.063,-0.5 452.163,-0.5"/>
<text text-anchor="middle" x="484.613" y="-7.5" font-family="Helvetica,sans-Serif" font-size="10.00">TVector2.h</text>
</g>
<!-- Node9&#45;&gt;Node12 -->
<g id="edge17" class="edge"><title>Node9&#45;&gt;Node12</title>
<path fill="none" stroke="midnightblue" d="M298.631,-57.7851C337.535,-48.103 400.351,-32.4701 442.059,-22.0903"/>
<polygon fill="midnightblue" stroke="midnightblue" points="443.061,-25.4477 451.92,-19.6362 441.371,-18.6549 443.061,-25.4477"/>
</g>
<!-- Node13 -->
<g id="node13" class="node"><title>Node13</title>
<polygon fill="white" stroke="#bfbfbf" points="535,-0.5 535,-20.5 578.226,-20.5 578.226,-0.5 535,-0.5"/>
<text text-anchor="middle" x="556.613" y="-7.5" font-family="Helvetica,sans-Serif" font-size="10.00">cmath</text>
</g>
<!-- Node9&#45;&gt;Node13 -->
<g id="edge18" class="edge"><title>Node9&#45;&gt;Node13</title>
<path fill="none" stroke="midnightblue" d="M298.649,-61.8421C347.295,-55.0651 438.172,-41.2867 524.708,-20.9684"/>
<polygon fill="midnightblue" stroke="midnightblue" points="525.774,-24.3124 534.691,-18.5901 524.152,-17.5029 525.774,-24.3124"/>
</g>
<!-- Node14 -->
<g id="node14" class="node"><title>Node14</title>
<polygon fill="white" stroke="#bfbfbf" points="204.891,-0.5 204.891,-20.5 250.335,-20.5 250.335,-0.5 204.891,-0.5"/>
<text text-anchor="middle" x="227.613" y="-7.5" font-family="Helvetica,sans-Serif" font-size="10.00">cstring</text>
</g>
<!-- Node9&#45;&gt;Node14 -->
<g id="edge19" class="edge"><title>Node9&#45;&gt;Node14</title>
<path fill="none" stroke="midnightblue" d="M257.668,-57.4179C252.696,-49.8207 245.451,-38.7527 239.321,-29.3866"/>
<polygon fill="midnightblue" stroke="midnightblue" points="242.092,-27.2297 233.687,-20.7795 236.235,-31.0633 242.092,-27.2297"/>
</g>
</g>
</svg>
        <g id="navigator" transform="translate(0 0)" fill="#404254">
                <rect fill="#f2f5e9" fill-opacity="0.5" stroke="#606060" stroke-width=".5" x="0" y="0" width="60" height="60"/>
                <use id="zoomplus" xlink:href="#zoomPlus" x="17" y="9" onmousedown="handleZoom(evt,'in')"/>
                <use id="zoomminus" xlink:href="#zoomMin" x="42" y="9" onmousedown="handleZoom(evt,'out')"/>
                <use id="reset" xlink:href="#resetDef" x="30" y="36" onmousedown="handleReset()"/>
                <g id="arrowUp" xlink:href="#dirArrow" transform="translate(30 24)" onmousedown="handlePan(0,-1)">
                  <use xlink:href="#rim" fill="#404040">
                        <set attributeName="fill" to="#808080" begin="arrowUp.mouseover" end="arrowUp.mouseout"/>
                  </use>
                  <path fill="none" stroke="white" stroke-width="1.5" d="M0,-3.0v7 M-2.5,-0.5L0,-3.0L2.5,-0.5"/>
                </g>
                <g id="arrowRight" xlink:href="#dirArrow" transform="rotate(90) translate(36 -43)" onmousedown="handlePan(1,0)">
                  <use xlink:href="#rim" fill="#404040">
                        <set attributeName="fill" to="#808080" begin="arrowRight.mouseover" end="arrowRight.mouseout"/>
                  </use>
                  <path fill="none" stroke="white" stroke-width="1.5" d="M0,-3.0v7 M-2.5,-0.5L0,-3.0L2.5,-0.5"/>
                </g>
                <g id="arrowDown" xlink:href="#dirArrow" transform="rotate(180) translate(-30 -48)" onmousedown="handlePan(0,1)">
                  <use xlink:href="#rim" fill="#404040">
                        <set attributeName="fill" to="#808080" begin="arrowDown.mouseover" end="arrowDown.mouseout"/>
                  </use>
                  <path fill="none" stroke="white" stroke-width="1.5" d="M0,-3.0v7 M-2.5,-0.5L0,-3.0L2.5,-0.5"/>
                </g>
                <g id="arrowLeft" xlink:href="#dirArrow" transform="rotate(270) translate(-36 17)" onmousedown="handlePan(-1,0)">
                  <use xlink:href="#rim" fill="#404040">
                        <set attributeName="fill" to="#808080" begin="arrowLeft.mouseover" end="arrowLeft.mouseout"/>
                  </use>
                  <path fill="none" stroke="white" stroke-width="1.5" d="M0,-3.0v7 M-2.5,-0.5L0,-3.0L2.5,-0.5"/>
                </g>
        </g>
        <svg viewBox="0 0 15 15" width="100%" height="30px" preserveAspectRatio="xMaxYMin meet">
         <g id="arrow_out" transform="scale(0.3 0.3)">
          <a xlink:href="Run_8cc__incl_org.svg" target="_base">
           <rect id="button" ry="5" rx="5" y="6" x="6" height="38" width="38"
                fill="#f2f5e9" fill-opacity="0.5" stroke="#606060" stroke-width="1.0"/>
           <path id="arrow"
             d="M 11.500037,31.436501 C 11.940474,20.09759 22.043105,11.32322 32.158766,21.979434 L 37.068811,17.246167 C 37.068811,17.246167 37.088388,32 37.088388,32 L 22.160133,31.978069 C 22.160133,31.978069 26.997745,27.140456 26.997745,27.140456 C 18.528582,18.264221 13.291696,25.230495 11.500037,31.436501 z"
             style="fill:#404040;"/>
          </a>
         </g>
        </svg>
</svg>
