<?xml version="1.0" encoding="UTF-8" standalone="no"?>
<!DOCTYPE svg PUBLIC "-//W3C//DTD SVG 1.1//EN"
 "http://www.w3.org/Graphics/SVG/1.1/DTD/svg11.dtd">
<!-- Generated by graphviz version 2.38.0 (20140413.2041)
 -->
<!-- Title: Framework/interface/Singlet.h Pages: 1 -->
<svg width="1092pt" height="269pt"
 viewBox="0.00 0.00 1092.39 269.00" xmlns="http://www.w3.org/2000/svg" xmlns:xlink="http://www.w3.org/1999/xlink">
<g id="graph0" class="graph" transform="scale(1 1) rotate(0) translate(4 265)">
<title>Framework/interface/Singlet.h</title>
<polygon fill="white" stroke="none" points="-4,4 -4,-265 1088.39,-265 1088.39,4 -4,4"/>
<!-- Node1 -->
<g id="node1" class="node"><title>Node1</title>
<polygon fill="#bfbfbf" stroke="black" points="511.164,-228.5 511.164,-260.5 618.278,-260.5 618.278,-228.5 511.164,-228.5"/>
<text text-anchor="start" x="519.164" y="-247.5" font-family="Helvetica,sans-Serif" font-size="10.00">Framework/interface</text>
<text text-anchor="middle" x="564.721" y="-235.5" font-family="Helvetica,sans-Serif" font-size="10.00">/Singlet.h</text>
</g>
<!-- Node2 -->
<g id="node2" class="node"><title>Node2</title>
<g id="a_node2"><a xlink:href="Met_8h.html" target="_top" xlink:title="Objects/interface/Met.h">
<polygon fill="white" stroke="black" points="347.321,-171.5 347.321,-191.5 466.121,-191.5 466.121,-171.5 347.321,-171.5"/>
<text text-anchor="middle" x="406.721" y="-178.5" font-family="Helvetica,sans-Serif" font-size="10.00">Objects/interface/Met.h</text>
</a>
</g>
</g>
<!-- Node1&#45;&gt;Node2 -->
<g id="edge1" class="edge"><title>Node1&#45;&gt;Node2</title>
<path fill="none" stroke="midnightblue" d="M516.237,-224.781C487.645,-213.743 452.752,-200.271 430.151,-191.546"/>
<polygon fill="midnightblue" stroke="midnightblue" points="515.075,-228.085 525.665,-228.421 517.597,-221.555 515.075,-228.085"/>
</g>
<!-- Node10 -->
<g id="node10" class="node"><title>Node10</title>
<g id="a_node10"><a xlink:href="MetFilters_8h.html" target="_top" xlink:title="Objects/interface/MetFilters.h">
<polygon fill="white" stroke="black" points="17.714,-114.5 17.714,-134.5 163.728,-134.5 163.728,-114.5 17.714,-114.5"/>
<text text-anchor="middle" x="90.721" y="-121.5" font-family="Helvetica,sans-Serif" font-size="10.00">Objects/interface/MetFilters.h</text>
</a>
</g>
</g>
<!-- Node1&#45;&gt;Node10 -->
<g id="edge12" class="edge"><title>Node1&#45;&gt;Node10</title>
<path fill="none" stroke="midnightblue" d="M501.168,-229.693C455.795,-219.672 393.372,-205.549 338.721,-192 261.057,-172.746 170.378,-147.798 123.117,-134.608"/>
<polygon fill="midnightblue" stroke="midnightblue" points="500.641,-233.161 511.16,-231.895 502.147,-226.325 500.641,-233.161"/>
</g>
<!-- Node12 -->
<g id="node12" class="node"><title>Node12</title>
<g id="a_node12"><a xlink:href="HLTBits_8h.html" target="_top" xlink:title="Objects/interface/HLTBits.h">
<polygon fill="white" stroke="black" points="495.877,-114.5 495.877,-134.5 633.564,-134.5 633.564,-114.5 495.877,-114.5"/>
<text text-anchor="middle" x="564.721" y="-121.5" font-family="Helvetica,sans-Serif" font-size="10.00">Objects/interface/HLTBits.h</text>
</a>
</g>
</g>
<!-- Node1&#45;&gt;Node12 -->
<g id="edge16" class="edge"><title>Node1&#45;&gt;Node12</title>
<path fill="none" stroke="midnightblue" d="M564.721,-217.756C564.721,-191.599 564.721,-152.492 564.721,-134.793"/>
<polygon fill="midnightblue" stroke="midnightblue" points="561.221,-218.074 564.721,-228.074 568.221,-218.074 561.221,-218.074"/>
</g>
<!-- Node14 -->
<g id="node14" class="node"><title>Node14</title>
<g id="a_node14"><a xlink:href="GenReweight_8h.html" target="_top" xlink:title="Objects/interface/GenReweight.h">
<polygon fill="white" stroke="black" points="689.37,-114.5 689.37,-134.5 852.072,-134.5 852.072,-114.5 689.37,-114.5"/>
<text text-anchor="middle" x="770.721" y="-121.5" font-family="Helvetica,sans-Serif" font-size="10.00">Objects/interface/GenReweight.h</text>
</a>
</g>
</g>
<!-- Node1&#45;&gt;Node14 -->
<g id="edge20" class="edge"><title>Node1&#45;&gt;Node14</title>
<path fill="none" stroke="midnightblue" d="M600.129,-223.218C645.46,-197.252 722.065,-153.371 754.952,-134.533"/>
<polygon fill="midnightblue" stroke="midnightblue" points="598.168,-220.308 591.23,-228.315 601.647,-226.382 598.168,-220.308"/>
</g>
<!-- Node16 -->
<g id="node16" class="node"><title>Node16</title>
<g id="a_node16"><a xlink:href="Recoil_8h.html" target="_top" xlink:title="Objects/interface/Recoil.h">
<polygon fill="white" stroke="black" points="877.767,-114.5 877.767,-134.5 1007.67,-134.5 1007.67,-114.5 877.767,-114.5"/>
<text text-anchor="middle" x="942.721" y="-121.5" font-family="Helvetica,sans-Serif" font-size="10.00">Objects/interface/Recoil.h</text>
</a>
</g>
</g>
<!-- Node1&#45;&gt;Node16 -->
<g id="edge24" class="edge"><title>Node1&#45;&gt;Node16</title>
<path fill="none" stroke="midnightblue" d="M622.65,-225.416C704.676,-199.81 851.593,-153.947 913.717,-134.554"/>
<polygon fill="midnightblue" stroke="midnightblue" points="621.482,-222.114 612.979,-228.435 623.568,-228.796 621.482,-222.114"/>
</g>
<!-- Node3 -->
<g id="node3" class="node"><title>Node3</title>
<g id="a_node3"><a xlink:href="LinkDef_8h.html" target="_top" xlink:title="obj/LinkDef.h">
<polygon fill="white" stroke="black" points="392.547,-0.5 392.547,-20.5 466.895,-20.5 466.895,-0.5 392.547,-0.5"/>
<text text-anchor="middle" x="429.721" y="-7.5" font-family="Helvetica,sans-Serif" font-size="10.00">obj/LinkDef.h</text>
</a>
</g>
</g>
<!-- Node2&#45;&gt;Node3 -->
<g id="edge2" class="edge"><title>Node2&#45;&gt;Node3</title>
<path fill="none" stroke="midnightblue" d="M337.025,-173.441C287.271,-166.795 226.476,-154.831 210.721,-135 204.915,-127.692 209.012,-123.175 210.721,-114 215.694,-87.3045 212.212,-74.7973 232.721,-57 256.25,-36.5824 341.858,-22.6042 392.148,-15.9516"/>
<polygon fill="midnightblue" stroke="midnightblue" points="336.768,-176.937 347.133,-174.74 337.66,-169.994 336.768,-176.937"/>
</g>
<!-- Node4 -->
<g id="node4" class="node"><title>Node4</title>
<g id="a_node4"><a xlink:href="RecoMet_8h.html" target="_top" xlink:title="Objects/interface/RecoMet.h">
<polygon fill="white" stroke="black" points="335.653,-114.5 335.653,-134.5 477.789,-134.5 477.789,-114.5 335.653,-114.5"/>
<text text-anchor="middle" x="406.721" y="-121.5" font-family="Helvetica,sans-Serif" font-size="10.00">Objects/interface/RecoMet.h</text>
</a>
</g>
</g>
<!-- Node2&#45;&gt;Node4 -->
<g id="edge3" class="edge"><title>Node2&#45;&gt;Node4</title>
<path fill="none" stroke="midnightblue" d="M406.721,-161.383C406.721,-152.374 406.721,-142.037 406.721,-134.779"/>
<polygon fill="midnightblue" stroke="midnightblue" points="403.221,-161.418 406.721,-171.418 410.221,-161.418 403.221,-161.418"/>
</g>
<!-- Node5 -->
<g id="node5" class="node"><title>Node5</title>
<g id="a_node5"><a xlink:href="Event_8h.html" target="_top" xlink:title="Objects/interface/Event.h">
<polygon fill="white" stroke="black" points="592.871,-57.5 592.871,-77.5 720.571,-77.5 720.571,-57.5 592.871,-57.5"/>
<text text-anchor="middle" x="656.721" y="-64.5" font-family="Helvetica,sans-Serif" font-size="10.00">Objects/interface/Event.h</text>
</a>
</g>
</g>
<!-- Node2&#45;&gt;Node5 -->
<g id="edge10" class="edge"><title>Node2&#45;&gt;Node5</title>
<path fill="none" stroke="midnightblue" d="M476.2,-175.521C537.138,-169.695 619.538,-157.792 642.721,-135 658.202,-119.781 658.661,-92.0853 657.695,-77.7103"/>
<polygon fill="midnightblue" stroke="midnightblue" points="475.874,-172.036 466.237,-176.438 476.516,-179.007 475.874,-172.036"/>
</g>
<!-- Node9 -->
<g id="node9" class="node"><title>Node9</title>
<g id="a_node9"><a xlink:href="Met_8cc.html" target="_top" xlink:title="Objects/src/Met.cc">
<polygon fill="white" stroke="black" points="219.607,-114.5 219.607,-134.5 317.835,-134.5 317.835,-114.5 219.607,-114.5"/>
<text text-anchor="middle" x="268.721" y="-121.5" font-family="Helvetica,sans-Serif" font-size="10.00">Objects/src/Met.cc</text>
</a>
</g>
</g>
<!-- Node2&#45;&gt;Node9 -->
<g id="edge11" class="edge"><title>Node2&#45;&gt;Node9</title>
<path fill="none" stroke="midnightblue" d="M374.349,-167.598C348.914,-157.461 314.128,-143.597 291.543,-134.596"/>
<polygon fill="midnightblue" stroke="midnightblue" points="373.348,-170.967 383.933,-171.418 375.94,-164.464 373.348,-170.967"/>
</g>
<!-- Node4&#45;&gt;Node3 -->
<g id="edge4" class="edge"><title>Node4&#45;&gt;Node3</title>
<path fill="none" stroke="midnightblue" d="M408.504,-104.052C409.933,-90.7135 412.275,-72.6648 415.721,-57 418.526,-44.2465 423.202,-29.9037 426.37,-20.7915"/>
<polygon fill="midnightblue" stroke="midnightblue" points="404.983,-104.085 407.478,-114.382 411.949,-104.777 404.983,-104.085"/>
</g>
<!-- Node4&#45;&gt;Node5 -->
<g id="edge5" class="edge"><title>Node4&#45;&gt;Node5</title>
<path fill="none" stroke="midnightblue" d="M457.625,-112.301C504.269,-102.039 572.454,-87.0387 615.696,-77.5255"/>
<polygon fill="midnightblue" stroke="midnightblue" points="456.738,-108.913 447.723,-114.479 458.242,-115.749 456.738,-108.913"/>
</g>
<!-- Node8 -->
<g id="node8" class="node"><title>Node8</title>
<g id="a_node8"><a xlink:href="RecoMet_8cc.html" target="_top" xlink:title="Objects/src/RecoMet.cc">
<polygon fill="white" stroke="black" points="241.939,-57.5 241.939,-77.5 363.504,-77.5 363.504,-57.5 241.939,-57.5"/>
<text text-anchor="middle" x="302.721" y="-64.5" font-family="Helvetica,sans-Serif" font-size="10.00">Objects/src/RecoMet.cc</text>
</a>
</g>
</g>
<!-- Node4&#45;&gt;Node8 -->
<g id="edge9" class="edge"><title>Node4&#45;&gt;Node8</title>
<path fill="none" stroke="midnightblue" d="M380.524,-109.646C361.541,-99.6067 336.413,-86.3181 319.92,-77.5956"/>
<polygon fill="midnightblue" stroke="midnightblue" points="379.071,-112.837 389.548,-114.418 382.344,-106.649 379.071,-112.837"/>
</g>
<!-- Node5&#45;&gt;Node3 -->
<g id="edge6" class="edge"><title>Node5&#45;&gt;Node3</title>
<path fill="none" stroke="midnightblue" d="M609.699,-55.107C567.369,-44.8509 505.988,-29.9789 466.972,-20.5255"/>
<polygon fill="midnightblue" stroke="midnightblue" points="608.948,-58.5262 619.491,-57.4795 610.596,-51.723 608.948,-58.5262"/>
</g>
<!-- Node6 -->
<g id="node6" class="node"><title>Node6</title>
<g id="a_node6"><a xlink:href="Event_8cc.html" target="_top" xlink:title="Objects/src/Event.cc">
<polygon fill="white" stroke="black" points="544.158,-0.5 544.158,-20.5 651.284,-20.5 651.284,-0.5 544.158,-0.5"/>
<text text-anchor="middle" x="597.721" y="-7.5" font-family="Helvetica,sans-Serif" font-size="10.00">Objects/src/Event.cc</text>
</a>
</g>
</g>
<!-- Node5&#45;&gt;Node6 -->
<g id="edge7" class="edge"><title>Node5&#45;&gt;Node6</title>
<path fill="none" stroke="midnightblue" d="M639.648,-50.5841C629.278,-40.9177 616.402,-28.9147 607.675,-20.7795"/>
<polygon fill="midnightblue" stroke="midnightblue" points="637.277,-53.1592 646.978,-57.4179 642.05,-48.0389 637.277,-53.1592"/>
</g>
<!-- Node7 -->
<g id="node7" class="node"><title>Node7</title>
<g id="a_node7"><a xlink:href="FileMerger_8cc.html" target="_top" xlink:title="Utils/src/FileMerger.cc">
<polygon fill="white" stroke="black" points="669.285,-0.5 669.285,-20.5 784.157,-20.5 784.157,-0.5 669.285,-0.5"/>
<text text-anchor="middle" x="726.721" y="-7.5" font-family="Helvetica,sans-Serif" font-size="10.00">Utils/src/FileMerger.cc</text>
</a>
</g>
</g>
<!-- Node5&#45;&gt;Node7 -->
<g id="edge8" class="edge"><title>Node5&#45;&gt;Node7</title>
<path fill="none" stroke="midnightblue" d="M676.257,-51.15C688.679,-41.3899 704.354,-29.0742 714.911,-20.7795"/>
<polygon fill="midnightblue" stroke="midnightblue" points="673.981,-48.4875 668.28,-57.4179 678.306,-53.9917 673.981,-48.4875"/>
</g>
<!-- Node10&#45;&gt;Node3 -->
<g id="edge13" class="edge"><title>Node10&#45;&gt;Node3</title>
<path fill="none" stroke="midnightblue" d="M107.538,-106.671C123.985,-91.244 150.469,-69.0275 177.721,-57 249.304,-25.4071 341.57,-15.7486 392.245,-12.7973"/>
<polygon fill="midnightblue" stroke="midnightblue" points="104.674,-104.571 99.9012,-114.03 109.531,-109.611 104.674,-104.571"/>
</g>
<!-- Node10&#45;&gt;Node5 -->
<g id="edge14" class="edge"><title>Node10&#45;&gt;Node5</title>
<path fill="none" stroke="midnightblue" d="M174.218,-116.818C272.526,-108.717 440.675,-94.1304 584.721,-78 587.352,-77.7053 590.036,-77.3951 592.747,-77.0738"/>
<polygon fill="midnightblue" stroke="midnightblue" points="173.728,-113.346 164.048,-117.653 174.301,-120.323 173.728,-113.346"/>
</g>
<!-- Node11 -->
<g id="node11" class="node"><title>Node11</title>
<g id="a_node11"><a xlink:href="MetFilters_8cc.html" target="_top" xlink:title="Objects/src/MetFilters.cc">
<polygon fill="white" stroke="black" points="1.42109e-14,-57.5 1.42109e-14,-77.5 125.442,-77.5 125.442,-57.5 1.42109e-14,-57.5"/>
<text text-anchor="middle" x="62.721" y="-64.5" font-family="Helvetica,sans-Serif" font-size="10.00">Objects/src/MetFilters.cc</text>
</a>
</g>
</g>
<!-- Node10&#45;&gt;Node11 -->
<g id="edge15" class="edge"><title>Node10&#45;&gt;Node11</title>
<path fill="none" stroke="midnightblue" d="M81.4401,-105.27C76.7509,-96.0587 71.2618,-85.2766 67.4451,-77.7795"/>
<polygon fill="midnightblue" stroke="midnightblue" points="78.4414,-107.094 86.0974,-114.418 84.6796,-103.918 78.4414,-107.094"/>
</g>
<!-- Node12&#45;&gt;Node3 -->
<g id="edge17" class="edge"><title>Node12&#45;&gt;Node3</title>
<path fill="none" stroke="midnightblue" d="M504.788,-111.437C484.561,-104.658 463.412,-94.1657 448.721,-78 434.024,-61.8277 430.621,-35.0391 429.882,-20.9033"/>
<polygon fill="midnightblue" stroke="midnightblue" points="504.024,-114.864 514.611,-114.475 506.092,-108.176 504.024,-114.864"/>
</g>
<!-- Node12&#45;&gt;Node5 -->
<g id="edge18" class="edge"><title>Node12&#45;&gt;Node5</title>
<path fill="none" stroke="midnightblue" d="M588.589,-109.231C605.296,-99.2435 627.116,-86.1986 641.507,-77.5956"/>
<polygon fill="midnightblue" stroke="midnightblue" points="586.7,-106.282 579.913,-114.418 590.292,-112.291 586.7,-106.282"/>
</g>
<!-- Node13 -->
<g id="node13" class="node"><title>Node13</title>
<g id="a_node13"><a xlink:href="HLTBits_8cc.html" target="_top" xlink:title="Objects/src/HLTBits.cc">
<polygon fill="white" stroke="black" points="458.163,-57.5 458.163,-77.5 575.279,-77.5 575.279,-57.5 458.163,-57.5"/>
<text text-anchor="middle" x="516.721" y="-64.5" font-family="Helvetica,sans-Serif" font-size="10.00">Objects/src/HLTBits.cc</text>
</a>
</g>
</g>
<!-- Node12&#45;&gt;Node13 -->
<g id="edge19" class="edge"><title>Node12&#45;&gt;Node13</title>
<path fill="none" stroke="midnightblue" d="M550.081,-106.725C541.781,-97.215 531.71,-85.6754 524.819,-77.7795"/>
<polygon fill="midnightblue" stroke="midnightblue" points="547.582,-109.185 556.795,-114.418 552.856,-104.582 547.582,-109.185"/>
</g>
<!-- Node14&#45;&gt;Node3 -->
<g id="edge21" class="edge"><title>Node14&#45;&gt;Node3</title>
<path fill="none" stroke="midnightblue" d="M764.323,-104.856C758.016,-89.4402 746.816,-68.3085 729.721,-57 708.11,-42.7044 542.515,-23.5069 467.02,-15.3864"/>
<polygon fill="midnightblue" stroke="midnightblue" points="761.125,-106.296 767.92,-114.425 767.678,-103.833 761.125,-106.296"/>
</g>
<!-- Node14&#45;&gt;Node5 -->
<g id="edge22" class="edge"><title>Node14&#45;&gt;Node5</title>
<path fill="none" stroke="midnightblue" d="M742.856,-110.056C721.953,-99.9716 693.901,-86.4376 675.574,-77.5956"/>
<polygon fill="midnightblue" stroke="midnightblue" points="741.369,-113.225 751.896,-114.418 744.41,-106.92 741.369,-113.225"/>
</g>
<!-- Node15 -->
<g id="node15" class="node"><title>Node15</title>
<g id="a_node15"><a xlink:href="GenReweight_8cc.html" target="_top" xlink:title="Objects/src/GenReweight.cc">
<polygon fill="white" stroke="black" points="776.656,-57.5 776.656,-77.5 918.786,-77.5 918.786,-57.5 776.656,-57.5"/>
<text text-anchor="middle" x="847.721" y="-64.5" font-family="Helvetica,sans-Serif" font-size="10.00">Objects/src/GenReweight.cc</text>
</a>
</g>
</g>
<!-- Node14&#45;&gt;Node15 -->
<g id="edge23" class="edge"><title>Node14&#45;&gt;Node15</title>
<path fill="none" stroke="midnightblue" d="M791.872,-108.392C805.69,-98.5222 823.278,-85.9596 834.987,-77.5956"/>
<polygon fill="midnightblue" stroke="midnightblue" points="789.539,-105.757 783.436,-114.418 793.608,-111.454 789.539,-105.757"/>
</g>
<!-- Node16&#45;&gt;Node3 -->
<g id="edge25" class="edge"><title>Node16&#45;&gt;Node3</title>
<path fill="none" stroke="midnightblue" d="M943.991,-103.722C943.789,-88.593 940.767,-68.4429 927.721,-57 927.178,-56.5237 582.785,-25.3414 467.106,-14.8796"/>
<polygon fill="midnightblue" stroke="midnightblue" points="940.482,-103.996 943.714,-114.086 947.48,-104.183 940.482,-103.996"/>
</g>
<!-- Node16&#45;&gt;Node5 -->
<g id="edge26" class="edge"><title>Node16&#45;&gt;Node5</title>
<path fill="none" stroke="midnightblue" d="M885.824,-112.558C832.436,-102.291 753.537,-87.1185 703.653,-77.5255"/>
<polygon fill="midnightblue" stroke="midnightblue" points="885.333,-116.028 895.814,-114.479 886.655,-109.154 885.333,-116.028"/>
</g>
<!-- Node17 -->
<g id="node17" class="node"><title>Node17</title>
<g id="a_node17"><a xlink:href="Recoil_8cc.html" target="_top" xlink:title="Objects/src/Recoil.cc">
<polygon fill="white" stroke="black" points="975.053,-57.5 975.053,-77.5 1084.39,-77.5 1084.39,-57.5 975.053,-57.5"/>
<text text-anchor="middle" x="1029.72" y="-64.5" font-family="Helvetica,sans-Serif" font-size="10.00">Objects/src/Recoil.cc</text>
</a>
</g>
</g>
<!-- Node16&#45;&gt;Node17 -->
<g id="edge27" class="edge"><title>Node16&#45;&gt;Node17</title>
<path fill="none" stroke="midnightblue" d="M965.732,-108.953C981.472,-99.0023 1001.85,-86.1189 1015.33,-77.5956"/>
<polygon fill="midnightblue" stroke="midnightblue" points="963.67,-106.116 957.087,-114.418 967.41,-112.033 963.67,-106.116"/>
</g>
</g>
</svg>
