<?xml version="1.0" encoding="UTF-8" standalone="no"?>
<!DOCTYPE svg PUBLIC "-//W3C//DTD SVG 1.1//EN"
 "http://www.w3.org/Graphics/SVG/1.1/DTD/svg11.dtd">
<!-- Generated by graphviz version 2.38.0 (20140413.2041)
 -->
<!-- Title: Framework/interface/Singlet.h Pages: 1 -->
<svg width="195pt" height="212pt"
 viewBox="0.00 0.00 194.78 212.00" xmlns="http://www.w3.org/2000/svg" xmlns:xlink="http://www.w3.org/1999/xlink">
<g id="graph0" class="graph" transform="scale(1 1) rotate(0) translate(4 208)">
<title>Framework/interface/Singlet.h</title>
<polygon fill="white" stroke="none" points="-4,4 -4,-208 190.782,-208 190.782,4 -4,4"/>
<!-- Node1 -->
<g id="node1" class="node"><title>Node1</title>
<polygon fill="#bfbfbf" stroke="black" points="66.945,-171.5 66.945,-203.5 174.058,-203.5 174.058,-171.5 66.945,-171.5"/>
<text text-anchor="start" x="74.945" y="-190.5" font-family="Helvetica,sans-Serif" font-size="10.00">Framework/interface</text>
<text text-anchor="middle" x="120.501" y="-178.5" font-family="Helvetica,sans-Serif" font-size="10.00">/Singlet.h</text>
</g>
<!-- Node2 -->
<g id="node2" class="node"><title>Node2</title>
<g id="a_node2"><a xlink:href="Object_8h.html" target="_top" xlink:title="Object.h">
<polygon fill="white" stroke="black" points="63.885,-114.5 63.885,-134.5 117.118,-134.5 117.118,-114.5 63.885,-114.5"/>
<text text-anchor="middle" x="90.5015" y="-121.5" font-family="Helvetica,sans-Serif" font-size="10.00">Object.h</text>
</a>
</g>
</g>
<!-- Node1&#45;&gt;Node2 -->
<g id="edge1" class="edge"><title>Node1&#45;&gt;Node2</title>
<path fill="none" stroke="midnightblue" d="M113.086,-171.421C108.951,-163.013 103.772,-152.484 99.4174,-143.629"/>
<polygon fill="midnightblue" stroke="midnightblue" points="102.504,-141.975 94.9503,-134.546 96.2228,-145.064 102.504,-141.975"/>
</g>
<!-- Node4 -->
<g id="node4" class="node"><title>Node4</title>
<polygon fill="white" stroke="#bfbfbf" points="130.221,-0.5 130.221,-20.5 186.782,-20.5 186.782,-0.5 130.221,-0.5"/>
<text text-anchor="middle" x="158.501" y="-7.5" font-family="Helvetica,sans-Serif" font-size="10.00">TString.h</text>
</g>
<!-- Node1&#45;&gt;Node4 -->
<g id="edge7" class="edge"><title>Node1&#45;&gt;Node4</title>
<path fill="none" stroke="midnightblue" d="M123.807,-171.276C130.748,-139.311 146.823,-65.2824 154.404,-30.369"/>
<polygon fill="midnightblue" stroke="midnightblue" points="157.843,-31.0258 156.545,-20.5108 151.003,-29.5403 157.843,-31.0258"/>
</g>
<!-- Node3 -->
<g id="node3" class="node"><title>Node3</title>
<g id="a_node3"><a xlink:href="IOUtils_8h.html" target="_top" xlink:title="IOUtils.h">
<polygon fill="white" stroke="black" points="63.3355,-57.5 63.3355,-77.5 117.667,-77.5 117.667,-57.5 63.3355,-57.5"/>
<text text-anchor="middle" x="90.5015" y="-64.5" font-family="Helvetica,sans-Serif" font-size="10.00">IOUtils.h</text>
</a>
</g>
</g>
<!-- Node2&#45;&gt;Node3 -->
<g id="edge2" class="edge"><title>Node2&#45;&gt;Node3</title>
<path fill="none" stroke="midnightblue" d="M90.5015,-114.418C90.5015,-107.216 90.5015,-96.8962 90.5015,-87.8632"/>
<polygon fill="midnightblue" stroke="midnightblue" points="94.0016,-87.7794 90.5015,-77.7795 87.0016,-87.7795 94.0016,-87.7794"/>
</g>
<!-- Node5 -->
<g id="node5" class="node"><title>Node5</title>
<polygon fill="white" stroke="#bfbfbf" points="-3.55271e-15,-0.5 -3.55271e-15,-20.5 51.003,-20.5 51.003,-0.5 -3.55271e-15,-0.5"/>
<text text-anchor="middle" x="25.5015" y="-7.5" font-family="Helvetica,sans-Serif" font-size="10.00">TTree.h</text>
</g>
<!-- Node2&#45;&gt;Node5 -->
<g id="edge6" class="edge"><title>Node2&#45;&gt;Node5</title>
<path fill="none" stroke="midnightblue" d="M82.0136,-114.264C74.1844,-105.423 62.5844,-91.4753 54.5015,-78 45.4018,-62.8295 37.5578,-44.2882 32.3307,-30.6413"/>
<polygon fill="midnightblue" stroke="midnightblue" points="35.48,-29.0668 28.7258,-20.904 28.9155,-31.4971 35.48,-29.0668"/>
</g>
<!-- Node3&#45;&gt;Node4 -->
<g id="edge3" class="edge"><title>Node3&#45;&gt;Node4</title>
<path fill="none" stroke="midnightblue" d="M101.73,-57.4179C111.906,-49.1876 127.118,-36.8839 139.235,-27.0836"/>
<polygon fill="midnightblue" stroke="midnightblue" points="141.455,-29.7895 147.029,-20.7795 137.053,-24.3469 141.455,-29.7895"/>
</g>
<!-- Node3&#45;&gt;Node5 -->
<g id="edge4" class="edge"><title>Node3&#45;&gt;Node5</title>
<path fill="none" stroke="midnightblue" d="M79.7681,-57.4179C70.1349,-49.2667 55.7798,-37.1201 44.2533,-27.3669"/>
<polygon fill="midnightblue" stroke="midnightblue" points="46.3628,-24.5671 36.4681,-20.7795 41.8412,-29.9108 46.3628,-24.5671"/>
</g>
<!-- Node6 -->
<g id="node6" class="node"><title>Node6</title>
<polygon fill="white" stroke="#bfbfbf" points="68.8885,-0.5 68.8885,-20.5 112.114,-20.5 112.114,-0.5 68.8885,-0.5"/>
<text text-anchor="middle" x="90.5015" y="-7.5" font-family="Helvetica,sans-Serif" font-size="10.00">vector</text>
</g>
<!-- Node3&#45;&gt;Node6 -->
<g id="edge5" class="edge"><title>Node3&#45;&gt;Node6</title>
<path fill="none" stroke="midnightblue" d="M90.5015,-57.4179C90.5015,-50.2164 90.5015,-39.8962 90.5015,-30.8632"/>
<polygon fill="midnightblue" stroke="midnightblue" points="94.0016,-30.7794 90.5015,-20.7795 87.0016,-30.7795 94.0016,-30.7794"/>
</g>
</g>
</svg>
