<?xml version="1.0" encoding="UTF-8" standalone="no"?>
<!DOCTYPE svg PUBLIC "-//W3C//DTD SVG 1.1//EN"
 "http://www.w3.org/Graphics/SVG/1.1/DTD/svg11.dtd">
<!-- Generated by graphviz version 2.38.0 (20140413.2041)
 -->
<!-- Title: panda::MicroJet::datastore::book Pages: 1 -->
<svg width="828pt" height="108pt"
 viewBox="0.00 0.00 828.28 108.00" xmlns="http://www.w3.org/2000/svg" xmlns:xlink="http://www.w3.org/1999/xlink">
<g id="graph0" class="graph" transform="scale(1 1) rotate(0) translate(4 104)">
<title>panda::MicroJet::datastore::book</title>
<polygon fill="white" stroke="none" points="-4,4 -4,-104 824.279,-104 824.279,4 -4,4"/>
<!-- Node1 -->
<g id="node1" class="node"><title>Node1</title>
<polygon fill="#bfbfbf" stroke="black" points="-1.42109e-14,-6.5 -1.42109e-14,-38.5 134.367,-38.5 134.367,-6.5 -1.42109e-14,-6.5"/>
<text text-anchor="start" x="8" y="-25.5" font-family="Helvetica,sans-Serif" font-size="10.00">panda::MicroJet::datastore</text>
<text text-anchor="middle" x="67.1835" y="-13.5" font-family="Helvetica,sans-Serif" font-size="10.00">::book</text>
</g>
<!-- Node2 -->
<g id="node2" class="node"><title>Node2</title>
<g id="a_node2"><a xlink:href="structpanda_1_1ParticleM_1_1datastore.html#ae2eb76ca042d8b3e899c027ee07b5860" target="_top" xlink:title="panda::ParticleM::datastore\l::book">
<polygon fill="white" stroke="black" points="170.367,-29.5 170.367,-61.5 308.622,-61.5 308.622,-29.5 170.367,-29.5"/>
<text text-anchor="start" x="178.367" y="-48.5" font-family="Helvetica,sans-Serif" font-size="10.00">panda::ParticleM::datastore</text>
<text text-anchor="middle" x="239.494" y="-36.5" font-family="Helvetica,sans-Serif" font-size="10.00">::book</text>
</a>
</g>
</g>
<!-- Node1&#45;&gt;Node2 -->
<g id="edge1" class="edge"><title>Node1&#45;&gt;Node2</title>
<path fill="none" stroke="midnightblue" d="M134.518,-31.4583C142.909,-32.5915 151.557,-33.7594 160.113,-34.9149"/>
<polygon fill="midnightblue" stroke="midnightblue" points="159.716,-38.3929 170.095,-36.2628 160.653,-31.4559 159.716,-38.3929"/>
</g>
<!-- Node5 -->
<g id="node5" class="node"><title>Node5</title>
<g id="a_node5"><a xlink:href="namespacepanda_1_1utils.html#aaa6c7cd5892388e6ffdf713b11abf793" target="_top" xlink:title="Book the branch. ">
<polygon fill="white" stroke="black" points="528.049,-28.5 528.049,-48.5 622.413,-48.5 622.413,-28.5 528.049,-28.5"/>
<text text-anchor="middle" x="575.231" y="-35.5" font-family="Helvetica,sans-Serif" font-size="10.00">panda::utils::book</text>
</a>
</g>
</g>
<!-- Node1&#45;&gt;Node5 -->
<g id="edge8" class="edge"><title>Node1&#45;&gt;Node5</title>
<path fill="none" stroke="midnightblue" d="M134.413,-20.2721C146.379,-19.9503 158.743,-19.6706 170.367,-19.5 231.807,-18.5983 247.214,-17.3065 308.622,-19.5 380.889,-22.0815 464.006,-28.6017 517.733,-33.2837"/>
<polygon fill="midnightblue" stroke="midnightblue" points="517.476,-36.7745 527.744,-34.1645 518.09,-29.8014 517.476,-36.7745"/>
</g>
<!-- Node3 -->
<g id="node3" class="node"><title>Node3</title>
<g id="a_node3"><a xlink:href="structpanda_1_1Particle_1_1datastore.html#af75a5d8b8a18ee09ce98ab37888b4404" target="_top" xlink:title="panda::Particle::datastore\l::book">
<polygon fill="white" stroke="black" points="344.622,-67.5 344.622,-99.5 474.548,-99.5 474.548,-67.5 344.622,-67.5"/>
<text text-anchor="start" x="352.622" y="-86.5" font-family="Helvetica,sans-Serif" font-size="10.00">panda::Particle::datastore</text>
<text text-anchor="middle" x="409.585" y="-74.5" font-family="Helvetica,sans-Serif" font-size="10.00">::book</text>
</a>
</g>
</g>
<!-- Node2&#45;&gt;Node3 -->
<g id="edge2" class="edge"><title>Node2&#45;&gt;Node3</title>
<path fill="none" stroke="midnightblue" d="M308.863,-60.9561C317.356,-62.876 326.07,-64.846 334.642,-66.7838"/>
<polygon fill="midnightblue" stroke="midnightblue" points="334.092,-70.2477 344.618,-69.039 335.636,-63.42 334.092,-70.2477"/>
</g>
<!-- Node2&#45;&gt;Node5 -->
<g id="edge7" class="edge"><title>Node2&#45;&gt;Node5</title>
<path fill="none" stroke="midnightblue" d="M308.836,-44.0666C370.542,-42.7723 460.252,-40.8907 517.925,-39.681"/>
<polygon fill="midnightblue" stroke="midnightblue" points="518.03,-43.1797 527.954,-39.4706 517.883,-36.1812 518.03,-43.1797"/>
</g>
<!-- Node4 -->
<g id="node4" class="node"><title>Node4</title>
<g id="a_node4"><a xlink:href="structpanda_1_1ContainerElement_1_1datastore.html#a3a4062043d9a913acd4056ab1cf5a93f" target="_top" xlink:title="panda::ContainerElement\l::datastore::book">
<polygon fill="white" stroke="black" points="510.548,-67.5 510.548,-99.5 639.915,-99.5 639.915,-67.5 510.548,-67.5"/>
<text text-anchor="start" x="518.548" y="-86.5" font-family="Helvetica,sans-Serif" font-size="10.00">panda::ContainerElement</text>
<text text-anchor="middle" x="575.231" y="-74.5" font-family="Helvetica,sans-Serif" font-size="10.00">::datastore::book</text>
</a>
</g>
</g>
<!-- Node3&#45;&gt;Node4 -->
<g id="edge3" class="edge"><title>Node3&#45;&gt;Node4</title>
<path fill="none" stroke="midnightblue" d="M474.793,-83.5C483.132,-83.5 491.728,-83.5 500.211,-83.5"/>
<polygon fill="midnightblue" stroke="midnightblue" points="500.477,-87.0001 510.477,-83.5 500.477,-80.0001 500.477,-87.0001"/>
</g>
<!-- Node3&#45;&gt;Node5 -->
<g id="edge4" class="edge"><title>Node3&#45;&gt;Node5</title>
<path fill="none" stroke="midnightblue" d="M469.203,-67.3811C488.394,-62.1039 509.441,-56.3163 527.622,-51.3168"/>
<polygon fill="midnightblue" stroke="midnightblue" points="528.684,-54.6549 537.398,-48.6287 526.828,-47.9054 528.684,-54.6549"/>
</g>
<!-- Node6 -->
<g id="node6" class="node"><title>Node6</title>
<g id="a_node6"><a xlink:href="classpanda_1_1utils_1_1BranchName.html#a6cc8a6df7c5b12a0221fd49773cca6a7" target="_top" xlink:title="Is the name included and not vetoed? ">
<polygon fill="white" stroke="black" points="675.915,-51.5 675.915,-71.5 820.279,-71.5 820.279,-51.5 675.915,-51.5"/>
<text text-anchor="middle" x="748.097" y="-58.5" font-family="Helvetica,sans-Serif" font-size="10.00">panda::utils::BranchName::in</text>
</a>
</g>
</g>
<!-- Node5&#45;&gt;Node6 -->
<g id="edge5" class="edge"><title>Node5&#45;&gt;Node6</title>
<path fill="none" stroke="midnightblue" d="M622.47,-44.7241C635.8,-46.5185 650.756,-48.5316 665.555,-50.5238"/>
<polygon fill="midnightblue" stroke="midnightblue" points="665.377,-54.0312 675.754,-51.8966 666.31,-47.0938 665.377,-54.0312"/>
</g>
<!-- Node7 -->
<g id="node7" class="node"><title>Node7</title>
<g id="a_node7"><a xlink:href="classpanda_1_1utils_1_1BranchName.html#a13958ff4a9d554d2c057c600b4f70412" target="_top" xlink:title="Prepend the branch name with &lt;objName.&gt;. ">
<polygon fill="white" stroke="black" points="682.583,-0.5 682.583,-32.5 813.611,-32.5 813.611,-0.5 682.583,-0.5"/>
<text text-anchor="start" x="690.583" y="-19.5" font-family="Helvetica,sans-Serif" font-size="10.00">panda::utils::BranchName</text>
<text text-anchor="middle" x="748.097" y="-7.5" font-family="Helvetica,sans-Serif" font-size="10.00">::fullName</text>
</a>
</g>
</g>
<!-- Node5&#45;&gt;Node7 -->
<g id="edge6" class="edge"><title>Node5&#45;&gt;Node7</title>
<path fill="none" stroke="midnightblue" d="M622.47,-32.5465C637.92,-30.5572 655.553,-28.2869 672.596,-26.0925"/>
<polygon fill="midnightblue" stroke="midnightblue" points="673.07,-29.5604 682.541,-24.812 672.176,-22.6178 673.07,-29.5604"/>
</g>
</g>
</svg>
