<?xml version="1.0" encoding="UTF-8" standalone="no"?>
<!DOCTYPE svg PUBLIC "-//W3C//DTD SVG 1.1//EN"
 "http://www.w3.org/Graphics/SVG/1.1/DTD/svg11.dtd">
<!-- Generated by graphviz version 2.38.0 (20140413.2041)
 -->
<!-- Title: panda::ParticleM::datastore::~datastore Pages: 1 -->
<svg width="652pt" height="41pt"
 viewBox="0.00 0.00 651.80 41.00" xmlns="http://www.w3.org/2000/svg" xmlns:xlink="http://www.w3.org/1999/xlink">
<g id="graph0" class="graph" transform="scale(1 1) rotate(0) translate(4 37)">
<title>panda::ParticleM::datastore::~datastore</title>
<polygon fill="white" stroke="none" points="-4,4 -4,-37 647.803,-37 647.803,4 -4,4"/>
<!-- Node1 -->
<g id="node1" class="node"><title>Node1</title>
<polygon fill="#bfbfbf" stroke="black" points="-5.68434e-14,-0.5 -5.68434e-14,-32.5 138.255,-32.5 138.255,-0.5 -5.68434e-14,-0.5"/>
<text text-anchor="start" x="8" y="-19.5" font-family="Helvetica,sans-Serif" font-size="10.00">panda::ParticleM::datastore</text>
<text text-anchor="middle" x="69.1275" y="-7.5" font-family="Helvetica,sans-Serif" font-size="10.00">::~datastore</text>
</g>
<!-- Node2 -->
<g id="node2" class="node"><title>Node2</title>
<g id="a_node2"><a xlink:href="structpanda_1_1ParticleM_1_1datastore.html#a85c4ce11f1d7c6944a525ad2488880aa" target="_top" xlink:title="panda::ParticleM::datastore\l::deallocate">
<polygon fill="white" stroke="black" points="174.255,-0.5 174.255,-32.5 312.51,-32.5 312.51,-0.5 174.255,-0.5"/>
<text text-anchor="start" x="182.255" y="-19.5" font-family="Helvetica,sans-Serif" font-size="10.00">panda::ParticleM::datastore</text>
<text text-anchor="middle" x="243.382" y="-7.5" font-family="Helvetica,sans-Serif" font-size="10.00">::deallocate</text>
</a>
</g>
</g>
<!-- Node1&#45;&gt;Node2 -->
<g id="edge1" class="edge"><title>Node1&#45;&gt;Node2</title>
<path fill="none" stroke="midnightblue" d="M138.702,-16.5C146.973,-16.5 155.47,-16.5 163.869,-16.5"/>
<polygon fill="midnightblue" stroke="midnightblue" points="164.044,-20.0001 174.044,-16.5 164.044,-13.0001 164.044,-20.0001"/>
</g>
<!-- Node3 -->
<g id="node3" class="node"><title>Node3</title>
<g id="a_node3"><a xlink:href="structpanda_1_1Particle_1_1datastore.html#ad741e5ab6ebeb9ca897ba9472d0dea36" target="_top" xlink:title="panda::Particle::datastore\l::deallocate">
<polygon fill="white" stroke="black" points="348.51,-0.5 348.51,-32.5 478.436,-32.5 478.436,-0.5 348.51,-0.5"/>
<text text-anchor="start" x="356.51" y="-19.5" font-family="Helvetica,sans-Serif" font-size="10.00">panda::Particle::datastore</text>
<text text-anchor="middle" x="413.473" y="-7.5" font-family="Helvetica,sans-Serif" font-size="10.00">::deallocate</text>
</a>
</g>
</g>
<!-- Node2&#45;&gt;Node3 -->
<g id="edge2" class="edge"><title>Node2&#45;&gt;Node3</title>
<path fill="none" stroke="midnightblue" d="M312.751,-16.5C321.152,-16.5 329.769,-16.5 338.251,-16.5"/>
<polygon fill="midnightblue" stroke="midnightblue" points="338.506,-20.0001 348.506,-16.5 338.506,-13.0001 338.506,-20.0001"/>
</g>
<!-- Node4 -->
<g id="node4" class="node"><title>Node4</title>
<g id="a_node4"><a xlink:href="structpanda_1_1ContainerElement_1_1datastore.html#a8827cbb1304b781fcba764a6bf4cbcc1" target="_top" xlink:title="panda::ContainerElement\l::datastore::deallocate">
<polygon fill="white" stroke="black" points="514.436,-0.5 514.436,-32.5 643.803,-32.5 643.803,-0.5 514.436,-0.5"/>
<text text-anchor="start" x="522.436" y="-19.5" font-family="Helvetica,sans-Serif" font-size="10.00">panda::ContainerElement</text>
<text text-anchor="middle" x="579.119" y="-7.5" font-family="Helvetica,sans-Serif" font-size="10.00">::datastore::deallocate</text>
</a>
</g>
</g>
<!-- Node3&#45;&gt;Node4 -->
<g id="edge3" class="edge"><title>Node3&#45;&gt;Node4</title>
<path fill="none" stroke="midnightblue" d="M478.681,-16.5C487.02,-16.5 495.616,-16.5 504.099,-16.5"/>
<polygon fill="midnightblue" stroke="midnightblue" points="504.365,-20.0001 514.365,-16.5 504.365,-13.0001 504.365,-20.0001"/>
</g>
</g>
</svg>
