<?xml version="1.0" encoding="UTF-8" standalone="no"?>
<!DOCTYPE svg PUBLIC "-//W3C//DTD SVG 1.1//EN"
 "http://www.w3.org/Graphics/SVG/1.1/DTD/svg11.dtd">
<!-- Generated by graphviz version 2.38.0 (20140413.2041)
 -->
<!-- Title: panda::FatJet::datastore::deallocate Pages: 1 -->
<svg width="293pt" height="41pt"
 viewBox="0.00 0.00 292.76 41.00" xmlns="http://www.w3.org/2000/svg" xmlns:xlink="http://www.w3.org/1999/xlink">
<g id="graph0" class="graph" transform="scale(1 1) rotate(0) translate(4 37)">
<title>panda::FatJet::datastore::deallocate</title>
<polygon fill="white" stroke="none" points="-4,4 -4,-37 288.756,-37 288.756,4 -4,4"/>
<!-- Node1 -->
<g id="node1" class="node"><title>Node1</title>
<polygon fill="#bfbfbf" stroke="black" points="-7.10543e-15,-0.5 -7.10543e-15,-32.5 124.378,-32.5 124.378,-0.5 -7.10543e-15,-0.5"/>
<text text-anchor="start" x="8" y="-19.5" font-family="Helvetica,sans-Serif" font-size="10.00">panda::FatJet::datastore</text>
<text text-anchor="middle" x="62.189" y="-7.5" font-family="Helvetica,sans-Serif" font-size="10.00">::deallocate</text>
</g>
<!-- Node2 -->
<g id="node2" class="node"><title>Node2</title>
<g id="a_node2"><a xlink:href="structpanda_1_1FatJet_1_1datastore.html#ab30c9e78310606976935325a55cb10e6" target="_top" xlink:title="panda::FatJet::datastore\l::~datastore">
<polygon fill="white" stroke="black" points="160.378,-0.5 160.378,-32.5 284.756,-32.5 284.756,-0.5 160.378,-0.5"/>
<text text-anchor="start" x="168.378" y="-19.5" font-family="Helvetica,sans-Serif" font-size="10.00">panda::FatJet::datastore</text>
<text text-anchor="middle" x="222.567" y="-7.5" font-family="Helvetica,sans-Serif" font-size="10.00">::~datastore</text>
</a>
</g>
</g>
<!-- Node1&#45;&gt;Node2 -->
<g id="edge1" class="edge"><title>Node1&#45;&gt;Node2</title>
<path fill="none" stroke="midnightblue" d="M134.445,-16.5C143.053,-16.5 151.787,-16.5 160.236,-16.5"/>
<polygon fill="midnightblue" stroke="midnightblue" points="134.422,-13.0001 124.422,-16.5 134.422,-20.0001 134.422,-13.0001"/>
</g>
</g>
</svg>
