<?xml version="1.0" encoding="UTF-8" standalone="no"?>
<!DOCTYPE svg PUBLIC "-//W3C//DTD SVG 1.1//EN"
 "http://www.w3.org/Graphics/SVG/1.1/DTD/svg11.dtd">
<!-- Generated by graphviz version 2.38.0 (20140413.2041)
 -->
<!-- Title: panda::Jet::datastore::~datastore Pages: 1 -->
<!--zoomable 41 -->
<svg id="main" version="1.1" xmlns="http://www.w3.org/2000/svg" xmlns:xlink="http://www.w3.org/1999/xlink" xml:space="preserve" onload="init(evt)">
<style type="text/css"><![CDATA[
.edge:hover path { stroke: red; }
.edge:hover polygon { stroke: red; fill: red; }
]]></style>
<script type="text/javascript"><![CDATA[
var edges = document.getElementsByTagName('g');
if (edges && edges.length) {
  for (var i=0;i<edges.length;i++) {
    if (edges[i].id.substr(0,4)=='edge') {
      edges[i].setAttribute('class','edge');
    }
  }
}
]]></script>
        <defs>
                <circle id="rim" cx="0" cy="0" r="7"/>
                <circle id="rim2" cx="0" cy="0" r="3.5"/>
                <g id="zoomPlus">
                        <use xlink:href="#rim" fill="#404040">
                                <set attributeName="fill" to="#808080" begin="zoomplus.mouseover" end="zoomplus.mouseout"/>
                        </use>
                        <path d="M-4,0h8M0,-4v8" fill="none" stroke="white" stroke-width="1.5" pointer-events="none"/>
                </g>
                <g id="zoomMin">
                        <use xlink:href="#rim" fill="#404040">
                                <set attributeName="fill" to="#808080" begin="zoomminus.mouseover" end="zoomminus.mouseout"/>
                        </use>
                        <path d="M-4,0h8" fill="none" stroke="white" stroke-width="1.5" pointer-events="none"/>
                </g>
                <g id="dirArrow">
                        <path fill="none" stroke="white" stroke-width="1.5" d="M0,-3.0v7 M-2.5,-0.5L0,-3.0L2.5,-0.5"/>
                </g>
               <g id="resetDef">
                       <use xlink:href="#rim2" fill="#404040">
                               <set attributeName="fill" to="#808080" begin="reset.mouseover" end="reset.mouseout"/>
                       </use>
               </g>
        </defs>

<script type="text/javascript">
var viewWidth = 940;
var viewHeight = 41;
var sectionId = 'dynsection-2';
</script>
<script xlink:href="svgpan.js"/>
<svg id="graph" class="graph">
<g id="viewport">
<title>panda::Jet::datastore::~datastore</title>
<polygon fill="white" stroke="none" points="-4,4 -4,-37 935.777,-37 935.777,4 -4,4"/>
<!-- Node1 -->
<g id="node1" class="node"><title>Node1</title>
<polygon fill="#bfbfbf" stroke="black" points="2.84217e-14,-0.5 2.84217e-14,-32.5 109.931,-32.5 109.931,-0.5 2.84217e-14,-0.5"/>
<text text-anchor="start" x="8" y="-19.5" font-family="Helvetica,sans-Serif" font-size="10.00">panda::Jet::datastore</text>
<text text-anchor="middle" x="54.9655" y="-7.5" font-family="Helvetica,sans-Serif" font-size="10.00">::~datastore</text>
</g>
<!-- Node2 -->
<g id="node2" class="node"><title>Node2</title>
<g id="a_node2"><a xlink:href="structpanda_1_1Jet_1_1datastore.html#a606415eee51c1a38fc0613f3b2946d1e" target="_top" xlink:title="panda::Jet::datastore\l::deallocate">
<polygon fill="white" stroke="black" points="145.931,-0.5 145.931,-32.5 255.862,-32.5 255.862,-0.5 145.931,-0.5"/>
<text text-anchor="start" x="153.931" y="-19.5" font-family="Helvetica,sans-Serif" font-size="10.00">panda::Jet::datastore</text>
<text text-anchor="middle" x="200.896" y="-7.5" font-family="Helvetica,sans-Serif" font-size="10.00">::deallocate</text>
</a>
</g>
</g>
<!-- Node1&#45;&gt;Node2 -->
<g id="edge1" class="edge"><title>Node1&#45;&gt;Node2</title>
<path fill="none" stroke="midnightblue" d="M109.97,-16.5C118.249,-16.5 126.868,-16.5 135.347,-16.5"/>
<polygon fill="midnightblue" stroke="midnightblue" points="135.59,-20.0001 145.59,-16.5 135.59,-13.0001 135.59,-20.0001"/>
</g>
<!-- Node3 -->
<g id="node3" class="node"><title>Node3</title>
<g id="a_node3"><a xlink:href="structpanda_1_1MicroJet_1_1datastore.html#a03473e3dcba5abe73c123ce2c1d3292c" target="_top" xlink:title="panda::MicroJet::datastore\l::deallocate">
<polygon fill="white" stroke="black" points="291.862,-0.5 291.862,-32.5 426.229,-32.5 426.229,-0.5 291.862,-0.5"/>
<text text-anchor="start" x="299.862" y="-19.5" font-family="Helvetica,sans-Serif" font-size="10.00">panda::MicroJet::datastore</text>
<text text-anchor="middle" x="359.045" y="-7.5" font-family="Helvetica,sans-Serif" font-size="10.00">::deallocate</text>
</a>
</g>
</g>
<!-- Node2&#45;&gt;Node3 -->
<g id="edge2" class="edge"><title>Node2&#45;&gt;Node3</title>
<path fill="none" stroke="midnightblue" d="M256.072,-16.5C264.365,-16.5 273.057,-16.5 281.721,-16.5"/>
<polygon fill="midnightblue" stroke="midnightblue" points="281.852,-20.0001 291.852,-16.5 281.852,-13.0001 281.852,-20.0001"/>
</g>
<!-- Node4 -->
<g id="node4" class="node"><title>Node4</title>
<g id="a_node4"><a xlink:href="structpanda_1_1ParticleM_1_1datastore.html#a85c4ce11f1d7c6944a525ad2488880aa" target="_top" xlink:title="panda::ParticleM::datastore\l::deallocate">
<polygon fill="white" stroke="black" points="462.229,-0.5 462.229,-32.5 600.484,-32.5 600.484,-0.5 462.229,-0.5"/>
<text text-anchor="start" x="470.229" y="-19.5" font-family="Helvetica,sans-Serif" font-size="10.00">panda::ParticleM::datastore</text>
<text text-anchor="middle" x="531.356" y="-7.5" font-family="Helvetica,sans-Serif" font-size="10.00">::deallocate</text>
</a>
</g>
</g>
<!-- Node3&#45;&gt;Node4 -->
<g id="edge3" class="edge"><title>Node3&#45;&gt;Node4</title>
<path fill="none" stroke="midnightblue" d="M426.38,-16.5C434.68,-16.5 443.231,-16.5 451.696,-16.5"/>
<polygon fill="midnightblue" stroke="midnightblue" points="451.957,-20.0001 461.957,-16.5 451.957,-13.0001 451.957,-20.0001"/>
</g>
<!-- Node5 -->
<g id="node5" class="node"><title>Node5</title>
<g id="a_node5"><a xlink:href="structpanda_1_1Particle_1_1datastore.html#ad741e5ab6ebeb9ca897ba9472d0dea36" target="_top" xlink:title="panda::Particle::datastore\l::deallocate">
<polygon fill="white" stroke="black" points="636.484,-0.5 636.484,-32.5 766.41,-32.5 766.41,-0.5 636.484,-0.5"/>
<text text-anchor="start" x="644.484" y="-19.5" font-family="Helvetica,sans-Serif" font-size="10.00">panda::Particle::datastore</text>
<text text-anchor="middle" x="701.447" y="-7.5" font-family="Helvetica,sans-Serif" font-size="10.00">::deallocate</text>
</a>
</g>
</g>
<!-- Node4&#45;&gt;Node5 -->
<g id="edge4" class="edge"><title>Node4&#45;&gt;Node5</title>
<path fill="none" stroke="midnightblue" d="M600.725,-16.5C609.126,-16.5 617.743,-16.5 626.225,-16.5"/>
<polygon fill="midnightblue" stroke="midnightblue" points="626.48,-20.0001 636.48,-16.5 626.48,-13.0001 626.48,-20.0001"/>
</g>
<!-- Node6 -->
<g id="node6" class="node"><title>Node6</title>
<g id="a_node6"><a xlink:href="structpanda_1_1ContainerElement_1_1datastore.html#a8827cbb1304b781fcba764a6bf4cbcc1" target="_top" xlink:title="panda::ContainerElement\l::datastore::deallocate">
<polygon fill="white" stroke="black" points="802.41,-0.5 802.41,-32.5 931.777,-32.5 931.777,-0.5 802.41,-0.5"/>
<text text-anchor="start" x="810.41" y="-19.5" font-family="Helvetica,sans-Serif" font-size="10.00">panda::ContainerElement</text>
<text text-anchor="middle" x="867.093" y="-7.5" font-family="Helvetica,sans-Serif" font-size="10.00">::datastore::deallocate</text>
</a>
</g>
</g>
<!-- Node5&#45;&gt;Node6 -->
<g id="edge5" class="edge"><title>Node5&#45;&gt;Node6</title>
<path fill="none" stroke="midnightblue" d="M766.655,-16.5C774.994,-16.5 783.59,-16.5 792.073,-16.5"/>
<polygon fill="midnightblue" stroke="midnightblue" points="792.339,-20.0001 802.339,-16.5 792.339,-13.0001 792.339,-20.0001"/>
</g>
</g>
</svg>
        <g id="navigator" transform="translate(0 0)" fill="#404254">
                <rect fill="#f2f5e9" fill-opacity="0.5" stroke="#606060" stroke-width=".5" x="0" y="0" width="60" height="60"/>
                <use id="zoomplus" xlink:href="#zoomPlus" x="17" y="9" onmousedown="handleZoom(evt,'in')"/>
                <use id="zoomminus" xlink:href="#zoomMin" x="42" y="9" onmousedown="handleZoom(evt,'out')"/>
                <use id="reset" xlink:href="#resetDef" x="30" y="36" onmousedown="handleReset()"/>
                <g id="arrowUp" xlink:href="#dirArrow" transform="translate(30 24)" onmousedown="handlePan(0,-1)">
                  <use xlink:href="#rim" fill="#404040">
                        <set attributeName="fill" to="#808080" begin="arrowUp.mouseover" end="arrowUp.mouseout"/>
                  </use>
                  <path fill="none" stroke="white" stroke-width="1.5" d="M0,-3.0v7 M-2.5,-0.5L0,-3.0L2.5,-0.5"/>
                </g>
                <g id="arrowRight" xlink:href="#dirArrow" transform="rotate(90) translate(36 -43)" onmousedown="handlePan(1,0)">
                  <use xlink:href="#rim" fill="#404040">
                        <set attributeName="fill" to="#808080" begin="arrowRight.mouseover" end="arrowRight.mouseout"/>
                  </use>
                  <path fill="none" stroke="white" stroke-width="1.5" d="M0,-3.0v7 M-2.5,-0.5L0,-3.0L2.5,-0.5"/>
                </g>
                <g id="arrowDown" xlink:href="#dirArrow" transform="rotate(180) translate(-30 -48)" onmousedown="handlePan(0,1)">
                  <use xlink:href="#rim" fill="#404040">
                        <set attributeName="fill" to="#808080" begin="arrowDown.mouseover" end="arrowDown.mouseout"/>
                  </use>
                  <path fill="none" stroke="white" stroke-width="1.5" d="M0,-3.0v7 M-2.5,-0.5L0,-3.0L2.5,-0.5"/>
                </g>
                <g id="arrowLeft" xlink:href="#dirArrow" transform="rotate(270) translate(-36 17)" onmousedown="handlePan(-1,0)">
                  <use xlink:href="#rim" fill="#404040">
                        <set attributeName="fill" to="#808080" begin="arrowLeft.mouseover" end="arrowLeft.mouseout"/>
                  </use>
                  <path fill="none" stroke="white" stroke-width="1.5" d="M0,-3.0v7 M-2.5,-0.5L0,-3.0L2.5,-0.5"/>
                </g>
        </g>
        <svg viewBox="0 0 15 15" width="100%" height="30px" preserveAspectRatio="xMaxYMin meet">
         <g id="arrow_out" transform="scale(0.3 0.3)">
          <a xlink:href="structpanda_1_1Jet_1_1datastore_a70fb643b535f39f676287fe34d603e01_cgraph_org.svg" target="_base">
           <rect id="button" ry="5" rx="5" y="6" x="6" height="38" width="38"
                fill="#f2f5e9" fill-opacity="0.5" stroke="#606060" stroke-width="1.0"/>
           <path id="arrow"
             d="M 11.500037,31.436501 C 11.940474,20.09759 22.043105,11.32322 32.158766,21.979434 L 37.068811,17.246167 C 37.068811,17.246167 37.088388,32 37.088388,32 L 22.160133,31.978069 C 22.160133,31.978069 26.997745,27.140456 26.997745,27.140456 C 18.528582,18.264221 13.291696,25.230495 11.500037,31.436501 z"
             style="fill:#404040;"/>
          </a>
         </g>
        </svg>
</svg>
