<?xml version="1.0" encoding="UTF-8" standalone="no"?>
<!DOCTYPE svg PUBLIC "-//W3C//DTD SVG 1.1//EN"
 "http://www.w3.org/Graphics/SVG/1.1/DTD/svg11.dtd">
<!-- Generated by graphviz version 2.38.0 (20140413.2041)
 -->
<!-- Title: panda::ContainerElement::datastore Pages: 1 -->
<!--zoomable 314 -->
<svg id="main" version="1.1" xmlns="http://www.w3.org/2000/svg" xmlns:xlink="http://www.w3.org/1999/xlink" xml:space="preserve" onload="init(evt)">
<style type="text/css"><![CDATA[
.edge:hover path { stroke: red; }
.edge:hover polygon { stroke: red; fill: red; }
]]></style>
<script type="text/javascript"><![CDATA[
var edges = document.getElementsByTagName('g');
if (edges && edges.length) {
  for (var i=0;i<edges.length;i++) {
    if (edges[i].id.substr(0,4)=='edge') {
      edges[i].setAttribute('class','edge');
    }
  }
}
]]></script>
        <defs>
                <circle id="rim" cx="0" cy="0" r="7"/>
                <circle id="rim2" cx="0" cy="0" r="3.5"/>
                <g id="zoomPlus">
                        <use xlink:href="#rim" fill="#404040">
                                <set attributeName="fill" to="#808080" begin="zoomplus.mouseover" end="zoomplus.mouseout"/>
                        </use>
                        <path d="M-4,0h8M0,-4v8" fill="none" stroke="white" stroke-width="1.5" pointer-events="none"/>
                </g>
                <g id="zoomMin">
                        <use xlink:href="#rim" fill="#404040">
                                <set attributeName="fill" to="#808080" begin="zoomminus.mouseover" end="zoomminus.mouseout"/>
                        </use>
                        <path d="M-4,0h8" fill="none" stroke="white" stroke-width="1.5" pointer-events="none"/>
                </g>
                <g id="dirArrow">
                        <path fill="none" stroke="white" stroke-width="1.5" d="M0,-3.0v7 M-2.5,-0.5L0,-3.0L2.5,-0.5"/>
                </g>
               <g id="resetDef">
                       <use xlink:href="#rim2" fill="#404040">
                               <set attributeName="fill" to="#808080" begin="reset.mouseover" end="reset.mouseout"/>
                       </use>
               </g>
        </defs>

<script type="text/javascript">
var viewWidth = 954;
var viewHeight = 314;
var sectionId = 'dynsection-0';
</script>
<script xlink:href="svgpan.js"/>
<svg id="graph" class="graph">
<g id="viewport">
<title>panda::ContainerElement::datastore</title>
<polygon fill="white" stroke="none" points="-4,4 -4,-310 950.224,-310 950.224,4 -4,4"/>
<!-- Node1 -->
<g id="node1" class="node"><title>Node1</title>
<polygon fill="#bfbfbf" stroke="black" points="-1.42109e-14,-88.5 -1.42109e-14,-120.5 129.367,-120.5 129.367,-88.5 -1.42109e-14,-88.5"/>
<text text-anchor="start" x="8" y="-107.5" font-family="Helvetica,sans-Serif" font-size="10.00">panda::ContainerElement</text>
<text text-anchor="middle" x="64.6835" y="-95.5" font-family="Helvetica,sans-Serif" font-size="10.00">::datastore</text>
</g>
<!-- Node2 -->
<g id="node2" class="node"><title>Node2</title>
<g id="a_node2"><a xlink:href="structpanda_1_1Particle_1_1datastore.html" target="_top" xlink:title="panda::Particle::datastore">
<polygon fill="white" stroke="black" points="165.367,-117.5 165.367,-137.5 295.293,-137.5 295.293,-117.5 165.367,-117.5"/>
<text text-anchor="middle" x="230.33" y="-124.5" font-family="Helvetica,sans-Serif" font-size="10.00">panda::Particle::datastore</text>
</a>
</g>
</g>
<!-- Node1&#45;&gt;Node2 -->
<g id="edge1" class="edge"><title>Node1&#45;&gt;Node2</title>
<path fill="none" stroke="midnightblue" d="M139.443,-114.867C148.046,-116.076 156.769,-117.302 165.227,-118.49"/>
<polygon fill="midnightblue" stroke="midnightblue" points="139.812,-111.384 129.422,-113.458 138.838,-118.316 139.812,-111.384"/>
</g>
<!-- Node16 -->
<g id="node16" class="node"><title>Node16</title>
<g id="a_node16"><a xlink:href="structpanda_1_1SuperCluster_1_1datastore.html" target="_top" xlink:title="panda::SuperCluster\l::datastore">
<polygon fill="white" stroke="black" points="176.484,-66.5 176.484,-98.5 284.176,-98.5 284.176,-66.5 176.484,-66.5"/>
<text text-anchor="start" x="184.484" y="-85.5" font-family="Helvetica,sans-Serif" font-size="10.00">panda::SuperCluster</text>
<text text-anchor="middle" x="230.33" y="-73.5" font-family="Helvetica,sans-Serif" font-size="10.00">::datastore</text>
</a>
</g>
</g>
<!-- Node1&#45;&gt;Node16 -->
<g id="edge15" class="edge"><title>Node1&#45;&gt;Node16</title>
<path fill="none" stroke="midnightblue" d="M139.347,-94.597C151.818,-92.9204 164.545,-91.2095 176.352,-89.6221"/>
<polygon fill="midnightblue" stroke="midnightblue" points="138.867,-91.13 129.422,-95.9312 139.799,-98.0676 138.867,-91.13"/>
</g>
<!-- Node3 -->
<g id="node3" class="node"><title>Node3</title>
<g id="a_node3"><a xlink:href="structpanda_1_1Lepton_1_1datastore.html" target="_top" xlink:title="panda::Lepton::datastore">
<polygon fill="white" stroke="black" points="336.837,-246.5 336.837,-266.5 464.004,-266.5 464.004,-246.5 336.837,-246.5"/>
<text text-anchor="middle" x="400.421" y="-253.5" font-family="Helvetica,sans-Serif" font-size="10.00">panda::Lepton::datastore</text>
</a>
</g>
</g>
<!-- Node2&#45;&gt;Node3 -->
<g id="edge2" class="edge"><title>Node2&#45;&gt;Node3</title>
<path fill="none" stroke="midnightblue" d="M252.71,-143.908C287.993,-170.986 357.382,-224.238 386.292,-246.425"/>
<polygon fill="midnightblue" stroke="midnightblue" points="254.584,-140.934 244.52,-137.622 250.322,-146.487 254.584,-140.934"/>
</g>
<!-- Node6 -->
<g id="node6" class="node"><title>Node6</title>
<g id="a_node6"><a xlink:href="structpanda_1_1ParticleM_1_1datastore.html" target="_top" xlink:title="panda::ParticleM::datastore">
<polygon fill="white" stroke="black" points="331.293,-117.5 331.293,-137.5 469.548,-137.5 469.548,-117.5 331.293,-117.5"/>
<text text-anchor="middle" x="400.421" y="-124.5" font-family="Helvetica,sans-Serif" font-size="10.00">panda::ParticleM::datastore</text>
</a>
</g>
</g>
<!-- Node2&#45;&gt;Node6 -->
<g id="edge5" class="edge"><title>Node2&#45;&gt;Node6</title>
<path fill="none" stroke="midnightblue" d="M305.609,-127.5C314.087,-127.5 322.7,-127.5 331.095,-127.5"/>
<polygon fill="midnightblue" stroke="midnightblue" points="305.357,-124 295.357,-127.5 305.357,-131 305.357,-124"/>
</g>
<!-- Node15 -->
<g id="node15" class="node"><title>Node15</title>
<g id="a_node15"><a xlink:href="structpanda_1_1Photon_1_1datastore.html" target="_top" xlink:title="panda::Photon::datastore">
<polygon fill="white" stroke="black" points="336.282,-78.5 336.282,-98.5 464.559,-98.5 464.559,-78.5 336.282,-78.5"/>
<text text-anchor="middle" x="400.421" y="-85.5" font-family="Helvetica,sans-Serif" font-size="10.00">panda::Photon::datastore</text>
</a>
</g>
</g>
<!-- Node2&#45;&gt;Node15 -->
<g id="edge14" class="edge"><title>Node2&#45;&gt;Node15</title>
<path fill="none" stroke="midnightblue" d="M284.614,-115.137C307.727,-109.775 334.44,-103.577 356.28,-98.5094"/>
<polygon fill="midnightblue" stroke="midnightblue" points="283.568,-111.787 274.617,-117.457 285.15,-118.606 283.568,-111.787"/>
</g>
<!-- Node4 -->
<g id="node4" class="node"><title>Node4</title>
<g id="a_node4"><a xlink:href="structpanda_1_1Electron_1_1datastore.html" target="_top" xlink:title="panda::Electron::datastore">
<polygon fill="white" stroke="black" points="506.099,-285.5 506.099,-305.5 639.365,-305.5 639.365,-285.5 506.099,-285.5"/>
<text text-anchor="middle" x="572.732" y="-292.5" font-family="Helvetica,sans-Serif" font-size="10.00">panda::Electron::datastore</text>
</a>
</g>
</g>
<!-- Node3&#45;&gt;Node4 -->
<g id="edge3" class="edge"><title>Node3&#45;&gt;Node4</title>
<path fill="none" stroke="midnightblue" d="M455.094,-268.791C478.584,-274.17 505.793,-280.401 528.021,-285.491"/>
<polygon fill="midnightblue" stroke="midnightblue" points="455.809,-265.364 445.28,-266.543 454.246,-272.187 455.809,-265.364"/>
</g>
<!-- Node5 -->
<g id="node5" class="node"><title>Node5</title>
<g id="a_node5"><a xlink:href="structpanda_1_1Muon_1_1datastore.html" target="_top" xlink:title="panda::Muon::datastore">
<polygon fill="white" stroke="black" points="511.932,-246.5 511.932,-266.5 633.531,-266.5 633.531,-246.5 511.932,-246.5"/>
<text text-anchor="middle" x="572.732" y="-253.5" font-family="Helvetica,sans-Serif" font-size="10.00">panda::Muon::datastore</text>
</a>
</g>
</g>
<!-- Node3&#45;&gt;Node5 -->
<g id="edge4" class="edge"><title>Node3&#45;&gt;Node5</title>
<path fill="none" stroke="midnightblue" d="M474.681,-256.5C487.099,-256.5 499.862,-256.5 511.885,-256.5"/>
<polygon fill="midnightblue" stroke="midnightblue" points="474.354,-253 464.354,-256.5 474.354,-260 474.354,-253"/>
</g>
<!-- Node7 -->
<g id="node7" class="node"><title>Node7</title>
<g id="a_node7"><a xlink:href="structpanda_1_1GenJet_1_1datastore.html" target="_top" xlink:title="panda::GenJet::datastore">
<polygon fill="white" stroke="black" points="508.318,-207.5 508.318,-227.5 637.146,-227.5 637.146,-207.5 508.318,-207.5"/>
<text text-anchor="middle" x="572.732" y="-214.5" font-family="Helvetica,sans-Serif" font-size="10.00">panda::GenJet::datastore</text>
</a>
</g>
</g>
<!-- Node6&#45;&gt;Node7 -->
<g id="edge6" class="edge"><title>Node6&#45;&gt;Node7</title>
<path fill="none" stroke="midnightblue" d="M421.282,-143.912C441.414,-159.831 474.008,-183.69 505.548,-198.5 512.906,-201.955 521.025,-204.915 528.981,-207.4"/>
<polygon fill="midnightblue" stroke="midnightblue" points="423.445,-141.159 413.457,-137.625 419.06,-146.617 423.445,-141.159"/>
</g>
<!-- Node8 -->
<g id="node8" class="node"><title>Node8</title>
<g id="a_node8"><a xlink:href="structpanda_1_1GenParticle_1_1datastore.html" target="_top" xlink:title="panda::GenParticle\l::datastore">
<polygon fill="white" stroke="black" points="521.94,-156.5 521.94,-188.5 623.523,-188.5 623.523,-156.5 521.94,-156.5"/>
<text text-anchor="start" x="529.94" y="-175.5" font-family="Helvetica,sans-Serif" font-size="10.00">panda::GenParticle</text>
<text text-anchor="middle" x="572.732" y="-163.5" font-family="Helvetica,sans-Serif" font-size="10.00">::datastore</text>
</a>
</g>
</g>
<!-- Node6&#45;&gt;Node8 -->
<g id="edge7" class="edge"><title>Node6&#45;&gt;Node8</title>
<path fill="none" stroke="midnightblue" d="M449.35,-140.164C471.921,-146.128 498.838,-153.24 521.673,-159.273"/>
<polygon fill="midnightblue" stroke="midnightblue" points="450.204,-136.77 439.642,-137.599 448.416,-143.537 450.204,-136.77"/>
</g>
<!-- Node9 -->
<g id="node9" class="node"><title>Node9</title>
<g id="a_node9"><a xlink:href="structpanda_1_1MicroJet_1_1datastore.html" target="_top" xlink:title="panda::MicroJet::datastore">
<polygon fill="white" stroke="black" points="505.548,-117.5 505.548,-137.5 639.915,-137.5 639.915,-117.5 505.548,-117.5"/>
<text text-anchor="middle" x="572.732" y="-124.5" font-family="Helvetica,sans-Serif" font-size="10.00">panda::MicroJet::datastore</text>
</a>
</g>
</g>
<!-- Node6&#45;&gt;Node9 -->
<g id="edge8" class="edge"><title>Node6&#45;&gt;Node9</title>
<path fill="none" stroke="midnightblue" d="M479.713,-127.5C488.287,-127.5 496.954,-127.5 505.365,-127.5"/>
<polygon fill="midnightblue" stroke="midnightblue" points="479.711,-124 469.711,-127.5 479.711,-131 479.711,-124"/>
</g>
<!-- Node12 -->
<g id="node12" class="node"><title>Node12</title>
<g id="a_node12"><a xlink:href="structpanda_1_1Parton_1_1datastore.html" target="_top" xlink:title="panda::Parton::datastore">
<polygon fill="white" stroke="black" points="509.708,-78.5 509.708,-98.5 635.755,-98.5 635.755,-78.5 509.708,-78.5"/>
<text text-anchor="middle" x="572.732" y="-85.5" font-family="Helvetica,sans-Serif" font-size="10.00">panda::Parton::datastore</text>
</a>
</g>
</g>
<!-- Node6&#45;&gt;Node12 -->
<g id="edge11" class="edge"><title>Node6&#45;&gt;Node12</title>
<path fill="none" stroke="midnightblue" d="M455.094,-115.209C478.584,-109.83 505.793,-103.599 528.021,-98.5094"/>
<polygon fill="midnightblue" stroke="midnightblue" points="454.246,-111.813 445.28,-117.457 455.809,-118.636 454.246,-111.813"/>
</g>
<!-- Node13 -->
<g id="node13" class="node"><title>Node13</title>
<g id="a_node13"><a xlink:href="structpanda_1_1PFCand_1_1datastore.html" target="_top" xlink:title="panda::PFCand::datastore">
<polygon fill="white" stroke="black" points="506.098,-39.5 506.098,-59.5 639.365,-59.5 639.365,-39.5 506.098,-39.5"/>
<text text-anchor="middle" x="572.732" y="-46.5" font-family="Helvetica,sans-Serif" font-size="10.00">panda::PFCand::datastore</text>
</a>
</g>
</g>
<!-- Node6&#45;&gt;Node13 -->
<g id="edge12" class="edge"><title>Node6&#45;&gt;Node13</title>
<path fill="none" stroke="midnightblue" d="M460,-113.537C463.313,-112.023 466.523,-110.349 469.548,-108.5 489.675,-96.1969 485.555,-82.0186 505.548,-69.5 511.957,-65.4868 519.22,-62.2376 526.529,-59.6195"/>
<polygon fill="midnightblue" stroke="midnightblue" points="458.411,-110.404 450.452,-117.397 461.034,-116.894 458.411,-110.404"/>
</g>
<!-- Node14 -->
<g id="node14" class="node"><title>Node14</title>
<g id="a_node14"><a xlink:href="structpanda_1_1Tau_1_1datastore.html" target="_top" xlink:title="panda::Tau::datastore">
<polygon fill="white" stroke="black" points="515.822,-0.5 515.822,-20.5 629.642,-20.5 629.642,-0.5 515.822,-0.5"/>
<text text-anchor="middle" x="572.732" y="-7.5" font-family="Helvetica,sans-Serif" font-size="10.00">panda::Tau::datastore</text>
</a>
</g>
</g>
<!-- Node6&#45;&gt;Node14 -->
<g id="edge13" class="edge"><title>Node6&#45;&gt;Node14</title>
<path fill="none" stroke="midnightblue" d="M464.569,-112.252C466.304,-111.092 467.97,-109.843 469.548,-108.5 498.622,-83.7522 476.741,-55.5587 505.548,-30.5 510.257,-26.4034 515.784,-23.1459 521.602,-20.5556"/>
<polygon fill="midnightblue" stroke="midnightblue" points="462.435,-109.434 455.398,-117.354 465.838,-115.551 462.435,-109.434"/>
</g>
<!-- Node10 -->
<g id="node10" class="node"><title>Node10</title>
<g id="a_node10"><a xlink:href="structpanda_1_1Jet_1_1datastore.html" target="_top" xlink:title="panda::Jet::datastore">
<polygon fill="white" stroke="black" points="675.915,-117.5 675.915,-137.5 785.846,-137.5 785.846,-117.5 675.915,-117.5"/>
<text text-anchor="middle" x="730.881" y="-124.5" font-family="Helvetica,sans-Serif" font-size="10.00">panda::Jet::datastore</text>
</a>
</g>
</g>
<!-- Node9&#45;&gt;Node10 -->
<g id="edge9" class="edge"><title>Node9&#45;&gt;Node10</title>
<path fill="none" stroke="midnightblue" d="M650.117,-127.5C658.807,-127.5 667.526,-127.5 675.842,-127.5"/>
<polygon fill="midnightblue" stroke="midnightblue" points="649.953,-124 639.953,-127.5 649.953,-131 649.953,-124"/>
</g>
<!-- Node11 -->
<g id="node11" class="node"><title>Node11</title>
<g id="a_node11"><a xlink:href="structpanda_1_1FatJet_1_1datastore.html" target="_top" xlink:title="panda::FatJet::datastore">
<polygon fill="white" stroke="black" points="821.846,-117.5 821.846,-137.5 946.224,-137.5 946.224,-117.5 821.846,-117.5"/>
<text text-anchor="middle" x="884.035" y="-124.5" font-family="Helvetica,sans-Serif" font-size="10.00">panda::FatJet::datastore</text>
</a>
</g>
</g>
<!-- Node10&#45;&gt;Node11 -->
<g id="edge10" class="edge"><title>Node10&#45;&gt;Node11</title>
<path fill="none" stroke="midnightblue" d="M796.243,-127.5C804.723,-127.5 813.396,-127.5 821.821,-127.5"/>
<polygon fill="midnightblue" stroke="midnightblue" points="796.024,-124 786.024,-127.5 796.024,-131 796.024,-124"/>
</g>
</g>
</svg>
        <g id="navigator" transform="translate(0 0)" fill="#404254">
                <rect fill="#f2f5e9" fill-opacity="0.5" stroke="#606060" stroke-width=".5" x="0" y="0" width="60" height="60"/>
                <use id="zoomplus" xlink:href="#zoomPlus" x="17" y="9" onmousedown="handleZoom(evt,'in')"/>
                <use id="zoomminus" xlink:href="#zoomMin" x="42" y="9" onmousedown="handleZoom(evt,'out')"/>
                <use id="reset" xlink:href="#resetDef" x="30" y="36" onmousedown="handleReset()"/>
                <g id="arrowUp" xlink:href="#dirArrow" transform="translate(30 24)" onmousedown="handlePan(0,-1)">
                  <use xlink:href="#rim" fill="#404040">
                        <set attributeName="fill" to="#808080" begin="arrowUp.mouseover" end="arrowUp.mouseout"/>
                  </use>
                  <path fill="none" stroke="white" stroke-width="1.5" d="M0,-3.0v7 M-2.5,-0.5L0,-3.0L2.5,-0.5"/>
                </g>
                <g id="arrowRight" xlink:href="#dirArrow" transform="rotate(90) translate(36 -43)" onmousedown="handlePan(1,0)">
                  <use xlink:href="#rim" fill="#404040">
                        <set attributeName="fill" to="#808080" begin="arrowRight.mouseover" end="arrowRight.mouseout"/>
                  </use>
                  <path fill="none" stroke="white" stroke-width="1.5" d="M0,-3.0v7 M-2.5,-0.5L0,-3.0L2.5,-0.5"/>
                </g>
                <g id="arrowDown" xlink:href="#dirArrow" transform="rotate(180) translate(-30 -48)" onmousedown="handlePan(0,1)">
                  <use xlink:href="#rim" fill="#404040">
                        <set attributeName="fill" to="#808080" begin="arrowDown.mouseover" end="arrowDown.mouseout"/>
                  </use>
                  <path fill="none" stroke="white" stroke-width="1.5" d="M0,-3.0v7 M-2.5,-0.5L0,-3.0L2.5,-0.5"/>
                </g>
                <g id="arrowLeft" xlink:href="#dirArrow" transform="rotate(270) translate(-36 17)" onmousedown="handlePan(-1,0)">
                  <use xlink:href="#rim" fill="#404040">
                        <set attributeName="fill" to="#808080" begin="arrowLeft.mouseover" end="arrowLeft.mouseout"/>
                  </use>
                  <path fill="none" stroke="white" stroke-width="1.5" d="M0,-3.0v7 M-2.5,-0.5L0,-3.0L2.5,-0.5"/>
                </g>
        </g>
        <svg viewBox="0 0 15 15" width="100%" height="30px" preserveAspectRatio="xMaxYMin meet">
         <g id="arrow_out" transform="scale(0.3 0.3)">
          <a xlink:href="structpanda_1_1ContainerElement_1_1datastore__inherit__graph_org.svg" target="_base">
           <rect id="button" ry="5" rx="5" y="6" x="6" height="38" width="38"
                fill="#f2f5e9" fill-opacity="0.5" stroke="#606060" stroke-width="1.0"/>
           <path id="arrow"
             d="M 11.500037,31.436501 C 11.940474,20.09759 22.043105,11.32322 32.158766,21.979434 L 37.068811,17.246167 C 37.068811,17.246167 37.088388,32 37.088388,32 L 22.160133,31.978069 C 22.160133,31.978069 26.997745,27.140456 26.997745,27.140456 C 18.528582,18.264221 13.291696,25.230495 11.500037,31.436501 z"
             style="fill:#404040;"/>
          </a>
         </g>
        </svg>
</svg>
