<?xml version="1.0" encoding="UTF-8" standalone="no"?>
<!DOCTYPE svg PUBLIC "-//W3C//DTD SVG 1.1//EN"
 "http://www.w3.org/Graphics/SVG/1.1/DTD/svg11.dtd">
<!-- Generated by graphviz version 2.38.0 (20140413.2041)
 -->
<!-- Title: panda::Muon::datastore::deallocate Pages: 1 -->
<svg width="287pt" height="41pt"
 viewBox="0.00 0.00 287.20 41.00" xmlns="http://www.w3.org/2000/svg" xmlns:xlink="http://www.w3.org/1999/xlink">
<g id="graph0" class="graph" transform="scale(1 1) rotate(0) translate(4 37)">
<title>panda::Muon::datastore::deallocate</title>
<polygon fill="white" stroke="none" points="-4,4 -4,-37 283.198,-37 283.198,4 -4,4"/>
<!-- Node1 -->
<g id="node1" class="node"><title>Node1</title>
<polygon fill="#bfbfbf" stroke="black" points="0,-0.5 0,-32.5 121.599,-32.5 121.599,-0.5 0,-0.5"/>
<text text-anchor="start" x="8" y="-19.5" font-family="Helvetica,sans-Serif" font-size="10.00">panda::Muon::datastore</text>
<text text-anchor="middle" x="60.7995" y="-7.5" font-family="Helvetica,sans-Serif" font-size="10.00">::deallocate</text>
</g>
<!-- Node2 -->
<g id="node2" class="node"><title>Node2</title>
<g id="a_node2"><a xlink:href="structpanda_1_1Muon_1_1datastore.html#a399cd7ed5610fc6c99ac1d3365ddc354" target="_top" xlink:title="panda::Muon::datastore\l::~datastore">
<polygon fill="white" stroke="black" points="157.599,-0.5 157.599,-32.5 279.198,-32.5 279.198,-0.5 157.599,-0.5"/>
<text text-anchor="start" x="165.599" y="-19.5" font-family="Helvetica,sans-Serif" font-size="10.00">panda::Muon::datastore</text>
<text text-anchor="middle" x="218.398" y="-7.5" font-family="Helvetica,sans-Serif" font-size="10.00">::~datastore</text>
</a>
</g>
</g>
<!-- Node1&#45;&gt;Node2 -->
<g id="edge1" class="edge"><title>Node1&#45;&gt;Node2</title>
<path fill="none" stroke="midnightblue" d="M132.156,-16.5C140.587,-16.5 149.135,-16.5 157.4,-16.5"/>
<polygon fill="midnightblue" stroke="midnightblue" points="131.958,-13.0001 121.958,-16.5 131.958,-20.0001 131.958,-13.0001"/>
</g>
</g>
</svg>
