<?xml version="1.0" encoding="UTF-8" standalone="no"?>
<!DOCTYPE svg PUBLIC "-//W3C//DTD SVG 1.1//EN"
 "http://www.w3.org/Graphics/SVG/1.1/DTD/svg11.dtd">
<!-- Generated by graphviz version 2.38.0 (20140413.2041)
 -->
<!-- Title: panda::Photon::datastore::setAddress Pages: 1 -->
<svg width="798pt" height="170pt"
 viewBox="0.00 0.00 798.30 170.00" xmlns="http://www.w3.org/2000/svg" xmlns:xlink="http://www.w3.org/1999/xlink">
<g id="graph0" class="graph" transform="scale(1 1) rotate(0) translate(4 166)">
<title>panda::Photon::datastore::setAddress</title>
<polygon fill="white" stroke="none" points="-4,4 -4,-166 794.304,-166 794.304,4 -4,4"/>
<!-- Node1 -->
<g id="node1" class="node"><title>Node1</title>
<polygon fill="#bfbfbf" stroke="black" points="2.84217e-14,-86.5 2.84217e-14,-118.5 128.277,-118.5 128.277,-86.5 2.84217e-14,-86.5"/>
<text text-anchor="start" x="8" y="-105.5" font-family="Helvetica,sans-Serif" font-size="10.00">panda::Photon::datastore</text>
<text text-anchor="middle" x="64.1385" y="-93.5" font-family="Helvetica,sans-Serif" font-size="10.00">::setAddress</text>
</g>
<!-- Node2 -->
<g id="node2" class="node"><title>Node2</title>
<g id="a_node2"><a xlink:href="structpanda_1_1Particle_1_1datastore.html#a3e4a1f8d223d8378ef2b92a6d4ccd2b0" target="_top" xlink:title="panda::Particle::datastore\l::setAddress">
<polygon fill="white" stroke="black" points="164.277,-109.5 164.277,-141.5 294.203,-141.5 294.203,-109.5 164.277,-109.5"/>
<text text-anchor="start" x="172.277" y="-128.5" font-family="Helvetica,sans-Serif" font-size="10.00">panda::Particle::datastore</text>
<text text-anchor="middle" x="229.24" y="-116.5" font-family="Helvetica,sans-Serif" font-size="10.00">::setAddress</text>
</a>
</g>
</g>
<!-- Node1&#45;&gt;Node2 -->
<g id="edge1" class="edge"><title>Node1&#45;&gt;Node2</title>
<path fill="none" stroke="midnightblue" d="M128.665,-111.458C137.022,-112.637 145.646,-113.853 154.16,-115.053"/>
<polygon fill="midnightblue" stroke="midnightblue" points="153.691,-118.522 164.082,-116.453 154.668,-111.59 153.691,-118.522"/>
</g>
<!-- Node4 -->
<g id="node4" class="node"><title>Node4</title>
<g id="a_node4"><a xlink:href="namespacepanda_1_1utils.html#abf9c62e588560197c2bae9932e6a6e05" target="_top" xlink:title="Set address. ">
<polygon fill="white" stroke="black" points="333.536,-70.5 333.536,-90.5 456.236,-90.5 456.236,-70.5 333.536,-70.5"/>
<text text-anchor="middle" x="394.886" y="-77.5" font-family="Helvetica,sans-Serif" font-size="10.00">panda::utils::setAddress</text>
</a>
</g>
</g>
<!-- Node1&#45;&gt;Node4 -->
<g id="edge12" class="edge"><title>Node1&#45;&gt;Node4</title>
<path fill="none" stroke="midnightblue" d="M128.524,-98.2582C184.321,-94.5242 265.465,-89.094 323.312,-85.2229"/>
<polygon fill="midnightblue" stroke="midnightblue" points="323.725,-88.7031 333.469,-84.5431 323.258,-81.7188 323.725,-88.7031"/>
</g>
<!-- Node3 -->
<g id="node3" class="node"><title>Node3</title>
<g id="a_node3"><a xlink:href="structpanda_1_1ContainerElement_1_1datastore.html#ae59f1a9b346ef85225e9b3691c6728a1" target="_top" xlink:title="panda::ContainerElement\l::datastore::setAddress">
<polygon fill="white" stroke="black" points="330.203,-109.5 330.203,-141.5 459.57,-141.5 459.57,-109.5 330.203,-109.5"/>
<text text-anchor="start" x="338.203" y="-128.5" font-family="Helvetica,sans-Serif" font-size="10.00">panda::ContainerElement</text>
<text text-anchor="middle" x="394.886" y="-116.5" font-family="Helvetica,sans-Serif" font-size="10.00">::datastore::setAddress</text>
</a>
</g>
</g>
<!-- Node2&#45;&gt;Node3 -->
<g id="edge2" class="edge"><title>Node2&#45;&gt;Node3</title>
<path fill="none" stroke="midnightblue" d="M294.448,-125.5C302.787,-125.5 311.383,-125.5 319.866,-125.5"/>
<polygon fill="midnightblue" stroke="midnightblue" points="320.132,-129 330.132,-125.5 320.132,-122 320.132,-129"/>
</g>
<!-- Node2&#45;&gt;Node4 -->
<g id="edge3" class="edge"><title>Node2&#45;&gt;Node4</title>
<path fill="none" stroke="midnightblue" d="M288.858,-109.381C308.049,-104.104 329.096,-98.3163 347.277,-93.3168"/>
<polygon fill="midnightblue" stroke="midnightblue" points="348.339,-96.6549 357.053,-90.6287 346.483,-89.9054 348.339,-96.6549"/>
</g>
<!-- Node5 -->
<g id="node5" class="node"><title>Node5</title>
<g id="a_node5"><a xlink:href="classpanda_1_1utils_1_1BranchName.html#a13958ff4a9d554d2c057c600b4f70412" target="_top" xlink:title="Prepend the branch name with &lt;objName.&gt;. ">
<polygon fill="white" stroke="black" points="652.608,-129.5 652.608,-161.5 783.636,-161.5 783.636,-129.5 652.608,-129.5"/>
<text text-anchor="start" x="660.608" y="-148.5" font-family="Helvetica,sans-Serif" font-size="10.00">panda::utils::BranchName</text>
<text text-anchor="middle" x="718.122" y="-136.5" font-family="Helvetica,sans-Serif" font-size="10.00">::fullName</text>
</a>
</g>
</g>
<!-- Node4&#45;&gt;Node5 -->
<g id="edge4" class="edge"><title>Node4&#45;&gt;Node5</title>
<path fill="none" stroke="midnightblue" d="M435.552,-90.5631C453.783,-95.056 475.721,-100.277 495.57,-104.5 544.274,-114.862 599.322,-125.056 642.362,-132.688"/>
<polygon fill="midnightblue" stroke="midnightblue" points="642.016,-136.181 652.473,-134.473 643.233,-129.287 642.016,-136.181"/>
</g>
<!-- Node6 -->
<g id="node6" class="node"><title>Node6</title>
<g id="a_node6"><a xlink:href="namespacepanda_1_1utils.html#a01665f786d6a2acedb8f008f3fc9fc84" target="_top" xlink:title="Set status of a branch. ">
<polygon fill="white" stroke="black" points="495.57,-51.5 495.57,-71.5 609.94,-71.5 609.94,-51.5 495.57,-51.5"/>
<text text-anchor="middle" x="552.755" y="-58.5" font-family="Helvetica,sans-Serif" font-size="10.00">panda::utils::setStatus</text>
</a>
</g>
</g>
<!-- Node4&#45;&gt;Node6 -->
<g id="edge5" class="edge"><title>Node4&#45;&gt;Node6</title>
<path fill="none" stroke="midnightblue" d="M456.596,-73.0997C466.012,-71.9519 475.781,-70.7611 485.315,-69.5988"/>
<polygon fill="midnightblue" stroke="midnightblue" points="486.038,-73.0367 495.541,-68.3523 485.191,-66.0881 486.038,-73.0367"/>
</g>
<!-- Node7 -->
<g id="node7" class="node"><title>Node7</title>
<g id="a_node7"><a xlink:href="classpanda_1_1utils_1_1BranchName.html#a6cc8a6df7c5b12a0221fd49773cca6a7" target="_top" xlink:title="Is the name included and not vetoed? ">
<polygon fill="white" stroke="black" points="645.94,-90.5 645.94,-110.5 790.304,-110.5 790.304,-90.5 645.94,-90.5"/>
<text text-anchor="middle" x="718.122" y="-97.5" font-family="Helvetica,sans-Serif" font-size="10.00">panda::utils::BranchName::in</text>
</a>
</g>
</g>
<!-- Node4&#45;&gt;Node7 -->
<g id="edge10" class="edge"><title>Node4&#45;&gt;Node7</title>
<path fill="none" stroke="midnightblue" d="M456.308,-84.2618C506.953,-87.415 579.726,-91.9458 635.54,-95.4207"/>
<polygon fill="midnightblue" stroke="midnightblue" points="635.556,-98.9284 645.755,-96.0567 635.991,-91.942 635.556,-98.9284"/>
</g>
<!-- Node9 -->
<g id="node9" class="node"><title>Node9</title>
<g id="a_node9"><a xlink:href="namespacepanda_1_1utils.html#aafa411773a4b0ee829d99e6e5a0abdcd" target="_top" xlink:title="Check status of a branch. ">
<polygon fill="white" stroke="black" points="654.547,-0.5 654.547,-20.5 781.697,-20.5 781.697,-0.5 654.547,-0.5"/>
<text text-anchor="middle" x="718.122" y="-7.5" font-family="Helvetica,sans-Serif" font-size="10.00">panda::utils::checkStatus</text>
</a>
</g>
</g>
<!-- Node4&#45;&gt;Node9 -->
<g id="edge11" class="edge"><title>Node4&#45;&gt;Node9</title>
<path fill="none" stroke="midnightblue" d="M417.18,-70.484C437.039,-61.5517 467.704,-48.793 495.57,-41.5 544.371,-28.728 600.683,-20.9362 644.322,-16.3587"/>
<polygon fill="midnightblue" stroke="midnightblue" points="644.685,-19.84 654.28,-15.3468 643.977,-12.8759 644.685,-19.84"/>
</g>
<!-- Node6&#45;&gt;Node5 -->
<g id="edge8" class="edge"><title>Node6&#45;&gt;Node5</title>
<path fill="none" stroke="midnightblue" d="M567.585,-71.5109C585.163,-83.9212 616.739,-105.181 645.94,-119.5 650.218,-121.598 654.711,-123.623 659.272,-125.553"/>
<polygon fill="midnightblue" stroke="midnightblue" points="658.099,-128.854 668.681,-129.376 660.734,-122.369 658.099,-128.854"/>
</g>
<!-- Node6&#45;&gt;Node7 -->
<g id="edge6" class="edge"><title>Node6&#45;&gt;Node7</title>
<path fill="none" stroke="midnightblue" d="M595.826,-71.5435C616.978,-76.593 642.806,-82.7587 665.184,-88.1009"/>
<polygon fill="midnightblue" stroke="midnightblue" points="664.654,-91.5728 675.194,-90.4906 666.28,-84.7641 664.654,-91.5728"/>
</g>
<!-- Node8 -->
<g id="node8" class="node"><title>Node8</title>
<g id="a_node8"><a xlink:href="classpanda_1_1utils_1_1BranchName.html#ae3332329bf2afae5ed8e7c35e5d77ffa" target="_top" xlink:title="Is the name included and vetoed? ">
<polygon fill="white" stroke="black" points="652.608,-39.5 652.608,-71.5 783.636,-71.5 783.636,-39.5 652.608,-39.5"/>
<text text-anchor="start" x="660.608" y="-58.5" font-family="Helvetica,sans-Serif" font-size="10.00">panda::utils::BranchName</text>
<text text-anchor="middle" x="718.122" y="-46.5" font-family="Helvetica,sans-Serif" font-size="10.00">::vetoed</text>
</a>
</g>
</g>
<!-- Node6&#45;&gt;Node8 -->
<g id="edge7" class="edge"><title>Node6&#45;&gt;Node8</title>
<path fill="none" stroke="midnightblue" d="M609.977,-59.4351C620.328,-59.055 631.286,-58.6525 642.088,-58.2558"/>
<polygon fill="midnightblue" stroke="midnightblue" points="642.507,-61.7429 652.372,-57.8781 642.25,-54.7476 642.507,-61.7429"/>
</g>
<!-- Node6&#45;&gt;Node9 -->
<g id="edge9" class="edge"><title>Node6&#45;&gt;Node9</title>
<path fill="none" stroke="midnightblue" d="M581.012,-51.4496C599.272,-44.8624 623.912,-36.2532 645.94,-29.5 652.918,-27.3607 660.322,-25.2311 667.615,-23.2131"/>
<polygon fill="midnightblue" stroke="midnightblue" points="668.711,-26.5424 677.441,-20.5402 666.873,-19.7878 668.711,-26.5424"/>
</g>
</g>
</svg>
