<?xml version="1.0" encoding="UTF-8" standalone="no"?>
<!DOCTYPE svg PUBLIC "-//W3C//DTD SVG 1.1//EN"
 "http://www.w3.org/Graphics/SVG/1.1/DTD/svg11.dtd">
<!-- Generated by graphviz version 2.38.0 (20140413.2041)
 -->
<!-- Title: panda::Photon::datastore Pages: 1 -->
<svg width="302pt" height="192pt"
 viewBox="0.00 0.00 302.10 192.00" xmlns="http://www.w3.org/2000/svg" xmlns:xlink="http://www.w3.org/1999/xlink">
<g id="graph0" class="graph" transform="scale(1 1) rotate(0) translate(4 188)">
<title>panda::Photon::datastore</title>
<polygon fill="white" stroke="none" points="-4,4 -4,-188 298.104,-188 298.104,4 -4,4"/>
<!-- Node1 -->
<g id="node1" class="node"><title>Node1</title>
<polygon fill="#bfbfbf" stroke="black" points="84.8245,-0.5 84.8245,-20.5 213.101,-20.5 213.101,-0.5 84.8245,-0.5"/>
<text text-anchor="middle" x="148.963" y="-7.5" font-family="Helvetica,sans-Serif" font-size="10.00">panda::Photon::datastore</text>
</g>
<!-- Node2 -->
<g id="node2" class="node"><title>Node2</title>
<g id="a_node2"><a xlink:href="structpanda_1_1Particle_1_1datastore.html" target="_top" xlink:title="panda::Particle::datastore">
<polygon fill="white" stroke="black" points="0,-93.5 0,-113.5 129.926,-113.5 129.926,-93.5 0,-93.5"/>
<text text-anchor="middle" x="64.963" y="-100.5" font-family="Helvetica,sans-Serif" font-size="10.00">panda::Particle::datastore</text>
</a>
</g>
</g>
<!-- Node2&#45;&gt;Node1 -->
<g id="edge1" class="edge"><title>Node2&#45;&gt;Node1</title>
<path fill="none" stroke="midnightblue" d="M80.1801,-86.0148C97.9115,-66.8058 126.57,-35.7587 140.635,-20.5215"/>
<polygon fill="midnightblue" stroke="midnightblue" points="77.5354,-83.7198 73.3243,-93.4419 82.679,-88.4678 77.5354,-83.7198"/>
</g>
<!-- Node3 -->
<g id="node3" class="node"><title>Node3</title>
<g id="a_node3"><a xlink:href="structpanda_1_1ContainerElement_1_1datastore.html" target="_top" xlink:title="panda::ContainerElement\l::datastore">
<polygon fill="white" stroke="black" points="0.2795,-151.5 0.2795,-183.5 129.647,-183.5 129.647,-151.5 0.2795,-151.5"/>
<text text-anchor="start" x="8.2795" y="-170.5" font-family="Helvetica,sans-Serif" font-size="10.00">panda::ContainerElement</text>
<text text-anchor="middle" x="64.963" y="-158.5" font-family="Helvetica,sans-Serif" font-size="10.00">::datastore</text>
</a>
</g>
</g>
<!-- Node3&#45;&gt;Node2 -->
<g id="edge2" class="edge"><title>Node3&#45;&gt;Node2</title>
<path fill="none" stroke="midnightblue" d="M64.963,-141.422C64.963,-131.672 64.963,-121.11 64.963,-113.79"/>
<polygon fill="midnightblue" stroke="midnightblue" points="61.4631,-141.491 64.963,-151.492 68.4631,-141.492 61.4631,-141.491"/>
</g>
<!-- Node4 -->
<g id="node4" class="node"><title>Node4</title>
<g id="a_node4"><a xlink:href="classpanda_1_1ContainerBase.html" target="_top" xlink:title="Base class for all containers. ">
<polygon fill="white" stroke="black" points="148.222,-93.5 148.222,-113.5 263.703,-113.5 263.703,-93.5 148.222,-93.5"/>
<text text-anchor="middle" x="205.963" y="-100.5" font-family="Helvetica,sans-Serif" font-size="10.00">panda::ContainerBase</text>
</a>
</g>
</g>
<!-- Node4&#45;&gt;Node1 -->
<g id="edge3" class="edge"><title>Node4&#45;&gt;Node1</title>
<path fill="none" stroke="#9a32cd" stroke-dasharray="5,2" d="M194.821,-84.7111C182.742,-65.4276 163.945,-35.4186 154.614,-20.5215"/>
<polygon fill="#9a32cd" stroke="#9a32cd" points="192.015,-86.8251 200.289,-93.4419 197.947,-83.1092 192.015,-86.8251"/>
<text text-anchor="start" x="187.963" y="-66" font-family="Helvetica,sans-Serif" font-size="10.00"> superClusterContainer</text>
<text text-anchor="middle" x="241.034" y="-54" font-family="Helvetica,sans-Serif" font-size="10.00">_</text>
<text text-anchor="middle" x="241.034" y="-42" font-family="Helvetica,sans-Serif" font-size="10.00">matchedGenContainer_</text>
</g>
<!-- Node5 -->
<g id="node5" class="node"><title>Node5</title>
<g id="a_node5"><a xlink:href="classpanda_1_1Object.html" target="_top" xlink:title="panda::Object">
<polygon fill="white" stroke="black" points="166.839,-157.5 166.839,-177.5 245.087,-177.5 245.087,-157.5 166.839,-157.5"/>
<text text-anchor="middle" x="205.963" y="-164.5" font-family="Helvetica,sans-Serif" font-size="10.00">panda::Object</text>
</a>
</g>
</g>
<!-- Node5&#45;&gt;Node4 -->
<g id="edge4" class="edge"><title>Node5&#45;&gt;Node4</title>
<path fill="none" stroke="midnightblue" d="M205.963,-147.235C205.963,-136.057 205.963,-122.491 205.963,-113.686"/>
<polygon fill="midnightblue" stroke="midnightblue" points="202.463,-147.352 205.963,-157.352 209.463,-147.352 202.463,-147.352"/>
</g>
</g>
</svg>
