<?xml version="1.0" encoding="UTF-8" standalone="no"?>
<!DOCTYPE svg PUBLIC "-//W3C//DTD SVG 1.1//EN"
 "http://www.w3.org/Graphics/SVG/1.1/DTD/svg11.dtd">
<!-- Generated by graphviz version 2.38.0 (20140413.2041)
 -->
<!-- Title: panda::FatJet::datastore::setAddress Pages: 1 -->
<!--zoomable 188 -->
<svg id="main" version="1.1" xmlns="http://www.w3.org/2000/svg" xmlns:xlink="http://www.w3.org/1999/xlink" xml:space="preserve" onload="init(evt)">
<style type="text/css"><![CDATA[
.edge:hover path { stroke: red; }
.edge:hover polygon { stroke: red; fill: red; }
]]></style>
<script type="text/javascript"><![CDATA[
var edges = document.getElementsByTagName('g');
if (edges && edges.length) {
  for (var i=0;i<edges.length;i++) {
    if (edges[i].id.substr(0,4)=='edge') {
      edges[i].setAttribute('class','edge');
    }
  }
}
]]></script>
        <defs>
                <circle id="rim" cx="0" cy="0" r="7"/>
                <circle id="rim2" cx="0" cy="0" r="3.5"/>
                <g id="zoomPlus">
                        <use xlink:href="#rim" fill="#404040">
                                <set attributeName="fill" to="#808080" begin="zoomplus.mouseover" end="zoomplus.mouseout"/>
                        </use>
                        <path d="M-4,0h8M0,-4v8" fill="none" stroke="white" stroke-width="1.5" pointer-events="none"/>
                </g>
                <g id="zoomMin">
                        <use xlink:href="#rim" fill="#404040">
                                <set attributeName="fill" to="#808080" begin="zoomminus.mouseover" end="zoomminus.mouseout"/>
                        </use>
                        <path d="M-4,0h8" fill="none" stroke="white" stroke-width="1.5" pointer-events="none"/>
                </g>
                <g id="dirArrow">
                        <path fill="none" stroke="white" stroke-width="1.5" d="M0,-3.0v7 M-2.5,-0.5L0,-3.0L2.5,-0.5"/>
                </g>
               <g id="resetDef">
                       <use xlink:href="#rim2" fill="#404040">
                               <set attributeName="fill" to="#808080" begin="reset.mouseover" end="reset.mouseout"/>
                       </use>
               </g>
        </defs>

<script type="text/javascript">
var viewWidth = 1285;
var viewHeight = 188;
var sectionId = 'dynsection-9';
</script>
<script xlink:href="svgpan.js"/>
<svg id="graph" class="graph">
<g id="viewport">
<title>panda::FatJet::datastore::setAddress</title>
<polygon fill="white" stroke="none" points="-4,4 -4,-184 1280.96,-184 1280.96,4 -4,4"/>
<!-- Node1 -->
<g id="node1" class="node"><title>Node1</title>
<polygon fill="#bfbfbf" stroke="black" points="7.81597e-14,-136.5 7.81597e-14,-168.5 124.378,-168.5 124.378,-136.5 7.81597e-14,-136.5"/>
<text text-anchor="start" x="8" y="-155.5" font-family="Helvetica,sans-Serif" font-size="10.00">panda::FatJet::datastore</text>
<text text-anchor="middle" x="62.189" y="-143.5" font-family="Helvetica,sans-Serif" font-size="10.00">::setAddress</text>
</g>
<!-- Node2 -->
<g id="node2" class="node"><title>Node2</title>
<g id="a_node2"><a xlink:href="structpanda_1_1Jet_1_1datastore.html#aba38557e272994b9913ffbe323892d7d" target="_top" xlink:title="panda::Jet::datastore\l::setAddress">
<polygon fill="white" stroke="black" points="160.378,-114.5 160.378,-146.5 270.309,-146.5 270.309,-114.5 160.378,-114.5"/>
<text text-anchor="start" x="168.378" y="-133.5" font-family="Helvetica,sans-Serif" font-size="10.00">panda::Jet::datastore</text>
<text text-anchor="middle" x="215.344" y="-121.5" font-family="Helvetica,sans-Serif" font-size="10.00">::setAddress</text>
</a>
</g>
</g>
<!-- Node1&#45;&gt;Node2 -->
<g id="edge1" class="edge"><title>Node1&#45;&gt;Node2</title>
<path fill="none" stroke="midnightblue" d="M124.669,-143.552C133.037,-142.334 141.643,-141.081 150.059,-139.856"/>
<polygon fill="midnightblue" stroke="midnightblue" points="150.809,-143.284 160.2,-138.38 149.8,-136.357 150.809,-143.284"/>
</g>
<!-- Node7 -->
<g id="node7" class="node"><title>Node7</title>
<g id="a_node7"><a xlink:href="namespacepanda_1_1utils.html#abf9c62e588560197c2bae9932e6a6e05" target="_top" xlink:title="Set address. ">
<polygon fill="white" stroke="black" points="820.19,-89.5 820.19,-109.5 942.89,-109.5 942.89,-89.5 820.19,-89.5"/>
<text text-anchor="middle" x="881.54" y="-96.5" font-family="Helvetica,sans-Serif" font-size="10.00">panda::utils::setAddress</text>
</a>
</g>
</g>
<!-- Node1&#45;&gt;Node7 -->
<g id="edge18" class="edge"><title>Node1&#45;&gt;Node7</title>
<path fill="none" stroke="midnightblue" d="M124.416,-159.746C186.744,-166.488 286.203,-175.5 372.493,-175.5 372.493,-175.5 372.493,-175.5 546.803,-175.5 657.977,-175.5 784.898,-134.911 845.175,-113.057"/>
<polygon fill="midnightblue" stroke="midnightblue" points="846.429,-116.326 854.609,-109.592 844.015,-109.755 846.429,-116.326"/>
</g>
<!-- Node3 -->
<g id="node3" class="node"><title>Node3</title>
<g id="a_node3"><a xlink:href="structpanda_1_1MicroJet_1_1datastore.html#a475b19becb4a39eb0248e8b9c785feb3" target="_top" xlink:title="panda::MicroJet::datastore\l::setAddress">
<polygon fill="white" stroke="black" points="306.309,-76.5 306.309,-108.5 440.676,-108.5 440.676,-76.5 306.309,-76.5"/>
<text text-anchor="start" x="314.309" y="-95.5" font-family="Helvetica,sans-Serif" font-size="10.00">panda::MicroJet::datastore</text>
<text text-anchor="middle" x="373.493" y="-83.5" font-family="Helvetica,sans-Serif" font-size="10.00">::setAddress</text>
</a>
</g>
</g>
<!-- Node2&#45;&gt;Node3 -->
<g id="edge2" class="edge"><title>Node2&#45;&gt;Node3</title>
<path fill="none" stroke="midnightblue" d="M270.519,-117.316C278.967,-115.26 287.828,-113.104 296.651,-110.957"/>
<polygon fill="midnightblue" stroke="midnightblue" points="297.683,-114.308 306.572,-108.542 296.028,-107.506 297.683,-114.308"/>
</g>
<!-- Node2&#45;&gt;Node7 -->
<g id="edge17" class="edge"><title>Node2&#45;&gt;Node7</title>
<path fill="none" stroke="midnightblue" d="M270.529,-130.227C371.203,-129.376 593.866,-125.875 780.857,-111.5 790.273,-110.776 800.169,-109.821 809.919,-108.765"/>
<polygon fill="midnightblue" stroke="midnightblue" points="810.454,-112.227 820.001,-107.634 809.673,-105.271 810.454,-112.227"/>
</g>
<!-- Node4 -->
<g id="node4" class="node"><title>Node4</title>
<g id="a_node4"><a xlink:href="structpanda_1_1ParticleM_1_1datastore.html#ab9f9e7afb145c12941baa10892ed1811" target="_top" xlink:title="panda::ParticleM::datastore\l::setAddress">
<polygon fill="white" stroke="black" points="476.676,-38.5 476.676,-70.5 614.931,-70.5 614.931,-38.5 476.676,-38.5"/>
<text text-anchor="start" x="484.676" y="-57.5" font-family="Helvetica,sans-Serif" font-size="10.00">panda::ParticleM::datastore</text>
<text text-anchor="middle" x="545.803" y="-45.5" font-family="Helvetica,sans-Serif" font-size="10.00">::setAddress</text>
</a>
</g>
</g>
<!-- Node3&#45;&gt;Node4 -->
<g id="edge3" class="edge"><title>Node3&#45;&gt;Node4</title>
<path fill="none" stroke="midnightblue" d="M440.827,-77.6994C449.218,-75.8271 457.866,-73.8976 466.422,-71.9885"/>
<polygon fill="midnightblue" stroke="midnightblue" points="467.406,-75.3552 476.404,-69.7615 465.881,-68.5232 467.406,-75.3552"/>
</g>
<!-- Node3&#45;&gt;Node7 -->
<g id="edge16" class="edge"><title>Node3&#45;&gt;Node7</title>
<path fill="none" stroke="midnightblue" d="M440.909,-93.4187C536.475,-94.7406 712.007,-97.1687 809.878,-98.5225"/>
<polygon fill="midnightblue" stroke="midnightblue" points="809.923,-102.023 819.97,-98.6621 810.019,-95.0241 809.923,-102.023"/>
</g>
<!-- Node5 -->
<g id="node5" class="node"><title>Node5</title>
<g id="a_node5"><a xlink:href="structpanda_1_1Particle_1_1datastore.html#a3e4a1f8d223d8378ef2b92a6d4ccd2b0" target="_top" xlink:title="panda::Particle::datastore\l::setAddress">
<polygon fill="white" stroke="black" points="650.931,-0.5 650.931,-32.5 780.857,-32.5 780.857,-0.5 650.931,-0.5"/>
<text text-anchor="start" x="658.931" y="-19.5" font-family="Helvetica,sans-Serif" font-size="10.00">panda::Particle::datastore</text>
<text text-anchor="middle" x="715.894" y="-7.5" font-family="Helvetica,sans-Serif" font-size="10.00">::setAddress</text>
</a>
</g>
</g>
<!-- Node4&#45;&gt;Node5 -->
<g id="edge4" class="edge"><title>Node4&#45;&gt;Node5</title>
<path fill="none" stroke="midnightblue" d="M615.172,-39.0439C623.665,-37.124 632.379,-35.154 640.951,-33.2162"/>
<polygon fill="midnightblue" stroke="midnightblue" points="641.945,-36.58 650.927,-30.961 640.401,-29.7523 641.945,-36.58"/>
</g>
<!-- Node4&#45;&gt;Node7 -->
<g id="edge15" class="edge"><title>Node4&#45;&gt;Node7</title>
<path fill="none" stroke="midnightblue" d="M615.185,-63.4132C661.868,-69.5335 725.116,-77.8944 780.857,-85.5 790.239,-86.7801 800.114,-88.1454 809.854,-89.5025"/>
<polygon fill="midnightblue" stroke="midnightblue" points="809.541,-92.9927 819.929,-90.9099 810.509,-86.06 809.541,-92.9927"/>
</g>
<!-- Node6 -->
<g id="node6" class="node"><title>Node6</title>
<g id="a_node6"><a xlink:href="structpanda_1_1ContainerElement_1_1datastore.html#ae59f1a9b346ef85225e9b3691c6728a1" target="_top" xlink:title="panda::ContainerElement\l::datastore::setAddress">
<polygon fill="white" stroke="black" points="816.857,-0.5 816.857,-32.5 946.224,-32.5 946.224,-0.5 816.857,-0.5"/>
<text text-anchor="start" x="824.857" y="-19.5" font-family="Helvetica,sans-Serif" font-size="10.00">panda::ContainerElement</text>
<text text-anchor="middle" x="881.54" y="-7.5" font-family="Helvetica,sans-Serif" font-size="10.00">::datastore::setAddress</text>
</a>
</g>
</g>
<!-- Node5&#45;&gt;Node6 -->
<g id="edge5" class="edge"><title>Node5&#45;&gt;Node6</title>
<path fill="none" stroke="midnightblue" d="M781.102,-16.5C789.441,-16.5 798.037,-16.5 806.52,-16.5"/>
<polygon fill="midnightblue" stroke="midnightblue" points="806.786,-20.0001 816.786,-16.5 806.786,-13.0001 806.786,-20.0001"/>
</g>
<!-- Node5&#45;&gt;Node7 -->
<g id="edge6" class="edge"><title>Node5&#45;&gt;Node7</title>
<path fill="none" stroke="midnightblue" d="M750.514,-32.5641C760.325,-37.3142 771.046,-42.5647 780.857,-47.5 805.244,-59.7669 832.735,-74.1499 852.661,-84.676"/>
<polygon fill="midnightblue" stroke="midnightblue" points="851.041,-87.7785 861.517,-89.3632 854.316,-81.5917 851.041,-87.7785"/>
</g>
<!-- Node8 -->
<g id="node8" class="node"><title>Node8</title>
<g id="a_node8"><a xlink:href="classpanda_1_1utils_1_1BranchName.html#a13958ff4a9d554d2c057c600b4f70412" target="_top" xlink:title="Prepend the branch name with &lt;objName.&gt;. ">
<polygon fill="white" stroke="black" points="1139.26,-147.5 1139.26,-179.5 1270.29,-179.5 1270.29,-147.5 1139.26,-147.5"/>
<text text-anchor="start" x="1147.26" y="-166.5" font-family="Helvetica,sans-Serif" font-size="10.00">panda::utils::BranchName</text>
<text text-anchor="middle" x="1204.78" y="-154.5" font-family="Helvetica,sans-Serif" font-size="10.00">::fullName</text>
</a>
</g>
</g>
<!-- Node7&#45;&gt;Node8 -->
<g id="edge7" class="edge"><title>Node7&#45;&gt;Node8</title>
<path fill="none" stroke="midnightblue" d="M922.197,-109.603C940.427,-114.104 962.366,-119.321 982.224,-123.5 1030.91,-133.747 1085.96,-143.694 1129,-151.105"/>
<polygon fill="midnightblue" stroke="midnightblue" points="1128.67,-154.598 1139.12,-152.838 1129.85,-147.699 1128.67,-154.598"/>
</g>
<!-- Node9 -->
<g id="node9" class="node"><title>Node9</title>
<g id="a_node9"><a xlink:href="namespacepanda_1_1utils.html#a01665f786d6a2acedb8f008f3fc9fc84" target="_top" xlink:title="Set status of a branch. ">
<polygon fill="white" stroke="black" points="982.224,-69.5 982.224,-89.5 1096.59,-89.5 1096.59,-69.5 982.224,-69.5"/>
<text text-anchor="middle" x="1039.41" y="-76.5" font-family="Helvetica,sans-Serif" font-size="10.00">panda::utils::setStatus</text>
</a>
</g>
</g>
<!-- Node7&#45;&gt;Node9 -->
<g id="edge8" class="edge"><title>Node7&#45;&gt;Node9</title>
<path fill="none" stroke="midnightblue" d="M943.25,-91.7102C952.766,-90.4892 962.643,-89.2218 972.274,-87.9861"/>
<polygon fill="midnightblue" stroke="midnightblue" points="972.722,-91.4573 982.195,-86.713 971.831,-84.5142 972.722,-91.4573"/>
</g>
<!-- Node10 -->
<g id="node10" class="node"><title>Node10</title>
<g id="a_node10"><a xlink:href="classpanda_1_1utils_1_1BranchName.html#a6cc8a6df7c5b12a0221fd49773cca6a7" target="_top" xlink:title="Is the name included and not vetoed? ">
<polygon fill="white" stroke="black" points="1132.59,-108.5 1132.59,-128.5 1276.96,-128.5 1276.96,-108.5 1132.59,-108.5"/>
<text text-anchor="middle" x="1204.78" y="-115.5" font-family="Helvetica,sans-Serif" font-size="10.00">panda::utils::BranchName::in</text>
</a>
</g>
</g>
<!-- Node7&#45;&gt;Node10 -->
<g id="edge13" class="edge"><title>Node7&#45;&gt;Node10</title>
<path fill="none" stroke="midnightblue" d="M942.962,-103.074C993.607,-106.069 1066.38,-110.374 1122.19,-113.675"/>
<polygon fill="midnightblue" stroke="midnightblue" points="1122.22,-117.182 1132.41,-114.279 1122.63,-110.194 1122.22,-117.182"/>
</g>
<!-- Node12 -->
<g id="node12" class="node"><title>Node12</title>
<g id="a_node12"><a xlink:href="namespacepanda_1_1utils.html#aafa411773a4b0ee829d99e6e5a0abdcd" target="_top" xlink:title="Check status of a branch. ">
<polygon fill="white" stroke="black" points="1141.2,-18.5 1141.2,-38.5 1268.35,-38.5 1268.35,-18.5 1141.2,-18.5"/>
<text text-anchor="middle" x="1204.78" y="-25.5" font-family="Helvetica,sans-Serif" font-size="10.00">panda::utils::checkStatus</text>
</a>
</g>
</g>
<!-- Node7&#45;&gt;Node12 -->
<g id="edge14" class="edge"><title>Node7&#45;&gt;Node12</title>
<path fill="none" stroke="midnightblue" d="M903.421,-89.3852C923.247,-80.2029 954.114,-66.9872 982.224,-59.5 1030.97,-46.5165 1087.28,-38.7279 1130.94,-34.2048"/>
<polygon fill="midnightblue" stroke="midnightblue" points="1131.3,-37.6863 1140.9,-33.2064 1130.6,-30.7212 1131.3,-37.6863"/>
</g>
<!-- Node9&#45;&gt;Node8 -->
<g id="edge11" class="edge"><title>Node9&#45;&gt;Node8</title>
<path fill="none" stroke="midnightblue" d="M1053.88,-89.5422C1071.33,-102.216 1103.04,-124.097 1132.59,-138.5 1136.3,-140.308 1140.18,-142.049 1144.12,-143.713"/>
<polygon fill="midnightblue" stroke="midnightblue" points="1142.81,-146.96 1153.4,-147.45 1145.43,-140.467 1142.81,-146.96"/>
</g>
<!-- Node9&#45;&gt;Node10 -->
<g id="edge9" class="edge"><title>Node9&#45;&gt;Node10</title>
<path fill="none" stroke="midnightblue" d="M1082.48,-89.5435C1103.63,-94.593 1129.46,-100.759 1151.84,-106.101"/>
<polygon fill="midnightblue" stroke="midnightblue" points="1151.31,-109.573 1161.85,-108.491 1152.93,-102.764 1151.31,-109.573"/>
</g>
<!-- Node11 -->
<g id="node11" class="node"><title>Node11</title>
<g id="a_node11"><a xlink:href="classpanda_1_1utils_1_1BranchName.html#ae3332329bf2afae5ed8e7c35e5d77ffa" target="_top" xlink:title="Is the name included and vetoed? ">
<polygon fill="white" stroke="black" points="1139.26,-57.5 1139.26,-89.5 1270.29,-89.5 1270.29,-57.5 1139.26,-57.5"/>
<text text-anchor="start" x="1147.26" y="-76.5" font-family="Helvetica,sans-Serif" font-size="10.00">panda::utils::BranchName</text>
<text text-anchor="middle" x="1204.78" y="-64.5" font-family="Helvetica,sans-Serif" font-size="10.00">::vetoed</text>
</a>
</g>
</g>
<!-- Node9&#45;&gt;Node11 -->
<g id="edge10" class="edge"><title>Node9&#45;&gt;Node11</title>
<path fill="none" stroke="midnightblue" d="M1096.63,-77.4351C1106.98,-77.055 1117.94,-76.6525 1128.74,-76.2558"/>
<polygon fill="midnightblue" stroke="midnightblue" points="1129.16,-79.7429 1139.03,-75.8781 1128.9,-72.7476 1129.16,-79.7429"/>
</g>
<!-- Node9&#45;&gt;Node12 -->
<g id="edge12" class="edge"><title>Node9&#45;&gt;Node12</title>
<path fill="none" stroke="midnightblue" d="M1067.67,-69.4496C1085.93,-62.8624 1110.57,-54.2532 1132.59,-47.5 1139.57,-45.3607 1146.98,-43.2311 1154.27,-41.2131"/>
<polygon fill="midnightblue" stroke="midnightblue" points="1155.36,-44.5424 1164.1,-38.5402 1153.53,-37.7878 1155.36,-44.5424"/>
</g>
</g>
</svg>
        <g id="navigator" transform="translate(0 0)" fill="#404254">
                <rect fill="#f2f5e9" fill-opacity="0.5" stroke="#606060" stroke-width=".5" x="0" y="0" width="60" height="60"/>
                <use id="zoomplus" xlink:href="#zoomPlus" x="17" y="9" onmousedown="handleZoom(evt,'in')"/>
                <use id="zoomminus" xlink:href="#zoomMin" x="42" y="9" onmousedown="handleZoom(evt,'out')"/>
                <use id="reset" xlink:href="#resetDef" x="30" y="36" onmousedown="handleReset()"/>
                <g id="arrowUp" xlink:href="#dirArrow" transform="translate(30 24)" onmousedown="handlePan(0,-1)">
                  <use xlink:href="#rim" fill="#404040">
                        <set attributeName="fill" to="#808080" begin="arrowUp.mouseover" end="arrowUp.mouseout"/>
                  </use>
                  <path fill="none" stroke="white" stroke-width="1.5" d="M0,-3.0v7 M-2.5,-0.5L0,-3.0L2.5,-0.5"/>
                </g>
                <g id="arrowRight" xlink:href="#dirArrow" transform="rotate(90) translate(36 -43)" onmousedown="handlePan(1,0)">
                  <use xlink:href="#rim" fill="#404040">
                        <set attributeName="fill" to="#808080" begin="arrowRight.mouseover" end="arrowRight.mouseout"/>
                  </use>
                  <path fill="none" stroke="white" stroke-width="1.5" d="M0,-3.0v7 M-2.5,-0.5L0,-3.0L2.5,-0.5"/>
                </g>
                <g id="arrowDown" xlink:href="#dirArrow" transform="rotate(180) translate(-30 -48)" onmousedown="handlePan(0,1)">
                  <use xlink:href="#rim" fill="#404040">
                        <set attributeName="fill" to="#808080" begin="arrowDown.mouseover" end="arrowDown.mouseout"/>
                  </use>
                  <path fill="none" stroke="white" stroke-width="1.5" d="M0,-3.0v7 M-2.5,-0.5L0,-3.0L2.5,-0.5"/>
                </g>
                <g id="arrowLeft" xlink:href="#dirArrow" transform="rotate(270) translate(-36 17)" onmousedown="handlePan(-1,0)">
                  <use xlink:href="#rim" fill="#404040">
                        <set attributeName="fill" to="#808080" begin="arrowLeft.mouseover" end="arrowLeft.mouseout"/>
                  </use>
                  <path fill="none" stroke="white" stroke-width="1.5" d="M0,-3.0v7 M-2.5,-0.5L0,-3.0L2.5,-0.5"/>
                </g>
        </g>
        <svg viewBox="0 0 15 15" width="100%" height="30px" preserveAspectRatio="xMaxYMin meet">
         <g id="arrow_out" transform="scale(0.3 0.3)">
          <a xlink:href="structpanda_1_1FatJet_1_1datastore_a0064ba6151edcef6eb9d4c5b6a9fdcf7_cgraph_org.svg" target="_base">
           <rect id="button" ry="5" rx="5" y="6" x="6" height="38" width="38"
                fill="#f2f5e9" fill-opacity="0.5" stroke="#606060" stroke-width="1.0"/>
           <path id="arrow"
             d="M 11.500037,31.436501 C 11.940474,20.09759 22.043105,11.32322 32.158766,21.979434 L 37.068811,17.246167 C 37.068811,17.246167 37.088388,32 37.088388,32 L 22.160133,31.978069 C 22.160133,31.978069 26.997745,27.140456 26.997745,27.140456 C 18.528582,18.264221 13.291696,25.230495 11.500037,31.436501 z"
             style="fill:#404040;"/>
          </a>
         </g>
        </svg>
</svg>
