<?xml version="1.0" encoding="UTF-8" standalone="no"?>
<!DOCTYPE svg PUBLIC "-//W3C//DTD SVG 1.1//EN"
 "http://www.w3.org/Graphics/SVG/1.1/DTD/svg11.dtd">
<!-- Generated by graphviz version 2.38.0 (20140413.2041)
 -->
<!-- Title: panda::Lepton::datastore::~datastore Pages: 1 -->
<svg width="630pt" height="41pt"
 viewBox="0.00 0.00 629.63 41.00" xmlns="http://www.w3.org/2000/svg" xmlns:xlink="http://www.w3.org/1999/xlink">
<g id="graph0" class="graph" transform="scale(1 1) rotate(0) translate(4 37)">
<title>panda::Lepton::datastore::~datastore</title>
<polygon fill="white" stroke="none" points="-4,4 -4,-37 625.627,-37 625.627,4 -4,4"/>
<!-- Node1 -->
<g id="node1" class="node"><title>Node1</title>
<polygon fill="#bfbfbf" stroke="black" points="-4.26326e-14,-0.5 -4.26326e-14,-32.5 127.167,-32.5 127.167,-0.5 -4.26326e-14,-0.5"/>
<text text-anchor="start" x="8" y="-19.5" font-family="Helvetica,sans-Serif" font-size="10.00">panda::Lepton::datastore</text>
<text text-anchor="middle" x="63.5835" y="-7.5" font-family="Helvetica,sans-Serif" font-size="10.00">::~datastore</text>
</g>
<!-- Node2 -->
<g id="node2" class="node"><title>Node2</title>
<g id="a_node2"><a xlink:href="structpanda_1_1Lepton_1_1datastore.html#a527515ee96020a4aaef41d9de157c131" target="_top" xlink:title="panda::Lepton::datastore\l::deallocate">
<polygon fill="white" stroke="black" points="163.167,-0.5 163.167,-32.5 290.334,-32.5 290.334,-0.5 163.167,-0.5"/>
<text text-anchor="start" x="171.167" y="-19.5" font-family="Helvetica,sans-Serif" font-size="10.00">panda::Lepton::datastore</text>
<text text-anchor="middle" x="226.75" y="-7.5" font-family="Helvetica,sans-Serif" font-size="10.00">::deallocate</text>
</a>
</g>
</g>
<!-- Node1&#45;&gt;Node2 -->
<g id="edge1" class="edge"><title>Node1&#45;&gt;Node2</title>
<path fill="none" stroke="midnightblue" d="M127.356,-16.5C135.805,-16.5 144.529,-16.5 153.131,-16.5"/>
<polygon fill="midnightblue" stroke="midnightblue" points="153.149,-20.0001 163.149,-16.5 153.149,-13.0001 153.149,-20.0001"/>
</g>
<!-- Node3 -->
<g id="node3" class="node"><title>Node3</title>
<g id="a_node3"><a xlink:href="structpanda_1_1Particle_1_1datastore.html#ad741e5ab6ebeb9ca897ba9472d0dea36" target="_top" xlink:title="panda::Particle::datastore\l::deallocate">
<polygon fill="white" stroke="black" points="326.334,-0.5 326.334,-32.5 456.26,-32.5 456.26,-0.5 326.334,-0.5"/>
<text text-anchor="start" x="334.334" y="-19.5" font-family="Helvetica,sans-Serif" font-size="10.00">panda::Particle::datastore</text>
<text text-anchor="middle" x="391.297" y="-7.5" font-family="Helvetica,sans-Serif" font-size="10.00">::deallocate</text>
</a>
</g>
</g>
<!-- Node2&#45;&gt;Node3 -->
<g id="edge2" class="edge"><title>Node2&#45;&gt;Node3</title>
<path fill="none" stroke="midnightblue" d="M290.595,-16.5C299.007,-16.5 307.697,-16.5 316.277,-16.5"/>
<polygon fill="midnightblue" stroke="midnightblue" points="316.278,-20.0001 326.278,-16.5 316.278,-13.0001 316.278,-20.0001"/>
</g>
<!-- Node4 -->
<g id="node4" class="node"><title>Node4</title>
<g id="a_node4"><a xlink:href="structpanda_1_1ContainerElement_1_1datastore.html#a8827cbb1304b781fcba764a6bf4cbcc1" target="_top" xlink:title="panda::ContainerElement\l::datastore::deallocate">
<polygon fill="white" stroke="black" points="492.26,-0.5 492.26,-32.5 621.627,-32.5 621.627,-0.5 492.26,-0.5"/>
<text text-anchor="start" x="500.26" y="-19.5" font-family="Helvetica,sans-Serif" font-size="10.00">panda::ContainerElement</text>
<text text-anchor="middle" x="556.943" y="-7.5" font-family="Helvetica,sans-Serif" font-size="10.00">::datastore::deallocate</text>
</a>
</g>
</g>
<!-- Node3&#45;&gt;Node4 -->
<g id="edge3" class="edge"><title>Node3&#45;&gt;Node4</title>
<path fill="none" stroke="midnightblue" d="M456.505,-16.5C464.844,-16.5 473.44,-16.5 481.923,-16.5"/>
<polygon fill="midnightblue" stroke="midnightblue" points="482.189,-20.0001 492.189,-16.5 482.189,-13.0001 482.189,-20.0001"/>
</g>
</g>
</svg>
