<?xml version="1.0" encoding="UTF-8" standalone="no"?>
<!DOCTYPE svg PUBLIC "-//W3C//DTD SVG 1.1//EN"
 "http://www.w3.org/Graphics/SVG/1.1/DTD/svg11.dtd">
<!-- Generated by graphviz version 2.38.0 (20140413.2041)
 -->
<!-- Title: panda::FatJet::datastore::setStatus Pages: 1 -->
<svg width="1135pt" height="188pt"
 viewBox="0.00 0.00 1134.59 188.00" xmlns="http://www.w3.org/2000/svg" xmlns:xlink="http://www.w3.org/1999/xlink">
<g id="graph0" class="graph" transform="scale(1 1) rotate(0) translate(4 184)">
<title>panda::FatJet::datastore::setStatus</title>
<polygon fill="white" stroke="none" points="-4,4 -4,-184 1130.59,-184 1130.59,4 -4,4"/>
<!-- Node1 -->
<g id="node1" class="node"><title>Node1</title>
<polygon fill="#bfbfbf" stroke="black" points="7.81597e-14,-10.5 7.81597e-14,-42.5 124.378,-42.5 124.378,-10.5 7.81597e-14,-10.5"/>
<text text-anchor="start" x="8" y="-29.5" font-family="Helvetica,sans-Serif" font-size="10.00">panda::FatJet::datastore</text>
<text text-anchor="middle" x="62.189" y="-17.5" font-family="Helvetica,sans-Serif" font-size="10.00">::setStatus</text>
</g>
<!-- Node2 -->
<g id="node2" class="node"><title>Node2</title>
<g id="a_node2"><a xlink:href="structpanda_1_1Jet_1_1datastore.html#a9317137a3acc4f41b0c6f349f36176cc" target="_top" xlink:title="panda::Jet::datastore\l::setStatus">
<polygon fill="white" stroke="black" points="160.378,-33.5 160.378,-65.5 270.309,-65.5 270.309,-33.5 160.378,-33.5"/>
<text text-anchor="start" x="168.378" y="-52.5" font-family="Helvetica,sans-Serif" font-size="10.00">panda::Jet::datastore</text>
<text text-anchor="middle" x="215.344" y="-40.5" font-family="Helvetica,sans-Serif" font-size="10.00">::setStatus</text>
</a>
</g>
</g>
<!-- Node1&#45;&gt;Node2 -->
<g id="edge1" class="edge"><title>Node1&#45;&gt;Node2</title>
<path fill="none" stroke="midnightblue" d="M124.669,-35.855C133.037,-37.1282 141.643,-38.4378 150.059,-39.7183"/>
<polygon fill="midnightblue" stroke="midnightblue" points="149.787,-43.2172 160.2,-41.2614 150.841,-36.2969 149.787,-43.2172"/>
</g>
<!-- Node7 -->
<g id="node7" class="node"><title>Node7</title>
<g id="a_node7"><a xlink:href="namespacepanda_1_1utils.html#a01665f786d6a2acedb8f008f3fc9fc84" target="_top" xlink:title="Set status of a branch. ">
<polygon fill="white" stroke="black" points="824.356,-70.5 824.356,-90.5 938.726,-90.5 938.726,-70.5 824.356,-70.5"/>
<text text-anchor="middle" x="881.541" y="-77.5" font-family="Helvetica,sans-Serif" font-size="10.00">panda::utils::setStatus</text>
</a>
</g>
</g>
<!-- Node1&#45;&gt;Node7 -->
<g id="edge14" class="edge"><title>Node1&#45;&gt;Node7</title>
<path fill="none" stroke="midnightblue" d="M124.424,-19.5693C186.759,-13.1206 286.223,-4.5 372.493,-4.5 372.493,-4.5 372.493,-4.5 546.803,-4.5 657.977,-4.5 784.898,-45.0893 845.175,-66.9425"/>
<polygon fill="midnightblue" stroke="midnightblue" points="844.015,-70.2449 854.609,-70.4078 846.429,-63.6742 844.015,-70.2449"/>
</g>
<!-- Node3 -->
<g id="node3" class="node"><title>Node3</title>
<g id="a_node3"><a xlink:href="structpanda_1_1MicroJet_1_1datastore.html#a8aec69bb1d854895f3dad5172029dc2a" target="_top" xlink:title="panda::MicroJet::datastore\l::setStatus">
<polygon fill="white" stroke="black" points="306.309,-71.5 306.309,-103.5 440.676,-103.5 440.676,-71.5 306.309,-71.5"/>
<text text-anchor="start" x="314.309" y="-90.5" font-family="Helvetica,sans-Serif" font-size="10.00">panda::MicroJet::datastore</text>
<text text-anchor="middle" x="373.493" y="-78.5" font-family="Helvetica,sans-Serif" font-size="10.00">::setStatus</text>
</a>
</g>
</g>
<!-- Node2&#45;&gt;Node3 -->
<g id="edge2" class="edge"><title>Node2&#45;&gt;Node3</title>
<path fill="none" stroke="midnightblue" d="M270.519,-62.6839C278.967,-64.7398 287.828,-66.8962 296.651,-69.0433"/>
<polygon fill="midnightblue" stroke="midnightblue" points="296.028,-72.4938 306.572,-71.4577 297.683,-65.6923 296.028,-72.4938"/>
</g>
<!-- Node2&#45;&gt;Node7 -->
<g id="edge13" class="edge"><title>Node2&#45;&gt;Node7</title>
<path fill="none" stroke="midnightblue" d="M270.416,-52.0237C391.036,-57.6534 681.822,-71.2252 813.612,-77.3763"/>
<polygon fill="midnightblue" stroke="midnightblue" points="813.811,-80.8893 823.963,-77.8594 814.137,-73.8969 813.811,-80.8893"/>
</g>
<!-- Node4 -->
<g id="node4" class="node"><title>Node4</title>
<g id="a_node4"><a xlink:href="structpanda_1_1ParticleM_1_1datastore.html#a957ae0973d0133c87e71845ad751fd64" target="_top" xlink:title="panda::ParticleM::datastore\l::setStatus">
<polygon fill="white" stroke="black" points="476.676,-109.5 476.676,-141.5 614.931,-141.5 614.931,-109.5 476.676,-109.5"/>
<text text-anchor="start" x="484.676" y="-128.5" font-family="Helvetica,sans-Serif" font-size="10.00">panda::ParticleM::datastore</text>
<text text-anchor="middle" x="545.803" y="-116.5" font-family="Helvetica,sans-Serif" font-size="10.00">::setStatus</text>
</a>
</g>
</g>
<!-- Node3&#45;&gt;Node4 -->
<g id="edge3" class="edge"><title>Node3&#45;&gt;Node4</title>
<path fill="none" stroke="midnightblue" d="M440.827,-102.301C449.218,-104.173 457.866,-106.102 466.422,-108.012"/>
<polygon fill="midnightblue" stroke="midnightblue" points="465.881,-111.477 476.404,-110.239 467.406,-104.645 465.881,-111.477"/>
</g>
<!-- Node3&#45;&gt;Node7 -->
<g id="edge12" class="edge"><title>Node3&#45;&gt;Node7</title>
<path fill="none" stroke="midnightblue" d="M440.909,-86.5813C537.801,-85.241 716.894,-82.7637 813.908,-81.4217"/>
<polygon fill="midnightblue" stroke="midnightblue" points="814.227,-84.9177 824.178,-81.2796 814.13,-77.9184 814.227,-84.9177"/>
</g>
<!-- Node5 -->
<g id="node5" class="node"><title>Node5</title>
<g id="a_node5"><a xlink:href="structpanda_1_1Particle_1_1datastore.html#afa508d25966c3e2044e67e4b50f1679e" target="_top" xlink:title="panda::Particle::datastore\l::setStatus">
<polygon fill="white" stroke="black" points="650.931,-147.5 650.931,-179.5 780.857,-179.5 780.857,-147.5 650.931,-147.5"/>
<text text-anchor="start" x="658.931" y="-166.5" font-family="Helvetica,sans-Serif" font-size="10.00">panda::Particle::datastore</text>
<text text-anchor="middle" x="715.894" y="-154.5" font-family="Helvetica,sans-Serif" font-size="10.00">::setStatus</text>
</a>
</g>
</g>
<!-- Node4&#45;&gt;Node5 -->
<g id="edge4" class="edge"><title>Node4&#45;&gt;Node5</title>
<path fill="none" stroke="midnightblue" d="M615.172,-140.956C623.665,-142.876 632.379,-144.846 640.951,-146.784"/>
<polygon fill="midnightblue" stroke="midnightblue" points="640.401,-150.248 650.927,-149.039 641.945,-143.42 640.401,-150.248"/>
</g>
<!-- Node4&#45;&gt;Node7 -->
<g id="edge11" class="edge"><title>Node4&#45;&gt;Node7</title>
<path fill="none" stroke="midnightblue" d="M615.185,-116.587C661.868,-110.467 725.116,-102.106 780.857,-94.5 791.595,-93.0348 802.981,-91.4579 814.07,-89.9094"/>
<polygon fill="midnightblue" stroke="midnightblue" points="814.725,-93.3519 824.143,-88.4994 813.754,-86.4195 814.725,-93.3519"/>
</g>
<!-- Node6 -->
<g id="node6" class="node"><title>Node6</title>
<g id="a_node6"><a xlink:href="structpanda_1_1ContainerElement_1_1datastore.html#aad03a4d0428dfa3b6ae9ccfb04d49cd8" target="_top" xlink:title="panda::ContainerElement\l::datastore::setStatus">
<polygon fill="white" stroke="black" points="816.857,-147.5 816.857,-179.5 946.224,-179.5 946.224,-147.5 816.857,-147.5"/>
<text text-anchor="start" x="824.857" y="-166.5" font-family="Helvetica,sans-Serif" font-size="10.00">panda::ContainerElement</text>
<text text-anchor="middle" x="881.541" y="-154.5" font-family="Helvetica,sans-Serif" font-size="10.00">::datastore::setStatus</text>
</a>
</g>
</g>
<!-- Node5&#45;&gt;Node6 -->
<g id="edge5" class="edge"><title>Node5&#45;&gt;Node6</title>
<path fill="none" stroke="midnightblue" d="M781.102,-163.5C789.441,-163.5 798.037,-163.5 806.52,-163.5"/>
<polygon fill="midnightblue" stroke="midnightblue" points="806.786,-167 816.786,-163.5 806.786,-160 806.786,-167"/>
</g>
<!-- Node5&#45;&gt;Node7 -->
<g id="edge6" class="edge"><title>Node5&#45;&gt;Node7</title>
<path fill="none" stroke="midnightblue" d="M750.514,-147.436C760.325,-142.686 771.046,-137.435 780.857,-132.5 805.244,-120.233 832.735,-105.85 852.661,-95.324"/>
<polygon fill="midnightblue" stroke="midnightblue" points="854.316,-98.4083 861.517,-90.6368 851.041,-92.2215 854.316,-98.4083"/>
</g>
<!-- Node8 -->
<g id="node8" class="node"><title>Node8</title>
<g id="a_node8"><a xlink:href="classpanda_1_1utils_1_1BranchName.html#a6cc8a6df7c5b12a0221fd49773cca6a7" target="_top" xlink:title="Is the name included and not vetoed? ">
<polygon fill="white" stroke="black" points="982.224,-141.5 982.224,-161.5 1126.59,-161.5 1126.59,-141.5 982.224,-141.5"/>
<text text-anchor="middle" x="1054.41" y="-148.5" font-family="Helvetica,sans-Serif" font-size="10.00">panda::utils::BranchName::in</text>
</a>
</g>
</g>
<!-- Node7&#45;&gt;Node8 -->
<g id="edge7" class="edge"><title>Node7&#45;&gt;Node8</title>
<path fill="none" stroke="midnightblue" d="M899.698,-90.6134C919.184,-101.779 952.178,-119.728 982.224,-131.5 988.648,-134.017 995.513,-136.359 1002.35,-138.488"/>
<polygon fill="midnightblue" stroke="midnightblue" points="1001.71,-141.949 1012.29,-141.45 1003.71,-135.24 1001.71,-141.949"/>
</g>
<!-- Node9 -->
<g id="node9" class="node"><title>Node9</title>
<g id="a_node9"><a xlink:href="classpanda_1_1utils_1_1BranchName.html#ae3332329bf2afae5ed8e7c35e5d77ffa" target="_top" xlink:title="Is the name included and vetoed? ">
<polygon fill="white" stroke="black" points="988.892,-90.5 988.892,-122.5 1119.92,-122.5 1119.92,-90.5 988.892,-90.5"/>
<text text-anchor="start" x="996.892" y="-109.5" font-family="Helvetica,sans-Serif" font-size="10.00">panda::utils::BranchName</text>
<text text-anchor="middle" x="1054.41" y="-97.5" font-family="Helvetica,sans-Serif" font-size="10.00">::vetoed</text>
</a>
</g>
</g>
<!-- Node7&#45;&gt;Node9 -->
<g id="edge8" class="edge"><title>Node7&#45;&gt;Node9</title>
<path fill="none" stroke="midnightblue" d="M938.962,-89.0854C951.665,-91.0185 965.34,-93.0993 978.662,-95.1265"/>
<polygon fill="midnightblue" stroke="midnightblue" points="978.347,-98.6187 988.76,-96.663 979.4,-91.6984 978.347,-98.6187"/>
</g>
<!-- Node10 -->
<g id="node10" class="node"><title>Node10</title>
<g id="a_node10"><a xlink:href="classpanda_1_1utils_1_1BranchName.html#a13958ff4a9d554d2c057c600b4f70412" target="_top" xlink:title="Prepend the branch name with &lt;objName.&gt;. ">
<polygon fill="white" stroke="black" points="988.892,-39.5 988.892,-71.5 1119.92,-71.5 1119.92,-39.5 988.892,-39.5"/>
<text text-anchor="start" x="996.892" y="-58.5" font-family="Helvetica,sans-Serif" font-size="10.00">panda::utils::BranchName</text>
<text text-anchor="middle" x="1054.41" y="-46.5" font-family="Helvetica,sans-Serif" font-size="10.00">::fullName</text>
</a>
</g>
</g>
<!-- Node7&#45;&gt;Node10 -->
<g id="edge9" class="edge"><title>Node7&#45;&gt;Node10</title>
<path fill="none" stroke="midnightblue" d="M938.962,-72.2448C951.665,-70.3861 965.34,-68.3853 978.662,-66.436"/>
<polygon fill="midnightblue" stroke="midnightblue" points="979.372,-69.8696 988.76,-64.9587 978.358,-62.9433 979.372,-69.8696"/>
</g>
<!-- Node11 -->
<g id="node11" class="node"><title>Node11</title>
<g id="a_node11"><a xlink:href="namespacepanda_1_1utils.html#aafa411773a4b0ee829d99e6e5a0abdcd" target="_top" xlink:title="Check status of a branch. ">
<polygon fill="white" stroke="black" points="990.831,-0.5 990.831,-20.5 1117.98,-20.5 1117.98,-0.5 990.831,-0.5"/>
<text text-anchor="middle" x="1054.41" y="-7.5" font-family="Helvetica,sans-Serif" font-size="10.00">panda::utils::checkStatus</text>
</a>
</g>
</g>
<!-- Node7&#45;&gt;Node11 -->
<g id="edge10" class="edge"><title>Node7&#45;&gt;Node11</title>
<path fill="none" stroke="midnightblue" d="M899.67,-70.3138C919.13,-59.0827 952.102,-41.075 982.224,-29.5 988.022,-27.272 994.182,-25.2055 1000.36,-23.3196"/>
<polygon fill="midnightblue" stroke="midnightblue" points="1001.4,-26.6611 1010.03,-20.5071 999.446,-19.9397 1001.4,-26.6611"/>
</g>
</g>
</svg>
