<?xml version="1.0" encoding="UTF-8" standalone="no"?>
<!DOCTYPE svg PUBLIC "-//W3C//DTD SVG 1.1//EN"
 "http://www.w3.org/Graphics/SVG/1.1/DTD/svg11.dtd">
<!-- Generated by graphviz version 2.38.0 (20140413.2041)
 -->
<!-- Title: panda::Jet::datastore::book Pages: 1 -->
<svg width="974pt" height="140pt"
 viewBox="0.00 0.00 974.21 140.00" xmlns="http://www.w3.org/2000/svg" xmlns:xlink="http://www.w3.org/1999/xlink">
<g id="graph0" class="graph" transform="scale(1 1) rotate(0) translate(4 136)">
<title>panda::Jet::datastore::book</title>
<polygon fill="white" stroke="none" points="-4,4 -4,-136 970.21,-136 970.21,4 -4,4"/>
<!-- Node1 -->
<g id="node1" class="node"><title>Node1</title>
<polygon fill="#bfbfbf" stroke="black" points="2.84217e-14,-0.5 2.84217e-14,-32.5 109.931,-32.5 109.931,-0.5 2.84217e-14,-0.5"/>
<text text-anchor="start" x="8" y="-19.5" font-family="Helvetica,sans-Serif" font-size="10.00">panda::Jet::datastore</text>
<text text-anchor="middle" x="54.9655" y="-7.5" font-family="Helvetica,sans-Serif" font-size="10.00">::book</text>
</g>
<!-- Node2 -->
<g id="node2" class="node"><title>Node2</title>
<g id="a_node2"><a xlink:href="structpanda_1_1MicroJet_1_1datastore.html#a1a17e11396756ae30ac63c834cbe5976" target="_top" xlink:title="panda::MicroJet::datastore\l::book">
<polygon fill="white" stroke="black" points="145.931,-23.5 145.931,-55.5 280.298,-55.5 280.298,-23.5 145.931,-23.5"/>
<text text-anchor="start" x="153.931" y="-42.5" font-family="Helvetica,sans-Serif" font-size="10.00">panda::MicroJet::datastore</text>
<text text-anchor="middle" x="213.115" y="-30.5" font-family="Helvetica,sans-Serif" font-size="10.00">::book</text>
</a>
</g>
</g>
<!-- Node1&#45;&gt;Node2 -->
<g id="edge1" class="edge"><title>Node1&#45;&gt;Node2</title>
<path fill="none" stroke="midnightblue" d="M110.141,-24.4797C118.434,-25.7014 127.126,-26.9817 135.79,-28.2577"/>
<polygon fill="midnightblue" stroke="midnightblue" points="135.517,-31.7553 145.921,-29.75 136.537,-24.83 135.517,-31.7553"/>
</g>
<!-- Node6 -->
<g id="node6" class="node"><title>Node6</title>
<g id="a_node6"><a xlink:href="namespacepanda_1_1utils.html#aaa6c7cd5892388e6ffdf713b11abf793" target="_top" xlink:title="Book the branch. ">
<polygon fill="white" stroke="black" points="673.98,-41.5 673.98,-61.5 768.344,-61.5 768.344,-41.5 673.98,-41.5"/>
<text text-anchor="middle" x="721.162" y="-48.5" font-family="Helvetica,sans-Serif" font-size="10.00">panda::utils::book</text>
</a>
</g>
</g>
<!-- Node1&#45;&gt;Node6 -->
<g id="edge10" class="edge"><title>Node1&#45;&gt;Node6</title>
<path fill="none" stroke="midnightblue" d="M110.192,-14.3993C121.973,-14.0247 134.368,-13.6927 145.931,-13.5 205.641,-12.5047 220.633,-10.9614 280.298,-13.5 431.901,-19.9503 469.32,-29.2333 620.479,-42.5 634.408,-43.7225 649.43,-45.0657 663.481,-46.3329"/>
<polygon fill="midnightblue" stroke="midnightblue" points="663.236,-49.8251 673.511,-47.2394 663.867,-42.8535 663.236,-49.8251"/>
</g>
<!-- Node3 -->
<g id="node3" class="node"><title>Node3</title>
<g id="a_node3"><a xlink:href="structpanda_1_1ParticleM_1_1datastore.html#ae2eb76ca042d8b3e899c027ee07b5860" target="_top" xlink:title="panda::ParticleM::datastore\l::book">
<polygon fill="white" stroke="black" points="316.298,-61.5 316.298,-93.5 454.553,-93.5 454.553,-61.5 316.298,-61.5"/>
<text text-anchor="start" x="324.298" y="-80.5" font-family="Helvetica,sans-Serif" font-size="10.00">panda::ParticleM::datastore</text>
<text text-anchor="middle" x="385.425" y="-68.5" font-family="Helvetica,sans-Serif" font-size="10.00">::book</text>
</a>
</g>
</g>
<!-- Node2&#45;&gt;Node3 -->
<g id="edge2" class="edge"><title>Node2&#45;&gt;Node3</title>
<path fill="none" stroke="midnightblue" d="M280.449,-54.3006C288.84,-56.1729 297.488,-58.1024 306.044,-60.0115"/>
<polygon fill="midnightblue" stroke="midnightblue" points="305.503,-63.4768 316.026,-62.2385 307.028,-56.6448 305.503,-63.4768"/>
</g>
<!-- Node2&#45;&gt;Node6 -->
<g id="edge9" class="edge"><title>Node2&#45;&gt;Node6</title>
<path fill="none" stroke="midnightblue" d="M280.531,-41.075C380.943,-43.456 569.639,-47.9306 663.771,-50.1628"/>
<polygon fill="midnightblue" stroke="midnightblue" points="663.869,-53.666 673.949,-50.4041 664.035,-46.668 663.869,-53.666"/>
</g>
<!-- Node4 -->
<g id="node4" class="node"><title>Node4</title>
<g id="a_node4"><a xlink:href="structpanda_1_1Particle_1_1datastore.html#af75a5d8b8a18ee09ce98ab37888b4404" target="_top" xlink:title="panda::Particle::datastore\l::book">
<polygon fill="white" stroke="black" points="490.553,-99.5 490.553,-131.5 620.479,-131.5 620.479,-99.5 490.553,-99.5"/>
<text text-anchor="start" x="498.553" y="-118.5" font-family="Helvetica,sans-Serif" font-size="10.00">panda::Particle::datastore</text>
<text text-anchor="middle" x="555.516" y="-106.5" font-family="Helvetica,sans-Serif" font-size="10.00">::book</text>
</a>
</g>
</g>
<!-- Node3&#45;&gt;Node4 -->
<g id="edge3" class="edge"><title>Node3&#45;&gt;Node4</title>
<path fill="none" stroke="midnightblue" d="M454.794,-92.9561C463.287,-94.876 472.001,-96.846 480.573,-98.7838"/>
<polygon fill="midnightblue" stroke="midnightblue" points="480.023,-102.248 490.549,-101.039 481.567,-95.42 480.023,-102.248"/>
</g>
<!-- Node3&#45;&gt;Node6 -->
<g id="edge8" class="edge"><title>Node3&#45;&gt;Node6</title>
<path fill="none" stroke="midnightblue" d="M454.767,-72.1758C516.473,-67.3685 606.183,-60.3796 663.856,-55.8866"/>
<polygon fill="midnightblue" stroke="midnightblue" points="664.187,-59.3715 673.885,-55.1053 663.644,-52.3926 664.187,-59.3715"/>
</g>
<!-- Node5 -->
<g id="node5" class="node"><title>Node5</title>
<g id="a_node5"><a xlink:href="structpanda_1_1ContainerElement_1_1datastore.html#a3a4062043d9a913acd4056ab1cf5a93f" target="_top" xlink:title="panda::ContainerElement\l::datastore::book">
<polygon fill="white" stroke="black" points="656.479,-99.5 656.479,-131.5 785.846,-131.5 785.846,-99.5 656.479,-99.5"/>
<text text-anchor="start" x="664.479" y="-118.5" font-family="Helvetica,sans-Serif" font-size="10.00">panda::ContainerElement</text>
<text text-anchor="middle" x="721.162" y="-106.5" font-family="Helvetica,sans-Serif" font-size="10.00">::datastore::book</text>
</a>
</g>
</g>
<!-- Node4&#45;&gt;Node5 -->
<g id="edge4" class="edge"><title>Node4&#45;&gt;Node5</title>
<path fill="none" stroke="midnightblue" d="M620.724,-115.5C629.063,-115.5 637.659,-115.5 646.142,-115.5"/>
<polygon fill="midnightblue" stroke="midnightblue" points="646.408,-119 656.408,-115.5 646.408,-112 646.408,-119"/>
</g>
<!-- Node4&#45;&gt;Node6 -->
<g id="edge5" class="edge"><title>Node4&#45;&gt;Node6</title>
<path fill="none" stroke="midnightblue" d="M597.811,-99.3501C624.678,-88.8428 659.344,-75.2852 684.913,-65.2855"/>
<polygon fill="midnightblue" stroke="midnightblue" points="686.194,-68.5429 694.232,-61.641 683.644,-62.0237 686.194,-68.5429"/>
</g>
<!-- Node7 -->
<g id="node7" class="node"><title>Node7</title>
<g id="a_node7"><a xlink:href="classpanda_1_1utils_1_1BranchName.html#a6cc8a6df7c5b12a0221fd49773cca6a7" target="_top" xlink:title="Is the name included and not vetoed? ">
<polygon fill="white" stroke="black" points="821.846,-64.5 821.846,-84.5 966.21,-84.5 966.21,-64.5 821.846,-64.5"/>
<text text-anchor="middle" x="894.028" y="-71.5" font-family="Helvetica,sans-Serif" font-size="10.00">panda::utils::BranchName::in</text>
</a>
</g>
</g>
<!-- Node6&#45;&gt;Node7 -->
<g id="edge6" class="edge"><title>Node6&#45;&gt;Node7</title>
<path fill="none" stroke="midnightblue" d="M768.401,-57.7241C781.731,-59.5185 796.687,-61.5316 811.486,-63.5238"/>
<polygon fill="midnightblue" stroke="midnightblue" points="811.308,-67.0312 821.685,-64.8966 812.241,-60.0938 811.308,-67.0312"/>
</g>
<!-- Node8 -->
<g id="node8" class="node"><title>Node8</title>
<g id="a_node8"><a xlink:href="classpanda_1_1utils_1_1BranchName.html#a13958ff4a9d554d2c057c600b4f70412" target="_top" xlink:title="Prepend the branch name with &lt;objName.&gt;. ">
<polygon fill="white" stroke="black" points="828.514,-13.5 828.514,-45.5 959.542,-45.5 959.542,-13.5 828.514,-13.5"/>
<text text-anchor="start" x="836.514" y="-32.5" font-family="Helvetica,sans-Serif" font-size="10.00">panda::utils::BranchName</text>
<text text-anchor="middle" x="894.028" y="-20.5" font-family="Helvetica,sans-Serif" font-size="10.00">::fullName</text>
</a>
</g>
</g>
<!-- Node6&#45;&gt;Node8 -->
<g id="edge7" class="edge"><title>Node6&#45;&gt;Node8</title>
<path fill="none" stroke="midnightblue" d="M768.401,-45.5465C783.851,-43.5572 801.484,-41.2869 818.527,-39.0925"/>
<polygon fill="midnightblue" stroke="midnightblue" points="819.001,-42.5604 828.472,-37.812 818.107,-35.6178 819.001,-42.5604"/>
</g>
</g>
</svg>
