<?xml version="1.0" encoding="UTF-8" standalone="no"?>
<!DOCTYPE svg PUBLIC "-//W3C//DTD SVG 1.1//EN"
 "http://www.w3.org/Graphics/SVG/1.1/DTD/svg11.dtd">
<!-- Generated by graphviz version 2.38.0 (20140413.2041)
 -->
<!-- Title: panda::ParticleM::datastore::book Pages: 1 -->
<svg width="623pt" height="296pt"
 viewBox="0.00 0.00 622.93 296.00" xmlns="http://www.w3.org/2000/svg" xmlns:xlink="http://www.w3.org/1999/xlink">
<g id="graph0" class="graph" transform="scale(1 1) rotate(0) translate(4 292)">
<title>panda::ParticleM::datastore::book</title>
<polygon fill="white" stroke="none" points="-4,4 -4,-292 618.931,-292 618.931,4 -4,4"/>
<!-- Node1 -->
<g id="node1" class="node"><title>Node1</title>
<polygon fill="#bfbfbf" stroke="black" points="5.68434e-14,-127.5 5.68434e-14,-159.5 138.255,-159.5 138.255,-127.5 5.68434e-14,-127.5"/>
<text text-anchor="start" x="8" y="-146.5" font-family="Helvetica,sans-Serif" font-size="10.00">panda::ParticleM::datastore</text>
<text text-anchor="middle" x="69.1275" y="-134.5" font-family="Helvetica,sans-Serif" font-size="10.00">::book</text>
</g>
<!-- Node2 -->
<g id="node2" class="node"><title>Node2</title>
<g id="a_node2"><a xlink:href="structpanda_1_1GenJet_1_1datastore.html#abfe95213671131d88149b11bbe4a0f45" target="_top" xlink:title="panda::GenJet::datastore\l::book">
<polygon fill="white" stroke="black" points="177.025,-255.5 177.025,-287.5 305.853,-287.5 305.853,-255.5 177.025,-255.5"/>
<text text-anchor="start" x="185.025" y="-274.5" font-family="Helvetica,sans-Serif" font-size="10.00">panda::GenJet::datastore</text>
<text text-anchor="middle" x="241.439" y="-262.5" font-family="Helvetica,sans-Serif" font-size="10.00">::book</text>
</a>
</g>
</g>
<!-- Node1&#45;&gt;Node2 -->
<g id="edge1" class="edge"><title>Node1&#45;&gt;Node2</title>
<path fill="none" stroke="midnightblue" d="M89.1631,-167.455C108.49,-190.422 140.33,-224.728 174.255,-246.5 179.424,-249.817 185.098,-252.792 190.883,-255.432"/>
<polygon fill="midnightblue" stroke="midnightblue" points="91.6975,-165.028 82.6281,-159.551 86.3026,-169.488 91.6975,-165.028"/>
</g>
<!-- Node3 -->
<g id="node3" class="node"><title>Node3</title>
<g id="a_node3"><a xlink:href="structpanda_1_1GenParticle_1_1datastore.html#a115b560e4e4ecfa3d7c0a2fbbcafe5b9" target="_top" xlink:title="panda::GenParticle\l::datastore::book">
<polygon fill="white" stroke="black" points="190.647,-204.5 190.647,-236.5 292.23,-236.5 292.23,-204.5 190.647,-204.5"/>
<text text-anchor="start" x="198.647" y="-223.5" font-family="Helvetica,sans-Serif" font-size="10.00">panda::GenParticle</text>
<text text-anchor="middle" x="241.439" y="-211.5" font-family="Helvetica,sans-Serif" font-size="10.00">::datastore::book</text>
</a>
</g>
</g>
<!-- Node1&#45;&gt;Node3 -->
<g id="edge2" class="edge"><title>Node1&#45;&gt;Node3</title>
<path fill="none" stroke="midnightblue" d="M109.365,-164.281C128.685,-174.207 152.457,-185.97 174.255,-195.5 181.232,-198.551 188.712,-201.59 196.042,-204.445"/>
<polygon fill="midnightblue" stroke="midnightblue" points="110.757,-161.06 100.267,-159.574 107.54,-167.278 110.757,-161.06"/>
</g>
<!-- Node4 -->
<g id="node4" class="node"><title>Node4</title>
<g id="a_node4"><a xlink:href="structpanda_1_1MicroJet_1_1datastore.html#a1a17e11396756ae30ac63c834cbe5976" target="_top" xlink:title="panda::MicroJet::datastore\l::book">
<polygon fill="white" stroke="black" points="174.255,-153.5 174.255,-185.5 308.622,-185.5 308.622,-153.5 174.255,-153.5"/>
<text text-anchor="start" x="182.255" y="-172.5" font-family="Helvetica,sans-Serif" font-size="10.00">panda::MicroJet::datastore</text>
<text text-anchor="middle" x="241.439" y="-160.5" font-family="Helvetica,sans-Serif" font-size="10.00">::book</text>
</a>
</g>
</g>
<!-- Node1&#45;&gt;Node4 -->
<g id="edge3" class="edge"><title>Node1&#45;&gt;Node4</title>
<path fill="none" stroke="midnightblue" d="M148.42,-155.452C156.994,-156.761 165.661,-158.084 174.072,-159.368"/>
<polygon fill="midnightblue" stroke="midnightblue" points="148.832,-151.975 138.418,-153.925 147.775,-158.895 148.832,-151.975"/>
</g>
<!-- Node7 -->
<g id="node7" class="node"><title>Node7</title>
<g id="a_node7"><a xlink:href="structpanda_1_1Parton_1_1datastore.html#ae8dc1e83cadb773ac9c7a3f14dea85b3" target="_top" xlink:title="panda::Parton::datastore\l::book">
<polygon fill="white" stroke="black" points="178.415,-102.5 178.415,-134.5 304.462,-134.5 304.462,-102.5 178.415,-102.5"/>
<text text-anchor="start" x="186.415" y="-121.5" font-family="Helvetica,sans-Serif" font-size="10.00">panda::Parton::datastore</text>
<text text-anchor="middle" x="241.439" y="-109.5" font-family="Helvetica,sans-Serif" font-size="10.00">::book</text>
</a>
</g>
</g>
<!-- Node1&#45;&gt;Node7 -->
<g id="edge6" class="edge"><title>Node1&#45;&gt;Node7</title>
<path fill="none" stroke="midnightblue" d="M148.358,-132.017C158.361,-130.548 168.493,-129.061 178.195,-127.637"/>
<polygon fill="midnightblue" stroke="midnightblue" points="147.804,-128.56 138.418,-133.476 148.82,-135.486 147.804,-128.56"/>
</g>
<!-- Node8 -->
<g id="node8" class="node"><title>Node8</title>
<g id="a_node8"><a xlink:href="structpanda_1_1PFCand_1_1datastore.html#a7714d44e5c6b0017ab72d596c83b474b" target="_top" xlink:title="panda::PFCand::datastore\l::book">
<polygon fill="white" stroke="black" points="174.805,-51.5 174.805,-83.5 308.072,-83.5 308.072,-51.5 174.805,-51.5"/>
<text text-anchor="start" x="182.805" y="-70.5" font-family="Helvetica,sans-Serif" font-size="10.00">panda::PFCand::datastore</text>
<text text-anchor="middle" x="241.439" y="-58.5" font-family="Helvetica,sans-Serif" font-size="10.00">::book</text>
</a>
</g>
</g>
<!-- Node1&#45;&gt;Node8 -->
<g id="edge7" class="edge"><title>Node1&#45;&gt;Node8</title>
<path fill="none" stroke="midnightblue" d="M111.206,-122.918C130.237,-113.605 153.243,-102.657 174.255,-93.5 181.951,-90.1462 190.228,-86.7396 198.234,-83.5449"/>
<polygon fill="midnightblue" stroke="midnightblue" points="109.637,-119.789 102.209,-127.344 112.727,-126.07 109.637,-119.789"/>
</g>
<!-- Node9 -->
<g id="node9" class="node"><title>Node9</title>
<g id="a_node9"><a xlink:href="structpanda_1_1Tau_1_1datastore.html#a835217578e10605f669fd448a0e6531c" target="_top" xlink:title="panda::Tau::datastore\l::book">
<polygon fill="white" stroke="black" points="184.529,-0.5 184.529,-32.5 298.349,-32.5 298.349,-0.5 184.529,-0.5"/>
<text text-anchor="start" x="192.529" y="-19.5" font-family="Helvetica,sans-Serif" font-size="10.00">panda::Tau::datastore</text>
<text text-anchor="middle" x="241.439" y="-7.5" font-family="Helvetica,sans-Serif" font-size="10.00">::book</text>
</a>
</g>
</g>
<!-- Node1&#45;&gt;Node9 -->
<g id="edge8" class="edge"><title>Node1&#45;&gt;Node9</title>
<path fill="none" stroke="midnightblue" d="M89.6487,-119.749C109.123,-97.3186 140.878,-63.9989 174.255,-42.5 179.963,-38.8232 186.273,-35.5262 192.664,-32.6155"/>
<polygon fill="midnightblue" stroke="midnightblue" points="86.8811,-117.6 83.0493,-127.478 92.2045,-122.146 86.8811,-117.6"/>
</g>
<!-- Node5 -->
<g id="node5" class="node"><title>Node5</title>
<g id="a_node5"><a xlink:href="structpanda_1_1Jet_1_1datastore.html#a6b3a8bbeb4fa9c002c5eebbd97962095" target="_top" xlink:title="panda::Jet::datastore\l::book">
<polygon fill="white" stroke="black" points="344.622,-153.5 344.622,-185.5 454.553,-185.5 454.553,-153.5 344.622,-153.5"/>
<text text-anchor="start" x="352.622" y="-172.5" font-family="Helvetica,sans-Serif" font-size="10.00">panda::Jet::datastore</text>
<text text-anchor="middle" x="399.588" y="-160.5" font-family="Helvetica,sans-Serif" font-size="10.00">::book</text>
</a>
</g>
</g>
<!-- Node4&#45;&gt;Node5 -->
<g id="edge4" class="edge"><title>Node4&#45;&gt;Node5</title>
<path fill="none" stroke="midnightblue" d="M318.824,-169.5C327.514,-169.5 336.233,-169.5 344.549,-169.5"/>
<polygon fill="midnightblue" stroke="midnightblue" points="318.66,-166 308.66,-169.5 318.66,-173 318.66,-166"/>
</g>
<!-- Node6 -->
<g id="node6" class="node"><title>Node6</title>
<g id="a_node6"><a xlink:href="structpanda_1_1FatJet_1_1datastore.html#abc4532c13b6be8b1feaf70e3504f5f59" target="_top" xlink:title="panda::FatJet::datastore\l::book">
<polygon fill="white" stroke="black" points="490.553,-153.5 490.553,-185.5 614.931,-185.5 614.931,-153.5 490.553,-153.5"/>
<text text-anchor="start" x="498.553" y="-172.5" font-family="Helvetica,sans-Serif" font-size="10.00">panda::FatJet::datastore</text>
<text text-anchor="middle" x="552.742" y="-160.5" font-family="Helvetica,sans-Serif" font-size="10.00">::book</text>
</a>
</g>
</g>
<!-- Node5&#45;&gt;Node6 -->
<g id="edge5" class="edge"><title>Node5&#45;&gt;Node6</title>
<path fill="none" stroke="midnightblue" d="M464.95,-169.5C473.43,-169.5 482.103,-169.5 490.528,-169.5"/>
<polygon fill="midnightblue" stroke="midnightblue" points="464.731,-166 454.731,-169.5 464.731,-173 464.731,-166"/>
</g>
</g>
</svg>
