<?xml version="1.0" encoding="UTF-8" standalone="no"?>
<!DOCTYPE svg PUBLIC "-//W3C//DTD SVG 1.1//EN"
 "http://www.w3.org/Graphics/SVG/1.1/DTD/svg11.dtd">
<!-- Generated by graphviz version 2.38.0 (20140413.2041)
 -->
<!-- Title: panda::GenJet::datastore::book Pages: 1 -->
<svg width="823pt" height="108pt"
 viewBox="0.00 0.00 822.74 108.00" xmlns="http://www.w3.org/2000/svg" xmlns:xlink="http://www.w3.org/1999/xlink">
<g id="graph0" class="graph" transform="scale(1 1) rotate(0) translate(4 104)">
<title>panda::GenJet::datastore::book</title>
<polygon fill="white" stroke="none" points="-4,4 -4,-104 818.74,-104 818.74,4 -4,4"/>
<!-- Node1 -->
<g id="node1" class="node"><title>Node1</title>
<polygon fill="#bfbfbf" stroke="black" points="-1.42109e-14,-6.5 -1.42109e-14,-38.5 128.828,-38.5 128.828,-6.5 -1.42109e-14,-6.5"/>
<text text-anchor="start" x="8" y="-25.5" font-family="Helvetica,sans-Serif" font-size="10.00">panda::GenJet::datastore</text>
<text text-anchor="middle" x="64.414" y="-13.5" font-family="Helvetica,sans-Serif" font-size="10.00">::book</text>
</g>
<!-- Node2 -->
<g id="node2" class="node"><title>Node2</title>
<g id="a_node2"><a xlink:href="structpanda_1_1ParticleM_1_1datastore.html#ae2eb76ca042d8b3e899c027ee07b5860" target="_top" xlink:title="panda::ParticleM::datastore\l::book">
<polygon fill="white" stroke="black" points="164.828,-29.5 164.828,-61.5 303.083,-61.5 303.083,-29.5 164.828,-29.5"/>
<text text-anchor="start" x="172.828" y="-48.5" font-family="Helvetica,sans-Serif" font-size="10.00">panda::ParticleM::datastore</text>
<text text-anchor="middle" x="233.956" y="-36.5" font-family="Helvetica,sans-Serif" font-size="10.00">::book</text>
</a>
</g>
</g>
<!-- Node1&#45;&gt;Node2 -->
<g id="edge1" class="edge"><title>Node1&#45;&gt;Node2</title>
<path fill="none" stroke="midnightblue" d="M129.232,-31.2609C137.54,-32.4015 146.127,-33.5802 154.638,-34.7486"/>
<polygon fill="midnightblue" stroke="midnightblue" points="154.19,-38.2198 164.573,-36.1125 155.142,-31.2849 154.19,-38.2198"/>
</g>
<!-- Node5 -->
<g id="node5" class="node"><title>Node5</title>
<g id="a_node5"><a xlink:href="namespacepanda_1_1utils.html#aaa6c7cd5892388e6ffdf713b11abf793" target="_top" xlink:title="Book the branch. ">
<polygon fill="white" stroke="black" points="522.511,-28.5 522.511,-48.5 616.875,-48.5 616.875,-28.5 522.511,-28.5"/>
<text text-anchor="middle" x="569.693" y="-35.5" font-family="Helvetica,sans-Serif" font-size="10.00">panda::utils::book</text>
</a>
</g>
</g>
<!-- Node1&#45;&gt;Node5 -->
<g id="edge8" class="edge"><title>Node1&#45;&gt;Node5</title>
<path fill="none" stroke="midnightblue" d="M129.048,-20.2942C140.938,-19.9631 153.26,-19.6745 164.828,-19.5 226.268,-18.5732 241.675,-17.3065 303.083,-19.5 375.35,-22.0815 458.467,-28.6017 512.194,-33.2837"/>
<polygon fill="midnightblue" stroke="midnightblue" points="511.937,-36.7745 522.205,-34.1645 512.551,-29.8014 511.937,-36.7745"/>
</g>
<!-- Node3 -->
<g id="node3" class="node"><title>Node3</title>
<g id="a_node3"><a xlink:href="structpanda_1_1Particle_1_1datastore.html#af75a5d8b8a18ee09ce98ab37888b4404" target="_top" xlink:title="panda::Particle::datastore\l::book">
<polygon fill="white" stroke="black" points="339.083,-67.5 339.083,-99.5 469.009,-99.5 469.009,-67.5 339.083,-67.5"/>
<text text-anchor="start" x="347.083" y="-86.5" font-family="Helvetica,sans-Serif" font-size="10.00">panda::Particle::datastore</text>
<text text-anchor="middle" x="404.046" y="-74.5" font-family="Helvetica,sans-Serif" font-size="10.00">::book</text>
</a>
</g>
</g>
<!-- Node2&#45;&gt;Node3 -->
<g id="edge2" class="edge"><title>Node2&#45;&gt;Node3</title>
<path fill="none" stroke="midnightblue" d="M303.324,-60.9561C311.817,-62.876 320.531,-64.846 329.103,-66.7838"/>
<polygon fill="midnightblue" stroke="midnightblue" points="328.553,-70.2477 339.079,-69.039 330.097,-63.42 328.553,-70.2477"/>
</g>
<!-- Node2&#45;&gt;Node5 -->
<g id="edge7" class="edge"><title>Node2&#45;&gt;Node5</title>
<path fill="none" stroke="midnightblue" d="M303.297,-44.0666C365.003,-42.7723 454.713,-40.8907 512.386,-39.681"/>
<polygon fill="midnightblue" stroke="midnightblue" points="512.491,-43.1797 522.415,-39.4706 512.344,-36.1812 512.491,-43.1797"/>
</g>
<!-- Node4 -->
<g id="node4" class="node"><title>Node4</title>
<g id="a_node4"><a xlink:href="structpanda_1_1ContainerElement_1_1datastore.html#a3a4062043d9a913acd4056ab1cf5a93f" target="_top" xlink:title="panda::ContainerElement\l::datastore::book">
<polygon fill="white" stroke="black" points="505.009,-67.5 505.009,-99.5 634.376,-99.5 634.376,-67.5 505.009,-67.5"/>
<text text-anchor="start" x="513.009" y="-86.5" font-family="Helvetica,sans-Serif" font-size="10.00">panda::ContainerElement</text>
<text text-anchor="middle" x="569.693" y="-74.5" font-family="Helvetica,sans-Serif" font-size="10.00">::datastore::book</text>
</a>
</g>
</g>
<!-- Node3&#45;&gt;Node4 -->
<g id="edge3" class="edge"><title>Node3&#45;&gt;Node4</title>
<path fill="none" stroke="midnightblue" d="M469.254,-83.5C477.593,-83.5 486.189,-83.5 494.672,-83.5"/>
<polygon fill="midnightblue" stroke="midnightblue" points="494.938,-87.0001 504.938,-83.5 494.938,-80.0001 494.938,-87.0001"/>
</g>
<!-- Node3&#45;&gt;Node5 -->
<g id="edge4" class="edge"><title>Node3&#45;&gt;Node5</title>
<path fill="none" stroke="midnightblue" d="M463.664,-67.3811C482.855,-62.1039 503.902,-56.3163 522.083,-51.3168"/>
<polygon fill="midnightblue" stroke="midnightblue" points="523.145,-54.6549 531.859,-48.6287 521.289,-47.9054 523.145,-54.6549"/>
</g>
<!-- Node6 -->
<g id="node6" class="node"><title>Node6</title>
<g id="a_node6"><a xlink:href="classpanda_1_1utils_1_1BranchName.html#a6cc8a6df7c5b12a0221fd49773cca6a7" target="_top" xlink:title="Is the name included and not vetoed? ">
<polygon fill="white" stroke="black" points="670.376,-51.5 670.376,-71.5 814.74,-71.5 814.74,-51.5 670.376,-51.5"/>
<text text-anchor="middle" x="742.558" y="-58.5" font-family="Helvetica,sans-Serif" font-size="10.00">panda::utils::BranchName::in</text>
</a>
</g>
</g>
<!-- Node5&#45;&gt;Node6 -->
<g id="edge5" class="edge"><title>Node5&#45;&gt;Node6</title>
<path fill="none" stroke="midnightblue" d="M616.931,-44.7241C630.261,-46.5185 645.217,-48.5316 660.016,-50.5238"/>
<polygon fill="midnightblue" stroke="midnightblue" points="659.838,-54.0312 670.215,-51.8966 660.771,-47.0938 659.838,-54.0312"/>
</g>
<!-- Node7 -->
<g id="node7" class="node"><title>Node7</title>
<g id="a_node7"><a xlink:href="classpanda_1_1utils_1_1BranchName.html#a13958ff4a9d554d2c057c600b4f70412" target="_top" xlink:title="Prepend the branch name with &lt;objName.&gt;. ">
<polygon fill="white" stroke="black" points="677.044,-0.5 677.044,-32.5 808.072,-32.5 808.072,-0.5 677.044,-0.5"/>
<text text-anchor="start" x="685.044" y="-19.5" font-family="Helvetica,sans-Serif" font-size="10.00">panda::utils::BranchName</text>
<text text-anchor="middle" x="742.558" y="-7.5" font-family="Helvetica,sans-Serif" font-size="10.00">::fullName</text>
</a>
</g>
</g>
<!-- Node5&#45;&gt;Node7 -->
<g id="edge6" class="edge"><title>Node5&#45;&gt;Node7</title>
<path fill="none" stroke="midnightblue" d="M616.931,-32.5465C632.381,-30.5572 650.014,-28.2869 667.057,-26.0925"/>
<polygon fill="midnightblue" stroke="midnightblue" points="667.531,-29.5604 677.002,-24.812 666.637,-22.6178 667.531,-29.5604"/>
</g>
</g>
</svg>
