<?xml version="1.0" encoding="UTF-8" standalone="no"?>
<!DOCTYPE svg PUBLIC "-//W3C//DTD SVG 1.1//EN"
 "http://www.w3.org/Graphics/SVG/1.1/DTD/svg11.dtd">
<!-- Generated by graphviz version 2.38.0 (20140413.2041)
 -->
<!-- Title: panda::Jet::datastore Pages: 1 -->
<svg width="319pt" height="308pt"
 viewBox="0.00 0.00 318.83 308.00" xmlns="http://www.w3.org/2000/svg" xmlns:xlink="http://www.w3.org/1999/xlink">
<g id="graph0" class="graph" transform="scale(1 1) rotate(0) translate(4 304)">
<title>panda::Jet::datastore</title>
<polygon fill="white" stroke="none" points="-4,4 -4,-304 314.827,-304 314.827,4 -4,4"/>
<!-- Node1 -->
<g id="node1" class="node"><title>Node1</title>
<polygon fill="#bfbfbf" stroke="black" points="99.162,-0.5 99.162,-20.5 209.093,-20.5 209.093,-0.5 99.162,-0.5"/>
<text text-anchor="middle" x="154.127" y="-7.5" font-family="Helvetica,sans-Serif" font-size="10.00">panda::Jet::datastore</text>
</g>
<!-- Node2 -->
<g id="node2" class="node"><title>Node2</title>
<g id="a_node2"><a xlink:href="structpanda_1_1MicroJet_1_1datastore.html" target="_top" xlink:title="panda::MicroJet::datastore">
<polygon fill="white" stroke="black" points="1.944,-93.5 1.944,-113.5 136.311,-113.5 136.311,-93.5 1.944,-93.5"/>
<text text-anchor="middle" x="69.1275" y="-100.5" font-family="Helvetica,sans-Serif" font-size="10.00">panda::MicroJet::datastore</text>
</a>
</g>
</g>
<!-- Node2&#45;&gt;Node1 -->
<g id="edge1" class="edge"><title>Node2&#45;&gt;Node1</title>
<path fill="none" stroke="midnightblue" d="M84.5257,-86.0148C102.468,-66.8058 131.468,-35.7587 145.701,-20.5215"/>
<polygon fill="midnightblue" stroke="midnightblue" points="81.8567,-83.7448 77.5884,-93.4419 86.9722,-88.5231 81.8567,-83.7448"/>
</g>
<!-- Node3 -->
<g id="node3" class="node"><title>Node3</title>
<g id="a_node3"><a xlink:href="structpanda_1_1ParticleM_1_1datastore.html" target="_top" xlink:title="panda::ParticleM::datastore">
<polygon fill="white" stroke="black" points="0,-151.5 0,-171.5 138.255,-171.5 138.255,-151.5 0,-151.5"/>
<text text-anchor="middle" x="69.1275" y="-158.5" font-family="Helvetica,sans-Serif" font-size="10.00">panda::ParticleM::datastore</text>
</a>
</g>
</g>
<!-- Node3&#45;&gt;Node2 -->
<g id="edge2" class="edge"><title>Node3&#45;&gt;Node2</title>
<path fill="none" stroke="midnightblue" d="M69.1275,-141.207C69.1275,-131.838 69.1275,-121.026 69.1275,-113.575"/>
<polygon fill="midnightblue" stroke="midnightblue" points="65.6276,-141.253 69.1275,-151.253 72.6276,-141.253 65.6276,-141.253"/>
</g>
<!-- Node4 -->
<g id="node4" class="node"><title>Node4</title>
<g id="a_node4"><a xlink:href="structpanda_1_1Particle_1_1datastore.html" target="_top" xlink:title="panda::Particle::datastore">
<polygon fill="white" stroke="black" points="4.1645,-209.5 4.1645,-229.5 134.09,-229.5 134.09,-209.5 4.1645,-209.5"/>
<text text-anchor="middle" x="69.1275" y="-216.5" font-family="Helvetica,sans-Serif" font-size="10.00">panda::Particle::datastore</text>
</a>
</g>
</g>
<!-- Node4&#45;&gt;Node3 -->
<g id="edge3" class="edge"><title>Node4&#45;&gt;Node3</title>
<path fill="none" stroke="midnightblue" d="M69.1275,-199.207C69.1275,-189.838 69.1275,-179.026 69.1275,-171.575"/>
<polygon fill="midnightblue" stroke="midnightblue" points="65.6276,-199.253 69.1275,-209.253 72.6276,-199.253 65.6276,-199.253"/>
</g>
<!-- Node5 -->
<g id="node5" class="node"><title>Node5</title>
<g id="a_node5"><a xlink:href="structpanda_1_1ContainerElement_1_1datastore.html" target="_top" xlink:title="panda::ContainerElement\l::datastore">
<polygon fill="white" stroke="black" points="4.444,-267.5 4.444,-299.5 133.811,-299.5 133.811,-267.5 4.444,-267.5"/>
<text text-anchor="start" x="12.444" y="-286.5" font-family="Helvetica,sans-Serif" font-size="10.00">panda::ContainerElement</text>
<text text-anchor="middle" x="69.1275" y="-274.5" font-family="Helvetica,sans-Serif" font-size="10.00">::datastore</text>
</a>
</g>
</g>
<!-- Node5&#45;&gt;Node4 -->
<g id="edge4" class="edge"><title>Node5&#45;&gt;Node4</title>
<path fill="none" stroke="midnightblue" d="M69.1275,-257.422C69.1275,-247.672 69.1275,-237.11 69.1275,-229.79"/>
<polygon fill="midnightblue" stroke="midnightblue" points="65.6276,-257.491 69.1275,-267.492 72.6276,-257.492 65.6276,-257.491"/>
</g>
<!-- Node6 -->
<g id="node6" class="node"><title>Node6</title>
<g id="a_node6"><a xlink:href="classpanda_1_1ContainerBase.html" target="_top" xlink:title="Base class for all containers. ">
<polygon fill="white" stroke="black" points="154.387,-93.5 154.387,-113.5 269.868,-113.5 269.868,-93.5 154.387,-93.5"/>
<text text-anchor="middle" x="212.127" y="-100.5" font-family="Helvetica,sans-Serif" font-size="10.00">panda::ContainerBase</text>
</a>
</g>
</g>
<!-- Node6&#45;&gt;Node1 -->
<g id="edge5" class="edge"><title>Node6&#45;&gt;Node1</title>
<path fill="none" stroke="#9a32cd" stroke-dasharray="5,2" d="M200.957,-84.9746C188.674,-65.702 169.416,-35.4866 159.877,-20.5215"/>
<polygon fill="#9a32cd" stroke="#9a32cd" points="198.028,-86.8902 206.354,-93.4419 203.931,-83.1279 198.028,-86.8902"/>
<text text-anchor="start" x="194.127" y="-66" font-family="Helvetica,sans-Serif" font-size="10.00"> matchedGenJetContainer</text>
<text text-anchor="middle" x="252.477" y="-54" font-family="Helvetica,sans-Serif" font-size="10.00">_</text>
<text text-anchor="middle" x="252.477" y="-42" font-family="Helvetica,sans-Serif" font-size="10.00">constituentsContainer_</text>
</g>
<!-- Node7 -->
<g id="node7" class="node"><title>Node7</title>
<g id="a_node7"><a xlink:href="classpanda_1_1Object.html" target="_top" xlink:title="panda::Object">
<polygon fill="white" stroke="black" points="173.004,-151.5 173.004,-171.5 251.251,-171.5 251.251,-151.5 173.004,-151.5"/>
<text text-anchor="middle" x="212.127" y="-158.5" font-family="Helvetica,sans-Serif" font-size="10.00">panda::Object</text>
</a>
</g>
</g>
<!-- Node7&#45;&gt;Node6 -->
<g id="edge6" class="edge"><title>Node7&#45;&gt;Node6</title>
<path fill="none" stroke="midnightblue" d="M212.127,-141.207C212.127,-131.838 212.127,-121.026 212.127,-113.575"/>
<polygon fill="midnightblue" stroke="midnightblue" points="208.628,-141.253 212.127,-151.253 215.628,-141.253 208.628,-141.253"/>
</g>
</g>
</svg>
