<?xml version="1.0" encoding="UTF-8" standalone="no"?>
<!DOCTYPE svg PUBLIC "-//W3C//DTD SVG 1.1//EN"
 "http://www.w3.org/Graphics/SVG/1.1/DTD/svg11.dtd">
<!-- Generated by graphviz version 2.38.0 (20140413.2041)
 -->
<!-- Title: panda::Electron::datastore Pages: 1 -->
<svg width="141pt" height="212pt"
 viewBox="0.00 0.00 141.27 212.00" xmlns="http://www.w3.org/2000/svg" xmlns:xlink="http://www.w3.org/1999/xlink">
<g id="graph0" class="graph" transform="scale(1 1) rotate(0) translate(4 208)">
<title>panda::Electron::datastore</title>
<polygon fill="white" stroke="none" points="-4,4 -4,-208 137.266,-208 137.266,4 -4,4"/>
<!-- Node1 -->
<g id="node1" class="node"><title>Node1</title>
<polygon fill="#bfbfbf" stroke="black" points="0,-0.5 0,-20.5 133.266,-20.5 133.266,-0.5 0,-0.5"/>
<text text-anchor="middle" x="66.633" y="-7.5" font-family="Helvetica,sans-Serif" font-size="10.00">panda::Electron::datastore</text>
</g>
<!-- Node2 -->
<g id="node2" class="node"><title>Node2</title>
<g id="a_node2"><a xlink:href="structpanda_1_1Lepton_1_1datastore.html" target="_top" xlink:title="panda::Lepton::datastore">
<polygon fill="white" stroke="black" points="3.0495,-57.5 3.0495,-77.5 130.216,-77.5 130.216,-57.5 3.0495,-57.5"/>
<text text-anchor="middle" x="66.633" y="-64.5" font-family="Helvetica,sans-Serif" font-size="10.00">panda::Lepton::datastore</text>
</a>
</g>
</g>
<!-- Node2&#45;&gt;Node1 -->
<g id="edge1" class="edge"><title>Node2&#45;&gt;Node1</title>
<path fill="none" stroke="midnightblue" d="M66.633,-47.383C66.633,-38.3738 66.633,-28.0373 66.633,-20.7795"/>
<polygon fill="midnightblue" stroke="midnightblue" points="63.1331,-47.4178 66.633,-57.4179 70.1331,-47.4179 63.1331,-47.4178"/>
</g>
<!-- Node3 -->
<g id="node3" class="node"><title>Node3</title>
<g id="a_node3"><a xlink:href="structpanda_1_1Particle_1_1datastore.html" target="_top" xlink:title="panda::Particle::datastore">
<polygon fill="white" stroke="black" points="1.67,-114.5 1.67,-134.5 131.596,-134.5 131.596,-114.5 1.67,-114.5"/>
<text text-anchor="middle" x="66.633" y="-121.5" font-family="Helvetica,sans-Serif" font-size="10.00">panda::Particle::datastore</text>
</a>
</g>
</g>
<!-- Node3&#45;&gt;Node2 -->
<g id="edge2" class="edge"><title>Node3&#45;&gt;Node2</title>
<path fill="none" stroke="midnightblue" d="M66.633,-104.383C66.633,-95.3738 66.633,-85.0373 66.633,-77.7795"/>
<polygon fill="midnightblue" stroke="midnightblue" points="63.1331,-104.418 66.633,-114.418 70.1331,-104.418 63.1331,-104.418"/>
</g>
<!-- Node4 -->
<g id="node4" class="node"><title>Node4</title>
<g id="a_node4"><a xlink:href="structpanda_1_1ContainerElement_1_1datastore.html" target="_top" xlink:title="panda::ContainerElement\l::datastore">
<polygon fill="white" stroke="black" points="1.9495,-171.5 1.9495,-203.5 131.316,-203.5 131.316,-171.5 1.9495,-171.5"/>
<text text-anchor="start" x="9.9495" y="-190.5" font-family="Helvetica,sans-Serif" font-size="10.00">panda::ContainerElement</text>
<text text-anchor="middle" x="66.633" y="-178.5" font-family="Helvetica,sans-Serif" font-size="10.00">::datastore</text>
</a>
</g>
</g>
<!-- Node4&#45;&gt;Node3 -->
<g id="edge3" class="edge"><title>Node4&#45;&gt;Node3</title>
<path fill="none" stroke="midnightblue" d="M66.633,-161.229C66.633,-151.762 66.633,-141.602 66.633,-134.546"/>
<polygon fill="midnightblue" stroke="midnightblue" points="63.1331,-161.421 66.633,-171.421 70.1331,-161.421 63.1331,-161.421"/>
</g>
</g>
</svg>
