<?xml version="1.0" encoding="UTF-8" standalone="no"?>
<!DOCTYPE svg PUBLIC "-//W3C//DTD SVG 1.1//EN"
 "http://www.w3.org/Graphics/SVG/1.1/DTD/svg11.dtd">
<!-- Generated by graphviz version 2.38.0 (20140413.2041)
 -->
<!-- Title: panda::Particle::datastore::setAddress Pages: 1 -->
<svg width="634pt" height="170pt"
 viewBox="0.00 0.00 634.03 170.00" xmlns="http://www.w3.org/2000/svg" xmlns:xlink="http://www.w3.org/1999/xlink">
<g id="graph0" class="graph" transform="scale(1 1) rotate(0) translate(4 166)">
<title>panda::Particle::datastore::setAddress</title>
<polygon fill="white" stroke="none" points="-4,4 -4,-166 630.027,-166 630.027,4 -4,4"/>
<!-- Node1 -->
<g id="node1" class="node"><title>Node1</title>
<polygon fill="#bfbfbf" stroke="black" points="-2.84217e-14,-86.5 -2.84217e-14,-118.5 129.926,-118.5 129.926,-86.5 -2.84217e-14,-86.5"/>
<text text-anchor="start" x="8" y="-105.5" font-family="Helvetica,sans-Serif" font-size="10.00">panda::Particle::datastore</text>
<text text-anchor="middle" x="64.963" y="-93.5" font-family="Helvetica,sans-Serif" font-size="10.00">::setAddress</text>
</g>
<!-- Node2 -->
<g id="node2" class="node"><title>Node2</title>
<g id="a_node2"><a xlink:href="structpanda_1_1ContainerElement_1_1datastore.html#ae59f1a9b346ef85225e9b3691c6728a1" target="_top" xlink:title="panda::ContainerElement\l::datastore::setAddress">
<polygon fill="white" stroke="black" points="165.926,-109.5 165.926,-141.5 295.293,-141.5 295.293,-109.5 165.926,-109.5"/>
<text text-anchor="start" x="173.926" y="-128.5" font-family="Helvetica,sans-Serif" font-size="10.00">panda::ContainerElement</text>
<text text-anchor="middle" x="230.609" y="-116.5" font-family="Helvetica,sans-Serif" font-size="10.00">::datastore::setAddress</text>
</a>
</g>
</g>
<!-- Node1&#45;&gt;Node2 -->
<g id="edge1" class="edge"><title>Node1&#45;&gt;Node2</title>
<path fill="none" stroke="midnightblue" d="M130.171,-111.524C138.602,-112.709 147.295,-113.931 155.868,-115.136"/>
<polygon fill="midnightblue" stroke="midnightblue" points="155.466,-118.614 165.855,-116.54 156.44,-111.682 155.466,-118.614"/>
</g>
<!-- Node3 -->
<g id="node3" class="node"><title>Node3</title>
<g id="a_node3"><a xlink:href="namespacepanda_1_1utils.html#abf9c62e588560197c2bae9932e6a6e05" target="_top" xlink:title="Set address. ">
<polygon fill="white" stroke="black" points="169.259,-70.5 169.259,-90.5 291.959,-90.5 291.959,-70.5 169.259,-70.5"/>
<text text-anchor="middle" x="230.609" y="-77.5" font-family="Helvetica,sans-Serif" font-size="10.00">panda::utils::setAddress</text>
</a>
</g>
</g>
<!-- Node1&#45;&gt;Node3 -->
<g id="edge2" class="edge"><title>Node1&#45;&gt;Node3</title>
<path fill="none" stroke="midnightblue" d="M130.171,-93.8682C139.674,-92.5905 149.511,-91.2682 159.134,-89.9745"/>
<polygon fill="midnightblue" stroke="midnightblue" points="159.617,-93.4411 169.061,-88.6399 158.684,-86.5035 159.617,-93.4411"/>
</g>
<!-- Node4 -->
<g id="node4" class="node"><title>Node4</title>
<g id="a_node4"><a xlink:href="classpanda_1_1utils_1_1BranchName.html#a13958ff4a9d554d2c057c600b4f70412" target="_top" xlink:title="Prepend the branch name with &lt;objName.&gt;. ">
<polygon fill="white" stroke="black" points="488.331,-129.5 488.331,-161.5 619.359,-161.5 619.359,-129.5 488.331,-129.5"/>
<text text-anchor="start" x="496.331" y="-148.5" font-family="Helvetica,sans-Serif" font-size="10.00">panda::utils::BranchName</text>
<text text-anchor="middle" x="553.845" y="-136.5" font-family="Helvetica,sans-Serif" font-size="10.00">::fullName</text>
</a>
</g>
</g>
<!-- Node3&#45;&gt;Node4 -->
<g id="edge3" class="edge"><title>Node3&#45;&gt;Node4</title>
<path fill="none" stroke="midnightblue" d="M271.275,-90.5631C289.506,-95.056 311.444,-100.277 331.293,-104.5 379.997,-114.862 435.045,-125.056 478.085,-132.688"/>
<polygon fill="midnightblue" stroke="midnightblue" points="477.739,-136.181 488.196,-134.473 478.956,-129.287 477.739,-136.181"/>
</g>
<!-- Node5 -->
<g id="node5" class="node"><title>Node5</title>
<g id="a_node5"><a xlink:href="namespacepanda_1_1utils.html#a01665f786d6a2acedb8f008f3fc9fc84" target="_top" xlink:title="Set status of a branch. ">
<polygon fill="white" stroke="black" points="331.293,-51.5 331.293,-71.5 445.663,-71.5 445.663,-51.5 331.293,-51.5"/>
<text text-anchor="middle" x="388.478" y="-58.5" font-family="Helvetica,sans-Serif" font-size="10.00">panda::utils::setStatus</text>
</a>
</g>
</g>
<!-- Node3&#45;&gt;Node5 -->
<g id="edge4" class="edge"><title>Node3&#45;&gt;Node5</title>
<path fill="none" stroke="midnightblue" d="M292.319,-73.0997C301.735,-71.9519 311.504,-70.7611 321.038,-69.5988"/>
<polygon fill="midnightblue" stroke="midnightblue" points="321.761,-73.0367 331.264,-68.3523 320.914,-66.0881 321.761,-73.0367"/>
</g>
<!-- Node6 -->
<g id="node6" class="node"><title>Node6</title>
<g id="a_node6"><a xlink:href="classpanda_1_1utils_1_1BranchName.html#a6cc8a6df7c5b12a0221fd49773cca6a7" target="_top" xlink:title="Is the name included and not vetoed? ">
<polygon fill="white" stroke="black" points="481.663,-90.5 481.663,-110.5 626.027,-110.5 626.027,-90.5 481.663,-90.5"/>
<text text-anchor="middle" x="553.845" y="-97.5" font-family="Helvetica,sans-Serif" font-size="10.00">panda::utils::BranchName::in</text>
</a>
</g>
</g>
<!-- Node3&#45;&gt;Node6 -->
<g id="edge9" class="edge"><title>Node3&#45;&gt;Node6</title>
<path fill="none" stroke="midnightblue" d="M292.031,-84.2618C342.676,-87.415 415.449,-91.9458 471.263,-95.4207"/>
<polygon fill="midnightblue" stroke="midnightblue" points="471.279,-98.9284 481.478,-96.0567 471.714,-91.942 471.279,-98.9284"/>
</g>
<!-- Node8 -->
<g id="node8" class="node"><title>Node8</title>
<g id="a_node8"><a xlink:href="namespacepanda_1_1utils.html#aafa411773a4b0ee829d99e6e5a0abdcd" target="_top" xlink:title="Check status of a branch. ">
<polygon fill="white" stroke="black" points="490.27,-0.5 490.27,-20.5 617.42,-20.5 617.42,-0.5 490.27,-0.5"/>
<text text-anchor="middle" x="553.845" y="-7.5" font-family="Helvetica,sans-Serif" font-size="10.00">panda::utils::checkStatus</text>
</a>
</g>
</g>
<!-- Node3&#45;&gt;Node8 -->
<g id="edge10" class="edge"><title>Node3&#45;&gt;Node8</title>
<path fill="none" stroke="midnightblue" d="M252.903,-70.484C272.762,-61.5517 303.427,-48.793 331.293,-41.5 380.094,-28.728 436.406,-20.9362 480.045,-16.3587"/>
<polygon fill="midnightblue" stroke="midnightblue" points="480.408,-19.84 490.003,-15.3468 479.7,-12.8759 480.408,-19.84"/>
</g>
<!-- Node5&#45;&gt;Node4 -->
<g id="edge7" class="edge"><title>Node5&#45;&gt;Node4</title>
<path fill="none" stroke="midnightblue" d="M403.308,-71.5109C420.886,-83.9212 452.462,-105.181 481.663,-119.5 485.941,-121.598 490.434,-123.623 494.995,-125.553"/>
<polygon fill="midnightblue" stroke="midnightblue" points="493.822,-128.854 504.404,-129.376 496.457,-122.369 493.822,-128.854"/>
</g>
<!-- Node5&#45;&gt;Node6 -->
<g id="edge5" class="edge"><title>Node5&#45;&gt;Node6</title>
<path fill="none" stroke="midnightblue" d="M431.549,-71.5435C452.701,-76.593 478.529,-82.7587 500.907,-88.1009"/>
<polygon fill="midnightblue" stroke="midnightblue" points="500.377,-91.5728 510.917,-90.4906 502.003,-84.7641 500.377,-91.5728"/>
</g>
<!-- Node7 -->
<g id="node7" class="node"><title>Node7</title>
<g id="a_node7"><a xlink:href="classpanda_1_1utils_1_1BranchName.html#ae3332329bf2afae5ed8e7c35e5d77ffa" target="_top" xlink:title="Is the name included and vetoed? ">
<polygon fill="white" stroke="black" points="488.331,-39.5 488.331,-71.5 619.359,-71.5 619.359,-39.5 488.331,-39.5"/>
<text text-anchor="start" x="496.331" y="-58.5" font-family="Helvetica,sans-Serif" font-size="10.00">panda::utils::BranchName</text>
<text text-anchor="middle" x="553.845" y="-46.5" font-family="Helvetica,sans-Serif" font-size="10.00">::vetoed</text>
</a>
</g>
</g>
<!-- Node5&#45;&gt;Node7 -->
<g id="edge6" class="edge"><title>Node5&#45;&gt;Node7</title>
<path fill="none" stroke="midnightblue" d="M445.7,-59.4351C456.051,-59.055 467.009,-58.6525 477.811,-58.2558"/>
<polygon fill="midnightblue" stroke="midnightblue" points="478.23,-61.7429 488.095,-57.8781 477.973,-54.7476 478.23,-61.7429"/>
</g>
<!-- Node5&#45;&gt;Node8 -->
<g id="edge8" class="edge"><title>Node5&#45;&gt;Node8</title>
<path fill="none" stroke="midnightblue" d="M416.735,-51.4496C434.995,-44.8624 459.635,-36.2532 481.663,-29.5 488.641,-27.3607 496.045,-25.2311 503.338,-23.2131"/>
<polygon fill="midnightblue" stroke="midnightblue" points="504.434,-26.5424 513.164,-20.5402 502.596,-19.7878 504.434,-26.5424"/>
</g>
</g>
</svg>
