<?xml version="1.0" encoding="UTF-8" standalone="no"?>
<!DOCTYPE svg PUBLIC "-//W3C//DTD SVG 1.1//EN"
 "http://www.w3.org/Graphics/SVG/1.1/DTD/svg11.dtd">
<!-- Generated by graphviz version 2.38.0 (20140413.2041)
 -->
<!-- Title: panda::GenJet::datastore::setAddress Pages: 1 -->
<svg width="973pt" height="170pt"
 viewBox="0.00 0.00 973.11 170.00" xmlns="http://www.w3.org/2000/svg" xmlns:xlink="http://www.w3.org/1999/xlink">
<g id="graph0" class="graph" transform="scale(1 1) rotate(0) translate(4 166)">
<title>panda::GenJet::datastore::setAddress</title>
<polygon fill="white" stroke="none" points="-4,4 -4,-166 969.11,-166 969.11,4 -4,4"/>
<!-- Node1 -->
<g id="node1" class="node"><title>Node1</title>
<polygon fill="#bfbfbf" stroke="black" points="-1.42109e-14,-48.5 -1.42109e-14,-80.5 128.828,-80.5 128.828,-48.5 -1.42109e-14,-48.5"/>
<text text-anchor="start" x="8" y="-67.5" font-family="Helvetica,sans-Serif" font-size="10.00">panda::GenJet::datastore</text>
<text text-anchor="middle" x="64.414" y="-55.5" font-family="Helvetica,sans-Serif" font-size="10.00">::setAddress</text>
</g>
<!-- Node2 -->
<g id="node2" class="node"><title>Node2</title>
<g id="a_node2"><a xlink:href="structpanda_1_1ParticleM_1_1datastore.html#ab9f9e7afb145c12941baa10892ed1811" target="_top" xlink:title="panda::ParticleM::datastore\l::setAddress">
<polygon fill="white" stroke="black" points="164.828,-71.5 164.828,-103.5 303.083,-103.5 303.083,-71.5 164.828,-71.5"/>
<text text-anchor="start" x="172.828" y="-90.5" font-family="Helvetica,sans-Serif" font-size="10.00">panda::ParticleM::datastore</text>
<text text-anchor="middle" x="233.956" y="-78.5" font-family="Helvetica,sans-Serif" font-size="10.00">::setAddress</text>
</a>
</g>
</g>
<!-- Node1&#45;&gt;Node2 -->
<g id="edge1" class="edge"><title>Node1&#45;&gt;Node2</title>
<path fill="none" stroke="midnightblue" d="M129.232,-73.2609C137.54,-74.4015 146.127,-75.5802 154.638,-76.7486"/>
<polygon fill="midnightblue" stroke="midnightblue" points="154.19,-80.2198 164.573,-78.1125 155.142,-73.2849 154.19,-80.2198"/>
</g>
<!-- Node5 -->
<g id="node5" class="node"><title>Node5</title>
<g id="a_node5"><a xlink:href="namespacepanda_1_1utils.html#abf9c62e588560197c2bae9932e6a6e05" target="_top" xlink:title="Set address. ">
<polygon fill="white" stroke="black" points="508.342,-70.5 508.342,-90.5 631.043,-90.5 631.043,-70.5 508.342,-70.5"/>
<text text-anchor="middle" x="569.692" y="-77.5" font-family="Helvetica,sans-Serif" font-size="10.00">panda::utils::setAddress</text>
</a>
</g>
</g>
<!-- Node1&#45;&gt;Node5 -->
<g id="edge14" class="edge"><title>Node1&#45;&gt;Node5</title>
<path fill="none" stroke="midnightblue" d="M129.048,-62.2942C140.938,-61.9631 153.26,-61.6745 164.828,-61.5 226.268,-60.5732 241.675,-59.3065 303.083,-61.5 369.274,-63.8644 444.566,-69.533 498.042,-74.0671"/>
<polygon fill="midnightblue" stroke="midnightblue" points="497.839,-77.5624 508.101,-74.9284 498.436,-70.5879 497.839,-77.5624"/>
</g>
<!-- Node3 -->
<g id="node3" class="node"><title>Node3</title>
<g id="a_node3"><a xlink:href="structpanda_1_1Particle_1_1datastore.html#a3e4a1f8d223d8378ef2b92a6d4ccd2b0" target="_top" xlink:title="panda::Particle::datastore\l::setAddress">
<polygon fill="white" stroke="black" points="339.083,-109.5 339.083,-141.5 469.009,-141.5 469.009,-109.5 339.083,-109.5"/>
<text text-anchor="start" x="347.083" y="-128.5" font-family="Helvetica,sans-Serif" font-size="10.00">panda::Particle::datastore</text>
<text text-anchor="middle" x="404.046" y="-116.5" font-family="Helvetica,sans-Serif" font-size="10.00">::setAddress</text>
</a>
</g>
</g>
<!-- Node2&#45;&gt;Node3 -->
<g id="edge2" class="edge"><title>Node2&#45;&gt;Node3</title>
<path fill="none" stroke="midnightblue" d="M303.324,-102.956C311.817,-104.876 320.531,-106.846 329.103,-108.784"/>
<polygon fill="midnightblue" stroke="midnightblue" points="328.553,-112.248 339.079,-111.039 330.097,-105.42 328.553,-112.248"/>
</g>
<!-- Node2&#45;&gt;Node5 -->
<g id="edge13" class="edge"><title>Node2&#45;&gt;Node5</title>
<path fill="none" stroke="midnightblue" d="M303.297,-86.0666C360.146,-84.8742 440.763,-83.1833 498.2,-81.9785"/>
<polygon fill="midnightblue" stroke="midnightblue" points="498.361,-85.476 508.285,-81.767 498.214,-78.4776 498.361,-85.476"/>
</g>
<!-- Node4 -->
<g id="node4" class="node"><title>Node4</title>
<g id="a_node4"><a xlink:href="structpanda_1_1ContainerElement_1_1datastore.html#ae59f1a9b346ef85225e9b3691c6728a1" target="_top" xlink:title="panda::ContainerElement\l::datastore::setAddress">
<polygon fill="white" stroke="black" points="505.009,-109.5 505.009,-141.5 634.376,-141.5 634.376,-109.5 505.009,-109.5"/>
<text text-anchor="start" x="513.009" y="-128.5" font-family="Helvetica,sans-Serif" font-size="10.00">panda::ContainerElement</text>
<text text-anchor="middle" x="569.692" y="-116.5" font-family="Helvetica,sans-Serif" font-size="10.00">::datastore::setAddress</text>
</a>
</g>
</g>
<!-- Node3&#45;&gt;Node4 -->
<g id="edge3" class="edge"><title>Node3&#45;&gt;Node4</title>
<path fill="none" stroke="midnightblue" d="M469.254,-125.5C477.593,-125.5 486.189,-125.5 494.672,-125.5"/>
<polygon fill="midnightblue" stroke="midnightblue" points="494.938,-129 504.938,-125.5 494.938,-122 494.938,-129"/>
</g>
<!-- Node3&#45;&gt;Node5 -->
<g id="edge4" class="edge"><title>Node3&#45;&gt;Node5</title>
<path fill="none" stroke="midnightblue" d="M463.664,-109.381C482.855,-104.104 503.902,-98.3163 522.083,-93.3168"/>
<polygon fill="midnightblue" stroke="midnightblue" points="523.145,-96.6549 531.859,-90.6287 521.289,-89.9054 523.145,-96.6549"/>
</g>
<!-- Node6 -->
<g id="node6" class="node"><title>Node6</title>
<g id="a_node6"><a xlink:href="classpanda_1_1utils_1_1BranchName.html#a13958ff4a9d554d2c057c600b4f70412" target="_top" xlink:title="Prepend the branch name with &lt;objName.&gt;. ">
<polygon fill="white" stroke="black" points="827.414,-129.5 827.414,-161.5 958.442,-161.5 958.442,-129.5 827.414,-129.5"/>
<text text-anchor="start" x="835.414" y="-148.5" font-family="Helvetica,sans-Serif" font-size="10.00">panda::utils::BranchName</text>
<text text-anchor="middle" x="892.928" y="-136.5" font-family="Helvetica,sans-Serif" font-size="10.00">::fullName</text>
</a>
</g>
</g>
<!-- Node5&#45;&gt;Node6 -->
<g id="edge5" class="edge"><title>Node5&#45;&gt;Node6</title>
<path fill="none" stroke="midnightblue" d="M610.358,-90.5631C628.589,-95.056 650.527,-100.277 670.376,-104.5 719.08,-114.862 774.128,-125.056 817.168,-132.688"/>
<polygon fill="midnightblue" stroke="midnightblue" points="816.822,-136.181 827.279,-134.473 818.039,-129.287 816.822,-136.181"/>
</g>
<!-- Node7 -->
<g id="node7" class="node"><title>Node7</title>
<g id="a_node7"><a xlink:href="namespacepanda_1_1utils.html#a01665f786d6a2acedb8f008f3fc9fc84" target="_top" xlink:title="Set status of a branch. ">
<polygon fill="white" stroke="black" points="670.376,-51.5 670.376,-71.5 784.746,-71.5 784.746,-51.5 670.376,-51.5"/>
<text text-anchor="middle" x="727.561" y="-58.5" font-family="Helvetica,sans-Serif" font-size="10.00">panda::utils::setStatus</text>
</a>
</g>
</g>
<!-- Node5&#45;&gt;Node7 -->
<g id="edge6" class="edge"><title>Node5&#45;&gt;Node7</title>
<path fill="none" stroke="midnightblue" d="M631.402,-73.0997C640.818,-71.9519 650.587,-70.7611 660.121,-69.5988"/>
<polygon fill="midnightblue" stroke="midnightblue" points="660.844,-73.0367 670.347,-68.3523 659.997,-66.0881 660.844,-73.0367"/>
</g>
<!-- Node8 -->
<g id="node8" class="node"><title>Node8</title>
<g id="a_node8"><a xlink:href="classpanda_1_1utils_1_1BranchName.html#a6cc8a6df7c5b12a0221fd49773cca6a7" target="_top" xlink:title="Is the name included and not vetoed? ">
<polygon fill="white" stroke="black" points="820.746,-90.5 820.746,-110.5 965.11,-110.5 965.11,-90.5 820.746,-90.5"/>
<text text-anchor="middle" x="892.928" y="-97.5" font-family="Helvetica,sans-Serif" font-size="10.00">panda::utils::BranchName::in</text>
</a>
</g>
</g>
<!-- Node5&#45;&gt;Node8 -->
<g id="edge11" class="edge"><title>Node5&#45;&gt;Node8</title>
<path fill="none" stroke="midnightblue" d="M631.114,-84.2618C681.759,-87.415 754.532,-91.9458 810.346,-95.4207"/>
<polygon fill="midnightblue" stroke="midnightblue" points="810.362,-98.9284 820.561,-96.0567 810.797,-91.942 810.362,-98.9284"/>
</g>
<!-- Node10 -->
<g id="node10" class="node"><title>Node10</title>
<g id="a_node10"><a xlink:href="namespacepanda_1_1utils.html#aafa411773a4b0ee829d99e6e5a0abdcd" target="_top" xlink:title="Check status of a branch. ">
<polygon fill="white" stroke="black" points="829.353,-0.5 829.353,-20.5 956.503,-20.5 956.503,-0.5 829.353,-0.5"/>
<text text-anchor="middle" x="892.928" y="-7.5" font-family="Helvetica,sans-Serif" font-size="10.00">panda::utils::checkStatus</text>
</a>
</g>
</g>
<!-- Node5&#45;&gt;Node10 -->
<g id="edge12" class="edge"><title>Node5&#45;&gt;Node10</title>
<path fill="none" stroke="midnightblue" d="M591.986,-70.484C611.845,-61.5517 642.51,-48.793 670.376,-41.5 719.177,-28.728 775.489,-20.9362 819.128,-16.3587"/>
<polygon fill="midnightblue" stroke="midnightblue" points="819.491,-19.84 829.086,-15.3468 818.783,-12.8759 819.491,-19.84"/>
</g>
<!-- Node7&#45;&gt;Node6 -->
<g id="edge9" class="edge"><title>Node7&#45;&gt;Node6</title>
<path fill="none" stroke="midnightblue" d="M742.391,-71.5109C759.969,-83.9212 791.545,-105.181 820.746,-119.5 825.024,-121.598 829.517,-123.623 834.078,-125.553"/>
<polygon fill="midnightblue" stroke="midnightblue" points="832.905,-128.854 843.487,-129.376 835.54,-122.369 832.905,-128.854"/>
</g>
<!-- Node7&#45;&gt;Node8 -->
<g id="edge7" class="edge"><title>Node7&#45;&gt;Node8</title>
<path fill="none" stroke="midnightblue" d="M770.632,-71.5435C791.784,-76.593 817.612,-82.7587 839.99,-88.1009"/>
<polygon fill="midnightblue" stroke="midnightblue" points="839.46,-91.5728 850,-90.4906 841.086,-84.7641 839.46,-91.5728"/>
</g>
<!-- Node9 -->
<g id="node9" class="node"><title>Node9</title>
<g id="a_node9"><a xlink:href="classpanda_1_1utils_1_1BranchName.html#ae3332329bf2afae5ed8e7c35e5d77ffa" target="_top" xlink:title="Is the name included and vetoed? ">
<polygon fill="white" stroke="black" points="827.414,-39.5 827.414,-71.5 958.442,-71.5 958.442,-39.5 827.414,-39.5"/>
<text text-anchor="start" x="835.414" y="-58.5" font-family="Helvetica,sans-Serif" font-size="10.00">panda::utils::BranchName</text>
<text text-anchor="middle" x="892.928" y="-46.5" font-family="Helvetica,sans-Serif" font-size="10.00">::vetoed</text>
</a>
</g>
</g>
<!-- Node7&#45;&gt;Node9 -->
<g id="edge8" class="edge"><title>Node7&#45;&gt;Node9</title>
<path fill="none" stroke="midnightblue" d="M784.783,-59.4351C795.134,-59.055 806.092,-58.6525 816.894,-58.2558"/>
<polygon fill="midnightblue" stroke="midnightblue" points="817.313,-61.7429 827.178,-57.8781 817.056,-54.7476 817.313,-61.7429"/>
</g>
<!-- Node7&#45;&gt;Node10 -->
<g id="edge10" class="edge"><title>Node7&#45;&gt;Node10</title>
<path fill="none" stroke="midnightblue" d="M755.818,-51.4496C774.078,-44.8624 798.718,-36.2532 820.746,-29.5 827.724,-27.3607 835.128,-25.2311 842.421,-23.2131"/>
<polygon fill="midnightblue" stroke="midnightblue" points="843.517,-26.5424 852.247,-20.5402 841.679,-19.7878 843.517,-26.5424"/>
</g>
</g>
</svg>
