<?xml version="1.0" encoding="UTF-8" standalone="no"?>
<!DOCTYPE svg PUBLIC "-//W3C//DTD SVG 1.1//EN"
 "http://www.w3.org/Graphics/SVG/1.1/DTD/svg11.dtd">
<!-- Generated by graphviz version 2.38.0 (20140413.2041)
 -->
<!-- Title: panda::MicroJet::datastore::deallocate Pages: 1 -->
<svg width="633pt" height="117pt"
 viewBox="0.00 0.00 633.49 117.00" xmlns="http://www.w3.org/2000/svg" xmlns:xlink="http://www.w3.org/1999/xlink">
<g id="graph0" class="graph" transform="scale(1 1) rotate(0) translate(4 113)">
<title>panda::MicroJet::datastore::deallocate</title>
<polygon fill="white" stroke="none" points="-4,4 -4,-113 629.49,-113 629.49,4 -4,4"/>
<!-- Node1 -->
<g id="node1" class="node"><title>Node1</title>
<polygon fill="#bfbfbf" stroke="black" points="-1.42109e-14,-50.5 -1.42109e-14,-82.5 134.367,-82.5 134.367,-50.5 -1.42109e-14,-50.5"/>
<text text-anchor="start" x="8" y="-69.5" font-family="Helvetica,sans-Serif" font-size="10.00">panda::MicroJet::datastore</text>
<text text-anchor="middle" x="67.1835" y="-57.5" font-family="Helvetica,sans-Serif" font-size="10.00">::deallocate</text>
</g>
<!-- Node2 -->
<g id="node2" class="node"><title>Node2</title>
<g id="a_node2"><a xlink:href="structpanda_1_1MicroJet_1_1datastore.html#a35979d6037e5229b018a32e3d0700360" target="_top" xlink:title="panda::MicroJet::datastore\l::~datastore">
<polygon fill="white" stroke="black" points="170.367,-76.5 170.367,-108.5 304.734,-108.5 304.734,-76.5 170.367,-76.5"/>
<text text-anchor="start" x="178.367" y="-95.5" font-family="Helvetica,sans-Serif" font-size="10.00">panda::MicroJet::datastore</text>
<text text-anchor="middle" x="237.55" y="-83.5" font-family="Helvetica,sans-Serif" font-size="10.00">::~datastore</text>
</a>
</g>
</g>
<!-- Node1&#45;&gt;Node2 -->
<g id="edge1" class="edge"><title>Node1&#45;&gt;Node2</title>
<path fill="none" stroke="midnightblue" d="M144.667,-78.311C153.195,-79.6279 161.829,-80.9611 170.215,-82.2562"/>
<polygon fill="midnightblue" stroke="midnightblue" points="145.144,-74.8431 134.727,-76.7759 144.075,-81.7611 145.144,-74.8431"/>
</g>
<!-- Node3 -->
<g id="node3" class="node"><title>Node3</title>
<g id="a_node3"><a xlink:href="structpanda_1_1Jet_1_1datastore.html#a606415eee51c1a38fc0613f3b2946d1e" target="_top" xlink:title="panda::Jet::datastore\l::deallocate">
<polygon fill="white" stroke="black" points="182.585,-25.5 182.585,-57.5 292.516,-57.5 292.516,-25.5 182.585,-25.5"/>
<text text-anchor="start" x="190.585" y="-44.5" font-family="Helvetica,sans-Serif" font-size="10.00">panda::Jet::datastore</text>
<text text-anchor="middle" x="237.55" y="-32.5" font-family="Helvetica,sans-Serif" font-size="10.00">::deallocate</text>
</a>
</g>
</g>
<!-- Node1&#45;&gt;Node3 -->
<g id="edge2" class="edge"><title>Node1&#45;&gt;Node3</title>
<path fill="none" stroke="midnightblue" d="M144.825,-55.1199C157.506,-53.2369 170.417,-51.3198 182.395,-49.5413"/>
<polygon fill="midnightblue" stroke="midnightblue" points="144.104,-51.6885 134.727,-56.6193 145.132,-58.6125 144.104,-51.6885"/>
</g>
<!-- Node4 -->
<g id="node4" class="node"><title>Node4</title>
<g id="a_node4"><a xlink:href="structpanda_1_1Jet_1_1datastore.html#a70fb643b535f39f676287fe34d603e01" target="_top" xlink:title="panda::Jet::datastore\l::~datastore">
<polygon fill="white" stroke="black" points="347.957,-51.5 347.957,-83.5 457.888,-83.5 457.888,-51.5 347.957,-51.5"/>
<text text-anchor="start" x="355.957" y="-70.5" font-family="Helvetica,sans-Serif" font-size="10.00">panda::Jet::datastore</text>
<text text-anchor="middle" x="402.923" y="-58.5" font-family="Helvetica,sans-Serif" font-size="10.00">::~datastore</text>
</a>
</g>
</g>
<!-- Node3&#45;&gt;Node4 -->
<g id="edge3" class="edge"><title>Node3&#45;&gt;Node4</title>
<path fill="none" stroke="midnightblue" d="M303.048,-51.7646C317.852,-54.1205 333.444,-56.6019 347.76,-58.8802"/>
<polygon fill="midnightblue" stroke="midnightblue" points="303.377,-48.2729 292.951,-50.1576 302.277,-55.1859 303.377,-48.2729"/>
</g>
<!-- Node5 -->
<g id="node5" class="node"><title>Node5</title>
<g id="a_node5"><a xlink:href="structpanda_1_1FatJet_1_1datastore.html#ae981e60d6fc142e3bbb4730a8a856fa7" target="_top" xlink:title="panda::FatJet::datastore\l::deallocate">
<polygon fill="white" stroke="black" points="340.734,-0.5 340.734,-32.5 465.112,-32.5 465.112,-0.5 340.734,-0.5"/>
<text text-anchor="start" x="348.734" y="-19.5" font-family="Helvetica,sans-Serif" font-size="10.00">panda::FatJet::datastore</text>
<text text-anchor="middle" x="402.923" y="-7.5" font-family="Helvetica,sans-Serif" font-size="10.00">::deallocate</text>
</a>
</g>
</g>
<!-- Node3&#45;&gt;Node5 -->
<g id="edge4" class="edge"><title>Node3&#45;&gt;Node5</title>
<path fill="none" stroke="midnightblue" d="M303.183,-31.6096C315.549,-29.7174 328.46,-27.7417 340.713,-25.8666"/>
<polygon fill="midnightblue" stroke="midnightblue" points="302.307,-28.2029 292.951,-33.1754 303.366,-35.1224 302.307,-28.2029"/>
</g>
<!-- Node6 -->
<g id="node6" class="node"><title>Node6</title>
<g id="a_node6"><a xlink:href="structpanda_1_1FatJet_1_1datastore.html#ab30c9e78310606976935325a55cb10e6" target="_top" xlink:title="panda::FatJet::datastore\l::~datastore">
<polygon fill="white" stroke="black" points="501.112,-0.5 501.112,-32.5 625.49,-32.5 625.49,-0.5 501.112,-0.5"/>
<text text-anchor="start" x="509.112" y="-19.5" font-family="Helvetica,sans-Serif" font-size="10.00">panda::FatJet::datastore</text>
<text text-anchor="middle" x="563.301" y="-7.5" font-family="Helvetica,sans-Serif" font-size="10.00">::~datastore</text>
</a>
</g>
</g>
<!-- Node5&#45;&gt;Node6 -->
<g id="edge5" class="edge"><title>Node5&#45;&gt;Node6</title>
<path fill="none" stroke="midnightblue" d="M475.179,-16.5C483.787,-16.5 492.521,-16.5 500.97,-16.5"/>
<polygon fill="midnightblue" stroke="midnightblue" points="475.156,-13.0001 465.156,-16.5 475.156,-20.0001 475.156,-13.0001"/>
</g>
</g>
</svg>
