<?xml version="1.0" encoding="UTF-8" standalone="no"?>
<!DOCTYPE svg PUBLIC "-//W3C//DTD SVG 1.1//EN"
 "http://www.w3.org/Graphics/SVG/1.1/DTD/svg11.dtd">
<!-- Generated by graphviz version 2.38.0 (20140413.2041)
 -->
<!-- Title: panda::ContainerElement::datastore::resizeVectors_ Pages: 1 -->
<!--zoomable 450 -->
<svg id="main" version="1.1" xmlns="http://www.w3.org/2000/svg" xmlns:xlink="http://www.w3.org/1999/xlink" xml:space="preserve" onload="init(evt)">
<style type="text/css"><![CDATA[
.edge:hover path { stroke: red; }
.edge:hover polygon { stroke: red; fill: red; }
]]></style>
<script type="text/javascript"><![CDATA[
var edges = document.getElementsByTagName('g');
if (edges && edges.length) {
  for (var i=0;i<edges.length;i++) {
    if (edges[i].id.substr(0,4)=='edge') {
      edges[i].setAttribute('class','edge');
    }
  }
}
]]></script>
        <defs>
                <circle id="rim" cx="0" cy="0" r="7"/>
                <circle id="rim2" cx="0" cy="0" r="3.5"/>
                <g id="zoomPlus">
                        <use xlink:href="#rim" fill="#404040">
                                <set attributeName="fill" to="#808080" begin="zoomplus.mouseover" end="zoomplus.mouseout"/>
                        </use>
                        <path d="M-4,0h8M0,-4v8" fill="none" stroke="white" stroke-width="1.5" pointer-events="none"/>
                </g>
                <g id="zoomMin">
                        <use xlink:href="#rim" fill="#404040">
                                <set attributeName="fill" to="#808080" begin="zoomminus.mouseover" end="zoomminus.mouseout"/>
                        </use>
                        <path d="M-4,0h8" fill="none" stroke="white" stroke-width="1.5" pointer-events="none"/>
                </g>
                <g id="dirArrow">
                        <path fill="none" stroke="white" stroke-width="1.5" d="M0,-3.0v7 M-2.5,-0.5L0,-3.0L2.5,-0.5"/>
                </g>
               <g id="resetDef">
                       <use xlink:href="#rim2" fill="#404040">
                               <set attributeName="fill" to="#808080" begin="reset.mouseover" end="reset.mouseout"/>
                       </use>
               </g>
        </defs>

<script type="text/javascript">
var viewWidth = 980;
var viewHeight = 450;
var sectionId = 'dynsection-7';
</script>
<script xlink:href="svgpan.js"/>
<svg id="graph" class="graph">
<g id="viewport">
<title>panda::ContainerElement::datastore::resizeVectors_</title>
<polygon fill="white" stroke="none" points="-4,4 -4,-446 975.777,-446 975.777,4 -4,4"/>
<!-- Node1 -->
<g id="node1" class="node"><title>Node1</title>
<polygon fill="#bfbfbf" stroke="black" points="-4.26326e-14,-302.5 -4.26326e-14,-334.5 134.918,-334.5 134.918,-302.5 -4.26326e-14,-302.5"/>
<text text-anchor="start" x="8" y="-321.5" font-family="Helvetica,sans-Serif" font-size="10.00">panda::ContainerElement</text>
<text text-anchor="middle" x="67.459" y="-309.5" font-family="Helvetica,sans-Serif" font-size="10.00">::datastore::resizeVectors_</text>
</g>
<!-- Node2 -->
<g id="node2" class="node"><title>Node2</title>
<g id="a_node2"><a xlink:href="classpanda_1_1CollectionBase.html#a5820623424a01aa34f3988ead2612576" target="_top" xlink:title="panda::CollectionBase\l::clear">
<polygon fill="white" stroke="black" points="180.361,-395.5 180.361,-427.5 296.392,-427.5 296.392,-395.5 180.361,-395.5"/>
<text text-anchor="start" x="188.361" y="-414.5" font-family="Helvetica,sans-Serif" font-size="10.00">panda::CollectionBase</text>
<text text-anchor="middle" x="238.377" y="-402.5" font-family="Helvetica,sans-Serif" font-size="10.00">::clear</text>
</a>
</g>
</g>
<!-- Node1&#45;&gt;Node2 -->
<g id="edge1" class="edge"><title>Node1&#45;&gt;Node2</title>
<path fill="none" stroke="midnightblue" d="M107.035,-339.739C137.83,-356.693 180.31,-380.081 208.291,-395.486"/>
<polygon fill="midnightblue" stroke="midnightblue" points="108.33,-336.456 97.8823,-334.699 104.954,-342.588 108.33,-336.456"/>
</g>
<!-- Node4 -->
<g id="node4" class="node"><title>Node4</title>
<g id="a_node4"><a xlink:href="classpanda_1_1CollectionBase.html#a3ec014ac2da87bb755afbea0822621cc" target="_top" xlink:title="Resize the container. ">
<polygon fill="white" stroke="black" points="180.361,-328.5 180.361,-360.5 296.392,-360.5 296.392,-328.5 180.361,-328.5"/>
<text text-anchor="start" x="188.361" y="-347.5" font-family="Helvetica,sans-Serif" font-size="10.00">panda::CollectionBase</text>
<text text-anchor="middle" x="238.377" y="-335.5" font-family="Helvetica,sans-Serif" font-size="10.00">::resize</text>
</a>
</g>
</g>
<!-- Node1&#45;&gt;Node4 -->
<g id="edge3" class="edge"><title>Node1&#45;&gt;Node4</title>
<path fill="none" stroke="midnightblue" d="M145.406,-330.344C157.08,-332.141 168.946,-333.967 180.104,-335.685"/>
<polygon fill="midnightblue" stroke="midnightblue" points="145.636,-326.838 135.22,-328.776 144.571,-333.757 145.636,-326.838"/>
</g>
<!-- Node7 -->
<g id="node7" class="node"><title>Node7</title>
<g id="a_node7"><a xlink:href="structpanda_1_1Particle_1_1datastore.html#aef7e06dbd8399f7de3215aa895907c5f" target="_top" xlink:title="Override when there are vector members. ">
<polygon fill="white" stroke="black" points="173.414,-277.5 173.414,-309.5 303.34,-309.5 303.34,-277.5 173.414,-277.5"/>
<text text-anchor="start" x="181.414" y="-296.5" font-family="Helvetica,sans-Serif" font-size="10.00">panda::Particle::datastore</text>
<text text-anchor="middle" x="238.377" y="-284.5" font-family="Helvetica,sans-Serif" font-size="10.00">::resizeVectors_</text>
</a>
</g>
</g>
<!-- Node1&#45;&gt;Node7 -->
<g id="edge6" class="edge"><title>Node1&#45;&gt;Node7</title>
<path fill="none" stroke="midnightblue" d="M145.307,-307.126C154.669,-305.741 164.157,-304.337 173.306,-302.983"/>
<polygon fill="midnightblue" stroke="midnightblue" points="144.6,-303.693 135.22,-308.619 145.625,-310.617 144.6,-303.693"/>
</g>
<!-- Node21 -->
<g id="node21" class="node"><title>Node21</title>
<g id="a_node21"><a xlink:href="structpanda_1_1SuperCluster_1_1datastore.html#a8ca840d594bb0fd1168615b0ae11988f" target="_top" xlink:title="Override when there are vector members. ">
<polygon fill="white" stroke="black" points="170.918,-226.5 170.918,-258.5 305.836,-258.5 305.836,-226.5 170.918,-226.5"/>
<text text-anchor="start" x="178.918" y="-245.5" font-family="Helvetica,sans-Serif" font-size="10.00">panda::SuperCluster</text>
<text text-anchor="middle" x="238.377" y="-233.5" font-family="Helvetica,sans-Serif" font-size="10.00">::datastore::resizeVectors_</text>
</a>
</g>
</g>
<!-- Node1&#45;&gt;Node21 -->
<g id="edge20" class="edge"><title>Node1&#45;&gt;Node21</title>
<path fill="none" stroke="midnightblue" d="M109.097,-297.728C127.765,-288.43 150.296,-277.548 170.918,-268.5 178.52,-265.165 186.694,-261.795 194.622,-258.636"/>
<polygon fill="midnightblue" stroke="midnightblue" points="107.366,-294.681 99.9933,-302.289 110.502,-300.939 107.366,-294.681"/>
</g>
<!-- Node3 -->
<g id="node3" class="node"><title>Node3</title>
<g id="a_node3"><a xlink:href="classpanda_1_1CollectionBase.html#a5d7caaf03fa968bd6c9dad5b6ffe4687" target="_top" xlink:title="Reset object state. ">
<polygon fill="white" stroke="black" points="360.178,-409.5 360.178,-441.5 476.208,-441.5 476.208,-409.5 360.178,-409.5"/>
<text text-anchor="start" x="368.178" y="-428.5" font-family="Helvetica,sans-Serif" font-size="10.00">panda::CollectionBase</text>
<text text-anchor="middle" x="418.193" y="-416.5" font-family="Helvetica,sans-Serif" font-size="10.00">::init</text>
</a>
</g>
</g>
<!-- Node2&#45;&gt;Node3 -->
<g id="edge2" class="edge"><title>Node2&#45;&gt;Node3</title>
<path fill="none" stroke="midnightblue" d="M306.794,-416.808C324.349,-418.19 343.093,-419.666 360.059,-421.002"/>
<polygon fill="midnightblue" stroke="midnightblue" points="306.862,-413.303 296.618,-416.007 306.312,-420.281 306.862,-413.303"/>
</g>
<!-- Node5 -->
<g id="node5" class="node"><title>Node5</title>
<g id="a_node5"><a xlink:href="classpanda_1_1Container.html#a05e9a487429721164541511d87a9783d" target="_top" xlink:title="panda::Container::copy">
<polygon fill="white" stroke="black" points="358.508,-370.5 358.508,-390.5 477.878,-390.5 477.878,-370.5 358.508,-370.5"/>
<text text-anchor="middle" x="418.193" y="-377.5" font-family="Helvetica,sans-Serif" font-size="10.00">panda::Container::copy</text>
</a>
</g>
</g>
<!-- Node4&#45;&gt;Node5 -->
<g id="edge4" class="edge"><title>Node4&#45;&gt;Node5</title>
<path fill="none" stroke="midnightblue" d="M306.425,-358.074C326.709,-362.181 348.611,-366.615 367.541,-370.448"/>
<polygon fill="midnightblue" stroke="midnightblue" points="307.114,-354.643 296.618,-356.089 305.724,-361.504 307.114,-354.643"/>
</g>
<!-- Node6 -->
<g id="node6" class="node"><title>Node6</title>
<g id="a_node6"><a xlink:href="classpanda_1_1Container.html#a9603d59e46e21b048714a9760964b536" target="_top" xlink:title="panda::Container::create_back">
<polygon fill="white" stroke="black" points="341.836,-331.5 341.836,-351.5 494.55,-351.5 494.55,-331.5 341.836,-331.5"/>
<text text-anchor="middle" x="418.193" y="-338.5" font-family="Helvetica,sans-Serif" font-size="10.00">panda::Container::create_back</text>
</a>
</g>
</g>
<!-- Node4&#45;&gt;Node6 -->
<g id="edge5" class="edge"><title>Node4&#45;&gt;Node6</title>
<path fill="none" stroke="midnightblue" d="M306.868,-343.361C318.205,-343.17 330.037,-342.97 341.563,-342.776"/>
<polygon fill="midnightblue" stroke="midnightblue" points="306.557,-339.866 296.618,-343.534 306.676,-346.865 306.557,-339.866"/>
</g>
<!-- Node8 -->
<g id="node8" class="node"><title>Node8</title>
<g id="a_node8"><a xlink:href="structpanda_1_1Lepton_1_1datastore.html#ae0167ad568d7b57d6e11b1775cd790c7" target="_top" xlink:title="Override when there are vector members. ">
<polygon fill="white" stroke="black" points="354.609,-280.5 354.609,-312.5 481.776,-312.5 481.776,-280.5 354.609,-280.5"/>
<text text-anchor="start" x="362.609" y="-299.5" font-family="Helvetica,sans-Serif" font-size="10.00">panda::Lepton::datastore</text>
<text text-anchor="middle" x="418.193" y="-287.5" font-family="Helvetica,sans-Serif" font-size="10.00">::resizeVectors_</text>
</a>
</g>
</g>
<!-- Node7&#45;&gt;Node8 -->
<g id="edge7" class="edge"><title>Node7&#45;&gt;Node8</title>
<path fill="none" stroke="midnightblue" d="M313.829,-294.756C327.388,-294.985 341.407,-295.221 354.58,-295.444"/>
<polygon fill="midnightblue" stroke="midnightblue" points="313.63,-291.252 303.573,-294.583 313.512,-298.251 313.63,-291.252"/>
</g>
<!-- Node11 -->
<g id="node11" class="node"><title>Node11</title>
<g id="a_node11"><a xlink:href="structpanda_1_1ParticleM_1_1datastore.html#a6dd61d4a8f70e81a1638757a5edbc7ed" target="_top" xlink:title="Override when there are vector members. ">
<polygon fill="white" stroke="black" points="349.065,-178.5 349.065,-210.5 487.32,-210.5 487.32,-178.5 349.065,-178.5"/>
<text text-anchor="start" x="357.065" y="-197.5" font-family="Helvetica,sans-Serif" font-size="10.00">panda::ParticleM::datastore</text>
<text text-anchor="middle" x="418.193" y="-185.5" font-family="Helvetica,sans-Serif" font-size="10.00">::resizeVectors_</text>
</a>
</g>
</g>
<!-- Node7&#45;&gt;Node11 -->
<g id="edge10" class="edge"><title>Node7&#45;&gt;Node11</title>
<path fill="none" stroke="midnightblue" d="M295.517,-273.434C299.047,-271.85 302.513,-270.201 305.836,-268.5 338.895,-251.575 374.129,-226.9 395.906,-210.774"/>
<polygon fill="midnightblue" stroke="midnightblue" points="293.898,-270.32 286.081,-277.471 296.651,-276.755 293.898,-270.32"/>
</g>
<!-- Node20 -->
<g id="node20" class="node"><title>Node20</title>
<g id="a_node20"><a xlink:href="structpanda_1_1Photon_1_1datastore.html#a819de9f7590bca725315d2b6432b0f6a" target="_top" xlink:title="Override when there are vector members. ">
<polygon fill="white" stroke="black" points="354.054,-127.5 354.054,-159.5 482.332,-159.5 482.332,-127.5 354.054,-127.5"/>
<text text-anchor="start" x="362.054" y="-146.5" font-family="Helvetica,sans-Serif" font-size="10.00">panda::Photon::datastore</text>
<text text-anchor="middle" x="418.193" y="-134.5" font-family="Helvetica,sans-Serif" font-size="10.00">::resizeVectors_</text>
</a>
</g>
</g>
<!-- Node7&#45;&gt;Node20 -->
<g id="edge19" class="edge"><title>Node7&#45;&gt;Node20</title>
<path fill="none" stroke="midnightblue" d="M302.524,-271.571C303.673,-270.591 304.78,-269.568 305.836,-268.5 338.759,-235.212 308.458,-202.331 341.836,-169.5 345.783,-165.618 350.336,-162.314 355.209,-159.503"/>
<polygon fill="midnightblue" stroke="midnightblue" points="300.458,-268.746 294.391,-277.432 304.55,-274.425 300.458,-268.746"/>
</g>
<!-- Node9 -->
<g id="node9" class="node"><title>Node9</title>
<g id="a_node9"><a xlink:href="structpanda_1_1Electron_1_1datastore.html#a8f0e7ee31635f5cf7482c86b732877a2" target="_top" xlink:title="Override when there are vector members. ">
<polygon fill="white" stroke="black" points="531.376,-357.5 531.376,-389.5 664.642,-389.5 664.642,-357.5 531.376,-357.5"/>
<text text-anchor="start" x="539.376" y="-376.5" font-family="Helvetica,sans-Serif" font-size="10.00">panda::Electron::datastore</text>
<text text-anchor="middle" x="598.009" y="-364.5" font-family="Helvetica,sans-Serif" font-size="10.00">::resizeVectors_</text>
</a>
</g>
</g>
<!-- Node8&#45;&gt;Node9 -->
<g id="edge8" class="edge"><title>Node8&#45;&gt;Node9</title>
<path fill="none" stroke="midnightblue" d="M481.908,-316.533C486.248,-318.407 490.502,-320.399 494.55,-322.5 512.067,-331.594 513.16,-339.166 530.55,-348.5 536.524,-351.707 542.998,-354.689 549.483,-357.396"/>
<polygon fill="midnightblue" stroke="midnightblue" points="482.895,-313.156 472.314,-312.618 480.25,-319.637 482.895,-313.156"/>
</g>
<!-- Node10 -->
<g id="node10" class="node"><title>Node10</title>
<g id="a_node10"><a xlink:href="structpanda_1_1Muon_1_1datastore.html#a77544efc70e6058bc86a09dc6a13f483" target="_top" xlink:title="Override when there are vector members. ">
<polygon fill="white" stroke="black" points="537.209,-306.5 537.209,-338.5 658.808,-338.5 658.808,-306.5 537.209,-306.5"/>
<text text-anchor="start" x="545.209" y="-325.5" font-family="Helvetica,sans-Serif" font-size="10.00">panda::Muon::datastore</text>
<text text-anchor="middle" x="598.009" y="-313.5" font-family="Helvetica,sans-Serif" font-size="10.00">::resizeVectors_</text>
</a>
</g>
</g>
<!-- Node8&#45;&gt;Node10 -->
<g id="edge9" class="edge"><title>Node8&#45;&gt;Node10</title>
<path fill="none" stroke="midnightblue" d="M492.094,-307.16C507.017,-309.342 522.562,-311.615 536.972,-313.722"/>
<polygon fill="midnightblue" stroke="midnightblue" points="492.285,-303.65 481.884,-305.667 491.273,-310.577 492.285,-303.65"/>
</g>
<!-- Node12 -->
<g id="node12" class="node"><title>Node12</title>
<g id="a_node12"><a xlink:href="structpanda_1_1GenJet_1_1datastore.html#a6b6d0feb6fe978115c45180cccb7497b" target="_top" xlink:title="Override when there are vector members. ">
<polygon fill="white" stroke="black" points="533.595,-255.5 533.595,-287.5 662.423,-287.5 662.423,-255.5 533.595,-255.5"/>
<text text-anchor="start" x="541.595" y="-274.5" font-family="Helvetica,sans-Serif" font-size="10.00">panda::GenJet::datastore</text>
<text text-anchor="middle" x="598.009" y="-262.5" font-family="Helvetica,sans-Serif" font-size="10.00">::resizeVectors_</text>
</a>
</g>
</g>
<!-- Node11&#45;&gt;Node12 -->
<g id="edge11" class="edge"><title>Node11&#45;&gt;Node12</title>
<path fill="none" stroke="midnightblue" d="M461.186,-215.043C481.898,-224.936 507.356,-236.739 530.55,-246.5 537.708,-249.512 545.368,-252.556 552.849,-255.433"/>
<polygon fill="midnightblue" stroke="midnightblue" points="462.558,-211.819 452.028,-210.646 459.528,-218.13 462.558,-211.819"/>
</g>
<!-- Node13 -->
<g id="node13" class="node"><title>Node13</title>
<g id="a_node13"><a xlink:href="structpanda_1_1GenParticle_1_1datastore.html#a28a604490b71305ae71b9671e3ea0bdf" target="_top" xlink:title="Override when there are vector members. ">
<polygon fill="white" stroke="black" points="530.55,-204.5 530.55,-236.5 665.468,-236.5 665.468,-204.5 530.55,-204.5"/>
<text text-anchor="start" x="538.55" y="-223.5" font-family="Helvetica,sans-Serif" font-size="10.00">panda::GenParticle</text>
<text text-anchor="middle" x="598.009" y="-211.5" font-family="Helvetica,sans-Serif" font-size="10.00">::datastore::resizeVectors_</text>
</a>
</g>
</g>
<!-- Node11&#45;&gt;Node13 -->
<g id="edge12" class="edge"><title>Node11&#45;&gt;Node13</title>
<path fill="none" stroke="midnightblue" d="M497.451,-205.943C508.448,-207.551 519.665,-209.191 530.418,-210.763"/>
<polygon fill="midnightblue" stroke="midnightblue" points="497.834,-202.462 487.433,-204.478 496.821,-209.388 497.834,-202.462"/>
</g>
<!-- Node14 -->
<g id="node14" class="node"><title>Node14</title>
<g id="a_node14"><a xlink:href="structpanda_1_1MicroJet_1_1datastore.html#a9570f85bfad7f55e239670d0f364cb8b" target="_top" xlink:title="Override when there are vector members. ">
<polygon fill="white" stroke="black" points="530.825,-153.5 530.825,-185.5 665.192,-185.5 665.192,-153.5 530.825,-153.5"/>
<text text-anchor="start" x="538.825" y="-172.5" font-family="Helvetica,sans-Serif" font-size="10.00">panda::MicroJet::datastore</text>
<text text-anchor="middle" x="598.009" y="-160.5" font-family="Helvetica,sans-Serif" font-size="10.00">::resizeVectors_</text>
</a>
</g>
</g>
<!-- Node11&#45;&gt;Node14 -->
<g id="edge13" class="edge"><title>Node11&#45;&gt;Node14</title>
<path fill="none" stroke="midnightblue" d="M497.521,-183.488C508.595,-181.931 519.892,-180.342 530.71,-178.821"/>
<polygon fill="midnightblue" stroke="midnightblue" points="496.848,-180.048 487.433,-184.906 497.823,-186.979 496.848,-180.048"/>
</g>
<!-- Node17 -->
<g id="node17" class="node"><title>Node17</title>
<g id="a_node17"><a xlink:href="structpanda_1_1Parton_1_1datastore.html#a85ed8f023c9fddb6ada93150e4d03c22" target="_top" xlink:title="Override when there are vector members. ">
<polygon fill="white" stroke="black" points="534.985,-102.5 534.985,-134.5 661.032,-134.5 661.032,-102.5 534.985,-102.5"/>
<text text-anchor="start" x="542.985" y="-121.5" font-family="Helvetica,sans-Serif" font-size="10.00">panda::Parton::datastore</text>
<text text-anchor="middle" x="598.009" y="-109.5" font-family="Helvetica,sans-Serif" font-size="10.00">::resizeVectors_</text>
</a>
</g>
</g>
<!-- Node11&#45;&gt;Node17 -->
<g id="edge16" class="edge"><title>Node11&#45;&gt;Node17</title>
<path fill="none" stroke="midnightblue" d="M483.441,-174.604C487.246,-172.989 490.977,-171.287 494.55,-169.5 511.973,-160.788 513.362,-153.667 530.55,-144.5 537.219,-140.944 544.482,-137.606 551.679,-134.584"/>
<polygon fill="midnightblue" stroke="midnightblue" points="481.855,-171.469 473.871,-178.434 484.456,-177.968 481.855,-171.469"/>
</g>
<!-- Node18 -->
<g id="node18" class="node"><title>Node18</title>
<g id="a_node18"><a xlink:href="structpanda_1_1PFCand_1_1datastore.html#a3e3acf6cc81f4ebe16220a7931b3bb2d" target="_top" xlink:title="Override when there are vector members. ">
<polygon fill="white" stroke="black" points="531.375,-51.5 531.375,-83.5 664.642,-83.5 664.642,-51.5 531.375,-51.5"/>
<text text-anchor="start" x="539.375" y="-70.5" font-family="Helvetica,sans-Serif" font-size="10.00">panda::PFCand::datastore</text>
<text text-anchor="middle" x="598.009" y="-58.5" font-family="Helvetica,sans-Serif" font-size="10.00">::resizeVectors_</text>
</a>
</g>
</g>
<!-- Node11&#45;&gt;Node18 -->
<g id="edge17" class="edge"><title>Node11&#45;&gt;Node18</title>
<path fill="none" stroke="midnightblue" d="M490.453,-172.827C491.869,-171.77 493.237,-170.662 494.55,-169.5 522.541,-144.732 503.22,-118.995 530.55,-93.5 534.627,-89.6969 539.324,-86.4275 544.297,-83.6216"/>
<polygon fill="midnightblue" stroke="midnightblue" points="488.41,-169.979 481.897,-178.336 492.2,-175.865 488.41,-169.979"/>
</g>
<!-- Node19 -->
<g id="node19" class="node"><title>Node19</title>
<g id="a_node19"><a xlink:href="structpanda_1_1Tau_1_1datastore.html#a1dce455474842a78eb6a7ab7b3271f3a" target="_top" xlink:title="Override when there are vector members. ">
<polygon fill="white" stroke="black" points="541.099,-0.5 541.099,-32.5 654.919,-32.5 654.919,-0.5 541.099,-0.5"/>
<text text-anchor="start" x="549.099" y="-19.5" font-family="Helvetica,sans-Serif" font-size="10.00">panda::Tau::datastore</text>
<text text-anchor="middle" x="598.009" y="-7.5" font-family="Helvetica,sans-Serif" font-size="10.00">::resizeVectors_</text>
</a>
</g>
</g>
<!-- Node11&#45;&gt;Node19 -->
<g id="edge18" class="edge"><title>Node11&#45;&gt;Node19</title>
<path fill="none" stroke="midnightblue" d="M491.709,-172.25C492.69,-171.368 493.639,-170.452 494.55,-169.5 535.11,-127.11 491.119,-85.9412 530.55,-42.5 534.047,-38.647 538.186,-35.3584 542.661,-32.5527"/>
<polygon fill="midnightblue" stroke="midnightblue" points="489.493,-169.537 483.606,-178.345 493.701,-175.131 489.493,-169.537"/>
</g>
<!-- Node15 -->
<g id="node15" class="node"><title>Node15</title>
<g id="a_node15"><a xlink:href="structpanda_1_1Jet_1_1datastore.html#a8de9fbcd55c17f7d3d022088f6ded487" target="_top" xlink:title="Override when there are vector members. ">
<polygon fill="white" stroke="black" points="701.468,-153.5 701.468,-185.5 811.399,-185.5 811.399,-153.5 701.468,-153.5"/>
<text text-anchor="start" x="709.468" y="-172.5" font-family="Helvetica,sans-Serif" font-size="10.00">panda::Jet::datastore</text>
<text text-anchor="middle" x="756.433" y="-160.5" font-family="Helvetica,sans-Serif" font-size="10.00">::resizeVectors_</text>
</a>
</g>
</g>
<!-- Node14&#45;&gt;Node15 -->
<g id="edge14" class="edge"><title>Node14&#45;&gt;Node15</title>
<path fill="none" stroke="midnightblue" d="M675.529,-169.5C684.235,-169.5 692.969,-169.5 701.3,-169.5"/>
<polygon fill="midnightblue" stroke="midnightblue" points="675.347,-166 665.347,-169.5 675.347,-173 675.347,-166"/>
</g>
<!-- Node16 -->
<g id="node16" class="node"><title>Node16</title>
<g id="a_node16"><a xlink:href="structpanda_1_1FatJet_1_1datastore.html#ac707315048c1fe184534202259fbdda9" target="_top" xlink:title="Override when there are vector members. ">
<polygon fill="white" stroke="black" points="847.399,-153.5 847.399,-185.5 971.777,-185.5 971.777,-153.5 847.399,-153.5"/>
<text text-anchor="start" x="855.399" y="-172.5" font-family="Helvetica,sans-Serif" font-size="10.00">panda::FatJet::datastore</text>
<text text-anchor="middle" x="909.588" y="-160.5" font-family="Helvetica,sans-Serif" font-size="10.00">::resizeVectors_</text>
</a>
</g>
</g>
<!-- Node15&#45;&gt;Node16 -->
<g id="edge15" class="edge"><title>Node15&#45;&gt;Node16</title>
<path fill="none" stroke="midnightblue" d="M821.796,-169.5C830.276,-169.5 838.949,-169.5 847.374,-169.5"/>
<polygon fill="midnightblue" stroke="midnightblue" points="821.577,-166 811.577,-169.5 821.577,-173 821.577,-166"/>
</g>
</g>
</svg>
        <g id="navigator" transform="translate(0 0)" fill="#404254">
                <rect fill="#f2f5e9" fill-opacity="0.5" stroke="#606060" stroke-width=".5" x="0" y="0" width="60" height="60"/>
                <use id="zoomplus" xlink:href="#zoomPlus" x="17" y="9" onmousedown="handleZoom(evt,'in')"/>
                <use id="zoomminus" xlink:href="#zoomMin" x="42" y="9" onmousedown="handleZoom(evt,'out')"/>
                <use id="reset" xlink:href="#resetDef" x="30" y="36" onmousedown="handleReset()"/>
                <g id="arrowUp" xlink:href="#dirArrow" transform="translate(30 24)" onmousedown="handlePan(0,-1)">
                  <use xlink:href="#rim" fill="#404040">
                        <set attributeName="fill" to="#808080" begin="arrowUp.mouseover" end="arrowUp.mouseout"/>
                  </use>
                  <path fill="none" stroke="white" stroke-width="1.5" d="M0,-3.0v7 M-2.5,-0.5L0,-3.0L2.5,-0.5"/>
                </g>
                <g id="arrowRight" xlink:href="#dirArrow" transform="rotate(90) translate(36 -43)" onmousedown="handlePan(1,0)">
                  <use xlink:href="#rim" fill="#404040">
                        <set attributeName="fill" to="#808080" begin="arrowRight.mouseover" end="arrowRight.mouseout"/>
                  </use>
                  <path fill="none" stroke="white" stroke-width="1.5" d="M0,-3.0v7 M-2.5,-0.5L0,-3.0L2.5,-0.5"/>
                </g>
                <g id="arrowDown" xlink:href="#dirArrow" transform="rotate(180) translate(-30 -48)" onmousedown="handlePan(0,1)">
                  <use xlink:href="#rim" fill="#404040">
                        <set attributeName="fill" to="#808080" begin="arrowDown.mouseover" end="arrowDown.mouseout"/>
                  </use>
                  <path fill="none" stroke="white" stroke-width="1.5" d="M0,-3.0v7 M-2.5,-0.5L0,-3.0L2.5,-0.5"/>
                </g>
                <g id="arrowLeft" xlink:href="#dirArrow" transform="rotate(270) translate(-36 17)" onmousedown="handlePan(-1,0)">
                  <use xlink:href="#rim" fill="#404040">
                        <set attributeName="fill" to="#808080" begin="arrowLeft.mouseover" end="arrowLeft.mouseout"/>
                  </use>
                  <path fill="none" stroke="white" stroke-width="1.5" d="M0,-3.0v7 M-2.5,-0.5L0,-3.0L2.5,-0.5"/>
                </g>
        </g>
        <svg viewBox="0 0 15 15" width="100%" height="30px" preserveAspectRatio="xMaxYMin meet">
         <g id="arrow_out" transform="scale(0.3 0.3)">
          <a xlink:href="structpanda_1_1ContainerElement_1_1datastore_ac050bf7055f0c53b4aff4234e2de6e20_icgraph_org.svg" target="_base">
           <rect id="button" ry="5" rx="5" y="6" x="6" height="38" width="38"
                fill="#f2f5e9" fill-opacity="0.5" stroke="#606060" stroke-width="1.0"/>
           <path id="arrow"
             d="M 11.500037,31.436501 C 11.940474,20.09759 22.043105,11.32322 32.158766,21.979434 L 37.068811,17.246167 C 37.068811,17.246167 37.088388,32 37.088388,32 L 22.160133,31.978069 C 22.160133,31.978069 26.997745,27.140456 26.997745,27.140456 C 18.528582,18.264221 13.291696,25.230495 11.500037,31.436501 z"
             style="fill:#404040;"/>
          </a>
         </g>
        </svg>
</svg>
