<?xml version="1.0" encoding="UTF-8" standalone="no"?>
<!DOCTYPE svg PUBLIC "-//W3C//DTD SVG 1.1//EN"
 "http://www.w3.org/Graphics/SVG/1.1/DTD/svg11.dtd">
<!-- Generated by graphviz version 2.38.0 (20140413.2041)
 -->
<!-- Title: panda::GenParticle::datastore::deallocate Pages: 1 -->
<svg width="275pt" height="41pt"
 viewBox="0.00 0.00 274.69 41.00" xmlns="http://www.w3.org/2000/svg" xmlns:xlink="http://www.w3.org/1999/xlink">
<g id="graph0" class="graph" transform="scale(1 1) rotate(0) translate(4 37)">
<title>panda::GenParticle::datastore::deallocate</title>
<polygon fill="white" stroke="none" points="-4,4 -4,-37 270.688,-37 270.688,4 -4,4"/>
<!-- Node1 -->
<g id="node1" class="node"><title>Node1</title>
<polygon fill="#bfbfbf" stroke="black" points="-7.10543e-15,-0.5 -7.10543e-15,-32.5 114.369,-32.5 114.369,-0.5 -7.10543e-15,-0.5"/>
<text text-anchor="start" x="8" y="-19.5" font-family="Helvetica,sans-Serif" font-size="10.00">panda::GenParticle</text>
<text text-anchor="middle" x="57.1845" y="-7.5" font-family="Helvetica,sans-Serif" font-size="10.00">::datastore::deallocate</text>
</g>
<!-- Node2 -->
<g id="node2" class="node"><title>Node2</title>
<g id="a_node2"><a xlink:href="structpanda_1_1GenParticle_1_1datastore.html#af04b1b2c05d433c8020d5250db10d7d9" target="_top" xlink:title="panda::GenParticle\l::datastore::~datastore">
<polygon fill="white" stroke="black" points="150.369,-0.5 150.369,-32.5 266.688,-32.5 266.688,-0.5 150.369,-0.5"/>
<text text-anchor="start" x="158.369" y="-19.5" font-family="Helvetica,sans-Serif" font-size="10.00">panda::GenParticle</text>
<text text-anchor="middle" x="208.528" y="-7.5" font-family="Helvetica,sans-Serif" font-size="10.00">::datastore::~datastore</text>
</a>
</g>
</g>
<!-- Node1&#45;&gt;Node2 -->
<g id="edge1" class="edge"><title>Node1&#45;&gt;Node2</title>
<path fill="none" stroke="midnightblue" d="M124.8,-16.5C133.205,-16.5 141.747,-16.5 149.995,-16.5"/>
<polygon fill="midnightblue" stroke="midnightblue" points="124.645,-13.0001 114.645,-16.5 124.645,-20.0001 124.645,-13.0001"/>
</g>
</g>
</svg>
