<?xml version="1.0" encoding="UTF-8" standalone="no"?>
<!DOCTYPE svg PUBLIC "-//W3C//DTD SVG 1.1//EN"
 "http://www.w3.org/Graphics/SVG/1.1/DTD/svg11.dtd">
<!-- Generated by graphviz version 2.38.0 (20140413.2041)
 -->
<!-- Title: panda::GenParticle::datastore::allocate Pages: 1 -->
<svg width="617pt" height="41pt"
 viewBox="0.00 0.00 616.80 41.00" xmlns="http://www.w3.org/2000/svg" xmlns:xlink="http://www.w3.org/1999/xlink">
<g id="graph0" class="graph" transform="scale(1 1) rotate(0) translate(4 37)">
<title>panda::GenParticle::datastore::allocate</title>
<polygon fill="white" stroke="none" points="-4,4 -4,-37 612.799,-37 612.799,4 -4,4"/>
<!-- Node1 -->
<g id="node1" class="node"><title>Node1</title>
<polygon fill="#bfbfbf" stroke="black" points="-7.10543e-15,-0.5 -7.10543e-15,-32.5 103.251,-32.5 103.251,-0.5 -7.10543e-15,-0.5"/>
<text text-anchor="start" x="8" y="-19.5" font-family="Helvetica,sans-Serif" font-size="10.00">panda::GenParticle</text>
<text text-anchor="middle" x="51.6255" y="-7.5" font-family="Helvetica,sans-Serif" font-size="10.00">::datastore::allocate</text>
</g>
<!-- Node2 -->
<g id="node2" class="node"><title>Node2</title>
<g id="a_node2"><a xlink:href="structpanda_1_1ParticleM_1_1datastore.html#aafc17a88cf8425ff45a00b5fd2eb5751" target="_top" xlink:title="panda::ParticleM::datastore\l::allocate">
<polygon fill="white" stroke="black" points="139.251,-0.5 139.251,-32.5 277.506,-32.5 277.506,-0.5 139.251,-0.5"/>
<text text-anchor="start" x="147.251" y="-19.5" font-family="Helvetica,sans-Serif" font-size="10.00">panda::ParticleM::datastore</text>
<text text-anchor="middle" x="208.378" y="-7.5" font-family="Helvetica,sans-Serif" font-size="10.00">::allocate</text>
</a>
</g>
</g>
<!-- Node1&#45;&gt;Node2 -->
<g id="edge1" class="edge"><title>Node1&#45;&gt;Node2</title>
<path fill="none" stroke="midnightblue" d="M103.297,-16.5C111.534,-16.5 120.23,-16.5 128.945,-16.5"/>
<polygon fill="midnightblue" stroke="midnightblue" points="129.157,-20.0001 139.157,-16.5 129.157,-13.0001 129.157,-20.0001"/>
</g>
<!-- Node3 -->
<g id="node3" class="node"><title>Node3</title>
<g id="a_node3"><a xlink:href="structpanda_1_1Particle_1_1datastore.html#aab4009a97b5f3cc30eaf61cd7dbf2e3d" target="_top" xlink:title="panda::Particle::datastore\l::allocate">
<polygon fill="white" stroke="black" points="313.506,-0.5 313.506,-32.5 443.432,-32.5 443.432,-0.5 313.506,-0.5"/>
<text text-anchor="start" x="321.506" y="-19.5" font-family="Helvetica,sans-Serif" font-size="10.00">panda::Particle::datastore</text>
<text text-anchor="middle" x="378.469" y="-7.5" font-family="Helvetica,sans-Serif" font-size="10.00">::allocate</text>
</a>
</g>
</g>
<!-- Node2&#45;&gt;Node3 -->
<g id="edge2" class="edge"><title>Node2&#45;&gt;Node3</title>
<path fill="none" stroke="midnightblue" d="M277.747,-16.5C286.148,-16.5 294.765,-16.5 303.247,-16.5"/>
<polygon fill="midnightblue" stroke="midnightblue" points="303.502,-20.0001 313.502,-16.5 303.502,-13.0001 303.502,-20.0001"/>
</g>
<!-- Node4 -->
<g id="node4" class="node"><title>Node4</title>
<g id="a_node4"><a xlink:href="structpanda_1_1ContainerElement_1_1datastore.html#ae203568d73154e9890a7d6d00e6b6301" target="_top" xlink:title="panda::ContainerElement\l::datastore::allocate">
<polygon fill="white" stroke="black" points="479.432,-0.5 479.432,-32.5 608.799,-32.5 608.799,-0.5 479.432,-0.5"/>
<text text-anchor="start" x="487.432" y="-19.5" font-family="Helvetica,sans-Serif" font-size="10.00">panda::ContainerElement</text>
<text text-anchor="middle" x="544.115" y="-7.5" font-family="Helvetica,sans-Serif" font-size="10.00">::datastore::allocate</text>
</a>
</g>
</g>
<!-- Node3&#45;&gt;Node4 -->
<g id="edge3" class="edge"><title>Node3&#45;&gt;Node4</title>
<path fill="none" stroke="midnightblue" d="M443.677,-16.5C452.016,-16.5 460.612,-16.5 469.095,-16.5"/>
<polygon fill="midnightblue" stroke="midnightblue" points="469.361,-20.0001 479.361,-16.5 469.361,-13.0001 469.361,-20.0001"/>
</g>
</g>
</svg>
