<?xml version="1.0" encoding="UTF-8" standalone="no"?>
<!DOCTYPE svg PUBLIC "-//W3C//DTD SVG 1.1//EN"
 "http://www.w3.org/Graphics/SVG/1.1/DTD/svg11.dtd">
<!-- Generated by graphviz version 2.38.0 (20140413.2041)
 -->
<!-- Title: panda::GenParticle::datastore Pages: 1 -->
<svg width="146pt" height="224pt"
 viewBox="0.00 0.00 146.25 224.00" xmlns="http://www.w3.org/2000/svg" xmlns:xlink="http://www.w3.org/1999/xlink">
<g id="graph0" class="graph" transform="scale(1 1) rotate(0) translate(4 220)">
<title>panda::GenParticle::datastore</title>
<polygon fill="white" stroke="none" points="-4,4 -4,-220 142.255,-220 142.255,4 -4,4"/>
<!-- Node1 -->
<g id="node1" class="node"><title>Node1</title>
<polygon fill="#bfbfbf" stroke="black" points="18.336,-0.5 18.336,-32.5 119.919,-32.5 119.919,-0.5 18.336,-0.5"/>
<text text-anchor="start" x="26.336" y="-19.5" font-family="Helvetica,sans-Serif" font-size="10.00">panda::GenParticle</text>
<text text-anchor="middle" x="69.1275" y="-7.5" font-family="Helvetica,sans-Serif" font-size="10.00">::datastore</text>
</g>
<!-- Node2 -->
<g id="node2" class="node"><title>Node2</title>
<g id="a_node2"><a xlink:href="structpanda_1_1ParticleM_1_1datastore.html" target="_top" xlink:title="panda::ParticleM::datastore">
<polygon fill="white" stroke="black" points="0,-69.5 0,-89.5 138.255,-89.5 138.255,-69.5 0,-69.5"/>
<text text-anchor="middle" x="69.1275" y="-76.5" font-family="Helvetica,sans-Serif" font-size="10.00">panda::ParticleM::datastore</text>
</a>
</g>
</g>
<!-- Node2&#45;&gt;Node1 -->
<g id="edge1" class="edge"><title>Node2&#45;&gt;Node1</title>
<path fill="none" stroke="midnightblue" d="M69.1275,-59.2961C69.1275,-50.7138 69.1275,-40.742 69.1275,-32.6914"/>
<polygon fill="midnightblue" stroke="midnightblue" points="65.6276,-59.4992 69.1275,-69.4992 72.6276,-59.4993 65.6276,-59.4992"/>
</g>
<!-- Node3 -->
<g id="node3" class="node"><title>Node3</title>
<g id="a_node3"><a xlink:href="structpanda_1_1Particle_1_1datastore.html" target="_top" xlink:title="panda::Particle::datastore">
<polygon fill="white" stroke="black" points="4.1645,-126.5 4.1645,-146.5 134.09,-146.5 134.09,-126.5 4.1645,-126.5"/>
<text text-anchor="middle" x="69.1275" y="-133.5" font-family="Helvetica,sans-Serif" font-size="10.00">panda::Particle::datastore</text>
</a>
</g>
</g>
<!-- Node3&#45;&gt;Node2 -->
<g id="edge2" class="edge"><title>Node3&#45;&gt;Node2</title>
<path fill="none" stroke="midnightblue" d="M69.1275,-116.383C69.1275,-107.374 69.1275,-97.0373 69.1275,-89.7795"/>
<polygon fill="midnightblue" stroke="midnightblue" points="65.6276,-116.418 69.1275,-126.418 72.6276,-116.418 65.6276,-116.418"/>
</g>
<!-- Node4 -->
<g id="node4" class="node"><title>Node4</title>
<g id="a_node4"><a xlink:href="structpanda_1_1ContainerElement_1_1datastore.html" target="_top" xlink:title="panda::ContainerElement\l::datastore">
<polygon fill="white" stroke="black" points="4.444,-183.5 4.444,-215.5 133.811,-215.5 133.811,-183.5 4.444,-183.5"/>
<text text-anchor="start" x="12.444" y="-202.5" font-family="Helvetica,sans-Serif" font-size="10.00">panda::ContainerElement</text>
<text text-anchor="middle" x="69.1275" y="-190.5" font-family="Helvetica,sans-Serif" font-size="10.00">::datastore</text>
</a>
</g>
</g>
<!-- Node4&#45;&gt;Node3 -->
<g id="edge3" class="edge"><title>Node4&#45;&gt;Node3</title>
<path fill="none" stroke="midnightblue" d="M69.1275,-173.229C69.1275,-163.762 69.1275,-153.602 69.1275,-146.546"/>
<polygon fill="midnightblue" stroke="midnightblue" points="65.6276,-173.421 69.1275,-183.421 72.6276,-173.421 65.6276,-173.421"/>
</g>
</g>
</svg>
