<?xml version="1.0" encoding="UTF-8" standalone="no"?>
<!DOCTYPE svg PUBLIC "-//W3C//DTD SVG 1.1//EN"
 "http://www.w3.org/Graphics/SVG/1.1/DTD/svg11.dtd">
<!-- Generated by graphviz version 2.38.0 (20140413.2041)
 -->
<!-- Title: panda::Muon::datastore Pages: 1 -->
<svg width="298pt" height="226pt"
 viewBox="0.00 0.00 297.88 226.00" xmlns="http://www.w3.org/2000/svg" xmlns:xlink="http://www.w3.org/1999/xlink">
<g id="graph0" class="graph" transform="scale(1 1) rotate(0) translate(4 222)">
<title>panda::Muon::datastore</title>
<polygon fill="white" stroke="none" points="-4,4 -4,-222 293.883,-222 293.883,4 -4,4"/>
<!-- Node1 -->
<g id="node1" class="node"><title>Node1</title>
<polygon fill="#bfbfbf" stroke="black" points="88.1635,-0.5 88.1635,-20.5 209.762,-20.5 209.762,-0.5 88.1635,-0.5"/>
<text text-anchor="middle" x="148.963" y="-7.5" font-family="Helvetica,sans-Serif" font-size="10.00">panda::Muon::datastore</text>
</g>
<!-- Node2 -->
<g id="node2" class="node"><title>Node2</title>
<g id="a_node2"><a xlink:href="structpanda_1_1Lepton_1_1datastore.html" target="_top" xlink:title="panda::Lepton::datastore">
<polygon fill="white" stroke="black" points="85.3795,-58.5 85.3795,-78.5 212.546,-78.5 212.546,-58.5 85.3795,-58.5"/>
<text text-anchor="middle" x="148.963" y="-65.5" font-family="Helvetica,sans-Serif" font-size="10.00">panda::Lepton::datastore</text>
</a>
</g>
</g>
<!-- Node2&#45;&gt;Node1 -->
<g id="edge1" class="edge"><title>Node2&#45;&gt;Node1</title>
<path fill="none" stroke="midnightblue" d="M148.963,-48.2065C148.963,-38.8384 148.963,-28.0262 148.963,-20.5752"/>
<polygon fill="midnightblue" stroke="midnightblue" points="145.463,-48.2527 148.963,-58.2527 152.463,-48.2528 145.463,-48.2527"/>
</g>
<!-- Node3 -->
<g id="node3" class="node"><title>Node3</title>
<g id="a_node3"><a xlink:href="structpanda_1_1Particle_1_1datastore.html" target="_top" xlink:title="panda::Particle::datastore">
<polygon fill="white" stroke="black" points="0,-127.5 0,-147.5 129.926,-147.5 129.926,-127.5 0,-127.5"/>
<text text-anchor="middle" x="64.963" y="-134.5" font-family="Helvetica,sans-Serif" font-size="10.00">panda::Particle::datastore</text>
</a>
</g>
</g>
<!-- Node3&#45;&gt;Node2 -->
<g id="edge2" class="edge"><title>Node3&#45;&gt;Node2</title>
<path fill="none" stroke="midnightblue" d="M84.2118,-121.147C100.687,-108.006 123.852,-89.5288 137.546,-78.6067"/>
<polygon fill="midnightblue" stroke="midnightblue" points="81.9269,-118.492 76.2916,-127.464 86.2919,-123.965 81.9269,-118.492"/>
</g>
<!-- Node4 -->
<g id="node4" class="node"><title>Node4</title>
<g id="a_node4"><a xlink:href="structpanda_1_1ContainerElement_1_1datastore.html" target="_top" xlink:title="panda::ContainerElement\l::datastore">
<polygon fill="white" stroke="black" points="0.2795,-185.5 0.2795,-217.5 129.647,-217.5 129.647,-185.5 0.2795,-185.5"/>
<text text-anchor="start" x="8.2795" y="-204.5" font-family="Helvetica,sans-Serif" font-size="10.00">panda::ContainerElement</text>
<text text-anchor="middle" x="64.963" y="-192.5" font-family="Helvetica,sans-Serif" font-size="10.00">::datastore</text>
</a>
</g>
</g>
<!-- Node4&#45;&gt;Node3 -->
<g id="edge3" class="edge"><title>Node4&#45;&gt;Node3</title>
<path fill="none" stroke="midnightblue" d="M64.963,-175.422C64.963,-165.672 64.963,-155.11 64.963,-147.79"/>
<polygon fill="midnightblue" stroke="midnightblue" points="61.4631,-175.491 64.963,-185.492 68.4631,-175.492 61.4631,-175.491"/>
</g>
<!-- Node5 -->
<g id="node5" class="node"><title>Node5</title>
<g id="a_node5"><a xlink:href="classpanda_1_1ContainerBase.html" target="_top" xlink:title="Base class for all containers. ">
<polygon fill="white" stroke="black" points="148.222,-127.5 148.222,-147.5 263.703,-147.5 263.703,-127.5 148.222,-127.5"/>
<text text-anchor="middle" x="205.963" y="-134.5" font-family="Helvetica,sans-Serif" font-size="10.00">panda::ContainerBase</text>
</a>
</g>
</g>
<!-- Node5&#45;&gt;Node2 -->
<g id="edge4" class="edge"><title>Node5&#45;&gt;Node2</title>
<path fill="none" stroke="#9a32cd" stroke-dasharray="5,2" d="M191.693,-119.727C180.688,-106.791 165.875,-89.3795 156.894,-78.8227"/>
<polygon fill="#9a32cd" stroke="#9a32cd" points="189.13,-122.115 198.276,-127.464 194.462,-117.58 189.13,-122.115"/>
<text text-anchor="middle" x="235.423" y="-100" font-family="Helvetica,sans-Serif" font-size="10.00"> matchedGenContainer_</text>
</g>
<!-- Node6 -->
<g id="node6" class="node"><title>Node6</title>
<g id="a_node6"><a xlink:href="classpanda_1_1Object.html" target="_top" xlink:title="panda::Object">
<polygon fill="white" stroke="black" points="166.839,-191.5 166.839,-211.5 245.087,-211.5 245.087,-191.5 166.839,-191.5"/>
<text text-anchor="middle" x="205.963" y="-198.5" font-family="Helvetica,sans-Serif" font-size="10.00">panda::Object</text>
</a>
</g>
</g>
<!-- Node6&#45;&gt;Node5 -->
<g id="edge5" class="edge"><title>Node6&#45;&gt;Node5</title>
<path fill="none" stroke="midnightblue" d="M205.963,-181.235C205.963,-170.057 205.963,-156.491 205.963,-147.686"/>
<polygon fill="midnightblue" stroke="midnightblue" points="202.463,-181.352 205.963,-191.352 209.463,-181.352 202.463,-181.352"/>
</g>
</g>
</svg>
