<?xml version="1.0" encoding="UTF-8" standalone="no"?>
<!DOCTYPE svg PUBLIC "-//W3C//DTD SVG 1.1//EN"
 "http://www.w3.org/Graphics/SVG/1.1/DTD/svg11.dtd">
<!-- Generated by graphviz version 2.38.0 (20140413.2041)
 -->
<!-- Title: panda::ParticleM::datastore Pages: 1 -->
<svg width="954pt" height="236pt"
 viewBox="0.00 0.00 954.22 236.00" xmlns="http://www.w3.org/2000/svg" xmlns:xlink="http://www.w3.org/1999/xlink">
<g id="graph0" class="graph" transform="scale(1 1) rotate(0) translate(4 232)">
<title>panda::ParticleM::datastore</title>
<polygon fill="white" stroke="none" points="-4,4 -4,-232 950.224,-232 950.224,4 -4,4"/>
<!-- Node1 -->
<g id="node1" class="node"><title>Node1</title>
<polygon fill="#bfbfbf" stroke="black" points="331.293,-97.5 331.293,-117.5 469.548,-117.5 469.548,-97.5 331.293,-97.5"/>
<text text-anchor="middle" x="400.421" y="-104.5" font-family="Helvetica,sans-Serif" font-size="10.00">panda::ParticleM::datastore</text>
</g>
<!-- Node4 -->
<g id="node4" class="node"><title>Node4</title>
<g id="a_node4"><a xlink:href="structpanda_1_1GenJet_1_1datastore.html" target="_top" xlink:title="panda::GenJet::datastore">
<polygon fill="white" stroke="black" points="508.318,-207.5 508.318,-227.5 637.146,-227.5 637.146,-207.5 508.318,-207.5"/>
<text text-anchor="middle" x="572.732" y="-214.5" font-family="Helvetica,sans-Serif" font-size="10.00">panda::GenJet::datastore</text>
</a>
</g>
</g>
<!-- Node1&#45;&gt;Node4 -->
<g id="edge3" class="edge"><title>Node1&#45;&gt;Node4</title>
<path fill="none" stroke="midnightblue" d="M417.451,-125.278C436.578,-145.484 470.407,-178.16 505.548,-197.5 512.804,-201.493 520.957,-204.787 528.995,-207.468"/>
<polygon fill="midnightblue" stroke="midnightblue" points="419.787,-122.65 410.417,-117.704 414.657,-127.414 419.787,-122.65"/>
</g>
<!-- Node5 -->
<g id="node5" class="node"><title>Node5</title>
<g id="a_node5"><a xlink:href="structpanda_1_1GenParticle_1_1datastore.html" target="_top" xlink:title="panda::GenParticle\l::datastore">
<polygon fill="white" stroke="black" points="521.94,-156.5 521.94,-188.5 623.523,-188.5 623.523,-156.5 521.94,-156.5"/>
<text text-anchor="start" x="529.94" y="-175.5" font-family="Helvetica,sans-Serif" font-size="10.00">panda::GenParticle</text>
<text text-anchor="middle" x="572.732" y="-163.5" font-family="Helvetica,sans-Serif" font-size="10.00">::datastore</text>
</a>
</g>
</g>
<!-- Node1&#45;&gt;Node5 -->
<g id="edge4" class="edge"><title>Node1&#45;&gt;Node5</title>
<path fill="none" stroke="midnightblue" d="M437.096,-121.116C464.049,-131.402 501.13,-145.554 529.553,-156.402"/>
<polygon fill="midnightblue" stroke="midnightblue" points="438.249,-117.81 427.658,-117.514 435.753,-124.349 438.249,-117.81"/>
</g>
<!-- Node6 -->
<g id="node6" class="node"><title>Node6</title>
<g id="a_node6"><a xlink:href="structpanda_1_1MicroJet_1_1datastore.html" target="_top" xlink:title="panda::MicroJet::datastore">
<polygon fill="white" stroke="black" points="505.548,-117.5 505.548,-137.5 639.915,-137.5 639.915,-117.5 505.548,-117.5"/>
<text text-anchor="middle" x="572.732" y="-124.5" font-family="Helvetica,sans-Serif" font-size="10.00">panda::MicroJet::datastore</text>
</a>
</g>
</g>
<!-- Node1&#45;&gt;Node6 -->
<g id="edge5" class="edge"><title>Node1&#45;&gt;Node6</title>
<path fill="none" stroke="midnightblue" d="M479.713,-116.694C488.287,-117.701 496.954,-118.719 505.365,-119.706"/>
<polygon fill="midnightblue" stroke="midnightblue" points="480.051,-113.21 469.711,-115.52 479.235,-120.162 480.051,-113.21"/>
</g>
<!-- Node9 -->
<g id="node9" class="node"><title>Node9</title>
<g id="a_node9"><a xlink:href="structpanda_1_1Parton_1_1datastore.html" target="_top" xlink:title="panda::Parton::datastore">
<polygon fill="white" stroke="black" points="509.708,-78.5 509.708,-98.5 635.755,-98.5 635.755,-78.5 509.708,-78.5"/>
<text text-anchor="middle" x="572.732" y="-85.5" font-family="Helvetica,sans-Serif" font-size="10.00">panda::Parton::datastore</text>
</a>
</g>
</g>
<!-- Node1&#45;&gt;Node9 -->
<g id="edge8" class="edge"><title>Node1&#45;&gt;Node9</title>
<path fill="none" stroke="midnightblue" d="M479.651,-98.7726C489.654,-97.6566 499.786,-96.5263 509.488,-95.4439"/>
<polygon fill="midnightblue" stroke="midnightblue" points="479.261,-95.2942 469.711,-99.8815 480.038,-102.251 479.261,-95.2942"/>
</g>
<!-- Node10 -->
<g id="node10" class="node"><title>Node10</title>
<g id="a_node10"><a xlink:href="structpanda_1_1PFCand_1_1datastore.html" target="_top" xlink:title="panda::PFCand::datastore">
<polygon fill="white" stroke="black" points="506.098,-39.5 506.098,-59.5 639.365,-59.5 639.365,-39.5 506.098,-39.5"/>
<text text-anchor="middle" x="572.732" y="-46.5" font-family="Helvetica,sans-Serif" font-size="10.00">panda::PFCand::datastore</text>
</a>
</g>
</g>
<!-- Node1&#45;&gt;Node10 -->
<g id="edge9" class="edge"><title>Node1&#45;&gt;Node10</title>
<path fill="none" stroke="midnightblue" d="M435.865,-93.8199C456.034,-86.0056 482.077,-76.2513 505.548,-68.5 514.97,-65.3886 525.239,-62.2975 534.816,-59.5406"/>
<polygon fill="midnightblue" stroke="midnightblue" points="434.517,-90.5886 426.472,-97.4829 437.061,-97.1102 434.517,-90.5886"/>
</g>
<!-- Node11 -->
<g id="node11" class="node"><title>Node11</title>
<g id="a_node11"><a xlink:href="structpanda_1_1Tau_1_1datastore.html" target="_top" xlink:title="panda::Tau::datastore">
<polygon fill="white" stroke="black" points="515.822,-0.5 515.822,-20.5 629.642,-20.5 629.642,-0.5 515.822,-0.5"/>
<text text-anchor="middle" x="572.732" y="-7.5" font-family="Helvetica,sans-Serif" font-size="10.00">panda::Tau::datastore</text>
</a>
</g>
</g>
<!-- Node1&#45;&gt;Node11 -->
<g id="edge10" class="edge"><title>Node1&#45;&gt;Node11</title>
<path fill="none" stroke="midnightblue" d="M419.7,-90.504C439.481,-72.944 472.629,-45.8606 505.548,-29.5 512.613,-25.9886 520.435,-23.0248 528.153,-20.5598"/>
<polygon fill="midnightblue" stroke="midnightblue" points="417.154,-88.0868 412.08,-97.3876 421.847,-93.281 417.154,-88.0868"/>
</g>
<!-- Node2 -->
<g id="node2" class="node"><title>Node2</title>
<g id="a_node2"><a xlink:href="structpanda_1_1Particle_1_1datastore.html" target="_top" xlink:title="panda::Particle::datastore">
<polygon fill="white" stroke="black" points="165.367,-97.5 165.367,-117.5 295.293,-117.5 295.293,-97.5 165.367,-97.5"/>
<text text-anchor="middle" x="230.33" y="-104.5" font-family="Helvetica,sans-Serif" font-size="10.00">panda::Particle::datastore</text>
</a>
</g>
</g>
<!-- Node2&#45;&gt;Node1 -->
<g id="edge1" class="edge"><title>Node2&#45;&gt;Node1</title>
<path fill="none" stroke="midnightblue" d="M305.609,-107.5C314.087,-107.5 322.7,-107.5 331.095,-107.5"/>
<polygon fill="midnightblue" stroke="midnightblue" points="305.357,-104 295.357,-107.5 305.357,-111 305.357,-104"/>
</g>
<!-- Node3 -->
<g id="node3" class="node"><title>Node3</title>
<g id="a_node3"><a xlink:href="structpanda_1_1ContainerElement_1_1datastore.html" target="_top" xlink:title="panda::ContainerElement\l::datastore">
<polygon fill="white" stroke="black" points="-1.42109e-14,-91.5 -1.42109e-14,-123.5 129.367,-123.5 129.367,-91.5 -1.42109e-14,-91.5"/>
<text text-anchor="start" x="8" y="-110.5" font-family="Helvetica,sans-Serif" font-size="10.00">panda::ContainerElement</text>
<text text-anchor="middle" x="64.6835" y="-98.5" font-family="Helvetica,sans-Serif" font-size="10.00">::datastore</text>
</a>
</g>
</g>
<!-- Node3&#45;&gt;Node2 -->
<g id="edge2" class="edge"><title>Node3&#45;&gt;Node2</title>
<path fill="none" stroke="midnightblue" d="M139.443,-107.5C148.046,-107.5 156.769,-107.5 165.227,-107.5"/>
<polygon fill="midnightblue" stroke="midnightblue" points="139.422,-104 129.422,-107.5 139.422,-111 139.422,-104"/>
</g>
<!-- Node7 -->
<g id="node7" class="node"><title>Node7</title>
<g id="a_node7"><a xlink:href="structpanda_1_1Jet_1_1datastore.html" target="_top" xlink:title="panda::Jet::datastore">
<polygon fill="white" stroke="black" points="675.915,-117.5 675.915,-137.5 785.846,-137.5 785.846,-117.5 675.915,-117.5"/>
<text text-anchor="middle" x="730.881" y="-124.5" font-family="Helvetica,sans-Serif" font-size="10.00">panda::Jet::datastore</text>
</a>
</g>
</g>
<!-- Node6&#45;&gt;Node7 -->
<g id="edge6" class="edge"><title>Node6&#45;&gt;Node7</title>
<path fill="none" stroke="midnightblue" d="M650.117,-127.5C658.807,-127.5 667.526,-127.5 675.842,-127.5"/>
<polygon fill="midnightblue" stroke="midnightblue" points="649.953,-124 639.953,-127.5 649.953,-131 649.953,-124"/>
</g>
<!-- Node8 -->
<g id="node8" class="node"><title>Node8</title>
<g id="a_node8"><a xlink:href="structpanda_1_1FatJet_1_1datastore.html" target="_top" xlink:title="panda::FatJet::datastore">
<polygon fill="white" stroke="black" points="821.846,-117.5 821.846,-137.5 946.224,-137.5 946.224,-117.5 821.846,-117.5"/>
<text text-anchor="middle" x="884.035" y="-124.5" font-family="Helvetica,sans-Serif" font-size="10.00">panda::FatJet::datastore</text>
</a>
</g>
</g>
<!-- Node7&#45;&gt;Node8 -->
<g id="edge7" class="edge"><title>Node7&#45;&gt;Node8</title>
<path fill="none" stroke="midnightblue" d="M796.243,-127.5C804.723,-127.5 813.396,-127.5 821.821,-127.5"/>
<polygon fill="midnightblue" stroke="midnightblue" points="796.024,-124 786.024,-127.5 796.024,-131 796.024,-124"/>
</g>
</g>
</svg>
