<?xml version="1.0" encoding="UTF-8" standalone="no"?>
<!DOCTYPE svg PUBLIC "-//W3C//DTD SVG 1.1//EN"
 "http://www.w3.org/Graphics/SVG/1.1/DTD/svg11.dtd">
<!-- Generated by graphviz version 2.38.0 (20140413.2041)
 -->
<!-- Title: panda::Electron::datastore::~datastore Pages: 1 -->
<svg width="805pt" height="41pt"
 viewBox="0.00 0.00 804.99 41.00" xmlns="http://www.w3.org/2000/svg" xmlns:xlink="http://www.w3.org/1999/xlink">
<g id="graph0" class="graph" transform="scale(1 1) rotate(0) translate(4 37)">
<title>panda::Electron::datastore::~datastore</title>
<polygon fill="white" stroke="none" points="-4,4 -4,-37 800.992,-37 800.992,4 -4,4"/>
<!-- Node1 -->
<g id="node1" class="node"><title>Node1</title>
<polygon fill="#bfbfbf" stroke="black" points="5.68434e-14,-0.5 5.68434e-14,-32.5 133.266,-32.5 133.266,-0.5 5.68434e-14,-0.5"/>
<text text-anchor="start" x="8" y="-19.5" font-family="Helvetica,sans-Serif" font-size="10.00">panda::Electron::datastore</text>
<text text-anchor="middle" x="66.633" y="-7.5" font-family="Helvetica,sans-Serif" font-size="10.00">::~datastore</text>
</g>
<!-- Node2 -->
<g id="node2" class="node"><title>Node2</title>
<g id="a_node2"><a xlink:href="structpanda_1_1Electron_1_1datastore.html#a82e74b804ecc9c1a138d5c3fcd6ef3a3" target="_top" xlink:title="panda::Electron::datastore\l::deallocate">
<polygon fill="white" stroke="black" points="169.266,-0.5 169.266,-32.5 302.532,-32.5 302.532,-0.5 169.266,-0.5"/>
<text text-anchor="start" x="177.266" y="-19.5" font-family="Helvetica,sans-Serif" font-size="10.00">panda::Electron::datastore</text>
<text text-anchor="middle" x="235.899" y="-7.5" font-family="Helvetica,sans-Serif" font-size="10.00">::deallocate</text>
</a>
</g>
</g>
<!-- Node1&#45;&gt;Node2 -->
<g id="edge1" class="edge"><title>Node1&#45;&gt;Node2</title>
<path fill="none" stroke="midnightblue" d="M133.741,-16.5C141.986,-16.5 150.469,-16.5 158.849,-16.5"/>
<polygon fill="midnightblue" stroke="midnightblue" points="158.997,-20.0001 168.997,-16.5 158.997,-13.0001 158.997,-20.0001"/>
</g>
<!-- Node3 -->
<g id="node3" class="node"><title>Node3</title>
<g id="a_node3"><a xlink:href="structpanda_1_1Lepton_1_1datastore.html#a527515ee96020a4aaef41d9de157c131" target="_top" xlink:title="panda::Lepton::datastore\l::deallocate">
<polygon fill="white" stroke="black" points="338.532,-0.5 338.532,-32.5 465.699,-32.5 465.699,-0.5 338.532,-0.5"/>
<text text-anchor="start" x="346.532" y="-19.5" font-family="Helvetica,sans-Serif" font-size="10.00">panda::Lepton::datastore</text>
<text text-anchor="middle" x="402.115" y="-7.5" font-family="Helvetica,sans-Serif" font-size="10.00">::deallocate</text>
</a>
</g>
</g>
<!-- Node2&#45;&gt;Node3 -->
<g id="edge2" class="edge"><title>Node2&#45;&gt;Node3</title>
<path fill="none" stroke="midnightblue" d="M302.746,-16.5C311.12,-16.5 319.729,-16.5 328.205,-16.5"/>
<polygon fill="midnightblue" stroke="midnightblue" points="328.454,-20.0001 338.454,-16.5 328.454,-13.0001 328.454,-20.0001"/>
</g>
<!-- Node4 -->
<g id="node4" class="node"><title>Node4</title>
<g id="a_node4"><a xlink:href="structpanda_1_1Particle_1_1datastore.html#ad741e5ab6ebeb9ca897ba9472d0dea36" target="_top" xlink:title="panda::Particle::datastore\l::deallocate">
<polygon fill="white" stroke="black" points="501.699,-0.5 501.699,-32.5 631.625,-32.5 631.625,-0.5 501.699,-0.5"/>
<text text-anchor="start" x="509.699" y="-19.5" font-family="Helvetica,sans-Serif" font-size="10.00">panda::Particle::datastore</text>
<text text-anchor="middle" x="566.662" y="-7.5" font-family="Helvetica,sans-Serif" font-size="10.00">::deallocate</text>
</a>
</g>
</g>
<!-- Node3&#45;&gt;Node4 -->
<g id="edge3" class="edge"><title>Node3&#45;&gt;Node4</title>
<path fill="none" stroke="midnightblue" d="M465.96,-16.5C474.372,-16.5 483.062,-16.5 491.642,-16.5"/>
<polygon fill="midnightblue" stroke="midnightblue" points="491.643,-20.0001 501.643,-16.5 491.643,-13.0001 491.643,-20.0001"/>
</g>
<!-- Node5 -->
<g id="node5" class="node"><title>Node5</title>
<g id="a_node5"><a xlink:href="structpanda_1_1ContainerElement_1_1datastore.html#a8827cbb1304b781fcba764a6bf4cbcc1" target="_top" xlink:title="panda::ContainerElement\l::datastore::deallocate">
<polygon fill="white" stroke="black" points="667.625,-0.5 667.625,-32.5 796.992,-32.5 796.992,-0.5 667.625,-0.5"/>
<text text-anchor="start" x="675.625" y="-19.5" font-family="Helvetica,sans-Serif" font-size="10.00">panda::ContainerElement</text>
<text text-anchor="middle" x="732.308" y="-7.5" font-family="Helvetica,sans-Serif" font-size="10.00">::datastore::deallocate</text>
</a>
</g>
</g>
<!-- Node4&#45;&gt;Node5 -->
<g id="edge4" class="edge"><title>Node4&#45;&gt;Node5</title>
<path fill="none" stroke="midnightblue" d="M631.87,-16.5C640.209,-16.5 648.805,-16.5 657.288,-16.5"/>
<polygon fill="midnightblue" stroke="midnightblue" points="657.554,-20.0001 667.554,-16.5 657.554,-13.0001 657.554,-20.0001"/>
</g>
</g>
</svg>
