<?xml version="1.0" encoding="UTF-8" standalone="no"?>
<!DOCTYPE svg PUBLIC "-//W3C//DTD SVG 1.1//EN"
 "http://www.w3.org/Graphics/SVG/1.1/DTD/svg11.dtd">
<!-- Generated by graphviz version 2.38.0 (20140413.2041)
 -->
<!-- Title: panda::ParticleM::datastore::resizeVectors_ Pages: 1 -->
<svg width="623pt" height="296pt"
 viewBox="0.00 0.00 623.48 296.00" xmlns="http://www.w3.org/2000/svg" xmlns:xlink="http://www.w3.org/1999/xlink">
<g id="graph0" class="graph" transform="scale(1 1) rotate(0) translate(4 292)">
<title>panda::ParticleM::datastore::resizeVectors_</title>
<polygon fill="white" stroke="none" points="-4,4 -4,-292 619.482,-292 619.482,4 -4,4"/>
<!-- Node1 -->
<g id="node1" class="node"><title>Node1</title>
<polygon fill="#bfbfbf" stroke="black" points="5.68434e-14,-127.5 5.68434e-14,-159.5 138.255,-159.5 138.255,-127.5 5.68434e-14,-127.5"/>
<text text-anchor="start" x="8" y="-146.5" font-family="Helvetica,sans-Serif" font-size="10.00">panda::ParticleM::datastore</text>
<text text-anchor="middle" x="69.1275" y="-134.5" font-family="Helvetica,sans-Serif" font-size="10.00">::resizeVectors_</text>
</g>
<!-- Node2 -->
<g id="node2" class="node"><title>Node2</title>
<g id="a_node2"><a xlink:href="structpanda_1_1GenJet_1_1datastore.html#a6b6d0feb6fe978115c45180cccb7497b" target="_top" xlink:title="Override when there are vector members. ">
<polygon fill="white" stroke="black" points="177.3,-255.5 177.3,-287.5 306.128,-287.5 306.128,-255.5 177.3,-255.5"/>
<text text-anchor="start" x="185.3" y="-274.5" font-family="Helvetica,sans-Serif" font-size="10.00">panda::GenJet::datastore</text>
<text text-anchor="middle" x="241.714" y="-262.5" font-family="Helvetica,sans-Serif" font-size="10.00">::resizeVectors_</text>
</a>
</g>
</g>
<!-- Node1&#45;&gt;Node2 -->
<g id="edge1" class="edge"><title>Node1&#45;&gt;Node2</title>
<path fill="none" stroke="midnightblue" d="M89.1566,-167.465C108.479,-190.44 140.315,-224.751 174.255,-246.5 179.445,-249.825 185.142,-252.806 190.951,-255.448"/>
<polygon fill="midnightblue" stroke="midnightblue" points="91.6912,-165.038 82.6234,-159.558 86.2948,-169.496 91.6912,-165.038"/>
</g>
<!-- Node3 -->
<g id="node3" class="node"><title>Node3</title>
<g id="a_node3"><a xlink:href="structpanda_1_1GenParticle_1_1datastore.html#a28a604490b71305ae71b9671e3ea0bdf" target="_top" xlink:title="Override when there are vector members. ">
<polygon fill="white" stroke="black" points="174.255,-204.5 174.255,-236.5 309.173,-236.5 309.173,-204.5 174.255,-204.5"/>
<text text-anchor="start" x="182.255" y="-223.5" font-family="Helvetica,sans-Serif" font-size="10.00">panda::GenParticle</text>
<text text-anchor="middle" x="241.714" y="-211.5" font-family="Helvetica,sans-Serif" font-size="10.00">::datastore::resizeVectors_</text>
</a>
</g>
</g>
<!-- Node1&#45;&gt;Node3 -->
<g id="edge2" class="edge"><title>Node1&#45;&gt;Node3</title>
<path fill="none" stroke="midnightblue" d="M109.36,-164.294C128.678,-174.223 152.451,-185.985 174.255,-195.5 181.26,-198.557 188.77,-201.6 196.13,-204.455"/>
<polygon fill="midnightblue" stroke="midnightblue" points="110.752,-161.074 100.262,-159.585 107.534,-167.29 110.752,-161.074"/>
</g>
<!-- Node4 -->
<g id="node4" class="node"><title>Node4</title>
<g id="a_node4"><a xlink:href="structpanda_1_1MicroJet_1_1datastore.html#a9570f85bfad7f55e239670d0f364cb8b" target="_top" xlink:title="Override when there are vector members. ">
<polygon fill="white" stroke="black" points="174.531,-153.5 174.531,-185.5 308.898,-185.5 308.898,-153.5 174.531,-153.5"/>
<text text-anchor="start" x="182.531" y="-172.5" font-family="Helvetica,sans-Serif" font-size="10.00">panda::MicroJet::datastore</text>
<text text-anchor="middle" x="241.714" y="-160.5" font-family="Helvetica,sans-Serif" font-size="10.00">::resizeVectors_</text>
</a>
</g>
</g>
<!-- Node1&#45;&gt;Node4 -->
<g id="edge3" class="edge"><title>Node1&#45;&gt;Node4</title>
<path fill="none" stroke="midnightblue" d="M148.626,-155.464C157.282,-156.784 166.032,-158.117 174.517,-159.411"/>
<polygon fill="midnightblue" stroke="midnightblue" points="148.942,-151.972 138.529,-153.925 147.887,-158.892 148.942,-151.972"/>
</g>
<!-- Node7 -->
<g id="node7" class="node"><title>Node7</title>
<g id="a_node7"><a xlink:href="structpanda_1_1Parton_1_1datastore.html#a85ed8f023c9fddb6ada93150e4d03c22" target="_top" xlink:title="Override when there are vector members. ">
<polygon fill="white" stroke="black" points="178.691,-102.5 178.691,-134.5 304.738,-134.5 304.738,-102.5 178.691,-102.5"/>
<text text-anchor="start" x="186.691" y="-121.5" font-family="Helvetica,sans-Serif" font-size="10.00">panda::Parton::datastore</text>
<text text-anchor="middle" x="241.714" y="-109.5" font-family="Helvetica,sans-Serif" font-size="10.00">::resizeVectors_</text>
</a>
</g>
</g>
<!-- Node1&#45;&gt;Node7 -->
<g id="edge6" class="edge"><title>Node1&#45;&gt;Node7</title>
<path fill="none" stroke="midnightblue" d="M148.555,-132.006C158.646,-130.527 168.865,-129.03 178.644,-127.597"/>
<polygon fill="midnightblue" stroke="midnightblue" points="147.915,-128.562 138.529,-133.476 148.93,-135.488 147.915,-128.562"/>
</g>
<!-- Node8 -->
<g id="node8" class="node"><title>Node8</title>
<g id="a_node8"><a xlink:href="structpanda_1_1PFCand_1_1datastore.html#a3e3acf6cc81f4ebe16220a7931b3bb2d" target="_top" xlink:title="Override when there are vector members. ">
<polygon fill="white" stroke="black" points="175.081,-51.5 175.081,-83.5 308.348,-83.5 308.348,-51.5 175.081,-51.5"/>
<text text-anchor="start" x="183.081" y="-70.5" font-family="Helvetica,sans-Serif" font-size="10.00">panda::PFCand::datastore</text>
<text text-anchor="middle" x="241.714" y="-58.5" font-family="Helvetica,sans-Serif" font-size="10.00">::resizeVectors_</text>
</a>
</g>
</g>
<!-- Node1&#45;&gt;Node8 -->
<g id="edge7" class="edge"><title>Node1&#45;&gt;Node8</title>
<path fill="none" stroke="midnightblue" d="M111.2,-122.904C130.23,-113.588 153.236,-102.643 174.255,-93.5 181.981,-90.1395 190.291,-86.7298 198.331,-83.5342"/>
<polygon fill="midnightblue" stroke="midnightblue" points="109.631,-119.776 102.204,-127.332 112.722,-126.056 109.631,-119.776"/>
</g>
<!-- Node9 -->
<g id="node9" class="node"><title>Node9</title>
<g id="a_node9"><a xlink:href="structpanda_1_1Tau_1_1datastore.html#a1dce455474842a78eb6a7ab7b3271f3a" target="_top" xlink:title="Override when there are vector members. ">
<polygon fill="white" stroke="black" points="184.804,-0.5 184.804,-32.5 298.624,-32.5 298.624,-0.5 184.804,-0.5"/>
<text text-anchor="start" x="192.804" y="-19.5" font-family="Helvetica,sans-Serif" font-size="10.00">panda::Tau::datastore</text>
<text text-anchor="middle" x="241.714" y="-7.5" font-family="Helvetica,sans-Serif" font-size="10.00">::resizeVectors_</text>
</a>
</g>
</g>
<!-- Node1&#45;&gt;Node9 -->
<g id="edge8" class="edge"><title>Node1&#45;&gt;Node9</title>
<path fill="none" stroke="midnightblue" d="M89.642,-119.738C109.112,-97.3005 140.863,-63.9753 174.255,-42.5 179.986,-38.814 186.323,-35.5118 192.739,-32.5985"/>
<polygon fill="midnightblue" stroke="midnightblue" points="86.873,-117.591 83.0444,-127.47 92.1979,-122.135 86.873,-117.591"/>
</g>
<!-- Node5 -->
<g id="node5" class="node"><title>Node5</title>
<g id="a_node5"><a xlink:href="structpanda_1_1Jet_1_1datastore.html#a8de9fbcd55c17f7d3d022088f6ded487" target="_top" xlink:title="Override when there are vector members. ">
<polygon fill="white" stroke="black" points="345.173,-153.5 345.173,-185.5 455.104,-185.5 455.104,-153.5 345.173,-153.5"/>
<text text-anchor="start" x="353.173" y="-172.5" font-family="Helvetica,sans-Serif" font-size="10.00">panda::Jet::datastore</text>
<text text-anchor="middle" x="400.139" y="-160.5" font-family="Helvetica,sans-Serif" font-size="10.00">::resizeVectors_</text>
</a>
</g>
</g>
<!-- Node4&#45;&gt;Node5 -->
<g id="edge4" class="edge"><title>Node4&#45;&gt;Node5</title>
<path fill="none" stroke="midnightblue" d="M319.234,-169.5C327.94,-169.5 336.674,-169.5 345.005,-169.5"/>
<polygon fill="midnightblue" stroke="midnightblue" points="319.052,-166 309.052,-169.5 319.052,-173 319.052,-166"/>
</g>
<!-- Node6 -->
<g id="node6" class="node"><title>Node6</title>
<g id="a_node6"><a xlink:href="structpanda_1_1FatJet_1_1datastore.html#ac707315048c1fe184534202259fbdda9" target="_top" xlink:title="Override when there are vector members. ">
<polygon fill="white" stroke="black" points="491.104,-153.5 491.104,-185.5 615.482,-185.5 615.482,-153.5 491.104,-153.5"/>
<text text-anchor="start" x="499.104" y="-172.5" font-family="Helvetica,sans-Serif" font-size="10.00">panda::FatJet::datastore</text>
<text text-anchor="middle" x="553.293" y="-160.5" font-family="Helvetica,sans-Serif" font-size="10.00">::resizeVectors_</text>
</a>
</g>
</g>
<!-- Node5&#45;&gt;Node6 -->
<g id="edge5" class="edge"><title>Node5&#45;&gt;Node6</title>
<path fill="none" stroke="midnightblue" d="M465.501,-169.5C473.981,-169.5 482.654,-169.5 491.079,-169.5"/>
<polygon fill="midnightblue" stroke="midnightblue" points="465.282,-166 455.282,-169.5 465.282,-173 465.282,-166"/>
</g>
</g>
</svg>
