<?xml version="1.0" encoding="UTF-8" standalone="no"?>
<!DOCTYPE svg PUBLIC "-//W3C//DTD SVG 1.1//EN"
 "http://www.w3.org/Graphics/SVG/1.1/DTD/svg11.dtd">
<!-- Generated by graphviz version 2.38.0 (20140413.2041)
 -->
<!-- Title: panda::Tau::datastore::~datastore Pages: 1 -->
<svg width="777pt" height="41pt"
 viewBox="0.00 0.00 777.19 41.00" xmlns="http://www.w3.org/2000/svg" xmlns:xlink="http://www.w3.org/1999/xlink">
<g id="graph0" class="graph" transform="scale(1 1) rotate(0) translate(4 37)">
<title>panda::Tau::datastore::~datastore</title>
<polygon fill="white" stroke="none" points="-4,4 -4,-37 773.188,-37 773.188,4 -4,4"/>
<!-- Node1 -->
<g id="node1" class="node"><title>Node1</title>
<polygon fill="#bfbfbf" stroke="black" points="-2.84217e-14,-0.5 -2.84217e-14,-32.5 113.82,-32.5 113.82,-0.5 -2.84217e-14,-0.5"/>
<text text-anchor="start" x="8" y="-19.5" font-family="Helvetica,sans-Serif" font-size="10.00">panda::Tau::datastore</text>
<text text-anchor="middle" x="56.91" y="-7.5" font-family="Helvetica,sans-Serif" font-size="10.00">::~datastore</text>
</g>
<!-- Node2 -->
<g id="node2" class="node"><title>Node2</title>
<g id="a_node2"><a xlink:href="structpanda_1_1Tau_1_1datastore.html#af651d3ae362a4a6d99b1bff788accca3" target="_top" xlink:title="panda::Tau::datastore\l::deallocate">
<polygon fill="white" stroke="black" points="149.82,-0.5 149.82,-32.5 263.64,-32.5 263.64,-0.5 149.82,-0.5"/>
<text text-anchor="start" x="157.82" y="-19.5" font-family="Helvetica,sans-Serif" font-size="10.00">panda::Tau::datastore</text>
<text text-anchor="middle" x="206.73" y="-7.5" font-family="Helvetica,sans-Serif" font-size="10.00">::deallocate</text>
</a>
</g>
</g>
<!-- Node1&#45;&gt;Node2 -->
<g id="edge1" class="edge"><title>Node1&#45;&gt;Node2</title>
<path fill="none" stroke="midnightblue" d="M114.216,-16.5C122.453,-16.5 130.999,-16.5 139.413,-16.5"/>
<polygon fill="midnightblue" stroke="midnightblue" points="139.58,-20.0001 149.58,-16.5 139.58,-13.0001 139.58,-20.0001"/>
</g>
<!-- Node3 -->
<g id="node3" class="node"><title>Node3</title>
<g id="a_node3"><a xlink:href="structpanda_1_1ParticleM_1_1datastore.html#a85c4ce11f1d7c6944a525ad2488880aa" target="_top" xlink:title="panda::ParticleM::datastore\l::deallocate">
<polygon fill="white" stroke="black" points="299.64,-0.5 299.64,-32.5 437.895,-32.5 437.895,-0.5 299.64,-0.5"/>
<text text-anchor="start" x="307.64" y="-19.5" font-family="Helvetica,sans-Serif" font-size="10.00">panda::ParticleM::datastore</text>
<text text-anchor="middle" x="368.768" y="-7.5" font-family="Helvetica,sans-Serif" font-size="10.00">::deallocate</text>
</a>
</g>
</g>
<!-- Node2&#45;&gt;Node3 -->
<g id="edge2" class="edge"><title>Node2&#45;&gt;Node3</title>
<path fill="none" stroke="midnightblue" d="M263.703,-16.5C271.996,-16.5 280.668,-16.5 289.316,-16.5"/>
<polygon fill="midnightblue" stroke="midnightblue" points="289.433,-20.0001 299.433,-16.5 289.433,-13.0001 289.433,-20.0001"/>
</g>
<!-- Node4 -->
<g id="node4" class="node"><title>Node4</title>
<g id="a_node4"><a xlink:href="structpanda_1_1Particle_1_1datastore.html#ad741e5ab6ebeb9ca897ba9472d0dea36" target="_top" xlink:title="panda::Particle::datastore\l::deallocate">
<polygon fill="white" stroke="black" points="473.895,-0.5 473.895,-32.5 603.821,-32.5 603.821,-0.5 473.895,-0.5"/>
<text text-anchor="start" x="481.895" y="-19.5" font-family="Helvetica,sans-Serif" font-size="10.00">panda::Particle::datastore</text>
<text text-anchor="middle" x="538.858" y="-7.5" font-family="Helvetica,sans-Serif" font-size="10.00">::deallocate</text>
</a>
</g>
</g>
<!-- Node3&#45;&gt;Node4 -->
<g id="edge3" class="edge"><title>Node3&#45;&gt;Node4</title>
<path fill="none" stroke="midnightblue" d="M438.136,-16.5C446.537,-16.5 455.154,-16.5 463.636,-16.5"/>
<polygon fill="midnightblue" stroke="midnightblue" points="463.891,-20.0001 473.891,-16.5 463.891,-13.0001 463.891,-20.0001"/>
</g>
<!-- Node5 -->
<g id="node5" class="node"><title>Node5</title>
<g id="a_node5"><a xlink:href="structpanda_1_1ContainerElement_1_1datastore.html#a8827cbb1304b781fcba764a6bf4cbcc1" target="_top" xlink:title="panda::ContainerElement\l::datastore::deallocate">
<polygon fill="white" stroke="black" points="639.821,-0.5 639.821,-32.5 769.188,-32.5 769.188,-0.5 639.821,-0.5"/>
<text text-anchor="start" x="647.821" y="-19.5" font-family="Helvetica,sans-Serif" font-size="10.00">panda::ContainerElement</text>
<text text-anchor="middle" x="704.505" y="-7.5" font-family="Helvetica,sans-Serif" font-size="10.00">::datastore::deallocate</text>
</a>
</g>
</g>
<!-- Node4&#45;&gt;Node5 -->
<g id="edge4" class="edge"><title>Node4&#45;&gt;Node5</title>
<path fill="none" stroke="midnightblue" d="M604.066,-16.5C612.405,-16.5 621.001,-16.5 629.484,-16.5"/>
<polygon fill="midnightblue" stroke="midnightblue" points="629.75,-20.0001 639.75,-16.5 629.75,-13.0001 629.75,-20.0001"/>
</g>
</g>
</svg>
