<?xml version="1.0" encoding="UTF-8" standalone="no"?>
<!DOCTYPE svg PUBLIC "-//W3C//DTD SVG 1.1//EN"
 "http://www.w3.org/Graphics/SVG/1.1/DTD/svg11.dtd">
<!-- Generated by graphviz version 2.38.0 (20140413.2041)
 -->
<!-- Title: panda::ParticleM::datastore::resetAddress Pages: 1 -->
<!--zoomable 296 -->
<svg id="main" version="1.1" xmlns="http://www.w3.org/2000/svg" xmlns:xlink="http://www.w3.org/1999/xlink" xml:space="preserve" onload="init(evt)">
<style type="text/css"><![CDATA[
.edge:hover path { stroke: red; }
.edge:hover polygon { stroke: red; fill: red; }
]]></style>
<script type="text/javascript"><![CDATA[
var edges = document.getElementsByTagName('g');
if (edges && edges.length) {
  for (var i=0;i<edges.length;i++) {
    if (edges[i].id.substr(0,4)=='edge') {
      edges[i].setAttribute('class','edge');
    }
  }
}
]]></script>
        <defs>
                <circle id="rim" cx="0" cy="0" r="7"/>
                <circle id="rim2" cx="0" cy="0" r="3.5"/>
                <g id="zoomPlus">
                        <use xlink:href="#rim" fill="#404040">
                                <set attributeName="fill" to="#808080" begin="zoomplus.mouseover" end="zoomplus.mouseout"/>
                        </use>
                        <path d="M-4,0h8M0,-4v8" fill="none" stroke="white" stroke-width="1.5" pointer-events="none"/>
                </g>
                <g id="zoomMin">
                        <use xlink:href="#rim" fill="#404040">
                                <set attributeName="fill" to="#808080" begin="zoomminus.mouseover" end="zoomminus.mouseout"/>
                        </use>
                        <path d="M-4,0h8" fill="none" stroke="white" stroke-width="1.5" pointer-events="none"/>
                </g>
                <g id="dirArrow">
                        <path fill="none" stroke="white" stroke-width="1.5" d="M0,-3.0v7 M-2.5,-0.5L0,-3.0L2.5,-0.5"/>
                </g>
               <g id="resetDef">
                       <use xlink:href="#rim2" fill="#404040">
                               <set attributeName="fill" to="#808080" begin="reset.mouseover" end="reset.mouseout"/>
                       </use>
               </g>
        </defs>

<script type="text/javascript">
var viewWidth = 623;
var viewHeight = 296;
var sectionId = 'dynsection-10';
</script>
<script xlink:href="svgpan.js"/>
<svg id="graph" class="graph">
<g id="viewport">
<title>panda::ParticleM::datastore::resetAddress</title>
<polygon fill="white" stroke="none" points="-4,4 -4,-292 618.931,-292 618.931,4 -4,4"/>
<!-- Node1 -->
<g id="node1" class="node"><title>Node1</title>
<polygon fill="#bfbfbf" stroke="black" points="5.68434e-14,-127.5 5.68434e-14,-159.5 138.255,-159.5 138.255,-127.5 5.68434e-14,-127.5"/>
<text text-anchor="start" x="8" y="-146.5" font-family="Helvetica,sans-Serif" font-size="10.00">panda::ParticleM::datastore</text>
<text text-anchor="middle" x="69.1275" y="-134.5" font-family="Helvetica,sans-Serif" font-size="10.00">::resetAddress</text>
</g>
<!-- Node2 -->
<g id="node2" class="node"><title>Node2</title>
<g id="a_node2"><a xlink:href="structpanda_1_1GenJet_1_1datastore.html#a474a24f5349360f411dc9618da04541f" target="_top" xlink:title="panda::GenJet::datastore\l::resetAddress">
<polygon fill="white" stroke="black" points="177.025,-255.5 177.025,-287.5 305.853,-287.5 305.853,-255.5 177.025,-255.5"/>
<text text-anchor="start" x="185.025" y="-274.5" font-family="Helvetica,sans-Serif" font-size="10.00">panda::GenJet::datastore</text>
<text text-anchor="middle" x="241.439" y="-262.5" font-family="Helvetica,sans-Serif" font-size="10.00">::resetAddress</text>
</a>
</g>
</g>
<!-- Node1&#45;&gt;Node2 -->
<g id="edge1" class="edge"><title>Node1&#45;&gt;Node2</title>
<path fill="none" stroke="midnightblue" d="M89.1631,-167.455C108.49,-190.422 140.33,-224.728 174.255,-246.5 179.424,-249.817 185.098,-252.792 190.883,-255.432"/>
<polygon fill="midnightblue" stroke="midnightblue" points="91.6975,-165.028 82.6281,-159.551 86.3026,-169.488 91.6975,-165.028"/>
</g>
<!-- Node3 -->
<g id="node3" class="node"><title>Node3</title>
<g id="a_node3"><a xlink:href="structpanda_1_1GenParticle_1_1datastore.html#a560f90c85950a4f2d29a1f0c630344fe" target="_top" xlink:title="panda::GenParticle\l::datastore::resetAddress">
<polygon fill="white" stroke="black" points="177.589,-204.5 177.589,-236.5 305.288,-236.5 305.288,-204.5 177.589,-204.5"/>
<text text-anchor="start" x="185.589" y="-223.5" font-family="Helvetica,sans-Serif" font-size="10.00">panda::GenParticle</text>
<text text-anchor="middle" x="241.439" y="-211.5" font-family="Helvetica,sans-Serif" font-size="10.00">::datastore::resetAddress</text>
</a>
</g>
</g>
<!-- Node1&#45;&gt;Node3 -->
<g id="edge2" class="edge"><title>Node1&#45;&gt;Node3</title>
<path fill="none" stroke="midnightblue" d="M109.365,-164.281C128.685,-174.207 152.457,-185.97 174.255,-195.5 181.232,-198.551 188.712,-201.59 196.042,-204.445"/>
<polygon fill="midnightblue" stroke="midnightblue" points="110.757,-161.06 100.267,-159.574 107.54,-167.278 110.757,-161.06"/>
</g>
<!-- Node4 -->
<g id="node4" class="node"><title>Node4</title>
<g id="a_node4"><a xlink:href="structpanda_1_1MicroJet_1_1datastore.html#a1e01e1fb6d728a2497fc29a9fef3c79e" target="_top" xlink:title="panda::MicroJet::datastore\l::resetAddress">
<polygon fill="white" stroke="black" points="174.255,-153.5 174.255,-185.5 308.622,-185.5 308.622,-153.5 174.255,-153.5"/>
<text text-anchor="start" x="182.255" y="-172.5" font-family="Helvetica,sans-Serif" font-size="10.00">panda::MicroJet::datastore</text>
<text text-anchor="middle" x="241.439" y="-160.5" font-family="Helvetica,sans-Serif" font-size="10.00">::resetAddress</text>
</a>
</g>
</g>
<!-- Node1&#45;&gt;Node4 -->
<g id="edge3" class="edge"><title>Node1&#45;&gt;Node4</title>
<path fill="none" stroke="midnightblue" d="M148.42,-155.452C156.994,-156.761 165.661,-158.084 174.072,-159.368"/>
<polygon fill="midnightblue" stroke="midnightblue" points="148.832,-151.975 138.418,-153.925 147.775,-158.895 148.832,-151.975"/>
</g>
<!-- Node7 -->
<g id="node7" class="node"><title>Node7</title>
<g id="a_node7"><a xlink:href="structpanda_1_1Parton_1_1datastore.html#a00923f3224a5d7f0e2e25a09f31dfdcc" target="_top" xlink:title="panda::Parton::datastore\l::resetAddress">
<polygon fill="white" stroke="black" points="178.415,-102.5 178.415,-134.5 304.462,-134.5 304.462,-102.5 178.415,-102.5"/>
<text text-anchor="start" x="186.415" y="-121.5" font-family="Helvetica,sans-Serif" font-size="10.00">panda::Parton::datastore</text>
<text text-anchor="middle" x="241.439" y="-109.5" font-family="Helvetica,sans-Serif" font-size="10.00">::resetAddress</text>
</a>
</g>
</g>
<!-- Node1&#45;&gt;Node7 -->
<g id="edge6" class="edge"><title>Node1&#45;&gt;Node7</title>
<path fill="none" stroke="midnightblue" d="M148.358,-132.017C158.361,-130.548 168.493,-129.061 178.195,-127.637"/>
<polygon fill="midnightblue" stroke="midnightblue" points="147.804,-128.56 138.418,-133.476 148.82,-135.486 147.804,-128.56"/>
</g>
<!-- Node8 -->
<g id="node8" class="node"><title>Node8</title>
<g id="a_node8"><a xlink:href="structpanda_1_1PFCand_1_1datastore.html#a18b5e8b5d46702c368d7c93193c63a0f" target="_top" xlink:title="panda::PFCand::datastore\l::resetAddress">
<polygon fill="white" stroke="black" points="174.805,-51.5 174.805,-83.5 308.072,-83.5 308.072,-51.5 174.805,-51.5"/>
<text text-anchor="start" x="182.805" y="-70.5" font-family="Helvetica,sans-Serif" font-size="10.00">panda::PFCand::datastore</text>
<text text-anchor="middle" x="241.439" y="-58.5" font-family="Helvetica,sans-Serif" font-size="10.00">::resetAddress</text>
</a>
</g>
</g>
<!-- Node1&#45;&gt;Node8 -->
<g id="edge7" class="edge"><title>Node1&#45;&gt;Node8</title>
<path fill="none" stroke="midnightblue" d="M111.206,-122.918C130.237,-113.605 153.243,-102.657 174.255,-93.5 181.951,-90.1462 190.228,-86.7396 198.234,-83.5449"/>
<polygon fill="midnightblue" stroke="midnightblue" points="109.637,-119.789 102.209,-127.344 112.727,-126.07 109.637,-119.789"/>
</g>
<!-- Node9 -->
<g id="node9" class="node"><title>Node9</title>
<g id="a_node9"><a xlink:href="structpanda_1_1Tau_1_1datastore.html#a85bbdd238ef17a2765c4b51e267af67b" target="_top" xlink:title="panda::Tau::datastore\l::resetAddress">
<polygon fill="white" stroke="black" points="184.529,-0.5 184.529,-32.5 298.349,-32.5 298.349,-0.5 184.529,-0.5"/>
<text text-anchor="start" x="192.529" y="-19.5" font-family="Helvetica,sans-Serif" font-size="10.00">panda::Tau::datastore</text>
<text text-anchor="middle" x="241.439" y="-7.5" font-family="Helvetica,sans-Serif" font-size="10.00">::resetAddress</text>
</a>
</g>
</g>
<!-- Node1&#45;&gt;Node9 -->
<g id="edge8" class="edge"><title>Node1&#45;&gt;Node9</title>
<path fill="none" stroke="midnightblue" d="M89.6487,-119.749C109.123,-97.3186 140.878,-63.9989 174.255,-42.5 179.963,-38.8232 186.273,-35.5262 192.664,-32.6155"/>
<polygon fill="midnightblue" stroke="midnightblue" points="86.8811,-117.6 83.0493,-127.478 92.2045,-122.146 86.8811,-117.6"/>
</g>
<!-- Node5 -->
<g id="node5" class="node"><title>Node5</title>
<g id="a_node5"><a xlink:href="structpanda_1_1Jet_1_1datastore.html#a665fb876fb18c28c2828555baaa9ed7c" target="_top" xlink:title="panda::Jet::datastore\l::resetAddress">
<polygon fill="white" stroke="black" points="344.622,-153.5 344.622,-185.5 454.553,-185.5 454.553,-153.5 344.622,-153.5"/>
<text text-anchor="start" x="352.622" y="-172.5" font-family="Helvetica,sans-Serif" font-size="10.00">panda::Jet::datastore</text>
<text text-anchor="middle" x="399.588" y="-160.5" font-family="Helvetica,sans-Serif" font-size="10.00">::resetAddress</text>
</a>
</g>
</g>
<!-- Node4&#45;&gt;Node5 -->
<g id="edge4" class="edge"><title>Node4&#45;&gt;Node5</title>
<path fill="none" stroke="midnightblue" d="M318.824,-169.5C327.514,-169.5 336.233,-169.5 344.549,-169.5"/>
<polygon fill="midnightblue" stroke="midnightblue" points="318.66,-166 308.66,-169.5 318.66,-173 318.66,-166"/>
</g>
<!-- Node6 -->
<g id="node6" class="node"><title>Node6</title>
<g id="a_node6"><a xlink:href="structpanda_1_1FatJet_1_1datastore.html#a64adfe00b81cf90551047cde4cce6c1f" target="_top" xlink:title="panda::FatJet::datastore\l::resetAddress">
<polygon fill="white" stroke="black" points="490.553,-153.5 490.553,-185.5 614.931,-185.5 614.931,-153.5 490.553,-153.5"/>
<text text-anchor="start" x="498.553" y="-172.5" font-family="Helvetica,sans-Serif" font-size="10.00">panda::FatJet::datastore</text>
<text text-anchor="middle" x="552.742" y="-160.5" font-family="Helvetica,sans-Serif" font-size="10.00">::resetAddress</text>
</a>
</g>
</g>
<!-- Node5&#45;&gt;Node6 -->
<g id="edge5" class="edge"><title>Node5&#45;&gt;Node6</title>
<path fill="none" stroke="midnightblue" d="M464.95,-169.5C473.43,-169.5 482.103,-169.5 490.528,-169.5"/>
<polygon fill="midnightblue" stroke="midnightblue" points="464.731,-166 454.731,-169.5 464.731,-173 464.731,-166"/>
</g>
</g>
</svg>
        <g id="navigator" transform="translate(0 0)" fill="#404254">
                <rect fill="#f2f5e9" fill-opacity="0.5" stroke="#606060" stroke-width=".5" x="0" y="0" width="60" height="60"/>
                <use id="zoomplus" xlink:href="#zoomPlus" x="17" y="9" onmousedown="handleZoom(evt,'in')"/>
                <use id="zoomminus" xlink:href="#zoomMin" x="42" y="9" onmousedown="handleZoom(evt,'out')"/>
                <use id="reset" xlink:href="#resetDef" x="30" y="36" onmousedown="handleReset()"/>
                <g id="arrowUp" xlink:href="#dirArrow" transform="translate(30 24)" onmousedown="handlePan(0,-1)">
                  <use xlink:href="#rim" fill="#404040">
                        <set attributeName="fill" to="#808080" begin="arrowUp.mouseover" end="arrowUp.mouseout"/>
                  </use>
                  <path fill="none" stroke="white" stroke-width="1.5" d="M0,-3.0v7 M-2.5,-0.5L0,-3.0L2.5,-0.5"/>
                </g>
                <g id="arrowRight" xlink:href="#dirArrow" transform="rotate(90) translate(36 -43)" onmousedown="handlePan(1,0)">
                  <use xlink:href="#rim" fill="#404040">
                        <set attributeName="fill" to="#808080" begin="arrowRight.mouseover" end="arrowRight.mouseout"/>
                  </use>
                  <path fill="none" stroke="white" stroke-width="1.5" d="M0,-3.0v7 M-2.5,-0.5L0,-3.0L2.5,-0.5"/>
                </g>
                <g id="arrowDown" xlink:href="#dirArrow" transform="rotate(180) translate(-30 -48)" onmousedown="handlePan(0,1)">
                  <use xlink:href="#rim" fill="#404040">
                        <set attributeName="fill" to="#808080" begin="arrowDown.mouseover" end="arrowDown.mouseout"/>
                  </use>
                  <path fill="none" stroke="white" stroke-width="1.5" d="M0,-3.0v7 M-2.5,-0.5L0,-3.0L2.5,-0.5"/>
                </g>
                <g id="arrowLeft" xlink:href="#dirArrow" transform="rotate(270) translate(-36 17)" onmousedown="handlePan(-1,0)">
                  <use xlink:href="#rim" fill="#404040">
                        <set attributeName="fill" to="#808080" begin="arrowLeft.mouseover" end="arrowLeft.mouseout"/>
                  </use>
                  <path fill="none" stroke="white" stroke-width="1.5" d="M0,-3.0v7 M-2.5,-0.5L0,-3.0L2.5,-0.5"/>
                </g>
        </g>
        <svg viewBox="0 0 15 15" width="100%" height="30px" preserveAspectRatio="xMaxYMin meet">
         <g id="arrow_out" transform="scale(0.3 0.3)">
          <a xlink:href="structpanda_1_1ParticleM_1_1datastore_a6ba00e058ede77709ec931108ccf9bb8_icgraph_org.svg" target="_base">
           <rect id="button" ry="5" rx="5" y="6" x="6" height="38" width="38"
                fill="#f2f5e9" fill-opacity="0.5" stroke="#606060" stroke-width="1.0"/>
           <path id="arrow"
             d="M 11.500037,31.436501 C 11.940474,20.09759 22.043105,11.32322 32.158766,21.979434 L 37.068811,17.246167 C 37.068811,17.246167 37.088388,32 37.088388,32 L 22.160133,31.978069 C 22.160133,31.978069 26.997745,27.140456 26.997745,27.140456 C 18.528582,18.264221 13.291696,25.230495 11.500037,31.436501 z"
             style="fill:#404040;"/>
          </a>
         </g>
        </svg>
</svg>
