<?xml version="1.0" encoding="UTF-8" standalone="no"?>
<!DOCTYPE svg PUBLIC "-//W3C//DTD SVG 1.1//EN"
 "http://www.w3.org/Graphics/SVG/1.1/DTD/svg11.dtd">
<!-- Generated by graphviz version 2.38.0 (20140413.2041)
 -->
<!-- Title: panda::Muon::datastore::~datastore Pages: 1 -->
<svg width="782pt" height="41pt"
 viewBox="0.00 0.00 781.66 41.00" xmlns="http://www.w3.org/2000/svg" xmlns:xlink="http://www.w3.org/1999/xlink">
<g id="graph0" class="graph" transform="scale(1 1) rotate(0) translate(4 37)">
<title>panda::Muon::datastore::~datastore</title>
<polygon fill="white" stroke="none" points="-4,4 -4,-37 777.658,-37 777.658,4 -4,4"/>
<!-- Node1 -->
<g id="node1" class="node"><title>Node1</title>
<polygon fill="#bfbfbf" stroke="black" points="-2.84217e-14,-0.5 -2.84217e-14,-32.5 121.599,-32.5 121.599,-0.5 -2.84217e-14,-0.5"/>
<text text-anchor="start" x="8" y="-19.5" font-family="Helvetica,sans-Serif" font-size="10.00">panda::Muon::datastore</text>
<text text-anchor="middle" x="60.7995" y="-7.5" font-family="Helvetica,sans-Serif" font-size="10.00">::~datastore</text>
</g>
<!-- Node2 -->
<g id="node2" class="node"><title>Node2</title>
<g id="a_node2"><a xlink:href="structpanda_1_1Muon_1_1datastore.html#aed9de75b6fb1e71671aa8a5b00862ace" target="_top" xlink:title="panda::Muon::datastore\l::deallocate">
<polygon fill="white" stroke="black" points="157.599,-0.5 157.599,-32.5 279.198,-32.5 279.198,-0.5 157.599,-0.5"/>
<text text-anchor="start" x="165.599" y="-19.5" font-family="Helvetica,sans-Serif" font-size="10.00">panda::Muon::datastore</text>
<text text-anchor="middle" x="218.398" y="-7.5" font-family="Helvetica,sans-Serif" font-size="10.00">::deallocate</text>
</a>
</g>
</g>
<!-- Node1&#45;&gt;Node2 -->
<g id="edge1" class="edge"><title>Node1&#45;&gt;Node2</title>
<path fill="none" stroke="midnightblue" d="M121.958,-16.5C130.227,-16.5 138.776,-16.5 147.205,-16.5"/>
<polygon fill="midnightblue" stroke="midnightblue" points="147.4,-20.0001 157.4,-16.5 147.4,-13.0001 147.4,-20.0001"/>
</g>
<!-- Node3 -->
<g id="node3" class="node"><title>Node3</title>
<g id="a_node3"><a xlink:href="structpanda_1_1Lepton_1_1datastore.html#a527515ee96020a4aaef41d9de157c131" target="_top" xlink:title="panda::Lepton::datastore\l::deallocate">
<polygon fill="white" stroke="black" points="315.198,-0.5 315.198,-32.5 442.365,-32.5 442.365,-0.5 315.198,-0.5"/>
<text text-anchor="start" x="323.198" y="-19.5" font-family="Helvetica,sans-Serif" font-size="10.00">panda::Lepton::datastore</text>
<text text-anchor="middle" x="378.781" y="-7.5" font-family="Helvetica,sans-Serif" font-size="10.00">::deallocate</text>
</a>
</g>
</g>
<!-- Node2&#45;&gt;Node3 -->
<g id="edge2" class="edge"><title>Node2&#45;&gt;Node3</title>
<path fill="none" stroke="midnightblue" d="M279.276,-16.5C287.713,-16.5 296.462,-16.5 305.106,-16.5"/>
<polygon fill="midnightblue" stroke="midnightblue" points="305.181,-20.0001 315.181,-16.5 305.181,-13.0001 305.181,-20.0001"/>
</g>
<!-- Node4 -->
<g id="node4" class="node"><title>Node4</title>
<g id="a_node4"><a xlink:href="structpanda_1_1Particle_1_1datastore.html#ad741e5ab6ebeb9ca897ba9472d0dea36" target="_top" xlink:title="panda::Particle::datastore\l::deallocate">
<polygon fill="white" stroke="black" points="478.365,-0.5 478.365,-32.5 608.291,-32.5 608.291,-0.5 478.365,-0.5"/>
<text text-anchor="start" x="486.365" y="-19.5" font-family="Helvetica,sans-Serif" font-size="10.00">panda::Particle::datastore</text>
<text text-anchor="middle" x="543.328" y="-7.5" font-family="Helvetica,sans-Serif" font-size="10.00">::deallocate</text>
</a>
</g>
</g>
<!-- Node3&#45;&gt;Node4 -->
<g id="edge3" class="edge"><title>Node3&#45;&gt;Node4</title>
<path fill="none" stroke="midnightblue" d="M442.626,-16.5C451.038,-16.5 459.728,-16.5 468.308,-16.5"/>
<polygon fill="midnightblue" stroke="midnightblue" points="468.309,-20.0001 478.309,-16.5 468.309,-13.0001 468.309,-20.0001"/>
</g>
<!-- Node5 -->
<g id="node5" class="node"><title>Node5</title>
<g id="a_node5"><a xlink:href="structpanda_1_1ContainerElement_1_1datastore.html#a8827cbb1304b781fcba764a6bf4cbcc1" target="_top" xlink:title="panda::ContainerElement\l::datastore::deallocate">
<polygon fill="white" stroke="black" points="644.291,-0.5 644.291,-32.5 773.658,-32.5 773.658,-0.5 644.291,-0.5"/>
<text text-anchor="start" x="652.291" y="-19.5" font-family="Helvetica,sans-Serif" font-size="10.00">panda::ContainerElement</text>
<text text-anchor="middle" x="708.974" y="-7.5" font-family="Helvetica,sans-Serif" font-size="10.00">::datastore::deallocate</text>
</a>
</g>
</g>
<!-- Node4&#45;&gt;Node5 -->
<g id="edge4" class="edge"><title>Node4&#45;&gt;Node5</title>
<path fill="none" stroke="midnightblue" d="M608.536,-16.5C616.875,-16.5 625.471,-16.5 633.954,-16.5"/>
<polygon fill="midnightblue" stroke="midnightblue" points="634.22,-20.0001 644.22,-16.5 634.22,-13.0001 634.22,-20.0001"/>
</g>
</g>
</svg>
