<?xml version="1.0" encoding="UTF-8" standalone="no"?>
<!DOCTYPE svg PUBLIC "-//W3C//DTD SVG 1.1//EN"
 "http://www.w3.org/Graphics/SVG/1.1/DTD/svg11.dtd">
<!-- Generated by graphviz version 2.38.0 (20140413.2041)
 -->
<!-- Title: panda::ParticleM::datastore::resetAddress Pages: 1 -->
<svg width="647pt" height="86pt"
 viewBox="0.00 0.00 646.80 86.00" xmlns="http://www.w3.org/2000/svg" xmlns:xlink="http://www.w3.org/1999/xlink">
<g id="graph0" class="graph" transform="scale(1 1) rotate(0) translate(4 82)">
<title>panda::ParticleM::datastore::resetAddress</title>
<polygon fill="white" stroke="none" points="-4,4 -4,-82 642.797,-82 642.797,4 -4,4"/>
<!-- Node1 -->
<g id="node1" class="node"><title>Node1</title>
<polygon fill="#bfbfbf" stroke="black" points="5.68434e-14,-22.5 5.68434e-14,-54.5 138.255,-54.5 138.255,-22.5 5.68434e-14,-22.5"/>
<text text-anchor="start" x="8" y="-41.5" font-family="Helvetica,sans-Serif" font-size="10.00">panda::ParticleM::datastore</text>
<text text-anchor="middle" x="69.1275" y="-29.5" font-family="Helvetica,sans-Serif" font-size="10.00">::resetAddress</text>
</g>
<!-- Node2 -->
<g id="node2" class="node"><title>Node2</title>
<g id="a_node2"><a xlink:href="structpanda_1_1Particle_1_1datastore.html#a4a04e4dd473787da09b945659e07f0ec" target="_top" xlink:title="panda::Particle::datastore\l::resetAddress">
<polygon fill="white" stroke="black" points="174.255,-45.5 174.255,-77.5 304.181,-77.5 304.181,-45.5 174.255,-45.5"/>
<text text-anchor="start" x="182.255" y="-64.5" font-family="Helvetica,sans-Serif" font-size="10.00">panda::Particle::datastore</text>
<text text-anchor="middle" x="239.218" y="-52.5" font-family="Helvetica,sans-Serif" font-size="10.00">::resetAddress</text>
</a>
</g>
</g>
<!-- Node1&#45;&gt;Node2 -->
<g id="edge1" class="edge"><title>Node1&#45;&gt;Node2</title>
<path fill="none" stroke="midnightblue" d="M138.496,-47.855C146.989,-49.0171 155.703,-50.2094 164.275,-51.3823"/>
<polygon fill="midnightblue" stroke="midnightblue" points="163.868,-54.8592 174.251,-52.7473 164.817,-47.9238 163.868,-54.8592"/>
</g>
<!-- Node4 -->
<g id="node4" class="node"><title>Node4</title>
<g id="a_node4"><a xlink:href="namespacepanda_1_1utils.html#a82a8530e64fbdf917cf9b8659065f98b" target="_top" xlink:title="panda::utils::resetAddress">
<polygon fill="white" stroke="black" points="340.181,-6.5 340.181,-26.5 471.769,-26.5 471.769,-6.5 340.181,-6.5"/>
<text text-anchor="middle" x="405.975" y="-13.5" font-family="Helvetica,sans-Serif" font-size="10.00">panda::utils::resetAddress</text>
</a>
</g>
</g>
<!-- Node1&#45;&gt;Node4 -->
<g id="edge5" class="edge"><title>Node1&#45;&gt;Node4</title>
<path fill="none" stroke="midnightblue" d="M138.292,-34.0215C193.942,-30.3652 272.491,-25.2044 329.927,-21.4308"/>
<polygon fill="midnightblue" stroke="midnightblue" points="330.285,-24.9149 340.034,-20.7667 329.826,-17.9299 330.285,-24.9149"/>
</g>
<!-- Node3 -->
<g id="node3" class="node"><title>Node3</title>
<g id="a_node3"><a xlink:href="structpanda_1_1ContainerElement_1_1datastore.html#a1f296453b1f2e440d9b4be3388069d43" target="_top" xlink:title="panda::ContainerElement\l::datastore::resetAddress">
<polygon fill="white" stroke="black" points="341.292,-45.5 341.292,-77.5 470.659,-77.5 470.659,-45.5 341.292,-45.5"/>
<text text-anchor="start" x="349.292" y="-64.5" font-family="Helvetica,sans-Serif" font-size="10.00">panda::ContainerElement</text>
<text text-anchor="middle" x="405.975" y="-52.5" font-family="Helvetica,sans-Serif" font-size="10.00">::datastore::resetAddress</text>
</a>
</g>
</g>
<!-- Node2&#45;&gt;Node3 -->
<g id="edge2" class="edge"><title>Node2&#45;&gt;Node3</title>
<path fill="none" stroke="midnightblue" d="M304.389,-61.5C313.186,-61.5 322.274,-61.5 331.225,-61.5"/>
<polygon fill="midnightblue" stroke="midnightblue" points="331.25,-65.0001 341.25,-61.5 331.25,-58.0001 331.25,-65.0001"/>
</g>
<!-- Node2&#45;&gt;Node4 -->
<g id="edge3" class="edge"><title>Node2&#45;&gt;Node4</title>
<path fill="none" stroke="midnightblue" d="M299.234,-45.3811C318.555,-40.1039 339.745,-34.3163 358.049,-29.3168"/>
<polygon fill="midnightblue" stroke="midnightblue" points="359.167,-32.6399 367.891,-26.6287 357.322,-25.8872 359.167,-32.6399"/>
</g>
<!-- Node5 -->
<g id="node5" class="node"><title>Node5</title>
<g id="a_node5"><a xlink:href="classpanda_1_1utils_1_1BranchName.html#a13958ff4a9d554d2c057c600b4f70412" target="_top" xlink:title="Prepend the branch name with &lt;objName.&gt;. ">
<polygon fill="white" stroke="black" points="507.769,-0.5 507.769,-32.5 638.797,-32.5 638.797,-0.5 507.769,-0.5"/>
<text text-anchor="start" x="515.769" y="-19.5" font-family="Helvetica,sans-Serif" font-size="10.00">panda::utils::BranchName</text>
<text text-anchor="middle" x="573.283" y="-7.5" font-family="Helvetica,sans-Serif" font-size="10.00">::fullName</text>
</a>
</g>
</g>
<!-- Node4&#45;&gt;Node5 -->
<g id="edge4" class="edge"><title>Node4&#45;&gt;Node5</title>
<path fill="none" stroke="midnightblue" d="M471.835,-16.5C480.286,-16.5 488.999,-16.5 497.595,-16.5"/>
<polygon fill="midnightblue" stroke="midnightblue" points="497.61,-20.0001 507.61,-16.5 497.61,-13.0001 497.61,-20.0001"/>
</g>
</g>
</svg>
