<?xml version="1.0" encoding="UTF-8" standalone="no"?>
<!DOCTYPE svg PUBLIC "-//W3C//DTD SVG 1.1//EN"
 "http://www.w3.org/Graphics/SVG/1.1/DTD/svg11.dtd">
<!-- Generated by graphviz version 2.38.0 (20140413.2041)
 -->
<!-- Title: panda::Parton::datastore::deallocate Pages: 1 -->
<svg width="640pt" height="41pt"
 viewBox="0.00 0.00 639.59 41.00" xmlns="http://www.w3.org/2000/svg" xmlns:xlink="http://www.w3.org/1999/xlink">
<g id="graph0" class="graph" transform="scale(1 1) rotate(0) translate(4 37)">
<title>panda::Parton::datastore::deallocate</title>
<polygon fill="white" stroke="none" points="-4,4 -4,-37 635.595,-37 635.595,4 -4,4"/>
<!-- Node1 -->
<g id="node1" class="node"><title>Node1</title>
<polygon fill="#bfbfbf" stroke="black" points="1.42109e-14,-0.5 1.42109e-14,-32.5 126.047,-32.5 126.047,-0.5 1.42109e-14,-0.5"/>
<text text-anchor="start" x="8" y="-19.5" font-family="Helvetica,sans-Serif" font-size="10.00">panda::Parton::datastore</text>
<text text-anchor="middle" x="63.0235" y="-7.5" font-family="Helvetica,sans-Serif" font-size="10.00">::deallocate</text>
</g>
<!-- Node2 -->
<g id="node2" class="node"><title>Node2</title>
<g id="a_node2"><a xlink:href="structpanda_1_1ParticleM_1_1datastore.html#a85c4ce11f1d7c6944a525ad2488880aa" target="_top" xlink:title="panda::ParticleM::datastore\l::deallocate">
<polygon fill="white" stroke="black" points="162.047,-0.5 162.047,-32.5 300.302,-32.5 300.302,-0.5 162.047,-0.5"/>
<text text-anchor="start" x="170.047" y="-19.5" font-family="Helvetica,sans-Serif" font-size="10.00">panda::ParticleM::datastore</text>
<text text-anchor="middle" x="231.174" y="-7.5" font-family="Helvetica,sans-Serif" font-size="10.00">::deallocate</text>
</a>
</g>
</g>
<!-- Node1&#45;&gt;Node2 -->
<g id="edge1" class="edge"><title>Node1&#45;&gt;Node2</title>
<path fill="none" stroke="midnightblue" d="M126.365,-16.5C134.704,-16.5 143.341,-16.5 151.909,-16.5"/>
<polygon fill="midnightblue" stroke="midnightblue" points="151.915,-20.0001 161.915,-16.5 151.915,-13.0001 151.915,-20.0001"/>
</g>
<!-- Node3 -->
<g id="node3" class="node"><title>Node3</title>
<g id="a_node3"><a xlink:href="structpanda_1_1Particle_1_1datastore.html#ad741e5ab6ebeb9ca897ba9472d0dea36" target="_top" xlink:title="panda::Particle::datastore\l::deallocate">
<polygon fill="white" stroke="black" points="336.302,-0.5 336.302,-32.5 466.228,-32.5 466.228,-0.5 336.302,-0.5"/>
<text text-anchor="start" x="344.302" y="-19.5" font-family="Helvetica,sans-Serif" font-size="10.00">panda::Particle::datastore</text>
<text text-anchor="middle" x="401.265" y="-7.5" font-family="Helvetica,sans-Serif" font-size="10.00">::deallocate</text>
</a>
</g>
</g>
<!-- Node2&#45;&gt;Node3 -->
<g id="edge2" class="edge"><title>Node2&#45;&gt;Node3</title>
<path fill="none" stroke="midnightblue" d="M300.543,-16.5C308.944,-16.5 317.561,-16.5 326.043,-16.5"/>
<polygon fill="midnightblue" stroke="midnightblue" points="326.298,-20.0001 336.298,-16.5 326.298,-13.0001 326.298,-20.0001"/>
</g>
<!-- Node4 -->
<g id="node4" class="node"><title>Node4</title>
<g id="a_node4"><a xlink:href="structpanda_1_1ContainerElement_1_1datastore.html#a8827cbb1304b781fcba764a6bf4cbcc1" target="_top" xlink:title="panda::ContainerElement\l::datastore::deallocate">
<polygon fill="white" stroke="black" points="502.228,-0.5 502.228,-32.5 631.595,-32.5 631.595,-0.5 502.228,-0.5"/>
<text text-anchor="start" x="510.228" y="-19.5" font-family="Helvetica,sans-Serif" font-size="10.00">panda::ContainerElement</text>
<text text-anchor="middle" x="566.911" y="-7.5" font-family="Helvetica,sans-Serif" font-size="10.00">::datastore::deallocate</text>
</a>
</g>
</g>
<!-- Node3&#45;&gt;Node4 -->
<g id="edge3" class="edge"><title>Node3&#45;&gt;Node4</title>
<path fill="none" stroke="midnightblue" d="M466.473,-16.5C474.812,-16.5 483.408,-16.5 491.891,-16.5"/>
<polygon fill="midnightblue" stroke="midnightblue" points="492.157,-20.0001 502.157,-16.5 492.157,-13.0001 492.157,-20.0001"/>
</g>
</g>
</svg>
