<?xml version="1.0" encoding="UTF-8" standalone="no"?>
<!DOCTYPE svg PUBLIC "-//W3C//DTD SVG 1.1//EN"
 "http://www.w3.org/Graphics/SVG/1.1/DTD/svg11.dtd">
<!-- Generated by graphviz version 2.38.0 (20140413.2041)
 -->
<!-- Title: panda::Electron::datastore::allocate Pages: 1 -->
<svg width="636pt" height="41pt"
 viewBox="0.00 0.00 635.73 41.00" xmlns="http://www.w3.org/2000/svg" xmlns:xlink="http://www.w3.org/1999/xlink">
<g id="graph0" class="graph" transform="scale(1 1) rotate(0) translate(4 37)">
<title>panda::Electron::datastore::allocate</title>
<polygon fill="white" stroke="none" points="-4,4 -4,-37 631.726,-37 631.726,4 -4,4"/>
<!-- Node1 -->
<g id="node1" class="node"><title>Node1</title>
<polygon fill="#bfbfbf" stroke="black" points="-5.68434e-14,-0.5 -5.68434e-14,-32.5 133.266,-32.5 133.266,-0.5 -5.68434e-14,-0.5"/>
<text text-anchor="start" x="8" y="-19.5" font-family="Helvetica,sans-Serif" font-size="10.00">panda::Electron::datastore</text>
<text text-anchor="middle" x="66.633" y="-7.5" font-family="Helvetica,sans-Serif" font-size="10.00">::allocate</text>
</g>
<!-- Node2 -->
<g id="node2" class="node"><title>Node2</title>
<g id="a_node2"><a xlink:href="structpanda_1_1Lepton_1_1datastore.html#a109ac02caed6e0a69a1b00248d80500e" target="_top" xlink:title="panda::Lepton::datastore\l::allocate">
<polygon fill="white" stroke="black" points="169.266,-0.5 169.266,-32.5 296.433,-32.5 296.433,-0.5 169.266,-0.5"/>
<text text-anchor="start" x="177.266" y="-19.5" font-family="Helvetica,sans-Serif" font-size="10.00">panda::Lepton::datastore</text>
<text text-anchor="middle" x="232.849" y="-7.5" font-family="Helvetica,sans-Serif" font-size="10.00">::allocate</text>
</a>
</g>
</g>
<!-- Node1&#45;&gt;Node2 -->
<g id="edge1" class="edge"><title>Node1&#45;&gt;Node2</title>
<path fill="none" stroke="midnightblue" d="M133.48,-16.5C141.854,-16.5 150.463,-16.5 158.939,-16.5"/>
<polygon fill="midnightblue" stroke="midnightblue" points="159.188,-20.0001 169.188,-16.5 159.188,-13.0001 159.188,-20.0001"/>
</g>
<!-- Node3 -->
<g id="node3" class="node"><title>Node3</title>
<g id="a_node3"><a xlink:href="structpanda_1_1Particle_1_1datastore.html#aab4009a97b5f3cc30eaf61cd7dbf2e3d" target="_top" xlink:title="panda::Particle::datastore\l::allocate">
<polygon fill="white" stroke="black" points="332.433,-0.5 332.433,-32.5 462.359,-32.5 462.359,-0.5 332.433,-0.5"/>
<text text-anchor="start" x="340.433" y="-19.5" font-family="Helvetica,sans-Serif" font-size="10.00">panda::Particle::datastore</text>
<text text-anchor="middle" x="397.396" y="-7.5" font-family="Helvetica,sans-Serif" font-size="10.00">::allocate</text>
</a>
</g>
</g>
<!-- Node2&#45;&gt;Node3 -->
<g id="edge2" class="edge"><title>Node2&#45;&gt;Node3</title>
<path fill="none" stroke="midnightblue" d="M296.694,-16.5C305.106,-16.5 313.796,-16.5 322.376,-16.5"/>
<polygon fill="midnightblue" stroke="midnightblue" points="322.377,-20.0001 332.377,-16.5 322.377,-13.0001 322.377,-20.0001"/>
</g>
<!-- Node4 -->
<g id="node4" class="node"><title>Node4</title>
<g id="a_node4"><a xlink:href="structpanda_1_1ContainerElement_1_1datastore.html#ae203568d73154e9890a7d6d00e6b6301" target="_top" xlink:title="panda::ContainerElement\l::datastore::allocate">
<polygon fill="white" stroke="black" points="498.359,-0.5 498.359,-32.5 627.726,-32.5 627.726,-0.5 498.359,-0.5"/>
<text text-anchor="start" x="506.359" y="-19.5" font-family="Helvetica,sans-Serif" font-size="10.00">panda::ContainerElement</text>
<text text-anchor="middle" x="563.042" y="-7.5" font-family="Helvetica,sans-Serif" font-size="10.00">::datastore::allocate</text>
</a>
</g>
</g>
<!-- Node3&#45;&gt;Node4 -->
<g id="edge3" class="edge"><title>Node3&#45;&gt;Node4</title>
<path fill="none" stroke="midnightblue" d="M462.604,-16.5C470.943,-16.5 479.539,-16.5 488.022,-16.5"/>
<polygon fill="midnightblue" stroke="midnightblue" points="488.288,-20.0001 498.288,-16.5 488.288,-13.0001 488.288,-20.0001"/>
</g>
</g>
</svg>
