<?xml version="1.0" encoding="UTF-8" standalone="no"?>
<!DOCTYPE svg PUBLIC "-//W3C//DTD SVG 1.1//EN"
 "http://www.w3.org/Graphics/SVG/1.1/DTD/svg11.dtd">
<!-- Generated by graphviz version 2.38.0 (20140413.2041)
 -->
<!-- Title: panda::Tau::datastore::book Pages: 1 -->
<svg width="808pt" height="108pt"
 viewBox="0.00 0.00 807.73 108.00" xmlns="http://www.w3.org/2000/svg" xmlns:xlink="http://www.w3.org/1999/xlink">
<g id="graph0" class="graph" transform="scale(1 1) rotate(0) translate(4 104)">
<title>panda::Tau::datastore::book</title>
<polygon fill="white" stroke="none" points="-4,4 -4,-104 803.732,-104 803.732,4 -4,4"/>
<!-- Node1 -->
<g id="node1" class="node"><title>Node1</title>
<polygon fill="#bfbfbf" stroke="black" points="-2.84217e-14,-6.5 -2.84217e-14,-38.5 113.82,-38.5 113.82,-6.5 -2.84217e-14,-6.5"/>
<text text-anchor="start" x="8" y="-25.5" font-family="Helvetica,sans-Serif" font-size="10.00">panda::Tau::datastore</text>
<text text-anchor="middle" x="56.91" y="-13.5" font-family="Helvetica,sans-Serif" font-size="10.00">::book</text>
</g>
<!-- Node2 -->
<g id="node2" class="node"><title>Node2</title>
<g id="a_node2"><a xlink:href="structpanda_1_1ParticleM_1_1datastore.html#ae2eb76ca042d8b3e899c027ee07b5860" target="_top" xlink:title="panda::ParticleM::datastore\l::book">
<polygon fill="white" stroke="black" points="149.82,-29.5 149.82,-61.5 288.075,-61.5 288.075,-29.5 149.82,-29.5"/>
<text text-anchor="start" x="157.82" y="-48.5" font-family="Helvetica,sans-Serif" font-size="10.00">panda::ParticleM::datastore</text>
<text text-anchor="middle" x="218.947" y="-36.5" font-family="Helvetica,sans-Serif" font-size="10.00">::book</text>
</a>
</g>
</g>
<!-- Node1&#45;&gt;Node2 -->
<g id="edge1" class="edge"><title>Node1&#45;&gt;Node2</title>
<path fill="none" stroke="midnightblue" d="M113.883,-30.5443C122.176,-31.7361 130.848,-32.9824 139.496,-34.2253"/>
<polygon fill="midnightblue" stroke="midnightblue" points="139.217,-37.721 149.613,-35.6792 140.213,-30.7922 139.217,-37.721"/>
</g>
<!-- Node5 -->
<g id="node5" class="node"><title>Node5</title>
<g id="a_node5"><a xlink:href="namespacepanda_1_1utils.html#aaa6c7cd5892388e6ffdf713b11abf793" target="_top" xlink:title="Book the branch. ">
<polygon fill="white" stroke="black" points="507.503,-28.5 507.503,-48.5 601.867,-48.5 601.867,-28.5 507.503,-28.5"/>
<text text-anchor="middle" x="554.685" y="-35.5" font-family="Helvetica,sans-Serif" font-size="10.00">panda::utils::book</text>
</a>
</g>
</g>
<!-- Node1&#45;&gt;Node5 -->
<g id="edge8" class="edge"><title>Node1&#45;&gt;Node5</title>
<path fill="none" stroke="midnightblue" d="M114.286,-20.3691C126.028,-20.0069 138.327,-19.6875 149.82,-19.5 211.258,-18.4976 226.667,-17.3065 288.075,-19.5 360.342,-22.0815 443.459,-28.6017 497.186,-33.2837"/>
<polygon fill="midnightblue" stroke="midnightblue" points="496.929,-36.7745 507.197,-34.1645 497.543,-29.8014 496.929,-36.7745"/>
</g>
<!-- Node3 -->
<g id="node3" class="node"><title>Node3</title>
<g id="a_node3"><a xlink:href="structpanda_1_1Particle_1_1datastore.html#af75a5d8b8a18ee09ce98ab37888b4404" target="_top" xlink:title="panda::Particle::datastore\l::book">
<polygon fill="white" stroke="black" points="324.075,-67.5 324.075,-99.5 454.001,-99.5 454.001,-67.5 324.075,-67.5"/>
<text text-anchor="start" x="332.075" y="-86.5" font-family="Helvetica,sans-Serif" font-size="10.00">panda::Particle::datastore</text>
<text text-anchor="middle" x="389.038" y="-74.5" font-family="Helvetica,sans-Serif" font-size="10.00">::book</text>
</a>
</g>
</g>
<!-- Node2&#45;&gt;Node3 -->
<g id="edge2" class="edge"><title>Node2&#45;&gt;Node3</title>
<path fill="none" stroke="midnightblue" d="M288.316,-60.9561C296.809,-62.876 305.523,-64.846 314.095,-66.7838"/>
<polygon fill="midnightblue" stroke="midnightblue" points="313.545,-70.2477 324.071,-69.039 315.089,-63.42 313.545,-70.2477"/>
</g>
<!-- Node2&#45;&gt;Node5 -->
<g id="edge7" class="edge"><title>Node2&#45;&gt;Node5</title>
<path fill="none" stroke="midnightblue" d="M288.289,-44.0666C349.995,-42.7723 439.705,-40.8907 497.378,-39.681"/>
<polygon fill="midnightblue" stroke="midnightblue" points="497.483,-43.1797 507.407,-39.4706 497.336,-36.1812 497.483,-43.1797"/>
</g>
<!-- Node4 -->
<g id="node4" class="node"><title>Node4</title>
<g id="a_node4"><a xlink:href="structpanda_1_1ContainerElement_1_1datastore.html#a3a4062043d9a913acd4056ab1cf5a93f" target="_top" xlink:title="panda::ContainerElement\l::datastore::book">
<polygon fill="white" stroke="black" points="490.001,-67.5 490.001,-99.5 619.368,-99.5 619.368,-67.5 490.001,-67.5"/>
<text text-anchor="start" x="498.001" y="-86.5" font-family="Helvetica,sans-Serif" font-size="10.00">panda::ContainerElement</text>
<text text-anchor="middle" x="554.685" y="-74.5" font-family="Helvetica,sans-Serif" font-size="10.00">::datastore::book</text>
</a>
</g>
</g>
<!-- Node3&#45;&gt;Node4 -->
<g id="edge3" class="edge"><title>Node3&#45;&gt;Node4</title>
<path fill="none" stroke="midnightblue" d="M454.246,-83.5C462.585,-83.5 471.181,-83.5 479.664,-83.5"/>
<polygon fill="midnightblue" stroke="midnightblue" points="479.93,-87.0001 489.93,-83.5 479.93,-80.0001 479.93,-87.0001"/>
</g>
<!-- Node3&#45;&gt;Node5 -->
<g id="edge4" class="edge"><title>Node3&#45;&gt;Node5</title>
<path fill="none" stroke="midnightblue" d="M448.656,-67.3811C467.847,-62.1039 488.894,-56.3163 507.075,-51.3168"/>
<polygon fill="midnightblue" stroke="midnightblue" points="508.137,-54.6549 516.851,-48.6287 506.281,-47.9054 508.137,-54.6549"/>
</g>
<!-- Node6 -->
<g id="node6" class="node"><title>Node6</title>
<g id="a_node6"><a xlink:href="classpanda_1_1utils_1_1BranchName.html#a6cc8a6df7c5b12a0221fd49773cca6a7" target="_top" xlink:title="Is the name included and not vetoed? ">
<polygon fill="white" stroke="black" points="655.368,-51.5 655.368,-71.5 799.732,-71.5 799.732,-51.5 655.368,-51.5"/>
<text text-anchor="middle" x="727.55" y="-58.5" font-family="Helvetica,sans-Serif" font-size="10.00">panda::utils::BranchName::in</text>
</a>
</g>
</g>
<!-- Node5&#45;&gt;Node6 -->
<g id="edge5" class="edge"><title>Node5&#45;&gt;Node6</title>
<path fill="none" stroke="midnightblue" d="M601.923,-44.7241C615.253,-46.5185 630.209,-48.5316 645.008,-50.5238"/>
<polygon fill="midnightblue" stroke="midnightblue" points="644.83,-54.0312 655.207,-51.8966 645.763,-47.0938 644.83,-54.0312"/>
</g>
<!-- Node7 -->
<g id="node7" class="node"><title>Node7</title>
<g id="a_node7"><a xlink:href="classpanda_1_1utils_1_1BranchName.html#a13958ff4a9d554d2c057c600b4f70412" target="_top" xlink:title="Prepend the branch name with &lt;objName.&gt;. ">
<polygon fill="white" stroke="black" points="662.036,-0.5 662.036,-32.5 793.064,-32.5 793.064,-0.5 662.036,-0.5"/>
<text text-anchor="start" x="670.036" y="-19.5" font-family="Helvetica,sans-Serif" font-size="10.00">panda::utils::BranchName</text>
<text text-anchor="middle" x="727.55" y="-7.5" font-family="Helvetica,sans-Serif" font-size="10.00">::fullName</text>
</a>
</g>
</g>
<!-- Node5&#45;&gt;Node7 -->
<g id="edge6" class="edge"><title>Node5&#45;&gt;Node7</title>
<path fill="none" stroke="midnightblue" d="M601.923,-32.5465C617.373,-30.5572 635.006,-28.2869 652.049,-26.0925"/>
<polygon fill="midnightblue" stroke="midnightblue" points="652.523,-29.5604 661.994,-24.812 651.629,-22.6178 652.523,-29.5604"/>
</g>
</g>
</svg>
