<?xml version="1.0" encoding="UTF-8" standalone="no"?>
<!DOCTYPE svg PUBLIC "-//W3C//DTD SVG 1.1//EN"
 "http://www.w3.org/Graphics/SVG/1.1/DTD/svg11.dtd">
<!-- Generated by graphviz version 2.38.0 (20140413.2041)
 -->
<!-- Title: panda::Lepton::datastore::book Pages: 1 -->
<svg width="647pt" height="108pt"
 viewBox="0.00 0.00 646.82 108.00" xmlns="http://www.w3.org/2000/svg" xmlns:xlink="http://www.w3.org/1999/xlink">
<g id="graph0" class="graph" transform="scale(1 1) rotate(0) translate(4 104)">
<title>panda::Lepton::datastore::book</title>
<polygon fill="white" stroke="none" points="-4,4 -4,-104 642.824,-104 642.824,4 -4,4"/>
<!-- Node1 -->
<g id="node1" class="node"><title>Node1</title>
<polygon fill="#bfbfbf" stroke="black" points="-4.26326e-14,-44.5 -4.26326e-14,-76.5 127.167,-76.5 127.167,-44.5 -4.26326e-14,-44.5"/>
<text text-anchor="start" x="8" y="-63.5" font-family="Helvetica,sans-Serif" font-size="10.00">panda::Lepton::datastore</text>
<text text-anchor="middle" x="63.5835" y="-51.5" font-family="Helvetica,sans-Serif" font-size="10.00">::book</text>
</g>
<!-- Node2 -->
<g id="node2" class="node"><title>Node2</title>
<g id="a_node2"><a xlink:href="structpanda_1_1Particle_1_1datastore.html#af75a5d8b8a18ee09ce98ab37888b4404" target="_top" xlink:title="panda::Particle::datastore\l::book">
<polygon fill="white" stroke="black" points="163.167,-67.5 163.167,-99.5 293.093,-99.5 293.093,-67.5 163.167,-67.5"/>
<text text-anchor="start" x="171.167" y="-86.5" font-family="Helvetica,sans-Serif" font-size="10.00">panda::Particle::datastore</text>
<text text-anchor="middle" x="228.13" y="-74.5" font-family="Helvetica,sans-Serif" font-size="10.00">::book</text>
</a>
</g>
</g>
<!-- Node1&#45;&gt;Node2 -->
<g id="edge1" class="edge"><title>Node1&#45;&gt;Node2</title>
<path fill="none" stroke="midnightblue" d="M127.428,-69.3924C135.84,-70.5826 144.53,-71.8122 153.11,-73.0264"/>
<polygon fill="midnightblue" stroke="midnightblue" points="152.719,-76.5058 163.111,-74.4414 153.7,-69.5748 152.719,-76.5058"/>
</g>
<!-- Node4 -->
<g id="node4" class="node"><title>Node4</title>
<g id="a_node4"><a xlink:href="namespacepanda_1_1utils.html#aaa6c7cd5892388e6ffdf713b11abf793" target="_top" xlink:title="Book the branch. ">
<polygon fill="white" stroke="black" points="346.594,-28.5 346.594,-48.5 440.958,-48.5 440.958,-28.5 346.594,-28.5"/>
<text text-anchor="middle" x="393.776" y="-35.5" font-family="Helvetica,sans-Serif" font-size="10.00">panda::utils::book</text>
</a>
</g>
</g>
<!-- Node1&#45;&gt;Node4 -->
<g id="edge6" class="edge"><title>Node1&#45;&gt;Node4</title>
<path fill="none" stroke="midnightblue" d="M127.474,-56.2842C187.875,-52.2353 278.288,-46.1746 336.405,-42.2788"/>
<polygon fill="midnightblue" stroke="midnightblue" points="336.767,-45.7625 346.51,-41.6014 336.298,-38.7782 336.767,-45.7625"/>
</g>
<!-- Node3 -->
<g id="node3" class="node"><title>Node3</title>
<g id="a_node3"><a xlink:href="structpanda_1_1ContainerElement_1_1datastore.html#a3a4062043d9a913acd4056ab1cf5a93f" target="_top" xlink:title="panda::ContainerElement\l::datastore::book">
<polygon fill="white" stroke="black" points="329.093,-67.5 329.093,-99.5 458.46,-99.5 458.46,-67.5 329.093,-67.5"/>
<text text-anchor="start" x="337.093" y="-86.5" font-family="Helvetica,sans-Serif" font-size="10.00">panda::ContainerElement</text>
<text text-anchor="middle" x="393.776" y="-74.5" font-family="Helvetica,sans-Serif" font-size="10.00">::datastore::book</text>
</a>
</g>
</g>
<!-- Node2&#45;&gt;Node3 -->
<g id="edge2" class="edge"><title>Node2&#45;&gt;Node3</title>
<path fill="none" stroke="midnightblue" d="M293.338,-83.5C301.677,-83.5 310.273,-83.5 318.756,-83.5"/>
<polygon fill="midnightblue" stroke="midnightblue" points="319.022,-87.0001 329.022,-83.5 319.022,-80.0001 319.022,-87.0001"/>
</g>
<!-- Node2&#45;&gt;Node4 -->
<g id="edge3" class="edge"><title>Node2&#45;&gt;Node4</title>
<path fill="none" stroke="midnightblue" d="M287.748,-67.3811C306.939,-62.1039 327.986,-56.3163 346.167,-51.3168"/>
<polygon fill="midnightblue" stroke="midnightblue" points="347.229,-54.6549 355.943,-48.6287 345.373,-47.9054 347.229,-54.6549"/>
</g>
<!-- Node5 -->
<g id="node5" class="node"><title>Node5</title>
<g id="a_node5"><a xlink:href="classpanda_1_1utils_1_1BranchName.html#a6cc8a6df7c5b12a0221fd49773cca6a7" target="_top" xlink:title="Is the name included and not vetoed? ">
<polygon fill="white" stroke="black" points="494.46,-51.5 494.46,-71.5 638.824,-71.5 638.824,-51.5 494.46,-51.5"/>
<text text-anchor="middle" x="566.642" y="-58.5" font-family="Helvetica,sans-Serif" font-size="10.00">panda::utils::BranchName::in</text>
</a>
</g>
</g>
<!-- Node4&#45;&gt;Node5 -->
<g id="edge4" class="edge"><title>Node4&#45;&gt;Node5</title>
<path fill="none" stroke="midnightblue" d="M441.015,-44.7241C454.345,-46.5185 469.301,-48.5316 484.1,-50.5238"/>
<polygon fill="midnightblue" stroke="midnightblue" points="483.922,-54.0312 494.299,-51.8966 484.855,-47.0938 483.922,-54.0312"/>
</g>
<!-- Node6 -->
<g id="node6" class="node"><title>Node6</title>
<g id="a_node6"><a xlink:href="classpanda_1_1utils_1_1BranchName.html#a13958ff4a9d554d2c057c600b4f70412" target="_top" xlink:title="Prepend the branch name with &lt;objName.&gt;. ">
<polygon fill="white" stroke="black" points="501.128,-0.5 501.128,-32.5 632.156,-32.5 632.156,-0.5 501.128,-0.5"/>
<text text-anchor="start" x="509.128" y="-19.5" font-family="Helvetica,sans-Serif" font-size="10.00">panda::utils::BranchName</text>
<text text-anchor="middle" x="566.642" y="-7.5" font-family="Helvetica,sans-Serif" font-size="10.00">::fullName</text>
</a>
</g>
</g>
<!-- Node4&#45;&gt;Node6 -->
<g id="edge5" class="edge"><title>Node4&#45;&gt;Node6</title>
<path fill="none" stroke="midnightblue" d="M441.015,-32.5465C456.465,-30.5572 474.098,-28.2869 491.141,-26.0925"/>
<polygon fill="midnightblue" stroke="midnightblue" points="491.615,-29.5604 501.086,-24.812 490.721,-22.6178 491.615,-29.5604"/>
</g>
</g>
</svg>
