<?xml version="1.0" encoding="UTF-8" standalone="no"?>
<!DOCTYPE svg PUBLIC "-//W3C//DTD SVG 1.1//EN"
 "http://www.w3.org/Graphics/SVG/1.1/DTD/svg11.dtd">
<!-- Generated by graphviz version 2.38.0 (20140413.2041)
 -->
<!-- Title: panda::Lepton::datastore::resizeVectors_ Pages: 1 -->
<svg width="304pt" height="92pt"
 viewBox="0.00 0.00 304.43 92.00" xmlns="http://www.w3.org/2000/svg" xmlns:xlink="http://www.w3.org/1999/xlink">
<g id="graph0" class="graph" transform="scale(1 1) rotate(0) translate(4 88)">
<title>panda::Lepton::datastore::resizeVectors_</title>
<polygon fill="white" stroke="none" points="-4,4 -4,-88 300.433,-88 300.433,4 -4,4"/>
<!-- Node1 -->
<g id="node1" class="node"><title>Node1</title>
<polygon fill="#bfbfbf" stroke="black" points="-1.42109e-14,-25.5 -1.42109e-14,-57.5 127.167,-57.5 127.167,-25.5 -1.42109e-14,-25.5"/>
<text text-anchor="start" x="8" y="-44.5" font-family="Helvetica,sans-Serif" font-size="10.00">panda::Lepton::datastore</text>
<text text-anchor="middle" x="63.5835" y="-32.5" font-family="Helvetica,sans-Serif" font-size="10.00">::resizeVectors_</text>
</g>
<!-- Node2 -->
<g id="node2" class="node"><title>Node2</title>
<g id="a_node2"><a xlink:href="structpanda_1_1Electron_1_1datastore.html#a8f0e7ee31635f5cf7482c86b732877a2" target="_top" xlink:title="Override when there are vector members. ">
<polygon fill="white" stroke="black" points="163.167,-51.5 163.167,-83.5 296.433,-83.5 296.433,-51.5 163.167,-51.5"/>
<text text-anchor="start" x="171.167" y="-70.5" font-family="Helvetica,sans-Serif" font-size="10.00">panda::Electron::datastore</text>
<text text-anchor="middle" x="229.8" y="-58.5" font-family="Helvetica,sans-Serif" font-size="10.00">::resizeVectors_</text>
</a>
</g>
</g>
<!-- Node1&#45;&gt;Node2 -->
<g id="edge1" class="edge"><title>Node1&#45;&gt;Node2</title>
<path fill="none" stroke="midnightblue" d="M137.754,-53.085C146.147,-54.4137 154.665,-55.7624 162.953,-57.0746"/>
<polygon fill="midnightblue" stroke="midnightblue" points="138.029,-49.5849 127.604,-51.4779 136.934,-56.4987 138.029,-49.5849"/>
</g>
<!-- Node3 -->
<g id="node3" class="node"><title>Node3</title>
<g id="a_node3"><a xlink:href="structpanda_1_1Muon_1_1datastore.html#a77544efc70e6058bc86a09dc6a13f483" target="_top" xlink:title="Override when there are vector members. ">
<polygon fill="white" stroke="black" points="169,-0.5 169,-32.5 290.599,-32.5 290.599,-0.5 169,-0.5"/>
<text text-anchor="start" x="177" y="-19.5" font-family="Helvetica,sans-Serif" font-size="10.00">panda::Muon::datastore</text>
<text text-anchor="middle" x="229.8" y="-7.5" font-family="Helvetica,sans-Serif" font-size="10.00">::resizeVectors_</text>
</a>
</g>
</g>
<!-- Node1&#45;&gt;Node3 -->
<g id="edge2" class="edge"><title>Node1&#45;&gt;Node3</title>
<path fill="none" stroke="midnightblue" d="M137.569,-30.3889C148.049,-28.7933 158.731,-27.1672 168.919,-25.6162"/>
<polygon fill="midnightblue" stroke="midnightblue" points="136.964,-26.9406 127.604,-31.9058 138.017,-33.8609 136.964,-26.9406"/>
</g>
</g>
</svg>
