<?xml version="1.0" encoding="UTF-8" standalone="no"?>
<!DOCTYPE svg PUBLIC "-//W3C//DTD SVG 1.1//EN"
 "http://www.w3.org/Graphics/SVG/1.1/DTD/svg11.dtd">
<!-- Generated by graphviz version 2.38.0 (20140413.2041)
 -->
<!-- Title: panda::ParticleM::datastore::setStatus Pages: 1 -->
<svg width="658pt" height="170pt"
 viewBox="0.00 0.00 657.91 170.00" xmlns="http://www.w3.org/2000/svg" xmlns:xlink="http://www.w3.org/1999/xlink">
<g id="graph0" class="graph" transform="scale(1 1) rotate(0) translate(4 166)">
<title>panda::ParticleM::datastore::setStatus</title>
<polygon fill="white" stroke="none" points="-4,4 -4,-166 653.912,-166 653.912,4 -4,4"/>
<!-- Node1 -->
<g id="node1" class="node"><title>Node1</title>
<polygon fill="#bfbfbf" stroke="black" points="5.68434e-14,-86.5 5.68434e-14,-118.5 138.255,-118.5 138.255,-86.5 5.68434e-14,-86.5"/>
<text text-anchor="start" x="8" y="-105.5" font-family="Helvetica,sans-Serif" font-size="10.00">panda::ParticleM::datastore</text>
<text text-anchor="middle" x="69.1275" y="-93.5" font-family="Helvetica,sans-Serif" font-size="10.00">::setStatus</text>
</g>
<!-- Node2 -->
<g id="node2" class="node"><title>Node2</title>
<g id="a_node2"><a xlink:href="structpanda_1_1Particle_1_1datastore.html#afa508d25966c3e2044e67e4b50f1679e" target="_top" xlink:title="panda::Particle::datastore\l::setStatus">
<polygon fill="white" stroke="black" points="174.255,-109.5 174.255,-141.5 304.181,-141.5 304.181,-109.5 174.255,-109.5"/>
<text text-anchor="start" x="182.255" y="-128.5" font-family="Helvetica,sans-Serif" font-size="10.00">panda::Particle::datastore</text>
<text text-anchor="middle" x="239.218" y="-116.5" font-family="Helvetica,sans-Serif" font-size="10.00">::setStatus</text>
</a>
</g>
</g>
<!-- Node1&#45;&gt;Node2 -->
<g id="edge1" class="edge"><title>Node1&#45;&gt;Node2</title>
<path fill="none" stroke="midnightblue" d="M138.496,-111.855C146.989,-113.017 155.703,-114.209 164.275,-115.382"/>
<polygon fill="midnightblue" stroke="midnightblue" points="163.868,-118.859 174.251,-116.747 164.817,-111.924 163.868,-118.859"/>
</g>
<!-- Node4 -->
<g id="node4" class="node"><title>Node4</title>
<g id="a_node4"><a xlink:href="namespacepanda_1_1utils.html#a01665f786d6a2acedb8f008f3fc9fc84" target="_top" xlink:title="Set status of a branch. ">
<polygon fill="white" stroke="black" points="347.68,-70.5 347.68,-90.5 462.05,-90.5 462.05,-70.5 347.68,-70.5"/>
<text text-anchor="middle" x="404.865" y="-77.5" font-family="Helvetica,sans-Serif" font-size="10.00">panda::utils::setStatus</text>
</a>
</g>
</g>
<!-- Node1&#45;&gt;Node4 -->
<g id="edge8" class="edge"><title>Node1&#45;&gt;Node4</title>
<path fill="none" stroke="midnightblue" d="M138.469,-97.9949C196.667,-94.1585 279.775,-88.68 337.422,-84.8799"/>
<polygon fill="midnightblue" stroke="midnightblue" points="337.772,-88.3645 347.52,-84.2143 337.311,-81.3797 337.772,-88.3645"/>
</g>
<!-- Node3 -->
<g id="node3" class="node"><title>Node3</title>
<g id="a_node3"><a xlink:href="structpanda_1_1ContainerElement_1_1datastore.html#aad03a4d0428dfa3b6ae9ccfb04d49cd8" target="_top" xlink:title="panda::ContainerElement\l::datastore::setStatus">
<polygon fill="white" stroke="black" points="340.181,-109.5 340.181,-141.5 469.548,-141.5 469.548,-109.5 340.181,-109.5"/>
<text text-anchor="start" x="348.181" y="-128.5" font-family="Helvetica,sans-Serif" font-size="10.00">panda::ContainerElement</text>
<text text-anchor="middle" x="404.865" y="-116.5" font-family="Helvetica,sans-Serif" font-size="10.00">::datastore::setStatus</text>
</a>
</g>
</g>
<!-- Node2&#45;&gt;Node3 -->
<g id="edge2" class="edge"><title>Node2&#45;&gt;Node3</title>
<path fill="none" stroke="midnightblue" d="M304.426,-125.5C312.765,-125.5 321.361,-125.5 329.844,-125.5"/>
<polygon fill="midnightblue" stroke="midnightblue" points="330.11,-129 340.11,-125.5 330.11,-122 330.11,-129"/>
</g>
<!-- Node2&#45;&gt;Node4 -->
<g id="edge3" class="edge"><title>Node2&#45;&gt;Node4</title>
<path fill="none" stroke="midnightblue" d="M298.836,-109.381C318.027,-104.104 339.074,-98.3163 357.255,-93.3168"/>
<polygon fill="midnightblue" stroke="midnightblue" points="358.317,-96.6549 367.031,-90.6287 356.461,-89.9054 358.317,-96.6549"/>
</g>
<!-- Node5 -->
<g id="node5" class="node"><title>Node5</title>
<g id="a_node5"><a xlink:href="classpanda_1_1utils_1_1BranchName.html#a6cc8a6df7c5b12a0221fd49773cca6a7" target="_top" xlink:title="Is the name included and not vetoed? ">
<polygon fill="white" stroke="black" points="505.548,-141.5 505.548,-161.5 649.912,-161.5 649.912,-141.5 505.548,-141.5"/>
<text text-anchor="middle" x="577.73" y="-148.5" font-family="Helvetica,sans-Serif" font-size="10.00">panda::utils::BranchName::in</text>
</a>
</g>
</g>
<!-- Node4&#45;&gt;Node5 -->
<g id="edge4" class="edge"><title>Node4&#45;&gt;Node5</title>
<path fill="none" stroke="midnightblue" d="M449.431,-90.6163C456.382,-93.0366 463.326,-95.9708 469.548,-99.5 488.428,-110.208 486.515,-122.067 505.548,-132.5 509.207,-134.506 513.09,-136.309 517.08,-137.928"/>
<polygon fill="midnightblue" stroke="midnightblue" points="515.935,-141.236 526.529,-141.383 518.339,-134.662 515.935,-141.236"/>
</g>
<!-- Node6 -->
<g id="node6" class="node"><title>Node6</title>
<g id="a_node6"><a xlink:href="classpanda_1_1utils_1_1BranchName.html#ae3332329bf2afae5ed8e7c35e5d77ffa" target="_top" xlink:title="Is the name included and vetoed? ">
<polygon fill="white" stroke="black" points="512.216,-90.5 512.216,-122.5 643.244,-122.5 643.244,-90.5 512.216,-90.5"/>
<text text-anchor="start" x="520.216" y="-109.5" font-family="Helvetica,sans-Serif" font-size="10.00">panda::utils::BranchName</text>
<text text-anchor="middle" x="577.73" y="-97.5" font-family="Helvetica,sans-Serif" font-size="10.00">::vetoed</text>
</a>
</g>
</g>
<!-- Node4&#45;&gt;Node6 -->
<g id="edge5" class="edge"><title>Node4&#45;&gt;Node6</title>
<path fill="none" stroke="midnightblue" d="M462.286,-89.0854C474.989,-91.0185 488.664,-93.0993 501.986,-95.1265"/>
<polygon fill="midnightblue" stroke="midnightblue" points="501.671,-98.6187 512.084,-96.663 502.724,-91.6984 501.671,-98.6187"/>
</g>
<!-- Node7 -->
<g id="node7" class="node"><title>Node7</title>
<g id="a_node7"><a xlink:href="classpanda_1_1utils_1_1BranchName.html#a13958ff4a9d554d2c057c600b4f70412" target="_top" xlink:title="Prepend the branch name with &lt;objName.&gt;. ">
<polygon fill="white" stroke="black" points="512.216,-39.5 512.216,-71.5 643.244,-71.5 643.244,-39.5 512.216,-39.5"/>
<text text-anchor="start" x="520.216" y="-58.5" font-family="Helvetica,sans-Serif" font-size="10.00">panda::utils::BranchName</text>
<text text-anchor="middle" x="577.73" y="-46.5" font-family="Helvetica,sans-Serif" font-size="10.00">::fullName</text>
</a>
</g>
</g>
<!-- Node4&#45;&gt;Node7 -->
<g id="edge6" class="edge"><title>Node4&#45;&gt;Node7</title>
<path fill="none" stroke="midnightblue" d="M462.286,-72.2448C474.989,-70.3861 488.664,-68.3853 501.986,-66.436"/>
<polygon fill="midnightblue" stroke="midnightblue" points="502.696,-69.8696 512.084,-64.9587 501.682,-62.9433 502.696,-69.8696"/>
</g>
<!-- Node8 -->
<g id="node8" class="node"><title>Node8</title>
<g id="a_node8"><a xlink:href="namespacepanda_1_1utils.html#aafa411773a4b0ee829d99e6e5a0abdcd" target="_top" xlink:title="Check status of a branch. ">
<polygon fill="white" stroke="black" points="514.155,-0.5 514.155,-20.5 641.305,-20.5 641.305,-0.5 514.155,-0.5"/>
<text text-anchor="middle" x="577.73" y="-7.5" font-family="Helvetica,sans-Serif" font-size="10.00">panda::utils::checkStatus</text>
</a>
</g>
</g>
<!-- Node4&#45;&gt;Node8 -->
<g id="edge7" class="edge"><title>Node4&#45;&gt;Node8</title>
<path fill="none" stroke="midnightblue" d="M422.994,-70.3138C442.454,-59.0827 475.426,-41.075 505.548,-29.5 511.346,-27.272 517.506,-25.2055 523.682,-23.3196"/>
<polygon fill="midnightblue" stroke="midnightblue" points="524.725,-26.6611 533.35,-20.5071 522.77,-19.9397 524.725,-26.6611"/>
</g>
</g>
</svg>
