<?xml version="1.0" encoding="UTF-8" standalone="no"?>
<!DOCTYPE svg PUBLIC "-//W3C//DTD SVG 1.1//EN"
 "http://www.w3.org/Graphics/SVG/1.1/DTD/svg11.dtd">
<!-- Generated by graphviz version 2.38.0 (20140413.2041)
 -->
<!-- Title: panda::Electron::datastore::resetAddress Pages: 1 -->
<!--zoomable 102 -->
<svg id="main" version="1.1" xmlns="http://www.w3.org/2000/svg" xmlns:xlink="http://www.w3.org/1999/xlink" xml:space="preserve" onload="init(evt)">
<style type="text/css"><![CDATA[
.edge:hover path { stroke: red; }
.edge:hover polygon { stroke: red; fill: red; }
]]></style>
<script type="text/javascript"><![CDATA[
var edges = document.getElementsByTagName('g');
if (edges && edges.length) {
  for (var i=0;i<edges.length;i++) {
    if (edges[i].id.substr(0,4)=='edge') {
      edges[i].setAttribute('class','edge');
    }
  }
}
]]></script>
        <defs>
                <circle id="rim" cx="0" cy="0" r="7"/>
                <circle id="rim2" cx="0" cy="0" r="3.5"/>
                <g id="zoomPlus">
                        <use xlink:href="#rim" fill="#404040">
                                <set attributeName="fill" to="#808080" begin="zoomplus.mouseover" end="zoomplus.mouseout"/>
                        </use>
                        <path d="M-4,0h8M0,-4v8" fill="none" stroke="white" stroke-width="1.5" pointer-events="none"/>
                </g>
                <g id="zoomMin">
                        <use xlink:href="#rim" fill="#404040">
                                <set attributeName="fill" to="#808080" begin="zoomminus.mouseover" end="zoomminus.mouseout"/>
                        </use>
                        <path d="M-4,0h8" fill="none" stroke="white" stroke-width="1.5" pointer-events="none"/>
                </g>
                <g id="dirArrow">
                        <path fill="none" stroke="white" stroke-width="1.5" d="M0,-3.0v7 M-2.5,-0.5L0,-3.0L2.5,-0.5"/>
                </g>
               <g id="resetDef">
                       <use xlink:href="#rim2" fill="#404040">
                               <set attributeName="fill" to="#808080" begin="reset.mouseover" end="reset.mouseout"/>
                       </use>
               </g>
        </defs>

<script type="text/javascript">
var viewWidth = 805;
var viewHeight = 102;
var sectionId = 'dynsection-7';
</script>
<script xlink:href="svgpan.js"/>
<svg id="graph" class="graph">
<g id="viewport">
<title>panda::Electron::datastore::resetAddress</title>
<polygon fill="white" stroke="none" points="-4,4 -4,-98 800.975,-98 800.975,4 -4,4"/>
<!-- Node1 -->
<g id="node1" class="node"><title>Node1</title>
<polygon fill="#bfbfbf" stroke="black" points="5.68434e-14,-0.5 5.68434e-14,-32.5 133.266,-32.5 133.266,-0.5 5.68434e-14,-0.5"/>
<text text-anchor="start" x="8" y="-19.5" font-family="Helvetica,sans-Serif" font-size="10.00">panda::Electron::datastore</text>
<text text-anchor="middle" x="66.633" y="-7.5" font-family="Helvetica,sans-Serif" font-size="10.00">::resetAddress</text>
</g>
<!-- Node2 -->
<g id="node2" class="node"><title>Node2</title>
<g id="a_node2"><a xlink:href="structpanda_1_1Lepton_1_1datastore.html#a4bc229bdab2664abe73d5197f16dfb70" target="_top" xlink:title="panda::Lepton::datastore\l::resetAddress">
<polygon fill="white" stroke="black" points="169.266,-23.5 169.266,-55.5 296.433,-55.5 296.433,-23.5 169.266,-23.5"/>
<text text-anchor="start" x="177.266" y="-42.5" font-family="Helvetica,sans-Serif" font-size="10.00">panda::Lepton::datastore</text>
<text text-anchor="middle" x="232.85" y="-30.5" font-family="Helvetica,sans-Serif" font-size="10.00">::resetAddress</text>
</a>
</g>
</g>
<!-- Node1&#45;&gt;Node2 -->
<g id="edge1" class="edge"><title>Node1&#45;&gt;Node2</title>
<path fill="none" stroke="midnightblue" d="M133.48,-25.7225C141.946,-26.9082 150.652,-28.1275 159.218,-29.3274"/>
<polygon fill="midnightblue" stroke="midnightblue" points="158.799,-32.8027 169.188,-30.7237 159.77,-25.8704 158.799,-32.8027"/>
</g>
<!-- Node5 -->
<g id="node5" class="node"><title>Node5</title>
<g id="a_node5"><a xlink:href="namespacepanda_1_1utils.html#a82a8530e64fbdf917cf9b8659065f98b" target="_top" xlink:title="panda::utils::resetAddress">
<polygon fill="white" stroke="black" points="498.359,-22.5 498.359,-42.5 629.947,-42.5 629.947,-22.5 498.359,-22.5"/>
<text text-anchor="middle" x="564.153" y="-29.5" font-family="Helvetica,sans-Serif" font-size="10.00">panda::utils::resetAddress</text>
</a>
</g>
</g>
<!-- Node1&#45;&gt;Node5 -->
<g id="edge7" class="edge"><title>Node1&#45;&gt;Node5</title>
<path fill="none" stroke="midnightblue" d="M133.505,-14.2721C145.407,-13.9503 157.705,-13.6706 169.266,-13.5 225.779,-12.6661 239.95,-11.4907 296.433,-13.5 361.265,-15.8063 434.794,-21.2562 488.206,-25.7306"/>
<polygon fill="midnightblue" stroke="midnightblue" points="488.015,-29.2269 498.274,-26.5824 488.605,-22.2518 488.015,-29.2269"/>
</g>
<!-- Node3 -->
<g id="node3" class="node"><title>Node3</title>
<g id="a_node3"><a xlink:href="structpanda_1_1Particle_1_1datastore.html#a4a04e4dd473787da09b945659e07f0ec" target="_top" xlink:title="panda::Particle::datastore\l::resetAddress">
<polygon fill="white" stroke="black" points="332.433,-61.5 332.433,-93.5 462.359,-93.5 462.359,-61.5 332.433,-61.5"/>
<text text-anchor="start" x="340.433" y="-80.5" font-family="Helvetica,sans-Serif" font-size="10.00">panda::Particle::datastore</text>
<text text-anchor="middle" x="397.396" y="-68.5" font-family="Helvetica,sans-Serif" font-size="10.00">::resetAddress</text>
</a>
</g>
</g>
<!-- Node2&#45;&gt;Node3 -->
<g id="edge2" class="edge"><title>Node2&#45;&gt;Node3</title>
<path fill="none" stroke="midnightblue" d="M296.694,-54.1918C305.106,-56.1583 313.796,-58.1897 322.376,-60.1958"/>
<polygon fill="midnightblue" stroke="midnightblue" points="321.842,-63.6652 332.377,-62.5336 323.436,-56.849 321.842,-63.6652"/>
</g>
<!-- Node2&#45;&gt;Node5 -->
<g id="edge6" class="edge"><title>Node2&#45;&gt;Node5</title>
<path fill="none" stroke="midnightblue" d="M296.564,-38.1669C351.049,-37.0087 430.085,-35.3286 487.954,-34.0985"/>
<polygon fill="midnightblue" stroke="midnightblue" points="488.215,-37.5938 498.139,-33.882 488.066,-30.5954 488.215,-37.5938"/>
</g>
<!-- Node4 -->
<g id="node4" class="node"><title>Node4</title>
<g id="a_node4"><a xlink:href="structpanda_1_1ContainerElement_1_1datastore.html#a1f296453b1f2e440d9b4be3388069d43" target="_top" xlink:title="panda::ContainerElement\l::datastore::resetAddress">
<polygon fill="white" stroke="black" points="499.47,-61.5 499.47,-93.5 628.837,-93.5 628.837,-61.5 499.47,-61.5"/>
<text text-anchor="start" x="507.47" y="-80.5" font-family="Helvetica,sans-Serif" font-size="10.00">panda::ContainerElement</text>
<text text-anchor="middle" x="564.153" y="-68.5" font-family="Helvetica,sans-Serif" font-size="10.00">::datastore::resetAddress</text>
</a>
</g>
</g>
<!-- Node3&#45;&gt;Node4 -->
<g id="edge3" class="edge"><title>Node3&#45;&gt;Node4</title>
<path fill="none" stroke="midnightblue" d="M462.567,-77.5C471.364,-77.5 480.452,-77.5 489.403,-77.5"/>
<polygon fill="midnightblue" stroke="midnightblue" points="489.428,-81.0001 499.428,-77.5 489.428,-74.0001 489.428,-81.0001"/>
</g>
<!-- Node3&#45;&gt;Node5 -->
<g id="edge4" class="edge"><title>Node3&#45;&gt;Node5</title>
<path fill="none" stroke="midnightblue" d="M457.412,-61.3811C476.733,-56.1039 497.923,-50.3163 516.227,-45.3168"/>
<polygon fill="midnightblue" stroke="midnightblue" points="517.345,-48.6399 526.069,-42.6287 515.5,-41.8872 517.345,-48.6399"/>
</g>
<!-- Node6 -->
<g id="node6" class="node"><title>Node6</title>
<g id="a_node6"><a xlink:href="classpanda_1_1utils_1_1BranchName.html#a13958ff4a9d554d2c057c600b4f70412" target="_top" xlink:title="Prepend the branch name with &lt;objName.&gt;. ">
<polygon fill="white" stroke="black" points="665.947,-16.5 665.947,-48.5 796.975,-48.5 796.975,-16.5 665.947,-16.5"/>
<text text-anchor="start" x="673.947" y="-35.5" font-family="Helvetica,sans-Serif" font-size="10.00">panda::utils::BranchName</text>
<text text-anchor="middle" x="731.461" y="-23.5" font-family="Helvetica,sans-Serif" font-size="10.00">::fullName</text>
</a>
</g>
</g>
<!-- Node5&#45;&gt;Node6 -->
<g id="edge5" class="edge"><title>Node5&#45;&gt;Node6</title>
<path fill="none" stroke="midnightblue" d="M630.013,-32.5C638.464,-32.5 647.177,-32.5 655.773,-32.5"/>
<polygon fill="midnightblue" stroke="midnightblue" points="655.788,-36.0001 665.788,-32.5 655.788,-29.0001 655.788,-36.0001"/>
</g>
</g>
</svg>
        <g id="navigator" transform="translate(0 0)" fill="#404254">
                <rect fill="#f2f5e9" fill-opacity="0.5" stroke="#606060" stroke-width=".5" x="0" y="0" width="60" height="60"/>
                <use id="zoomplus" xlink:href="#zoomPlus" x="17" y="9" onmousedown="handleZoom(evt,'in')"/>
                <use id="zoomminus" xlink:href="#zoomMin" x="42" y="9" onmousedown="handleZoom(evt,'out')"/>
                <use id="reset" xlink:href="#resetDef" x="30" y="36" onmousedown="handleReset()"/>
                <g id="arrowUp" xlink:href="#dirArrow" transform="translate(30 24)" onmousedown="handlePan(0,-1)">
                  <use xlink:href="#rim" fill="#404040">
                        <set attributeName="fill" to="#808080" begin="arrowUp.mouseover" end="arrowUp.mouseout"/>
                  </use>
                  <path fill="none" stroke="white" stroke-width="1.5" d="M0,-3.0v7 M-2.5,-0.5L0,-3.0L2.5,-0.5"/>
                </g>
                <g id="arrowRight" xlink:href="#dirArrow" transform="rotate(90) translate(36 -43)" onmousedown="handlePan(1,0)">
                  <use xlink:href="#rim" fill="#404040">
                        <set attributeName="fill" to="#808080" begin="arrowRight.mouseover" end="arrowRight.mouseout"/>
                  </use>
                  <path fill="none" stroke="white" stroke-width="1.5" d="M0,-3.0v7 M-2.5,-0.5L0,-3.0L2.5,-0.5"/>
                </g>
                <g id="arrowDown" xlink:href="#dirArrow" transform="rotate(180) translate(-30 -48)" onmousedown="handlePan(0,1)">
                  <use xlink:href="#rim" fill="#404040">
                        <set attributeName="fill" to="#808080" begin="arrowDown.mouseover" end="arrowDown.mouseout"/>
                  </use>
                  <path fill="none" stroke="white" stroke-width="1.5" d="M0,-3.0v7 M-2.5,-0.5L0,-3.0L2.5,-0.5"/>
                </g>
                <g id="arrowLeft" xlink:href="#dirArrow" transform="rotate(270) translate(-36 17)" onmousedown="handlePan(-1,0)">
                  <use xlink:href="#rim" fill="#404040">
                        <set attributeName="fill" to="#808080" begin="arrowLeft.mouseover" end="arrowLeft.mouseout"/>
                  </use>
                  <path fill="none" stroke="white" stroke-width="1.5" d="M0,-3.0v7 M-2.5,-0.5L0,-3.0L2.5,-0.5"/>
                </g>
        </g>
        <svg viewBox="0 0 15 15" width="100%" height="30px" preserveAspectRatio="xMaxYMin meet">
         <g id="arrow_out" transform="scale(0.3 0.3)">
          <a xlink:href="structpanda_1_1Electron_1_1datastore_a33b0789682d32cdfdd059cc398d294a4_cgraph_org.svg" target="_base">
           <rect id="button" ry="5" rx="5" y="6" x="6" height="38" width="38"
                fill="#f2f5e9" fill-opacity="0.5" stroke="#606060" stroke-width="1.0"/>
           <path id="arrow"
             d="M 11.500037,31.436501 C 11.940474,20.09759 22.043105,11.32322 32.158766,21.979434 L 37.068811,17.246167 C 37.068811,17.246167 37.088388,32 37.088388,32 L 22.160133,31.978069 C 22.160133,31.978069 26.997745,27.140456 26.997745,27.140456 C 18.528582,18.264221 13.291696,25.230495 11.500037,31.436501 z"
             style="fill:#404040;"/>
          </a>
         </g>
        </svg>
</svg>
