<?xml version="1.0" encoding="UTF-8" standalone="no"?>
<!DOCTYPE svg PUBLIC "-//W3C//DTD SVG 1.1//EN"
 "http://www.w3.org/Graphics/SVG/1.1/DTD/svg11.dtd">
<!-- Generated by graphviz version 2.38.0 (20140413.2041)
 -->
<!-- Title: panda::Particle::datastore Pages: 1 -->
<svg width="954pt" height="314pt"
 viewBox="0.00 0.00 954.22 314.00" xmlns="http://www.w3.org/2000/svg" xmlns:xlink="http://www.w3.org/1999/xlink">
<g id="graph0" class="graph" transform="scale(1 1) rotate(0) translate(4 310)">
<title>panda::Particle::datastore</title>
<polygon fill="white" stroke="none" points="-4,4 -4,-310 950.224,-310 950.224,4 -4,4"/>
<!-- Node1 -->
<g id="node1" class="node"><title>Node1</title>
<polygon fill="#bfbfbf" stroke="black" points="165.367,-117.5 165.367,-137.5 295.293,-137.5 295.293,-117.5 165.367,-117.5"/>
<text text-anchor="middle" x="230.33" y="-124.5" font-family="Helvetica,sans-Serif" font-size="10.00">panda::Particle::datastore</text>
</g>
<!-- Node3 -->
<g id="node3" class="node"><title>Node3</title>
<g id="a_node3"><a xlink:href="structpanda_1_1Lepton_1_1datastore.html" target="_top" xlink:title="panda::Lepton::datastore">
<polygon fill="white" stroke="black" points="336.837,-246.5 336.837,-266.5 464.004,-266.5 464.004,-246.5 336.837,-246.5"/>
<text text-anchor="middle" x="400.421" y="-253.5" font-family="Helvetica,sans-Serif" font-size="10.00">panda::Lepton::datastore</text>
</a>
</g>
</g>
<!-- Node1&#45;&gt;Node3 -->
<g id="edge2" class="edge"><title>Node1&#45;&gt;Node3</title>
<path fill="none" stroke="midnightblue" d="M252.71,-143.908C287.993,-170.986 357.382,-224.238 386.292,-246.425"/>
<polygon fill="midnightblue" stroke="midnightblue" points="254.584,-140.934 244.52,-137.622 250.322,-146.487 254.584,-140.934"/>
</g>
<!-- Node6 -->
<g id="node6" class="node"><title>Node6</title>
<g id="a_node6"><a xlink:href="structpanda_1_1ParticleM_1_1datastore.html" target="_top" xlink:title="panda::ParticleM::datastore">
<polygon fill="white" stroke="black" points="331.293,-117.5 331.293,-137.5 469.548,-137.5 469.548,-117.5 331.293,-117.5"/>
<text text-anchor="middle" x="400.421" y="-124.5" font-family="Helvetica,sans-Serif" font-size="10.00">panda::ParticleM::datastore</text>
</a>
</g>
</g>
<!-- Node1&#45;&gt;Node6 -->
<g id="edge5" class="edge"><title>Node1&#45;&gt;Node6</title>
<path fill="none" stroke="midnightblue" d="M305.609,-127.5C314.087,-127.5 322.7,-127.5 331.095,-127.5"/>
<polygon fill="midnightblue" stroke="midnightblue" points="305.357,-124 295.357,-127.5 305.357,-131 305.357,-124"/>
</g>
<!-- Node15 -->
<g id="node15" class="node"><title>Node15</title>
<g id="a_node15"><a xlink:href="structpanda_1_1Photon_1_1datastore.html" target="_top" xlink:title="panda::Photon::datastore">
<polygon fill="white" stroke="black" points="336.282,-78.5 336.282,-98.5 464.559,-98.5 464.559,-78.5 336.282,-78.5"/>
<text text-anchor="middle" x="400.421" y="-85.5" font-family="Helvetica,sans-Serif" font-size="10.00">panda::Photon::datastore</text>
</a>
</g>
</g>
<!-- Node1&#45;&gt;Node15 -->
<g id="edge14" class="edge"><title>Node1&#45;&gt;Node15</title>
<path fill="none" stroke="midnightblue" d="M284.614,-115.137C307.727,-109.775 334.44,-103.577 356.28,-98.5094"/>
<polygon fill="midnightblue" stroke="midnightblue" points="283.568,-111.787 274.617,-117.457 285.15,-118.606 283.568,-111.787"/>
</g>
<!-- Node2 -->
<g id="node2" class="node"><title>Node2</title>
<g id="a_node2"><a xlink:href="structpanda_1_1ContainerElement_1_1datastore.html" target="_top" xlink:title="panda::ContainerElement\l::datastore">
<polygon fill="white" stroke="black" points="-1.42109e-14,-111.5 -1.42109e-14,-143.5 129.367,-143.5 129.367,-111.5 -1.42109e-14,-111.5"/>
<text text-anchor="start" x="8" y="-130.5" font-family="Helvetica,sans-Serif" font-size="10.00">panda::ContainerElement</text>
<text text-anchor="middle" x="64.6835" y="-118.5" font-family="Helvetica,sans-Serif" font-size="10.00">::datastore</text>
</a>
</g>
</g>
<!-- Node2&#45;&gt;Node1 -->
<g id="edge1" class="edge"><title>Node2&#45;&gt;Node1</title>
<path fill="none" stroke="midnightblue" d="M139.443,-127.5C148.046,-127.5 156.769,-127.5 165.227,-127.5"/>
<polygon fill="midnightblue" stroke="midnightblue" points="139.422,-124 129.422,-127.5 139.422,-131 139.422,-124"/>
</g>
<!-- Node4 -->
<g id="node4" class="node"><title>Node4</title>
<g id="a_node4"><a xlink:href="structpanda_1_1Electron_1_1datastore.html" target="_top" xlink:title="panda::Electron::datastore">
<polygon fill="white" stroke="black" points="506.099,-285.5 506.099,-305.5 639.365,-305.5 639.365,-285.5 506.099,-285.5"/>
<text text-anchor="middle" x="572.732" y="-292.5" font-family="Helvetica,sans-Serif" font-size="10.00">panda::Electron::datastore</text>
</a>
</g>
</g>
<!-- Node3&#45;&gt;Node4 -->
<g id="edge3" class="edge"><title>Node3&#45;&gt;Node4</title>
<path fill="none" stroke="midnightblue" d="M455.094,-268.791C478.584,-274.17 505.793,-280.401 528.021,-285.491"/>
<polygon fill="midnightblue" stroke="midnightblue" points="455.809,-265.364 445.28,-266.543 454.246,-272.187 455.809,-265.364"/>
</g>
<!-- Node5 -->
<g id="node5" class="node"><title>Node5</title>
<g id="a_node5"><a xlink:href="structpanda_1_1Muon_1_1datastore.html" target="_top" xlink:title="panda::Muon::datastore">
<polygon fill="white" stroke="black" points="511.932,-246.5 511.932,-266.5 633.531,-266.5 633.531,-246.5 511.932,-246.5"/>
<text text-anchor="middle" x="572.732" y="-253.5" font-family="Helvetica,sans-Serif" font-size="10.00">panda::Muon::datastore</text>
</a>
</g>
</g>
<!-- Node3&#45;&gt;Node5 -->
<g id="edge4" class="edge"><title>Node3&#45;&gt;Node5</title>
<path fill="none" stroke="midnightblue" d="M474.681,-256.5C487.099,-256.5 499.862,-256.5 511.885,-256.5"/>
<polygon fill="midnightblue" stroke="midnightblue" points="474.354,-253 464.354,-256.5 474.354,-260 474.354,-253"/>
</g>
<!-- Node7 -->
<g id="node7" class="node"><title>Node7</title>
<g id="a_node7"><a xlink:href="structpanda_1_1GenJet_1_1datastore.html" target="_top" xlink:title="panda::GenJet::datastore">
<polygon fill="white" stroke="black" points="508.318,-207.5 508.318,-227.5 637.146,-227.5 637.146,-207.5 508.318,-207.5"/>
<text text-anchor="middle" x="572.732" y="-214.5" font-family="Helvetica,sans-Serif" font-size="10.00">panda::GenJet::datastore</text>
</a>
</g>
</g>
<!-- Node6&#45;&gt;Node7 -->
<g id="edge6" class="edge"><title>Node6&#45;&gt;Node7</title>
<path fill="none" stroke="midnightblue" d="M421.699,-143.828C441.919,-159.438 474.375,-182.723 505.548,-197.5 513.683,-201.356 522.732,-204.67 531.461,-207.427"/>
<polygon fill="midnightblue" stroke="midnightblue" points="423.852,-141.069 413.822,-137.655 419.534,-146.578 423.852,-141.069"/>
</g>
<!-- Node8 -->
<g id="node8" class="node"><title>Node8</title>
<g id="a_node8"><a xlink:href="structpanda_1_1GenParticle_1_1datastore.html" target="_top" xlink:title="panda::GenParticle\l::datastore">
<polygon fill="white" stroke="black" points="521.94,-156.5 521.94,-188.5 623.523,-188.5 623.523,-156.5 521.94,-156.5"/>
<text text-anchor="start" x="529.94" y="-175.5" font-family="Helvetica,sans-Serif" font-size="10.00">panda::GenParticle</text>
<text text-anchor="middle" x="572.732" y="-163.5" font-family="Helvetica,sans-Serif" font-size="10.00">::datastore</text>
</a>
</g>
</g>
<!-- Node6&#45;&gt;Node8 -->
<g id="edge7" class="edge"><title>Node6&#45;&gt;Node8</title>
<path fill="none" stroke="midnightblue" d="M449.35,-140.164C471.921,-146.128 498.838,-153.24 521.673,-159.273"/>
<polygon fill="midnightblue" stroke="midnightblue" points="450.204,-136.77 439.642,-137.599 448.416,-143.537 450.204,-136.77"/>
</g>
<!-- Node9 -->
<g id="node9" class="node"><title>Node9</title>
<g id="a_node9"><a xlink:href="structpanda_1_1MicroJet_1_1datastore.html" target="_top" xlink:title="panda::MicroJet::datastore">
<polygon fill="white" stroke="black" points="505.548,-117.5 505.548,-137.5 639.915,-137.5 639.915,-117.5 505.548,-117.5"/>
<text text-anchor="middle" x="572.732" y="-124.5" font-family="Helvetica,sans-Serif" font-size="10.00">panda::MicroJet::datastore</text>
</a>
</g>
</g>
<!-- Node6&#45;&gt;Node9 -->
<g id="edge8" class="edge"><title>Node6&#45;&gt;Node9</title>
<path fill="none" stroke="midnightblue" d="M479.713,-127.5C488.287,-127.5 496.954,-127.5 505.365,-127.5"/>
<polygon fill="midnightblue" stroke="midnightblue" points="479.711,-124 469.711,-127.5 479.711,-131 479.711,-124"/>
</g>
<!-- Node12 -->
<g id="node12" class="node"><title>Node12</title>
<g id="a_node12"><a xlink:href="structpanda_1_1Parton_1_1datastore.html" target="_top" xlink:title="panda::Parton::datastore">
<polygon fill="white" stroke="black" points="509.708,-78.5 509.708,-98.5 635.755,-98.5 635.755,-78.5 509.708,-78.5"/>
<text text-anchor="middle" x="572.732" y="-85.5" font-family="Helvetica,sans-Serif" font-size="10.00">panda::Parton::datastore</text>
</a>
</g>
</g>
<!-- Node6&#45;&gt;Node12 -->
<g id="edge11" class="edge"><title>Node6&#45;&gt;Node12</title>
<path fill="none" stroke="midnightblue" d="M455.094,-115.209C478.584,-109.83 505.793,-103.599 528.021,-98.5094"/>
<polygon fill="midnightblue" stroke="midnightblue" points="454.246,-111.813 445.28,-117.457 455.809,-118.636 454.246,-111.813"/>
</g>
<!-- Node13 -->
<g id="node13" class="node"><title>Node13</title>
<g id="a_node13"><a xlink:href="structpanda_1_1PFCand_1_1datastore.html" target="_top" xlink:title="panda::PFCand::datastore">
<polygon fill="white" stroke="black" points="506.098,-39.5 506.098,-59.5 639.365,-59.5 639.365,-39.5 506.098,-39.5"/>
<text text-anchor="middle" x="572.732" y="-46.5" font-family="Helvetica,sans-Serif" font-size="10.00">panda::PFCand::datastore</text>
</a>
</g>
</g>
<!-- Node6&#45;&gt;Node13 -->
<g id="edge12" class="edge"><title>Node6&#45;&gt;Node13</title>
<path fill="none" stroke="midnightblue" d="M457.924,-113.587C461.974,-111.788 465.895,-109.767 469.548,-107.5 489.591,-95.0607 485.468,-80.8793 505.548,-68.5 511.348,-64.9241 517.847,-61.9987 524.445,-59.6113"/>
<polygon fill="midnightblue" stroke="midnightblue" points="456.317,-110.458 448.308,-117.395 458.894,-116.967 456.317,-110.458"/>
</g>
<!-- Node14 -->
<g id="node14" class="node"><title>Node14</title>
<g id="a_node14"><a xlink:href="structpanda_1_1Tau_1_1datastore.html" target="_top" xlink:title="panda::Tau::datastore">
<polygon fill="white" stroke="black" points="515.822,-0.5 515.822,-20.5 629.642,-20.5 629.642,-0.5 515.822,-0.5"/>
<text text-anchor="middle" x="572.732" y="-7.5" font-family="Helvetica,sans-Serif" font-size="10.00">panda::Tau::datastore</text>
</a>
</g>
</g>
<!-- Node6&#45;&gt;Node14 -->
<g id="edge13" class="edge"><title>Node6&#45;&gt;Node14</title>
<path fill="none" stroke="midnightblue" d="M462.375,-112.738C464.909,-111.165 467.317,-109.425 469.548,-107.5 498.454,-82.5555 476.568,-54.3579 505.548,-29.5 509.722,-25.9199 514.533,-23.0129 519.617,-20.6527"/>
<polygon fill="midnightblue" stroke="midnightblue" points="460.589,-109.723 453.358,-117.466 463.839,-115.922 460.589,-109.723"/>
</g>
<!-- Node10 -->
<g id="node10" class="node"><title>Node10</title>
<g id="a_node10"><a xlink:href="structpanda_1_1Jet_1_1datastore.html" target="_top" xlink:title="panda::Jet::datastore">
<polygon fill="white" stroke="black" points="675.915,-117.5 675.915,-137.5 785.846,-137.5 785.846,-117.5 675.915,-117.5"/>
<text text-anchor="middle" x="730.881" y="-124.5" font-family="Helvetica,sans-Serif" font-size="10.00">panda::Jet::datastore</text>
</a>
</g>
</g>
<!-- Node9&#45;&gt;Node10 -->
<g id="edge9" class="edge"><title>Node9&#45;&gt;Node10</title>
<path fill="none" stroke="midnightblue" d="M650.117,-127.5C658.807,-127.5 667.526,-127.5 675.842,-127.5"/>
<polygon fill="midnightblue" stroke="midnightblue" points="649.953,-124 639.953,-127.5 649.953,-131 649.953,-124"/>
</g>
<!-- Node11 -->
<g id="node11" class="node"><title>Node11</title>
<g id="a_node11"><a xlink:href="structpanda_1_1FatJet_1_1datastore.html" target="_top" xlink:title="panda::FatJet::datastore">
<polygon fill="white" stroke="black" points="821.846,-117.5 821.846,-137.5 946.224,-137.5 946.224,-117.5 821.846,-117.5"/>
<text text-anchor="middle" x="884.035" y="-124.5" font-family="Helvetica,sans-Serif" font-size="10.00">panda::FatJet::datastore</text>
</a>
</g>
</g>
<!-- Node10&#45;&gt;Node11 -->
<g id="edge10" class="edge"><title>Node10&#45;&gt;Node11</title>
<path fill="none" stroke="midnightblue" d="M796.243,-127.5C804.723,-127.5 813.396,-127.5 821.821,-127.5"/>
<polygon fill="midnightblue" stroke="midnightblue" points="796.024,-124 786.024,-127.5 796.024,-131 796.024,-124"/>
</g>
</g>
</svg>
