<?xml version="1.0" encoding="UTF-8" standalone="no"?>
<!DOCTYPE svg PUBLIC "-//W3C//DTD SVG 1.1//EN"
 "http://www.w3.org/Graphics/SVG/1.1/DTD/svg11.dtd">
<!-- Generated by graphviz version 2.38.0 (20140413.2041)
 -->
<!-- Title: panda::GenParticle::datastore::book Pages: 1 -->
<svg width="795pt" height="108pt"
 viewBox="0.00 0.00 795.50 108.00" xmlns="http://www.w3.org/2000/svg" xmlns:xlink="http://www.w3.org/1999/xlink">
<g id="graph0" class="graph" transform="scale(1 1) rotate(0) translate(4 104)">
<title>panda::GenParticle::datastore::book</title>
<polygon fill="white" stroke="none" points="-4,4 -4,-104 791.495,-104 791.495,4 -4,4"/>
<!-- Node1 -->
<g id="node1" class="node"><title>Node1</title>
<polygon fill="#bfbfbf" stroke="black" points="4.26326e-14,-6.5 4.26326e-14,-38.5 101.583,-38.5 101.583,-6.5 4.26326e-14,-6.5"/>
<text text-anchor="start" x="8" y="-25.5" font-family="Helvetica,sans-Serif" font-size="10.00">panda::GenParticle</text>
<text text-anchor="middle" x="50.7915" y="-13.5" font-family="Helvetica,sans-Serif" font-size="10.00">::datastore::book</text>
</g>
<!-- Node2 -->
<g id="node2" class="node"><title>Node2</title>
<g id="a_node2"><a xlink:href="structpanda_1_1ParticleM_1_1datastore.html#ae2eb76ca042d8b3e899c027ee07b5860" target="_top" xlink:title="panda::ParticleM::datastore\l::book">
<polygon fill="white" stroke="black" points="137.583,-29.5 137.583,-61.5 275.838,-61.5 275.838,-29.5 137.583,-29.5"/>
<text text-anchor="start" x="145.583" y="-48.5" font-family="Helvetica,sans-Serif" font-size="10.00">panda::ParticleM::datastore</text>
<text text-anchor="middle" x="206.711" y="-36.5" font-family="Helvetica,sans-Serif" font-size="10.00">::book</text>
</a>
</g>
</g>
<!-- Node1&#45;&gt;Node2 -->
<g id="edge1" class="edge"><title>Node1&#45;&gt;Node2</title>
<path fill="none" stroke="midnightblue" d="M101.765,-29.9674C110.056,-31.2064 118.825,-32.5168 127.615,-33.8302"/>
<polygon fill="midnightblue" stroke="midnightblue" points="127.114,-37.2942 137.522,-35.3106 128.149,-30.3711 127.114,-37.2942"/>
</g>
<!-- Node5 -->
<g id="node5" class="node"><title>Node5</title>
<g id="a_node5"><a xlink:href="namespacepanda_1_1utils.html#aaa6c7cd5892388e6ffdf713b11abf793" target="_top" xlink:title="Book the branch. ">
<polygon fill="white" stroke="black" points="495.265,-28.5 495.265,-48.5 589.63,-48.5 589.63,-28.5 495.265,-28.5"/>
<text text-anchor="middle" x="542.447" y="-35.5" font-family="Helvetica,sans-Serif" font-size="10.00">panda::utils::book</text>
</a>
</g>
</g>
<!-- Node1&#45;&gt;Node5 -->
<g id="edge8" class="edge"><title>Node1&#45;&gt;Node5</title>
<path fill="none" stroke="midnightblue" d="M101.685,-20.4605C113.455,-20.061 125.96,-19.7032 137.583,-19.5 199.02,-18.4261 214.43,-17.3065 275.838,-19.5 348.105,-22.0815 431.222,-28.6017 484.949,-33.2837"/>
<polygon fill="midnightblue" stroke="midnightblue" points="484.692,-36.7745 494.96,-34.1645 485.306,-29.8014 484.692,-36.7745"/>
</g>
<!-- Node3 -->
<g id="node3" class="node"><title>Node3</title>
<g id="a_node3"><a xlink:href="structpanda_1_1Particle_1_1datastore.html#af75a5d8b8a18ee09ce98ab37888b4404" target="_top" xlink:title="panda::Particle::datastore\l::book">
<polygon fill="white" stroke="black" points="311.838,-67.5 311.838,-99.5 441.764,-99.5 441.764,-67.5 311.838,-67.5"/>
<text text-anchor="start" x="319.838" y="-86.5" font-family="Helvetica,sans-Serif" font-size="10.00">panda::Particle::datastore</text>
<text text-anchor="middle" x="376.801" y="-74.5" font-family="Helvetica,sans-Serif" font-size="10.00">::book</text>
</a>
</g>
</g>
<!-- Node2&#45;&gt;Node3 -->
<g id="edge2" class="edge"><title>Node2&#45;&gt;Node3</title>
<path fill="none" stroke="midnightblue" d="M276.079,-60.9561C284.572,-62.876 293.286,-64.846 301.858,-66.7838"/>
<polygon fill="midnightblue" stroke="midnightblue" points="301.308,-70.2477 311.834,-69.039 302.852,-63.42 301.308,-70.2477"/>
</g>
<!-- Node2&#45;&gt;Node5 -->
<g id="edge7" class="edge"><title>Node2&#45;&gt;Node5</title>
<path fill="none" stroke="midnightblue" d="M276.052,-44.0666C337.758,-42.7723 427.468,-40.8907 485.141,-39.681"/>
<polygon fill="midnightblue" stroke="midnightblue" points="485.246,-43.1797 495.17,-39.4706 485.099,-36.1812 485.246,-43.1797"/>
</g>
<!-- Node4 -->
<g id="node4" class="node"><title>Node4</title>
<g id="a_node4"><a xlink:href="structpanda_1_1ContainerElement_1_1datastore.html#a3a4062043d9a913acd4056ab1cf5a93f" target="_top" xlink:title="panda::ContainerElement\l::datastore::book">
<polygon fill="white" stroke="black" points="477.764,-67.5 477.764,-99.5 607.131,-99.5 607.131,-67.5 477.764,-67.5"/>
<text text-anchor="start" x="485.764" y="-86.5" font-family="Helvetica,sans-Serif" font-size="10.00">panda::ContainerElement</text>
<text text-anchor="middle" x="542.447" y="-74.5" font-family="Helvetica,sans-Serif" font-size="10.00">::datastore::book</text>
</a>
</g>
</g>
<!-- Node3&#45;&gt;Node4 -->
<g id="edge3" class="edge"><title>Node3&#45;&gt;Node4</title>
<path fill="none" stroke="midnightblue" d="M442.009,-83.5C450.348,-83.5 458.944,-83.5 467.427,-83.5"/>
<polygon fill="midnightblue" stroke="midnightblue" points="467.693,-87.0001 477.693,-83.5 467.693,-80.0001 467.693,-87.0001"/>
</g>
<!-- Node3&#45;&gt;Node5 -->
<g id="edge4" class="edge"><title>Node3&#45;&gt;Node5</title>
<path fill="none" stroke="midnightblue" d="M436.419,-67.3811C455.61,-62.1039 476.657,-56.3163 494.838,-51.3168"/>
<polygon fill="midnightblue" stroke="midnightblue" points="495.9,-54.6549 504.614,-48.6287 494.044,-47.9054 495.9,-54.6549"/>
</g>
<!-- Node6 -->
<g id="node6" class="node"><title>Node6</title>
<g id="a_node6"><a xlink:href="classpanda_1_1utils_1_1BranchName.html#a6cc8a6df7c5b12a0221fd49773cca6a7" target="_top" xlink:title="Is the name included and not vetoed? ">
<polygon fill="white" stroke="black" points="643.131,-51.5 643.131,-71.5 787.495,-71.5 787.495,-51.5 643.131,-51.5"/>
<text text-anchor="middle" x="715.313" y="-58.5" font-family="Helvetica,sans-Serif" font-size="10.00">panda::utils::BranchName::in</text>
</a>
</g>
</g>
<!-- Node5&#45;&gt;Node6 -->
<g id="edge5" class="edge"><title>Node5&#45;&gt;Node6</title>
<path fill="none" stroke="midnightblue" d="M589.686,-44.7241C603.016,-46.5185 617.972,-48.5316 632.771,-50.5238"/>
<polygon fill="midnightblue" stroke="midnightblue" points="632.593,-54.0312 642.97,-51.8966 633.526,-47.0938 632.593,-54.0312"/>
</g>
<!-- Node7 -->
<g id="node7" class="node"><title>Node7</title>
<g id="a_node7"><a xlink:href="classpanda_1_1utils_1_1BranchName.html#a13958ff4a9d554d2c057c600b4f70412" target="_top" xlink:title="Prepend the branch name with &lt;objName.&gt;. ">
<polygon fill="white" stroke="black" points="649.799,-0.5 649.799,-32.5 780.827,-32.5 780.827,-0.5 649.799,-0.5"/>
<text text-anchor="start" x="657.799" y="-19.5" font-family="Helvetica,sans-Serif" font-size="10.00">panda::utils::BranchName</text>
<text text-anchor="middle" x="715.313" y="-7.5" font-family="Helvetica,sans-Serif" font-size="10.00">::fullName</text>
</a>
</g>
</g>
<!-- Node5&#45;&gt;Node7 -->
<g id="edge6" class="edge"><title>Node5&#45;&gt;Node7</title>
<path fill="none" stroke="midnightblue" d="M589.686,-32.5465C605.136,-30.5572 622.769,-28.2869 639.812,-26.0925"/>
<polygon fill="midnightblue" stroke="midnightblue" points="640.286,-29.5604 649.757,-24.812 639.392,-22.6178 640.286,-29.5604"/>
</g>
</g>
</svg>
