<?xml version="1.0" encoding="UTF-8" standalone="no"?>
<!DOCTYPE svg PUBLIC "-//W3C//DTD SVG 1.1//EN"
 "http://www.w3.org/Graphics/SVG/1.1/DTD/svg11.dtd">
<!-- Generated by graphviz version 2.38.0 (20140413.2041)
 -->
<!-- Title: panda::ContainerElement::datastore::~datastore Pages: 1 -->
<svg width="303pt" height="41pt"
 viewBox="0.00 0.00 302.73 41.00" xmlns="http://www.w3.org/2000/svg" xmlns:xlink="http://www.w3.org/1999/xlink">
<g id="graph0" class="graph" transform="scale(1 1) rotate(0) translate(4 37)">
<title>panda::ContainerElement::datastore::~datastore</title>
<polygon fill="white" stroke="none" points="-4,4 -4,-37 298.734,-37 298.734,4 -4,4"/>
<!-- Node1 -->
<g id="node1" class="node"><title>Node1</title>
<polygon fill="#bfbfbf" stroke="black" points="-1.42109e-14,-0.5 -1.42109e-14,-32.5 129.367,-32.5 129.367,-0.5 -1.42109e-14,-0.5"/>
<text text-anchor="start" x="8" y="-19.5" font-family="Helvetica,sans-Serif" font-size="10.00">panda::ContainerElement</text>
<text text-anchor="middle" x="64.6835" y="-7.5" font-family="Helvetica,sans-Serif" font-size="10.00">::datastore::~datastore</text>
</g>
<!-- Node2 -->
<g id="node2" class="node"><title>Node2</title>
<g id="a_node2"><a xlink:href="structpanda_1_1ContainerElement_1_1datastore.html#a8827cbb1304b781fcba764a6bf4cbcc1" target="_top" xlink:title="panda::ContainerElement\l::datastore::deallocate">
<polygon fill="white" stroke="black" points="165.367,-0.5 165.367,-32.5 294.734,-32.5 294.734,-0.5 165.367,-0.5"/>
<text text-anchor="start" x="173.367" y="-19.5" font-family="Helvetica,sans-Serif" font-size="10.00">panda::ContainerElement</text>
<text text-anchor="middle" x="230.05" y="-7.5" font-family="Helvetica,sans-Serif" font-size="10.00">::datastore::deallocate</text>
</a>
</g>
</g>
<!-- Node1&#45;&gt;Node2 -->
<g id="edge1" class="edge"><title>Node1&#45;&gt;Node2</title>
<path fill="none" stroke="midnightblue" d="M129.782,-16.5C138.043,-16.5 146.557,-16.5 154.962,-16.5"/>
<polygon fill="midnightblue" stroke="midnightblue" points="155.137,-20.0001 165.137,-16.5 155.137,-13.0001 155.137,-20.0001"/>
</g>
</g>
</svg>
