<?xml version="1.0" encoding="UTF-8" standalone="no"?>
<!DOCTYPE svg PUBLIC "-//W3C//DTD SVG 1.1//EN"
 "http://www.w3.org/Graphics/SVG/1.1/DTD/svg11.dtd">
<!-- Generated by graphviz version 2.38.0 (20140413.2041)
 -->
<!-- Title: panda::Photon::datastore Pages: 1 -->
<svg width="138pt" height="155pt"
 viewBox="0.00 0.00 137.93 155.00" xmlns="http://www.w3.org/2000/svg" xmlns:xlink="http://www.w3.org/1999/xlink">
<g id="graph0" class="graph" transform="scale(1 1) rotate(0) translate(4 151)">
<title>panda::Photon::datastore</title>
<polygon fill="white" stroke="none" points="-4,4 -4,-151 133.926,-151 133.926,4 -4,4"/>
<!-- Node1 -->
<g id="node1" class="node"><title>Node1</title>
<polygon fill="#bfbfbf" stroke="black" points="0.8245,-0.5 0.8245,-20.5 129.101,-20.5 129.101,-0.5 0.8245,-0.5"/>
<text text-anchor="middle" x="64.963" y="-7.5" font-family="Helvetica,sans-Serif" font-size="10.00">panda::Photon::datastore</text>
</g>
<!-- Node2 -->
<g id="node2" class="node"><title>Node2</title>
<g id="a_node2"><a xlink:href="structpanda_1_1Particle_1_1datastore.html" target="_top" xlink:title="panda::Particle::datastore">
<polygon fill="white" stroke="black" points="0,-57.5 0,-77.5 129.926,-77.5 129.926,-57.5 0,-57.5"/>
<text text-anchor="middle" x="64.963" y="-64.5" font-family="Helvetica,sans-Serif" font-size="10.00">panda::Particle::datastore</text>
</a>
</g>
</g>
<!-- Node2&#45;&gt;Node1 -->
<g id="edge1" class="edge"><title>Node2&#45;&gt;Node1</title>
<path fill="none" stroke="midnightblue" d="M64.963,-47.383C64.963,-38.3738 64.963,-28.0373 64.963,-20.7795"/>
<polygon fill="midnightblue" stroke="midnightblue" points="61.4631,-47.4178 64.963,-57.4179 68.4631,-47.4179 61.4631,-47.4178"/>
</g>
<!-- Node3 -->
<g id="node3" class="node"><title>Node3</title>
<g id="a_node3"><a xlink:href="structpanda_1_1ContainerElement_1_1datastore.html" target="_top" xlink:title="panda::ContainerElement\l::datastore">
<polygon fill="white" stroke="black" points="0.2795,-114.5 0.2795,-146.5 129.647,-146.5 129.647,-114.5 0.2795,-114.5"/>
<text text-anchor="start" x="8.2795" y="-133.5" font-family="Helvetica,sans-Serif" font-size="10.00">panda::ContainerElement</text>
<text text-anchor="middle" x="64.963" y="-121.5" font-family="Helvetica,sans-Serif" font-size="10.00">::datastore</text>
</a>
</g>
</g>
<!-- Node3&#45;&gt;Node2 -->
<g id="edge2" class="edge"><title>Node3&#45;&gt;Node2</title>
<path fill="none" stroke="midnightblue" d="M64.963,-104.229C64.963,-94.7622 64.963,-84.6021 64.963,-77.5459"/>
<polygon fill="midnightblue" stroke="midnightblue" points="61.4631,-104.421 64.963,-114.421 68.4631,-104.421 61.4631,-104.421"/>
</g>
</g>
</svg>
