<?xml version="1.0" encoding="UTF-8" standalone="no"?>
<!DOCTYPE svg PUBLIC "-//W3C//DTD SVG 1.1//EN"
 "http://www.w3.org/Graphics/SVG/1.1/DTD/svg11.dtd">
<!-- Generated by graphviz version 2.38.0 (20140413.2041)
 -->
<!-- Title: panda::SuperCluster::datastore::setStatus Pages: 1 -->
<svg width="464pt" height="170pt"
 viewBox="0.00 0.00 464.21 170.00" xmlns="http://www.w3.org/2000/svg" xmlns:xlink="http://www.w3.org/1999/xlink">
<g id="graph0" class="graph" transform="scale(1 1) rotate(0) translate(4 166)">
<title>panda::SuperCluster::datastore::setStatus</title>
<polygon fill="white" stroke="none" points="-4,4 -4,-166 460.212,-166 460.212,4 -4,4"/>
<!-- Node1 -->
<g id="node1" class="node"><title>Node1</title>
<polygon fill="#bfbfbf" stroke="black" points="7.10543e-15,-86.5 7.10543e-15,-118.5 110.481,-118.5 110.481,-86.5 7.10543e-15,-86.5"/>
<text text-anchor="start" x="8" y="-105.5" font-family="Helvetica,sans-Serif" font-size="10.00">panda::SuperCluster</text>
<text text-anchor="middle" x="55.2405" y="-93.5" font-family="Helvetica,sans-Serif" font-size="10.00">::datastore::setStatus</text>
</g>
<!-- Node2 -->
<g id="node2" class="node"><title>Node2</title>
<g id="a_node2"><a xlink:href="structpanda_1_1ContainerElement_1_1datastore.html#aad03a4d0428dfa3b6ae9ccfb04d49cd8" target="_top" xlink:title="panda::ContainerElement\l::datastore::setStatus">
<polygon fill="white" stroke="black" points="146.481,-109.5 146.481,-141.5 275.848,-141.5 275.848,-109.5 146.481,-109.5"/>
<text text-anchor="start" x="154.481" y="-128.5" font-family="Helvetica,sans-Serif" font-size="10.00">panda::ContainerElement</text>
<text text-anchor="middle" x="211.164" y="-116.5" font-family="Helvetica,sans-Serif" font-size="10.00">::datastore::setStatus</text>
</a>
</g>
</g>
<!-- Node1&#45;&gt;Node2 -->
<g id="edge1" class="edge"><title>Node1&#45;&gt;Node2</title>
<path fill="none" stroke="midnightblue" d="M110.508,-110.609C118.845,-111.855 127.571,-113.159 136.246,-114.455"/>
<polygon fill="midnightblue" stroke="midnightblue" points="135.971,-117.953 146.379,-115.969 137.006,-111.029 135.971,-117.953"/>
</g>
<!-- Node3 -->
<g id="node3" class="node"><title>Node3</title>
<g id="a_node3"><a xlink:href="namespacepanda_1_1utils.html#a01665f786d6a2acedb8f008f3fc9fc84" target="_top" xlink:title="Set status of a branch. ">
<polygon fill="white" stroke="black" points="153.979,-70.5 153.979,-90.5 268.349,-90.5 268.349,-70.5 153.979,-70.5"/>
<text text-anchor="middle" x="211.164" y="-77.5" font-family="Helvetica,sans-Serif" font-size="10.00">panda::utils::setStatus</text>
</a>
</g>
</g>
<!-- Node1&#45;&gt;Node3 -->
<g id="edge2" class="edge"><title>Node1&#45;&gt;Node3</title>
<path fill="none" stroke="midnightblue" d="M110.508,-94.7436C121.244,-93.2092 132.626,-91.5824 143.712,-89.9979"/>
<polygon fill="midnightblue" stroke="midnightblue" points="144.378,-93.4383 153.783,-88.5585 143.388,-86.5087 144.378,-93.4383"/>
</g>
<!-- Node4 -->
<g id="node4" class="node"><title>Node4</title>
<g id="a_node4"><a xlink:href="classpanda_1_1utils_1_1BranchName.html#a6cc8a6df7c5b12a0221fd49773cca6a7" target="_top" xlink:title="Is the name included and not vetoed? ">
<polygon fill="white" stroke="black" points="311.848,-141.5 311.848,-161.5 456.212,-161.5 456.212,-141.5 311.848,-141.5"/>
<text text-anchor="middle" x="384.03" y="-148.5" font-family="Helvetica,sans-Serif" font-size="10.00">panda::utils::BranchName::in</text>
</a>
</g>
</g>
<!-- Node3&#45;&gt;Node4 -->
<g id="edge3" class="edge"><title>Node3&#45;&gt;Node4</title>
<path fill="none" stroke="midnightblue" d="M253.326,-90.6148C261.058,-93.2886 268.891,-96.5584 275.848,-100.5 294.474,-111.053 292.997,-122.355 311.848,-132.5 315.586,-134.512 319.551,-136.321 323.621,-137.947"/>
<polygon fill="midnightblue" stroke="midnightblue" points="322.659,-141.32 333.253,-141.416 325.031,-134.735 322.659,-141.32"/>
</g>
<!-- Node5 -->
<g id="node5" class="node"><title>Node5</title>
<g id="a_node5"><a xlink:href="classpanda_1_1utils_1_1BranchName.html#ae3332329bf2afae5ed8e7c35e5d77ffa" target="_top" xlink:title="Is the name included and vetoed? ">
<polygon fill="white" stroke="black" points="318.516,-90.5 318.516,-122.5 449.544,-122.5 449.544,-90.5 318.516,-90.5"/>
<text text-anchor="start" x="326.516" y="-109.5" font-family="Helvetica,sans-Serif" font-size="10.00">panda::utils::BranchName</text>
<text text-anchor="middle" x="384.03" y="-97.5" font-family="Helvetica,sans-Serif" font-size="10.00">::vetoed</text>
</a>
</g>
</g>
<!-- Node3&#45;&gt;Node5 -->
<g id="edge4" class="edge"><title>Node3&#45;&gt;Node5</title>
<path fill="none" stroke="midnightblue" d="M268.586,-89.0854C281.289,-91.0185 294.964,-93.0993 308.286,-95.1265"/>
<polygon fill="midnightblue" stroke="midnightblue" points="307.971,-98.6187 318.384,-96.663 309.024,-91.6984 307.971,-98.6187"/>
</g>
<!-- Node6 -->
<g id="node6" class="node"><title>Node6</title>
<g id="a_node6"><a xlink:href="classpanda_1_1utils_1_1BranchName.html#a13958ff4a9d554d2c057c600b4f70412" target="_top" xlink:title="Prepend the branch name with &lt;objName.&gt;. ">
<polygon fill="white" stroke="black" points="318.516,-39.5 318.516,-71.5 449.544,-71.5 449.544,-39.5 318.516,-39.5"/>
<text text-anchor="start" x="326.516" y="-58.5" font-family="Helvetica,sans-Serif" font-size="10.00">panda::utils::BranchName</text>
<text text-anchor="middle" x="384.03" y="-46.5" font-family="Helvetica,sans-Serif" font-size="10.00">::fullName</text>
</a>
</g>
</g>
<!-- Node3&#45;&gt;Node6 -->
<g id="edge5" class="edge"><title>Node3&#45;&gt;Node6</title>
<path fill="none" stroke="midnightblue" d="M268.586,-72.2448C281.289,-70.3861 294.964,-68.3853 308.286,-66.436"/>
<polygon fill="midnightblue" stroke="midnightblue" points="308.996,-69.8696 318.384,-64.9587 307.982,-62.9433 308.996,-69.8696"/>
</g>
<!-- Node7 -->
<g id="node7" class="node"><title>Node7</title>
<g id="a_node7"><a xlink:href="namespacepanda_1_1utils.html#aafa411773a4b0ee829d99e6e5a0abdcd" target="_top" xlink:title="Check status of a branch. ">
<polygon fill="white" stroke="black" points="320.455,-0.5 320.455,-20.5 447.605,-20.5 447.605,-0.5 320.455,-0.5"/>
<text text-anchor="middle" x="384.03" y="-7.5" font-family="Helvetica,sans-Serif" font-size="10.00">panda::utils::checkStatus</text>
</a>
</g>
</g>
<!-- Node3&#45;&gt;Node7 -->
<g id="edge6" class="edge"><title>Node3&#45;&gt;Node7</title>
<path fill="none" stroke="midnightblue" d="M229.704,-70.4104C249.258,-59.4714 282.057,-42.0346 311.848,-30.5 318.282,-28.0088 325.152,-25.682 331.992,-23.5604"/>
<polygon fill="midnightblue" stroke="midnightblue" points="333.349,-26.8085 341.937,-20.6037 331.354,-20.0988 333.349,-26.8085"/>
</g>
</g>
</svg>
