<?xml version="1.0" encoding="UTF-8" standalone="no"?>
<!DOCTYPE svg PUBLIC "-//W3C//DTD SVG 1.1//EN"
 "http://www.w3.org/Graphics/SVG/1.1/DTD/svg11.dtd">
<!-- Generated by graphviz version 2.38.0 (20140413.2041)
 -->
<!-- Title: panda::Tau::datastore::resetAddress Pages: 1 -->
<svg width="797pt" height="102pt"
 viewBox="0.00 0.00 796.62 102.00" xmlns="http://www.w3.org/2000/svg" xmlns:xlink="http://www.w3.org/1999/xlink">
<g id="graph0" class="graph" transform="scale(1 1) rotate(0) translate(4 98)">
<title>panda::Tau::datastore::resetAddress</title>
<polygon fill="white" stroke="none" points="-4,4 -4,-98 792.617,-98 792.617,4 -4,4"/>
<!-- Node1 -->
<g id="node1" class="node"><title>Node1</title>
<polygon fill="#bfbfbf" stroke="black" points="-2.84217e-14,-0.5 -2.84217e-14,-32.5 113.82,-32.5 113.82,-0.5 -2.84217e-14,-0.5"/>
<text text-anchor="start" x="8" y="-19.5" font-family="Helvetica,sans-Serif" font-size="10.00">panda::Tau::datastore</text>
<text text-anchor="middle" x="56.91" y="-7.5" font-family="Helvetica,sans-Serif" font-size="10.00">::resetAddress</text>
</g>
<!-- Node2 -->
<g id="node2" class="node"><title>Node2</title>
<g id="a_node2"><a xlink:href="structpanda_1_1ParticleM_1_1datastore.html#a6ba00e058ede77709ec931108ccf9bb8" target="_top" xlink:title="panda::ParticleM::datastore\l::resetAddress">
<polygon fill="white" stroke="black" points="149.82,-23.5 149.82,-55.5 288.075,-55.5 288.075,-23.5 149.82,-23.5"/>
<text text-anchor="start" x="157.82" y="-42.5" font-family="Helvetica,sans-Serif" font-size="10.00">panda::ParticleM::datastore</text>
<text text-anchor="middle" x="218.947" y="-30.5" font-family="Helvetica,sans-Serif" font-size="10.00">::resetAddress</text>
</a>
</g>
</g>
<!-- Node1&#45;&gt;Node2 -->
<g id="edge1" class="edge"><title>Node1&#45;&gt;Node2</title>
<path fill="none" stroke="midnightblue" d="M113.883,-24.5443C122.176,-25.7361 130.848,-26.9824 139.496,-28.2253"/>
<polygon fill="midnightblue" stroke="midnightblue" points="139.217,-31.721 149.613,-29.6792 140.213,-24.7922 139.217,-31.721"/>
</g>
<!-- Node5 -->
<g id="node5" class="node"><title>Node5</title>
<g id="a_node5"><a xlink:href="namespacepanda_1_1utils.html#a82a8530e64fbdf917cf9b8659065f98b" target="_top" xlink:title="panda::utils::resetAddress">
<polygon fill="white" stroke="black" points="490.001,-22.5 490.001,-42.5 621.589,-42.5 621.589,-22.5 490.001,-22.5"/>
<text text-anchor="middle" x="555.795" y="-29.5" font-family="Helvetica,sans-Serif" font-size="10.00">panda::utils::resetAddress</text>
</a>
</g>
</g>
<!-- Node1&#45;&gt;Node5 -->
<g id="edge7" class="edge"><title>Node1&#45;&gt;Node5</title>
<path fill="none" stroke="midnightblue" d="M114.286,-14.3691C126.028,-14.0069 138.327,-13.6875 149.82,-13.5 211.258,-12.4976 226.667,-11.3156 288.075,-13.5 352.907,-15.8063 426.436,-21.2562 479.848,-25.7306"/>
<polygon fill="midnightblue" stroke="midnightblue" points="479.657,-29.2269 489.916,-26.5824 480.247,-22.2518 479.657,-29.2269"/>
</g>
<!-- Node3 -->
<g id="node3" class="node"><title>Node3</title>
<g id="a_node3"><a xlink:href="structpanda_1_1Particle_1_1datastore.html#a4a04e4dd473787da09b945659e07f0ec" target="_top" xlink:title="panda::Particle::datastore\l::resetAddress">
<polygon fill="white" stroke="black" points="324.075,-61.5 324.075,-93.5 454.001,-93.5 454.001,-61.5 324.075,-61.5"/>
<text text-anchor="start" x="332.075" y="-80.5" font-family="Helvetica,sans-Serif" font-size="10.00">panda::Particle::datastore</text>
<text text-anchor="middle" x="389.038" y="-68.5" font-family="Helvetica,sans-Serif" font-size="10.00">::resetAddress</text>
</a>
</g>
</g>
<!-- Node2&#45;&gt;Node3 -->
<g id="edge2" class="edge"><title>Node2&#45;&gt;Node3</title>
<path fill="none" stroke="midnightblue" d="M288.316,-54.9561C296.809,-56.876 305.523,-58.846 314.095,-60.7838"/>
<polygon fill="midnightblue" stroke="midnightblue" points="313.545,-64.2477 324.071,-63.039 315.089,-57.42 313.545,-64.2477"/>
</g>
<!-- Node2&#45;&gt;Node5 -->
<g id="edge6" class="edge"><title>Node2&#45;&gt;Node5</title>
<path fill="none" stroke="midnightblue" d="M288.112,-38.075C343.762,-36.9116 422.311,-35.2696 479.747,-34.0689"/>
<polygon fill="midnightblue" stroke="midnightblue" points="479.93,-37.5659 489.854,-33.8576 479.783,-30.5675 479.93,-37.5659"/>
</g>
<!-- Node4 -->
<g id="node4" class="node"><title>Node4</title>
<g id="a_node4"><a xlink:href="structpanda_1_1ContainerElement_1_1datastore.html#a1f296453b1f2e440d9b4be3388069d43" target="_top" xlink:title="panda::ContainerElement\l::datastore::resetAddress">
<polygon fill="white" stroke="black" points="491.112,-61.5 491.112,-93.5 620.479,-93.5 620.479,-61.5 491.112,-61.5"/>
<text text-anchor="start" x="499.112" y="-80.5" font-family="Helvetica,sans-Serif" font-size="10.00">panda::ContainerElement</text>
<text text-anchor="middle" x="555.795" y="-68.5" font-family="Helvetica,sans-Serif" font-size="10.00">::datastore::resetAddress</text>
</a>
</g>
</g>
<!-- Node3&#45;&gt;Node4 -->
<g id="edge3" class="edge"><title>Node3&#45;&gt;Node4</title>
<path fill="none" stroke="midnightblue" d="M454.209,-77.5C463.006,-77.5 472.094,-77.5 481.045,-77.5"/>
<polygon fill="midnightblue" stroke="midnightblue" points="481.07,-81.0001 491.07,-77.5 481.07,-74.0001 481.07,-81.0001"/>
</g>
<!-- Node3&#45;&gt;Node5 -->
<g id="edge4" class="edge"><title>Node3&#45;&gt;Node5</title>
<path fill="none" stroke="midnightblue" d="M449.054,-61.3811C468.375,-56.1039 489.565,-50.3163 507.869,-45.3168"/>
<polygon fill="midnightblue" stroke="midnightblue" points="508.987,-48.6399 517.711,-42.6287 507.142,-41.8872 508.987,-48.6399"/>
</g>
<!-- Node6 -->
<g id="node6" class="node"><title>Node6</title>
<g id="a_node6"><a xlink:href="classpanda_1_1utils_1_1BranchName.html#a13958ff4a9d554d2c057c600b4f70412" target="_top" xlink:title="Prepend the branch name with &lt;objName.&gt;. ">
<polygon fill="white" stroke="black" points="657.589,-16.5 657.589,-48.5 788.617,-48.5 788.617,-16.5 657.589,-16.5"/>
<text text-anchor="start" x="665.589" y="-35.5" font-family="Helvetica,sans-Serif" font-size="10.00">panda::utils::BranchName</text>
<text text-anchor="middle" x="723.103" y="-23.5" font-family="Helvetica,sans-Serif" font-size="10.00">::fullName</text>
</a>
</g>
</g>
<!-- Node5&#45;&gt;Node6 -->
<g id="edge5" class="edge"><title>Node5&#45;&gt;Node6</title>
<path fill="none" stroke="midnightblue" d="M621.655,-32.5C630.106,-32.5 638.819,-32.5 647.415,-32.5"/>
<polygon fill="midnightblue" stroke="midnightblue" points="647.43,-36.0001 657.43,-32.5 647.43,-29.0001 647.43,-36.0001"/>
</g>
</g>
</svg>
