<?xml version="1.0" encoding="UTF-8" standalone="no"?>
<!DOCTYPE svg PUBLIC "-//W3C//DTD SVG 1.1//EN"
 "http://www.w3.org/Graphics/SVG/1.1/DTD/svg11.dtd">
<!-- Generated by graphviz version 2.38.0 (20140413.2041)
 -->
<!-- Title: panda::GenParticle::datastore::setAddress Pages: 1 -->
<!--zoomable 170 -->
<svg id="main" version="1.1" xmlns="http://www.w3.org/2000/svg" xmlns:xlink="http://www.w3.org/1999/xlink" xml:space="preserve" onload="init(evt)">
<style type="text/css"><![CDATA[
.edge:hover path { stroke: red; }
.edge:hover polygon { stroke: red; fill: red; }
]]></style>
<script type="text/javascript"><![CDATA[
var edges = document.getElementsByTagName('g');
if (edges && edges.length) {
  for (var i=0;i<edges.length;i++) {
    if (edges[i].id.substr(0,4)=='edge') {
      edges[i].setAttribute('class','edge');
    }
  }
}
]]></script>
        <defs>
                <circle id="rim" cx="0" cy="0" r="7"/>
                <circle id="rim2" cx="0" cy="0" r="3.5"/>
                <g id="zoomPlus">
                        <use xlink:href="#rim" fill="#404040">
                                <set attributeName="fill" to="#808080" begin="zoomplus.mouseover" end="zoomplus.mouseout"/>
                        </use>
                        <path d="M-4,0h8M0,-4v8" fill="none" stroke="white" stroke-width="1.5" pointer-events="none"/>
                </g>
                <g id="zoomMin">
                        <use xlink:href="#rim" fill="#404040">
                                <set attributeName="fill" to="#808080" begin="zoomminus.mouseover" end="zoomminus.mouseout"/>
                        </use>
                        <path d="M-4,0h8" fill="none" stroke="white" stroke-width="1.5" pointer-events="none"/>
                </g>
                <g id="dirArrow">
                        <path fill="none" stroke="white" stroke-width="1.5" d="M0,-3.0v7 M-2.5,-0.5L0,-3.0L2.5,-0.5"/>
                </g>
               <g id="resetDef">
                       <use xlink:href="#rim2" fill="#404040">
                               <set attributeName="fill" to="#808080" begin="reset.mouseover" end="reset.mouseout"/>
                       </use>
               </g>
        </defs>

<script type="text/javascript">
var viewWidth = 963;
var viewHeight = 170;
var sectionId = 'dynsection-9';
</script>
<script xlink:href="svgpan.js"/>
<svg id="graph" class="graph">
<g id="viewport">
<title>panda::GenParticle::datastore::setAddress</title>
<polygon fill="white" stroke="none" points="-4,4 -4,-166 959.093,-166 959.093,4 -4,4"/>
<!-- Node1 -->
<g id="node1" class="node"><title>Node1</title>
<polygon fill="#bfbfbf" stroke="black" points="-2.84217e-14,-48.5 -2.84217e-14,-80.5 118.811,-80.5 118.811,-48.5 -2.84217e-14,-48.5"/>
<text text-anchor="start" x="8" y="-67.5" font-family="Helvetica,sans-Serif" font-size="10.00">panda::GenParticle</text>
<text text-anchor="middle" x="59.4055" y="-55.5" font-family="Helvetica,sans-Serif" font-size="10.00">::datastore::setAddress</text>
</g>
<!-- Node2 -->
<g id="node2" class="node"><title>Node2</title>
<g id="a_node2"><a xlink:href="structpanda_1_1ParticleM_1_1datastore.html#ab9f9e7afb145c12941baa10892ed1811" target="_top" xlink:title="panda::ParticleM::datastore\l::setAddress">
<polygon fill="white" stroke="black" points="154.811,-71.5 154.811,-103.5 293.066,-103.5 293.066,-71.5 154.811,-71.5"/>
<text text-anchor="start" x="162.811" y="-90.5" font-family="Helvetica,sans-Serif" font-size="10.00">panda::ParticleM::datastore</text>
<text text-anchor="middle" x="223.938" y="-78.5" font-family="Helvetica,sans-Serif" font-size="10.00">::setAddress</text>
</a>
</g>
</g>
<!-- Node1&#45;&gt;Node2 -->
<g id="edge1" class="edge"><title>Node1&#45;&gt;Node2</title>
<path fill="none" stroke="midnightblue" d="M119.084,-72.8035C127.384,-73.9781 136.025,-75.2009 144.623,-76.4176"/>
<polygon fill="midnightblue" stroke="midnightblue" points="144.28,-79.9039 154.672,-77.8397 145.261,-72.973 144.28,-79.9039"/>
</g>
<!-- Node5 -->
<g id="node5" class="node"><title>Node5</title>
<g id="a_node5"><a xlink:href="namespacepanda_1_1utils.html#abf9c62e588560197c2bae9932e6a6e05" target="_top" xlink:title="Set address. ">
<polygon fill="white" stroke="black" points="498.325,-70.5 498.325,-90.5 621.025,-90.5 621.025,-70.5 498.325,-70.5"/>
<text text-anchor="middle" x="559.675" y="-77.5" font-family="Helvetica,sans-Serif" font-size="10.00">panda::utils::setAddress</text>
</a>
</g>
</g>
<!-- Node1&#45;&gt;Node5 -->
<g id="edge14" class="edge"><title>Node1&#45;&gt;Node5</title>
<path fill="none" stroke="midnightblue" d="M118.816,-62.354C130.724,-61.998 143.17,-61.6849 154.811,-61.5 216.25,-60.524 231.658,-59.3065 293.066,-61.5 359.257,-63.8644 434.549,-69.533 488.025,-74.0671"/>
<polygon fill="midnightblue" stroke="midnightblue" points="487.822,-77.5624 498.084,-74.9284 488.419,-70.5879 487.822,-77.5624"/>
</g>
<!-- Node3 -->
<g id="node3" class="node"><title>Node3</title>
<g id="a_node3"><a xlink:href="structpanda_1_1Particle_1_1datastore.html#a3e4a1f8d223d8378ef2b92a6d4ccd2b0" target="_top" xlink:title="panda::Particle::datastore\l::setAddress">
<polygon fill="white" stroke="black" points="329.066,-109.5 329.066,-141.5 458.992,-141.5 458.992,-109.5 329.066,-109.5"/>
<text text-anchor="start" x="337.066" y="-128.5" font-family="Helvetica,sans-Serif" font-size="10.00">panda::Particle::datastore</text>
<text text-anchor="middle" x="394.029" y="-116.5" font-family="Helvetica,sans-Serif" font-size="10.00">::setAddress</text>
</a>
</g>
</g>
<!-- Node2&#45;&gt;Node3 -->
<g id="edge2" class="edge"><title>Node2&#45;&gt;Node3</title>
<path fill="none" stroke="midnightblue" d="M293.307,-102.956C301.8,-104.876 310.514,-106.846 319.086,-108.784"/>
<polygon fill="midnightblue" stroke="midnightblue" points="318.536,-112.248 329.062,-111.039 320.08,-105.42 318.536,-112.248"/>
</g>
<!-- Node2&#45;&gt;Node5 -->
<g id="edge13" class="edge"><title>Node2&#45;&gt;Node5</title>
<path fill="none" stroke="midnightblue" d="M293.28,-86.0666C350.129,-84.8742 430.746,-83.1833 488.183,-81.9785"/>
<polygon fill="midnightblue" stroke="midnightblue" points="488.344,-85.476 498.268,-81.767 488.197,-78.4776 488.344,-85.476"/>
</g>
<!-- Node4 -->
<g id="node4" class="node"><title>Node4</title>
<g id="a_node4"><a xlink:href="structpanda_1_1ContainerElement_1_1datastore.html#ae59f1a9b346ef85225e9b3691c6728a1" target="_top" xlink:title="panda::ContainerElement\l::datastore::setAddress">
<polygon fill="white" stroke="black" points="494.992,-109.5 494.992,-141.5 624.359,-141.5 624.359,-109.5 494.992,-109.5"/>
<text text-anchor="start" x="502.992" y="-128.5" font-family="Helvetica,sans-Serif" font-size="10.00">panda::ContainerElement</text>
<text text-anchor="middle" x="559.675" y="-116.5" font-family="Helvetica,sans-Serif" font-size="10.00">::datastore::setAddress</text>
</a>
</g>
</g>
<!-- Node3&#45;&gt;Node4 -->
<g id="edge3" class="edge"><title>Node3&#45;&gt;Node4</title>
<path fill="none" stroke="midnightblue" d="M459.237,-125.5C467.576,-125.5 476.172,-125.5 484.655,-125.5"/>
<polygon fill="midnightblue" stroke="midnightblue" points="484.921,-129 494.921,-125.5 484.921,-122 484.921,-129"/>
</g>
<!-- Node3&#45;&gt;Node5 -->
<g id="edge4" class="edge"><title>Node3&#45;&gt;Node5</title>
<path fill="none" stroke="midnightblue" d="M453.647,-109.381C472.838,-104.104 493.885,-98.3163 512.066,-93.3168"/>
<polygon fill="midnightblue" stroke="midnightblue" points="513.128,-96.6549 521.842,-90.6287 511.272,-89.9054 513.128,-96.6549"/>
</g>
<!-- Node6 -->
<g id="node6" class="node"><title>Node6</title>
<g id="a_node6"><a xlink:href="classpanda_1_1utils_1_1BranchName.html#a13958ff4a9d554d2c057c600b4f70412" target="_top" xlink:title="Prepend the branch name with &lt;objName.&gt;. ">
<polygon fill="white" stroke="black" points="817.397,-129.5 817.397,-161.5 948.425,-161.5 948.425,-129.5 817.397,-129.5"/>
<text text-anchor="start" x="825.397" y="-148.5" font-family="Helvetica,sans-Serif" font-size="10.00">panda::utils::BranchName</text>
<text text-anchor="middle" x="882.911" y="-136.5" font-family="Helvetica,sans-Serif" font-size="10.00">::fullName</text>
</a>
</g>
</g>
<!-- Node5&#45;&gt;Node6 -->
<g id="edge5" class="edge"><title>Node5&#45;&gt;Node6</title>
<path fill="none" stroke="midnightblue" d="M600.341,-90.5631C618.572,-95.056 640.51,-100.277 660.359,-104.5 709.063,-114.862 764.111,-125.056 807.151,-132.688"/>
<polygon fill="midnightblue" stroke="midnightblue" points="806.805,-136.181 817.262,-134.473 808.022,-129.287 806.805,-136.181"/>
</g>
<!-- Node7 -->
<g id="node7" class="node"><title>Node7</title>
<g id="a_node7"><a xlink:href="namespacepanda_1_1utils.html#a01665f786d6a2acedb8f008f3fc9fc84" target="_top" xlink:title="Set status of a branch. ">
<polygon fill="white" stroke="black" points="660.359,-51.5 660.359,-71.5 774.729,-71.5 774.729,-51.5 660.359,-51.5"/>
<text text-anchor="middle" x="717.544" y="-58.5" font-family="Helvetica,sans-Serif" font-size="10.00">panda::utils::setStatus</text>
</a>
</g>
</g>
<!-- Node5&#45;&gt;Node7 -->
<g id="edge6" class="edge"><title>Node5&#45;&gt;Node7</title>
<path fill="none" stroke="midnightblue" d="M621.385,-73.0997C630.801,-71.9519 640.57,-70.7611 650.104,-69.5988"/>
<polygon fill="midnightblue" stroke="midnightblue" points="650.827,-73.0367 660.33,-68.3523 649.98,-66.0881 650.827,-73.0367"/>
</g>
<!-- Node8 -->
<g id="node8" class="node"><title>Node8</title>
<g id="a_node8"><a xlink:href="classpanda_1_1utils_1_1BranchName.html#a6cc8a6df7c5b12a0221fd49773cca6a7" target="_top" xlink:title="Is the name included and not vetoed? ">
<polygon fill="white" stroke="black" points="810.729,-90.5 810.729,-110.5 955.093,-110.5 955.093,-90.5 810.729,-90.5"/>
<text text-anchor="middle" x="882.911" y="-97.5" font-family="Helvetica,sans-Serif" font-size="10.00">panda::utils::BranchName::in</text>
</a>
</g>
</g>
<!-- Node5&#45;&gt;Node8 -->
<g id="edge11" class="edge"><title>Node5&#45;&gt;Node8</title>
<path fill="none" stroke="midnightblue" d="M621.097,-84.2618C671.742,-87.415 744.515,-91.9458 800.329,-95.4207"/>
<polygon fill="midnightblue" stroke="midnightblue" points="800.345,-98.9284 810.544,-96.0567 800.78,-91.942 800.345,-98.9284"/>
</g>
<!-- Node10 -->
<g id="node10" class="node"><title>Node10</title>
<g id="a_node10"><a xlink:href="namespacepanda_1_1utils.html#aafa411773a4b0ee829d99e6e5a0abdcd" target="_top" xlink:title="Check status of a branch. ">
<polygon fill="white" stroke="black" points="819.336,-0.5 819.336,-20.5 946.486,-20.5 946.486,-0.5 819.336,-0.5"/>
<text text-anchor="middle" x="882.911" y="-7.5" font-family="Helvetica,sans-Serif" font-size="10.00">panda::utils::checkStatus</text>
</a>
</g>
</g>
<!-- Node5&#45;&gt;Node10 -->
<g id="edge12" class="edge"><title>Node5&#45;&gt;Node10</title>
<path fill="none" stroke="midnightblue" d="M581.969,-70.484C601.828,-61.5517 632.493,-48.793 660.359,-41.5 709.16,-28.728 765.472,-20.9362 809.111,-16.3587"/>
<polygon fill="midnightblue" stroke="midnightblue" points="809.474,-19.84 819.069,-15.3468 808.766,-12.8759 809.474,-19.84"/>
</g>
<!-- Node7&#45;&gt;Node6 -->
<g id="edge9" class="edge"><title>Node7&#45;&gt;Node6</title>
<path fill="none" stroke="midnightblue" d="M732.374,-71.5109C749.952,-83.9212 781.528,-105.181 810.729,-119.5 815.007,-121.598 819.5,-123.623 824.061,-125.553"/>
<polygon fill="midnightblue" stroke="midnightblue" points="822.888,-128.854 833.47,-129.376 825.523,-122.369 822.888,-128.854"/>
</g>
<!-- Node7&#45;&gt;Node8 -->
<g id="edge7" class="edge"><title>Node7&#45;&gt;Node8</title>
<path fill="none" stroke="midnightblue" d="M760.615,-71.5435C781.767,-76.593 807.595,-82.7587 829.973,-88.1009"/>
<polygon fill="midnightblue" stroke="midnightblue" points="829.443,-91.5728 839.983,-90.4906 831.069,-84.7641 829.443,-91.5728"/>
</g>
<!-- Node9 -->
<g id="node9" class="node"><title>Node9</title>
<g id="a_node9"><a xlink:href="classpanda_1_1utils_1_1BranchName.html#ae3332329bf2afae5ed8e7c35e5d77ffa" target="_top" xlink:title="Is the name included and vetoed? ">
<polygon fill="white" stroke="black" points="817.397,-39.5 817.397,-71.5 948.425,-71.5 948.425,-39.5 817.397,-39.5"/>
<text text-anchor="start" x="825.397" y="-58.5" font-family="Helvetica,sans-Serif" font-size="10.00">panda::utils::BranchName</text>
<text text-anchor="middle" x="882.911" y="-46.5" font-family="Helvetica,sans-Serif" font-size="10.00">::vetoed</text>
</a>
</g>
</g>
<!-- Node7&#45;&gt;Node9 -->
<g id="edge8" class="edge"><title>Node7&#45;&gt;Node9</title>
<path fill="none" stroke="midnightblue" d="M774.766,-59.4351C785.117,-59.055 796.075,-58.6525 806.877,-58.2558"/>
<polygon fill="midnightblue" stroke="midnightblue" points="807.296,-61.7429 817.161,-57.8781 807.039,-54.7476 807.296,-61.7429"/>
</g>
<!-- Node7&#45;&gt;Node10 -->
<g id="edge10" class="edge"><title>Node7&#45;&gt;Node10</title>
<path fill="none" stroke="midnightblue" d="M745.801,-51.4496C764.061,-44.8624 788.701,-36.2532 810.729,-29.5 817.707,-27.3607 825.111,-25.2311 832.404,-23.2131"/>
<polygon fill="midnightblue" stroke="midnightblue" points="833.5,-26.5424 842.23,-20.5402 831.662,-19.7878 833.5,-26.5424"/>
</g>
</g>
</svg>
        <g id="navigator" transform="translate(0 0)" fill="#404254">
                <rect fill="#f2f5e9" fill-opacity="0.5" stroke="#606060" stroke-width=".5" x="0" y="0" width="60" height="60"/>
                <use id="zoomplus" xlink:href="#zoomPlus" x="17" y="9" onmousedown="handleZoom(evt,'in')"/>
                <use id="zoomminus" xlink:href="#zoomMin" x="42" y="9" onmousedown="handleZoom(evt,'out')"/>
                <use id="reset" xlink:href="#resetDef" x="30" y="36" onmousedown="handleReset()"/>
                <g id="arrowUp" xlink:href="#dirArrow" transform="translate(30 24)" onmousedown="handlePan(0,-1)">
                  <use xlink:href="#rim" fill="#404040">
                        <set attributeName="fill" to="#808080" begin="arrowUp.mouseover" end="arrowUp.mouseout"/>
                  </use>
                  <path fill="none" stroke="white" stroke-width="1.5" d="M0,-3.0v7 M-2.5,-0.5L0,-3.0L2.5,-0.5"/>
                </g>
                <g id="arrowRight" xlink:href="#dirArrow" transform="rotate(90) translate(36 -43)" onmousedown="handlePan(1,0)">
                  <use xlink:href="#rim" fill="#404040">
                        <set attributeName="fill" to="#808080" begin="arrowRight.mouseover" end="arrowRight.mouseout"/>
                  </use>
                  <path fill="none" stroke="white" stroke-width="1.5" d="M0,-3.0v7 M-2.5,-0.5L0,-3.0L2.5,-0.5"/>
                </g>
                <g id="arrowDown" xlink:href="#dirArrow" transform="rotate(180) translate(-30 -48)" onmousedown="handlePan(0,1)">
                  <use xlink:href="#rim" fill="#404040">
                        <set attributeName="fill" to="#808080" begin="arrowDown.mouseover" end="arrowDown.mouseout"/>
                  </use>
                  <path fill="none" stroke="white" stroke-width="1.5" d="M0,-3.0v7 M-2.5,-0.5L0,-3.0L2.5,-0.5"/>
                </g>
                <g id="arrowLeft" xlink:href="#dirArrow" transform="rotate(270) translate(-36 17)" onmousedown="handlePan(-1,0)">
                  <use xlink:href="#rim" fill="#404040">
                        <set attributeName="fill" to="#808080" begin="arrowLeft.mouseover" end="arrowLeft.mouseout"/>
                  </use>
                  <path fill="none" stroke="white" stroke-width="1.5" d="M0,-3.0v7 M-2.5,-0.5L0,-3.0L2.5,-0.5"/>
                </g>
        </g>
        <svg viewBox="0 0 15 15" width="100%" height="30px" preserveAspectRatio="xMaxYMin meet">
         <g id="arrow_out" transform="scale(0.3 0.3)">
          <a xlink:href="structpanda_1_1GenParticle_1_1datastore_ae55290c7499a0b5c80309462637d9e73_cgraph_org.svg" target="_base">
           <rect id="button" ry="5" rx="5" y="6" x="6" height="38" width="38"
                fill="#f2f5e9" fill-opacity="0.5" stroke="#606060" stroke-width="1.0"/>
           <path id="arrow"
             d="M 11.500037,31.436501 C 11.940474,20.09759 22.043105,11.32322 32.158766,21.979434 L 37.068811,17.246167 C 37.068811,17.246167 37.088388,32 37.088388,32 L 22.160133,31.978069 C 22.160133,31.978069 26.997745,27.140456 26.997745,27.140456 C 18.528582,18.264221 13.291696,25.230495 11.500037,31.436501 z"
             style="fill:#404040;"/>
          </a>
         </g>
        </svg>
</svg>
