<?xml version="1.0" encoding="UTF-8" standalone="no"?>
<!DOCTYPE svg PUBLIC "-//W3C//DTD SVG 1.1//EN"
 "http://www.w3.org/Graphics/SVG/1.1/DTD/svg11.dtd">
<!-- Generated by graphviz version 2.38.0 (20140413.2041)
 -->
<!-- Title: panda::GenJet::datastore::~datastore Pages: 1 -->
<svg width="807pt" height="41pt"
 viewBox="0.00 0.00 807.20 41.00" xmlns="http://www.w3.org/2000/svg" xmlns:xlink="http://www.w3.org/1999/xlink">
<g id="graph0" class="graph" transform="scale(1 1) rotate(0) translate(4 37)">
<title>panda::GenJet::datastore::~datastore</title>
<polygon fill="white" stroke="none" points="-4,4 -4,-37 803.204,-37 803.204,4 -4,4"/>
<!-- Node1 -->
<g id="node1" class="node"><title>Node1</title>
<polygon fill="#bfbfbf" stroke="black" points="-1.42109e-14,-0.5 -1.42109e-14,-32.5 128.828,-32.5 128.828,-0.5 -1.42109e-14,-0.5"/>
<text text-anchor="start" x="8" y="-19.5" font-family="Helvetica,sans-Serif" font-size="10.00">panda::GenJet::datastore</text>
<text text-anchor="middle" x="64.414" y="-7.5" font-family="Helvetica,sans-Serif" font-size="10.00">::~datastore</text>
</g>
<!-- Node2 -->
<g id="node2" class="node"><title>Node2</title>
<g id="a_node2"><a xlink:href="structpanda_1_1GenJet_1_1datastore.html#a2b1e39eb4f994f496aa013aaf82998c4" target="_top" xlink:title="panda::GenJet::datastore\l::deallocate">
<polygon fill="white" stroke="black" points="164.828,-0.5 164.828,-32.5 293.656,-32.5 293.656,-0.5 164.828,-0.5"/>
<text text-anchor="start" x="172.828" y="-19.5" font-family="Helvetica,sans-Serif" font-size="10.00">panda::GenJet::datastore</text>
<text text-anchor="middle" x="229.242" y="-7.5" font-family="Helvetica,sans-Serif" font-size="10.00">::deallocate</text>
</a>
</g>
</g>
<!-- Node1&#45;&gt;Node2 -->
<g id="edge1" class="edge"><title>Node1&#45;&gt;Node2</title>
<path fill="none" stroke="midnightblue" d="M128.834,-16.5C137.306,-16.5 146.051,-16.5 154.678,-16.5"/>
<polygon fill="midnightblue" stroke="midnightblue" points="154.727,-20.0001 164.727,-16.5 154.727,-13.0001 154.727,-20.0001"/>
</g>
<!-- Node3 -->
<g id="node3" class="node"><title>Node3</title>
<g id="a_node3"><a xlink:href="structpanda_1_1ParticleM_1_1datastore.html#a85c4ce11f1d7c6944a525ad2488880aa" target="_top" xlink:title="panda::ParticleM::datastore\l::deallocate">
<polygon fill="white" stroke="black" points="329.656,-0.5 329.656,-32.5 467.911,-32.5 467.911,-0.5 329.656,-0.5"/>
<text text-anchor="start" x="337.656" y="-19.5" font-family="Helvetica,sans-Serif" font-size="10.00">panda::ParticleM::datastore</text>
<text text-anchor="middle" x="398.784" y="-7.5" font-family="Helvetica,sans-Serif" font-size="10.00">::deallocate</text>
</a>
</g>
</g>
<!-- Node2&#45;&gt;Node3 -->
<g id="edge2" class="edge"><title>Node2&#45;&gt;Node3</title>
<path fill="none" stroke="midnightblue" d="M294.06,-16.5C302.278,-16.5 310.768,-16.5 319.188,-16.5"/>
<polygon fill="midnightblue" stroke="midnightblue" points="319.401,-20.0001 329.401,-16.5 319.401,-13.0001 319.401,-20.0001"/>
</g>
<!-- Node4 -->
<g id="node4" class="node"><title>Node4</title>
<g id="a_node4"><a xlink:href="structpanda_1_1Particle_1_1datastore.html#ad741e5ab6ebeb9ca897ba9472d0dea36" target="_top" xlink:title="panda::Particle::datastore\l::deallocate">
<polygon fill="white" stroke="black" points="503.911,-0.5 503.911,-32.5 633.837,-32.5 633.837,-0.5 503.911,-0.5"/>
<text text-anchor="start" x="511.911" y="-19.5" font-family="Helvetica,sans-Serif" font-size="10.00">panda::Particle::datastore</text>
<text text-anchor="middle" x="568.874" y="-7.5" font-family="Helvetica,sans-Serif" font-size="10.00">::deallocate</text>
</a>
</g>
</g>
<!-- Node3&#45;&gt;Node4 -->
<g id="edge3" class="edge"><title>Node3&#45;&gt;Node4</title>
<path fill="none" stroke="midnightblue" d="M468.152,-16.5C476.553,-16.5 485.17,-16.5 493.652,-16.5"/>
<polygon fill="midnightblue" stroke="midnightblue" points="493.907,-20.0001 503.907,-16.5 493.907,-13.0001 493.907,-20.0001"/>
</g>
<!-- Node5 -->
<g id="node5" class="node"><title>Node5</title>
<g id="a_node5"><a xlink:href="structpanda_1_1ContainerElement_1_1datastore.html#a8827cbb1304b781fcba764a6bf4cbcc1" target="_top" xlink:title="panda::ContainerElement\l::datastore::deallocate">
<polygon fill="white" stroke="black" points="669.837,-0.5 669.837,-32.5 799.204,-32.5 799.204,-0.5 669.837,-0.5"/>
<text text-anchor="start" x="677.837" y="-19.5" font-family="Helvetica,sans-Serif" font-size="10.00">panda::ContainerElement</text>
<text text-anchor="middle" x="734.52" y="-7.5" font-family="Helvetica,sans-Serif" font-size="10.00">::datastore::deallocate</text>
</a>
</g>
</g>
<!-- Node4&#45;&gt;Node5 -->
<g id="edge4" class="edge"><title>Node4&#45;&gt;Node5</title>
<path fill="none" stroke="midnightblue" d="M634.082,-16.5C642.421,-16.5 651.017,-16.5 659.5,-16.5"/>
<polygon fill="midnightblue" stroke="midnightblue" points="659.766,-20.0001 669.766,-16.5 659.766,-13.0001 659.766,-20.0001"/>
</g>
</g>
</svg>
