<?xml version="1.0" encoding="UTF-8" standalone="no"?>
<!DOCTYPE svg PUBLIC "-//W3C//DTD SVG 1.1//EN"
 "http://www.w3.org/Graphics/SVG/1.1/DTD/svg11.dtd">
<!-- Generated by graphviz version 2.38.0 (20140413.2041)
 -->
<!-- Title: panda::PFCand::datastore::setStatus Pages: 1 -->
<!--zoomable 170 -->
<svg id="main" version="1.1" xmlns="http://www.w3.org/2000/svg" xmlns:xlink="http://www.w3.org/1999/xlink" xml:space="preserve" onload="init(evt)">
<style type="text/css"><![CDATA[
.edge:hover path { stroke: red; }
.edge:hover polygon { stroke: red; fill: red; }
]]></style>
<script type="text/javascript"><![CDATA[
var edges = document.getElementsByTagName('g');
if (edges && edges.length) {
  for (var i=0;i<edges.length;i++) {
    if (edges[i].id.substr(0,4)=='edge') {
      edges[i].setAttribute('class','edge');
    }
  }
}
]]></script>
        <defs>
                <circle id="rim" cx="0" cy="0" r="7"/>
                <circle id="rim2" cx="0" cy="0" r="3.5"/>
                <g id="zoomPlus">
                        <use xlink:href="#rim" fill="#404040">
                                <set attributeName="fill" to="#808080" begin="zoomplus.mouseover" end="zoomplus.mouseout"/>
                        </use>
                        <path d="M-4,0h8M0,-4v8" fill="none" stroke="white" stroke-width="1.5" pointer-events="none"/>
                </g>
                <g id="zoomMin">
                        <use xlink:href="#rim" fill="#404040">
                                <set attributeName="fill" to="#808080" begin="zoomminus.mouseover" end="zoomminus.mouseout"/>
                        </use>
                        <path d="M-4,0h8" fill="none" stroke="white" stroke-width="1.5" pointer-events="none"/>
                </g>
                <g id="dirArrow">
                        <path fill="none" stroke="white" stroke-width="1.5" d="M0,-3.0v7 M-2.5,-0.5L0,-3.0L2.5,-0.5"/>
                </g>
               <g id="resetDef">
                       <use xlink:href="#rim2" fill="#404040">
                               <set attributeName="fill" to="#808080" begin="reset.mouseover" end="reset.mouseout"/>
                       </use>
               </g>
        </defs>

<script type="text/javascript">
var viewWidth = 827;
var viewHeight = 170;
var sectionId = 'dynsection-10';
</script>
<script xlink:href="svgpan.js"/>
<svg id="graph" class="graph">
<g id="viewport">
<title>panda::PFCand::datastore::setStatus</title>
<polygon fill="white" stroke="none" points="-4,4 -4,-166 823.179,-166 823.179,4 -4,4"/>
<!-- Node1 -->
<g id="node1" class="node"><title>Node1</title>
<polygon fill="#bfbfbf" stroke="black" points="2.84217e-14,-48.5 2.84217e-14,-80.5 133.267,-80.5 133.267,-48.5 2.84217e-14,-48.5"/>
<text text-anchor="start" x="8" y="-67.5" font-family="Helvetica,sans-Serif" font-size="10.00">panda::PFCand::datastore</text>
<text text-anchor="middle" x="66.6335" y="-55.5" font-family="Helvetica,sans-Serif" font-size="10.00">::setStatus</text>
</g>
<!-- Node2 -->
<g id="node2" class="node"><title>Node2</title>
<g id="a_node2"><a xlink:href="structpanda_1_1ParticleM_1_1datastore.html#a957ae0973d0133c87e71845ad751fd64" target="_top" xlink:title="panda::ParticleM::datastore\l::setStatus">
<polygon fill="white" stroke="black" points="169.267,-71.5 169.267,-103.5 307.522,-103.5 307.522,-71.5 169.267,-71.5"/>
<text text-anchor="start" x="177.267" y="-90.5" font-family="Helvetica,sans-Serif" font-size="10.00">panda::ParticleM::datastore</text>
<text text-anchor="middle" x="238.394" y="-78.5" font-family="Helvetica,sans-Serif" font-size="10.00">::setStatus</text>
</a>
</g>
</g>
<!-- Node1&#45;&gt;Node2 -->
<g id="edge1" class="edge"><title>Node1&#45;&gt;Node2</title>
<path fill="none" stroke="midnightblue" d="M133.268,-73.3924C141.717,-74.5372 150.436,-75.7184 159.063,-76.8873"/>
<polygon fill="midnightblue" stroke="midnightblue" points="158.748,-80.3766 169.128,-78.2509 159.688,-73.4399 158.748,-80.3766"/>
</g>
<!-- Node5 -->
<g id="node5" class="node"><title>Node5</title>
<g id="a_node5"><a xlink:href="namespacepanda_1_1utils.html#a01665f786d6a2acedb8f008f3fc9fc84" target="_top" xlink:title="Set status of a branch. ">
<polygon fill="white" stroke="black" points="516.947,-70.5 516.947,-90.5 631.316,-90.5 631.316,-70.5 516.947,-70.5"/>
<text text-anchor="middle" x="574.131" y="-77.5" font-family="Helvetica,sans-Serif" font-size="10.00">panda::utils::setStatus</text>
</a>
</g>
</g>
<!-- Node1&#45;&gt;Node5 -->
<g id="edge10" class="edge"><title>Node1&#45;&gt;Node5</title>
<path fill="none" stroke="midnightblue" d="M133.506,-62.2721C145.408,-61.9503 157.706,-61.6706 169.267,-61.5 230.707,-60.5934 246.114,-59.3065 307.522,-61.5 375.449,-63.9264 452.961,-69.8327 506.643,-74.4214"/>
<polygon fill="midnightblue" stroke="midnightblue" points="506.453,-77.9179 516.717,-75.2909 507.055,-70.9438 506.453,-77.9179"/>
</g>
<!-- Node3 -->
<g id="node3" class="node"><title>Node3</title>
<g id="a_node3"><a xlink:href="structpanda_1_1Particle_1_1datastore.html#afa508d25966c3e2044e67e4b50f1679e" target="_top" xlink:title="panda::Particle::datastore\l::setStatus">
<polygon fill="white" stroke="black" points="343.522,-109.5 343.522,-141.5 473.448,-141.5 473.448,-109.5 343.522,-109.5"/>
<text text-anchor="start" x="351.522" y="-128.5" font-family="Helvetica,sans-Serif" font-size="10.00">panda::Particle::datastore</text>
<text text-anchor="middle" x="408.485" y="-116.5" font-family="Helvetica,sans-Serif" font-size="10.00">::setStatus</text>
</a>
</g>
</g>
<!-- Node2&#45;&gt;Node3 -->
<g id="edge2" class="edge"><title>Node2&#45;&gt;Node3</title>
<path fill="none" stroke="midnightblue" d="M307.763,-102.956C316.256,-104.876 324.97,-106.846 333.542,-108.784"/>
<polygon fill="midnightblue" stroke="midnightblue" points="332.992,-112.248 343.518,-111.039 334.536,-105.42 332.992,-112.248"/>
</g>
<!-- Node2&#45;&gt;Node5 -->
<g id="edge9" class="edge"><title>Node2&#45;&gt;Node5</title>
<path fill="none" stroke="midnightblue" d="M307.736,-86.0666C365.934,-84.8459 449.042,-83.1027 506.689,-81.8936"/>
<polygon fill="midnightblue" stroke="midnightblue" points="506.862,-85.3908 516.787,-81.6818 506.715,-78.3924 506.862,-85.3908"/>
</g>
<!-- Node4 -->
<g id="node4" class="node"><title>Node4</title>
<g id="a_node4"><a xlink:href="structpanda_1_1ContainerElement_1_1datastore.html#aad03a4d0428dfa3b6ae9ccfb04d49cd8" target="_top" xlink:title="panda::ContainerElement\l::datastore::setStatus">
<polygon fill="white" stroke="black" points="509.448,-109.5 509.448,-141.5 638.815,-141.5 638.815,-109.5 509.448,-109.5"/>
<text text-anchor="start" x="517.448" y="-128.5" font-family="Helvetica,sans-Serif" font-size="10.00">panda::ContainerElement</text>
<text text-anchor="middle" x="574.131" y="-116.5" font-family="Helvetica,sans-Serif" font-size="10.00">::datastore::setStatus</text>
</a>
</g>
</g>
<!-- Node3&#45;&gt;Node4 -->
<g id="edge3" class="edge"><title>Node3&#45;&gt;Node4</title>
<path fill="none" stroke="midnightblue" d="M473.693,-125.5C482.032,-125.5 490.628,-125.5 499.111,-125.5"/>
<polygon fill="midnightblue" stroke="midnightblue" points="499.377,-129 509.377,-125.5 499.377,-122 499.377,-129"/>
</g>
<!-- Node3&#45;&gt;Node5 -->
<g id="edge4" class="edge"><title>Node3&#45;&gt;Node5</title>
<path fill="none" stroke="midnightblue" d="M468.103,-109.381C487.294,-104.104 508.341,-98.3163 526.522,-93.3168"/>
<polygon fill="midnightblue" stroke="midnightblue" points="527.584,-96.6549 536.298,-90.6287 525.728,-89.9054 527.584,-96.6549"/>
</g>
<!-- Node6 -->
<g id="node6" class="node"><title>Node6</title>
<g id="a_node6"><a xlink:href="classpanda_1_1utils_1_1BranchName.html#a6cc8a6df7c5b12a0221fd49773cca6a7" target="_top" xlink:title="Is the name included and not vetoed? ">
<polygon fill="white" stroke="black" points="674.815,-141.5 674.815,-161.5 819.179,-161.5 819.179,-141.5 674.815,-141.5"/>
<text text-anchor="middle" x="746.997" y="-148.5" font-family="Helvetica,sans-Serif" font-size="10.00">panda::utils::BranchName::in</text>
</a>
</g>
</g>
<!-- Node5&#45;&gt;Node6 -->
<g id="edge5" class="edge"><title>Node5&#45;&gt;Node6</title>
<path fill="none" stroke="midnightblue" d="M618.698,-90.6163C625.649,-93.0366 632.593,-95.9708 638.815,-99.5 657.695,-110.208 655.782,-122.067 674.815,-132.5 678.474,-134.506 682.357,-136.309 686.347,-137.928"/>
<polygon fill="midnightblue" stroke="midnightblue" points="685.202,-141.236 695.796,-141.383 687.606,-134.662 685.202,-141.236"/>
</g>
<!-- Node7 -->
<g id="node7" class="node"><title>Node7</title>
<g id="a_node7"><a xlink:href="classpanda_1_1utils_1_1BranchName.html#ae3332329bf2afae5ed8e7c35e5d77ffa" target="_top" xlink:title="Is the name included and vetoed? ">
<polygon fill="white" stroke="black" points="681.483,-90.5 681.483,-122.5 812.511,-122.5 812.511,-90.5 681.483,-90.5"/>
<text text-anchor="start" x="689.483" y="-109.5" font-family="Helvetica,sans-Serif" font-size="10.00">panda::utils::BranchName</text>
<text text-anchor="middle" x="746.997" y="-97.5" font-family="Helvetica,sans-Serif" font-size="10.00">::vetoed</text>
</a>
</g>
</g>
<!-- Node5&#45;&gt;Node7 -->
<g id="edge6" class="edge"><title>Node5&#45;&gt;Node7</title>
<path fill="none" stroke="midnightblue" d="M631.553,-89.0854C644.256,-91.0185 657.931,-93.0993 671.253,-95.1265"/>
<polygon fill="midnightblue" stroke="midnightblue" points="670.938,-98.6187 681.351,-96.663 671.991,-91.6984 670.938,-98.6187"/>
</g>
<!-- Node8 -->
<g id="node8" class="node"><title>Node8</title>
<g id="a_node8"><a xlink:href="classpanda_1_1utils_1_1BranchName.html#a13958ff4a9d554d2c057c600b4f70412" target="_top" xlink:title="Prepend the branch name with &lt;objName.&gt;. ">
<polygon fill="white" stroke="black" points="681.483,-39.5 681.483,-71.5 812.511,-71.5 812.511,-39.5 681.483,-39.5"/>
<text text-anchor="start" x="689.483" y="-58.5" font-family="Helvetica,sans-Serif" font-size="10.00">panda::utils::BranchName</text>
<text text-anchor="middle" x="746.997" y="-46.5" font-family="Helvetica,sans-Serif" font-size="10.00">::fullName</text>
</a>
</g>
</g>
<!-- Node5&#45;&gt;Node8 -->
<g id="edge7" class="edge"><title>Node5&#45;&gt;Node8</title>
<path fill="none" stroke="midnightblue" d="M631.553,-72.2448C644.256,-70.3861 657.931,-68.3853 671.253,-66.436"/>
<polygon fill="midnightblue" stroke="midnightblue" points="671.963,-69.8696 681.351,-64.9587 670.949,-62.9433 671.963,-69.8696"/>
</g>
<!-- Node9 -->
<g id="node9" class="node"><title>Node9</title>
<g id="a_node9"><a xlink:href="namespacepanda_1_1utils.html#aafa411773a4b0ee829d99e6e5a0abdcd" target="_top" xlink:title="Check status of a branch. ">
<polygon fill="white" stroke="black" points="683.422,-0.5 683.422,-20.5 810.572,-20.5 810.572,-0.5 683.422,-0.5"/>
<text text-anchor="middle" x="746.997" y="-7.5" font-family="Helvetica,sans-Serif" font-size="10.00">panda::utils::checkStatus</text>
</a>
</g>
</g>
<!-- Node5&#45;&gt;Node9 -->
<g id="edge8" class="edge"><title>Node5&#45;&gt;Node9</title>
<path fill="none" stroke="midnightblue" d="M592.261,-70.3138C611.721,-59.0827 644.693,-41.075 674.815,-29.5 680.613,-27.272 686.773,-25.2055 692.949,-23.3196"/>
<polygon fill="midnightblue" stroke="midnightblue" points="693.992,-26.6611 702.617,-20.5071 692.037,-19.9397 693.992,-26.6611"/>
</g>
</g>
</svg>
        <g id="navigator" transform="translate(0 0)" fill="#404254">
                <rect fill="#f2f5e9" fill-opacity="0.5" stroke="#606060" stroke-width=".5" x="0" y="0" width="60" height="60"/>
                <use id="zoomplus" xlink:href="#zoomPlus" x="17" y="9" onmousedown="handleZoom(evt,'in')"/>
                <use id="zoomminus" xlink:href="#zoomMin" x="42" y="9" onmousedown="handleZoom(evt,'out')"/>
                <use id="reset" xlink:href="#resetDef" x="30" y="36" onmousedown="handleReset()"/>
                <g id="arrowUp" xlink:href="#dirArrow" transform="translate(30 24)" onmousedown="handlePan(0,-1)">
                  <use xlink:href="#rim" fill="#404040">
                        <set attributeName="fill" to="#808080" begin="arrowUp.mouseover" end="arrowUp.mouseout"/>
                  </use>
                  <path fill="none" stroke="white" stroke-width="1.5" d="M0,-3.0v7 M-2.5,-0.5L0,-3.0L2.5,-0.5"/>
                </g>
                <g id="arrowRight" xlink:href="#dirArrow" transform="rotate(90) translate(36 -43)" onmousedown="handlePan(1,0)">
                  <use xlink:href="#rim" fill="#404040">
                        <set attributeName="fill" to="#808080" begin="arrowRight.mouseover" end="arrowRight.mouseout"/>
                  </use>
                  <path fill="none" stroke="white" stroke-width="1.5" d="M0,-3.0v7 M-2.5,-0.5L0,-3.0L2.5,-0.5"/>
                </g>
                <g id="arrowDown" xlink:href="#dirArrow" transform="rotate(180) translate(-30 -48)" onmousedown="handlePan(0,1)">
                  <use xlink:href="#rim" fill="#404040">
                        <set attributeName="fill" to="#808080" begin="arrowDown.mouseover" end="arrowDown.mouseout"/>
                  </use>
                  <path fill="none" stroke="white" stroke-width="1.5" d="M0,-3.0v7 M-2.5,-0.5L0,-3.0L2.5,-0.5"/>
                </g>
                <g id="arrowLeft" xlink:href="#dirArrow" transform="rotate(270) translate(-36 17)" onmousedown="handlePan(-1,0)">
                  <use xlink:href="#rim" fill="#404040">
                        <set attributeName="fill" to="#808080" begin="arrowLeft.mouseover" end="arrowLeft.mouseout"/>
                  </use>
                  <path fill="none" stroke="white" stroke-width="1.5" d="M0,-3.0v7 M-2.5,-0.5L0,-3.0L2.5,-0.5"/>
                </g>
        </g>
        <svg viewBox="0 0 15 15" width="100%" height="30px" preserveAspectRatio="xMaxYMin meet">
         <g id="arrow_out" transform="scale(0.3 0.3)">
          <a xlink:href="structpanda_1_1PFCand_1_1datastore_a8f5d07116cd43d93bc55fb1aefab461b_cgraph_org.svg" target="_base">
           <rect id="button" ry="5" rx="5" y="6" x="6" height="38" width="38"
                fill="#f2f5e9" fill-opacity="0.5" stroke="#606060" stroke-width="1.0"/>
           <path id="arrow"
             d="M 11.500037,31.436501 C 11.940474,20.09759 22.043105,11.32322 32.158766,21.979434 L 37.068811,17.246167 C 37.068811,17.246167 37.088388,32 37.088388,32 L 22.160133,31.978069 C 22.160133,31.978069 26.997745,27.140456 26.997745,27.140456 C 18.528582,18.264221 13.291696,25.230495 11.500037,31.436501 z"
             style="fill:#404040;"/>
          </a>
         </g>
        </svg>
</svg>
