<?xml version="1.0" encoding="UTF-8" standalone="no"?>
<!DOCTYPE svg PUBLIC "-//W3C//DTD SVG 1.1//EN"
 "http://www.w3.org/Graphics/SVG/1.1/DTD/svg11.dtd">
<!-- Generated by graphviz version 2.38.0 (20140413.2041)
 -->
<!-- Title: panda::SuperCluster::datastore Pages: 1 -->
<svg width="137pt" height="110pt"
 viewBox="0.00 0.00 137.37 110.00" xmlns="http://www.w3.org/2000/svg" xmlns:xlink="http://www.w3.org/1999/xlink">
<g id="graph0" class="graph" transform="scale(1 1) rotate(0) translate(4 106)">
<title>panda::SuperCluster::datastore</title>
<polygon fill="white" stroke="none" points="-4,4 -4,-106 133.367,-106 133.367,4 -4,4"/>
<!-- Node1 -->
<g id="node1" class="node"><title>Node1</title>
<polygon fill="#bfbfbf" stroke="black" points="10.8375,-0.5 10.8375,-32.5 118.53,-32.5 118.53,-0.5 10.8375,-0.5"/>
<text text-anchor="start" x="18.8375" y="-19.5" font-family="Helvetica,sans-Serif" font-size="10.00">panda::SuperCluster</text>
<text text-anchor="middle" x="64.6835" y="-7.5" font-family="Helvetica,sans-Serif" font-size="10.00">::datastore</text>
</g>
<!-- Node2 -->
<g id="node2" class="node"><title>Node2</title>
<g id="a_node2"><a xlink:href="structpanda_1_1ContainerElement_1_1datastore.html" target="_top" xlink:title="panda::ContainerElement\l::datastore">
<polygon fill="white" stroke="black" points="0,-69.5 0,-101.5 129.367,-101.5 129.367,-69.5 0,-69.5"/>
<text text-anchor="start" x="8" y="-88.5" font-family="Helvetica,sans-Serif" font-size="10.00">panda::ContainerElement</text>
<text text-anchor="middle" x="64.6835" y="-76.5" font-family="Helvetica,sans-Serif" font-size="10.00">::datastore</text>
</a>
</g>
</g>
<!-- Node2&#45;&gt;Node1 -->
<g id="edge1" class="edge"><title>Node2&#45;&gt;Node1</title>
<path fill="none" stroke="midnightblue" d="M64.6835,-59.0249C64.6835,-50.128 64.6835,-40.4287 64.6835,-32.6432"/>
<polygon fill="midnightblue" stroke="midnightblue" points="61.1836,-59.2966 64.6835,-69.2967 68.1836,-59.2967 61.1836,-59.2966"/>
</g>
</g>
</svg>
