<?xml version="1.0" encoding="UTF-8" standalone="no"?>
<!DOCTYPE svg PUBLIC "-//W3C//DTD SVG 1.1//EN"
 "http://www.w3.org/Graphics/SVG/1.1/DTD/svg11.dtd">
<!-- Generated by graphviz version 2.38.0 (20140413.2041)
 -->
<!-- Title: panda::Parton::datastore::book Pages: 1 -->
<svg width="820pt" height="108pt"
 viewBox="0.00 0.00 819.96 108.00" xmlns="http://www.w3.org/2000/svg" xmlns:xlink="http://www.w3.org/1999/xlink">
<g id="graph0" class="graph" transform="scale(1 1) rotate(0) translate(4 104)">
<title>panda::Parton::datastore::book</title>
<polygon fill="white" stroke="none" points="-4,4 -4,-104 815.959,-104 815.959,4 -4,4"/>
<!-- Node1 -->
<g id="node1" class="node"><title>Node1</title>
<polygon fill="#bfbfbf" stroke="black" points="1.42109e-14,-6.5 1.42109e-14,-38.5 126.047,-38.5 126.047,-6.5 1.42109e-14,-6.5"/>
<text text-anchor="start" x="8" y="-25.5" font-family="Helvetica,sans-Serif" font-size="10.00">panda::Parton::datastore</text>
<text text-anchor="middle" x="63.0235" y="-13.5" font-family="Helvetica,sans-Serif" font-size="10.00">::book</text>
</g>
<!-- Node2 -->
<g id="node2" class="node"><title>Node2</title>
<g id="a_node2"><a xlink:href="structpanda_1_1ParticleM_1_1datastore.html#ae2eb76ca042d8b3e899c027ee07b5860" target="_top" xlink:title="panda::ParticleM::datastore\l::book">
<polygon fill="white" stroke="black" points="162.047,-29.5 162.047,-61.5 300.302,-61.5 300.302,-29.5 162.047,-29.5"/>
<text text-anchor="start" x="170.047" y="-48.5" font-family="Helvetica,sans-Serif" font-size="10.00">panda::ParticleM::datastore</text>
<text text-anchor="middle" x="231.174" y="-36.5" font-family="Helvetica,sans-Serif" font-size="10.00">::book</text>
</a>
</g>
</g>
<!-- Node1&#45;&gt;Node2 -->
<g id="edge1" class="edge"><title>Node1&#45;&gt;Node2</title>
<path fill="none" stroke="midnightblue" d="M126.365,-31.1298C134.704,-32.2842 143.341,-33.4798 151.909,-34.6659"/>
<polygon fill="midnightblue" stroke="midnightblue" points="151.529,-38.1465 161.915,-36.0509 152.489,-31.2127 151.529,-38.1465"/>
</g>
<!-- Node5 -->
<g id="node5" class="node"><title>Node5</title>
<g id="a_node5"><a xlink:href="namespacepanda_1_1utils.html#aaa6c7cd5892388e6ffdf713b11abf793" target="_top" xlink:title="Book the branch. ">
<polygon fill="white" stroke="black" points="519.729,-28.5 519.729,-48.5 614.093,-48.5 614.093,-28.5 519.729,-28.5"/>
<text text-anchor="middle" x="566.911" y="-35.5" font-family="Helvetica,sans-Serif" font-size="10.00">panda::utils::book</text>
</a>
</g>
</g>
<!-- Node1&#45;&gt;Node5 -->
<g id="edge8" class="edge"><title>Node1&#45;&gt;Node5</title>
<path fill="none" stroke="midnightblue" d="M126.243,-20.3091C138.128,-19.9718 150.471,-19.6771 162.047,-19.5 223.486,-18.56 238.894,-17.3065 300.302,-19.5 372.569,-22.0815 455.686,-28.6017 509.413,-33.2837"/>
<polygon fill="midnightblue" stroke="midnightblue" points="509.156,-36.7745 519.424,-34.1645 509.77,-29.8014 509.156,-36.7745"/>
</g>
<!-- Node3 -->
<g id="node3" class="node"><title>Node3</title>
<g id="a_node3"><a xlink:href="structpanda_1_1Particle_1_1datastore.html#af75a5d8b8a18ee09ce98ab37888b4404" target="_top" xlink:title="panda::Particle::datastore\l::book">
<polygon fill="white" stroke="black" points="336.302,-67.5 336.302,-99.5 466.228,-99.5 466.228,-67.5 336.302,-67.5"/>
<text text-anchor="start" x="344.302" y="-86.5" font-family="Helvetica,sans-Serif" font-size="10.00">panda::Particle::datastore</text>
<text text-anchor="middle" x="401.265" y="-74.5" font-family="Helvetica,sans-Serif" font-size="10.00">::book</text>
</a>
</g>
</g>
<!-- Node2&#45;&gt;Node3 -->
<g id="edge2" class="edge"><title>Node2&#45;&gt;Node3</title>
<path fill="none" stroke="midnightblue" d="M300.543,-60.9561C309.036,-62.876 317.75,-64.846 326.322,-66.7838"/>
<polygon fill="midnightblue" stroke="midnightblue" points="325.772,-70.2477 336.298,-69.039 327.316,-63.42 325.772,-70.2477"/>
</g>
<!-- Node2&#45;&gt;Node5 -->
<g id="edge7" class="edge"><title>Node2&#45;&gt;Node5</title>
<path fill="none" stroke="midnightblue" d="M300.516,-44.0666C362.222,-42.7723 451.932,-40.8907 509.605,-39.681"/>
<polygon fill="midnightblue" stroke="midnightblue" points="509.71,-43.1797 519.634,-39.4706 509.563,-36.1812 509.71,-43.1797"/>
</g>
<!-- Node4 -->
<g id="node4" class="node"><title>Node4</title>
<g id="a_node4"><a xlink:href="structpanda_1_1ContainerElement_1_1datastore.html#a3a4062043d9a913acd4056ab1cf5a93f" target="_top" xlink:title="panda::ContainerElement\l::datastore::book">
<polygon fill="white" stroke="black" points="502.228,-67.5 502.228,-99.5 631.595,-99.5 631.595,-67.5 502.228,-67.5"/>
<text text-anchor="start" x="510.228" y="-86.5" font-family="Helvetica,sans-Serif" font-size="10.00">panda::ContainerElement</text>
<text text-anchor="middle" x="566.911" y="-74.5" font-family="Helvetica,sans-Serif" font-size="10.00">::datastore::book</text>
</a>
</g>
</g>
<!-- Node3&#45;&gt;Node4 -->
<g id="edge3" class="edge"><title>Node3&#45;&gt;Node4</title>
<path fill="none" stroke="midnightblue" d="M466.473,-83.5C474.812,-83.5 483.408,-83.5 491.891,-83.5"/>
<polygon fill="midnightblue" stroke="midnightblue" points="492.157,-87.0001 502.157,-83.5 492.157,-80.0001 492.157,-87.0001"/>
</g>
<!-- Node3&#45;&gt;Node5 -->
<g id="edge4" class="edge"><title>Node3&#45;&gt;Node5</title>
<path fill="none" stroke="midnightblue" d="M460.883,-67.3811C480.074,-62.1039 501.121,-56.3163 519.302,-51.3168"/>
<polygon fill="midnightblue" stroke="midnightblue" points="520.364,-54.6549 529.078,-48.6287 518.508,-47.9054 520.364,-54.6549"/>
</g>
<!-- Node6 -->
<g id="node6" class="node"><title>Node6</title>
<g id="a_node6"><a xlink:href="classpanda_1_1utils_1_1BranchName.html#a6cc8a6df7c5b12a0221fd49773cca6a7" target="_top" xlink:title="Is the name included and not vetoed? ">
<polygon fill="white" stroke="black" points="667.595,-51.5 667.595,-71.5 811.959,-71.5 811.959,-51.5 667.595,-51.5"/>
<text text-anchor="middle" x="739.777" y="-58.5" font-family="Helvetica,sans-Serif" font-size="10.00">panda::utils::BranchName::in</text>
</a>
</g>
</g>
<!-- Node5&#45;&gt;Node6 -->
<g id="edge5" class="edge"><title>Node5&#45;&gt;Node6</title>
<path fill="none" stroke="midnightblue" d="M614.15,-44.7241C627.48,-46.5185 642.436,-48.5316 657.235,-50.5238"/>
<polygon fill="midnightblue" stroke="midnightblue" points="657.057,-54.0312 667.434,-51.8966 657.99,-47.0938 657.057,-54.0312"/>
</g>
<!-- Node7 -->
<g id="node7" class="node"><title>Node7</title>
<g id="a_node7"><a xlink:href="classpanda_1_1utils_1_1BranchName.html#a13958ff4a9d554d2c057c600b4f70412" target="_top" xlink:title="Prepend the branch name with &lt;objName.&gt;. ">
<polygon fill="white" stroke="black" points="674.263,-0.5 674.263,-32.5 805.291,-32.5 805.291,-0.5 674.263,-0.5"/>
<text text-anchor="start" x="682.263" y="-19.5" font-family="Helvetica,sans-Serif" font-size="10.00">panda::utils::BranchName</text>
<text text-anchor="middle" x="739.777" y="-7.5" font-family="Helvetica,sans-Serif" font-size="10.00">::fullName</text>
</a>
</g>
</g>
<!-- Node5&#45;&gt;Node7 -->
<g id="edge6" class="edge"><title>Node5&#45;&gt;Node7</title>
<path fill="none" stroke="midnightblue" d="M614.15,-32.5465C629.6,-30.5572 647.233,-28.2869 664.276,-26.0925"/>
<polygon fill="midnightblue" stroke="midnightblue" points="664.75,-29.5604 674.221,-24.812 663.856,-22.6178 664.75,-29.5604"/>
</g>
</g>
</svg>
