<?xml version="1.0" encoding="UTF-8" standalone="no"?>
<!DOCTYPE svg PUBLIC "-//W3C//DTD SVG 1.1//EN"
 "http://www.w3.org/Graphics/SVG/1.1/DTD/svg11.dtd">
<!-- Generated by graphviz version 2.38.0 (20140413.2041)
 -->
<!-- Title: panda::Lepton::datastore::deallocate Pages: 1 -->
<svg width="474pt" height="143pt"
 viewBox="0.00 0.00 473.70 143.00" xmlns="http://www.w3.org/2000/svg" xmlns:xlink="http://www.w3.org/1999/xlink">
<g id="graph0" class="graph" transform="scale(1 1) rotate(0) translate(4 139)">
<title>panda::Lepton::datastore::deallocate</title>
<polygon fill="white" stroke="none" points="-4,4 -4,-139 469.699,-139 469.699,4 -4,4"/>
<!-- Node1 -->
<g id="node1" class="node"><title>Node1</title>
<polygon fill="#bfbfbf" stroke="black" points="1.42109e-14,-51.5 1.42109e-14,-83.5 127.167,-83.5 127.167,-51.5 1.42109e-14,-51.5"/>
<text text-anchor="start" x="8" y="-70.5" font-family="Helvetica,sans-Serif" font-size="10.00">panda::Lepton::datastore</text>
<text text-anchor="middle" x="63.5835" y="-58.5" font-family="Helvetica,sans-Serif" font-size="10.00">::deallocate</text>
</g>
<!-- Node2 -->
<g id="node2" class="node"><title>Node2</title>
<g id="a_node2"><a xlink:href="structpanda_1_1Lepton_1_1datastore.html#aded63fdccd7551ae16f99adbd29afb82" target="_top" xlink:title="panda::Lepton::datastore\l::~datastore">
<polygon fill="white" stroke="black" points="166.216,-102.5 166.216,-134.5 293.383,-134.5 293.383,-102.5 166.216,-102.5"/>
<text text-anchor="start" x="174.216" y="-121.5" font-family="Helvetica,sans-Serif" font-size="10.00">panda::Lepton::datastore</text>
<text text-anchor="middle" x="229.8" y="-109.5" font-family="Helvetica,sans-Serif" font-size="10.00">::~datastore</text>
</a>
</g>
</g>
<!-- Node1&#45;&gt;Node2 -->
<g id="edge1" class="edge"><title>Node1&#45;&gt;Node2</title>
<path fill="none" stroke="midnightblue" d="M126.256,-86.6535C143.032,-91.8634 161.023,-97.4508 177.179,-102.468"/>
<polygon fill="midnightblue" stroke="midnightblue" points="127.131,-83.2602 116.543,-83.6367 125.055,-89.9452 127.131,-83.2602"/>
</g>
<!-- Node3 -->
<g id="node3" class="node"><title>Node3</title>
<g id="a_node3"><a xlink:href="structpanda_1_1Electron_1_1datastore.html#a82e74b804ecc9c1a138d5c3fcd6ef3a3" target="_top" xlink:title="panda::Electron::datastore\l::deallocate">
<polygon fill="white" stroke="black" points="163.167,-51.5 163.167,-83.5 296.433,-83.5 296.433,-51.5 163.167,-51.5"/>
<text text-anchor="start" x="171.167" y="-70.5" font-family="Helvetica,sans-Serif" font-size="10.00">panda::Electron::datastore</text>
<text text-anchor="middle" x="229.8" y="-58.5" font-family="Helvetica,sans-Serif" font-size="10.00">::deallocate</text>
</a>
</g>
</g>
<!-- Node1&#45;&gt;Node3 -->
<g id="edge2" class="edge"><title>Node1&#45;&gt;Node3</title>
<path fill="none" stroke="midnightblue" d="M137.754,-67.5C146.147,-67.5 154.665,-67.5 162.953,-67.5"/>
<polygon fill="midnightblue" stroke="midnightblue" points="137.604,-64.0001 127.604,-67.5 137.604,-71.0001 137.604,-64.0001"/>
</g>
<!-- Node5 -->
<g id="node5" class="node"><title>Node5</title>
<g id="a_node5"><a xlink:href="structpanda_1_1Muon_1_1datastore.html#aed9de75b6fb1e71671aa8a5b00862ace" target="_top" xlink:title="panda::Muon::datastore\l::deallocate">
<polygon fill="white" stroke="black" points="169,-0.5 169,-32.5 290.599,-32.5 290.599,-0.5 169,-0.5"/>
<text text-anchor="start" x="177" y="-19.5" font-family="Helvetica,sans-Serif" font-size="10.00">panda::Muon::datastore</text>
<text text-anchor="middle" x="229.8" y="-7.5" font-family="Helvetica,sans-Serif" font-size="10.00">::deallocate</text>
</a>
</g>
</g>
<!-- Node1&#45;&gt;Node5 -->
<g id="edge4" class="edge"><title>Node1&#45;&gt;Node5</title>
<path fill="none" stroke="midnightblue" d="M126.256,-48.3465C143.032,-43.1366 161.023,-37.5492 177.179,-32.5317"/>
<polygon fill="midnightblue" stroke="midnightblue" points="125.055,-45.0548 116.543,-51.3633 127.131,-51.7398 125.055,-45.0548"/>
</g>
<!-- Node4 -->
<g id="node4" class="node"><title>Node4</title>
<g id="a_node4"><a xlink:href="structpanda_1_1Electron_1_1datastore.html#af9dfc2f8a0fca924c40cc0d488f6bb02" target="_top" xlink:title="panda::Electron::datastore\l::~datastore">
<polygon fill="white" stroke="black" points="332.433,-51.5 332.433,-83.5 465.699,-83.5 465.699,-51.5 332.433,-51.5"/>
<text text-anchor="start" x="340.433" y="-70.5" font-family="Helvetica,sans-Serif" font-size="10.00">panda::Electron::datastore</text>
<text text-anchor="middle" x="399.066" y="-58.5" font-family="Helvetica,sans-Serif" font-size="10.00">::~datastore</text>
</a>
</g>
</g>
<!-- Node3&#45;&gt;Node4 -->
<g id="edge3" class="edge"><title>Node3&#45;&gt;Node4</title>
<path fill="none" stroke="midnightblue" d="M307.06,-67.5C315.442,-67.5 323.924,-67.5 332.164,-67.5"/>
<polygon fill="midnightblue" stroke="midnightblue" points="306.908,-64.0001 296.908,-67.5 306.908,-71.0001 306.908,-64.0001"/>
</g>
<!-- Node6 -->
<g id="node6" class="node"><title>Node6</title>
<g id="a_node6"><a xlink:href="structpanda_1_1Muon_1_1datastore.html#a399cd7ed5610fc6c99ac1d3365ddc354" target="_top" xlink:title="panda::Muon::datastore\l::~datastore">
<polygon fill="white" stroke="black" points="338.266,-0.5 338.266,-32.5 459.865,-32.5 459.865,-0.5 338.266,-0.5"/>
<text text-anchor="start" x="346.266" y="-19.5" font-family="Helvetica,sans-Serif" font-size="10.00">panda::Muon::datastore</text>
<text text-anchor="middle" x="399.066" y="-7.5" font-family="Helvetica,sans-Serif" font-size="10.00">::~datastore</text>
</a>
</g>
</g>
<!-- Node5&#45;&gt;Node6 -->
<g id="edge5" class="edge"><title>Node5&#45;&gt;Node6</title>
<path fill="none" stroke="midnightblue" d="M300.946,-16.5C313.268,-16.5 325.992,-16.5 338.008,-16.5"/>
<polygon fill="midnightblue" stroke="midnightblue" points="300.714,-13.0001 290.714,-16.5 300.714,-20.0001 300.714,-13.0001"/>
</g>
</g>
</svg>
