<?xml version="1.0" encoding="UTF-8" standalone="no"?>
<!DOCTYPE svg PUBLIC "-//W3C//DTD SVG 1.1//EN"
 "http://www.w3.org/Graphics/SVG/1.1/DTD/svg11.dtd">
<!-- Generated by graphviz version 2.38.0 (20140413.2041)
 -->
<!-- Title: panda::Jet::datastore::setAddress Pages: 1 -->
<!--zoomable 170 -->
<svg id="main" version="1.1" xmlns="http://www.w3.org/2000/svg" xmlns:xlink="http://www.w3.org/1999/xlink" xml:space="preserve" onload="init(evt)">
<style type="text/css"><![CDATA[
.edge:hover path { stroke: red; }
.edge:hover polygon { stroke: red; fill: red; }
]]></style>
<script type="text/javascript"><![CDATA[
var edges = document.getElementsByTagName('g');
if (edges && edges.length) {
  for (var i=0;i<edges.length;i++) {
    if (edges[i].id.substr(0,4)=='edge') {
      edges[i].setAttribute('class','edge');
    }
  }
}
]]></script>
        <defs>
                <circle id="rim" cx="0" cy="0" r="7"/>
                <circle id="rim2" cx="0" cy="0" r="3.5"/>
                <g id="zoomPlus">
                        <use xlink:href="#rim" fill="#404040">
                                <set attributeName="fill" to="#808080" begin="zoomplus.mouseover" end="zoomplus.mouseout"/>
                        </use>
                        <path d="M-4,0h8M0,-4v8" fill="none" stroke="white" stroke-width="1.5" pointer-events="none"/>
                </g>
                <g id="zoomMin">
                        <use xlink:href="#rim" fill="#404040">
                                <set attributeName="fill" to="#808080" begin="zoomminus.mouseover" end="zoomminus.mouseout"/>
                        </use>
                        <path d="M-4,0h8" fill="none" stroke="white" stroke-width="1.5" pointer-events="none"/>
                </g>
                <g id="dirArrow">
                        <path fill="none" stroke="white" stroke-width="1.5" d="M0,-3.0v7 M-2.5,-0.5L0,-3.0L2.5,-0.5"/>
                </g>
               <g id="resetDef">
                       <use xlink:href="#rim2" fill="#404040">
                               <set attributeName="fill" to="#808080" begin="reset.mouseover" end="reset.mouseout"/>
                       </use>
               </g>
        </defs>

<script type="text/javascript">
var viewWidth = 1125;
var viewHeight = 170;
var sectionId = 'dynsection-13';
</script>
<script xlink:href="svgpan.js"/>
<svg id="graph" class="graph">
<g id="viewport">
<title>panda::Jet::datastore::setAddress</title>
<polygon fill="white" stroke="none" points="-4,4 -4,-166 1120.58,-166 1120.58,4 -4,4"/>
<!-- Node1 -->
<g id="node1" class="node"><title>Node1</title>
<polygon fill="#bfbfbf" stroke="black" points="2.84217e-14,-99.5 2.84217e-14,-131.5 109.931,-131.5 109.931,-99.5 2.84217e-14,-99.5"/>
<text text-anchor="start" x="8" y="-118.5" font-family="Helvetica,sans-Serif" font-size="10.00">panda::Jet::datastore</text>
<text text-anchor="middle" x="54.9655" y="-106.5" font-family="Helvetica,sans-Serif" font-size="10.00">::setAddress</text>
</g>
<!-- Node2 -->
<g id="node2" class="node"><title>Node2</title>
<g id="a_node2"><a xlink:href="structpanda_1_1MicroJet_1_1datastore.html#a475b19becb4a39eb0248e8b9c785feb3" target="_top" xlink:title="panda::MicroJet::datastore\l::setAddress">
<polygon fill="white" stroke="black" points="145.931,-77.5 145.931,-109.5 280.298,-109.5 280.298,-77.5 145.931,-77.5"/>
<text text-anchor="start" x="153.931" y="-96.5" font-family="Helvetica,sans-Serif" font-size="10.00">panda::MicroJet::datastore</text>
<text text-anchor="middle" x="213.114" y="-84.5" font-family="Helvetica,sans-Serif" font-size="10.00">::setAddress</text>
</a>
</g>
</g>
<!-- Node1&#45;&gt;Node2 -->
<g id="edge1" class="edge"><title>Node1&#45;&gt;Node2</title>
<path fill="none" stroke="midnightblue" d="M110.141,-107.867C118.434,-106.699 127.126,-105.474 135.79,-104.254"/>
<polygon fill="midnightblue" stroke="midnightblue" points="136.507,-107.687 145.921,-102.826 135.53,-100.756 136.507,-107.687"/>
</g>
<!-- Node6 -->
<g id="node6" class="node"><title>Node6</title>
<g id="a_node6"><a xlink:href="namespacepanda_1_1utils.html#abf9c62e588560197c2bae9932e6a6e05" target="_top" xlink:title="Set address. ">
<polygon fill="white" stroke="black" points="659.812,-71.5 659.812,-91.5 782.512,-91.5 782.512,-71.5 659.812,-71.5"/>
<text text-anchor="middle" x="721.162" y="-78.5" font-family="Helvetica,sans-Serif" font-size="10.00">panda::utils::setAddress</text>
</a>
</g>
</g>
<!-- Node1&#45;&gt;Node6 -->
<g id="edge16" class="edge"><title>Node1&#45;&gt;Node6</title>
<path fill="none" stroke="midnightblue" d="M110.187,-118.301C121.967,-118.8 134.364,-119.243 145.931,-119.5 356.976,-124.189 410.867,-124.495 620.479,-99.5 633.768,-97.9153 647.965,-95.6821 661.356,-93.3261"/>
<polygon fill="midnightblue" stroke="midnightblue" points="662.193,-96.7317 671.411,-91.5091 660.948,-89.8432 662.193,-96.7317"/>
</g>
<!-- Node3 -->
<g id="node3" class="node"><title>Node3</title>
<g id="a_node3"><a xlink:href="structpanda_1_1ParticleM_1_1datastore.html#ab9f9e7afb145c12941baa10892ed1811" target="_top" xlink:title="panda::ParticleM::datastore\l::setAddress">
<polygon fill="white" stroke="black" points="316.298,-39.5 316.298,-71.5 454.553,-71.5 454.553,-39.5 316.298,-39.5"/>
<text text-anchor="start" x="324.298" y="-58.5" font-family="Helvetica,sans-Serif" font-size="10.00">panda::ParticleM::datastore</text>
<text text-anchor="middle" x="385.425" y="-46.5" font-family="Helvetica,sans-Serif" font-size="10.00">::setAddress</text>
</a>
</g>
</g>
<!-- Node2&#45;&gt;Node3 -->
<g id="edge2" class="edge"><title>Node2&#45;&gt;Node3</title>
<path fill="none" stroke="midnightblue" d="M280.449,-78.6994C288.84,-76.8271 297.488,-74.8976 306.044,-72.9885"/>
<polygon fill="midnightblue" stroke="midnightblue" points="307.028,-76.3552 316.026,-70.7615 305.503,-69.5232 307.028,-76.3552"/>
</g>
<!-- Node2&#45;&gt;Node6 -->
<g id="edge15" class="edge"><title>Node2&#45;&gt;Node6</title>
<path fill="none" stroke="midnightblue" d="M280.531,-91.925C376.097,-89.6589 551.629,-85.4965 649.5,-83.1756"/>
<polygon fill="midnightblue" stroke="midnightblue" points="649.678,-86.6725 659.592,-82.9363 649.512,-79.6745 649.678,-86.6725"/>
</g>
<!-- Node4 -->
<g id="node4" class="node"><title>Node4</title>
<g id="a_node4"><a xlink:href="structpanda_1_1Particle_1_1datastore.html#a3e4a1f8d223d8378ef2b92a6d4ccd2b0" target="_top" xlink:title="panda::Particle::datastore\l::setAddress">
<polygon fill="white" stroke="black" points="490.553,-1.5 490.553,-33.5 620.479,-33.5 620.479,-1.5 490.553,-1.5"/>
<text text-anchor="start" x="498.553" y="-20.5" font-family="Helvetica,sans-Serif" font-size="10.00">panda::Particle::datastore</text>
<text text-anchor="middle" x="555.516" y="-8.5" font-family="Helvetica,sans-Serif" font-size="10.00">::setAddress</text>
</a>
</g>
</g>
<!-- Node3&#45;&gt;Node4 -->
<g id="edge3" class="edge"><title>Node3&#45;&gt;Node4</title>
<path fill="none" stroke="midnightblue" d="M454.794,-40.0439C463.287,-38.124 472.001,-36.154 480.573,-34.2162"/>
<polygon fill="midnightblue" stroke="midnightblue" points="481.567,-37.58 490.549,-31.961 480.023,-30.7523 481.567,-37.58"/>
</g>
<!-- Node3&#45;&gt;Node6 -->
<g id="edge14" class="edge"><title>Node3&#45;&gt;Node6</title>
<path fill="none" stroke="midnightblue" d="M454.767,-60.8242C511.616,-65.253 592.233,-71.5336 649.67,-76.0083"/>
<polygon fill="midnightblue" stroke="midnightblue" points="649.514,-79.5066 659.755,-76.7939 650.058,-72.5277 649.514,-79.5066"/>
</g>
<!-- Node5 -->
<g id="node5" class="node"><title>Node5</title>
<g id="a_node5"><a xlink:href="structpanda_1_1ContainerElement_1_1datastore.html#ae59f1a9b346ef85225e9b3691c6728a1" target="_top" xlink:title="panda::ContainerElement\l::datastore::setAddress">
<polygon fill="white" stroke="black" points="656.479,-1.5 656.479,-33.5 785.846,-33.5 785.846,-1.5 656.479,-1.5"/>
<text text-anchor="start" x="664.479" y="-20.5" font-family="Helvetica,sans-Serif" font-size="10.00">panda::ContainerElement</text>
<text text-anchor="middle" x="721.162" y="-8.5" font-family="Helvetica,sans-Serif" font-size="10.00">::datastore::setAddress</text>
</a>
</g>
</g>
<!-- Node4&#45;&gt;Node5 -->
<g id="edge4" class="edge"><title>Node4&#45;&gt;Node5</title>
<path fill="none" stroke="midnightblue" d="M620.724,-17.5C629.063,-17.5 637.659,-17.5 646.142,-17.5"/>
<polygon fill="midnightblue" stroke="midnightblue" points="646.408,-21.0001 656.408,-17.5 646.408,-14.0001 646.408,-21.0001"/>
</g>
<!-- Node4&#45;&gt;Node6 -->
<g id="edge5" class="edge"><title>Node4&#45;&gt;Node6</title>
<path fill="none" stroke="midnightblue" d="M597.811,-33.6499C624.678,-44.1572 659.344,-57.7148 684.913,-67.7145"/>
<polygon fill="midnightblue" stroke="midnightblue" points="683.644,-70.9763 694.232,-71.359 686.194,-64.4571 683.644,-70.9763"/>
</g>
<!-- Node7 -->
<g id="node7" class="node"><title>Node7</title>
<g id="a_node7"><a xlink:href="classpanda_1_1utils_1_1BranchName.html#a13958ff4a9d554d2c057c600b4f70412" target="_top" xlink:title="Prepend the branch name with &lt;objName.&gt;. ">
<polygon fill="white" stroke="black" points="978.884,-129.5 978.884,-161.5 1109.91,-161.5 1109.91,-129.5 978.884,-129.5"/>
<text text-anchor="start" x="986.884" y="-148.5" font-family="Helvetica,sans-Serif" font-size="10.00">panda::utils::BranchName</text>
<text text-anchor="middle" x="1044.4" y="-136.5" font-family="Helvetica,sans-Serif" font-size="10.00">::fullName</text>
</a>
</g>
</g>
<!-- Node6&#45;&gt;Node7 -->
<g id="edge6" class="edge"><title>Node6&#45;&gt;Node7</title>
<path fill="none" stroke="midnightblue" d="M761.819,-91.6031C780.049,-96.1041 801.988,-101.321 821.846,-105.5 870.533,-115.747 925.581,-125.694 968.626,-133.105"/>
<polygon fill="midnightblue" stroke="midnightblue" points="968.29,-136.598 978.737,-134.838 969.472,-129.699 968.29,-136.598"/>
</g>
<!-- Node8 -->
<g id="node8" class="node"><title>Node8</title>
<g id="a_node8"><a xlink:href="namespacepanda_1_1utils.html#a01665f786d6a2acedb8f008f3fc9fc84" target="_top" xlink:title="Set status of a branch. ">
<polygon fill="white" stroke="black" points="821.846,-51.5 821.846,-71.5 936.216,-71.5 936.216,-51.5 821.846,-51.5"/>
<text text-anchor="middle" x="879.031" y="-58.5" font-family="Helvetica,sans-Serif" font-size="10.00">panda::utils::setStatus</text>
</a>
</g>
</g>
<!-- Node6&#45;&gt;Node8 -->
<g id="edge7" class="edge"><title>Node6&#45;&gt;Node8</title>
<path fill="none" stroke="midnightblue" d="M782.872,-73.7102C792.388,-72.4892 802.265,-71.2218 811.896,-69.9861"/>
<polygon fill="midnightblue" stroke="midnightblue" points="812.344,-73.4573 821.817,-68.713 811.453,-66.5142 812.344,-73.4573"/>
</g>
<!-- Node9 -->
<g id="node9" class="node"><title>Node9</title>
<g id="a_node9"><a xlink:href="classpanda_1_1utils_1_1BranchName.html#a6cc8a6df7c5b12a0221fd49773cca6a7" target="_top" xlink:title="Is the name included and not vetoed? ">
<polygon fill="white" stroke="black" points="972.216,-90.5 972.216,-110.5 1116.58,-110.5 1116.58,-90.5 972.216,-90.5"/>
<text text-anchor="middle" x="1044.4" y="-97.5" font-family="Helvetica,sans-Serif" font-size="10.00">panda::utils::BranchName::in</text>
</a>
</g>
</g>
<!-- Node6&#45;&gt;Node9 -->
<g id="edge12" class="edge"><title>Node6&#45;&gt;Node9</title>
<path fill="none" stroke="midnightblue" d="M782.584,-85.0738C833.229,-88.0692 906.002,-92.3735 961.816,-95.6747"/>
<polygon fill="midnightblue" stroke="midnightblue" points="961.841,-99.1822 972.031,-96.2789 962.255,-92.1944 961.841,-99.1822"/>
</g>
<!-- Node11 -->
<g id="node11" class="node"><title>Node11</title>
<g id="a_node11"><a xlink:href="namespacepanda_1_1utils.html#aafa411773a4b0ee829d99e6e5a0abdcd" target="_top" xlink:title="Check status of a branch. ">
<polygon fill="white" stroke="black" points="980.823,-0.5 980.823,-20.5 1107.97,-20.5 1107.97,-0.5 980.823,-0.5"/>
<text text-anchor="middle" x="1044.4" y="-7.5" font-family="Helvetica,sans-Serif" font-size="10.00">panda::utils::checkStatus</text>
</a>
</g>
</g>
<!-- Node6&#45;&gt;Node11 -->
<g id="edge13" class="edge"><title>Node6&#45;&gt;Node11</title>
<path fill="none" stroke="midnightblue" d="M743.043,-71.3852C762.869,-62.2029 793.736,-48.9872 821.846,-41.5 870.591,-28.5165 926.904,-20.7279 970.557,-16.2048"/>
<polygon fill="midnightblue" stroke="midnightblue" points="970.917,-19.6863 980.518,-15.2064 970.219,-12.7212 970.917,-19.6863"/>
</g>
<!-- Node8&#45;&gt;Node7 -->
<g id="edge10" class="edge"><title>Node8&#45;&gt;Node7</title>
<path fill="none" stroke="midnightblue" d="M893.5,-71.5422C910.956,-84.2163 942.667,-106.097 972.216,-120.5 975.925,-122.308 979.799,-124.049 983.741,-125.713"/>
<polygon fill="midnightblue" stroke="midnightblue" points="982.434,-128.96 993.017,-129.45 985.049,-122.467 982.434,-128.96"/>
</g>
<!-- Node8&#45;&gt;Node9 -->
<g id="edge8" class="edge"><title>Node8&#45;&gt;Node9</title>
<path fill="none" stroke="midnightblue" d="M922.102,-71.5435C943.254,-76.593 969.082,-82.7587 991.46,-88.1009"/>
<polygon fill="midnightblue" stroke="midnightblue" points="990.93,-91.5728 1001.47,-90.4906 992.556,-84.7641 990.93,-91.5728"/>
</g>
<!-- Node10 -->
<g id="node10" class="node"><title>Node10</title>
<g id="a_node10"><a xlink:href="classpanda_1_1utils_1_1BranchName.html#ae3332329bf2afae5ed8e7c35e5d77ffa" target="_top" xlink:title="Is the name included and vetoed? ">
<polygon fill="white" stroke="black" points="978.884,-39.5 978.884,-71.5 1109.91,-71.5 1109.91,-39.5 978.884,-39.5"/>
<text text-anchor="start" x="986.884" y="-58.5" font-family="Helvetica,sans-Serif" font-size="10.00">panda::utils::BranchName</text>
<text text-anchor="middle" x="1044.4" y="-46.5" font-family="Helvetica,sans-Serif" font-size="10.00">::vetoed</text>
</a>
</g>
</g>
<!-- Node8&#45;&gt;Node10 -->
<g id="edge9" class="edge"><title>Node8&#45;&gt;Node10</title>
<path fill="none" stroke="midnightblue" d="M936.253,-59.4351C946.604,-59.055 957.562,-58.6525 968.364,-58.2558"/>
<polygon fill="midnightblue" stroke="midnightblue" points="968.783,-61.7429 978.648,-57.8781 968.526,-54.7476 968.783,-61.7429"/>
</g>
<!-- Node8&#45;&gt;Node11 -->
<g id="edge11" class="edge"><title>Node8&#45;&gt;Node11</title>
<path fill="none" stroke="midnightblue" d="M907.288,-51.4496C925.548,-44.8624 950.188,-36.2532 972.216,-29.5 979.194,-27.3607 986.598,-25.2311 993.891,-23.2131"/>
<polygon fill="midnightblue" stroke="midnightblue" points="994.987,-26.5424 1003.72,-20.5402 993.149,-19.7878 994.987,-26.5424"/>
</g>
</g>
</svg>
        <g id="navigator" transform="translate(0 0)" fill="#404254">
                <rect fill="#f2f5e9" fill-opacity="0.5" stroke="#606060" stroke-width=".5" x="0" y="0" width="60" height="60"/>
                <use id="zoomplus" xlink:href="#zoomPlus" x="17" y="9" onmousedown="handleZoom(evt,'in')"/>
                <use id="zoomminus" xlink:href="#zoomMin" x="42" y="9" onmousedown="handleZoom(evt,'out')"/>
                <use id="reset" xlink:href="#resetDef" x="30" y="36" onmousedown="handleReset()"/>
                <g id="arrowUp" xlink:href="#dirArrow" transform="translate(30 24)" onmousedown="handlePan(0,-1)">
                  <use xlink:href="#rim" fill="#404040">
                        <set attributeName="fill" to="#808080" begin="arrowUp.mouseover" end="arrowUp.mouseout"/>
                  </use>
                  <path fill="none" stroke="white" stroke-width="1.5" d="M0,-3.0v7 M-2.5,-0.5L0,-3.0L2.5,-0.5"/>
                </g>
                <g id="arrowRight" xlink:href="#dirArrow" transform="rotate(90) translate(36 -43)" onmousedown="handlePan(1,0)">
                  <use xlink:href="#rim" fill="#404040">
                        <set attributeName="fill" to="#808080" begin="arrowRight.mouseover" end="arrowRight.mouseout"/>
                  </use>
                  <path fill="none" stroke="white" stroke-width="1.5" d="M0,-3.0v7 M-2.5,-0.5L0,-3.0L2.5,-0.5"/>
                </g>
                <g id="arrowDown" xlink:href="#dirArrow" transform="rotate(180) translate(-30 -48)" onmousedown="handlePan(0,1)">
                  <use xlink:href="#rim" fill="#404040">
                        <set attributeName="fill" to="#808080" begin="arrowDown.mouseover" end="arrowDown.mouseout"/>
                  </use>
                  <path fill="none" stroke="white" stroke-width="1.5" d="M0,-3.0v7 M-2.5,-0.5L0,-3.0L2.5,-0.5"/>
                </g>
                <g id="arrowLeft" xlink:href="#dirArrow" transform="rotate(270) translate(-36 17)" onmousedown="handlePan(-1,0)">
                  <use xlink:href="#rim" fill="#404040">
                        <set attributeName="fill" to="#808080" begin="arrowLeft.mouseover" end="arrowLeft.mouseout"/>
                  </use>
                  <path fill="none" stroke="white" stroke-width="1.5" d="M0,-3.0v7 M-2.5,-0.5L0,-3.0L2.5,-0.5"/>
                </g>
        </g>
        <svg viewBox="0 0 15 15" width="100%" height="30px" preserveAspectRatio="xMaxYMin meet">
         <g id="arrow_out" transform="scale(0.3 0.3)">
          <a xlink:href="structpanda_1_1Jet_1_1datastore_aba38557e272994b9913ffbe323892d7d_cgraph_org.svg" target="_base">
           <rect id="button" ry="5" rx="5" y="6" x="6" height="38" width="38"
                fill="#f2f5e9" fill-opacity="0.5" stroke="#606060" stroke-width="1.0"/>
           <path id="arrow"
             d="M 11.500037,31.436501 C 11.940474,20.09759 22.043105,11.32322 32.158766,21.979434 L 37.068811,17.246167 C 37.068811,17.246167 37.088388,32 37.088388,32 L 22.160133,31.978069 C 22.160133,31.978069 26.997745,27.140456 26.997745,27.140456 C 18.528582,18.264221 13.291696,25.230495 11.500037,31.436501 z"
             style="fill:#404040;"/>
          </a>
         </g>
        </svg>
</svg>
