<?xml version="1.0" encoding="UTF-8" standalone="no"?>
<!DOCTYPE svg PUBLIC "-//W3C//DTD SVG 1.1//EN"
 "http://www.w3.org/Graphics/SVG/1.1/DTD/svg11.dtd">
<!-- Generated by graphviz version 2.38.0 (20140413.2041)
 -->
<!-- Title: panda::FatJet::datastore::resetAddress Pages: 1 -->
<svg width="1123pt" height="184pt"
 viewBox="0.00 0.00 1123.47 183.50" xmlns="http://www.w3.org/2000/svg" xmlns:xlink="http://www.w3.org/1999/xlink">
<g id="graph0" class="graph" transform="scale(1 1) rotate(0) translate(4 179.5)">
<title>panda::FatJet::datastore::resetAddress</title>
<polygon fill="white" stroke="none" points="-4,4 -4,-179.5 1119.47,-179.5 1119.47,4 -4,4"/>
<!-- Node1 -->
<g id="node1" class="node"><title>Node1</title>
<polygon fill="#bfbfbf" stroke="black" points="7.81597e-14,-6 7.81597e-14,-38 124.378,-38 124.378,-6 7.81597e-14,-6"/>
<text text-anchor="start" x="8" y="-25" font-family="Helvetica,sans-Serif" font-size="10.00">panda::FatJet::datastore</text>
<text text-anchor="middle" x="62.189" y="-13" font-family="Helvetica,sans-Serif" font-size="10.00">::resetAddress</text>
</g>
<!-- Node2 -->
<g id="node2" class="node"><title>Node2</title>
<g id="a_node2"><a xlink:href="structpanda_1_1Jet_1_1datastore.html#a665fb876fb18c28c2828555baaa9ed7c" target="_top" xlink:title="panda::Jet::datastore\l::resetAddress">
<polygon fill="white" stroke="black" points="160.378,-29 160.378,-61 270.309,-61 270.309,-29 160.378,-29"/>
<text text-anchor="start" x="168.378" y="-48" font-family="Helvetica,sans-Serif" font-size="10.00">panda::Jet::datastore</text>
<text text-anchor="middle" x="215.344" y="-36" font-family="Helvetica,sans-Serif" font-size="10.00">::resetAddress</text>
</a>
</g>
</g>
<!-- Node1&#45;&gt;Node2 -->
<g id="edge1" class="edge"><title>Node1&#45;&gt;Node2</title>
<path fill="none" stroke="midnightblue" d="M124.669,-31.355C133.037,-32.6282 141.643,-33.9378 150.059,-35.2183"/>
<polygon fill="midnightblue" stroke="midnightblue" points="149.787,-38.7172 160.2,-36.7614 150.841,-31.7969 149.787,-38.7172"/>
</g>
<!-- Node7 -->
<g id="node7" class="node"><title>Node7</title>
<g id="a_node7"><a xlink:href="namespacepanda_1_1utils.html#a82a8530e64fbdf917cf9b8659065f98b" target="_top" xlink:title="panda::utils::resetAddress">
<polygon fill="white" stroke="black" points="816.857,-66 816.857,-86 948.445,-86 948.445,-66 816.857,-66"/>
<text text-anchor="middle" x="882.651" y="-73" font-family="Helvetica,sans-Serif" font-size="10.00">panda::utils::resetAddress</text>
</a>
</g>
</g>
<!-- Node1&#45;&gt;Node7 -->
<g id="edge11" class="edge"><title>Node1&#45;&gt;Node7</title>
<path fill="none" stroke="midnightblue" d="M124.424,-15.0693C186.759,-8.62063 286.223,-0 372.493,-0 372.493,-0 372.493,-0 546.803,-0 658.328,-0 785.68,-40.5893 846.164,-62.4425"/>
<polygon fill="midnightblue" stroke="midnightblue" points="845.036,-65.7566 855.63,-65.9078 847.442,-59.1832 845.036,-65.7566"/>
</g>
<!-- Node3 -->
<g id="node3" class="node"><title>Node3</title>
<g id="a_node3"><a xlink:href="structpanda_1_1MicroJet_1_1datastore.html#a1e01e1fb6d728a2497fc29a9fef3c79e" target="_top" xlink:title="panda::MicroJet::datastore\l::resetAddress">
<polygon fill="white" stroke="black" points="306.309,-67 306.309,-99 440.676,-99 440.676,-67 306.309,-67"/>
<text text-anchor="start" x="314.309" y="-86" font-family="Helvetica,sans-Serif" font-size="10.00">panda::MicroJet::datastore</text>
<text text-anchor="middle" x="373.493" y="-74" font-family="Helvetica,sans-Serif" font-size="10.00">::resetAddress</text>
</a>
</g>
</g>
<!-- Node2&#45;&gt;Node3 -->
<g id="edge2" class="edge"><title>Node2&#45;&gt;Node3</title>
<path fill="none" stroke="midnightblue" d="M270.519,-58.1839C278.967,-60.2398 287.828,-62.3962 296.651,-64.5433"/>
<polygon fill="midnightblue" stroke="midnightblue" points="296.028,-67.9938 306.572,-66.9577 297.683,-61.1923 296.028,-67.9938"/>
</g>
<!-- Node2&#45;&gt;Node7 -->
<g id="edge10" class="edge"><title>Node2&#45;&gt;Node7</title>
<path fill="none" stroke="midnightblue" d="M270.506,-47.5237C388.882,-53.0394 670.878,-66.179 806.402,-72.4938"/>
<polygon fill="midnightblue" stroke="midnightblue" points="806.538,-76.0038 816.69,-72.9731 806.864,-69.0114 806.538,-76.0038"/>
</g>
<!-- Node4 -->
<g id="node4" class="node"><title>Node4</title>
<g id="a_node4"><a xlink:href="structpanda_1_1ParticleM_1_1datastore.html#a6ba00e058ede77709ec931108ccf9bb8" target="_top" xlink:title="panda::ParticleM::datastore\l::resetAddress">
<polygon fill="white" stroke="black" points="476.676,-105 476.676,-137 614.931,-137 614.931,-105 476.676,-105"/>
<text text-anchor="start" x="484.676" y="-124" font-family="Helvetica,sans-Serif" font-size="10.00">panda::ParticleM::datastore</text>
<text text-anchor="middle" x="545.803" y="-112" font-family="Helvetica,sans-Serif" font-size="10.00">::resetAddress</text>
</a>
</g>
</g>
<!-- Node3&#45;&gt;Node4 -->
<g id="edge3" class="edge"><title>Node3&#45;&gt;Node4</title>
<path fill="none" stroke="midnightblue" d="M440.827,-97.8006C449.218,-99.6729 457.866,-101.602 466.422,-103.512"/>
<polygon fill="midnightblue" stroke="midnightblue" points="465.881,-106.977 476.404,-105.739 467.406,-100.145 465.881,-106.977"/>
</g>
<!-- Node3&#45;&gt;Node7 -->
<g id="edge9" class="edge"><title>Node3&#45;&gt;Node7</title>
<path fill="none" stroke="midnightblue" d="M440.795,-82.0849C535.058,-80.7838 707.33,-78.406 806.31,-77.0399"/>
<polygon fill="midnightblue" stroke="midnightblue" points="806.586,-80.5365 816.537,-76.8987 806.489,-73.5372 806.586,-80.5365"/>
</g>
<!-- Node5 -->
<g id="node5" class="node"><title>Node5</title>
<g id="a_node5"><a xlink:href="structpanda_1_1Particle_1_1datastore.html#a4a04e4dd473787da09b945659e07f0ec" target="_top" xlink:title="panda::Particle::datastore\l::resetAddress">
<polygon fill="white" stroke="black" points="650.931,-143 650.931,-175 780.857,-175 780.857,-143 650.931,-143"/>
<text text-anchor="start" x="658.931" y="-162" font-family="Helvetica,sans-Serif" font-size="10.00">panda::Particle::datastore</text>
<text text-anchor="middle" x="715.894" y="-150" font-family="Helvetica,sans-Serif" font-size="10.00">::resetAddress</text>
</a>
</g>
</g>
<!-- Node4&#45;&gt;Node5 -->
<g id="edge4" class="edge"><title>Node4&#45;&gt;Node5</title>
<path fill="none" stroke="midnightblue" d="M615.172,-136.456C623.665,-138.376 632.379,-140.346 640.951,-142.284"/>
<polygon fill="midnightblue" stroke="midnightblue" points="640.401,-145.748 650.927,-144.539 641.945,-138.92 640.401,-145.748"/>
</g>
<!-- Node4&#45;&gt;Node7 -->
<g id="edge8" class="edge"><title>Node4&#45;&gt;Node7</title>
<path fill="none" stroke="midnightblue" d="M615.181,-112.059C661.863,-105.927 725.11,-97.5633 780.857,-90 789.162,-88.8733 797.85,-87.6834 806.493,-86.4925"/>
<polygon fill="midnightblue" stroke="midnightblue" points="807.168,-89.9327 816.595,-85.0977 806.21,-82.9985 807.168,-89.9327"/>
</g>
<!-- Node6 -->
<g id="node6" class="node"><title>Node6</title>
<g id="a_node6"><a xlink:href="structpanda_1_1ContainerElement_1_1datastore.html#a1f296453b1f2e440d9b4be3388069d43" target="_top" xlink:title="panda::ContainerElement\l::datastore::resetAddress">
<polygon fill="white" stroke="black" points="817.968,-143 817.968,-175 947.335,-175 947.335,-143 817.968,-143"/>
<text text-anchor="start" x="825.968" y="-162" font-family="Helvetica,sans-Serif" font-size="10.00">panda::ContainerElement</text>
<text text-anchor="middle" x="882.651" y="-150" font-family="Helvetica,sans-Serif" font-size="10.00">::datastore::resetAddress</text>
</a>
</g>
</g>
<!-- Node5&#45;&gt;Node6 -->
<g id="edge5" class="edge"><title>Node5&#45;&gt;Node6</title>
<path fill="none" stroke="midnightblue" d="M781.065,-159C789.862,-159 798.95,-159 807.901,-159"/>
<polygon fill="midnightblue" stroke="midnightblue" points="807.926,-162.5 817.926,-159 807.926,-155.5 807.926,-162.5"/>
</g>
<!-- Node5&#45;&gt;Node7 -->
<g id="edge6" class="edge"><title>Node5&#45;&gt;Node7</title>
<path fill="none" stroke="midnightblue" d="M750.5,-142.908C760.311,-138.157 771.034,-132.913 780.857,-128 805.485,-115.681 833.286,-101.303 853.443,-90.792"/>
<polygon fill="midnightblue" stroke="midnightblue" points="855.158,-93.8447 862.401,-86.1125 851.917,-87.6401 855.158,-93.8447"/>
</g>
<!-- Node8 -->
<g id="node8" class="node"><title>Node8</title>
<g id="a_node8"><a xlink:href="classpanda_1_1utils_1_1BranchName.html#a13958ff4a9d554d2c057c600b4f70412" target="_top" xlink:title="Prepend the branch name with &lt;objName.&gt;. ">
<polygon fill="white" stroke="black" points="984.445,-60 984.445,-92 1115.47,-92 1115.47,-60 984.445,-60"/>
<text text-anchor="start" x="992.445" y="-79" font-family="Helvetica,sans-Serif" font-size="10.00">panda::utils::BranchName</text>
<text text-anchor="middle" x="1049.96" y="-67" font-family="Helvetica,sans-Serif" font-size="10.00">::fullName</text>
</a>
</g>
</g>
<!-- Node7&#45;&gt;Node8 -->
<g id="edge7" class="edge"><title>Node7&#45;&gt;Node8</title>
<path fill="none" stroke="midnightblue" d="M948.511,-76C956.962,-76 965.675,-76 974.271,-76"/>
<polygon fill="midnightblue" stroke="midnightblue" points="974.286,-79.5001 984.286,-76 974.286,-72.5001 974.286,-79.5001"/>
</g>
</g>
</svg>
