<?xml version="1.0" encoding="UTF-8" standalone="no"?>
<!DOCTYPE svg PUBLIC "-//W3C//DTD SVG 1.1//EN"
 "http://www.w3.org/Graphics/SVG/1.1/DTD/svg11.dtd">
<!-- Generated by graphviz version 2.38.0 (20140413.2041)
 -->
<!-- Title: panda::MicroJet::datastore::resetAddress Pages: 1 -->
<svg width="817pt" height="102pt"
 viewBox="0.00 0.00 817.16 102.00" xmlns="http://www.w3.org/2000/svg" xmlns:xlink="http://www.w3.org/1999/xlink">
<g id="graph0" class="graph" transform="scale(1 1) rotate(0) translate(4 98)">
<title>panda::MicroJet::datastore::resetAddress</title>
<polygon fill="white" stroke="none" points="-4,4 -4,-98 813.164,-98 813.164,4 -4,4"/>
<!-- Node1 -->
<g id="node1" class="node"><title>Node1</title>
<polygon fill="#bfbfbf" stroke="black" points="-1.42109e-14,-0.5 -1.42109e-14,-32.5 134.367,-32.5 134.367,-0.5 -1.42109e-14,-0.5"/>
<text text-anchor="start" x="8" y="-19.5" font-family="Helvetica,sans-Serif" font-size="10.00">panda::MicroJet::datastore</text>
<text text-anchor="middle" x="67.1835" y="-7.5" font-family="Helvetica,sans-Serif" font-size="10.00">::resetAddress</text>
</g>
<!-- Node2 -->
<g id="node2" class="node"><title>Node2</title>
<g id="a_node2"><a xlink:href="structpanda_1_1ParticleM_1_1datastore.html#a6ba00e058ede77709ec931108ccf9bb8" target="_top" xlink:title="panda::ParticleM::datastore\l::resetAddress">
<polygon fill="white" stroke="black" points="170.367,-23.5 170.367,-55.5 308.622,-55.5 308.622,-23.5 170.367,-23.5"/>
<text text-anchor="start" x="178.367" y="-42.5" font-family="Helvetica,sans-Serif" font-size="10.00">panda::ParticleM::datastore</text>
<text text-anchor="middle" x="239.494" y="-30.5" font-family="Helvetica,sans-Serif" font-size="10.00">::resetAddress</text>
</a>
</g>
</g>
<!-- Node1&#45;&gt;Node2 -->
<g id="edge1" class="edge"><title>Node1&#45;&gt;Node2</title>
<path fill="none" stroke="midnightblue" d="M134.518,-25.4583C142.909,-26.5915 151.557,-27.7594 160.113,-28.9149"/>
<polygon fill="midnightblue" stroke="midnightblue" points="159.716,-32.3929 170.095,-30.2628 160.653,-25.4559 159.716,-32.3929"/>
</g>
<!-- Node5 -->
<g id="node5" class="node"><title>Node5</title>
<g id="a_node5"><a xlink:href="namespacepanda_1_1utils.html#a82a8530e64fbdf917cf9b8659065f98b" target="_top" xlink:title="panda::utils::resetAddress">
<polygon fill="white" stroke="black" points="510.548,-22.5 510.548,-42.5 642.136,-42.5 642.136,-22.5 510.548,-22.5"/>
<text text-anchor="middle" x="576.342" y="-29.5" font-family="Helvetica,sans-Serif" font-size="10.00">panda::utils::resetAddress</text>
</a>
</g>
</g>
<!-- Node1&#45;&gt;Node5 -->
<g id="edge7" class="edge"><title>Node1&#45;&gt;Node5</title>
<path fill="none" stroke="midnightblue" d="M134.413,-14.2721C146.379,-13.9503 158.743,-13.6706 170.367,-13.5 231.807,-12.5983 247.214,-11.3156 308.622,-13.5 373.454,-15.8063 446.983,-21.2562 500.395,-25.7306"/>
<polygon fill="midnightblue" stroke="midnightblue" points="500.204,-29.2269 510.463,-26.5824 500.794,-22.2518 500.204,-29.2269"/>
</g>
<!-- Node3 -->
<g id="node3" class="node"><title>Node3</title>
<g id="a_node3"><a xlink:href="structpanda_1_1Particle_1_1datastore.html#a4a04e4dd473787da09b945659e07f0ec" target="_top" xlink:title="panda::Particle::datastore\l::resetAddress">
<polygon fill="white" stroke="black" points="344.622,-61.5 344.622,-93.5 474.548,-93.5 474.548,-61.5 344.622,-61.5"/>
<text text-anchor="start" x="352.622" y="-80.5" font-family="Helvetica,sans-Serif" font-size="10.00">panda::Particle::datastore</text>
<text text-anchor="middle" x="409.585" y="-68.5" font-family="Helvetica,sans-Serif" font-size="10.00">::resetAddress</text>
</a>
</g>
</g>
<!-- Node2&#45;&gt;Node3 -->
<g id="edge2" class="edge"><title>Node2&#45;&gt;Node3</title>
<path fill="none" stroke="midnightblue" d="M308.863,-54.9561C317.356,-56.876 326.07,-58.846 334.642,-60.7838"/>
<polygon fill="midnightblue" stroke="midnightblue" points="334.092,-64.2477 344.618,-63.039 335.636,-57.42 334.092,-64.2477"/>
</g>
<!-- Node2&#45;&gt;Node5 -->
<g id="edge6" class="edge"><title>Node2&#45;&gt;Node5</title>
<path fill="none" stroke="midnightblue" d="M308.659,-38.075C364.309,-36.9116 442.858,-35.2696 500.294,-34.0689"/>
<polygon fill="midnightblue" stroke="midnightblue" points="500.477,-37.5659 510.401,-33.8576 500.33,-30.5675 500.477,-37.5659"/>
</g>
<!-- Node4 -->
<g id="node4" class="node"><title>Node4</title>
<g id="a_node4"><a xlink:href="structpanda_1_1ContainerElement_1_1datastore.html#a1f296453b1f2e440d9b4be3388069d43" target="_top" xlink:title="panda::ContainerElement\l::datastore::resetAddress">
<polygon fill="white" stroke="black" points="511.658,-61.5 511.658,-93.5 641.025,-93.5 641.025,-61.5 511.658,-61.5"/>
<text text-anchor="start" x="519.658" y="-80.5" font-family="Helvetica,sans-Serif" font-size="10.00">panda::ContainerElement</text>
<text text-anchor="middle" x="576.342" y="-68.5" font-family="Helvetica,sans-Serif" font-size="10.00">::datastore::resetAddress</text>
</a>
</g>
</g>
<!-- Node3&#45;&gt;Node4 -->
<g id="edge3" class="edge"><title>Node3&#45;&gt;Node4</title>
<path fill="none" stroke="midnightblue" d="M474.756,-77.5C483.553,-77.5 492.641,-77.5 501.592,-77.5"/>
<polygon fill="midnightblue" stroke="midnightblue" points="501.617,-81.0001 511.617,-77.5 501.617,-74.0001 501.617,-81.0001"/>
</g>
<!-- Node3&#45;&gt;Node5 -->
<g id="edge4" class="edge"><title>Node3&#45;&gt;Node5</title>
<path fill="none" stroke="midnightblue" d="M469.601,-61.3811C488.922,-56.1039 510.112,-50.3163 528.416,-45.3168"/>
<polygon fill="midnightblue" stroke="midnightblue" points="529.534,-48.6399 538.258,-42.6287 527.689,-41.8872 529.534,-48.6399"/>
</g>
<!-- Node6 -->
<g id="node6" class="node"><title>Node6</title>
<g id="a_node6"><a xlink:href="classpanda_1_1utils_1_1BranchName.html#a13958ff4a9d554d2c057c600b4f70412" target="_top" xlink:title="Prepend the branch name with &lt;objName.&gt;. ">
<polygon fill="white" stroke="black" points="678.136,-16.5 678.136,-48.5 809.164,-48.5 809.164,-16.5 678.136,-16.5"/>
<text text-anchor="start" x="686.136" y="-35.5" font-family="Helvetica,sans-Serif" font-size="10.00">panda::utils::BranchName</text>
<text text-anchor="middle" x="743.65" y="-23.5" font-family="Helvetica,sans-Serif" font-size="10.00">::fullName</text>
</a>
</g>
</g>
<!-- Node5&#45;&gt;Node6 -->
<g id="edge5" class="edge"><title>Node5&#45;&gt;Node6</title>
<path fill="none" stroke="midnightblue" d="M642.202,-32.5C650.653,-32.5 659.366,-32.5 667.962,-32.5"/>
<polygon fill="midnightblue" stroke="midnightblue" points="667.977,-36.0001 677.977,-32.5 667.977,-29.0001 667.977,-36.0001"/>
</g>
</g>
</svg>
