<?xml version="1.0" encoding="UTF-8" standalone="no"?>
<!DOCTYPE svg PUBLIC "-//W3C//DTD SVG 1.1//EN"
 "http://www.w3.org/Graphics/SVG/1.1/DTD/svg11.dtd">
<!-- Generated by graphviz version 2.38.0 (20140413.2041)
 -->
<!-- Title: panda::Photon::datastore::book Pages: 1 -->
<svg width="648pt" height="108pt"
 viewBox="0.00 0.00 647.93 108.00" xmlns="http://www.w3.org/2000/svg" xmlns:xlink="http://www.w3.org/1999/xlink">
<g id="graph0" class="graph" transform="scale(1 1) rotate(0) translate(4 104)">
<title>panda::Photon::datastore::book</title>
<polygon fill="white" stroke="none" points="-4,4 -4,-104 643.934,-104 643.934,4 -4,4"/>
<!-- Node1 -->
<g id="node1" class="node"><title>Node1</title>
<polygon fill="#bfbfbf" stroke="black" points="2.84217e-14,-44.5 2.84217e-14,-76.5 128.277,-76.5 128.277,-44.5 2.84217e-14,-44.5"/>
<text text-anchor="start" x="8" y="-63.5" font-family="Helvetica,sans-Serif" font-size="10.00">panda::Photon::datastore</text>
<text text-anchor="middle" x="64.1385" y="-51.5" font-family="Helvetica,sans-Serif" font-size="10.00">::book</text>
</g>
<!-- Node2 -->
<g id="node2" class="node"><title>Node2</title>
<g id="a_node2"><a xlink:href="structpanda_1_1Particle_1_1datastore.html#af75a5d8b8a18ee09ce98ab37888b4404" target="_top" xlink:title="panda::Particle::datastore\l::book">
<polygon fill="white" stroke="black" points="164.277,-67.5 164.277,-99.5 294.203,-99.5 294.203,-67.5 164.277,-67.5"/>
<text text-anchor="start" x="172.277" y="-86.5" font-family="Helvetica,sans-Serif" font-size="10.00">panda::Particle::datastore</text>
<text text-anchor="middle" x="229.24" y="-74.5" font-family="Helvetica,sans-Serif" font-size="10.00">::book</text>
</a>
</g>
</g>
<!-- Node1&#45;&gt;Node2 -->
<g id="edge1" class="edge"><title>Node1&#45;&gt;Node2</title>
<path fill="none" stroke="midnightblue" d="M128.665,-69.4583C137.022,-70.6368 145.646,-71.8529 154.16,-73.0535"/>
<polygon fill="midnightblue" stroke="midnightblue" points="153.691,-76.5219 164.082,-74.4526 154.668,-69.5905 153.691,-76.5219"/>
</g>
<!-- Node4 -->
<g id="node4" class="node"><title>Node4</title>
<g id="a_node4"><a xlink:href="namespacepanda_1_1utils.html#aaa6c7cd5892388e6ffdf713b11abf793" target="_top" xlink:title="Book the branch. ">
<polygon fill="white" stroke="black" points="347.704,-28.5 347.704,-48.5 442.069,-48.5 442.069,-28.5 347.704,-28.5"/>
<text text-anchor="middle" x="394.887" y="-35.5" font-family="Helvetica,sans-Serif" font-size="10.00">panda::utils::book</text>
</a>
</g>
</g>
<!-- Node1&#45;&gt;Node4 -->
<g id="edge6" class="edge"><title>Node1&#45;&gt;Node4</title>
<path fill="none" stroke="midnightblue" d="M128.524,-56.2582C189.073,-52.2062 279.471,-46.1567 337.556,-42.2696"/>
<polygon fill="midnightblue" stroke="midnightblue" points="337.912,-45.7538 347.656,-41.5938 337.444,-38.7694 337.912,-45.7538"/>
</g>
<!-- Node3 -->
<g id="node3" class="node"><title>Node3</title>
<g id="a_node3"><a xlink:href="structpanda_1_1ContainerElement_1_1datastore.html#a3a4062043d9a913acd4056ab1cf5a93f" target="_top" xlink:title="panda::ContainerElement\l::datastore::book">
<polygon fill="white" stroke="black" points="330.203,-67.5 330.203,-99.5 459.57,-99.5 459.57,-67.5 330.203,-67.5"/>
<text text-anchor="start" x="338.203" y="-86.5" font-family="Helvetica,sans-Serif" font-size="10.00">panda::ContainerElement</text>
<text text-anchor="middle" x="394.887" y="-74.5" font-family="Helvetica,sans-Serif" font-size="10.00">::datastore::book</text>
</a>
</g>
</g>
<!-- Node2&#45;&gt;Node3 -->
<g id="edge2" class="edge"><title>Node2&#45;&gt;Node3</title>
<path fill="none" stroke="midnightblue" d="M294.448,-83.5C302.787,-83.5 311.383,-83.5 319.866,-83.5"/>
<polygon fill="midnightblue" stroke="midnightblue" points="320.132,-87.0001 330.132,-83.5 320.132,-80.0001 320.132,-87.0001"/>
</g>
<!-- Node2&#45;&gt;Node4 -->
<g id="edge3" class="edge"><title>Node2&#45;&gt;Node4</title>
<path fill="none" stroke="midnightblue" d="M288.858,-67.3811C308.049,-62.1039 329.096,-56.3163 347.277,-51.3168"/>
<polygon fill="midnightblue" stroke="midnightblue" points="348.339,-54.6549 357.053,-48.6287 346.483,-47.9054 348.339,-54.6549"/>
</g>
<!-- Node5 -->
<g id="node5" class="node"><title>Node5</title>
<g id="a_node5"><a xlink:href="classpanda_1_1utils_1_1BranchName.html#a6cc8a6df7c5b12a0221fd49773cca6a7" target="_top" xlink:title="Is the name included and not vetoed? ">
<polygon fill="white" stroke="black" points="495.57,-51.5 495.57,-71.5 639.934,-71.5 639.934,-51.5 495.57,-51.5"/>
<text text-anchor="middle" x="567.752" y="-58.5" font-family="Helvetica,sans-Serif" font-size="10.00">panda::utils::BranchName::in</text>
</a>
</g>
</g>
<!-- Node4&#45;&gt;Node5 -->
<g id="edge4" class="edge"><title>Node4&#45;&gt;Node5</title>
<path fill="none" stroke="midnightblue" d="M442.125,-44.7241C455.455,-46.5185 470.411,-48.5316 485.21,-50.5238"/>
<polygon fill="midnightblue" stroke="midnightblue" points="485.032,-54.0312 495.409,-51.8966 485.965,-47.0938 485.032,-54.0312"/>
</g>
<!-- Node6 -->
<g id="node6" class="node"><title>Node6</title>
<g id="a_node6"><a xlink:href="classpanda_1_1utils_1_1BranchName.html#a13958ff4a9d554d2c057c600b4f70412" target="_top" xlink:title="Prepend the branch name with &lt;objName.&gt;. ">
<polygon fill="white" stroke="black" points="502.238,-0.5 502.238,-32.5 633.266,-32.5 633.266,-0.5 502.238,-0.5"/>
<text text-anchor="start" x="510.238" y="-19.5" font-family="Helvetica,sans-Serif" font-size="10.00">panda::utils::BranchName</text>
<text text-anchor="middle" x="567.752" y="-7.5" font-family="Helvetica,sans-Serif" font-size="10.00">::fullName</text>
</a>
</g>
</g>
<!-- Node4&#45;&gt;Node6 -->
<g id="edge5" class="edge"><title>Node4&#45;&gt;Node6</title>
<path fill="none" stroke="midnightblue" d="M442.125,-32.5465C457.575,-30.5572 475.208,-28.2869 492.251,-26.0925"/>
<polygon fill="midnightblue" stroke="midnightblue" points="492.725,-29.5604 502.196,-24.812 491.831,-22.6178 492.725,-29.5604"/>
</g>
</g>
</svg>
