<?xml version="1.0" encoding="UTF-8" standalone="no"?>
<!DOCTYPE svg PUBLIC "-//W3C//DTD SVG 1.1//EN"
 "http://www.w3.org/Graphics/SVG/1.1/DTD/svg11.dtd">
<!-- Generated by graphviz version 2.38.0 (20140413.2041)
 -->
<!-- Title: panda::ParticleM::datastore::allocate Pages: 1 -->
<svg width="478pt" height="41pt"
 viewBox="0.00 0.00 477.55 41.00" xmlns="http://www.w3.org/2000/svg" xmlns:xlink="http://www.w3.org/1999/xlink">
<g id="graph0" class="graph" transform="scale(1 1) rotate(0) translate(4 37)">
<title>panda::ParticleM::datastore::allocate</title>
<polygon fill="white" stroke="none" points="-4,4 -4,-37 473.548,-37 473.548,4 -4,4"/>
<!-- Node1 -->
<g id="node1" class="node"><title>Node1</title>
<polygon fill="#bfbfbf" stroke="black" points="0,-0.5 0,-32.5 138.255,-32.5 138.255,-0.5 0,-0.5"/>
<text text-anchor="start" x="8" y="-19.5" font-family="Helvetica,sans-Serif" font-size="10.00">panda::ParticleM::datastore</text>
<text text-anchor="middle" x="69.1275" y="-7.5" font-family="Helvetica,sans-Serif" font-size="10.00">::allocate</text>
</g>
<!-- Node2 -->
<g id="node2" class="node"><title>Node2</title>
<g id="a_node2"><a xlink:href="structpanda_1_1Particle_1_1datastore.html#aab4009a97b5f3cc30eaf61cd7dbf2e3d" target="_top" xlink:title="panda::Particle::datastore\l::allocate">
<polygon fill="white" stroke="black" points="174.255,-0.5 174.255,-32.5 304.181,-32.5 304.181,-0.5 174.255,-0.5"/>
<text text-anchor="start" x="182.255" y="-19.5" font-family="Helvetica,sans-Serif" font-size="10.00">panda::Particle::datastore</text>
<text text-anchor="middle" x="239.218" y="-7.5" font-family="Helvetica,sans-Serif" font-size="10.00">::allocate</text>
</a>
</g>
</g>
<!-- Node1&#45;&gt;Node2 -->
<g id="edge1" class="edge"><title>Node1&#45;&gt;Node2</title>
<path fill="none" stroke="midnightblue" d="M138.496,-16.5C146.897,-16.5 155.514,-16.5 163.996,-16.5"/>
<polygon fill="midnightblue" stroke="midnightblue" points="164.251,-20.0001 174.251,-16.5 164.251,-13.0001 164.251,-20.0001"/>
</g>
<!-- Node3 -->
<g id="node3" class="node"><title>Node3</title>
<g id="a_node3"><a xlink:href="structpanda_1_1ContainerElement_1_1datastore.html#ae203568d73154e9890a7d6d00e6b6301" target="_top" xlink:title="panda::ContainerElement\l::datastore::allocate">
<polygon fill="white" stroke="black" points="340.181,-0.5 340.181,-32.5 469.548,-32.5 469.548,-0.5 340.181,-0.5"/>
<text text-anchor="start" x="348.181" y="-19.5" font-family="Helvetica,sans-Serif" font-size="10.00">panda::ContainerElement</text>
<text text-anchor="middle" x="404.864" y="-7.5" font-family="Helvetica,sans-Serif" font-size="10.00">::datastore::allocate</text>
</a>
</g>
</g>
<!-- Node2&#45;&gt;Node3 -->
<g id="edge2" class="edge"><title>Node2&#45;&gt;Node3</title>
<path fill="none" stroke="midnightblue" d="M304.426,-16.5C312.765,-16.5 321.361,-16.5 329.844,-16.5"/>
<polygon fill="midnightblue" stroke="midnightblue" points="330.11,-20.0001 340.11,-16.5 330.11,-13.0001 330.11,-20.0001"/>
</g>
</g>
</svg>
