<?xml version="1.0" encoding="UTF-8" standalone="no"?>
<!DOCTYPE svg PUBLIC "-//W3C//DTD SVG 1.1//EN"
 "http://www.w3.org/Graphics/SVG/1.1/DTD/svg11.dtd">
<!-- Generated by graphviz version 2.38.0 (20140413.2041)
 -->
<!-- Title: panda::Muon::datastore::resizeVectors_ Pages: 1 -->
<svg width="630pt" height="41pt"
 viewBox="0.00 0.00 629.61 41.00" xmlns="http://www.w3.org/2000/svg" xmlns:xlink="http://www.w3.org/1999/xlink">
<g id="graph0" class="graph" transform="scale(1 1) rotate(0) translate(4 37)">
<title>panda::Muon::datastore::resizeVectors_</title>
<polygon fill="white" stroke="none" points="-4,4 -4,-37 625.61,-37 625.61,4 -4,4"/>
<!-- Node1 -->
<g id="node1" class="node"><title>Node1</title>
<polygon fill="#bfbfbf" stroke="black" points="-2.84217e-14,-0.5 -2.84217e-14,-32.5 121.599,-32.5 121.599,-0.5 -2.84217e-14,-0.5"/>
<text text-anchor="start" x="8" y="-19.5" font-family="Helvetica,sans-Serif" font-size="10.00">panda::Muon::datastore</text>
<text text-anchor="middle" x="60.7995" y="-7.5" font-family="Helvetica,sans-Serif" font-size="10.00">::resizeVectors_</text>
</g>
<!-- Node2 -->
<g id="node2" class="node"><title>Node2</title>
<g id="a_node2"><a xlink:href="structpanda_1_1Lepton_1_1datastore.html#ae0167ad568d7b57d6e11b1775cd790c7" target="_top" xlink:title="Override when there are vector members. ">
<polygon fill="white" stroke="black" points="157.599,-0.5 157.599,-32.5 284.766,-32.5 284.766,-0.5 157.599,-0.5"/>
<text text-anchor="start" x="165.599" y="-19.5" font-family="Helvetica,sans-Serif" font-size="10.00">panda::Lepton::datastore</text>
<text text-anchor="middle" x="221.182" y="-7.5" font-family="Helvetica,sans-Serif" font-size="10.00">::resizeVectors_</text>
</a>
</g>
</g>
<!-- Node1&#45;&gt;Node2 -->
<g id="edge1" class="edge"><title>Node1&#45;&gt;Node2</title>
<path fill="none" stroke="midnightblue" d="M121.677,-16.5C130.114,-16.5 138.863,-16.5 147.507,-16.5"/>
<polygon fill="midnightblue" stroke="midnightblue" points="147.582,-20.0001 157.582,-16.5 147.582,-13.0001 147.582,-20.0001"/>
</g>
<!-- Node3 -->
<g id="node3" class="node"><title>Node3</title>
<g id="a_node3"><a xlink:href="structpanda_1_1Particle_1_1datastore.html#aef7e06dbd8399f7de3215aa895907c5f" target="_top" xlink:title="Override when there are vector members. ">
<polygon fill="white" stroke="black" points="320.766,-0.5 320.766,-32.5 450.692,-32.5 450.692,-0.5 320.766,-0.5"/>
<text text-anchor="start" x="328.766" y="-19.5" font-family="Helvetica,sans-Serif" font-size="10.00">panda::Particle::datastore</text>
<text text-anchor="middle" x="385.729" y="-7.5" font-family="Helvetica,sans-Serif" font-size="10.00">::resizeVectors_</text>
</a>
</g>
</g>
<!-- Node2&#45;&gt;Node3 -->
<g id="edge2" class="edge"><title>Node2&#45;&gt;Node3</title>
<path fill="none" stroke="midnightblue" d="M285.027,-16.5C293.439,-16.5 302.129,-16.5 310.709,-16.5"/>
<polygon fill="midnightblue" stroke="midnightblue" points="310.71,-20.0001 320.71,-16.5 310.71,-13.0001 310.71,-20.0001"/>
</g>
<!-- Node4 -->
<g id="node4" class="node"><title>Node4</title>
<g id="a_node4"><a xlink:href="structpanda_1_1ContainerElement_1_1datastore.html#ac050bf7055f0c53b4aff4234e2de6e20" target="_top" xlink:title="Override when there are vector members. ">
<polygon fill="white" stroke="black" points="486.692,-0.5 486.692,-32.5 621.61,-32.5 621.61,-0.5 486.692,-0.5"/>
<text text-anchor="start" x="494.692" y="-19.5" font-family="Helvetica,sans-Serif" font-size="10.00">panda::ContainerElement</text>
<text text-anchor="middle" x="554.151" y="-7.5" font-family="Helvetica,sans-Serif" font-size="10.00">::datastore::resizeVectors_</text>
</a>
</g>
</g>
<!-- Node3&#45;&gt;Node4 -->
<g id="edge3" class="edge"><title>Node3&#45;&gt;Node4</title>
<path fill="none" stroke="midnightblue" d="M451.072,-16.5C459.331,-16.5 467.851,-16.5 476.284,-16.5"/>
<polygon fill="midnightblue" stroke="midnightblue" points="476.503,-20.0001 486.503,-16.5 476.503,-13.0001 476.503,-20.0001"/>
</g>
</g>
</svg>
