<?xml version="1.0" encoding="UTF-8" standalone="no"?>
<!DOCTYPE svg PUBLIC "-//W3C//DTD SVG 1.1//EN"
 "http://www.w3.org/Graphics/SVG/1.1/DTD/svg11.dtd">
<!-- Generated by graphviz version 2.38.0 (20140413.2041)
 -->
<!-- Title: panda::GenJet::datastore::resetAddress Pages: 1 -->
<!--zoomable 102 -->
<svg id="main" version="1.1" xmlns="http://www.w3.org/2000/svg" xmlns:xlink="http://www.w3.org/1999/xlink" xml:space="preserve" onload="init(evt)">
<style type="text/css"><![CDATA[
.edge:hover path { stroke: red; }
.edge:hover polygon { stroke: red; fill: red; }
]]></style>
<script type="text/javascript"><![CDATA[
var edges = document.getElementsByTagName('g');
if (edges && edges.length) {
  for (var i=0;i<edges.length;i++) {
    if (edges[i].id.substr(0,4)=='edge') {
      edges[i].setAttribute('class','edge');
    }
  }
}
]]></script>
        <defs>
                <circle id="rim" cx="0" cy="0" r="7"/>
                <circle id="rim2" cx="0" cy="0" r="3.5"/>
                <g id="zoomPlus">
                        <use xlink:href="#rim" fill="#404040">
                                <set attributeName="fill" to="#808080" begin="zoomplus.mouseover" end="zoomplus.mouseout"/>
                        </use>
                        <path d="M-4,0h8M0,-4v8" fill="none" stroke="white" stroke-width="1.5" pointer-events="none"/>
                </g>
                <g id="zoomMin">
                        <use xlink:href="#rim" fill="#404040">
                                <set attributeName="fill" to="#808080" begin="zoomminus.mouseover" end="zoomminus.mouseout"/>
                        </use>
                        <path d="M-4,0h8" fill="none" stroke="white" stroke-width="1.5" pointer-events="none"/>
                </g>
                <g id="dirArrow">
                        <path fill="none" stroke="white" stroke-width="1.5" d="M0,-3.0v7 M-2.5,-0.5L0,-3.0L2.5,-0.5"/>
                </g>
               <g id="resetDef">
                       <use xlink:href="#rim2" fill="#404040">
                               <set attributeName="fill" to="#808080" begin="reset.mouseover" end="reset.mouseout"/>
                       </use>
               </g>
        </defs>

<script type="text/javascript">
var viewWidth = 812;
var viewHeight = 102;
var sectionId = 'dynsection-7';
</script>
<script xlink:href="svgpan.js"/>
<svg id="graph" class="graph">
<g id="viewport">
<title>panda::GenJet::datastore::resetAddress</title>
<polygon fill="white" stroke="none" points="-4,4 -4,-98 807.625,-98 807.625,4 -4,4"/>
<!-- Node1 -->
<g id="node1" class="node"><title>Node1</title>
<polygon fill="#bfbfbf" stroke="black" points="-1.42109e-14,-0.5 -1.42109e-14,-32.5 128.828,-32.5 128.828,-0.5 -1.42109e-14,-0.5"/>
<text text-anchor="start" x="8" y="-19.5" font-family="Helvetica,sans-Serif" font-size="10.00">panda::GenJet::datastore</text>
<text text-anchor="middle" x="64.414" y="-7.5" font-family="Helvetica,sans-Serif" font-size="10.00">::resetAddress</text>
</g>
<!-- Node2 -->
<g id="node2" class="node"><title>Node2</title>
<g id="a_node2"><a xlink:href="structpanda_1_1ParticleM_1_1datastore.html#a6ba00e058ede77709ec931108ccf9bb8" target="_top" xlink:title="panda::ParticleM::datastore\l::resetAddress">
<polygon fill="white" stroke="black" points="164.828,-23.5 164.828,-55.5 303.083,-55.5 303.083,-23.5 164.828,-23.5"/>
<text text-anchor="start" x="172.828" y="-42.5" font-family="Helvetica,sans-Serif" font-size="10.00">panda::ParticleM::datastore</text>
<text text-anchor="middle" x="233.956" y="-30.5" font-family="Helvetica,sans-Serif" font-size="10.00">::resetAddress</text>
</a>
</g>
</g>
<!-- Node1&#45;&gt;Node2 -->
<g id="edge1" class="edge"><title>Node1&#45;&gt;Node2</title>
<path fill="none" stroke="midnightblue" d="M129.232,-25.2609C137.54,-26.4015 146.127,-27.5802 154.638,-28.7486"/>
<polygon fill="midnightblue" stroke="midnightblue" points="154.19,-32.2198 164.573,-30.1125 155.142,-25.2849 154.19,-32.2198"/>
</g>
<!-- Node5 -->
<g id="node5" class="node"><title>Node5</title>
<g id="a_node5"><a xlink:href="namespacepanda_1_1utils.html#a82a8530e64fbdf917cf9b8659065f98b" target="_top" xlink:title="panda::utils::resetAddress">
<polygon fill="white" stroke="black" points="505.009,-22.5 505.009,-42.5 636.597,-42.5 636.597,-22.5 505.009,-22.5"/>
<text text-anchor="middle" x="570.803" y="-29.5" font-family="Helvetica,sans-Serif" font-size="10.00">panda::utils::resetAddress</text>
</a>
</g>
</g>
<!-- Node1&#45;&gt;Node5 -->
<g id="edge7" class="edge"><title>Node1&#45;&gt;Node5</title>
<path fill="none" stroke="midnightblue" d="M129.048,-14.2942C140.938,-13.9631 153.26,-13.6745 164.828,-13.5 226.268,-12.5732 241.675,-11.3156 303.083,-13.5 367.915,-15.8063 441.444,-21.2562 494.856,-25.7306"/>
<polygon fill="midnightblue" stroke="midnightblue" points="494.665,-29.2269 504.924,-26.5824 495.255,-22.2518 494.665,-29.2269"/>
</g>
<!-- Node3 -->
<g id="node3" class="node"><title>Node3</title>
<g id="a_node3"><a xlink:href="structpanda_1_1Particle_1_1datastore.html#a4a04e4dd473787da09b945659e07f0ec" target="_top" xlink:title="panda::Particle::datastore\l::resetAddress">
<polygon fill="white" stroke="black" points="339.083,-61.5 339.083,-93.5 469.009,-93.5 469.009,-61.5 339.083,-61.5"/>
<text text-anchor="start" x="347.083" y="-80.5" font-family="Helvetica,sans-Serif" font-size="10.00">panda::Particle::datastore</text>
<text text-anchor="middle" x="404.046" y="-68.5" font-family="Helvetica,sans-Serif" font-size="10.00">::resetAddress</text>
</a>
</g>
</g>
<!-- Node2&#45;&gt;Node3 -->
<g id="edge2" class="edge"><title>Node2&#45;&gt;Node3</title>
<path fill="none" stroke="midnightblue" d="M303.324,-54.9561C311.817,-56.876 320.531,-58.846 329.103,-60.7838"/>
<polygon fill="midnightblue" stroke="midnightblue" points="328.553,-64.2477 339.079,-63.039 330.097,-57.42 328.553,-64.2477"/>
</g>
<!-- Node2&#45;&gt;Node5 -->
<g id="edge6" class="edge"><title>Node2&#45;&gt;Node5</title>
<path fill="none" stroke="midnightblue" d="M303.12,-38.075C358.77,-36.9116 437.319,-35.2696 494.755,-34.0689"/>
<polygon fill="midnightblue" stroke="midnightblue" points="494.938,-37.5659 504.862,-33.8576 494.791,-30.5675 494.938,-37.5659"/>
</g>
<!-- Node4 -->
<g id="node4" class="node"><title>Node4</title>
<g id="a_node4"><a xlink:href="structpanda_1_1ContainerElement_1_1datastore.html#a1f296453b1f2e440d9b4be3388069d43" target="_top" xlink:title="panda::ContainerElement\l::datastore::resetAddress">
<polygon fill="white" stroke="black" points="506.12,-61.5 506.12,-93.5 635.487,-93.5 635.487,-61.5 506.12,-61.5"/>
<text text-anchor="start" x="514.12" y="-80.5" font-family="Helvetica,sans-Serif" font-size="10.00">panda::ContainerElement</text>
<text text-anchor="middle" x="570.803" y="-68.5" font-family="Helvetica,sans-Serif" font-size="10.00">::datastore::resetAddress</text>
</a>
</g>
</g>
<!-- Node3&#45;&gt;Node4 -->
<g id="edge3" class="edge"><title>Node3&#45;&gt;Node4</title>
<path fill="none" stroke="midnightblue" d="M469.217,-77.5C478.014,-77.5 487.102,-77.5 496.053,-77.5"/>
<polygon fill="midnightblue" stroke="midnightblue" points="496.078,-81.0001 506.078,-77.5 496.078,-74.0001 496.078,-81.0001"/>
</g>
<!-- Node3&#45;&gt;Node5 -->
<g id="edge4" class="edge"><title>Node3&#45;&gt;Node5</title>
<path fill="none" stroke="midnightblue" d="M464.062,-61.3811C483.383,-56.1039 504.573,-50.3163 522.877,-45.3168"/>
<polygon fill="midnightblue" stroke="midnightblue" points="523.995,-48.6399 532.719,-42.6287 522.15,-41.8872 523.995,-48.6399"/>
</g>
<!-- Node6 -->
<g id="node6" class="node"><title>Node6</title>
<g id="a_node6"><a xlink:href="classpanda_1_1utils_1_1BranchName.html#a13958ff4a9d554d2c057c600b4f70412" target="_top" xlink:title="Prepend the branch name with &lt;objName.&gt;. ">
<polygon fill="white" stroke="black" points="672.597,-16.5 672.597,-48.5 803.625,-48.5 803.625,-16.5 672.597,-16.5"/>
<text text-anchor="start" x="680.597" y="-35.5" font-family="Helvetica,sans-Serif" font-size="10.00">panda::utils::BranchName</text>
<text text-anchor="middle" x="738.111" y="-23.5" font-family="Helvetica,sans-Serif" font-size="10.00">::fullName</text>
</a>
</g>
</g>
<!-- Node5&#45;&gt;Node6 -->
<g id="edge5" class="edge"><title>Node5&#45;&gt;Node6</title>
<path fill="none" stroke="midnightblue" d="M636.663,-32.5C645.114,-32.5 653.827,-32.5 662.423,-32.5"/>
<polygon fill="midnightblue" stroke="midnightblue" points="662.438,-36.0001 672.438,-32.5 662.438,-29.0001 662.438,-36.0001"/>
</g>
</g>
</svg>
        <g id="navigator" transform="translate(0 0)" fill="#404254">
                <rect fill="#f2f5e9" fill-opacity="0.5" stroke="#606060" stroke-width=".5" x="0" y="0" width="60" height="60"/>
                <use id="zoomplus" xlink:href="#zoomPlus" x="17" y="9" onmousedown="handleZoom(evt,'in')"/>
                <use id="zoomminus" xlink:href="#zoomMin" x="42" y="9" onmousedown="handleZoom(evt,'out')"/>
                <use id="reset" xlink:href="#resetDef" x="30" y="36" onmousedown="handleReset()"/>
                <g id="arrowUp" xlink:href="#dirArrow" transform="translate(30 24)" onmousedown="handlePan(0,-1)">
                  <use xlink:href="#rim" fill="#404040">
                        <set attributeName="fill" to="#808080" begin="arrowUp.mouseover" end="arrowUp.mouseout"/>
                  </use>
                  <path fill="none" stroke="white" stroke-width="1.5" d="M0,-3.0v7 M-2.5,-0.5L0,-3.0L2.5,-0.5"/>
                </g>
                <g id="arrowRight" xlink:href="#dirArrow" transform="rotate(90) translate(36 -43)" onmousedown="handlePan(1,0)">
                  <use xlink:href="#rim" fill="#404040">
                        <set attributeName="fill" to="#808080" begin="arrowRight.mouseover" end="arrowRight.mouseout"/>
                  </use>
                  <path fill="none" stroke="white" stroke-width="1.5" d="M0,-3.0v7 M-2.5,-0.5L0,-3.0L2.5,-0.5"/>
                </g>
                <g id="arrowDown" xlink:href="#dirArrow" transform="rotate(180) translate(-30 -48)" onmousedown="handlePan(0,1)">
                  <use xlink:href="#rim" fill="#404040">
                        <set attributeName="fill" to="#808080" begin="arrowDown.mouseover" end="arrowDown.mouseout"/>
                  </use>
                  <path fill="none" stroke="white" stroke-width="1.5" d="M0,-3.0v7 M-2.5,-0.5L0,-3.0L2.5,-0.5"/>
                </g>
                <g id="arrowLeft" xlink:href="#dirArrow" transform="rotate(270) translate(-36 17)" onmousedown="handlePan(-1,0)">
                  <use xlink:href="#rim" fill="#404040">
                        <set attributeName="fill" to="#808080" begin="arrowLeft.mouseover" end="arrowLeft.mouseout"/>
                  </use>
                  <path fill="none" stroke="white" stroke-width="1.5" d="M0,-3.0v7 M-2.5,-0.5L0,-3.0L2.5,-0.5"/>
                </g>
        </g>
        <svg viewBox="0 0 15 15" width="100%" height="30px" preserveAspectRatio="xMaxYMin meet">
         <g id="arrow_out" transform="scale(0.3 0.3)">
          <a xlink:href="structpanda_1_1GenJet_1_1datastore_a474a24f5349360f411dc9618da04541f_cgraph_org.svg" target="_base">
           <rect id="button" ry="5" rx="5" y="6" x="6" height="38" width="38"
                fill="#f2f5e9" fill-opacity="0.5" stroke="#606060" stroke-width="1.0"/>
           <path id="arrow"
             d="M 11.500037,31.436501 C 11.940474,20.09759 22.043105,11.32322 32.158766,21.979434 L 37.068811,17.246167 C 37.068811,17.246167 37.088388,32 37.088388,32 L 22.160133,31.978069 C 22.160133,31.978069 26.997745,27.140456 26.997745,27.140456 C 18.528582,18.264221 13.291696,25.230495 11.500037,31.436501 z"
             style="fill:#404040;"/>
          </a>
         </g>
        </svg>
</svg>
