<?xml version="1.0" encoding="UTF-8" standalone="no"?>
<!DOCTYPE svg PUBLIC "-//W3C//DTD SVG 1.1//EN"
 "http://www.w3.org/Graphics/SVG/1.1/DTD/svg11.dtd">
<!-- Generated by graphviz version 2.38.0 (20140413.2041)
 -->
<!-- Title: panda::ParticleM::datastore::resizeVectors_ Pages: 1 -->
<svg width="483pt" height="41pt"
 viewBox="0.00 0.00 483.10 41.00" xmlns="http://www.w3.org/2000/svg" xmlns:xlink="http://www.w3.org/1999/xlink">
<g id="graph0" class="graph" transform="scale(1 1) rotate(0) translate(4 37)">
<title>panda::ParticleM::datastore::resizeVectors_</title>
<polygon fill="white" stroke="none" points="-4,4 -4,-37 479.099,-37 479.099,4 -4,4"/>
<!-- Node1 -->
<g id="node1" class="node"><title>Node1</title>
<polygon fill="#bfbfbf" stroke="black" points="0,-0.5 0,-32.5 138.255,-32.5 138.255,-0.5 0,-0.5"/>
<text text-anchor="start" x="8" y="-19.5" font-family="Helvetica,sans-Serif" font-size="10.00">panda::ParticleM::datastore</text>
<text text-anchor="middle" x="69.1275" y="-7.5" font-family="Helvetica,sans-Serif" font-size="10.00">::resizeVectors_</text>
</g>
<!-- Node2 -->
<g id="node2" class="node"><title>Node2</title>
<g id="a_node2"><a xlink:href="structpanda_1_1Particle_1_1datastore.html#aef7e06dbd8399f7de3215aa895907c5f" target="_top" xlink:title="Override when there are vector members. ">
<polygon fill="white" stroke="black" points="174.255,-0.5 174.255,-32.5 304.181,-32.5 304.181,-0.5 174.255,-0.5"/>
<text text-anchor="start" x="182.255" y="-19.5" font-family="Helvetica,sans-Serif" font-size="10.00">panda::Particle::datastore</text>
<text text-anchor="middle" x="239.218" y="-7.5" font-family="Helvetica,sans-Serif" font-size="10.00">::resizeVectors_</text>
</a>
</g>
</g>
<!-- Node1&#45;&gt;Node2 -->
<g id="edge1" class="edge"><title>Node1&#45;&gt;Node2</title>
<path fill="none" stroke="midnightblue" d="M138.496,-16.5C146.897,-16.5 155.514,-16.5 163.996,-16.5"/>
<polygon fill="midnightblue" stroke="midnightblue" points="164.251,-20.0001 174.251,-16.5 164.251,-13.0001 164.251,-20.0001"/>
</g>
<!-- Node3 -->
<g id="node3" class="node"><title>Node3</title>
<g id="a_node3"><a xlink:href="structpanda_1_1ContainerElement_1_1datastore.html#ac050bf7055f0c53b4aff4234e2de6e20" target="_top" xlink:title="Override when there are vector members. ">
<polygon fill="white" stroke="black" points="340.181,-0.5 340.181,-32.5 475.099,-32.5 475.099,-0.5 340.181,-0.5"/>
<text text-anchor="start" x="348.181" y="-19.5" font-family="Helvetica,sans-Serif" font-size="10.00">panda::ContainerElement</text>
<text text-anchor="middle" x="407.64" y="-7.5" font-family="Helvetica,sans-Serif" font-size="10.00">::datastore::resizeVectors_</text>
</a>
</g>
</g>
<!-- Node2&#45;&gt;Node3 -->
<g id="edge2" class="edge"><title>Node2&#45;&gt;Node3</title>
<path fill="none" stroke="midnightblue" d="M304.561,-16.5C312.82,-16.5 321.34,-16.5 329.773,-16.5"/>
<polygon fill="midnightblue" stroke="midnightblue" points="329.992,-20.0001 339.992,-16.5 329.992,-13.0001 329.992,-20.0001"/>
</g>
</g>
</svg>
