<?xml version="1.0" encoding="UTF-8" standalone="no"?>
<!DOCTYPE svg PUBLIC "-//W3C//DTD SVG 1.1//EN"
 "http://www.w3.org/Graphics/SVG/1.1/DTD/svg11.dtd">
<!-- Generated by graphviz version 2.38.0 (20140413.2041)
 -->
<!-- Title: panda::Jet::datastore::resizeVectors_ Pages: 1 -->
<svg width="799pt" height="41pt"
 viewBox="0.00 0.00 799.40 41.00" xmlns="http://www.w3.org/2000/svg" xmlns:xlink="http://www.w3.org/1999/xlink">
<g id="graph0" class="graph" transform="scale(1 1) rotate(0) translate(4 37)">
<title>panda::Jet::datastore::resizeVectors_</title>
<polygon fill="white" stroke="none" points="-4,4 -4,-37 795.397,-37 795.397,4 -4,4"/>
<!-- Node1 -->
<g id="node1" class="node"><title>Node1</title>
<polygon fill="#bfbfbf" stroke="black" points="2.84217e-14,-0.5 2.84217e-14,-32.5 109.931,-32.5 109.931,-0.5 2.84217e-14,-0.5"/>
<text text-anchor="start" x="8" y="-19.5" font-family="Helvetica,sans-Serif" font-size="10.00">panda::Jet::datastore</text>
<text text-anchor="middle" x="54.9655" y="-7.5" font-family="Helvetica,sans-Serif" font-size="10.00">::resizeVectors_</text>
</g>
<!-- Node2 -->
<g id="node2" class="node"><title>Node2</title>
<g id="a_node2"><a xlink:href="structpanda_1_1MicroJet_1_1datastore.html#a9570f85bfad7f55e239670d0f364cb8b" target="_top" xlink:title="Override when there are vector members. ">
<polygon fill="white" stroke="black" points="145.931,-0.5 145.931,-32.5 280.298,-32.5 280.298,-0.5 145.931,-0.5"/>
<text text-anchor="start" x="153.931" y="-19.5" font-family="Helvetica,sans-Serif" font-size="10.00">panda::MicroJet::datastore</text>
<text text-anchor="middle" x="213.115" y="-7.5" font-family="Helvetica,sans-Serif" font-size="10.00">::resizeVectors_</text>
</a>
</g>
</g>
<!-- Node1&#45;&gt;Node2 -->
<g id="edge1" class="edge"><title>Node1&#45;&gt;Node2</title>
<path fill="none" stroke="midnightblue" d="M110.141,-16.5C118.434,-16.5 127.126,-16.5 135.79,-16.5"/>
<polygon fill="midnightblue" stroke="midnightblue" points="135.921,-20.0001 145.921,-16.5 135.921,-13.0001 135.921,-20.0001"/>
</g>
<!-- Node3 -->
<g id="node3" class="node"><title>Node3</title>
<g id="a_node3"><a xlink:href="structpanda_1_1ParticleM_1_1datastore.html#a6dd61d4a8f70e81a1638757a5edbc7ed" target="_top" xlink:title="Override when there are vector members. ">
<polygon fill="white" stroke="black" points="316.298,-0.5 316.298,-32.5 454.553,-32.5 454.553,-0.5 316.298,-0.5"/>
<text text-anchor="start" x="324.298" y="-19.5" font-family="Helvetica,sans-Serif" font-size="10.00">panda::ParticleM::datastore</text>
<text text-anchor="middle" x="385.426" y="-7.5" font-family="Helvetica,sans-Serif" font-size="10.00">::resizeVectors_</text>
</a>
</g>
</g>
<!-- Node2&#45;&gt;Node3 -->
<g id="edge2" class="edge"><title>Node2&#45;&gt;Node3</title>
<path fill="none" stroke="midnightblue" d="M280.449,-16.5C288.749,-16.5 297.3,-16.5 305.765,-16.5"/>
<polygon fill="midnightblue" stroke="midnightblue" points="306.026,-20.0001 316.026,-16.5 306.026,-13.0001 306.026,-20.0001"/>
</g>
<!-- Node4 -->
<g id="node4" class="node"><title>Node4</title>
<g id="a_node4"><a xlink:href="structpanda_1_1Particle_1_1datastore.html#aef7e06dbd8399f7de3215aa895907c5f" target="_top" xlink:title="Override when there are vector members. ">
<polygon fill="white" stroke="black" points="490.553,-0.5 490.553,-32.5 620.479,-32.5 620.479,-0.5 490.553,-0.5"/>
<text text-anchor="start" x="498.553" y="-19.5" font-family="Helvetica,sans-Serif" font-size="10.00">panda::Particle::datastore</text>
<text text-anchor="middle" x="555.516" y="-7.5" font-family="Helvetica,sans-Serif" font-size="10.00">::resizeVectors_</text>
</a>
</g>
</g>
<!-- Node3&#45;&gt;Node4 -->
<g id="edge3" class="edge"><title>Node3&#45;&gt;Node4</title>
<path fill="none" stroke="midnightblue" d="M454.794,-16.5C463.195,-16.5 471.812,-16.5 480.294,-16.5"/>
<polygon fill="midnightblue" stroke="midnightblue" points="480.549,-20.0001 490.549,-16.5 480.549,-13.0001 480.549,-20.0001"/>
</g>
<!-- Node5 -->
<g id="node5" class="node"><title>Node5</title>
<g id="a_node5"><a xlink:href="structpanda_1_1ContainerElement_1_1datastore.html#ac050bf7055f0c53b4aff4234e2de6e20" target="_top" xlink:title="Override when there are vector members. ">
<polygon fill="white" stroke="black" points="656.479,-0.5 656.479,-32.5 791.397,-32.5 791.397,-0.5 656.479,-0.5"/>
<text text-anchor="start" x="664.479" y="-19.5" font-family="Helvetica,sans-Serif" font-size="10.00">panda::ContainerElement</text>
<text text-anchor="middle" x="723.938" y="-7.5" font-family="Helvetica,sans-Serif" font-size="10.00">::datastore::resizeVectors_</text>
</a>
</g>
</g>
<!-- Node4&#45;&gt;Node5 -->
<g id="edge4" class="edge"><title>Node4&#45;&gt;Node5</title>
<path fill="none" stroke="midnightblue" d="M620.859,-16.5C629.118,-16.5 637.638,-16.5 646.071,-16.5"/>
<polygon fill="midnightblue" stroke="midnightblue" points="646.29,-20.0001 656.29,-16.5 646.29,-13.0001 646.29,-20.0001"/>
</g>
</g>
</svg>
