<?xml version="1.0" encoding="UTF-8" standalone="no"?>
<!DOCTYPE svg PUBLIC "-//W3C//DTD SVG 1.1//EN"
 "http://www.w3.org/Graphics/SVG/1.1/DTD/svg11.dtd">
<!-- Generated by graphviz version 2.38.0 (20140413.2041)
 -->
<!-- Title: panda::Photon::datastore::deallocate Pages: 1 -->
<svg width="301pt" height="41pt"
 viewBox="0.00 0.00 300.55 41.00" xmlns="http://www.w3.org/2000/svg" xmlns:xlink="http://www.w3.org/1999/xlink">
<g id="graph0" class="graph" transform="scale(1 1) rotate(0) translate(4 37)">
<title>panda::Photon::datastore::deallocate</title>
<polygon fill="white" stroke="none" points="-4,4 -4,-37 296.554,-37 296.554,4 -4,4"/>
<!-- Node1 -->
<g id="node1" class="node"><title>Node1</title>
<polygon fill="#bfbfbf" stroke="black" points="0,-0.5 0,-32.5 128.277,-32.5 128.277,-0.5 0,-0.5"/>
<text text-anchor="start" x="8" y="-19.5" font-family="Helvetica,sans-Serif" font-size="10.00">panda::Photon::datastore</text>
<text text-anchor="middle" x="64.1385" y="-7.5" font-family="Helvetica,sans-Serif" font-size="10.00">::deallocate</text>
</g>
<!-- Node2 -->
<g id="node2" class="node"><title>Node2</title>
<g id="a_node2"><a xlink:href="structpanda_1_1Photon_1_1datastore.html#a7282a7c7cc04a9350041a59e9ecba5b5" target="_top" xlink:title="panda::Photon::datastore\l::~datastore">
<polygon fill="white" stroke="black" points="164.277,-0.5 164.277,-32.5 292.554,-32.5 292.554,-0.5 164.277,-0.5"/>
<text text-anchor="start" x="172.277" y="-19.5" font-family="Helvetica,sans-Serif" font-size="10.00">panda::Photon::datastore</text>
<text text-anchor="middle" x="228.415" y="-7.5" font-family="Helvetica,sans-Serif" font-size="10.00">::~datastore</text>
</a>
</g>
</g>
<!-- Node1&#45;&gt;Node2 -->
<g id="edge1" class="edge"><title>Node1&#45;&gt;Node2</title>
<path fill="none" stroke="midnightblue" d="M138.357,-16.5C146.954,-16.5 155.671,-16.5 164.116,-16.5"/>
<polygon fill="midnightblue" stroke="midnightblue" points="138.344,-13.0001 128.344,-16.5 138.344,-20.0001 138.344,-13.0001"/>
</g>
</g>
</svg>
