<?xml version="1.0" encoding="UTF-8" standalone="no"?>
<!DOCTYPE svg PUBLIC "-//W3C//DTD SVG 1.1//EN"
 "http://www.w3.org/Graphics/SVG/1.1/DTD/svg11.dtd">
<!-- Generated by graphviz version 2.38.0 (20140413.2041)
 -->
<!-- Title: panda::Particle::datastore::resizeVectors_ Pages: 1 -->
<svg width="309pt" height="41pt"
 viewBox="0.00 0.00 308.84 41.00" xmlns="http://www.w3.org/2000/svg" xmlns:xlink="http://www.w3.org/1999/xlink">
<g id="graph0" class="graph" transform="scale(1 1) rotate(0) translate(4 37)">
<title>panda::Particle::datastore::resizeVectors_</title>
<polygon fill="white" stroke="none" points="-4,4 -4,-37 304.844,-37 304.844,4 -4,4"/>
<!-- Node1 -->
<g id="node1" class="node"><title>Node1</title>
<polygon fill="#bfbfbf" stroke="black" points="-2.84217e-14,-0.5 -2.84217e-14,-32.5 129.926,-32.5 129.926,-0.5 -2.84217e-14,-0.5"/>
<text text-anchor="start" x="8" y="-19.5" font-family="Helvetica,sans-Serif" font-size="10.00">panda::Particle::datastore</text>
<text text-anchor="middle" x="64.963" y="-7.5" font-family="Helvetica,sans-Serif" font-size="10.00">::resizeVectors_</text>
</g>
<!-- Node2 -->
<g id="node2" class="node"><title>Node2</title>
<g id="a_node2"><a xlink:href="structpanda_1_1ContainerElement_1_1datastore.html#ac050bf7055f0c53b4aff4234e2de6e20" target="_top" xlink:title="Override when there are vector members. ">
<polygon fill="white" stroke="black" points="165.926,-0.5 165.926,-32.5 300.844,-32.5 300.844,-0.5 165.926,-0.5"/>
<text text-anchor="start" x="173.926" y="-19.5" font-family="Helvetica,sans-Serif" font-size="10.00">panda::ContainerElement</text>
<text text-anchor="middle" x="233.385" y="-7.5" font-family="Helvetica,sans-Serif" font-size="10.00">::datastore::resizeVectors_</text>
</a>
</g>
</g>
<!-- Node1&#45;&gt;Node2 -->
<g id="edge1" class="edge"><title>Node1&#45;&gt;Node2</title>
<path fill="none" stroke="midnightblue" d="M130.306,-16.5C138.565,-16.5 147.085,-16.5 155.518,-16.5"/>
<polygon fill="midnightblue" stroke="midnightblue" points="155.737,-20.0001 165.737,-16.5 155.737,-13.0001 155.737,-20.0001"/>
</g>
</g>
</svg>
