<?xml version="1.0" encoding="UTF-8" standalone="no"?>
<!DOCTYPE svg PUBLIC "-//W3C//DTD SVG 1.1//EN"
 "http://www.w3.org/Graphics/SVG/1.1/DTD/svg11.dtd">
<!-- Generated by graphviz version 2.38.0 (20140413.2041)
 -->
<!-- Title: panda::GenParticle::datastore Pages: 1 -->
<svg width="280pt" height="238pt"
 viewBox="0.00 0.00 280.15 238.00" xmlns="http://www.w3.org/2000/svg" xmlns:xlink="http://www.w3.org/1999/xlink">
<g id="graph0" class="graph" transform="scale(1 1) rotate(0) translate(4 234)">
<title>panda::GenParticle::datastore</title>
<polygon fill="white" stroke="none" points="-4,4 -4,-234 276.15,-234 276.15,4 -4,4"/>
<!-- Node1 -->
<g id="node1" class="node"><title>Node1</title>
<polygon fill="#bfbfbf" stroke="black" points="104.336,-0.5 104.336,-32.5 205.919,-32.5 205.919,-0.5 104.336,-0.5"/>
<text text-anchor="start" x="112.336" y="-19.5" font-family="Helvetica,sans-Serif" font-size="10.00">panda::GenParticle</text>
<text text-anchor="middle" x="155.127" y="-7.5" font-family="Helvetica,sans-Serif" font-size="10.00">::datastore</text>
</g>
<!-- Node2 -->
<g id="node2" class="node"><title>Node2</title>
<g id="a_node2"><a xlink:href="structpanda_1_1ParticleM_1_1datastore.html" target="_top" xlink:title="panda::ParticleM::datastore">
<polygon fill="white" stroke="black" points="0,-81.5 0,-101.5 138.255,-101.5 138.255,-81.5 0,-81.5"/>
<text text-anchor="middle" x="69.1275" y="-88.5" font-family="Helvetica,sans-Serif" font-size="10.00">panda::ParticleM::datastore</text>
</a>
</g>
</g>
<!-- Node2&#45;&gt;Node1 -->
<g id="edge1" class="edge"><title>Node2&#45;&gt;Node1</title>
<path fill="none" stroke="midnightblue" d="M87.9061,-74.56C102.535,-62.1421 122.716,-45.0122 137.14,-32.7685"/>
<polygon fill="midnightblue" stroke="midnightblue" points="85.3783,-72.1148 80.0195,-81.2545 89.9082,-77.4515 85.3783,-72.1148"/>
</g>
<!-- Node3 -->
<g id="node3" class="node"><title>Node3</title>
<g id="a_node3"><a xlink:href="structpanda_1_1Particle_1_1datastore.html" target="_top" xlink:title="panda::Particle::datastore">
<polygon fill="white" stroke="black" points="4.1645,-139.5 4.1645,-159.5 134.09,-159.5 134.09,-139.5 4.1645,-139.5"/>
<text text-anchor="middle" x="69.1275" y="-146.5" font-family="Helvetica,sans-Serif" font-size="10.00">panda::Particle::datastore</text>
</a>
</g>
</g>
<!-- Node3&#45;&gt;Node2 -->
<g id="edge2" class="edge"><title>Node3&#45;&gt;Node2</title>
<path fill="none" stroke="midnightblue" d="M69.1275,-129.207C69.1275,-119.838 69.1275,-109.026 69.1275,-101.575"/>
<polygon fill="midnightblue" stroke="midnightblue" points="65.6276,-129.253 69.1275,-139.253 72.6276,-129.253 65.6276,-129.253"/>
</g>
<!-- Node4 -->
<g id="node4" class="node"><title>Node4</title>
<g id="a_node4"><a xlink:href="structpanda_1_1ContainerElement_1_1datastore.html" target="_top" xlink:title="panda::ContainerElement\l::datastore">
<polygon fill="white" stroke="black" points="4.444,-197.5 4.444,-229.5 133.811,-229.5 133.811,-197.5 4.444,-197.5"/>
<text text-anchor="start" x="12.444" y="-216.5" font-family="Helvetica,sans-Serif" font-size="10.00">panda::ContainerElement</text>
<text text-anchor="middle" x="69.1275" y="-204.5" font-family="Helvetica,sans-Serif" font-size="10.00">::datastore</text>
</a>
</g>
</g>
<!-- Node4&#45;&gt;Node3 -->
<g id="edge3" class="edge"><title>Node4&#45;&gt;Node3</title>
<path fill="none" stroke="midnightblue" d="M69.1275,-187.422C69.1275,-177.672 69.1275,-167.11 69.1275,-159.79"/>
<polygon fill="midnightblue" stroke="midnightblue" points="65.6276,-187.491 69.1275,-197.492 72.6276,-187.492 65.6276,-187.491"/>
</g>
<!-- Node5 -->
<g id="node5" class="node"><title>Node5</title>
<g id="a_node5"><a xlink:href="classpanda_1_1ContainerBase.html" target="_top" xlink:title="Base class for all containers. ">
<polygon fill="white" stroke="black" points="156.387,-81.5 156.387,-101.5 271.868,-101.5 271.868,-81.5 156.387,-81.5"/>
<text text-anchor="middle" x="214.127" y="-88.5" font-family="Helvetica,sans-Serif" font-size="10.00">panda::ContainerBase</text>
</a>
</g>
</g>
<!-- Node5&#45;&gt;Node1 -->
<g id="edge4" class="edge"><title>Node5&#45;&gt;Node1</title>
<path fill="none" stroke="#9a32cd" stroke-dasharray="5,2" d="M200.103,-73.1481C190.178,-60.8682 176.993,-44.5545 167.468,-32.7685"/>
<polygon fill="#9a32cd" stroke="#9a32cd" points="197.647,-75.6771 206.655,-81.2545 203.091,-71.277 197.647,-75.6771"/>
<text text-anchor="middle" x="232.139" y="-54" font-family="Helvetica,sans-Serif" font-size="10.00"> parentContainer_</text>
</g>
<!-- Node6 -->
<g id="node6" class="node"><title>Node6</title>
<g id="a_node6"><a xlink:href="classpanda_1_1Object.html" target="_top" xlink:title="panda::Object">
<polygon fill="white" stroke="black" points="175.004,-139.5 175.004,-159.5 253.251,-159.5 253.251,-139.5 175.004,-139.5"/>
<text text-anchor="middle" x="214.127" y="-146.5" font-family="Helvetica,sans-Serif" font-size="10.00">panda::Object</text>
</a>
</g>
</g>
<!-- Node6&#45;&gt;Node5 -->
<g id="edge5" class="edge"><title>Node6&#45;&gt;Node5</title>
<path fill="none" stroke="midnightblue" d="M214.127,-129.207C214.127,-119.838 214.127,-109.026 214.127,-101.575"/>
<polygon fill="midnightblue" stroke="midnightblue" points="210.628,-129.253 214.127,-139.253 217.628,-129.253 210.628,-129.253"/>
</g>
</g>
</svg>
