<?xml version="1.0" encoding="UTF-8" standalone="no"?>
<!DOCTYPE svg PUBLIC "-//W3C//DTD SVG 1.1//EN"
 "http://www.w3.org/Graphics/SVG/1.1/DTD/svg11.dtd">
<!-- Generated by graphviz version 2.38.0 (20140413.2041)
 -->
<!-- Title: panda::FatJet::datastore::book Pages: 1 -->
<svg width="1135pt" height="184pt"
 viewBox="0.00 0.00 1134.59 183.50" xmlns="http://www.w3.org/2000/svg" xmlns:xlink="http://www.w3.org/1999/xlink">
<g id="graph0" class="graph" transform="scale(1 1) rotate(0) translate(4 179.5)">
<title>panda::FatJet::datastore::book</title>
<polygon fill="white" stroke="none" points="-4,4 -4,-179.5 1130.59,-179.5 1130.59,4 -4,4"/>
<!-- Node1 -->
<g id="node1" class="node"><title>Node1</title>
<polygon fill="#bfbfbf" stroke="black" points="7.81597e-14,-6 7.81597e-14,-38 124.378,-38 124.378,-6 7.81597e-14,-6"/>
<text text-anchor="start" x="8" y="-25" font-family="Helvetica,sans-Serif" font-size="10.00">panda::FatJet::datastore</text>
<text text-anchor="middle" x="62.189" y="-13" font-family="Helvetica,sans-Serif" font-size="10.00">::book</text>
</g>
<!-- Node2 -->
<g id="node2" class="node"><title>Node2</title>
<g id="a_node2"><a xlink:href="structpanda_1_1Jet_1_1datastore.html#a6b3a8bbeb4fa9c002c5eebbd97962095" target="_top" xlink:title="panda::Jet::datastore\l::book">
<polygon fill="white" stroke="black" points="160.378,-29 160.378,-61 270.309,-61 270.309,-29 160.378,-29"/>
<text text-anchor="start" x="168.378" y="-48" font-family="Helvetica,sans-Serif" font-size="10.00">panda::Jet::datastore</text>
<text text-anchor="middle" x="215.344" y="-36" font-family="Helvetica,sans-Serif" font-size="10.00">::book</text>
</a>
</g>
</g>
<!-- Node1&#45;&gt;Node2 -->
<g id="edge1" class="edge"><title>Node1&#45;&gt;Node2</title>
<path fill="none" stroke="midnightblue" d="M124.669,-31.355C133.037,-32.6282 141.643,-33.9378 150.059,-35.2183"/>
<polygon fill="midnightblue" stroke="midnightblue" points="149.787,-38.7172 160.2,-36.7614 150.841,-31.7969 149.787,-38.7172"/>
</g>
<!-- Node7 -->
<g id="node7" class="node"><title>Node7</title>
<g id="a_node7"><a xlink:href="namespacepanda_1_1utils.html#aaa6c7cd5892388e6ffdf713b11abf793" target="_top" xlink:title="Book the branch. ">
<polygon fill="white" stroke="black" points="834.359,-66 834.359,-86 928.723,-86 928.723,-66 834.359,-66"/>
<text text-anchor="middle" x="881.541" y="-73" font-family="Helvetica,sans-Serif" font-size="10.00">panda::utils::book</text>
</a>
</g>
</g>
<!-- Node1&#45;&gt;Node7 -->
<g id="edge12" class="edge"><title>Node1&#45;&gt;Node7</title>
<path fill="none" stroke="midnightblue" d="M124.424,-15.0693C186.759,-8.62063 286.223,-0 372.493,-0 372.493,-0 372.493,-0 546.803,-0 657.977,-0 784.898,-40.5893 845.175,-62.4425"/>
<polygon fill="midnightblue" stroke="midnightblue" points="844.015,-65.7449 854.609,-65.9078 846.429,-59.1742 844.015,-65.7449"/>
</g>
<!-- Node3 -->
<g id="node3" class="node"><title>Node3</title>
<g id="a_node3"><a xlink:href="structpanda_1_1MicroJet_1_1datastore.html#a1a17e11396756ae30ac63c834cbe5976" target="_top" xlink:title="panda::MicroJet::datastore\l::book">
<polygon fill="white" stroke="black" points="306.309,-67 306.309,-99 440.676,-99 440.676,-67 306.309,-67"/>
<text text-anchor="start" x="314.309" y="-86" font-family="Helvetica,sans-Serif" font-size="10.00">panda::MicroJet::datastore</text>
<text text-anchor="middle" x="373.493" y="-74" font-family="Helvetica,sans-Serif" font-size="10.00">::book</text>
</a>
</g>
</g>
<!-- Node2&#45;&gt;Node3 -->
<g id="edge2" class="edge"><title>Node2&#45;&gt;Node3</title>
<path fill="none" stroke="midnightblue" d="M270.519,-58.1839C278.967,-60.2398 287.828,-62.3962 296.651,-64.5433"/>
<polygon fill="midnightblue" stroke="midnightblue" points="296.028,-67.9938 306.572,-66.9577 297.683,-61.1923 296.028,-67.9938"/>
</g>
<!-- Node2&#45;&gt;Node7 -->
<g id="edge11" class="edge"><title>Node2&#45;&gt;Node7</title>
<path fill="none" stroke="midnightblue" d="M270.416,-47.5237C394.224,-53.3022 697.315,-67.4483 823.725,-73.3482"/>
<polygon fill="midnightblue" stroke="midnightblue" points="823.807,-76.8558 833.959,-73.8259 824.133,-69.8634 823.807,-76.8558"/>
</g>
<!-- Node4 -->
<g id="node4" class="node"><title>Node4</title>
<g id="a_node4"><a xlink:href="structpanda_1_1ParticleM_1_1datastore.html#ae2eb76ca042d8b3e899c027ee07b5860" target="_top" xlink:title="panda::ParticleM::datastore\l::book">
<polygon fill="white" stroke="black" points="476.676,-105 476.676,-137 614.931,-137 614.931,-105 476.676,-105"/>
<text text-anchor="start" x="484.676" y="-124" font-family="Helvetica,sans-Serif" font-size="10.00">panda::ParticleM::datastore</text>
<text text-anchor="middle" x="545.803" y="-112" font-family="Helvetica,sans-Serif" font-size="10.00">::book</text>
</a>
</g>
</g>
<!-- Node3&#45;&gt;Node4 -->
<g id="edge3" class="edge"><title>Node3&#45;&gt;Node4</title>
<path fill="none" stroke="midnightblue" d="M440.827,-97.8006C449.218,-99.6729 457.866,-101.602 466.422,-103.512"/>
<polygon fill="midnightblue" stroke="midnightblue" points="465.881,-106.977 476.404,-105.739 467.406,-100.145 465.881,-106.977"/>
</g>
<!-- Node3&#45;&gt;Node7 -->
<g id="edge10" class="edge"><title>Node3&#45;&gt;Node7</title>
<path fill="none" stroke="midnightblue" d="M440.909,-82.0813C541.321,-80.6923 730.017,-78.0821 824.149,-76.78"/>
<polygon fill="midnightblue" stroke="midnightblue" points="824.377,-80.2773 834.327,-76.6393 824.28,-73.278 824.377,-80.2773"/>
</g>
<!-- Node5 -->
<g id="node5" class="node"><title>Node5</title>
<g id="a_node5"><a xlink:href="structpanda_1_1Particle_1_1datastore.html#af75a5d8b8a18ee09ce98ab37888b4404" target="_top" xlink:title="panda::Particle::datastore\l::book">
<polygon fill="white" stroke="black" points="650.931,-143 650.931,-175 780.857,-175 780.857,-143 650.931,-143"/>
<text text-anchor="start" x="658.931" y="-162" font-family="Helvetica,sans-Serif" font-size="10.00">panda::Particle::datastore</text>
<text text-anchor="middle" x="715.894" y="-150" font-family="Helvetica,sans-Serif" font-size="10.00">::book</text>
</a>
</g>
</g>
<!-- Node4&#45;&gt;Node5 -->
<g id="edge4" class="edge"><title>Node4&#45;&gt;Node5</title>
<path fill="none" stroke="midnightblue" d="M615.172,-136.456C623.665,-138.376 632.379,-140.346 640.951,-142.284"/>
<polygon fill="midnightblue" stroke="midnightblue" points="640.401,-145.748 650.927,-144.539 641.945,-138.92 640.401,-145.748"/>
</g>
<!-- Node4&#45;&gt;Node7 -->
<g id="edge9" class="edge"><title>Node4&#45;&gt;Node7</title>
<path fill="none" stroke="midnightblue" d="M615.185,-112.087C661.868,-105.967 725.116,-97.6056 780.857,-90 794.791,-88.0988 809.814,-86.0096 823.865,-84.0384"/>
<polygon fill="midnightblue" stroke="midnightblue" points="824.48,-87.4865 833.895,-82.6283 823.505,-80.5546 824.48,-87.4865"/>
</g>
<!-- Node6 -->
<g id="node6" class="node"><title>Node6</title>
<g id="a_node6"><a xlink:href="structpanda_1_1ContainerElement_1_1datastore.html#a3a4062043d9a913acd4056ab1cf5a93f" target="_top" xlink:title="panda::ContainerElement\l::datastore::book">
<polygon fill="white" stroke="black" points="816.857,-143 816.857,-175 946.224,-175 946.224,-143 816.857,-143"/>
<text text-anchor="start" x="824.857" y="-162" font-family="Helvetica,sans-Serif" font-size="10.00">panda::ContainerElement</text>
<text text-anchor="middle" x="881.541" y="-150" font-family="Helvetica,sans-Serif" font-size="10.00">::datastore::book</text>
</a>
</g>
</g>
<!-- Node5&#45;&gt;Node6 -->
<g id="edge5" class="edge"><title>Node5&#45;&gt;Node6</title>
<path fill="none" stroke="midnightblue" d="M781.102,-159C789.441,-159 798.037,-159 806.52,-159"/>
<polygon fill="midnightblue" stroke="midnightblue" points="806.786,-162.5 816.786,-159 806.786,-155.5 806.786,-162.5"/>
</g>
<!-- Node5&#45;&gt;Node7 -->
<g id="edge6" class="edge"><title>Node5&#45;&gt;Node7</title>
<path fill="none" stroke="midnightblue" d="M750.514,-142.936C760.325,-138.186 771.046,-132.935 780.857,-128 805.244,-115.733 832.735,-101.35 852.661,-90.824"/>
<polygon fill="midnightblue" stroke="midnightblue" points="854.316,-93.9083 861.517,-86.1368 851.041,-87.7215 854.316,-93.9083"/>
</g>
<!-- Node8 -->
<g id="node8" class="node"><title>Node8</title>
<g id="a_node8"><a xlink:href="classpanda_1_1utils_1_1BranchName.html#a6cc8a6df7c5b12a0221fd49773cca6a7" target="_top" xlink:title="Is the name included and not vetoed? ">
<polygon fill="white" stroke="black" points="982.224,-89 982.224,-109 1126.59,-109 1126.59,-89 982.224,-89"/>
<text text-anchor="middle" x="1054.41" y="-96" font-family="Helvetica,sans-Serif" font-size="10.00">panda::utils::BranchName::in</text>
</a>
</g>
</g>
<!-- Node7&#45;&gt;Node8 -->
<g id="edge7" class="edge"><title>Node7&#45;&gt;Node8</title>
<path fill="none" stroke="midnightblue" d="M928.779,-82.2241C942.109,-84.0185 957.065,-86.0316 971.864,-88.0238"/>
<polygon fill="midnightblue" stroke="midnightblue" points="971.686,-91.5312 982.063,-89.3966 972.619,-84.5938 971.686,-91.5312"/>
</g>
<!-- Node9 -->
<g id="node9" class="node"><title>Node9</title>
<g id="a_node9"><a xlink:href="classpanda_1_1utils_1_1BranchName.html#a13958ff4a9d554d2c057c600b4f70412" target="_top" xlink:title="Prepend the branch name with &lt;objName.&gt;. ">
<polygon fill="white" stroke="black" points="988.892,-38 988.892,-70 1119.92,-70 1119.92,-38 988.892,-38"/>
<text text-anchor="start" x="996.892" y="-57" font-family="Helvetica,sans-Serif" font-size="10.00">panda::utils::BranchName</text>
<text text-anchor="middle" x="1054.41" y="-45" font-family="Helvetica,sans-Serif" font-size="10.00">::fullName</text>
</a>
</g>
</g>
<!-- Node7&#45;&gt;Node9 -->
<g id="edge8" class="edge"><title>Node7&#45;&gt;Node9</title>
<path fill="none" stroke="midnightblue" d="M928.779,-70.0465C944.229,-68.0572 961.862,-65.7869 978.905,-63.5925"/>
<polygon fill="midnightblue" stroke="midnightblue" points="979.379,-67.0604 988.85,-62.312 978.485,-60.1178 979.379,-67.0604"/>
</g>
</g>
</svg>
