<?xml version="1.0" encoding="UTF-8" standalone="no"?>
<!DOCTYPE svg PUBLIC "-//W3C//DTD SVG 1.1//EN"
 "http://www.w3.org/Graphics/SVG/1.1/DTD/svg11.dtd">
<!-- Generated by graphviz version 2.38.0 (20140413.2041)
 -->
<!-- Title: panda::Particle::datastore::resizeVectors_ Pages: 1 -->
<!--zoomable 398 -->
<svg id="main" version="1.1" xmlns="http://www.w3.org/2000/svg" xmlns:xlink="http://www.w3.org/1999/xlink" xml:space="preserve" onload="init(evt)">
<style type="text/css"><![CDATA[
.edge:hover path { stroke: red; }
.edge:hover polygon { stroke: red; fill: red; }
]]></style>
<script type="text/javascript"><![CDATA[
var edges = document.getElementsByTagName('g');
if (edges && edges.length) {
  for (var i=0;i<edges.length;i++) {
    if (edges[i].id.substr(0,4)=='edge') {
      edges[i].setAttribute('class','edge');
    }
  }
}
]]></script>
        <defs>
                <circle id="rim" cx="0" cy="0" r="7"/>
                <circle id="rim2" cx="0" cy="0" r="3.5"/>
                <g id="zoomPlus">
                        <use xlink:href="#rim" fill="#404040">
                                <set attributeName="fill" to="#808080" begin="zoomplus.mouseover" end="zoomplus.mouseout"/>
                        </use>
                        <path d="M-4,0h8M0,-4v8" fill="none" stroke="white" stroke-width="1.5" pointer-events="none"/>
                </g>
                <g id="zoomMin">
                        <use xlink:href="#rim" fill="#404040">
                                <set attributeName="fill" to="#808080" begin="zoomminus.mouseover" end="zoomminus.mouseout"/>
                        </use>
                        <path d="M-4,0h8" fill="none" stroke="white" stroke-width="1.5" pointer-events="none"/>
                </g>
                <g id="dirArrow">
                        <path fill="none" stroke="white" stroke-width="1.5" d="M0,-3.0v7 M-2.5,-0.5L0,-3.0L2.5,-0.5"/>
                </g>
               <g id="resetDef">
                       <use xlink:href="#rim2" fill="#404040">
                               <set attributeName="fill" to="#808080" begin="reset.mouseover" end="reset.mouseout"/>
                       </use>
               </g>
        </defs>

<script type="text/javascript">
var viewWidth = 789;
var viewHeight = 398;
var sectionId = 'dynsection-12';
</script>
<script xlink:href="svgpan.js"/>
<svg id="graph" class="graph">
<g id="viewport">
<title>panda::Particle::datastore::resizeVectors_</title>
<polygon fill="white" stroke="none" points="-4,4 -4,-394 785.408,-394 785.408,4 -4,4"/>
<!-- Node1 -->
<g id="node1" class="node"><title>Node1</title>
<polygon fill="#bfbfbf" stroke="black" points="-2.84217e-14,-153.5 -2.84217e-14,-185.5 129.926,-185.5 129.926,-153.5 -2.84217e-14,-153.5"/>
<text text-anchor="start" x="8" y="-172.5" font-family="Helvetica,sans-Serif" font-size="10.00">panda::Particle::datastore</text>
<text text-anchor="middle" x="64.963" y="-160.5" font-family="Helvetica,sans-Serif" font-size="10.00">::resizeVectors_</text>
</g>
<!-- Node2 -->
<g id="node2" class="node"><title>Node2</title>
<g id="a_node2"><a xlink:href="structpanda_1_1Lepton_1_1datastore.html#ae0167ad568d7b57d6e11b1775cd790c7" target="_top" xlink:title="Override when there are vector members. ">
<polygon fill="white" stroke="black" points="171.47,-306.5 171.47,-338.5 298.637,-338.5 298.637,-306.5 171.47,-306.5"/>
<text text-anchor="start" x="179.47" y="-325.5" font-family="Helvetica,sans-Serif" font-size="10.00">panda::Lepton::datastore</text>
<text text-anchor="middle" x="235.053" y="-313.5" font-family="Helvetica,sans-Serif" font-size="10.00">::resizeVectors_</text>
</a>
</g>
</g>
<!-- Node1&#45;&gt;Node2 -->
<g id="edge1" class="edge"><title>Node1&#45;&gt;Node2</title>
<path fill="none" stroke="midnightblue" d="M91.3854,-192.64C125.836,-223.998 186.469,-279.188 216.367,-306.401"/>
<polygon fill="midnightblue" stroke="midnightblue" points="93.3852,-189.728 83.6339,-185.585 88.6732,-194.904 93.3852,-189.728"/>
</g>
<!-- Node5 -->
<g id="node5" class="node"><title>Node5</title>
<g id="a_node5"><a xlink:href="structpanda_1_1ParticleM_1_1datastore.html#a6dd61d4a8f70e81a1638757a5edbc7ed" target="_top" xlink:title="Override when there are vector members. ">
<polygon fill="white" stroke="black" points="165.926,-153.5 165.926,-185.5 304.181,-185.5 304.181,-153.5 165.926,-153.5"/>
<text text-anchor="start" x="173.926" y="-172.5" font-family="Helvetica,sans-Serif" font-size="10.00">panda::ParticleM::datastore</text>
<text text-anchor="middle" x="235.053" y="-160.5" font-family="Helvetica,sans-Serif" font-size="10.00">::resizeVectors_</text>
</a>
</g>
</g>
<!-- Node1&#45;&gt;Node5 -->
<g id="edge4" class="edge"><title>Node1&#45;&gt;Node5</title>
<path fill="none" stroke="midnightblue" d="M140.242,-169.5C148.72,-169.5 157.333,-169.5 165.728,-169.5"/>
<polygon fill="midnightblue" stroke="midnightblue" points="139.99,-166 129.99,-169.5 139.99,-173 139.99,-166"/>
</g>
<!-- Node14 -->
<g id="node14" class="node"><title>Node14</title>
<g id="a_node14"><a xlink:href="structpanda_1_1Photon_1_1datastore.html#a819de9f7590bca725315d2b6432b0f6a" target="_top" xlink:title="Override when there are vector members. ">
<polygon fill="white" stroke="black" points="170.915,-102.5 170.915,-134.5 299.192,-134.5 299.192,-102.5 170.915,-102.5"/>
<text text-anchor="start" x="178.915" y="-121.5" font-family="Helvetica,sans-Serif" font-size="10.00">panda::Photon::datastore</text>
<text text-anchor="middle" x="235.053" y="-109.5" font-family="Helvetica,sans-Serif" font-size="10.00">::resizeVectors_</text>
</a>
</g>
</g>
<!-- Node1&#45;&gt;Node14 -->
<g id="edge13" class="edge"><title>Node1&#45;&gt;Node14</title>
<path fill="none" stroke="midnightblue" d="M129.091,-150.347C146.262,-145.137 164.678,-139.549 181.215,-134.532"/>
<polygon fill="midnightblue" stroke="midnightblue" points="127.701,-147.111 119.148,-153.363 129.733,-153.809 127.701,-147.111"/>
</g>
<!-- Node3 -->
<g id="node3" class="node"><title>Node3</title>
<g id="a_node3"><a xlink:href="structpanda_1_1Electron_1_1datastore.html#a8f0e7ee31635f5cf7482c86b732877a2" target="_top" xlink:title="Override when there are vector members. ">
<polygon fill="white" stroke="black" points="341.007,-357.5 341.007,-389.5 474.273,-389.5 474.273,-357.5 341.007,-357.5"/>
<text text-anchor="start" x="349.007" y="-376.5" font-family="Helvetica,sans-Serif" font-size="10.00">panda::Electron::datastore</text>
<text text-anchor="middle" x="407.64" y="-364.5" font-family="Helvetica,sans-Serif" font-size="10.00">::resizeVectors_</text>
</a>
</g>
</g>
<!-- Node2&#45;&gt;Node3 -->
<g id="edge2" class="edge"><title>Node2&#45;&gt;Node3</title>
<path fill="none" stroke="midnightblue" d="M299.63,-341.508C317.196,-346.759 336.077,-352.404 353.016,-357.468"/>
<polygon fill="midnightblue" stroke="midnightblue" points="300.612,-338.148 290.028,-338.637 298.607,-344.855 300.612,-338.148"/>
</g>
<!-- Node4 -->
<g id="node4" class="node"><title>Node4</title>
<g id="a_node4"><a xlink:href="structpanda_1_1Muon_1_1datastore.html#a77544efc70e6058bc86a09dc6a13f483" target="_top" xlink:title="Override when there are vector members. ">
<polygon fill="white" stroke="black" points="346.841,-306.5 346.841,-338.5 468.439,-338.5 468.439,-306.5 346.841,-306.5"/>
<text text-anchor="start" x="354.841" y="-325.5" font-family="Helvetica,sans-Serif" font-size="10.00">panda::Muon::datastore</text>
<text text-anchor="middle" x="407.64" y="-313.5" font-family="Helvetica,sans-Serif" font-size="10.00">::resizeVectors_</text>
</a>
</g>
</g>
<!-- Node2&#45;&gt;Node4 -->
<g id="edge3" class="edge"><title>Node2&#45;&gt;Node4</title>
<path fill="none" stroke="midnightblue" d="M309.432,-322.5C321.871,-322.5 334.654,-322.5 346.696,-322.5"/>
<polygon fill="midnightblue" stroke="midnightblue" points="309.089,-319 299.089,-322.5 309.089,-326 309.089,-319"/>
</g>
<!-- Node6 -->
<g id="node6" class="node"><title>Node6</title>
<g id="a_node6"><a xlink:href="structpanda_1_1GenJet_1_1datastore.html#a6b6d0feb6fe978115c45180cccb7497b" target="_top" xlink:title="Override when there are vector members. ">
<polygon fill="white" stroke="black" points="343.226,-255.5 343.226,-287.5 472.054,-287.5 472.054,-255.5 343.226,-255.5"/>
<text text-anchor="start" x="351.226" y="-274.5" font-family="Helvetica,sans-Serif" font-size="10.00">panda::GenJet::datastore</text>
<text text-anchor="middle" x="407.64" y="-262.5" font-family="Helvetica,sans-Serif" font-size="10.00">::resizeVectors_</text>
</a>
</g>
</g>
<!-- Node5&#45;&gt;Node6 -->
<g id="edge5" class="edge"><title>Node5&#45;&gt;Node6</title>
<path fill="none" stroke="midnightblue" d="M262.388,-192.191C282.651,-208.828 311.887,-231.107 340.181,-246.5 346.137,-249.74 352.601,-252.742 359.08,-255.458"/>
<polygon fill="midnightblue" stroke="midnightblue" points="264.475,-189.374 254.55,-185.668 259.998,-194.755 264.475,-189.374"/>
</g>
<!-- Node7 -->
<g id="node7" class="node"><title>Node7</title>
<g id="a_node7"><a xlink:href="structpanda_1_1GenParticle_1_1datastore.html#a28a604490b71305ae71b9671e3ea0bdf" target="_top" xlink:title="Override when there are vector members. ">
<polygon fill="white" stroke="black" points="340.181,-204.5 340.181,-236.5 475.099,-236.5 475.099,-204.5 340.181,-204.5"/>
<text text-anchor="start" x="348.181" y="-223.5" font-family="Helvetica,sans-Serif" font-size="10.00">panda::GenParticle</text>
<text text-anchor="middle" x="407.64" y="-211.5" font-family="Helvetica,sans-Serif" font-size="10.00">::datastore::resizeVectors_</text>
</a>
</g>
</g>
<!-- Node5&#45;&gt;Node7 -->
<g id="edge6" class="edge"><title>Node5&#45;&gt;Node7</title>
<path fill="none" stroke="midnightblue" d="M299.63,-188.508C317.196,-193.759 336.077,-199.404 353.016,-204.468"/>
<polygon fill="midnightblue" stroke="midnightblue" points="300.612,-185.148 290.028,-185.637 298.607,-191.855 300.612,-185.148"/>
</g>
<!-- Node8 -->
<g id="node8" class="node"><title>Node8</title>
<g id="a_node8"><a xlink:href="structpanda_1_1MicroJet_1_1datastore.html#a9570f85bfad7f55e239670d0f364cb8b" target="_top" xlink:title="Override when there are vector members. ">
<polygon fill="white" stroke="black" points="340.457,-153.5 340.457,-185.5 474.823,-185.5 474.823,-153.5 340.457,-153.5"/>
<text text-anchor="start" x="348.457" y="-172.5" font-family="Helvetica,sans-Serif" font-size="10.00">panda::MicroJet::datastore</text>
<text text-anchor="middle" x="407.64" y="-160.5" font-family="Helvetica,sans-Serif" font-size="10.00">::resizeVectors_</text>
</a>
</g>
</g>
<!-- Node5&#45;&gt;Node8 -->
<g id="edge7" class="edge"><title>Node5&#45;&gt;Node8</title>
<path fill="none" stroke="midnightblue" d="M314.552,-169.5C323.208,-169.5 331.958,-169.5 340.443,-169.5"/>
<polygon fill="midnightblue" stroke="midnightblue" points="314.455,-166 304.455,-169.5 314.455,-173 314.455,-166"/>
</g>
<!-- Node11 -->
<g id="node11" class="node"><title>Node11</title>
<g id="a_node11"><a xlink:href="structpanda_1_1Parton_1_1datastore.html#a85ed8f023c9fddb6ada93150e4d03c22" target="_top" xlink:title="Override when there are vector members. ">
<polygon fill="white" stroke="black" points="344.616,-102.5 344.616,-134.5 470.663,-134.5 470.663,-102.5 344.616,-102.5"/>
<text text-anchor="start" x="352.616" y="-121.5" font-family="Helvetica,sans-Serif" font-size="10.00">panda::Parton::datastore</text>
<text text-anchor="middle" x="407.64" y="-109.5" font-family="Helvetica,sans-Serif" font-size="10.00">::resizeVectors_</text>
</a>
</g>
</g>
<!-- Node5&#45;&gt;Node11 -->
<g id="edge10" class="edge"><title>Node5&#45;&gt;Node11</title>
<path fill="none" stroke="midnightblue" d="M299.63,-150.492C317.196,-145.241 336.077,-139.596 353.016,-134.532"/>
<polygon fill="midnightblue" stroke="midnightblue" points="298.607,-147.145 290.028,-153.363 300.612,-153.852 298.607,-147.145"/>
</g>
<!-- Node12 -->
<g id="node12" class="node"><title>Node12</title>
<g id="a_node12"><a xlink:href="structpanda_1_1PFCand_1_1datastore.html#a3e3acf6cc81f4ebe16220a7931b3bb2d" target="_top" xlink:title="Override when there are vector members. ">
<polygon fill="white" stroke="black" points="341.006,-51.5 341.006,-83.5 474.274,-83.5 474.274,-51.5 341.006,-51.5"/>
<text text-anchor="start" x="349.006" y="-70.5" font-family="Helvetica,sans-Serif" font-size="10.00">panda::PFCand::datastore</text>
<text text-anchor="middle" x="407.64" y="-58.5" font-family="Helvetica,sans-Serif" font-size="10.00">::resizeVectors_</text>
</a>
</g>
</g>
<!-- Node5&#45;&gt;Node12 -->
<g id="edge11" class="edge"><title>Node5&#45;&gt;Node12</title>
<path fill="none" stroke="midnightblue" d="M298.591,-148.405C300.524,-147.17 302.394,-145.87 304.181,-144.5 326.202,-127.623 318.34,-110.61 340.181,-93.5 344.96,-89.7562 350.344,-86.493 355.927,-83.6636"/>
<polygon fill="midnightblue" stroke="midnightblue" points="296.755,-145.422 289.783,-153.399 300.208,-151.511 296.755,-145.422"/>
</g>
<!-- Node13 -->
<g id="node13" class="node"><title>Node13</title>
<g id="a_node13"><a xlink:href="structpanda_1_1Tau_1_1datastore.html#a1dce455474842a78eb6a7ab7b3271f3a" target="_top" xlink:title="Override when there are vector members. ">
<polygon fill="white" stroke="black" points="350.73,-0.5 350.73,-32.5 464.55,-32.5 464.55,-0.5 350.73,-0.5"/>
<text text-anchor="start" x="358.73" y="-19.5" font-family="Helvetica,sans-Serif" font-size="10.00">panda::Tau::datastore</text>
<text text-anchor="middle" x="407.64" y="-7.5" font-family="Helvetica,sans-Serif" font-size="10.00">::resizeVectors_</text>
</a>
</g>
</g>
<!-- Node5&#45;&gt;Node13 -->
<g id="edge12" class="edge"><title>Node5&#45;&gt;Node13</title>
<path fill="none" stroke="midnightblue" d="M301.228,-147.266C302.249,-146.38 303.235,-145.458 304.181,-144.5 337.963,-110.296 306.764,-77.0601 340.181,-42.5 343.884,-38.6701 348.219,-35.3932 352.867,-32.5917"/>
<polygon fill="midnightblue" stroke="midnightblue" points="298.829,-144.684 292.804,-153.399 302.949,-150.343 298.829,-144.684"/>
</g>
<!-- Node9 -->
<g id="node9" class="node"><title>Node9</title>
<g id="a_node9"><a xlink:href="structpanda_1_1Jet_1_1datastore.html#a8de9fbcd55c17f7d3d022088f6ded487" target="_top" xlink:title="Override when there are vector members. ">
<polygon fill="white" stroke="black" points="511.099,-153.5 511.099,-185.5 621.03,-185.5 621.03,-153.5 511.099,-153.5"/>
<text text-anchor="start" x="519.099" y="-172.5" font-family="Helvetica,sans-Serif" font-size="10.00">panda::Jet::datastore</text>
<text text-anchor="middle" x="566.064" y="-160.5" font-family="Helvetica,sans-Serif" font-size="10.00">::resizeVectors_</text>
</a>
</g>
</g>
<!-- Node8&#45;&gt;Node9 -->
<g id="edge8" class="edge"><title>Node8&#45;&gt;Node9</title>
<path fill="none" stroke="midnightblue" d="M485.16,-169.5C493.866,-169.5 502.6,-169.5 510.931,-169.5"/>
<polygon fill="midnightblue" stroke="midnightblue" points="484.978,-166 474.978,-169.5 484.978,-173 484.978,-166"/>
</g>
<!-- Node10 -->
<g id="node10" class="node"><title>Node10</title>
<g id="a_node10"><a xlink:href="structpanda_1_1FatJet_1_1datastore.html#ac707315048c1fe184534202259fbdda9" target="_top" xlink:title="Override when there are vector members. ">
<polygon fill="white" stroke="black" points="657.03,-153.5 657.03,-185.5 781.408,-185.5 781.408,-153.5 657.03,-153.5"/>
<text text-anchor="start" x="665.03" y="-172.5" font-family="Helvetica,sans-Serif" font-size="10.00">panda::FatJet::datastore</text>
<text text-anchor="middle" x="719.219" y="-160.5" font-family="Helvetica,sans-Serif" font-size="10.00">::resizeVectors_</text>
</a>
</g>
</g>
<!-- Node9&#45;&gt;Node10 -->
<g id="edge9" class="edge"><title>Node9&#45;&gt;Node10</title>
<path fill="none" stroke="midnightblue" d="M631.427,-169.5C639.907,-169.5 648.58,-169.5 657.005,-169.5"/>
<polygon fill="midnightblue" stroke="midnightblue" points="631.208,-166 621.208,-169.5 631.208,-173 631.208,-166"/>
</g>
</g>
</svg>
        <g id="navigator" transform="translate(0 0)" fill="#404254">
                <rect fill="#f2f5e9" fill-opacity="0.5" stroke="#606060" stroke-width=".5" x="0" y="0" width="60" height="60"/>
                <use id="zoomplus" xlink:href="#zoomPlus" x="17" y="9" onmousedown="handleZoom(evt,'in')"/>
                <use id="zoomminus" xlink:href="#zoomMin" x="42" y="9" onmousedown="handleZoom(evt,'out')"/>
                <use id="reset" xlink:href="#resetDef" x="30" y="36" onmousedown="handleReset()"/>
                <g id="arrowUp" xlink:href="#dirArrow" transform="translate(30 24)" onmousedown="handlePan(0,-1)">
                  <use xlink:href="#rim" fill="#404040">
                        <set attributeName="fill" to="#808080" begin="arrowUp.mouseover" end="arrowUp.mouseout"/>
                  </use>
                  <path fill="none" stroke="white" stroke-width="1.5" d="M0,-3.0v7 M-2.5,-0.5L0,-3.0L2.5,-0.5"/>
                </g>
                <g id="arrowRight" xlink:href="#dirArrow" transform="rotate(90) translate(36 -43)" onmousedown="handlePan(1,0)">
                  <use xlink:href="#rim" fill="#404040">
                        <set attributeName="fill" to="#808080" begin="arrowRight.mouseover" end="arrowRight.mouseout"/>
                  </use>
                  <path fill="none" stroke="white" stroke-width="1.5" d="M0,-3.0v7 M-2.5,-0.5L0,-3.0L2.5,-0.5"/>
                </g>
                <g id="arrowDown" xlink:href="#dirArrow" transform="rotate(180) translate(-30 -48)" onmousedown="handlePan(0,1)">
                  <use xlink:href="#rim" fill="#404040">
                        <set attributeName="fill" to="#808080" begin="arrowDown.mouseover" end="arrowDown.mouseout"/>
                  </use>
                  <path fill="none" stroke="white" stroke-width="1.5" d="M0,-3.0v7 M-2.5,-0.5L0,-3.0L2.5,-0.5"/>
                </g>
                <g id="arrowLeft" xlink:href="#dirArrow" transform="rotate(270) translate(-36 17)" onmousedown="handlePan(-1,0)">
                  <use xlink:href="#rim" fill="#404040">
                        <set attributeName="fill" to="#808080" begin="arrowLeft.mouseover" end="arrowLeft.mouseout"/>
                  </use>
                  <path fill="none" stroke="white" stroke-width="1.5" d="M0,-3.0v7 M-2.5,-0.5L0,-3.0L2.5,-0.5"/>
                </g>
        </g>
        <svg viewBox="0 0 15 15" width="100%" height="30px" preserveAspectRatio="xMaxYMin meet">
         <g id="arrow_out" transform="scale(0.3 0.3)">
          <a xlink:href="structpanda_1_1Particle_1_1datastore_aef7e06dbd8399f7de3215aa895907c5f_icgraph_org.svg" target="_base">
           <rect id="button" ry="5" rx="5" y="6" x="6" height="38" width="38"
                fill="#f2f5e9" fill-opacity="0.5" stroke="#606060" stroke-width="1.0"/>
           <path id="arrow"
             d="M 11.500037,31.436501 C 11.940474,20.09759 22.043105,11.32322 32.158766,21.979434 L 37.068811,17.246167 C 37.068811,17.246167 37.088388,32 37.088388,32 L 22.160133,31.978069 C 22.160133,31.978069 26.997745,27.140456 26.997745,27.140456 C 18.528582,18.264221 13.291696,25.230495 11.500037,31.436501 z"
             style="fill:#404040;"/>
          </a>
         </g>
        </svg>
</svg>
