<?xml version="1.0" encoding="UTF-8" standalone="no"?>
<!DOCTYPE svg PUBLIC "-//W3C//DTD SVG 1.1//EN"
 "http://www.w3.org/Graphics/SVG/1.1/DTD/svg11.dtd">
<!-- Generated by graphviz version 2.38.0 (20140413.2041)
 -->
<!-- Title: panda::ContainerElement::datastore::allocate Pages: 1 -->
<!--zoomable 398 -->
<svg id="main" version="1.1" xmlns="http://www.w3.org/2000/svg" xmlns:xlink="http://www.w3.org/1999/xlink" xml:space="preserve" onload="init(evt)">
<style type="text/css"><![CDATA[
.edge:hover path { stroke: red; }
.edge:hover polygon { stroke: red; fill: red; }
]]></style>
<script type="text/javascript"><![CDATA[
var edges = document.getElementsByTagName('g');
if (edges && edges.length) {
  for (var i=0;i<edges.length;i++) {
    if (edges[i].id.substr(0,4)=='edge') {
      edges[i].setAttribute('class','edge');
    }
  }
}
]]></script>
        <defs>
                <circle id="rim" cx="0" cy="0" r="7"/>
                <circle id="rim2" cx="0" cy="0" r="3.5"/>
                <g id="zoomPlus">
                        <use xlink:href="#rim" fill="#404040">
                                <set attributeName="fill" to="#808080" begin="zoomplus.mouseover" end="zoomplus.mouseout"/>
                        </use>
                        <path d="M-4,0h8M0,-4v8" fill="none" stroke="white" stroke-width="1.5" pointer-events="none"/>
                </g>
                <g id="zoomMin">
                        <use xlink:href="#rim" fill="#404040">
                                <set attributeName="fill" to="#808080" begin="zoomminus.mouseover" end="zoomminus.mouseout"/>
                        </use>
                        <path d="M-4,0h8" fill="none" stroke="white" stroke-width="1.5" pointer-events="none"/>
                </g>
                <g id="dirArrow">
                        <path fill="none" stroke="white" stroke-width="1.5" d="M0,-3.0v7 M-2.5,-0.5L0,-3.0L2.5,-0.5"/>
                </g>
               <g id="resetDef">
                       <use xlink:href="#rim2" fill="#404040">
                               <set attributeName="fill" to="#808080" begin="reset.mouseover" end="reset.mouseout"/>
                       </use>
               </g>
        </defs>

<script type="text/javascript">
var viewWidth = 954;
var viewHeight = 398;
var sectionId = 'dynsection-2';
</script>
<script xlink:href="svgpan.js"/>
<svg id="graph" class="graph">
<g id="viewport">
<title>panda::ContainerElement::datastore::allocate</title>
<polygon fill="white" stroke="none" points="-4,4 -4,-394 950.224,-394 950.224,4 -4,4"/>
<!-- Node1 -->
<g id="node1" class="node"><title>Node1</title>
<polygon fill="#bfbfbf" stroke="black" points="-1.42109e-14,-127.5 -1.42109e-14,-159.5 129.367,-159.5 129.367,-127.5 -1.42109e-14,-127.5"/>
<text text-anchor="start" x="8" y="-146.5" font-family="Helvetica,sans-Serif" font-size="10.00">panda::ContainerElement</text>
<text text-anchor="middle" x="64.6835" y="-134.5" font-family="Helvetica,sans-Serif" font-size="10.00">::datastore::allocate</text>
</g>
<!-- Node2 -->
<g id="node2" class="node"><title>Node2</title>
<g id="a_node2"><a xlink:href="structpanda_1_1Particle_1_1datastore.html#aab4009a97b5f3cc30eaf61cd7dbf2e3d" target="_top" xlink:title="panda::Particle::datastore\l::allocate">
<polygon fill="white" stroke="black" points="165.367,-153.5 165.367,-185.5 295.293,-185.5 295.293,-153.5 165.367,-153.5"/>
<text text-anchor="start" x="173.367" y="-172.5" font-family="Helvetica,sans-Serif" font-size="10.00">panda::Particle::datastore</text>
<text text-anchor="middle" x="230.33" y="-160.5" font-family="Helvetica,sans-Serif" font-size="10.00">::allocate</text>
</a>
</g>
</g>
<!-- Node1&#45;&gt;Node2 -->
<g id="edge1" class="edge"><title>Node1&#45;&gt;Node2</title>
<path fill="none" stroke="midnightblue" d="M139.443,-155.219C148.046,-156.586 156.769,-157.972 165.227,-159.315"/>
<polygon fill="midnightblue" stroke="midnightblue" points="139.847,-151.739 129.422,-153.627 138.749,-158.653 139.847,-151.739"/>
</g>
<!-- Node16 -->
<g id="node16" class="node"><title>Node16</title>
<g id="a_node16"><a xlink:href="structpanda_1_1SuperCluster_1_1datastore.html#a24b328c94059debffe88149d5d4e8367" target="_top" xlink:title="panda::SuperCluster\l::datastore::allocate">
<polygon fill="white" stroke="black" points="176.484,-102.5 176.484,-134.5 284.176,-134.5 284.176,-102.5 176.484,-102.5"/>
<text text-anchor="start" x="184.484" y="-121.5" font-family="Helvetica,sans-Serif" font-size="10.00">panda::SuperCluster</text>
<text text-anchor="middle" x="230.33" y="-109.5" font-family="Helvetica,sans-Serif" font-size="10.00">::datastore::allocate</text>
</a>
</g>
</g>
<!-- Node1&#45;&gt;Node16 -->
<g id="edge15" class="edge"><title>Node1&#45;&gt;Node16</title>
<path fill="none" stroke="midnightblue" d="M139.347,-132.247C151.818,-130.341 164.545,-128.397 176.352,-126.593"/>
<polygon fill="midnightblue" stroke="midnightblue" points="138.779,-128.793 129.422,-133.763 139.836,-135.712 138.779,-128.793"/>
</g>
<!-- Node3 -->
<g id="node3" class="node"><title>Node3</title>
<g id="a_node3"><a xlink:href="structpanda_1_1Lepton_1_1datastore.html#a109ac02caed6e0a69a1b00248d80500e" target="_top" xlink:title="panda::Lepton::datastore\l::allocate">
<polygon fill="white" stroke="black" points="336.837,-306.5 336.837,-338.5 464.004,-338.5 464.004,-306.5 336.837,-306.5"/>
<text text-anchor="start" x="344.837" y="-325.5" font-family="Helvetica,sans-Serif" font-size="10.00">panda::Lepton::datastore</text>
<text text-anchor="middle" x="400.421" y="-313.5" font-family="Helvetica,sans-Serif" font-size="10.00">::allocate</text>
</a>
</g>
</g>
<!-- Node2&#45;&gt;Node3 -->
<g id="edge2" class="edge"><title>Node2&#45;&gt;Node3</title>
<path fill="none" stroke="midnightblue" d="M256.752,-192.64C291.203,-223.998 351.836,-279.188 381.734,-306.401"/>
<polygon fill="midnightblue" stroke="midnightblue" points="258.752,-189.728 249.001,-185.585 254.04,-194.904 258.752,-189.728"/>
</g>
<!-- Node6 -->
<g id="node6" class="node"><title>Node6</title>
<g id="a_node6"><a xlink:href="structpanda_1_1ParticleM_1_1datastore.html#aafc17a88cf8425ff45a00b5fd2eb5751" target="_top" xlink:title="panda::ParticleM::datastore\l::allocate">
<polygon fill="white" stroke="black" points="331.293,-153.5 331.293,-185.5 469.548,-185.5 469.548,-153.5 331.293,-153.5"/>
<text text-anchor="start" x="339.293" y="-172.5" font-family="Helvetica,sans-Serif" font-size="10.00">panda::ParticleM::datastore</text>
<text text-anchor="middle" x="400.421" y="-160.5" font-family="Helvetica,sans-Serif" font-size="10.00">::allocate</text>
</a>
</g>
</g>
<!-- Node2&#45;&gt;Node6 -->
<g id="edge5" class="edge"><title>Node2&#45;&gt;Node6</title>
<path fill="none" stroke="midnightblue" d="M305.609,-169.5C314.087,-169.5 322.7,-169.5 331.095,-169.5"/>
<polygon fill="midnightblue" stroke="midnightblue" points="305.357,-166 295.357,-169.5 305.357,-173 305.357,-166"/>
</g>
<!-- Node15 -->
<g id="node15" class="node"><title>Node15</title>
<g id="a_node15"><a xlink:href="structpanda_1_1Photon_1_1datastore.html#aafdc384cc9e57f60b6acecb3ad82fdb2" target="_top" xlink:title="panda::Photon::datastore\l::allocate">
<polygon fill="white" stroke="black" points="336.282,-102.5 336.282,-134.5 464.559,-134.5 464.559,-102.5 336.282,-102.5"/>
<text text-anchor="start" x="344.282" y="-121.5" font-family="Helvetica,sans-Serif" font-size="10.00">panda::Photon::datastore</text>
<text text-anchor="middle" x="400.421" y="-109.5" font-family="Helvetica,sans-Serif" font-size="10.00">::allocate</text>
</a>
</g>
</g>
<!-- Node2&#45;&gt;Node15 -->
<g id="edge14" class="edge"><title>Node2&#45;&gt;Node15</title>
<path fill="none" stroke="midnightblue" d="M294.458,-150.347C311.629,-145.137 330.045,-139.549 346.582,-134.532"/>
<polygon fill="midnightblue" stroke="midnightblue" points="293.068,-147.111 284.515,-153.363 295.1,-153.809 293.068,-147.111"/>
</g>
<!-- Node4 -->
<g id="node4" class="node"><title>Node4</title>
<g id="a_node4"><a xlink:href="structpanda_1_1Electron_1_1datastore.html#a3e84b684132c59a589f7a041cae61507" target="_top" xlink:title="panda::Electron::datastore\l::allocate">
<polygon fill="white" stroke="black" points="506.099,-357.5 506.099,-389.5 639.365,-389.5 639.365,-357.5 506.099,-357.5"/>
<text text-anchor="start" x="514.099" y="-376.5" font-family="Helvetica,sans-Serif" font-size="10.00">panda::Electron::datastore</text>
<text text-anchor="middle" x="572.732" y="-364.5" font-family="Helvetica,sans-Serif" font-size="10.00">::allocate</text>
</a>
</g>
</g>
<!-- Node3&#45;&gt;Node4 -->
<g id="edge3" class="edge"><title>Node3&#45;&gt;Node4</title>
<path fill="none" stroke="midnightblue" d="M464.895,-341.508C482.432,-346.759 501.283,-352.404 518.195,-357.468"/>
<polygon fill="midnightblue" stroke="midnightblue" points="465.892,-338.153 455.308,-338.637 463.884,-344.858 465.892,-338.153"/>
</g>
<!-- Node5 -->
<g id="node5" class="node"><title>Node5</title>
<g id="a_node5"><a xlink:href="structpanda_1_1Muon_1_1datastore.html#a6845ee992e7f6f23a4f159b97411bfc6" target="_top" xlink:title="panda::Muon::datastore\l::allocate">
<polygon fill="white" stroke="black" points="511.932,-306.5 511.932,-338.5 633.531,-338.5 633.531,-306.5 511.932,-306.5"/>
<text text-anchor="start" x="519.932" y="-325.5" font-family="Helvetica,sans-Serif" font-size="10.00">panda::Muon::datastore</text>
<text text-anchor="middle" x="572.732" y="-313.5" font-family="Helvetica,sans-Serif" font-size="10.00">::allocate</text>
</a>
</g>
</g>
<!-- Node3&#45;&gt;Node5 -->
<g id="edge4" class="edge"><title>Node3&#45;&gt;Node5</title>
<path fill="none" stroke="midnightblue" d="M474.681,-322.5C487.099,-322.5 499.862,-322.5 511.885,-322.5"/>
<polygon fill="midnightblue" stroke="midnightblue" points="474.354,-319 464.354,-322.5 474.354,-326 474.354,-319"/>
</g>
<!-- Node7 -->
<g id="node7" class="node"><title>Node7</title>
<g id="a_node7"><a xlink:href="structpanda_1_1GenJet_1_1datastore.html#a8b05278d242cae6efa7c1cc2ed929d6a" target="_top" xlink:title="panda::GenJet::datastore\l::allocate">
<polygon fill="white" stroke="black" points="508.318,-255.5 508.318,-287.5 637.146,-287.5 637.146,-255.5 508.318,-255.5"/>
<text text-anchor="start" x="516.318" y="-274.5" font-family="Helvetica,sans-Serif" font-size="10.00">panda::GenJet::datastore</text>
<text text-anchor="middle" x="572.732" y="-262.5" font-family="Helvetica,sans-Serif" font-size="10.00">::allocate</text>
</a>
</g>
</g>
<!-- Node6&#45;&gt;Node7 -->
<g id="edge6" class="edge"><title>Node6&#45;&gt;Node7</title>
<path fill="none" stroke="midnightblue" d="M427.761,-192.18C448.027,-208.811 477.265,-231.087 505.548,-246.5 511.48,-249.733 517.918,-252.73 524.37,-255.444"/>
<polygon fill="midnightblue" stroke="midnightblue" points="429.848,-189.363 419.921,-185.66 425.372,-194.745 429.848,-189.363"/>
</g>
<!-- Node8 -->
<g id="node8" class="node"><title>Node8</title>
<g id="a_node8"><a xlink:href="structpanda_1_1GenParticle_1_1datastore.html#a431a6d40dc4affce7107d9368d2932a9" target="_top" xlink:title="panda::GenParticle\l::datastore::allocate">
<polygon fill="white" stroke="black" points="521.106,-204.5 521.106,-236.5 624.357,-236.5 624.357,-204.5 521.106,-204.5"/>
<text text-anchor="start" x="529.106" y="-223.5" font-family="Helvetica,sans-Serif" font-size="10.00">panda::GenParticle</text>
<text text-anchor="middle" x="572.732" y="-211.5" font-family="Helvetica,sans-Serif" font-size="10.00">::datastore::allocate</text>
</a>
</g>
</g>
<!-- Node6&#45;&gt;Node8 -->
<g id="edge7" class="edge"><title>Node6&#45;&gt;Node8</title>
<path fill="none" stroke="midnightblue" d="M465.112,-188.573C483.597,-194.108 503.525,-200.075 521.094,-205.336"/>
<polygon fill="midnightblue" stroke="midnightblue" points="465.892,-185.153 455.308,-185.637 463.884,-191.858 465.892,-185.153"/>
</g>
<!-- Node9 -->
<g id="node9" class="node"><title>Node9</title>
<g id="a_node9"><a xlink:href="structpanda_1_1MicroJet_1_1datastore.html#a09aae2ebbbda55c6616b6a693f43bb66" target="_top" xlink:title="panda::MicroJet::datastore\l::allocate">
<polygon fill="white" stroke="black" points="505.548,-153.5 505.548,-185.5 639.915,-185.5 639.915,-153.5 505.548,-153.5"/>
<text text-anchor="start" x="513.548" y="-172.5" font-family="Helvetica,sans-Serif" font-size="10.00">panda::MicroJet::datastore</text>
<text text-anchor="middle" x="572.732" y="-160.5" font-family="Helvetica,sans-Serif" font-size="10.00">::allocate</text>
</a>
</g>
</g>
<!-- Node6&#45;&gt;Node9 -->
<g id="edge8" class="edge"><title>Node6&#45;&gt;Node9</title>
<path fill="none" stroke="midnightblue" d="M479.713,-169.5C488.287,-169.5 496.954,-169.5 505.365,-169.5"/>
<polygon fill="midnightblue" stroke="midnightblue" points="479.711,-166 469.711,-169.5 479.711,-173 479.711,-166"/>
</g>
<!-- Node12 -->
<g id="node12" class="node"><title>Node12</title>
<g id="a_node12"><a xlink:href="structpanda_1_1Parton_1_1datastore.html#ab13044f2228c663b73a6e24f0967a445" target="_top" xlink:title="panda::Parton::datastore\l::allocate">
<polygon fill="white" stroke="black" points="509.708,-102.5 509.708,-134.5 635.755,-134.5 635.755,-102.5 509.708,-102.5"/>
<text text-anchor="start" x="517.708" y="-121.5" font-family="Helvetica,sans-Serif" font-size="10.00">panda::Parton::datastore</text>
<text text-anchor="middle" x="572.732" y="-109.5" font-family="Helvetica,sans-Serif" font-size="10.00">::allocate</text>
</a>
</g>
</g>
<!-- Node6&#45;&gt;Node12 -->
<g id="edge11" class="edge"><title>Node6&#45;&gt;Node12</title>
<path fill="none" stroke="midnightblue" d="M464.895,-150.492C482.432,-145.241 501.283,-139.596 518.195,-134.532"/>
<polygon fill="midnightblue" stroke="midnightblue" points="463.884,-147.142 455.308,-153.363 465.892,-153.847 463.884,-147.142"/>
</g>
<!-- Node13 -->
<g id="node13" class="node"><title>Node13</title>
<g id="a_node13"><a xlink:href="structpanda_1_1PFCand_1_1datastore.html#af5aef7147e657b4f1b4125f3dae0dc39" target="_top" xlink:title="panda::PFCand::datastore\l::allocate">
<polygon fill="white" stroke="black" points="506.098,-51.5 506.098,-83.5 639.365,-83.5 639.365,-51.5 506.098,-51.5"/>
<text text-anchor="start" x="514.098" y="-70.5" font-family="Helvetica,sans-Serif" font-size="10.00">panda::PFCand::datastore</text>
<text text-anchor="middle" x="572.732" y="-58.5" font-family="Helvetica,sans-Serif" font-size="10.00">::allocate</text>
</a>
</g>
</g>
<!-- Node6&#45;&gt;Node13 -->
<g id="edge12" class="edge"><title>Node6&#45;&gt;Node13</title>
<path fill="none" stroke="midnightblue" d="M463.958,-148.405C465.891,-147.17 467.761,-145.87 469.548,-144.5 491.569,-127.623 483.719,-110.625 505.548,-93.5 510.404,-89.6901 515.888,-86.3766 521.57,-83.5109"/>
<polygon fill="midnightblue" stroke="midnightblue" points="462.122,-145.422 455.15,-153.399 465.575,-151.511 462.122,-145.422"/>
</g>
<!-- Node14 -->
<g id="node14" class="node"><title>Node14</title>
<g id="a_node14"><a xlink:href="structpanda_1_1Tau_1_1datastore.html#a6f817076ea4ed71fc8b66c70a834b39d" target="_top" xlink:title="panda::Tau::datastore\l::allocate">
<polygon fill="white" stroke="black" points="515.822,-0.5 515.822,-32.5 629.642,-32.5 629.642,-0.5 515.822,-0.5"/>
<text text-anchor="start" x="523.822" y="-19.5" font-family="Helvetica,sans-Serif" font-size="10.00">panda::Tau::datastore</text>
<text text-anchor="middle" x="572.732" y="-7.5" font-family="Helvetica,sans-Serif" font-size="10.00">::allocate</text>
</a>
</g>
</g>
<!-- Node6&#45;&gt;Node14 -->
<g id="edge13" class="edge"><title>Node6&#45;&gt;Node14</title>
<path fill="none" stroke="midnightblue" d="M466.595,-147.266C467.616,-146.38 468.602,-145.458 469.548,-144.5 503.33,-110.296 472.155,-77.0837 505.548,-42.5 509.235,-38.6813 513.551,-35.4118 518.18,-32.6149"/>
<polygon fill="midnightblue" stroke="midnightblue" points="464.196,-144.684 458.171,-153.399 468.316,-150.343 464.196,-144.684"/>
</g>
<!-- Node10 -->
<g id="node10" class="node"><title>Node10</title>
<g id="a_node10"><a xlink:href="structpanda_1_1Jet_1_1datastore.html#a899f59963d18c2c13019d9ed27eb7745" target="_top" xlink:title="panda::Jet::datastore\l::allocate">
<polygon fill="white" stroke="black" points="675.915,-153.5 675.915,-185.5 785.846,-185.5 785.846,-153.5 675.915,-153.5"/>
<text text-anchor="start" x="683.915" y="-172.5" font-family="Helvetica,sans-Serif" font-size="10.00">panda::Jet::datastore</text>
<text text-anchor="middle" x="730.881" y="-160.5" font-family="Helvetica,sans-Serif" font-size="10.00">::allocate</text>
</a>
</g>
</g>
<!-- Node9&#45;&gt;Node10 -->
<g id="edge9" class="edge"><title>Node9&#45;&gt;Node10</title>
<path fill="none" stroke="midnightblue" d="M650.117,-169.5C658.807,-169.5 667.526,-169.5 675.842,-169.5"/>
<polygon fill="midnightblue" stroke="midnightblue" points="649.953,-166 639.953,-169.5 649.953,-173 649.953,-166"/>
</g>
<!-- Node11 -->
<g id="node11" class="node"><title>Node11</title>
<g id="a_node11"><a xlink:href="structpanda_1_1FatJet_1_1datastore.html#a5df5d3f7ed3b3d1d70f99dcb6a9c25e4" target="_top" xlink:title="panda::FatJet::datastore\l::allocate">
<polygon fill="white" stroke="black" points="821.846,-153.5 821.846,-185.5 946.224,-185.5 946.224,-153.5 821.846,-153.5"/>
<text text-anchor="start" x="829.846" y="-172.5" font-family="Helvetica,sans-Serif" font-size="10.00">panda::FatJet::datastore</text>
<text text-anchor="middle" x="884.035" y="-160.5" font-family="Helvetica,sans-Serif" font-size="10.00">::allocate</text>
</a>
</g>
</g>
<!-- Node10&#45;&gt;Node11 -->
<g id="edge10" class="edge"><title>Node10&#45;&gt;Node11</title>
<path fill="none" stroke="midnightblue" d="M796.243,-169.5C804.723,-169.5 813.396,-169.5 821.821,-169.5"/>
<polygon fill="midnightblue" stroke="midnightblue" points="796.024,-166 786.024,-169.5 796.024,-173 796.024,-166"/>
</g>
</g>
</svg>
        <g id="navigator" transform="translate(0 0)" fill="#404254">
                <rect fill="#f2f5e9" fill-opacity="0.5" stroke="#606060" stroke-width=".5" x="0" y="0" width="60" height="60"/>
                <use id="zoomplus" xlink:href="#zoomPlus" x="17" y="9" onmousedown="handleZoom(evt,'in')"/>
                <use id="zoomminus" xlink:href="#zoomMin" x="42" y="9" onmousedown="handleZoom(evt,'out')"/>
                <use id="reset" xlink:href="#resetDef" x="30" y="36" onmousedown="handleReset()"/>
                <g id="arrowUp" xlink:href="#dirArrow" transform="translate(30 24)" onmousedown="handlePan(0,-1)">
                  <use xlink:href="#rim" fill="#404040">
                        <set attributeName="fill" to="#808080" begin="arrowUp.mouseover" end="arrowUp.mouseout"/>
                  </use>
                  <path fill="none" stroke="white" stroke-width="1.5" d="M0,-3.0v7 M-2.5,-0.5L0,-3.0L2.5,-0.5"/>
                </g>
                <g id="arrowRight" xlink:href="#dirArrow" transform="rotate(90) translate(36 -43)" onmousedown="handlePan(1,0)">
                  <use xlink:href="#rim" fill="#404040">
                        <set attributeName="fill" to="#808080" begin="arrowRight.mouseover" end="arrowRight.mouseout"/>
                  </use>
                  <path fill="none" stroke="white" stroke-width="1.5" d="M0,-3.0v7 M-2.5,-0.5L0,-3.0L2.5,-0.5"/>
                </g>
                <g id="arrowDown" xlink:href="#dirArrow" transform="rotate(180) translate(-30 -48)" onmousedown="handlePan(0,1)">
                  <use xlink:href="#rim" fill="#404040">
                        <set attributeName="fill" to="#808080" begin="arrowDown.mouseover" end="arrowDown.mouseout"/>
                  </use>
                  <path fill="none" stroke="white" stroke-width="1.5" d="M0,-3.0v7 M-2.5,-0.5L0,-3.0L2.5,-0.5"/>
                </g>
                <g id="arrowLeft" xlink:href="#dirArrow" transform="rotate(270) translate(-36 17)" onmousedown="handlePan(-1,0)">
                  <use xlink:href="#rim" fill="#404040">
                        <set attributeName="fill" to="#808080" begin="arrowLeft.mouseover" end="arrowLeft.mouseout"/>
                  </use>
                  <path fill="none" stroke="white" stroke-width="1.5" d="M0,-3.0v7 M-2.5,-0.5L0,-3.0L2.5,-0.5"/>
                </g>
        </g>
        <svg viewBox="0 0 15 15" width="100%" height="30px" preserveAspectRatio="xMaxYMin meet">
         <g id="arrow_out" transform="scale(0.3 0.3)">
          <a xlink:href="structpanda_1_1ContainerElement_1_1datastore_ae203568d73154e9890a7d6d00e6b6301_icgraph_org.svg" target="_base">
           <rect id="button" ry="5" rx="5" y="6" x="6" height="38" width="38"
                fill="#f2f5e9" fill-opacity="0.5" stroke="#606060" stroke-width="1.0"/>
           <path id="arrow"
             d="M 11.500037,31.436501 C 11.940474,20.09759 22.043105,11.32322 32.158766,21.979434 L 37.068811,17.246167 C 37.068811,17.246167 37.088388,32 37.088388,32 L 22.160133,31.978069 C 22.160133,31.978069 26.997745,27.140456 26.997745,27.140456 C 18.528582,18.264221 13.291696,25.230495 11.500037,31.436501 z"
             style="fill:#404040;"/>
          </a>
         </g>
        </svg>
</svg>
