<?xml version="1.0" encoding="UTF-8" standalone="no"?>
<!DOCTYPE svg PUBLIC "-//W3C//DTD SVG 1.1//EN"
 "http://www.w3.org/Graphics/SVG/1.1/DTD/svg11.dtd">
<!-- Generated by graphviz version 2.38.0 (20140413.2041)
 -->
<!-- Title: panda::Tau::datastore Pages: 1 -->
<svg width="306pt" height="226pt"
 viewBox="0.00 0.00 306.05 226.00" xmlns="http://www.w3.org/2000/svg" xmlns:xlink="http://www.w3.org/1999/xlink">
<g id="graph0" class="graph" transform="scale(1 1) rotate(0) translate(4 222)">
<title>panda::Tau::datastore</title>
<polygon fill="white" stroke="none" points="-4,4 -4,-222 302.048,-222 302.048,4 -4,4"/>
<!-- Node1 -->
<g id="node1" class="node"><title>Node1</title>
<polygon fill="#bfbfbf" stroke="black" points="98.2175,-0.5 98.2175,-20.5 212.037,-20.5 212.037,-0.5 98.2175,-0.5"/>
<text text-anchor="middle" x="155.127" y="-7.5" font-family="Helvetica,sans-Serif" font-size="10.00">panda::Tau::datastore</text>
</g>
<!-- Node2 -->
<g id="node2" class="node"><title>Node2</title>
<g id="a_node2"><a xlink:href="structpanda_1_1ParticleM_1_1datastore.html" target="_top" xlink:title="panda::ParticleM::datastore">
<polygon fill="white" stroke="black" points="0,-69.5 0,-89.5 138.255,-89.5 138.255,-69.5 0,-69.5"/>
<text text-anchor="middle" x="69.1275" y="-76.5" font-family="Helvetica,sans-Serif" font-size="10.00">panda::ParticleM::datastore</text>
</a>
</g>
</g>
<!-- Node2&#45;&gt;Node1 -->
<g id="edge1" class="edge"><title>Node2&#45;&gt;Node1</title>
<path fill="none" stroke="midnightblue" d="M88.8346,-63.1468C105.702,-50.0056 129.419,-31.5288 143.438,-20.6067"/>
<polygon fill="midnightblue" stroke="midnightblue" points="86.4634,-60.5573 80.7258,-69.4641 90.7655,-66.0793 86.4634,-60.5573"/>
</g>
<!-- Node3 -->
<g id="node3" class="node"><title>Node3</title>
<g id="a_node3"><a xlink:href="structpanda_1_1Particle_1_1datastore.html" target="_top" xlink:title="panda::Particle::datastore">
<polygon fill="white" stroke="black" points="4.1645,-127.5 4.1645,-147.5 134.09,-147.5 134.09,-127.5 4.1645,-127.5"/>
<text text-anchor="middle" x="69.1275" y="-134.5" font-family="Helvetica,sans-Serif" font-size="10.00">panda::Particle::datastore</text>
</a>
</g>
</g>
<!-- Node3&#45;&gt;Node2 -->
<g id="edge2" class="edge"><title>Node3&#45;&gt;Node2</title>
<path fill="none" stroke="midnightblue" d="M69.1275,-117.207C69.1275,-107.838 69.1275,-97.0262 69.1275,-89.5752"/>
<polygon fill="midnightblue" stroke="midnightblue" points="65.6276,-117.253 69.1275,-127.253 72.6276,-117.253 65.6276,-117.253"/>
</g>
<!-- Node4 -->
<g id="node4" class="node"><title>Node4</title>
<g id="a_node4"><a xlink:href="structpanda_1_1ContainerElement_1_1datastore.html" target="_top" xlink:title="panda::ContainerElement\l::datastore">
<polygon fill="white" stroke="black" points="4.444,-185.5 4.444,-217.5 133.811,-217.5 133.811,-185.5 4.444,-185.5"/>
<text text-anchor="start" x="12.444" y="-204.5" font-family="Helvetica,sans-Serif" font-size="10.00">panda::ContainerElement</text>
<text text-anchor="middle" x="69.1275" y="-192.5" font-family="Helvetica,sans-Serif" font-size="10.00">::datastore</text>
</a>
</g>
</g>
<!-- Node4&#45;&gt;Node3 -->
<g id="edge3" class="edge"><title>Node4&#45;&gt;Node3</title>
<path fill="none" stroke="midnightblue" d="M69.1275,-175.422C69.1275,-165.672 69.1275,-155.11 69.1275,-147.79"/>
<polygon fill="midnightblue" stroke="midnightblue" points="65.6276,-175.491 69.1275,-185.492 72.6276,-175.492 65.6276,-175.491"/>
</g>
<!-- Node5 -->
<g id="node5" class="node"><title>Node5</title>
<g id="a_node5"><a xlink:href="classpanda_1_1ContainerBase.html" target="_top" xlink:title="Base class for all containers. ">
<polygon fill="white" stroke="black" points="156.387,-69.5 156.387,-89.5 271.868,-89.5 271.868,-69.5 156.387,-69.5"/>
<text text-anchor="middle" x="214.127" y="-76.5" font-family="Helvetica,sans-Serif" font-size="10.00">panda::ContainerBase</text>
</a>
</g>
</g>
<!-- Node5&#45;&gt;Node1 -->
<g id="edge4" class="edge"><title>Node5&#45;&gt;Node1</title>
<path fill="none" stroke="#9a32cd" stroke-dasharray="5,2" d="M199.357,-61.7269C187.966,-48.7912 172.633,-31.3795 163.337,-20.8227"/>
<polygon fill="#9a32cd" stroke="#9a32cd" points="196.935,-64.2722 206.17,-69.4641 202.188,-59.6461 196.935,-64.2722"/>
<text text-anchor="middle" x="243.587" y="-42" font-family="Helvetica,sans-Serif" font-size="10.00"> matchedGenContainer_</text>
</g>
<!-- Node6 -->
<g id="node6" class="node"><title>Node6</title>
<g id="a_node6"><a xlink:href="classpanda_1_1Object.html" target="_top" xlink:title="panda::Object">
<polygon fill="white" stroke="black" points="175.004,-127.5 175.004,-147.5 253.251,-147.5 253.251,-127.5 175.004,-127.5"/>
<text text-anchor="middle" x="214.127" y="-134.5" font-family="Helvetica,sans-Serif" font-size="10.00">panda::Object</text>
</a>
</g>
</g>
<!-- Node6&#45;&gt;Node5 -->
<g id="edge5" class="edge"><title>Node6&#45;&gt;Node5</title>
<path fill="none" stroke="midnightblue" d="M214.127,-117.207C214.127,-107.838 214.127,-97.0262 214.127,-89.5752"/>
<polygon fill="midnightblue" stroke="midnightblue" points="210.628,-117.253 214.127,-127.253 217.628,-117.253 210.628,-117.253"/>
</g>
</g>
</svg>
