<?xml version="1.0" encoding="UTF-8" standalone="no"?>
<!DOCTYPE svg PUBLIC "-//W3C//DTD SVG 1.1//EN"
 "http://www.w3.org/Graphics/SVG/1.1/DTD/svg11.dtd">
<!-- Generated by graphviz version 2.38.0 (20140413.2041)
 -->
<!-- Title: panda::Electron::datastore::deallocate Pages: 1 -->
<svg width="311pt" height="41pt"
 viewBox="0.00 0.00 310.53 41.00" xmlns="http://www.w3.org/2000/svg" xmlns:xlink="http://www.w3.org/1999/xlink">
<g id="graph0" class="graph" transform="scale(1 1) rotate(0) translate(4 37)">
<title>panda::Electron::datastore::deallocate</title>
<polygon fill="white" stroke="none" points="-4,4 -4,-37 306.532,-37 306.532,4 -4,4"/>
<!-- Node1 -->
<g id="node1" class="node"><title>Node1</title>
<polygon fill="#bfbfbf" stroke="black" points="0,-0.5 0,-32.5 133.266,-32.5 133.266,-0.5 0,-0.5"/>
<text text-anchor="start" x="8" y="-19.5" font-family="Helvetica,sans-Serif" font-size="10.00">panda::Electron::datastore</text>
<text text-anchor="middle" x="66.633" y="-7.5" font-family="Helvetica,sans-Serif" font-size="10.00">::deallocate</text>
</g>
<!-- Node2 -->
<g id="node2" class="node"><title>Node2</title>
<g id="a_node2"><a xlink:href="structpanda_1_1Electron_1_1datastore.html#af9dfc2f8a0fca924c40cc0d488f6bb02" target="_top" xlink:title="panda::Electron::datastore\l::~datastore">
<polygon fill="white" stroke="black" points="169.266,-0.5 169.266,-32.5 302.532,-32.5 302.532,-0.5 169.266,-0.5"/>
<text text-anchor="start" x="177.266" y="-19.5" font-family="Helvetica,sans-Serif" font-size="10.00">panda::Electron::datastore</text>
<text text-anchor="middle" x="235.899" y="-7.5" font-family="Helvetica,sans-Serif" font-size="10.00">::~datastore</text>
</a>
</g>
</g>
<!-- Node1&#45;&gt;Node2 -->
<g id="edge1" class="edge"><title>Node1&#45;&gt;Node2</title>
<path fill="none" stroke="midnightblue" d="M143.893,-16.5C152.275,-16.5 160.757,-16.5 168.997,-16.5"/>
<polygon fill="midnightblue" stroke="midnightblue" points="143.741,-13.0001 133.741,-16.5 143.741,-20.0001 143.741,-13.0001"/>
</g>
</g>
</svg>
