<?xml version="1.0" encoding="UTF-8" standalone="no"?>
<!DOCTYPE svg PUBLIC "-//W3C//DTD SVG 1.1//EN"
 "http://www.w3.org/Graphics/SVG/1.1/DTD/svg11.dtd">
<!-- Generated by graphviz version 2.38.0 (20140413.2041)
 -->
<!-- Title: panda::Photon::datastore::~datastore Pages: 1 -->
<svg width="632pt" height="41pt"
 viewBox="0.00 0.00 631.85 41.00" xmlns="http://www.w3.org/2000/svg" xmlns:xlink="http://www.w3.org/1999/xlink">
<g id="graph0" class="graph" transform="scale(1 1) rotate(0) translate(4 37)">
<title>panda::Photon::datastore::~datastore</title>
<polygon fill="white" stroke="none" points="-4,4 -4,-37 627.847,-37 627.847,4 -4,4"/>
<!-- Node1 -->
<g id="node1" class="node"><title>Node1</title>
<polygon fill="#bfbfbf" stroke="black" points="2.84217e-14,-0.5 2.84217e-14,-32.5 128.277,-32.5 128.277,-0.5 2.84217e-14,-0.5"/>
<text text-anchor="start" x="8" y="-19.5" font-family="Helvetica,sans-Serif" font-size="10.00">panda::Photon::datastore</text>
<text text-anchor="middle" x="64.1385" y="-7.5" font-family="Helvetica,sans-Serif" font-size="10.00">::~datastore</text>
</g>
<!-- Node2 -->
<g id="node2" class="node"><title>Node2</title>
<g id="a_node2"><a xlink:href="structpanda_1_1Photon_1_1datastore.html#a255374780b23e06a1fd24235847c77de" target="_top" xlink:title="panda::Photon::datastore\l::deallocate">
<polygon fill="white" stroke="black" points="164.277,-0.5 164.277,-32.5 292.554,-32.5 292.554,-0.5 164.277,-0.5"/>
<text text-anchor="start" x="172.277" y="-19.5" font-family="Helvetica,sans-Serif" font-size="10.00">panda::Photon::datastore</text>
<text text-anchor="middle" x="228.416" y="-7.5" font-family="Helvetica,sans-Serif" font-size="10.00">::deallocate</text>
</a>
</g>
</g>
<!-- Node1&#45;&gt;Node2 -->
<g id="edge1" class="edge"><title>Node1&#45;&gt;Node2</title>
<path fill="none" stroke="midnightblue" d="M128.344,-16.5C136.787,-16.5 145.503,-16.5 154.101,-16.5"/>
<polygon fill="midnightblue" stroke="midnightblue" points="154.116,-20.0001 164.116,-16.5 154.116,-13.0001 154.116,-20.0001"/>
</g>
<!-- Node3 -->
<g id="node3" class="node"><title>Node3</title>
<g id="a_node3"><a xlink:href="structpanda_1_1Particle_1_1datastore.html#ad741e5ab6ebeb9ca897ba9472d0dea36" target="_top" xlink:title="panda::Particle::datastore\l::deallocate">
<polygon fill="white" stroke="black" points="328.554,-0.5 328.554,-32.5 458.48,-32.5 458.48,-0.5 328.554,-0.5"/>
<text text-anchor="start" x="336.554" y="-19.5" font-family="Helvetica,sans-Serif" font-size="10.00">panda::Particle::datastore</text>
<text text-anchor="middle" x="393.517" y="-7.5" font-family="Helvetica,sans-Serif" font-size="10.00">::deallocate</text>
</a>
</g>
</g>
<!-- Node2&#45;&gt;Node3 -->
<g id="edge2" class="edge"><title>Node2&#45;&gt;Node3</title>
<path fill="none" stroke="midnightblue" d="M292.942,-16.5C301.209,-16.5 309.735,-16.5 318.159,-16.5"/>
<polygon fill="midnightblue" stroke="midnightblue" points="318.359,-20.0001 328.359,-16.5 318.359,-13.0001 318.359,-20.0001"/>
</g>
<!-- Node4 -->
<g id="node4" class="node"><title>Node4</title>
<g id="a_node4"><a xlink:href="structpanda_1_1ContainerElement_1_1datastore.html#a8827cbb1304b781fcba764a6bf4cbcc1" target="_top" xlink:title="panda::ContainerElement\l::datastore::deallocate">
<polygon fill="white" stroke="black" points="494.48,-0.5 494.48,-32.5 623.847,-32.5 623.847,-0.5 494.48,-0.5"/>
<text text-anchor="start" x="502.48" y="-19.5" font-family="Helvetica,sans-Serif" font-size="10.00">panda::ContainerElement</text>
<text text-anchor="middle" x="559.163" y="-7.5" font-family="Helvetica,sans-Serif" font-size="10.00">::datastore::deallocate</text>
</a>
</g>
</g>
<!-- Node3&#45;&gt;Node4 -->
<g id="edge3" class="edge"><title>Node3&#45;&gt;Node4</title>
<path fill="none" stroke="midnightblue" d="M458.725,-16.5C467.064,-16.5 475.66,-16.5 484.143,-16.5"/>
<polygon fill="midnightblue" stroke="midnightblue" points="484.409,-20.0001 494.409,-16.5 484.409,-13.0001 484.409,-20.0001"/>
</g>
</g>
</svg>
