<?xml version="1.0" encoding="UTF-8" standalone="no"?>
<!DOCTYPE svg PUBLIC "-//W3C//DTD SVG 1.1//EN"
 "http://www.w3.org/Graphics/SVG/1.1/DTD/svg11.dtd">
<!-- Generated by graphviz version 2.38.0 (20140413.2041)
 -->
<!-- Title: panda::Jet::datastore::book Pages: 1 -->
<svg width="278pt" height="41pt"
 viewBox="0.00 0.00 278.31 41.00" xmlns="http://www.w3.org/2000/svg" xmlns:xlink="http://www.w3.org/1999/xlink">
<g id="graph0" class="graph" transform="scale(1 1) rotate(0) translate(4 37)">
<title>panda::Jet::datastore::book</title>
<polygon fill="white" stroke="none" points="-4,4 -4,-37 274.309,-37 274.309,4 -4,4"/>
<!-- Node1 -->
<g id="node1" class="node"><title>Node1</title>
<polygon fill="#bfbfbf" stroke="black" points="0,-0.5 0,-32.5 109.931,-32.5 109.931,-0.5 0,-0.5"/>
<text text-anchor="start" x="8" y="-19.5" font-family="Helvetica,sans-Serif" font-size="10.00">panda::Jet::datastore</text>
<text text-anchor="middle" x="54.9655" y="-7.5" font-family="Helvetica,sans-Serif" font-size="10.00">::book</text>
</g>
<!-- Node2 -->
<g id="node2" class="node"><title>Node2</title>
<g id="a_node2"><a xlink:href="structpanda_1_1FatJet_1_1datastore.html#abc4532c13b6be8b1feaf70e3504f5f59" target="_top" xlink:title="panda::FatJet::datastore\l::book">
<polygon fill="white" stroke="black" points="145.931,-0.5 145.931,-32.5 270.309,-32.5 270.309,-0.5 145.931,-0.5"/>
<text text-anchor="start" x="153.931" y="-19.5" font-family="Helvetica,sans-Serif" font-size="10.00">panda::FatJet::datastore</text>
<text text-anchor="middle" x="208.12" y="-7.5" font-family="Helvetica,sans-Serif" font-size="10.00">::book</text>
</a>
</g>
</g>
<!-- Node1&#45;&gt;Node2 -->
<g id="edge1" class="edge"><title>Node1&#45;&gt;Node2</title>
<path fill="none" stroke="midnightblue" d="M120.328,-16.5C128.808,-16.5 137.481,-16.5 145.906,-16.5"/>
<polygon fill="midnightblue" stroke="midnightblue" points="120.109,-13.0001 110.109,-16.5 120.109,-20.0001 120.109,-13.0001"/>
</g>
</g>
</svg>
