<?xml version="1.0" encoding="UTF-8" standalone="no"?>
<!DOCTYPE svg PUBLIC "-//W3C//DTD SVG 1.1//EN"
 "http://www.w3.org/Graphics/SVG/1.1/DTD/svg11.dtd">
<!-- Generated by graphviz version 2.38.0 (20140413.2041)
 -->
<!-- Title: panda::Muon::datastore::book Pages: 1 -->
<!--zoomable 108 -->
<svg id="main" version="1.1" xmlns="http://www.w3.org/2000/svg" xmlns:xlink="http://www.w3.org/1999/xlink" xml:space="preserve" onload="init(evt)">
<style type="text/css"><![CDATA[
.edge:hover path { stroke: red; }
.edge:hover polygon { stroke: red; fill: red; }
]]></style>
<script type="text/javascript"><![CDATA[
var edges = document.getElementsByTagName('g');
if (edges && edges.length) {
  for (var i=0;i<edges.length;i++) {
    if (edges[i].id.substr(0,4)=='edge') {
      edges[i].setAttribute('class','edge');
    }
  }
}
]]></script>
        <defs>
                <circle id="rim" cx="0" cy="0" r="7"/>
                <circle id="rim2" cx="0" cy="0" r="3.5"/>
                <g id="zoomPlus">
                        <use xlink:href="#rim" fill="#404040">
                                <set attributeName="fill" to="#808080" begin="zoomplus.mouseover" end="zoomplus.mouseout"/>
                        </use>
                        <path d="M-4,0h8M0,-4v8" fill="none" stroke="white" stroke-width="1.5" pointer-events="none"/>
                </g>
                <g id="zoomMin">
                        <use xlink:href="#rim" fill="#404040">
                                <set attributeName="fill" to="#808080" begin="zoomminus.mouseover" end="zoomminus.mouseout"/>
                        </use>
                        <path d="M-4,0h8" fill="none" stroke="white" stroke-width="1.5" pointer-events="none"/>
                </g>
                <g id="dirArrow">
                        <path fill="none" stroke="white" stroke-width="1.5" d="M0,-3.0v7 M-2.5,-0.5L0,-3.0L2.5,-0.5"/>
                </g>
               <g id="resetDef">
                       <use xlink:href="#rim2" fill="#404040">
                               <set attributeName="fill" to="#808080" begin="reset.mouseover" end="reset.mouseout"/>
                       </use>
               </g>
        </defs>

<script type="text/javascript">
var viewWidth = 804;
var viewHeight = 108;
var sectionId = 'dynsection-4';
</script>
<script xlink:href="svgpan.js"/>
<svg id="graph" class="graph">
<g id="viewport">
<title>panda::Muon::datastore::book</title>
<polygon fill="white" stroke="none" points="-4,4 -4,-104 800.423,-104 800.423,4 -4,4"/>
<!-- Node1 -->
<g id="node1" class="node"><title>Node1</title>
<polygon fill="#bfbfbf" stroke="black" points="-2.84217e-14,-6.5 -2.84217e-14,-38.5 121.599,-38.5 121.599,-6.5 -2.84217e-14,-6.5"/>
<text text-anchor="start" x="8" y="-25.5" font-family="Helvetica,sans-Serif" font-size="10.00">panda::Muon::datastore</text>
<text text-anchor="middle" x="60.7995" y="-13.5" font-family="Helvetica,sans-Serif" font-size="10.00">::book</text>
</g>
<!-- Node2 -->
<g id="node2" class="node"><title>Node2</title>
<g id="a_node2"><a xlink:href="structpanda_1_1Lepton_1_1datastore.html#ab6cf5ada9f43228301c6bd97b9b6238a" target="_top" xlink:title="panda::Lepton::datastore\l::book">
<polygon fill="white" stroke="black" points="157.599,-29.5 157.599,-61.5 284.766,-61.5 284.766,-29.5 157.599,-29.5"/>
<text text-anchor="start" x="165.599" y="-48.5" font-family="Helvetica,sans-Serif" font-size="10.00">panda::Lepton::datastore</text>
<text text-anchor="middle" x="221.183" y="-36.5" font-family="Helvetica,sans-Serif" font-size="10.00">::book</text>
</a>
</g>
</g>
<!-- Node1&#45;&gt;Node2 -->
<g id="edge1" class="edge"><title>Node1&#45;&gt;Node2</title>
<path fill="none" stroke="midnightblue" d="M121.677,-31.1953C130.114,-32.4205 138.863,-33.6909 147.507,-34.9462"/>
<polygon fill="midnightblue" stroke="midnightblue" points="147.183,-38.4358 157.582,-36.4093 148.189,-31.5084 147.183,-38.4358"/>
</g>
<!-- Node5 -->
<g id="node5" class="node"><title>Node5</title>
<g id="a_node5"><a xlink:href="namespacepanda_1_1utils.html#aaa6c7cd5892388e6ffdf713b11abf793" target="_top" xlink:title="Book the branch. ">
<polygon fill="white" stroke="black" points="504.193,-28.5 504.193,-48.5 598.557,-48.5 598.557,-28.5 504.193,-28.5"/>
<text text-anchor="middle" x="551.375" y="-35.5" font-family="Helvetica,sans-Serif" font-size="10.00">panda::utils::book</text>
</a>
</g>
</g>
<!-- Node1&#45;&gt;Node5 -->
<g id="edge8" class="edge"><title>Node1&#45;&gt;Node5</title>
<path fill="none" stroke="midnightblue" d="M121.839,-20.3315C133.69,-19.9849 146.036,-19.681 157.599,-19.5 214.111,-18.6154 228.283,-17.4824 284.766,-19.5 357.033,-22.0815 440.15,-28.6017 493.877,-33.2837"/>
<polygon fill="midnightblue" stroke="midnightblue" points="493.62,-36.7745 503.888,-34.1645 494.234,-29.8014 493.62,-36.7745"/>
</g>
<!-- Node3 -->
<g id="node3" class="node"><title>Node3</title>
<g id="a_node3"><a xlink:href="structpanda_1_1Particle_1_1datastore.html#af75a5d8b8a18ee09ce98ab37888b4404" target="_top" xlink:title="panda::Particle::datastore\l::book">
<polygon fill="white" stroke="black" points="320.766,-67.5 320.766,-99.5 450.692,-99.5 450.692,-67.5 320.766,-67.5"/>
<text text-anchor="start" x="328.766" y="-86.5" font-family="Helvetica,sans-Serif" font-size="10.00">panda::Particle::datastore</text>
<text text-anchor="middle" x="385.729" y="-74.5" font-family="Helvetica,sans-Serif" font-size="10.00">::book</text>
</a>
</g>
</g>
<!-- Node2&#45;&gt;Node3 -->
<g id="edge2" class="edge"><title>Node2&#45;&gt;Node3</title>
<path fill="none" stroke="midnightblue" d="M285.027,-60.1918C293.439,-62.1583 302.129,-64.1897 310.709,-66.1958"/>
<polygon fill="midnightblue" stroke="midnightblue" points="310.175,-69.6652 320.71,-68.5336 311.769,-62.849 310.175,-69.6652"/>
</g>
<!-- Node2&#45;&gt;Node5 -->
<g id="edge7" class="edge"><title>Node2&#45;&gt;Node5</title>
<path fill="none" stroke="midnightblue" d="M285.073,-44.1586C345.474,-42.8703 435.887,-40.9419 494.004,-39.7023"/>
<polygon fill="midnightblue" stroke="midnightblue" points="494.186,-43.1994 504.109,-39.4868 494.037,-36.2009 494.186,-43.1994"/>
</g>
<!-- Node4 -->
<g id="node4" class="node"><title>Node4</title>
<g id="a_node4"><a xlink:href="structpanda_1_1ContainerElement_1_1datastore.html#a3a4062043d9a913acd4056ab1cf5a93f" target="_top" xlink:title="panda::ContainerElement\l::datastore::book">
<polygon fill="white" stroke="black" points="486.692,-67.5 486.692,-99.5 616.059,-99.5 616.059,-67.5 486.692,-67.5"/>
<text text-anchor="start" x="494.692" y="-86.5" font-family="Helvetica,sans-Serif" font-size="10.00">panda::ContainerElement</text>
<text text-anchor="middle" x="551.375" y="-74.5" font-family="Helvetica,sans-Serif" font-size="10.00">::datastore::book</text>
</a>
</g>
</g>
<!-- Node3&#45;&gt;Node4 -->
<g id="edge3" class="edge"><title>Node3&#45;&gt;Node4</title>
<path fill="none" stroke="midnightblue" d="M450.937,-83.5C459.276,-83.5 467.872,-83.5 476.355,-83.5"/>
<polygon fill="midnightblue" stroke="midnightblue" points="476.621,-87.0001 486.621,-83.5 476.621,-80.0001 476.621,-87.0001"/>
</g>
<!-- Node3&#45;&gt;Node5 -->
<g id="edge4" class="edge"><title>Node3&#45;&gt;Node5</title>
<path fill="none" stroke="midnightblue" d="M445.347,-67.3811C464.538,-62.1039 485.585,-56.3163 503.766,-51.3168"/>
<polygon fill="midnightblue" stroke="midnightblue" points="504.828,-54.6549 513.542,-48.6287 502.972,-47.9054 504.828,-54.6549"/>
</g>
<!-- Node6 -->
<g id="node6" class="node"><title>Node6</title>
<g id="a_node6"><a xlink:href="classpanda_1_1utils_1_1BranchName.html#a6cc8a6df7c5b12a0221fd49773cca6a7" target="_top" xlink:title="Is the name included and not vetoed? ">
<polygon fill="white" stroke="black" points="652.059,-51.5 652.059,-71.5 796.423,-71.5 796.423,-51.5 652.059,-51.5"/>
<text text-anchor="middle" x="724.241" y="-58.5" font-family="Helvetica,sans-Serif" font-size="10.00">panda::utils::BranchName::in</text>
</a>
</g>
</g>
<!-- Node5&#45;&gt;Node6 -->
<g id="edge5" class="edge"><title>Node5&#45;&gt;Node6</title>
<path fill="none" stroke="midnightblue" d="M598.614,-44.7241C611.944,-46.5185 626.9,-48.5316 641.699,-50.5238"/>
<polygon fill="midnightblue" stroke="midnightblue" points="641.521,-54.0312 651.898,-51.8966 642.454,-47.0938 641.521,-54.0312"/>
</g>
<!-- Node7 -->
<g id="node7" class="node"><title>Node7</title>
<g id="a_node7"><a xlink:href="classpanda_1_1utils_1_1BranchName.html#a13958ff4a9d554d2c057c600b4f70412" target="_top" xlink:title="Prepend the branch name with &lt;objName.&gt;. ">
<polygon fill="white" stroke="black" points="658.727,-0.5 658.727,-32.5 789.755,-32.5 789.755,-0.5 658.727,-0.5"/>
<text text-anchor="start" x="666.727" y="-19.5" font-family="Helvetica,sans-Serif" font-size="10.00">panda::utils::BranchName</text>
<text text-anchor="middle" x="724.241" y="-7.5" font-family="Helvetica,sans-Serif" font-size="10.00">::fullName</text>
</a>
</g>
</g>
<!-- Node5&#45;&gt;Node7 -->
<g id="edge6" class="edge"><title>Node5&#45;&gt;Node7</title>
<path fill="none" stroke="midnightblue" d="M598.614,-32.5465C614.064,-30.5572 631.697,-28.2869 648.74,-26.0925"/>
<polygon fill="midnightblue" stroke="midnightblue" points="649.214,-29.5604 658.685,-24.812 648.32,-22.6178 649.214,-29.5604"/>
</g>
</g>
</svg>
        <g id="navigator" transform="translate(0 0)" fill="#404254">
                <rect fill="#f2f5e9" fill-opacity="0.5" stroke="#606060" stroke-width=".5" x="0" y="0" width="60" height="60"/>
                <use id="zoomplus" xlink:href="#zoomPlus" x="17" y="9" onmousedown="handleZoom(evt,'in')"/>
                <use id="zoomminus" xlink:href="#zoomMin" x="42" y="9" onmousedown="handleZoom(evt,'out')"/>
                <use id="reset" xlink:href="#resetDef" x="30" y="36" onmousedown="handleReset()"/>
                <g id="arrowUp" xlink:href="#dirArrow" transform="translate(30 24)" onmousedown="handlePan(0,-1)">
                  <use xlink:href="#rim" fill="#404040">
                        <set attributeName="fill" to="#808080" begin="arrowUp.mouseover" end="arrowUp.mouseout"/>
                  </use>
                  <path fill="none" stroke="white" stroke-width="1.5" d="M0,-3.0v7 M-2.5,-0.5L0,-3.0L2.5,-0.5"/>
                </g>
                <g id="arrowRight" xlink:href="#dirArrow" transform="rotate(90) translate(36 -43)" onmousedown="handlePan(1,0)">
                  <use xlink:href="#rim" fill="#404040">
                        <set attributeName="fill" to="#808080" begin="arrowRight.mouseover" end="arrowRight.mouseout"/>
                  </use>
                  <path fill="none" stroke="white" stroke-width="1.5" d="M0,-3.0v7 M-2.5,-0.5L0,-3.0L2.5,-0.5"/>
                </g>
                <g id="arrowDown" xlink:href="#dirArrow" transform="rotate(180) translate(-30 -48)" onmousedown="handlePan(0,1)">
                  <use xlink:href="#rim" fill="#404040">
                        <set attributeName="fill" to="#808080" begin="arrowDown.mouseover" end="arrowDown.mouseout"/>
                  </use>
                  <path fill="none" stroke="white" stroke-width="1.5" d="M0,-3.0v7 M-2.5,-0.5L0,-3.0L2.5,-0.5"/>
                </g>
                <g id="arrowLeft" xlink:href="#dirArrow" transform="rotate(270) translate(-36 17)" onmousedown="handlePan(-1,0)">
                  <use xlink:href="#rim" fill="#404040">
                        <set attributeName="fill" to="#808080" begin="arrowLeft.mouseover" end="arrowLeft.mouseout"/>
                  </use>
                  <path fill="none" stroke="white" stroke-width="1.5" d="M0,-3.0v7 M-2.5,-0.5L0,-3.0L2.5,-0.5"/>
                </g>
        </g>
        <svg viewBox="0 0 15 15" width="100%" height="30px" preserveAspectRatio="xMaxYMin meet">
         <g id="arrow_out" transform="scale(0.3 0.3)">
          <a xlink:href="structpanda_1_1Muon_1_1datastore_ae3244041804870c1792c7ad3cd96ee53_cgraph_org.svg" target="_base">
           <rect id="button" ry="5" rx="5" y="6" x="6" height="38" width="38"
                fill="#f2f5e9" fill-opacity="0.5" stroke="#606060" stroke-width="1.0"/>
           <path id="arrow"
             d="M 11.500037,31.436501 C 11.940474,20.09759 22.043105,11.32322 32.158766,21.979434 L 37.068811,17.246167 C 37.068811,17.246167 37.088388,32 37.088388,32 L 22.160133,31.978069 C 22.160133,31.978069 26.997745,27.140456 26.997745,27.140456 C 18.528582,18.264221 13.291696,25.230495 11.500037,31.436501 z"
             style="fill:#404040;"/>
          </a>
         </g>
        </svg>
</svg>
