<?xml version="1.0" encoding="UTF-8" standalone="no"?>
<!DOCTYPE svg PUBLIC "-//W3C//DTD SVG 1.1//EN"
 "http://www.w3.org/Graphics/SVG/1.1/DTD/svg11.dtd">
<!-- Generated by graphviz version 2.38.0 (20140413.2041)
 -->
<!-- Title: panda::Parton::datastore::setStatus Pages: 1 -->
<svg width="820pt" height="170pt"
 viewBox="0.00 0.00 819.96 170.00" xmlns="http://www.w3.org/2000/svg" xmlns:xlink="http://www.w3.org/1999/xlink">
<g id="graph0" class="graph" transform="scale(1 1) rotate(0) translate(4 166)">
<title>panda::Parton::datastore::setStatus</title>
<polygon fill="white" stroke="none" points="-4,4 -4,-166 815.959,-166 815.959,4 -4,4"/>
<!-- Node1 -->
<g id="node1" class="node"><title>Node1</title>
<polygon fill="#bfbfbf" stroke="black" points="1.42109e-14,-48.5 1.42109e-14,-80.5 126.047,-80.5 126.047,-48.5 1.42109e-14,-48.5"/>
<text text-anchor="start" x="8" y="-67.5" font-family="Helvetica,sans-Serif" font-size="10.00">panda::Parton::datastore</text>
<text text-anchor="middle" x="63.0235" y="-55.5" font-family="Helvetica,sans-Serif" font-size="10.00">::setStatus</text>
</g>
<!-- Node2 -->
<g id="node2" class="node"><title>Node2</title>
<g id="a_node2"><a xlink:href="structpanda_1_1ParticleM_1_1datastore.html#a957ae0973d0133c87e71845ad751fd64" target="_top" xlink:title="panda::ParticleM::datastore\l::setStatus">
<polygon fill="white" stroke="black" points="162.047,-71.5 162.047,-103.5 300.302,-103.5 300.302,-71.5 162.047,-71.5"/>
<text text-anchor="start" x="170.047" y="-90.5" font-family="Helvetica,sans-Serif" font-size="10.00">panda::ParticleM::datastore</text>
<text text-anchor="middle" x="231.174" y="-78.5" font-family="Helvetica,sans-Serif" font-size="10.00">::setStatus</text>
</a>
</g>
</g>
<!-- Node1&#45;&gt;Node2 -->
<g id="edge1" class="edge"><title>Node1&#45;&gt;Node2</title>
<path fill="none" stroke="midnightblue" d="M126.365,-73.1298C134.704,-74.2842 143.341,-75.4798 151.909,-76.6659"/>
<polygon fill="midnightblue" stroke="midnightblue" points="151.529,-80.1465 161.915,-78.0509 152.489,-73.2127 151.529,-80.1465"/>
</g>
<!-- Node5 -->
<g id="node5" class="node"><title>Node5</title>
<g id="a_node5"><a xlink:href="namespacepanda_1_1utils.html#a01665f786d6a2acedb8f008f3fc9fc84" target="_top" xlink:title="Set status of a branch. ">
<polygon fill="white" stroke="black" points="509.726,-70.5 509.726,-90.5 624.096,-90.5 624.096,-70.5 509.726,-70.5"/>
<text text-anchor="middle" x="566.911" y="-77.5" font-family="Helvetica,sans-Serif" font-size="10.00">panda::utils::setStatus</text>
</a>
</g>
</g>
<!-- Node1&#45;&gt;Node5 -->
<g id="edge10" class="edge"><title>Node1&#45;&gt;Node5</title>
<path fill="none" stroke="midnightblue" d="M126.243,-62.3091C138.128,-61.9718 150.471,-61.6771 162.047,-61.5 223.486,-60.56 238.894,-59.3065 300.302,-61.5 368.229,-63.9264 445.741,-69.8327 499.423,-74.4214"/>
<polygon fill="midnightblue" stroke="midnightblue" points="499.233,-77.9179 509.497,-75.2909 499.835,-70.9438 499.233,-77.9179"/>
</g>
<!-- Node3 -->
<g id="node3" class="node"><title>Node3</title>
<g id="a_node3"><a xlink:href="structpanda_1_1Particle_1_1datastore.html#afa508d25966c3e2044e67e4b50f1679e" target="_top" xlink:title="panda::Particle::datastore\l::setStatus">
<polygon fill="white" stroke="black" points="336.302,-109.5 336.302,-141.5 466.228,-141.5 466.228,-109.5 336.302,-109.5"/>
<text text-anchor="start" x="344.302" y="-128.5" font-family="Helvetica,sans-Serif" font-size="10.00">panda::Particle::datastore</text>
<text text-anchor="middle" x="401.265" y="-116.5" font-family="Helvetica,sans-Serif" font-size="10.00">::setStatus</text>
</a>
</g>
</g>
<!-- Node2&#45;&gt;Node3 -->
<g id="edge2" class="edge"><title>Node2&#45;&gt;Node3</title>
<path fill="none" stroke="midnightblue" d="M300.543,-102.956C309.036,-104.876 317.75,-106.846 326.322,-108.784"/>
<polygon fill="midnightblue" stroke="midnightblue" points="325.772,-112.248 336.298,-111.039 327.316,-105.42 325.772,-112.248"/>
</g>
<!-- Node2&#45;&gt;Node5 -->
<g id="edge9" class="edge"><title>Node2&#45;&gt;Node5</title>
<path fill="none" stroke="midnightblue" d="M300.516,-86.0666C358.714,-84.8459 441.822,-83.1027 499.469,-81.8936"/>
<polygon fill="midnightblue" stroke="midnightblue" points="499.642,-85.3908 509.567,-81.6818 499.495,-78.3924 499.642,-85.3908"/>
</g>
<!-- Node4 -->
<g id="node4" class="node"><title>Node4</title>
<g id="a_node4"><a xlink:href="structpanda_1_1ContainerElement_1_1datastore.html#aad03a4d0428dfa3b6ae9ccfb04d49cd8" target="_top" xlink:title="panda::ContainerElement\l::datastore::setStatus">
<polygon fill="white" stroke="black" points="502.228,-109.5 502.228,-141.5 631.595,-141.5 631.595,-109.5 502.228,-109.5"/>
<text text-anchor="start" x="510.228" y="-128.5" font-family="Helvetica,sans-Serif" font-size="10.00">panda::ContainerElement</text>
<text text-anchor="middle" x="566.911" y="-116.5" font-family="Helvetica,sans-Serif" font-size="10.00">::datastore::setStatus</text>
</a>
</g>
</g>
<!-- Node3&#45;&gt;Node4 -->
<g id="edge3" class="edge"><title>Node3&#45;&gt;Node4</title>
<path fill="none" stroke="midnightblue" d="M466.473,-125.5C474.812,-125.5 483.408,-125.5 491.891,-125.5"/>
<polygon fill="midnightblue" stroke="midnightblue" points="492.157,-129 502.157,-125.5 492.157,-122 492.157,-129"/>
</g>
<!-- Node3&#45;&gt;Node5 -->
<g id="edge4" class="edge"><title>Node3&#45;&gt;Node5</title>
<path fill="none" stroke="midnightblue" d="M460.883,-109.381C480.074,-104.104 501.121,-98.3163 519.302,-93.3168"/>
<polygon fill="midnightblue" stroke="midnightblue" points="520.364,-96.6549 529.078,-90.6287 518.508,-89.9054 520.364,-96.6549"/>
</g>
<!-- Node6 -->
<g id="node6" class="node"><title>Node6</title>
<g id="a_node6"><a xlink:href="classpanda_1_1utils_1_1BranchName.html#a6cc8a6df7c5b12a0221fd49773cca6a7" target="_top" xlink:title="Is the name included and not vetoed? ">
<polygon fill="white" stroke="black" points="667.595,-141.5 667.595,-161.5 811.959,-161.5 811.959,-141.5 667.595,-141.5"/>
<text text-anchor="middle" x="739.777" y="-148.5" font-family="Helvetica,sans-Serif" font-size="10.00">panda::utils::BranchName::in</text>
</a>
</g>
</g>
<!-- Node5&#45;&gt;Node6 -->
<g id="edge5" class="edge"><title>Node5&#45;&gt;Node6</title>
<path fill="none" stroke="midnightblue" d="M611.478,-90.6163C618.429,-93.0366 625.373,-95.9708 631.595,-99.5 650.475,-110.208 648.562,-122.067 667.595,-132.5 671.254,-134.506 675.137,-136.309 679.127,-137.928"/>
<polygon fill="midnightblue" stroke="midnightblue" points="677.982,-141.236 688.576,-141.383 680.386,-134.662 677.982,-141.236"/>
</g>
<!-- Node7 -->
<g id="node7" class="node"><title>Node7</title>
<g id="a_node7"><a xlink:href="classpanda_1_1utils_1_1BranchName.html#ae3332329bf2afae5ed8e7c35e5d77ffa" target="_top" xlink:title="Is the name included and vetoed? ">
<polygon fill="white" stroke="black" points="674.263,-90.5 674.263,-122.5 805.291,-122.5 805.291,-90.5 674.263,-90.5"/>
<text text-anchor="start" x="682.263" y="-109.5" font-family="Helvetica,sans-Serif" font-size="10.00">panda::utils::BranchName</text>
<text text-anchor="middle" x="739.777" y="-97.5" font-family="Helvetica,sans-Serif" font-size="10.00">::vetoed</text>
</a>
</g>
</g>
<!-- Node5&#45;&gt;Node7 -->
<g id="edge6" class="edge"><title>Node5&#45;&gt;Node7</title>
<path fill="none" stroke="midnightblue" d="M624.333,-89.0854C637.036,-91.0185 650.711,-93.0993 664.033,-95.1265"/>
<polygon fill="midnightblue" stroke="midnightblue" points="663.718,-98.6187 674.131,-96.663 664.771,-91.6984 663.718,-98.6187"/>
</g>
<!-- Node8 -->
<g id="node8" class="node"><title>Node8</title>
<g id="a_node8"><a xlink:href="classpanda_1_1utils_1_1BranchName.html#a13958ff4a9d554d2c057c600b4f70412" target="_top" xlink:title="Prepend the branch name with &lt;objName.&gt;. ">
<polygon fill="white" stroke="black" points="674.263,-39.5 674.263,-71.5 805.291,-71.5 805.291,-39.5 674.263,-39.5"/>
<text text-anchor="start" x="682.263" y="-58.5" font-family="Helvetica,sans-Serif" font-size="10.00">panda::utils::BranchName</text>
<text text-anchor="middle" x="739.777" y="-46.5" font-family="Helvetica,sans-Serif" font-size="10.00">::fullName</text>
</a>
</g>
</g>
<!-- Node5&#45;&gt;Node8 -->
<g id="edge7" class="edge"><title>Node5&#45;&gt;Node8</title>
<path fill="none" stroke="midnightblue" d="M624.333,-72.2448C637.036,-70.3861 650.711,-68.3853 664.033,-66.436"/>
<polygon fill="midnightblue" stroke="midnightblue" points="664.743,-69.8696 674.131,-64.9587 663.729,-62.9433 664.743,-69.8696"/>
</g>
<!-- Node9 -->
<g id="node9" class="node"><title>Node9</title>
<g id="a_node9"><a xlink:href="namespacepanda_1_1utils.html#aafa411773a4b0ee829d99e6e5a0abdcd" target="_top" xlink:title="Check status of a branch. ">
<polygon fill="white" stroke="black" points="676.202,-0.5 676.202,-20.5 803.352,-20.5 803.352,-0.5 676.202,-0.5"/>
<text text-anchor="middle" x="739.777" y="-7.5" font-family="Helvetica,sans-Serif" font-size="10.00">panda::utils::checkStatus</text>
</a>
</g>
</g>
<!-- Node5&#45;&gt;Node9 -->
<g id="edge8" class="edge"><title>Node5&#45;&gt;Node9</title>
<path fill="none" stroke="midnightblue" d="M585.041,-70.3138C604.501,-59.0827 637.473,-41.075 667.595,-29.5 673.393,-27.272 679.553,-25.2055 685.729,-23.3196"/>
<polygon fill="midnightblue" stroke="midnightblue" points="686.772,-26.6611 695.397,-20.5071 684.817,-19.9397 686.772,-26.6611"/>
</g>
</g>
</svg>
