<?xml version="1.0" encoding="UTF-8" standalone="no"?>
<!DOCTYPE svg PUBLIC "-//W3C//DTD SVG 1.1//EN"
 "http://www.w3.org/Graphics/SVG/1.1/DTD/svg11.dtd">
<!-- Generated by graphviz version 2.38.0 (20140413.2041)
 -->
<!-- Title: panda::SuperCluster::datastore::~datastore Pages: 1 -->
<svg width="440pt" height="41pt"
 viewBox="0.00 0.00 440.05 41.00" xmlns="http://www.w3.org/2000/svg" xmlns:xlink="http://www.w3.org/1999/xlink">
<g id="graph0" class="graph" transform="scale(1 1) rotate(0) translate(4 37)">
<title>panda::SuperCluster::datastore::~datastore</title>
<polygon fill="white" stroke="none" points="-4,4 -4,-37 436.055,-37 436.055,4 -4,4"/>
<!-- Node1 -->
<g id="node1" class="node"><title>Node1</title>
<polygon fill="#bfbfbf" stroke="black" points="-2.13163e-14,-0.5 -2.13163e-14,-32.5 116.319,-32.5 116.319,-0.5 -2.13163e-14,-0.5"/>
<text text-anchor="start" x="8" y="-19.5" font-family="Helvetica,sans-Serif" font-size="10.00">panda::SuperCluster</text>
<text text-anchor="middle" x="58.1595" y="-7.5" font-family="Helvetica,sans-Serif" font-size="10.00">::datastore::~datastore</text>
</g>
<!-- Node2 -->
<g id="node2" class="node"><title>Node2</title>
<g id="a_node2"><a xlink:href="structpanda_1_1SuperCluster_1_1datastore.html#ab60c317f5aa9292d2d8340e38f19a482" target="_top" xlink:title="panda::SuperCluster\l::datastore::deallocate">
<polygon fill="white" stroke="black" points="152.319,-0.5 152.319,-32.5 266.688,-32.5 266.688,-0.5 152.319,-0.5"/>
<text text-anchor="start" x="160.319" y="-19.5" font-family="Helvetica,sans-Serif" font-size="10.00">panda::SuperCluster</text>
<text text-anchor="middle" x="209.503" y="-7.5" font-family="Helvetica,sans-Serif" font-size="10.00">::datastore::deallocate</text>
</a>
</g>
</g>
<!-- Node1&#45;&gt;Node2 -->
<g id="edge1" class="edge"><title>Node1&#45;&gt;Node2</title>
<path fill="none" stroke="midnightblue" d="M116.473,-16.5C124.777,-16.5 133.384,-16.5 141.852,-16.5"/>
<polygon fill="midnightblue" stroke="midnightblue" points="142.083,-20.0001 152.083,-16.5 142.083,-13.0001 142.083,-20.0001"/>
</g>
<!-- Node3 -->
<g id="node3" class="node"><title>Node3</title>
<g id="a_node3"><a xlink:href="structpanda_1_1ContainerElement_1_1datastore.html#a8827cbb1304b781fcba764a6bf4cbcc1" target="_top" xlink:title="panda::ContainerElement\l::datastore::deallocate">
<polygon fill="white" stroke="black" points="302.688,-0.5 302.688,-32.5 432.055,-32.5 432.055,-0.5 302.688,-0.5"/>
<text text-anchor="start" x="310.688" y="-19.5" font-family="Helvetica,sans-Serif" font-size="10.00">panda::ContainerElement</text>
<text text-anchor="middle" x="367.371" y="-7.5" font-family="Helvetica,sans-Serif" font-size="10.00">::datastore::deallocate</text>
</a>
</g>
</g>
<!-- Node2&#45;&gt;Node3 -->
<g id="edge2" class="edge"><title>Node2&#45;&gt;Node3</title>
<path fill="none" stroke="midnightblue" d="M266.775,-16.5C275.111,-16.5 283.806,-16.5 292.436,-16.5"/>
<polygon fill="midnightblue" stroke="midnightblue" points="292.51,-20.0001 302.51,-16.5 292.51,-13.0001 292.51,-20.0001"/>
</g>
</g>
</svg>
