<?xml version="1.0" encoding="UTF-8" standalone="no"?>
<!DOCTYPE svg PUBLIC "-//W3C//DTD SVG 1.1//EN"
 "http://www.w3.org/Graphics/SVG/1.1/DTD/svg11.dtd">
<!-- Generated by graphviz version 2.38.0 (20140413.2041)
 -->
<!-- Title: panda::Lepton::datastore Pages: 1 -->
<svg width="298pt" height="168pt"
 viewBox="0.00 0.00 297.88 168.00" xmlns="http://www.w3.org/2000/svg" xmlns:xlink="http://www.w3.org/1999/xlink">
<g id="graph0" class="graph" transform="scale(1 1) rotate(0) translate(4 164)">
<title>panda::Lepton::datastore</title>
<polygon fill="white" stroke="none" points="-4,4 -4,-164 293.883,-164 293.883,4 -4,4"/>
<!-- Node1 -->
<g id="node1" class="node"><title>Node1</title>
<polygon fill="#bfbfbf" stroke="black" points="85.3795,-0.5 85.3795,-20.5 212.546,-20.5 212.546,-0.5 85.3795,-0.5"/>
<text text-anchor="middle" x="148.963" y="-7.5" font-family="Helvetica,sans-Serif" font-size="10.00">panda::Lepton::datastore</text>
</g>
<!-- Node2 -->
<g id="node2" class="node"><title>Node2</title>
<g id="a_node2"><a xlink:href="structpanda_1_1Particle_1_1datastore.html" target="_top" xlink:title="panda::Particle::datastore">
<polygon fill="white" stroke="black" points="0,-69.5 0,-89.5 129.926,-89.5 129.926,-69.5 0,-69.5"/>
<text text-anchor="middle" x="64.963" y="-76.5" font-family="Helvetica,sans-Serif" font-size="10.00">panda::Particle::datastore</text>
</a>
</g>
</g>
<!-- Node2&#45;&gt;Node1 -->
<g id="edge1" class="edge"><title>Node2&#45;&gt;Node1</title>
<path fill="none" stroke="midnightblue" d="M84.2118,-63.1468C100.687,-50.0056 123.852,-31.5288 137.546,-20.6067"/>
<polygon fill="midnightblue" stroke="midnightblue" points="81.9269,-60.4922 76.2916,-69.4641 86.2919,-65.9647 81.9269,-60.4922"/>
</g>
<!-- Node3 -->
<g id="node3" class="node"><title>Node3</title>
<g id="a_node3"><a xlink:href="structpanda_1_1ContainerElement_1_1datastore.html" target="_top" xlink:title="panda::ContainerElement\l::datastore">
<polygon fill="white" stroke="black" points="0.2795,-127.5 0.2795,-159.5 129.647,-159.5 129.647,-127.5 0.2795,-127.5"/>
<text text-anchor="start" x="8.2795" y="-146.5" font-family="Helvetica,sans-Serif" font-size="10.00">panda::ContainerElement</text>
<text text-anchor="middle" x="64.963" y="-134.5" font-family="Helvetica,sans-Serif" font-size="10.00">::datastore</text>
</a>
</g>
</g>
<!-- Node3&#45;&gt;Node2 -->
<g id="edge2" class="edge"><title>Node3&#45;&gt;Node2</title>
<path fill="none" stroke="midnightblue" d="M64.963,-117.422C64.963,-107.672 64.963,-97.1099 64.963,-89.7904"/>
<polygon fill="midnightblue" stroke="midnightblue" points="61.4631,-117.491 64.963,-127.492 68.4631,-117.492 61.4631,-117.491"/>
</g>
<!-- Node4 -->
<g id="node4" class="node"><title>Node4</title>
<g id="a_node4"><a xlink:href="classpanda_1_1ContainerBase.html" target="_top" xlink:title="Base class for all containers. ">
<polygon fill="white" stroke="black" points="148.222,-69.5 148.222,-89.5 263.703,-89.5 263.703,-69.5 148.222,-69.5"/>
<text text-anchor="middle" x="205.963" y="-76.5" font-family="Helvetica,sans-Serif" font-size="10.00">panda::ContainerBase</text>
</a>
</g>
</g>
<!-- Node4&#45;&gt;Node1 -->
<g id="edge3" class="edge"><title>Node4&#45;&gt;Node1</title>
<path fill="none" stroke="#9a32cd" stroke-dasharray="5,2" d="M191.693,-61.7269C180.688,-48.7912 165.875,-31.3795 156.894,-20.8227"/>
<polygon fill="#9a32cd" stroke="#9a32cd" points="189.13,-64.1154 198.276,-69.4641 194.462,-59.5795 189.13,-64.1154"/>
<text text-anchor="middle" x="235.423" y="-42" font-family="Helvetica,sans-Serif" font-size="10.00"> matchedGenContainer_</text>
</g>
<!-- Node5 -->
<g id="node5" class="node"><title>Node5</title>
<g id="a_node5"><a xlink:href="classpanda_1_1Object.html" target="_top" xlink:title="panda::Object">
<polygon fill="white" stroke="black" points="166.839,-133.5 166.839,-153.5 245.087,-153.5 245.087,-133.5 166.839,-133.5"/>
<text text-anchor="middle" x="205.963" y="-140.5" font-family="Helvetica,sans-Serif" font-size="10.00">panda::Object</text>
</a>
</g>
</g>
<!-- Node5&#45;&gt;Node4 -->
<g id="edge4" class="edge"><title>Node5&#45;&gt;Node4</title>
<path fill="none" stroke="midnightblue" d="M205.963,-123.235C205.963,-112.057 205.963,-98.491 205.963,-89.6858"/>
<polygon fill="midnightblue" stroke="midnightblue" points="202.463,-123.352 205.963,-133.352 209.463,-123.352 202.463,-123.352"/>
</g>
</g>
</svg>
