<?xml version="1.0" encoding="UTF-8" standalone="no"?>
<!DOCTYPE svg PUBLIC "-//W3C//DTD SVG 1.1//EN"
 "http://www.w3.org/Graphics/SVG/1.1/DTD/svg11.dtd">
<!-- Generated by graphviz version 2.38.0 (20140413.2041)
 -->
<!-- Title: panda::Electron::datastore::setAddress Pages: 1 -->
<svg width="966pt" height="170pt"
 viewBox="0.00 0.00 966.46 170.00" xmlns="http://www.w3.org/2000/svg" xmlns:xlink="http://www.w3.org/1999/xlink">
<g id="graph0" class="graph" transform="scale(1 1) rotate(0) translate(4 166)">
<title>panda::Electron::datastore::setAddress</title>
<polygon fill="white" stroke="none" points="-4,4 -4,-166 962.46,-166 962.46,4 -4,4"/>
<!-- Node1 -->
<g id="node1" class="node"><title>Node1</title>
<polygon fill="#bfbfbf" stroke="black" points="5.68434e-14,-48.5 5.68434e-14,-80.5 133.266,-80.5 133.266,-48.5 5.68434e-14,-48.5"/>
<text text-anchor="start" x="8" y="-67.5" font-family="Helvetica,sans-Serif" font-size="10.00">panda::Electron::datastore</text>
<text text-anchor="middle" x="66.633" y="-55.5" font-family="Helvetica,sans-Serif" font-size="10.00">::setAddress</text>
</g>
<!-- Node2 -->
<g id="node2" class="node"><title>Node2</title>
<g id="a_node2"><a xlink:href="structpanda_1_1Lepton_1_1datastore.html#a01bc67f154130787caab05786b3169c6" target="_top" xlink:title="panda::Lepton::datastore\l::setAddress">
<polygon fill="white" stroke="black" points="169.266,-71.5 169.266,-103.5 296.433,-103.5 296.433,-71.5 169.266,-71.5"/>
<text text-anchor="start" x="177.266" y="-90.5" font-family="Helvetica,sans-Serif" font-size="10.00">panda::Lepton::datastore</text>
<text text-anchor="middle" x="232.85" y="-78.5" font-family="Helvetica,sans-Serif" font-size="10.00">::setAddress</text>
</a>
</g>
</g>
<!-- Node1&#45;&gt;Node2 -->
<g id="edge1" class="edge"><title>Node1&#45;&gt;Node2</title>
<path fill="none" stroke="midnightblue" d="M133.48,-73.7225C141.946,-74.9082 150.652,-76.1275 159.218,-77.3274"/>
<polygon fill="midnightblue" stroke="midnightblue" points="158.799,-80.8027 169.188,-78.7237 159.77,-73.8704 158.799,-80.8027"/>
</g>
<!-- Node5 -->
<g id="node5" class="node"><title>Node5</title>
<g id="a_node5"><a xlink:href="namespacepanda_1_1utils.html#abf9c62e588560197c2bae9932e6a6e05" target="_top" xlink:title="Set address. ">
<polygon fill="white" stroke="black" points="501.692,-70.5 501.692,-90.5 624.392,-90.5 624.392,-70.5 501.692,-70.5"/>
<text text-anchor="middle" x="563.042" y="-77.5" font-family="Helvetica,sans-Serif" font-size="10.00">panda::utils::setAddress</text>
</a>
</g>
</g>
<!-- Node1&#45;&gt;Node5 -->
<g id="edge14" class="edge"><title>Node1&#45;&gt;Node5</title>
<path fill="none" stroke="midnightblue" d="M133.505,-62.2721C145.407,-61.9503 157.705,-61.6706 169.266,-61.5 225.779,-60.6661 239.95,-59.4824 296.433,-61.5 362.624,-63.8644 437.916,-69.533 491.392,-74.0671"/>
<polygon fill="midnightblue" stroke="midnightblue" points="491.189,-77.5624 501.451,-74.9284 491.786,-70.5879 491.189,-77.5624"/>
</g>
<!-- Node3 -->
<g id="node3" class="node"><title>Node3</title>
<g id="a_node3"><a xlink:href="structpanda_1_1Particle_1_1datastore.html#a3e4a1f8d223d8378ef2b92a6d4ccd2b0" target="_top" xlink:title="panda::Particle::datastore\l::setAddress">
<polygon fill="white" stroke="black" points="332.433,-109.5 332.433,-141.5 462.359,-141.5 462.359,-109.5 332.433,-109.5"/>
<text text-anchor="start" x="340.433" y="-128.5" font-family="Helvetica,sans-Serif" font-size="10.00">panda::Particle::datastore</text>
<text text-anchor="middle" x="397.396" y="-116.5" font-family="Helvetica,sans-Serif" font-size="10.00">::setAddress</text>
</a>
</g>
</g>
<!-- Node2&#45;&gt;Node3 -->
<g id="edge2" class="edge"><title>Node2&#45;&gt;Node3</title>
<path fill="none" stroke="midnightblue" d="M296.694,-102.192C305.106,-104.158 313.796,-106.19 322.376,-108.196"/>
<polygon fill="midnightblue" stroke="midnightblue" points="321.842,-111.665 332.377,-110.534 323.436,-104.849 321.842,-111.665"/>
</g>
<!-- Node2&#45;&gt;Node5 -->
<g id="edge13" class="edge"><title>Node2&#45;&gt;Node5</title>
<path fill="none" stroke="midnightblue" d="M296.74,-86.1586C352.4,-84.9714 433.546,-83.2407 491.42,-82.0063"/>
<polygon fill="midnightblue" stroke="midnightblue" points="491.659,-85.5021 501.582,-81.7896 491.509,-78.5037 491.659,-85.5021"/>
</g>
<!-- Node4 -->
<g id="node4" class="node"><title>Node4</title>
<g id="a_node4"><a xlink:href="structpanda_1_1ContainerElement_1_1datastore.html#ae59f1a9b346ef85225e9b3691c6728a1" target="_top" xlink:title="panda::ContainerElement\l::datastore::setAddress">
<polygon fill="white" stroke="black" points="498.359,-109.5 498.359,-141.5 627.726,-141.5 627.726,-109.5 498.359,-109.5"/>
<text text-anchor="start" x="506.359" y="-128.5" font-family="Helvetica,sans-Serif" font-size="10.00">panda::ContainerElement</text>
<text text-anchor="middle" x="563.042" y="-116.5" font-family="Helvetica,sans-Serif" font-size="10.00">::datastore::setAddress</text>
</a>
</g>
</g>
<!-- Node3&#45;&gt;Node4 -->
<g id="edge3" class="edge"><title>Node3&#45;&gt;Node4</title>
<path fill="none" stroke="midnightblue" d="M462.604,-125.5C470.943,-125.5 479.539,-125.5 488.022,-125.5"/>
<polygon fill="midnightblue" stroke="midnightblue" points="488.288,-129 498.288,-125.5 488.288,-122 488.288,-129"/>
</g>
<!-- Node3&#45;&gt;Node5 -->
<g id="edge4" class="edge"><title>Node3&#45;&gt;Node5</title>
<path fill="none" stroke="midnightblue" d="M457.014,-109.381C476.205,-104.104 497.252,-98.3163 515.433,-93.3168"/>
<polygon fill="midnightblue" stroke="midnightblue" points="516.495,-96.6549 525.209,-90.6287 514.639,-89.9054 516.495,-96.6549"/>
</g>
<!-- Node6 -->
<g id="node6" class="node"><title>Node6</title>
<g id="a_node6"><a xlink:href="classpanda_1_1utils_1_1BranchName.html#a13958ff4a9d554d2c057c600b4f70412" target="_top" xlink:title="Prepend the branch name with &lt;objName.&gt;. ">
<polygon fill="white" stroke="black" points="820.764,-129.5 820.764,-161.5 951.792,-161.5 951.792,-129.5 820.764,-129.5"/>
<text text-anchor="start" x="828.764" y="-148.5" font-family="Helvetica,sans-Serif" font-size="10.00">panda::utils::BranchName</text>
<text text-anchor="middle" x="886.278" y="-136.5" font-family="Helvetica,sans-Serif" font-size="10.00">::fullName</text>
</a>
</g>
</g>
<!-- Node5&#45;&gt;Node6 -->
<g id="edge5" class="edge"><title>Node5&#45;&gt;Node6</title>
<path fill="none" stroke="midnightblue" d="M603.708,-90.5631C621.939,-95.056 643.877,-100.277 663.726,-104.5 712.43,-114.862 767.478,-125.056 810.518,-132.688"/>
<polygon fill="midnightblue" stroke="midnightblue" points="810.172,-136.181 820.629,-134.473 811.389,-129.287 810.172,-136.181"/>
</g>
<!-- Node7 -->
<g id="node7" class="node"><title>Node7</title>
<g id="a_node7"><a xlink:href="namespacepanda_1_1utils.html#a01665f786d6a2acedb8f008f3fc9fc84" target="_top" xlink:title="Set status of a branch. ">
<polygon fill="white" stroke="black" points="663.726,-51.5 663.726,-71.5 778.096,-71.5 778.096,-51.5 663.726,-51.5"/>
<text text-anchor="middle" x="720.911" y="-58.5" font-family="Helvetica,sans-Serif" font-size="10.00">panda::utils::setStatus</text>
</a>
</g>
</g>
<!-- Node5&#45;&gt;Node7 -->
<g id="edge6" class="edge"><title>Node5&#45;&gt;Node7</title>
<path fill="none" stroke="midnightblue" d="M624.752,-73.0997C634.168,-71.9519 643.937,-70.7611 653.471,-69.5988"/>
<polygon fill="midnightblue" stroke="midnightblue" points="654.194,-73.0367 663.697,-68.3523 653.347,-66.0881 654.194,-73.0367"/>
</g>
<!-- Node8 -->
<g id="node8" class="node"><title>Node8</title>
<g id="a_node8"><a xlink:href="classpanda_1_1utils_1_1BranchName.html#a6cc8a6df7c5b12a0221fd49773cca6a7" target="_top" xlink:title="Is the name included and not vetoed? ">
<polygon fill="white" stroke="black" points="814.096,-90.5 814.096,-110.5 958.46,-110.5 958.46,-90.5 814.096,-90.5"/>
<text text-anchor="middle" x="886.278" y="-97.5" font-family="Helvetica,sans-Serif" font-size="10.00">panda::utils::BranchName::in</text>
</a>
</g>
</g>
<!-- Node5&#45;&gt;Node8 -->
<g id="edge11" class="edge"><title>Node5&#45;&gt;Node8</title>
<path fill="none" stroke="midnightblue" d="M624.464,-84.2618C675.109,-87.415 747.882,-91.9458 803.696,-95.4207"/>
<polygon fill="midnightblue" stroke="midnightblue" points="803.712,-98.9284 813.911,-96.0567 804.147,-91.942 803.712,-98.9284"/>
</g>
<!-- Node10 -->
<g id="node10" class="node"><title>Node10</title>
<g id="a_node10"><a xlink:href="namespacepanda_1_1utils.html#aafa411773a4b0ee829d99e6e5a0abdcd" target="_top" xlink:title="Check status of a branch. ">
<polygon fill="white" stroke="black" points="822.703,-0.5 822.703,-20.5 949.853,-20.5 949.853,-0.5 822.703,-0.5"/>
<text text-anchor="middle" x="886.278" y="-7.5" font-family="Helvetica,sans-Serif" font-size="10.00">panda::utils::checkStatus</text>
</a>
</g>
</g>
<!-- Node5&#45;&gt;Node10 -->
<g id="edge12" class="edge"><title>Node5&#45;&gt;Node10</title>
<path fill="none" stroke="midnightblue" d="M585.336,-70.484C605.195,-61.5517 635.86,-48.793 663.726,-41.5 712.527,-28.728 768.839,-20.9362 812.478,-16.3587"/>
<polygon fill="midnightblue" stroke="midnightblue" points="812.841,-19.84 822.436,-15.3468 812.133,-12.8759 812.841,-19.84"/>
</g>
<!-- Node7&#45;&gt;Node6 -->
<g id="edge9" class="edge"><title>Node7&#45;&gt;Node6</title>
<path fill="none" stroke="midnightblue" d="M735.741,-71.5109C753.319,-83.9212 784.895,-105.181 814.096,-119.5 818.374,-121.598 822.867,-123.623 827.428,-125.553"/>
<polygon fill="midnightblue" stroke="midnightblue" points="826.255,-128.854 836.837,-129.376 828.89,-122.369 826.255,-128.854"/>
</g>
<!-- Node7&#45;&gt;Node8 -->
<g id="edge7" class="edge"><title>Node7&#45;&gt;Node8</title>
<path fill="none" stroke="midnightblue" d="M763.982,-71.5435C785.134,-76.593 810.962,-82.7587 833.34,-88.1009"/>
<polygon fill="midnightblue" stroke="midnightblue" points="832.81,-91.5728 843.35,-90.4906 834.436,-84.7641 832.81,-91.5728"/>
</g>
<!-- Node9 -->
<g id="node9" class="node"><title>Node9</title>
<g id="a_node9"><a xlink:href="classpanda_1_1utils_1_1BranchName.html#ae3332329bf2afae5ed8e7c35e5d77ffa" target="_top" xlink:title="Is the name included and vetoed? ">
<polygon fill="white" stroke="black" points="820.764,-39.5 820.764,-71.5 951.792,-71.5 951.792,-39.5 820.764,-39.5"/>
<text text-anchor="start" x="828.764" y="-58.5" font-family="Helvetica,sans-Serif" font-size="10.00">panda::utils::BranchName</text>
<text text-anchor="middle" x="886.278" y="-46.5" font-family="Helvetica,sans-Serif" font-size="10.00">::vetoed</text>
</a>
</g>
</g>
<!-- Node7&#45;&gt;Node9 -->
<g id="edge8" class="edge"><title>Node7&#45;&gt;Node9</title>
<path fill="none" stroke="midnightblue" d="M778.133,-59.4351C788.484,-59.055 799.442,-58.6525 810.244,-58.2558"/>
<polygon fill="midnightblue" stroke="midnightblue" points="810.663,-61.7429 820.528,-57.8781 810.406,-54.7476 810.663,-61.7429"/>
</g>
<!-- Node7&#45;&gt;Node10 -->
<g id="edge10" class="edge"><title>Node7&#45;&gt;Node10</title>
<path fill="none" stroke="midnightblue" d="M749.168,-51.4496C767.428,-44.8624 792.068,-36.2532 814.096,-29.5 821.074,-27.3607 828.478,-25.2311 835.771,-23.2131"/>
<polygon fill="midnightblue" stroke="midnightblue" points="836.867,-26.5424 845.597,-20.5402 835.029,-19.7878 836.867,-26.5424"/>
</g>
</g>
</svg>
