<?xml version="1.0" encoding="UTF-8" standalone="no"?>
<!DOCTYPE svg PUBLIC "-//W3C//DTD SVG 1.1//EN"
 "http://www.w3.org/Graphics/SVG/1.1/DTD/svg11.dtd">
<!-- Generated by graphviz version 2.38.0 (20140413.2041)
 -->
<!-- Title: panda::Muon::datastore::setStatus Pages: 1 -->
<!--zoomable 170 -->
<svg id="main" version="1.1" xmlns="http://www.w3.org/2000/svg" xmlns:xlink="http://www.w3.org/1999/xlink" xml:space="preserve" onload="init(evt)">
<style type="text/css"><![CDATA[
.edge:hover path { stroke: red; }
.edge:hover polygon { stroke: red; fill: red; }
]]></style>
<script type="text/javascript"><![CDATA[
var edges = document.getElementsByTagName('g');
if (edges && edges.length) {
  for (var i=0;i<edges.length;i++) {
    if (edges[i].id.substr(0,4)=='edge') {
      edges[i].setAttribute('class','edge');
    }
  }
}
]]></script>
        <defs>
                <circle id="rim" cx="0" cy="0" r="7"/>
                <circle id="rim2" cx="0" cy="0" r="3.5"/>
                <g id="zoomPlus">
                        <use xlink:href="#rim" fill="#404040">
                                <set attributeName="fill" to="#808080" begin="zoomplus.mouseover" end="zoomplus.mouseout"/>
                        </use>
                        <path d="M-4,0h8M0,-4v8" fill="none" stroke="white" stroke-width="1.5" pointer-events="none"/>
                </g>
                <g id="zoomMin">
                        <use xlink:href="#rim" fill="#404040">
                                <set attributeName="fill" to="#808080" begin="zoomminus.mouseover" end="zoomminus.mouseout"/>
                        </use>
                        <path d="M-4,0h8" fill="none" stroke="white" stroke-width="1.5" pointer-events="none"/>
                </g>
                <g id="dirArrow">
                        <path fill="none" stroke="white" stroke-width="1.5" d="M0,-3.0v7 M-2.5,-0.5L0,-3.0L2.5,-0.5"/>
                </g>
               <g id="resetDef">
                       <use xlink:href="#rim2" fill="#404040">
                               <set attributeName="fill" to="#808080" begin="reset.mouseover" end="reset.mouseout"/>
                       </use>
               </g>
        </defs>

<script type="text/javascript">
var viewWidth = 804;
var viewHeight = 170;
var sectionId = 'dynsection-10';
</script>
<script xlink:href="svgpan.js"/>
<svg id="graph" class="graph">
<g id="viewport">
<title>panda::Muon::datastore::setStatus</title>
<polygon fill="white" stroke="none" points="-4,4 -4,-166 800.423,-166 800.423,4 -4,4"/>
<!-- Node1 -->
<g id="node1" class="node"><title>Node1</title>
<polygon fill="#bfbfbf" stroke="black" points="-2.84217e-14,-48.5 -2.84217e-14,-80.5 121.599,-80.5 121.599,-48.5 -2.84217e-14,-48.5"/>
<text text-anchor="start" x="8" y="-67.5" font-family="Helvetica,sans-Serif" font-size="10.00">panda::Muon::datastore</text>
<text text-anchor="middle" x="60.7995" y="-55.5" font-family="Helvetica,sans-Serif" font-size="10.00">::setStatus</text>
</g>
<!-- Node2 -->
<g id="node2" class="node"><title>Node2</title>
<g id="a_node2"><a xlink:href="structpanda_1_1Lepton_1_1datastore.html#ab5a31e8512ad7764369a4328dbff03d0" target="_top" xlink:title="panda::Lepton::datastore\l::setStatus">
<polygon fill="white" stroke="black" points="157.599,-71.5 157.599,-103.5 284.766,-103.5 284.766,-71.5 157.599,-71.5"/>
<text text-anchor="start" x="165.599" y="-90.5" font-family="Helvetica,sans-Serif" font-size="10.00">panda::Lepton::datastore</text>
<text text-anchor="middle" x="221.183" y="-78.5" font-family="Helvetica,sans-Serif" font-size="10.00">::setStatus</text>
</a>
</g>
</g>
<!-- Node1&#45;&gt;Node2 -->
<g id="edge1" class="edge"><title>Node1&#45;&gt;Node2</title>
<path fill="none" stroke="midnightblue" d="M121.677,-73.1953C130.114,-74.4205 138.863,-75.6909 147.507,-76.9462"/>
<polygon fill="midnightblue" stroke="midnightblue" points="147.183,-80.4358 157.582,-78.4093 148.189,-73.5084 147.183,-80.4358"/>
</g>
<!-- Node5 -->
<g id="node5" class="node"><title>Node5</title>
<g id="a_node5"><a xlink:href="namespacepanda_1_1utils.html#a01665f786d6a2acedb8f008f3fc9fc84" target="_top" xlink:title="Set status of a branch. ">
<polygon fill="white" stroke="black" points="494.19,-70.5 494.19,-90.5 608.56,-90.5 608.56,-70.5 494.19,-70.5"/>
<text text-anchor="middle" x="551.375" y="-77.5" font-family="Helvetica,sans-Serif" font-size="10.00">panda::utils::setStatus</text>
</a>
</g>
</g>
<!-- Node1&#45;&gt;Node5 -->
<g id="edge10" class="edge"><title>Node1&#45;&gt;Node5</title>
<path fill="none" stroke="midnightblue" d="M121.839,-62.3315C133.69,-61.9849 146.036,-61.681 157.599,-61.5 214.111,-60.6154 228.283,-59.4824 284.766,-61.5 352.693,-63.9264 430.205,-69.8327 483.887,-74.4214"/>
<polygon fill="midnightblue" stroke="midnightblue" points="483.697,-77.9179 493.961,-75.2909 484.299,-70.9438 483.697,-77.9179"/>
</g>
<!-- Node3 -->
<g id="node3" class="node"><title>Node3</title>
<g id="a_node3"><a xlink:href="structpanda_1_1Particle_1_1datastore.html#afa508d25966c3e2044e67e4b50f1679e" target="_top" xlink:title="panda::Particle::datastore\l::setStatus">
<polygon fill="white" stroke="black" points="320.766,-109.5 320.766,-141.5 450.692,-141.5 450.692,-109.5 320.766,-109.5"/>
<text text-anchor="start" x="328.766" y="-128.5" font-family="Helvetica,sans-Serif" font-size="10.00">panda::Particle::datastore</text>
<text text-anchor="middle" x="385.729" y="-116.5" font-family="Helvetica,sans-Serif" font-size="10.00">::setStatus</text>
</a>
</g>
</g>
<!-- Node2&#45;&gt;Node3 -->
<g id="edge2" class="edge"><title>Node2&#45;&gt;Node3</title>
<path fill="none" stroke="midnightblue" d="M285.027,-102.192C293.439,-104.158 302.129,-106.19 310.709,-108.196"/>
<polygon fill="midnightblue" stroke="midnightblue" points="310.175,-111.665 320.71,-110.534 311.769,-104.849 310.175,-111.665"/>
</g>
<!-- Node2&#45;&gt;Node5 -->
<g id="edge9" class="edge"><title>Node2&#45;&gt;Node5</title>
<path fill="none" stroke="midnightblue" d="M285.073,-86.1586C342.05,-84.9434 425.733,-83.1585 483.821,-81.9195"/>
<polygon fill="midnightblue" stroke="midnightblue" points="484.072,-85.4151 493.995,-81.7025 483.923,-78.4167 484.072,-85.4151"/>
</g>
<!-- Node4 -->
<g id="node4" class="node"><title>Node4</title>
<g id="a_node4"><a xlink:href="structpanda_1_1ContainerElement_1_1datastore.html#aad03a4d0428dfa3b6ae9ccfb04d49cd8" target="_top" xlink:title="panda::ContainerElement\l::datastore::setStatus">
<polygon fill="white" stroke="black" points="486.692,-109.5 486.692,-141.5 616.059,-141.5 616.059,-109.5 486.692,-109.5"/>
<text text-anchor="start" x="494.692" y="-128.5" font-family="Helvetica,sans-Serif" font-size="10.00">panda::ContainerElement</text>
<text text-anchor="middle" x="551.375" y="-116.5" font-family="Helvetica,sans-Serif" font-size="10.00">::datastore::setStatus</text>
</a>
</g>
</g>
<!-- Node3&#45;&gt;Node4 -->
<g id="edge3" class="edge"><title>Node3&#45;&gt;Node4</title>
<path fill="none" stroke="midnightblue" d="M450.937,-125.5C459.276,-125.5 467.872,-125.5 476.355,-125.5"/>
<polygon fill="midnightblue" stroke="midnightblue" points="476.621,-129 486.621,-125.5 476.621,-122 476.621,-129"/>
</g>
<!-- Node3&#45;&gt;Node5 -->
<g id="edge4" class="edge"><title>Node3&#45;&gt;Node5</title>
<path fill="none" stroke="midnightblue" d="M445.347,-109.381C464.538,-104.104 485.585,-98.3163 503.766,-93.3168"/>
<polygon fill="midnightblue" stroke="midnightblue" points="504.828,-96.6549 513.542,-90.6287 502.972,-89.9054 504.828,-96.6549"/>
</g>
<!-- Node6 -->
<g id="node6" class="node"><title>Node6</title>
<g id="a_node6"><a xlink:href="classpanda_1_1utils_1_1BranchName.html#a6cc8a6df7c5b12a0221fd49773cca6a7" target="_top" xlink:title="Is the name included and not vetoed? ">
<polygon fill="white" stroke="black" points="652.059,-141.5 652.059,-161.5 796.423,-161.5 796.423,-141.5 652.059,-141.5"/>
<text text-anchor="middle" x="724.241" y="-148.5" font-family="Helvetica,sans-Serif" font-size="10.00">panda::utils::BranchName::in</text>
</a>
</g>
</g>
<!-- Node5&#45;&gt;Node6 -->
<g id="edge5" class="edge"><title>Node5&#45;&gt;Node6</title>
<path fill="none" stroke="midnightblue" d="M595.942,-90.6163C602.893,-93.0366 609.837,-95.9708 616.059,-99.5 634.939,-110.208 633.026,-122.067 652.059,-132.5 655.718,-134.506 659.601,-136.309 663.591,-137.928"/>
<polygon fill="midnightblue" stroke="midnightblue" points="662.446,-141.236 673.04,-141.383 664.85,-134.662 662.446,-141.236"/>
</g>
<!-- Node7 -->
<g id="node7" class="node"><title>Node7</title>
<g id="a_node7"><a xlink:href="classpanda_1_1utils_1_1BranchName.html#ae3332329bf2afae5ed8e7c35e5d77ffa" target="_top" xlink:title="Is the name included and vetoed? ">
<polygon fill="white" stroke="black" points="658.727,-90.5 658.727,-122.5 789.755,-122.5 789.755,-90.5 658.727,-90.5"/>
<text text-anchor="start" x="666.727" y="-109.5" font-family="Helvetica,sans-Serif" font-size="10.00">panda::utils::BranchName</text>
<text text-anchor="middle" x="724.241" y="-97.5" font-family="Helvetica,sans-Serif" font-size="10.00">::vetoed</text>
</a>
</g>
</g>
<!-- Node5&#45;&gt;Node7 -->
<g id="edge6" class="edge"><title>Node5&#45;&gt;Node7</title>
<path fill="none" stroke="midnightblue" d="M608.797,-89.0854C621.5,-91.0185 635.175,-93.0993 648.497,-95.1265"/>
<polygon fill="midnightblue" stroke="midnightblue" points="648.182,-98.6187 658.595,-96.663 649.235,-91.6984 648.182,-98.6187"/>
</g>
<!-- Node8 -->
<g id="node8" class="node"><title>Node8</title>
<g id="a_node8"><a xlink:href="classpanda_1_1utils_1_1BranchName.html#a13958ff4a9d554d2c057c600b4f70412" target="_top" xlink:title="Prepend the branch name with &lt;objName.&gt;. ">
<polygon fill="white" stroke="black" points="658.727,-39.5 658.727,-71.5 789.755,-71.5 789.755,-39.5 658.727,-39.5"/>
<text text-anchor="start" x="666.727" y="-58.5" font-family="Helvetica,sans-Serif" font-size="10.00">panda::utils::BranchName</text>
<text text-anchor="middle" x="724.241" y="-46.5" font-family="Helvetica,sans-Serif" font-size="10.00">::fullName</text>
</a>
</g>
</g>
<!-- Node5&#45;&gt;Node8 -->
<g id="edge7" class="edge"><title>Node5&#45;&gt;Node8</title>
<path fill="none" stroke="midnightblue" d="M608.797,-72.2448C621.5,-70.3861 635.175,-68.3853 648.497,-66.436"/>
<polygon fill="midnightblue" stroke="midnightblue" points="649.207,-69.8696 658.595,-64.9587 648.193,-62.9433 649.207,-69.8696"/>
</g>
<!-- Node9 -->
<g id="node9" class="node"><title>Node9</title>
<g id="a_node9"><a xlink:href="namespacepanda_1_1utils.html#aafa411773a4b0ee829d99e6e5a0abdcd" target="_top" xlink:title="Check status of a branch. ">
<polygon fill="white" stroke="black" points="660.666,-0.5 660.666,-20.5 787.816,-20.5 787.816,-0.5 660.666,-0.5"/>
<text text-anchor="middle" x="724.241" y="-7.5" font-family="Helvetica,sans-Serif" font-size="10.00">panda::utils::checkStatus</text>
</a>
</g>
</g>
<!-- Node5&#45;&gt;Node9 -->
<g id="edge8" class="edge"><title>Node5&#45;&gt;Node9</title>
<path fill="none" stroke="midnightblue" d="M569.505,-70.3138C588.965,-59.0827 621.937,-41.075 652.059,-29.5 657.857,-27.272 664.017,-25.2055 670.193,-23.3196"/>
<polygon fill="midnightblue" stroke="midnightblue" points="671.236,-26.6611 679.861,-20.5071 669.281,-19.9397 671.236,-26.6611"/>
</g>
</g>
</svg>
        <g id="navigator" transform="translate(0 0)" fill="#404254">
                <rect fill="#f2f5e9" fill-opacity="0.5" stroke="#606060" stroke-width=".5" x="0" y="0" width="60" height="60"/>
                <use id="zoomplus" xlink:href="#zoomPlus" x="17" y="9" onmousedown="handleZoom(evt,'in')"/>
                <use id="zoomminus" xlink:href="#zoomMin" x="42" y="9" onmousedown="handleZoom(evt,'out')"/>
                <use id="reset" xlink:href="#resetDef" x="30" y="36" onmousedown="handleReset()"/>
                <g id="arrowUp" xlink:href="#dirArrow" transform="translate(30 24)" onmousedown="handlePan(0,-1)">
                  <use xlink:href="#rim" fill="#404040">
                        <set attributeName="fill" to="#808080" begin="arrowUp.mouseover" end="arrowUp.mouseout"/>
                  </use>
                  <path fill="none" stroke="white" stroke-width="1.5" d="M0,-3.0v7 M-2.5,-0.5L0,-3.0L2.5,-0.5"/>
                </g>
                <g id="arrowRight" xlink:href="#dirArrow" transform="rotate(90) translate(36 -43)" onmousedown="handlePan(1,0)">
                  <use xlink:href="#rim" fill="#404040">
                        <set attributeName="fill" to="#808080" begin="arrowRight.mouseover" end="arrowRight.mouseout"/>
                  </use>
                  <path fill="none" stroke="white" stroke-width="1.5" d="M0,-3.0v7 M-2.5,-0.5L0,-3.0L2.5,-0.5"/>
                </g>
                <g id="arrowDown" xlink:href="#dirArrow" transform="rotate(180) translate(-30 -48)" onmousedown="handlePan(0,1)">
                  <use xlink:href="#rim" fill="#404040">
                        <set attributeName="fill" to="#808080" begin="arrowDown.mouseover" end="arrowDown.mouseout"/>
                  </use>
                  <path fill="none" stroke="white" stroke-width="1.5" d="M0,-3.0v7 M-2.5,-0.5L0,-3.0L2.5,-0.5"/>
                </g>
                <g id="arrowLeft" xlink:href="#dirArrow" transform="rotate(270) translate(-36 17)" onmousedown="handlePan(-1,0)">
                  <use xlink:href="#rim" fill="#404040">
                        <set attributeName="fill" to="#808080" begin="arrowLeft.mouseover" end="arrowLeft.mouseout"/>
                  </use>
                  <path fill="none" stroke="white" stroke-width="1.5" d="M0,-3.0v7 M-2.5,-0.5L0,-3.0L2.5,-0.5"/>
                </g>
        </g>
        <svg viewBox="0 0 15 15" width="100%" height="30px" preserveAspectRatio="xMaxYMin meet">
         <g id="arrow_out" transform="scale(0.3 0.3)">
          <a xlink:href="structpanda_1_1Muon_1_1datastore_aad1af0c272dfd5543c739ff059a3adf5_cgraph_org.svg" target="_base">
           <rect id="button" ry="5" rx="5" y="6" x="6" height="38" width="38"
                fill="#f2f5e9" fill-opacity="0.5" stroke="#606060" stroke-width="1.0"/>
           <path id="arrow"
             d="M 11.500037,31.436501 C 11.940474,20.09759 22.043105,11.32322 32.158766,21.979434 L 37.068811,17.246167 C 37.068811,17.246167 37.088388,32 37.088388,32 L 22.160133,31.978069 C 22.160133,31.978069 26.997745,27.140456 26.997745,27.140456 C 18.528582,18.264221 13.291696,25.230495 11.500037,31.436501 z"
             style="fill:#404040;"/>
          </a>
         </g>
        </svg>
</svg>
