<?xml version="1.0" encoding="UTF-8" standalone="no"?>
<!DOCTYPE svg PUBLIC "-//W3C//DTD SVG 1.1//EN"
 "http://www.w3.org/Graphics/SVG/1.1/DTD/svg11.dtd">
<!-- Generated by graphviz version 2.38.0 (20140413.2041)
 -->
<!-- Title: panda::Electron::datastore::setStatus Pages: 1 -->
<svg width="816pt" height="170pt"
 viewBox="0.00 0.00 816.09 170.00" xmlns="http://www.w3.org/2000/svg" xmlns:xlink="http://www.w3.org/1999/xlink">
<g id="graph0" class="graph" transform="scale(1 1) rotate(0) translate(4 166)">
<title>panda::Electron::datastore::setStatus</title>
<polygon fill="white" stroke="none" points="-4,4 -4,-166 812.09,-166 812.09,4 -4,4"/>
<!-- Node1 -->
<g id="node1" class="node"><title>Node1</title>
<polygon fill="#bfbfbf" stroke="black" points="5.68434e-14,-48.5 5.68434e-14,-80.5 133.266,-80.5 133.266,-48.5 5.68434e-14,-48.5"/>
<text text-anchor="start" x="8" y="-67.5" font-family="Helvetica,sans-Serif" font-size="10.00">panda::Electron::datastore</text>
<text text-anchor="middle" x="66.633" y="-55.5" font-family="Helvetica,sans-Serif" font-size="10.00">::setStatus</text>
</g>
<!-- Node2 -->
<g id="node2" class="node"><title>Node2</title>
<g id="a_node2"><a xlink:href="structpanda_1_1Lepton_1_1datastore.html#ab5a31e8512ad7764369a4328dbff03d0" target="_top" xlink:title="panda::Lepton::datastore\l::setStatus">
<polygon fill="white" stroke="black" points="169.266,-71.5 169.266,-103.5 296.433,-103.5 296.433,-71.5 169.266,-71.5"/>
<text text-anchor="start" x="177.266" y="-90.5" font-family="Helvetica,sans-Serif" font-size="10.00">panda::Lepton::datastore</text>
<text text-anchor="middle" x="232.85" y="-78.5" font-family="Helvetica,sans-Serif" font-size="10.00">::setStatus</text>
</a>
</g>
</g>
<!-- Node1&#45;&gt;Node2 -->
<g id="edge1" class="edge"><title>Node1&#45;&gt;Node2</title>
<path fill="none" stroke="midnightblue" d="M133.48,-73.7225C141.946,-74.9082 150.652,-76.1275 159.218,-77.3274"/>
<polygon fill="midnightblue" stroke="midnightblue" points="158.799,-80.8027 169.188,-78.7237 159.77,-73.8704 158.799,-80.8027"/>
</g>
<!-- Node5 -->
<g id="node5" class="node"><title>Node5</title>
<g id="a_node5"><a xlink:href="namespacepanda_1_1utils.html#a01665f786d6a2acedb8f008f3fc9fc84" target="_top" xlink:title="Set status of a branch. ">
<polygon fill="white" stroke="black" points="505.858,-70.5 505.858,-90.5 620.227,-90.5 620.227,-70.5 505.858,-70.5"/>
<text text-anchor="middle" x="563.043" y="-77.5" font-family="Helvetica,sans-Serif" font-size="10.00">panda::utils::setStatus</text>
</a>
</g>
</g>
<!-- Node1&#45;&gt;Node5 -->
<g id="edge10" class="edge"><title>Node1&#45;&gt;Node5</title>
<path fill="none" stroke="midnightblue" d="M133.505,-62.2721C145.407,-61.9503 157.705,-61.6706 169.266,-61.5 225.779,-60.6661 239.95,-59.4824 296.433,-61.5 364.36,-63.9264 441.872,-69.8327 495.554,-74.4214"/>
<polygon fill="midnightblue" stroke="midnightblue" points="495.364,-77.9179 505.628,-75.2909 495.966,-70.9438 495.364,-77.9179"/>
</g>
<!-- Node3 -->
<g id="node3" class="node"><title>Node3</title>
<g id="a_node3"><a xlink:href="structpanda_1_1Particle_1_1datastore.html#afa508d25966c3e2044e67e4b50f1679e" target="_top" xlink:title="panda::Particle::datastore\l::setStatus">
<polygon fill="white" stroke="black" points="332.433,-109.5 332.433,-141.5 462.359,-141.5 462.359,-109.5 332.433,-109.5"/>
<text text-anchor="start" x="340.433" y="-128.5" font-family="Helvetica,sans-Serif" font-size="10.00">panda::Particle::datastore</text>
<text text-anchor="middle" x="397.396" y="-116.5" font-family="Helvetica,sans-Serif" font-size="10.00">::setStatus</text>
</a>
</g>
</g>
<!-- Node2&#45;&gt;Node3 -->
<g id="edge2" class="edge"><title>Node2&#45;&gt;Node3</title>
<path fill="none" stroke="midnightblue" d="M296.694,-102.192C305.106,-104.158 313.796,-106.19 322.376,-108.196"/>
<polygon fill="midnightblue" stroke="midnightblue" points="321.842,-111.665 332.377,-110.534 323.436,-104.849 321.842,-111.665"/>
</g>
<!-- Node2&#45;&gt;Node5 -->
<g id="edge9" class="edge"><title>Node2&#45;&gt;Node5</title>
<path fill="none" stroke="midnightblue" d="M296.74,-86.1586C353.717,-84.9434 437.4,-83.1585 495.488,-81.9195"/>
<polygon fill="midnightblue" stroke="midnightblue" points="495.739,-85.4151 505.662,-81.7025 495.59,-78.4167 495.739,-85.4151"/>
</g>
<!-- Node4 -->
<g id="node4" class="node"><title>Node4</title>
<g id="a_node4"><a xlink:href="structpanda_1_1ContainerElement_1_1datastore.html#aad03a4d0428dfa3b6ae9ccfb04d49cd8" target="_top" xlink:title="panda::ContainerElement\l::datastore::setStatus">
<polygon fill="white" stroke="black" points="498.359,-109.5 498.359,-141.5 627.726,-141.5 627.726,-109.5 498.359,-109.5"/>
<text text-anchor="start" x="506.359" y="-128.5" font-family="Helvetica,sans-Serif" font-size="10.00">panda::ContainerElement</text>
<text text-anchor="middle" x="563.043" y="-116.5" font-family="Helvetica,sans-Serif" font-size="10.00">::datastore::setStatus</text>
</a>
</g>
</g>
<!-- Node3&#45;&gt;Node4 -->
<g id="edge3" class="edge"><title>Node3&#45;&gt;Node4</title>
<path fill="none" stroke="midnightblue" d="M462.604,-125.5C470.943,-125.5 479.539,-125.5 488.022,-125.5"/>
<polygon fill="midnightblue" stroke="midnightblue" points="488.288,-129 498.288,-125.5 488.288,-122 488.288,-129"/>
</g>
<!-- Node3&#45;&gt;Node5 -->
<g id="edge4" class="edge"><title>Node3&#45;&gt;Node5</title>
<path fill="none" stroke="midnightblue" d="M457.014,-109.381C476.205,-104.104 497.252,-98.3163 515.433,-93.3168"/>
<polygon fill="midnightblue" stroke="midnightblue" points="516.495,-96.6549 525.209,-90.6287 514.639,-89.9054 516.495,-96.6549"/>
</g>
<!-- Node6 -->
<g id="node6" class="node"><title>Node6</title>
<g id="a_node6"><a xlink:href="classpanda_1_1utils_1_1BranchName.html#a6cc8a6df7c5b12a0221fd49773cca6a7" target="_top" xlink:title="Is the name included and not vetoed? ">
<polygon fill="white" stroke="black" points="663.726,-141.5 663.726,-161.5 808.09,-161.5 808.09,-141.5 663.726,-141.5"/>
<text text-anchor="middle" x="735.908" y="-148.5" font-family="Helvetica,sans-Serif" font-size="10.00">panda::utils::BranchName::in</text>
</a>
</g>
</g>
<!-- Node5&#45;&gt;Node6 -->
<g id="edge5" class="edge"><title>Node5&#45;&gt;Node6</title>
<path fill="none" stroke="midnightblue" d="M607.609,-90.6163C614.56,-93.0366 621.504,-95.9708 627.726,-99.5 646.606,-110.208 644.693,-122.067 663.726,-132.5 667.385,-134.506 671.268,-136.309 675.258,-137.928"/>
<polygon fill="midnightblue" stroke="midnightblue" points="674.113,-141.236 684.707,-141.383 676.517,-134.662 674.113,-141.236"/>
</g>
<!-- Node7 -->
<g id="node7" class="node"><title>Node7</title>
<g id="a_node7"><a xlink:href="classpanda_1_1utils_1_1BranchName.html#ae3332329bf2afae5ed8e7c35e5d77ffa" target="_top" xlink:title="Is the name included and vetoed? ">
<polygon fill="white" stroke="black" points="670.394,-90.5 670.394,-122.5 801.422,-122.5 801.422,-90.5 670.394,-90.5"/>
<text text-anchor="start" x="678.394" y="-109.5" font-family="Helvetica,sans-Serif" font-size="10.00">panda::utils::BranchName</text>
<text text-anchor="middle" x="735.908" y="-97.5" font-family="Helvetica,sans-Serif" font-size="10.00">::vetoed</text>
</a>
</g>
</g>
<!-- Node5&#45;&gt;Node7 -->
<g id="edge6" class="edge"><title>Node5&#45;&gt;Node7</title>
<path fill="none" stroke="midnightblue" d="M620.464,-89.0854C633.167,-91.0185 646.842,-93.0993 660.164,-95.1265"/>
<polygon fill="midnightblue" stroke="midnightblue" points="659.849,-98.6187 670.262,-96.663 660.902,-91.6984 659.849,-98.6187"/>
</g>
<!-- Node8 -->
<g id="node8" class="node"><title>Node8</title>
<g id="a_node8"><a xlink:href="classpanda_1_1utils_1_1BranchName.html#a13958ff4a9d554d2c057c600b4f70412" target="_top" xlink:title="Prepend the branch name with &lt;objName.&gt;. ">
<polygon fill="white" stroke="black" points="670.394,-39.5 670.394,-71.5 801.422,-71.5 801.422,-39.5 670.394,-39.5"/>
<text text-anchor="start" x="678.394" y="-58.5" font-family="Helvetica,sans-Serif" font-size="10.00">panda::utils::BranchName</text>
<text text-anchor="middle" x="735.908" y="-46.5" font-family="Helvetica,sans-Serif" font-size="10.00">::fullName</text>
</a>
</g>
</g>
<!-- Node5&#45;&gt;Node8 -->
<g id="edge7" class="edge"><title>Node5&#45;&gt;Node8</title>
<path fill="none" stroke="midnightblue" d="M620.464,-72.2448C633.167,-70.3861 646.842,-68.3853 660.164,-66.436"/>
<polygon fill="midnightblue" stroke="midnightblue" points="660.874,-69.8696 670.262,-64.9587 659.86,-62.9433 660.874,-69.8696"/>
</g>
<!-- Node9 -->
<g id="node9" class="node"><title>Node9</title>
<g id="a_node9"><a xlink:href="namespacepanda_1_1utils.html#aafa411773a4b0ee829d99e6e5a0abdcd" target="_top" xlink:title="Check status of a branch. ">
<polygon fill="white" stroke="black" points="672.333,-0.5 672.333,-20.5 799.483,-20.5 799.483,-0.5 672.333,-0.5"/>
<text text-anchor="middle" x="735.908" y="-7.5" font-family="Helvetica,sans-Serif" font-size="10.00">panda::utils::checkStatus</text>
</a>
</g>
</g>
<!-- Node5&#45;&gt;Node9 -->
<g id="edge8" class="edge"><title>Node5&#45;&gt;Node9</title>
<path fill="none" stroke="midnightblue" d="M581.172,-70.3138C600.632,-59.0827 633.604,-41.075 663.726,-29.5 669.524,-27.272 675.684,-25.2055 681.86,-23.3196"/>
<polygon fill="midnightblue" stroke="midnightblue" points="682.903,-26.6611 691.528,-20.5071 680.948,-19.9397 682.903,-26.6611"/>
</g>
</g>
</svg>
