<?xml version="1.0" encoding="UTF-8" standalone="no"?>
<!DOCTYPE svg PUBLIC "-//W3C//DTD SVG 1.1//EN"
 "http://www.w3.org/Graphics/SVG/1.1/DTD/svg11.dtd">
<!-- Generated by graphviz version 2.38.0 (20140413.2041)
 -->
<!-- Title: panda::Jet::datastore::setStatus Pages: 1 -->
<svg width="974pt" height="170pt"
 viewBox="0.00 0.00 974.21 170.00" xmlns="http://www.w3.org/2000/svg" xmlns:xlink="http://www.w3.org/1999/xlink">
<g id="graph0" class="graph" transform="scale(1 1) rotate(0) translate(4 166)">
<title>panda::Jet::datastore::setStatus</title>
<polygon fill="white" stroke="none" points="-4,4 -4,-166 970.21,-166 970.21,4 -4,4"/>
<!-- Node1 -->
<g id="node1" class="node"><title>Node1</title>
<polygon fill="#bfbfbf" stroke="black" points="2.84217e-14,-29.5 2.84217e-14,-61.5 109.931,-61.5 109.931,-29.5 2.84217e-14,-29.5"/>
<text text-anchor="start" x="8" y="-48.5" font-family="Helvetica,sans-Serif" font-size="10.00">panda::Jet::datastore</text>
<text text-anchor="middle" x="54.9655" y="-36.5" font-family="Helvetica,sans-Serif" font-size="10.00">::setStatus</text>
</g>
<!-- Node2 -->
<g id="node2" class="node"><title>Node2</title>
<g id="a_node2"><a xlink:href="structpanda_1_1MicroJet_1_1datastore.html#a8aec69bb1d854895f3dad5172029dc2a" target="_top" xlink:title="panda::MicroJet::datastore\l::setStatus">
<polygon fill="white" stroke="black" points="145.931,-52.5 145.931,-84.5 280.298,-84.5 280.298,-52.5 145.931,-52.5"/>
<text text-anchor="start" x="153.931" y="-71.5" font-family="Helvetica,sans-Serif" font-size="10.00">panda::MicroJet::datastore</text>
<text text-anchor="middle" x="213.115" y="-59.5" font-family="Helvetica,sans-Serif" font-size="10.00">::setStatus</text>
</a>
</g>
</g>
<!-- Node1&#45;&gt;Node2 -->
<g id="edge1" class="edge"><title>Node1&#45;&gt;Node2</title>
<path fill="none" stroke="midnightblue" d="M110.141,-53.4797C118.434,-54.7014 127.126,-55.9817 135.79,-57.2577"/>
<polygon fill="midnightblue" stroke="midnightblue" points="135.517,-60.7553 145.921,-58.75 136.537,-53.83 135.517,-60.7553"/>
</g>
<!-- Node6 -->
<g id="node6" class="node"><title>Node6</title>
<g id="a_node6"><a xlink:href="namespacepanda_1_1utils.html#a01665f786d6a2acedb8f008f3fc9fc84" target="_top" xlink:title="Set status of a branch. ">
<polygon fill="white" stroke="black" points="663.977,-70.5 663.977,-90.5 778.347,-90.5 778.347,-70.5 663.977,-70.5"/>
<text text-anchor="middle" x="721.162" y="-77.5" font-family="Helvetica,sans-Serif" font-size="10.00">panda::utils::setStatus</text>
</a>
</g>
</g>
<!-- Node1&#45;&gt;Node6 -->
<g id="edge12" class="edge"><title>Node1&#45;&gt;Node6</title>
<path fill="none" stroke="midnightblue" d="M110.192,-43.3993C121.973,-43.0247 134.368,-42.6927 145.931,-42.5 205.641,-41.5047 220.633,-39.9614 280.298,-42.5 431.901,-48.9503 469.32,-58.2333 620.479,-71.5 631.214,-72.4422 642.598,-73.456 653.686,-74.4515"/>
<polygon fill="midnightblue" stroke="midnightblue" points="653.485,-77.9475 663.759,-75.358 654.113,-70.9757 653.485,-77.9475"/>
</g>
<!-- Node3 -->
<g id="node3" class="node"><title>Node3</title>
<g id="a_node3"><a xlink:href="structpanda_1_1ParticleM_1_1datastore.html#a957ae0973d0133c87e71845ad751fd64" target="_top" xlink:title="panda::ParticleM::datastore\l::setStatus">
<polygon fill="white" stroke="black" points="316.298,-90.5 316.298,-122.5 454.553,-122.5 454.553,-90.5 316.298,-90.5"/>
<text text-anchor="start" x="324.298" y="-109.5" font-family="Helvetica,sans-Serif" font-size="10.00">panda::ParticleM::datastore</text>
<text text-anchor="middle" x="385.425" y="-97.5" font-family="Helvetica,sans-Serif" font-size="10.00">::setStatus</text>
</a>
</g>
</g>
<!-- Node2&#45;&gt;Node3 -->
<g id="edge2" class="edge"><title>Node2&#45;&gt;Node3</title>
<path fill="none" stroke="midnightblue" d="M280.449,-83.3006C288.84,-85.1729 297.488,-87.1024 306.044,-89.0115"/>
<polygon fill="midnightblue" stroke="midnightblue" points="305.503,-92.4768 316.026,-91.2385 307.028,-85.6448 305.503,-92.4768"/>
</g>
<!-- Node2&#45;&gt;Node6 -->
<g id="edge11" class="edge"><title>Node2&#45;&gt;Node6</title>
<path fill="none" stroke="midnightblue" d="M280.531,-70.075C377.423,-72.3726 556.516,-76.6194 653.53,-78.9199"/>
<polygon fill="midnightblue" stroke="midnightblue" points="653.719,-82.4253 663.8,-79.1635 653.885,-75.4273 653.719,-82.4253"/>
</g>
<!-- Node4 -->
<g id="node4" class="node"><title>Node4</title>
<g id="a_node4"><a xlink:href="structpanda_1_1Particle_1_1datastore.html#afa508d25966c3e2044e67e4b50f1679e" target="_top" xlink:title="panda::Particle::datastore\l::setStatus">
<polygon fill="white" stroke="black" points="490.553,-128.5 490.553,-160.5 620.479,-160.5 620.479,-128.5 490.553,-128.5"/>
<text text-anchor="start" x="498.553" y="-147.5" font-family="Helvetica,sans-Serif" font-size="10.00">panda::Particle::datastore</text>
<text text-anchor="middle" x="555.516" y="-135.5" font-family="Helvetica,sans-Serif" font-size="10.00">::setStatus</text>
</a>
</g>
</g>
<!-- Node3&#45;&gt;Node4 -->
<g id="edge3" class="edge"><title>Node3&#45;&gt;Node4</title>
<path fill="none" stroke="midnightblue" d="M454.794,-121.956C463.287,-123.876 472.001,-125.846 480.573,-127.784"/>
<polygon fill="midnightblue" stroke="midnightblue" points="480.023,-131.248 490.549,-130.039 481.567,-124.42 480.023,-131.248"/>
</g>
<!-- Node3&#45;&gt;Node6 -->
<g id="edge10" class="edge"><title>Node3&#45;&gt;Node6</title>
<path fill="none" stroke="midnightblue" d="M454.767,-101.176C512.965,-96.6418 596.073,-90.1672 653.72,-85.6762"/>
<polygon fill="midnightblue" stroke="midnightblue" points="654.12,-89.1558 663.818,-84.8896 653.576,-82.1769 654.12,-89.1558"/>
</g>
<!-- Node5 -->
<g id="node5" class="node"><title>Node5</title>
<g id="a_node5"><a xlink:href="structpanda_1_1ContainerElement_1_1datastore.html#aad03a4d0428dfa3b6ae9ccfb04d49cd8" target="_top" xlink:title="panda::ContainerElement\l::datastore::setStatus">
<polygon fill="white" stroke="black" points="656.479,-128.5 656.479,-160.5 785.846,-160.5 785.846,-128.5 656.479,-128.5"/>
<text text-anchor="start" x="664.479" y="-147.5" font-family="Helvetica,sans-Serif" font-size="10.00">panda::ContainerElement</text>
<text text-anchor="middle" x="721.162" y="-135.5" font-family="Helvetica,sans-Serif" font-size="10.00">::datastore::setStatus</text>
</a>
</g>
</g>
<!-- Node4&#45;&gt;Node5 -->
<g id="edge4" class="edge"><title>Node4&#45;&gt;Node5</title>
<path fill="none" stroke="midnightblue" d="M620.724,-144.5C629.063,-144.5 637.659,-144.5 646.142,-144.5"/>
<polygon fill="midnightblue" stroke="midnightblue" points="646.408,-148 656.408,-144.5 646.408,-141 646.408,-148"/>
</g>
<!-- Node4&#45;&gt;Node6 -->
<g id="edge5" class="edge"><title>Node4&#45;&gt;Node6</title>
<path fill="none" stroke="midnightblue" d="M597.811,-128.35C624.678,-117.843 659.344,-104.285 684.913,-94.2855"/>
<polygon fill="midnightblue" stroke="midnightblue" points="686.194,-97.5429 694.232,-90.641 683.644,-91.0237 686.194,-97.5429"/>
</g>
<!-- Node7 -->
<g id="node7" class="node"><title>Node7</title>
<g id="a_node7"><a xlink:href="classpanda_1_1utils_1_1BranchName.html#a6cc8a6df7c5b12a0221fd49773cca6a7" target="_top" xlink:title="Is the name included and not vetoed? ">
<polygon fill="white" stroke="black" points="821.846,-141.5 821.846,-161.5 966.21,-161.5 966.21,-141.5 821.846,-141.5"/>
<text text-anchor="middle" x="894.028" y="-148.5" font-family="Helvetica,sans-Serif" font-size="10.00">panda::utils::BranchName::in</text>
</a>
</g>
</g>
<!-- Node6&#45;&gt;Node7 -->
<g id="edge6" class="edge"><title>Node6&#45;&gt;Node7</title>
<path fill="none" stroke="midnightblue" d="M739.32,-90.6134C758.806,-101.779 791.8,-119.728 821.846,-131.5 828.27,-134.017 835.135,-136.359 841.971,-138.488"/>
<polygon fill="midnightblue" stroke="midnightblue" points="841.33,-141.949 851.914,-141.45 843.33,-135.24 841.33,-141.949"/>
</g>
<!-- Node8 -->
<g id="node8" class="node"><title>Node8</title>
<g id="a_node8"><a xlink:href="classpanda_1_1utils_1_1BranchName.html#ae3332329bf2afae5ed8e7c35e5d77ffa" target="_top" xlink:title="Is the name included and vetoed? ">
<polygon fill="white" stroke="black" points="828.514,-90.5 828.514,-122.5 959.542,-122.5 959.542,-90.5 828.514,-90.5"/>
<text text-anchor="start" x="836.514" y="-109.5" font-family="Helvetica,sans-Serif" font-size="10.00">panda::utils::BranchName</text>
<text text-anchor="middle" x="894.028" y="-97.5" font-family="Helvetica,sans-Serif" font-size="10.00">::vetoed</text>
</a>
</g>
</g>
<!-- Node6&#45;&gt;Node8 -->
<g id="edge7" class="edge"><title>Node6&#45;&gt;Node8</title>
<path fill="none" stroke="midnightblue" d="M778.584,-89.0854C791.287,-91.0185 804.962,-93.0993 818.284,-95.1265"/>
<polygon fill="midnightblue" stroke="midnightblue" points="817.969,-98.6187 828.382,-96.663 819.022,-91.6984 817.969,-98.6187"/>
</g>
<!-- Node9 -->
<g id="node9" class="node"><title>Node9</title>
<g id="a_node9"><a xlink:href="classpanda_1_1utils_1_1BranchName.html#a13958ff4a9d554d2c057c600b4f70412" target="_top" xlink:title="Prepend the branch name with &lt;objName.&gt;. ">
<polygon fill="white" stroke="black" points="828.514,-39.5 828.514,-71.5 959.542,-71.5 959.542,-39.5 828.514,-39.5"/>
<text text-anchor="start" x="836.514" y="-58.5" font-family="Helvetica,sans-Serif" font-size="10.00">panda::utils::BranchName</text>
<text text-anchor="middle" x="894.028" y="-46.5" font-family="Helvetica,sans-Serif" font-size="10.00">::fullName</text>
</a>
</g>
</g>
<!-- Node6&#45;&gt;Node9 -->
<g id="edge8" class="edge"><title>Node6&#45;&gt;Node9</title>
<path fill="none" stroke="midnightblue" d="M778.584,-72.2448C791.287,-70.3861 804.962,-68.3853 818.284,-66.436"/>
<polygon fill="midnightblue" stroke="midnightblue" points="818.994,-69.8696 828.382,-64.9587 817.98,-62.9433 818.994,-69.8696"/>
</g>
<!-- Node10 -->
<g id="node10" class="node"><title>Node10</title>
<g id="a_node10"><a xlink:href="namespacepanda_1_1utils.html#aafa411773a4b0ee829d99e6e5a0abdcd" target="_top" xlink:title="Check status of a branch. ">
<polygon fill="white" stroke="black" points="830.453,-0.5 830.453,-20.5 957.603,-20.5 957.603,-0.5 830.453,-0.5"/>
<text text-anchor="middle" x="894.028" y="-7.5" font-family="Helvetica,sans-Serif" font-size="10.00">panda::utils::checkStatus</text>
</a>
</g>
</g>
<!-- Node6&#45;&gt;Node10 -->
<g id="edge9" class="edge"><title>Node6&#45;&gt;Node10</title>
<path fill="none" stroke="midnightblue" d="M739.292,-70.3138C758.752,-59.0827 791.724,-41.075 821.846,-29.5 827.644,-27.272 833.804,-25.2055 839.98,-23.3196"/>
<polygon fill="midnightblue" stroke="midnightblue" points="841.023,-26.6611 849.648,-20.5071 839.068,-19.9397 841.023,-26.6611"/>
</g>
</g>
</svg>
