<?xml version="1.0" encoding="UTF-8" standalone="no"?>
<!DOCTYPE svg PUBLIC "-//W3C//DTD SVG 1.1//EN"
 "http://www.w3.org/Graphics/SVG/1.1/DTD/svg11.dtd">
<!-- Generated by graphviz version 2.38.0 (20140413.2041)
 -->
<!-- Title: panda::Jet::datastore::~datastore Pages: 1 -->
<svg width="940pt" height="41pt"
 viewBox="0.00 0.00 939.78 41.00" xmlns="http://www.w3.org/2000/svg" xmlns:xlink="http://www.w3.org/1999/xlink">
<g id="graph0" class="graph" transform="scale(1 1) rotate(0) translate(4 37)">
<title>panda::Jet::datastore::~datastore</title>
<polygon fill="white" stroke="none" points="-4,4 -4,-37 935.777,-37 935.777,4 -4,4"/>
<!-- Node1 -->
<g id="node1" class="node"><title>Node1</title>
<polygon fill="#bfbfbf" stroke="black" points="2.84217e-14,-0.5 2.84217e-14,-32.5 109.931,-32.5 109.931,-0.5 2.84217e-14,-0.5"/>
<text text-anchor="start" x="8" y="-19.5" font-family="Helvetica,sans-Serif" font-size="10.00">panda::Jet::datastore</text>
<text text-anchor="middle" x="54.9655" y="-7.5" font-family="Helvetica,sans-Serif" font-size="10.00">::~datastore</text>
</g>
<!-- Node2 -->
<g id="node2" class="node"><title>Node2</title>
<g id="a_node2"><a xlink:href="structpanda_1_1Jet_1_1datastore.html#a606415eee51c1a38fc0613f3b2946d1e" target="_top" xlink:title="panda::Jet::datastore\l::deallocate">
<polygon fill="white" stroke="black" points="145.931,-0.5 145.931,-32.5 255.862,-32.5 255.862,-0.5 145.931,-0.5"/>
<text text-anchor="start" x="153.931" y="-19.5" font-family="Helvetica,sans-Serif" font-size="10.00">panda::Jet::datastore</text>
<text text-anchor="middle" x="200.896" y="-7.5" font-family="Helvetica,sans-Serif" font-size="10.00">::deallocate</text>
</a>
</g>
</g>
<!-- Node1&#45;&gt;Node2 -->
<g id="edge1" class="edge"><title>Node1&#45;&gt;Node2</title>
<path fill="none" stroke="midnightblue" d="M109.97,-16.5C118.249,-16.5 126.868,-16.5 135.347,-16.5"/>
<polygon fill="midnightblue" stroke="midnightblue" points="135.59,-20.0001 145.59,-16.5 135.59,-13.0001 135.59,-20.0001"/>
</g>
<!-- Node3 -->
<g id="node3" class="node"><title>Node3</title>
<g id="a_node3"><a xlink:href="structpanda_1_1MicroJet_1_1datastore.html#a03473e3dcba5abe73c123ce2c1d3292c" target="_top" xlink:title="panda::MicroJet::datastore\l::deallocate">
<polygon fill="white" stroke="black" points="291.862,-0.5 291.862,-32.5 426.229,-32.5 426.229,-0.5 291.862,-0.5"/>
<text text-anchor="start" x="299.862" y="-19.5" font-family="Helvetica,sans-Serif" font-size="10.00">panda::MicroJet::datastore</text>
<text text-anchor="middle" x="359.045" y="-7.5" font-family="Helvetica,sans-Serif" font-size="10.00">::deallocate</text>
</a>
</g>
</g>
<!-- Node2&#45;&gt;Node3 -->
<g id="edge2" class="edge"><title>Node2&#45;&gt;Node3</title>
<path fill="none" stroke="midnightblue" d="M256.072,-16.5C264.365,-16.5 273.057,-16.5 281.721,-16.5"/>
<polygon fill="midnightblue" stroke="midnightblue" points="281.852,-20.0001 291.852,-16.5 281.852,-13.0001 281.852,-20.0001"/>
</g>
<!-- Node4 -->
<g id="node4" class="node"><title>Node4</title>
<g id="a_node4"><a xlink:href="structpanda_1_1ParticleM_1_1datastore.html#a85c4ce11f1d7c6944a525ad2488880aa" target="_top" xlink:title="panda::ParticleM::datastore\l::deallocate">
<polygon fill="white" stroke="black" points="462.229,-0.5 462.229,-32.5 600.484,-32.5 600.484,-0.5 462.229,-0.5"/>
<text text-anchor="start" x="470.229" y="-19.5" font-family="Helvetica,sans-Serif" font-size="10.00">panda::ParticleM::datastore</text>
<text text-anchor="middle" x="531.356" y="-7.5" font-family="Helvetica,sans-Serif" font-size="10.00">::deallocate</text>
</a>
</g>
</g>
<!-- Node3&#45;&gt;Node4 -->
<g id="edge3" class="edge"><title>Node3&#45;&gt;Node4</title>
<path fill="none" stroke="midnightblue" d="M426.38,-16.5C434.68,-16.5 443.231,-16.5 451.696,-16.5"/>
<polygon fill="midnightblue" stroke="midnightblue" points="451.957,-20.0001 461.957,-16.5 451.957,-13.0001 451.957,-20.0001"/>
</g>
<!-- Node5 -->
<g id="node5" class="node"><title>Node5</title>
<g id="a_node5"><a xlink:href="structpanda_1_1Particle_1_1datastore.html#ad741e5ab6ebeb9ca897ba9472d0dea36" target="_top" xlink:title="panda::Particle::datastore\l::deallocate">
<polygon fill="white" stroke="black" points="636.484,-0.5 636.484,-32.5 766.41,-32.5 766.41,-0.5 636.484,-0.5"/>
<text text-anchor="start" x="644.484" y="-19.5" font-family="Helvetica,sans-Serif" font-size="10.00">panda::Particle::datastore</text>
<text text-anchor="middle" x="701.447" y="-7.5" font-family="Helvetica,sans-Serif" font-size="10.00">::deallocate</text>
</a>
</g>
</g>
<!-- Node4&#45;&gt;Node5 -->
<g id="edge4" class="edge"><title>Node4&#45;&gt;Node5</title>
<path fill="none" stroke="midnightblue" d="M600.725,-16.5C609.126,-16.5 617.743,-16.5 626.225,-16.5"/>
<polygon fill="midnightblue" stroke="midnightblue" points="626.48,-20.0001 636.48,-16.5 626.48,-13.0001 626.48,-20.0001"/>
</g>
<!-- Node6 -->
<g id="node6" class="node"><title>Node6</title>
<g id="a_node6"><a xlink:href="structpanda_1_1ContainerElement_1_1datastore.html#a8827cbb1304b781fcba764a6bf4cbcc1" target="_top" xlink:title="panda::ContainerElement\l::datastore::deallocate">
<polygon fill="white" stroke="black" points="802.41,-0.5 802.41,-32.5 931.777,-32.5 931.777,-0.5 802.41,-0.5"/>
<text text-anchor="start" x="810.41" y="-19.5" font-family="Helvetica,sans-Serif" font-size="10.00">panda::ContainerElement</text>
<text text-anchor="middle" x="867.093" y="-7.5" font-family="Helvetica,sans-Serif" font-size="10.00">::datastore::deallocate</text>
</a>
</g>
</g>
<!-- Node5&#45;&gt;Node6 -->
<g id="edge5" class="edge"><title>Node5&#45;&gt;Node6</title>
<path fill="none" stroke="midnightblue" d="M766.655,-16.5C774.994,-16.5 783.59,-16.5 792.073,-16.5"/>
<polygon fill="midnightblue" stroke="midnightblue" points="792.339,-20.0001 802.339,-16.5 792.339,-13.0001 792.339,-20.0001"/>
</g>
</g>
</svg>
