<?xml version="1.0" encoding="UTF-8" standalone="no"?>
<!DOCTYPE svg PUBLIC "-//W3C//DTD SVG 1.1//EN"
 "http://www.w3.org/Graphics/SVG/1.1/DTD/svg11.dtd">
<!-- Generated by graphviz version 2.38.0 (20140413.2041)
 -->
<!-- Title: panda::GenParticle::datastore::deallocate Pages: 1 -->
<svg width="628pt" height="41pt"
 viewBox="0.00 0.00 627.92 41.00" xmlns="http://www.w3.org/2000/svg" xmlns:xlink="http://www.w3.org/1999/xlink">
<g id="graph0" class="graph" transform="scale(1 1) rotate(0) translate(4 37)">
<title>panda::GenParticle::datastore::deallocate</title>
<polygon fill="white" stroke="none" points="-4,4 -4,-37 623.917,-37 623.917,4 -4,4"/>
<!-- Node1 -->
<g id="node1" class="node"><title>Node1</title>
<polygon fill="#bfbfbf" stroke="black" points="-3.55271e-14,-0.5 -3.55271e-14,-32.5 114.369,-32.5 114.369,-0.5 -3.55271e-14,-0.5"/>
<text text-anchor="start" x="8" y="-19.5" font-family="Helvetica,sans-Serif" font-size="10.00">panda::GenParticle</text>
<text text-anchor="middle" x="57.1845" y="-7.5" font-family="Helvetica,sans-Serif" font-size="10.00">::datastore::deallocate</text>
</g>
<!-- Node2 -->
<g id="node2" class="node"><title>Node2</title>
<g id="a_node2"><a xlink:href="structpanda_1_1ParticleM_1_1datastore.html#a85c4ce11f1d7c6944a525ad2488880aa" target="_top" xlink:title="panda::ParticleM::datastore\l::deallocate">
<polygon fill="white" stroke="black" points="150.369,-0.5 150.369,-32.5 288.624,-32.5 288.624,-0.5 150.369,-0.5"/>
<text text-anchor="start" x="158.369" y="-19.5" font-family="Helvetica,sans-Serif" font-size="10.00">panda::ParticleM::datastore</text>
<text text-anchor="middle" x="219.496" y="-7.5" font-family="Helvetica,sans-Serif" font-size="10.00">::deallocate</text>
</a>
</g>
</g>
<!-- Node1&#45;&gt;Node2 -->
<g id="edge1" class="edge"><title>Node1&#45;&gt;Node2</title>
<path fill="none" stroke="midnightblue" d="M114.705,-16.5C122.933,-16.5 131.527,-16.5 140.094,-16.5"/>
<polygon fill="midnightblue" stroke="midnightblue" points="140.115,-20.0001 150.115,-16.5 140.115,-13.0001 140.115,-20.0001"/>
</g>
<!-- Node3 -->
<g id="node3" class="node"><title>Node3</title>
<g id="a_node3"><a xlink:href="structpanda_1_1Particle_1_1datastore.html#ad741e5ab6ebeb9ca897ba9472d0dea36" target="_top" xlink:title="panda::Particle::datastore\l::deallocate">
<polygon fill="white" stroke="black" points="324.624,-0.5 324.624,-32.5 454.55,-32.5 454.55,-0.5 324.624,-0.5"/>
<text text-anchor="start" x="332.624" y="-19.5" font-family="Helvetica,sans-Serif" font-size="10.00">panda::Particle::datastore</text>
<text text-anchor="middle" x="389.587" y="-7.5" font-family="Helvetica,sans-Serif" font-size="10.00">::deallocate</text>
</a>
</g>
</g>
<!-- Node2&#45;&gt;Node3 -->
<g id="edge2" class="edge"><title>Node2&#45;&gt;Node3</title>
<path fill="none" stroke="midnightblue" d="M288.865,-16.5C297.266,-16.5 305.883,-16.5 314.365,-16.5"/>
<polygon fill="midnightblue" stroke="midnightblue" points="314.62,-20.0001 324.62,-16.5 314.62,-13.0001 314.62,-20.0001"/>
</g>
<!-- Node4 -->
<g id="node4" class="node"><title>Node4</title>
<g id="a_node4"><a xlink:href="structpanda_1_1ContainerElement_1_1datastore.html#a8827cbb1304b781fcba764a6bf4cbcc1" target="_top" xlink:title="panda::ContainerElement\l::datastore::deallocate">
<polygon fill="white" stroke="black" points="490.55,-0.5 490.55,-32.5 619.917,-32.5 619.917,-0.5 490.55,-0.5"/>
<text text-anchor="start" x="498.55" y="-19.5" font-family="Helvetica,sans-Serif" font-size="10.00">panda::ContainerElement</text>
<text text-anchor="middle" x="555.233" y="-7.5" font-family="Helvetica,sans-Serif" font-size="10.00">::datastore::deallocate</text>
</a>
</g>
</g>
<!-- Node3&#45;&gt;Node4 -->
<g id="edge3" class="edge"><title>Node3&#45;&gt;Node4</title>
<path fill="none" stroke="midnightblue" d="M454.795,-16.5C463.134,-16.5 471.73,-16.5 480.213,-16.5"/>
<polygon fill="midnightblue" stroke="midnightblue" points="480.479,-20.0001 490.479,-16.5 480.479,-13.0001 480.479,-20.0001"/>
</g>
</g>
</svg>
