<?xml version="1.0" encoding="UTF-8" standalone="no"?>
<!DOCTYPE svg PUBLIC "-//W3C//DTD SVG 1.1//EN"
 "http://www.w3.org/Graphics/SVG/1.1/DTD/svg11.dtd">
<!-- Generated by graphviz version 2.38.0 (20140413.2041)
 -->
<!-- Title: panda::FatJet::datastore Pages: 1 -->
<svg width="308pt" height="366pt"
 viewBox="0.00 0.00 308.48 366.00" xmlns="http://www.w3.org/2000/svg" xmlns:xlink="http://www.w3.org/1999/xlink">
<g id="graph0" class="graph" transform="scale(1 1) rotate(0) translate(4 362)">
<title>panda::FatJet::datastore</title>
<polygon fill="white" stroke="none" points="-4,4 -4,-362 304.481,-362 304.481,4 -4,4"/>
<!-- Node1 -->
<g id="node1" class="node"><title>Node1</title>
<polygon fill="#bfbfbf" stroke="black" points="132.939,-0.5 132.939,-20.5 257.317,-20.5 257.317,-0.5 132.939,-0.5"/>
<text text-anchor="middle" x="195.127" y="-7.5" font-family="Helvetica,sans-Serif" font-size="10.00">panda::FatJet::datastore</text>
</g>
<!-- Node2 -->
<g id="node2" class="node"><title>Node2</title>
<g id="a_node2"><a xlink:href="structpanda_1_1Jet_1_1datastore.html" target="_top" xlink:title="panda::Jet::datastore">
<polygon fill="white" stroke="black" points="47.162,-58.5 47.162,-78.5 157.093,-78.5 157.093,-58.5 47.162,-58.5"/>
<text text-anchor="middle" x="102.127" y="-65.5" font-family="Helvetica,sans-Serif" font-size="10.00">panda::Jet::datastore</text>
</a>
</g>
</g>
<!-- Node2&#45;&gt;Node1 -->
<g id="edge1" class="edge"><title>Node2&#45;&gt;Node1</title>
<path fill="none" stroke="midnightblue" d="M126.311,-52.938C143.312,-42.7008 165.53,-29.3221 180.056,-20.5752"/>
<polygon fill="midnightblue" stroke="midnightblue" points="124.246,-50.0958 117.485,-58.2527 127.857,-56.0926 124.246,-50.0958"/>
</g>
<!-- Node3 -->
<g id="node3" class="node"><title>Node3</title>
<g id="a_node3"><a xlink:href="structpanda_1_1MicroJet_1_1datastore.html" target="_top" xlink:title="panda::MicroJet::datastore">
<polygon fill="white" stroke="black" points="1.944,-151.5 1.944,-171.5 136.311,-171.5 136.311,-151.5 1.944,-151.5"/>
<text text-anchor="middle" x="69.1275" y="-158.5" font-family="Helvetica,sans-Serif" font-size="10.00">panda::MicroJet::datastore</text>
</a>
</g>
</g>
<!-- Node3&#45;&gt;Node2 -->
<g id="edge2" class="edge"><title>Node3&#45;&gt;Node2</title>
<path fill="none" stroke="midnightblue" d="M71.4251,-141.037C73.4218,-128.149 76.9907,-111.089 83.1275,-97 86.0011,-90.4029 90.5486,-83.7448 94.4743,-78.6325"/>
<polygon fill="midnightblue" stroke="midnightblue" points="67.9349,-140.727 70.05,-151.109 74.8706,-141.674 67.9349,-140.727"/>
</g>
<!-- Node4 -->
<g id="node4" class="node"><title>Node4</title>
<g id="a_node4"><a xlink:href="structpanda_1_1ParticleM_1_1datastore.html" target="_top" xlink:title="panda::ParticleM::datastore">
<polygon fill="white" stroke="black" points="0,-209.5 0,-229.5 138.255,-229.5 138.255,-209.5 0,-209.5"/>
<text text-anchor="middle" x="69.1275" y="-216.5" font-family="Helvetica,sans-Serif" font-size="10.00">panda::ParticleM::datastore</text>
</a>
</g>
</g>
<!-- Node4&#45;&gt;Node3 -->
<g id="edge3" class="edge"><title>Node4&#45;&gt;Node3</title>
<path fill="none" stroke="midnightblue" d="M69.1275,-199.207C69.1275,-189.838 69.1275,-179.026 69.1275,-171.575"/>
<polygon fill="midnightblue" stroke="midnightblue" points="65.6276,-199.253 69.1275,-209.253 72.6276,-199.253 65.6276,-199.253"/>
</g>
<!-- Node5 -->
<g id="node5" class="node"><title>Node5</title>
<g id="a_node5"><a xlink:href="structpanda_1_1Particle_1_1datastore.html" target="_top" xlink:title="panda::Particle::datastore">
<polygon fill="white" stroke="black" points="4.1645,-267.5 4.1645,-287.5 134.09,-287.5 134.09,-267.5 4.1645,-267.5"/>
<text text-anchor="middle" x="69.1275" y="-274.5" font-family="Helvetica,sans-Serif" font-size="10.00">panda::Particle::datastore</text>
</a>
</g>
</g>
<!-- Node5&#45;&gt;Node4 -->
<g id="edge4" class="edge"><title>Node5&#45;&gt;Node4</title>
<path fill="none" stroke="midnightblue" d="M69.1275,-257.207C69.1275,-247.838 69.1275,-237.026 69.1275,-229.575"/>
<polygon fill="midnightblue" stroke="midnightblue" points="65.6276,-257.253 69.1275,-267.253 72.6276,-257.253 65.6276,-257.253"/>
</g>
<!-- Node6 -->
<g id="node6" class="node"><title>Node6</title>
<g id="a_node6"><a xlink:href="structpanda_1_1ContainerElement_1_1datastore.html" target="_top" xlink:title="panda::ContainerElement\l::datastore">
<polygon fill="white" stroke="black" points="4.444,-325.5 4.444,-357.5 133.811,-357.5 133.811,-325.5 4.444,-325.5"/>
<text text-anchor="start" x="12.444" y="-344.5" font-family="Helvetica,sans-Serif" font-size="10.00">panda::ContainerElement</text>
<text text-anchor="middle" x="69.1275" y="-332.5" font-family="Helvetica,sans-Serif" font-size="10.00">::datastore</text>
</a>
</g>
</g>
<!-- Node6&#45;&gt;Node5 -->
<g id="edge5" class="edge"><title>Node6&#45;&gt;Node5</title>
<path fill="none" stroke="midnightblue" d="M69.1275,-315.422C69.1275,-305.672 69.1275,-295.11 69.1275,-287.79"/>
<polygon fill="midnightblue" stroke="midnightblue" points="65.6276,-315.491 69.1275,-325.492 72.6276,-315.492 65.6276,-315.491"/>
</g>
<!-- Node7 -->
<g id="node7" class="node"><title>Node7</title>
<g id="a_node7"><a xlink:href="classpanda_1_1ContainerBase.html" target="_top" xlink:title="Base class for all containers. ">
<polygon fill="white" stroke="black" points="165.387,-151.5 165.387,-171.5 280.868,-171.5 280.868,-151.5 165.387,-151.5"/>
<text text-anchor="middle" x="223.127" y="-158.5" font-family="Helvetica,sans-Serif" font-size="10.00">panda::ContainerBase</text>
</a>
</g>
</g>
<!-- Node7&#45;&gt;Node1 -->
<g id="edge8" class="edge"><title>Node7&#45;&gt;Node1</title>
<path fill="none" stroke="#9a32cd" stroke-dasharray="5,2" d="M223.398,-141.13C223.284,-128.488 222.583,-111.668 220.127,-97 215.379,-68.6292 204.333,-36.3499 198.648,-20.8183"/>
<polygon fill="#9a32cd" stroke="#9a32cd" points="219.898,-141.376 223.371,-151.385 226.898,-141.394 219.898,-141.376"/>
<text text-anchor="middle" x="258.804" y="-65.5" font-family="Helvetica,sans-Serif" font-size="10.00"> subjetsContainer_</text>
</g>
<!-- Node7&#45;&gt;Node2 -->
<g id="edge6" class="edge"><title>Node7&#45;&gt;Node2</title>
<path fill="none" stroke="#9a32cd" stroke-dasharray="5,2" d="M155.262,-152.255C132.255,-147.975 110.55,-141.758 103.429,-133 90.9062,-117.601 95.3502,-92.4634 99.0925,-78.8951"/>
<polygon fill="#9a32cd" stroke="#9a32cd" points="154.712,-155.712 165.163,-153.973 155.909,-148.815 154.712,-155.712"/>
<text text-anchor="start" x="104.127" y="-124" font-family="Helvetica,sans-Serif" font-size="10.00"> matchedGenJetContainer</text>
<text text-anchor="middle" x="162.477" y="-112" font-family="Helvetica,sans-Serif" font-size="10.00">_</text>
<text text-anchor="middle" x="162.477" y="-100" font-family="Helvetica,sans-Serif" font-size="10.00">constituentsContainer_</text>
</g>
<!-- Node8 -->
<g id="node8" class="node"><title>Node8</title>
<g id="a_node8"><a xlink:href="classpanda_1_1Object.html" target="_top" xlink:title="panda::Object">
<polygon fill="white" stroke="black" points="184.004,-209.5 184.004,-229.5 262.251,-229.5 262.251,-209.5 184.004,-209.5"/>
<text text-anchor="middle" x="223.127" y="-216.5" font-family="Helvetica,sans-Serif" font-size="10.00">panda::Object</text>
</a>
</g>
</g>
<!-- Node8&#45;&gt;Node7 -->
<g id="edge7" class="edge"><title>Node8&#45;&gt;Node7</title>
<path fill="none" stroke="midnightblue" d="M223.127,-199.207C223.127,-189.838 223.127,-179.026 223.127,-171.575"/>
<polygon fill="midnightblue" stroke="midnightblue" points="219.628,-199.253 223.127,-209.253 226.628,-199.253 219.628,-199.253"/>
</g>
</g>
</svg>
