<?xml version="1.0" encoding="UTF-8" standalone="no"?>
<!DOCTYPE svg PUBLIC "-//W3C//DTD SVG 1.1//EN"
 "http://www.w3.org/Graphics/SVG/1.1/DTD/svg11.dtd">
<!-- Generated by graphviz version 2.38.0 (20140413.2041)
 -->
<!-- Title: panda::PFCand::datastore::resetAddress Pages: 1 -->
<svg width="816pt" height="102pt"
 viewBox="0.00 0.00 816.06 102.00" xmlns="http://www.w3.org/2000/svg" xmlns:xlink="http://www.w3.org/1999/xlink">
<g id="graph0" class="graph" transform="scale(1 1) rotate(0) translate(4 98)">
<title>panda::PFCand::datastore::resetAddress</title>
<polygon fill="white" stroke="none" points="-4,4 -4,-98 812.064,-98 812.064,4 -4,4"/>
<!-- Node1 -->
<g id="node1" class="node"><title>Node1</title>
<polygon fill="#bfbfbf" stroke="black" points="2.84217e-14,-0.5 2.84217e-14,-32.5 133.267,-32.5 133.267,-0.5 2.84217e-14,-0.5"/>
<text text-anchor="start" x="8" y="-19.5" font-family="Helvetica,sans-Serif" font-size="10.00">panda::PFCand::datastore</text>
<text text-anchor="middle" x="66.6335" y="-7.5" font-family="Helvetica,sans-Serif" font-size="10.00">::resetAddress</text>
</g>
<!-- Node2 -->
<g id="node2" class="node"><title>Node2</title>
<g id="a_node2"><a xlink:href="structpanda_1_1ParticleM_1_1datastore.html#a6ba00e058ede77709ec931108ccf9bb8" target="_top" xlink:title="panda::ParticleM::datastore\l::resetAddress">
<polygon fill="white" stroke="black" points="169.267,-23.5 169.267,-55.5 307.522,-55.5 307.522,-23.5 169.267,-23.5"/>
<text text-anchor="start" x="177.267" y="-42.5" font-family="Helvetica,sans-Serif" font-size="10.00">panda::ParticleM::datastore</text>
<text text-anchor="middle" x="238.394" y="-30.5" font-family="Helvetica,sans-Serif" font-size="10.00">::resetAddress</text>
</a>
</g>
</g>
<!-- Node1&#45;&gt;Node2 -->
<g id="edge1" class="edge"><title>Node1&#45;&gt;Node2</title>
<path fill="none" stroke="midnightblue" d="M133.268,-25.3924C141.717,-26.5372 150.436,-27.7184 159.063,-28.8873"/>
<polygon fill="midnightblue" stroke="midnightblue" points="158.748,-32.3766 169.128,-30.2509 159.688,-25.4399 158.748,-32.3766"/>
</g>
<!-- Node5 -->
<g id="node5" class="node"><title>Node5</title>
<g id="a_node5"><a xlink:href="namespacepanda_1_1utils.html#a82a8530e64fbdf917cf9b8659065f98b" target="_top" xlink:title="panda::utils::resetAddress">
<polygon fill="white" stroke="black" points="509.448,-22.5 509.448,-42.5 641.036,-42.5 641.036,-22.5 509.448,-22.5"/>
<text text-anchor="middle" x="575.242" y="-29.5" font-family="Helvetica,sans-Serif" font-size="10.00">panda::utils::resetAddress</text>
</a>
</g>
</g>
<!-- Node1&#45;&gt;Node5 -->
<g id="edge7" class="edge"><title>Node1&#45;&gt;Node5</title>
<path fill="none" stroke="midnightblue" d="M133.506,-14.2721C145.408,-13.9503 157.706,-13.6706 169.267,-13.5 230.707,-12.5934 246.114,-11.3156 307.522,-13.5 372.354,-15.8063 445.883,-21.2562 499.295,-25.7306"/>
<polygon fill="midnightblue" stroke="midnightblue" points="499.104,-29.2269 509.363,-26.5824 499.694,-22.2518 499.104,-29.2269"/>
</g>
<!-- Node3 -->
<g id="node3" class="node"><title>Node3</title>
<g id="a_node3"><a xlink:href="structpanda_1_1Particle_1_1datastore.html#a4a04e4dd473787da09b945659e07f0ec" target="_top" xlink:title="panda::Particle::datastore\l::resetAddress">
<polygon fill="white" stroke="black" points="343.522,-61.5 343.522,-93.5 473.448,-93.5 473.448,-61.5 343.522,-61.5"/>
<text text-anchor="start" x="351.522" y="-80.5" font-family="Helvetica,sans-Serif" font-size="10.00">panda::Particle::datastore</text>
<text text-anchor="middle" x="408.485" y="-68.5" font-family="Helvetica,sans-Serif" font-size="10.00">::resetAddress</text>
</a>
</g>
</g>
<!-- Node2&#45;&gt;Node3 -->
<g id="edge2" class="edge"><title>Node2&#45;&gt;Node3</title>
<path fill="none" stroke="midnightblue" d="M307.763,-54.9561C316.256,-56.876 324.97,-58.846 333.542,-60.7838"/>
<polygon fill="midnightblue" stroke="midnightblue" points="332.992,-64.2477 343.518,-63.039 334.536,-57.42 332.992,-64.2477"/>
</g>
<!-- Node2&#45;&gt;Node5 -->
<g id="edge6" class="edge"><title>Node2&#45;&gt;Node5</title>
<path fill="none" stroke="midnightblue" d="M307.559,-38.075C363.209,-36.9116 441.758,-35.2696 499.194,-34.0689"/>
<polygon fill="midnightblue" stroke="midnightblue" points="499.377,-37.5659 509.301,-33.8576 499.23,-30.5675 499.377,-37.5659"/>
</g>
<!-- Node4 -->
<g id="node4" class="node"><title>Node4</title>
<g id="a_node4"><a xlink:href="structpanda_1_1ContainerElement_1_1datastore.html#a1f296453b1f2e440d9b4be3388069d43" target="_top" xlink:title="panda::ContainerElement\l::datastore::resetAddress">
<polygon fill="white" stroke="black" points="510.558,-61.5 510.558,-93.5 639.925,-93.5 639.925,-61.5 510.558,-61.5"/>
<text text-anchor="start" x="518.558" y="-80.5" font-family="Helvetica,sans-Serif" font-size="10.00">panda::ContainerElement</text>
<text text-anchor="middle" x="575.242" y="-68.5" font-family="Helvetica,sans-Serif" font-size="10.00">::datastore::resetAddress</text>
</a>
</g>
</g>
<!-- Node3&#45;&gt;Node4 -->
<g id="edge3" class="edge"><title>Node3&#45;&gt;Node4</title>
<path fill="none" stroke="midnightblue" d="M473.656,-77.5C482.453,-77.5 491.541,-77.5 500.492,-77.5"/>
<polygon fill="midnightblue" stroke="midnightblue" points="500.517,-81.0001 510.517,-77.5 500.517,-74.0001 500.517,-81.0001"/>
</g>
<!-- Node3&#45;&gt;Node5 -->
<g id="edge4" class="edge"><title>Node3&#45;&gt;Node5</title>
<path fill="none" stroke="midnightblue" d="M468.501,-61.3811C487.822,-56.1039 509.012,-50.3163 527.316,-45.3168"/>
<polygon fill="midnightblue" stroke="midnightblue" points="528.434,-48.6399 537.158,-42.6287 526.589,-41.8872 528.434,-48.6399"/>
</g>
<!-- Node6 -->
<g id="node6" class="node"><title>Node6</title>
<g id="a_node6"><a xlink:href="classpanda_1_1utils_1_1BranchName.html#a13958ff4a9d554d2c057c600b4f70412" target="_top" xlink:title="Prepend the branch name with &lt;objName.&gt;. ">
<polygon fill="white" stroke="black" points="677.036,-16.5 677.036,-48.5 808.064,-48.5 808.064,-16.5 677.036,-16.5"/>
<text text-anchor="start" x="685.036" y="-35.5" font-family="Helvetica,sans-Serif" font-size="10.00">panda::utils::BranchName</text>
<text text-anchor="middle" x="742.55" y="-23.5" font-family="Helvetica,sans-Serif" font-size="10.00">::fullName</text>
</a>
</g>
</g>
<!-- Node5&#45;&gt;Node6 -->
<g id="edge5" class="edge"><title>Node5&#45;&gt;Node6</title>
<path fill="none" stroke="midnightblue" d="M641.102,-32.5C649.553,-32.5 658.266,-32.5 666.862,-32.5"/>
<polygon fill="midnightblue" stroke="midnightblue" points="666.877,-36.0001 676.877,-32.5 666.877,-29.0001 666.877,-36.0001"/>
</g>
</g>
</svg>
