<?xml version="1.0" encoding="UTF-8" standalone="no"?>
<!DOCTYPE svg PUBLIC "-//W3C//DTD SVG 1.1//EN"
 "http://www.w3.org/Graphics/SVG/1.1/DTD/svg11.dtd">
<!-- Generated by graphviz version 2.38.0 (20140413.2041)
 -->
<!-- Title: panda::Tau::datastore::resizeVectors_ Pages: 1 -->
<svg width="633pt" height="41pt"
 viewBox="0.00 0.00 632.92 41.00" xmlns="http://www.w3.org/2000/svg" xmlns:xlink="http://www.w3.org/1999/xlink">
<g id="graph0" class="graph" transform="scale(1 1) rotate(0) translate(4 37)">
<title>panda::Tau::datastore::resizeVectors_</title>
<polygon fill="white" stroke="none" points="-4,4 -4,-37 628.919,-37 628.919,4 -4,4"/>
<!-- Node1 -->
<g id="node1" class="node"><title>Node1</title>
<polygon fill="#bfbfbf" stroke="black" points="-2.84217e-14,-0.5 -2.84217e-14,-32.5 113.82,-32.5 113.82,-0.5 -2.84217e-14,-0.5"/>
<text text-anchor="start" x="8" y="-19.5" font-family="Helvetica,sans-Serif" font-size="10.00">panda::Tau::datastore</text>
<text text-anchor="middle" x="56.91" y="-7.5" font-family="Helvetica,sans-Serif" font-size="10.00">::resizeVectors_</text>
</g>
<!-- Node2 -->
<g id="node2" class="node"><title>Node2</title>
<g id="a_node2"><a xlink:href="structpanda_1_1ParticleM_1_1datastore.html#a6dd61d4a8f70e81a1638757a5edbc7ed" target="_top" xlink:title="Override when there are vector members. ">
<polygon fill="white" stroke="black" points="149.82,-0.5 149.82,-32.5 288.075,-32.5 288.075,-0.5 149.82,-0.5"/>
<text text-anchor="start" x="157.82" y="-19.5" font-family="Helvetica,sans-Serif" font-size="10.00">panda::ParticleM::datastore</text>
<text text-anchor="middle" x="218.947" y="-7.5" font-family="Helvetica,sans-Serif" font-size="10.00">::resizeVectors_</text>
</a>
</g>
</g>
<!-- Node1&#45;&gt;Node2 -->
<g id="edge1" class="edge"><title>Node1&#45;&gt;Node2</title>
<path fill="none" stroke="midnightblue" d="M113.883,-16.5C122.176,-16.5 130.848,-16.5 139.496,-16.5"/>
<polygon fill="midnightblue" stroke="midnightblue" points="139.613,-20.0001 149.613,-16.5 139.613,-13.0001 139.613,-20.0001"/>
</g>
<!-- Node3 -->
<g id="node3" class="node"><title>Node3</title>
<g id="a_node3"><a xlink:href="structpanda_1_1Particle_1_1datastore.html#aef7e06dbd8399f7de3215aa895907c5f" target="_top" xlink:title="Override when there are vector members. ">
<polygon fill="white" stroke="black" points="324.075,-0.5 324.075,-32.5 454.001,-32.5 454.001,-0.5 324.075,-0.5"/>
<text text-anchor="start" x="332.075" y="-19.5" font-family="Helvetica,sans-Serif" font-size="10.00">panda::Particle::datastore</text>
<text text-anchor="middle" x="389.038" y="-7.5" font-family="Helvetica,sans-Serif" font-size="10.00">::resizeVectors_</text>
</a>
</g>
</g>
<!-- Node2&#45;&gt;Node3 -->
<g id="edge2" class="edge"><title>Node2&#45;&gt;Node3</title>
<path fill="none" stroke="midnightblue" d="M288.316,-16.5C296.717,-16.5 305.334,-16.5 313.816,-16.5"/>
<polygon fill="midnightblue" stroke="midnightblue" points="314.071,-20.0001 324.071,-16.5 314.071,-13.0001 314.071,-20.0001"/>
</g>
<!-- Node4 -->
<g id="node4" class="node"><title>Node4</title>
<g id="a_node4"><a xlink:href="structpanda_1_1ContainerElement_1_1datastore.html#ac050bf7055f0c53b4aff4234e2de6e20" target="_top" xlink:title="Override when there are vector members. ">
<polygon fill="white" stroke="black" points="490.001,-0.5 490.001,-32.5 624.919,-32.5 624.919,-0.5 490.001,-0.5"/>
<text text-anchor="start" x="498.001" y="-19.5" font-family="Helvetica,sans-Serif" font-size="10.00">panda::ContainerElement</text>
<text text-anchor="middle" x="557.46" y="-7.5" font-family="Helvetica,sans-Serif" font-size="10.00">::datastore::resizeVectors_</text>
</a>
</g>
</g>
<!-- Node3&#45;&gt;Node4 -->
<g id="edge3" class="edge"><title>Node3&#45;&gt;Node4</title>
<path fill="none" stroke="midnightblue" d="M454.381,-16.5C462.64,-16.5 471.16,-16.5 479.593,-16.5"/>
<polygon fill="midnightblue" stroke="midnightblue" points="479.812,-20.0001 489.812,-16.5 479.812,-13.0001 479.812,-20.0001"/>
</g>
</g>
</svg>
