<?xml version="1.0" encoding="UTF-8" standalone="no"?>
<!DOCTYPE svg PUBLIC "-//W3C//DTD SVG 1.1//EN"
 "http://www.w3.org/Graphics/SVG/1.1/DTD/svg11.dtd">
<!-- Generated by graphviz version 2.38.0 (20140413.2041)
 -->
<!-- Title: panda::Particle::datastore::book Pages: 1 -->
<svg width="789pt" height="398pt"
 viewBox="0.00 0.00 788.86 398.00" xmlns="http://www.w3.org/2000/svg" xmlns:xlink="http://www.w3.org/1999/xlink">
<g id="graph0" class="graph" transform="scale(1 1) rotate(0) translate(4 394)">
<title>panda::Particle::datastore::book</title>
<polygon fill="white" stroke="none" points="-4,4 -4,-394 784.857,-394 784.857,4 -4,4"/>
<!-- Node1 -->
<g id="node1" class="node"><title>Node1</title>
<polygon fill="#bfbfbf" stroke="black" points="-2.84217e-14,-153.5 -2.84217e-14,-185.5 129.926,-185.5 129.926,-153.5 -2.84217e-14,-153.5"/>
<text text-anchor="start" x="8" y="-172.5" font-family="Helvetica,sans-Serif" font-size="10.00">panda::Particle::datastore</text>
<text text-anchor="middle" x="64.963" y="-160.5" font-family="Helvetica,sans-Serif" font-size="10.00">::book</text>
</g>
<!-- Node2 -->
<g id="node2" class="node"><title>Node2</title>
<g id="a_node2"><a xlink:href="structpanda_1_1Lepton_1_1datastore.html#ab6cf5ada9f43228301c6bd97b9b6238a" target="_top" xlink:title="panda::Lepton::datastore\l::book">
<polygon fill="white" stroke="black" points="171.47,-306.5 171.47,-338.5 298.637,-338.5 298.637,-306.5 171.47,-306.5"/>
<text text-anchor="start" x="179.47" y="-325.5" font-family="Helvetica,sans-Serif" font-size="10.00">panda::Lepton::datastore</text>
<text text-anchor="middle" x="235.053" y="-313.5" font-family="Helvetica,sans-Serif" font-size="10.00">::book</text>
</a>
</g>
</g>
<!-- Node1&#45;&gt;Node2 -->
<g id="edge1" class="edge"><title>Node1&#45;&gt;Node2</title>
<path fill="none" stroke="midnightblue" d="M91.3854,-192.64C125.836,-223.998 186.469,-279.188 216.367,-306.401"/>
<polygon fill="midnightblue" stroke="midnightblue" points="93.3852,-189.728 83.6339,-185.585 88.6732,-194.904 93.3852,-189.728"/>
</g>
<!-- Node5 -->
<g id="node5" class="node"><title>Node5</title>
<g id="a_node5"><a xlink:href="structpanda_1_1ParticleM_1_1datastore.html#ae2eb76ca042d8b3e899c027ee07b5860" target="_top" xlink:title="panda::ParticleM::datastore\l::book">
<polygon fill="white" stroke="black" points="165.926,-153.5 165.926,-185.5 304.181,-185.5 304.181,-153.5 165.926,-153.5"/>
<text text-anchor="start" x="173.926" y="-172.5" font-family="Helvetica,sans-Serif" font-size="10.00">panda::ParticleM::datastore</text>
<text text-anchor="middle" x="235.053" y="-160.5" font-family="Helvetica,sans-Serif" font-size="10.00">::book</text>
</a>
</g>
</g>
<!-- Node1&#45;&gt;Node5 -->
<g id="edge4" class="edge"><title>Node1&#45;&gt;Node5</title>
<path fill="none" stroke="midnightblue" d="M140.242,-169.5C148.72,-169.5 157.333,-169.5 165.728,-169.5"/>
<polygon fill="midnightblue" stroke="midnightblue" points="139.99,-166 129.99,-169.5 139.99,-173 139.99,-166"/>
</g>
<!-- Node14 -->
<g id="node14" class="node"><title>Node14</title>
<g id="a_node14"><a xlink:href="structpanda_1_1Photon_1_1datastore.html#aecd0493c1cce6f3cbcb0e0d797f83719" target="_top" xlink:title="panda::Photon::datastore\l::book">
<polygon fill="white" stroke="black" points="170.915,-102.5 170.915,-134.5 299.192,-134.5 299.192,-102.5 170.915,-102.5"/>
<text text-anchor="start" x="178.915" y="-121.5" font-family="Helvetica,sans-Serif" font-size="10.00">panda::Photon::datastore</text>
<text text-anchor="middle" x="235.053" y="-109.5" font-family="Helvetica,sans-Serif" font-size="10.00">::book</text>
</a>
</g>
</g>
<!-- Node1&#45;&gt;Node14 -->
<g id="edge13" class="edge"><title>Node1&#45;&gt;Node14</title>
<path fill="none" stroke="midnightblue" d="M129.091,-150.347C146.262,-145.137 164.678,-139.549 181.215,-134.532"/>
<polygon fill="midnightblue" stroke="midnightblue" points="127.701,-147.111 119.148,-153.363 129.733,-153.809 127.701,-147.111"/>
</g>
<!-- Node3 -->
<g id="node3" class="node"><title>Node3</title>
<g id="a_node3"><a xlink:href="structpanda_1_1Electron_1_1datastore.html#aa22730e40dda69219e7dac203220dcae" target="_top" xlink:title="panda::Electron::datastore\l::book">
<polygon fill="white" stroke="black" points="340.732,-357.5 340.732,-389.5 473.998,-389.5 473.998,-357.5 340.732,-357.5"/>
<text text-anchor="start" x="348.732" y="-376.5" font-family="Helvetica,sans-Serif" font-size="10.00">panda::Electron::datastore</text>
<text text-anchor="middle" x="407.365" y="-364.5" font-family="Helvetica,sans-Serif" font-size="10.00">::book</text>
</a>
</g>
</g>
<!-- Node2&#45;&gt;Node3 -->
<g id="edge2" class="edge"><title>Node2&#45;&gt;Node3</title>
<path fill="none" stroke="midnightblue" d="M299.528,-341.508C317.065,-346.759 335.916,-352.404 352.828,-357.468"/>
<polygon fill="midnightblue" stroke="midnightblue" points="300.525,-338.153 289.941,-338.637 298.517,-344.858 300.525,-338.153"/>
</g>
<!-- Node4 -->
<g id="node4" class="node"><title>Node4</title>
<g id="a_node4"><a xlink:href="structpanda_1_1Muon_1_1datastore.html#ae3244041804870c1792c7ad3cd96ee53" target="_top" xlink:title="panda::Muon::datastore\l::book">
<polygon fill="white" stroke="black" points="346.565,-306.5 346.565,-338.5 468.164,-338.5 468.164,-306.5 346.565,-306.5"/>
<text text-anchor="start" x="354.565" y="-325.5" font-family="Helvetica,sans-Serif" font-size="10.00">panda::Muon::datastore</text>
<text text-anchor="middle" x="407.365" y="-313.5" font-family="Helvetica,sans-Serif" font-size="10.00">::book</text>
</a>
</g>
</g>
<!-- Node2&#45;&gt;Node4 -->
<g id="edge3" class="edge"><title>Node2&#45;&gt;Node4</title>
<path fill="none" stroke="midnightblue" d="M309.314,-322.5C321.732,-322.5 334.495,-322.5 346.518,-322.5"/>
<polygon fill="midnightblue" stroke="midnightblue" points="308.987,-319 298.987,-322.5 308.987,-326 308.987,-319"/>
</g>
<!-- Node6 -->
<g id="node6" class="node"><title>Node6</title>
<g id="a_node6"><a xlink:href="structpanda_1_1GenJet_1_1datastore.html#abfe95213671131d88149b11bbe4a0f45" target="_top" xlink:title="panda::GenJet::datastore\l::book">
<polygon fill="white" stroke="black" points="342.951,-255.5 342.951,-287.5 471.779,-287.5 471.779,-255.5 342.951,-255.5"/>
<text text-anchor="start" x="350.951" y="-274.5" font-family="Helvetica,sans-Serif" font-size="10.00">panda::GenJet::datastore</text>
<text text-anchor="middle" x="407.365" y="-262.5" font-family="Helvetica,sans-Serif" font-size="10.00">::book</text>
</a>
</g>
</g>
<!-- Node5&#45;&gt;Node6 -->
<g id="edge5" class="edge"><title>Node5&#45;&gt;Node6</title>
<path fill="none" stroke="midnightblue" d="M262.394,-192.18C282.66,-208.811 311.898,-231.087 340.181,-246.5 346.113,-249.733 352.551,-252.73 359.003,-255.444"/>
<polygon fill="midnightblue" stroke="midnightblue" points="264.481,-189.363 254.554,-185.66 260.005,-194.745 264.481,-189.363"/>
</g>
<!-- Node7 -->
<g id="node7" class="node"><title>Node7</title>
<g id="a_node7"><a xlink:href="structpanda_1_1GenParticle_1_1datastore.html#a115b560e4e4ecfa3d7c0a2fbbcafe5b9" target="_top" xlink:title="panda::GenParticle\l::datastore::book">
<polygon fill="white" stroke="black" points="356.573,-204.5 356.573,-236.5 458.156,-236.5 458.156,-204.5 356.573,-204.5"/>
<text text-anchor="start" x="364.573" y="-223.5" font-family="Helvetica,sans-Serif" font-size="10.00">panda::GenParticle</text>
<text text-anchor="middle" x="407.365" y="-211.5" font-family="Helvetica,sans-Serif" font-size="10.00">::datastore::book</text>
</a>
</g>
</g>
<!-- Node5&#45;&gt;Node7 -->
<g id="edge6" class="edge"><title>Node5&#45;&gt;Node7</title>
<path fill="none" stroke="midnightblue" d="M299.58,-188.523C318.313,-194.133 338.541,-200.19 356.302,-205.509"/>
<polygon fill="midnightblue" stroke="midnightblue" points="300.525,-185.153 289.941,-185.637 298.517,-191.858 300.525,-185.153"/>
</g>
<!-- Node8 -->
<g id="node8" class="node"><title>Node8</title>
<g id="a_node8"><a xlink:href="structpanda_1_1MicroJet_1_1datastore.html#a1a17e11396756ae30ac63c834cbe5976" target="_top" xlink:title="panda::MicroJet::datastore\l::book">
<polygon fill="white" stroke="black" points="340.181,-153.5 340.181,-185.5 474.548,-185.5 474.548,-153.5 340.181,-153.5"/>
<text text-anchor="start" x="348.181" y="-172.5" font-family="Helvetica,sans-Serif" font-size="10.00">panda::MicroJet::datastore</text>
<text text-anchor="middle" x="407.365" y="-160.5" font-family="Helvetica,sans-Serif" font-size="10.00">::book</text>
</a>
</g>
</g>
<!-- Node5&#45;&gt;Node8 -->
<g id="edge7" class="edge"><title>Node5&#45;&gt;Node8</title>
<path fill="none" stroke="midnightblue" d="M314.346,-169.5C322.92,-169.5 331.587,-169.5 339.998,-169.5"/>
<polygon fill="midnightblue" stroke="midnightblue" points="314.344,-166 304.344,-169.5 314.344,-173 314.344,-166"/>
</g>
<!-- Node11 -->
<g id="node11" class="node"><title>Node11</title>
<g id="a_node11"><a xlink:href="structpanda_1_1Parton_1_1datastore.html#ae8dc1e83cadb773ac9c7a3f14dea85b3" target="_top" xlink:title="panda::Parton::datastore\l::book">
<polygon fill="white" stroke="black" points="344.341,-102.5 344.341,-134.5 470.388,-134.5 470.388,-102.5 344.341,-102.5"/>
<text text-anchor="start" x="352.341" y="-121.5" font-family="Helvetica,sans-Serif" font-size="10.00">panda::Parton::datastore</text>
<text text-anchor="middle" x="407.365" y="-109.5" font-family="Helvetica,sans-Serif" font-size="10.00">::book</text>
</a>
</g>
</g>
<!-- Node5&#45;&gt;Node11 -->
<g id="edge10" class="edge"><title>Node5&#45;&gt;Node11</title>
<path fill="none" stroke="midnightblue" d="M299.528,-150.492C317.065,-145.241 335.916,-139.596 352.828,-134.532"/>
<polygon fill="midnightblue" stroke="midnightblue" points="298.517,-147.142 289.941,-153.363 300.525,-153.847 298.517,-147.142"/>
</g>
<!-- Node12 -->
<g id="node12" class="node"><title>Node12</title>
<g id="a_node12"><a xlink:href="structpanda_1_1PFCand_1_1datastore.html#a7714d44e5c6b0017ab72d596c83b474b" target="_top" xlink:title="panda::PFCand::datastore\l::book">
<polygon fill="white" stroke="black" points="340.731,-51.5 340.731,-83.5 473.998,-83.5 473.998,-51.5 340.731,-51.5"/>
<text text-anchor="start" x="348.731" y="-70.5" font-family="Helvetica,sans-Serif" font-size="10.00">panda::PFCand::datastore</text>
<text text-anchor="middle" x="407.365" y="-58.5" font-family="Helvetica,sans-Serif" font-size="10.00">::book</text>
</a>
</g>
</g>
<!-- Node5&#45;&gt;Node12 -->
<g id="edge11" class="edge"><title>Node5&#45;&gt;Node12</title>
<path fill="none" stroke="midnightblue" d="M298.591,-148.405C300.524,-147.17 302.394,-145.87 304.181,-144.5 326.202,-127.623 318.352,-110.625 340.181,-93.5 345.037,-89.6901 350.521,-86.3766 356.203,-83.5109"/>
<polygon fill="midnightblue" stroke="midnightblue" points="296.755,-145.422 289.783,-153.399 300.208,-151.511 296.755,-145.422"/>
</g>
<!-- Node13 -->
<g id="node13" class="node"><title>Node13</title>
<g id="a_node13"><a xlink:href="structpanda_1_1Tau_1_1datastore.html#a835217578e10605f669fd448a0e6531c" target="_top" xlink:title="panda::Tau::datastore\l::book">
<polygon fill="white" stroke="black" points="350.455,-0.5 350.455,-32.5 464.274,-32.5 464.274,-0.5 350.455,-0.5"/>
<text text-anchor="start" x="358.455" y="-19.5" font-family="Helvetica,sans-Serif" font-size="10.00">panda::Tau::datastore</text>
<text text-anchor="middle" x="407.365" y="-7.5" font-family="Helvetica,sans-Serif" font-size="10.00">::book</text>
</a>
</g>
</g>
<!-- Node5&#45;&gt;Node13 -->
<g id="edge12" class="edge"><title>Node5&#45;&gt;Node13</title>
<path fill="none" stroke="midnightblue" d="M301.228,-147.266C302.249,-146.38 303.235,-145.458 304.181,-144.5 337.963,-110.296 306.788,-77.0837 340.181,-42.5 343.868,-38.6813 348.184,-35.4118 352.813,-32.6149"/>
<polygon fill="midnightblue" stroke="midnightblue" points="298.829,-144.684 292.804,-153.399 302.949,-150.343 298.829,-144.684"/>
</g>
<!-- Node9 -->
<g id="node9" class="node"><title>Node9</title>
<g id="a_node9"><a xlink:href="structpanda_1_1Jet_1_1datastore.html#a6b3a8bbeb4fa9c002c5eebbd97962095" target="_top" xlink:title="panda::Jet::datastore\l::book">
<polygon fill="white" stroke="black" points="510.548,-153.5 510.548,-185.5 620.479,-185.5 620.479,-153.5 510.548,-153.5"/>
<text text-anchor="start" x="518.548" y="-172.5" font-family="Helvetica,sans-Serif" font-size="10.00">panda::Jet::datastore</text>
<text text-anchor="middle" x="565.514" y="-160.5" font-family="Helvetica,sans-Serif" font-size="10.00">::book</text>
</a>
</g>
</g>
<!-- Node8&#45;&gt;Node9 -->
<g id="edge8" class="edge"><title>Node8&#45;&gt;Node9</title>
<path fill="none" stroke="midnightblue" d="M484.75,-169.5C493.44,-169.5 502.159,-169.5 510.475,-169.5"/>
<polygon fill="midnightblue" stroke="midnightblue" points="484.586,-166 474.586,-169.5 484.586,-173 484.586,-166"/>
</g>
<!-- Node10 -->
<g id="node10" class="node"><title>Node10</title>
<g id="a_node10"><a xlink:href="structpanda_1_1FatJet_1_1datastore.html#abc4532c13b6be8b1feaf70e3504f5f59" target="_top" xlink:title="panda::FatJet::datastore\l::book">
<polygon fill="white" stroke="black" points="656.479,-153.5 656.479,-185.5 780.857,-185.5 780.857,-153.5 656.479,-153.5"/>
<text text-anchor="start" x="664.479" y="-172.5" font-family="Helvetica,sans-Serif" font-size="10.00">panda::FatJet::datastore</text>
<text text-anchor="middle" x="718.668" y="-160.5" font-family="Helvetica,sans-Serif" font-size="10.00">::book</text>
</a>
</g>
</g>
<!-- Node9&#45;&gt;Node10 -->
<g id="edge9" class="edge"><title>Node9&#45;&gt;Node10</title>
<path fill="none" stroke="midnightblue" d="M630.876,-169.5C639.356,-169.5 648.029,-169.5 656.454,-169.5"/>
<polygon fill="midnightblue" stroke="midnightblue" points="630.657,-166 620.657,-169.5 630.657,-173 630.657,-166"/>
</g>
</g>
</svg>
