<?xml version="1.0" encoding="UTF-8" standalone="no"?>
<!DOCTYPE svg PUBLIC "-//W3C//DTD SVG 1.1//EN"
 "http://www.w3.org/Graphics/SVG/1.1/DTD/svg11.dtd">
<!-- Generated by graphviz version 2.38.0 (20140413.2041)
 -->
<!-- Title: panda::Photon::datastore::setStatus Pages: 1 -->
<svg width="648pt" height="170pt"
 viewBox="0.00 0.00 647.93 170.00" xmlns="http://www.w3.org/2000/svg" xmlns:xlink="http://www.w3.org/1999/xlink">
<g id="graph0" class="graph" transform="scale(1 1) rotate(0) translate(4 166)">
<title>panda::Photon::datastore::setStatus</title>
<polygon fill="white" stroke="none" points="-4,4 -4,-166 643.934,-166 643.934,4 -4,4"/>
<!-- Node1 -->
<g id="node1" class="node"><title>Node1</title>
<polygon fill="#bfbfbf" stroke="black" points="2.84217e-14,-86.5 2.84217e-14,-118.5 128.277,-118.5 128.277,-86.5 2.84217e-14,-86.5"/>
<text text-anchor="start" x="8" y="-105.5" font-family="Helvetica,sans-Serif" font-size="10.00">panda::Photon::datastore</text>
<text text-anchor="middle" x="64.1385" y="-93.5" font-family="Helvetica,sans-Serif" font-size="10.00">::setStatus</text>
</g>
<!-- Node2 -->
<g id="node2" class="node"><title>Node2</title>
<g id="a_node2"><a xlink:href="structpanda_1_1Particle_1_1datastore.html#afa508d25966c3e2044e67e4b50f1679e" target="_top" xlink:title="panda::Particle::datastore\l::setStatus">
<polygon fill="white" stroke="black" points="164.277,-109.5 164.277,-141.5 294.203,-141.5 294.203,-109.5 164.277,-109.5"/>
<text text-anchor="start" x="172.277" y="-128.5" font-family="Helvetica,sans-Serif" font-size="10.00">panda::Particle::datastore</text>
<text text-anchor="middle" x="229.24" y="-116.5" font-family="Helvetica,sans-Serif" font-size="10.00">::setStatus</text>
</a>
</g>
</g>
<!-- Node1&#45;&gt;Node2 -->
<g id="edge1" class="edge"><title>Node1&#45;&gt;Node2</title>
<path fill="none" stroke="midnightblue" d="M128.665,-111.458C137.022,-112.637 145.646,-113.853 154.16,-115.053"/>
<polygon fill="midnightblue" stroke="midnightblue" points="153.691,-118.522 164.082,-116.453 154.668,-111.59 153.691,-118.522"/>
</g>
<!-- Node4 -->
<g id="node4" class="node"><title>Node4</title>
<g id="a_node4"><a xlink:href="namespacepanda_1_1utils.html#a01665f786d6a2acedb8f008f3fc9fc84" target="_top" xlink:title="Set status of a branch. ">
<polygon fill="white" stroke="black" points="337.702,-70.5 337.702,-90.5 452.072,-90.5 452.072,-70.5 337.702,-70.5"/>
<text text-anchor="middle" x="394.887" y="-77.5" font-family="Helvetica,sans-Serif" font-size="10.00">panda::utils::setStatus</text>
</a>
</g>
</g>
<!-- Node1&#45;&gt;Node4 -->
<g id="edge8" class="edge"><title>Node1&#45;&gt;Node4</title>
<path fill="none" stroke="midnightblue" d="M128.524,-98.2582C185.641,-94.4359 269.319,-88.8362 327.378,-84.9508"/>
<polygon fill="midnightblue" stroke="midnightblue" points="327.804,-88.4302 337.548,-84.2702 327.336,-81.4458 327.804,-88.4302"/>
</g>
<!-- Node3 -->
<g id="node3" class="node"><title>Node3</title>
<g id="a_node3"><a xlink:href="structpanda_1_1ContainerElement_1_1datastore.html#aad03a4d0428dfa3b6ae9ccfb04d49cd8" target="_top" xlink:title="panda::ContainerElement\l::datastore::setStatus">
<polygon fill="white" stroke="black" points="330.203,-109.5 330.203,-141.5 459.57,-141.5 459.57,-109.5 330.203,-109.5"/>
<text text-anchor="start" x="338.203" y="-128.5" font-family="Helvetica,sans-Serif" font-size="10.00">panda::ContainerElement</text>
<text text-anchor="middle" x="394.887" y="-116.5" font-family="Helvetica,sans-Serif" font-size="10.00">::datastore::setStatus</text>
</a>
</g>
</g>
<!-- Node2&#45;&gt;Node3 -->
<g id="edge2" class="edge"><title>Node2&#45;&gt;Node3</title>
<path fill="none" stroke="midnightblue" d="M294.448,-125.5C302.787,-125.5 311.383,-125.5 319.866,-125.5"/>
<polygon fill="midnightblue" stroke="midnightblue" points="320.132,-129 330.132,-125.5 320.132,-122 320.132,-129"/>
</g>
<!-- Node2&#45;&gt;Node4 -->
<g id="edge3" class="edge"><title>Node2&#45;&gt;Node4</title>
<path fill="none" stroke="midnightblue" d="M288.858,-109.381C308.049,-104.104 329.096,-98.3163 347.277,-93.3168"/>
<polygon fill="midnightblue" stroke="midnightblue" points="348.339,-96.6549 357.053,-90.6287 346.483,-89.9054 348.339,-96.6549"/>
</g>
<!-- Node5 -->
<g id="node5" class="node"><title>Node5</title>
<g id="a_node5"><a xlink:href="classpanda_1_1utils_1_1BranchName.html#a6cc8a6df7c5b12a0221fd49773cca6a7" target="_top" xlink:title="Is the name included and not vetoed? ">
<polygon fill="white" stroke="black" points="495.57,-141.5 495.57,-161.5 639.934,-161.5 639.934,-141.5 495.57,-141.5"/>
<text text-anchor="middle" x="567.752" y="-148.5" font-family="Helvetica,sans-Serif" font-size="10.00">panda::utils::BranchName::in</text>
</a>
</g>
</g>
<!-- Node4&#45;&gt;Node5 -->
<g id="edge4" class="edge"><title>Node4&#45;&gt;Node5</title>
<path fill="none" stroke="midnightblue" d="M439.453,-90.6163C446.404,-93.0366 453.348,-95.9708 459.57,-99.5 478.45,-110.208 476.537,-122.067 495.57,-132.5 499.229,-134.506 503.112,-136.309 507.102,-137.928"/>
<polygon fill="midnightblue" stroke="midnightblue" points="505.957,-141.236 516.551,-141.383 508.361,-134.662 505.957,-141.236"/>
</g>
<!-- Node6 -->
<g id="node6" class="node"><title>Node6</title>
<g id="a_node6"><a xlink:href="classpanda_1_1utils_1_1BranchName.html#ae3332329bf2afae5ed8e7c35e5d77ffa" target="_top" xlink:title="Is the name included and vetoed? ">
<polygon fill="white" stroke="black" points="502.238,-90.5 502.238,-122.5 633.266,-122.5 633.266,-90.5 502.238,-90.5"/>
<text text-anchor="start" x="510.238" y="-109.5" font-family="Helvetica,sans-Serif" font-size="10.00">panda::utils::BranchName</text>
<text text-anchor="middle" x="567.752" y="-97.5" font-family="Helvetica,sans-Serif" font-size="10.00">::vetoed</text>
</a>
</g>
</g>
<!-- Node4&#45;&gt;Node6 -->
<g id="edge5" class="edge"><title>Node4&#45;&gt;Node6</title>
<path fill="none" stroke="midnightblue" d="M452.308,-89.0854C465.011,-91.0185 478.686,-93.0993 492.008,-95.1265"/>
<polygon fill="midnightblue" stroke="midnightblue" points="491.693,-98.6187 502.106,-96.663 492.746,-91.6984 491.693,-98.6187"/>
</g>
<!-- Node7 -->
<g id="node7" class="node"><title>Node7</title>
<g id="a_node7"><a xlink:href="classpanda_1_1utils_1_1BranchName.html#a13958ff4a9d554d2c057c600b4f70412" target="_top" xlink:title="Prepend the branch name with &lt;objName.&gt;. ">
<polygon fill="white" stroke="black" points="502.238,-39.5 502.238,-71.5 633.266,-71.5 633.266,-39.5 502.238,-39.5"/>
<text text-anchor="start" x="510.238" y="-58.5" font-family="Helvetica,sans-Serif" font-size="10.00">panda::utils::BranchName</text>
<text text-anchor="middle" x="567.752" y="-46.5" font-family="Helvetica,sans-Serif" font-size="10.00">::fullName</text>
</a>
</g>
</g>
<!-- Node4&#45;&gt;Node7 -->
<g id="edge6" class="edge"><title>Node4&#45;&gt;Node7</title>
<path fill="none" stroke="midnightblue" d="M452.308,-72.2448C465.011,-70.3861 478.686,-68.3853 492.008,-66.436"/>
<polygon fill="midnightblue" stroke="midnightblue" points="492.718,-69.8696 502.106,-64.9587 491.704,-62.9433 492.718,-69.8696"/>
</g>
<!-- Node8 -->
<g id="node8" class="node"><title>Node8</title>
<g id="a_node8"><a xlink:href="namespacepanda_1_1utils.html#aafa411773a4b0ee829d99e6e5a0abdcd" target="_top" xlink:title="Check status of a branch. ">
<polygon fill="white" stroke="black" points="504.177,-0.5 504.177,-20.5 631.327,-20.5 631.327,-0.5 504.177,-0.5"/>
<text text-anchor="middle" x="567.752" y="-7.5" font-family="Helvetica,sans-Serif" font-size="10.00">panda::utils::checkStatus</text>
</a>
</g>
</g>
<!-- Node4&#45;&gt;Node8 -->
<g id="edge7" class="edge"><title>Node4&#45;&gt;Node8</title>
<path fill="none" stroke="midnightblue" d="M413.016,-70.3138C432.476,-59.0827 465.448,-41.075 495.57,-29.5 501.368,-27.272 507.528,-25.2055 513.704,-23.3196"/>
<polygon fill="midnightblue" stroke="midnightblue" points="514.747,-26.6611 523.372,-20.5071 512.792,-19.9397 514.747,-26.6611"/>
</g>
</g>
</svg>
