<?xml version="1.0" encoding="UTF-8" standalone="no"?>
<!DOCTYPE svg PUBLIC "-//W3C//DTD SVG 1.1//EN"
 "http://www.w3.org/Graphics/SVG/1.1/DTD/svg11.dtd">
<!-- Generated by graphviz version 2.38.0 (20140413.2041)
 -->
<!-- Title: panda::SuperCluster::datastore::book Pages: 1 -->
<svg width="461pt" height="108pt"
 viewBox="0.00 0.00 461.42 108.00" xmlns="http://www.w3.org/2000/svg" xmlns:xlink="http://www.w3.org/1999/xlink">
<g id="graph0" class="graph" transform="scale(1 1) rotate(0) translate(4 104)">
<title>panda::SuperCluster::datastore::book</title>
<polygon fill="white" stroke="none" points="-4,4 -4,-104 457.423,-104 457.423,4 -4,4"/>
<!-- Node1 -->
<g id="node1" class="node"><title>Node1</title>
<polygon fill="#bfbfbf" stroke="black" points="-7.10543e-15,-44.5 -7.10543e-15,-76.5 107.692,-76.5 107.692,-44.5 -7.10543e-15,-44.5"/>
<text text-anchor="start" x="8" y="-63.5" font-family="Helvetica,sans-Serif" font-size="10.00">panda::SuperCluster</text>
<text text-anchor="middle" x="53.846" y="-51.5" font-family="Helvetica,sans-Serif" font-size="10.00">::datastore::book</text>
</g>
<!-- Node2 -->
<g id="node2" class="node"><title>Node2</title>
<g id="a_node2"><a xlink:href="structpanda_1_1ContainerElement_1_1datastore.html#a3a4062043d9a913acd4056ab1cf5a93f" target="_top" xlink:title="panda::ContainerElement\l::datastore::book">
<polygon fill="white" stroke="black" points="143.692,-67.5 143.692,-99.5 273.059,-99.5 273.059,-67.5 143.692,-67.5"/>
<text text-anchor="start" x="151.692" y="-86.5" font-family="Helvetica,sans-Serif" font-size="10.00">panda::ContainerElement</text>
<text text-anchor="middle" x="208.375" y="-74.5" font-family="Helvetica,sans-Serif" font-size="10.00">::datastore::book</text>
</a>
</g>
</g>
<!-- Node1&#45;&gt;Node2 -->
<g id="edge1" class="edge"><title>Node1&#45;&gt;Node2</title>
<path fill="none" stroke="midnightblue" d="M107.765,-68.4797C116.052,-69.7293 124.746,-71.0403 133.401,-72.3454"/>
<polygon fill="midnightblue" stroke="midnightblue" points="133.106,-75.8404 143.516,-73.8706 134.15,-68.9186 133.106,-75.8404"/>
</g>
<!-- Node3 -->
<g id="node3" class="node"><title>Node3</title>
<g id="a_node3"><a xlink:href="namespacepanda_1_1utils.html#aaa6c7cd5892388e6ffdf713b11abf793" target="_top" xlink:title="Book the branch. ">
<polygon fill="white" stroke="black" points="161.194,-28.5 161.194,-48.5 255.557,-48.5 255.557,-28.5 161.194,-28.5"/>
<text text-anchor="middle" x="208.375" y="-35.5" font-family="Helvetica,sans-Serif" font-size="10.00">panda::utils::book</text>
</a>
</g>
</g>
<!-- Node1&#45;&gt;Node3 -->
<g id="edge2" class="edge"><title>Node1&#45;&gt;Node3</title>
<path fill="none" stroke="midnightblue" d="M107.765,-52.8672C121.751,-50.8499 136.897,-48.6655 151.056,-46.6233"/>
<polygon fill="midnightblue" stroke="midnightblue" points="151.763,-50.0576 161.16,-45.1658 150.763,-43.1293 151.763,-50.0576"/>
</g>
<!-- Node4 -->
<g id="node4" class="node"><title>Node4</title>
<g id="a_node4"><a xlink:href="classpanda_1_1utils_1_1BranchName.html#a6cc8a6df7c5b12a0221fd49773cca6a7" target="_top" xlink:title="Is the name included and not vetoed? ">
<polygon fill="white" stroke="black" points="309.059,-51.5 309.059,-71.5 453.423,-71.5 453.423,-51.5 309.059,-51.5"/>
<text text-anchor="middle" x="381.241" y="-58.5" font-family="Helvetica,sans-Serif" font-size="10.00">panda::utils::BranchName::in</text>
</a>
</g>
</g>
<!-- Node3&#45;&gt;Node4 -->
<g id="edge3" class="edge"><title>Node3&#45;&gt;Node4</title>
<path fill="none" stroke="midnightblue" d="M255.614,-44.7241C268.944,-46.5185 283.9,-48.5316 298.699,-50.5238"/>
<polygon fill="midnightblue" stroke="midnightblue" points="298.521,-54.0312 308.898,-51.8966 299.454,-47.0938 298.521,-54.0312"/>
</g>
<!-- Node5 -->
<g id="node5" class="node"><title>Node5</title>
<g id="a_node5"><a xlink:href="classpanda_1_1utils_1_1BranchName.html#a13958ff4a9d554d2c057c600b4f70412" target="_top" xlink:title="Prepend the branch name with &lt;objName.&gt;. ">
<polygon fill="white" stroke="black" points="315.727,-0.5 315.727,-32.5 446.755,-32.5 446.755,-0.5 315.727,-0.5"/>
<text text-anchor="start" x="323.727" y="-19.5" font-family="Helvetica,sans-Serif" font-size="10.00">panda::utils::BranchName</text>
<text text-anchor="middle" x="381.241" y="-7.5" font-family="Helvetica,sans-Serif" font-size="10.00">::fullName</text>
</a>
</g>
</g>
<!-- Node3&#45;&gt;Node5 -->
<g id="edge4" class="edge"><title>Node3&#45;&gt;Node5</title>
<path fill="none" stroke="midnightblue" d="M255.614,-32.5465C271.064,-30.5572 288.697,-28.2869 305.74,-26.0925"/>
<polygon fill="midnightblue" stroke="midnightblue" points="306.214,-29.5604 315.685,-24.812 305.32,-22.6178 306.214,-29.5604"/>
</g>
</g>
</svg>
