<?xml version="1.0" encoding="UTF-8" standalone="no"?>
<!DOCTYPE svg PUBLIC "-//W3C//DTD SVG 1.1//EN"
 "http://www.w3.org/Graphics/SVG/1.1/DTD/svg11.dtd">
<!-- Generated by graphviz version 2.38.0 (20140413.2041)
 -->
<!-- Title: panda::Particle::datastore::setStatus Pages: 1 -->
<svg width="484pt" height="170pt"
 viewBox="0.00 0.00 483.66 170.00" xmlns="http://www.w3.org/2000/svg" xmlns:xlink="http://www.w3.org/1999/xlink">
<g id="graph0" class="graph" transform="scale(1 1) rotate(0) translate(4 166)">
<title>panda::Particle::datastore::setStatus</title>
<polygon fill="white" stroke="none" points="-4,4 -4,-166 479.657,-166 479.657,4 -4,4"/>
<!-- Node1 -->
<g id="node1" class="node"><title>Node1</title>
<polygon fill="#bfbfbf" stroke="black" points="-2.84217e-14,-86.5 -2.84217e-14,-118.5 129.926,-118.5 129.926,-86.5 -2.84217e-14,-86.5"/>
<text text-anchor="start" x="8" y="-105.5" font-family="Helvetica,sans-Serif" font-size="10.00">panda::Particle::datastore</text>
<text text-anchor="middle" x="64.963" y="-93.5" font-family="Helvetica,sans-Serif" font-size="10.00">::setStatus</text>
</g>
<!-- Node2 -->
<g id="node2" class="node"><title>Node2</title>
<g id="a_node2"><a xlink:href="structpanda_1_1ContainerElement_1_1datastore.html#aad03a4d0428dfa3b6ae9ccfb04d49cd8" target="_top" xlink:title="panda::ContainerElement\l::datastore::setStatus">
<polygon fill="white" stroke="black" points="165.926,-109.5 165.926,-141.5 295.293,-141.5 295.293,-109.5 165.926,-109.5"/>
<text text-anchor="start" x="173.926" y="-128.5" font-family="Helvetica,sans-Serif" font-size="10.00">panda::ContainerElement</text>
<text text-anchor="middle" x="230.609" y="-116.5" font-family="Helvetica,sans-Serif" font-size="10.00">::datastore::setStatus</text>
</a>
</g>
</g>
<!-- Node1&#45;&gt;Node2 -->
<g id="edge1" class="edge"><title>Node1&#45;&gt;Node2</title>
<path fill="none" stroke="midnightblue" d="M130.171,-111.524C138.602,-112.709 147.295,-113.931 155.868,-115.136"/>
<polygon fill="midnightblue" stroke="midnightblue" points="155.466,-118.614 165.855,-116.54 156.44,-111.682 155.466,-118.614"/>
</g>
<!-- Node3 -->
<g id="node3" class="node"><title>Node3</title>
<g id="a_node3"><a xlink:href="namespacepanda_1_1utils.html#a01665f786d6a2acedb8f008f3fc9fc84" target="_top" xlink:title="Set status of a branch. ">
<polygon fill="white" stroke="black" points="173.424,-70.5 173.424,-90.5 287.794,-90.5 287.794,-70.5 173.424,-70.5"/>
<text text-anchor="middle" x="230.609" y="-77.5" font-family="Helvetica,sans-Serif" font-size="10.00">panda::utils::setStatus</text>
</a>
</g>
</g>
<!-- Node1&#45;&gt;Node3 -->
<g id="edge2" class="edge"><title>Node1&#45;&gt;Node3</title>
<path fill="none" stroke="midnightblue" d="M130.171,-93.8682C141.071,-92.4027 152.41,-90.8784 163.362,-89.4061"/>
<polygon fill="midnightblue" stroke="midnightblue" points="163.843,-92.873 173.287,-88.0718 162.91,-85.9354 163.843,-92.873"/>
</g>
<!-- Node4 -->
<g id="node4" class="node"><title>Node4</title>
<g id="a_node4"><a xlink:href="classpanda_1_1utils_1_1BranchName.html#a6cc8a6df7c5b12a0221fd49773cca6a7" target="_top" xlink:title="Is the name included and not vetoed? ">
<polygon fill="white" stroke="black" points="331.293,-141.5 331.293,-161.5 475.657,-161.5 475.657,-141.5 331.293,-141.5"/>
<text text-anchor="middle" x="403.475" y="-148.5" font-family="Helvetica,sans-Serif" font-size="10.00">panda::utils::BranchName::in</text>
</a>
</g>
</g>
<!-- Node3&#45;&gt;Node4 -->
<g id="edge3" class="edge"><title>Node3&#45;&gt;Node4</title>
<path fill="none" stroke="midnightblue" d="M272.771,-90.6148C280.503,-93.2886 288.336,-96.5584 295.293,-100.5 313.919,-111.053 312.442,-122.355 331.293,-132.5 335.031,-134.512 338.996,-136.321 343.066,-137.947"/>
<polygon fill="midnightblue" stroke="midnightblue" points="342.104,-141.32 352.698,-141.416 344.476,-134.735 342.104,-141.32"/>
</g>
<!-- Node5 -->
<g id="node5" class="node"><title>Node5</title>
<g id="a_node5"><a xlink:href="classpanda_1_1utils_1_1BranchName.html#ae3332329bf2afae5ed8e7c35e5d77ffa" target="_top" xlink:title="Is the name included and vetoed? ">
<polygon fill="white" stroke="black" points="337.961,-90.5 337.961,-122.5 468.989,-122.5 468.989,-90.5 337.961,-90.5"/>
<text text-anchor="start" x="345.961" y="-109.5" font-family="Helvetica,sans-Serif" font-size="10.00">panda::utils::BranchName</text>
<text text-anchor="middle" x="403.475" y="-97.5" font-family="Helvetica,sans-Serif" font-size="10.00">::vetoed</text>
</a>
</g>
</g>
<!-- Node3&#45;&gt;Node5 -->
<g id="edge4" class="edge"><title>Node3&#45;&gt;Node5</title>
<path fill="none" stroke="midnightblue" d="M288.031,-89.0854C300.734,-91.0185 314.409,-93.0993 327.731,-95.1265"/>
<polygon fill="midnightblue" stroke="midnightblue" points="327.416,-98.6187 337.829,-96.663 328.469,-91.6984 327.416,-98.6187"/>
</g>
<!-- Node6 -->
<g id="node6" class="node"><title>Node6</title>
<g id="a_node6"><a xlink:href="classpanda_1_1utils_1_1BranchName.html#a13958ff4a9d554d2c057c600b4f70412" target="_top" xlink:title="Prepend the branch name with &lt;objName.&gt;. ">
<polygon fill="white" stroke="black" points="337.961,-39.5 337.961,-71.5 468.989,-71.5 468.989,-39.5 337.961,-39.5"/>
<text text-anchor="start" x="345.961" y="-58.5" font-family="Helvetica,sans-Serif" font-size="10.00">panda::utils::BranchName</text>
<text text-anchor="middle" x="403.475" y="-46.5" font-family="Helvetica,sans-Serif" font-size="10.00">::fullName</text>
</a>
</g>
</g>
<!-- Node3&#45;&gt;Node6 -->
<g id="edge5" class="edge"><title>Node3&#45;&gt;Node6</title>
<path fill="none" stroke="midnightblue" d="M288.031,-72.2448C300.734,-70.3861 314.409,-68.3853 327.731,-66.436"/>
<polygon fill="midnightblue" stroke="midnightblue" points="328.441,-69.8696 337.829,-64.9587 327.427,-62.9433 328.441,-69.8696"/>
</g>
<!-- Node7 -->
<g id="node7" class="node"><title>Node7</title>
<g id="a_node7"><a xlink:href="namespacepanda_1_1utils.html#aafa411773a4b0ee829d99e6e5a0abdcd" target="_top" xlink:title="Check status of a branch. ">
<polygon fill="white" stroke="black" points="339.9,-0.5 339.9,-20.5 467.05,-20.5 467.05,-0.5 339.9,-0.5"/>
<text text-anchor="middle" x="403.475" y="-7.5" font-family="Helvetica,sans-Serif" font-size="10.00">panda::utils::checkStatus</text>
</a>
</g>
</g>
<!-- Node3&#45;&gt;Node7 -->
<g id="edge6" class="edge"><title>Node3&#45;&gt;Node7</title>
<path fill="none" stroke="midnightblue" d="M249.149,-70.4104C268.703,-59.4714 301.502,-42.0346 331.293,-30.5 337.727,-28.0088 344.597,-25.682 351.437,-23.5604"/>
<polygon fill="midnightblue" stroke="midnightblue" points="352.794,-26.8085 361.382,-20.6037 350.799,-20.0988 352.794,-26.8085"/>
</g>
</g>
</svg>
