<?xml version="1.0" encoding="UTF-8" standalone="no"?>
<!DOCTYPE svg PUBLIC "-//W3C//DTD SVG 1.1//EN"
 "http://www.w3.org/Graphics/SVG/1.1/DTD/svg11.dtd">
<!-- Generated by graphviz version 2.38.0 (20140413.2041)
 -->
<!-- Title: panda::GenParticle::datastore::resetAddress Pages: 1 -->
<svg width="810pt" height="102pt"
 viewBox="0.00 0.00 810.50 102.00" xmlns="http://www.w3.org/2000/svg" xmlns:xlink="http://www.w3.org/1999/xlink">
<g id="graph0" class="graph" transform="scale(1 1) rotate(0) translate(4 98)">
<title>panda::GenParticle::datastore::resetAddress</title>
<polygon fill="white" stroke="none" points="-4,4 -4,-98 806.496,-98 806.496,4 -4,4"/>
<!-- Node1 -->
<g id="node1" class="node"><title>Node1</title>
<polygon fill="#bfbfbf" stroke="black" points="4.26326e-14,-0.5 4.26326e-14,-32.5 127.699,-32.5 127.699,-0.5 4.26326e-14,-0.5"/>
<text text-anchor="start" x="8" y="-19.5" font-family="Helvetica,sans-Serif" font-size="10.00">panda::GenParticle</text>
<text text-anchor="middle" x="63.8495" y="-7.5" font-family="Helvetica,sans-Serif" font-size="10.00">::datastore::resetAddress</text>
</g>
<!-- Node2 -->
<g id="node2" class="node"><title>Node2</title>
<g id="a_node2"><a xlink:href="structpanda_1_1ParticleM_1_1datastore.html#a6ba00e058ede77709ec931108ccf9bb8" target="_top" xlink:title="panda::ParticleM::datastore\l::resetAddress">
<polygon fill="white" stroke="black" points="163.699,-23.5 163.699,-55.5 301.954,-55.5 301.954,-23.5 163.699,-23.5"/>
<text text-anchor="start" x="171.699" y="-42.5" font-family="Helvetica,sans-Serif" font-size="10.00">panda::ParticleM::datastore</text>
<text text-anchor="middle" x="232.827" y="-30.5" font-family="Helvetica,sans-Serif" font-size="10.00">::resetAddress</text>
</a>
</g>
</g>
<!-- Node1&#45;&gt;Node2 -->
<g id="edge1" class="edge"><title>Node1&#45;&gt;Node2</title>
<path fill="none" stroke="midnightblue" d="M127.976,-25.1953C136.34,-26.3474 144.994,-27.5394 153.574,-28.7213"/>
<polygon fill="midnightblue" stroke="midnightblue" points="153.207,-32.2036 163.591,-30.101 154.162,-25.2691 153.207,-32.2036"/>
</g>
<!-- Node5 -->
<g id="node5" class="node"><title>Node5</title>
<g id="a_node5"><a xlink:href="namespacepanda_1_1utils.html#a82a8530e64fbdf917cf9b8659065f98b" target="_top" xlink:title="panda::utils::resetAddress">
<polygon fill="white" stroke="black" points="503.88,-22.5 503.88,-42.5 635.468,-42.5 635.468,-22.5 503.88,-22.5"/>
<text text-anchor="middle" x="569.674" y="-29.5" font-family="Helvetica,sans-Serif" font-size="10.00">panda::utils::resetAddress</text>
</a>
</g>
</g>
<!-- Node1&#45;&gt;Node5 -->
<g id="edge7" class="edge"><title>Node1&#45;&gt;Node5</title>
<path fill="none" stroke="midnightblue" d="M127.858,-14.3017C139.762,-13.9675 152.111,-13.6758 163.699,-13.5 225.139,-12.5679 240.546,-11.3156 301.954,-13.5 366.786,-15.8063 440.315,-21.2562 493.727,-25.7306"/>
<polygon fill="midnightblue" stroke="midnightblue" points="493.536,-29.2269 503.795,-26.5824 494.126,-22.2518 493.536,-29.2269"/>
</g>
<!-- Node3 -->
<g id="node3" class="node"><title>Node3</title>
<g id="a_node3"><a xlink:href="structpanda_1_1Particle_1_1datastore.html#a4a04e4dd473787da09b945659e07f0ec" target="_top" xlink:title="panda::Particle::datastore\l::resetAddress">
<polygon fill="white" stroke="black" points="337.954,-61.5 337.954,-93.5 467.88,-93.5 467.88,-61.5 337.954,-61.5"/>
<text text-anchor="start" x="345.954" y="-80.5" font-family="Helvetica,sans-Serif" font-size="10.00">panda::Particle::datastore</text>
<text text-anchor="middle" x="402.917" y="-68.5" font-family="Helvetica,sans-Serif" font-size="10.00">::resetAddress</text>
</a>
</g>
</g>
<!-- Node2&#45;&gt;Node3 -->
<g id="edge2" class="edge"><title>Node2&#45;&gt;Node3</title>
<path fill="none" stroke="midnightblue" d="M302.195,-54.9561C310.688,-56.876 319.402,-58.846 327.974,-60.7838"/>
<polygon fill="midnightblue" stroke="midnightblue" points="327.424,-64.2477 337.95,-63.039 328.968,-57.42 327.424,-64.2477"/>
</g>
<!-- Node2&#45;&gt;Node5 -->
<g id="edge6" class="edge"><title>Node2&#45;&gt;Node5</title>
<path fill="none" stroke="midnightblue" d="M301.991,-38.075C357.641,-36.9116 436.19,-35.2696 493.626,-34.0689"/>
<polygon fill="midnightblue" stroke="midnightblue" points="493.809,-37.5659 503.733,-33.8576 493.662,-30.5675 493.809,-37.5659"/>
</g>
<!-- Node4 -->
<g id="node4" class="node"><title>Node4</title>
<g id="a_node4"><a xlink:href="structpanda_1_1ContainerElement_1_1datastore.html#a1f296453b1f2e440d9b4be3388069d43" target="_top" xlink:title="panda::ContainerElement\l::datastore::resetAddress">
<polygon fill="white" stroke="black" points="504.99,-61.5 504.99,-93.5 634.357,-93.5 634.357,-61.5 504.99,-61.5"/>
<text text-anchor="start" x="512.99" y="-80.5" font-family="Helvetica,sans-Serif" font-size="10.00">panda::ContainerElement</text>
<text text-anchor="middle" x="569.674" y="-68.5" font-family="Helvetica,sans-Serif" font-size="10.00">::datastore::resetAddress</text>
</a>
</g>
</g>
<!-- Node3&#45;&gt;Node4 -->
<g id="edge3" class="edge"><title>Node3&#45;&gt;Node4</title>
<path fill="none" stroke="midnightblue" d="M468.088,-77.5C476.885,-77.5 485.973,-77.5 494.924,-77.5"/>
<polygon fill="midnightblue" stroke="midnightblue" points="494.949,-81.0001 504.949,-77.5 494.949,-74.0001 494.949,-81.0001"/>
</g>
<!-- Node3&#45;&gt;Node5 -->
<g id="edge4" class="edge"><title>Node3&#45;&gt;Node5</title>
<path fill="none" stroke="midnightblue" d="M462.933,-61.3811C482.254,-56.1039 503.444,-50.3163 521.748,-45.3168"/>
<polygon fill="midnightblue" stroke="midnightblue" points="522.866,-48.6399 531.59,-42.6287 521.021,-41.8872 522.866,-48.6399"/>
</g>
<!-- Node6 -->
<g id="node6" class="node"><title>Node6</title>
<g id="a_node6"><a xlink:href="classpanda_1_1utils_1_1BranchName.html#a13958ff4a9d554d2c057c600b4f70412" target="_top" xlink:title="Prepend the branch name with &lt;objName.&gt;. ">
<polygon fill="white" stroke="black" points="671.468,-16.5 671.468,-48.5 802.496,-48.5 802.496,-16.5 671.468,-16.5"/>
<text text-anchor="start" x="679.468" y="-35.5" font-family="Helvetica,sans-Serif" font-size="10.00">panda::utils::BranchName</text>
<text text-anchor="middle" x="736.982" y="-23.5" font-family="Helvetica,sans-Serif" font-size="10.00">::fullName</text>
</a>
</g>
</g>
<!-- Node5&#45;&gt;Node6 -->
<g id="edge5" class="edge"><title>Node5&#45;&gt;Node6</title>
<path fill="none" stroke="midnightblue" d="M635.534,-32.5C643.985,-32.5 652.698,-32.5 661.294,-32.5"/>
<polygon fill="midnightblue" stroke="midnightblue" points="661.309,-36.0001 671.309,-32.5 661.309,-29.0001 661.309,-36.0001"/>
</g>
</g>
</svg>
