<?xml version="1.0" encoding="UTF-8" standalone="no"?>
<!DOCTYPE svg PUBLIC "-//W3C//DTD SVG 1.1//EN"
 "http://www.w3.org/Graphics/SVG/1.1/DTD/svg11.dtd">
<!-- Generated by graphviz version 2.38.0 (20140413.2041)
 -->
<!-- Title: panda::Photon::datastore::resizeVectors_ Pages: 1 -->
<svg width="473pt" height="41pt"
 viewBox="0.00 0.00 473.12 41.00" xmlns="http://www.w3.org/2000/svg" xmlns:xlink="http://www.w3.org/1999/xlink">
<g id="graph0" class="graph" transform="scale(1 1) rotate(0) translate(4 37)">
<title>panda::Photon::datastore::resizeVectors_</title>
<polygon fill="white" stroke="none" points="-4,4 -4,-37 469.121,-37 469.121,4 -4,4"/>
<!-- Node1 -->
<g id="node1" class="node"><title>Node1</title>
<polygon fill="#bfbfbf" stroke="black" points="2.84217e-14,-0.5 2.84217e-14,-32.5 128.277,-32.5 128.277,-0.5 2.84217e-14,-0.5"/>
<text text-anchor="start" x="8" y="-19.5" font-family="Helvetica,sans-Serif" font-size="10.00">panda::Photon::datastore</text>
<text text-anchor="middle" x="64.1385" y="-7.5" font-family="Helvetica,sans-Serif" font-size="10.00">::resizeVectors_</text>
</g>
<!-- Node2 -->
<g id="node2" class="node"><title>Node2</title>
<g id="a_node2"><a xlink:href="structpanda_1_1Particle_1_1datastore.html#aef7e06dbd8399f7de3215aa895907c5f" target="_top" xlink:title="Override when there are vector members. ">
<polygon fill="white" stroke="black" points="164.277,-0.5 164.277,-32.5 294.203,-32.5 294.203,-0.5 164.277,-0.5"/>
<text text-anchor="start" x="172.277" y="-19.5" font-family="Helvetica,sans-Serif" font-size="10.00">panda::Particle::datastore</text>
<text text-anchor="middle" x="229.24" y="-7.5" font-family="Helvetica,sans-Serif" font-size="10.00">::resizeVectors_</text>
</a>
</g>
</g>
<!-- Node1&#45;&gt;Node2 -->
<g id="edge1" class="edge"><title>Node1&#45;&gt;Node2</title>
<path fill="none" stroke="midnightblue" d="M128.665,-16.5C136.932,-16.5 145.458,-16.5 153.882,-16.5"/>
<polygon fill="midnightblue" stroke="midnightblue" points="154.082,-20.0001 164.082,-16.5 154.082,-13.0001 154.082,-20.0001"/>
</g>
<!-- Node3 -->
<g id="node3" class="node"><title>Node3</title>
<g id="a_node3"><a xlink:href="structpanda_1_1ContainerElement_1_1datastore.html#ac050bf7055f0c53b4aff4234e2de6e20" target="_top" xlink:title="Override when there are vector members. ">
<polygon fill="white" stroke="black" points="330.203,-0.5 330.203,-32.5 465.121,-32.5 465.121,-0.5 330.203,-0.5"/>
<text text-anchor="start" x="338.203" y="-19.5" font-family="Helvetica,sans-Serif" font-size="10.00">panda::ContainerElement</text>
<text text-anchor="middle" x="397.662" y="-7.5" font-family="Helvetica,sans-Serif" font-size="10.00">::datastore::resizeVectors_</text>
</a>
</g>
</g>
<!-- Node2&#45;&gt;Node3 -->
<g id="edge2" class="edge"><title>Node2&#45;&gt;Node3</title>
<path fill="none" stroke="midnightblue" d="M294.583,-16.5C302.842,-16.5 311.362,-16.5 319.795,-16.5"/>
<polygon fill="midnightblue" stroke="midnightblue" points="320.014,-20.0001 330.014,-16.5 320.014,-13.0001 320.014,-20.0001"/>
</g>
</g>
</svg>
