<?xml version="1.0" encoding="UTF-8" standalone="no"?>
<!DOCTYPE svg PUBLIC "-//W3C//DTD SVG 1.1//EN"
 "http://www.w3.org/Graphics/SVG/1.1/DTD/svg11.dtd">
<!-- Generated by graphviz version 2.38.0 (20140413.2041)
 -->
<!-- Title: panda::Tau::datastore::setStatus Pages: 1 -->
<svg width="808pt" height="170pt"
 viewBox="0.00 0.00 807.73 170.00" xmlns="http://www.w3.org/2000/svg" xmlns:xlink="http://www.w3.org/1999/xlink">
<g id="graph0" class="graph" transform="scale(1 1) rotate(0) translate(4 166)">
<title>panda::Tau::datastore::setStatus</title>
<polygon fill="white" stroke="none" points="-4,4 -4,-166 803.732,-166 803.732,4 -4,4"/>
<!-- Node1 -->
<g id="node1" class="node"><title>Node1</title>
<polygon fill="#bfbfbf" stroke="black" points="-2.84217e-14,-48.5 -2.84217e-14,-80.5 113.82,-80.5 113.82,-48.5 -2.84217e-14,-48.5"/>
<text text-anchor="start" x="8" y="-67.5" font-family="Helvetica,sans-Serif" font-size="10.00">panda::Tau::datastore</text>
<text text-anchor="middle" x="56.91" y="-55.5" font-family="Helvetica,sans-Serif" font-size="10.00">::setStatus</text>
</g>
<!-- Node2 -->
<g id="node2" class="node"><title>Node2</title>
<g id="a_node2"><a xlink:href="structpanda_1_1ParticleM_1_1datastore.html#a957ae0973d0133c87e71845ad751fd64" target="_top" xlink:title="panda::ParticleM::datastore\l::setStatus">
<polygon fill="white" stroke="black" points="149.82,-71.5 149.82,-103.5 288.075,-103.5 288.075,-71.5 149.82,-71.5"/>
<text text-anchor="start" x="157.82" y="-90.5" font-family="Helvetica,sans-Serif" font-size="10.00">panda::ParticleM::datastore</text>
<text text-anchor="middle" x="218.947" y="-78.5" font-family="Helvetica,sans-Serif" font-size="10.00">::setStatus</text>
</a>
</g>
</g>
<!-- Node1&#45;&gt;Node2 -->
<g id="edge1" class="edge"><title>Node1&#45;&gt;Node2</title>
<path fill="none" stroke="midnightblue" d="M113.883,-72.5443C122.176,-73.7361 130.848,-74.9824 139.496,-76.2253"/>
<polygon fill="midnightblue" stroke="midnightblue" points="139.217,-79.721 149.613,-77.6792 140.213,-72.7922 139.217,-79.721"/>
</g>
<!-- Node5 -->
<g id="node5" class="node"><title>Node5</title>
<g id="a_node5"><a xlink:href="namespacepanda_1_1utils.html#a01665f786d6a2acedb8f008f3fc9fc84" target="_top" xlink:title="Set status of a branch. ">
<polygon fill="white" stroke="black" points="497.5,-70.5 497.5,-90.5 611.87,-90.5 611.87,-70.5 497.5,-70.5"/>
<text text-anchor="middle" x="554.685" y="-77.5" font-family="Helvetica,sans-Serif" font-size="10.00">panda::utils::setStatus</text>
</a>
</g>
</g>
<!-- Node1&#45;&gt;Node5 -->
<g id="edge10" class="edge"><title>Node1&#45;&gt;Node5</title>
<path fill="none" stroke="midnightblue" d="M114.286,-62.3691C126.028,-62.0069 138.327,-61.6875 149.82,-61.5 211.258,-60.4976 226.667,-59.3065 288.075,-61.5 356.002,-63.9264 433.514,-69.8327 487.196,-74.4214"/>
<polygon fill="midnightblue" stroke="midnightblue" points="487.006,-77.9179 497.27,-75.2909 487.608,-70.9438 487.006,-77.9179"/>
</g>
<!-- Node3 -->
<g id="node3" class="node"><title>Node3</title>
<g id="a_node3"><a xlink:href="structpanda_1_1Particle_1_1datastore.html#afa508d25966c3e2044e67e4b50f1679e" target="_top" xlink:title="panda::Particle::datastore\l::setStatus">
<polygon fill="white" stroke="black" points="324.075,-109.5 324.075,-141.5 454.001,-141.5 454.001,-109.5 324.075,-109.5"/>
<text text-anchor="start" x="332.075" y="-128.5" font-family="Helvetica,sans-Serif" font-size="10.00">panda::Particle::datastore</text>
<text text-anchor="middle" x="389.038" y="-116.5" font-family="Helvetica,sans-Serif" font-size="10.00">::setStatus</text>
</a>
</g>
</g>
<!-- Node2&#45;&gt;Node3 -->
<g id="edge2" class="edge"><title>Node2&#45;&gt;Node3</title>
<path fill="none" stroke="midnightblue" d="M288.316,-102.956C296.809,-104.876 305.523,-106.846 314.095,-108.784"/>
<polygon fill="midnightblue" stroke="midnightblue" points="313.545,-112.248 324.071,-111.039 315.089,-105.42 313.545,-112.248"/>
</g>
<!-- Node2&#45;&gt;Node5 -->
<g id="edge9" class="edge"><title>Node2&#45;&gt;Node5</title>
<path fill="none" stroke="midnightblue" d="M288.289,-86.0666C346.487,-84.8459 429.595,-83.1027 487.242,-81.8936"/>
<polygon fill="midnightblue" stroke="midnightblue" points="487.415,-85.3908 497.34,-81.6818 487.268,-78.3924 487.415,-85.3908"/>
</g>
<!-- Node4 -->
<g id="node4" class="node"><title>Node4</title>
<g id="a_node4"><a xlink:href="structpanda_1_1ContainerElement_1_1datastore.html#aad03a4d0428dfa3b6ae9ccfb04d49cd8" target="_top" xlink:title="panda::ContainerElement\l::datastore::setStatus">
<polygon fill="white" stroke="black" points="490.001,-109.5 490.001,-141.5 619.368,-141.5 619.368,-109.5 490.001,-109.5"/>
<text text-anchor="start" x="498.001" y="-128.5" font-family="Helvetica,sans-Serif" font-size="10.00">panda::ContainerElement</text>
<text text-anchor="middle" x="554.685" y="-116.5" font-family="Helvetica,sans-Serif" font-size="10.00">::datastore::setStatus</text>
</a>
</g>
</g>
<!-- Node3&#45;&gt;Node4 -->
<g id="edge3" class="edge"><title>Node3&#45;&gt;Node4</title>
<path fill="none" stroke="midnightblue" d="M454.246,-125.5C462.585,-125.5 471.181,-125.5 479.664,-125.5"/>
<polygon fill="midnightblue" stroke="midnightblue" points="479.93,-129 489.93,-125.5 479.93,-122 479.93,-129"/>
</g>
<!-- Node3&#45;&gt;Node5 -->
<g id="edge4" class="edge"><title>Node3&#45;&gt;Node5</title>
<path fill="none" stroke="midnightblue" d="M448.656,-109.381C467.847,-104.104 488.894,-98.3163 507.075,-93.3168"/>
<polygon fill="midnightblue" stroke="midnightblue" points="508.137,-96.6549 516.851,-90.6287 506.281,-89.9054 508.137,-96.6549"/>
</g>
<!-- Node6 -->
<g id="node6" class="node"><title>Node6</title>
<g id="a_node6"><a xlink:href="classpanda_1_1utils_1_1BranchName.html#a6cc8a6df7c5b12a0221fd49773cca6a7" target="_top" xlink:title="Is the name included and not vetoed? ">
<polygon fill="white" stroke="black" points="655.368,-141.5 655.368,-161.5 799.732,-161.5 799.732,-141.5 655.368,-141.5"/>
<text text-anchor="middle" x="727.55" y="-148.5" font-family="Helvetica,sans-Serif" font-size="10.00">panda::utils::BranchName::in</text>
</a>
</g>
</g>
<!-- Node5&#45;&gt;Node6 -->
<g id="edge5" class="edge"><title>Node5&#45;&gt;Node6</title>
<path fill="none" stroke="midnightblue" d="M599.251,-90.6163C606.202,-93.0366 613.146,-95.9708 619.368,-99.5 638.248,-110.208 636.335,-122.067 655.368,-132.5 659.027,-134.506 662.91,-136.309 666.9,-137.928"/>
<polygon fill="midnightblue" stroke="midnightblue" points="665.755,-141.236 676.349,-141.383 668.159,-134.662 665.755,-141.236"/>
</g>
<!-- Node7 -->
<g id="node7" class="node"><title>Node7</title>
<g id="a_node7"><a xlink:href="classpanda_1_1utils_1_1BranchName.html#ae3332329bf2afae5ed8e7c35e5d77ffa" target="_top" xlink:title="Is the name included and vetoed? ">
<polygon fill="white" stroke="black" points="662.036,-90.5 662.036,-122.5 793.064,-122.5 793.064,-90.5 662.036,-90.5"/>
<text text-anchor="start" x="670.036" y="-109.5" font-family="Helvetica,sans-Serif" font-size="10.00">panda::utils::BranchName</text>
<text text-anchor="middle" x="727.55" y="-97.5" font-family="Helvetica,sans-Serif" font-size="10.00">::vetoed</text>
</a>
</g>
</g>
<!-- Node5&#45;&gt;Node7 -->
<g id="edge6" class="edge"><title>Node5&#45;&gt;Node7</title>
<path fill="none" stroke="midnightblue" d="M612.106,-89.0854C624.809,-91.0185 638.484,-93.0993 651.806,-95.1265"/>
<polygon fill="midnightblue" stroke="midnightblue" points="651.491,-98.6187 661.904,-96.663 652.544,-91.6984 651.491,-98.6187"/>
</g>
<!-- Node8 -->
<g id="node8" class="node"><title>Node8</title>
<g id="a_node8"><a xlink:href="classpanda_1_1utils_1_1BranchName.html#a13958ff4a9d554d2c057c600b4f70412" target="_top" xlink:title="Prepend the branch name with &lt;objName.&gt;. ">
<polygon fill="white" stroke="black" points="662.036,-39.5 662.036,-71.5 793.064,-71.5 793.064,-39.5 662.036,-39.5"/>
<text text-anchor="start" x="670.036" y="-58.5" font-family="Helvetica,sans-Serif" font-size="10.00">panda::utils::BranchName</text>
<text text-anchor="middle" x="727.55" y="-46.5" font-family="Helvetica,sans-Serif" font-size="10.00">::fullName</text>
</a>
</g>
</g>
<!-- Node5&#45;&gt;Node8 -->
<g id="edge7" class="edge"><title>Node5&#45;&gt;Node8</title>
<path fill="none" stroke="midnightblue" d="M612.106,-72.2448C624.809,-70.3861 638.484,-68.3853 651.806,-66.436"/>
<polygon fill="midnightblue" stroke="midnightblue" points="652.516,-69.8696 661.904,-64.9587 651.502,-62.9433 652.516,-69.8696"/>
</g>
<!-- Node9 -->
<g id="node9" class="node"><title>Node9</title>
<g id="a_node9"><a xlink:href="namespacepanda_1_1utils.html#aafa411773a4b0ee829d99e6e5a0abdcd" target="_top" xlink:title="Check status of a branch. ">
<polygon fill="white" stroke="black" points="663.975,-0.5 663.975,-20.5 791.125,-20.5 791.125,-0.5 663.975,-0.5"/>
<text text-anchor="middle" x="727.55" y="-7.5" font-family="Helvetica,sans-Serif" font-size="10.00">panda::utils::checkStatus</text>
</a>
</g>
</g>
<!-- Node5&#45;&gt;Node9 -->
<g id="edge8" class="edge"><title>Node5&#45;&gt;Node9</title>
<path fill="none" stroke="midnightblue" d="M572.814,-70.3138C592.274,-59.0827 625.246,-41.075 655.368,-29.5 661.166,-27.272 667.326,-25.2055 673.502,-23.3196"/>
<polygon fill="midnightblue" stroke="midnightblue" points="674.545,-26.6611 683.17,-20.5071 672.59,-19.9397 674.545,-26.6611"/>
</g>
</g>
</svg>
