<?xml version="1.0" encoding="UTF-8" standalone="no"?>
<!DOCTYPE svg PUBLIC "-//W3C//DTD SVG 1.1//EN"
 "http://www.w3.org/Graphics/SVG/1.1/DTD/svg11.dtd">
<!-- Generated by graphviz version 2.38.0 (20140413.2041)
 -->
<!-- Title: panda::Particle::datastore::resetAddress Pages: 1 -->
<svg width="473pt" height="86pt"
 viewBox="0.00 0.00 472.54 86.00" xmlns="http://www.w3.org/2000/svg" xmlns:xlink="http://www.w3.org/1999/xlink">
<g id="graph0" class="graph" transform="scale(1 1) rotate(0) translate(4 82)">
<title>panda::Particle::datastore::resetAddress</title>
<polygon fill="white" stroke="none" points="-4,4 -4,-82 468.542,-82 468.542,4 -4,4"/>
<!-- Node1 -->
<g id="node1" class="node"><title>Node1</title>
<polygon fill="#bfbfbf" stroke="black" points="-2.84217e-14,-22.5 -2.84217e-14,-54.5 129.926,-54.5 129.926,-22.5 -2.84217e-14,-22.5"/>
<text text-anchor="start" x="8" y="-41.5" font-family="Helvetica,sans-Serif" font-size="10.00">panda::Particle::datastore</text>
<text text-anchor="middle" x="64.963" y="-29.5" font-family="Helvetica,sans-Serif" font-size="10.00">::resetAddress</text>
</g>
<!-- Node2 -->
<g id="node2" class="node"><title>Node2</title>
<g id="a_node2"><a xlink:href="structpanda_1_1ContainerElement_1_1datastore.html#a1f296453b1f2e440d9b4be3388069d43" target="_top" xlink:title="panda::ContainerElement\l::datastore::resetAddress">
<polygon fill="white" stroke="black" points="167.036,-45.5 167.036,-77.5 296.403,-77.5 296.403,-45.5 167.036,-45.5"/>
<text text-anchor="start" x="175.036" y="-64.5" font-family="Helvetica,sans-Serif" font-size="10.00">panda::ContainerElement</text>
<text text-anchor="middle" x="231.72" y="-52.5" font-family="Helvetica,sans-Serif" font-size="10.00">::datastore::resetAddress</text>
</a>
</g>
</g>
<!-- Node1&#45;&gt;Node2 -->
<g id="edge1" class="edge"><title>Node1&#45;&gt;Node2</title>
<path fill="none" stroke="midnightblue" d="M130.134,-47.4583C138.931,-48.6863 148.019,-49.955 156.97,-51.2046"/>
<polygon fill="midnightblue" stroke="midnightblue" points="156.607,-54.6877 166.995,-52.604 157.575,-47.7549 156.607,-54.6877"/>
</g>
<!-- Node3 -->
<g id="node3" class="node"><title>Node3</title>
<g id="a_node3"><a xlink:href="namespacepanda_1_1utils.html#a82a8530e64fbdf917cf9b8659065f98b" target="_top" xlink:title="panda::utils::resetAddress">
<polygon fill="white" stroke="black" points="165.926,-6.5 165.926,-26.5 297.514,-26.5 297.514,-6.5 165.926,-6.5"/>
<text text-anchor="middle" x="231.72" y="-13.5" font-family="Helvetica,sans-Serif" font-size="10.00">panda::utils::resetAddress</text>
</a>
</g>
</g>
<!-- Node1&#45;&gt;Node3 -->
<g id="edge2" class="edge"><title>Node1&#45;&gt;Node3</title>
<path fill="none" stroke="midnightblue" d="M130.134,-29.9312C138.577,-28.8039 147.288,-27.6407 155.888,-26.4923"/>
<polygon fill="midnightblue" stroke="midnightblue" points="156.462,-29.9469 165.91,-25.154 155.535,-23.0085 156.462,-29.9469"/>
</g>
<!-- Node4 -->
<g id="node4" class="node"><title>Node4</title>
<g id="a_node4"><a xlink:href="classpanda_1_1utils_1_1BranchName.html#a13958ff4a9d554d2c057c600b4f70412" target="_top" xlink:title="Prepend the branch name with &lt;objName.&gt;. ">
<polygon fill="white" stroke="black" points="333.514,-0.5 333.514,-32.5 464.542,-32.5 464.542,-0.5 333.514,-0.5"/>
<text text-anchor="start" x="341.514" y="-19.5" font-family="Helvetica,sans-Serif" font-size="10.00">panda::utils::BranchName</text>
<text text-anchor="middle" x="399.028" y="-7.5" font-family="Helvetica,sans-Serif" font-size="10.00">::fullName</text>
</a>
</g>
</g>
<!-- Node3&#45;&gt;Node4 -->
<g id="edge3" class="edge"><title>Node3&#45;&gt;Node4</title>
<path fill="none" stroke="midnightblue" d="M297.58,-16.5C306.031,-16.5 314.744,-16.5 323.34,-16.5"/>
<polygon fill="midnightblue" stroke="midnightblue" points="323.355,-20.0001 333.355,-16.5 323.355,-13.0001 323.355,-20.0001"/>
</g>
</g>
</svg>
