<?xml version="1.0" encoding="UTF-8" standalone="no"?>
<!DOCTYPE svg PUBLIC "-//W3C//DTD SVG 1.1//EN"
 "http://www.w3.org/Graphics/SVG/1.1/DTD/svg11.dtd">
<!-- Generated by graphviz version 2.38.0 (20140413.2041)
 -->
<!-- Title: Objects/src/SuperCluster.cc Pages: 1 -->
<svg width="1124pt" height="521pt"
 viewBox="0.00 0.00 1123.73 521.00" xmlns="http://www.w3.org/2000/svg" xmlns:xlink="http://www.w3.org/1999/xlink">
<g id="graph0" class="graph" transform="scale(1 1) rotate(0) translate(4 517)">
<title>Objects/src/SuperCluster.cc</title>
<polygon fill="white" stroke="none" points="-4,4 -4,-517 1119.73,-517 1119.73,4 -4,4"/>
<!-- Node1 -->
<g id="node1" class="node"><title>Node1</title>
<polygon fill="#bfbfbf" stroke="black" points="623.777,-492.5 623.777,-512.5 763.677,-512.5 763.677,-492.5 623.777,-492.5"/>
<text text-anchor="middle" x="693.727" y="-499.5" font-family="Helvetica,sans-Serif" font-size="10.00">Objects/src/SuperCluster.cc</text>
</g>
<!-- Node2 -->
<g id="node2" class="node"><title>Node2</title>
<g id="a_node2"><a xlink:href="SuperCluster_8h.html" target="_top" xlink:title="../interface/SuperCluster.h">
<polygon fill="white" stroke="black" points="627.659,-435.5 627.659,-455.5 759.794,-455.5 759.794,-435.5 627.659,-435.5"/>
<text text-anchor="middle" x="693.727" y="-442.5" font-family="Helvetica,sans-Serif" font-size="10.00">../interface/SuperCluster.h</text>
</a>
</g>
</g>
<!-- Node1&#45;&gt;Node2 -->
<g id="edge1" class="edge"><title>Node1&#45;&gt;Node2</title>
<path fill="none" stroke="midnightblue" d="M693.727,-492.418C693.727,-485.216 693.727,-474.896 693.727,-465.863"/>
<polygon fill="midnightblue" stroke="midnightblue" points="697.227,-465.779 693.727,-455.779 690.227,-465.779 697.227,-465.779"/>
</g>
<!-- Node3 -->
<g id="node3" class="node"><title>Node3</title>
<g id="a_node3"><a xlink:href="Constants_8h.html" target="_top" xlink:title="Constants.h">
<polygon fill="white" stroke="black" points="254.051,-57.5 254.051,-77.5 323.402,-77.5 323.402,-57.5 254.051,-57.5"/>
<text text-anchor="middle" x="288.727" y="-64.5" font-family="Helvetica,sans-Serif" font-size="10.00">Constants.h</text>
</a>
</g>
</g>
<!-- Node2&#45;&gt;Node3 -->
<g id="edge2" class="edge"><title>Node2&#45;&gt;Node3</title>
<path fill="none" stroke="midnightblue" d="M627.23,-436.371C515.39,-420.824 301.727,-382.257 301.727,-314.5 301.727,-314.5 301.727,-314.5 301.727,-186.5 301.727,-151.431 295.984,-110.849 292.132,-87.5767"/>
<polygon fill="midnightblue" stroke="midnightblue" points="295.568,-86.906 290.427,-77.6424 288.669,-88.0904 295.568,-86.906"/>
</g>
<!-- Node11 -->
<g id="node11" class="node"><title>Node11</title>
<g id="a_node11"><a xlink:href="ContainerElement_8h.html" target="_top" xlink:title="../../Framework/interface\l/ContainerElement.h">
<polygon fill="white" stroke="black" points="446.833,-171.5 446.833,-203.5 570.62,-203.5 570.62,-171.5 446.833,-171.5"/>
<text text-anchor="start" x="454.833" y="-190.5" font-family="Helvetica,sans-Serif" font-size="10.00">../../Framework/interface</text>
<text text-anchor="middle" x="508.727" y="-178.5" font-family="Helvetica,sans-Serif" font-size="10.00">/ContainerElement.h</text>
</a>
</g>
</g>
<!-- Node2&#45;&gt;Node11 -->
<g id="edge10" class="edge"><title>Node2&#45;&gt;Node11</title>
<path fill="none" stroke="midnightblue" d="M627.461,-438.217C560.531,-427.944 460.417,-400.93 412.727,-330 383.854,-287.056 438.812,-236.988 476.824,-209.409"/>
<polygon fill="midnightblue" stroke="midnightblue" points="478.968,-212.18 485.114,-203.55 474.928,-206.463 478.968,-212.18"/>
</g>
<!-- Node16 -->
<g id="node16" class="node"><title>Node16</title>
<g id="a_node16"><a xlink:href="Container_8h.html" target="_top" xlink:title="../../Framework/interface\l/Container.h">
<polygon fill="white" stroke="black" points="631.833,-366.5 631.833,-398.5 755.62,-398.5 755.62,-366.5 631.833,-366.5"/>
<text text-anchor="start" x="639.833" y="-385.5" font-family="Helvetica,sans-Serif" font-size="10.00">../../Framework/interface</text>
<text text-anchor="middle" x="693.727" y="-373.5" font-family="Helvetica,sans-Serif" font-size="10.00">/Container.h</text>
</a>
</g>
</g>
<!-- Node2&#45;&gt;Node16 -->
<g id="edge22" class="edge"><title>Node2&#45;&gt;Node16</title>
<path fill="none" stroke="midnightblue" d="M693.727,-435.499C693.727,-428.468 693.727,-418.336 693.727,-408.879"/>
<polygon fill="midnightblue" stroke="midnightblue" points="697.227,-408.691 693.727,-398.691 690.227,-408.691 697.227,-408.691"/>
</g>
<!-- Node27 -->
<g id="node27" class="node"><title>Node27</title>
<g id="a_node27"><a xlink:href="Ref_8h.html" target="_top" xlink:title="../../Framework/interface\l/Ref.h">
<polygon fill="white" stroke="black" points="925.833,-297.5 925.833,-329.5 1049.62,-329.5 1049.62,-297.5 925.833,-297.5"/>
<text text-anchor="start" x="933.833" y="-316.5" font-family="Helvetica,sans-Serif" font-size="10.00">../../Framework/interface</text>
<text text-anchor="middle" x="987.727" y="-304.5" font-family="Helvetica,sans-Serif" font-size="10.00">/Ref.h</text>
</a>
</g>
</g>
<!-- Node2&#45;&gt;Node27 -->
<g id="edge41" class="edge"><title>Node2&#45;&gt;Node27</title>
<path fill="none" stroke="midnightblue" d="M714.401,-435.359C761.892,-414.359 879.631,-362.298 943.995,-333.837"/>
<polygon fill="midnightblue" stroke="midnightblue" points="945.739,-336.893 953.469,-329.648 942.908,-330.491 945.739,-336.893"/>
</g>
<!-- Node28 -->
<g id="node28" class="node"><title>Node28</title>
<g id="a_node28"><a xlink:href="RefVector_8h.html" target="_top" xlink:title="../../Framework/interface\l/RefVector.h">
<polygon fill="white" stroke="black" points="925.833,-366.5 925.833,-398.5 1049.62,-398.5 1049.62,-366.5 925.833,-366.5"/>
<text text-anchor="start" x="933.833" y="-385.5" font-family="Helvetica,sans-Serif" font-size="10.00">../../Framework/interface</text>
<text text-anchor="middle" x="987.727" y="-373.5" font-family="Helvetica,sans-Serif" font-size="10.00">/RefVector.h</text>
</a>
</g>
</g>
<!-- Node2&#45;&gt;Node28 -->
<g id="edge45" class="edge"><title>Node2&#45;&gt;Node28</title>
<path fill="none" stroke="midnightblue" d="M737.108,-435.499C784.12,-425.745 859.902,-410.021 915.841,-398.415"/>
<polygon fill="midnightblue" stroke="midnightblue" points="916.611,-401.83 925.692,-396.371 915.189,-394.976 916.611,-401.83"/>
</g>
<!-- Node4 -->
<g id="node4" class="node"><title>Node4</title>
<polygon fill="white" stroke="#bfbfbf" points="511.225,-0.5 511.225,-20.5 562.228,-20.5 562.228,-0.5 511.225,-0.5"/>
<text text-anchor="middle" x="536.727" y="-7.5" font-family="Helvetica,sans-Serif" font-size="10.00">TTree.h</text>
</g>
<!-- Node3&#45;&gt;Node4 -->
<g id="edge3" class="edge"><title>Node3&#45;&gt;Node4</title>
<path fill="none" stroke="midnightblue" d="M323.471,-58.7946C370.417,-48.3833 453.671,-29.9196 501.078,-19.4061"/>
<polygon fill="midnightblue" stroke="midnightblue" points="501.901,-22.8087 510.906,-17.2265 500.385,-15.9747 501.901,-22.8087"/>
</g>
<!-- Node5 -->
<g id="node5" class="node"><title>Node5</title>
<polygon fill="white" stroke="#bfbfbf" points="391.446,-0.5 391.446,-20.5 448.007,-20.5 448.007,-0.5 391.446,-0.5"/>
<text text-anchor="middle" x="419.727" y="-7.5" font-family="Helvetica,sans-Serif" font-size="10.00">TString.h</text>
</g>
<!-- Node3&#45;&gt;Node5 -->
<g id="edge4" class="edge"><title>Node3&#45;&gt;Node5</title>
<path fill="none" stroke="midnightblue" d="M310.359,-57.4179C331.692,-48.4613 364.515,-34.6806 388.64,-24.552"/>
<polygon fill="midnightblue" stroke="midnightblue" points="390.197,-27.6939 398.063,-20.5956 387.488,-21.2397 390.197,-27.6939"/>
</g>
<!-- Node6 -->
<g id="node6" class="node"><title>Node6</title>
<polygon fill="white" stroke="#bfbfbf" points="-2.13163e-14,-0.5 -2.13163e-14,-20.5 55.454,-20.5 55.454,-0.5 -2.13163e-14,-0.5"/>
<text text-anchor="middle" x="27.727" y="-7.5" font-family="Helvetica,sans-Serif" font-size="10.00">Rtypes.h</text>
</g>
<!-- Node3&#45;&gt;Node6 -->
<g id="edge5" class="edge"><title>Node3&#45;&gt;Node6</title>
<path fill="none" stroke="midnightblue" d="M253.689,-59.9556C211.398,-51.9308 137.91,-37.5863 65.337,-21.0509"/>
<polygon fill="midnightblue" stroke="midnightblue" points="66.0996,-17.635 55.5702,-18.8108 64.5347,-24.4579 66.0996,-17.635"/>
</g>
<!-- Node7 -->
<g id="node7" class="node"><title>Node7</title>
<polygon fill="white" stroke="#bfbfbf" points="73.384,-0.5 73.384,-20.5 166.07,-20.5 166.07,-0.5 73.384,-0.5"/>
<text text-anchor="middle" x="119.727" y="-7.5" font-family="Helvetica,sans-Serif" font-size="10.00">TLorentzVector.h</text>
</g>
<!-- Node3&#45;&gt;Node7 -->
<g id="edge6" class="edge"><title>Node3&#45;&gt;Node7</title>
<path fill="none" stroke="midnightblue" d="M260.82,-57.4179C232.48,-48.1949 188.423,-33.8567 157.086,-23.6582"/>
<polygon fill="midnightblue" stroke="midnightblue" points="157.987,-20.2708 147.394,-20.5042 155.82,-26.9271 157.987,-20.2708"/>
</g>
<!-- Node8 -->
<g id="node8" class="node"><title>Node8</title>
<polygon fill="white" stroke="#bfbfbf" points="184.276,-0.5 184.276,-20.5 249.177,-20.5 249.177,-0.5 184.276,-0.5"/>
<text text-anchor="middle" x="216.727" y="-7.5" font-family="Helvetica,sans-Serif" font-size="10.00">TVector2.h</text>
</g>
<!-- Node3&#45;&gt;Node8 -->
<g id="edge7" class="edge"><title>Node3&#45;&gt;Node8</title>
<path fill="none" stroke="midnightblue" d="M276.838,-57.4179C266.063,-49.1876 249.957,-36.8839 237.127,-27.0836"/>
<polygon fill="midnightblue" stroke="midnightblue" points="238.946,-24.0685 228.875,-20.7795 234.697,-29.6313 238.946,-24.0685"/>
</g>
<!-- Node9 -->
<g id="node9" class="node"><title>Node9</title>
<polygon fill="white" stroke="#bfbfbf" points="267.114,-0.5 267.114,-20.5 310.34,-20.5 310.34,-0.5 267.114,-0.5"/>
<text text-anchor="middle" x="288.727" y="-7.5" font-family="Helvetica,sans-Serif" font-size="10.00">cmath</text>
</g>
<!-- Node3&#45;&gt;Node9 -->
<g id="edge8" class="edge"><title>Node3&#45;&gt;Node9</title>
<path fill="none" stroke="midnightblue" d="M288.727,-57.4179C288.727,-50.2164 288.727,-39.8962 288.727,-30.8632"/>
<polygon fill="midnightblue" stroke="midnightblue" points="292.227,-30.7794 288.727,-20.7795 285.227,-30.7795 292.227,-30.7794"/>
</g>
<!-- Node10 -->
<g id="node10" class="node"><title>Node10</title>
<polygon fill="white" stroke="#bfbfbf" points="328.005,-0.5 328.005,-20.5 373.449,-20.5 373.449,-0.5 328.005,-0.5"/>
<text text-anchor="middle" x="350.727" y="-7.5" font-family="Helvetica,sans-Serif" font-size="10.00">cstring</text>
</g>
<!-- Node3&#45;&gt;Node10 -->
<g id="edge9" class="edge"><title>Node3&#45;&gt;Node10</title>
<path fill="none" stroke="midnightblue" d="M298.965,-57.4179C308.064,-49.3458 321.581,-37.3556 332.52,-27.6517"/>
<polygon fill="midnightblue" stroke="midnightblue" points="335.108,-30.0339 340.267,-20.7795 330.463,-24.7974 335.108,-30.0339"/>
</g>
<!-- Node11&#45;&gt;Node4 -->
<g id="edge18" class="edge"><title>Node11&#45;&gt;Node4</title>
<path fill="none" stroke="midnightblue" d="M505.726,-171.248C503.873,-161.037 501.674,-147.269 500.727,-135 500.009,-125.694 499.158,-123.201 500.727,-114 505.937,-83.443 519.295,-49.8745 528.192,-29.7557"/>
<polygon fill="midnightblue" stroke="midnightblue" points="531.425,-31.1006 532.371,-20.548 525.051,-28.2075 531.425,-31.1006"/>
</g>
<!-- Node11&#45;&gt;Node5 -->
<g id="edge19" class="edge"><title>Node11&#45;&gt;Node5</title>
<path fill="none" stroke="midnightblue" d="M454.961,-171.474C437.079,-163.636 419.098,-152.006 408.727,-135 388.829,-102.372 401.821,-55.6012 411.653,-29.9969"/>
<polygon fill="midnightblue" stroke="midnightblue" points="414.905,-31.2927 415.443,-20.7116 408.424,-28.6474 414.905,-31.2927"/>
</g>
<!-- Node12 -->
<g id="node12" class="node"><title>Node12</title>
<g id="a_node12"><a xlink:href="Object_8h.html" target="_top" xlink:title="Object.h">
<polygon fill="white" stroke="black" points="510.111,-114.5 510.111,-134.5 563.343,-134.5 563.343,-114.5 510.111,-114.5"/>
<text text-anchor="middle" x="536.727" y="-121.5" font-family="Helvetica,sans-Serif" font-size="10.00">Object.h</text>
</a>
</g>
</g>
<!-- Node11&#45;&gt;Node12 -->
<g id="edge11" class="edge"><title>Node11&#45;&gt;Node12</title>
<path fill="none" stroke="midnightblue" d="M515.648,-171.421C519.466,-163.104 524.237,-152.71 528.274,-143.915"/>
<polygon fill="midnightblue" stroke="midnightblue" points="531.584,-145.094 532.575,-134.546 525.222,-142.174 531.584,-145.094"/>
</g>
<!-- Node13 -->
<g id="node13" class="node"><title>Node13</title>
<g id="a_node13"><a xlink:href="IOUtils_8h.html" target="_top" xlink:title="IOUtils.h">
<polygon fill="white" stroke="black" points="564.561,-57.5 564.561,-77.5 618.893,-77.5 618.893,-57.5 564.561,-57.5"/>
<text text-anchor="middle" x="591.727" y="-64.5" font-family="Helvetica,sans-Serif" font-size="10.00">IOUtils.h</text>
</a>
</g>
</g>
<!-- Node11&#45;&gt;Node13 -->
<g id="edge17" class="edge"><title>Node11&#45;&gt;Node13</title>
<path fill="none" stroke="midnightblue" d="M534.429,-171.297C547.629,-162.28 562.951,-149.737 572.727,-135 582.155,-120.789 586.97,-101.877 589.388,-87.8551"/>
<polygon fill="midnightblue" stroke="midnightblue" points="592.869,-88.243 590.857,-77.841 585.943,-87.2275 592.869,-88.243"/>
</g>
<!-- Node14 -->
<g id="node14" class="node"><title>Node14</title>
<polygon fill="white" stroke="#bfbfbf" points="760.114,-0.5 760.114,-20.5 803.34,-20.5 803.34,-0.5 760.114,-0.5"/>
<text text-anchor="middle" x="781.727" y="-7.5" font-family="Helvetica,sans-Serif" font-size="10.00">vector</text>
</g>
<!-- Node11&#45;&gt;Node14 -->
<g id="edge20" class="edge"><title>Node11&#45;&gt;Node14</title>
<path fill="none" stroke="midnightblue" d="M533.508,-171.312C550.051,-161.127 572.259,-147.365 591.727,-135 652.698,-96.2747 723.938,-49.5752 759.359,-26.2565"/>
<polygon fill="midnightblue" stroke="midnightblue" points="761.539,-29.0118 767.964,-20.5875 757.688,-23.1663 761.539,-29.0118"/>
</g>
<!-- Node15 -->
<g id="node15" class="node"><title>Node15</title>
<polygon fill="white" stroke="#bfbfbf" points="418.003,-114.5 418.003,-134.5 453.45,-134.5 453.45,-114.5 418.003,-114.5"/>
<text text-anchor="middle" x="435.727" y="-121.5" font-family="Helvetica,sans-Serif" font-size="10.00">map</text>
</g>
<!-- Node11&#45;&gt;Node15 -->
<g id="edge21" class="edge"><title>Node11&#45;&gt;Node15</title>
<path fill="none" stroke="midnightblue" d="M490.682,-171.421C479.646,-162.2 465.556,-150.426 454.406,-141.109"/>
<polygon fill="midnightblue" stroke="midnightblue" points="456.47,-138.272 446.552,-134.546 451.982,-143.644 456.47,-138.272"/>
</g>
<!-- Node12&#45;&gt;Node4 -->
<g id="edge16" class="edge"><title>Node12&#45;&gt;Node4</title>
<path fill="none" stroke="midnightblue" d="M536.727,-114.335C536.727,-96.2039 536.727,-55.4065 536.727,-30.9997"/>
<polygon fill="midnightblue" stroke="midnightblue" points="540.227,-30.792 536.727,-20.7921 533.227,-30.7921 540.227,-30.792"/>
</g>
<!-- Node12&#45;&gt;Node13 -->
<g id="edge12" class="edge"><title>Node12&#45;&gt;Node13</title>
<path fill="none" stroke="midnightblue" d="M545.809,-114.418C553.802,-106.425 565.637,-94.5903 575.289,-84.9377"/>
<polygon fill="midnightblue" stroke="midnightblue" points="577.851,-87.3254 582.448,-77.7795 572.902,-82.3757 577.851,-87.3254"/>
</g>
<!-- Node13&#45;&gt;Node4 -->
<g id="edge14" class="edge"><title>Node13&#45;&gt;Node4</title>
<path fill="none" stroke="midnightblue" d="M582.645,-57.4179C574.652,-49.425 562.817,-37.5903 553.165,-27.9377"/>
<polygon fill="midnightblue" stroke="midnightblue" points="555.552,-25.3757 546.006,-20.7795 550.603,-30.3254 555.552,-25.3757"/>
</g>
<!-- Node13&#45;&gt;Node5 -->
<g id="edge13" class="edge"><title>Node13&#45;&gt;Node5</title>
<path fill="none" stroke="midnightblue" d="M564.473,-57.7851C535.629,-48.5618 489.897,-33.9381 457.567,-23.5999"/>
<polygon fill="midnightblue" stroke="midnightblue" points="458.588,-20.2519 447.997,-20.5398 456.456,-26.9193 458.588,-20.2519"/>
</g>
<!-- Node13&#45;&gt;Node14 -->
<g id="edge15" class="edge"><title>Node13&#45;&gt;Node14</title>
<path fill="none" stroke="midnightblue" d="M618.949,-58.6198C653.653,-48.5742 713.534,-31.2401 750.188,-20.6296"/>
<polygon fill="midnightblue" stroke="midnightblue" points="751.238,-23.9694 759.871,-17.8268 749.292,-17.2455 751.238,-23.9694"/>
</g>
<!-- Node17 -->
<g id="node17" class="node"><title>Node17</title>
<g id="a_node17"><a xlink:href="ArrayBase_8h.html" target="_top" xlink:title="ArrayBase.h">
<polygon fill="white" stroke="black" points="422.221,-303.5 422.221,-323.5 493.232,-323.5 493.232,-303.5 422.221,-303.5"/>
<text text-anchor="middle" x="457.727" y="-310.5" font-family="Helvetica,sans-Serif" font-size="10.00">ArrayBase.h</text>
</a>
</g>
</g>
<!-- Node16&#45;&gt;Node17 -->
<g id="edge23" class="edge"><title>Node16&#45;&gt;Node17</title>
<path fill="none" stroke="midnightblue" d="M632.854,-366.444C594.93,-356.75 545.243,-343.479 501.727,-330 498.555,-329.017 495.271,-327.952 491.991,-326.856"/>
<polygon fill="midnightblue" stroke="midnightblue" points="492.878,-323.46 482.284,-323.525 490.606,-330.081 492.878,-323.46"/>
</g>
<!-- Node20 -->
<g id="node20" class="node"><title>Node20</title>
<g id="a_node20"><a xlink:href="CollectionBase_8h.html" target="_top" xlink:title="CollectionBase.h">
<polygon fill="white" stroke="black" points="558.219,-303.5 558.219,-323.5 649.235,-323.5 649.235,-303.5 558.219,-303.5"/>
<text text-anchor="middle" x="603.727" y="-310.5" font-family="Helvetica,sans-Serif" font-size="10.00">CollectionBase.h</text>
</a>
</g>
</g>
<!-- Node16&#45;&gt;Node20 -->
<g id="edge31" class="edge"><title>Node16&#45;&gt;Node20</title>
<path fill="none" stroke="midnightblue" d="M673.305,-366.297C658.702,-355.426 639.118,-340.847 624.448,-329.926"/>
<polygon fill="midnightblue" stroke="midnightblue" points="626.149,-326.829 616.038,-323.665 621.969,-332.444 626.149,-326.829"/>
</g>
<!-- Node22 -->
<g id="node22" class="node"><title>Node22</title>
<g id="a_node22"><a xlink:href="Iterator_8h.html" target="_top" xlink:title="Iterator.h">
<polygon fill="white" stroke="black" points="775.722,-303.5 775.722,-323.5 831.732,-323.5 831.732,-303.5 775.722,-303.5"/>
<text text-anchor="middle" x="803.727" y="-310.5" font-family="Helvetica,sans-Serif" font-size="10.00">Iterator.h</text>
</a>
</g>
</g>
<!-- Node16&#45;&gt;Node22 -->
<g id="edge35" class="edge"><title>Node16&#45;&gt;Node22</title>
<path fill="none" stroke="midnightblue" d="M718.413,-366.464C736.861,-355.228 761.925,-339.961 780.11,-328.885"/>
<polygon fill="midnightblue" stroke="midnightblue" points="782.202,-331.709 788.921,-323.518 778.56,-325.731 782.202,-331.709"/>
</g>
<!-- Node23 -->
<g id="node23" class="node"><title>Node23</title>
<polygon fill="white" stroke="#bfbfbf" points="847.666,-240.5 847.666,-260.5 909.788,-260.5 909.788,-240.5 847.666,-240.5"/>
<text text-anchor="middle" x="878.727" y="-247.5" font-family="Helvetica,sans-Serif" font-size="10.00">type_traits</text>
</g>
<!-- Node16&#45;&gt;Node23 -->
<g id="edge40" class="edge"><title>Node16&#45;&gt;Node23</title>
<path fill="none" stroke="midnightblue" d="M755.798,-371.068C784.385,-363.63 817.118,-351.063 840.727,-330 858.504,-314.14 868.784,-288.121 874.067,-270.423"/>
<polygon fill="midnightblue" stroke="midnightblue" points="877.479,-271.212 876.733,-260.644 870.726,-269.371 877.479,-271.212"/>
</g>
<!-- Node24 -->
<g id="node24" class="node"><title>Node24</title>
<polygon fill="white" stroke="#bfbfbf" points="958.33,-240.5 958.33,-260.5 1017.12,-260.5 1017.12,-240.5 958.33,-240.5"/>
<text text-anchor="middle" x="987.727" y="-247.5" font-family="Helvetica,sans-Serif" font-size="10.00">stdexcept</text>
</g>
<!-- Node16&#45;&gt;Node24 -->
<g id="edge37" class="edge"><title>Node16&#45;&gt;Node24</title>
<path fill="none" stroke="midnightblue" d="M755.768,-367.468C789.185,-358.794 830.636,-346.205 865.727,-330 890.238,-318.681 894.028,-311.617 916.727,-297 932.883,-286.597 951.135,-274.901 965.088,-265.972"/>
<polygon fill="midnightblue" stroke="midnightblue" points="967.033,-268.883 973.571,-260.546 963.261,-262.986 967.033,-268.883"/>
</g>
<!-- Node25 -->
<g id="node25" class="node"><title>Node25</title>
<polygon fill="white" stroke="#bfbfbf" points="667.674,-303.5 667.674,-323.5 719.779,-323.5 719.779,-303.5 667.674,-303.5"/>
<text text-anchor="middle" x="693.727" y="-310.5" font-family="Helvetica,sans-Serif" font-size="10.00">memory</text>
</g>
<!-- Node16&#45;&gt;Node25 -->
<g id="edge38" class="edge"><title>Node16&#45;&gt;Node25</title>
<path fill="none" stroke="midnightblue" d="M693.727,-366.297C693.727,-356.656 693.727,-344.1 693.727,-333.765"/>
<polygon fill="midnightblue" stroke="midnightblue" points="697.227,-333.665 693.727,-323.665 690.227,-333.665 697.227,-333.665"/>
</g>
<!-- Node26 -->
<g id="node26" class="node"><title>Node26</title>
<polygon fill="white" stroke="#bfbfbf" points="511.058,-303.5 511.058,-323.5 540.396,-323.5 540.396,-303.5 511.058,-303.5"/>
<text text-anchor="middle" x="525.727" y="-310.5" font-family="Helvetica,sans-Serif" font-size="10.00">set</text>
</g>
<!-- Node16&#45;&gt;Node26 -->
<g id="edge39" class="edge"><title>Node16&#45;&gt;Node26</title>
<path fill="none" stroke="midnightblue" d="M641.42,-366.442C613.248,-357.467 578.304,-344.918 548.727,-330 548.05,-329.658 547.369,-329.3 546.687,-328.929"/>
<polygon fill="midnightblue" stroke="midnightblue" points="548.387,-325.865 538.032,-323.622 544.728,-331.833 548.387,-325.865"/>
</g>
<!-- Node18 -->
<g id="node18" class="node"><title>Node18</title>
<g id="a_node18"><a xlink:href="ContainerBase_8h.html" target="_top" xlink:title="ContainerBase.h">
<polygon fill="white" stroke="black" points="622.494,-240.5 622.494,-260.5 712.96,-260.5 712.96,-240.5 622.494,-240.5"/>
<text text-anchor="middle" x="667.727" y="-247.5" font-family="Helvetica,sans-Serif" font-size="10.00">ContainerBase.h</text>
</a>
</g>
</g>
<!-- Node17&#45;&gt;Node18 -->
<g id="edge24" class="edge"><title>Node17&#45;&gt;Node18</title>
<path fill="none" stroke="midnightblue" d="M482.291,-303.499C488.596,-301.285 495.389,-298.982 501.727,-297 542.047,-284.39 588.46,-271.831 621.94,-263.113"/>
<polygon fill="midnightblue" stroke="midnightblue" points="623.091,-266.43 631.894,-260.535 621.335,-259.654 623.091,-266.43"/>
</g>
<!-- Node18&#45;&gt;Node4 -->
<g id="edge28" class="edge"><title>Node18&#45;&gt;Node4</title>
<path fill="none" stroke="midnightblue" d="M668.493,-240.295C670.482,-210.368 672.841,-114.451 627.727,-57 613.885,-39.3733 591.41,-28.0422 572.259,-21.0961"/>
<polygon fill="midnightblue" stroke="midnightblue" points="573.205,-17.7217 562.611,-17.8533 570.975,-24.3569 573.205,-17.7217"/>
</g>
<!-- Node18&#45;&gt;Node5 -->
<g id="edge27" class="edge"><title>Node18&#45;&gt;Node5</title>
<path fill="none" stroke="midnightblue" d="M622.269,-241.499C557.402,-229.939 445.231,-209.361 437.727,-204 382.44,-164.5 379.398,-122.956 395.727,-57 398.133,-47.2797 403.036,-37.3458 407.786,-29.25"/>
<polygon fill="midnightblue" stroke="midnightblue" points="410.791,-31.046 413.134,-20.7135 404.859,-27.3296 410.791,-31.046"/>
</g>
<!-- Node18&#45;&gt;Node11 -->
<g id="edge25" class="edge"><title>Node18&#45;&gt;Node11</title>
<path fill="none" stroke="midnightblue" d="M644.266,-240.499C621.526,-231.775 586.34,-218.276 557.518,-207.219"/>
<polygon fill="midnightblue" stroke="midnightblue" points="558.605,-203.887 548.014,-203.573 556.097,-210.422 558.605,-203.887"/>
</g>
<!-- Node18&#45;&gt;Node13 -->
<g id="edge26" class="edge"><title>Node18&#45;&gt;Node13</title>
<path fill="none" stroke="midnightblue" d="M663.854,-240.275C651.965,-211.96 615.824,-125.888 599.672,-87.4225"/>
<polygon fill="midnightblue" stroke="midnightblue" points="602.782,-85.7883 595.684,-77.9231 596.328,-88.4984 602.782,-85.7883"/>
</g>
<!-- Node18&#45;&gt;Node14 -->
<g id="edge29" class="edge"><title>Node18&#45;&gt;Node14</title>
<path fill="none" stroke="midnightblue" d="M707.073,-240.496C727.018,-233.826 749.713,-222.57 762.727,-204 800.104,-150.664 791.754,-67.6617 785.509,-30.5516"/>
<polygon fill="midnightblue" stroke="midnightblue" points="788.93,-29.8008 783.691,-20.5917 782.043,-31.0577 788.93,-29.8008"/>
</g>
<!-- Node19 -->
<g id="node19" class="node"><title>Node19</title>
<polygon fill="white" stroke="#bfbfbf" points="695.332,-177.5 695.332,-197.5 754.122,-197.5 754.122,-177.5 695.332,-177.5"/>
<text text-anchor="middle" x="724.727" y="-184.5" font-family="Helvetica,sans-Serif" font-size="10.00">functional</text>
</g>
<!-- Node18&#45;&gt;Node19 -->
<g id="edge30" class="edge"><title>Node18&#45;&gt;Node19</title>
<path fill="none" stroke="midnightblue" d="M676.138,-240.499C684.809,-231.219 698.53,-216.535 709.183,-205.134"/>
<polygon fill="midnightblue" stroke="midnightblue" points="712.012,-207.234 716.282,-197.538 706.897,-202.455 712.012,-207.234"/>
</g>
<!-- Node20&#45;&gt;Node14 -->
<g id="edge33" class="edge"><title>Node20&#45;&gt;Node14</title>
<path fill="none" stroke="midnightblue" d="M630.647,-303.349C688.549,-282.844 819.727,-231.632 819.727,-188.5 819.727,-188.5 819.727,-188.5 819.727,-123.5 819.727,-93.2019 814.972,-85.5134 804.727,-57 801.365,-47.6433 796.525,-37.7376 792.152,-29.5661"/>
<polygon fill="midnightblue" stroke="midnightblue" points="795.094,-27.6552 787.179,-20.6123 788.975,-31.0539 795.094,-27.6552"/>
</g>
<!-- Node20&#45;&gt;Node18 -->
<g id="edge32" class="edge"><title>Node20&#45;&gt;Node18</title>
<path fill="none" stroke="midnightblue" d="M613.17,-303.499C623.096,-294.039 638.914,-278.963 650.967,-267.474"/>
<polygon fill="midnightblue" stroke="midnightblue" points="653.421,-269.971 658.245,-260.538 648.591,-264.904 653.421,-269.971"/>
</g>
<!-- Node21 -->
<g id="node21" class="node"><title>Node21</title>
<polygon fill="white" stroke="#bfbfbf" points="565.34,-240.5 565.34,-260.5 604.114,-260.5 604.114,-240.5 565.34,-240.5"/>
<text text-anchor="middle" x="584.727" y="-247.5" font-family="Helvetica,sans-Serif" font-size="10.00">utility</text>
</g>
<!-- Node20&#45;&gt;Node21 -->
<g id="edge34" class="edge"><title>Node20&#45;&gt;Node21</title>
<path fill="none" stroke="midnightblue" d="M600.923,-303.499C598.201,-294.759 593.986,-281.227 590.539,-270.158"/>
<polygon fill="midnightblue" stroke="midnightblue" points="593.858,-269.044 587.542,-260.538 587.174,-271.126 593.858,-269.044"/>
</g>
<!-- Node22&#45;&gt;Node23 -->
<g id="edge36" class="edge"><title>Node22&#45;&gt;Node23</title>
<path fill="none" stroke="midnightblue" d="M814.794,-303.499C826.536,-293.948 845.315,-278.675 859.489,-267.147"/>
<polygon fill="midnightblue" stroke="midnightblue" points="862.066,-269.563 867.615,-260.538 857.649,-264.132 862.066,-269.563"/>
</g>
<!-- Node27&#45;&gt;Node18 -->
<g id="edge42" class="edge"><title>Node27&#45;&gt;Node18</title>
<path fill="none" stroke="midnightblue" d="M925.648,-300.666C866.96,-289.479 779.711,-272.847 723.269,-262.088"/>
<polygon fill="midnightblue" stroke="midnightblue" points="723.581,-258.584 713.102,-260.15 722.27,-265.46 723.581,-258.584"/>
</g>
<!-- Node27&#45;&gt;Node23 -->
<g id="edge44" class="edge"><title>Node27&#45;&gt;Node23</title>
<path fill="none" stroke="midnightblue" d="M960.783,-297.421C943.336,-287.657 920.776,-275.032 903.728,-265.491"/>
<polygon fill="midnightblue" stroke="midnightblue" points="905.327,-262.375 894.891,-260.546 901.908,-268.484 905.327,-262.375"/>
</g>
<!-- Node27&#45;&gt;Node24 -->
<g id="edge43" class="edge"><title>Node27&#45;&gt;Node24</title>
<path fill="none" stroke="midnightblue" d="M987.727,-297.421C987.727,-289.375 987.727,-279.386 987.727,-270.781"/>
<polygon fill="midnightblue" stroke="midnightblue" points="991.227,-270.546 987.727,-260.546 984.227,-270.546 991.227,-270.546"/>
</g>
<!-- Node28&#45;&gt;Node14 -->
<g id="edge49" class="edge"><title>Node28&#45;&gt;Node14</title>
<path fill="none" stroke="midnightblue" d="M1022.6,-366.497C1039.88,-357.76 1060.11,-345.411 1074.73,-330 1101.81,-301.438 1115.73,-290.861 1115.73,-251.5 1115.73,-251.5 1115.73,-251.5 1115.73,-123.5 1115.73,-60.1483 896.993,-25.9839 813.548,-15.2555"/>
<polygon fill="midnightblue" stroke="midnightblue" points="813.742,-11.7525 803.384,-13.9793 812.87,-18.698 813.742,-11.7525"/>
</g>
<!-- Node28&#45;&gt;Node18 -->
<g id="edge46" class="edge"><title>Node28&#45;&gt;Node18</title>
<path fill="none" stroke="midnightblue" d="M925.409,-375.159C879.54,-368.591 816.728,-355.526 766.727,-330 746.805,-319.829 746.148,-311.03 728.727,-297 715.771,-286.566 700.804,-275.39 688.938,-266.725"/>
<polygon fill="midnightblue" stroke="midnightblue" points="690.703,-263.681 680.553,-260.642 686.592,-269.347 690.703,-263.681"/>
</g>
<!-- Node28&#45;&gt;Node24 -->
<g id="edge48" class="edge"><title>Node28&#45;&gt;Node24</title>
<path fill="none" stroke="midnightblue" d="M1020.63,-366.476C1035.11,-357.992 1050.63,-345.871 1058.73,-330 1065.39,-316.935 1065.76,-309.868 1058.73,-297 1050.96,-282.806 1036.68,-272.388 1022.94,-265.131"/>
<polygon fill="midnightblue" stroke="midnightblue" points="1024.13,-261.819 1013.61,-260.605 1021.08,-268.118 1024.13,-261.819"/>
</g>
<!-- Node28&#45;&gt;Node27 -->
<g id="edge47" class="edge"><title>Node28&#45;&gt;Node27</title>
<path fill="none" stroke="midnightblue" d="M987.727,-366.297C987.727,-358.501 987.727,-348.799 987.727,-339.906"/>
<polygon fill="midnightblue" stroke="midnightblue" points="991.227,-339.643 987.727,-329.643 984.227,-339.643 991.227,-339.643"/>
</g>
</g>
</svg>
