<?xml version="1.0" encoding="UTF-8" standalone="no"?>
<!DOCTYPE svg PUBLIC "-//W3C//DTD SVG 1.1//EN"
 "http://www.w3.org/Graphics/SVG/1.1/DTD/svg11.dtd">
<!-- Generated by graphviz version 2.38.0 (20140413.2041)
 -->
<!-- Title: Objects/interface/Tau.h Pages: 1 -->
<svg width="1209pt" height="635pt"
 viewBox="0.00 0.00 1208.61 635.00" xmlns="http://www.w3.org/2000/svg" xmlns:xlink="http://www.w3.org/1999/xlink">
<g id="graph0" class="graph" transform="scale(1 1) rotate(0) translate(4 631)">
<title>Objects/interface/Tau.h</title>
<polygon fill="white" stroke="none" points="-4,4 -4,-631 1204.61,-631 1204.61,4 -4,4"/>
<!-- Node1 -->
<g id="node1" class="node"><title>Node1</title>
<polygon fill="#bfbfbf" stroke="black" points="722.933,-606.5 722.933,-626.5 842.293,-626.5 842.293,-606.5 722.933,-606.5"/>
<text text-anchor="middle" x="782.613" y="-613.5" font-family="Helvetica,sans-Serif" font-size="10.00">Objects/interface/Tau.h</text>
</g>
<!-- Node2 -->
<g id="node2" class="node"><title>Node2</title>
<g id="a_node2"><a xlink:href="Constants_8h.html" target="_top" xlink:title="Constants.h">
<polygon fill="white" stroke="black" points="344.937,-372.5 344.937,-392.5 414.288,-392.5 414.288,-372.5 344.937,-372.5"/>
<text text-anchor="middle" x="379.613" y="-379.5" font-family="Helvetica,sans-Serif" font-size="10.00">Constants.h</text>
</a>
</g>
</g>
<!-- Node1&#45;&gt;Node2 -->
<g id="edge1" class="edge"><title>Node1&#45;&gt;Node2</title>
<path fill="none" stroke="midnightblue" d="M766.815,-606.405C704.991,-570.815 479.183,-440.821 404.086,-397.589"/>
<polygon fill="midnightblue" stroke="midnightblue" points="405.715,-394.488 395.302,-392.532 402.222,-400.554 405.715,-394.488"/>
</g>
<!-- Node10 -->
<g id="node10" class="node"><title>Node10</title>
<g id="a_node10"><a xlink:href="ParticleM_8h.html" target="_top" xlink:title="ParticleM.h">
<polygon fill="white" stroke="black" points="719.613,-492.5 719.613,-512.5 785.613,-512.5 785.613,-492.5 719.613,-492.5"/>
<text text-anchor="middle" x="752.613" y="-499.5" font-family="Helvetica,sans-Serif" font-size="10.00">ParticleM.h</text>
</a>
</g>
</g>
<!-- Node1&#45;&gt;Node10 -->
<g id="edge9" class="edge"><title>Node1&#45;&gt;Node10</title>
<path fill="none" stroke="midnightblue" d="M779.657,-606.484C776.701,-597.339 772.106,-582.754 768.613,-570 764.251,-554.073 759.907,-535.827 756.848,-522.481"/>
<polygon fill="midnightblue" stroke="midnightblue" points="760.229,-521.562 754.609,-512.581 753.401,-523.107 760.229,-521.562"/>
</g>
<!-- Node17 -->
<g id="node17" class="node"><title>Node17</title>
<g id="a_node17"><a xlink:href="Container_8h.html" target="_top" xlink:title="../../Framework/interface\l/Container.h">
<polygon fill="white" stroke="black" points="661.719,-366.5 661.719,-398.5 785.506,-398.5 785.506,-366.5 661.719,-366.5"/>
<text text-anchor="start" x="669.719" y="-385.5" font-family="Helvetica,sans-Serif" font-size="10.00">../../Framework/interface</text>
<text text-anchor="middle" x="723.613" y="-373.5" font-family="Helvetica,sans-Serif" font-size="10.00">/Container.h</text>
</a>
</g>
</g>
<!-- Node1&#45;&gt;Node17 -->
<g id="edge56" class="edge"><title>Node1&#45;&gt;Node17</title>
<path fill="none" stroke="midnightblue" d="M773.688,-606.488C751.918,-583.729 696.697,-521.095 680.613,-456 678.374,-446.939 677.432,-443.774 680.613,-435 684.464,-424.378 691.571,-414.412 698.912,-406.129"/>
<polygon fill="midnightblue" stroke="midnightblue" points="701.581,-408.401 705.925,-398.738 696.503,-403.584 701.581,-408.401"/>
</g>
<!-- Node28 -->
<g id="node28" class="node"><title>Node28</title>
<g id="a_node28"><a xlink:href="Ref_8h.html" target="_top" xlink:title="../../Framework/interface\l/Ref.h">
<polygon fill="white" stroke="black" points="1010.72,-297.5 1010.72,-329.5 1134.51,-329.5 1134.51,-297.5 1010.72,-297.5"/>
<text text-anchor="start" x="1018.72" y="-316.5" font-family="Helvetica,sans-Serif" font-size="10.00">../../Framework/interface</text>
<text text-anchor="middle" x="1072.61" y="-304.5" font-family="Helvetica,sans-Serif" font-size="10.00">/Ref.h</text>
</a>
</g>
</g>
<!-- Node1&#45;&gt;Node28 -->
<g id="edge57" class="edge"><title>Node1&#45;&gt;Node28</title>
<path fill="none" stroke="midnightblue" d="M842.602,-607.349C936.509,-592.886 1107.61,-558.928 1107.61,-503.5 1107.61,-503.5 1107.61,-503.5 1107.61,-444.5 1107.61,-406.74 1093.67,-364.865 1083.39,-339.108"/>
<polygon fill="midnightblue" stroke="midnightblue" points="1086.58,-337.659 1079.53,-329.75 1080.11,-340.329 1086.58,-337.659"/>
</g>
<!-- Node29 -->
<g id="node29" class="node"><title>Node29</title>
<g id="a_node29"><a xlink:href="RefVector_8h.html" target="_top" xlink:title="../../Framework/interface\l/RefVector.h">
<polygon fill="white" stroke="black" points="955.719,-366.5 955.719,-398.5 1079.51,-398.5 1079.51,-366.5 955.719,-366.5"/>
<text text-anchor="start" x="963.719" y="-385.5" font-family="Helvetica,sans-Serif" font-size="10.00">../../Framework/interface</text>
<text text-anchor="middle" x="1017.61" y="-373.5" font-family="Helvetica,sans-Serif" font-size="10.00">/RefVector.h</text>
</a>
</g>
</g>
<!-- Node1&#45;&gt;Node29 -->
<g id="edge58" class="edge"><title>Node1&#45;&gt;Node29</title>
<path fill="none" stroke="midnightblue" d="M807.428,-606.465C845.261,-591.705 917.984,-559.348 965.613,-513 994.712,-484.684 1008,-437.943 1013.7,-409.036"/>
<polygon fill="midnightblue" stroke="midnightblue" points="1017.2,-409.369 1015.54,-398.906 1010.31,-408.123 1017.2,-409.369"/>
</g>
<!-- Node30 -->
<g id="node30" class="node"><title>Node30</title>
<g id="a_node30"><a xlink:href="GenParticle_8h.html" target="_top" xlink:title="GenParticle.h">
<polygon fill="white" stroke="black" points="777.329,-549.5 777.329,-569.5 853.897,-569.5 853.897,-549.5 777.329,-549.5"/>
<text text-anchor="middle" x="815.613" y="-556.5" font-family="Helvetica,sans-Serif" font-size="10.00">GenParticle.h</text>
</a>
</g>
</g>
<!-- Node1&#45;&gt;Node30 -->
<g id="edge59" class="edge"><title>Node1&#45;&gt;Node30</title>
<path fill="none" stroke="midnightblue" d="M788.062,-606.418C792.621,-598.821 799.261,-587.753 804.881,-578.387"/>
<polygon fill="midnightblue" stroke="midnightblue" points="807.902,-580.155 810.045,-569.779 801.899,-576.554 807.902,-580.155"/>
</g>
<!-- Node3 -->
<g id="node3" class="node"><title>Node3</title>
<polygon fill="white" stroke="#bfbfbf" points="490.111,-0.5 490.111,-20.5 541.114,-20.5 541.114,-0.5 490.111,-0.5"/>
<text text-anchor="middle" x="515.613" y="-7.5" font-family="Helvetica,sans-Serif" font-size="10.00">TTree.h</text>
</g>
<!-- Node2&#45;&gt;Node3 -->
<g id="edge2" class="edge"><title>Node2&#45;&gt;Node3</title>
<path fill="none" stroke="midnightblue" d="M344.592,-378.001C288.063,-371.643 180.325,-356.356 153.613,-330 128.061,-304.788 134.613,-287.396 134.613,-251.5 134.613,-251.5 134.613,-251.5 134.613,-123.5 134.613,-51.969 384.932,-22.8135 479.773,-14.3342"/>
<polygon fill="midnightblue" stroke="midnightblue" points="480.363,-17.7962 490.023,-13.4447 479.758,-10.8225 480.363,-17.7962"/>
</g>
<!-- Node4 -->
<g id="node4" class="node"><title>Node4</title>
<polygon fill="white" stroke="#bfbfbf" points="698.332,-0.5 698.332,-20.5 754.893,-20.5 754.893,-0.5 698.332,-0.5"/>
<text text-anchor="middle" x="726.613" y="-7.5" font-family="Helvetica,sans-Serif" font-size="10.00">TString.h</text>
</g>
<!-- Node2&#45;&gt;Node4 -->
<g id="edge3" class="edge"><title>Node2&#45;&gt;Node4</title>
<path fill="none" stroke="midnightblue" d="M388.847,-372.495C398.22,-362.837 412.478,-346.631 420.613,-330 436.385,-297.755 439.613,-287.396 439.613,-251.5 439.613,-251.5 439.613,-251.5 439.613,-186.5 439.613,-71.3072 610.238,-29.7127 688.368,-16.7047"/>
<polygon fill="midnightblue" stroke="midnightblue" points="688.984,-20.1508 698.309,-15.1214 687.883,-13.238 688.984,-20.1508"/>
</g>
<!-- Node5 -->
<g id="node5" class="node"><title>Node5</title>
<polygon fill="white" stroke="#bfbfbf" points="162.886,-303.5 162.886,-323.5 218.34,-323.5 218.34,-303.5 162.886,-303.5"/>
<text text-anchor="middle" x="190.613" y="-310.5" font-family="Helvetica,sans-Serif" font-size="10.00">Rtypes.h</text>
</g>
<!-- Node2&#45;&gt;Node5 -->
<g id="edge4" class="edge"><title>Node2&#45;&gt;Node5</title>
<path fill="none" stroke="midnightblue" d="M350.826,-372.411C320.098,-362.555 270.09,-346.071 227.613,-330 225.496,-329.199 223.32,-328.352 221.135,-327.483"/>
<polygon fill="midnightblue" stroke="midnightblue" points="222.223,-324.147 211.642,-323.609 219.579,-330.628 222.223,-324.147"/>
</g>
<!-- Node6 -->
<g id="node6" class="node"><title>Node6</title>
<polygon fill="white" stroke="#bfbfbf" points="236.27,-303.5 236.27,-323.5 328.956,-323.5 328.956,-303.5 236.27,-303.5"/>
<text text-anchor="middle" x="282.613" y="-310.5" font-family="Helvetica,sans-Serif" font-size="10.00">TLorentzVector.h</text>
</g>
<!-- Node2&#45;&gt;Node6 -->
<g id="edge5" class="edge"><title>Node2&#45;&gt;Node6</title>
<path fill="none" stroke="midnightblue" d="M366.531,-372.464C350.549,-361.425 323.285,-342.593 304.182,-329.398"/>
<polygon fill="midnightblue" stroke="midnightblue" points="306.015,-326.41 295.797,-323.607 302.036,-332.17 306.015,-326.41"/>
</g>
<!-- Node7 -->
<g id="node7" class="node"><title>Node7</title>
<polygon fill="white" stroke="#bfbfbf" points="347.162,-303.5 347.162,-323.5 412.063,-323.5 412.063,-303.5 347.162,-303.5"/>
<text text-anchor="middle" x="379.613" y="-310.5" font-family="Helvetica,sans-Serif" font-size="10.00">TVector2.h</text>
</g>
<!-- Node2&#45;&gt;Node7 -->
<g id="edge6" class="edge"><title>Node2&#45;&gt;Node7</title>
<path fill="none" stroke="midnightblue" d="M379.613,-372.464C379.613,-362.629 379.613,-346.609 379.613,-333.9"/>
<polygon fill="midnightblue" stroke="midnightblue" points="383.113,-333.823 379.613,-323.823 376.113,-333.823 383.113,-333.823"/>
</g>
<!-- Node8 -->
<g id="node8" class="node"><title>Node8</title>
<polygon fill="white" stroke="#bfbfbf" points="-5.68434e-14,-303.5 -5.68434e-14,-323.5 43.226,-323.5 43.226,-303.5 -5.68434e-14,-303.5"/>
<text text-anchor="middle" x="21.613" y="-310.5" font-family="Helvetica,sans-Serif" font-size="10.00">cmath</text>
</g>
<!-- Node2&#45;&gt;Node8 -->
<g id="edge7" class="edge"><title>Node2&#45;&gt;Node8</title>
<path fill="none" stroke="midnightblue" d="M344.766,-379.696C283.904,-375.746 154.878,-363.799 51.613,-330 49.7326,-329.385 47.8266,-328.662 45.9344,-327.871"/>
<polygon fill="midnightblue" stroke="midnightblue" points="47.3068,-324.648 36.7712,-323.529 44.3094,-330.974 47.3068,-324.648"/>
</g>
<!-- Node9 -->
<g id="node9" class="node"><title>Node9</title>
<polygon fill="white" stroke="#bfbfbf" points="60.8905,-303.5 60.8905,-323.5 106.335,-323.5 106.335,-303.5 60.8905,-303.5"/>
<text text-anchor="middle" x="83.613" y="-310.5" font-family="Helvetica,sans-Serif" font-size="10.00">cstring</text>
</g>
<!-- Node2&#45;&gt;Node9 -->
<g id="edge8" class="edge"><title>Node2&#45;&gt;Node9</title>
<path fill="none" stroke="midnightblue" d="M344.715,-376.833C294.452,-369.602 199.096,-353.977 120.613,-330 118.017,-329.207 115.355,-328.296 112.705,-327.322"/>
<polygon fill="midnightblue" stroke="midnightblue" points="113.9,-324.031 103.314,-323.612 111.329,-330.542 113.9,-324.031"/>
</g>
<!-- Node10&#45;&gt;Node2 -->
<g id="edge10" class="edge"><title>Node10&#45;&gt;Node2</title>
<path fill="none" stroke="midnightblue" d="M734.658,-492.429C706.49,-478.49 649.925,-451.672 599.613,-435 540.196,-415.311 469.374,-400.158 424.45,-391.536"/>
<polygon fill="midnightblue" stroke="midnightblue" points="424.918,-388.062 414.442,-389.641 423.616,-394.94 424.918,-388.062"/>
</g>
<!-- Node11 -->
<g id="node11" class="node"><title>Node11</title>
<g id="a_node11"><a xlink:href="Particle_8h.html" target="_top" xlink:title="Particle.h">
<polygon fill="white" stroke="black" points="689.777,-435.5 689.777,-455.5 747.448,-455.5 747.448,-435.5 689.777,-435.5"/>
<text text-anchor="middle" x="718.613" y="-442.5" font-family="Helvetica,sans-Serif" font-size="10.00">Particle.h</text>
</a>
</g>
</g>
<!-- Node10&#45;&gt;Node11 -->
<g id="edge11" class="edge"><title>Node10&#45;&gt;Node11</title>
<path fill="none" stroke="midnightblue" d="M746.999,-492.418C742.302,-484.821 735.46,-473.753 729.67,-464.387"/>
<polygon fill="midnightblue" stroke="midnightblue" points="732.585,-462.445 724.349,-455.779 726.631,-466.126 732.585,-462.445"/>
</g>
<!-- Node10&#45;&gt;Node17 -->
<g id="edge53" class="edge"><title>Node10&#45;&gt;Node17</title>
<path fill="none" stroke="midnightblue" d="M755.112,-492.244C758.206,-479.19 762.4,-454.757 756.613,-435 753.689,-425.016 748.17,-415.131 742.47,-406.732"/>
<polygon fill="midnightblue" stroke="midnightblue" points="745.265,-404.624 736.567,-398.575 739.594,-408.728 745.265,-404.624"/>
</g>
<!-- Node10&#45;&gt;Node28 -->
<g id="edge54" class="edge"><title>Node10&#45;&gt;Node28</title>
<path fill="none" stroke="midnightblue" d="M761.107,-492.19C783.654,-467.999 847.801,-402.504 913.613,-366 940.624,-351.018 972.663,-339.591 1000.88,-331.353"/>
<polygon fill="midnightblue" stroke="midnightblue" points="1002.02,-334.668 1010.69,-328.572 1000.11,-327.933 1002.02,-334.668"/>
</g>
<!-- Node10&#45;&gt;Node29 -->
<g id="edge55" class="edge"><title>Node10&#45;&gt;Node29</title>
<path fill="none" stroke="midnightblue" d="M776.602,-492.341C799.6,-483.442 835.214,-469.355 865.613,-456 904.426,-438.949 948.036,-417.954 978.556,-402.954"/>
<polygon fill="midnightblue" stroke="midnightblue" points="980.165,-406.063 987.588,-398.502 977.071,-399.784 980.165,-406.063"/>
</g>
<!-- Node11&#45;&gt;Node2 -->
<g id="edge12" class="edge"><title>Node11&#45;&gt;Node2</title>
<path fill="none" stroke="midnightblue" d="M689.509,-437.867C684.869,-436.868 680.115,-435.879 675.613,-435 581.813,-416.686 557.719,-415.672 463.613,-399 450.824,-396.734 436.953,-394.205 424.238,-391.857"/>
<polygon fill="midnightblue" stroke="midnightblue" points="424.802,-388.402 414.331,-390.021 423.526,-395.284 424.802,-388.402"/>
</g>
<!-- Node12 -->
<g id="node12" class="node"><title>Node12</title>
<g id="a_node12"><a xlink:href="ContainerElement_8h.html" target="_top" xlink:title="../../Framework/interface\l/ContainerElement.h">
<polygon fill="white" stroke="black" points="564.719,-171.5 564.719,-203.5 688.506,-203.5 688.506,-171.5 564.719,-171.5"/>
<text text-anchor="start" x="572.719" y="-190.5" font-family="Helvetica,sans-Serif" font-size="10.00">../../Framework/interface</text>
<text text-anchor="middle" x="626.613" y="-178.5" font-family="Helvetica,sans-Serif" font-size="10.00">/ContainerElement.h</text>
</a>
</g>
</g>
<!-- Node11&#45;&gt;Node12 -->
<g id="edge13" class="edge"><title>Node11&#45;&gt;Node12</title>
<path fill="none" stroke="midnightblue" d="M689.718,-439.459C639.942,-429.044 539.265,-399.99 496.613,-330 466.686,-280.892 536.015,-233.757 584.493,-208.207"/>
<polygon fill="midnightblue" stroke="midnightblue" points="586.279,-211.224 593.574,-203.541 583.08,-204.998 586.279,-211.224"/>
</g>
<!-- Node11&#45;&gt;Node17 -->
<g id="edge25" class="edge"><title>Node11&#45;&gt;Node17</title>
<path fill="none" stroke="midnightblue" d="M719.351,-435.499C719.927,-428.468 720.758,-418.336 721.533,-408.879"/>
<polygon fill="midnightblue" stroke="midnightblue" points="725.039,-408.944 722.368,-398.691 718.062,-408.372 725.039,-408.944"/>
</g>
<!-- Node11&#45;&gt;Node28 -->
<g id="edge44" class="edge"><title>Node11&#45;&gt;Node28</title>
<path fill="none" stroke="midnightblue" d="M734.961,-435.439C750.585,-426.611 774.645,-412.573 794.613,-399 814.536,-385.457 815.768,-376.155 837.613,-366 845.156,-362.494 934.33,-343.405 1000.61,-329.487"/>
<polygon fill="midnightblue" stroke="midnightblue" points="1001.55,-332.865 1010.62,-327.387 1000.11,-326.014 1001.55,-332.865"/>
</g>
<!-- Node11&#45;&gt;Node29 -->
<g id="edge48" class="edge"><title>Node11&#45;&gt;Node29</title>
<path fill="none" stroke="midnightblue" d="M747.554,-438.596C792.906,-429.343 882.085,-411.149 945.549,-398.202"/>
<polygon fill="midnightblue" stroke="midnightblue" points="946.404,-401.6 955.503,-396.171 945.005,-394.741 946.404,-401.6"/>
</g>
<!-- Node12&#45;&gt;Node3 -->
<g id="edge21" class="edge"><title>Node12&#45;&gt;Node3</title>
<path fill="none" stroke="midnightblue" d="M582.174,-171.496C564.691,-163.378 546.091,-151.543 534.613,-135 512.746,-103.482 512.023,-56.5801 513.666,-30.5853"/>
<polygon fill="midnightblue" stroke="midnightblue" points="517.161,-30.7888 514.491,-20.5361 510.185,-30.2164 517.161,-30.7888"/>
</g>
<!-- Node12&#45;&gt;Node4 -->
<g id="edge22" class="edge"><title>Node12&#45;&gt;Node4</title>
<path fill="none" stroke="midnightblue" d="M647.715,-171.363C671.782,-152.628 709.721,-118.229 724.613,-78 730.189,-62.9367 730.297,-44.6157 729.233,-31.0212"/>
<polygon fill="midnightblue" stroke="midnightblue" points="732.693,-30.4632 728.157,-20.8887 725.732,-31.2024 732.693,-30.4632"/>
</g>
<!-- Node13 -->
<g id="node13" class="node"><title>Node13</title>
<g id="a_node13"><a xlink:href="Object_8h.html" target="_top" xlink:title="Object.h">
<polygon fill="white" stroke="black" points="543.996,-114.5 543.996,-134.5 597.229,-134.5 597.229,-114.5 543.996,-114.5"/>
<text text-anchor="middle" x="570.613" y="-121.5" font-family="Helvetica,sans-Serif" font-size="10.00">Object.h</text>
</a>
</g>
</g>
<!-- Node12&#45;&gt;Node13 -->
<g id="edge14" class="edge"><title>Node12&#45;&gt;Node13</title>
<path fill="none" stroke="midnightblue" d="M612.77,-171.421C604.554,-162.471 594.13,-151.116 585.703,-141.937"/>
<polygon fill="midnightblue" stroke="midnightblue" points="588.258,-139.545 578.917,-134.546 583.102,-144.279 588.258,-139.545"/>
</g>
<!-- Node14 -->
<g id="node14" class="node"><title>Node14</title>
<g id="a_node14"><a xlink:href="IOUtils_8h.html" target="_top" xlink:title="IOUtils.h">
<polygon fill="white" stroke="black" points="661.447,-57.5 661.447,-77.5 715.779,-77.5 715.779,-57.5 661.447,-57.5"/>
<text text-anchor="middle" x="688.613" y="-64.5" font-family="Helvetica,sans-Serif" font-size="10.00">IOUtils.h</text>
</a>
</g>
</g>
<!-- Node12&#45;&gt;Node14 -->
<g id="edge20" class="edge"><title>Node12&#45;&gt;Node14</title>
<path fill="none" stroke="midnightblue" d="M637.386,-171.111C644.182,-161.074 652.909,-147.552 659.613,-135 667.947,-119.396 675.866,-100.897 681.316,-87.3762"/>
<polygon fill="midnightblue" stroke="midnightblue" points="684.699,-88.3375 685.118,-77.7509 678.189,-85.7654 684.699,-88.3375"/>
</g>
<!-- Node15 -->
<g id="node15" class="node"><title>Node15</title>
<polygon fill="white" stroke="#bfbfbf" points="847,-0.5 847,-20.5 890.226,-20.5 890.226,-0.5 847,-0.5"/>
<text text-anchor="middle" x="868.613" y="-7.5" font-family="Helvetica,sans-Serif" font-size="10.00">vector</text>
</g>
<!-- Node12&#45;&gt;Node15 -->
<g id="edge23" class="edge"><title>Node12&#45;&gt;Node15</title>
<path fill="none" stroke="midnightblue" d="M652.832,-171.464C669.65,-161.567 691.782,-148.07 710.613,-135 762.938,-98.6839 821.165,-51.2035 850.138,-27.0609"/>
<polygon fill="midnightblue" stroke="midnightblue" points="852.405,-29.7279 857.829,-20.6268 847.913,-24.3589 852.405,-29.7279"/>
</g>
<!-- Node16 -->
<g id="node16" class="node"><title>Node16</title>
<polygon fill="white" stroke="#bfbfbf" points="614.889,-114.5 614.889,-134.5 650.336,-134.5 650.336,-114.5 614.889,-114.5"/>
<text text-anchor="middle" x="632.613" y="-121.5" font-family="Helvetica,sans-Serif" font-size="10.00">map</text>
</g>
<!-- Node12&#45;&gt;Node16 -->
<g id="edge24" class="edge"><title>Node12&#45;&gt;Node16</title>
<path fill="none" stroke="midnightblue" d="M628.096,-171.421C628.888,-163.375 629.87,-153.386 630.717,-144.781"/>
<polygon fill="midnightblue" stroke="midnightblue" points="634.227,-144.841 631.723,-134.546 627.261,-144.155 634.227,-144.841"/>
</g>
<!-- Node13&#45;&gt;Node3 -->
<g id="edge19" class="edge"><title>Node13&#45;&gt;Node3</title>
<path fill="none" stroke="midnightblue" d="M566.112,-114.335C557.088,-95.9578 536.628,-54.2947 524.705,-30.0149"/>
<polygon fill="midnightblue" stroke="midnightblue" points="527.726,-28.2254 520.176,-20.7921 521.442,-31.311 527.726,-28.2254"/>
</g>
<!-- Node13&#45;&gt;Node14 -->
<g id="edge15" class="edge"><title>Node13&#45;&gt;Node14</title>
<path fill="none" stroke="midnightblue" d="M590.098,-114.418C609.143,-105.541 638.355,-91.9253 660.029,-81.823"/>
<polygon fill="midnightblue" stroke="midnightblue" points="661.514,-84.9927 669.099,-77.5956 658.556,-78.648 661.514,-84.9927"/>
</g>
<!-- Node14&#45;&gt;Node3 -->
<g id="edge17" class="edge"><title>Node14&#45;&gt;Node3</title>
<path fill="none" stroke="midnightblue" d="M661.201,-57.7851C631.326,-48.2873 583.438,-33.0629 550.806,-22.6885"/>
<polygon fill="midnightblue" stroke="midnightblue" points="551.796,-19.3306 541.205,-19.6362 549.675,-26.0016 551.796,-19.3306"/>
</g>
<!-- Node14&#45;&gt;Node4 -->
<g id="edge16" class="edge"><title>Node14&#45;&gt;Node4</title>
<path fill="none" stroke="midnightblue" d="M694.888,-57.4179C700.192,-49.7415 707.943,-38.5217 714.457,-29.0945"/>
<polygon fill="midnightblue" stroke="midnightblue" points="717.397,-30.9963 720.202,-20.7795 711.638,-27.0173 717.397,-30.9963"/>
</g>
<!-- Node14&#45;&gt;Node15 -->
<g id="edge18" class="edge"><title>Node14&#45;&gt;Node15</title>
<path fill="none" stroke="midnightblue" d="M715.951,-58.1467C748.483,-48.2064 802.699,-31.6402 837.003,-21.1586"/>
<polygon fill="midnightblue" stroke="midnightblue" points="838.423,-24.3845 846.964,-18.1151 836.377,-17.6901 838.423,-24.3845"/>
</g>
<!-- Node18 -->
<g id="node18" class="node"><title>Node18</title>
<g id="a_node18"><a xlink:href="ArrayBase_8h.html" target="_top" xlink:title="ArrayBase.h">
<polygon fill="white" stroke="black" points="506.107,-303.5 506.107,-323.5 577.118,-323.5 577.118,-303.5 506.107,-303.5"/>
<text text-anchor="middle" x="541.613" y="-310.5" font-family="Helvetica,sans-Serif" font-size="10.00">ArrayBase.h</text>
</a>
</g>
</g>
<!-- Node17&#45;&gt;Node18 -->
<g id="edge26" class="edge"><title>Node17&#45;&gt;Node18</title>
<path fill="none" stroke="midnightblue" d="M682.769,-366.464C650.566,-354.609 606.177,-338.268 575.826,-327.095"/>
<polygon fill="midnightblue" stroke="midnightblue" points="576.703,-323.688 566.11,-323.518 574.285,-330.257 576.703,-323.688"/>
</g>
<!-- Node21 -->
<g id="node21" class="node"><title>Node21</title>
<g id="a_node21"><a xlink:href="CollectionBase_8h.html" target="_top" xlink:title="CollectionBase.h">
<polygon fill="white" stroke="black" points="713.105,-303.5 713.105,-323.5 804.121,-323.5 804.121,-303.5 713.105,-303.5"/>
<text text-anchor="middle" x="758.613" y="-310.5" font-family="Helvetica,sans-Serif" font-size="10.00">CollectionBase.h</text>
</a>
</g>
</g>
<!-- Node17&#45;&gt;Node21 -->
<g id="edge34" class="edge"><title>Node17&#45;&gt;Node21</title>
<path fill="none" stroke="midnightblue" d="M731.555,-366.297C736.752,-356.349 743.57,-343.296 749.063,-332.782"/>
<polygon fill="midnightblue" stroke="midnightblue" points="752.297,-334.149 753.826,-323.665 746.093,-330.908 752.297,-334.149"/>
</g>
<!-- Node23 -->
<g id="node23" class="node"><title>Node23</title>
<g id="a_node23"><a xlink:href="Iterator_8h.html" target="_top" xlink:title="Iterator.h">
<polygon fill="white" stroke="black" points="860.608,-303.5 860.608,-323.5 916.618,-323.5 916.618,-303.5 860.608,-303.5"/>
<text text-anchor="middle" x="888.613" y="-310.5" font-family="Helvetica,sans-Serif" font-size="10.00">Iterator.h</text>
</a>
</g>
</g>
<!-- Node17&#45;&gt;Node23 -->
<g id="edge38" class="edge"><title>Node17&#45;&gt;Node23</title>
<path fill="none" stroke="midnightblue" d="M760.642,-366.464C789.583,-354.712 829.381,-338.552 856.875,-327.388"/>
<polygon fill="midnightblue" stroke="midnightblue" points="858.456,-330.523 866.405,-323.518 855.822,-324.037 858.456,-330.523"/>
</g>
<!-- Node24 -->
<g id="node24" class="node"><title>Node24</title>
<polygon fill="white" stroke="#bfbfbf" points="972.552,-240.5 972.552,-260.5 1034.67,-260.5 1034.67,-240.5 972.552,-240.5"/>
<text text-anchor="middle" x="1003.61" y="-247.5" font-family="Helvetica,sans-Serif" font-size="10.00">type_traits</text>
</g>
<!-- Node17&#45;&gt;Node24 -->
<g id="edge43" class="edge"><title>Node17&#45;&gt;Node24</title>
<path fill="none" stroke="midnightblue" d="M785.604,-367.452C840.332,-354.764 913.299,-337.036 925.613,-330 952.745,-314.497 976.886,-287.006 990.885,-269.018"/>
<polygon fill="midnightblue" stroke="midnightblue" points="994.014,-270.682 997.243,-260.591 988.426,-266.466 994.014,-270.682"/>
</g>
<!-- Node25 -->
<g id="node25" class="node"><title>Node25</title>
<polygon fill="white" stroke="#bfbfbf" points="1052.22,-240.5 1052.22,-260.5 1111.01,-260.5 1111.01,-240.5 1052.22,-240.5"/>
<text text-anchor="middle" x="1081.61" y="-247.5" font-family="Helvetica,sans-Serif" font-size="10.00">stdexcept</text>
</g>
<!-- Node17&#45;&gt;Node25 -->
<g id="edge40" class="edge"><title>Node17&#45;&gt;Node25</title>
<path fill="none" stroke="midnightblue" d="M785.66,-367.108C787.328,-366.734 788.982,-366.363 790.613,-366 865.147,-349.394 889.293,-362.029 958.613,-330 980.482,-319.895 981.54,-310.32 1001.61,-297 1018.81,-285.587 1039.03,-274.106 1054.83,-265.532"/>
<polygon fill="midnightblue" stroke="midnightblue" points="1056.88,-268.406 1064.04,-260.595 1053.57,-262.237 1056.88,-268.406"/>
</g>
<!-- Node26 -->
<g id="node26" class="node"><title>Node26</title>
<polygon fill="white" stroke="#bfbfbf" points="595.56,-303.5 595.56,-323.5 647.665,-323.5 647.665,-303.5 595.56,-303.5"/>
<text text-anchor="middle" x="621.613" y="-310.5" font-family="Helvetica,sans-Serif" font-size="10.00">memory</text>
</g>
<!-- Node17&#45;&gt;Node26 -->
<g id="edge41" class="edge"><title>Node17&#45;&gt;Node26</title>
<path fill="none" stroke="midnightblue" d="M700.722,-366.464C683.773,-355.331 660.8,-340.241 643.978,-329.191"/>
<polygon fill="midnightblue" stroke="midnightblue" points="645.622,-326.083 635.342,-323.518 641.778,-331.934 645.622,-326.083"/>
</g>
<!-- Node27 -->
<g id="node27" class="node"><title>Node27</title>
<polygon fill="white" stroke="#bfbfbf" points="665.944,-303.5 665.944,-323.5 695.282,-323.5 695.282,-303.5 665.944,-303.5"/>
<text text-anchor="middle" x="680.613" y="-310.5" font-family="Helvetica,sans-Serif" font-size="10.00">set</text>
</g>
<!-- Node17&#45;&gt;Node27 -->
<g id="edge42" class="edge"><title>Node17&#45;&gt;Node27</title>
<path fill="none" stroke="midnightblue" d="M713.856,-366.297C707.34,-356.144 698.748,-342.756 691.931,-332.135"/>
<polygon fill="midnightblue" stroke="midnightblue" points="694.842,-330.19 686.495,-323.665 688.95,-333.971 694.842,-330.19"/>
</g>
<!-- Node19 -->
<g id="node19" class="node"><title>Node19</title>
<g id="a_node19"><a xlink:href="ContainerBase_8h.html" target="_top" xlink:title="ContainerBase.h">
<polygon fill="white" stroke="black" points="747.38,-240.5 747.38,-260.5 837.846,-260.5 837.846,-240.5 747.38,-240.5"/>
<text text-anchor="middle" x="792.613" y="-247.5" font-family="Helvetica,sans-Serif" font-size="10.00">ContainerBase.h</text>
</a>
</g>
</g>
<!-- Node18&#45;&gt;Node19 -->
<g id="edge27" class="edge"><title>Node18&#45;&gt;Node19</title>
<path fill="none" stroke="midnightblue" d="M566.21,-303.46C572.791,-301.197 579.932,-298.882 586.613,-297 637.095,-282.781 695.554,-270.233 737.272,-261.936"/>
<polygon fill="midnightblue" stroke="midnightblue" points="738.102,-265.34 747.236,-259.971 736.748,-258.472 738.102,-265.34"/>
</g>
<!-- Node19&#45;&gt;Node3 -->
<g id="edge31" class="edge"><title>Node19&#45;&gt;Node3</title>
<path fill="none" stroke="midnightblue" d="M747.278,-241.315C679.557,-229.015 559.451,-206.891 555.613,-204 500.93,-162.815 505.128,-125.31 509.613,-57 510.187,-48.2544 511.376,-38.6238 512.545,-30.4835"/>
<polygon fill="midnightblue" stroke="midnightblue" points="516.015,-30.9441 514.067,-20.5298 509.095,-29.8858 516.015,-30.9441"/>
</g>
<!-- Node19&#45;&gt;Node4 -->
<g id="edge30" class="edge"><title>Node19&#45;&gt;Node4</title>
<path fill="none" stroke="midnightblue" d="M790.386,-240.223C783.641,-212.333 762.611,-126.862 741.613,-57 738.949,-48.1384 735.768,-38.3861 733.022,-30.1907"/>
<polygon fill="midnightblue" stroke="midnightblue" points="736.269,-28.8663 729.743,-20.5198 729.64,-31.1141 736.269,-28.8663"/>
</g>
<!-- Node19&#45;&gt;Node12 -->
<g id="edge28" class="edge"><title>Node19&#45;&gt;Node12</title>
<path fill="none" stroke="midnightblue" d="M768.119,-240.499C744.275,-231.737 707.324,-218.159 677.16,-207.074"/>
<polygon fill="midnightblue" stroke="midnightblue" points="678.224,-203.737 667.63,-203.573 675.809,-210.307 678.224,-203.737"/>
</g>
<!-- Node19&#45;&gt;Node14 -->
<g id="edge29" class="edge"><title>Node19&#45;&gt;Node14</title>
<path fill="none" stroke="midnightblue" d="M787.313,-240.275C770.974,-211.839 721.164,-125.152 699.204,-86.932"/>
<polygon fill="midnightblue" stroke="midnightblue" points="702.044,-84.85 694.027,-77.9231 695.975,-88.3375 702.044,-84.85"/>
</g>
<!-- Node19&#45;&gt;Node15 -->
<g id="edge32" class="edge"><title>Node19&#45;&gt;Node15</title>
<path fill="none" stroke="midnightblue" d="M795.499,-240.461C806.668,-205.485 847.189,-78.5915 862.604,-30.3175"/>
<polygon fill="midnightblue" stroke="midnightblue" points="866.016,-31.1391 865.724,-20.5483 859.347,-29.0097 866.016,-31.1391"/>
</g>
<!-- Node20 -->
<g id="node20" class="node"><title>Node20</title>
<polygon fill="white" stroke="#bfbfbf" points="858.217,-177.5 858.217,-197.5 917.008,-197.5 917.008,-177.5 858.217,-177.5"/>
<text text-anchor="middle" x="887.613" y="-184.5" font-family="Helvetica,sans-Serif" font-size="10.00">functional</text>
</g>
<!-- Node19&#45;&gt;Node20 -->
<g id="edge33" class="edge"><title>Node19&#45;&gt;Node20</title>
<path fill="none" stroke="midnightblue" d="M806.631,-240.499C821.926,-230.678 846.645,-214.806 864.755,-203.177"/>
<polygon fill="midnightblue" stroke="midnightblue" points="867.014,-205.886 873.538,-197.538 863.232,-199.996 867.014,-205.886"/>
</g>
<!-- Node21&#45;&gt;Node15 -->
<g id="edge36" class="edge"><title>Node21&#45;&gt;Node15</title>
<path fill="none" stroke="midnightblue" d="M803.165,-303.391C858.191,-289.235 944.613,-256.223 944.613,-188.5 944.613,-188.5 944.613,-188.5 944.613,-123.5 944.613,-83.3176 910.703,-46.8439 888.185,-27.0531"/>
<polygon fill="midnightblue" stroke="midnightblue" points="890.383,-24.328 880.488,-20.5405 885.861,-29.6718 890.383,-24.328"/>
</g>
<!-- Node21&#45;&gt;Node19 -->
<g id="edge35" class="edge"><title>Node21&#45;&gt;Node19</title>
<path fill="none" stroke="midnightblue" d="M763.63,-303.499C768.602,-294.579 776.356,-280.667 782.593,-269.477"/>
<polygon fill="midnightblue" stroke="midnightblue" points="785.764,-270.977 787.576,-260.538 779.65,-267.568 785.764,-270.977"/>
</g>
<!-- Node22 -->
<g id="node22" class="node"><title>Node22</title>
<polygon fill="white" stroke="#bfbfbf" points="690.226,-240.5 690.226,-260.5 729,-260.5 729,-240.5 690.226,-240.5"/>
<text text-anchor="middle" x="709.613" y="-247.5" font-family="Helvetica,sans-Serif" font-size="10.00">utility</text>
</g>
<!-- Node21&#45;&gt;Node22 -->
<g id="edge37" class="edge"><title>Node21&#45;&gt;Node22</title>
<path fill="none" stroke="midnightblue" d="M751.383,-303.499C744,-294.309 732.361,-279.82 723.243,-268.467"/>
<polygon fill="midnightblue" stroke="midnightblue" points="725.864,-266.142 716.873,-260.538 720.407,-270.526 725.864,-266.142"/>
</g>
<!-- Node23&#45;&gt;Node24 -->
<g id="edge39" class="edge"><title>Node23&#45;&gt;Node24</title>
<path fill="none" stroke="midnightblue" d="M905.582,-303.499C924.606,-293.408 955.676,-276.928 977.734,-265.227"/>
<polygon fill="midnightblue" stroke="midnightblue" points="979.381,-268.316 986.575,-260.538 976.1,-262.132 979.381,-268.316"/>
</g>
<!-- Node28&#45;&gt;Node19 -->
<g id="edge45" class="edge"><title>Node28&#45;&gt;Node19</title>
<path fill="none" stroke="midnightblue" d="M1010.47,-298.962C960.489,-288.073 891.091,-272.954 844.158,-262.729"/>
<polygon fill="midnightblue" stroke="midnightblue" points="844.722,-259.27 834.206,-260.561 843.232,-266.11 844.722,-259.27"/>
</g>
<!-- Node28&#45;&gt;Node24 -->
<g id="edge47" class="edge"><title>Node28&#45;&gt;Node24</title>
<path fill="none" stroke="midnightblue" d="M1055.56,-297.421C1045.23,-288.29 1032.07,-276.657 1021.58,-267.384"/>
<polygon fill="midnightblue" stroke="midnightblue" points="1023.66,-264.547 1013.85,-260.546 1019.02,-269.792 1023.66,-264.547"/>
</g>
<!-- Node28&#45;&gt;Node25 -->
<g id="edge46" class="edge"><title>Node28&#45;&gt;Node25</title>
<path fill="none" stroke="midnightblue" d="M1074.84,-297.421C1076.04,-289.285 1077.53,-279.161 1078.81,-270.491"/>
<polygon fill="midnightblue" stroke="midnightblue" points="1082.28,-270.95 1080.28,-260.546 1075.36,-269.928 1082.28,-270.95"/>
</g>
<!-- Node29&#45;&gt;Node15 -->
<g id="edge52" class="edge"><title>Node29&#45;&gt;Node15</title>
<path fill="none" stroke="midnightblue" d="M1079.8,-369.61C1106.76,-361.94 1137.21,-349.597 1159.61,-330 1189.24,-304.085 1200.61,-290.861 1200.61,-251.5 1200.61,-251.5 1200.61,-251.5 1200.61,-123.5 1200.61,-60.562 983.691,-26.1934 900.531,-15.3303"/>
<polygon fill="midnightblue" stroke="midnightblue" points="900.759,-11.8311 890.396,-14.0369 899.873,-18.7747 900.759,-11.8311"/>
</g>
<!-- Node29&#45;&gt;Node19 -->
<g id="edge49" class="edge"><title>Node29&#45;&gt;Node19</title>
<path fill="none" stroke="midnightblue" d="M955.523,-371.816C922.43,-364.402 882.328,-351.63 851.613,-330 829.267,-314.263 811.771,-287.452 801.814,-269.608"/>
<polygon fill="midnightblue" stroke="midnightblue" points="804.876,-267.912 797.075,-260.744 798.703,-271.213 804.876,-267.912"/>
</g>
<!-- Node29&#45;&gt;Node25 -->
<g id="edge51" class="edge"><title>Node29&#45;&gt;Node25</title>
<path fill="none" stroke="midnightblue" d="M1079.67,-371.411C1103.82,-364.123 1129.12,-351.58 1143.61,-330 1151.79,-317.824 1150.24,-310.084 1143.61,-297 1136.77,-283.486 1123.81,-273.013 1111.51,-265.541"/>
<polygon fill="midnightblue" stroke="midnightblue" points="1113.19,-262.473 1102.76,-260.629 1109.76,-268.576 1113.19,-262.473"/>
</g>
<!-- Node29&#45;&gt;Node28 -->
<g id="edge50" class="edge"><title>Node29&#45;&gt;Node28</title>
<path fill="none" stroke="midnightblue" d="M1030.09,-366.297C1037.06,-357.816 1045.87,-347.079 1053.67,-337.582"/>
<polygon fill="midnightblue" stroke="midnightblue" points="1056.54,-339.593 1060.18,-329.643 1051.13,-335.152 1056.54,-339.593"/>
</g>
<!-- Node30&#45;&gt;Node2 -->
<g id="edge60" class="edge"><title>Node30&#45;&gt;Node2</title>
<path fill="none" stroke="midnightblue" d="M793.09,-549.46C720.964,-520.51 495.524,-430.024 411.554,-396.32"/>
<polygon fill="midnightblue" stroke="midnightblue" points="412.847,-393.068 402.263,-392.591 410.24,-399.564 412.847,-393.068"/>
</g>
<!-- Node30&#45;&gt;Node10 -->
<g id="edge61" class="edge"><title>Node30&#45;&gt;Node10</title>
<path fill="none" stroke="midnightblue" d="M805.21,-549.418C795.873,-541.267 781.96,-529.12 770.788,-519.367"/>
<polygon fill="midnightblue" stroke="midnightblue" points="773.077,-516.719 763.242,-512.779 768.474,-521.993 773.077,-516.719"/>
</g>
<!-- Node30&#45;&gt;Node17 -->
<g id="edge62" class="edge"><title>Node30&#45;&gt;Node17</title>
<path fill="none" stroke="midnightblue" d="M813.892,-549.187C809.611,-527.701 797.024,-473.556 772.613,-435 765.975,-424.516 756.992,-414.323 748.531,-405.809"/>
<polygon fill="midnightblue" stroke="midnightblue" points="750.916,-403.247 741.302,-398.795 746.042,-408.271 750.916,-403.247"/>
</g>
<!-- Node30&#45;&gt;Node28 -->
<g id="edge63" class="edge"><title>Node30&#45;&gt;Node28</title>
<path fill="none" stroke="midnightblue" d="M819.419,-549.477C832.578,-519.296 879.067,-420.693 946.613,-366 964.212,-351.75 986.29,-340.952 1007.03,-333.019"/>
<polygon fill="midnightblue" stroke="midnightblue" points="1008.25,-336.297 1016.44,-329.573 1005.85,-329.724 1008.25,-336.297"/>
</g>
<!-- Node30&#45;&gt;Node29 -->
<g id="edge64" class="edge"><title>Node30&#45;&gt;Node29</title>
<path fill="none" stroke="midnightblue" d="M854.066,-551.825C880.982,-545.549 916.48,-533.883 941.613,-513 975.69,-484.684 998.018,-436.886 1009.18,-407.956"/>
<polygon fill="midnightblue" stroke="midnightblue" points="1012.46,-409.165 1012.66,-398.572 1005.9,-406.73 1012.46,-409.165"/>
</g>
</g>
</svg>
