<?xml version="1.0" encoding="UTF-8" standalone="no"?>
<!DOCTYPE svg PUBLIC "-//W3C//DTD SVG 1.1//EN"
 "http://www.w3.org/Graphics/SVG/1.1/DTD/svg11.dtd">
<!-- Generated by graphviz version 2.38.0 (20140413.2041)
 -->
<!-- Title: Framework/interface/TreeEntry.h Pages: 1 -->
<svg width="195pt" height="212pt"
 viewBox="0.00 0.00 195.11 212.00" xmlns="http://www.w3.org/2000/svg" xmlns:xlink="http://www.w3.org/1999/xlink">
<g id="graph0" class="graph" transform="scale(1 1) rotate(0) translate(4 208)">
<title>Framework/interface/TreeEntry.h</title>
<polygon fill="white" stroke="none" points="-4,4 -4,-208 191.114,-208 191.114,4 -4,4"/>
<!-- Node1 -->
<g id="node1" class="node"><title>Node1</title>
<polygon fill="#bfbfbf" stroke="black" points="36.945,-171.5 36.945,-203.5 144.058,-203.5 144.058,-171.5 36.945,-171.5"/>
<text text-anchor="start" x="44.945" y="-190.5" font-family="Helvetica,sans-Serif" font-size="10.00">Framework/interface</text>
<text text-anchor="middle" x="90.5015" y="-178.5" font-family="Helvetica,sans-Serif" font-size="10.00">/TreeEntry.h</text>
</g>
<!-- Node2 -->
<g id="node2" class="node"><title>Node2</title>
<g id="a_node2"><a xlink:href="IOUtils_8h.html" target="_top" xlink:title="IOUtils.h">
<polygon fill="white" stroke="black" points="74.3355,-57.5 74.3355,-77.5 128.667,-77.5 128.667,-57.5 74.3355,-57.5"/>
<text text-anchor="middle" x="101.501" y="-64.5" font-family="Helvetica,sans-Serif" font-size="10.00">IOUtils.h</text>
</a>
</g>
</g>
<!-- Node1&#45;&gt;Node2 -->
<g id="edge1" class="edge"><title>Node1&#45;&gt;Node2</title>
<path fill="none" stroke="midnightblue" d="M93.7554,-171.256C95.7884,-161.048 98.2503,-147.28 99.5015,-135 101.113,-119.18 101.57,-101.143 101.648,-87.8491"/>
<polygon fill="midnightblue" stroke="midnightblue" points="105.148,-87.5587 101.638,-77.5621 98.1476,-87.5654 105.148,-87.5587"/>
</g>
<!-- Node4 -->
<g id="node4" class="node"><title>Node4</title>
<polygon fill="white" stroke="#bfbfbf" points="-3.55271e-15,-0.5 -3.55271e-15,-20.5 51.003,-20.5 51.003,-0.5 -3.55271e-15,-0.5"/>
<text text-anchor="middle" x="25.5015" y="-7.5" font-family="Helvetica,sans-Serif" font-size="10.00">TTree.h</text>
</g>
<!-- Node1&#45;&gt;Node4 -->
<g id="edge8" class="edge"><title>Node1&#45;&gt;Node4</title>
<path fill="none" stroke="midnightblue" d="M62.6339,-171.476C49.4314,-162.732 34.9496,-150.386 27.5015,-135 11.1417,-101.206 16.2248,-55.8674 21.072,-30.5843"/>
<polygon fill="midnightblue" stroke="midnightblue" points="24.5008,-31.2868 23.1381,-20.7799 17.6512,-29.8433 24.5008,-31.2868"/>
</g>
<!-- Node5 -->
<g id="node5" class="node"><title>Node5</title>
<polygon fill="white" stroke="#bfbfbf" points="143.888,-0.5 143.888,-20.5 187.114,-20.5 187.114,-0.5 143.888,-0.5"/>
<text text-anchor="middle" x="165.501" y="-7.5" font-family="Helvetica,sans-Serif" font-size="10.00">vector</text>
</g>
<!-- Node1&#45;&gt;Node5 -->
<g id="edge9" class="edge"><title>Node1&#45;&gt;Node5</title>
<path fill="none" stroke="midnightblue" d="M97.8217,-171.257C102.67,-161.05 109.107,-147.283 114.501,-135 130.754,-97.998 148.505,-54.1614 158.189,-29.9296"/>
<polygon fill="midnightblue" stroke="midnightblue" points="161.477,-31.131 161.926,-20.5457 154.974,-28.5407 161.477,-31.131"/>
</g>
<!-- Node6 -->
<g id="node6" class="node"><title>Node6</title>
<g id="a_node6"><a xlink:href="Object_8h.html" target="_top" xlink:title="Object.h">
<polygon fill="white" stroke="black" points="36.885,-114.5 36.885,-134.5 90.118,-134.5 90.118,-114.5 36.885,-114.5"/>
<text text-anchor="middle" x="63.5015" y="-121.5" font-family="Helvetica,sans-Serif" font-size="10.00">Object.h</text>
</a>
</g>
</g>
<!-- Node1&#45;&gt;Node6 -->
<g id="edge5" class="edge"><title>Node1&#45;&gt;Node6</title>
<path fill="none" stroke="midnightblue" d="M83.8273,-171.421C80.1458,-163.104 75.5453,-152.71 71.6525,-143.915"/>
<polygon fill="midnightblue" stroke="midnightblue" points="74.7535,-142.274 67.5054,-134.546 68.3524,-145.107 74.7535,-142.274"/>
</g>
<!-- Node3 -->
<g id="node3" class="node"><title>Node3</title>
<polygon fill="white" stroke="#bfbfbf" points="69.221,-0.5 69.221,-20.5 125.782,-20.5 125.782,-0.5 69.221,-0.5"/>
<text text-anchor="middle" x="97.5015" y="-7.5" font-family="Helvetica,sans-Serif" font-size="10.00">TString.h</text>
</g>
<!-- Node2&#45;&gt;Node3 -->
<g id="edge2" class="edge"><title>Node2&#45;&gt;Node3</title>
<path fill="none" stroke="midnightblue" d="M100.841,-57.4179C100.317,-50.2164 99.5667,-39.8962 98.9097,-30.8632"/>
<polygon fill="midnightblue" stroke="midnightblue" points="102.393,-30.4992 98.1764,-20.7795 95.411,-31.007 102.393,-30.4992"/>
</g>
<!-- Node2&#45;&gt;Node4 -->
<g id="edge3" class="edge"><title>Node2&#45;&gt;Node4</title>
<path fill="none" stroke="midnightblue" d="M88.9516,-57.4179C77.4004,-49.0584 60.0423,-36.4966 46.4,-26.6239"/>
<polygon fill="midnightblue" stroke="midnightblue" points="48.2231,-23.6229 38.07,-20.5956 44.1192,-29.2938 48.2231,-23.6229"/>
</g>
<!-- Node2&#45;&gt;Node5 -->
<g id="edge4" class="edge"><title>Node2&#45;&gt;Node5</title>
<path fill="none" stroke="midnightblue" d="M112.07,-57.4179C121.555,-49.2667 135.689,-37.1201 147.038,-27.3669"/>
<polygon fill="midnightblue" stroke="midnightblue" points="149.401,-29.9516 154.704,-20.7795 144.838,-24.6427 149.401,-29.9516"/>
</g>
<!-- Node6&#45;&gt;Node2 -->
<g id="edge6" class="edge"><title>Node6&#45;&gt;Node2</title>
<path fill="none" stroke="midnightblue" d="M69.7764,-114.418C75.0801,-106.742 82.832,-95.5217 89.3453,-86.0945"/>
<polygon fill="midnightblue" stroke="midnightblue" points="92.2854,-87.9963 95.0902,-77.7795 86.5263,-84.0173 92.2854,-87.9963"/>
</g>
<!-- Node6&#45;&gt;Node4 -->
<g id="edge7" class="edge"><title>Node6&#45;&gt;Node4</title>
<path fill="none" stroke="midnightblue" d="M60.3918,-114.335C54.1847,-96.0398 40.1472,-54.6663 31.894,-30.3411"/>
<polygon fill="midnightblue" stroke="midnightblue" points="35.1816,-29.1373 28.6542,-20.7921 28.5528,-31.3864 35.1816,-29.1373"/>
</g>
</g>
</svg>
