<?xml version="1.0" encoding="UTF-8" standalone="no"?>
<!DOCTYPE svg PUBLIC "-//W3C//DTD SVG 1.1//EN"
 "http://www.w3.org/Graphics/SVG/1.1/DTD/svg11.dtd">
<!-- Generated by graphviz version 2.38.0 (20140413.2041)
 -->
<!-- Title: Framework/src/TreeEntry.cc Pages: 1 -->
<svg width="709pt" height="371pt"
 viewBox="0.00 0.00 709.17 371.00" xmlns="http://www.w3.org/2000/svg" xmlns:xlink="http://www.w3.org/1999/xlink">
<g id="graph0" class="graph" transform="scale(1 1) rotate(0) translate(4 367)">
<title>Framework/src/TreeEntry.cc</title>
<polygon fill="white" stroke="none" points="-4,4 -4,-367 705.17,-367 705.17,4 -4,4"/>
<!-- Node1 -->
<g id="node1" class="node"><title>Node1</title>
<polygon fill="#bfbfbf" stroke="black" points="559.62,-342.5 559.62,-362.5 701.17,-362.5 701.17,-342.5 559.62,-342.5"/>
<text text-anchor="middle" x="630.395" y="-349.5" font-family="Helvetica,sans-Serif" font-size="10.00">Framework/src/TreeEntry.cc</text>
</g>
<!-- Node2 -->
<g id="node2" class="node"><title>Node2</title>
<g id="a_node2"><a xlink:href="TreeEntry_8h.html" target="_top" xlink:title="../interface/TreeEntry.h">
<polygon fill="white" stroke="black" points="392.551,-171.5 392.551,-191.5 510.239,-191.5 510.239,-171.5 392.551,-171.5"/>
<text text-anchor="middle" x="451.395" y="-178.5" font-family="Helvetica,sans-Serif" font-size="10.00">../interface/TreeEntry.h</text>
</a>
</g>
</g>
<!-- Node1&#45;&gt;Node2 -->
<g id="edge1" class="edge"><title>Node1&#45;&gt;Node2</title>
<path fill="none" stroke="midnightblue" d="M620.772,-342.414C591.877,-315.133 505.594,-233.671 468.575,-198.72"/>
<polygon fill="midnightblue" stroke="midnightblue" points="470.741,-195.951 461.067,-191.631 465.935,-201.041 470.741,-195.951"/>
</g>
<!-- Node8 -->
<g id="node8" class="node"><title>Node8</title>
<g id="a_node8"><a xlink:href="CollectionBase_8h.html" target="_top" xlink:title="../interface/CollectionBase.h">
<polygon fill="white" stroke="black" points="408.159,-285.5 408.159,-305.5 548.632,-305.5 548.632,-285.5 408.159,-285.5"/>
<text text-anchor="middle" x="478.395" y="-292.5" font-family="Helvetica,sans-Serif" font-size="10.00">../interface/CollectionBase.h</text>
</a>
</g>
</g>
<!-- Node1&#45;&gt;Node8 -->
<g id="edge11" class="edge"><title>Node1&#45;&gt;Node8</title>
<path fill="none" stroke="midnightblue" d="M605.296,-342.418C580.028,-333.275 540.866,-319.105 512.731,-308.924"/>
<polygon fill="midnightblue" stroke="midnightblue" points="513.874,-305.616 503.28,-305.504 511.492,-312.198 513.874,-305.616"/>
</g>
<!-- Node3 -->
<g id="node3" class="node"><title>Node3</title>
<g id="a_node3"><a xlink:href="IOUtils_8h.html" target="_top" xlink:title="IOUtils.h">
<polygon fill="white" stroke="black" points="318.229,-57.5 318.229,-77.5 372.561,-77.5 372.561,-57.5 318.229,-57.5"/>
<text text-anchor="middle" x="345.395" y="-64.5" font-family="Helvetica,sans-Serif" font-size="10.00">IOUtils.h</text>
</a>
</g>
</g>
<!-- Node2&#45;&gt;Node3 -->
<g id="edge2" class="edge"><title>Node2&#45;&gt;Node3</title>
<path fill="none" stroke="midnightblue" d="M442.721,-171.335C424.863,-152.466 383.769,-109.046 361.108,-85.102"/>
<polygon fill="midnightblue" stroke="midnightblue" points="363.606,-82.6492 354.19,-77.7921 358.522,-87.4609 363.606,-82.6492"/>
</g>
<!-- Node5 -->
<g id="node5" class="node"><title>Node5</title>
<polygon fill="white" stroke="#bfbfbf" points="152.894,-0.5 152.894,-20.5 203.897,-20.5 203.897,-0.5 152.894,-0.5"/>
<text text-anchor="middle" x="178.395" y="-7.5" font-family="Helvetica,sans-Serif" font-size="10.00">TTree.h</text>
</g>
<!-- Node2&#45;&gt;Node5 -->
<g id="edge9" class="edge"><title>Node2&#45;&gt;Node5</title>
<path fill="none" stroke="midnightblue" d="M449.001,-171.33C442.456,-148.181 421.986,-87.0839 381.395,-57 331.804,-20.2445 257.95,-12.2862 214.333,-11.0565"/>
<polygon fill="midnightblue" stroke="midnightblue" points="214.251,-7.55464 204.191,-10.8772 214.127,-14.5535 214.251,-7.55464"/>
</g>
<!-- Node6 -->
<g id="node6" class="node"><title>Node6</title>
<polygon fill="white" stroke="#bfbfbf" points="532.783,-0.5 532.783,-20.5 576.008,-20.5 576.008,-0.5 532.783,-0.5"/>
<text text-anchor="middle" x="554.395" y="-7.5" font-family="Helvetica,sans-Serif" font-size="10.00">vector</text>
</g>
<!-- Node2&#45;&gt;Node6 -->
<g id="edge10" class="edge"><title>Node2&#45;&gt;Node6</title>
<path fill="none" stroke="midnightblue" d="M460.288,-171.433C468.884,-162.488 482.085,-148.265 492.395,-135 511.08,-110.961 516.683,-105.184 530.395,-78 538.16,-62.6081 544.628,-44.0883 548.886,-30.506"/>
<polygon fill="midnightblue" stroke="midnightblue" points="552.269,-31.4107 551.809,-20.8259 545.568,-29.3871 552.269,-31.4107"/>
</g>
<!-- Node7 -->
<g id="node7" class="node"><title>Node7</title>
<g id="a_node7"><a xlink:href="Object_8h.html" target="_top" xlink:title="Object.h">
<polygon fill="white" stroke="black" points="244.779,-114.5 244.779,-134.5 298.012,-134.5 298.012,-114.5 244.779,-114.5"/>
<text text-anchor="middle" x="271.395" y="-121.5" font-family="Helvetica,sans-Serif" font-size="10.00">Object.h</text>
</a>
</g>
</g>
<!-- Node2&#45;&gt;Node7 -->
<g id="edge6" class="edge"><title>Node2&#45;&gt;Node7</title>
<path fill="none" stroke="midnightblue" d="M421.672,-171.418C390.543,-161.906 341.608,-146.954 308.092,-136.713"/>
<polygon fill="midnightblue" stroke="midnightblue" points="308.808,-133.272 298.222,-133.697 306.763,-139.966 308.808,-133.272"/>
</g>
<!-- Node4 -->
<g id="node4" class="node"><title>Node4</title>
<polygon fill="white" stroke="#bfbfbf" points="317.115,-0.5 317.115,-20.5 373.676,-20.5 373.676,-0.5 317.115,-0.5"/>
<text text-anchor="middle" x="345.395" y="-7.5" font-family="Helvetica,sans-Serif" font-size="10.00">TString.h</text>
</g>
<!-- Node3&#45;&gt;Node4 -->
<g id="edge3" class="edge"><title>Node3&#45;&gt;Node4</title>
<path fill="none" stroke="midnightblue" d="M345.395,-57.4179C345.395,-50.2164 345.395,-39.8962 345.395,-30.8632"/>
<polygon fill="midnightblue" stroke="midnightblue" points="348.896,-30.7794 345.395,-20.7795 341.896,-30.7795 348.896,-30.7794"/>
</g>
<!-- Node3&#45;&gt;Node5 -->
<g id="edge4" class="edge"><title>Node3&#45;&gt;Node5</title>
<path fill="none" stroke="midnightblue" d="M318.192,-57.5409C289.67,-48.1473 244.743,-33.3511 213.55,-23.0777"/>
<polygon fill="midnightblue" stroke="midnightblue" points="214.535,-19.7175 203.942,-19.9137 212.346,-26.3662 214.535,-19.7175"/>
</g>
<!-- Node3&#45;&gt;Node6 -->
<g id="edge5" class="edge"><title>Node3&#45;&gt;Node6</title>
<path fill="none" stroke="midnightblue" d="M372.719,-59.3097C411.48,-49.1093 482.249,-30.4858 523.081,-19.7406"/>
<polygon fill="midnightblue" stroke="midnightblue" points="523.999,-23.1182 532.779,-17.1885 522.218,-16.3487 523.999,-23.1182"/>
</g>
<!-- Node7&#45;&gt;Node3 -->
<g id="edge7" class="edge"><title>Node7&#45;&gt;Node3</title>
<path fill="none" stroke="midnightblue" d="M283.615,-114.418C294.862,-106.058 311.764,-93.4966 325.047,-83.6239"/>
<polygon fill="midnightblue" stroke="midnightblue" points="327.22,-86.37 333.158,-77.5956 323.044,-80.7518 327.22,-86.37"/>
</g>
<!-- Node7&#45;&gt;Node5 -->
<g id="edge8" class="edge"><title>Node7&#45;&gt;Node5</title>
<path fill="none" stroke="midnightblue" d="M263.785,-114.335C248.253,-95.6296 212.689,-52.7994 192.703,-28.731"/>
<polygon fill="midnightblue" stroke="midnightblue" points="195.192,-26.2496 186.111,-20.7921 189.807,-30.7215 195.192,-26.2496"/>
</g>
<!-- Node8&#45;&gt;Node6 -->
<g id="edge25" class="edge"><title>Node8&#45;&gt;Node6</title>
<path fill="none" stroke="midnightblue" d="M513.649,-285.425C558.552,-271.494 630.395,-240.191 630.395,-182.5 630.395,-182.5 630.395,-182.5 630.395,-123.5 630.395,-83.3176 596.486,-46.8439 573.967,-27.0531"/>
<polygon fill="midnightblue" stroke="midnightblue" points="576.165,-24.328 566.27,-20.5405 571.644,-29.6718 576.165,-24.328"/>
</g>
<!-- Node9 -->
<g id="node9" class="node"><title>Node9</title>
<g id="a_node9"><a xlink:href="ContainerBase_8h.html" target="_top" xlink:title="ContainerBase.h">
<polygon fill="white" stroke="black" points="357.162,-228.5 357.162,-248.5 447.628,-248.5 447.628,-228.5 357.162,-228.5"/>
<text text-anchor="middle" x="402.395" y="-235.5" font-family="Helvetica,sans-Serif" font-size="10.00">ContainerBase.h</text>
</a>
</g>
</g>
<!-- Node8&#45;&gt;Node9 -->
<g id="edge12" class="edge"><title>Node8&#45;&gt;Node9</title>
<path fill="none" stroke="midnightblue" d="M465.846,-285.418C454.294,-277.058 436.936,-264.497 423.294,-254.624"/>
<polygon fill="midnightblue" stroke="midnightblue" points="425.117,-251.623 414.964,-248.596 421.013,-257.294 425.117,-251.623"/>
</g>
<!-- Node13 -->
<g id="node13" class="node"><title>Node13</title>
<polygon fill="white" stroke="#bfbfbf" points="300.008,-228.5 300.008,-248.5 338.782,-248.5 338.782,-228.5 300.008,-228.5"/>
<text text-anchor="middle" x="319.395" y="-235.5" font-family="Helvetica,sans-Serif" font-size="10.00">utility</text>
</g>
<!-- Node8&#45;&gt;Node13 -->
<g id="edge26" class="edge"><title>Node8&#45;&gt;Node13</title>
<path fill="none" stroke="midnightblue" d="M452.14,-285.418C423.735,-275.592 378.548,-259.962 348.927,-249.715"/>
<polygon fill="midnightblue" stroke="midnightblue" points="349.746,-246.295 339.151,-246.334 347.458,-252.911 349.746,-246.295"/>
</g>
<!-- Node9&#45;&gt;Node3 -->
<g id="edge20" class="edge"><title>Node9&#45;&gt;Node3</title>
<path fill="none" stroke="midnightblue" d="M398.197,-228.193C394.155,-219.07 387.996,-204.719 383.395,-192 370.163,-155.412 357.418,-111.715 350.574,-87.3343"/>
<polygon fill="midnightblue" stroke="midnightblue" points="353.915,-86.2839 347.864,-77.5868 347.171,-88.1589 353.915,-86.2839"/>
</g>
<!-- Node9&#45;&gt;Node4 -->
<g id="edge21" class="edge"><title>Node9&#45;&gt;Node4</title>
<path fill="none" stroke="midnightblue" d="M447.988,-230.495C486.489,-222.136 533.314,-204.812 519.395,-171 490.669,-101.215 413.232,-49.2934 372.029,-25.647"/>
<polygon fill="midnightblue" stroke="midnightblue" points="373.535,-22.4785 363.1,-20.6407 370.111,-28.5843 373.535,-22.4785"/>
</g>
<!-- Node9&#45;&gt;Node5 -->
<g id="edge22" class="edge"><title>Node9&#45;&gt;Node5</title>
<path fill="none" stroke="midnightblue" d="M357.042,-228.881C308.868,-219.351 236.176,-203.788 210.395,-192 171.02,-173.996 151.115,-173.545 131.395,-135 124.674,-121.862 125.564,-81.4879 136.395,-57 141.405,-45.6755 150.409,-35.3302 158.8,-27.3756"/>
<polygon fill="midnightblue" stroke="midnightblue" points="161.355,-29.7867 166.505,-20.5277 156.705,-24.5543 161.355,-29.7867"/>
</g>
<!-- Node9&#45;&gt;Node6 -->
<g id="edge23" class="edge"><title>Node9&#45;&gt;Node6</title>
<path fill="none" stroke="midnightblue" d="M447.915,-234.027C477.453,-229.249 514.252,-218.056 535.395,-192 573.556,-144.973 565.126,-66.8176 558.554,-30.7825"/>
<polygon fill="midnightblue" stroke="midnightblue" points="561.924,-29.7844 556.547,-20.6557 555.058,-31.1453 561.924,-29.7844"/>
</g>
<!-- Node10 -->
<g id="node10" class="node"><title>Node10</title>
<g id="a_node10"><a xlink:href="ContainerElement_8h.html" target="_top" xlink:title="ContainerElement.h">
<polygon fill="white" stroke="black" points="219.219,-171.5 219.219,-191.5 323.571,-191.5 323.571,-171.5 219.219,-171.5"/>
<text text-anchor="middle" x="271.395" y="-178.5" font-family="Helvetica,sans-Serif" font-size="10.00">ContainerElement.h</text>
</a>
</g>
</g>
<!-- Node9&#45;&gt;Node10 -->
<g id="edge13" class="edge"><title>Node9&#45;&gt;Node10</title>
<path fill="none" stroke="midnightblue" d="M380.764,-228.418C359.431,-219.461 326.608,-205.681 302.483,-195.552"/>
<polygon fill="midnightblue" stroke="midnightblue" points="303.635,-192.24 293.06,-191.596 300.925,-198.694 303.635,-192.24"/>
</g>
<!-- Node12 -->
<g id="node12" class="node"><title>Node12</title>
<polygon fill="white" stroke="#bfbfbf" points="-2.84217e-14,-171.5 -2.84217e-14,-191.5 58.791,-191.5 58.791,-171.5 -2.84217e-14,-171.5"/>
<text text-anchor="middle" x="29.3955" y="-178.5" font-family="Helvetica,sans-Serif" font-size="10.00">functional</text>
</g>
<!-- Node9&#45;&gt;Node12 -->
<g id="edge24" class="edge"><title>Node9&#45;&gt;Node12</title>
<path fill="none" stroke="midnightblue" d="M357.099,-229.525C353.817,-228.994 350.557,-228.48 347.395,-228 225.526,-209.506 193.803,-213.316 72.3955,-192 71.3036,-191.808 70.1975,-191.608 69.0822,-191.4"/>
<polygon fill="midnightblue" stroke="midnightblue" points="69.4268,-187.9 58.9361,-189.382 68.061,-194.766 69.4268,-187.9"/>
</g>
<!-- Node10&#45;&gt;Node3 -->
<g id="edge15" class="edge"><title>Node10&#45;&gt;Node3</title>
<path fill="none" stroke="midnightblue" d="M279.266,-171.399C286.86,-162.428 298.485,-148.187 307.395,-135 318.059,-119.219 328.686,-100.279 335.979,-86.6559"/>
<polygon fill="midnightblue" stroke="midnightblue" points="339.082,-88.2745 340.653,-77.7967 332.891,-85.0081 339.082,-88.2745"/>
</g>
<!-- Node10&#45;&gt;Node4 -->
<g id="edge17" class="edge"><title>Node10&#45;&gt;Node4</title>
<path fill="none" stroke="midnightblue" d="M260.345,-171.284C246.65,-158.674 226.178,-135.188 235.395,-114 252.628,-74.3885 293.548,-43.1568 320.329,-26.0238"/>
<polygon fill="midnightblue" stroke="midnightblue" points="322.492,-28.8017 329.151,-20.561 318.806,-22.8504 322.492,-28.8017"/>
</g>
<!-- Node10&#45;&gt;Node5 -->
<g id="edge16" class="edge"><title>Node10&#45;&gt;Node5</title>
<path fill="none" stroke="midnightblue" d="M219.152,-175.999C191.807,-170.68 160.532,-159.278 143.395,-135 120.276,-102.245 146.937,-54.5346 164.829,-29.0658"/>
<polygon fill="midnightblue" stroke="midnightblue" points="167.829,-30.8931 170.915,-20.7578 162.182,-26.7561 167.829,-30.8931"/>
</g>
<!-- Node10&#45;&gt;Node6 -->
<g id="edge18" class="edge"><title>Node10&#45;&gt;Node6</title>
<path fill="none" stroke="midnightblue" d="M286.611,-171.414C333.158,-143.617 473.898,-59.571 530.47,-25.7876"/>
<polygon fill="midnightblue" stroke="midnightblue" points="532.314,-28.7632 539.105,-20.6311 528.725,-22.7533 532.314,-28.7632"/>
</g>
<!-- Node10&#45;&gt;Node7 -->
<g id="edge14" class="edge"><title>Node10&#45;&gt;Node7</title>
<path fill="none" stroke="midnightblue" d="M271.395,-171.418C271.395,-164.216 271.395,-153.896 271.395,-144.863"/>
<polygon fill="midnightblue" stroke="midnightblue" points="274.896,-144.779 271.395,-134.779 267.896,-144.779 274.896,-144.779"/>
</g>
<!-- Node11 -->
<g id="node11" class="node"><title>Node11</title>
<polygon fill="white" stroke="#bfbfbf" points="152.672,-114.5 152.672,-134.5 188.119,-134.5 188.119,-114.5 152.672,-114.5"/>
<text text-anchor="middle" x="170.395" y="-121.5" font-family="Helvetica,sans-Serif" font-size="10.00">map</text>
</g>
<!-- Node10&#45;&gt;Node11 -->
<g id="edge19" class="edge"><title>Node10&#45;&gt;Node11</title>
<path fill="none" stroke="midnightblue" d="M254.717,-171.418C238.782,-162.74 214.53,-149.533 196.119,-139.508"/>
<polygon fill="midnightblue" stroke="midnightblue" points="197.555,-136.304 187.098,-134.596 194.207,-142.452 197.555,-136.304"/>
</g>
</g>
</svg>
