<?xml version="1.0" encoding="UTF-8" standalone="no"?>
<!DOCTYPE svg PUBLIC "-//W3C//DTD SVG 1.1//EN"
 "http://www.w3.org/Graphics/SVG/1.1/DTD/svg11.dtd">
<!-- Generated by graphviz version 2.38.0 (20140413.2041)
 -->
<!-- Title: Framework/interface/TreeEntry.h Pages: 1 -->
<svg width="537pt" height="155pt"
 viewBox="0.00 0.00 537.34 155.00" xmlns="http://www.w3.org/2000/svg" xmlns:xlink="http://www.w3.org/1999/xlink">
<g id="graph0" class="graph" transform="scale(1 1) rotate(0) translate(4 151)">
<title>Framework/interface/TreeEntry.h</title>
<polygon fill="white" stroke="none" points="-4,4 -4,-151 533.338,-151 533.338,4 -4,4"/>
<!-- Node1 -->
<g id="node1" class="node"><title>Node1</title>
<polygon fill="#bfbfbf" stroke="black" points="166.219,-114.5 166.219,-146.5 273.332,-146.5 273.332,-114.5 166.219,-114.5"/>
<text text-anchor="start" x="174.219" y="-133.5" font-family="Helvetica,sans-Serif" font-size="10.00">Framework/interface</text>
<text text-anchor="middle" x="219.775" y="-121.5" font-family="Helvetica,sans-Serif" font-size="10.00">/TreeEntry.h</text>
</g>
<!-- Node2 -->
<g id="node2" class="node"><title>Node2</title>
<g id="a_node2"><a xlink:href="TreeEntry_8cc.html" target="_top" xlink:title="Framework/src/TreeEntry.cc">
<polygon fill="white" stroke="black" points="0,-57.5 0,-77.5 141.55,-77.5 141.55,-57.5 0,-57.5"/>
<text text-anchor="middle" x="70.775" y="-64.5" font-family="Helvetica,sans-Serif" font-size="10.00">Framework/src/TreeEntry.cc</text>
</a>
</g>
</g>
<!-- Node1&#45;&gt;Node2 -->
<g id="edge1" class="edge"><title>Node1&#45;&gt;Node2</title>
<path fill="none" stroke="midnightblue" d="M173.348,-110.493C146.518,-99.5089 113.998,-86.1955 92.8707,-77.5459"/>
<polygon fill="midnightblue" stroke="midnightblue" points="172.363,-113.872 182.944,-114.421 175.015,-107.393 172.363,-113.872"/>
</g>
<!-- Node3 -->
<g id="node3" class="node"><title>Node3</title>
<g id="a_node3"><a xlink:href="Event_8h.html" target="_top" xlink:title="Objects/interface/Event.h">
<polygon fill="white" stroke="black" points="297.925,-57.5 297.925,-77.5 425.624,-77.5 425.624,-57.5 297.925,-57.5"/>
<text text-anchor="middle" x="361.775" y="-64.5" font-family="Helvetica,sans-Serif" font-size="10.00">Objects/interface/Event.h</text>
</a>
</g>
</g>
<!-- Node1&#45;&gt;Node3 -->
<g id="edge2" class="edge"><title>Node1&#45;&gt;Node3</title>
<path fill="none" stroke="midnightblue" d="M264.358,-110.348C289.862,-99.3922 320.671,-86.1576 340.717,-77.5459"/>
<polygon fill="midnightblue" stroke="midnightblue" points="262.683,-107.258 254.876,-114.421 265.446,-113.69 262.683,-107.258"/>
</g>
<!-- Node7 -->
<g id="node7" class="node"><title>Node7</title>
<g id="a_node7"><a xlink:href="Run_8h.html" target="_top" xlink:title="Objects/interface/Run.h">
<polygon fill="white" stroke="black" points="159.54,-57.5 159.54,-77.5 280.01,-77.5 280.01,-57.5 159.54,-57.5"/>
<text text-anchor="middle" x="219.775" y="-64.5" font-family="Helvetica,sans-Serif" font-size="10.00">Objects/interface/Run.h</text>
</a>
</g>
</g>
<!-- Node1&#45;&gt;Node7 -->
<g id="edge6" class="edge"><title>Node1&#45;&gt;Node7</title>
<path fill="none" stroke="midnightblue" d="M219.775,-104.229C219.775,-94.7622 219.775,-84.6021 219.775,-77.5459"/>
<polygon fill="midnightblue" stroke="midnightblue" points="216.275,-104.421 219.775,-114.421 223.275,-104.421 216.275,-104.421"/>
</g>
<!-- Node4 -->
<g id="node4" class="node"><title>Node4</title>
<g id="a_node4"><a xlink:href="LinkDef_8h.html" target="_top" xlink:title="obj/LinkDef.h">
<polygon fill="white" stroke="black" points="196.601,-0.5 196.601,-20.5 270.949,-20.5 270.949,-0.5 196.601,-0.5"/>
<text text-anchor="middle" x="233.775" y="-7.5" font-family="Helvetica,sans-Serif" font-size="10.00">obj/LinkDef.h</text>
</a>
</g>
</g>
<!-- Node3&#45;&gt;Node4 -->
<g id="edge3" class="edge"><title>Node3&#45;&gt;Node4</title>
<path fill="none" stroke="midnightblue" d="M331.435,-53.4633C307.871,-43.3383 275.799,-29.5571 254.943,-20.5956"/>
<polygon fill="midnightblue" stroke="midnightblue" points="330.069,-56.6857 340.638,-57.4179 332.832,-50.2542 330.069,-56.6857"/>
</g>
<!-- Node5 -->
<g id="node5" class="node"><title>Node5</title>
<g id="a_node5"><a xlink:href="Event_8cc.html" target="_top" xlink:title="Objects/src/Event.cc">
<polygon fill="white" stroke="black" points="422.212,-0.5 422.212,-20.5 529.338,-20.5 529.338,-0.5 422.212,-0.5"/>
<text text-anchor="middle" x="475.775" y="-7.5" font-family="Helvetica,sans-Serif" font-size="10.00">Objects/src/Event.cc</text>
</a>
</g>
</g>
<!-- Node3&#45;&gt;Node5 -->
<g id="edge4" class="edge"><title>Node3&#45;&gt;Node5</title>
<path fill="none" stroke="midnightblue" d="M389.64,-53.0563C410.543,-42.9716 438.595,-29.4376 456.922,-20.5956"/>
<polygon fill="midnightblue" stroke="midnightblue" points="388.086,-49.9202 380.6,-57.4179 391.127,-56.2248 388.086,-49.9202"/>
</g>
<!-- Node6 -->
<g id="node6" class="node"><title>Node6</title>
<g id="a_node6"><a xlink:href="FileMerger_8cc.html" target="_top" xlink:title="Utils/src/FileMerger.cc">
<polygon fill="white" stroke="black" points="289.339,-0.5 289.339,-20.5 404.211,-20.5 404.211,-0.5 289.339,-0.5"/>
<text text-anchor="middle" x="346.775" y="-7.5" font-family="Helvetica,sans-Serif" font-size="10.00">Utils/src/FileMerger.cc</text>
</a>
</g>
</g>
<!-- Node3&#45;&gt;Node6 -->
<g id="edge5" class="edge"><title>Node3&#45;&gt;Node6</title>
<path fill="none" stroke="midnightblue" d="M356.642,-47.6796C354.166,-38.6014 351.307,-28.1171 349.306,-20.7795"/>
<polygon fill="midnightblue" stroke="midnightblue" points="353.29,-48.6912 359.298,-57.4179 360.043,-46.8493 353.29,-48.6912"/>
</g>
<!-- Node7&#45;&gt;Node4 -->
<g id="edge7" class="edge"><title>Node7&#45;&gt;Node4</title>
<path fill="none" stroke="midnightblue" d="M224.566,-47.6796C226.876,-38.6014 229.545,-28.1171 231.413,-20.7795"/>
<polygon fill="midnightblue" stroke="midnightblue" points="221.162,-46.8635 222.087,-57.4179 227.946,-48.5903 221.162,-46.8635"/>
</g>
<!-- Node7&#45;&gt;Node6 -->
<g id="edge9" class="edge"><title>Node7&#45;&gt;Node6</title>
<path fill="none" stroke="midnightblue" d="M250.19,-53.328C273.54,-43.2159 305.172,-29.5172 325.772,-20.5956"/>
<polygon fill="midnightblue" stroke="midnightblue" points="248.532,-50.232 240.746,-57.4179 251.314,-56.6555 248.532,-50.232"/>
</g>
<!-- Node8 -->
<g id="node8" class="node"><title>Node8</title>
<g id="a_node8"><a xlink:href="Run_8cc.html" target="_top" xlink:title="Objects/src/Run.cc">
<polygon fill="white" stroke="black" points="78.826,-0.5 78.826,-20.5 178.724,-20.5 178.724,-0.5 78.826,-0.5"/>
<text text-anchor="middle" x="128.775" y="-7.5" font-family="Helvetica,sans-Serif" font-size="10.00">Objects/src/Run.cc</text>
</a>
</g>
</g>
<!-- Node7&#45;&gt;Node8 -->
<g id="edge8" class="edge"><title>Node7&#45;&gt;Node8</title>
<path fill="none" stroke="midnightblue" d="M196.167,-52.2313C179.641,-42.2435 158.058,-29.1986 143.824,-20.5956"/>
<polygon fill="midnightblue" stroke="midnightblue" points="194.379,-55.2406 204.748,-57.4179 198,-49.2498 194.379,-55.2406"/>
</g>
</g>
</svg>
